# https://github.com/mikedh/trimesh
v 8.00000000 0.00000000 -0.20000000
v 8.00000000 6.00000000 -0.20000000
v 0.00000000 6.00000000 -0.20000000
v 0.00000000 0.00000000 -0.20000000
v 8.00000000 0.00000000 0.00000000
v 8.00000000 6.00000000 0.00000000
v 0.00000000 6.00000000 0.00000000
v 0.00000000 0.00000000 0.00000000
v 8.00000000 0.00000000 2.70000000
v 8.00000000 0.00000000 0.00000000
v 4.15000000 0.00000000 0.00000000
v 4.15000000 0.00000000 2.10000000
v 3.20000000 0.00000000 2.10000000
v 3.20000000 0.00000000 0.00000000
v 0.00000000 0.00000000 0.00000000
v 0.00000000 0.00000000 2.70000000
v 1.00000000 0.00000000 2.05000000
v 1.00000000 0.00000000 0.95000000
v 2.40000000 0.00000000 0.95000000
v 2.40000000 0.00000000 2.05000000
v 8.00000000 0.15000000 2.70000000
v 8.00000000 0.15000000 0.00000000
v 4.15000000 0.15000000 0.00000000
v 4.15000000 0.15000000 2.10000000
v 3.20000000 0.15000000 2.10000000
v 3.20000000 0.15000000 0.00000000
v 0.00000000 0.15000000 0.00000000
v 0.00000000 0.15000000 2.70000000
v 1.00000000 0.15000000 2.05000000
v 1.00000000 0.15000000 0.95000000
v 2.40000000 0.15000000 0.95000000
v 2.40000000 0.15000000 2.05000000
v 8.00000000 5.85000000 2.70000000
v 8.00000000 5.85000000 0.00000000
v 0.00000000 5.85000000 0.00000000
v 0.00000000 5.85000000 2.70000000
v 1.40000000 5.85000000 0.95000000
v 2.60000000 5.85000000 0.95000000
v 2.60000000 5.85000000 2.05000000
v 1.40000000 5.85000000 2.05000000
v 5.00000000 5.85000000 2.05000000
v 5.00000000 5.85000000 0.95000000
v 6.20000000 5.85000000 0.95000000
v 6.20000000 5.85000000 2.05000000
v 8.00000000 6.00000000 2.70000000
v 8.00000000 6.00000000 0.00000000
v 0.00000000 6.00000000 0.00000000
v 0.00000000 6.00000000 2.70000000
v 1.40000000 6.00000000 0.95000000
v 2.60000000 6.00000000 0.95000000
v 2.60000000 6.00000000 2.05000000
v 1.40000000 6.00000000 2.05000000
v 5.00000000 6.00000000 2.05000000
v 5.00000000 6.00000000 0.95000000
v 6.20000000 6.00000000 0.95000000
v 6.20000000 6.00000000 2.05000000
v 0.00000000 0.15000000 2.70000000
v 0.00000000 5.85000000 2.70000000
v 0.00000000 5.85000000 0.00000000
v 0.00000000 0.15000000 0.00000000
v 0.00000000 2.15000000 2.05000000
v 0.00000000 2.15000000 0.95000000
v 0.00000000 3.45000000 0.95000000
v 0.00000000 3.45000000 2.05000000
v 0.15000000 0.15000000 2.70000000
v 0.15000000 5.85000000 2.70000000
v 0.15000000 5.85000000 0.00000000
v 0.15000000 0.15000000 0.00000000
v 0.15000000 2.15000000 2.05000000
v 0.15000000 2.15000000 0.95000000
v 0.15000000 3.45000000 0.95000000
v 0.15000000 3.45000000 2.05000000
v 7.85000000 5.85000000 0.00000000
v 7.85000000 5.85000000 2.70000000
v 7.85000000 0.15000000 2.70000000
v 7.85000000 0.15000000 0.00000000
v 8.00000000 5.85000000 0.00000000
v 8.00000000 5.85000000 2.70000000
v 8.00000000 0.15000000 2.70000000
v 8.00000000 0.15000000 0.00000000
v 0.00000000 0.00000000 2.70000000
v 0.00000000 6.00000000 2.70000000
v 0.00000000 3.00000000 4.30000000
v 0.15000000 0.00000000 2.70000000
v 0.15000000 6.00000000 2.70000000
v 0.15000000 3.00000000 4.30000000
v 7.85000000 0.00000000 2.70000000
v 7.85000000 6.00000000 2.70000000
v 7.85000000 3.00000000 4.30000000
v 8.00000000 0.00000000 2.70000000
v 8.00000000 6.00000000 2.70000000
v 8.00000000 3.00000000 4.30000000
v 8.00000000 0.00000000 2.70000000
v 8.00000000 3.00000000 4.30000000
v 0.00000000 3.00000000 4.30000000
v 0.00000000 0.00000000 2.70000000
v 8.00000000 -0.05647059 2.80588235
v 8.00000000 2.94352941 4.40588235
v 0.00000000 2.94352941 4.40588235
v 0.00000000 -0.05647059 2.80588235
v 8.00000000 6.00000000 2.70000000
v 8.00000000 3.00000000 4.30000000
v 0.00000000 3.00000000 4.30000000
v 0.00000000 6.00000000 2.70000000
v 8.00000000 6.05647059 2.80588235
v 8.00000000 3.05647059 4.40588235
v 0.00000000 3.05647059 4.40588235
v 0.00000000 6.05647059 2.80588235
f 2 1 4
f 4 3 2
f 8 5 6
f 6 7 8
f 6 5 2
f 2 5 1
f 7 6 3
f 3 6 2
f 5 8 1
f 1 8 4
f 8 7 4
f 4 7 3
f 15 18 17
f 19 18 15
f 12 11 10
f 16 15 17
f 19 15 14
f 12 10 9
f 9 16 17
f 20 19 14
f 13 12 9
f 9 17 20
f 20 14 13
f 13 9 20
f 29 30 27
f 27 30 31
f 22 23 24
f 29 27 28
f 26 27 31
f 21 22 24
f 29 28 21
f 26 31 32
f 21 24 25
f 32 29 21
f 25 26 32
f 32 21 25
f 9 22 21
f 10 22 9
f 10 23 22
f 11 23 10
f 11 24 23
f 12 24 11
f 12 25 24
f 13 25 12
f 13 26 25
f 14 26 13
f 14 27 26
f 15 27 14
f 16 21 28
f 9 21 16
f 15 28 27
f 16 28 15
f 17 30 29
f 18 30 17
f 18 31 30
f 19 31 18
f 20 29 32
f 17 29 20
f 19 32 31
f 20 32 19
f 38 42 41
f 43 37 35
f 36 35 37
f 39 38 41
f 43 35 34
f 36 37 40
f 44 43 34
f 33 36 40
f 44 34 33
f 33 40 39
f 41 44 33
f 33 39 41
f 53 54 50
f 47 49 55
f 49 47 48
f 53 50 51
f 46 47 55
f 52 49 48
f 46 55 56
f 52 48 45
f 45 46 56
f 51 52 45
f 45 56 53
f 53 51 45
f 33 46 45
f 34 46 33
f 34 47 46
f 35 47 34
f 36 45 48
f 33 45 36
f 35 48 47
f 36 48 35
f 38 51 50
f 39 51 38
f 40 49 52
f 37 49 40
f 39 52 51
f 40 52 39
f 42 50 54
f 38 50 42
f 41 54 53
f 42 54 41
f 37 55 49
f 43 55 37
f 44 53 56
f 41 53 44
f 43 56 55
f 44 56 43
f 61 62 60
f 60 62 63
f 61 60 57
f 59 60 63
f 61 57 58
f 59 63 64
f 64 61 58
f 58 59 64
f 68 70 69
f 71 70 68
f 65 68 69
f 71 68 67
f 66 65 69
f 72 71 67
f 66 69 72
f 72 67 66
f 65 66 57
f 57 66 58
f 66 67 58
f 58 67 59
f 68 65 60
f 60 65 57
f 67 68 59
f 59 68 60
f 69 70 61
f 61 70 62
f 70 71 62
f 62 71 63
f 72 69 64
f 64 69 61
f 71 72 63
f 63 72 64
f 74 73 76
f 76 75 74
f 80 77 78
f 78 79 80
f 78 77 74
f 74 77 73
f 79 78 75
f 75 78 74
f 77 80 73
f 73 80 76
f 80 79 76
f 76 79 75
f 82 81 83
f 86 84 85
f 85 84 82
f 82 84 81
f 84 86 81
f 81 86 83
f 86 85 83
f 83 85 82
f 88 87 89
f 92 90 91
f 91 90 88
f 88 90 87
f 90 92 87
f 87 92 89
f 92 91 89
f 89 91 88
f 94 93 96
f 96 95 94
f 100 97 98
f 98 99 100
f 98 97 94
f 94 97 93
f 99 98 95
f 95 98 94
f 97 100 93
f 93 100 96
f 100 99 96
f 96 99 95
f 104 101 102
f 102 103 104
f 106 105 108
f 108 107 106
f 102 105 106
f 101 105 102
f 103 106 107
f 102 106 103
f 101 108 105
f 104 108 101
f 104 107 108
f 103 107 104

