  0
SECTION
  2
HEADER
  9
$ACADVER
  1
AC1024
  9
$ACADMAINTVER
 70
6
  9
$DWGCODEPAGE
  3
ANSI_1252
  9
$LASTSAVEDBY
  1
ezdxf
  9
$INSBASE
 10
0.0
 20
0.0
 30
0.0
  9
$EXTMIN
 10
1e+20
 20
1e+20
 30
1e+20
  9
$EXTMAX
 10
-1e+20
 20
-1e+20
 30
-1e+20
  9
$LIMMIN
 10
0.0
 20
0.0
  9
$LIMMAX
 10
420.0
 20
297.0
  9
$ORTHOMODE
 70
0
  9
$REGENMODE
 70
1
  9
$FILLMODE
 70
1
  9
$QTEXTMODE
 70
0
  9
$MIRRTEXT
 70
1
  9
$LTSCALE
 40
1.0
  9
$ATTMODE
 70
1
  9
$TEXTSIZE
 40
2.5
  9
$TRACEWID
 40
1.0
  9
$TEXTSTYLE
  7
OpenSans
  9
$CLAYER
  8
0
  9
$CELTYPE
  6
ByLayer
  9
$CECOLOR
 62
256
  9
$CELTSCALE
 40
1.0
  9
$DISPSILH
 70
0
  9
$DIMSCALE
 40
1.0
  9
$DIMASZ
 40
0.175
  9
$DIMEXO
 40
0.125
  9
$DIMDLI
 40
3.75
  9
$DIMRND
 40
0.0
  9
$DIMDLE
 40
0.0
  9
$DIMEXE
 40
0.375
  9
$DIMTP
 40
0.0
  9
$DIMTM
 40
0.0
  9
$DIMTXT
 40
0.25
  9
$DIMCEN
 40
2.5
  9
$DIMTSZ
 40
0.0
  9
$DIMTOL
 70
0
  9
$DIMLIM
 70
0
  9
$DIMTIH
 70
0
  9
$DIMTOH
 70
0
  9
$DIMSE1
 70
0
  9
$DIMSE2
 70
0
  9
$DIMTAD
 70
1
  9
$DIMZIN
 70
12
  9
$DIMBLK
  1
ARCHTICK
  9
$DIMASO
 70
1
  9
$DIMSHO
 70
1
  9
$DIMPOST
  1

  9
$DIMAPOST
  1

  9
$DIMALT
 70
0
  9
$DIMALTD
 70
3
  9
$DIMALTF
 40
0.03937007874
  9
$DIMLFAC
 40
100.0
  9
$DIMTOFL
 70
1
  9
$DIMTVP
 40
0.0
  9
$DIMTIX
 70
0
  9
$DIMSOXD
 70
0
  9
$DIMSAH
 70
0
  9
$DIMBLK1
  1

  9
$DIMBLK2
  1

  9
$DIMSTYLE
  2
EZDXF
  9
$DIMCLRD
 70
0
  9
$DIMCLRE
 70
0
  9
$DIMCLRT
 70
0
  9
$DIMTFAC
 40
0.5
  9
$DIMGAP
 40
0.1
  9
$DIMJUST
 70
0
  9
$DIMSD1
 70
0
  9
$DIMSD2
 70
0
  9
$DIMTOLJ
 70
0
  9
$DIMTZIN
 70
8
  9
$DIMALTZ
 70
0
  9
$DIMALTTZ
 70
0
  9
$DIMUPT
 70
1
  9
$DIMDEC
 70
2
  9
$DIMTDEC
 70
2
  9
$DIMALTU
 70
2
  9
$DIMALTTD
 70
3
  9
$DIMTXSTY
  7
OpenSansCondensed-Light
  9
$DIMAUNIT
 70
0
  9
$DIMADEC
 70
2
  9
$DIMALTRND
 40
0.0
  9
$DIMAZIN
 70
3
  9
$DIMDSEP
 70
46
  9
$DIMATFIT
 70
3
  9
$DIMFRAC
 70
0
  9
$DIMLDRBLK
  1

  9
$DIMLUNIT
 70
2
  9
$DIMLWD
 70
-2
  9
$DIMLWE
 70
-2
  9
$DIMTMOVE
 70
2
  9
$DIMFXL
 40
1.0
  9
$DIMFXLON
 70
0
  9
$DIMJOGANG
 40
0.785398163397
  9
$DIMTFILL
 70
0
  9
$DIMTFILLCLR
 70
0
  9
$DIMARCSYM
 70
0
  9
$DIMLTYPE
  6

  9
$DIMLTEX1
  6

  9
$DIMLTEX2
  6

  9
$DIMTXTDIRECTION
 70
0
  9
$LUNITS
 70
2
  9
$LUPREC
 70
4
  9
$SKETCHINC
 40
1.0
  9
$FILLETRAD
 40
10.0
  9
$AUNITS
 70
0
  9
$AUPREC
 70
2
  9
$MENU
  1
.
  9
$ELEVATION
 40
0.0
  9
$PELEVATION
 40
0.0
  9
$THICKNESS
 40
0.0
  9
$LIMCHECK
 70
0
  9
$CHAMFERA
 40
0.0
  9
$CHAMFERB
 40
0.0
  9
$CHAMFERC
 40
0.0
  9
$CHAMFERD
 40
0.0
  9
$SKPOLY
 70
0
  9
$TDCREATE
 40
2461290.1451273146
  9
$TDUCREATE
 40
2458532.153996898
  9
$TDUPDATE
 40
2461290.1451273146
  9
$TDUUPDATE
 40
2458532.1544311
  9
$TDINDWG
 40
0.0
  9
$TDUSRTIMER
 40
0.0
  9
$USRTIMER
 70
1
  9
$ANGBASE
 50
0.0
  9
$ANGDIR
 70
0
  9
$PDMODE
 70
0
  9
$PDSIZE
 40
0.0
  9
$PLINEWID
 40
0.0
  9
$SPLFRAME
 70
0
  9
$SPLINETYPE
 70
6
  9
$SPLINESEGS
 70
8
  9
$HANDSEED
  5
98
  9
$SURFTAB1
 70
6
  9
$SURFTAB2
 70
6
  9
$SURFTYPE
 70
6
  9
$SURFU
 70
6
  9
$SURFV
 70
6
  9
$UCSBASE
  2

  9
$UCSNAME
  2

  9
$UCSORG
 10
0.0
 20
0.0
 30
0.0
  9
$UCSXDIR
 10
1.0
 20
0.0
 30
0.0
  9
$UCSYDIR
 10
0.0
 20
1.0
 30
0.0
  9
$UCSORTHOREF
  2

  9
$UCSORTHOVIEW
 70
0
  9
$UCSORGTOP
 10
0.0
 20
0.0
 30
0.0
  9
$UCSORGBOTTOM
 10
0.0
 20
0.0
 30
0.0
  9
$UCSORGLEFT
 10
0.0
 20
0.0
 30
0.0
  9
$UCSORGRIGHT
 10
0.0
 20
0.0
 30
0.0
  9
$UCSORGFRONT
 10
0.0
 20
0.0
 30
0.0
  9
$UCSORGBACK
 10
0.0
 20
0.0
 30
0.0
  9
$PUCSBASE
  2

  9
$PUCSNAME
  2

  9
$PUCSORG
 10
0.0
 20
0.0
 30
0.0
  9
$PUCSXDIR
 10
1.0
 20
0.0
 30
0.0
  9
$PUCSYDIR
 10
0.0
 20
1.0
 30
0.0
  9
$PUCSORTHOREF
  2

  9
$PUCSORTHOVIEW
 70
0
  9
$PUCSORGTOP
 10
0.0
 20
0.0
 30
0.0
  9
$PUCSORGBOTTOM
 10
0.0
 20
0.0
 30
0.0
  9
$PUCSORGLEFT
 10
0.0
 20
0.0
 30
0.0
  9
$PUCSORGRIGHT
 10
0.0
 20
0.0
 30
0.0
  9
$PUCSORGFRONT
 10
0.0
 20
0.0
 30
0.0
  9
$PUCSORGBACK
 10
0.0
 20
0.0
 30
0.0
  9
$USERI1
 70
0
  9
$USERI2
 70
0
  9
$USERI3
 70
0
  9
$USERI4
 70
0
  9
$USERI5
 70
0
  9
$USERR1
 40
0.0
  9
$USERR2
 40
0.0
  9
$USERR3
 40
0.0
  9
$USERR4
 40
0.0
  9
$USERR5
 40
0.0
  9
$WORLDVIEW
 70
1
  9
$SHADEDGE
 70
3
  9
$SHADEDIF
 70
70
  9
$TILEMODE
 70
1
  9
$MAXACTVP
 70
64
  9
$PINSBASE
 10
0.0
 20
0.0
 30
0.0
  9
$PLIMCHECK
 70
0
  9
$PEXTMIN
 10
1e+20
 20
1e+20
 30
1e+20
  9
$PEXTMAX
 10
-1e+20
 20
-1e+20
 30
-1e+20
  9
$PLIMMIN
 10
0.0
 20
0.0
  9
$PLIMMAX
 10
420.0
 20
297.0
  9
$UNITMODE
 70
0
  9
$VISRETAIN
 70
1
  9
$PLINEGEN
 70
0
  9
$PSLTSCALE
 70
1
  9
$TREEDEPTH
 70
3020
  9
$CMLSTYLE
  2
Standard
  9
$CMLJUST
 70
0
  9
$CMLSCALE
 40
20.0
  9
$PROXYGRAPHICS
 70
1
  9
$MEASUREMENT
 70
1
  9
$CELWEIGHT
370
-1
  9
$ENDCAPS
280
0
  9
$JOINSTYLE
280
0
  9
$LWDISPLAY
290
0
  9
$INSUNITS
 70
4
  9
$HYPERLINKBASE
  1

  9
$STYLESHEET
  1

  9
$XEDIT
290
1
  9
$CEPSNTYPE
380
0
  9
$PSTYLEMODE
290
1
  9
$FINGERPRINTGUID
  2
{A52506D2-E1C8-4685-A5BC-F2CBF1F447A5}
  9
$VERSIONGUID
  2
{B31FA141-DB08-478C-AB0E-0BE88536045B}
  9
$EXTNAMES
290
1
  9
$PSVPSCALE
 40
0.0
  9
$OLESTARTUP
290
0
  9
$SORTENTS
280
127
  9
$INDEXCTL
280
0
  9
$HIDETEXT
280
1
  9
$XCLIPFRAME
280
1
  9
$HALOGAP
280
0
  9
$OBSCOLOR
 70
257
  9
$OBSLTYPE
280
0
  9
$INTERSECTIONDISPLAY
280
0
  9
$INTERSECTIONCOLOR
 70
257
  9
$DIMASSOC
280
2
  9
$PROJECTNAME
  1

  9
$CAMERADISPLAY
290
0
  9
$LENSLENGTH
 40
50.0
  9
$CAMERAHEIGHT
 40
0.0
  9
$STEPSPERSEC
 40
24.0
  9
$STEPSIZE
 40
100.0
  9
$3DDWFPREC
 40
2.0
  9
$PSOLWIDTH
 40
0.005
  9
$PSOLHEIGHT
 40
0.08
  9
$LOFTANG1
 40
1.570796326795
  9
$LOFTANG2
 40
1.570796326795
  9
$LOFTMAG1
 40
0.0
  9
$LOFTMAG2
 40
0.0
  9
$LOFTPARAM
 70
7
  9
$LOFTNORMALS
280
1
  9
$LATITUDE
 40
37.795
  9
$LONGITUDE
 40
-122.394
  9
$NORTHDIRECTION
 40
0.0
  9
$TIMEZONE
 70
-8000
  9
$LIGHTGLYPHDISPLAY
280
1
  9
$TILEMODELIGHTSYNCH
280
1
  9
$CMATERIAL
347
20
  9
$SOLIDHIST
280
0
  9
$SHOWHIST
280
1
  9
$DWFFRAME
280
2
  9
$DGNFRAME
280
2
  9
$REALWORLDSCALE
290
1
  9
$INTERFERECOLOR
 62
256
  9
$CSHADOW
280
0
  9
$SHADOWPLANELOCATION
 40
0.0
  0
ENDSEC
  0
SECTION
  2
CLASSES
  0
CLASS
  1
ACDBDICTIONARYWDFLT
  2
AcDbDictionaryWithDefault
  3
ObjectDBX Classes
 90
0
 91
0
280
0
281
0
  0
CLASS
  1
SUN
  2
AcDbSun
  3
SCENEOE
 90
1153
 91
0
280
0
281
0
  0
CLASS
  1
VISUALSTYLE
  2
AcDbVisualStyle
  3
ObjectDBX Classes
 90
4095
 91
0
280
0
281
0
  0
CLASS
  1
MATERIAL
  2
AcDbMaterial
  3
ObjectDBX Classes
 90
1153
 91
0
280
0
281
0
  0
CLASS
  1
SCALE
  2
AcDbScale
  3
ObjectDBX Classes
 90
1153
 91
0
280
0
281
0
  0
CLASS
  1
TABLESTYLE
  2
AcDbTableStyle
  3
ObjectDBX Classes
 90
4095
 91
0
280
0
281
0
  0
CLASS
  1
MLEADERSTYLE
  2
AcDbMLeaderStyle
  3
ACDB_MLEADERSTYLE_CLASS
 90
4095
 91
0
280
0
281
0
  0
CLASS
  1
DICTIONARYVAR
  2
AcDbDictionaryVar
  3
ObjectDBX Classes
 90
0
 91
0
280
0
281
0
  0
CLASS
  1
CELLSTYLEMAP
  2
AcDbCellStyleMap
  3
ObjectDBX Classes
 90
1152
 91
0
280
0
281
0
  0
CLASS
  1
MENTALRAYRENDERSETTINGS
  2
AcDbMentalRayRenderSettings
  3
SCENEOE
 90
1024
 91
0
280
0
281
0
  0
CLASS
  1
ACDBDETAILVIEWSTYLE
  2
AcDbDetailViewStyle
  3
ObjectDBX Classes
 90
1025
 91
0
280
0
281
0
  0
CLASS
  1
ACDBSECTIONVIEWSTYLE
  2
AcDbSectionViewStyle
  3
ObjectDBX Classes
 90
1025
 91
0
280
0
281
0
  0
CLASS
  1
RASTERVARIABLES
  2
AcDbRasterVariables
  3
ISM
 90
0
 91
0
280
0
281
0
  0
CLASS
  1
LAYOUT
  2
AcDbLayout
  3
ObjectDBX Classes
 90
0
 91
0
280
0
281
0
  0
CLASS
  1
ACDBPLACEHOLDER
  2
AcDbPlaceHolder
  3
ObjectDBX Classes
 90
0
 91
0
280
0
281
0
  0
ENDSEC
  0
SECTION
  2
TABLES
  0
TABLE
  2
VPORT
  5
8
330
0
100
AcDbSymbolTable
 70
1
  0
VPORT
  5
23
330
8
100
AcDbSymbolTableRecord
100
AcDbViewportTableRecord
  2
*Active
 70
0
 10
0.0
 20
0.0
 11
1.0
 21
1.0
 12
0.0
 22
0.0
 13
0.0
 23
0.0
 14
0.5
 24
0.5
 15
0.5
 25
0.5
 16
0.0
 26
0.0
 36
1.0
 17
0.0
 27
0.0
 37
0.0
 40
1000.0
 41
1.34
 42
50.0
 43
0.0
 44
0.0
 50
0.0
 51
0.0
 71
0
 72
1000
 73
1
 74
3
 75
0
 76
0
 77
0
 78
0
281
0
 65
0
146
0.0
  0
ENDTAB
  0
TABLE
  2
LTYPE
  5
2
330
0
100
AcDbSymbolTable
 70
21
  0
LTYPE
  5
24
330
2
100
AcDbSymbolTableRecord
100
AcDbLinetypeTableRecord
  2
ByBlock
 70
0
  3

 72
65
 73
0
 40
0.0
  0
LTYPE
  5
25
330
2
100
AcDbSymbolTableRecord
100
AcDbLinetypeTableRecord
  2
ByLayer
 70
0
  3

 72
65
 73
0
 40
0.0
  0
LTYPE
  5
26
330
2
100
AcDbSymbolTableRecord
100
AcDbLinetypeTableRecord
  2
Continuous
 70
0
  3

 72
65
 73
0
 40
0.0
  0
LTYPE
  5
2F
330
2
100
AcDbSymbolTableRecord
100
AcDbLinetypeTableRecord
  2
CENTER
 70
0
  3
Center ____ _ ____ _ ____ _ ____ _ ____ _ ____
 72
65
 73
4
 40
5.08
 49
3.175
 74
0
 49
-0.635
 74
0
 49
0.635
 74
0
 49
-0.635
 74
0
  0
LTYPE
  5
30
330
2
100
AcDbSymbolTableRecord
100
AcDbLinetypeTableRecord
  2
CENTERX2
 70
0
  3
Center (2x) ________  __  ________  __  ________
 72
65
 73
4
 40
8.89
 49
6.35
 74
0
 49
-0.635
 74
0
 49
1.27
 74
0
 49
-0.635
 74
0
  0
LTYPE
  5
31
330
2
100
AcDbSymbolTableRecord
100
AcDbLinetypeTableRecord
  2
CENTER2
 70
0
  3
Center (.5x) ____ _ ____ _ ____ _ ____ _ ____
 72
65
 73
4
 40
2.54
 49
1.587
 74
0
 49
-0.318
 74
0
 49
0.318
 74
0
 49
-0.318
 74
0
  0
LTYPE
  5
32
330
2
100
AcDbSymbolTableRecord
100
AcDbLinetypeTableRecord
  2
DASHED
 70
0
  3
Dashed __ __ __ __ __ __ __ __ __ __ __ __ __ _
 72
65
 73
2
 40
1.524
 49
1.27
 74
0
 49
-0.254
 74
0
  0
LTYPE
  5
33
330
2
100
AcDbSymbolTableRecord
100
AcDbLinetypeTableRecord
  2
DASHEDX2
 70
0
  3
Dashed (2x) ____  ____  ____  ____  ____  ____
 72
65
 73
2
 40
3.048
 49
2.54
 74
0
 49
-0.508
 74
0
  0
LTYPE
  5
34
330
2
100
AcDbSymbolTableRecord
100
AcDbLinetypeTableRecord
  2
DASHED2
 70
0
  3
Dashed (.5x) _ _ _ _ _ _ _ _ _ _ _ _ _ _
 72
65
 73
2
 40
0.762
 49
0.635
 74
0
 49
-0.127
 74
0
  0
LTYPE
  5
35
330
2
100
AcDbSymbolTableRecord
100
AcDbLinetypeTableRecord
  2
PHANTOM
 70
0
  3
Phantom ______  __  __  ______  __  __  ______
 72
65
 73
6
 40
6.35
 49
3.175
 74
0
 49
-0.635
 74
0
 49
0.635
 74
0
 49
-0.635
 74
0
 49
0.635
 74
0
 49
-0.635
 74
0
  0
LTYPE
  5
36
330
2
100
AcDbSymbolTableRecord
100
AcDbLinetypeTableRecord
  2
PHANTOMX2
 70
0
  3
Phantom (2x)____________    ____    ____    ____________
 72
65
 73
6
 40
10.795
 49
6.35
 74
0
 49
-0.635
 74
0
 49
1.27
 74
0
 49
-0.635
 74
0
 49
1.27
 74
0
 49
-0.635
 74
0
  0
LTYPE
  5
37
330
2
100
AcDbSymbolTableRecord
100
AcDbLinetypeTableRecord
  2
PHANTOM2
 70
0
  3
Phantom (.5x) ___ _ _ ___ _ _ ___ _ _ ___ _ _ ___
 72
65
 73
6
 40
3.175
 49
1.587
 74
0
 49
-0.318
 74
0
 49
0.318
 74
0
 49
-0.318
 74
0
 49
0.318
 74
0
 49
-0.318
 74
0
  0
LTYPE
  5
38
330
2
100
AcDbSymbolTableRecord
100
AcDbLinetypeTableRecord
  2
DASHDOT
 70
0
  3
Dash dot __ . __ . __ . __ . __ . __ . __ . __
 72
65
 73
4
 40
3.556
 49
2.54
 74
0
 49
-0.508
 74
0
 49
0.0
 74
0
 49
-0.508
 74
0
  0
LTYPE
  5
39
330
2
100
AcDbSymbolTableRecord
100
AcDbLinetypeTableRecord
  2
DASHDOTX2
 70
0
  3
Dash dot (2x) ____  .  ____  .  ____  .  ____
 72
65
 73
4
 40
6.096
 49
5.08
 74
0
 49
-0.508
 74
0
 49
0.0
 74
0
 49
-0.508
 74
0
  0
LTYPE
  5
3A
330
2
100
AcDbSymbolTableRecord
100
AcDbLinetypeTableRecord
  2
DASHDOT2
 70
0
  3
Dash dot (.5x) _ . _ . _ . _ . _ . _ . _ . _
 72
65
 73
4
 40
1.778
 49
1.27
 74
0
 49
-0.254
 74
0
 49
0.0
 74
0
 49
-0.254
 74
0
  0
LTYPE
  5
3B
330
2
100
AcDbSymbolTableRecord
100
AcDbLinetypeTableRecord
  2
DOT
 70
0
  3
Dot .  .  .  .  .  .  .  .  .  .  .  .  .  .  .  .
 72
65
 73
2
 40
0.508
 49
0.0
 74
0
 49
-0.508
 74
0
  0
LTYPE
  5
3C
330
2
100
AcDbSymbolTableRecord
100
AcDbLinetypeTableRecord
  2
DOTX2
 70
0
  3
Dot (2x) .    .    .    .    .    .    .    . 
 72
65
 73
2
 40
1.016
 49
0.0
 74
0
 49
-1.016
 74
0
  0
LTYPE
  5
3D
330
2
100
AcDbSymbolTableRecord
100
AcDbLinetypeTableRecord
  2
DOT2
 70
0
  3
Dot (.5) . . . . . . . . . . . . . . . . . . . 
 72
65
 73
2
 40
0.254
 49
0.0
 74
0
 49
-0.254
 74
0
  0
LTYPE
  5
3E
330
2
100
AcDbSymbolTableRecord
100
AcDbLinetypeTableRecord
  2
DIVIDE
 70
0
  3
Divide __ . . __ . . __ . . __ . . __ . . __
 72
65
 73
6
 40
4.064
 49
2.54
 74
0
 49
-0.508
 74
0
 49
0.0
 74
0
 49
-0.508
 74
0
 49
0.0
 74
0
 49
-0.508
 74
0
  0
LTYPE
  5
3F
330
2
100
AcDbSymbolTableRecord
100
AcDbLinetypeTableRecord
  2
DIVIDEX2
 70
0
  3
Divide (2x) ____  . .  ____  . .  ____  . .  ____
 72
65
 73
6
 40
6.604
 49
5.08
 74
0
 49
-0.508
 74
0
 49
0.0
 74
0
 49
-0.508
 74
0
 49
0.0
 74
0
 49
-0.508
 74
0
  0
LTYPE
  5
40
330
2
100
AcDbSymbolTableRecord
100
AcDbLinetypeTableRecord
  2
DIVIDE2
 70
0
  3
Divide(.5x) _ . _ . _ . _ . _ . _ . _ . _
 72
65
 73
6
 40
2.032
 49
1.27
 74
0
 49
-0.254
 74
0
 49
0.0
 74
0
 49
-0.254
 74
0
 49
0.0
 74
0
 49
-0.254
 74
0
  0
ENDTAB
  0
TABLE
  2
LAYER
  5
1
330
0
100
AcDbSymbolTable
 70
5
  0
LAYER
  5
27
330
1
100
AcDbSymbolTableRecord
100
AcDbLayerTableRecord
  2
0
 70
0
 62
7
  6
Continuous
370
-3
390
13
347
21
  0
LAYER
  5
28
330
1
100
AcDbSymbolTableRecord
100
AcDbLayerTableRecord
  2
Defpoints
 70
0
 62
7
  6
Continuous
290
0
370
-3
390
13
347
21
  0
LAYER
  5
8A
330
1
100
AcDbSymbolTableRecord
100
AcDbLayerTableRecord
  2
CORTE
 70
0
 62
1
  6
Continuous
370
-3
390
13
347
21
  0
LAYER
  5
8B
330
1
100
AcDbSymbolTableRecord
100
AcDbLayerTableRecord
  2
GRABADO
 70
0
 62
5
  6
Continuous
370
-3
390
13
347
21
  0
LAYER
  5
8C
330
1
100
AcDbSymbolTableRecord
100
AcDbLayerTableRecord
  2
HOJA
 70
0
 62
8
  6
Continuous
370
-3
390
13
347
21
  0
ENDTAB
  0
TABLE
  2
STYLE
  5
5
330
0
100
AcDbSymbolTable
 70
26
  0
STYLE
  5
29
330
5
100
AcDbSymbolTableRecord
100
AcDbTextStyleTableRecord
  2
Standard
 70
0
 40
0.0
 41
1.0
 50
0.0
 71
0
 42
2.5
  3
txt
  4

  0
STYLE
  5
41
330
5
100
AcDbSymbolTableRecord
100
AcDbTextStyleTableRecord
  2
OpenSans-Light
 70
0
 40
0.0
 41
1.0
 50
0.0
 71
0
 42
2.5
  3
OpenSans-Light.ttf
  4

  0
STYLE
  5
42
330
5
100
AcDbSymbolTableRecord
100
AcDbTextStyleTableRecord
  2
OpenSans-Light-Italic
 70
0
 40
0.0
 41
1.0
 50
0.0
 71
0
 42
2.5
  3
OpenSans-LightItalic.ttf
  4

  0
STYLE
  5
43
330
5
100
AcDbSymbolTableRecord
100
AcDbTextStyleTableRecord
  2
OpenSans
 70
0
 40
0.0
 41
1.0
 50
0.0
 71
0
 42
2.5
  3
OpenSans-Regular.ttf
  4

  0
STYLE
  5
44
330
5
100
AcDbSymbolTableRecord
100
AcDbTextStyleTableRecord
  2
OpenSans-Italic
 70
0
 40
0.0
 41
1.0
 50
0.0
 71
0
 42
2.5
  3
OpenSans-Italic.ttf
  4

  0
STYLE
  5
45
330
5
100
AcDbSymbolTableRecord
100
AcDbTextStyleTableRecord
  2
OpenSans-SemiBold
 70
0
 40
0.0
 41
1.0
 50
0.0
 71
0
 42
2.5
  3
OpenSans-SemiBold.ttf
  4

  0
STYLE
  5
46
330
5
100
AcDbSymbolTableRecord
100
AcDbTextStyleTableRecord
  2
OpenSans-SemiBoldItalic
 70
0
 40
0.0
 41
1.0
 50
0.0
 71
0
 42
2.5
  3
OpenSans-SemiBoldItalic.ttf
  4

  0
STYLE
  5
47
330
5
100
AcDbSymbolTableRecord
100
AcDbTextStyleTableRecord
  2
OpenSans-Bold
 70
0
 40
0.0
 41
1.0
 50
0.0
 71
0
 42
2.5
  3
OpenSans-Bold.ttf
  4

  0
STYLE
  5
48
330
5
100
AcDbSymbolTableRecord
100
AcDbTextStyleTableRecord
  2
OpenSans-BoldItalic
 70
0
 40
0.0
 41
1.0
 50
0.0
 71
0
 42
2.5
  3
OpenSans-BoldItalic.ttf
  4

  0
STYLE
  5
49
330
5
100
AcDbSymbolTableRecord
100
AcDbTextStyleTableRecord
  2
OpenSans-ExtraBold
 70
0
 40
0.0
 41
1.0
 50
0.0
 71
0
 42
2.5
  3
OpenSans-ExtraBold.ttf
  4

  0
STYLE
  5
4A
330
5
100
AcDbSymbolTableRecord
100
AcDbTextStyleTableRecord
  2
OpenSans-ExtraBoldItalic
 70
0
 40
0.0
 41
1.0
 50
0.0
 71
0
 42
2.5
  3
OpenSans-ExtraBoldItalic.ttf
  4

  0
STYLE
  5
4B
330
5
100
AcDbSymbolTableRecord
100
AcDbTextStyleTableRecord
  2
OpenSansCondensed-Bold
 70
0
 40
0.0
 41
1.0
 50
0.0
 71
0
 42
2.5
  3
OpenSansCondensed-Bold.ttf
  4

  0
STYLE
  5
4C
330
5
100
AcDbSymbolTableRecord
100
AcDbTextStyleTableRecord
  2
OpenSansCondensed-Light
 70
0
 40
0.0
 41
1.0
 50
0.0
 71
0
 42
2.5
  3
OpenSansCondensed-Light.ttf
  4

  0
STYLE
  5
4D
330
5
100
AcDbSymbolTableRecord
100
AcDbTextStyleTableRecord
  2
OpenSansCondensed-Italic
 70
0
 40
0.0
 41
1.0
 50
0.0
 71
0
 42
2.5
  3
OpenSansCondensed-LightItalic.ttf
  4

  0
STYLE
  5
4E
330
5
100
AcDbSymbolTableRecord
100
AcDbTextStyleTableRecord
  2
LiberationSans
 70
0
 40
0.0
 41
1.0
 50
0.0
 71
0
 42
2.5
  3
LiberationSans-Regular.ttf
  4

  0
STYLE
  5
4F
330
5
100
AcDbSymbolTableRecord
100
AcDbTextStyleTableRecord
  2
LiberationSans-Bold
 70
0
 40
0.0
 41
1.0
 50
0.0
 71
0
 42
2.5
  3
LiberationSans-Bold.ttf
  4

  0
STYLE
  5
50
330
5
100
AcDbSymbolTableRecord
100
AcDbTextStyleTableRecord
  2
LiberationSans-BoldItalic
 70
0
 40
0.0
 41
1.0
 50
0.0
 71
0
 42
2.5
  3
LiberationSans-BoldItalic.ttf
  4

  0
STYLE
  5
51
330
5
100
AcDbSymbolTableRecord
100
AcDbTextStyleTableRecord
  2
LiberationSans-Italic
 70
0
 40
0.0
 41
1.0
 50
0.0
 71
0
 42
2.5
  3
LiberationSans-Italic.ttf
  4

  0
STYLE
  5
52
330
5
100
AcDbSymbolTableRecord
100
AcDbTextStyleTableRecord
  2
LiberationSerif
 70
0
 40
0.0
 41
1.0
 50
0.0
 71
0
 42
2.5
  3
LiberationSerif-Regular.ttf
  4

  0
STYLE
  5
53
330
5
100
AcDbSymbolTableRecord
100
AcDbTextStyleTableRecord
  2
LiberationSerif-Bold
 70
0
 40
0.0
 41
1.0
 50
0.0
 71
0
 42
2.5
  3
LiberationSerif-Bold.ttf
  4

  0
STYLE
  5
54
330
5
100
AcDbSymbolTableRecord
100
AcDbTextStyleTableRecord
  2
LiberationSerif-BoldItalic
 70
0
 40
0.0
 41
1.0
 50
0.0
 71
0
 42
2.5
  3
LiberationSerif-BoldItalic.ttf
  4

  0
STYLE
  5
55
330
5
100
AcDbSymbolTableRecord
100
AcDbTextStyleTableRecord
  2
LiberationSerif-Italic
 70
0
 40
0.0
 41
1.0
 50
0.0
 71
0
 42
2.5
  3
LiberationSerif-Italic.ttf
  4

  0
STYLE
  5
56
330
5
100
AcDbSymbolTableRecord
100
AcDbTextStyleTableRecord
  2
LiberationMono
 70
0
 40
0.0
 41
1.0
 50
0.0
 71
0
 42
2.5
  3
LiberationMono-Regular.ttf
  4

  0
STYLE
  5
57
330
5
100
AcDbSymbolTableRecord
100
AcDbTextStyleTableRecord
  2
LiberationMono-Bold
 70
0
 40
0.0
 41
1.0
 50
0.0
 71
0
 42
2.5
  3
LiberationMono-Bold.ttf
  4

  0
STYLE
  5
58
330
5
100
AcDbSymbolTableRecord
100
AcDbTextStyleTableRecord
  2
LiberationMono-BoldItalic
 70
0
 40
0.0
 41
1.0
 50
0.0
 71
0
 42
2.5
  3
LiberationMono-BoldItalic.ttf
  4

  0
STYLE
  5
59
330
5
100
AcDbSymbolTableRecord
100
AcDbTextStyleTableRecord
  2
LiberationMono-Italic
 70
0
 40
0.0
 41
1.0
 50
0.0
 71
0
 42
2.5
  3
LiberationMono-Italic.ttf
  4

  0
ENDTAB
  0
TABLE
  2
VIEW
  5
7
330
0
100
AcDbSymbolTable
 70
0
  0
ENDTAB
  0
TABLE
  2
UCS
  5
6
330
0
100
AcDbSymbolTable
 70
0
  0
ENDTAB
  0
TABLE
  2
APPID
  5
3
330
0
100
AcDbSymbolTable
 70
3
  0
APPID
  5
2A
330
3
100
AcDbSymbolTableRecord
100
AcDbRegAppTableRecord
  2
ACAD
 70
0
  0
APPID
  5
95
330
3
100
AcDbSymbolTableRecord
100
AcDbRegAppTableRecord
  2
HATCHBACKGROUNDCOLOR
 70
0
  0
APPID
  5
96
330
3
100
AcDbSymbolTableRecord
100
AcDbRegAppTableRecord
  2
EZDXF
 70
0
  0
ENDTAB
  0
TABLE
  2
DIMSTYLE
  5
4
330
0
100
AcDbSymbolTable
 70
12
100
AcDbDimStyleTable
  0
DIMSTYLE
105
2B
330
4
100
AcDbSymbolTableRecord
100
AcDbDimStyleTableRecord
  2
Standard
 70
0
 40
1.0
 41
2.5
 42
0.625
 43
3.75
 44
1.25
 45
0.0
 46
0.0
 47
0.0
 48
0.0
 49
2.5
140
2.5
141
2.5
142
0.0
143
0.03937007874
144
1.0
145
0.0
146
1.0
147
0.625
148
0.0
 69
0
 70
0
 71
0
 72
0
 73
0
 74
0
 75
0
 76
0
 77
1
 78
8
 79
3
170
0
171
3
172
1
173
0
174
0
175
0
176
0
177
0
178
0
179
2
271
2
272
2
273
2
274
3
275
0
276
0
277
2
278
44
279
0
280
0
281
0
282
0
283
0
284
8
285
0
286
0
288
0
289
3
290
0
371
-2
372
-2
  0
DIMSTYLE
105
73
330
4
100
AcDbSymbolTableRecord
100
AcDbDimStyleTableRecord
  2
EZDXF
 70
0
 40
1.0
 41
0.175
 42
0.125
 43
3.75
 44
0.375
 45
0.0
 46
0.0
 47
0.0
 48
0.0
 49
2.5
140
0.25
141
2.5
142
0.0
143
0.03937007874
144
100.0
145
0.0
146
0.5
147
0.1
148
0.0
 69
0
 70
0
 71
0
 72
0
 73
0
 74
0
 75
0
 76
0
 77
1
 78
12
 79
3
170
0
171
3
172
1
173
0
174
0
175
0
176
0
177
0
178
0
179
2
271
2
272
2
273
2
274
3
275
0
276
0
277
2
278
46
279
2
280
0
281
0
282
0
283
0
284
8
285
0
286
0
288
1
289
3
290
0
340
4C
342
74
371
-2
372
-2
  0
DIMSTYLE
105
7C
330
4
100
AcDbSymbolTableRecord
100
AcDbDimStyleTableRecord
  2
EZ_M_100_H25_CM
 70
0
 40
1.0
 41
0.25
 42
0.125
 43
3.75
 44
0.375
 45
0.0
 46
0.0
 47
0.0
 48
0.0
 49
2.5
140
0.25
141
2.5
142
0.125
143
0.03937007874
144
100.0
145
0.0
146
0.5
147
0.1
148
0.0
 69
0
 70
0
 71
0
 72
0
 73
0
 74
0
 75
0
 76
0
 77
1
 78
12
 79
3
170
0
171
3
172
1
173
0
174
0
175
0
176
0
177
0
178
0
179
2
271
2
272
2
273
2
274
3
275
0
276
0
277
2
278
46
279
2
280
0
281
0
282
0
283
0
284
8
285
0
286
0
288
1
289
3
290
0
340
4C
371
-2
372
-2
  0
DIMSTYLE
105
7D
330
4
100
AcDbSymbolTableRecord
100
AcDbDimStyleTableRecord
  2
EZ_M_50_H25_CM
 70
0
 40
1.0
 41
0.125
 42
0.0625
 43
3.75
 44
0.1875
 45
0.0
 46
0.0
 47
0.0
 48
0.0
 49
2.5
140
0.125
141
2.5
142
0.0625
143
0.03937007874
144
100.0
145
0.0
146
0.5
147
0.05
148
0.0
 69
0
 70
0
 71
0
 72
0
 73
0
 74
0
 75
0
 76
0
 77
1
 78
12
 79
3
170
0
171
3
172
1
173
0
174
0
175
0
176
0
177
0
178
0
179
2
271
2
272
2
273
2
274
3
275
0
276
0
277
2
278
46
279
2
280
0
281
0
282
0
283
0
284
8
285
0
286
0
288
1
289
3
290
0
340
4C
371
-2
372
-2
  0
DIMSTYLE
105
7E
330
4
100
AcDbSymbolTableRecord
100
AcDbDimStyleTableRecord
  2
EZ_M_25_H25_CM
 70
0
 40
1.0
 41
0.0625
 42
0.03125
 43
3.75
 44
0.09375
 45
0.0
 46
0.0
 47
0.0
 48
0.0
 49
2.5
140
0.0625
141
2.5
142
0.03125
143
0.03937007874
144
100.0
145
0.0
146
0.5
147
0.025
148
0.0
 69
0
 70
0
 71
0
 72
0
 73
0
 74
0
 75
0
 76
0
 77
1
 78
12
 79
3
170
0
171
3
172
1
173
0
174
0
175
0
176
0
177
0
178
0
179
2
271
2
272
2
273
2
274
3
275
0
276
0
277
2
278
46
279
2
280
0
281
0
282
0
283
0
284
8
285
0
286
0
288
1
289
3
290
0
340
4C
371
-2
372
-2
  0
DIMSTYLE
105
7F
330
4
100
AcDbSymbolTableRecord
100
AcDbDimStyleTableRecord
  2
EZ_M_20_H25_CM
 70
0
 40
1.0
 41
0.05
 42
0.025
 43
3.75
 44
0.07500000000000001
 45
0.0
 46
0.0
 47
0.0
 48
0.0
 49
2.5
140
0.05
141
2.5
142
0.025
143
0.03937007874
144
100.0
145
0.0
146
0.5
147
0.020000000000000004
148
0.0
 69
0
 70
0
 71
0
 72
0
 73
0
 74
0
 75
0
 76
0
 77
1
 78
12
 79
3
170
0
171
3
172
1
173
0
174
0
175
0
176
0
177
0
178
0
179
2
271
2
272
2
273
2
274
3
275
0
276
0
277
2
278
46
279
2
280
0
281
0
282
0
283
0
284
8
285
0
286
0
288
1
289
3
290
0
340
4C
371
-2
372
-2
  0
DIMSTYLE
105
80
330
4
100
AcDbSymbolTableRecord
100
AcDbDimStyleTableRecord
  2
EZ_M_10_H25_CM
 70
0
 40
1.0
 41
0.025
 42
0.0125
 43
3.75
 44
0.037500000000000006
 45
0.0
 46
0.0
 47
0.0
 48
0.0
 49
2.5
140
0.025
141
2.5
142
0.0125
143
0.03937007874
144
100.0
145
0.0
146
0.5
147
0.010000000000000002
148
0.0
 69
0
 70
0
 71
0
 72
0
 73
0
 74
0
 75
0
 76
0
 77
1
 78
12
 79
3
170
0
171
3
172
1
173
0
174
0
175
0
176
0
177
0
178
0
179
2
271
2
272
2
273
2
274
3
275
0
276
0
277
2
278
46
279
2
280
0
281
0
282
0
283
0
284
8
285
0
286
0
288
1
289
3
290
0
340
4C
371
-2
372
-2
  0
DIMSTYLE
105
81
330
4
100
AcDbSymbolTableRecord
100
AcDbDimStyleTableRecord
  2
EZ_M_5_H25_CM
 70
0
 40
1.0
 41
0.0125
 42
0.00625
 43
3.75
 44
0.018750000000000003
 45
0.0
 46
0.0
 47
0.0
 48
0.0
 49
2.5
140
0.0125
141
2.5
142
0.00625
143
0.03937007874
144
100.0
145
0.0
146
0.5
147
0.005000000000000001
148
0.0
 69
0
 70
0
 71
0
 72
0
 73
0
 74
0
 75
0
 76
0
 77
1
 78
12
 79
3
170
0
171
3
172
1
173
0
174
0
175
0
176
0
177
0
178
0
179
2
271
2
272
2
273
2
274
3
275
0
276
0
277
2
278
46
279
2
280
0
281
0
282
0
283
0
284
8
285
0
286
0
288
1
289
3
290
0
340
4C
371
-2
372
-2
  0
DIMSTYLE
105
82
330
4
100
AcDbSymbolTableRecord
100
AcDbDimStyleTableRecord
  2
EZ_M_1_H25_CM
 70
0
 40
1.0
 41
0.0025
 42
0.00125
 43
3.75
 44
0.00375
 45
0.0
 46
0.0
 47
0.0
 48
0.0
 49
2.5
140
0.0025
141
2.5
142
0.00125
143
0.03937007874
144
100.0
145
0.0
146
0.5
147
0.001
148
0.0
 69
0
 70
0
 71
0
 72
0
 73
0
 74
0
 75
0
 76
0
 77
1
 78
12
 79
3
170
0
171
3
172
1
173
0
174
0
175
0
176
0
177
0
178
0
179
2
271
2
272
2
273
2
274
3
275
0
276
0
277
2
278
46
279
2
280
0
281
0
282
0
283
0
284
8
285
0
286
0
288
1
289
3
290
0
340
4C
371
-2
372
-2
  0
DIMSTYLE
105
83
330
4
100
AcDbSymbolTableRecord
100
AcDbDimStyleTableRecord
  2
EZ_RADIUS
 70
0
 40
1.0
 41
0.25
 42
0.125
 43
3.75
 44
0.375
 45
0.0
 46
0.0
 47
0.0
 48
0.0
 49
2.5
140
0.25
141
0.0
142
0.0
143
0.03937007874
144
100.0
145
0.0
146
0.5
147
0.1
148
0.0
 69
0
 70
0
 71
0
 72
0
 73
0
 74
0
 75
0
 76
0
 77
1
 78
12
 79
3
170
0
171
3
172
0
173
0
174
0
175
0
176
0
177
0
178
0
179
2
271
2
272
2
273
2
274
3
275
0
276
0
277
2
278
46
279
1
280
0
281
0
282
0
283
0
284
8
285
0
286
0
288
1
289
3
290
0
340
4C
342
84
371
-2
372
-2
  0
DIMSTYLE
105
88
330
4
100
AcDbSymbolTableRecord
100
AcDbDimStyleTableRecord
  2
EZ_RADIUS_INSIDE
 70
0
 40
1.0
 41
0.25
 42
0.125
 43
3.75
 44
0.375
 45
0.0
 46
0.0
 47
0.0
 48
0.0
 49
2.5
140
0.25
141
0.0
142
0.0
143
0.03937007874
144
100.0
145
0.0
146
0.5
147
0.1
148
0.0
 69
0
 70
0
 71
0
 72
0
 73
0
 74
0
 75
0
 76
0
 77
0
 78
12
 79
3
170
0
171
3
172
0
173
0
174
1
175
0
176
0
177
0
178
0
179
2
271
2
272
2
273
2
274
3
275
0
276
0
277
2
278
46
279
0
280
0
281
0
282
0
283
0
284
8
285
0
286
0
288
1
289
0
290
0
340
4C
342
84
371
-2
372
-2
  0
DIMSTYLE
105
89
330
4
100
AcDbSymbolTableRecord
100
AcDbDimStyleTableRecord
  2
EZ_CURVED
 70
0
 40
1.0
 41
0.25
 42
0.125
 43
3.75
 44
0.375
 45
0.0
 46
0.0
 47
0.0
 48
0.0
 49
2.5
140
0.25
141
2.5
142
0.0
143
0.03937007874
144
100.0
145
0.0
146
0.5
147
0.1
148
0.0
 69
0
 70
0
 71
0
 72
0
 73
0
 74
0
 75
0
 76
0
 77
1
 78
12
 79
2
 90
2
170
0
171
3
172
1
173
0
174
0
175
0
176
0
177
0
178
0
179
2
271
2
272
2
273
2
274
3
275
0
276
0
277
2
278
46
279
2
280
0
281
0
282
0
283
0
284
8
285
0
286
0
288
1
289
3
290
0
340
4C
371
-2
372
-2
  0
ENDTAB
  0
TABLE
  2
BLOCK_RECORD
  5
9
330
0
100
AcDbSymbolTable
 70
5
  0
BLOCK_RECORD
  5
17
330
9
100
AcDbSymbolTableRecord
100
AcDbBlockTableRecord
  2
*Model_Space
340
1A
 70
0
280
1
281
0
  0
BLOCK_RECORD
  5
1B
330
9
100
AcDbSymbolTableRecord
100
AcDbBlockTableRecord
  2
*Paper_Space
340
1E
 70
0
280
1
281
0
  0
BLOCK_RECORD
  5
74
330
9
100
AcDbSymbolTableRecord
100
AcDbBlockTableRecord
  2
_ARCHTICK
340
0
 70
0
280
1
281
0
  0
BLOCK_RECORD
  5
78
330
9
100
AcDbSymbolTableRecord
100
AcDbBlockTableRecord
  2
_CLOSEDFILLED
340
0
 70
0
280
1
281
0
  0
BLOCK_RECORD
  5
84
330
9
100
AcDbSymbolTableRecord
100
AcDbBlockTableRecord
  2
_CLOSEDBLANK
340
0
 70
0
280
1
281
0
  0
ENDTAB
  0
ENDSEC
  0
SECTION
  2
BLOCKS
  0
BLOCK
  5
18
330
17
100
AcDbEntity
  8
0
100
AcDbBlockBegin
  2
*Model_Space
 70
0
 10
0.0
 20
0.0
 30
0.0
  3
*Model_Space
  1

  0
ENDBLK
  5
19
330
17
100
AcDbEntity
  8
0
100
AcDbBlockEnd
  0
BLOCK
  5
1C
330
1B
100
AcDbEntity
  8
0
100
AcDbBlockBegin
  2
*Paper_Space
 70
0
 10
0.0
 20
0.0
 30
0.0
  3
*Paper_Space
  1

  0
ENDBLK
  5
1D
330
1B
100
AcDbEntity
  8
0
100
AcDbBlockEnd
  0
BLOCK
  5
75
330
74
100
AcDbEntity
  8
0
100
AcDbBlockBegin
  2
_ARCHTICK
 70
0
 10
0.0
 20
0.0
 30
0.0
  3
_ARCHTICK
  1

  0
LWPOLYLINE
  5
77
330
74
100
AcDbEntity
  8
0
  6
BYBLOCK
 62
0
100
AcDbPolyline
 90
2
 70
0
 43
0.15
 10
-0.5
 20
-0.5
 10
0.5
 20
0.5
  0
ENDBLK
  5
76
330
74
100
AcDbEntity
  8
0
100
AcDbBlockEnd
  0
BLOCK
  5
79
330
78
100
AcDbEntity
  8
0
100
AcDbBlockBegin
  2
_CLOSEDFILLED
 70
0
 10
0.0
 20
0.0
 30
0.0
  3
_CLOSEDFILLED
  1

  0
SOLID
  5
7B
330
78
100
AcDbEntity
  8
0
  6
BYBLOCK
 62
0
100
AcDbTrace
 10
-1.0
 20
0.16439898372402537
 30
0.0
 11
0.0
 21
0.0
 31
0.0
 12
-1.0
 22
-0.16439898372402537
 32
0.0
 13
-1.0
 23
-0.16439898372402537
 33
0.0
  0
ENDBLK
  5
7A
330
78
100
AcDbEntity
  8
0
100
AcDbBlockEnd
  0
BLOCK
  5
85
330
84
100
AcDbEntity
  8
0
100
AcDbBlockBegin
  2
_CLOSEDBLANK
 70
0
 10
0.0
 20
0.0
 30
0.0
  3
_CLOSEDBLANK
  1

  0
LWPOLYLINE
  5
87
330
84
100
AcDbEntity
  8
0
  6
BYBLOCK
 62
0
100
AcDbPolyline
 90
3
 70
1
 10
-1.0
 20
0.16439898372402537
 10
0.0
 20
0.0
 10
-1.0
 20
-0.16439898372402537
  0
ENDBLK
  5
86
330
84
100
AcDbEntity
  8
0
100
AcDbBlockEnd
  0
ENDSEC
  0
SECTION
  2
ENTITIES
  0
LWPOLYLINE
  5
8D
330
17
100
AcDbEntity
  8
HOJA
100
AcDbPolyline
 90
4
 70
1
 10
0.0
 20
0.0
 10
500.0
 20
0.0
 10
500.0
 20
700.0
 10
0.0
 20
700.0
  0
LWPOLYLINE
  5
8E
330
17
100
AcDbEntity
  8
CORTE
100
AcDbPolyline
 90
488
 70
1
 10
13.0
 20
13.0
 10
13.0
 20
274.0195652173913
 10
79.0723142837003
 20
274.0195652173913
 10
77.43655979346778
 20
272.103975746112
 10
76.50835529812483
 20
270.96654233771005
 10
74.51543844013807
 20
268.4330329275319
 10
74.21581628054358
 20
268.0376466335795
 10
73.41045133984959
 20
266.92880765947973
 10
72.0740523150663
 20
265.10749228151656
 10
71.59487463584401
 20
264.42418441926867
 10
70.06648575319754
 20
262.1786201001559
 10
68.67345003258693
 20
260.02423912635373
 10
68.18393129573819
 20
259.24970709633413
 10
67.4540006937864
 20
258.0263470426936
 10
66.41766204270309
 20
256.31978078833043
 10
65.75259238685338
 20
255.1561305179157
 10
64.7597759053768
 20
253.39089385101016
 10
63.652178587934614
 20
251.28422569087707
 10
63.20955913551529
 20
250.461046481708
 10
62.83155831439011
 20
249.70654966860343
 10
61.75249352772774
 20
247.53218738766316
 10
60.83217225479112
 20
245.52696997774143
 10
60.39587938960712
 20
244.60241700894153
 10
59.91033008542547
 20
243.485840339654
 10
59.12456872631496
 20
241.67351912647297
 10
58.60644072862178
 20
240.3658971604144
 10
57.9416730487375
 20
238.74379939074132
 10
56.98887849751836
 20
236.1894452740798
 10
56.848666512606115
 20
235.81488403952213
 10
56.77695998135178
 20
235.60243077933268
 10
55.82213876199705
 20
232.88518947751098
 10
55.28242660542632
 20
231.17352693454254
 10
54.882022236446076
 20
229.955504689542
 10
54.06765199297503
 20
227.18014901961257
 10
54.02208685051367
 20
227.02649514491188
 10
54.005955471544794
 20
226.96484729774818
 10
53.21769535511258
 20
224.09682565985509
 10
52.94686975246867
 20
222.97274636194055
 10
52.489295902632506
 20
221.16713653943702
 10
52.041094630092616
 20
219.13439703606642
 10
51.832783206430065
 20
218.23744911408588
 10
51.27074438599875
 20
215.43190545001514
 10
51.244518017429385
 20
215.30778568016177
 10
51.14659264693282
 20
214.76500617260675
 10
50.707640430147336
 20
212.37857495876366
 10
50.62745762463153
 20
211.85841320128168
 10
50.23231564497145
 20
209.44884806796443
 10
50.08873009612404
 20
208.38823466465882
 10
49.8191613913413
 20
206.51911897745822
 10
49.643035021396074
 20
205.01138638709358
 10
49.465832351010576
 20
203.58941008141045
 10
49.28176164828713
 20
201.71922167874337
 10
49.17035955173442
 20
200.6596773082013
 10
48.99752850040801
 20
198.50433595643102
 10
48.93110690740343
 20
197.7299543170098
 10
48.7840212789352
 20
195.36039505832122
 10
48.74677830313384
 20
194.8002191639887
 10
48.63581258179789
 20
192.28196790552425
 10
48.61637024116122
 20
191.87049444866722
 10
48.54826614601197
 20
189.2643910145689
 10
48.539188568857355
 20
188.94075819779428
 10
48.51741413140678
 20
186.30372409285187
 10
48.51482270677947
 20
186.01103298467808
 10
48.539886024387016
 20
183.3965037598807
 10
48.54315177656643
 20
183.08129708774126
 10
48.612836291665104
 20
180.53996060268852
 10
48.62433864495404
 20
180.15157282883186
 10
48.733883022367436
 20
177.73167696136457
 10
48.75883460888387
 20
177.2218496247809
 10
48.901061003667735
 20
174.9696725915211
 10
48.94737684114142
 20
174.29211666928757
 10
49.11278729515473
 20
172.2523753387974
 10
49.19101051325531
 20
171.3623964265738
 10
49.36782275690064
 20
169.57853269726638
 10
49.49108517200665
 20
168.43266703617482
 10
49.66524975392049
 20
166.94723187684772
 10
49.849283087415316
 20
165.50295095880568
 10
50.00445225067814
 20
164.35785308053465
 10
50.26763048311631
 20
162.57322629253147
 10
50.38509781677094
 20
161.81006142128507
 10
50.74852934303513
 20
159.6435155658141
 10
50.807133448958226
 20
159.30381199508687
 10
51.14656764105656
 20
157.50096871416682
 10
51.26659977323801
 20
156.8340466435737
 10
51.289950548050314
 20
156.71432563756105
 10
51.75305632485181
 20
154.39248764896737
 10
51.88461656146826
 20
153.78465753492313
 10
52.277980610663235
 20
151.98953305832296
 10
52.54813571753148
 20
150.85498811918953
 10
52.84194816536893
 20
149.62575498388242
 10
53.284222456328294
 20
147.92533810705345
 10
53.445773457063055
 20
147.30197305581473
 10
54.06801417665855
 20
145.09864180605
 10
54.08986313020954
 20
145.01761682961813
 10
54.09608084387503
 20
144.9963199831229
 10
54.74907376023313
 20
142.74944540659587
 10
54.964206317667845
 20
142.06665277038914
 10
55.44658314424419
 20
140.51970737205187
 10
55.91466645139856
 20
139.1369876972971
 10
56.183714687148864
 20
138.32972237022287
 10
56.95270004295544
 20
136.20730171943228
 10
56.96202225928812
 20
136.18104300528447
 10
56.988792866019594
 20
136.11177482752285
 10
57.7513374222123
 20
134.0425519436919
 10
58.05605172453069
 20
133.27841174854169
 10
58.578246533030395
 20
131.9426548175074
 10
59.25340696578904
 20
130.34871213886154
 10
59.44579941991674
 20
129.8835202670702
 10
59.910210988352105
 20
128.84851650006357
 10
60.33917908273
 20
127.84955061648012
 10
60.53827006362425
 20
127.41985838338428
 10
61.254260879595975
 20
125.83809679226799
 10
61.91344560227938
 20
124.49010769229376
 10
62.209914153330146
 20
123.86731864847967
 10
62.83139513051751
 20
122.66034840746813
 10
63.19496243818884
 20
121.92546925356042
 10
63.38887534245552
 20
121.56127907741457
 10
64.19760798914682
 20
120.00180446643058
 10
64.96331741505317
 20
118.63145045230571
 10
65.2412075720759
 20
118.11918178488408
 10
65.75237176430376
 20
117.24564207457881
 10
66.30879769128909
 20
116.2603215894105
 10
66.64694911651212
 20
115.70262499915098
 10
67.39944980861962
 20
114.42484506528324
 10
68.44523111925274
 20
112.77269292739827
 10
68.53192123831862
 20
112.63126134725
 10
68.67315706346427
 20
112.41710407300849
 10
69.6759650393397
 20
110.84931255051798
 10
70.36495779835043
 20
109.84385088266822
 10
70.85628931958166
 20
109.1036448760405
 10
71.5945057536497
 20
108.0665013233981
 10
72.06633747297096
 20
107.38818247863308
 10
72.41784743441838
 20
106.91507255027905
 10
73.29731050639816
 20
105.69322630680446
 10
74.5156772793492
 20
104.10978980218871
 10
74.56880184798307
 20
104.03970825233459
 10
74.61189071311618
 20
103.98634459528046
 10
75.85372160693207
 20
102.39874853908276
 10
76.97321293051951
 20
101.05610188409645
 10
77.18009589604291
 20
100.79926685429683
 10
77.43595928605609
 20
100.5014786662533
 10
78.52711090426604
 20
99.22183483578117
 10
79.51930870797908
 20
98.1273341038776
 10
79.9110471586769
 20
97.67995073163505
 10
80.3567441302632
 20
97.20143243332342
 10
81.32217076446742
 20
96.1672276568337
 10
82.28106022807285
 20
95.1986250710733
 10
82.76895247258739
 20
94.68822557053142
 10
83.27728190106366
 20
94.1869991982756
 10
84.24717993491785
 20
93.24325641436046
 10
85.30550153312412
 20
92.26996181346874
 10
85.76335233996618
 20
91.83368386111127
 10
86.19753447096114
 20
91.44276858104192
 10
87.31475363977484
 20
90.46260815185855
 10
88.6640263269303
 20
89.34134353113748
 10
88.90852803038993
 20
89.13069344265551
 10
89.11745119196445
 20
88.96022240960703
 10
90.54302313657189
 20
87.843501183537
 10
92.03743579888727
 20
86.73235341764055
 10
92.22282244668742
 20
86.60236873483404
 10
92.50379181378214
 20
86.41503271087065
 10
93.95740655910383
 20
85.41145220144341
 10
94.9564526392269
 20
84.75548879854571
 10
95.74434248128213
 20
84.27838074235996
 10
97.11725749505264
 20
83.48652465675346
 10
97.59328651867382
 20
83.20197335315818
 10
97.8749583179628
 20
83.0415549840725
 10
99.51523390002774
 20
82.20492336625398
 10
100.7931655874996
 20
81.58321797774293
 10
101.51098884397632
 20
81.28249931422168
 10
103.31811147903079
 20
80.5602028301752
 10
103.59778986199079
 20
80.44444191735863
 10
103.71038963359617
 20
80.39994225802492
 10
105.80160358895179
 20
79.73115770125364
 10
106.62719094709281
 20
79.4792749947334
 10
108.13127992567686
 20
79.14444243772122
 10
109.54331383068997
 20
78.84573425320191
 10
110.61689404127765
 20
78.71420416180848
 10
112.45890098385156
 20
78.50288570240917
 10
113.30445150273736
 20
78.48626689206398
 10
115.37412785798418
 20
78.4557128114924
 10
116.26568978048024
 20
78.53224714541408
 10
118.28923564612383
 20
78.71077704849435
 10
119.61659415292371
 20
78.96815913745851
 10
121.20448643253673
 20
79.27651207147612
 10
123.55509410907693
 20
79.99227275186055
 10
124.12012169128083
 20
80.16354540090532
 10
125.06951939287154
 20
80.56005081506117
 10
127.03674478586345
 20
81.36339751923038
 10
128.71763111346252
 20
82.245898000125
 10
129.95363870325352
 20
82.89141548649309
 10
130.87825489348808
 20
83.48512524411139
 10
132.87164878136238
 20
84.74207260542143
 10
135.09598666364332
 20
86.41310256760148
 10
135.79032889403962
 20
86.92656144678756
 10
138.59728902613102
 20
89.34111394974198
 10
138.7096565575427
 20
89.43643675218719
 10
141.49713698933738
 20
92.13505792859415
 10
141.62922698856343
 20
92.2628884308291
 10
141.63220431912043
 20
92.26612820583645
 10
141.69248565706002
 20
92.33090833445972
 10
144.36198547100963
 20
95.19759908363834
 10
144.549974202898
 20
95.39711425564025
 10
146.87048683063756
 20
98.12618446913352
 10
147.47083104698493
 20
98.82422860266972
 10
149.22303975192264
 20
101.05505097097972
 10
150.3920690253496
 20
102.52646502310958
 10
151.46121658125878
 20
103.98420570152447
 10
153.3136322459532
 20
106.48024616950859
 10
153.61349100512027
 20
106.91365025575753
 10
154.3229589785836
 20
107.92644932576768
 10
155.6686828096553
 20
109.84513997650234
 10
156.23573111855416
 20
110.64465348911871
 10
157.65920138505172
 20
112.77487404551401
 10
159.1577934437917
 20
114.99172818768777
 10
159.61592845950733
 20
115.7048594431636
 10
160.4747801187347
 20
117.02597336298965
 10
161.5207176400897
 20
118.63626873465786
 10
162.08021652079765
 20
119.48936285656974
 10
163.38732479810207
 20
121.56646982304623
 10
165.00261756900758
 20
124.10938797488282
 10
165.24066014066454
 20
124.49689568856614
 10
165.63176449129912
 20
125.1280560517389
 10
167.0519776495715
 20
127.42810916592941
 10
167.92519952198276
 20
128.83472950166058
 10
168.84816680589546
 20
130.35866152292485
 10
170.29013650420535
 20
132.73041013387848
 10
170.62837839939917
 20
133.28967774356448
 10
170.8477271296648
 20
133.6524357409866
 10
172.37519268076096
 20
136.22028597806263
 10
173.77037428947753
 20
138.57202871959666
 10
174.1106505035806
 20
139.1510268450437
 10
174.59238032726483
 20
139.97538740861697
 10
175.8137097750026
 20
142.0816897264895
 10
176.69279380547064
 20
143.61423360128262
 10
177.49331048783893
 20
145.01240378697926
 10
178.53615464067093
 20
146.86092552059617
 10
179.1407745244124
 20
147.94276293393497
 10
179.6150291877802
 20
148.8089969137313
 10
180.75119262631318
 20
150.87339444513805
 10
182.0742037964533
 20
153.3393918325441
 10
182.32039557227702
 20
153.80341256557745
 10
182.5370582402322
 20
154.2250975711449
 10
183.84151655932124
 20
156.73389857917658
 10
185.15610570912014
 20
159.36014540366097
 10
185.30599133143318
 20
159.66355492887925
 10
185.45888335646998
 20
159.98747374564402
 10
186.71176744008145
 20
162.59386103622163
 10
187.7675180520756
 20
164.90872352740328
 10
188.043349788327
 20
165.5231232961838
 10
188.38052690179538
 20
166.32175834791954
 10
189.30264827866037
 20
168.45321368816846
 10
189.92892977369195
 20
170.00555600904372
 10
190.4736808781789
 20
171.3820774650212
 10
191.30207790120846
 20
173.65132586518627
 10
191.55071771120188
 20
174.31192951095963
 10
191.68113219949785
 20
174.69145405160518
 10
192.53582461117557
 20
177.24041397972337
 10
193.0712864940359
 20
179.0147778858193
 10
193.40952239621578
 20
180.16872754692287
 10
194.14988839825884
 20
183.0254423922693
 10
194.16776449513372
 20
183.09690701623802
 10
194.2220665214578
 20
183.34814811513084
 10
194.82290246067367
 20
186.0262051665697
 10
194.96372553233175
 20
186.76887346071285
 10
195.35626200269465
 20
188.95415421454342
 10
195.55001762976025
 20
190.28525470392407
 10
195.7656571795517
 20
191.88206810880203
 10
195.94138649993394
 20
193.60599953845698
 10
196.05074366363735
 20
194.80995808902637
 10
196.16561341048376
 20
196.7589963688154
 10
196.2117818944916
 20
197.73787695452737
 10
196.2456972760435
 20
199.76733474618297
 10
196.24945882464434
 20
200.66583018933076
 10
196.20057384566252
 20
202.6500416706483
 10
196.1646965266211
 20
203.59386285362413
 10
196.04574917628545
 20
205.42268136113827
 10
195.9584890128372
 20
206.52195987040676
 10
195.7938471197481
 20
208.0979557398402
 10
195.63173720648862
 20
209.45017897117904
 10
195.45508961886563
 20
210.68614069013447
 10
195.18509271748374
 20
212.378506749079
 10
195.03768789411106
 20
213.19548099580535
 10
194.61883150153798
 20
215.30694777842388
 10
194.5481677830228
 20
215.6325326850875
 10
194.22223417702276
 20
217.01106049879098
 10
193.99696076816358
 20
218.01020749166014
 10
193.94216196133672
 20
218.23496056838832
 10
193.39494954252046
 20
220.3345540807317
 10
193.16243370830588
 20
221.16368930521767
 10
192.73764609088147
 20
222.6035112964315
 10
192.2665141349707
 20
224.09252801783674
 10
192.02751751122187
 20
224.81955117900912
 10
191.3014795304641
 20
226.8833128202986
 10
191.2666069571596
 20
226.98702553894628
 10
191.25443087411168
 20
227.02103745806838
 10
190.4784013535253
 20
229.12488877602487
 10
190.15467926377696
 20
229.95013126208457
 10
189.64614426772974
 20
231.21864791448272
 10
188.93858561655657
 20
232.87932313094979
 10
188.7702295130113
 20
233.26869901607296
 10
188.38108762643012
 20
234.1157246700016
 10
187.86416115630914
 20
235.2906444291359
 10
187.6232563144184
 20
235.8082394919433
 10
186.92972319301927
 20
237.2821143177435
 10
186.2051483519333
 20
238.73763396498273
 10
185.9563531172787
 20
239.23462187548031
 10
185.46003769038688
 20
240.17150933669708
 10
184.9556950944397
 20
241.161641442748
 10
184.68454027658643
 20
241.66673925213408
 10
183.93208989180758
 20
243.0639134252716
 10
183.06195502017567
 20
244.5963498978882
 10
182.87257245009187
 20
244.93025783571966
 10
182.5390290506529
 20
245.48777019690885
 10
181.79342759870642
 20
246.7784675501613
 10
181.33987256375488
 20
247.5256283188317
 10
180.68934747484317
 20
248.60025004288315
 10
179.61724300729247
 20
250.28476814287677
 10
179.55213683157075
 20
250.39004126999492
 10
179.5101211659772
 20
250.4548898066529
 10
178.40463232264185
 20
252.16842330723415
 10
177.58207191920468
 20
253.38483344894084
 10
177.22591167512556
 20
253.91560256440735
 10
176.69628833770915
 20
254.66820451467183
 10
176.026582015834
 20
255.64295535369442
 10
175.54454893079253
 20
256.31424191315097
 10
174.8074954361626
 20
257.34979713071635
 10
173.77460687787033
 20
258.7376077962091
 10
173.56099072963195
 20
259.02960521206387
 10
173.39779407259078
 20
259.2436293997789
 10
172.3013522684583
 20
260.69594358406584
 10
171.1378356758585
 20
262.1738806117858
 10
171.01340148877244
 20
262.3340080913199
 10
170.8536516250944
 20
262.53105820602684
 10
169.71081437238126
 20
263.95738756333736
 10
168.75586071804344
 20
265.1033981467296
 10
168.38367995822875
 20
265.5563274350898
 10
167.93207842162118
 20
266.0845688366001
 10
167.03739057225505
 20
267.13561302865355
 10
166.24509916342095
 20
268.0329045700126
 10
165.6698552644403
 20
268.69420854047985
 10
165.010596265315
 20
269.42461357726546
 10
164.28081887002588
 20
270.2303240812461
 10
163.59478401176804
 20
270.96237372583977
 10
162.87122869900205
 20
271.7469295602624
 10
162.0892164483944
 20
272.56625939240047
 10
161.43904922456625
 20
273.2394758004106
 10
160.6615293982162
 20
274.0195652173913
 10
287.2183807742455
 20
274.0195652173913
 10
287.4678391523706
 20
273.55471710685725
 10
287.892553526347
 20
272.84936141772454
 10
288.57015264943595
 20
271.7345624936694
 10
289.031515689588
 20
271.0545888783172
 10
289.72402690946245
 20
269.9626341147768
 10
290.81225202453356
 20
268.4281633348836
 10
290.9375929427085
 20
268.2549379563864
 10
291.0395287312163
 20
268.1284953713973
 10
292.20043233195946
 20
266.59247292819396
 10
293.3764288130394
 20
265.1986360007961
 10
293.5331184186428
 20
265.0000514310669
 10
293.73001676561535
 20
264.7769494017481
 10
294.92291181496347
 20
263.47025503514277
 10
296.1435554014631
 20
262.2727776403714
 10
296.39099428711916
 20
262.0138255503428
 10
296.64762476980997
 20
261.7738467148438
 10
297.93005762275124
 20
260.6347398013312
 10
299.5533473891191
 20
259.3470022316129
 10
299.56031264144036
 20
259.3411185529812
 10
299.56403188858656
 20
259.338320706734
 10
301.2783802891737
 20
258.1425145923667
 10
302.48093179131985
 20
257.3983729392618
 10
303.10313455900126
 20
257.05149123535136
 10
304.38052535627185
 20
256.4248069944414
 10
305.05070068448634
 20
256.0763457732519
 10
305.3949602920956
 20
255.91973736551213
 10
307.133845805784
 20
255.24478954976593
 10
308.31012510605706
 20
254.8529834849737
 10
309.3767014355749
 20
254.57324113263374
 10
311.2248411019539
 20
254.174318404149
 10
311.8092031930117
 20
254.09128317283898
 10
314.13944101540517
 20
253.85091397163728
 10
314.47442114477514
 20
253.8417163910008
 10
317.0542090296431
 20
253.85461224582446
 10
317.4334781730575
 20
253.88560546164243
 10
319.9694751516821
 20
254.16091906679338
 10
320.77331319847434
 20
254.30999948319416
 10
322.88539748812155
 20
254.74816734235915
 10
324.6185668960233
 20
255.23995004165434
 10
325.80212580055655
 20
255.59688301237088
 10
328.0099183387803
 20
256.4282141526673
 10
328.72132587486396
 20
256.6859803156188
 10
329.1741203025247
 20
256.8830539037442
 10
331.6394464882209
 20
257.9853354141242
 10
334.28778935236556
 20
259.3557948655899
 10
334.55954286550724
 20
259.49200763707887
 10
334.87305328623427
 20
259.6703446926028
 10
337.47884071886966
 20
261.1722028481515
 10
339.21415928047696
 20
262.2834803231815
 10
340.39966430283096
 20
263.02350668909315
 10
342.72834604262556
 20
264.61854873016193
 10
343.31991380739777
 20
265.0263632113403
 10
343.568252514494
 20
265.2115448532864
 10
346.24126571911927
 20
267.1664523865167
 10
347.4851559571314
 20
268.14153159407994
 10
349.1627249655807
 20
269.4370014234932
 10
351.1538708590174
 20
271.0715331953855
 10
352.0843164528109
 20
271.8272924205981
 10
354.642494398026
 20
274.0195652173913
 10
360.9760869565217
 20
274.0195652173913
 10
360.9760869565217
 20
83.89507212008967
 10
359.34094009593116
 20
84.7568754656693
 10
357.9455267950471
 20
85.48264048071803
 10
357.3943395764455
 20
85.72954416483057
 10
356.13961459907597
 20
86.2844071211047
 10
355.36735000490205
 20
86.62782255316992
 10
355.02740451526006
 20
86.77789998753745
 10
353.2413410528181
 20
87.4198289978039
 10
352.1100380676944
 20
87.82407998534188
 10
351.0197442044989
 20
88.11523802986022
 10
349.1935603994946
 20
88.60090539813915
 10
348.67622880087873
 20
88.68786032718347
 10
346.27796124112336
 20
89.09029777665161
 10
346.1700130468532
 20
89.09710632780265
 10
344.40259437485
 20
89.20923813610047
 10
343.421583422312
 20
89.27230890008231
 10
343.3628724992471
 20
89.27626847331373
 10
341.941590663855
 20
89.20917108491098
 10
340.448514831973
 20
89.13975491126996
 10
340.36987253991566
 20
89.12697259742444
 10
337.53400287104085
 20
88.66953183579261
 10
336.78762261667185
 20
88.45929819148749
 10
334.6191502792233
 20
87.85162713027151
 10
332.349790604527
 20
86.9349683916787
 10
331.7036183466133
 20
86.67493772780277
 10
330.9684982438157
 20
86.28648649309825
 10
328.7865140370694
 20
85.16050386206234
 10
325.95736073938775
 20
83.35837298293796
 10
325.8682989058347
 20
83.3029940927369
 10
325.6577388199369
 20
83.14792623949573
 10
322.94986708357334
 20
81.15162498101196
 10
322.1045970674041
 20
80.43326124963392
 10
320.0298864614357
 20
78.71644906405787
 10
318.72876563115244
 20
77.50440715936097
 10
317.10925539828554
 20
76.03374144698645
 10
315.6552911060871
 20
74.5752286682376
 10
314.188171668661
 20
73.13768540521855
 10
312.7882179171017
 20
71.64577402466186
 10
311.2667132702673
 20
70.05748577834444
 10
310.0697289358684
 20
68.71608509357075
 10
308.34501985197284
 20
66.8159736814433
 10
307.4645826142696
 20
65.78622014705269
 10
305.4231438093544
 20
63.42871238641919
 10
304.95166411356666
 20
62.85623003948375
 10
302.6100772391
 20
60.03475996418953
 10
302.51929248213423
 20
59.92507756233857
 10
302.50114861593306
 20
59.903191717026345
 10
300.18927656342305
 20
56.995168110185716
 10
299.57921740572596
 20
56.22450818431693
 10
297.92827228440973
 20
54.065261634867156
 10
296.6572207266206
 20
52.38506514375116
 10
295.7382731011806
 20
51.1353644654685
 10
293.735227250263
 20
48.363313371963145
 10
293.6237513419613
 20
48.205506929777115
 10
293.37357056199886
 20
47.842485336079164
 10
291.6134928450788
 20
45.275347032498445
 10
290.81392903246456
 20
44.07176257268722
 10
289.6883817967884
 20
42.34578030860198
 10
287.8920486309876
 20
39.48089729002672
 10
287.85209573178895
 20
39.416289245438335
 10
287.79391722452453
 20
39.317659600838006
 10
286.13493078831334
 20
36.48678702792125
 10
284.971121718337
 20
34.38975784309254
 10
284.51416943206146
 20
33.557587913836926
 10
284.0246346635124
 20
32.60835613667173
 10
283.01151810431867
 20
30.628479937672466
 10
282.0503047869416
 20
28.613130657021195
 10
281.61778583251214
 20
27.699511105678972
 10
281.2797963287008
 20
26.92695133961021
 10
280.34540173128295
 20
24.770714013160877
 10
279.21615458200444
 20
21.927782417372708
 10
279.1824846373083
 20
21.842040371369354
 10
279.13032186235415
 20
21.69585050863418
 10
278.1421159966216
 20
18.913257829885282
 10
277.67572497524145
 20
17.455038557560194
 10
277.2125357534812
 20
15.98470381786991
 10
276.4602568968762
 20
13.306856071424189
 10
276.3756857524632
 20
13.0
 10
13.0
 20
13.0
  0
LWPOLYLINE
  5
8F
330
17
100
AcDbEntity
  8
GRABADO
100
AcDbPolyline
 90
522
 70
1
 10
13.0
 20
274.0195652173913
 10
71.99675731582965
 20
274.0195652173913
 10
71.59278736663327
 20
273.49804809753704
 10
69.69074474820718
 20
270.9689711317807
 10
68.67133574883054
 20
269.5544438994464
 10
67.6039271943592
 20
268.0398319126449
 10
65.74977279502701
 20
265.277177781161
 10
65.63972489793323
 20
265.1106503692026
 10
65.4539435237944
 20
264.813523594527
 10
63.778362480986516
 20
262.1806442886298
 10
62.82881807587357
 20
260.5991050265791
 10
62.027115851859946
 20
259.2515256702627
 10
61.01080837780667
 20
257.4280640731993
 10
60.3800221125868
 20
256.3216541147647
 10
59.90775654814743
 20
255.43474571229802
 10
58.82350655954579
 20
253.39258346980904
 10
57.766807152840954
 20
251.24538657929537
 10
57.370626517934525
 20
250.46277792889325
 10
56.98653976390766
 20
249.64155842957462
 10
55.99745635413072
 20
247.53375836562137
 10
55.24785541869903
 20
245.79007570854753
 10
54.720046419809606
 20
244.60401468348041
 10
54.06515464006905
 20
242.99187087140209
 10
53.525040155607925
 20
241.67497986935663
 10
53.20523062845328
 20
240.81264825684994
 10
52.40587648834652
 20
238.74527014161671
 10
51.51539394851149
 20
236.1878526277636
 10
51.38004776788401
 20
235.8155874131551
 10
51.14405845080731
 20
235.09162201820067
 10
50.41355666626433
 20
232.88653834800272
 10
50.10866272309087
 20
231.84839205250378
 10
49.52383116100761
 20
229.95683260267936
 10
48.91402664992742
 20
227.72027728851495
 10
48.714752700921
 20
227.0271233488723
 10
48.22257457944349
 20
225.07439150294658
 10
47.9706783727777
 20
224.09801654727096
 10
47.89819651410153
 20
223.7730203100001
 10
47.27986047363717
 20
221.16827725216694
 10
47.037877816146334
 20
219.98023571451344
 10
46.6596660828053
 20
218.23852938090934
 10
46.30427796625084
 20
216.3145611932186
 10
46.10590264854747
 20
215.30879603354717
 10
45.68283294553842
 20
212.76137050897535
 10
45.61492506719918
 20
212.37903342546127
 10
45.30115915109627
 20
210.25524927166012
 10
45.178206805856775
 20
209.44967626820247
 10
45.16081777819423
 20
209.30940082351356
 10
44.78685470271418
 20
206.51985709578807
 10
44.72518461506425
 20
205.9425678384157
 10
44.45297154189561
 20
203.59005197776153
 10
44.36892996439556
 20
202.65536650282715
 10
44.174320216511006
 20
200.66021817154189
 10
44.08506750349113
 20
199.44076465556356
 10
43.94905508725438
 20
197.73038973706028
 10
43.86765383449746
 20
196.29281804678888
 10
43.77570872202719
 20
194.800545946559
 10
43.711654759286134
 20
193.20647683500508
 10
43.6531675354671
 20
191.87070999828194
 10
43.61280368440299
 20
190.17746261102343
 10
43.58064407803279
 20
188.9408609775565
 10
43.56750442677301
 20
187.20219827865196
 10
43.5576845119543
 20
186.01102207421624
 10
43.57273993499628
 20
184.27757897835153
 10
43.58414500444029
 20
183.08117239525708
 10
43.62601239565225
 20
181.40118171781
 10
43.660202889229915
 20
180.15133520390776
 10
43.725281343371556
 20
178.57093856400525
 10
43.786355665346385
 20
177.22150058340313
 10
43.86891918391967
 20
175.7852085041014
 10
43.96341697632075
 20
174.29165862796972
 10
44.05567515441639
 20
173.04274426826132
 10
44.19254770584566
 20
171.36183254804814
 10
44.28464520384505
 20
170.34264250107967
 10
44.47525341743132
 20
168.43200150841534
 10
44.555253951005554
 20
167.6843231314504
 10
44.81342552418606
 20
165.5021888437424
 10
44.86723833973658
 20
165.06753278379125
 10
45.20934924431528
 20
162.57237341038015
 10
45.220626540811665
 20
162.49228854137303
 10
45.30114223381058
 20
161.9768302579259
 10
45.600828119133254
 20
159.9429538798548
 10
45.64938024961137
 20
159.64304377797916
 10
46.015274531169155
 20
157.42903009903912
 10
46.14543295983795
 20
156.71328625732139
 10
46.46817117429154
 20
154.95370463146025
 10
46.70470735269261
 20
153.78355783173512
 10
46.960219733366145
 20
152.51767978668568
 10
47.33093545388353
 20
150.85381662787353
 10
47.49237863075298
 20
150.12191236804674
 10
48.028366483069746
 20
147.92408353912052
 10
48.06586405773622
 20
147.76762160041287
 10
48.22253653186873
 20
147.1773014421048
 10
48.65779439754998
 20
145.4308625780238
 10
48.777056670990845
 20
144.99498757880843
 10
49.28015083618628
 20
143.12565422905857
 10
49.593938271053005
 20
142.0652856935906
 10
49.942550341591
 20
140.86063957602462
 10
50.49232595462304
 20
139.1355985728135
 10
50.646734659559755
 20
138.63756465743933
 10
51.14399825129246
 20
137.18354128823367
 10
51.3815284692667
 20
136.4441921494515
 10
51.465080500747945
 20
136.20657595116325
 10
52.13008675903528
 20
134.26566530515242
 10
52.50143715975565
 20
133.27689029484526
 10
52.919857120848505
 20
132.12849368058613
 10
53.63236449996499
 20
130.3471998726659
 10
53.75305981225131
 20
130.034900954169
 10
54.065063492741444
 20
129.30067409475768
 10
54.60201559189582
 20
127.95612213973031
 10
54.8365415903249
 20
127.41819656854197
 10
55.475836837364355
 20
125.90327787415706
 10
56.128589925837176
 20
124.4884717251153
 10
56.3931081781667
 20
123.89401755626974
 10
56.98641758525507
 20
122.67625737866628
 10
57.33789219972343
 20
121.91144902078936
 10
57.51385774361282
 20
121.55946701744946
 10
58.29491423752958
 20
119.94203922318248
 10
58.98525935936799
 20
118.62967971126922
 10
59.29577384469174
 20
118.01658436436878
 10
59.907594980296835
 20
116.9091501663423
 10
60.322430444685295
 20
116.11624920779451
 10
60.55820901860265
 20
115.7006516267128
 10
61.362495856186385
 20
114.23007399692307
 10
62.229035559360895
 20
112.77077457769148
 10
62.44715581665231
 20
112.38859498781385
 10
62.828607994801104
 20
111.77377113961123
 10
63.54502316007611
 20
110.55982435822418
 10
64.00321864879902
 20
109.84170471684615
 10
64.66879052632599
 20
108.7574894026567
 10
65.75022020844828
 20
107.12992159774284
 10
65.83472981909784
 20
106.99720559797534
 10
65.89270320311526
 20
106.91267449106905
 10
66.99972808041579
 20
105.23613273063918
 10
67.89211020228318
 20
103.98259109714077
 10
68.20881748858805
 20
103.51921443454118
 10
68.67100781544629
 20
102.89259230406735
 10
69.4342297815567
 20
101.81878204928866
 10
70.01854210378242
 20
101.05349860840657
 10
70.68552193284731
 20
100.14407177083572
 10
71.59238473581392
 20
98.99398662728298
 10
71.96912174171666
 20
98.5022815432839
 10
72.2790732610084
 20
98.12444107664881
 10
73.26559316811878
 20
96.87275560077104
 10
74.51361098219584
 20
95.39485752049575
 10
74.60373085171543
 20
95.28599102377407
 10
74.68374632406116
 20
95.1954298684407
 10
75.948883734665
 20
93.70513851989853
 10
77.25455739544924
 20
92.2649930322239
 10
77.33831342361566
 20
92.1685771180797
 10
77.43410093234982
 20
92.0653848231203
 10
78.73802248076572
 20
90.6438804850637
 10
80.0154700000942
 20
89.3359157342158
 10
80.18010442283321
 20
89.15995359150139
 10
80.3550144939663
 20
88.98444442974055
 10
81.63873687970354
 20
87.69476304234817
 10
82.99973683304638
 20
86.40688662657345
 10
83.13913436379093
 20
86.26913940437254
 10
83.27574575371689
 20
86.14201926611342
 10
84.66040863314792
 20
84.86723096500411
 10
86.19657623031334
 20
83.53146554996306
 10
86.22394198897557
 20
83.50825190230225
 10
86.25931120800567
 20
83.47983931171319
 10
87.81696017892067
 20
82.17529024847705
 10
89.1166452676525
 20
81.14449554962931
 10
89.45225020176531
 20
80.88883298595404
 10
89.91934100801136
 20
80.55105714210833
 10
91.12823014198177
 20
79.638876391355
 10
92.03635726473671
 20
78.98830715355157
 10
92.84946202303638
 20
78.43920786364951
 10
94.12084230065771
 20
77.62230313320725
 10
94.62204729406116
 20
77.28594294808791
 10
94.95564265411622
 20
77.0728602942101
 10
96.45004966651554
 20
76.19399238098407
 10
97.87450460726592
 20
75.3951492011424
 10
98.33803904748781
 20
75.16286390762683
 10
99.31391545843977
 20
74.69587074955417
 10
100.30270605122384
 20
74.20205592379206
 10
100.79260544140108
 20
73.9682542241793
 10
102.3504723492397
 20
73.33179571826315
 10
103.71007140654433
 20
72.80048125730549
 10
104.49108256838824
 20
72.5551699928627
 10
106.62681573096974
 20
71.91361580081585
 10
106.74133312649305
 20
71.88884756154769
 10
107.3137683721549
 20
71.7707689910038
 10
109.15260849515562
 20
71.37589664547832
 10
109.54273719702537
 20
71.29583692291217
 10
111.74000963043743
 20
71.04784796324351
 10
112.4581610528559
 20
70.9712277801816
 10
114.56192972910387
 20
70.95476032647532
 10
115.37321016973054
 20
70.95101940796852
 10
117.70684350538282
 20
71.18500925665374
 10
118.28814267571593
 20
71.24368835772098
 10
120.78183878960282
 20
71.77080614838118
 10
121.2036717106927
 20
71.85709323249743
 10
121.32706740237055
 20
71.89634419788246
 10
124.11923960700986
 20
72.77755484225894
 10
125.89015386970988
 20
73.54558445522656
 10
127.03539816715436
 20
74.0381598187457
 10
128.22332543841858
 20
74.69433152005352
 10
129.95275821739943
 20
75.6260508534938
 10
132.69240412928556
 20
77.44118108051264
 10
132.87036529095607
 20
77.55842996200235
 10
132.9471809334161
 20
77.61880134254334
 10
135.7891352226349
 20
79.80836630788585
 10
136.61146942449358
 20
80.5467482818831
 10
138.70853572293458
 20
82.39764750320322
 10
139.77532858482303
 20
83.47482573494128
 10
141.62849238299927
 20
85.31795832339783
 10
142.596964821734
 20
86.40309874413803
 10
144.54894095642283
 20
88.56041407330072
 10
145.17655730987576
 20
89.33161340849378
 10
147.46981918764197
 20
92.11316522512335
 10
147.58027217692114
 20
92.26039991499951
 10
147.9370325525545
 20
92.72987694166468
 10
149.81464949403116
 20
95.19198755428589
 10
150.39142578498152
 20
95.9388411629192
 10
151.9430258881451
 20
98.12108983235565
 10
153.31299720231488
 20
100.02282580669983
 10
154.00120288395183
 20
101.0504940152618
 10
155.47189894848756
 20
103.21611810004829
 10
155.9937180423677
 20
103.98209793912228
 10
156.23517549405213
 20
104.33183592029398
 10
157.90850304273175
 20
106.91181568019114
 10
159.15725948758418
 20
108.80986501561856
 10
159.80055715686902
 20
109.84180713701855
 10
160.91928276976756
 20
111.60921948548412
 10
161.65693892641798
 20
112.77337741156498
 10
162.07981342416923
 20
113.43164206383858
 10
163.47625212051625
 20
115.70362695824758
 10
165.002262225897
 20
118.15136582395375
 10
165.29249351873574
 20
118.63412479412837
 10
165.74997602733737
 20
119.38419638382871
 10
167.0779907665799
 20
121.56555790327126
 10
167.9250415596675
 20
122.94070360429535
 10
168.85742154689484
 20
124.49623043353425
 10
170.30231552111337
 20
126.88035753907168
 10
170.63267949635693
 20
127.42750270963298
 10
170.84781266552866
 20
127.78111551959655
 10
172.38681825650292
 20
130.3582909655583
 10
173.77056727972047
 20
132.66174791514396
 10
174.14320040073355
 20
133.28921637203158
 10
174.69703968053548
 20
134.2183402932942
 10
175.88282401934842
 20
136.2201926723164
 10
176.6932934327127
 20
137.58959346371677
 10
177.61426501498337
 20
139.1511497354526
 10
178.93435232662185
 20
141.39849351382804
 10
179.332646153589
 20
142.0818563933528
 10
179.61585939175643
 20
142.5722996975551
 10
181.0308528402121
 20
145.01277596292744
 10
182.53866969732604
 20
147.64849601642507
 10
182.709369434782
 20
147.9437438406535
 10
182.93489973573656
 20
148.3409797479585
 10
184.3589433078711
 20
150.87399965408946
 10
185.46097407585324
 20
152.88265047394424
 10
185.97585621613294
 20
153.80484385170868
 10
186.5882144924148
 20
154.93508660826026
 10
187.5521876942879
 20
156.73472049216275
 10
188.3830172263245
 20
158.34431974019247
 10
189.08153606579106
 20
159.66540334448484
 10
189.80135050343787
 20
161.087475627609
 10
190.55425658846812
 20
162.5948820314238
 10
191.30483074035928
 20
164.1771672579704
 10
191.96410789623758
 20
165.52534952809887
 10
192.53035704634806
 20
166.75396808634434
 10
193.30171442276395
 20
168.45441122346102
 10
194.22644669042862
 20
170.63761768270697
 10
194.55469423289085
 20
171.38463069999284
 10
194.78035610339265
 20
171.93960199177235
 10
195.7268561429862
 20
174.3132744828524
 10
196.59253698069418
 20
176.68640534968156
 10
196.7905251103541
 20
177.2417390418248
 10
197.14697451372726
 20
178.34943001944288
 10
197.75928429407062
 20
180.17147744926152
 10
198.02177609176374
 20
181.04793021147367
 10
198.61760167959397
 20
183.0995740152252
 10
199.1200039186008
 20
185.0781127637491
 10
199.3519956989135
 20
186.02755878901328
 10
199.934396179734
 20
188.8234363449276
 10
199.96055776230105
 20
188.95544359818405
 10
200.0671683261257
 20
189.6097887175244
 10
200.45738891471854
 20
191.88464199623658
 10
200.51881635548662
 20
192.3362455913217
 10
200.82675297229048
 20
194.81236327067245
 10
200.9023492801279
 20
195.64894214687104
 10
201.0651715988839
 20
197.74010455257718
 10
201.11299036779243
 20
198.78813441689422
 10
201.1734792490435
 20
200.6678752877993
 10
201.17561014685745
 20
201.77878853603966
 10
201.15272860186954
 20
203.59572395203804
 10
201.11017799072002
 20
204.64096485608346
 10
201.00397514015802
 20
206.52363848384184
 10
200.93267422637658
 20
207.3907129693508
 10
200.72809595427913
 20
209.451678269861
 10
200.65582117846844
 20
210.04083663320912
 10
200.3256021583579
 20
212.37983128275945
 10
200.289683803831
 20
212.6014356911021
 10
200.06728595275578
 20
213.8219431027623
 10
199.8498573747222
 20
215.09076418985234
 10
199.80860081879644
 20
215.3075225970567
 10
199.3477063213375
 20
217.5150681398164
 10
199.1823534450339
 20
218.2359822895527
 10
198.78044061317777
 20
219.87412871491594
 10
198.4350046607406
 20
221.16457991219386
 10
198.15184043756418
 20
222.171737619755
 10
197.56499595819324
 20
224.09328942888445
 10
197.46462509905018
 20
224.41061827825385
 10
197.14704565152672
 20
225.33755289423686
 10
196.73672592185295
 20
226.61135824750042
 10
196.59442573953152
 20
227.02179860909632
 10
195.97155390508559
 20
228.7722016059545
 10
195.52083562235816
 20
229.95078768278205
 10
195.15765717959547
 20
230.88424762208084
 10
194.32392223770816
 20
232.8798725014128
 10
194.29528813009046
 20
232.94774610785376
 10
194.22664750588217
 20
233.09931613556597
 10
193.41712697208155
 20
234.9979553532989
 10
193.04796300999024
 20
235.8088772828916
 10
192.49957036027797
 20
237.006245354723
 10
191.65258983273657
 20
238.73817736136192
 10
191.5386314092019
 20
238.97109329225964
 10
191.3055360801141
 20
239.41712935938818
 10
190.5619669463012
 20
240.92252281453423
 10
190.17090206162987
 20
241.6673943620661
 10
189.55541282721927
 20
242.84178417240696
 10
188.57722051827412
 20
244.59695689885203
 10
188.50863631111054
 20
244.72078163817613
 10
188.38444838538373
 20
244.9315026109756
 10
187.45443551083517
 20
246.5944127130455
 10
186.90234610436391
 20
247.52638938302627
 10
186.36856352355915
 20
248.43434195273065
 10
185.46253681263207
 20
249.88840255207128
 10
185.25082116123312
 20
250.24409615833807
 10
185.11780087600675
 20
250.4558399669466
 10
184.12735201843398
 20
252.04648066900202
 10
183.24667794660797
 20
253.38570400538944
 10
182.96870213354373
 20
253.8136745482301
 10
182.54144346854522
 20
254.43613191512966
 10
181.79591685632036
 20
255.56814636418815
 10
181.2779598046799
 20
256.315322309969
 10
180.60335230965413
 20
257.3014800870725
 10
179.61956715216562
 20
258.6669118467892
 10
179.38248700768693
 20
259.0075340293161
 10
179.20910519983204
 20
259.2449325084652
 10
178.1561873035492
 20
260.70720493517035
 10
177.0464764510007
 20
262.1751063547613
 10
176.89796513307215
 20
262.3749705311074
 10
176.69841512879822
 20
262.63061376362504
 10
175.63291225895213
 20
264.0365764169049
 10
174.7854840256584
 20
265.1048597000142
 10
174.3430347728893
 20
265.6727701387302
 10
173.77658549971787
 20
266.36704130526925
 10
173.0374180076961
 20
267.2934671753162
 10
172.42023973553933
 20
268.03461078749564
 10
171.71519475941582
 20
268.89739465591873
 10
170.85481362570965
 20
269.9057604030653
 10
170.37198909053126
 20
270.4801354059531
 10
169.94836801741369
 20
270.9643319356723
 10
169.0164209825835
 20
272.050810354183
 10
167.93310770703835
 20
273.263851489089
 10
167.63739836343387
 20
273.5973762421423
 10
167.24887319002738
 20
274.0195652173913
 10
279.94752507557644
 20
274.0195652173913
 10
280.585707647478
 20
272.5060044584977
 10
281.28730914168676
 20
271.04475220019054
 10
281.52038390301675
 20
270.5137349498901
 10
282.04970472654236
 20
269.4562512358492
 10
282.4923987693194
 20
268.56203062458525
 10
282.7411362995376
 20
268.11784227656074
 10
283.50051914069684
 20
266.64358023608213
 10
284.34999246983244
 20
265.18782834087517
 10
284.5666335620955
 20
264.78329507134174
 10
284.9695819142228
 20
264.12007267577286
 10
285.6700257616911
 20
262.9641568893293
 10
286.1502482222774
 20
262.26124729594545
 10
286.8239369291969
 20
261.19208068888844
 10
287.8894077991382
 20
259.6945815769623
 10
288.0391396579022
 20
259.4858728044984
 10
288.1608433532273
 20
259.33495506425163
 10
289.2949109955598
 20
257.8161457783399
 10
290.4812683871323
 20
256.4050137560968
 10
290.62458000881713
 20
256.22052150312595
 10
290.8074232944814
 20
256.01178823888074
 10
292.0020418788101
 20
254.67814272361284
 10
293.2104311576843
 20
253.47896798049484
 10
293.460206320414
 20
253.21153669214456
 10
293.7253163625277
 20
252.95965915875576
 10
294.9808191442114
 20
251.81372835907442
 10
296.5372424313984
 20
250.55303551330047
 10
296.5944190144271
 20
250.50318995218336
 10
296.6420160168785
 20
250.4664460344825
 10
298.2851263922308
 20
249.27695218137416
 10
299.5591074772869
 20
248.46292552376684
 10
300.08224671574544
 20
248.15810624463012
 10
301.11519981997026
 20
247.6308266353421
 10
301.9963452389907
 20
247.14924539337082
 10
302.47336828340383
 20
246.92189814476407
 10
304.0384769318684
 20
246.27662380838797
 10
305.38857159801665
 20
245.79994621340524
 10
306.235983977599
 20
245.55979847057014
 10
308.30319601471956
 20
245.07712941687643
 10
308.61741513416115
 20
245.02695323915282
 10
311.2175735301992
 20
244.72052368526593
 10
311.2252149855076
 20
244.7202097325162
 10
313.1155094620271
 20
244.70838086996784
 10
314.12709534871794
 20
244.70166013730008
 10
314.12955184309203
 20
244.70172570688035
 10
314.1878920160694
 20
244.7079789401893
 10
317.04699307247404
 20
244.99725603033258
 10
317.39551985873635
 20
245.06026753109444
 10
319.9626007696975
 20
245.5847378889207
 10
321.1812672739595
 20
245.93079963737955
 10
322.87899429964205
 20
246.44514436235298
 10
325.67935208889406
 20
247.51443261106022
 10
325.7962576340453
 20
247.56083915039827
 10
325.9474738800362
 20
247.63256020230546
 10
328.71613501366727
 20
248.8853207512611
 10
331.3454020944263
 20
250.26960690488363
 10
331.63479256728107
 20
250.42481237772142
 10
331.85740138557975
 20
250.56005518845961
 10
334.5555400208298
 20
252.13409515253352
 10
336.63916027202856
 20
253.48993104296807
 10
337.47653079517414
 20
254.01560047241276
 10
339.16374200525144
 20
255.1817777693145
 10
340.3966925380655
 20
256.039922632981
 10
340.8973434899358
 20
256.4180300950536
 10
343.3182313221119
 20
258.1929653573598
 10
344.78400365742067
 20
259.34815037866116
 10
346.2399225775572
 20
260.46713576789335
 10
348.45077232539774
 20
262.27834432235034
 10
349.1617013759588
 20
262.848869074451
 10
351.94158650200956
 20
265.20858428072347
 10
352.0835944702396
 20
265.327188842489
 10
353.0303394142102
 20
266.15769076352956
 10
355.00521174076306
 20
267.8919540838352
 10
355.2740646750905
 20
268.1378142712299
 10
357.9273824674446
 20
270.5393172131041
 10
358.491983922611
 20
271.068250335648
 10
360.9760869565217
 20
273.3815725423277
 10
360.9760869565217
 20
90.03525130514278
 10
359.51734345754875
 20
90.79575787659437
 10
357.9456351004104
 20
91.61206877613816
 10
357.5777710562942
 20
91.77567914061646
 10
356.7424750685775
 20
92.14671609499969
 10
355.5551520193446
 20
92.6789096085868
 10
355.0269779187782
 20
92.91684300954871
 10
353.4500063841597
 20
93.49201351703145
 10
352.10947760943066
 20
93.98574947641572
 10
351.2590451246303
 20
94.2182417572585
 10
349.1929159711826
 20
94.79277933138215
 10
348.9582738800953
 20
94.83372443012138
 10
347.63196218375043
 20
95.07252973867328
 10
346.4820696351843
 20
95.28249820656704
 10
346.2766343280639
 20
95.32182488587871
 10
343.7947240425682
 20
95.50990478230054
 10
343.36188397256194
 20
95.54679132409366
 10
340.8195957473552
 20
95.44876371638455
 10
340.4477696684268
 20
95.43803596542175
 10
338.1625632664953
 20
95.07225089079571
 10
337.53407402087606
 20
94.9736363441263
 10
337.3993724620112
 20
94.93480767825545
 10
334.6196463427369
 20
94.15108992673352
 10
333.0427701235558
 20
93.49170868640208
 10
331.7045495189243
 20
92.93985259923227
 10
330.2737066459241
 20
92.1493512037246
 10
328.7878620372819
 20
91.35060009953935
 10
326.3708329649429
 20
89.72607364368146
 10
325.8706600548706
 20
89.39114939933121
 10
325.66462429279153
 20
89.22529484260761
 10
322.95156655378435
 20
87.11078275609226
 10
322.05302697457626
 20
86.29696433295625
 10
320.0315518557554
 20
84.52586714334878
 10
318.8649234171985
 20
83.36817376039443
 10
317.1108025007129
 20
81.68436500882542
 10
315.94181343956524
 20
80.43895915769706
 10
314.18954478068287
 20
78.63153905993907
 10
313.19284304465384
 20
77.50937907113051
 10
311.26787423728587
 20
75.40721589326212
 10
310.5637183524779
 20
74.57950101978585
 10
308.34594147726864
 20
72.04392585850191
 10
308.02149235366693
 20
71.64939526974571
 10
306.25246981038606
 20
69.54954359620086
 10
305.5529487064348
 20
68.71772465785907
 10
305.42340561590703
 20
68.56649796067667
 10
303.16032517955426
 20
65.78758247504872
 10
302.50124302724237
 20
64.98929114476408
 10
300.8132150109433
 20
62.857343053966716
 10
299.5790201008832
 20
61.31146101591156
 10
298.51083746639847
 20
59.9270503992025
 10
296.656730745621
 20
57.52955790597137
 10
296.25578532932445
 20
56.996744691271445
 10
295.0427478875536
 20
55.37790866419043
 10
294.06338059592775
 20
54.065954134284055
 10
293.734766419376
 20
53.620944590145385
 10
291.9393437258142
 20
51.135879781081954
 10
290.8126145295767
 20
49.548116064695776
 10
289.8757541579194
 20
48.20586350655172
 10
287.89050359154356
 20
45.28834997126681
 10
287.88214780144784
 20
45.275925546457216
 10
287.8660100717919
 20
45.25112008287849
 10
285.9853045848938
 20
42.346002251996765
 10
284.9692249658919
 20
40.71216453665012
 10
284.17011746177116
 20
39.416381421564886
 10
283.02324721562866
 20
37.46475174333524
 10
282.45189687851683
 20
36.486884045678906
 10
282.0482433068242
 20
35.756674851661
 10
280.8390831950264
 20
33.557564851745994
 10
279.5430153482907
 20
31.045240038989416
 10
279.3294478303041
 20
30.62845373004395
 10
279.1273672250671
 20
30.204992723878412
 10
277.93439910717757
 20
27.69937368310498
 10
276.9937652664037
 20
25.55992120163583
 10
276.6495304054951
 20
24.770563517344623
 10
276.2063907284089
 20
23.661513409917106
 10
275.4784669466239
 20
21.841614778775188
 10
275.0613020686981
 20
20.69365962297752
 10
274.42091242154515
 20
18.912981498288588
 10
273.5612606945612
 20
16.259935641708417
 10
273.4731463467237
 20
15.984395155043067
 10
273.2859514541026
 20
15.32879735409927
 10
272.6179617104376
 20
13.0
 10
13.0
 20
13.0
 10
13.0
 20
274.0195652173913
  0
TEXT
  5
90
330
17
100
AcDbEntity
  8
GRABADO
100
AcDbText
 10
268.71042737487767
 20
143.18183950393924
 30
0.0
 40
6.0
  1
13
 72
1
 11
268.71042737487767
 21
143.18183950393924
 31
0.0
100
AcDbText
 73
2
  0
LWPOLYLINE
  5
91
330
17
100
AcDbEntity
  8
CORTE
100
AcDbPolyline
 90
522
 70
1
 10
14.242640687119273
 20
471.2036586323671
 10
198.811345274701
 20
655.7723632199487
 10
240.52835244074117
 20
614.0553560539086
 10
239.87393425831505
 20
613.9722376524271
 10
236.74065955209107
 20
613.5288574133929
 10
235.0196067376727
 20
613.2494666314981
 10
233.19384250377567
 20
612.9332460519277
 10
229.92926588419573
 20
612.2908397306169
 10
229.73369760765615
 20
612.2509026826581
 10
229.39222998093925
 20
612.1721695948845
 10
226.34568845189654
 20
611.4952575014361
 10
224.55594202709455
 20
611.0483696524202
 10
223.03617044696387
 20
610.6623762304744
 10
221.02815047977344
 20
610.0916320766312
 10
219.79976724977575
 20
609.755315337866
 10
218.83868612096427
 20
609.4621185753265
 10
216.6279788315755
 20
608.784772324821
 10
214.36248203359384
 20
608.013674159153
 10
213.52895213636208
 20
607.7404282889555
 10
212.67667191121495
 20
607.4313287604809
 10
210.48684460639578
 20
606.6402766280867
 10
208.723826870714
 20
605.9373547016598
 10
207.51193775470193
 20
605.47190023022
 10
205.90890151453556
 20
604.7950208268492
 10
204.59580034232613
 20
604.2457568837988
 10
203.75990032615198
 20
603.862135838303
 10
201.7328145085549
 20
602.965507486784
 10
199.29478099973852
 20
601.7868064628587
 10
198.9358455399596
 20
601.6192794073386
 10
198.25705505345042
 20
601.2742282136144
 10
196.18128267165054
 20
600.231541362853
 10
195.23160981147885
 20
599.7130536522026
 10
193.4805369340895
 20
598.7890575016152
 10
191.4678565999621
 20
597.6387709774538
 10
190.83681478817834
 20
597.2895450869826
 10
189.10800237083697
 20
596.2567776441379
 10
188.23948350280943
 20
595.7444938078875
 10
187.95842404579219
 20
595.5659391784361
 10
185.67936295908544
 20
594.161337306258
 10
184.668183153438
 20
593.4923726566933
 10
183.1691747127412
 20
592.528236378736
 10
181.55742641326913
 20
591.4190827736015
 10
180.7059705162162
 20
590.8481719412848
 10
178.6055131973115
 20
589.3460255342046
 10
178.28714193158993
 20
589.1236905110225
 10
176.56353374767906
 20
587.8438143410747
 10
175.9069671771117
 20
587.3611286446705
 10
175.79548155955973
 20
587.2742348258755
 10
173.55854444668336
 20
585.5661613661697
 10
173.10673196091557
 20
585.2015635547492
 10
171.25076833303294
 20
583.730567346797
 10
170.5304195260784
 20
583.1290712785461
 10
168.98202673913934
 20
581.8558982364355
 10
168.05663169003364
 20
581.056725584561
 10
166.75103868494202
 20
579.9434831831626
 10
165.6769626164878
 20
578.9845258703514
 10
164.5567518825151
 20
577.9943451614281
 10
163.38428181263922
 20
576.9124610743843
 10
162.39839531173297
 20
576.0092879986285
 10
161.17254704917383
 20
574.8405228416739
 10
160.27539737277834
 20
573.9888537167676
 10
159.03668605167863
 20
572.7687246686844
 10
158.1874535515751
 20
571.9333796252988
 10
156.97236997541475
 20
570.6970044656853
 10
156.1344473693962
 20
569.8429526557792
 10
154.9761192852798
 20
568.6254151391895
 10
154.11652066971803
 20
567.717463863906
 10
153.04502890491122
 20
566.553937266634
 10
152.13401822526154
 20
565.5565544525347
 10
151.17678758008455
 20
564.482561359634
 10
150.18750836444548
 20
563.3596420843671
 10
149.36962893492574
 20
562.4112898881447
 10
148.27782836826103
 20
561.125922302932
 10
147.62227494009747
 20
560.3401233440371
 10
146.40602809814823
 20
558.8543157813344
 10
145.93390856743864
 20
558.2690584110471
 10
144.57346148524618
 20
556.5435015886436
 10
144.3041646445614
 20
556.1981019343777
 10
142.78172947202668
 20
554.1918488807522
 10
142.73307517090737
 20
554.1272460739808
 10
142.4255243157746
 20
553.7058288338251
 10
141.19926645848295
 20
552.0557511330583
 10
141.02152953240244
 20
551.8093511255736
 10
139.71471177407108
 20
549.9850807118684
 10
139.30064035754023
 20
549.386937480257
 10
138.28463863783077
 20
547.9145150005711
 10
137.62447623650473
 20
546.9198399277584
 10
136.91003982374647
 20
545.8440544408975
 10
135.99564650105424
 20
544.4053899184646
 10
135.59226960089205
 20
543.773697888021
 10
134.41717057707785
 20
541.8405975741932
 10
134.3330500685448
 20
541.7034474870107
 10
134.0264148504184
 20
541.1752439311156
 10
133.09926987508697
 20
539.6325513790082
 10
132.8753908696819
 20
539.2400100490236
 10
131.90931387756066
 20
537.5624504653322
 10
131.38140131861982
 20
536.5907754603006
 10
130.77609383903973
 20
535.4924560625586
 10
129.9450557119503
 20
533.8839178072574
 10
129.7020759954633
 20
533.4225712061004
 10
129.02554466884564
 20
532.04280296398
 10
128.67070510701464
 20
531.3520449464164
 10
128.56176528992756
 20
531.1249447132448
 10
127.65956464522259
 20
529.2822831990068
 10
127.22297951691232
 20
528.320529297605
 10
126.70680807535058
 20
527.2126226722983
 10
125.95106194390331
 20
525.4492389420135
 10
125.815577734652
 20
525.143065785212
 10
125.51702086166269
 20
524.4032690757633
 10
124.94596152708961
 20
523.0728448002213
 10
124.73142563178244
 20
522.5266390572067
 10
124.11226635439851
 20
521.0033797710989
 10
123.57341346764628
 20
519.5413946137475
 10
123.34011354372078
 20
518.9340093898824
 10
122.89856016937239
 20
517.653389805346
 10
122.60628907651497
 20
516.8640585458776
 10
122.48182664443706
 20
516.4907432551211
 10
121.89042282636963
 20
514.7947587503768
 10
121.45059223315208
 20
513.3786327231373
 10
121.23663525407395
 20
512.7255419476011
 10
120.88618389679114
 20
511.509844842599
 10
120.61885122213843
 20
510.6558462280548
 10
120.49169998278629
 20
510.19525373175173
 10
120.02056124537528
 20
508.5866816405917
 10
119.60141683053712
 20
506.9420650251893
 10
119.48540936394845
 20
506.5175889325109
 10
119.32039067351656
 20
505.81311539834417
 10
118.96858269390904
 20
504.44814337571495
 10
118.78478856297241
 20
503.61636297040826
 10
118.48876295000915
 20
502.3790765815122
 10
118.10258497991873
 20
500.46352608821167
 10
118.06849791527692
 20
500.30992438603835
 10
118.04971876932933
 20
500.20915849415667
 10
117.64700951926835
 20
498.24087964873286
 10
117.39163117950402
 20
496.72348240940437
 10
117.28792026893363
 20
496.1718797592393
 10
117.1716494255543
 20
495.4019730872194
 10
116.95203034047984
 20
494.1029951465705
 10
116.82406443527901
 20
493.1486868306163
 10
116.65262851148606
 20
492.0339989867305
 10
116.48064434512153
 20
490.57951714519896
 10
116.39934963747963
 20
489.96543585436154
 10
116.35134490244553
 20
489.47909347706695
 10
116.16384453063293
 20
487.8964432730678
 10
116.00129463554319
 20
485.96892965922706
 10
115.98803876832422
 20
485.8282250502942
 10
115.98058184437141
 20
485.70760916015035
 10
115.82137396804436
 20
483.7592267994818
 10
115.72628802737162
 20
481.81763945969465
 10
115.71733613614768
 20
481.6902386575073
 10
115.71210016159458
 20
481.54953868899634
 10
115.62895657368881
 20
479.6223715630503
 10
115.60737763233838
 20
477.7942090146457
 10
115.5993677247284
 20
477.55337087356475
 10
115.59894410368295
 20
477.3055870577272
 10
115.59473045320351
 20
475.4859157990162
 10
115.64643660248228
 20
473.6128773558884
 10
115.64760354684454
 20
473.4169064217104
 10
115.65431487526011
 20
473.23042006971804
 10
115.73200793467142
 20
471.3499041057234
 10
115.87371367661613
 20
469.3191407976787
 10
115.87664966246147
 20
469.28337575647924
 10
115.88156874160633
 20
469.2382752063812
 10
116.06053740264375
 20
467.2143955673341
 10
116.25067162072668
 20
465.5664975061184
 10
116.30719941296718
 20
465.14840824893724
 10
116.39863889978935
 20
464.57928158270647
 10
116.60844340959704
 20
463.07945868384775
 10
116.79056433659431
 20
461.9772939174862
 10
116.97724439356861
 20
461.0140701976429
 10
117.2986071348624
 20
459.53742970739097
 10
117.41517001664349
 20
458.9451816899718
 10
117.50038536840056
 20
458.5586219591943
 10
117.93563723951145
 20
456.8804631656646
 10
118.37801155804006
 20
455.3083539879947
 10
118.54152939781969
 20
454.8163351357855
 10
118.90136419676293
 20
453.79607227916046
 10
119.25136491814715
 20
452.74771193388256
 10
119.43245333179152
 20
452.2359779857399
 10
120.08398746103316
 20
450.68435560554394
 10
120.66967311586247
 20
449.34727783414337
 10
121.04847014599572
 20
448.62155828683217
 10
122.10501422836711
 20
446.65771956507086
 10
122.1684764653609
 20
446.55922974818793
 10
122.48975515141419
 20
446.07096274624587
 10
123.5107945586818
 20
444.49148951253005
 10
123.73004643658297
 20
444.15901608917596
 10
125.1083979993218
 20
442.42995517635495
 10
125.56202908901382
 20
441.86796678462525
 10
127.03797393785202
 20
440.36873343941784
 10
127.60899061001913
 20
439.79242630956276
 10
129.42457437519596
 20
438.3077541618542
 10
129.8771073507152
 20
437.93820596689204
 10
132.01314534732307
 20
436.547625098804
 10
132.37244044866085
 20
436.31035836208105
 10
132.48744900280735
 20
436.2508590555183
 10
135.08492292524076
 20
434.8996051776696
 10
136.88022735677743
 20
434.1904586410959
 10
138.03834074540543
 20
433.72895201204756
 10
139.34231563409028
 20
433.35294404259764
 10
141.22403433855217
 20
432.7888754558122
 10
144.44474743315854
 20
432.1351441457292
 10
144.6534924565515
 20
432.0922140807121
 10
144.75049833080632
 20
432.0805862315975
 10
148.3083197153773
 20
431.6192773167109
 10
149.41191270683257
 20
431.5599141270944
 10
152.20354589774635
 20
431.38584771755734
 10
153.71956239671758
 20
431.39319128300315
 10
156.33323863698095
 20
431.38609814658685
 10
157.78536221584758
 20
431.4685948678102
 10
160.691070075809
 20
431.61379160466606
 10
161.6801821348807
 20
431.71532010471753
 10
165.26861731144632
 20
432.06059323167295
 10
165.45083001680527
 20
432.08660182158866
 10
166.03506808684054
 20
432.1663045298859
 10
169.10371886884522
 20
432.5796039683128
 10
170.03966654662213
 20
432.69986679297244
 10
172.6798963336526
 20
433.1458026707296
 10
174.99334274341828
 20
433.52181706793425
 10
176.20664880683893
 20
433.76185332268165
 10
178.77791544298992
 20
434.2532416382375
 10
179.68852680128657
 20
434.42588935686365
 10
180.10656510086568
 20
434.50245525353455
 10
183.11410754123062
 20
435.14355518026423
 10
185.3392352475435
 20
435.602674586166
 10
186.5238086636503
 20
435.8774877137272
 10
188.56461638757077
 20
436.3361785033124
 10
189.90940202202614
 20
436.63776079666474
 10
190.67388284641498
 20
436.80420677115205
 10
193.26785004370328
 20
437.4233114250438
 10
196.0777148878919
 20
438.0750720818845
 10
196.62430154465983
 20
438.2112097080948
 10
197.47817123621877
 20
438.41810143144085
 10
199.95967498647002
 20
439.02150872642403
 10
201.5310051965854
 20
439.394928216936
 10
203.2902209774689
 20
439.83555957459737
 10
205.99774774827057
 20
440.499697690868
 10
206.6182404158224
 20
440.6529851441109
 10
207.02040455444154
 20
440.7509050371711
 10
209.9309840782505
 20
441.4850019816562
 10
212.53823242525118
 20
442.13533369310215
 10
213.24541103286015
 20
442.31552948718496
 10
214.294024368583
 20
442.58089580203693
 10
216.54802390772346
 20
443.15794304717855
 10
218.089424911619
 20
443.55316721480585
 10
219.8448371916715
 20
444.00612899265093
 10
222.36739190683608
 20
444.6617983281797
 10
223.13223869891243
 20
444.86337258834965
 10
223.6792964863314
 20
445.0099063733086
 10
226.40552526563857
 20
445.73503222714066
 10
229.33544831322877
 20
446.53258022582554
 10
229.66492299377308
 20
446.62064902256617
 10
230.10528520272726
 20
446.7420632211843
 10
232.90335162179446
 20
447.5262279071286
 10
235.10293566666604
 20
448.1673050937674
 10
236.11910151055224
 20
448.45531763184636
 10
237.35130651777143
 20
448.82151725971636
 10
239.3054718286586
 20
449.4124185947503
 10
241.0311155680463
 20
449.9630919419118
 10
242.45919015132915
 20
450.4033117088479
 10
243.97373277611968
 20
450.8998829935264
 10
245.57201506458267
 20
451.43339528534636
 10
247.22159575063068
 20
452.0215038262232
 10
248.6410839237169
 20
452.50863330410357
 10
249.91024705162818
 20
452.97699920424634
 10
251.65807395648744
 20
453.63396204594176
 10
253.85571850579822
 20
454.5238376807571
 10
254.6160425391385
 20
454.8199495877317
 10
255.16803354180672
 20
455.0528065126258
 10
257.51575005295535
 20
456.06196983099454
 10
259.8059357722199
 20
457.127897968886
 10
260.3386147408327
 20
457.38057943934484
 10
261.37391833284073
 20
457.91178745080265
 10
263.0952688239766
 20
458.7672011462033
 10
263.9006242456812
 20
459.2013371075986
 10
265.77266780545244
 20
460.23075604025144
 10
267.5269580014591
 20
461.27454217608795
 10
268.36236068533265
 20
461.78185893788424
 10
270.7511639938414
 20
463.347023587684
 10
270.8630062502246
 20
463.4218677791878
 10
271.401083173973
 20
463.8091745976831
 10
273.28557497790746
 20
465.14181115291234
 10
273.64834270231836
 20
465.4177073574872
 10
275.61696637432084
 20
466.9508428896544
 10
276.2619716325828
 20
467.4889388241073
 10
277.85577951594087
 20
468.8524811760236
 10
278.63066151564874
 20
469.559737224205
 10
280.00261113045815
 20
470.84614264277644
 10
280.7896521938932
 20
471.6301701616229
 10
282.05823985189863
 20
472.93111721087837
 10
282.7672489574353
 20
473.70030196778987
 10
284.02340349057056
 20
475.1066500125527
 10
284.5861003794281
 20
475.7701816206895
 10
285.89876423572554
 20
477.372162843954
 10
286.26425612555727
 20
477.83986670195475
 10
287.6846749950164
 20
479.7272857882077
 10
287.81597486284136
 20
479.9093818801427
 10
288.5217449014981
 20
480.92966997603264
 10
289.26519167434066
 20
481.9806071927778
 10
289.38929022349055
 20
482.1630513228547
 10
290.62435902198933
 20
484.04992337048304
 10
291.01720016579816
 20
484.67660879453786
 10
291.89134932289767
 20
486.11914852934007
 10
292.55957601084924
 20
487.27589542615954
 10
293.0715167131925
 20
488.1882908132978
 10
294.01529731696417
 20
489.96199483879957
 10
294.16870978308583
 20
490.2573531351884
 10
294.59958895485465
 20
491.1373574687758
 10
295.2101654947521
 20
492.32821373528714
 10
295.3997692338256
 20
492.71906032212786
 10
296.1970541647665
 20
494.39721904896237
 10
296.71173441778194
 20
495.5493112102205
 10
297.1149843311679
 20
496.4661730029229
 10
297.9365645849274
 20
498.4668325189238
 10
297.96431110063565
 20
498.53507377797155
 10
298.0229510442131
 20
498.690786223234
 10
298.7930742511386
 20
500.60574434807984
 10
299.10544430560196
 20
501.4401910844722
 10
299.56433922740587
 20
502.67463032900486
 10
300.1900944192967
 20
504.4981968700107
 10
300.2742100794262
 20
504.74347407824956
 10
300.4247819192857
 20
505.2236924938308
 10
300.9634730629732
 20
506.8139491911186
 10
301.21365215351085
 20
507.6171775453263
 10
301.60885454076026
 20
508.88281315537375
 10
302.1582626628236
 20
510.8155941073564
 10
302.1973236177106
 20
510.9516477781788
 10
302.2585117220924
 20
511.1884641314065
 10
302.7767483215856
 20
513.0219375512678
 10
303.0453691816996
 20
514.0713307376559
 10
303.30994731816696
 20
515.090791439256
 10
303.69746579698426
 20
516.7596251805386
 10
303.79927358521263
 20
517.160844114342
 10
303.8549395224351
 20
517.4046291430022
 10
304.2793392456816
 20
519.2297350734652
 10
304.60358254016114
 20
520.7994395843514
 10
304.7096448307283
 20
521.2986190397656
 10
304.8476711565213
 20
522.040880364241
 10
305.1209593267925
 20
523.3685023806306
 10
305.2830415612152
 20
524.2630865022102
 10
305.50334087835296
 20
525.4374248880918
 10
305.77320577880533
 20
527.0985721007258
 10
305.8464210560471
 20
527.5070693336587
 10
305.8916876784282
 20
527.7975348601769
 10
306.18114504279924
 20
529.5760429935366
 10
306.43442402171206
 20
531.3986901104361
 10
306.4707359761324
 20
531.6450287848369
 10
306.5103998782022
 20
531.9668990093224
 10
306.7511412997895
 20
533.7144890401935
 10
306.9073094031734
 20
535.0691016442393
 10
306.9960238585321
 20
535.783533833526
 10
307.0864075861165
 20
536.6749978056257
 10
307.2188192550521
 20
537.8527501666438
 10
307.30647598761425
 20
538.813228782092
 10
307.4180142280161
 20
539.9218511898108
 10
307.5226551516911
 20
541.243254781583
 10
307.5873911082292
 20
541.9908077440168
 10
307.6302244243657
 20
542.6327317270633
 10
307.7394946136723
 20
544.0599740524401
 10
307.8312260627352
 20
545.6837418280778
 10
307.8579655951898
 20
546.1286775247784
 10
307.88176949775317
 20
546.7019389968965
 10
387.571750476607
 20
467.0119580180426
 10
386.95276462448214
 20
465.49044571746447
 10
386.4156104178546
 20
463.96107716234565
 10
386.2049332635
 20
463.4207825194713
 10
385.83146570204553
 20
462.2987422705405
 10
385.5121882035825
 20
461.3534008528004
 10
385.37398360492324
 20
460.86342826543535
 10
384.8684876753553
 20
459.28400282286657
 10
384.4397839899982
 20
457.65396243457167
 10
384.3069241573184
 20
457.21472583104617
 10
384.12288261623405
 20
456.4608292654475
 10
383.8008153195444
 20
455.1481847799874
 10
383.64335173786037
 20
454.3115840815859
 10
383.3637066328637
 20
453.0791992704461
 10
383.0582165332921
 20
451.26690581629015
 10
383.0165135576814
 20
451.01345001529614
 10
382.99585610841143
 20
450.8206775495064
 10
382.72380268323167
 20
448.94481028389157
 10
382.56486301764585
 20
447.1081079053223
 10
382.5357439140099
 20
446.87631556265404
 10
382.51743693459053
 20
446.59942912885936
 10
382.4191300489559
 20
444.8116764394042
 10
382.4256457096746
 20
443.1092715933127
 10
382.4131609435188
 20
442.7435514044806
 10
382.4225177401703
 20
442.3779859840536
 10
382.4999968316722
 20
440.6799160141013
 10
382.7091098321987
 20
438.6879140930946
 10
382.7142936475054
 20
438.612238009232
 10
382.7219679373293
 20
438.5525999726608
 10
383.0427232562662
 20
436.54964631429857
 10
383.36796015095206
 20
435.07320188029126
 10
383.52233567465686
 20
434.4877467979585
 10
383.879900831993
 20
433.38449566600445
 10
384.1624353711037
 20
432.4209024031135
 10
384.3389828194165
 20
431.92283739245283
 10
384.9894038990623
 20
430.35986059485265
 10
385.6070030328875
 20
429.0681375413234
 10
386.03640397550635
 20
428.29911640381397
 10
387.15684506416903
 20
426.49607819327986
 10
387.34355161878227
 20
426.23841180762184
 10
388.9654628372705
 20
424.1831437581148
 10
388.9706441640189
 20
424.17751843512985
 10
390.2989199378836
 20
422.83251412342173
 10
391.00946690247144
 20
422.1124626075461
 10
391.01125027099613
 20
422.1107719684111
 10
391.0569247066011
 20
422.0739409401603
 10
393.2831642437647
 20
420.2568009871612
 10
393.5741657572374
 20
420.0549111926514
 10
395.76022262378285
 20
418.6105674192065
 10
396.86665258199594
 20
417.99354267908245
 10
398.430823517356
 20
417.15676502951493
 10
401.16707647158864
 20
415.9327140186902
 10
401.2825555539807
 20
415.8828636936129
 10
401.44019602910384
 20
415.8266521028045
 10
404.2837705708715
 20
414.75474851977583
 10
407.12178127955593
 20
413.8744140637497
 10
407.4361580876432
 20
413.7795309403042
 10
407.68919740119384
 20
413.717753843913
 10
410.71008385921584
 20
412.92289605080146
 10
413.1421466205585
 20
412.40827479406363
 10
414.10596141406324
 20
412.18786883700443
 10
416.1236117767079
 20
411.8194422237699
 10
417.6022395116672
 20
411.55441459348845
 10
418.223615545191
 20
411.4677632608622
 10
421.19051050795855
 20
411.0110058183824
 10
423.04380722801835
 20
410.7913874224972
 10
424.8645395260794
 20
410.55313943798564
 10
427.70856422596165
 20
410.2705504401026
 10
428.614688899601
 20
410.17126960855353
 10
432.2489351471754
 20
409.8741646090277
 10
432.4332160343975
 20
409.8576159016138
 10
433.6899193444894
 20
409.77541967183436
 10
436.3126743127238
 20
409.6052834119023
 10
436.67663145145923
 20
409.58902508462813
 10
440.2509294703144
 20
409.41096509625027
 10
441.0241751856753
 20
409.3857437763793
 10
444.4164671055323
 20
409.2649834953476
 10
314.77104005311173
 20
279.6195564429271
 10
314.2773119867865
 20
281.188803216873
 10
313.74316532203034
 20
282.877387826877
 10
313.59873616007604
 20
283.2531969852213
 10
313.27045544937886
 20
284.1062031889488
 10
312.8072089121681
 20
285.32208501088144
 10
312.60197774530144
 20
285.86380482033
 10
311.8935974456141
 20
287.3855990523765
 10
311.2948245036238
 20
288.6826200843593
 10
310.85787479503756
 20
289.44836352966047
 10
309.80316027453676
 20
291.31559687957986
 10
309.66619581775205
 20
291.5104664503143
 10
308.8972126763599
 20
292.6171712978272
 10
308.232585985116
 20
293.57873824403725
 10
308.1151294479788
 20
293.75181110442
 10
306.4931464249729
 20
295.63977926775544
 10
306.21316500013864
 20
295.97192614026255
 10
304.3461797702097
 20
297.70027939788235
 10
304.0756733629247
 20
297.9556144742619
 10
302.2011393129831
 20
299.3128503107537
 10
301.68699929082936
 20
299.6875283035603
 10
301.5642948921779
 20
299.7553206763284
 10
299.0445595667603
 20
301.1667117284711
 10
297.46328675265994
 20
301.8154786497204
 10
296.1268007069246
 20
302.37152233250197
 10
294.5560731113128
 20
302.82431213351197
 10
292.94061999050285
 20
303.31016060982273
 10
290.0828086699728
 20
303.8705445840446
 10
289.49230580913104
 20
303.98739303615866
 10
289.22933964284806
 20
304.0158054389418
 10
285.8157322825695
 20
304.43904112866846
 10
284.60491232729294
 20
304.49894803263703
 10
281.92315872986296
 20
304.6759919642433
 10
280.2796150082125
 20
304.68231000265007
 10
277.84863162668864
 20
304.73202821126256
 10
276.14139661175597
 20
304.6779933808707
 10
273.6243165530221
 20
304.6389954244495
 10
272.1260550589928
 20
304.5502830431533
 10
269.2784427234989
 20
304.42498770218435
 10
268.1952465224148
 20
304.33761830342047
 10
264.83411906404353
 20
304.1129009802876
 10
264.3257236338997
 20
304.0633459010414
 10
261.59001643962443
 20
303.8294143796177
 10
260.5071955114165
 20
303.7358656837838
 10
260.3086612905744
 20
303.72053305847777
 10
256.7434317834269
 20
303.3557825971616
 10
255.7129131111614
 20
303.25734684341364
 10
253.01178210186293
 20
302.94344794843107
 10
251.04597083963023
 20
302.7230518666172
 10
249.31172552021877
 20
302.49944491598546
 10
246.3053908851059
 20
302.11521315148315
 10
245.6451238251368
 20
302.02196853701196
 10
243.6426868918494
 20
301.7350256055432
 10
242.02247769396325
 20
301.499850914019
 10
241.47544311497626
 20
301.41754696029955
 10
238.4486813750857
 20
300.92989634383656
 10
236.52924502908667
 20
300.6038957082783
 10
234.9176688213342
 20
300.3172401441735
 10
231.4508910784919
 20
299.6580306770088
 10
231.43619724761783
 20
299.6551537178125
 10
231.40724603803818
 20
299.6490247043781
 10
228.02315791647538
 20
298.9246557892161
 10
226.14938339977374
 20
298.48783485015787
 10
224.66807203708908
 20
298.13663215759493
 10
222.47710172905954
 20
297.5675813059422
 10
221.38163915113847
 20
297.2801301236311
 10
220.5798771005696
 20
297.04922042865036
 10
218.16986619246205
 20
296.34922014972784
 10
215.476925917514
 20
295.4891966013891
 10
215.03119845194345
 20
295.3454992162375
 10
214.58887373660633
 20
295.1889596335192
 10
211.9735776759063
 20
294.26077526461717
 10
209.79562775080836
 20
293.4130824743687
 10
208.99405677499504
 20
293.09833310749394
 10
207.8964928526769
 20
292.62746332653677
 10
206.0949103472372
 20
291.85532050567133
 10
204.98820335802043
 20
291.3385737445629
 10
203.2762499188388
 20
290.53226802958835
 10
200.79239763724303
 20
289.26414687921067
 10
200.5352548377548
 20
289.1316165854739
 10
199.93931040900054
 20
288.8004057126715
 10
197.8202619303991
 20
287.6260373890872
 10
14.242640687119273
 20
471.2036586323671
  0
LWPOLYLINE
  5
92
330
17
100
AcDbEntity
  8
GRABADO
100
AcDbPolyline
 90
551
 70
1
 10
198.811345274701
 20
655.7723632199487
 10
235.52082332657847
 20
619.0628851680713
 10
231.93042929663255
 20
618.4268691249301
 10
231.85903241063318
 20
618.4139776119271
 10
231.7146554950761
 20
618.3841817079663
 10
228.40126051143255
 20
617.7280752007625
 10
226.72303818233985
 20
617.3504725729358
 10
225.02017391410004
 20
616.9664027717984
 10
222.42154178879446
 20
616.3021950273003
 10
221.71418073717132
 20
616.1288710870679
 10
221.23922092789581
 20
615.9977227583765
 10
218.4631543703452
 20
615.237267655667
 10
215.4040778226086
 20
614.294755276633
 10
215.2958685826576
 20
614.2619700324125
 10
215.18409979221644
 20
614.2239290622952
 10
212.17122914350006
 20
613.2433245720536
 10
209.15395747170942
 20
612.1462567813646
 10
209.13249740144323
 20
612.1387837535506
 10
209.10840100102297
 20
612.1294572308996
 10
206.13065790829774
 20
610.9982161770438
 10
203.9309885604627
 20
610.0705589337801
 10
203.20737778152613
 20
609.7782882664112
 10
202.15690575118538
 20
609.3095531206459
 10
200.33135812713402
 20
608.5119198715952
 10
199.26080329614587
 20
607.9957905344482
 10
197.51207509465792
 20
607.1880153297122
 10
195.01419416705397
 20
605.9208001688705
 10
194.7599494833828
 20
605.7969679928021
 10
194.23186347550057
 20
605.5157102760226
 10
192.0418667018643
 20
604.3726721642236
 10
191.12001014897743
 20
603.8473078951149
 10
189.37811098370798
 20
602.8931915573846
 10
187.49745901312173
 20
601.7732353065787
 10
186.77136026017138
 20
601.3566800888703
 10
184.57952557113322
 20
599.9951266882476
 10
184.21359581635812
 20
599.7720010789596
 10
184.10520179216093
 20
599.7005694619572
 10
181.68262776873001
 20
598.1596328669935
 10
180.9048329164861
 20
597.6271174642663
 10
179.20080648461658
 20
596.4980888659775
 10
177.87169445134987
 20
595.5539151143789
 10
176.76467126423222
 20
594.7908640164881
 10
174.98548182381302
 20
593.4809241627862
 10
174.371199330681
 20
593.0409211217918
 10
172.2293383496165
 20
591.4081157443582
 10
172.01784599627067
 20
591.2508390761501
 10
170.53153989514408
 20
590.0786448263209
 10
169.6974041880305
 20
589.4283731323217
 10
169.5859112280912
 20
589.336488221116
 10
167.40553549041405
 20
587.5767329560861
 10
167.03763224474545
 20
587.2639811209658
 10
165.15055542080412
 20
585.6881556195057
 10
164.58396124110678
 20
585.1916002064304
 10
162.93100409319047
 20
583.7641512105845
 10
162.21701937612264
 20
583.1193523397819
 10
160.74569527762108
 20
581.8058773186187
 10
159.93019018684404
 20
581.0472223162149
 10
158.5937486786745
 20
579.8142487970699
 10
157.71797609990185
 20
578.9752086607066
 10
156.47453298563104
 20
577.7898684535559
 10
155.57584024741723
 20
576.9033237407918
 10
154.38769906920018
 20
575.733119214714
 10
153.4999790041659
 20
574.8315028735256
 10
152.33311695880505
 20
573.6441031831034
 10
151.48745986933972
 20
572.7598044259257
 10
150.31094040406012
 20
571.5227000327075
 10
149.53589750691526
 20
570.6882110096115
 10
148.3215551391754
 20
569.3685119931472
 10
147.64353425699002
 20
568.6167144973809
 10
146.36559572586958
 20
567.1808909485503
 10
145.8091291398897
 20
566.5453153374278
 10
144.4439992069001
 20
564.9589347720921
 10
144.03198091991473
 20
564.474020230847
 10
142.55795411978323
 20
562.7014260335975
 10
142.31183887858833
 20
562.4028230195372
 10
140.70899401377557
 20
560.4068661972206
 10
140.64895790847498
 20
560.331736578438
 10
140.18194605812187
 20
559.7290672246061
 10
139.0227361367666
 20
558.2600765193929
 10
138.88826950038592
 20
558.0847037546196
 10
137.44122635828546
 20
556.1891717419334
 10
137.10109048670006
 20
555.7284688211911
 10
135.91285296430834
 20
554.1183641284297
 10
135.3542850617211
 20
553.3318660365005
 10
134.43886093316405
 20
552.0476649969999
 10
133.65047242196277
 20
550.8923102606759
 10
133.0209041472642
 20
549.9770788942967
 10
131.99268598691106
 20
548.4067547896217
 10
131.66105235875955
 20
547.9066070725942
 10
130.38445137258185
 20
545.8716619059855
 10
130.36184843507016
 20
545.8362531339485
 10
130.27371286914217
 20
545.6893585316818
 10
129.06981753975637
 20
543.7652539563264
 10
128.8020356160423
 20
543.3116447844379
 10
127.83062884174838
 20
541.6950425033018
 10
127.27029553152003
 20
540.7001326521422
 10
126.6507661131549
 20
539.6249528203
 10
125.79614522029641
 20
538.0310725730399
 10
125.53353898217419
 20
537.5549911258786
 10
124.76817271328599
 20
536.0520900730182
 10
124.46202868857696
 20
535.4843370186481
 10
124.37484899874548
 20
535.3100197671704
 10
123.39887755085377
 20
533.4144903711936
 10
122.99010343684388
 20
532.5515879788463
 10
122.39796124086958
 20
531.3447656338383
 10
121.67329047743966
 20
529.7252402030445
 10
121.46331680067927
 20
529.2751683201467
 10
120.9835136928299
 20
528.1362675804238
 10
120.55979555500376
 20
527.2047629819771
 10
120.41119352672511
 20
526.8449827840982
 10
119.67369537721271
 20
525.1352471356945
 10
119.1998592051896
 20
523.9131355879473
 10
118.85417460417332
 20
523.0658504601212
 10
118.17701548429307
 20
521.1982116168931
 10
118.09668412470631
 20
520.9956725491307
 10
118.06481635344969
 20
520.9057779240939
 10
117.32434318719032
 20
518.9263349309342
 10
116.9708629062185
 20
517.8564848322429
 10
116.61929049967875
 20
516.8571047981197
 10
116.02334985050945
 20
514.9132173545028
 10
115.98041738051343
 20
514.7871252112304
 10
115.96141575901625
 20
514.7234537208175
 10
115.32123748452878
 20
512.7179316153956
 10
114.99745874012451
 20
511.544055750094
 10
114.73042999843842
 20
510.6488334733202
 10
114.33644762667154
 20
509.0951794687523
 10
114.18843048940353
 20
508.57903661719297
 10
114.11588288171238
 20
508.2830496431998
 10
113.6423918643287
 20
506.50994759787
 10
113.2949255661463
 20
504.9605028295515
 10
113.16618900453648
 20
504.44094262259796
 10
113.00047854052636
 20
503.62820035402666
 10
112.70413177787158
 20
502.37132388105033
 10
112.54718204926732
 20
501.56554785057733
 10
112.27194684119817
 20
500.3023048535798
 10
111.94426155875337
 20
498.44004093417163
 10
111.90196481261246
 20
498.2329549277781
 10
111.87861871680971
 20
498.0914195176124
 10
111.51670750595562
 20
496.16391492009075
 10
111.27805993233446
 20
494.5481371891569
 10
111.2001100597459
 20
494.0949283985517
 10
111.12008785620486
 20
493.48500109477834
 10
110.89072328400228
 20
492.02577445364966
 10
110.75969917033947
 20
490.9236830683965
 10
110.62143576974982
 20
489.956748949823
 10
110.49335710324627
 20
488.7265124149668
 10
110.38779204010405
 20
487.88788710803703
 10
110.32754029848755
 20
487.2130446812192
 10
110.16956022629722
 20
485.81881823170716
 10
110.0417885183868
 20
484.14332718975595
 10
110.00501013758159
 20
483.7502659621111
 10
109.98521541327356
 20
483.41260903755835
 10
109.84206767754856
 20
481.6811549475125
 10
109.7490871932285
 20
479.71918241128276
 10
109.74271990047616
 20
479.61293456794374
 10
109.74011449602716
 20
479.5149980061218
 10
109.64005276219967
 20
477.54377743643727
 10
109.60498734782192
 20
475.50556746780234
 10
109.60366135081979
 20
475.47461856659595
 10
109.60337162936077
 20
475.4427803363286
 10
109.56833269743987
 20
473.4067122158499
 10
109.59817095572043
 20
471.36956866382894
 10
109.59781173406928
 20
471.337499504888
 10
109.5984503692689
 20
471.3067043329711
 10
109.63598921564923
 20
469.2699991489423
 10
109.73129091554284
 20
467.30834741149965
 10
109.7368843090437
 20
467.20295845875745
 10
109.74687100678125
 20
467.0805034570031
 10
109.85725477147693
 20
465.13368769331896
 10
110.00080431467686
 20
463.44743316325906
 10
110.03755140681709
 20
463.06713051918933
 10
110.09664908660842
 20
462.5883093804962
 10
110.25295437977351
 20
460.9978451773444
 10
110.41158884793353
 20
459.72819137037754
 10
110.52660959859799
 20
458.9318347669306
 10
110.71348080419546
 20
457.82916029558345
 10
110.85272149343058
 20
456.86255025585086
 10
110.9716004204943
 20
456.1586459271979
 10
111.24070085806008
 20
454.7971536736604
 10
111.69256953608834
 20
452.75085968747226
 10
111.69738825787582
 20
452.732343831635
 10
111.70761887150607
 20
452.6960281911443
 10
112.23177045072799
 20
450.6632128006619
 10
112.55924915940362
 20
449.4894491899066
 10
112.85433475172445
 20
448.5991507003209
 10
113.49825904427406
 20
446.763320303892
 10
113.57454586542487
 20
446.5301734379381
 10
113.61379762344191
 20
446.4167740302254
 10
114.42248448179288
 20
444.4669567535585
 10
114.83469300026006
 20
443.51192372930393
 10
115.40993114141237
 20
442.4043544829998
 10
116.25984700914253
 20
440.81244062239676
 10
116.56350561202879
 20
440.34227320632255
 10
117.89248477910628
 20
438.32151484837595
 10
117.92527878046565
 20
438.280581155899
 10
118.26208572644765
 20
437.86460893036895
 10
119.58500808489345
 20
436.2131860675758
 10
119.72889614988092
 20
436.0353060192816
 10
121.61204190891311
 20
434.15238261279103
 10
121.79028886557518
 20
433.9747917685593
 10
123.55591217051173
 20
432.5707393553213
 10
124.08419864961276
 20
432.14636751872047
 10
124.16291149562898
 20
432.0964952767984
 10
126.60288595579073
 20
430.5427902823443
 10
127.63848396457368
 20
430.0356632120999
 10
129.3654942151288
 20
429.18247576946476
 10
132.06975768150858
 20
428.19320464639173
 10
132.38209324821548
 20
428.0742815360913
 10
132.73891389222376
 20
427.97821370517556
 10
135.623331630331
 20
427.1905192221949
 10
137.54412168825476
 20
426.85476251730046
 10
139.11838180309525
 20
426.5586014713349
 10
142.30445266397555
 20
426.2350485111795
 10
142.85991971087049
 20
426.1722396351367
 10
146.6461351228728
 20
426.0340524127457
 10
146.84144599132944
 20
426.0249989791848
 10
150.71263248975112
 20
426.1084331174311
 10
151.0589405016201
 20
426.1129698336123
 10
154.59011377839542
 20
426.37209516332274
 10
155.50890093158975
 20
426.4327399994613
 10
158.3333974496854
 20
426.77028044845144
 10
160.18628993202546
 20
426.97935525688126
 10
161.97889960248523
 20
427.2666159523028
 10
165.08251458277093
 20
427.7442978285229
 10
165.55159827404006
 20
427.8361521823035
 10
166.5590769264211
 20
428.0270191162944
 10
169.0437364151399
 20
428.4900475576636
 10
170.16162889664096
 20
428.69113612092247
 10
172.4832312109777
 20
429.1932602749891
 10
175.4084589500804
 20
429.8058521794108
 10
175.89613904450187
 20
429.923474926673
 10
176.69546362711168
 20
430.11028591069737
 10
179.26223543749813
 20
430.70346700905276
 10
180.77812238478543
 20
431.04252549138926
 10
182.6082002022439
 20
431.50109520047835
 10
185.45812017991562
 20
432.1921389695873
 10
185.9457777013394
 20
432.3095677413723
 10
186.24908397632584
 20
432.3802514795677
 10
189.2523904777263
 20
433.1469594955989
 10
191.77085244494606
 20
433.7690193531688
 10
192.56414710561472
 20
433.97958979434577
 10
193.70780518532666
 20
434.27316050755155
 10
195.86351666264966
 20
434.8261654920285
 10
197.32512179676337
 20
435.1896457317662
 10
199.1619814369647
 20
435.672402741503
 10
201.83727018384855
 20
436.3542912250731
 10
202.46524738123406
 20
436.5149058667939
 10
202.88987113792297
 20
436.62069279335583
 10
205.76060698205498
 20
437.3644825104271
 10
208.44612101770736
 20
438.0434249107947
 10
209.06604057142368
 20
438.20421856320627
 10
209.97726788433806
 20
438.43542332776394
 10
212.36826093393813
 20
439.0474458139925
 10
213.99388083977885
 20
439.4574354755022
 10
215.67508807688648
 20
439.885887635281
 10
218.1760641519461
 20
440.5166453528318
 10
218.98340075462949
 20
440.72265494258954
 10
219.53258422780146
 20
440.86255454090895
 10
222.28953133473345
 20
441.5618418353201
 10
225.07544644376378
 20
442.27172147551187
 10
225.59490564017688
 20
442.40187262938247
 10
226.3675085330592
 20
442.59780932957204
 10
228.8932748127533
 20
443.2480375986423
 10
230.64632465744802
 20
443.7093168997915
 10
232.18439529701448
 20
444.102209966287
 10
234.37212068920365
 20
444.6785717585232
 10
235.46057651187704
 20
444.97008359088693
 10
236.26385010761487
 20
445.1939330478177
 10
238.72319303996835
 20
445.852574306895
 10
241.9433070527441
 20
446.75855948277626
 10
241.95684156760427
 20
446.7624343403138
 10
241.96837768860252
 20
446.76592803005735
 10
245.17203822204493
 20
447.6921061296207
 10
247.85659651147057
 20
448.52073234939996
 10
248.3454656370845
 20
448.66350958354815
 10
248.8976084200246
 20
448.8373521198895
 10
251.48472132367726
 20
449.66691004184736
 10
254.01017779232075
 20
450.542319223648
 10
254.5703239619687
 20
450.7257940597068
 10
255.09986642578986
 20
450.91484074047673
 10
257.61023802384085
 20
451.8279100759134
 10
260.54504199749454
 20
452.9912545860817
 10
260.57606947405634
 20
453.00378806190315
 10
260.6219890411443
 20
453.0239847600435
 10
263.49460316772144
 20
454.22905130768515
 10
265.3182802592436
 20
455.06608191956974
 10
266.32668759517423
 20
455.53808479600286
 10
268.24937834897565
 20
456.51987588088207
 10
269.08131528890294
 20
456.9268388393925
 10
269.478665686992
 20
457.13954944260945
 10
271.7613252596726
 20
458.38743749167986
 10
273.1468098239324
 20
459.21269335102386
 10
274.34624143794986
 20
459.94295269303336
 10
276.3784705543308
 20
461.28505548471
 10
276.83557383588084
 20
461.593960809602
 10
279.1197660999943
 20
463.26074560566053
 10
279.23154760274383
 20
463.34051377325324
 10
279.2510709191582
 20
463.3555514974089
 10
281.5430998092552
 20
465.16907125606934
 10
281.84627615071633
 20
465.4265983561918
 10
283.7558368274894
 20
467.09646936069464
 10
284.1849800981985
 20
467.4971870626589
 10
285.8706982020887
 20
469.12184506910904
 10
286.3060051734743
 20
469.5674077791297
 10
287.8885278943534
 20
471.24434369782864
 10
288.23962295294956
 20
471.6373146719282
 10
289.80998885063553
 20
473.4633913347913
 10
290.0094102669202
 20
473.70698290704433
 10
291.6287215539227
 20
475.77035257627995
 10
291.6349859184771
 20
475.77819185219914
 10
293.15719862450214
 20
477.84771919023945
 10
293.3840204028903
 20
478.16998838356665
 10
294.56795167905716
 20
479.9169675734687
 10
295.0426438912341
 20
480.6525485607144
 10
295.8757825362453
 20
481.98610047199327
 10
296.6097609335566
 20
483.22681620501066
 10
297.08682995594677
 20
484.05512945349506
 10
298.08355724435563
 20
485.8945678075429
 10
298.2053447144209
 20
486.12405682315665
 10
298.55124694948233
 20
486.82202570006007
 10
299.2725877481388
 20
488.19504500389996
 10
299.48789185437715
 20
488.63166243140654
 10
300.2794492995499
 20
490.2639394732928
 10
300.81407731215654
 20
491.44747041044724
 10
301.2097838454031
 20
492.33276333105084
 10
302.045672924389
 20
494.35800168459826
 10
302.0635617077074
 20
494.4015123306423
 10
302.10134661873417
 20
494.502055101264
 10
302.90837564407883
 20
496.47240254672766
 10
303.22745250794776
 20
497.31852159078335
 10
303.6883684154159
 20
498.5411696923243
 10
304.3170614590098
 20
500.3713738646864
 10
304.3995731317191
 20
500.60987322043576
 10
304.54500086926896
 20
501.07677664218346
 10
305.09891055445235
 20
502.68061414856203
 10
305.349963107307
 20
503.48119220825475
 10
305.7519180023713
 20
504.7493627384681
 10
306.29923948189656
 20
506.6747334764789
 10
306.3407764719732
 20
506.81806030623216
 10
306.40468723546144
 20
507.0675214211626
 10
306.93192696664823
 20
508.8886672146743
 10
307.19821177614114
 20
509.91881349954315
 10
307.47304093377113
 20
510.95741346474006
 10
307.87076377596577
 20
512.6659644998036
 10
307.9659830104922
 20
513.0277879543399
 10
308.0164436533854
 20
513.2436892263338
 10
308.46182383239903
 20
515.0965930504565
 10
308.7822970657171
 20
516.6211416355948
 10
308.9012806136527
 20
517.1653706891852
 10
309.0543686380047
 20
517.9807203346538
 10
309.32637214516893
 20
519.2356238516923
 10
309.4823422258336
 20
520.0644777107183
 10
309.7265796776771
 20
521.3044603217946
 10
310.0251356884479
 20
523.0838476198918
 10
310.08137894480507
 20
523.3744853274093
 10
310.11482020136054
 20
523.5753877597308
 10
310.4429011959992
 20
525.4433984984719
 10
310.6940689020613
 20
527.1398976480584
 10
310.7532005275866
 20
527.5123055517022
 10
310.817992265146
 20
528.0080179064523
 10
311.0610776205031
 20
529.5822044834466
 10
311.21289302382695
 20
530.7646882237331
 10
311.3365161091226
 20
531.6511924466072
 10
311.4648948824341
 20
532.7873037716091
 10
311.5892211110353
 20
533.7208669502659
 10
311.6687029793962
 20
534.4525021505856
 10
311.82926870458573
 20
535.7899306441456
 10
311.98643082086016
 20
537.4411765355701
 10
312.0331615491546
 20
537.8593709984384
 10
312.0634800972462
 20
538.2013189786429
 10
312.23703278895925
 20
539.9285219336531
 10
312.3954520756818
 20
541.9824797525531
 10
312.3968254092397
 20
541.9977405945954
 10
312.4089245233301
 20
542.1747839713196
 10
382.7222850647713
 20
471.8614234298783
 10
382.62517494616276
 20
471.68543531252965
 10
382.4351040249255
 20
471.29762516181415
 10
381.5877384305197
 20
469.61676827987117
 10
381.33038157894424
 20
469.03827482525486
 10
380.60109836583
 20
467.5465819128488
 10
380.02481468968983
 20
466.1999592268173
 10
379.6821434287539
 20
465.4765051558463
 10
378.9402077363801
 20
463.67156407685485
 10
378.82863099739905
 20
463.40845155087425
 10
378.7880576418111
 20
463.2968964256721
 10
377.98884056167344
 20
461.3385776854875
 10
377.63227411426226
 20
460.3088565777032
 10
377.2244037257698
 20
459.2688238885918
 10
376.5571489527008
 20
457.24016243020526
 10
376.54173935918635
 20
457.1992006842469
 10
376.5164776493426
 20
457.11813214553126
 10
375.8744987348816
 20
455.1319343828095
 10
375.59562337483374
 20
454.06236873588375
 10
375.28902653858484
 20
453.06255514968706
 10
374.8709883210995
 20
451.3424353097124
 10
374.78423096036033
 20
450.9959375215961
 10
374.7428067396504
 20
450.7761791479313
 10
374.3116410098795
 20
448.9268124472341
 10
374.0405173825743
 20
447.3347368292108
 10
373.93754935380093
 20
446.8578352480258
 10
373.8339051427006
 20
446.1770380460564
 10
373.6203858839408
 20
444.792103413485
 10
373.52140136407826
 20
443.7152454316782
 10
373.3863711307042
 20
442.7234149870337
 10
373.2976614271269
 20
441.5125592725764
 10
373.23968435026393
 20
440.6585357961578
 10
373.2348876791981
 20
439.8634194164547
 10
373.172855063582
 20
438.5901869188872
 10
373.1906303372523
 20
437.2786011768262
 10
373.21188229899514
 20
436.52627211823796
 10
373.28873554583333
 20
435.6714301862734
 10
373.34823332124523
 20
434.4583053111872
 10
373.46279670676273
 20
433.42536574803614
 10
373.6045319334254
 20
432.39543327304307
 10
373.8977295653135
 20
430.92428357355595
 10
373.99365933076774
 20
430.327937572939
 10
374.0838072354188
 20
429.92284090690976
 10
374.5230159451347
 20
428.26614716459073
 10
375.0228933961689
 20
426.7379060890179
 10
375.22844555376753
 20
426.20500910249984
 10
375.83425239040866
 20
424.85407761944896
 10
376.1333731147147
 20
424.1384455220117
 10
376.26642507122915
 20
423.8616056278272
 10
377.27674606787957
 20
422.0781200739516
 10
377.7900986529828
 20
421.2639258350629
 10
378.71698831561605
 20
420.0179385741311
 10
379.58865546605534
 20
418.94167347173516
 10
380.53232352738087
 20
417.9576359450796
 10
381.64387229448
 20
416.8760025013388
 10
382.8422522145421
 20
415.8970764295394
 10
383.93985405468095
 20
415.05042123726577
 10
385.8312173459002
 20
413.8363823439872
 10
386.4623515150353
 20
413.450318335563
 10
388.0274511971717
 20
412.66324880311583
 10
389.1905684291567
 20
412.05110178245957
 10
389.82332561174337
 20
411.7777749558402
 10
392.0960570225343
 20
410.83153886287573
 10
394.9603216519149
 20
409.8700769087694
 10
395.1834096371651
 20
409.7895392862023
 10
395.42668124323745
 20
409.7189911112564
 10
398.4017037526381
 20
408.88058404697205
 10
400.56708369878345
 20
408.4030988866571
 10
401.76236392923147
 20
408.1104674024855
 10
404.11210629605256
 20
407.66307827424146
 10
405.2348852687884
 20
407.4540286864743
 10
405.7247713875302
 20
407.38590303305284
 10
408.8026767815627
 20
406.8900897731281
 10
410.57582474200433
 20
406.67877016480827
 10
412.4612738465005
 20
406.41668235818867
 10
415.2673941640619
 20
406.13120608712927
 10
416.19703419135396
 20
406.02027528571887
 10
419.8363797437237
 20
405.70635674894027
 10
419.99895192644203
 20
405.6898360009201
 10
420.98929954465683
 20
405.61815617208117
 10
423.85372780363383
 20
405.4132272096408
 10
424.2924708262799
 20
405.3926825623559
 10
427.7605261229122
 20
405.18722992562516
 10
428.67703446840324
 20
405.1526009812182
 10
431.7131096118823
 20
405.00696918848394
 10
433.00547840178024
 20
404.96872476275445
 10
435.7063097056872
 20
404.86722580036576
 10
437.28654908940405
 20
404.8322679858752
 10
439.91046648220527
 20
404.7589828720205
 10
319.1535949840307
 20
284.00211137384605
 10
318.74350588702777
 20
285.3350903525951
 10
318.14957792845206
 20
287.28472513082284
 10
318.1065317629344
 20
287.3997083229797
 10
318.01191870412
 20
287.6558056442007
 10
317.3511720121777
 20
289.46907011709527
 10
317.0499932796037
 20
290.31360979801894
 10
316.5073583566464
 20
291.5328290511482
 10
315.79102446840335
 20
293.1808928719888
 10
315.56439450481895
 20
293.5957954146563
 10
314.82605768225176
 20
294.98174639032845
 10
314.46556235665776
 20
295.6650374074883
 10
314.35850770674466
 20
295.87490122612394
 10
313.1491679619169
 20
297.72691161561045
 10
312.73827996045634
 20
298.3780511116622
 10
311.5878638182646
 20
299.78801728241183
 10
310.8995072726274
 20
300.66118439294496
 10
309.6724756167958
 20
301.8485049278718
 10
308.81992257363436
 20
302.70228144548867
 10
307.20933313791835
 20
303.90854060815275
 10
306.47510005820936
 20
304.47754842180694
 10
303.8559886716269
 20
305.95098491462363
 10
303.83866016418733
 20
305.9608697697766
 10
303.8316222744772
 20
305.9637052264701
 10
300.92303843355796
 20
307.16690019092744
 10
297.7731625367058
 20
308.02202702657956
 10
297.6808364480164
 20
308.0477601830838
 10
297.62042362685895
 20
308.05729094022166
 10
294.16475346526295
 20
308.6574773532235
 10
292.775104891413
 20
308.7625898596788
 10
290.3669372048167
 20
308.98756926790537
 10
288.38346697148694
 20
309.01337652217774
 10
286.32926271104657
 20
309.07934231189427
 10
284.2474179772762
 20
309.0077262513303
 10
282.09571351652244
 20
308.9764296691443
 10
280.2642588124951
 20
308.8484156843163
 10
277.70885901659824
 20
308.7210262892773
 10
276.37647609729396
 20
308.5930708159611
 10
273.2067862712424
 20
308.3510522921594
 10
272.5502602093346
 20
308.2756228988229
 10
269.47365966392215
 20
307.9799579136079
 10
268.76743403839845
 20
307.9118264814441
 10
268.62233556960064
 20
307.90019923935597
 10
265.0347296256154
 20
307.50057798033185
 10
263.98892111131613
 20
307.3994733481736
 10
261.3187650186142
 20
307.07231641745483
 10
259.3079186223133
 20
306.85140173180434
 10
257.61678951001
 20
306.62986092806875
 10
254.58750529712574
 20
306.26402628007804
 10
253.92880449076267
 20
306.1732896596334
 10
251.72085467569843
 20
305.88563876866976
 10
250.2628627333736
 20
305.69363299100195
 10
249.82843915750146
 20
305.6382908180755
 10
246.6246527162433
 20
305.18749119469845
 10
245.02090646525005
 20
304.9636981071633
 10
243.0057859751255
 20
304.6620180002759
 10
240.15292127764326
 20
304.22867202944866
 10
239.41273469026413
 20
304.11079095961134
 10
237.5070261396122
 20
303.79637043608034
 10
235.8578000280835
 20
303.521268396355
 10
235.1971181138315
 20
303.40510148526334
 10
232.34622537116547
 20
302.88896854942317
 10
230.11633519546268
 20
302.4569798735698
 10
228.87807413170805
 20
302.2133775990817
 10
226.52533270104038
 20
301.7119086811323
 10
225.46433168098088
 20
301.4835995211915
 10
224.87267261293
 20
301.34470640927856
 10
222.1120845533976
 20
300.6925702185313
 10
219.37914985125724
 20
299.98355015316645
 10
218.82224488260994
 20
299.8392856774248
 10
218.0956036637328
 20
299.6316091383315
 10
215.60458481416583
 20
298.9143113382676
 10
213.5160047966935
 20
298.25132949274087
 10
212.45873684257543
 20
297.91744440116395
 10
211.4150795561328
 20
297.5538250692734
 10
209.3904249193149
 20
296.84360009989564
 10
207.09062505040248
 20
295.95678488643375
 10
206.39937775234182
 20
295.69221655400537
 10
205.88942164283424
 20
295.47804193698437
 10
203.4872088299565
 20
294.46255274133284
 10
201.19058168076413
 20
293.4028060653336
 10
200.65443022377838
 20
293.15359612941774
 10
199.65154705605312
 20
292.64755213434023
 10
197.8970195897017
 20
291.76871093193915
 10
197.0858859271646
 20
291.32949884376745
 10
195.1651262092327
 20
290.2811731102536
 10
14.242640687119273
 20
471.2036586323671
 10
198.811345274701
 20
655.7723632199487
  0
TEXT
  5
93
330
17
100
AcDbEntity
  8
GRABADO
100
AcDbText
 10
331.735937034423
 20
468.17071000006547
 30
0.0
 40
6.0
  1
14
 72
1
 11
331.735937034423
 21
468.17071000006547
 31
0.0
100
AcDbText
 73
2
  0
TEXT
  5
94
330
17
100
AcDbEntity
  8
HOJA
100
AcDbText
 10
10.0
 20
691.0
 30
0.0
 40
6.0
  1
terreno_prueba  hoja 7/9  1:345  lamina 3.0mm
 11
10.0
 21
691.0
 31
0.0
100
AcDbText
  0
ENDSEC
  0
SECTION
  2
OBJECTS
  0
DICTIONARY
  5
A
330
0
100
AcDbDictionary
281
1
  3
ACAD_COLOR
350
B
  3
ACAD_GROUP
350
C
  3
ACAD_LAYOUT
350
D
  3
ACAD_MATERIAL
350
E
  3
ACAD_MLEADERSTYLE
350
F
  3
ACAD_MLINESTYLE
350
10
  3
ACAD_PLOTSETTINGS
350
11
  3
ACAD_PLOTSTYLENAME
350
12
  3
ACAD_SCALELIST
350
14
  3
ACAD_TABLESTYLE
350
15
  3
ACAD_VISUALSTYLE
350
16
  3
EZDXF_META
350
2D
  0
DICTIONARY
  5
B
330
A
100
AcDbDictionary
281
1
  0
DICTIONARY
  5
C
330
A
100
AcDbDictionary
281
1
  0
DICTIONARY
  5
D
330
A
100
AcDbDictionary
281
1
  3
Model
350
1A
  3
Layout1
350
1E
  0
DICTIONARY
  5
E
330
A
100
AcDbDictionary
281
1
  3
ByBlock
350
1F
  3
ByLayer
350
20
  3
Global
350
21
  0
DICTIONARY
  5
F
330
A
100
AcDbDictionary
281
1
  3
Standard
350
2C
  0
DICTIONARY
  5
10
330
A
100
AcDbDictionary
281
1
  3
Standard
350
22
  0
DICTIONARY
  5
11
330
A
100
AcDbDictionary
281
1
  0
ACDBDICTIONARYWDFLT
  5
12
330
A
100
AcDbDictionary
281
1
  3
Normal
350
13
100
AcDbDictionaryWithDefault
340
13
  0
ACDBPLACEHOLDER
  5
13
330
12
  0
DICTIONARY
  5
14
330
A
100
AcDbDictionary
281
1
  0
DICTIONARY
  5
15
330
A
100
AcDbDictionary
281
1
  0
DICTIONARY
  5
16
330
A
100
AcDbDictionary
281
1
  3
2dWireframe
350
5A
  3
Basic
350
5B
  3
Brighten
350
5C
  3
ColorChange
350
5D
  3
Conceptual
350
5E
  3
Dim
350
5F
  3
EdgeColorOff
350
60
  3
Facepattern
350
61
  3
Flat
350
62
  3
FlatWithEdges
350
63
  3
Gouraud
350
64
  3
GouraudWithEdges
350
65
  3
Hidden
350
66
  3
JitterOff
350
67
  3
Linepattern
350
68
  3
Modeling
350
69
  3
OverhangOff
350
6A
  3
Realistic
350
6B
  3
Shaded
350
6C
  3
Shaded with edges
350
6D
  3
Shades of Gray
350
6E
  3
Sketchy
350
6F
  3
Thicken
350
70
  3
Wireframe
350
71
  3
X-Ray
350
72
  0
LAYOUT
  5
1A
330
D
100
AcDbPlotSettings
  1

  4
A3
  6

 40
7.5
 41
20.0
 42
7.5
 43
20.0
 44
420.0
 45
297.0
 46
0.0
 47
0.0
 48
0.0
 49
0.0
140
0.0
141
0.0
142
1.0
143
1.0
 70
1024
 72
1
 73
0
 74
5
  7

 75
16
 76
0
 77
2
 78
300
147
1.0
148
0.0
149
0.0
100
AcDbLayout
  1
Model
 70
1
 71
0
 10
0.0
 20
0.0
 11
420.0
 21
297.0
 12
0.0
 22
0.0
 32
0.0
 14
1e+20
 24
1e+20
 34
1e+20
 15
-1e+20
 25
-1e+20
 35
-1e+20
146
0.0
 13
0.0
 23
0.0
 33
0.0
 16
1.0
 26
0.0
 36
0.0
 17
0.0
 27
1.0
 37
0.0
 76
1
330
17
  0
LAYOUT
  5
1E
330
D
100
AcDbPlotSettings
  1

  4
A3
  6

 40
7.5
 41
20.0
 42
7.5
 43
20.0
 44
420.0
 45
297.0
 46
0.0
 47
0.0
 48
0.0
 49
0.0
140
0.0
141
0.0
142
1.0
143
1.0
 70
0
 72
1
 73
0
 74
5
  7

 75
16
 76
0
 77
2
 78
300
147
1.0
148
0.0
149
0.0
100
AcDbLayout
  1
Layout1
 70
1
 71
1
 10
0.0
 20
0.0
 11
420.0
 21
297.0
 12
0.0
 22
0.0
 32
0.0
 14
1e+20
 24
1e+20
 34
1e+20
 15
-1e+20
 25
-1e+20
 35
-1e+20
146
0.0
 13
0.0
 23
0.0
 33
0.0
 16
1.0
 26
0.0
 36
0.0
 17
0.0
 27
1.0
 37
0.0
 76
1
330
1B
  0
MATERIAL
  5
1F
102
{ACAD_REACTORS
330
E
102
}
330
E
100
AcDbMaterial
  1
ByBlock
  2

 70
0
 40
1.0
 71
1
 41
1.0
 91
-1023410177
 42
1.0
 72
1
  3

 73
1
 74
1
 75
1
 44
0.5
 73
0
 45
1.0
 46
1.0
 77
1
  4

 78
1
 79
1
170
1
 48
1.0
171
1
  6

172
1
173
1
174
1
140
1.0
141
1.0
175
1
  7

176
1
177
1
178
1
143
1.0
179
1
  8

270
1
271
1
272
1
145
1.0
146
1.0
273
1
  9

274
1
275
1
276
1
 42
1.0
 72
1
  3

 73
1
 74
1
 75
1
 94
63
  0
MATERIAL
  5
20
102
{ACAD_REACTORS
330
E
102
}
330
E
100
AcDbMaterial
  1
ByLayer
  2

 70
0
 40
1.0
 71
1
 41
1.0
 91
-1023410177
 42
1.0
 72
1
  3

 73
1
 74
1
 75
1
 44
0.5
 73
0
 45
1.0
 46
1.0
 77
1
  4

 78
1
 79
1
170
1
 48
1.0
171
1
  6

172
1
173
1
174
1
140
1.0
141
1.0
175
1
  7

176
1
177
1
178
1
143
1.0
179
1
  8

270
1
271
1
272
1
145
1.0
146
1.0
273
1
  9

274
1
275
1
276
1
 42
1.0
 72
1
  3

 73
1
 74
1
 75
1
 94
63
  0
MATERIAL
  5
21
102
{ACAD_REACTORS
330
E
102
}
330
E
100
AcDbMaterial
  1
Global
  2

 70
0
 40
1.0
 71
1
 41
1.0
 91
-1023410177
 42
1.0
 72
1
  3

 73
1
 74
1
 75
1
 44
0.5
 73
0
 45
1.0
 46
1.0
 77
1
  4

 78
1
 79
1
170
1
 48
1.0
171
1
  6

172
1
173
1
174
1
140
1.0
141
1.0
175
1
  7

176
1
177
1
178
1
143
1.0
179
1
  8

270
1
271
1
272
1
145
1.0
146
1.0
273
1
  9

274
1
275
1
276
1
 42
1.0
 72
1
  3

 73
1
 74
1
 75
1
 94
63
  0
MLINESTYLE
  5
22
102
{ACAD_REACTORS
330
10
102
}
330
10
100
AcDbMlineStyle
  2
Standard
 70
0
  3

 62
256
 51
90.0
 52
90.0
 71
2
 49
0.5
 62
256
  6
BYLAYER
 49
-0.5
 62
256
  6
BYLAYER
  0
MLEADERSTYLE
  5
2C
102
{ACAD_REACTORS
330
F
102
}
330
F
100
AcDbMLeaderStyle
179
2
170
2
171
1
172
0
 90
2
 40
0.0
 41
0.0
173
1
 91
-1056964608
 92
-2
290
1
 42
2.0
291
1
 43
8.0
  3
Standard
 44
4.0
300

342
29
174
1
175
1
176
0
178
1
 93
-1056964608
 45
4.0
292
0
297
0
 46
4.0
 94
-1056964608
 47
1.0
 49
1.0
140
1.0
294
1
141
0.0
177
0
142
1.0
295
0
296
0
143
3.75
271
0
272
9
273
9
  0
DICTIONARY
  5
2D
330
A
100
AcDbDictionary
280
1
281
1
  3
CREATED_BY_EZDXF
350
2E
  3
WRITTEN_BY_EZDXF
350
97
  0
DICTIONARYVAR
  5
2E
330
2D
100
DictionaryVariables
280
0
  1
1.4.2 @ 2026-09-06T09:28:59.728928+00:00
  0
VISUALSTYLE
  5
5A
102
{ACAD_REACTORS
330
16
102
}
330
16
100
AcDbVisualStyle
  2
2dWireframe
 70
4
 90
0
 40
0.6
 62
7
290
0
291
0
  0
VISUALSTYLE
  5
5B
102
{ACAD_REACTORS
330
16
102
}
330
16
100
AcDbVisualStyle
  2
Basic
 70
7
 90
1
 40
0.6
 62
7
290
0
291
1
  0
VISUALSTYLE
  5
5C
102
{ACAD_REACTORS
330
16
102
}
330
16
100
AcDbVisualStyle
  2
Brighten
 70
12
 90
2
 40
0.6
 62
7
290
0
291
1
  0
VISUALSTYLE
  5
5D
102
{ACAD_REACTORS
330
16
102
}
330
16
100
AcDbVisualStyle
  2
ColorChange
 70
16
 90
2
 40
0.6
 62
8
290
0
291
1
  0
VISUALSTYLE
  5
5E
102
{ACAD_REACTORS
330
16
102
}
330
16
100
AcDbVisualStyle
  2
Conceptual
 70
9
 90
3
 40
0.6
 62
7
290
0
291
0
  0
VISUALSTYLE
  5
5F
102
{ACAD_REACTORS
330
16
102
}
330
16
100
AcDbVisualStyle
  2
Dim
 70
11
 90
2
 40
0.6
 62
7
290
0
291
1
  0
VISUALSTYLE
  5
60
102
{ACAD_REACTORS
330
16
102
}
330
16
100
AcDbVisualStyle
  2
EdgeColorOff
 70
22
 90
2
 40
0.6
 62
7
290
0
291
1
  0
VISUALSTYLE
  5
61
102
{ACAD_REACTORS
330
16
102
}
330
16
100
AcDbVisualStyle
  2
Facepattern
 70
15
 90
2
 40
0.6
 62
7
290
0
291
1
  0
VISUALSTYLE
  5
62
102
{ACAD_REACTORS
330
16
102
}
330
16
100
AcDbVisualStyle
  2
Flat
 70
0
 90
2
 40
0.6
 62
7
290
0
291
1
  0
VISUALSTYLE
  5
63
102
{ACAD_REACTORS
330
16
102
}
330
16
100
AcDbVisualStyle
  2
FlatWithEdges
 70
1
 90
2
 40
0.6
 62
7
290
0
291
1
  0
VISUALSTYLE
  5
64
102
{ACAD_REACTORS
330
16
102
}
330
16
100
AcDbVisualStyle
  2
Gouraud
 70
2
 90
2
 40
0.6
 62
7
290
0
291
1
  0
VISUALSTYLE
  5
65
102
{ACAD_REACTORS
330
16
102
}
330
16
100
AcDbVisualStyle
  2
GouraudWithEdges
 70
3
 90
2
 40
0.6
 62
7
290
0
291
1
  0
VISUALSTYLE
  5
66
102
{ACAD_REACTORS
330
16
102
}
330
16
100
AcDbVisualStyle
  2
Hidden
 70
6
 90
1
 40
0.6
 62
7
290
0
291
0
  0
VISUALSTYLE
  5
67
102
{ACAD_REACTORS
330
16
102
}
330
16
100
AcDbVisualStyle
  2
JitterOff
 70
20
 90
2
 40
0.6
 62
7
290
0
291
1
  0
VISUALSTYLE
  5
68
102
{ACAD_REACTORS
330
16
102
}
330
16
100
AcDbVisualStyle
  2
Linepattern
 70
14
 90
2
 40
0.6
 62
7
290
0
291
1
  0
VISUALSTYLE
  5
69
102
{ACAD_REACTORS
330
16
102
}
330
16
100
AcDbVisualStyle
  2
Modeling
 70
10
 90
2
 40
0.6
 62
7
290
0
291
0
  0
VISUALSTYLE
  5
6A
102
{ACAD_REACTORS
330
16
102
}
330
16
100
AcDbVisualStyle
  2
OverhangOff
 70
21
 90
2
 40
0.6
 62
7
290
0
291
1
  0
VISUALSTYLE
  5
6B
102
{ACAD_REACTORS
330
16
102
}
330
16
100
AcDbVisualStyle
  2
Realistic
 70
8
 90
2
 40
0.6
 62
7
290
0
291
0
  0
VISUALSTYLE
  5
6C
102
{ACAD_REACTORS
330
16
102
}
330
16
100
AcDbVisualStyle
  2
Shaded
 70
27
 90
2
 40
0.6
 62
7
290
0
291
0
  0
VISUALSTYLE
  5
6D
102
{ACAD_REACTORS
330
16
102
}
330
16
100
AcDbVisualStyle
  2
Shaded with edges
 70
26
 90
2
 40
0.6
 62
7
290
0
291
0
  0
VISUALSTYLE
  5
6E
102
{ACAD_REACTORS
330
16
102
}
330
16
100
AcDbVisualStyle
  2
Shades of Gray
 70
23
 90
2
 40
0.6
 62
7
290
0
291
0
  0
VISUALSTYLE
  5
6F
102
{ACAD_REACTORS
330
16
102
}
330
16
100
AcDbVisualStyle
  2
Sketchy
 70
24
 90
1
 40
0.6
 62
7
290
0
291
0
  0
VISUALSTYLE
  5
70
102
{ACAD_REACTORS
330
16
102
}
330
16
100
AcDbVisualStyle
  2
Thicken
 70
13
 90
2
 40
0.6
 62
7
290
0
291
1
  0
VISUALSTYLE
  5
71
102
{ACAD_REACTORS
330
16
102
}
330
16
100
AcDbVisualStyle
  2
Wireframe
 70
5
 90
0
 40
0.6
 62
7
290
0
291
0
  0
VISUALSTYLE
  5
72
102
{ACAD_REACTORS
330
16
102
}
330
16
100
AcDbVisualStyle
  2
X-Ray
 70
25
 90
2
 40
0.5
 62
7
290
0
291
0
  0
DICTIONARYVAR
  5
97
330
2D
100
DictionaryVariables
280
0
  1
1.4.2 @ 2026-09-06T09:28:59.740794+00:00
  0
ENDSEC
  0
EOF
