  0
SECTION
  2
HEADER
  9
$ACADVER
  1
AC1024
  9
$ACADMAINTVER
 70
6
  9
$DWGCODEPAGE
  3
ANSI_1252
  9
$LASTSAVEDBY
  1
ezdxf
  9
$INSBASE
 10
0.0
 20
0.0
 30
0.0
  9
$EXTMIN
 10
1e+20
 20
1e+20
 30
1e+20
  9
$EXTMAX
 10
-1e+20
 20
-1e+20
 30
-1e+20
  9
$LIMMIN
 10
0.0
 20
0.0
  9
$LIMMAX
 10
420.0
 20
297.0
  9
$ORTHOMODE
 70
0
  9
$REGENMODE
 70
1
  9
$FILLMODE
 70
1
  9
$QTEXTMODE
 70
0
  9
$MIRRTEXT
 70
1
  9
$LTSCALE
 40
1.0
  9
$ATTMODE
 70
1
  9
$TEXTSIZE
 40
2.5
  9
$TRACEWID
 40
1.0
  9
$TEXTSTYLE
  7
OpenSans
  9
$CLAYER
  8
0
  9
$CELTYPE
  6
ByLayer
  9
$CECOLOR
 62
256
  9
$CELTSCALE
 40
1.0
  9
$DISPSILH
 70
0
  9
$DIMSCALE
 40
1.0
  9
$DIMASZ
 40
0.175
  9
$DIMEXO
 40
0.125
  9
$DIMDLI
 40
3.75
  9
$DIMRND
 40
0.0
  9
$DIMDLE
 40
0.0
  9
$DIMEXE
 40
0.375
  9
$DIMTP
 40
0.0
  9
$DIMTM
 40
0.0
  9
$DIMTXT
 40
0.25
  9
$DIMCEN
 40
2.5
  9
$DIMTSZ
 40
0.0
  9
$DIMTOL
 70
0
  9
$DIMLIM
 70
0
  9
$DIMTIH
 70
0
  9
$DIMTOH
 70
0
  9
$DIMSE1
 70
0
  9
$DIMSE2
 70
0
  9
$DIMTAD
 70
1
  9
$DIMZIN
 70
12
  9
$DIMBLK
  1
ARCHTICK
  9
$DIMASO
 70
1
  9
$DIMSHO
 70
1
  9
$DIMPOST
  1

  9
$DIMAPOST
  1

  9
$DIMALT
 70
0
  9
$DIMALTD
 70
3
  9
$DIMALTF
 40
0.03937007874
  9
$DIMLFAC
 40
100.0
  9
$DIMTOFL
 70
1
  9
$DIMTVP
 40
0.0
  9
$DIMTIX
 70
0
  9
$DIMSOXD
 70
0
  9
$DIMSAH
 70
0
  9
$DIMBLK1
  1

  9
$DIMBLK2
  1

  9
$DIMSTYLE
  2
EZDXF
  9
$DIMCLRD
 70
0
  9
$DIMCLRE
 70
0
  9
$DIMCLRT
 70
0
  9
$DIMTFAC
 40
0.5
  9
$DIMGAP
 40
0.1
  9
$DIMJUST
 70
0
  9
$DIMSD1
 70
0
  9
$DIMSD2
 70
0
  9
$DIMTOLJ
 70
0
  9
$DIMTZIN
 70
8
  9
$DIMALTZ
 70
0
  9
$DIMALTTZ
 70
0
  9
$DIMUPT
 70
1
  9
$DIMDEC
 70
2
  9
$DIMTDEC
 70
2
  9
$DIMALTU
 70
2
  9
$DIMALTTD
 70
3
  9
$DIMTXSTY
  7
OpenSansCondensed-Light
  9
$DIMAUNIT
 70
0
  9
$DIMADEC
 70
2
  9
$DIMALTRND
 40
0.0
  9
$DIMAZIN
 70
3
  9
$DIMDSEP
 70
46
  9
$DIMATFIT
 70
3
  9
$DIMFRAC
 70
0
  9
$DIMLDRBLK
  1

  9
$DIMLUNIT
 70
2
  9
$DIMLWD
 70
-2
  9
$DIMLWE
 70
-2
  9
$DIMTMOVE
 70
2
  9
$DIMFXL
 40
1.0
  9
$DIMFXLON
 70
0
  9
$DIMJOGANG
 40
0.785398163397
  9
$DIMTFILL
 70
0
  9
$DIMTFILLCLR
 70
0
  9
$DIMARCSYM
 70
0
  9
$DIMLTYPE
  6

  9
$DIMLTEX1
  6

  9
$DIMLTEX2
  6

  9
$DIMTXTDIRECTION
 70
0
  9
$LUNITS
 70
2
  9
$LUPREC
 70
4
  9
$SKETCHINC
 40
1.0
  9
$FILLETRAD
 40
10.0
  9
$AUNITS
 70
0
  9
$AUPREC
 70
2
  9
$MENU
  1
.
  9
$ELEVATION
 40
0.0
  9
$PELEVATION
 40
0.0
  9
$THICKNESS
 40
0.0
  9
$LIMCHECK
 70
0
  9
$CHAMFERA
 40
0.0
  9
$CHAMFERB
 40
0.0
  9
$CHAMFERC
 40
0.0
  9
$CHAMFERD
 40
0.0
  9
$SKPOLY
 70
0
  9
$TDCREATE
 40
2461290.93119213
  9
$TDUCREATE
 40
2458532.153996898
  9
$TDUPDATE
 40
2461290.93119213
  9
$TDUUPDATE
 40
2458532.1544311
  9
$TDINDWG
 40
0.0
  9
$TDUSRTIMER
 40
0.0
  9
$USRTIMER
 70
1
  9
$ANGBASE
 50
0.0
  9
$ANGDIR
 70
0
  9
$PDMODE
 70
0
  9
$PDSIZE
 40
0.0
  9
$PLINEWID
 40
0.0
  9
$SPLFRAME
 70
0
  9
$SPLINETYPE
 70
6
  9
$SPLINESEGS
 70
8
  9
$HANDSEED
  5
9F
  9
$SURFTAB1
 70
6
  9
$SURFTAB2
 70
6
  9
$SURFTYPE
 70
6
  9
$SURFU
 70
6
  9
$SURFV
 70
6
  9
$UCSBASE
  2

  9
$UCSNAME
  2

  9
$UCSORG
 10
0.0
 20
0.0
 30
0.0
  9
$UCSXDIR
 10
1.0
 20
0.0
 30
0.0
  9
$UCSYDIR
 10
0.0
 20
1.0
 30
0.0
  9
$UCSORTHOREF
  2

  9
$UCSORTHOVIEW
 70
0
  9
$UCSORGTOP
 10
0.0
 20
0.0
 30
0.0
  9
$UCSORGBOTTOM
 10
0.0
 20
0.0
 30
0.0
  9
$UCSORGLEFT
 10
0.0
 20
0.0
 30
0.0
  9
$UCSORGRIGHT
 10
0.0
 20
0.0
 30
0.0
  9
$UCSORGFRONT
 10
0.0
 20
0.0
 30
0.0
  9
$UCSORGBACK
 10
0.0
 20
0.0
 30
0.0
  9
$PUCSBASE
  2

  9
$PUCSNAME
  2

  9
$PUCSORG
 10
0.0
 20
0.0
 30
0.0
  9
$PUCSXDIR
 10
1.0
 20
0.0
 30
0.0
  9
$PUCSYDIR
 10
0.0
 20
1.0
 30
0.0
  9
$PUCSORTHOREF
  2

  9
$PUCSORTHOVIEW
 70
0
  9
$PUCSORGTOP
 10
0.0
 20
0.0
 30
0.0
  9
$PUCSORGBOTTOM
 10
0.0
 20
0.0
 30
0.0
  9
$PUCSORGLEFT
 10
0.0
 20
0.0
 30
0.0
  9
$PUCSORGRIGHT
 10
0.0
 20
0.0
 30
0.0
  9
$PUCSORGFRONT
 10
0.0
 20
0.0
 30
0.0
  9
$PUCSORGBACK
 10
0.0
 20
0.0
 30
0.0
  9
$USERI1
 70
0
  9
$USERI2
 70
0
  9
$USERI3
 70
0
  9
$USERI4
 70
0
  9
$USERI5
 70
0
  9
$USERR1
 40
0.0
  9
$USERR2
 40
0.0
  9
$USERR3
 40
0.0
  9
$USERR4
 40
0.0
  9
$USERR5
 40
0.0
  9
$WORLDVIEW
 70
1
  9
$SHADEDGE
 70
3
  9
$SHADEDIF
 70
70
  9
$TILEMODE
 70
1
  9
$MAXACTVP
 70
64
  9
$PINSBASE
 10
0.0
 20
0.0
 30
0.0
  9
$PLIMCHECK
 70
0
  9
$PEXTMIN
 10
1e+20
 20
1e+20
 30
1e+20
  9
$PEXTMAX
 10
-1e+20
 20
-1e+20
 30
-1e+20
  9
$PLIMMIN
 10
0.0
 20
0.0
  9
$PLIMMAX
 10
420.0
 20
297.0
  9
$UNITMODE
 70
0
  9
$VISRETAIN
 70
1
  9
$PLINEGEN
 70
0
  9
$PSLTSCALE
 70
1
  9
$TREEDEPTH
 70
3020
  9
$CMLSTYLE
  2
Standard
  9
$CMLJUST
 70
0
  9
$CMLSCALE
 40
20.0
  9
$PROXYGRAPHICS
 70
1
  9
$MEASUREMENT
 70
1
  9
$CELWEIGHT
370
-1
  9
$ENDCAPS
280
0
  9
$JOINSTYLE
280
0
  9
$LWDISPLAY
290
0
  9
$INSUNITS
 70
4
  9
$HYPERLINKBASE
  1

  9
$STYLESHEET
  1

  9
$XEDIT
290
1
  9
$CEPSNTYPE
380
0
  9
$PSTYLEMODE
290
1
  9
$FINGERPRINTGUID
  2
{8A245927-C382-4542-A474-64537170B6C9}
  9
$VERSIONGUID
  2
{8A101CAA-8B72-4D49-99EF-6813B4796750}
  9
$EXTNAMES
290
1
  9
$PSVPSCALE
 40
0.0
  9
$OLESTARTUP
290
0
  9
$SORTENTS
280
127
  9
$INDEXCTL
280
0
  9
$HIDETEXT
280
1
  9
$XCLIPFRAME
280
1
  9
$HALOGAP
280
0
  9
$OBSCOLOR
 70
257
  9
$OBSLTYPE
280
0
  9
$INTERSECTIONDISPLAY
280
0
  9
$INTERSECTIONCOLOR
 70
257
  9
$DIMASSOC
280
2
  9
$PROJECTNAME
  1

  9
$CAMERADISPLAY
290
0
  9
$LENSLENGTH
 40
50.0
  9
$CAMERAHEIGHT
 40
0.0
  9
$STEPSPERSEC
 40
24.0
  9
$STEPSIZE
 40
100.0
  9
$3DDWFPREC
 40
2.0
  9
$PSOLWIDTH
 40
0.005
  9
$PSOLHEIGHT
 40
0.08
  9
$LOFTANG1
 40
1.570796326795
  9
$LOFTANG2
 40
1.570796326795
  9
$LOFTMAG1
 40
0.0
  9
$LOFTMAG2
 40
0.0
  9
$LOFTPARAM
 70
7
  9
$LOFTNORMALS
280
1
  9
$LATITUDE
 40
37.795
  9
$LONGITUDE
 40
-122.394
  9
$NORTHDIRECTION
 40
0.0
  9
$TIMEZONE
 70
-8000
  9
$LIGHTGLYPHDISPLAY
280
1
  9
$TILEMODELIGHTSYNCH
280
1
  9
$CMATERIAL
347
20
  9
$SOLIDHIST
280
0
  9
$SHOWHIST
280
1
  9
$DWFFRAME
280
2
  9
$DGNFRAME
280
2
  9
$REALWORLDSCALE
290
1
  9
$INTERFERECOLOR
 62
256
  9
$CSHADOW
280
0
  9
$SHADOWPLANELOCATION
 40
0.0
  0
ENDSEC
  0
SECTION
  2
CLASSES
  0
CLASS
  1
ACDBDICTIONARYWDFLT
  2
AcDbDictionaryWithDefault
  3
ObjectDBX Classes
 90
0
 91
0
280
0
281
0
  0
CLASS
  1
SUN
  2
AcDbSun
  3
SCENEOE
 90
1153
 91
0
280
0
281
0
  0
CLASS
  1
VISUALSTYLE
  2
AcDbVisualStyle
  3
ObjectDBX Classes
 90
4095
 91
0
280
0
281
0
  0
CLASS
  1
MATERIAL
  2
AcDbMaterial
  3
ObjectDBX Classes
 90
1153
 91
0
280
0
281
0
  0
CLASS
  1
SCALE
  2
AcDbScale
  3
ObjectDBX Classes
 90
1153
 91
0
280
0
281
0
  0
CLASS
  1
TABLESTYLE
  2
AcDbTableStyle
  3
ObjectDBX Classes
 90
4095
 91
0
280
0
281
0
  0
CLASS
  1
MLEADERSTYLE
  2
AcDbMLeaderStyle
  3
ACDB_MLEADERSTYLE_CLASS
 90
4095
 91
0
280
0
281
0
  0
CLASS
  1
DICTIONARYVAR
  2
AcDbDictionaryVar
  3
ObjectDBX Classes
 90
0
 91
0
280
0
281
0
  0
CLASS
  1
CELLSTYLEMAP
  2
AcDbCellStyleMap
  3
ObjectDBX Classes
 90
1152
 91
0
280
0
281
0
  0
CLASS
  1
MENTALRAYRENDERSETTINGS
  2
AcDbMentalRayRenderSettings
  3
SCENEOE
 90
1024
 91
0
280
0
281
0
  0
CLASS
  1
ACDBDETAILVIEWSTYLE
  2
AcDbDetailViewStyle
  3
ObjectDBX Classes
 90
1025
 91
0
280
0
281
0
  0
CLASS
  1
ACDBSECTIONVIEWSTYLE
  2
AcDbSectionViewStyle
  3
ObjectDBX Classes
 90
1025
 91
0
280
0
281
0
  0
CLASS
  1
RASTERVARIABLES
  2
AcDbRasterVariables
  3
ISM
 90
0
 91
0
280
0
281
0
  0
CLASS
  1
LAYOUT
  2
AcDbLayout
  3
ObjectDBX Classes
 90
0
 91
0
280
0
281
0
  0
CLASS
  1
ACDBPLACEHOLDER
  2
AcDbPlaceHolder
  3
ObjectDBX Classes
 90
0
 91
0
280
0
281
0
  0
ENDSEC
  0
SECTION
  2
TABLES
  0
TABLE
  2
VPORT
  5
8
330
0
100
AcDbSymbolTable
 70
1
  0
VPORT
  5
23
330
8
100
AcDbSymbolTableRecord
100
AcDbViewportTableRecord
  2
*Active
 70
0
 10
0.0
 20
0.0
 11
1.0
 21
1.0
 12
0.0
 22
0.0
 13
0.0
 23
0.0
 14
0.5
 24
0.5
 15
0.5
 25
0.5
 16
0.0
 26
0.0
 36
1.0
 17
0.0
 27
0.0
 37
0.0
 40
1000.0
 41
1.34
 42
50.0
 43
0.0
 44
0.0
 50
0.0
 51
0.0
 71
0
 72
1000
 73
1
 74
3
 75
0
 76
0
 77
0
 78
0
281
0
 65
0
146
0.0
  0
ENDTAB
  0
TABLE
  2
LTYPE
  5
2
330
0
100
AcDbSymbolTable
 70
21
  0
LTYPE
  5
24
330
2
100
AcDbSymbolTableRecord
100
AcDbLinetypeTableRecord
  2
ByBlock
 70
0
  3

 72
65
 73
0
 40
0.0
  0
LTYPE
  5
25
330
2
100
AcDbSymbolTableRecord
100
AcDbLinetypeTableRecord
  2
ByLayer
 70
0
  3

 72
65
 73
0
 40
0.0
  0
LTYPE
  5
26
330
2
100
AcDbSymbolTableRecord
100
AcDbLinetypeTableRecord
  2
Continuous
 70
0
  3

 72
65
 73
0
 40
0.0
  0
LTYPE
  5
2F
330
2
100
AcDbSymbolTableRecord
100
AcDbLinetypeTableRecord
  2
CENTER
 70
0
  3
Center ____ _ ____ _ ____ _ ____ _ ____ _ ____
 72
65
 73
4
 40
5.08
 49
3.175
 74
0
 49
-0.635
 74
0
 49
0.635
 74
0
 49
-0.635
 74
0
  0
LTYPE
  5
30
330
2
100
AcDbSymbolTableRecord
100
AcDbLinetypeTableRecord
  2
CENTERX2
 70
0
  3
Center (2x) ________  __  ________  __  ________
 72
65
 73
4
 40
8.89
 49
6.35
 74
0
 49
-0.635
 74
0
 49
1.27
 74
0
 49
-0.635
 74
0
  0
LTYPE
  5
31
330
2
100
AcDbSymbolTableRecord
100
AcDbLinetypeTableRecord
  2
CENTER2
 70
0
  3
Center (.5x) ____ _ ____ _ ____ _ ____ _ ____
 72
65
 73
4
 40
2.54
 49
1.587
 74
0
 49
-0.318
 74
0
 49
0.318
 74
0
 49
-0.318
 74
0
  0
LTYPE
  5
32
330
2
100
AcDbSymbolTableRecord
100
AcDbLinetypeTableRecord
  2
DASHED
 70
0
  3
Dashed __ __ __ __ __ __ __ __ __ __ __ __ __ _
 72
65
 73
2
 40
1.524
 49
1.27
 74
0
 49
-0.254
 74
0
  0
LTYPE
  5
33
330
2
100
AcDbSymbolTableRecord
100
AcDbLinetypeTableRecord
  2
DASHEDX2
 70
0
  3
Dashed (2x) ____  ____  ____  ____  ____  ____
 72
65
 73
2
 40
3.048
 49
2.54
 74
0
 49
-0.508
 74
0
  0
LTYPE
  5
34
330
2
100
AcDbSymbolTableRecord
100
AcDbLinetypeTableRecord
  2
DASHED2
 70
0
  3
Dashed (.5x) _ _ _ _ _ _ _ _ _ _ _ _ _ _
 72
65
 73
2
 40
0.762
 49
0.635
 74
0
 49
-0.127
 74
0
  0
LTYPE
  5
35
330
2
100
AcDbSymbolTableRecord
100
AcDbLinetypeTableRecord
  2
PHANTOM
 70
0
  3
Phantom ______  __  __  ______  __  __  ______
 72
65
 73
6
 40
6.35
 49
3.175
 74
0
 49
-0.635
 74
0
 49
0.635
 74
0
 49
-0.635
 74
0
 49
0.635
 74
0
 49
-0.635
 74
0
  0
LTYPE
  5
36
330
2
100
AcDbSymbolTableRecord
100
AcDbLinetypeTableRecord
  2
PHANTOMX2
 70
0
  3
Phantom (2x)____________    ____    ____    ____________
 72
65
 73
6
 40
10.795
 49
6.35
 74
0
 49
-0.635
 74
0
 49
1.27
 74
0
 49
-0.635
 74
0
 49
1.27
 74
0
 49
-0.635
 74
0
  0
LTYPE
  5
37
330
2
100
AcDbSymbolTableRecord
100
AcDbLinetypeTableRecord
  2
PHANTOM2
 70
0
  3
Phantom (.5x) ___ _ _ ___ _ _ ___ _ _ ___ _ _ ___
 72
65
 73
6
 40
3.175
 49
1.587
 74
0
 49
-0.318
 74
0
 49
0.318
 74
0
 49
-0.318
 74
0
 49
0.318
 74
0
 49
-0.318
 74
0
  0
LTYPE
  5
38
330
2
100
AcDbSymbolTableRecord
100
AcDbLinetypeTableRecord
  2
DASHDOT
 70
0
  3
Dash dot __ . __ . __ . __ . __ . __ . __ . __
 72
65
 73
4
 40
3.556
 49
2.54
 74
0
 49
-0.508
 74
0
 49
0.0
 74
0
 49
-0.508
 74
0
  0
LTYPE
  5
39
330
2
100
AcDbSymbolTableRecord
100
AcDbLinetypeTableRecord
  2
DASHDOTX2
 70
0
  3
Dash dot (2x) ____  .  ____  .  ____  .  ____
 72
65
 73
4
 40
6.096
 49
5.08
 74
0
 49
-0.508
 74
0
 49
0.0
 74
0
 49
-0.508
 74
0
  0
LTYPE
  5
3A
330
2
100
AcDbSymbolTableRecord
100
AcDbLinetypeTableRecord
  2
DASHDOT2
 70
0
  3
Dash dot (.5x) _ . _ . _ . _ . _ . _ . _ . _
 72
65
 73
4
 40
1.778
 49
1.27
 74
0
 49
-0.254
 74
0
 49
0.0
 74
0
 49
-0.254
 74
0
  0
LTYPE
  5
3B
330
2
100
AcDbSymbolTableRecord
100
AcDbLinetypeTableRecord
  2
DOT
 70
0
  3
Dot .  .  .  .  .  .  .  .  .  .  .  .  .  .  .  .
 72
65
 73
2
 40
0.508
 49
0.0
 74
0
 49
-0.508
 74
0
  0
LTYPE
  5
3C
330
2
100
AcDbSymbolTableRecord
100
AcDbLinetypeTableRecord
  2
DOTX2
 70
0
  3
Dot (2x) .    .    .    .    .    .    .    . 
 72
65
 73
2
 40
1.016
 49
0.0
 74
0
 49
-1.016
 74
0
  0
LTYPE
  5
3D
330
2
100
AcDbSymbolTableRecord
100
AcDbLinetypeTableRecord
  2
DOT2
 70
0
  3
Dot (.5) . . . . . . . . . . . . . . . . . . . 
 72
65
 73
2
 40
0.254
 49
0.0
 74
0
 49
-0.254
 74
0
  0
LTYPE
  5
3E
330
2
100
AcDbSymbolTableRecord
100
AcDbLinetypeTableRecord
  2
DIVIDE
 70
0
  3
Divide __ . . __ . . __ . . __ . . __ . . __
 72
65
 73
6
 40
4.064
 49
2.54
 74
0
 49
-0.508
 74
0
 49
0.0
 74
0
 49
-0.508
 74
0
 49
0.0
 74
0
 49
-0.508
 74
0
  0
LTYPE
  5
3F
330
2
100
AcDbSymbolTableRecord
100
AcDbLinetypeTableRecord
  2
DIVIDEX2
 70
0
  3
Divide (2x) ____  . .  ____  . .  ____  . .  ____
 72
65
 73
6
 40
6.604
 49
5.08
 74
0
 49
-0.508
 74
0
 49
0.0
 74
0
 49
-0.508
 74
0
 49
0.0
 74
0
 49
-0.508
 74
0
  0
LTYPE
  5
40
330
2
100
AcDbSymbolTableRecord
100
AcDbLinetypeTableRecord
  2
DIVIDE2
 70
0
  3
Divide(.5x) _ . _ . _ . _ . _ . _ . _ . _
 72
65
 73
6
 40
2.032
 49
1.27
 74
0
 49
-0.254
 74
0
 49
0.0
 74
0
 49
-0.254
 74
0
 49
0.0
 74
0
 49
-0.254
 74
0
  0
ENDTAB
  0
TABLE
  2
LAYER
  5
1
330
0
100
AcDbSymbolTable
 70
5
  0
LAYER
  5
27
330
1
100
AcDbSymbolTableRecord
100
AcDbLayerTableRecord
  2
0
 70
0
 62
7
  6
Continuous
370
-3
390
13
347
21
  0
LAYER
  5
28
330
1
100
AcDbSymbolTableRecord
100
AcDbLayerTableRecord
  2
Defpoints
 70
0
 62
7
  6
Continuous
290
0
370
-3
390
13
347
21
  0
LAYER
  5
8A
330
1
100
AcDbSymbolTableRecord
100
AcDbLayerTableRecord
  2
CORTE
 70
0
 62
1
  6
Continuous
370
-3
390
13
347
21
  0
LAYER
  5
8B
330
1
100
AcDbSymbolTableRecord
100
AcDbLayerTableRecord
  2
GRABADO
 70
0
 62
5
  6
Continuous
370
-3
390
13
347
21
  0
LAYER
  5
8C
330
1
100
AcDbSymbolTableRecord
100
AcDbLayerTableRecord
  2
HOJA
 70
0
 62
8
  6
Continuous
370
-3
390
13
347
21
  0
ENDTAB
  0
TABLE
  2
STYLE
  5
5
330
0
100
AcDbSymbolTable
 70
26
  0
STYLE
  5
29
330
5
100
AcDbSymbolTableRecord
100
AcDbTextStyleTableRecord
  2
Standard
 70
0
 40
0.0
 41
1.0
 50
0.0
 71
0
 42
2.5
  3
txt
  4

  0
STYLE
  5
41
330
5
100
AcDbSymbolTableRecord
100
AcDbTextStyleTableRecord
  2
OpenSans-Light
 70
0
 40
0.0
 41
1.0
 50
0.0
 71
0
 42
2.5
  3
OpenSans-Light.ttf
  4

  0
STYLE
  5
42
330
5
100
AcDbSymbolTableRecord
100
AcDbTextStyleTableRecord
  2
OpenSans-Light-Italic
 70
0
 40
0.0
 41
1.0
 50
0.0
 71
0
 42
2.5
  3
OpenSans-LightItalic.ttf
  4

  0
STYLE
  5
43
330
5
100
AcDbSymbolTableRecord
100
AcDbTextStyleTableRecord
  2
OpenSans
 70
0
 40
0.0
 41
1.0
 50
0.0
 71
0
 42
2.5
  3
OpenSans-Regular.ttf
  4

  0
STYLE
  5
44
330
5
100
AcDbSymbolTableRecord
100
AcDbTextStyleTableRecord
  2
OpenSans-Italic
 70
0
 40
0.0
 41
1.0
 50
0.0
 71
0
 42
2.5
  3
OpenSans-Italic.ttf
  4

  0
STYLE
  5
45
330
5
100
AcDbSymbolTableRecord
100
AcDbTextStyleTableRecord
  2
OpenSans-SemiBold
 70
0
 40
0.0
 41
1.0
 50
0.0
 71
0
 42
2.5
  3
OpenSans-SemiBold.ttf
  4

  0
STYLE
  5
46
330
5
100
AcDbSymbolTableRecord
100
AcDbTextStyleTableRecord
  2
OpenSans-SemiBoldItalic
 70
0
 40
0.0
 41
1.0
 50
0.0
 71
0
 42
2.5
  3
OpenSans-SemiBoldItalic.ttf
  4

  0
STYLE
  5
47
330
5
100
AcDbSymbolTableRecord
100
AcDbTextStyleTableRecord
  2
OpenSans-Bold
 70
0
 40
0.0
 41
1.0
 50
0.0
 71
0
 42
2.5
  3
OpenSans-Bold.ttf
  4

  0
STYLE
  5
48
330
5
100
AcDbSymbolTableRecord
100
AcDbTextStyleTableRecord
  2
OpenSans-BoldItalic
 70
0
 40
0.0
 41
1.0
 50
0.0
 71
0
 42
2.5
  3
OpenSans-BoldItalic.ttf
  4

  0
STYLE
  5
49
330
5
100
AcDbSymbolTableRecord
100
AcDbTextStyleTableRecord
  2
OpenSans-ExtraBold
 70
0
 40
0.0
 41
1.0
 50
0.0
 71
0
 42
2.5
  3
OpenSans-ExtraBold.ttf
  4

  0
STYLE
  5
4A
330
5
100
AcDbSymbolTableRecord
100
AcDbTextStyleTableRecord
  2
OpenSans-ExtraBoldItalic
 70
0
 40
0.0
 41
1.0
 50
0.0
 71
0
 42
2.5
  3
OpenSans-ExtraBoldItalic.ttf
  4

  0
STYLE
  5
4B
330
5
100
AcDbSymbolTableRecord
100
AcDbTextStyleTableRecord
  2
OpenSansCondensed-Bold
 70
0
 40
0.0
 41
1.0
 50
0.0
 71
0
 42
2.5
  3
OpenSansCondensed-Bold.ttf
  4

  0
STYLE
  5
4C
330
5
100
AcDbSymbolTableRecord
100
AcDbTextStyleTableRecord
  2
OpenSansCondensed-Light
 70
0
 40
0.0
 41
1.0
 50
0.0
 71
0
 42
2.5
  3
OpenSansCondensed-Light.ttf
  4

  0
STYLE
  5
4D
330
5
100
AcDbSymbolTableRecord
100
AcDbTextStyleTableRecord
  2
OpenSansCondensed-Italic
 70
0
 40
0.0
 41
1.0
 50
0.0
 71
0
 42
2.5
  3
OpenSansCondensed-LightItalic.ttf
  4

  0
STYLE
  5
4E
330
5
100
AcDbSymbolTableRecord
100
AcDbTextStyleTableRecord
  2
LiberationSans
 70
0
 40
0.0
 41
1.0
 50
0.0
 71
0
 42
2.5
  3
LiberationSans-Regular.ttf
  4

  0
STYLE
  5
4F
330
5
100
AcDbSymbolTableRecord
100
AcDbTextStyleTableRecord
  2
LiberationSans-Bold
 70
0
 40
0.0
 41
1.0
 50
0.0
 71
0
 42
2.5
  3
LiberationSans-Bold.ttf
  4

  0
STYLE
  5
50
330
5
100
AcDbSymbolTableRecord
100
AcDbTextStyleTableRecord
  2
LiberationSans-BoldItalic
 70
0
 40
0.0
 41
1.0
 50
0.0
 71
0
 42
2.5
  3
LiberationSans-BoldItalic.ttf
  4

  0
STYLE
  5
51
330
5
100
AcDbSymbolTableRecord
100
AcDbTextStyleTableRecord
  2
LiberationSans-Italic
 70
0
 40
0.0
 41
1.0
 50
0.0
 71
0
 42
2.5
  3
LiberationSans-Italic.ttf
  4

  0
STYLE
  5
52
330
5
100
AcDbSymbolTableRecord
100
AcDbTextStyleTableRecord
  2
LiberationSerif
 70
0
 40
0.0
 41
1.0
 50
0.0
 71
0
 42
2.5
  3
LiberationSerif-Regular.ttf
  4

  0
STYLE
  5
53
330
5
100
AcDbSymbolTableRecord
100
AcDbTextStyleTableRecord
  2
LiberationSerif-Bold
 70
0
 40
0.0
 41
1.0
 50
0.0
 71
0
 42
2.5
  3
LiberationSerif-Bold.ttf
  4

  0
STYLE
  5
54
330
5
100
AcDbSymbolTableRecord
100
AcDbTextStyleTableRecord
  2
LiberationSerif-BoldItalic
 70
0
 40
0.0
 41
1.0
 50
0.0
 71
0
 42
2.5
  3
LiberationSerif-BoldItalic.ttf
  4

  0
STYLE
  5
55
330
5
100
AcDbSymbolTableRecord
100
AcDbTextStyleTableRecord
  2
LiberationSerif-Italic
 70
0
 40
0.0
 41
1.0
 50
0.0
 71
0
 42
2.5
  3
LiberationSerif-Italic.ttf
  4

  0
STYLE
  5
56
330
5
100
AcDbSymbolTableRecord
100
AcDbTextStyleTableRecord
  2
LiberationMono
 70
0
 40
0.0
 41
1.0
 50
0.0
 71
0
 42
2.5
  3
LiberationMono-Regular.ttf
  4

  0
STYLE
  5
57
330
5
100
AcDbSymbolTableRecord
100
AcDbTextStyleTableRecord
  2
LiberationMono-Bold
 70
0
 40
0.0
 41
1.0
 50
0.0
 71
0
 42
2.5
  3
LiberationMono-Bold.ttf
  4

  0
STYLE
  5
58
330
5
100
AcDbSymbolTableRecord
100
AcDbTextStyleTableRecord
  2
LiberationMono-BoldItalic
 70
0
 40
0.0
 41
1.0
 50
0.0
 71
0
 42
2.5
  3
LiberationMono-BoldItalic.ttf
  4

  0
STYLE
  5
59
330
5
100
AcDbSymbolTableRecord
100
AcDbTextStyleTableRecord
  2
LiberationMono-Italic
 70
0
 40
0.0
 41
1.0
 50
0.0
 71
0
 42
2.5
  3
LiberationMono-Italic.ttf
  4

  0
ENDTAB
  0
TABLE
  2
VIEW
  5
7
330
0
100
AcDbSymbolTable
 70
0
  0
ENDTAB
  0
TABLE
  2
UCS
  5
6
330
0
100
AcDbSymbolTable
 70
0
  0
ENDTAB
  0
TABLE
  2
APPID
  5
3
330
0
100
AcDbSymbolTable
 70
3
  0
APPID
  5
2A
330
3
100
AcDbSymbolTableRecord
100
AcDbRegAppTableRecord
  2
ACAD
 70
0
  0
APPID
  5
9C
330
3
100
AcDbSymbolTableRecord
100
AcDbRegAppTableRecord
  2
HATCHBACKGROUNDCOLOR
 70
0
  0
APPID
  5
9D
330
3
100
AcDbSymbolTableRecord
100
AcDbRegAppTableRecord
  2
EZDXF
 70
0
  0
ENDTAB
  0
TABLE
  2
DIMSTYLE
  5
4
330
0
100
AcDbSymbolTable
 70
12
100
AcDbDimStyleTable
  0
DIMSTYLE
105
2B
330
4
100
AcDbSymbolTableRecord
100
AcDbDimStyleTableRecord
  2
Standard
 70
0
 40
1.0
 41
2.5
 42
0.625
 43
3.75
 44
1.25
 45
0.0
 46
0.0
 47
0.0
 48
0.0
 49
2.5
140
2.5
141
2.5
142
0.0
143
0.03937007874
144
1.0
145
0.0
146
1.0
147
0.625
148
0.0
 69
0
 70
0
 71
0
 72
0
 73
0
 74
0
 75
0
 76
0
 77
1
 78
8
 79
3
170
0
171
3
172
1
173
0
174
0
175
0
176
0
177
0
178
0
179
2
271
2
272
2
273
2
274
3
275
0
276
0
277
2
278
44
279
0
280
0
281
0
282
0
283
0
284
8
285
0
286
0
288
0
289
3
290
0
371
-2
372
-2
  0
DIMSTYLE
105
73
330
4
100
AcDbSymbolTableRecord
100
AcDbDimStyleTableRecord
  2
EZDXF
 70
0
 40
1.0
 41
0.175
 42
0.125
 43
3.75
 44
0.375
 45
0.0
 46
0.0
 47
0.0
 48
0.0
 49
2.5
140
0.25
141
2.5
142
0.0
143
0.03937007874
144
100.0
145
0.0
146
0.5
147
0.1
148
0.0
 69
0
 70
0
 71
0
 72
0
 73
0
 74
0
 75
0
 76
0
 77
1
 78
12
 79
3
170
0
171
3
172
1
173
0
174
0
175
0
176
0
177
0
178
0
179
2
271
2
272
2
273
2
274
3
275
0
276
0
277
2
278
46
279
2
280
0
281
0
282
0
283
0
284
8
285
0
286
0
288
1
289
3
290
0
340
4C
342
74
371
-2
372
-2
  0
DIMSTYLE
105
7C
330
4
100
AcDbSymbolTableRecord
100
AcDbDimStyleTableRecord
  2
EZ_M_100_H25_CM
 70
0
 40
1.0
 41
0.25
 42
0.125
 43
3.75
 44
0.375
 45
0.0
 46
0.0
 47
0.0
 48
0.0
 49
2.5
140
0.25
141
2.5
142
0.125
143
0.03937007874
144
100.0
145
0.0
146
0.5
147
0.1
148
0.0
 69
0
 70
0
 71
0
 72
0
 73
0
 74
0
 75
0
 76
0
 77
1
 78
12
 79
3
170
0
171
3
172
1
173
0
174
0
175
0
176
0
177
0
178
0
179
2
271
2
272
2
273
2
274
3
275
0
276
0
277
2
278
46
279
2
280
0
281
0
282
0
283
0
284
8
285
0
286
0
288
1
289
3
290
0
340
4C
371
-2
372
-2
  0
DIMSTYLE
105
7D
330
4
100
AcDbSymbolTableRecord
100
AcDbDimStyleTableRecord
  2
EZ_M_50_H25_CM
 70
0
 40
1.0
 41
0.125
 42
0.0625
 43
3.75
 44
0.1875
 45
0.0
 46
0.0
 47
0.0
 48
0.0
 49
2.5
140
0.125
141
2.5
142
0.0625
143
0.03937007874
144
100.0
145
0.0
146
0.5
147
0.05
148
0.0
 69
0
 70
0
 71
0
 72
0
 73
0
 74
0
 75
0
 76
0
 77
1
 78
12
 79
3
170
0
171
3
172
1
173
0
174
0
175
0
176
0
177
0
178
0
179
2
271
2
272
2
273
2
274
3
275
0
276
0
277
2
278
46
279
2
280
0
281
0
282
0
283
0
284
8
285
0
286
0
288
1
289
3
290
0
340
4C
371
-2
372
-2
  0
DIMSTYLE
105
7E
330
4
100
AcDbSymbolTableRecord
100
AcDbDimStyleTableRecord
  2
EZ_M_25_H25_CM
 70
0
 40
1.0
 41
0.0625
 42
0.03125
 43
3.75
 44
0.09375
 45
0.0
 46
0.0
 47
0.0
 48
0.0
 49
2.5
140
0.0625
141
2.5
142
0.03125
143
0.03937007874
144
100.0
145
0.0
146
0.5
147
0.025
148
0.0
 69
0
 70
0
 71
0
 72
0
 73
0
 74
0
 75
0
 76
0
 77
1
 78
12
 79
3
170
0
171
3
172
1
173
0
174
0
175
0
176
0
177
0
178
0
179
2
271
2
272
2
273
2
274
3
275
0
276
0
277
2
278
46
279
2
280
0
281
0
282
0
283
0
284
8
285
0
286
0
288
1
289
3
290
0
340
4C
371
-2
372
-2
  0
DIMSTYLE
105
7F
330
4
100
AcDbSymbolTableRecord
100
AcDbDimStyleTableRecord
  2
EZ_M_20_H25_CM
 70
0
 40
1.0
 41
0.05
 42
0.025
 43
3.75
 44
0.07500000000000001
 45
0.0
 46
0.0
 47
0.0
 48
0.0
 49
2.5
140
0.05
141
2.5
142
0.025
143
0.03937007874
144
100.0
145
0.0
146
0.5
147
0.020000000000000004
148
0.0
 69
0
 70
0
 71
0
 72
0
 73
0
 74
0
 75
0
 76
0
 77
1
 78
12
 79
3
170
0
171
3
172
1
173
0
174
0
175
0
176
0
177
0
178
0
179
2
271
2
272
2
273
2
274
3
275
0
276
0
277
2
278
46
279
2
280
0
281
0
282
0
283
0
284
8
285
0
286
0
288
1
289
3
290
0
340
4C
371
-2
372
-2
  0
DIMSTYLE
105
80
330
4
100
AcDbSymbolTableRecord
100
AcDbDimStyleTableRecord
  2
EZ_M_10_H25_CM
 70
0
 40
1.0
 41
0.025
 42
0.0125
 43
3.75
 44
0.037500000000000006
 45
0.0
 46
0.0
 47
0.0
 48
0.0
 49
2.5
140
0.025
141
2.5
142
0.0125
143
0.03937007874
144
100.0
145
0.0
146
0.5
147
0.010000000000000002
148
0.0
 69
0
 70
0
 71
0
 72
0
 73
0
 74
0
 75
0
 76
0
 77
1
 78
12
 79
3
170
0
171
3
172
1
173
0
174
0
175
0
176
0
177
0
178
0
179
2
271
2
272
2
273
2
274
3
275
0
276
0
277
2
278
46
279
2
280
0
281
0
282
0
283
0
284
8
285
0
286
0
288
1
289
3
290
0
340
4C
371
-2
372
-2
  0
DIMSTYLE
105
81
330
4
100
AcDbSymbolTableRecord
100
AcDbDimStyleTableRecord
  2
EZ_M_5_H25_CM
 70
0
 40
1.0
 41
0.0125
 42
0.00625
 43
3.75
 44
0.018750000000000003
 45
0.0
 46
0.0
 47
0.0
 48
0.0
 49
2.5
140
0.0125
141
2.5
142
0.00625
143
0.03937007874
144
100.0
145
0.0
146
0.5
147
0.005000000000000001
148
0.0
 69
0
 70
0
 71
0
 72
0
 73
0
 74
0
 75
0
 76
0
 77
1
 78
12
 79
3
170
0
171
3
172
1
173
0
174
0
175
0
176
0
177
0
178
0
179
2
271
2
272
2
273
2
274
3
275
0
276
0
277
2
278
46
279
2
280
0
281
0
282
0
283
0
284
8
285
0
286
0
288
1
289
3
290
0
340
4C
371
-2
372
-2
  0
DIMSTYLE
105
82
330
4
100
AcDbSymbolTableRecord
100
AcDbDimStyleTableRecord
  2
EZ_M_1_H25_CM
 70
0
 40
1.0
 41
0.0025
 42
0.00125
 43
3.75
 44
0.00375
 45
0.0
 46
0.0
 47
0.0
 48
0.0
 49
2.5
140
0.0025
141
2.5
142
0.00125
143
0.03937007874
144
100.0
145
0.0
146
0.5
147
0.001
148
0.0
 69
0
 70
0
 71
0
 72
0
 73
0
 74
0
 75
0
 76
0
 77
1
 78
12
 79
3
170
0
171
3
172
1
173
0
174
0
175
0
176
0
177
0
178
0
179
2
271
2
272
2
273
2
274
3
275
0
276
0
277
2
278
46
279
2
280
0
281
0
282
0
283
0
284
8
285
0
286
0
288
1
289
3
290
0
340
4C
371
-2
372
-2
  0
DIMSTYLE
105
83
330
4
100
AcDbSymbolTableRecord
100
AcDbDimStyleTableRecord
  2
EZ_RADIUS
 70
0
 40
1.0
 41
0.25
 42
0.125
 43
3.75
 44
0.375
 45
0.0
 46
0.0
 47
0.0
 48
0.0
 49
2.5
140
0.25
141
0.0
142
0.0
143
0.03937007874
144
100.0
145
0.0
146
0.5
147
0.1
148
0.0
 69
0
 70
0
 71
0
 72
0
 73
0
 74
0
 75
0
 76
0
 77
1
 78
12
 79
3
170
0
171
3
172
0
173
0
174
0
175
0
176
0
177
0
178
0
179
2
271
2
272
2
273
2
274
3
275
0
276
0
277
2
278
46
279
1
280
0
281
0
282
0
283
0
284
8
285
0
286
0
288
1
289
3
290
0
340
4C
342
84
371
-2
372
-2
  0
DIMSTYLE
105
88
330
4
100
AcDbSymbolTableRecord
100
AcDbDimStyleTableRecord
  2
EZ_RADIUS_INSIDE
 70
0
 40
1.0
 41
0.25
 42
0.125
 43
3.75
 44
0.375
 45
0.0
 46
0.0
 47
0.0
 48
0.0
 49
2.5
140
0.25
141
0.0
142
0.0
143
0.03937007874
144
100.0
145
0.0
146
0.5
147
0.1
148
0.0
 69
0
 70
0
 71
0
 72
0
 73
0
 74
0
 75
0
 76
0
 77
0
 78
12
 79
3
170
0
171
3
172
0
173
0
174
1
175
0
176
0
177
0
178
0
179
2
271
2
272
2
273
2
274
3
275
0
276
0
277
2
278
46
279
0
280
0
281
0
282
0
283
0
284
8
285
0
286
0
288
1
289
0
290
0
340
4C
342
84
371
-2
372
-2
  0
DIMSTYLE
105
89
330
4
100
AcDbSymbolTableRecord
100
AcDbDimStyleTableRecord
  2
EZ_CURVED
 70
0
 40
1.0
 41
0.25
 42
0.125
 43
3.75
 44
0.375
 45
0.0
 46
0.0
 47
0.0
 48
0.0
 49
2.5
140
0.25
141
2.5
142
0.0
143
0.03937007874
144
100.0
145
0.0
146
0.5
147
0.1
148
0.0
 69
0
 70
0
 71
0
 72
0
 73
0
 74
0
 75
0
 76
0
 77
1
 78
12
 79
2
 90
2
170
0
171
3
172
1
173
0
174
0
175
0
176
0
177
0
178
0
179
2
271
2
272
2
273
2
274
3
275
0
276
0
277
2
278
46
279
2
280
0
281
0
282
0
283
0
284
8
285
0
286
0
288
1
289
3
290
0
340
4C
371
-2
372
-2
  0
ENDTAB
  0
TABLE
  2
BLOCK_RECORD
  5
9
330
0
100
AcDbSymbolTable
 70
5
  0
BLOCK_RECORD
  5
17
330
9
100
AcDbSymbolTableRecord
100
AcDbBlockTableRecord
  2
*Model_Space
340
1A
 70
0
280
1
281
0
  0
BLOCK_RECORD
  5
1B
330
9
100
AcDbSymbolTableRecord
100
AcDbBlockTableRecord
  2
*Paper_Space
340
1E
 70
0
280
1
281
0
  0
BLOCK_RECORD
  5
74
330
9
100
AcDbSymbolTableRecord
100
AcDbBlockTableRecord
  2
_ARCHTICK
340
0
 70
0
280
1
281
0
  0
BLOCK_RECORD
  5
78
330
9
100
AcDbSymbolTableRecord
100
AcDbBlockTableRecord
  2
_CLOSEDFILLED
340
0
 70
0
280
1
281
0
  0
BLOCK_RECORD
  5
84
330
9
100
AcDbSymbolTableRecord
100
AcDbBlockTableRecord
  2
_CLOSEDBLANK
340
0
 70
0
280
1
281
0
  0
ENDTAB
  0
ENDSEC
  0
SECTION
  2
BLOCKS
  0
BLOCK
  5
18
330
17
100
AcDbEntity
  8
0
100
AcDbBlockBegin
  2
*Model_Space
 70
0
 10
0.0
 20
0.0
 30
0.0
  3
*Model_Space
  1

  0
ENDBLK
  5
19
330
17
100
AcDbEntity
  8
0
100
AcDbBlockEnd
  0
BLOCK
  5
1C
330
1B
100
AcDbEntity
  8
0
100
AcDbBlockBegin
  2
*Paper_Space
 70
0
 10
0.0
 20
0.0
 30
0.0
  3
*Paper_Space
  1

  0
ENDBLK
  5
1D
330
1B
100
AcDbEntity
  8
0
100
AcDbBlockEnd
  0
BLOCK
  5
75
330
74
100
AcDbEntity
  8
0
100
AcDbBlockBegin
  2
_ARCHTICK
 70
0
 10
0.0
 20
0.0
 30
0.0
  3
_ARCHTICK
  1

  0
LWPOLYLINE
  5
77
330
74
100
AcDbEntity
  8
0
  6
BYBLOCK
 62
0
100
AcDbPolyline
 90
2
 70
0
 43
0.15
 10
-0.5
 20
-0.5
 10
0.5
 20
0.5
  0
ENDBLK
  5
76
330
74
100
AcDbEntity
  8
0
100
AcDbBlockEnd
  0
BLOCK
  5
79
330
78
100
AcDbEntity
  8
0
100
AcDbBlockBegin
  2
_CLOSEDFILLED
 70
0
 10
0.0
 20
0.0
 30
0.0
  3
_CLOSEDFILLED
  1

  0
SOLID
  5
7B
330
78
100
AcDbEntity
  8
0
  6
BYBLOCK
 62
0
100
AcDbTrace
 10
-1.0
 20
0.16439898372402537
 30
0.0
 11
0.0
 21
0.0
 31
0.0
 12
-1.0
 22
-0.16439898372402537
 32
0.0
 13
-1.0
 23
-0.16439898372402537
 33
0.0
  0
ENDBLK
  5
7A
330
78
100
AcDbEntity
  8
0
100
AcDbBlockEnd
  0
BLOCK
  5
85
330
84
100
AcDbEntity
  8
0
100
AcDbBlockBegin
  2
_CLOSEDBLANK
 70
0
 10
0.0
 20
0.0
 30
0.0
  3
_CLOSEDBLANK
  1

  0
LWPOLYLINE
  5
87
330
84
100
AcDbEntity
  8
0
  6
BYBLOCK
 62
0
100
AcDbPolyline
 90
3
 70
1
 10
-1.0
 20
0.16439898372402537
 10
0.0
 20
0.0
 10
-1.0
 20
-0.16439898372402537
  0
ENDBLK
  5
86
330
84
100
AcDbEntity
  8
0
100
AcDbBlockEnd
  0
ENDSEC
  0
SECTION
  2
ENTITIES
  0
LWPOLYLINE
  5
8D
330
17
100
AcDbEntity
  8
HOJA
100
AcDbPolyline
 90
4
 70
1
 10
0.0
 20
0.0
 10
500.0
 20
0.0
 10
500.0
 20
700.0
 10
0.0
 20
700.0
  0
LWPOLYLINE
  5
8E
330
17
100
AcDbEntity
  8
CORTE
100
AcDbPolyline
 90
65
 70
1
 10
13.0
 20
193.14999999999998
 10
253.14999999999998
 20
193.14999999999998
 10
253.14999999999998
 20
13.0
 10
252.81608368749792
 20
13.0
 10
252.63935751004453
 20
14.72740692073115
 10
252.59919953317788
 20
15.086723933288882
 10
252.3550464079087
 20
16.45840721375787
 10
252.2331025908807
 20
17.103691391716374
 10
251.97946031997333
 20
18.097581131352037
 10
251.70531201802612
 20
19.120815427643848
 10
251.52584781727774
 20
19.65834284317432
 10
251.0100529040823
 20
21.13818099500268
 10
251.0046326027685
 20
21.151275404132214
 10
250.98981027623933
 20
21.185681840861534
 10
250.3605190031494
 20
22.523001778794573
 10
250.0513217777406
 20
23.152406616258954
 10
249.66438889352332
 20
23.839960182879228
 10
248.97763267203015
 20
25.010897040006384
 10
248.91605847475483
 20
25.10486527336542
 10
248.87428023346476
 20
25.16579767353118
 10
248.04620014779127
 20
26.24730251967259
 10
247.29623547608722
 20
27.184082305410683
 10
247.14371843421725
 20
27.357570814497095
 10
246.97121008585447
 20
27.545283608978952
 10
246.12140388689338
 20
28.344627041548783
 10
245.1673089600973
 20
29.19790731951816
 10
245.05491423803528
 20
29.29088498934267
 10
244.9641517996701
 20
29.362234944439106
 10
243.84356218943014
 20
30.086154625784967
 10
242.95563657081712
 20
30.62582778431116
 10
242.56117718633658
 20
30.808298705213225
 10
241.62647782925208
 20
31.207957431590103
 10
241.14185567570007
 20
31.402477586473317
 10
240.95257357359586
 20
31.47242564729859
 10
239.53739772958934
 20
31.801674955570263
 10
238.94738749540736
 20
31.921943278992508
 10
237.73289725893534
 20
32.00084271330383
 10
236.9428074682811
 20
32.03197239649556
 10
235.62776186792212
 20
31.90039889889105
 10
234.93781523900117
 20
31.81610622958455
 10
233.0432279257281
 20
31.321898500213766
 10
232.9315255993893
 20
31.29068905792806
 10
232.73343733343387
 20
31.208281152527075
 10
230.92420212625822
 20
30.413970107545428
 10
229.03046112310767
 20
29.309562267825466
 10
228.9147714817356
 20
29.240782439695717
 10
228.85231085678183
 20
29.19494504471449
 10
226.90509667261892
 20
27.678361703604278
 10
226.36403026315028
 20
27.1780951380184
 10
224.89436489951387
 20
25.724173146093165
 10
224.40163369925844
 20
25.161488121823947
 10
222.88253736893896
 20
23.288424263508894
 10
222.7795076917018
 20
23.14486536219305
 10
222.57639885907767
 20
22.836175727047973
 10
221.46437804326817
 20
21.125434109739572
 10
220.87163320718463
 20
20.116521134382104
 10
220.34037806659398
 20
19.108954517923202
 10
219.86603570492292
 20
18.099905599958028
 10
219.4021837888198
 20
17.09031019753373
 10
218.85933549447464
 20
15.736878204120577
 10
218.61758734912047
 20
15.073463153908122
 10
218.50790019604418
 20
14.721458015764673
 10
217.99245920732832
 20
13.0
 10
13.0
 20
13.0
 10
13.0
 20
193.14999999999998
  0
LWPOLYLINE
  5
8F
330
17
100
AcDbEntity
  8
CORTE
100
AcDbPolyline
 90
231
 70
1
 10
86.04558030816499
 20
92.3975938634509
 10
87.68724501246905
 20
92.51200887224013
 10
88.27986551169846
 20
92.62400874025117
 10
89.69489236050327
 20
92.90551008781937
 10
90.97905583731936
 20
93.3148347084376
 10
91.70346453001912
 20
93.55150676471838
 10
92.80331598376915
 20
94.04228192264173
 10
93.71303133298358
 20
94.45456690438917
 10
94.67620474907746
 20
95.00797128322839
 10
95.72372794301151
 20
95.61502492820178
 10
96.357283245473
 20
96.057646619223
 10
97.73511938470307
 20
97.03790402365435
 10
98.98553393660443
 20
98.07626442325493
 10
99.74731669382842
 20
98.72252236421771
 10
101.16759037760708
 20
100.09490569485673
 10
101.76024235685477
 20
100.68191441152024
 10
103.05422442890682
 20
102.11365850996498
 10
103.77380265524975
 20
102.93274646271894
 10
104.73260434984333
 20
104.13259863416863
 10
105.7878997348166
 20
105.4965235227538
 10
106.25531872332374
 20
106.15173812017406
 10
107.2964597953958
 20
107.66557280381284
 10
107.64344439453265
 20
108.17290836462128
 10
107.80153535082952
 20
108.41419548231403
 10
108.88790360181865
 20
110.19207606537017
 10
109.81642952481324
 20
111.78697238496879
 10
110.04932682984962
 20
112.21145217305046
 10
110.3031490588693
 20
112.6999781528307
 10
111.09066364101278
 20
114.23203935796792
 10
111.83066713602703
 20
115.76593565474259
 10
112.0534257804108
 20
116.25143922910625
 10
112.22042044678561
 20
116.64237910410733
 10
112.90609728371633
 20
118.27163234571636
 10
113.58921461138053
 20
120.03606260649697
 10
113.68646759940637
 20
120.29158772216486
 10
113.84428594174447
 20
120.74891768413767
 10
114.36105534158058
 20
122.3109061645977
 10
114.57877953300962
 20
123.04701953996167
 10
114.94931507751912
 20
124.33053621676268
 10
115.32376811576714
 20
125.81443672953101
 10
115.45502422890851
 20
126.34998887516063
 10
115.8586554019852
 20
128.29315498826173
 10
115.87394717967554
 20
128.3693609674051
 10
115.87676542508923
 20
128.38651343921163
 10
116.19035532659835
 20
130.38863422838452
 10
116.2355601825292
 20
130.76598545782778
 10
116.41937903608535
 20
132.40781933914678
 10
116.46488537391122
 20
133.015411350606
 10
116.55929880581022
 20
134.42693420455709
 10
116.58089332028048
 20
135.15100452141573
 10
116.60888831270387
 20
136.44602817580497
 10
116.59760771292038
 20
137.18686339560995
 10
116.56735666097366
 20
138.46511983632277
 10
116.52710099677506
 20
139.13512366288373
 10
116.43428310489735
 20
140.4842563219071
 10
116.37969185232396
 20
141.0061737503835
 10
116.20953973552395
 20
142.5034512085138
 10
116.16414668265466
 20
142.80883476908107
 10
115.8932226795371
 20
144.52274448819094
 10
115.88787480050652
 20
144.55058099073673
 10
115.85867419749192
 20
144.69513997894066
 10
115.53952273057389
 20
146.22228676312062
 10
115.46985305262251
 20
146.5409016154808
 10
115.14014927450387
 20
147.84041832369718
 10
114.9501704359928
 20
148.56034224106276
 10
114.6960952448872
 20
149.41379417278253
 10
114.33640754985065
 20
150.57993388783154
 10
114.21143803221906
 20
150.9465283874033
 10
113.84476545957253
 20
151.98741971831058
 10
113.68060487985545
 20
152.43444928728556
 10
113.6187196471184
 20
152.5980105860284
 10
113.09609014081587
 20
153.86697117012883
 10
112.77796682738467
 20
154.61784878356187
 10
112.48124569582559
 20
155.2692182146281
 10
111.84058867807572
 20
156.63787923225897
 10
111.83797861939787
 20
156.6431179743283
 10
111.83211165763723
 20
156.65458618278353
 10
111.13277085538152
 20
157.9552807943533
 10
110.74684455347014
 20
158.6560240514669
 10
110.40462607146218
 20
159.24410065461274
 10
109.81781113024593
 20
160.22896315093973
 10
109.64539151639231
 20
160.50138762535462
 10
109.53378801932676
 20
160.67400929243536
 10
108.83305741763093
 20
161.70587616223017
 10
108.14735610113809
 20
162.69455269971996
 10
108.00348468280681
 20
162.89329421487727
 10
107.80538134091664
 20
163.1612630551058
 10
107.11952881769562
 20
164.02467101917068
 10
106.56269826809887
 20
164.71265679619654
 10
106.20991655096621
 20
165.13200048633655
 10
105.79221309184587
 20
165.6193017846218
 10
105.25634203417496
 20
166.19274939582596
 10
104.74527821160379
 20
166.73073876716072
 10
104.26525943024907
 20
167.21861791338085
 10
103.77965088315356
 20
167.7041075780532
 10
103.23146671694872
 20
168.1980734857641
 10
102.61153978138549
 20
168.7488696781554
 10
102.15666203719817
 20
169.1402979026381
 10
101.7677276433845
 20
169.4702714356345
 10
101.0278948503813
 20
170.0237001279452
 10
100.02238938127122
 20
170.76719214270176
 10
99.86630271594254
 20
170.87927623300783
 10
99.7564455419882
 20
170.9572488957813
 10
98.62264817367802
 20
171.64674008347436
 10
97.74480646052497
 20
172.1759240797033
 10
97.34152230006153
 20
172.37577961249715
 10
96.51576579960592
 20
172.78282820818947
 10
95.98538309209134
 20
173.0369720583815
 10
95.73489393049611
 20
173.1563681311604
 10
94.53756410820736
 20
173.5984828947772
 10
93.72488340697082
 20
173.89837259973902
 10
93.01221309656208
 20
174.08182549763146
 10
91.71566846208911
 20
174.4177854061261
 10
91.38713575009662
 20
174.4650883579234
 10
89.70707255141096
 20
174.7125394937644
 10
89.62856423071169
 20
174.71483766471556
 10
87.6988154112008
 20
174.7801348109251
 10
87.68398761705919
 20
174.778853900043
 10
85.69055170087078
 20
174.61756811826098
 10
85.46876845335835
 20
174.57261919310588
 10
83.68193555407863
 20
174.22127884379597
 10
82.83920418137097
 20
173.95223173543832
 10
81.67268609912307
 20
173.58711157529373
 10
79.82475494392139
 20
172.78175476406815
 10
79.66404164922047
 20
172.70881957377662
 10
79.49001242687451
 20
172.60770523699418
 10
77.65315114097794
 20
171.55008551485594
 10
76.53703788380507
 20
170.76690069315168
 10
75.64284309718172
 20
170.1088277082819
 10
74.07139855659736
 20
168.74926386554387
 10
73.63163056286027
 20
168.3478997073244
 10
72.0848868032607
 20
166.73181856090355
 10
71.6195173927481
 20
166.21569173630564
 10
70.41237468244718
 20
164.71433766539835
 10
69.6065630169898
 20
163.64341006086434
 10
68.96063276163203
 20
162.6966936108582
 10
67.83112916828323
 20
160.91492142216444
 10
67.67862004080466
 20
160.67618455765205
 10
67.59405199523422
 20
160.5328639011248
 10
66.5760001809836
 20
158.65837286428948
 10
65.57958870943096
 20
156.6549689625648
 10
65.57274808253962
 20
156.64020361904286
 10
65.56748214313903
 20
156.62767207045877
 10
64.71141254802546
 20
154.61988671068508
 10
64.16837459817879
 20
153.20347408947518
 10
63.93327927871229
 20
152.59967358622427
 10
63.566253154926756
 20
151.54055353380508
 10
63.252713616327526
 20
150.58110140909127
 10
63.126276448138924
 20
150.14006130547202
 10
62.66470523424255
 20
148.56090500306004
 10
62.35877400748586
 20
147.34960722472204
 10
62.150318074740355
 20
146.54077080797555
 10
61.75284371234213
 20
144.72131819864762
 10
61.70808845886974
 20
144.52070878420477
 10
61.5521746668544
 20
143.67498476986904
 10
61.34569241583047
 20
142.50149912098354
 10
61.31207727505942
 20
142.26145530263793
 10
61.05655176172526
 20
140.48136370114767
 10
60.996207589351144
 20
139.92428248593038
 10
60.833689152575715
 20
138.46125007588452
 10
60.77390919123103
 20
137.681039499563
 10
60.676496918678495
 20
136.4411670870972
 10
60.63518988393999
 20
135.52170723301973
 10
60.58457219363311
 20
134.42109271145986
 10
60.571558275100514
 20
133.43776661531862
 10
60.55771596763526
 20
132.40103522090916
 10
60.575786716665675
 20
131.42195170706822
 10
60.59593502249254
 20
130.3809722975887
 10
60.64171880127121
 20
129.4680941567974
 10
60.69944138287529
 20
128.36091202291615
 10
60.76410886687654
 20
127.57092580220605
 10
60.86865665669821
 20
126.34083972476202
 10
60.93849435086908
 20
125.72595715017337
 10
61.10421589889856
 20
124.32074089395883
 10
61.161087589324296
 20
123.92938062606348
 10
61.40696651769373
 20
122.30062395341116
 10
61.42868373055106
 20
122.17798099820672
 10
61.55207808510568
 20
121.5076429938039
 10
61.74873481825193
 20
120.47763514981332
 10
61.78758501790698
 20
120.28153731449073
 10
62.115366221339016
 20
118.82580297345788
 10
62.24731105560929
 20
118.2614984832291
 10
62.51965097010354
 20
117.21174922405066
 10
62.781283313845165
 20
116.2413982870508
 10
62.95979605243717
 20
115.6336682150015
 10
63.39134970140988
 20
114.2212458390974
 10
63.4343694212714
 20
114.0901151412899
 10
63.56598642311208
 20
113.70477354802858
 10
63.96033279922786
 20
112.59749637164796
 10
64.10641290264057
 20
112.20287141241258
 10
64.52345330270546
 20
111.14296154171983
 10
64.9165318744107
 20
110.18269773435846
 10
65.11654366579143
 20
109.71844854330999
 10
65.5801094141273
 20
108.6851398610814
 10
65.7469324913437
 20
108.3315458492686
 10
65.82873154190047
 20
108.1648150607954
 10
66.42829069834494
 20
106.99573178514247
 10
66.88264575836968
 20
106.14453862609857
 10
67.13632086751072
 20
105.68659094052242
 10
67.59323878975582
 20
104.89482325316847
 10
67.8848636661732
 20
104.4193463315864
 10
68.0714349465156
 20
104.12705459010053
 10
68.68242206347769
 20
103.20010777527597
 10
69.43323207406338
 20
102.10659702149296
 10
69.50456994550476
 20
102.00540763476815
 10
69.60522310341449
 20
101.86847059857438
 10
70.39027980996332
 20
100.87701050837316
 10
71.04016492574519
 20
100.08934698450409
 10
71.3051746614402
 20
99.77534514004067
 10
71.6175572776052
 20
99.42045172180444
 10
72.27829730089316
 20
98.73581225082042
 10
72.94617065241701
 20
98.07227653989146
 10
73.29304449065395
 20
97.73421437695708
 10
73.62881386544571
 20
97.42073197326793
 10
74.3722322812264
 20
96.80230017591198
 10
75.31053317620629
 20
96.05520405125306
 10
75.49601940083257
 20
95.90986726410937
 10
75.63889543812091
 20
95.80281477178211
 10
76.70788373586825
 20
95.11215663935367
 10
77.64953779477518
 20
94.53167521873516
 10
77.97200856301144
 20
94.36793419004314
 10
78.64880025155706
 20
94.04152211537453
 10
79.3351945507318
 20
93.71505975143046
 10
79.65724343703779
 20
93.5697574845945
 10
80.80455731711199
 20
93.17714927826614
 10
81.66561003087646
 20
92.90042543044113
 10
82.38459554293217
 20
92.75046359054261
 10
83.67311183185427
 20
92.50438375338092
 10
84.11219886988813
 20
92.47137184507899
 10
85.68015195931986
 20
92.37657978635372
 10
86.04558030816499
 20
92.3975938634509
  0
LWPOLYLINE
  5
90
330
17
100
AcDbEntity
  8
CORTE
100
AcDbPolyline
 90
296
 70
1
 10
20.0
 20
20.0
 10
207.02283599396557
 20
20.0
 10
207.26306053131873
 20
20.620574069572488
 10
207.7362022861581
 20
21.81448747540365
 10
208.45292884214328
 20
23.442021883196304
 10
208.82373699527946
 20
24.229974560240368
 10
209.19328227538077
 20
24.94503652409424
 10
210.01548812636238
 20
26.511267246208217
 10
210.8104269242999
 20
27.907079981181226
 10
211.4353064084621
 20
28.926104198074157
 10
212.4944417128589
 20
30.533323128410014
 10
212.906637335331
 20
31.152705442884848
 10
213.2167832812689
 20
31.590598350014574
 10
214.72260879819217
 20
33.54877447472208
 10
215.53169117741865
 20
34.545244520310064
 10
216.78366789901432
 20
35.948335199828094
 10
217.8941098988481
 20
37.13560636390495
 10
219.1571709226207
 20
38.346619987122004
 10
220.308806873504
 20
39.4071083294681
 10
221.94899563320837
 20
40.737252282984684
 10
222.7799052027183
 20
41.388383039178194
 10
224.40940442159547
 20
42.48707719334787
 10
225.27321252871909
 20
43.062639372026446
 10
225.93429952330126
 20
43.427747671260335
 10
227.89772792470987
 20
44.47997213341954
 10
229.74754249902412
 20
45.263617988886566
 10
230.60367239977555
 20
45.61512984310059
 10
231.9546262863297
 20
46.01475745845411
 10
233.35972545684677
 20
46.41942733979886
 10
234.1358159504677
 20
46.55630291556733
 10
236.22905242035236
 20
46.88989405991704
 10
237.33095046321046
 20
46.94226721840634
 10
239.14469002454598
 20
46.993695878360086
 10
240.23864827791854
 20
46.9033764842723
 10
242.05471059779777
 20
46.71491394448125
 10
242.89836170317517
 20
46.535532905965994
 10
244.90850184650898
 20
46.06170572153768
 10
245.32403811376548
 20
45.9198588219936
 10
245.49721873805902
 20
45.85644482388277
 10
246.14999999999998
 20
45.60901789698697
 10
246.14999999999998
 20
186.14999999999998
 10
99.29877126536698
 20
186.14999999999998
 10
99.40719411225083
 20
186.10226971006347
 10
100.81664999989007
 20
185.47854410233302
 10
101.26892254438087
 20
185.2371319973149
 10
101.70296682934894
 20
185.00336722638215
 10
102.64046782752855
 20
184.4900936046423
 10
103.34563311448927
 20
184.1005761350974
 10
104.31591769834061
 20
183.47797094226289
 10
105.53347081969972
 20
182.68730342118369
 10
105.61968440679615
 20
182.63028740381037
 10
105.83191987076698
 20
182.48825615404203
 10
107.13136511155952
 20
181.50567448584596
 10
108.18025803856489
 20
180.70092666089238
 10
108.5668664766731
 20
180.3732605376758
 10
108.887621742239
 20
180.0967269923027
 10
109.73662077525215
 20
179.3509640974009
 10
110.56785983438908
 20
178.6083602022201
 10
111.0429739385393
 20
178.14744416213574
 10
111.44626321173081
 20
177.74858542768288
 10
112.14959300179545
 20
177.03832599990338
 10
112.91398662163068
 20
176.2515096722884
 10
113.34235083915877
 20
175.77946337981024
 10
113.68231765055981
 20
175.39670874584277
 10
114.3853832958912
 20
174.58652678599609
 10
115.2211045596942
 20
173.60278409884043
 10
115.47769567870583
 20
173.2833215206789
 10
115.66441129861401
 20
173.0453081139176
 10
116.4563260158666
 20
172.00925409530365
 10
117.29545078384498
 20
170.88541594303976
 10
117.42425087619269
 20
170.70754535263234
 10
117.59540107726268
 20
170.46561187195783
 10
118.37207864243514
 20
169.31547261889614
 10
118.89404552973706
 20
168.52242144341184
 10
119.26994091651764
 20
167.93139471411308
 10
119.83131449041308
 20
167.0257988873354
 10
120.13936465138674
 20
166.51003482443005
 10
120.33917445442925
 20
166.16597198695246
 10
120.96556398918148
 20
165.04496722158095
 10
121.55263594467037
 20
163.96427908069657
 10
121.77053132325011
 20
163.54467986981635
 10
122.13280629273198
 20
162.82689374207305
 10
122.51438587541378
 20
162.04809291306762
 10
122.72585907107324
 20
161.6028620055086
 10
123.24003528700081
 20
160.46330878363673
 10
123.71550535000144
 20
159.37566112456977
 10
123.93679373705572
 20
158.83804532340056
 10
124.39211672947789
 20
157.6952361156411
 10
124.55934885638658
 20
157.26580755277635
 10
124.65486219189614
 20
157.01169192504727
 10
125.16701554612548
 20
155.55026532365673
 10
125.43352609315154
 20
154.76111597419842
 10
125.7360206309936
 20
153.78752345965512
 10
126.12131997994496
 20
152.49774296010358
 10
126.26251167155186
 20
151.97523502550004
 10
126.67323022452118
 20
150.389101084189
 10
126.70360440482227
 20
150.26977307511132
 10
126.73885915805366
 20
150.12465868538337
 10
127.11931576850806
 20
148.3513662158501
 10
127.22293659281108
 20
147.8424059935791
 10
127.47836017878045
 20
146.3736282062784
 10
127.6130381749826
 20
145.54999851239697
 10
127.77453349718643
 20
144.33259266496336
 10
127.90760298297731
 20
143.2486713638669
 10
128.00074548410498
 20
142.22375586784932
 10
128.1052572436334
 20
140.94010871920364
 10
128.14896497890373
 20
140.04182934023444
 10
128.2049634715993
 20
138.62629127577057
 10
128.21012214190262
 20
137.78061295267645
 10
128.20616652461655
 20
136.3095847653832
 10
128.1740211534253
 20
135.43275992155156
 10
128.10893863779046
 20
133.99257403234137
 10
128.0292258064129
 20
132.98952082961557
 10
127.91410410320849
 20
131.67804355800547
 10
127.7629415426987
 20
130.44050663302815
 10
127.62333855830033
 20
129.3688276544445
 10
127.36091393581236
 20
127.77343381002878
 10
127.23922228087964
 20
127.06770870166564
 10
126.80735441197864
 20
124.97397534733935
 10
126.76525210080013
 20
124.77728158109497
 10
126.68454933735507
 20
124.45086100579682
 10
126.19627230977751
 20
122.5138933189724
 10
125.97663219967103
 20
121.74431682430539
 10
125.53789555425259
 20
120.24552931621392
 10
124.9945124568399
 20
118.57281694832072
 10
124.80237988002158
 20
117.99409355416562
 10
124.449048313895
 20
117.01984966569125
 10
123.97343800138688
 20
115.74225134490388
 10
123.63864344033361
 20
114.91046774708377
 10
123.07070048824137
 20
113.52215001214434
 10
122.2596373771294
 20
111.66779025777454
 10
122.08141495101427
 20
111.27366901199257
 10
121.92135875499902
 20
110.94009716731838
 10
121.02147213044739
 20
109.08744388046536
 10
120.05534164006332
 20
107.19676755802153
 10
119.86618990529057
 20
106.84150559296029
 10
119.66215981348861
 20
106.4751228327812
 10
118.65849971841266
 20
104.68912141781979
 10
117.84106263214773
 20
103.2887554212766
 10
117.32264262217764
 20
102.44356834652822
 10
116.49996970964435
 20
101.14649744427005
 10
115.97422339366115
 20
100.32294706626452
 10
115.61909128962441
 20
99.7819066736633
 10
114.43051132067993
 20
98.07465087497398
 10
113.4363359486126
 20
96.68081659297481
 10
112.76933402789939
 20
95.80813110832663
 10
111.22303935944407
 20
93.82704521222225
 10
110.96525986240498
 20
93.52236210520283
 10
109.99171561088151
 20
92.39230115610992
 10
109.18179117537669
 20
91.45374417892337
 10
108.93583316498028
 20
91.17272629730228
 10
107.00131975772842
 20
89.16019340359219
 10
106.64731869539757
 20
88.79623001213598
 10
104.53566513316655
 20
86.84914037806563
 10
104.3072489873417
 20
86.64053137550002
 10
103.8781750146593
 20
86.29541142752934
 10
101.92065673358363
 20
84.7245058392387
 10
101.19406260445827
 20
84.2228327628577
 10
99.44576651062839
 20
83.02549220471562
 10
97.46252862723621
 20
81.89107642697884
 10
96.90177538929996
 20
81.5721763750398
 10
96.31209913362719
 20
81.30329564203379
 10
94.26994019867556
 20
80.38187075917318
 10
92.315876936464
 20
79.7209495204854
 10
91.55154101101327
 20
79.46724806678448
 10
89.96371950299765
 20
79.11884226454794
 10
88.81536784573657
 20
78.86772966634763
 10
88.22341047282009
 20
78.80312256371259
 10
85.9979050161016
 20
78.58119305475915
 10
85.21495932386452
 20
78.58721405705144
 10
83.16860133213329
 20
78.62693872390983
 10
82.46052893348399
 20
78.7147413476799
 10
80.36265405615771
 20
79.0049840672035
 10
79.92621723281503
 20
79.10947519549423
 10
79.66236995518503
 20
79.17721631160028
 10
78.20668299009431
 20
79.55156792498221
 10
77.49163264767739
 20
79.74844738528842
 10
76.00418000675617
 20
80.30560047689715
 10
74.80842642130251
 20
80.77927983819195
 10
73.97153839713506
 20
81.18978105120183
 10
72.87781388254076
 20
81.75399751715797
 10
72.50724916741748
 20
81.94571962864852
 10
72.08098579568451
 20
82.17749365844014
 10
70.73248558338233
 20
83.03435528856059
 10
69.5764886750683
 20
83.80433159997867
 10
69.0895507074892
 20
84.17022795664087
 10
68.68221792744615
 20
84.49073081419668
 10
67.82962818496318
 20
85.1642181795624
 10
67.0261855367508
 20
85.82833575474966
 10
66.3842783719202
 20
86.41125953182404
 10
65.82946973385448
 20
86.93840850705949
 10
65.22271697758393
 20
87.51843694832371
 10
64.55914673013883
 20
88.18165505815372
 10
63.944973424970144
 20
88.84291232519914
 10
63.462057402241754
 20
89.38680436496092
 10
62.8767245164842
 20
90.05158504892906
 10
62.16789267990484
 20
90.89305902085499
 10
61.740755819436814
 20
91.4309781872681
 10
61.44227265283
 20
91.82428167619106
 10
60.761396949811555
 20
92.73120233541646
 10
59.84279681805539
 20
94.01037684583632
 10
59.74589568677713
 20
94.15175728734077
 10
59.68586016152079
 20
94.24345720068312
 10
58.85147092168238
 20
95.53516548624748
 10
58.301068431892034
 20
96.42643045878293
 10
57.98235234561193
 20
96.95196439523174
 10
57.47795746054156
 20
97.82116079993435
 10
57.1266677865916
 20
98.44933431859194
 10
56.92442413631933
 20
98.82792882703139
 10
56.341445131278164
 20
99.94293696052691
 10
55.8014187762591
 20
101.02320827422456
 10
55.58416030036601
 20
101.46979907404997
 10
55.18423260586398
 20
102.32883553834934
 10
54.86680695279
 20
103.03081479917755
 10
54.70767224262258
 20
103.3992788409796
 10
54.192754828313866
 20
104.62990732744129
 10
53.80394937539545
 20
105.60190927982188
 10
53.54971747364223
 20
106.2627634307128
 10
52.979975715246624
 20
107.81048382145632
 10
52.938286324560096
 20
107.92923941053394
 10
52.88987282649008
 20
108.0732282135232
 10
52.39391395972825
 20
109.58343899939021
 10
52.215016596323096
 20
110.15345033757623
 10
51.868312835721284
 20
111.32091844278301
 10
51.57217114870788
 20
112.3633872529852
 10
51.37817179775713
 20
113.0937448283161
 10
51.00083348158256
 20
114.57742192711937
 10
50.924667941478745
 20
114.9024175843731
 10
50.68500702222785
 20
115.96949014196922
 10
50.536109310767145
 20
116.64517705178274
 10
50.48664495720948
 20
116.8799615628517
 10
50.17204637511709
 20
118.52693349346687
 10
50.06904840400115
 20
119.0904203519015
 10
49.84946570449955
 20
120.44794224366284
 10
49.716965394362404
 20
121.30323899298624
 10
49.570298517404055
 20
122.40955453189297
 10
49.42944685183781
 20
123.51802254530067
 10
49.33679445978201
 20
124.41348481655474
 10
49.20571385897165
 20
125.73437645079412
 10
49.15156451681489
 20
126.46180111890689
 10
49.045148590975444
 20
127.95187629719392
 10
49.0176279574367
 20
128.55702217333294
 10
48.94729317247486
 20
130.1701084897641
 10
48.9384299682483
 20
130.70490336151119
 10
48.91184118154925
 20
132.3886385576963
 10
48.918123388601245
 20
132.9007939135415
 10
48.93864200477948
 20
134.60704088975078
 10
48.961229910400775
 20
135.1571459343985
 10
49.02769150731049
 20
136.82488762764032
 10
49.07316541576789
 20
137.47625933563904
 10
49.179140146320464
 20
139.04174895833984
 10
49.26015369685487
 20
139.86400770352336
 10
49.3932852765177
 20
141.25721872959534
 10
49.5294129295219
 20
142.3273511492621
 10
49.67058170439259
 20
143.47089287567985
 10
49.889339857754564
 20
144.87444663654753
 10
50.01163665112351
 20
145.68238683374224
 10
50.34972290918253
 20
147.51491603501316
 10
50.41722217907936
 20
147.89131936291906
 10
50.676818025270904
 20
149.1095026368139
 10
50.913908067403156
 20
150.1855034372014
 10
51.009606015764604
 20
150.55902209549077
 10
51.46939208228302
 20
152.39730464862683
 10
51.783817756701254
 20
153.49489125111972
 10
52.0945226844547
 20
154.60487443830831
 10
52.722132516306004
 20
156.5865905542198
 10
52.790673831595825
 20
156.80787188325877
 10
52.93470897117234
 20
157.22309598136735
 10
53.629888581878845
 20
159.14102702959045
 10
54.09615605248122
 20
160.3025477082296
 10
54.505432870369305
 20
161.34060913019317
 10
55.151756257026975
 20
162.83191855683324
 10
55.54844492345562
 20
163.69961236846405
 10
55.910801898712535
 20
164.42713487969456
 10
56.63005632638804
 20
165.8914714528521
 10
57.425256372666
 20
167.38623324175
 10
57.92718205613018
 20
168.27139554120566
 10
58.60830679110538
 20
169.38877473249525
 10
59.24940038368504
 20
170.45102076011386
 10
59.75983023695939
 20
171.24154841949073
 10
60.87586722329358
 20
172.84442115953428
 10
62.04981272780786
 20
174.43071020973528
 10
62.71382874725916
 20
175.25255598212064
 10
64.39260578284957
 20
177.21938952315753
 10
64.81818417896942
 20
177.6695355803299
 10
66.7942995131717
 20
179.6595039441141
 10
67.2724857301062
 20
180.08674762998587
 10
69.25929218320104
 20
181.78601740827645
 10
70.21104108460811
 20
182.49275974317723
 10
71.78889856585846
 20
183.62022901425735
 10
73.86725969437077
 20
184.87381124987832
 10
74.38014553926827
 20
185.17298299541915
 10
74.86608681351575
 20
185.40314423762126
 10
76.42150032078949
 20
186.14999999999998
 10
20.0
 20
186.14999999999998
 10
20.0
 20
20.0
  0
LWPOLYLINE
  5
91
330
17
100
AcDbEntity
  8
GRABADO
100
AcDbPolyline
 90
62
 70
1
 10
253.14999999999998
 20
193.14999999999998
 10
253.14999999999998
 20
31.84902360460562
 10
252.45367332414585
 20
32.68551484771392
 10
251.96646075391547
 20
33.249828609174685
 10
251.50527679579966
 20
33.75172147978309
 10
251.00517108185326
 20
34.27644934082984
 10
250.4991390815923
 20
34.758016238174335
 10
249.94327449223914
 20
35.266175564570766
 10
249.43424058832193
 20
35.70771983776994
 10
248.9951509825696
 20
36.07353584840309
 10
248.29976948796903
 20
36.583860614368405
 10
247.30288918059472
 20
37.282813217819
 10
247.1120327678209
 20
37.41089158130997
 10
246.98646587309497
 20
37.49137275449035
 10
245.81612769374843
 20
38.123930935979175
 10
244.97651866145904
 20
38.553743318255854
 10
244.4514185587128
 20
38.76687226147751
 10
243.05317911900852
 20
39.29685390739954
 10
242.98960180472366
 20
39.3201341773743
 10
242.970202354071
 20
39.32675634767512
 10
241.36725521833554
 20
39.70460061422128
 10
240.96245189122985
 20
39.790671788368755
 10
239.58931564062556
 20
39.9331695112912
 10
238.95532583428965
 20
39.98551298508424
 10
237.59634479373207
 20
39.94697902171468
 10
236.94824518757292
 20
39.916174880069974
 10
235.29462314755685
 20
39.652643417386614
 10
234.94067840561738
 20
39.590219781558844
 10
233.91609684753064
 20
39.29513933012964
 10
232.93188483045145
 20
39.00399815551053
 10
232.4422411225533
 20
38.8029590754405
 10
230.92253313901477
 20
38.159157864575036
 10
229.27976882349122
 20
37.27878107206455
 10
228.91231496824153
 20
37.0758418927483
 10
228.30682570223408
 20
36.67239960245747
 10
226.90066034739263
 20
35.724288896258535
 10
226.31270213027094
 20
35.26354359668227
 10
224.88878061993964
 20
34.1087859042867
 10
223.9508190574387
 20
33.24506043458593
 10
222.8762746234443
 20
32.2147951316218
 10
221.9520807597207
 20
31.226658223453658
 10
220.86321786052773
 20
30.00636925259844
 10
220.2152022160727
 20
29.20826983114129
 10
218.84963111589002
 20
27.432480607943713
 10
218.67777955786195
 20
27.18984458665988
 10
218.33071691564894
 20
26.66833380177471
 10
217.34306061663406
 20
25.16958298698035
 10
216.83705021184213
 20
24.344404901362623
 10
216.15759167348443
 20
23.151361005170305
 10
215.4016113397387
 20
21.711284140461856
 10
215.10207696381588
 20
21.131691731568377
 10
214.82394015680316
 20
20.540662004156566
 10
214.19544229942537
 20
19.113476308908737
 10
213.78095728144763
 20
18.067575763420404
 10
213.4041795503183
 20
17.09424267885101
 10
212.81003149029465
 20
15.35998299445041
 10
212.7182702398509
 20
15.075789252553392
 10
212.68245394605097
 20
14.948434728431087
 10
212.15379814432148
 20
13.0
 10
13.0
 20
13.0
 10
13.0
 20
193.14999999999998
 10
253.14999999999998
 20
193.14999999999998
  0
LWPOLYLINE
  5
92
330
17
100
AcDbEntity
  8
GRABADO
100
AcDbPolyline
 90
271
 70
1
 10
87.68473513819207
 20
85.78589883741527
 10
88.46834900320428
 20
85.95725341541826
 10
89.6937517310686
 20
86.22613734453151
 10
90.09188065880173
 20
86.35828589906494
 10
91.70296082189775
 20
86.90320024120021
 10
93.42052875937506
 20
87.67816922549852
 10
93.71310742894026
 20
87.81157932362916
 10
93.99450083109367
 20
87.97160759362593
 10
95.7242054157947
 20
88.96100185043203
 10
97.22776846381228
 20
89.9907341855146
 10
97.73604407580663
 20
90.34167039556296
 10
99.49394792450704
 20
91.75238569068839
 10
99.74884674353746
 20
91.95741016842962
 10
99.80277604235249
 20
92.00666297932108
 10
101.76215326555358
 20
93.81334336892894
 10
101.9690025214065
 20
94.02601379478789
 10
103.77601814755334
 20
95.90590688492411
 10
103.89823624346023
 20
96.0455464532885
 10
104.69214638579558
 20
96.96554574048567
 10
105.64148678102595
 20
98.06751520762619
 10
105.78989719859744
 20
98.24292926366678
 10
107.22935674651845
 20
100.08713985727103
 10
107.80457671468123
 20
100.83974056366583
 10
108.70844571156134
 20
102.10696527037722
 10
109.81958700240536
 20
103.70298948542536
 10
110.0978993861942
 20
104.12699576274947
 10
110.59421684988531
 20
104.90444759152584
 10
111.38319995158547
 20
106.14840130386743
 10
111.83417256809172
 20
106.88362799112151
 10
112.58416975926289
 20
108.16846150512069
 10
113.55308420547033
 20
109.89263344380085
 10
113.71841516238135
 20
110.18952304376685
 10
113.84884144426098
 20
110.43448773971247
 10
114.75590437678403
 20
112.20957136097985
 10
115.61751596414885
 20
113.9834254174477
 10
115.73596019811868
 20
114.23027410309668
 10
115.86361073047348
 20
114.51256061402043
 10
116.62366398242503
 20
116.25029488190562
 10
117.15231337494266
 20
117.54256081194922
 10
117.44536297405273
 20
118.27063073375633
 10
117.87854893593345
 20
119.43426752407095
 10
118.18912274308335
 20
120.29061510957824
 10
118.3439548222461
 20
120.75698550787821
 10
118.84865256587794
 20
122.31061159937882
 10
119.25190538776675
 20
123.6881812607258
 10
119.43520196450743
 20
124.33041703880916
 10
119.89298797077996
 20
126.14642854774597
 10
119.94338830082305
 20
126.35028407915017
 10
119.95694658025558
 20
126.41362570982862
 10
120.36045099918154
 20
128.36985056784644
 10
120.45812210509335
 20
128.9362735640796
 10
120.69712907258236
 20
130.38930126052566
 10
120.8179756341749
 20
131.31699431988955
 10
120.95132178806125
 20
132.40867197262
 10
121.05351406489065
 20
133.57285600278362
 10
121.12147072829337
 20
134.42797741416373
 10
121.17981240359008
 20
135.7189978471575
 10
121.20651143762656
 20
136.44726370572226
 10
121.21006473146657
 20
137.76867450418513
 10
121.20580769105713
 20
138.4665455800879
 10
121.1556921787556
 20
139.73337280825245
 10
121.11907796505007
 20
140.48586645601083
 10
121.02649896149629
 20
141.62295164596966
 10
120.94631847712814
 20
142.50523653108831
 10
120.83084506593177
 20
143.4458285034862
 10
120.68772802873076
 20
144.5246926809637
 10
120.57581039445151
 20
145.20913029854592
 10
120.34363371068434
 20
146.54423000968714
 10
120.26736065941454
 20
146.9188646392481
 10
119.91442293093716
 20
148.5638927421259
 10
119.91049040141014
 20
148.5800796834627
 10
119.89311056044899
 20
148.6483581291499
 10
119.49525931034711
 20
150.18480046129548
 10
119.38777386208162
 20
150.58257173900986
 10
119.0398713875046
 20
151.74716708202402
 10
118.77413899648687
 20
152.602438944492
 10
118.54775501877924
 20
153.27277177270196
 10
118.07477085356697
 20
154.62242932228068
 10
118.0214808353901
 20
154.76420875390107
 10
117.87916552349034
 20
155.1296544430307
 10
117.44860469216181
 20
156.21031342738218
 10
117.27124429470956
 20
156.64120703839026
 10
116.84257675960723
 20
157.62179294138002
 10
116.37346733256675
 20
158.66146599982764
 10
116.20963176244543
 20
159.00640172252335
 10
115.86498435232684
 20
159.70982428729607
 10
115.53958319977937
 20
160.35455122933212
 10
115.37044668164036
 20
160.68025593222552
 10
114.83448662851315
 20
161.66685675344854
 10
114.25674984477759
 20
162.70079115331706
 10
114.10765716418668
 20
162.95752155367853
 10
113.85126773108023
 20
163.38679078466032
 10
113.34164653374455
 20
164.20890078592413
 10
113.01680777325977
 20
164.71965031068711
 10
112.54771126783771
 20
165.43237279192252
 10
111.83683316254908
 20
166.48507322991318
 10
111.73195212957131
 20
166.63333033511327
 10
111.65584088477235
 20
166.7384385831143
 10
110.87093774652898
 20
167.78965781325894
 10
110.12970043392319
 20
168.75941109570348
 10
109.99496272032233
 20
168.93116631494618
 10
109.82389732800038
 20
169.1441471518352
 10
109.07438858794107
 20
170.026407510555
 10
108.42188416993704
 20
170.77832493348347
 10
108.13349914473827
 20
171.10300575837567
 10
107.81023392760869
 20
171.4592356697201
 10
107.15211721030889
 20
172.13665757017955
 10
106.49798606738096
 20
172.79723361548832
 10
106.14463987259748
 20
173.14669794653724
 10
105.79699300572804
 20
173.48395591430855
 10
105.09491017224016
 20
174.11117553441278
 10
104.29230863706661
 20
174.81618275002688
 10
104.01844635063968
 20
175.05228833312935
 10
103.7842012716659
 20
175.2508204119569
 10
102.88982746772736
 20
175.93701568974365
 10
101.77098429975545
 20
176.78303424591238
 10
101.74241461357148
 20
176.80215352107157
 10
101.69654177276728
 20
176.83249081216852
 10
100.51950577363512
 20
177.59684689596384
 10
99.75926135587879
 20
178.0846750344258
 10
99.26735138100827
 20
178.35639505836699
 10
98.36251084973819
 20
178.8517873592646
 10
97.96117192098643
 20
179.06793789043203
 10
97.74800082743509
 20
179.18172344529296
 10
96.58064201148132
 20
179.69831399154964
 10
95.73671371404254
 20
180.06983109776922
 10
95.14548997875028
 20
180.27341429601492
 10
93.72612068048377
 20
180.76200822340556
 10
93.64431312185687
 20
180.7819964122651
 10
93.2976782016321
 20
180.86731002800352
 10
92.02069590714494
 20
181.17607250570663
 10
91.71623231456475
 20
181.2502390639536
 10
90.29005538992523
 20
181.4547657821652
 10
89.70654808098065
 20
181.54043178238024
 10
88.4228198639226
 20
181.59673074089045
 10
87.69714794254342
 20
181.63197449160583
 10
86.37400010783047
 20
181.55715270197268
 10
85.68780038587572
 20
181.52227500958128
 10
84.07592297381349
 20
181.26842887763107
 10
83.67826436261949
 20
181.20836301885456
 10
82.3607735521789
 20
180.8676209385352
 10
81.66930651173861
 20
180.68418656650556
 10
81.37820832462619
 20
180.574649581514
 10
79.65891269206175
 20
179.9393545324714
 10
77.87927906554991
 20
179.0848360249056
 10
77.64782981160918
 20
178.97521239214
 10
77.43864125693247
 20
178.85319049258396
 10
75.63723976497518
 20
177.7666589564812
 10
74.33284971849206
 20
176.83459778341054
 10
73.62598598672723
 20
176.30970038294538
 10
71.87987375941495
 20
174.81629082976343
 10
71.61403627698961
 20
174.5787737667197
 10
69.84574837209945
 20
172.7980897510197
 10
69.60139716315669
 20
172.53963270932366
 10
68.09937777888379
 20
170.77988615475124
 10
67.58812013587341
 20
170.14710784790404
 10
66.56275452265443
 20
168.76158676668922
 10
65.57427115302094
 20
167.34190886481593
 10
65.18765867397686
 20
166.74314322408384
 10
64.5934183515336
 20
165.75852969920646
 10
63.96180225804068
 20
164.7223690027691
 10
63.56090896524263
 20
164.0153806166791
 10
62.863140574454704
 20
162.7037640832892
 10
62.18525881605824
 20
161.3236585004785
 10
61.866227122481504
 20
160.68312235871247
 10
61.546881472911465
 20
159.98460418223468
 10
60.97467332217501
 20
158.66430628367584
 10
60.6003459698714
 20
157.71488826968417
 10
60.17035984972428
 20
156.643748201874
 10
59.5322425780916
 20
154.8832464425834
 10
59.442534678284446
 20
154.62463675955638
 10
59.40215448140982
 20
154.49427183157843
 10
58.80354658657144
 20
152.60413109109027
 10
58.518986297569654
 20
151.5875487703098
 10
58.23140210666671
 20
150.58365951855626
 10
57.79555626839402
 20
148.84109301057018
 10
57.724366895889744
 20
148.5632337736947
 10
57.51804603338064
 20
147.62687469593723
 10
57.28722068076293
 20
146.54370026200462
 10
57.236724757902294
 20
146.2621144990849
 10
56.915920488200484
 20
144.52325887242904
 10
56.80819998142522
 20
143.81161529545187
 10
56.604212427735916
 20
142.50282979991385
 10
56.475089957453775
 20
141.45686951074222
 10
56.35113531232837
 20
140.48243205156624
 10
56.227432664893
 20
139.18789402536908
 10
56.15591804383595
 20
138.46204603839968
 10
56.05668314374189
 20
136.99611915661416
 10
56.01797653822125
 20
136.4416828082972
 10
55.95550975774083
 20
134.8741842964679
 10
55.93691476620404
 20
134.42132253845148
 10
55.91760716638059
 20
132.81577889308747
 10
55.91251910541456
 20
132.4009759976961
 10
55.93755732589578
 20
130.81543042349432
 10
55.94476518233907
 20
130.3806231287352
 10
56.010697956880946
 20
128.86849429411163
 10
56.03381060542691
 20
128.3602747455119
 10
56.13303162171326
 20
126.97094535363341
 10
56.180005135611836
 20
126.3399184307422
 10
56.30113145861827
 20
125.11933547829732
 10
56.38388511774927
 20
124.31954199303661
 10
56.512073236891226
 20
123.31073297969259
 10
56.646180363723744
 20
122.29915625991916
 10
56.763377271102186
 20
121.54264381245558
 10
56.96781675444352
 20
120.27874153415151
 10
57.05295454233834
 20
119.81296512986746
 10
57.3499193034381
 20
118.2583089624423
 10
57.379067761592154
 20
118.11995465264354
 10
57.51795734388298
 20
117.4896839000393
 10
57.747412981615426
 20
116.46804960532275
 10
57.80112415265086
 20
116.23886594419817
 10
58.153079149611585
 20
114.85499490217437
 10
58.322153880351266
 20
114.21847210048671
 10
58.59051269579477
 20
113.27380369576461
 10
58.909987047110945
 20
112.19802616469359
 10
59.058875568271944
 20
111.72363043536515
 10
59.53272816810639
 20
110.28073394708689
 10
59.55849302251872
 20
110.20410551299484
 10
59.56729629049356
 20
110.17902869472181
 10
60.10120298446502
 20
108.72865531970177
 10
60.32051373798633
 20
108.15857571600097
 10
60.671578562978624
 20
107.28092419968787
 10
61.149777711002514
 20
106.13805064869334
 10
61.269517052365615
 20
105.8608035186678
 10
61.546529743501694
 20
105.24819655927243
 10
61.904941246165365
 20
104.47833602136748
 10
62.079551537450016
 20
104.11941170634589
 10
62.57421880605696
 20
103.12987692691388
 10
63.113310932158825
 20
102.09880702540941
 10
63.26914794039487
 20
101.80708446477342
 10
63.56033819533785
 20
101.28638026931681
 10
64.0027909455565
 20
100.52392539294118
 10
64.27174564401827
 20
100.08044347441387
 10
64.7699711614696
 20
99.27366850452434
 10
65.55414021003332
 20
98.05970551345192
 10
65.56178601234606
 20
98.04802710460122
 10
65.57337259799093
 20
98.03112207395408
 10
66.40391864934463
 20
96.87456515447006
 10
67.02932183942153
 20
96.04153341180141
 10
67.2704200469479
 20
95.72384458776763
 10
67.58684129162678
 20
95.32535626253492
 10
68.18105905402388
 20
94.61994384324211
 10
68.70616960966855
 20
94.02355952444793
 10
69.12734501764389
 20
93.54920385812113
 10
69.59959347058674
 20
93.0407517343779
 10
70.11606996674797
 20
92.52454931741524
 10
70.65882882297757
 20
92.00569617648145
 10
71.14866796418106
 20
91.54027768152815
 10
71.61152487601227
 20
91.11995163740175
 10
72.22958969147402
 20
90.60906550574533
 10
73.0160285940562
 20
89.98783276257547
 10
73.35690353982511
 20
89.71962111956314
 10
73.62255064566003
 20
89.52000779167645
 10
74.55025392858927
 20
88.90209130181135
 10
75.63407636537416
 20
88.21341075769847
 10
75.78781629312807
 20
88.1298170807411
 10
76.0907375853762
 20
87.97309220275068
 10
77.11781052629104
 20
87.44325908913788
 10
77.64319139050433
 20
87.18555498079401
 10
78.52111129386803
 20
86.83778053616582
 10
79.6527739205154
 20
86.41389522126654
 10
80.00762970378257
 20
86.31619047105269
 10
81.405797492682
 20
85.95663077167698
 10
81.61163105365155
 20
85.90378475431788
 10
81.66033006310464
 20
85.8921253017414
 10
83.370942651473
 20
85.65546063929399
 10
83.668590979692
 20
85.61855155453337
 10
85.30980796621485
 20
85.58669163642745
 10
85.67659893879222
 20
85.58387094361494
 10
87.49635376969569
 20
85.76533861641657
 10
87.68473513819207
 20
85.78589883741527
  0
LWPOLYLINE
  5
93
330
17
100
AcDbEntity
  8
GRABADO
100
AcDbPolyline
 90
296
 70
1
 10
207.02283599396557
 20
20.0
 10
207.26306053131873
 20
20.620574069572488
 10
207.7362022861581
 20
21.81448747540365
 10
208.45292884214328
 20
23.442021883196304
 10
208.82373699527946
 20
24.229974560240368
 10
209.19328227538077
 20
24.94503652409424
 10
210.01548812636238
 20
26.511267246208217
 10
210.8104269242999
 20
27.907079981181226
 10
211.4353064084621
 20
28.926104198074157
 10
212.4944417128589
 20
30.533323128410014
 10
212.906637335331
 20
31.152705442884848
 10
213.2167832812689
 20
31.590598350014574
 10
214.72260879819217
 20
33.54877447472208
 10
215.53169117741865
 20
34.545244520310064
 10
216.78366789901432
 20
35.948335199828094
 10
217.8941098988481
 20
37.13560636390495
 10
219.1571709226207
 20
38.346619987122004
 10
220.308806873504
 20
39.4071083294681
 10
221.94899563320837
 20
40.737252282984684
 10
222.7799052027183
 20
41.388383039178194
 10
224.40940442159547
 20
42.48707719334787
 10
225.27321252871909
 20
43.062639372026446
 10
225.93429952330126
 20
43.427747671260335
 10
227.89772792470987
 20
44.47997213341954
 10
229.74754249902412
 20
45.263617988886566
 10
230.60367239977555
 20
45.61512984310059
 10
231.9546262863297
 20
46.01475745845411
 10
233.35972545684677
 20
46.41942733979886
 10
234.1358159504677
 20
46.55630291556733
 10
236.22905242035236
 20
46.88989405991704
 10
237.33095046321046
 20
46.94226721840634
 10
239.14469002454598
 20
46.993695878360086
 10
240.23864827791854
 20
46.9033764842723
 10
242.05471059779777
 20
46.71491394448125
 10
242.89836170317517
 20
46.535532905965994
 10
244.90850184650898
 20
46.06170572153768
 10
245.32403811376548
 20
45.9198588219936
 10
245.49721873805902
 20
45.85644482388277
 10
246.14999999999998
 20
45.60901789698697
 10
246.14999999999998
 20
186.14999999999998
 10
99.29877126536698
 20
186.14999999999998
 10
99.40719411225083
 20
186.10226971006347
 10
100.81664999989007
 20
185.47854410233302
 10
101.26892254438087
 20
185.2371319973149
 10
101.70296682934894
 20
185.00336722638215
 10
102.64046782752855
 20
184.4900936046423
 10
103.34563311448927
 20
184.1005761350974
 10
104.31591769834061
 20
183.47797094226289
 10
105.53347081969972
 20
182.68730342118369
 10
105.61968440679615
 20
182.63028740381037
 10
105.83191987076698
 20
182.48825615404203
 10
107.13136511155952
 20
181.50567448584596
 10
108.18025803856489
 20
180.70092666089238
 10
108.5668664766731
 20
180.3732605376758
 10
108.887621742239
 20
180.0967269923027
 10
109.73662077525215
 20
179.3509640974009
 10
110.56785983438908
 20
178.6083602022201
 10
111.0429739385393
 20
178.14744416213574
 10
111.44626321173081
 20
177.74858542768288
 10
112.14959300179545
 20
177.03832599990338
 10
112.91398662163068
 20
176.2515096722884
 10
113.34235083915877
 20
175.77946337981024
 10
113.68231765055981
 20
175.39670874584277
 10
114.3853832958912
 20
174.58652678599609
 10
115.2211045596942
 20
173.60278409884043
 10
115.47769567870583
 20
173.2833215206789
 10
115.66441129861401
 20
173.0453081139176
 10
116.4563260158666
 20
172.00925409530365
 10
117.29545078384498
 20
170.88541594303976
 10
117.42425087619269
 20
170.70754535263234
 10
117.59540107726268
 20
170.46561187195783
 10
118.37207864243514
 20
169.31547261889614
 10
118.89404552973706
 20
168.52242144341184
 10
119.26994091651764
 20
167.93139471411308
 10
119.83131449041308
 20
167.0257988873354
 10
120.13936465138674
 20
166.51003482443005
 10
120.33917445442925
 20
166.16597198695246
 10
120.96556398918148
 20
165.04496722158095
 10
121.55263594467037
 20
163.96427908069657
 10
121.77053132325011
 20
163.54467986981635
 10
122.13280629273198
 20
162.82689374207305
 10
122.51438587541378
 20
162.04809291306762
 10
122.72585907107324
 20
161.6028620055086
 10
123.24003528700081
 20
160.46330878363673
 10
123.71550535000144
 20
159.37566112456977
 10
123.93679373705572
 20
158.83804532340056
 10
124.39211672947789
 20
157.6952361156411
 10
124.55934885638658
 20
157.26580755277635
 10
124.65486219189614
 20
157.01169192504727
 10
125.16701554612548
 20
155.55026532365673
 10
125.43352609315154
 20
154.76111597419842
 10
125.7360206309936
 20
153.78752345965512
 10
126.12131997994496
 20
152.49774296010358
 10
126.26251167155186
 20
151.97523502550004
 10
126.67323022452118
 20
150.389101084189
 10
126.70360440482227
 20
150.26977307511132
 10
126.73885915805366
 20
150.12465868538337
 10
127.11931576850806
 20
148.3513662158501
 10
127.22293659281108
 20
147.8424059935791
 10
127.47836017878045
 20
146.3736282062784
 10
127.6130381749826
 20
145.54999851239697
 10
127.77453349718643
 20
144.33259266496336
 10
127.90760298297731
 20
143.2486713638669
 10
128.00074548410498
 20
142.22375586784932
 10
128.1052572436334
 20
140.94010871920364
 10
128.14896497890373
 20
140.04182934023444
 10
128.2049634715993
 20
138.62629127577057
 10
128.21012214190262
 20
137.78061295267645
 10
128.20616652461655
 20
136.3095847653832
 10
128.1740211534253
 20
135.43275992155156
 10
128.10893863779046
 20
133.99257403234137
 10
128.0292258064129
 20
132.98952082961557
 10
127.91410410320849
 20
131.67804355800547
 10
127.7629415426987
 20
130.44050663302815
 10
127.62333855830033
 20
129.3688276544445
 10
127.36091393581236
 20
127.77343381002878
 10
127.23922228087964
 20
127.06770870166564
 10
126.80735441197864
 20
124.97397534733935
 10
126.76525210080013
 20
124.77728158109497
 10
126.68454933735507
 20
124.45086100579682
 10
126.19627230977751
 20
122.5138933189724
 10
125.97663219967103
 20
121.74431682430539
 10
125.53789555425259
 20
120.24552931621392
 10
124.9945124568399
 20
118.57281694832072
 10
124.80237988002158
 20
117.99409355416562
 10
124.449048313895
 20
117.01984966569125
 10
123.97343800138688
 20
115.74225134490388
 10
123.63864344033361
 20
114.91046774708377
 10
123.07070048824137
 20
113.52215001214434
 10
122.2596373771294
 20
111.66779025777454
 10
122.08141495101427
 20
111.27366901199257
 10
121.92135875499902
 20
110.94009716731838
 10
121.02147213044739
 20
109.08744388046536
 10
120.05534164006332
 20
107.19676755802153
 10
119.86618990529057
 20
106.84150559296029
 10
119.66215981348861
 20
106.4751228327812
 10
118.65849971841266
 20
104.68912141781979
 10
117.84106263214773
 20
103.2887554212766
 10
117.32264262217764
 20
102.44356834652822
 10
116.49996970964435
 20
101.14649744427005
 10
115.97422339366115
 20
100.32294706626452
 10
115.61909128962441
 20
99.7819066736633
 10
114.43051132067993
 20
98.07465087497398
 10
113.4363359486126
 20
96.68081659297481
 10
112.76933402789939
 20
95.80813110832663
 10
111.22303935944407
 20
93.82704521222225
 10
110.96525986240498
 20
93.52236210520283
 10
109.99171561088151
 20
92.39230115610992
 10
109.18179117537669
 20
91.45374417892337
 10
108.93583316498028
 20
91.17272629730228
 10
107.00131975772842
 20
89.16019340359219
 10
106.64731869539757
 20
88.79623001213598
 10
104.53566513316655
 20
86.84914037806563
 10
104.3072489873417
 20
86.64053137550002
 10
103.8781750146593
 20
86.29541142752934
 10
101.92065673358363
 20
84.7245058392387
 10
101.19406260445827
 20
84.2228327628577
 10
99.44576651062839
 20
83.02549220471562
 10
97.46252862723621
 20
81.89107642697884
 10
96.90177538929996
 20
81.5721763750398
 10
96.31209913362719
 20
81.30329564203379
 10
94.26994019867556
 20
80.38187075917318
 10
92.315876936464
 20
79.7209495204854
 10
91.55154101101327
 20
79.46724806678448
 10
89.96371950299765
 20
79.11884226454794
 10
88.81536784573657
 20
78.86772966634763
 10
88.22341047282009
 20
78.80312256371259
 10
85.9979050161016
 20
78.58119305475915
 10
85.21495932386452
 20
78.58721405705144
 10
83.16860133213329
 20
78.62693872390983
 10
82.46052893348399
 20
78.7147413476799
 10
80.36265405615771
 20
79.0049840672035
 10
79.92621723281503
 20
79.10947519549423
 10
79.66236995518503
 20
79.17721631160028
 10
78.20668299009431
 20
79.55156792498221
 10
77.49163264767739
 20
79.74844738528842
 10
76.00418000675617
 20
80.30560047689715
 10
74.80842642130251
 20
80.77927983819195
 10
73.97153839713506
 20
81.18978105120183
 10
72.87781388254076
 20
81.75399751715797
 10
72.50724916741748
 20
81.94571962864852
 10
72.08098579568451
 20
82.17749365844014
 10
70.73248558338233
 20
83.03435528856059
 10
69.5764886750683
 20
83.80433159997867
 10
69.0895507074892
 20
84.17022795664087
 10
68.68221792744615
 20
84.49073081419668
 10
67.82962818496318
 20
85.1642181795624
 10
67.0261855367508
 20
85.82833575474966
 10
66.3842783719202
 20
86.41125953182404
 10
65.82946973385448
 20
86.93840850705949
 10
65.22271697758393
 20
87.51843694832371
 10
64.55914673013883
 20
88.18165505815372
 10
63.944973424970144
 20
88.84291232519914
 10
63.462057402241754
 20
89.38680436496092
 10
62.8767245164842
 20
90.05158504892906
 10
62.16789267990484
 20
90.89305902085499
 10
61.740755819436814
 20
91.4309781872681
 10
61.44227265283
 20
91.82428167619106
 10
60.761396949811555
 20
92.73120233541646
 10
59.84279681805539
 20
94.01037684583632
 10
59.74589568677713
 20
94.15175728734077
 10
59.68586016152079
 20
94.24345720068312
 10
58.85147092168238
 20
95.53516548624748
 10
58.301068431892034
 20
96.42643045878293
 10
57.98235234561193
 20
96.95196439523174
 10
57.47795746054156
 20
97.82116079993435
 10
57.1266677865916
 20
98.44933431859194
 10
56.92442413631933
 20
98.82792882703139
 10
56.341445131278164
 20
99.94293696052691
 10
55.8014187762591
 20
101.02320827422456
 10
55.58416030036601
 20
101.46979907404997
 10
55.18423260586398
 20
102.32883553834934
 10
54.86680695279
 20
103.03081479917755
 10
54.70767224262258
 20
103.3992788409796
 10
54.192754828313866
 20
104.62990732744129
 10
53.80394937539545
 20
105.60190927982188
 10
53.54971747364223
 20
106.2627634307128
 10
52.979975715246624
 20
107.81048382145632
 10
52.938286324560096
 20
107.92923941053394
 10
52.88987282649008
 20
108.0732282135232
 10
52.39391395972825
 20
109.58343899939021
 10
52.215016596323096
 20
110.15345033757623
 10
51.868312835721284
 20
111.32091844278301
 10
51.57217114870788
 20
112.3633872529852
 10
51.37817179775713
 20
113.0937448283161
 10
51.00083348158256
 20
114.57742192711937
 10
50.924667941478745
 20
114.9024175843731
 10
50.68500702222785
 20
115.96949014196922
 10
50.536109310767145
 20
116.64517705178274
 10
50.48664495720948
 20
116.8799615628517
 10
50.17204637511709
 20
118.52693349346687
 10
50.06904840400115
 20
119.0904203519015
 10
49.84946570449955
 20
120.44794224366284
 10
49.716965394362404
 20
121.30323899298624
 10
49.570298517404055
 20
122.40955453189297
 10
49.42944685183781
 20
123.51802254530067
 10
49.33679445978201
 20
124.41348481655474
 10
49.20571385897165
 20
125.73437645079412
 10
49.15156451681489
 20
126.46180111890689
 10
49.045148590975444
 20
127.95187629719392
 10
49.0176279574367
 20
128.55702217333294
 10
48.94729317247486
 20
130.1701084897641
 10
48.9384299682483
 20
130.70490336151119
 10
48.91184118154925
 20
132.3886385576963
 10
48.918123388601245
 20
132.9007939135415
 10
48.93864200477948
 20
134.60704088975078
 10
48.961229910400775
 20
135.1571459343985
 10
49.02769150731049
 20
136.82488762764032
 10
49.07316541576789
 20
137.47625933563904
 10
49.179140146320464
 20
139.04174895833984
 10
49.26015369685487
 20
139.86400770352336
 10
49.3932852765177
 20
141.25721872959534
 10
49.5294129295219
 20
142.3273511492621
 10
49.67058170439259
 20
143.47089287567985
 10
49.889339857754564
 20
144.87444663654753
 10
50.01163665112351
 20
145.68238683374224
 10
50.34972290918253
 20
147.51491603501316
 10
50.41722217907936
 20
147.89131936291906
 10
50.676818025270904
 20
149.1095026368139
 10
50.913908067403156
 20
150.1855034372014
 10
51.009606015764604
 20
150.55902209549077
 10
51.46939208228302
 20
152.39730464862683
 10
51.783817756701254
 20
153.49489125111972
 10
52.0945226844547
 20
154.60487443830831
 10
52.722132516306004
 20
156.5865905542198
 10
52.790673831595825
 20
156.80787188325877
 10
52.93470897117234
 20
157.22309598136735
 10
53.629888581878845
 20
159.14102702959045
 10
54.09615605248122
 20
160.3025477082296
 10
54.505432870369305
 20
161.34060913019317
 10
55.151756257026975
 20
162.83191855683324
 10
55.54844492345562
 20
163.69961236846405
 10
55.910801898712535
 20
164.42713487969456
 10
56.63005632638804
 20
165.8914714528521
 10
57.425256372666
 20
167.38623324175
 10
57.92718205613018
 20
168.27139554120566
 10
58.60830679110538
 20
169.38877473249525
 10
59.24940038368504
 20
170.45102076011386
 10
59.75983023695939
 20
171.24154841949073
 10
60.87586722329358
 20
172.84442115953428
 10
62.04981272780786
 20
174.43071020973528
 10
62.71382874725916
 20
175.25255598212064
 10
64.39260578284957
 20
177.21938952315753
 10
64.81818417896942
 20
177.6695355803299
 10
66.7942995131717
 20
179.6595039441141
 10
67.2724857301062
 20
180.08674762998587
 10
69.25929218320104
 20
181.78601740827645
 10
70.21104108460811
 20
182.49275974317723
 10
71.78889856585846
 20
183.62022901425735
 10
73.86725969437077
 20
184.87381124987832
 10
74.38014553926827
 20
185.17298299541915
 10
74.86608681351575
 20
185.40314423762126
 10
76.42150032078949
 20
186.14999999999998
 10
20.0
 20
186.14999999999998
 10
20.0
 20
20.0
 10
207.02283599396557
 20
20.0
  0
TEXT
  5
94
330
17
100
AcDbEntity
  8
GRABADO
100
AcDbText
 10
61.78539501622859
 20
103.11546128722676
 30
0.0
 40
6.0
  1
04
 72
1
 11
61.78539501622859
 21
103.11546128722676
 31
0.0
100
AcDbText
 73
2
  0
LWPOLYLINE
  5
95
330
17
100
AcDbEntity
  8
CORTE
100
AcDbPolyline
 90
66
 70
1
 10
263.0
 20
13.0
 10
263.0
 20
253.14999999999998
 10
415.16179937171887
 20
253.14999999999998
 10
414.94781610279983
 20
252.8975945761033
 10
414.8188529553468
 20
252.73983686969416
 10
414.0556946390866
 20
251.7740233123339
 10
413.47661954204807
 20
251.01427064219945
 10
413.203252373149
 20
250.6145330359393
 10
412.80086213017734
 20
250.00208881783254
 10
412.41053058340015
 20
249.39140471020835
 10
412.17256682377933
 20
249.0041168436016
 10
411.69178807908645
 20
248.0995665321056
 10
411.1297855624225
 20
246.99307958696699
 10
411.0291627589381
 20
246.75271764174698
 10
410.78526987079096
 20
246.13720693698662
 10
410.46177261466823
 20
245.30417435746386
 10
410.34430253134747
 20
244.98482919689803
 10
410.005003213688
 20
243.7524517042611
 10
409.8061325530509
 20
242.9757427103517
 10
409.66441240894125
 20
242.08508133002084
 10
409.5066471547047
 20
240.96736598308354
 10
409.47790102327974
 20
240.26374297276124
 10
409.4462071004266
 20
238.95937708132675
 10
409.5033134984785
 20
238.2302171259205
 10
409.62269901596494
 20
236.95130942932633
 10
409.8313049306935
 20
235.8936740083015
 10
410.03160430120215
 20
234.94277273826555
 10
410.60950965450604
 20
233.10669922807767
 10
410.6660695426541
 20
232.93343686211483
 10
410.7843078722409
 20
232.65829727798592
 10
411.5368330484928
 20
230.92282444497096
 10
412.4020448621138
 20
229.30972193293394
 10
412.61905683998066
 20
228.9116520905127
 10
412.8008459923176
 20
228.629804215942
 10
413.9293133056376
 20
226.8995418518793
 10
414.82022472194205
 20
225.71171531701708
 10
415.44848078626075
 20
224.88687811771
 10
416.83956043542196
 20
223.26422518438102
 10
417.1811983716275
 20
222.87370096269086
 10
418.85888823449864
 20
221.14073242905874
 10
419.1376153952092
 20
220.8601109015258
 10
420.8782275934659
 20
219.25453928510808
 10
421.3351852190797
 20
218.8461397852393
 10
422.8975829424327
 20
217.55205050313515
 10
423.8008222428667
 20
216.83187022842907
 10
424.916960462711
 20
215.9990287294982
 10
426.57362704156424
 20
214.8173273116705
 10
426.9363592124655
 20
214.5731286595618
 10
427.61969363706584
 20
214.13665453515733
 10
428.95693904246946
 20
213.29048115888872
 10
429.77448104258724
 20
212.80373964661726
 10
430.97612093104095
 20
212.12451576300657
 10
432.42256978708616
 20
211.36176133660223
 10
432.99620578528317
 20
211.06326482227547
 10
433.5647572447571
 20
210.78994981673145
 10
435.01527640288225
 20
210.12430433333418
 10
436.16811845311724
 20
209.64034008477722
 10
437.03497240477407
 20
209.28305273408637
 10
438.39698558888324
 20
208.77570486351
 10
439.0540922929812
 20
208.5408044602359
 10
439.3999964293221
 20
208.43036183825615
 10
441.0735661917297
 20
207.90961233274606
 10
442.27077685488564
 20
207.58227479477426
 10
443.15
 20
207.34949346110307
 10
443.15
 20
13.0
 10
263.0
 20
13.0
  0
LWPOLYLINE
  5
96
330
17
100
AcDbEntity
  8
CORTE
100
AcDbPolyline
 90
305
 70
1
 10
377.0721993255624
 20
84.86719146773721
 10
377.05363038523126
 20
85.67445690689779
 10
376.8769154699067
 20
87.071040322432
 10
376.79503669030237
 20
87.68308796064237
 10
376.3280397895248
 20
89.62866222304139
 10
376.31245765796183
 20
89.69216038902103
 10
376.26270964849607
 20
89.83279238312137
 10
375.60384396790937
 20
91.70219174886701
 10
375.0401869547567
 20
92.92066885459867
 10
374.67136704974183
 20
93.71264770976497
 10
374.2459762808535
 20
94.4506325016398
 10
373.51307259672853
 20
95.72409340395002
 10
372.2266486444843
 20
97.59876068112678
 10
372.13227512617357
 20
97.73624452828203
 10
371.7646727785145
 20
98.19799501738008
 10
370.5280201404391
 20
99.74910096973215
 10
370.21041380105066
 20
100.10008970137021
 10
368.7040921101226
 20
101.76262125073458
 10
368.1908247275052
 20
102.27051217533811
 10
366.66450518441974
 20
103.77667559266473
 10
366.17101881366807
 20
104.21973676643412
 10
364.41324495690543
 20
105.79118620408494
 10
364.1509913526904
 20
106.00723642660456
 10
362.9328706822914
 20
107.00488033048141
 10
362.12878034759785
 20
107.66223790728696
 10
361.9515115820656
 20
107.80583810072373
 10
360.1086083083033
 20
109.19787378348435
 10
359.2743353266015
 20
109.82099803978245
 10
358.0882221417308
 20
110.65550808082773
 10
356.3867985254327
 20
111.83641721448532
 10
356.0676317817763
 20
112.04702865374682
 10
355.46083187143887
 20
112.4409905257054
 10
354.04586120269994
 20
113.3544330455645
 10
353.2594243427823
 20
113.85157115681601
 10
352.0252196124751
 20
114.59998548146847
 10
350.1784506097687
 20
115.69277822463573
 10
350.0037421934499
 20
115.79535449355765
 10
349.87849480369465
 20
115.8667087017202
 10
347.9830985901071
 20
116.91106048558599
 10
346.15791387389606
 20
117.88255282921348
 10
345.9623524213571
 20
117.98397250610687
 10
345.75876359776487
 20
118.08545789477412
 10
343.9413567381482
 20
118.98066874060888
 10
341.9899565619689
 20
119.89776158916054
 10
341.9206742487944
 20
119.92971173865213
 10
341.8637323568389
 20
119.95460758955655
 10
339.9000368307774
 20
120.8002244903791
 10
338.37621065176904
 20
121.41667484817917
 10
337.8795932258945
 20
121.61418125609534
 10
337.07359060161616
 20
121.9121639379451
 10
335.859171754383
 20
122.35563708034098
 10
335.1887902717989
 20
122.58104524299154
 10
333.83906911358565
 20
123.02490522912078
 10
332.24604987752065
 20
123.50042117823517
 10
331.8191495892935
 20
123.62461696564168
 10
330.6544589104519
 20
123.9267589650586
 10
329.7989359140858
 20
124.14735143268992
 10
329.5138952072518
 20
124.21177178383792
 10
327.77927224129843
 20
124.58981036024392
 10
326.96270869875326
 20
124.74129066491143
 10
325.75972075451966
 20
124.9545289248117
 10
324.55418286639485
 20
125.12874352348095
 10
323.74024668636304
 20
125.23948802006277
 10
322.2712223772809
 20
125.39116831471382
 10
321.7208361418382
 20
125.44322507360965
 10
320.09859316866675
 20
125.54373118706252
 10
319.7014448206367
 20
125.56479194369244
 10
318.0229587126138
 20
125.59971453075818
 10
317.6820592949058
 20
125.6036639750783
 10
316.0327314471009
 20
125.57063653421842
 10
315.6626380223697
 20
125.55968316025155
 10
314.1179884467015
 20
125.46637348545363
 10
313.64317233542624
 20
125.4329521159121
 10
312.27024706508985
 20
125.29534683770879
 10
311.6236270660056
 20
125.22377318983196
 10
310.48235507633615
 20
125.0646725608711
 10
309.6040083855569
 20
124.93255132112878
 10
308.7482745061199
 20
124.7803373780081
 10
307.5842731985572
 20
124.5597329126983
 10
307.06296547214697
 20
124.44734036857916
 10
305.5644276422578
 20
124.10573633604244
 10
305.4222536549748
 20
124.06983127304372
 10
304.88427192452497
 20
123.92688973872835
 10
303.8266603461394
 20
123.64529837917722
 10
303.54538958916766
 20
123.56683241485773
 10
302.27287678172513
 20
123.18111632421635
 10
301.5253394685859
 20
122.94439877264205
 10
300.75344585140226
 20
122.68259881828361
 10
299.50514897159155
 20
122.2411642236621
 10
299.2663442285514
 20
122.15175164583682
 10
298.6532179445916
 20
121.91271539388347
 10
297.81496406490646
 20
121.58375059532797
 10
297.4859170488402
 20
121.44970630631569
 10
296.3970092701513
 20
120.98391743028576
 10
295.4655024911763
 20
120.57061207677756
 10
295.0052344327804
 20
120.357866945557
 10
294.0460520476287
 20
119.89819764483758
 10
293.6420841887233
 20
119.7022239955144
 10
293.4461907963049
 20
119.60396758576643
 10
292.3120732886754
 20
119.01450812722713
 10
291.4255148131215
 20
118.53816808737662
 10
291.0039426052504
 20
118.30484649060234
 10
290.2683479086187
 20
117.8839957296002
 10
289.7238696642688
 20
117.56674320079209
 10
289.4061234030503
 20
117.37585360508326
 10
288.4726102552388
 20
116.80028056913099
 10
287.3852127692446
 20
116.108938912186
 10
287.2402688623864
 20
116.01481331661867
 10
287.0241461407865
 20
115.87006573543124
 10
286.04190820309475
 20
115.19564123378215
 10
285.3657316314342
 20
114.71800620191553
 10
284.86329211057546
 20
114.35646840610748
 10
284.1866021122149
 20
113.8554210516987
 10
283.71124512925167
 20
113.4915360240933
 10
283.3462871625654
 20
113.20475395366034
 10
282.58676792431027
 20
112.5982255945959
 10
281.66330266016723
 20
111.84103393245577
 10
281.48237867568685
 20
111.68623167269125
 10
281.3268695113002
 20
111.54993914250201
 10
280.41306312121105
 20
110.73775087075585
 10
279.41287826064166
 20
109.82694032602339
 10
279.3594484145256
 20
109.77563290966101
 10
279.30747711998526
 20
109.72462155323268
 10
278.34690837227583
 20
108.77033316860577
 10
277.40453571920887
 20
107.8131670558714
 10
277.34910435825975
 20
107.75307956137704
 10
277.28805450327366
 20
107.68558389335371
 10
276.3956165916784
 20
106.68867328541349
 10
275.61554567313215
 20
105.79973953987621
 10
275.46091975888044
 20
105.60902858461444
 10
275.2685832061013
 20
105.36763225265496
 10
274.5694673320354
 20
104.48252431423914
 10
274.0294464064086
 20
103.78667776477683
 10
273.7078372048218
 20
103.33055784580634
 10
273.249035518073
 20
102.67003110778197
 10
272.8822169247535
 20
102.13814358138477
 10
272.63485362671383
 20
101.77399341034626
 10
272.1068624746915
 20
100.90064107617388
 10
271.4264190356986
 20
99.76121053725711
 10
271.3609027669447
 20
99.63442223319655
 10
271.23169593331875
 20
99.38210016885513
 10
270.68011350538836
 20
98.2971607176012
 10
270.4041777480221
 20
97.74943156867725
 10
270.0524977048126
 20
96.91330259822128
 10
269.56065901708865
 20
95.73779152359593
 10
269.4752744804471
 20
95.47961124712647
 10
269.213646796212
 20
94.68839913073067
 10
268.975116218385
 20
93.96176838828497
 10
268.8980020754869
 20
93.72683236215828
 10
268.5706432727927
 20
92.35587900370703
 10
268.41671967011035
 20
91.71617826387023
 10
268.260039617243
 20
90.6564298706577
 10
268.1162343016084
 20
89.70594083087563
 10
268.067852199065
 20
88.83870569897866
 10
267.9986263207643
 20
87.69596841555189
 10
268.0293414153523
 20
86.867298916708
 10
268.06620222732045
 20
85.68607445496554
 10
268.19599982010465
 20
84.69064226577427
 10
268.3215399109107
 20
83.67606137222535
 10
268.6448740317141
 20
82.23174418276523
 10
268.7675157009639
 20
81.66574703255408
 10
269.2138444501511
 20
80.25847466783962
 10
269.40844655572573
 20
79.65587269487197
 10
269.55134327831865
 20
79.31989193390689
 10
270.25175868591583
 20
77.64462888313024
 10
271.2312691111679
 20
75.75945177946711
 10
271.2981708393193
 20
75.63378093071765
 10
271.4147228728646
 20
75.4501619107441
 10
272.56484394954396
 20
73.6213061670396
 10
273.24764228197637
 20
72.68485376137443
 10
274.05636267389286
 20
71.60929581332245
 10
275.26648711565196
 20
70.18891705805792
 10
275.7893418636586
 20
69.59672327539474
 10
277.2852718197697
 20
68.0738514240474
 10
277.7868566316163
 20
67.58361527046604
 10
279.30405947794463
 20
66.23057545931603
 10
280.07964612148976
 20
65.5700110688764
 10
281.3228936947622
 20
64.59144437992046
 10
282.70805009419973
 20
63.555962586733926
 10
283.34184740034004
 20
63.11321054908119
 10
284.65646561722417
 20
62.24605589237943
 10
285.3628861267532
 20
61.77573375888858
 10
285.73541926676216
 20
61.542432032184166
 10
287.3819073979346
 20
60.56865847281922
 10
289.26539013191916
 20
59.52756123194436
 10
289.40107981797235
 20
59.45610039147597
 10
289.54258105203115
 20
59.38693192097264
 10
291.4219449807755
 20
58.453035490761806
 10
293.42082101452183
 20
57.53551642852055
 10
293.4427489000834
 20
57.525274386338424
 10
293.4693133743708
 20
57.51387346916471
 10
295.4620754207001
 20
56.69123437450024
 10
296.78675763849867
 20
56.19301247522543
 10
297.4828013773583
 20
55.9254745236408
 10
298.70901378596915
 20
55.49889112992234
 10
299.502339016098
 20
55.23122067948569
 10
299.88733353583814
 20
55.11485917381532
 10
301.52305234652067
 20
54.607306789991455
 10
302.75908056075696
 20
54.26670509394171
 10
303.54371346208916
 20
54.04450891437311
 10
305.4885269531782
 20
53.560381690907505
 10
305.5643554715466
 20
53.540963993662956
 10
305.81880345646704
 20
53.48438374263951
 10
307.58421142627463
 20
53.10001850954191
 10
308.0572749668196
 20
53.01218623084115
 10
309.6048769738664
 20
52.71517096004902
 10
310.5241027193532
 20
52.56757633174544
 10
311.6255062168391
 20
52.38459659501737
 10
312.90197679741266
 20
52.2116063072215
 10
313.6461322917944
 20
52.107161771582625
 10
315.1997764768657
 20
51.93542714163745
 10
315.66673513087676
 20
51.88192491687023
 10
317.4251595307772
 20
51.73140578936051
 10
317.6873327657257
 20
51.708126557405095
 10
319.5847268948147
 20
51.592952293005965
 10
319.70791292286316
 20
51.58519190247263
 10
321.684211956564
 20
51.51436375064512
 10
321.72849371660755
 20
51.512717310474926
 10
323.72852711991607
 20
51.49071771068847
 10
323.74906297063933
 20
51.49048494717256
 10
325.72200087948465
 20
51.51775237244068
 10
325.76963884419195
 20
51.51844547976437
 10
327.6682648161634
 20
51.591797496945276
 10
327.7902092848374
 20
51.59673374203727
 10
329.57051794603126
 20
51.709685724538005
 10
329.8107847379031
 20
51.72565527130071
 10
331.43148796233845
 20
51.86870662128594
 10
331.8313760632057
 20
51.90570215484753
 10
333.2534937030319
 20
52.066540794407686
 10
333.8519708912763
 20
52.137541492777956
 10
335.03851263925867
 20
52.301227577691606
 10
335.87258723885543
 20
52.42203168735436
 10
336.7881881791369
 20
52.57112760478978
 10
337.89321309751733
 20
52.76022216849748
 10
338.5038895043847
 20
52.87488037870149
 10
339.9138662174271
 20
53.1533544080128
 10
340.1867190959151
 20
53.21139418390733
 10
341.40521420765094
 20
53.4843157432572
 10
341.8370880371294
 20
53.58142240742403
 10
341.9336510012672
 20
53.60421551244379
 10
343.4518907527638
 20
53.985634379816744
 10
343.95427553487605
 20
54.11826026529789
 10
345.03745461218796
 20
54.41898937233519
 10
345.97492591287016
 20
54.69276510848751
 10
346.5942016123607
 20
54.88107395754764
 10
347.99561240299334
 20
55.329768881569066
 10
348.12236156355266
 20
55.37166658084769
 10
348.4870995362993
 20
55.49874104018812
 10
349.6181456433162
 20
55.89518524031732
 10
350.01505424947277
 20
56.04140251735693
 10
351.08528664983
 20
56.44651630211523
 10
352.0357646600653
 20
56.82502335965515
 10
352.5259239234936
 20
57.024295659164764
 10
353.66892384528
 20
57.51363373077959
 10
353.93844833255685
 20
57.63033451249895
 10
354.054965048611
 20
57.68332546445605
 10
355.3187981815979
 20
58.26813915479974
 10
356.0757354050616
 20
58.63638103624157
 10
356.6740591088371
 20
58.93100400667018
 10
357.8262046442147
 20
59.52802217972915
 10
358.00205847532595
 20
59.62074685254407
 10
358.09472467420403
 20
59.672045816082615
 10
359.29679055732856
 20
60.34390681777158
 10
360.1155942055062
 20
60.82481460055672
 10
360.56715693018765
 20
61.09142688464543
 10
361.29251865561014
 20
61.54185752901439
 10
361.80645644901966
 20
61.868961104721606
 10
362.1344120089771
 20
62.08804217978066
 10
363.0149375881164
 20
62.678174107614765
 10
364.1554213201793
 20
63.48109450727718
 10
364.1990375391896
 20
63.511786940196046
 10
364.2575947115075
 20
63.555106426123174
 10
365.34205604599885
 20
64.38461977920775
 10
366.1741460666227
 20
65.05254405387608
 10
366.4615029106361
 20
65.28272453650635
 10
366.8016116139786
 20
65.56883313423553
 10
367.54043624744105
 20
66.2187725475205
 10
368.1927372946736
 20
66.8205206612072
 10
368.5905050340333
 20
67.18612315992232
 10
369.00095322429956
 20
67.58200406031052
 10
369.59809348658933
 20
68.1925539250204
 10
370.2112380894244
 20
68.84971126689693
 10
370.5727664726795
 20
69.2351883294317
 10
370.89408993842665
 20
69.59453960822297
 10
371.49808089118636
 20
70.32286888981433
 10
372.2297418401396
 20
71.2477182233438
 10
372.3896551342342
 20
71.44851463637445
 10
372.50952546777563
 20
71.60637165440563
 10
373.2168781209761
 20
72.63321345178112
 10
373.8640714910554
 20
73.61861120622206
 10
374.0028520221442
 20
73.85823851967534
 10
374.24533457944256
 20
74.29784912834042
 10
374.72198713131394
 20
75.15610928468338
 10
374.971954584404
 20
75.62886390699546
 10
375.36936328994665
 20
76.51872874964535
 10
375.84455682119057
 20
77.63944287471496
 10
375.94852963998335
 20
77.94882596391771
 10
376.2619631612754
 20
78.93717351716691
 10
376.43506796890154
 20
79.47906742402085
 10
376.4860248499738
 20
79.64816931066983
 10
376.7960709776389
 20
81.12664255200293
 10
376.8994672606519
 20
81.6573026100617
 10
377.0228296604171
 20
82.90820925494789
 10
377.08848131554015
 20
83.6659693702201
 10
377.0721993255624
 20
84.86719146773721
  0
LWPOLYLINE
  5
97
330
17
100
AcDbEntity
  8
CORTE
100
AcDbPolyline
 90
332
 70
1
 10
436.15
 20
20.0
 10
436.15
 20
197.84794145946057
 10
435.2994311636585
 20
198.14588151360738
 10
434.55595343554046
 20
198.4135426856168
 10
434.0672057362499
 20
198.6076666311737
 10
432.29141180097645
 20
199.32481573281433
 10
430.31798859780764
 20
200.19459203883162
 10
430.04277870443235
 20
200.31760630591674
 10
429.72467456086684
 20
200.47129266309702
 10
427.76532534226595
 20
201.44737390518395
 10
425.6937366172266
 20
202.55298608702202
 10
425.5512677035934
 20
202.62985005767086
 10
425.38816655618893
 20
202.72333424967775
 10
423.2913542903514
 20
203.96786298561102
 10
421.8251387842821
 20
204.8849397708484
 10
421.0325137615898
 20
205.40137592257628
 10
419.5633320468416
 20
206.40240676973747
 10
418.88200612151144
 20
206.8699158935143
 10
418.4990929151087
 20
207.14268594873977
 10
416.6465056933422
 20
208.5246324129576
 10
415.6108361266523
 20
209.32108977946405
 10
414.4109666960426
 20
210.29448289494957
 10
412.9434652093548
 20
211.51383626447063
 10
412.1734331160654
 20
212.19449846728043
 10
410.4732902234222
 20
213.72447293205465
 10
409.93177950114796
 20
214.24796735608743
 10
408.18496238324525
 20
215.95772982188038
 10
407.68396712954484
 20
216.49057077605738
 10
406.07025230355464
 20
218.2196683099885
 10
405.4282569883034
 20
218.97748630479492
 10
404.1273026951654
 20
220.5178466287275
 10
403.16408608463803
 20
221.79547670548766
 10
402.36013157938567
 20
222.86108742574532
 10
400.9406684270541
 20
225.0138215282799
 10
400.7579080652298
 20
225.2933923592438
 10
400.61750778404644
 20
225.54628121013394
 10
399.38138247503105
 20
227.76808641780286
 10
398.34171333559823
 20
230.05392197448316
 10
398.203588667735
 20
230.36299766556294
 10
398.1004356325701
 20
230.66290131341214
 10
397.30134982444133
 20
232.98023474198197
 10
396.9979682725032
 20
234.24062672369178
 10
396.656349293374
 20
235.71731824032554
 10
396.4369835900632
 20
237.4305325213362
 10
396.3117287469536
 20
238.4965939532737
 10
396.282416341423
 20
240.32349650287534
 10
396.2782180642264
 20
241.28457211726794
 10
396.438240526551
 20
242.98299062289198
 10
396.5519656011925
 20
244.04614680179435
 10
396.83275861190975
 20
245.4381877277919
 10
396.9861454431949
 20
246.14999999999998
 10
270.0014287823353
 20
246.14999999999998
 10
270.0277295934633
 20
117.28189987640584
 10
270.1117180228788
 20
117.36092492189164
 10
270.5371383281181
 20
117.75031373184734
 10
271.242652534902
 20
118.39459263193618
 10
272.06433503741914
 20
119.12476041145803
 10
272.4647334038236
 20
119.47043222961885
 10
272.78953237934377
 20
119.74260066550895
 10
273.6526126442903
 20
120.46307360130074
 10
274.7267053015787
 20
121.33364207832788
 10
274.9040939553255
 20
121.47451735039373
 10
275.0402022864112
 20
121.5791981288333
 10
276.1474959887875
 20
122.42619285158476
 10
277.1662150998567
 20
123.1810987480749
 10
277.4165292119179
 20
123.36492542908051
 10
277.75251540668626
 20
123.60404043546734
 10
278.7258074942838
 20
124.28722933359991
 10
279.4264681121815
 20
124.76259155874429
 10
280.0514655620349
 20
125.18196438901748
 10
280.9747627703435
 20
125.78095113968882
 10
281.3881274944039
 20
126.04736239021936
 10
281.68463917243463
 20
126.23162036006646
 10
282.7700984186946
 20
126.89720934927963
 10
283.84266242594543
 20
127.53152254511478
 10
284.1817708079019
 20
127.72853810840972
 10
284.7108896812065
 20
128.02507860950143
 10
285.57592385837273
 20
128.50936212815608
 10
286.1101896349668
 20
128.7970724455794
 10
287.04687269829697
 20
129.29105331608974
 10
288.28910655741436
 20
129.9212683185142
 10
288.5504237325773
 20
130.05039165032375
 10
288.9734503635678
 20
130.25146287880176
 10
290.0067502997249
 20
130.74460063788314
 10
290.5665874621433
 20
131.0008241627321
 10
291.57418282119266
 20
131.4479546343972
 10
292.7666077249854
 20
131.95525361903356
 10
293.1781801627562
 20
132.1238213269268
 10
294.0316082748826
 20
132.45873102747865
 10
294.7059510751252
 20
132.72572776989398
 10
295.0554704968491
 20
132.8578725462828
 10
296.3810587724946
 20
133.33697466598713
 10
297.2769484920543
 20
133.64582801873098
 10
298.09824837959
 20
133.91376670204428
 10
299.5091404972406
 20
134.35205738662026
 10
299.8592480537201
 20
134.45371083101017
 10
300.77342998263714
 20
134.70581893474625
 10
301.5123288690769
 20
134.91215144162032
 10
301.82299349943787
 20
134.9941885541763
 10
303.3614610187342
 20
135.36786098962872
 10
304.0767901849108
 20
135.53145405493163
 10
305.2631574628272
 20
135.77562906210008
 10
306.3408328207364
 20
135.98310797977015
 10
307.220587291477
 20
136.1309394217956
 10
308.6146530496994
 20
136.34778349267188
 10
309.2374299311557
 20
136.42846697956753
 10
310.8974439547843
 20
136.62398333234026
 10
311.31794228869876
 20
136.66199566112235
 10
313.18809809079926
 20
136.81021431979698
 10
313.4671225695672
 20
136.82433850419318
 10
315.48513858883075
 20
136.90510743265062
 10
315.69083551758104
 20
136.90722348436142
 10
317.7867650461166
 20
136.90756588160218
 10
317.9960051564667
 20
136.90118369544393
 10
320.0907757097226
 20
136.81694180433064
 10
320.3908422518349
 20
136.79545227747687
 10
322.39480046060413
 20
136.63316562640819
 10
322.8851458580532
 20
136.57780439060375
 10
324.6961794471364
 20
136.35691620400988
 10
325.49047870636593
 20
136.23445940687262
 10
326.99224428471604
 20
135.9897160065425
 10
328.22052398963996
 20
135.74994961797287
 10
329.2802921699528
 20
135.53400541950128
 10
331.09104318197683
 20
135.10711570338938
 10
331.55780454859
 20
134.9931831582893
 10
332.5830817183675
 20
134.71067309637104
 10
333.7623549475177
 20
134.38779433724054
 10
334.3106442378845
 20
134.22084863119974
 10
336.014029890085
 20
133.68890002700752
 10
337.53774955736776
 20
133.16803178338012
 10
338.2495628885642
 20
132.91930289540372
 10
339.37358060144106
 20
132.49491992890555
 10
340.4269379638906
 20
132.09734451370187
 10
341.14358575862144
 20
131.80770050707252
 10
342.6298674344218
 20
131.1965321689221
 10
344.58464168034385
 20
130.34426602824553
 10
344.7939065574926
 20
130.25248720084556
 10
344.98680864264753
 20
130.16341467101574
 10
346.9632495223126
 20
129.23809477894258
 10
349.01493217128586
 20
128.2348320882339
 10
349.1143319176309
 20
128.1856165088853
 10
349.2131551360302
 20
128.13487914920202
 10
351.2531386198566
 20
127.07415090429836
 10
353.15333306866376
 20
126.05477753377112
 10
353.3990105004177
 20
125.92039274202914
 10
353.67883469649405
 20
125.76318142530882
 10
355.50567607640437
 20
124.72780005284278
 10
356.8979693257836
 20
123.92189977059729
 10
357.6488011901798
 20
123.47540790718026
 10
358.73144932581704
 20
122.82018626566693
 10
359.7286845430933
 20
122.21258255188496
 10
360.4027975344867
 20
121.79658682959855
 10
361.87406887045626
 20
120.85620466085385
 10
363.67128910039725
 20
119.69582276923737
 10
364.03506102557765
 20
119.45059141051811
 10
364.6793625943951
 20
119.01281829827975
 10
366.08381946909407
 20
118.0548552062935
 10
366.8012104369132
 20
117.56349350046641
 10
368.255354351352
 20
116.51376853194776
 10
369.7508296948836
 20
115.43138486955701
 10
370.44918537795587
 20
114.89369667963965
 10
372.548626826605
 20
113.27517274303419
 10
372.6617825182432
 20
113.18143122507007
 10
372.7585668020424
 20
113.10123864881282
 10
374.68367579874325
 20
111.50469469535747
 10
375.18264493279605
 20
111.09183137346187
 10
376.9168482249577
 20
109.53120392454268
 10
377.6486568289832
 20
108.87467844882772
 10
379.17307653268904
 20
107.3685911493484
 10
379.9378631144376
 20
106.61599105190511
 10
381.45043135296146
 20
104.95314911150453
 10
382.03936047429414
 20
104.30889091600162
 10
383.7448298047196
 20
102.18924928578087
 10
383.9411370918482
 20
101.94674801585442
 10
384.1927663239361
 20
101.58631133134281
 10
385.64674290510897
 20
99.50259470821591
 10
386.34657338009936
 20
98.30900493545339
 10
387.1133188835836
 20
97.01094896821044
 10
387.8121116360301
 20
95.55303294392981
 10
388.3510701901039
 20
94.42554348960802
 10
388.89587770781696
 20
92.94527356886314
 10
389.3188599048034
 20
91.80712739270244
 10
389.51810101077746
 20
91.05096862766386
 10
390.0252116256458
 20
89.10236223462655
 10
390.2337659103246
 20
87.75564580577206
 10
390.4428652058504
 20
86.35995580929695
 10
390.517827832419
 20
84.7902198238625
 10
390.56593542991436
 20
83.60423267120481
 10
390.4775095892117
 20
82.06971607881768
 10
390.39619923726855
 20
80.861645149088
 10
390.18526825683716
 20
79.55202378487824
 10
389.9429551823895
 20
78.15614279268969
 10
389.6960956690556
 20
77.21516459698636
 10
389.2207637550048
 20
75.50579321763566
 10
389.05427684166017
 20
75.04491925639918
 10
388.87950438028423
 20
74.58563974275373
 10
388.4731055679538
 20
73.50064721721323
 10
388.21338382210007
 20
72.84252907072752
 10
387.6144246910716
 20
71.57514615049787
 10
386.99444710944607
 20
70.32676489132646
 10
386.6827083027256
 20
69.77781698284291
 10
386.3387675617262
 20
69.20098061500377
 10
385.8825018263156
 20
68.42340058997272
 10
385.4953854568942
 20
67.79496883469093
 10
384.8245528458806
 20
66.81025051188469
 10
384.0026010678
 20
65.66107368744383
 10
383.9193407058816
 20
65.54291837640201
 10
383.75789897182204
 20
65.32464506239134
 10
382.76902879885245
 20
64.08622476550286
 10
381.85991271666336
 20
63.00229603929074
 10
381.6021971164903
 20
62.71239356719305
 10
381.4101872784711
 20
62.50702072557769
 10
380.55151821656017
 20
61.57427547424811
 10
379.64987380425646
 20
60.64255090892749
 10
379.32534734750857
 20
60.32136557935763
 10
379.0721293310385
 20
60.08334604345906
 10
378.1977818794701
 20
59.249496223555425
 10
377.18146047514983
 20
58.32840877030503
 10
376.9239364841041
 20
58.10208812645688
 10
376.7400839060866
 20
57.94883974162239
 10
375.7261957835444
 20
57.09224171192942
 10
374.6119615961351
 20
56.19878134883629
 10
374.4963585742029
 20
56.1051086532312
 10
374.3193935069904
 20
55.968916399044474
 10
373.14938020204966
 20
55.08729769057412
 10
372.2803976868715
 20
54.46676151149137
 10
371.85510866126845
 20
54.16020845917981
 10
371.2312575400502
 20
53.7337198787677
 10
370.4753781239412
 20
53.22322417727395
 10
369.96062264021043
 20
52.89432159622329
 10
369.12148419918293
 20
52.353704212027324
 10
367.7303512761137
 20
51.50503743866511
 10
367.6400139264
 20
51.452563550239745
 10
366.2989993838635
 20
50.67783035565394
 10
365.4991449237224
 20
50.24109724574245
 10
364.85828277649466
 20
49.88998592563799
 10
363.6827241914999
 20
49.280712865063364
 10
363.3885879748857
 20
49.12801507679082
 10
363.2012622554375
 20
49.03629738223162
 10
361.8951407776698
 20
48.39551929094695
 10
361.03581218249855
 20
47.99752828489481
 10
360.3714847706018
 20
47.690571799404424
 10
358.837046141259
 20
47.0204502341323
 10
358.75303490768636
 20
46.98566703269729
 10
357.2702851283487
 20
46.37434312370527
 10
356.58502960654084
 20
46.10796736212548
 10
355.66552879298104
 20
45.753885168337305
 10
354.41346798176994
 20
45.29882402184545
 10
354.03124338748603
 20
45.16200073678361
 10
353.0721908583208
 20
44.837639827511225
 10
352.4250595369957
 20
44.616636986339685
 10
352.1432811893988
 20
44.52603957367523
 10
350.7401722737541
 20
44.08319785937741
 10
349.9699551108826
 20
43.854092182064726
 10
349.02516475716686
 20
43.58024778861773
 10
347.7942198059116
 20
43.24362084652644
 10
347.28030460102093
 20
43.107838092774884
 10
345.61619807779516
 20
42.692561928180766
 10
345.50571536144463
 20
42.66618942661289
 10
345.31970722842993
 20
42.624208005173614
 10
343.79091350039903
 20
42.27542030347655
 10
343.37039922716167
 20
42.18505314693327
 10
341.9621420027152
 20
41.89803340491987
 10
341.19459029116314
 20
41.75051683239677
 10
340.10162519533446
 20
41.55420877375724
 10
339.01745678704265
 20
41.37038633600916
 10
338.2089561132102
 20
41.244637963841974
 10
336.8391962288816
 20
41.043313343020266
 10
336.28346283329375
 20
40.970198703988146
 10
334.659967300194
 20
40.76814247774601
 10
334.32429128898974
 20
40.731990527892826
 10
332.47994787340036
 20
40.54390018790437
 10
332.33031081508847
 20
40.53134246992282
 10
331.40460217745624
 20
40.457711817324466
 10
330.43245030016567
 20
40.37967998284134
 10
330.277244588513
 20
40.367918875643014
 10
328.370114180656
 20
40.25812483813189
 10
328.1031219926184
 20
40.243601436850724
 10
326.2678295871412
 20
40.17946749178519
 10
325.92878803779
 20
40.16826888948047
 10
324.1210071988043
 20
40.14590503892562
 10
323.7543778185015
 20
40.141627917056724
 10
321.9345955289434
 20
40.160113123853066
 10
321.58001831602195
 20
40.16355636261673
 10
319.6983348872337
 20
40.22501370374235
 10
319.4058290750027
 20
40.23411353775255
 10
317.41127177625026
 20
40.34411698106662
 10
317.2319439883696
 20
40.35354001637123
 10
315.9063174345239
 20
40.456467607284125
 10
315.03161254995564
 20
40.524297546640696
 10
314.88648466864913
 20
40.53946216599964
 10
312.8521172028211
 20
40.74314146148355
 10
312.47216707619964
 20
40.79177291205386
 10
310.67349493804704
 20
41.012580367219044
 10
309.9900536592287
 20
41.1161411158771
 10
308.49596608792723
 20
41.33350135889211
 10
307.4332304816425
 20
41.51958337006597
 10
306.31963834870965
 20
41.70698863423472
 10
304.7936091603405
 20
42.01023349348363
 10
304.144871927832
 20
42.13426843171313
 10
301.9449104466538
 20
42.62340260220532
 10
301.81552813242075
 20
42.65524817526309
 10
299.7263040446233
 20
43.174930201710666
 10
298.9631355832781
 20
43.39006020111927
 10
297.5517906243225
 20
43.77536527551784
 10
295.9565054934563
 20
44.26466990098437
 10
295.379749817608
 20
44.43618092359828
 10
294.1999989059144
 20
44.82739328758472
 10
293.11574617296156
 20
45.193681296665616
 10
292.5202606523073
 20
45.415793364853386
 10
290.94571751054093
 20
45.988064791227416
 10
289.09222616796853
 20
46.72750661740341
 10
288.77919881977186
 20
46.8493223033514
 10
288.3051574010521
 20
47.050747173958854
 10
286.5017506066406
 20
47.8377304196939
 10
285.0362300108351
 20
48.53055440343297
 10
284.3407431992854
 20
48.852777153845636
 10
283.53625220625497
 20
49.2547725609687
 10
282.0531146768355
 20
50.02182267576718
 10
280.4086711982643
 20
50.93275132384143
 10
279.90028183048497
 20
51.20995755702181
 10
279.4161341602605
 20
51.49162920120361
 10
277.6055476565126
 20
52.59084354500938
 10
275.9096587185083
 20
53.68254408186384
 10
275.3005378855902
 20
54.09511351827088
 10
274.11544033740574
 20
54.941206101873405
 10
273.1651620937485
 20
55.613821439652554
 10
272.6703340577817
 20
55.981797964731285
 10
270.85866263422395
 20
57.41304624514056
 10
270.0
 20
58.12185483387175
 10
270.0
 20
20.0
 10
436.15
 20
20.0
  0
LWPOLYLINE
  5
98
330
17
100
AcDbEntity
  8
GRABADO
100
AcDbPolyline
 90
396
 70
1
 10
263.0
 20
79.00708902715036
 10
263.016157104482
 20
79.01001941826621
 10
263.5292622544191
 20
77.64201296030917
 10
263.869019880127
 20
76.92052704926098
 10
264.46694968515806
 20
75.63008722229874
 10
265.1628413765411
 20
74.3823991851538
 10
265.59640245109057
 20
73.61844381797991
 10
266.43807743095886
 20
72.34605956463623
 10
266.92350384470853
 20
71.60543045224125
 10
267.1797732848312
 20
71.26224869001032
 10
268.4565640502019
 20
69.59276810646486
 10
269.19908200291326
 20
68.72397905849894
 10
270.20551953356005
 20
67.57965002981318
 10
271.21835427923656
 20
66.53276677865682
 10
272.1855010907017
 20
65.56610654025334
 10
273.23763730493533
 20
64.59734935378977
 10
274.41747960038873
 20
63.55217689288568
 10
275.2569511802923
 20
62.85921013025353
 10
276.92947341124034
 20
61.53789185152844
 10
277.2763513123592
 20
61.27993774342916
 10
278.171207954659
 20
60.6465503048113
 10
279.2976047693462
 20
59.84236672299525
 10
279.76743241778536
 20
59.524143280864095
 10
281.31700561117714
 20
58.52663109170403
 10
282.99284648139337
 20
57.50922136360515
 10
283.33653316510856
 20
57.309268334314396
 10
283.78021624709305
 20
57.06734408554418
 10
285.3575975565233
 20
56.1935640849416
 10
286.70870572063046
 20
55.494797010529254
 10
287.3772020669692
 20
55.16075665055648
 10
288.0034882200939
 20
54.87059493439749
 10
289.3981625011859
 20
54.21126350349839
 10
291.07383706469716
 20
53.48002094032611
 10
291.4178772676899
 20
53.33383486747465
 10
291.6584951555749
 20
53.24019757593152
 10
293.4387934369628
 20
52.52995578408134
 10
294.9390301209263
 20
51.984691215422174
 10
295.4596715921025
 20
51.790495471048374
 10
296.4218408529533
 20
51.46545034803903
 10
297.4795165436044
 20
51.114718847711885
 10
297.9804946077914
 20
50.96574196947056
 10
299.50037290656763
 20
50.49956606940836
 10
300.8345621000017
 20
50.13532495090935
 10
301.52120249032225
 20
49.94176749374819
 10
303.4968975000776
 20
49.45032514809037
 10
303.5412534953089
 20
49.43940756561348
 10
303.55474680722966
 20
49.4365171676956
 10
305.5620950204682
 20
48.99009849744945
 10
306.1330658865778
 20
48.8809320544585
 10
307.5829199253749
 20
48.592824338513466
 10
308.6177433841612
 20
48.418674972756804
 10
309.6037298594663
 20
48.24603151823247
 10
311.018302898954
 20
48.04023906969634
 10
311.6245113610896
 20
47.94838128450351
 10
313.3429911935341
 20
47.73741834661952
 10
313.64529644472333
 20
47.69872499754479
 10
315.59890176637947
 20
47.50313154540187
 10
315.66606436056844
 20
47.49611363012008
 10
316.44785656403144
 20
47.435488705433045
 10
317.6866143268094
 20
47.33930599705451
 10
317.78766996880654
 20
47.33399588369437
 10
319.7074430035876
 20
47.22811692782807
 10
319.9214190880945
 20
47.22146014779244
 10
321.7282760983089
 20
47.16244669954547
 10
322.0041327256865
 20
47.159767902944935
 10
323.74909963718324
 20
47.142042664933285
 10
324.03935030621534
 20
47.14542874785701
 10
325.76993033847566
 20
47.1668392246974
 10
326.0300545342345
 20
47.175431172863384
 10
327.7907541538764
 20
47.23695848717364
 10
327.978844111351
 20
47.247189894876755
 10
329.81158025836254
 20
47.35270103372912
 10
329.88795013806475
 20
47.35848815542933
 10
330.8470551008212
 20
47.435472751616444
 10
331.7601001520378
 20
47.50809614545744
 10
331.83210453672496
 20
47.51413883813355
 10
333.5944102729145
 20
47.693862788826095
 10
333.8528667766166
 20
47.72169827974351
 10
335.39464501150724
 20
47.91358417378686
 10
335.8736452898836
 20
47.97660347895699
 10
337.16208498607705
 20
48.165975818047585
 10
337.8944265788941
 20
48.27987895523428
 10
338.89778042007356
 20
48.449999157592956
 10
339.91522778628973
 20
48.63274343551372
 10
340.6025478895665
 20
48.764840210669874
 10
341.9360356271651
 20
49.03662103293692
 10
342.2769961902695
 20
49.109892354606785
 10
343.77064249541684
 20
49.45066132321817
 10
343.9224704071245
 20
49.484928381568466
 10
343.9560931665478
 20
49.49295421859436
 10
345.53872573505464
 20
49.88789863701852
 10
345.9768770421658
 20
50.00366363185276
 10
347.1274495819249
 20
50.31831110273953
 10
347.9976856804892
 20
50.57054618921113
 10
348.688716888956
 20
50.77609753328886
 10
350.0185281235422
 20
51.1958054264185
 10
350.22242588227203
 20
51.26136266155224
 10
350.8197020040991
 20
51.465339374682756
 10
351.7301454811345
 20
51.77326022893392
 10
352.0383138215667
 20
51.88357391706535
 10
353.2119983741795
 20
52.310149234613306
 10
354.05917537422783
 20
52.63638090975742
 10
354.66784073287187
 20
52.872984181524316
 10
356.0800677310046
 20
53.45523220537375
 10
356.0971385476943
 20
53.46230004178477
 10
356.1370223254816
 20
53.479832320371926
 10
357.50233856013415
 20
54.07598038966539
 10
358.09969390326273
 20
54.35199202704783
 10
358.8822907768774
 20
54.71444819293045
 10
360.12061792264683
 20
55.32196664994892
 10
360.2364405850298
 20
55.37867529413704
 10
360.45955778350424
 20
55.49450429039187
 10
361.5656086004173
 20
56.06775259547291
 10
362.14013055545405
 20
56.38251788927995
 10
362.8703465722209
 20
56.781227314308964
 10
364.1311909359423
 20
57.509644457298165
 10
364.14918593664765
 20
57.52009714007244
 10
364.15947047629646
 20
57.52640074832708
 10
365.4025919529247
 20
58.2847430066944
 10
366.1805641314214
 20
58.785953848139286
 10
366.63138240988917
 20
59.07400380595267
 10
367.2970730629528
 20
59.523589030356405
 10
367.83263483557477
 20
59.889719622031095
 10
368.1998204845652
 20
60.15439111526656
 10
369.00844937813247
 20
60.73182906729171
 10
370.0783760975543
 20
61.538031363070175
 10
370.1575844746269
 20
61.59899010252035
 10
370.21894144847255
 20
61.64870742857492
 10
371.2771479417795
 20
62.49724139784374
 10
372.2402734630266
 20
63.31095191037912
 10
372.3717181686118
 20
63.42051626374956
 10
372.52033711177035
 20
63.55112753133318
 10
373.4311085285682
 20
64.37655551231
 10
374.2593892119636
 20
65.16647226387136
 10
374.4653503408051
 20
65.360071333098
 10
374.67211877114767
 20
65.56471100133864
 10
375.4605763113788
 20
66.37947261791507
 10
376.2784475553523
 20
67.26790048012028
 10
376.4289074599363
 20
67.42883170360527
 10
376.5613402600626
 20
67.57780443213883
 10
377.35154023349844
 20
68.5199508394455
 10
378.2070075375335
 20
69.59130287493058
 10
378.2436262139201
 20
69.6408122530114
 10
378.29474343030654
 20
69.71335302106202
 10
379.08446846142186
 20
70.81747339361957
 10
379.6197384454343
 20
71.60319870311037
 10
379.8831383039302
 20
72.03079321600312
 10
380.3138184027398
 20
72.7647695285381
 10
380.6323595731477
 20
73.29900729057657
 10
380.81148023455
 20
73.61442491046601
 10
381.3146986104917
 20
74.62770088755737
 10
381.78640901491383
 20
75.6258286042726
 10
381.93933622365057
 20
76.01333628419468
 10
382.33067781209013
 20
77.05812944182024
 10
382.4908437593043
 20
77.47902491791507
 10
382.54741918834293
 20
77.6356386815188
 10
382.9382392518437
 20
79.04109161088594
 10
383.09682208022673
 20
79.64557705973911
 10
383.2811161751266
 20
80.70723097432803
 10
383.4337543421418
 20
81.65492582744108
 10
383.49104457775775
 20
82.50611717701615
 10
383.5577597427345
 20
83.66387295074901
 10
383.5245977583776
 20
84.48140883804311
 10
383.4677087961595
 20
85.67267781106807
 10
383.31358267128087
 20
86.70143446061924
 10
383.1617887763163
 20
87.68162689571307
 10
382.74642372972187
 20
89.27769481759714
 10
382.63752580065415
 20
89.69098364751251
 10
382.3305004836325
 20
90.51711697662765
 10
381.89467556789526
 20
91.70127558770001
 10
381.4981591999009
 20
92.53077911816706
 10
380.93202493802664
 20
93.71192504360927
 10
380.31373386318955
 20
94.75865621521484
 10
379.7479699400018
 20
95.72358994795091
 10
378.45216310718297
 20
97.5806310261008
 10
378.3438628183619
 20
97.7357614987425
 10
378.2975351768369
 20
97.79299071354565
 10
376.72386248679044
 20
99.74882896091648
 10
376.27801169894985
 20
100.23656681192938
 10
374.8899863214962
 20
101.76249255411125
 10
374.25829592097494
 20
102.38411729012499
 10
372.8487821727599
 20
103.77668047299879
 10
372.23835904802456
 20
104.32430772163977
 10
370.60818495099784
 20
105.79131822371643
 10
370.2181647603567
 20
106.1140336394107
 10
368.2900298051731
 20
107.71308710049776
 10
368.19569223459615
 20
107.79125148981882
 10
368.1775003686891
 20
107.80632216456097
 10
366.1752916512286
 20
109.34988640036049
 10
365.5625966802505
 20
109.82161992392223
 10
364.1546601824557
 20
110.84064539263908
 10
362.77420060076884
 20
111.8371787319728
 10
362.1337983401662
 20
112.27580865805315
 10
360.7401445351827
 20
113.22640310650608
 10
360.11161450117544
 20
113.65346019039252
 10
359.81601349714197
 20
113.85273515044324
 10
358.09064618975026
 20
114.96672493674242
 10
356.6795807612721
 20
115.86862571835347
 10
356.06950112845243
 20
116.24510639851736
 10
355.0981576616181
 20
116.83693457263496
 10
354.0476543823464
 20
117.47270205830505
 10
353.3555714243364
 20
117.88425812593356
 10
352.02648485303445
 20
118.6535725239014
 10
350.2387206435478
 20
119.66680650317268
 10
350.00492816710346
 20
119.79815619907632
 10
349.81909090488614
 20
119.89980860403142
 10
347.9837883861686
 20
120.88437021856335
 10
345.9999001628455
 20
121.91593066495648
 10
345.96257979907807
 20
121.93509151349643
 10
345.9243984024556
 20
121.9539961850294
 10
343.941504161734
 20
122.92362168355996
 10
342.0355067345012
 20
123.81596172358054
 10
341.9206185802665
 20
123.86901132403949
 10
341.7800704974332
 20
123.93065252447172
 10
339.8996832684927
 20
124.75048651293858
 10
338.50097273310564
 20
125.32564504942914
 10
337.87916143979487
 20
125.57695945475643
 10
336.90138190807585
 20
125.94600904529314
 10
335.85837056070386
 20
126.33980733211561
 10
335.25105471625653
 20
126.5520216698071
 10
333.8382018388201
 20
127.03499121635537
 10
332.247812681104
 20
127.53165225813217
 10
331.8182156514455
 20
127.66245798549078
 10
330.72905867699126
 20
127.9606633917676
 10
329.7977113779285
 20
128.21729154158072
 10
329.45794565892766
 20
128.30022551142577
 10
327.7780050183816
 20
128.69627630933525
 10
326.8511203843488
 20
128.88514342488946
 10
325.7584127617945
 20
129.09844545973712
 10
324.39419594023514
 20
129.32077247835397
 10
323.73889961938187
 20
129.42179924842216
 10
322.068717561943
 20
129.62550805215344
 10
321.71945174295286
 20
129.66494104665924
 10
319.8582996894186
 20
129.8156628194866
 10
319.7000248089876
 20
129.82699781294957
 10
317.7486529161905
 20
129.90547287947132
 10
317.68060543447604
 20
129.90754844564825
 10
315.7274116266251
 20
129.90722936613656
 10
315.66115252621245
 20
129.9065477435006
 10
313.7840461236463
 20
129.83141857143826
 10
313.6416576625434
 20
129.82421088525464
 10
311.9095938862754
 20
129.6869366702566
 10
311.6220859204751
 20
129.66094644284777
 10
310.0965410685203
 20
129.48126786110095
 10
309.6024444411077
 20
129.41725546765787
 10
308.33857602972955
 20
129.2206633271805
 10
307.5826903823563
 20
129.09364645034273
 10
306.6304693460037
 20
128.91032056416083
 10
305.56283042909547
 20
128.69058191741792
 10
304.96790874901666
 20
128.55452558718406
 10
303.5428595088623
 20
128.20840087962335
 10
303.3473712220826
 20
128.1567783483835
 10
302.645250747943
 20
127.96071596391457
 10
301.7657300476204
 20
127.71816654465661
 10
301.52355444209894
 20
127.64785105447976
 10
300.2222003512899
 20
127.24358812877415
 10
299.5033495361588
 20
127.00907215741212
 10
298.71158222344707
 20
126.73611446654346
 10
297.4830285940092
 20
126.2920831946559
 10
297.23231781074935
 20
126.19729555673656
 10
296.59864722856673
 20
125.94640241878604
 10
295.78344017280176
 20
125.62649175840981
 10
295.46345287493125
 20
125.49543457282876
 10
294.3641824476134
 20
125.02776673911833
 10
293.4428995385706
 20
124.61893827642479
 10
292.9709850649891
 20
124.40295477628351
 10
291.9834489859944
 20
123.93165761273328
 10
291.60359623705267
 20
123.75110761120825
 10
291.4231851261268
 20
123.66196198301257
 10
290.26325661058706
 20
123.0735024535385
 10
289.40240323373166
 20
122.61951207287657
 10
288.9453752191135
 20
122.37339547526219
 10
288.1303842442527
 20
121.91712830409641
 10
287.6513565437848
 20
121.64866024706521
 10
287.382596443577
 20
121.49251570640783
 10
286.38155706324426
 20
120.90050209770658
 10
285.3615882659568
 20
120.27507096967973
 10
285.1317748233852
 20
120.1322605459789
 10
284.7757029746405
 20
119.90277423284849
 10
283.9067298826145
 20
119.33903011651245
 10
283.3416647216221
 20
118.95987180809091
 10
282.70190946330223
 20
118.52583073974138
 10
281.7928095452842
 20
117.88770064580811
 10
281.51786938435123
 20
117.69203094460856
 10
281.3217637255085
 20
117.54801408477346
 10
280.358026922881
 20
116.83385196975777
 10
279.3004242884713
 20
116.02486710134326
 10
279.21477426909877
 20
115.95899375891261
 10
279.1072971644285
 20
115.8736395604254
 10
278.0995888605588
 20
115.05687661410559
 10
277.28041950420607
 20
114.3730591581257
 10
277.00012945023013
 20
114.13818740256059
 10
276.67664853742497
 20
113.85891994132241
 10
275.92792620892203
 20
113.19358641114904
 10
275.2604333929966
 20
112.58402882446056
 10
274.87347476863596
 20
112.22984413608012
 10
274.4638226128533
 20
111.84440080216683
 10
273.8463226164574
 20
111.24073339300281
 10
273.2404742209782
 20
110.63341175905944
 10
272.8385932860132
 20
110.23021491427524
 10
272.44977424692445
 20
109.83010995014867
 10
271.86009708070344
 20
109.19301058679277
 10
271.22050768347435
 20
108.48601200973656
 10
270.9013686835608
 20
108.13342478206191
 10
270.6206708413136
 20
107.81606967768425
 10
269.9769356751809
 20
107.04276208417242
 10
269.2005359278536
 20
106.09072972564262
 10
269.07015864335233
 20
105.9311583781541
 10
268.9670345239098
 20
105.80230052372607
 10
268.2072711979105
 20
104.77958678230796
 10
267.48415365671497
 20
103.78840662157253
 10
267.36447112480744
 20
103.60853895763313
 10
267.18267013062484
 20
103.33107661324486
 10
266.5648738507873
 20
102.38974880657466
 10
266.1678474515863
 20
101.77535862177292
 10
265.8010457783205
 20
101.14041284257803
 10
265.1625969322058
 20
100.02128932514321
 10
265.0676569796461
 20
99.85536561378929
 10
265.01526550291317
 20
99.76264229997525
 10
264.39904993279185
 20
98.51148714228277
 10
264.02753420270096
 20
97.75016281817838
 10
263.77172923081355
 20
97.1269068485639
 10
263.20476056790807
 20
95.73823970704737
 10
263.19104481065904
 20
95.69619965667184
 10
263.0322342450026
 20
95.20939914928104
 10
263.0
 20
95.21452417750774
 10
263.0
 20
253.14999999999998
 10
407.82516187354713
 20
253.14999999999998
 10
407.34515574766465
 20
252.42405332118176
 10
406.7338314080661
 20
251.46808057911352
 10
406.56017272972815
 20
251.19228534986718
 10
406.4556148501109
 20
251.02085701345294
 10
405.8477394762981
 20
249.89285011960533
 10
405.38793058831004
 20
249.0088894553224
 10
405.1834908606344
 20
248.54625894905712
 10
404.7171270117185
 20
247.44680291722028
 10
404.5837053865693
 20
247.12928687060923
 10
404.5310308695299
 20
246.99905314557304
 10
404.0879424875666
 20
245.6152832079199
 10
403.8966171546013
 20
244.98888258263605
 10
403.68541805933836
 20
244.0087847044294
 10
403.4778062216716
 20
242.97954193939273
 10
403.4032316324135
 20
242.2823831500162
 10
403.2796555373079
 20
240.9707927411995
 10
403.28217105130864
 20
240.39493768195888
 10
403.3051568092803
 20
238.9623449253143
 10
403.3849170323955
 20
238.28349454671917
 10
403.55517719132047
 20
236.95378743501004
 10
403.81085499051176
 20
235.8485876067695
 10
404.02840318656195
 20
234.94478841335962
 10
404.71893530265004
 20
232.94225859762025
 10
404.72160688883696
 20
232.93449131824053
 10
404.7231488899482
 20
232.9310408479771
 10
405.6360420846241
 20
230.92393719865657
 10
406.73604413964574
 20
228.94679922043622
 10
406.7553106559419
 20
228.9120963898883
 10
406.79222716744357
 20
228.85562473655057
 10
408.0818652818949
 20
226.89978111754039
 10
408.7528488922328
 20
226.01041819510885
 10
409.60016820257977
 20
224.88651665137803
 10
410.7727115369445
 20
223.49819790730402
 10
411.30256890491523
 20
222.87274872007458
 10
412.79265787781935
 20
221.27611644844285
 10
413.1852175935734
 20
220.85860372358394
 10
414.8126878261007
 20
219.2656564772738
 10
415.24871856446293
 20
218.8441326720187
 10
416.83278640371987
 20
217.41861523167847
 10
417.4993284109524
 20
216.8294320601433
 10
418.8529296026578
 20
215.70471894123602
 10
419.95022652404975
 20
214.81453769177818
 10
420.87309440357495
 20
214.10482781461218
 10
422.623006227375
 20
212.79947256376056
 10
422.8932576942008
 20
212.60695763792825
 10
423.51435667915507
 20
212.18077476209845
 10
424.9143434123435
 20
211.22689009863586
 10
425.5921222600946
 20
210.78528216318836
 10
426.9342558501035
 20
209.94581514555728
 10
428.9152386445053
 20
208.77003510401988
 10
428.9541557041723
 20
208.74772913048048
 10
429.0035617912548
 20
208.72107385579255
 10
430.97455315518226
 20
207.66915074194458
 10
432.80801378258855
 20
206.75578292087067
 10
432.9942630459056
 20
206.66579990308958
 10
433.15784779567605
 20
206.59268022758476
 10
435.01428603347233
 20
205.7744644539854
 10
436.66982409758043
 20
205.10588032841554
 10
437.0341362444026
 20
204.96118049359677
 10
437.6420891583185
 20
204.74230992987833
 10
439.0536977643388
 20
204.24784701689322
 10
439.77693304087984
 20
204.02066139703527
 10
441.0733725138471
 20
203.62252390395696
 10
442.617167936304
 20
203.20318021563088
 10
443.15
 20
203.06244973933286
 10
443.15
 20
13.0
 10
263.0
 20
13.0
 10
263.0
 20
79.00708902715036
  0
LWPOLYLINE
  5
99
330
17
100
AcDbEntity
  8
GRABADO
100
AcDbPolyline
 90
332
 70
1
 10
436.15
 20
197.84794145946057
 10
435.2994311636585
 20
198.14588151360738
 10
434.55595343554046
 20
198.4135426856168
 10
434.0672057362499
 20
198.6076666311737
 10
432.29141180097645
 20
199.32481573281433
 10
430.31798859780764
 20
200.19459203883162
 10
430.04277870443235
 20
200.31760630591674
 10
429.72467456086684
 20
200.47129266309702
 10
427.76532534226595
 20
201.44737390518395
 10
425.6937366172266
 20
202.55298608702202
 10
425.5512677035934
 20
202.62985005767086
 10
425.38816655618893
 20
202.72333424967775
 10
423.2913542903514
 20
203.96786298561102
 10
421.8251387842821
 20
204.8849397708484
 10
421.0325137615898
 20
205.40137592257628
 10
419.5633320468416
 20
206.40240676973747
 10
418.88200612151144
 20
206.8699158935143
 10
418.4990929151087
 20
207.14268594873977
 10
416.6465056933422
 20
208.5246324129576
 10
415.6108361266523
 20
209.32108977946405
 10
414.4109666960426
 20
210.29448289494957
 10
412.9434652093548
 20
211.51383626447063
 10
412.1734331160654
 20
212.19449846728043
 10
410.4732902234222
 20
213.72447293205465
 10
409.93177950114796
 20
214.24796735608743
 10
408.18496238324525
 20
215.95772982188038
 10
407.68396712954484
 20
216.49057077605738
 10
406.07025230355464
 20
218.2196683099885
 10
405.4282569883034
 20
218.97748630479492
 10
404.1273026951654
 20
220.5178466287275
 10
403.16408608463803
 20
221.79547670548766
 10
402.36013157938567
 20
222.86108742574532
 10
400.9406684270541
 20
225.0138215282799
 10
400.7579080652298
 20
225.2933923592438
 10
400.61750778404644
 20
225.54628121013394
 10
399.38138247503105
 20
227.76808641780286
 10
398.34171333559823
 20
230.05392197448316
 10
398.203588667735
 20
230.36299766556294
 10
398.1004356325701
 20
230.66290131341214
 10
397.30134982444133
 20
232.98023474198197
 10
396.9979682725032
 20
234.24062672369178
 10
396.656349293374
 20
235.71731824032554
 10
396.4369835900632
 20
237.4305325213362
 10
396.3117287469536
 20
238.4965939532737
 10
396.282416341423
 20
240.32349650287534
 10
396.2782180642264
 20
241.28457211726794
 10
396.438240526551
 20
242.98299062289198
 10
396.5519656011925
 20
244.04614680179435
 10
396.83275861190975
 20
245.4381877277919
 10
396.9861454431949
 20
246.14999999999998
 10
270.0014287823353
 20
246.14999999999998
 10
270.0277295934633
 20
117.28189987640584
 10
270.1117180228788
 20
117.36092492189164
 10
270.5371383281181
 20
117.75031373184734
 10
271.242652534902
 20
118.39459263193618
 10
272.06433503741914
 20
119.12476041145803
 10
272.4647334038236
 20
119.47043222961885
 10
272.78953237934377
 20
119.74260066550895
 10
273.6526126442903
 20
120.46307360130074
 10
274.7267053015787
 20
121.33364207832788
 10
274.9040939553255
 20
121.47451735039373
 10
275.0402022864112
 20
121.5791981288333
 10
276.1474959887875
 20
122.42619285158476
 10
277.1662150998567
 20
123.1810987480749
 10
277.4165292119179
 20
123.36492542908051
 10
277.75251540668626
 20
123.60404043546734
 10
278.7258074942838
 20
124.28722933359991
 10
279.4264681121815
 20
124.76259155874429
 10
280.0514655620349
 20
125.18196438901748
 10
280.9747627703435
 20
125.78095113968882
 10
281.3881274944039
 20
126.04736239021936
 10
281.68463917243463
 20
126.23162036006646
 10
282.7700984186946
 20
126.89720934927963
 10
283.84266242594543
 20
127.53152254511478
 10
284.1817708079019
 20
127.72853810840972
 10
284.7108896812065
 20
128.02507860950143
 10
285.57592385837273
 20
128.50936212815608
 10
286.1101896349668
 20
128.7970724455794
 10
287.04687269829697
 20
129.29105331608974
 10
288.28910655741436
 20
129.9212683185142
 10
288.5504237325773
 20
130.05039165032375
 10
288.9734503635678
 20
130.25146287880176
 10
290.0067502997249
 20
130.74460063788314
 10
290.5665874621433
 20
131.0008241627321
 10
291.57418282119266
 20
131.4479546343972
 10
292.7666077249854
 20
131.95525361903356
 10
293.1781801627562
 20
132.1238213269268
 10
294.0316082748826
 20
132.45873102747865
 10
294.7059510751252
 20
132.72572776989398
 10
295.0554704968491
 20
132.8578725462828
 10
296.3810587724946
 20
133.33697466598713
 10
297.2769484920543
 20
133.64582801873098
 10
298.09824837959
 20
133.91376670204428
 10
299.5091404972406
 20
134.35205738662026
 10
299.8592480537201
 20
134.45371083101017
 10
300.77342998263714
 20
134.70581893474625
 10
301.5123288690769
 20
134.91215144162032
 10
301.82299349943787
 20
134.9941885541763
 10
303.3614610187342
 20
135.36786098962872
 10
304.0767901849108
 20
135.53145405493163
 10
305.2631574628272
 20
135.77562906210008
 10
306.3408328207364
 20
135.98310797977015
 10
307.220587291477
 20
136.1309394217956
 10
308.6146530496994
 20
136.34778349267188
 10
309.2374299311557
 20
136.42846697956753
 10
310.8974439547843
 20
136.62398333234026
 10
311.31794228869876
 20
136.66199566112235
 10
313.18809809079926
 20
136.81021431979698
 10
313.4671225695672
 20
136.82433850419318
 10
315.48513858883075
 20
136.90510743265062
 10
315.69083551758104
 20
136.90722348436142
 10
317.7867650461166
 20
136.90756588160218
 10
317.9960051564667
 20
136.90118369544393
 10
320.0907757097226
 20
136.81694180433064
 10
320.3908422518349
 20
136.79545227747687
 10
322.39480046060413
 20
136.63316562640819
 10
322.8851458580532
 20
136.57780439060375
 10
324.6961794471364
 20
136.35691620400988
 10
325.49047870636593
 20
136.23445940687262
 10
326.99224428471604
 20
135.9897160065425
 10
328.22052398963996
 20
135.74994961797287
 10
329.2802921699528
 20
135.53400541950128
 10
331.09104318197683
 20
135.10711570338938
 10
331.55780454859
 20
134.9931831582893
 10
332.5830817183675
 20
134.71067309637104
 10
333.7623549475177
 20
134.38779433724054
 10
334.3106442378845
 20
134.22084863119974
 10
336.014029890085
 20
133.68890002700752
 10
337.53774955736776
 20
133.16803178338012
 10
338.2495628885642
 20
132.91930289540372
 10
339.37358060144106
 20
132.49491992890555
 10
340.4269379638906
 20
132.09734451370187
 10
341.14358575862144
 20
131.80770050707252
 10
342.6298674344218
 20
131.1965321689221
 10
344.58464168034385
 20
130.34426602824553
 10
344.7939065574926
 20
130.25248720084556
 10
344.98680864264753
 20
130.16341467101574
 10
346.9632495223126
 20
129.23809477894258
 10
349.01493217128586
 20
128.2348320882339
 10
349.1143319176309
 20
128.1856165088853
 10
349.2131551360302
 20
128.13487914920202
 10
351.2531386198566
 20
127.07415090429836
 10
353.15333306866376
 20
126.05477753377112
 10
353.3990105004177
 20
125.92039274202914
 10
353.67883469649405
 20
125.76318142530882
 10
355.50567607640437
 20
124.72780005284278
 10
356.8979693257836
 20
123.92189977059729
 10
357.6488011901798
 20
123.47540790718026
 10
358.73144932581704
 20
122.82018626566693
 10
359.7286845430933
 20
122.21258255188496
 10
360.4027975344867
 20
121.79658682959855
 10
361.87406887045626
 20
120.85620466085385
 10
363.67128910039725
 20
119.69582276923737
 10
364.03506102557765
 20
119.45059141051811
 10
364.6793625943951
 20
119.01281829827975
 10
366.08381946909407
 20
118.0548552062935
 10
366.8012104369132
 20
117.56349350046641
 10
368.255354351352
 20
116.51376853194776
 10
369.7508296948836
 20
115.43138486955701
 10
370.44918537795587
 20
114.89369667963965
 10
372.548626826605
 20
113.27517274303419
 10
372.6617825182432
 20
113.18143122507007
 10
372.7585668020424
 20
113.10123864881282
 10
374.68367579874325
 20
111.50469469535747
 10
375.18264493279605
 20
111.09183137346187
 10
376.9168482249577
 20
109.53120392454268
 10
377.6486568289832
 20
108.87467844882772
 10
379.17307653268904
 20
107.3685911493484
 10
379.9378631144376
 20
106.61599105190511
 10
381.45043135296146
 20
104.95314911150453
 10
382.03936047429414
 20
104.30889091600162
 10
383.7448298047196
 20
102.18924928578087
 10
383.9411370918482
 20
101.94674801585442
 10
384.1927663239361
 20
101.58631133134281
 10
385.64674290510897
 20
99.50259470821591
 10
386.34657338009936
 20
98.30900493545339
 10
387.1133188835836
 20
97.01094896821044
 10
387.8121116360301
 20
95.55303294392981
 10
388.3510701901039
 20
94.42554348960802
 10
388.89587770781696
 20
92.94527356886314
 10
389.3188599048034
 20
91.80712739270244
 10
389.51810101077746
 20
91.05096862766386
 10
390.0252116256458
 20
89.10236223462655
 10
390.2337659103246
 20
87.75564580577206
 10
390.4428652058504
 20
86.35995580929695
 10
390.517827832419
 20
84.7902198238625
 10
390.56593542991436
 20
83.60423267120481
 10
390.4775095892117
 20
82.06971607881768
 10
390.39619923726855
 20
80.861645149088
 10
390.18526825683716
 20
79.55202378487824
 10
389.9429551823895
 20
78.15614279268969
 10
389.6960956690556
 20
77.21516459698636
 10
389.2207637550048
 20
75.50579321763566
 10
389.05427684166017
 20
75.04491925639918
 10
388.87950438028423
 20
74.58563974275373
 10
388.4731055679538
 20
73.50064721721323
 10
388.21338382210007
 20
72.84252907072752
 10
387.6144246910716
 20
71.57514615049787
 10
386.99444710944607
 20
70.32676489132646
 10
386.6827083027256
 20
69.77781698284291
 10
386.3387675617262
 20
69.20098061500377
 10
385.8825018263156
 20
68.42340058997272
 10
385.4953854568942
 20
67.79496883469093
 10
384.8245528458806
 20
66.81025051188469
 10
384.0026010678
 20
65.66107368744383
 10
383.9193407058816
 20
65.54291837640201
 10
383.75789897182204
 20
65.32464506239134
 10
382.76902879885245
 20
64.08622476550286
 10
381.85991271666336
 20
63.00229603929074
 10
381.6021971164903
 20
62.71239356719305
 10
381.4101872784711
 20
62.50702072557769
 10
380.55151821656017
 20
61.57427547424811
 10
379.64987380425646
 20
60.64255090892749
 10
379.32534734750857
 20
60.32136557935763
 10
379.0721293310385
 20
60.08334604345906
 10
378.1977818794701
 20
59.249496223555425
 10
377.18146047514983
 20
58.32840877030503
 10
376.9239364841041
 20
58.10208812645688
 10
376.7400839060866
 20
57.94883974162239
 10
375.7261957835444
 20
57.09224171192942
 10
374.6119615961351
 20
56.19878134883629
 10
374.4963585742029
 20
56.1051086532312
 10
374.3193935069904
 20
55.968916399044474
 10
373.14938020204966
 20
55.08729769057412
 10
372.2803976868715
 20
54.46676151149137
 10
371.85510866126845
 20
54.16020845917981
 10
371.2312575400502
 20
53.7337198787677
 10
370.4753781239412
 20
53.22322417727395
 10
369.96062264021043
 20
52.89432159622329
 10
369.12148419918293
 20
52.353704212027324
 10
367.7303512761137
 20
51.50503743866511
 10
367.6400139264
 20
51.452563550239745
 10
366.2989993838635
 20
50.67783035565394
 10
365.4991449237224
 20
50.24109724574245
 10
364.85828277649466
 20
49.88998592563799
 10
363.6827241914999
 20
49.280712865063364
 10
363.3885879748857
 20
49.12801507679082
 10
363.2012622554375
 20
49.03629738223162
 10
361.8951407776698
 20
48.39551929094695
 10
361.03581218249855
 20
47.99752828489481
 10
360.3714847706018
 20
47.690571799404424
 10
358.837046141259
 20
47.0204502341323
 10
358.75303490768636
 20
46.98566703269729
 10
357.2702851283487
 20
46.37434312370527
 10
356.58502960654084
 20
46.10796736212548
 10
355.66552879298104
 20
45.753885168337305
 10
354.41346798176994
 20
45.29882402184545
 10
354.03124338748603
 20
45.16200073678361
 10
353.0721908583208
 20
44.837639827511225
 10
352.4250595369957
 20
44.616636986339685
 10
352.1432811893988
 20
44.52603957367523
 10
350.7401722737541
 20
44.08319785937741
 10
349.9699551108826
 20
43.854092182064726
 10
349.02516475716686
 20
43.58024778861773
 10
347.7942198059116
 20
43.24362084652644
 10
347.28030460102093
 20
43.107838092774884
 10
345.61619807779516
 20
42.692561928180766
 10
345.50571536144463
 20
42.66618942661289
 10
345.31970722842993
 20
42.624208005173614
 10
343.79091350039903
 20
42.27542030347655
 10
343.37039922716167
 20
42.18505314693327
 10
341.9621420027152
 20
41.89803340491987
 10
341.19459029116314
 20
41.75051683239677
 10
340.10162519533446
 20
41.55420877375724
 10
339.01745678704265
 20
41.37038633600916
 10
338.2089561132102
 20
41.244637963841974
 10
336.8391962288816
 20
41.043313343020266
 10
336.28346283329375
 20
40.970198703988146
 10
334.659967300194
 20
40.76814247774601
 10
334.32429128898974
 20
40.731990527892826
 10
332.47994787340036
 20
40.54390018790437
 10
332.33031081508847
 20
40.53134246992282
 10
331.40460217745624
 20
40.457711817324466
 10
330.43245030016567
 20
40.37967998284134
 10
330.277244588513
 20
40.367918875643014
 10
328.370114180656
 20
40.25812483813189
 10
328.1031219926184
 20
40.243601436850724
 10
326.2678295871412
 20
40.17946749178519
 10
325.92878803779
 20
40.16826888948047
 10
324.1210071988043
 20
40.14590503892562
 10
323.7543778185015
 20
40.141627917056724
 10
321.9345955289434
 20
40.160113123853066
 10
321.58001831602195
 20
40.16355636261673
 10
319.6983348872337
 20
40.22501370374235
 10
319.4058290750027
 20
40.23411353775255
 10
317.41127177625026
 20
40.34411698106662
 10
317.2319439883696
 20
40.35354001637123
 10
315.9063174345239
 20
40.456467607284125
 10
315.03161254995564
 20
40.524297546640696
 10
314.88648466864913
 20
40.53946216599964
 10
312.8521172028211
 20
40.74314146148355
 10
312.47216707619964
 20
40.79177291205386
 10
310.67349493804704
 20
41.012580367219044
 10
309.9900536592287
 20
41.1161411158771
 10
308.49596608792723
 20
41.33350135889211
 10
307.4332304816425
 20
41.51958337006597
 10
306.31963834870965
 20
41.70698863423472
 10
304.7936091603405
 20
42.01023349348363
 10
304.144871927832
 20
42.13426843171313
 10
301.9449104466538
 20
42.62340260220532
 10
301.81552813242075
 20
42.65524817526309
 10
299.7263040446233
 20
43.174930201710666
 10
298.9631355832781
 20
43.39006020111927
 10
297.5517906243225
 20
43.77536527551784
 10
295.9565054934563
 20
44.26466990098437
 10
295.379749817608
 20
44.43618092359828
 10
294.1999989059144
 20
44.82739328758472
 10
293.11574617296156
 20
45.193681296665616
 10
292.5202606523073
 20
45.415793364853386
 10
290.94571751054093
 20
45.988064791227416
 10
289.09222616796853
 20
46.72750661740341
 10
288.77919881977186
 20
46.8493223033514
 10
288.3051574010521
 20
47.050747173958854
 10
286.5017506066406
 20
47.8377304196939
 10
285.0362300108351
 20
48.53055440343297
 10
284.3407431992854
 20
48.852777153845636
 10
283.53625220625497
 20
49.2547725609687
 10
282.0531146768355
 20
50.02182267576718
 10
280.4086711982643
 20
50.93275132384143
 10
279.90028183048497
 20
51.20995755702181
 10
279.4161341602605
 20
51.49162920120361
 10
277.6055476565126
 20
52.59084354500938
 10
275.9096587185083
 20
53.68254408186384
 10
275.3005378855902
 20
54.09511351827088
 10
274.11544033740574
 20
54.941206101873405
 10
273.1651620937485
 20
55.613821439652554
 10
272.6703340577817
 20
55.981797964731285
 10
270.85866263422395
 20
57.41304624514056
 10
270.0
 20
58.12185483387175
 10
270.0
 20
20.0
 10
436.15
 20
20.0
 10
436.15
 20
197.84794145946057
  0
TEXT
  5
9A
330
17
100
AcDbEntity
  8
GRABADO
100
AcDbText
 10
316.731593530817
 20
133.0436673393919
 30
0.0
 40
6.0
  1
06
 72
1
 11
316.731593530817
 21
133.0436673393919
 31
0.0
100
AcDbText
 73
2
  0
TEXT
  5
9B
330
17
100
AcDbEntity
  8
HOJA
100
AcDbText
 10
10.0
 20
691.0
 30
0.0
 40
6.0
  1
terreno_prueba  hoja 3/3  1:500  lamina 3.0mm
 11
10.0
 21
691.0
 31
0.0
100
AcDbText
  0
ENDSEC
  0
SECTION
  2
OBJECTS
  0
DICTIONARY
  5
A
330
0
100
AcDbDictionary
281
1
  3
ACAD_COLOR
350
B
  3
ACAD_GROUP
350
C
  3
ACAD_LAYOUT
350
D
  3
ACAD_MATERIAL
350
E
  3
ACAD_MLEADERSTYLE
350
F
  3
ACAD_MLINESTYLE
350
10
  3
ACAD_PLOTSETTINGS
350
11
  3
ACAD_PLOTSTYLENAME
350
12
  3
ACAD_SCALELIST
350
14
  3
ACAD_TABLESTYLE
350
15
  3
ACAD_VISUALSTYLE
350
16
  3
EZDXF_META
350
2D
  0
DICTIONARY
  5
B
330
A
100
AcDbDictionary
281
1
  0
DICTIONARY
  5
C
330
A
100
AcDbDictionary
281
1
  0
DICTIONARY
  5
D
330
A
100
AcDbDictionary
281
1
  3
Model
350
1A
  3
Layout1
350
1E
  0
DICTIONARY
  5
E
330
A
100
AcDbDictionary
281
1
  3
ByBlock
350
1F
  3
ByLayer
350
20
  3
Global
350
21
  0
DICTIONARY
  5
F
330
A
100
AcDbDictionary
281
1
  3
Standard
350
2C
  0
DICTIONARY
  5
10
330
A
100
AcDbDictionary
281
1
  3
Standard
350
22
  0
DICTIONARY
  5
11
330
A
100
AcDbDictionary
281
1
  0
ACDBDICTIONARYWDFLT
  5
12
330
A
100
AcDbDictionary
281
1
  3
Normal
350
13
100
AcDbDictionaryWithDefault
340
13
  0
ACDBPLACEHOLDER
  5
13
330
12
  0
DICTIONARY
  5
14
330
A
100
AcDbDictionary
281
1
  0
DICTIONARY
  5
15
330
A
100
AcDbDictionary
281
1
  0
DICTIONARY
  5
16
330
A
100
AcDbDictionary
281
1
  3
2dWireframe
350
5A
  3
Basic
350
5B
  3
Brighten
350
5C
  3
ColorChange
350
5D
  3
Conceptual
350
5E
  3
Dim
350
5F
  3
EdgeColorOff
350
60
  3
Facepattern
350
61
  3
Flat
350
62
  3
FlatWithEdges
350
63
  3
Gouraud
350
64
  3
GouraudWithEdges
350
65
  3
Hidden
350
66
  3
JitterOff
350
67
  3
Linepattern
350
68
  3
Modeling
350
69
  3
OverhangOff
350
6A
  3
Realistic
350
6B
  3
Shaded
350
6C
  3
Shaded with edges
350
6D
  3
Shades of Gray
350
6E
  3
Sketchy
350
6F
  3
Thicken
350
70
  3
Wireframe
350
71
  3
X-Ray
350
72
  0
LAYOUT
  5
1A
330
D
100
AcDbPlotSettings
  1

  4
A3
  6

 40
7.5
 41
20.0
 42
7.5
 43
20.0
 44
420.0
 45
297.0
 46
0.0
 47
0.0
 48
0.0
 49
0.0
140
0.0
141
0.0
142
1.0
143
1.0
 70
1024
 72
1
 73
0
 74
5
  7

 75
16
 76
0
 77
2
 78
300
147
1.0
148
0.0
149
0.0
100
AcDbLayout
  1
Model
 70
1
 71
0
 10
0.0
 20
0.0
 11
420.0
 21
297.0
 12
0.0
 22
0.0
 32
0.0
 14
1e+20
 24
1e+20
 34
1e+20
 15
-1e+20
 25
-1e+20
 35
-1e+20
146
0.0
 13
0.0
 23
0.0
 33
0.0
 16
1.0
 26
0.0
 36
0.0
 17
0.0
 27
1.0
 37
0.0
 76
1
330
17
  0
LAYOUT
  5
1E
330
D
100
AcDbPlotSettings
  1

  4
A3
  6

 40
7.5
 41
20.0
 42
7.5
 43
20.0
 44
420.0
 45
297.0
 46
0.0
 47
0.0
 48
0.0
 49
0.0
140
0.0
141
0.0
142
1.0
143
1.0
 70
0
 72
1
 73
0
 74
5
  7

 75
16
 76
0
 77
2
 78
300
147
1.0
148
0.0
149
0.0
100
AcDbLayout
  1
Layout1
 70
1
 71
1
 10
0.0
 20
0.0
 11
420.0
 21
297.0
 12
0.0
 22
0.0
 32
0.0
 14
1e+20
 24
1e+20
 34
1e+20
 15
-1e+20
 25
-1e+20
 35
-1e+20
146
0.0
 13
0.0
 23
0.0
 33
0.0
 16
1.0
 26
0.0
 36
0.0
 17
0.0
 27
1.0
 37
0.0
 76
1
330
1B
  0
MATERIAL
  5
1F
102
{ACAD_REACTORS
330
E
102
}
330
E
100
AcDbMaterial
  1
ByBlock
  2

 70
0
 40
1.0
 71
1
 41
1.0
 91
-1023410177
 42
1.0
 72
1
  3

 73
1
 74
1
 75
1
 44
0.5
 73
0
 45
1.0
 46
1.0
 77
1
  4

 78
1
 79
1
170
1
 48
1.0
171
1
  6

172
1
173
1
174
1
140
1.0
141
1.0
175
1
  7

176
1
177
1
178
1
143
1.0
179
1
  8

270
1
271
1
272
1
145
1.0
146
1.0
273
1
  9

274
1
275
1
276
1
 42
1.0
 72
1
  3

 73
1
 74
1
 75
1
 94
63
  0
MATERIAL
  5
20
102
{ACAD_REACTORS
330
E
102
}
330
E
100
AcDbMaterial
  1
ByLayer
  2

 70
0
 40
1.0
 71
1
 41
1.0
 91
-1023410177
 42
1.0
 72
1
  3

 73
1
 74
1
 75
1
 44
0.5
 73
0
 45
1.0
 46
1.0
 77
1
  4

 78
1
 79
1
170
1
 48
1.0
171
1
  6

172
1
173
1
174
1
140
1.0
141
1.0
175
1
  7

176
1
177
1
178
1
143
1.0
179
1
  8

270
1
271
1
272
1
145
1.0
146
1.0
273
1
  9

274
1
275
1
276
1
 42
1.0
 72
1
  3

 73
1
 74
1
 75
1
 94
63
  0
MATERIAL
  5
21
102
{ACAD_REACTORS
330
E
102
}
330
E
100
AcDbMaterial
  1
Global
  2

 70
0
 40
1.0
 71
1
 41
1.0
 91
-1023410177
 42
1.0
 72
1
  3

 73
1
 74
1
 75
1
 44
0.5
 73
0
 45
1.0
 46
1.0
 77
1
  4

 78
1
 79
1
170
1
 48
1.0
171
1
  6

172
1
173
1
174
1
140
1.0
141
1.0
175
1
  7

176
1
177
1
178
1
143
1.0
179
1
  8

270
1
271
1
272
1
145
1.0
146
1.0
273
1
  9

274
1
275
1
276
1
 42
1.0
 72
1
  3

 73
1
 74
1
 75
1
 94
63
  0
MLINESTYLE
  5
22
102
{ACAD_REACTORS
330
10
102
}
330
10
100
AcDbMlineStyle
  2
Standard
 70
0
  3

 62
256
 51
90.0
 52
90.0
 71
2
 49
0.5
 62
256
  6
BYLAYER
 49
-0.5
 62
256
  6
BYLAYER
  0
MLEADERSTYLE
  5
2C
102
{ACAD_REACTORS
330
F
102
}
330
F
100
AcDbMLeaderStyle
179
2
170
2
171
1
172
0
 90
2
 40
0.0
 41
0.0
173
1
 91
-1056964608
 92
-2
290
1
 42
2.0
291
1
 43
8.0
  3
Standard
 44
4.0
300

342
29
174
1
175
1
176
0
178
1
 93
-1056964608
 45
4.0
292
0
297
0
 46
4.0
 94
-1056964608
 47
1.0
 49
1.0
140
1.0
294
1
141
0.0
177
0
142
1.0
295
0
296
0
143
3.75
271
0
272
9
273
9
  0
DICTIONARY
  5
2D
330
A
100
AcDbDictionary
280
1
281
1
  3
CREATED_BY_EZDXF
350
2E
  3
WRITTEN_BY_EZDXF
350
9E
  0
DICTIONARYVAR
  5
2E
330
2D
100
DictionaryVariables
280
0
  1
1.4.2 @ 2026-09-07T04:20:55.325720+00:00
  0
VISUALSTYLE
  5
5A
102
{ACAD_REACTORS
330
16
102
}
330
16
100
AcDbVisualStyle
  2
2dWireframe
 70
4
 90
0
 40
0.6
 62
7
290
0
291
0
  0
VISUALSTYLE
  5
5B
102
{ACAD_REACTORS
330
16
102
}
330
16
100
AcDbVisualStyle
  2
Basic
 70
7
 90
1
 40
0.6
 62
7
290
0
291
1
  0
VISUALSTYLE
  5
5C
102
{ACAD_REACTORS
330
16
102
}
330
16
100
AcDbVisualStyle
  2
Brighten
 70
12
 90
2
 40
0.6
 62
7
290
0
291
1
  0
VISUALSTYLE
  5
5D
102
{ACAD_REACTORS
330
16
102
}
330
16
100
AcDbVisualStyle
  2
ColorChange
 70
16
 90
2
 40
0.6
 62
8
290
0
291
1
  0
VISUALSTYLE
  5
5E
102
{ACAD_REACTORS
330
16
102
}
330
16
100
AcDbVisualStyle
  2
Conceptual
 70
9
 90
3
 40
0.6
 62
7
290
0
291
0
  0
VISUALSTYLE
  5
5F
102
{ACAD_REACTORS
330
16
102
}
330
16
100
AcDbVisualStyle
  2
Dim
 70
11
 90
2
 40
0.6
 62
7
290
0
291
1
  0
VISUALSTYLE
  5
60
102
{ACAD_REACTORS
330
16
102
}
330
16
100
AcDbVisualStyle
  2
EdgeColorOff
 70
22
 90
2
 40
0.6
 62
7
290
0
291
1
  0
VISUALSTYLE
  5
61
102
{ACAD_REACTORS
330
16
102
}
330
16
100
AcDbVisualStyle
  2
Facepattern
 70
15
 90
2
 40
0.6
 62
7
290
0
291
1
  0
VISUALSTYLE
  5
62
102
{ACAD_REACTORS
330
16
102
}
330
16
100
AcDbVisualStyle
  2
Flat
 70
0
 90
2
 40
0.6
 62
7
290
0
291
1
  0
VISUALSTYLE
  5
63
102
{ACAD_REACTORS
330
16
102
}
330
16
100
AcDbVisualStyle
  2
FlatWithEdges
 70
1
 90
2
 40
0.6
 62
7
290
0
291
1
  0
VISUALSTYLE
  5
64
102
{ACAD_REACTORS
330
16
102
}
330
16
100
AcDbVisualStyle
  2
Gouraud
 70
2
 90
2
 40
0.6
 62
7
290
0
291
1
  0
VISUALSTYLE
  5
65
102
{ACAD_REACTORS
330
16
102
}
330
16
100
AcDbVisualStyle
  2
GouraudWithEdges
 70
3
 90
2
 40
0.6
 62
7
290
0
291
1
  0
VISUALSTYLE
  5
66
102
{ACAD_REACTORS
330
16
102
}
330
16
100
AcDbVisualStyle
  2
Hidden
 70
6
 90
1
 40
0.6
 62
7
290
0
291
0
  0
VISUALSTYLE
  5
67
102
{ACAD_REACTORS
330
16
102
}
330
16
100
AcDbVisualStyle
  2
JitterOff
 70
20
 90
2
 40
0.6
 62
7
290
0
291
1
  0
VISUALSTYLE
  5
68
102
{ACAD_REACTORS
330
16
102
}
330
16
100
AcDbVisualStyle
  2
Linepattern
 70
14
 90
2
 40
0.6
 62
7
290
0
291
1
  0
VISUALSTYLE
  5
69
102
{ACAD_REACTORS
330
16
102
}
330
16
100
AcDbVisualStyle
  2
Modeling
 70
10
 90
2
 40
0.6
 62
7
290
0
291
0
  0
VISUALSTYLE
  5
6A
102
{ACAD_REACTORS
330
16
102
}
330
16
100
AcDbVisualStyle
  2
OverhangOff
 70
21
 90
2
 40
0.6
 62
7
290
0
291
1
  0
VISUALSTYLE
  5
6B
102
{ACAD_REACTORS
330
16
102
}
330
16
100
AcDbVisualStyle
  2
Realistic
 70
8
 90
2
 40
0.6
 62
7
290
0
291
0
  0
VISUALSTYLE
  5
6C
102
{ACAD_REACTORS
330
16
102
}
330
16
100
AcDbVisualStyle
  2
Shaded
 70
27
 90
2
 40
0.6
 62
7
290
0
291
0
  0
VISUALSTYLE
  5
6D
102
{ACAD_REACTORS
330
16
102
}
330
16
100
AcDbVisualStyle
  2
Shaded with edges
 70
26
 90
2
 40
0.6
 62
7
290
0
291
0
  0
VISUALSTYLE
  5
6E
102
{ACAD_REACTORS
330
16
102
}
330
16
100
AcDbVisualStyle
  2
Shades of Gray
 70
23
 90
2
 40
0.6
 62
7
290
0
291
0
  0
VISUALSTYLE
  5
6F
102
{ACAD_REACTORS
330
16
102
}
330
16
100
AcDbVisualStyle
  2
Sketchy
 70
24
 90
1
 40
0.6
 62
7
290
0
291
0
  0
VISUALSTYLE
  5
70
102
{ACAD_REACTORS
330
16
102
}
330
16
100
AcDbVisualStyle
  2
Thicken
 70
13
 90
2
 40
0.6
 62
7
290
0
291
1
  0
VISUALSTYLE
  5
71
102
{ACAD_REACTORS
330
16
102
}
330
16
100
AcDbVisualStyle
  2
Wireframe
 70
5
 90
0
 40
0.6
 62
7
290
0
291
0
  0
VISUALSTYLE
  5
72
102
{ACAD_REACTORS
330
16
102
}
330
16
100
AcDbVisualStyle
  2
X-Ray
 70
25
 90
2
 40
0.5
 62
7
290
0
291
0
  0
DICTIONARYVAR
  5
9E
330
2D
100
DictionaryVariables
280
0
  1
1.4.2 @ 2026-09-07T04:20:55.336027+00:00
  0
ENDSEC
  0
EOF
