  0
SECTION
  2
HEADER
  9
$ACADVER
  1
AC1024
  9
$ACADMAINTVER
 70
6
  9
$DWGCODEPAGE
  3
ANSI_1252
  9
$LASTSAVEDBY
  1
ezdxf
  9
$INSBASE
 10
0.0
 20
0.0
 30
0.0
  9
$EXTMIN
 10
1e+20
 20
1e+20
 30
1e+20
  9
$EXTMAX
 10
-1e+20
 20
-1e+20
 30
-1e+20
  9
$LIMMIN
 10
0.0
 20
0.0
  9
$LIMMAX
 10
420.0
 20
297.0
  9
$ORTHOMODE
 70
0
  9
$REGENMODE
 70
1
  9
$FILLMODE
 70
1
  9
$QTEXTMODE
 70
0
  9
$MIRRTEXT
 70
1
  9
$LTSCALE
 40
1.0
  9
$ATTMODE
 70
1
  9
$TEXTSIZE
 40
2.5
  9
$TRACEWID
 40
1.0
  9
$TEXTSTYLE
  7
OpenSans
  9
$CLAYER
  8
0
  9
$CELTYPE
  6
ByLayer
  9
$CECOLOR
 62
256
  9
$CELTSCALE
 40
1.0
  9
$DISPSILH
 70
0
  9
$DIMSCALE
 40
1.0
  9
$DIMASZ
 40
0.175
  9
$DIMEXO
 40
0.125
  9
$DIMDLI
 40
3.75
  9
$DIMRND
 40
0.0
  9
$DIMDLE
 40
0.0
  9
$DIMEXE
 40
0.375
  9
$DIMTP
 40
0.0
  9
$DIMTM
 40
0.0
  9
$DIMTXT
 40
0.25
  9
$DIMCEN
 40
2.5
  9
$DIMTSZ
 40
0.0
  9
$DIMTOL
 70
0
  9
$DIMLIM
 70
0
  9
$DIMTIH
 70
0
  9
$DIMTOH
 70
0
  9
$DIMSE1
 70
0
  9
$DIMSE2
 70
0
  9
$DIMTAD
 70
1
  9
$DIMZIN
 70
12
  9
$DIMBLK
  1
ARCHTICK
  9
$DIMASO
 70
1
  9
$DIMSHO
 70
1
  9
$DIMPOST
  1

  9
$DIMAPOST
  1

  9
$DIMALT
 70
0
  9
$DIMALTD
 70
3
  9
$DIMALTF
 40
0.03937007874
  9
$DIMLFAC
 40
100.0
  9
$DIMTOFL
 70
1
  9
$DIMTVP
 40
0.0
  9
$DIMTIX
 70
0
  9
$DIMSOXD
 70
0
  9
$DIMSAH
 70
0
  9
$DIMBLK1
  1

  9
$DIMBLK2
  1

  9
$DIMSTYLE
  2
EZDXF
  9
$DIMCLRD
 70
0
  9
$DIMCLRE
 70
0
  9
$DIMCLRT
 70
0
  9
$DIMTFAC
 40
0.5
  9
$DIMGAP
 40
0.1
  9
$DIMJUST
 70
0
  9
$DIMSD1
 70
0
  9
$DIMSD2
 70
0
  9
$DIMTOLJ
 70
0
  9
$DIMTZIN
 70
8
  9
$DIMALTZ
 70
0
  9
$DIMALTTZ
 70
0
  9
$DIMUPT
 70
1
  9
$DIMDEC
 70
2
  9
$DIMTDEC
 70
2
  9
$DIMALTU
 70
2
  9
$DIMALTTD
 70
3
  9
$DIMTXSTY
  7
OpenSansCondensed-Light
  9
$DIMAUNIT
 70
0
  9
$DIMADEC
 70
2
  9
$DIMALTRND
 40
0.0
  9
$DIMAZIN
 70
3
  9
$DIMDSEP
 70
46
  9
$DIMATFIT
 70
3
  9
$DIMFRAC
 70
0
  9
$DIMLDRBLK
  1

  9
$DIMLUNIT
 70
2
  9
$DIMLWD
 70
-2
  9
$DIMLWE
 70
-2
  9
$DIMTMOVE
 70
2
  9
$DIMFXL
 40
1.0
  9
$DIMFXLON
 70
0
  9
$DIMJOGANG
 40
0.785398163397
  9
$DIMTFILL
 70
0
  9
$DIMTFILLCLR
 70
0
  9
$DIMARCSYM
 70
0
  9
$DIMLTYPE
  6

  9
$DIMLTEX1
  6

  9
$DIMLTEX2
  6

  9
$DIMTXTDIRECTION
 70
0
  9
$LUNITS
 70
2
  9
$LUPREC
 70
4
  9
$SKETCHINC
 40
1.0
  9
$FILLETRAD
 40
10.0
  9
$AUNITS
 70
0
  9
$AUPREC
 70
2
  9
$MENU
  1
.
  9
$ELEVATION
 40
0.0
  9
$PELEVATION
 40
0.0
  9
$THICKNESS
 40
0.0
  9
$LIMCHECK
 70
0
  9
$CHAMFERA
 40
0.0
  9
$CHAMFERB
 40
0.0
  9
$CHAMFERC
 40
0.0
  9
$CHAMFERD
 40
0.0
  9
$SKPOLY
 70
0
  9
$TDCREATE
 40
2461290.1451273146
  9
$TDUCREATE
 40
2458532.153996898
  9
$TDUPDATE
 40
2461290.1451273146
  9
$TDUUPDATE
 40
2458532.1544311
  9
$TDINDWG
 40
0.0
  9
$TDUSRTIMER
 40
0.0
  9
$USRTIMER
 70
1
  9
$ANGBASE
 50
0.0
  9
$ANGDIR
 70
0
  9
$PDMODE
 70
0
  9
$PDSIZE
 40
0.0
  9
$PLINEWID
 40
0.0
  9
$SPLFRAME
 70
0
  9
$SPLINETYPE
 70
6
  9
$SPLINESEGS
 70
8
  9
$HANDSEED
  5
98
  9
$SURFTAB1
 70
6
  9
$SURFTAB2
 70
6
  9
$SURFTYPE
 70
6
  9
$SURFU
 70
6
  9
$SURFV
 70
6
  9
$UCSBASE
  2

  9
$UCSNAME
  2

  9
$UCSORG
 10
0.0
 20
0.0
 30
0.0
  9
$UCSXDIR
 10
1.0
 20
0.0
 30
0.0
  9
$UCSYDIR
 10
0.0
 20
1.0
 30
0.0
  9
$UCSORTHOREF
  2

  9
$UCSORTHOVIEW
 70
0
  9
$UCSORGTOP
 10
0.0
 20
0.0
 30
0.0
  9
$UCSORGBOTTOM
 10
0.0
 20
0.0
 30
0.0
  9
$UCSORGLEFT
 10
0.0
 20
0.0
 30
0.0
  9
$UCSORGRIGHT
 10
0.0
 20
0.0
 30
0.0
  9
$UCSORGFRONT
 10
0.0
 20
0.0
 30
0.0
  9
$UCSORGBACK
 10
0.0
 20
0.0
 30
0.0
  9
$PUCSBASE
  2

  9
$PUCSNAME
  2

  9
$PUCSORG
 10
0.0
 20
0.0
 30
0.0
  9
$PUCSXDIR
 10
1.0
 20
0.0
 30
0.0
  9
$PUCSYDIR
 10
0.0
 20
1.0
 30
0.0
  9
$PUCSORTHOREF
  2

  9
$PUCSORTHOVIEW
 70
0
  9
$PUCSORGTOP
 10
0.0
 20
0.0
 30
0.0
  9
$PUCSORGBOTTOM
 10
0.0
 20
0.0
 30
0.0
  9
$PUCSORGLEFT
 10
0.0
 20
0.0
 30
0.0
  9
$PUCSORGRIGHT
 10
0.0
 20
0.0
 30
0.0
  9
$PUCSORGFRONT
 10
0.0
 20
0.0
 30
0.0
  9
$PUCSORGBACK
 10
0.0
 20
0.0
 30
0.0
  9
$USERI1
 70
0
  9
$USERI2
 70
0
  9
$USERI3
 70
0
  9
$USERI4
 70
0
  9
$USERI5
 70
0
  9
$USERR1
 40
0.0
  9
$USERR2
 40
0.0
  9
$USERR3
 40
0.0
  9
$USERR4
 40
0.0
  9
$USERR5
 40
0.0
  9
$WORLDVIEW
 70
1
  9
$SHADEDGE
 70
3
  9
$SHADEDIF
 70
70
  9
$TILEMODE
 70
1
  9
$MAXACTVP
 70
64
  9
$PINSBASE
 10
0.0
 20
0.0
 30
0.0
  9
$PLIMCHECK
 70
0
  9
$PEXTMIN
 10
1e+20
 20
1e+20
 30
1e+20
  9
$PEXTMAX
 10
-1e+20
 20
-1e+20
 30
-1e+20
  9
$PLIMMIN
 10
0.0
 20
0.0
  9
$PLIMMAX
 10
420.0
 20
297.0
  9
$UNITMODE
 70
0
  9
$VISRETAIN
 70
1
  9
$PLINEGEN
 70
0
  9
$PSLTSCALE
 70
1
  9
$TREEDEPTH
 70
3020
  9
$CMLSTYLE
  2
Standard
  9
$CMLJUST
 70
0
  9
$CMLSCALE
 40
20.0
  9
$PROXYGRAPHICS
 70
1
  9
$MEASUREMENT
 70
1
  9
$CELWEIGHT
370
-1
  9
$ENDCAPS
280
0
  9
$JOINSTYLE
280
0
  9
$LWDISPLAY
290
0
  9
$INSUNITS
 70
4
  9
$HYPERLINKBASE
  1

  9
$STYLESHEET
  1

  9
$XEDIT
290
1
  9
$CEPSNTYPE
380
0
  9
$PSTYLEMODE
290
1
  9
$FINGERPRINTGUID
  2
{0B86D037-1094-422B-A247-2B0AC39F2A4D}
  9
$VERSIONGUID
  2
{E905DC21-FB1C-4016-9039-6853215BE691}
  9
$EXTNAMES
290
1
  9
$PSVPSCALE
 40
0.0
  9
$OLESTARTUP
290
0
  9
$SORTENTS
280
127
  9
$INDEXCTL
280
0
  9
$HIDETEXT
280
1
  9
$XCLIPFRAME
280
1
  9
$HALOGAP
280
0
  9
$OBSCOLOR
 70
257
  9
$OBSLTYPE
280
0
  9
$INTERSECTIONDISPLAY
280
0
  9
$INTERSECTIONCOLOR
 70
257
  9
$DIMASSOC
280
2
  9
$PROJECTNAME
  1

  9
$CAMERADISPLAY
290
0
  9
$LENSLENGTH
 40
50.0
  9
$CAMERAHEIGHT
 40
0.0
  9
$STEPSPERSEC
 40
24.0
  9
$STEPSIZE
 40
100.0
  9
$3DDWFPREC
 40
2.0
  9
$PSOLWIDTH
 40
0.005
  9
$PSOLHEIGHT
 40
0.08
  9
$LOFTANG1
 40
1.570796326795
  9
$LOFTANG2
 40
1.570796326795
  9
$LOFTMAG1
 40
0.0
  9
$LOFTMAG2
 40
0.0
  9
$LOFTPARAM
 70
7
  9
$LOFTNORMALS
280
1
  9
$LATITUDE
 40
37.795
  9
$LONGITUDE
 40
-122.394
  9
$NORTHDIRECTION
 40
0.0
  9
$TIMEZONE
 70
-8000
  9
$LIGHTGLYPHDISPLAY
280
1
  9
$TILEMODELIGHTSYNCH
280
1
  9
$CMATERIAL
347
20
  9
$SOLIDHIST
280
0
  9
$SHOWHIST
280
1
  9
$DWFFRAME
280
2
  9
$DGNFRAME
280
2
  9
$REALWORLDSCALE
290
1
  9
$INTERFERECOLOR
 62
256
  9
$CSHADOW
280
0
  9
$SHADOWPLANELOCATION
 40
0.0
  0
ENDSEC
  0
SECTION
  2
CLASSES
  0
CLASS
  1
ACDBDICTIONARYWDFLT
  2
AcDbDictionaryWithDefault
  3
ObjectDBX Classes
 90
0
 91
0
280
0
281
0
  0
CLASS
  1
SUN
  2
AcDbSun
  3
SCENEOE
 90
1153
 91
0
280
0
281
0
  0
CLASS
  1
VISUALSTYLE
  2
AcDbVisualStyle
  3
ObjectDBX Classes
 90
4095
 91
0
280
0
281
0
  0
CLASS
  1
MATERIAL
  2
AcDbMaterial
  3
ObjectDBX Classes
 90
1153
 91
0
280
0
281
0
  0
CLASS
  1
SCALE
  2
AcDbScale
  3
ObjectDBX Classes
 90
1153
 91
0
280
0
281
0
  0
CLASS
  1
TABLESTYLE
  2
AcDbTableStyle
  3
ObjectDBX Classes
 90
4095
 91
0
280
0
281
0
  0
CLASS
  1
MLEADERSTYLE
  2
AcDbMLeaderStyle
  3
ACDB_MLEADERSTYLE_CLASS
 90
4095
 91
0
280
0
281
0
  0
CLASS
  1
DICTIONARYVAR
  2
AcDbDictionaryVar
  3
ObjectDBX Classes
 90
0
 91
0
280
0
281
0
  0
CLASS
  1
CELLSTYLEMAP
  2
AcDbCellStyleMap
  3
ObjectDBX Classes
 90
1152
 91
0
280
0
281
0
  0
CLASS
  1
MENTALRAYRENDERSETTINGS
  2
AcDbMentalRayRenderSettings
  3
SCENEOE
 90
1024
 91
0
280
0
281
0
  0
CLASS
  1
ACDBDETAILVIEWSTYLE
  2
AcDbDetailViewStyle
  3
ObjectDBX Classes
 90
1025
 91
0
280
0
281
0
  0
CLASS
  1
ACDBSECTIONVIEWSTYLE
  2
AcDbSectionViewStyle
  3
ObjectDBX Classes
 90
1025
 91
0
280
0
281
0
  0
CLASS
  1
RASTERVARIABLES
  2
AcDbRasterVariables
  3
ISM
 90
0
 91
0
280
0
281
0
  0
CLASS
  1
LAYOUT
  2
AcDbLayout
  3
ObjectDBX Classes
 90
0
 91
0
280
0
281
0
  0
CLASS
  1
ACDBPLACEHOLDER
  2
AcDbPlaceHolder
  3
ObjectDBX Classes
 90
0
 91
0
280
0
281
0
  0
ENDSEC
  0
SECTION
  2
TABLES
  0
TABLE
  2
VPORT
  5
8
330
0
100
AcDbSymbolTable
 70
1
  0
VPORT
  5
23
330
8
100
AcDbSymbolTableRecord
100
AcDbViewportTableRecord
  2
*Active
 70
0
 10
0.0
 20
0.0
 11
1.0
 21
1.0
 12
0.0
 22
0.0
 13
0.0
 23
0.0
 14
0.5
 24
0.5
 15
0.5
 25
0.5
 16
0.0
 26
0.0
 36
1.0
 17
0.0
 27
0.0
 37
0.0
 40
1000.0
 41
1.34
 42
50.0
 43
0.0
 44
0.0
 50
0.0
 51
0.0
 71
0
 72
1000
 73
1
 74
3
 75
0
 76
0
 77
0
 78
0
281
0
 65
0
146
0.0
  0
ENDTAB
  0
TABLE
  2
LTYPE
  5
2
330
0
100
AcDbSymbolTable
 70
21
  0
LTYPE
  5
24
330
2
100
AcDbSymbolTableRecord
100
AcDbLinetypeTableRecord
  2
ByBlock
 70
0
  3

 72
65
 73
0
 40
0.0
  0
LTYPE
  5
25
330
2
100
AcDbSymbolTableRecord
100
AcDbLinetypeTableRecord
  2
ByLayer
 70
0
  3

 72
65
 73
0
 40
0.0
  0
LTYPE
  5
26
330
2
100
AcDbSymbolTableRecord
100
AcDbLinetypeTableRecord
  2
Continuous
 70
0
  3

 72
65
 73
0
 40
0.0
  0
LTYPE
  5
2F
330
2
100
AcDbSymbolTableRecord
100
AcDbLinetypeTableRecord
  2
CENTER
 70
0
  3
Center ____ _ ____ _ ____ _ ____ _ ____ _ ____
 72
65
 73
4
 40
5.08
 49
3.175
 74
0
 49
-0.635
 74
0
 49
0.635
 74
0
 49
-0.635
 74
0
  0
LTYPE
  5
30
330
2
100
AcDbSymbolTableRecord
100
AcDbLinetypeTableRecord
  2
CENTERX2
 70
0
  3
Center (2x) ________  __  ________  __  ________
 72
65
 73
4
 40
8.89
 49
6.35
 74
0
 49
-0.635
 74
0
 49
1.27
 74
0
 49
-0.635
 74
0
  0
LTYPE
  5
31
330
2
100
AcDbSymbolTableRecord
100
AcDbLinetypeTableRecord
  2
CENTER2
 70
0
  3
Center (.5x) ____ _ ____ _ ____ _ ____ _ ____
 72
65
 73
4
 40
2.54
 49
1.587
 74
0
 49
-0.318
 74
0
 49
0.318
 74
0
 49
-0.318
 74
0
  0
LTYPE
  5
32
330
2
100
AcDbSymbolTableRecord
100
AcDbLinetypeTableRecord
  2
DASHED
 70
0
  3
Dashed __ __ __ __ __ __ __ __ __ __ __ __ __ _
 72
65
 73
2
 40
1.524
 49
1.27
 74
0
 49
-0.254
 74
0
  0
LTYPE
  5
33
330
2
100
AcDbSymbolTableRecord
100
AcDbLinetypeTableRecord
  2
DASHEDX2
 70
0
  3
Dashed (2x) ____  ____  ____  ____  ____  ____
 72
65
 73
2
 40
3.048
 49
2.54
 74
0
 49
-0.508
 74
0
  0
LTYPE
  5
34
330
2
100
AcDbSymbolTableRecord
100
AcDbLinetypeTableRecord
  2
DASHED2
 70
0
  3
Dashed (.5x) _ _ _ _ _ _ _ _ _ _ _ _ _ _
 72
65
 73
2
 40
0.762
 49
0.635
 74
0
 49
-0.127
 74
0
  0
LTYPE
  5
35
330
2
100
AcDbSymbolTableRecord
100
AcDbLinetypeTableRecord
  2
PHANTOM
 70
0
  3
Phantom ______  __  __  ______  __  __  ______
 72
65
 73
6
 40
6.35
 49
3.175
 74
0
 49
-0.635
 74
0
 49
0.635
 74
0
 49
-0.635
 74
0
 49
0.635
 74
0
 49
-0.635
 74
0
  0
LTYPE
  5
36
330
2
100
AcDbSymbolTableRecord
100
AcDbLinetypeTableRecord
  2
PHANTOMX2
 70
0
  3
Phantom (2x)____________    ____    ____    ____________
 72
65
 73
6
 40
10.795
 49
6.35
 74
0
 49
-0.635
 74
0
 49
1.27
 74
0
 49
-0.635
 74
0
 49
1.27
 74
0
 49
-0.635
 74
0
  0
LTYPE
  5
37
330
2
100
AcDbSymbolTableRecord
100
AcDbLinetypeTableRecord
  2
PHANTOM2
 70
0
  3
Phantom (.5x) ___ _ _ ___ _ _ ___ _ _ ___ _ _ ___
 72
65
 73
6
 40
3.175
 49
1.587
 74
0
 49
-0.318
 74
0
 49
0.318
 74
0
 49
-0.318
 74
0
 49
0.318
 74
0
 49
-0.318
 74
0
  0
LTYPE
  5
38
330
2
100
AcDbSymbolTableRecord
100
AcDbLinetypeTableRecord
  2
DASHDOT
 70
0
  3
Dash dot __ . __ . __ . __ . __ . __ . __ . __
 72
65
 73
4
 40
3.556
 49
2.54
 74
0
 49
-0.508
 74
0
 49
0.0
 74
0
 49
-0.508
 74
0
  0
LTYPE
  5
39
330
2
100
AcDbSymbolTableRecord
100
AcDbLinetypeTableRecord
  2
DASHDOTX2
 70
0
  3
Dash dot (2x) ____  .  ____  .  ____  .  ____
 72
65
 73
4
 40
6.096
 49
5.08
 74
0
 49
-0.508
 74
0
 49
0.0
 74
0
 49
-0.508
 74
0
  0
LTYPE
  5
3A
330
2
100
AcDbSymbolTableRecord
100
AcDbLinetypeTableRecord
  2
DASHDOT2
 70
0
  3
Dash dot (.5x) _ . _ . _ . _ . _ . _ . _ . _
 72
65
 73
4
 40
1.778
 49
1.27
 74
0
 49
-0.254
 74
0
 49
0.0
 74
0
 49
-0.254
 74
0
  0
LTYPE
  5
3B
330
2
100
AcDbSymbolTableRecord
100
AcDbLinetypeTableRecord
  2
DOT
 70
0
  3
Dot .  .  .  .  .  .  .  .  .  .  .  .  .  .  .  .
 72
65
 73
2
 40
0.508
 49
0.0
 74
0
 49
-0.508
 74
0
  0
LTYPE
  5
3C
330
2
100
AcDbSymbolTableRecord
100
AcDbLinetypeTableRecord
  2
DOTX2
 70
0
  3
Dot (2x) .    .    .    .    .    .    .    . 
 72
65
 73
2
 40
1.016
 49
0.0
 74
0
 49
-1.016
 74
0
  0
LTYPE
  5
3D
330
2
100
AcDbSymbolTableRecord
100
AcDbLinetypeTableRecord
  2
DOT2
 70
0
  3
Dot (.5) . . . . . . . . . . . . . . . . . . . 
 72
65
 73
2
 40
0.254
 49
0.0
 74
0
 49
-0.254
 74
0
  0
LTYPE
  5
3E
330
2
100
AcDbSymbolTableRecord
100
AcDbLinetypeTableRecord
  2
DIVIDE
 70
0
  3
Divide __ . . __ . . __ . . __ . . __ . . __
 72
65
 73
6
 40
4.064
 49
2.54
 74
0
 49
-0.508
 74
0
 49
0.0
 74
0
 49
-0.508
 74
0
 49
0.0
 74
0
 49
-0.508
 74
0
  0
LTYPE
  5
3F
330
2
100
AcDbSymbolTableRecord
100
AcDbLinetypeTableRecord
  2
DIVIDEX2
 70
0
  3
Divide (2x) ____  . .  ____  . .  ____  . .  ____
 72
65
 73
6
 40
6.604
 49
5.08
 74
0
 49
-0.508
 74
0
 49
0.0
 74
0
 49
-0.508
 74
0
 49
0.0
 74
0
 49
-0.508
 74
0
  0
LTYPE
  5
40
330
2
100
AcDbSymbolTableRecord
100
AcDbLinetypeTableRecord
  2
DIVIDE2
 70
0
  3
Divide(.5x) _ . _ . _ . _ . _ . _ . _ . _
 72
65
 73
6
 40
2.032
 49
1.27
 74
0
 49
-0.254
 74
0
 49
0.0
 74
0
 49
-0.254
 74
0
 49
0.0
 74
0
 49
-0.254
 74
0
  0
ENDTAB
  0
TABLE
  2
LAYER
  5
1
330
0
100
AcDbSymbolTable
 70
5
  0
LAYER
  5
27
330
1
100
AcDbSymbolTableRecord
100
AcDbLayerTableRecord
  2
0
 70
0
 62
7
  6
Continuous
370
-3
390
13
347
21
  0
LAYER
  5
28
330
1
100
AcDbSymbolTableRecord
100
AcDbLayerTableRecord
  2
Defpoints
 70
0
 62
7
  6
Continuous
290
0
370
-3
390
13
347
21
  0
LAYER
  5
8A
330
1
100
AcDbSymbolTableRecord
100
AcDbLayerTableRecord
  2
CORTE
 70
0
 62
1
  6
Continuous
370
-3
390
13
347
21
  0
LAYER
  5
8B
330
1
100
AcDbSymbolTableRecord
100
AcDbLayerTableRecord
  2
GRABADO
 70
0
 62
5
  6
Continuous
370
-3
390
13
347
21
  0
LAYER
  5
8C
330
1
100
AcDbSymbolTableRecord
100
AcDbLayerTableRecord
  2
HOJA
 70
0
 62
8
  6
Continuous
370
-3
390
13
347
21
  0
ENDTAB
  0
TABLE
  2
STYLE
  5
5
330
0
100
AcDbSymbolTable
 70
26
  0
STYLE
  5
29
330
5
100
AcDbSymbolTableRecord
100
AcDbTextStyleTableRecord
  2
Standard
 70
0
 40
0.0
 41
1.0
 50
0.0
 71
0
 42
2.5
  3
txt
  4

  0
STYLE
  5
41
330
5
100
AcDbSymbolTableRecord
100
AcDbTextStyleTableRecord
  2
OpenSans-Light
 70
0
 40
0.0
 41
1.0
 50
0.0
 71
0
 42
2.5
  3
OpenSans-Light.ttf
  4

  0
STYLE
  5
42
330
5
100
AcDbSymbolTableRecord
100
AcDbTextStyleTableRecord
  2
OpenSans-Light-Italic
 70
0
 40
0.0
 41
1.0
 50
0.0
 71
0
 42
2.5
  3
OpenSans-LightItalic.ttf
  4

  0
STYLE
  5
43
330
5
100
AcDbSymbolTableRecord
100
AcDbTextStyleTableRecord
  2
OpenSans
 70
0
 40
0.0
 41
1.0
 50
0.0
 71
0
 42
2.5
  3
OpenSans-Regular.ttf
  4

  0
STYLE
  5
44
330
5
100
AcDbSymbolTableRecord
100
AcDbTextStyleTableRecord
  2
OpenSans-Italic
 70
0
 40
0.0
 41
1.0
 50
0.0
 71
0
 42
2.5
  3
OpenSans-Italic.ttf
  4

  0
STYLE
  5
45
330
5
100
AcDbSymbolTableRecord
100
AcDbTextStyleTableRecord
  2
OpenSans-SemiBold
 70
0
 40
0.0
 41
1.0
 50
0.0
 71
0
 42
2.5
  3
OpenSans-SemiBold.ttf
  4

  0
STYLE
  5
46
330
5
100
AcDbSymbolTableRecord
100
AcDbTextStyleTableRecord
  2
OpenSans-SemiBoldItalic
 70
0
 40
0.0
 41
1.0
 50
0.0
 71
0
 42
2.5
  3
OpenSans-SemiBoldItalic.ttf
  4

  0
STYLE
  5
47
330
5
100
AcDbSymbolTableRecord
100
AcDbTextStyleTableRecord
  2
OpenSans-Bold
 70
0
 40
0.0
 41
1.0
 50
0.0
 71
0
 42
2.5
  3
OpenSans-Bold.ttf
  4

  0
STYLE
  5
48
330
5
100
AcDbSymbolTableRecord
100
AcDbTextStyleTableRecord
  2
OpenSans-BoldItalic
 70
0
 40
0.0
 41
1.0
 50
0.0
 71
0
 42
2.5
  3
OpenSans-BoldItalic.ttf
  4

  0
STYLE
  5
49
330
5
100
AcDbSymbolTableRecord
100
AcDbTextStyleTableRecord
  2
OpenSans-ExtraBold
 70
0
 40
0.0
 41
1.0
 50
0.0
 71
0
 42
2.5
  3
OpenSans-ExtraBold.ttf
  4

  0
STYLE
  5
4A
330
5
100
AcDbSymbolTableRecord
100
AcDbTextStyleTableRecord
  2
OpenSans-ExtraBoldItalic
 70
0
 40
0.0
 41
1.0
 50
0.0
 71
0
 42
2.5
  3
OpenSans-ExtraBoldItalic.ttf
  4

  0
STYLE
  5
4B
330
5
100
AcDbSymbolTableRecord
100
AcDbTextStyleTableRecord
  2
OpenSansCondensed-Bold
 70
0
 40
0.0
 41
1.0
 50
0.0
 71
0
 42
2.5
  3
OpenSansCondensed-Bold.ttf
  4

  0
STYLE
  5
4C
330
5
100
AcDbSymbolTableRecord
100
AcDbTextStyleTableRecord
  2
OpenSansCondensed-Light
 70
0
 40
0.0
 41
1.0
 50
0.0
 71
0
 42
2.5
  3
OpenSansCondensed-Light.ttf
  4

  0
STYLE
  5
4D
330
5
100
AcDbSymbolTableRecord
100
AcDbTextStyleTableRecord
  2
OpenSansCondensed-Italic
 70
0
 40
0.0
 41
1.0
 50
0.0
 71
0
 42
2.5
  3
OpenSansCondensed-LightItalic.ttf
  4

  0
STYLE
  5
4E
330
5
100
AcDbSymbolTableRecord
100
AcDbTextStyleTableRecord
  2
LiberationSans
 70
0
 40
0.0
 41
1.0
 50
0.0
 71
0
 42
2.5
  3
LiberationSans-Regular.ttf
  4

  0
STYLE
  5
4F
330
5
100
AcDbSymbolTableRecord
100
AcDbTextStyleTableRecord
  2
LiberationSans-Bold
 70
0
 40
0.0
 41
1.0
 50
0.0
 71
0
 42
2.5
  3
LiberationSans-Bold.ttf
  4

  0
STYLE
  5
50
330
5
100
AcDbSymbolTableRecord
100
AcDbTextStyleTableRecord
  2
LiberationSans-BoldItalic
 70
0
 40
0.0
 41
1.0
 50
0.0
 71
0
 42
2.5
  3
LiberationSans-BoldItalic.ttf
  4

  0
STYLE
  5
51
330
5
100
AcDbSymbolTableRecord
100
AcDbTextStyleTableRecord
  2
LiberationSans-Italic
 70
0
 40
0.0
 41
1.0
 50
0.0
 71
0
 42
2.5
  3
LiberationSans-Italic.ttf
  4

  0
STYLE
  5
52
330
5
100
AcDbSymbolTableRecord
100
AcDbTextStyleTableRecord
  2
LiberationSerif
 70
0
 40
0.0
 41
1.0
 50
0.0
 71
0
 42
2.5
  3
LiberationSerif-Regular.ttf
  4

  0
STYLE
  5
53
330
5
100
AcDbSymbolTableRecord
100
AcDbTextStyleTableRecord
  2
LiberationSerif-Bold
 70
0
 40
0.0
 41
1.0
 50
0.0
 71
0
 42
2.5
  3
LiberationSerif-Bold.ttf
  4

  0
STYLE
  5
54
330
5
100
AcDbSymbolTableRecord
100
AcDbTextStyleTableRecord
  2
LiberationSerif-BoldItalic
 70
0
 40
0.0
 41
1.0
 50
0.0
 71
0
 42
2.5
  3
LiberationSerif-BoldItalic.ttf
  4

  0
STYLE
  5
55
330
5
100
AcDbSymbolTableRecord
100
AcDbTextStyleTableRecord
  2
LiberationSerif-Italic
 70
0
 40
0.0
 41
1.0
 50
0.0
 71
0
 42
2.5
  3
LiberationSerif-Italic.ttf
  4

  0
STYLE
  5
56
330
5
100
AcDbSymbolTableRecord
100
AcDbTextStyleTableRecord
  2
LiberationMono
 70
0
 40
0.0
 41
1.0
 50
0.0
 71
0
 42
2.5
  3
LiberationMono-Regular.ttf
  4

  0
STYLE
  5
57
330
5
100
AcDbSymbolTableRecord
100
AcDbTextStyleTableRecord
  2
LiberationMono-Bold
 70
0
 40
0.0
 41
1.0
 50
0.0
 71
0
 42
2.5
  3
LiberationMono-Bold.ttf
  4

  0
STYLE
  5
58
330
5
100
AcDbSymbolTableRecord
100
AcDbTextStyleTableRecord
  2
LiberationMono-BoldItalic
 70
0
 40
0.0
 41
1.0
 50
0.0
 71
0
 42
2.5
  3
LiberationMono-BoldItalic.ttf
  4

  0
STYLE
  5
59
330
5
100
AcDbSymbolTableRecord
100
AcDbTextStyleTableRecord
  2
LiberationMono-Italic
 70
0
 40
0.0
 41
1.0
 50
0.0
 71
0
 42
2.5
  3
LiberationMono-Italic.ttf
  4

  0
ENDTAB
  0
TABLE
  2
VIEW
  5
7
330
0
100
AcDbSymbolTable
 70
0
  0
ENDTAB
  0
TABLE
  2
UCS
  5
6
330
0
100
AcDbSymbolTable
 70
0
  0
ENDTAB
  0
TABLE
  2
APPID
  5
3
330
0
100
AcDbSymbolTable
 70
3
  0
APPID
  5
2A
330
3
100
AcDbSymbolTableRecord
100
AcDbRegAppTableRecord
  2
ACAD
 70
0
  0
APPID
  5
95
330
3
100
AcDbSymbolTableRecord
100
AcDbRegAppTableRecord
  2
HATCHBACKGROUNDCOLOR
 70
0
  0
APPID
  5
96
330
3
100
AcDbSymbolTableRecord
100
AcDbRegAppTableRecord
  2
EZDXF
 70
0
  0
ENDTAB
  0
TABLE
  2
DIMSTYLE
  5
4
330
0
100
AcDbSymbolTable
 70
12
100
AcDbDimStyleTable
  0
DIMSTYLE
105
2B
330
4
100
AcDbSymbolTableRecord
100
AcDbDimStyleTableRecord
  2
Standard
 70
0
 40
1.0
 41
2.5
 42
0.625
 43
3.75
 44
1.25
 45
0.0
 46
0.0
 47
0.0
 48
0.0
 49
2.5
140
2.5
141
2.5
142
0.0
143
0.03937007874
144
1.0
145
0.0
146
1.0
147
0.625
148
0.0
 69
0
 70
0
 71
0
 72
0
 73
0
 74
0
 75
0
 76
0
 77
1
 78
8
 79
3
170
0
171
3
172
1
173
0
174
0
175
0
176
0
177
0
178
0
179
2
271
2
272
2
273
2
274
3
275
0
276
0
277
2
278
44
279
0
280
0
281
0
282
0
283
0
284
8
285
0
286
0
288
0
289
3
290
0
371
-2
372
-2
  0
DIMSTYLE
105
73
330
4
100
AcDbSymbolTableRecord
100
AcDbDimStyleTableRecord
  2
EZDXF
 70
0
 40
1.0
 41
0.175
 42
0.125
 43
3.75
 44
0.375
 45
0.0
 46
0.0
 47
0.0
 48
0.0
 49
2.5
140
0.25
141
2.5
142
0.0
143
0.03937007874
144
100.0
145
0.0
146
0.5
147
0.1
148
0.0
 69
0
 70
0
 71
0
 72
0
 73
0
 74
0
 75
0
 76
0
 77
1
 78
12
 79
3
170
0
171
3
172
1
173
0
174
0
175
0
176
0
177
0
178
0
179
2
271
2
272
2
273
2
274
3
275
0
276
0
277
2
278
46
279
2
280
0
281
0
282
0
283
0
284
8
285
0
286
0
288
1
289
3
290
0
340
4C
342
74
371
-2
372
-2
  0
DIMSTYLE
105
7C
330
4
100
AcDbSymbolTableRecord
100
AcDbDimStyleTableRecord
  2
EZ_M_100_H25_CM
 70
0
 40
1.0
 41
0.25
 42
0.125
 43
3.75
 44
0.375
 45
0.0
 46
0.0
 47
0.0
 48
0.0
 49
2.5
140
0.25
141
2.5
142
0.125
143
0.03937007874
144
100.0
145
0.0
146
0.5
147
0.1
148
0.0
 69
0
 70
0
 71
0
 72
0
 73
0
 74
0
 75
0
 76
0
 77
1
 78
12
 79
3
170
0
171
3
172
1
173
0
174
0
175
0
176
0
177
0
178
0
179
2
271
2
272
2
273
2
274
3
275
0
276
0
277
2
278
46
279
2
280
0
281
0
282
0
283
0
284
8
285
0
286
0
288
1
289
3
290
0
340
4C
371
-2
372
-2
  0
DIMSTYLE
105
7D
330
4
100
AcDbSymbolTableRecord
100
AcDbDimStyleTableRecord
  2
EZ_M_50_H25_CM
 70
0
 40
1.0
 41
0.125
 42
0.0625
 43
3.75
 44
0.1875
 45
0.0
 46
0.0
 47
0.0
 48
0.0
 49
2.5
140
0.125
141
2.5
142
0.0625
143
0.03937007874
144
100.0
145
0.0
146
0.5
147
0.05
148
0.0
 69
0
 70
0
 71
0
 72
0
 73
0
 74
0
 75
0
 76
0
 77
1
 78
12
 79
3
170
0
171
3
172
1
173
0
174
0
175
0
176
0
177
0
178
0
179
2
271
2
272
2
273
2
274
3
275
0
276
0
277
2
278
46
279
2
280
0
281
0
282
0
283
0
284
8
285
0
286
0
288
1
289
3
290
0
340
4C
371
-2
372
-2
  0
DIMSTYLE
105
7E
330
4
100
AcDbSymbolTableRecord
100
AcDbDimStyleTableRecord
  2
EZ_M_25_H25_CM
 70
0
 40
1.0
 41
0.0625
 42
0.03125
 43
3.75
 44
0.09375
 45
0.0
 46
0.0
 47
0.0
 48
0.0
 49
2.5
140
0.0625
141
2.5
142
0.03125
143
0.03937007874
144
100.0
145
0.0
146
0.5
147
0.025
148
0.0
 69
0
 70
0
 71
0
 72
0
 73
0
 74
0
 75
0
 76
0
 77
1
 78
12
 79
3
170
0
171
3
172
1
173
0
174
0
175
0
176
0
177
0
178
0
179
2
271
2
272
2
273
2
274
3
275
0
276
0
277
2
278
46
279
2
280
0
281
0
282
0
283
0
284
8
285
0
286
0
288
1
289
3
290
0
340
4C
371
-2
372
-2
  0
DIMSTYLE
105
7F
330
4
100
AcDbSymbolTableRecord
100
AcDbDimStyleTableRecord
  2
EZ_M_20_H25_CM
 70
0
 40
1.0
 41
0.05
 42
0.025
 43
3.75
 44
0.07500000000000001
 45
0.0
 46
0.0
 47
0.0
 48
0.0
 49
2.5
140
0.05
141
2.5
142
0.025
143
0.03937007874
144
100.0
145
0.0
146
0.5
147
0.020000000000000004
148
0.0
 69
0
 70
0
 71
0
 72
0
 73
0
 74
0
 75
0
 76
0
 77
1
 78
12
 79
3
170
0
171
3
172
1
173
0
174
0
175
0
176
0
177
0
178
0
179
2
271
2
272
2
273
2
274
3
275
0
276
0
277
2
278
46
279
2
280
0
281
0
282
0
283
0
284
8
285
0
286
0
288
1
289
3
290
0
340
4C
371
-2
372
-2
  0
DIMSTYLE
105
80
330
4
100
AcDbSymbolTableRecord
100
AcDbDimStyleTableRecord
  2
EZ_M_10_H25_CM
 70
0
 40
1.0
 41
0.025
 42
0.0125
 43
3.75
 44
0.037500000000000006
 45
0.0
 46
0.0
 47
0.0
 48
0.0
 49
2.5
140
0.025
141
2.5
142
0.0125
143
0.03937007874
144
100.0
145
0.0
146
0.5
147
0.010000000000000002
148
0.0
 69
0
 70
0
 71
0
 72
0
 73
0
 74
0
 75
0
 76
0
 77
1
 78
12
 79
3
170
0
171
3
172
1
173
0
174
0
175
0
176
0
177
0
178
0
179
2
271
2
272
2
273
2
274
3
275
0
276
0
277
2
278
46
279
2
280
0
281
0
282
0
283
0
284
8
285
0
286
0
288
1
289
3
290
0
340
4C
371
-2
372
-2
  0
DIMSTYLE
105
81
330
4
100
AcDbSymbolTableRecord
100
AcDbDimStyleTableRecord
  2
EZ_M_5_H25_CM
 70
0
 40
1.0
 41
0.0125
 42
0.00625
 43
3.75
 44
0.018750000000000003
 45
0.0
 46
0.0
 47
0.0
 48
0.0
 49
2.5
140
0.0125
141
2.5
142
0.00625
143
0.03937007874
144
100.0
145
0.0
146
0.5
147
0.005000000000000001
148
0.0
 69
0
 70
0
 71
0
 72
0
 73
0
 74
0
 75
0
 76
0
 77
1
 78
12
 79
3
170
0
171
3
172
1
173
0
174
0
175
0
176
0
177
0
178
0
179
2
271
2
272
2
273
2
274
3
275
0
276
0
277
2
278
46
279
2
280
0
281
0
282
0
283
0
284
8
285
0
286
0
288
1
289
3
290
0
340
4C
371
-2
372
-2
  0
DIMSTYLE
105
82
330
4
100
AcDbSymbolTableRecord
100
AcDbDimStyleTableRecord
  2
EZ_M_1_H25_CM
 70
0
 40
1.0
 41
0.0025
 42
0.00125
 43
3.75
 44
0.00375
 45
0.0
 46
0.0
 47
0.0
 48
0.0
 49
2.5
140
0.0025
141
2.5
142
0.00125
143
0.03937007874
144
100.0
145
0.0
146
0.5
147
0.001
148
0.0
 69
0
 70
0
 71
0
 72
0
 73
0
 74
0
 75
0
 76
0
 77
1
 78
12
 79
3
170
0
171
3
172
1
173
0
174
0
175
0
176
0
177
0
178
0
179
2
271
2
272
2
273
2
274
3
275
0
276
0
277
2
278
46
279
2
280
0
281
0
282
0
283
0
284
8
285
0
286
0
288
1
289
3
290
0
340
4C
371
-2
372
-2
  0
DIMSTYLE
105
83
330
4
100
AcDbSymbolTableRecord
100
AcDbDimStyleTableRecord
  2
EZ_RADIUS
 70
0
 40
1.0
 41
0.25
 42
0.125
 43
3.75
 44
0.375
 45
0.0
 46
0.0
 47
0.0
 48
0.0
 49
2.5
140
0.25
141
0.0
142
0.0
143
0.03937007874
144
100.0
145
0.0
146
0.5
147
0.1
148
0.0
 69
0
 70
0
 71
0
 72
0
 73
0
 74
0
 75
0
 76
0
 77
1
 78
12
 79
3
170
0
171
3
172
0
173
0
174
0
175
0
176
0
177
0
178
0
179
2
271
2
272
2
273
2
274
3
275
0
276
0
277
2
278
46
279
1
280
0
281
0
282
0
283
0
284
8
285
0
286
0
288
1
289
3
290
0
340
4C
342
84
371
-2
372
-2
  0
DIMSTYLE
105
88
330
4
100
AcDbSymbolTableRecord
100
AcDbDimStyleTableRecord
  2
EZ_RADIUS_INSIDE
 70
0
 40
1.0
 41
0.25
 42
0.125
 43
3.75
 44
0.375
 45
0.0
 46
0.0
 47
0.0
 48
0.0
 49
2.5
140
0.25
141
0.0
142
0.0
143
0.03937007874
144
100.0
145
0.0
146
0.5
147
0.1
148
0.0
 69
0
 70
0
 71
0
 72
0
 73
0
 74
0
 75
0
 76
0
 77
0
 78
12
 79
3
170
0
171
3
172
0
173
0
174
1
175
0
176
0
177
0
178
0
179
2
271
2
272
2
273
2
274
3
275
0
276
0
277
2
278
46
279
0
280
0
281
0
282
0
283
0
284
8
285
0
286
0
288
1
289
0
290
0
340
4C
342
84
371
-2
372
-2
  0
DIMSTYLE
105
89
330
4
100
AcDbSymbolTableRecord
100
AcDbDimStyleTableRecord
  2
EZ_CURVED
 70
0
 40
1.0
 41
0.25
 42
0.125
 43
3.75
 44
0.375
 45
0.0
 46
0.0
 47
0.0
 48
0.0
 49
2.5
140
0.25
141
2.5
142
0.0
143
0.03937007874
144
100.0
145
0.0
146
0.5
147
0.1
148
0.0
 69
0
 70
0
 71
0
 72
0
 73
0
 74
0
 75
0
 76
0
 77
1
 78
12
 79
2
 90
2
170
0
171
3
172
1
173
0
174
0
175
0
176
0
177
0
178
0
179
2
271
2
272
2
273
2
274
3
275
0
276
0
277
2
278
46
279
2
280
0
281
0
282
0
283
0
284
8
285
0
286
0
288
1
289
3
290
0
340
4C
371
-2
372
-2
  0
ENDTAB
  0
TABLE
  2
BLOCK_RECORD
  5
9
330
0
100
AcDbSymbolTable
 70
5
  0
BLOCK_RECORD
  5
17
330
9
100
AcDbSymbolTableRecord
100
AcDbBlockTableRecord
  2
*Model_Space
340
1A
 70
0
280
1
281
0
  0
BLOCK_RECORD
  5
1B
330
9
100
AcDbSymbolTableRecord
100
AcDbBlockTableRecord
  2
*Paper_Space
340
1E
 70
0
280
1
281
0
  0
BLOCK_RECORD
  5
74
330
9
100
AcDbSymbolTableRecord
100
AcDbBlockTableRecord
  2
_ARCHTICK
340
0
 70
0
280
1
281
0
  0
BLOCK_RECORD
  5
78
330
9
100
AcDbSymbolTableRecord
100
AcDbBlockTableRecord
  2
_CLOSEDFILLED
340
0
 70
0
280
1
281
0
  0
BLOCK_RECORD
  5
84
330
9
100
AcDbSymbolTableRecord
100
AcDbBlockTableRecord
  2
_CLOSEDBLANK
340
0
 70
0
280
1
281
0
  0
ENDTAB
  0
ENDSEC
  0
SECTION
  2
BLOCKS
  0
BLOCK
  5
18
330
17
100
AcDbEntity
  8
0
100
AcDbBlockBegin
  2
*Model_Space
 70
0
 10
0.0
 20
0.0
 30
0.0
  3
*Model_Space
  1

  0
ENDBLK
  5
19
330
17
100
AcDbEntity
  8
0
100
AcDbBlockEnd
  0
BLOCK
  5
1C
330
1B
100
AcDbEntity
  8
0
100
AcDbBlockBegin
  2
*Paper_Space
 70
0
 10
0.0
 20
0.0
 30
0.0
  3
*Paper_Space
  1

  0
ENDBLK
  5
1D
330
1B
100
AcDbEntity
  8
0
100
AcDbBlockEnd
  0
BLOCK
  5
75
330
74
100
AcDbEntity
  8
0
100
AcDbBlockBegin
  2
_ARCHTICK
 70
0
 10
0.0
 20
0.0
 30
0.0
  3
_ARCHTICK
  1

  0
LWPOLYLINE
  5
77
330
74
100
AcDbEntity
  8
0
  6
BYBLOCK
 62
0
100
AcDbPolyline
 90
2
 70
0
 43
0.15
 10
-0.5
 20
-0.5
 10
0.5
 20
0.5
  0
ENDBLK
  5
76
330
74
100
AcDbEntity
  8
0
100
AcDbBlockEnd
  0
BLOCK
  5
79
330
78
100
AcDbEntity
  8
0
100
AcDbBlockBegin
  2
_CLOSEDFILLED
 70
0
 10
0.0
 20
0.0
 30
0.0
  3
_CLOSEDFILLED
  1

  0
SOLID
  5
7B
330
78
100
AcDbEntity
  8
0
  6
BYBLOCK
 62
0
100
AcDbTrace
 10
-1.0
 20
0.16439898372402537
 30
0.0
 11
0.0
 21
0.0
 31
0.0
 12
-1.0
 22
-0.16439898372402537
 32
0.0
 13
-1.0
 23
-0.16439898372402537
 33
0.0
  0
ENDBLK
  5
7A
330
78
100
AcDbEntity
  8
0
100
AcDbBlockEnd
  0
BLOCK
  5
85
330
84
100
AcDbEntity
  8
0
100
AcDbBlockBegin
  2
_CLOSEDBLANK
 70
0
 10
0.0
 20
0.0
 30
0.0
  3
_CLOSEDBLANK
  1

  0
LWPOLYLINE
  5
87
330
84
100
AcDbEntity
  8
0
  6
BYBLOCK
 62
0
100
AcDbPolyline
 90
3
 70
1
 10
-1.0
 20
0.16439898372402537
 10
0.0
 20
0.0
 10
-1.0
 20
-0.16439898372402537
  0
ENDBLK
  5
86
330
84
100
AcDbEntity
  8
0
100
AcDbBlockEnd
  0
ENDSEC
  0
SECTION
  2
ENTITIES
  0
LWPOLYLINE
  5
8D
330
17
100
AcDbEntity
  8
HOJA
100
AcDbPolyline
 90
4
 70
1
 10
0.0
 20
0.0
 10
500.0
 20
0.0
 10
500.0
 20
700.0
 10
0.0
 20
700.0
  0
LWPOLYLINE
  5
8E
330
17
100
AcDbEntity
  8
CORTE
100
AcDbPolyline
 90
551
 70
1
 10
13.0
 20
13.0
 10
13.0
 20
274.0195652173913
 10
64.91504172860257
 20
274.0195652173913
 10
62.825981019944706
 20
271.0310419946363
 10
62.78461147396318
 20
270.97144109612634
 10
62.70359046366818
 20
270.8482823143469
 10
60.82460376240866
 20
268.0414208922387
 10
59.90492675189866
 20
266.5877331242685
 10
58.97239824121927
 20
265.1120478919226
 10
57.604553643857685
 20
262.8048716940586
 10
57.226932380988146
 20
262.1821333642282
 10
56.98382095161732
 20
261.7535501897395
 10
55.55856842366181
 20
259.2528517419565
 10
54.06193154715572
 20
256.423301076316
 10
54.008598728310574
 20
256.3236029204484
 10
53.956465286597435
 20
256.2176714228696
 10
52.51943610476401
 20
253.3938580716125
 10
51.16164691917635
 20
250.48458073758968
 10
51.15175658660969
 20
250.46412194773646
 10
51.14131270588162
 20
250.44048837218577
 10
49.83563859272226
 20
247.53499781835032
 10
48.936190207828474
 20
245.32364397879942
 10
48.63118668994133
 20
244.60530731923512
 10
48.21983659399169
 20
243.53106562298325
 10
47.4929913689496
 20
241.67619663933397
 10
47.10095334259175
 20
240.55424150444432
 10
46.43559909781058
 20
238.7465206097769
 10
45.5653869887589
 20
236.08419563381796
 10
45.4731714202814
 20
235.8168549224864
 10
45.298637461854085
 20
235.2445624864673
 10
44.55832589244697
 20
232.88775091704466
 10
44.277963509899195
 20
231.86441125993727
 10
43.720916930444005
 20
229.95804041558208
 10
43.18302382856767
 20
227.83628999455166
 10
42.96414349572568
 20
227.02831162334905
 10
42.37704596639471
 20
224.5156868089624
 10
42.27606818673931
 20
224.09916176653903
 10
42.24993181796289
 20
223.9720058362156
 10
41.62652001374583
 20
221.16938060064388
 10
41.45308125170685
 20
220.24285133389554
 10
41.04649638441442
 20
218.23957891059587
 10
40.77430391510859
 20
216.63212311654263
 10
40.53107891827743
 20
215.30978090829052
 10
40.199269353440606
 20
213.12543663645553
 10
40.07603517101264
 20
212.3799441859678
 10
39.716078501684166
 20
209.71085200715714
 10
39.677742223076606
 20
209.4500929313248
 10
39.45563160297318
 20
207.57024930537713
 10
39.325620112483854
 20
206.52061476600676
 10
39.311755128258426
 20
206.37680489417687
 10
39.014331539743715
 20
203.59071154339935
 10
38.975333603353036
 20
203.10941572012442
 10
38.755245682573246
 20
200.66077400324642
 10
38.70572079574882
 20
199.9090137167812
 10
38.546262452206975
 20
197.73083764371825
 10
38.497340671150674
 20
196.77003255457012
 10
38.38572451816066
 20
194.80088221281287
 10
38.34552543516101
 20
193.68778293625135
 10
38.272362518486
 20
191.87093214675463
 10
38.24638875936878
 20
190.6583764474171
 10
38.20530379973753
 20
188.94096729080715
 10
38.19671384856392
 20
187.67861378319256
 10
38.18403072020459
 20
186.01101154330337
 10
38.193856871306465
 20
184.74575963663932
 10
38.20837917939885
 20
183.08104519857918
 10
38.235702964674545
 20
181.85778168826468
 10
38.2785429780577
 20
180.15109189068716
 10
38.320577736833094
 20
179.01298095534858
 10
38.39507613758913
 20
177.22114310877058
 10
38.4472440813452
 20
176.21010883785578
 10
38.55888564801579
 20
174.2911892685955
 10
38.614824176147174
 20
173.44828814756394
 10
38.77127199862095
 20
171.36125505945478
 10
38.822817434331085
 20
170.72702777434418
 10
39.03393646547447
 20
168.43132005115342
 10
39.07105092559694
 20
168.0461460790264
 10
39.34902305651356
 20
165.50140900191153
 10
39.35969578224844
 20
165.40583240182846
 10
39.45562012287728
 20
164.64945356864132
 10
39.67466821582441
 20
162.79103508327614
 10
39.70359321660297
 20
162.5719455416413
 10
40.020722738280824
 20
160.20838798306602
 10
40.10597651632736
 20
159.64210944237382
 10
40.40428165325572
 20
157.66338268595848
 10
40.56545263577648
 20
156.71227740009252
 10
40.8262172902498
 20
155.1569075276903
 10
41.0857015965004
 20
153.7824734964797
 10
41.287695905762504
 20
152.69013519469902
 10
41.671022695114075
 20
150.85268833789775
 10
41.7901801500838
 20
150.26453010825716
 10
42.326410462539805
 20
147.92291336740976
 10
42.335465554971464
 20
147.8818928941996
 10
42.377014468022566
 20
147.71570146848572
 10
42.88627930972091
 20
145.50387152429238
 10
43.01767901703421
 20
144.99377098870426
 10
43.47390113511348
 20
143.16377223583743
 10
43.7811931541506
 20
142.064049250026
 10
44.10338665137066
 20
140.86570884706484
 10
44.626121953923644
 20
139.13435708714397
 10
44.77707172185035
 20
138.61202601570105
 10
45.298587568958055
 20
137.00811881094876
 10
45.483573087851
 20
136.3901802602728
 10
45.54518864858713
 20
136.20527399981353
 10
46.19541430937211
 20
134.17481628093117
 10
46.516531494513075
 20
133.27560519981037
 10
46.95117599615551
 20
132.0035451737677
 10
47.583933799625
 20
130.34594814840037
 10
47.753708869335455
 20
129.87922545727403
 10
48.21976127429721
 20
128.73462898992292
 10
48.578820523996754
 20
127.77634180308618
 10
48.72814603975968
 20
127.41686128353545
 10
49.41562176814958
 20
125.68640566988007
 10
49.944732360518955
 20
124.48718953669265
 10
50.29941749447292
 20
123.64363255167792
 10
51.14121377971722
 20
121.84418865521434
 10
51.227627678881504
 20
121.64416905783861
 10
51.26865886068042
 20
121.55807004172595
 10
52.144742826967104
 20
119.63479888114193
 10
52.65129278291397
 20
118.62835231781327
 10
53.109361949282544
 20
117.67308468596005
 10
54.062504268315195
 20
115.87715501850273
 10
54.121307037210116
 20
115.75763656827326
 10
54.152893404435176
 20
115.6991778502198
 10
55.11833728594014
 20
113.82838517059805
 10
55.719446724793784
 20
112.76938344019977
 10
56.163646633351846
 20
111.94754786360582
 10
56.98365830885514
 20
110.57036097461389
 10
57.24396249775968
 20
110.10072894272128
 10
57.401957988855855
 20
109.84013564091056
 10
58.320921759621385
 20
108.25155445169919
 10
59.17084888669484
 20
106.91023577326862
 10
59.44720293656546
 20
106.4518207319961
 10
59.90472351321402
 20
105.75995016971731
 10
60.58392058491357
 20
104.661655487106
 10
61.04271006277712
 20
103.98090557443955
 10
61.74133707019348
 20
102.89303720292921
 10
62.82644803065432
 20
101.34450927184487
 10
62.94297163404562
 20
101.16816903641683
 10
63.0265440996955
 20
101.05158020545424
 10
64.13358579998892
 20
99.4327187623961
 10
65.10736387280123
 20
98.1214420543413
 10
65.3727119984315
 20
97.74585616171105
 10
65.74741148819113
 20
97.2579881864127
 10
66.6170552970529
 20
96.06397388881415
 10
67.30370354978274
 20
95.19202955754446
 10
67.88966223383984
 20
94.41053689719364
 10
68.6690055364901
 20
93.4500630073234
 10
69.18735740589058
 20
92.78241959391441
 10
69.62193864705053
 20
92.26262952260382
 10
70.49609684367198
 20
91.16505376530613
 10
71.59049968014575
 20
89.88995444661784
 10
71.84242969716652
 20
89.58601194466023
 10
72.06719221444243
 20
89.33325545980448
 10
73.19029440818443
 20
88.00771179677719
 10
74.5118713620735
 20
86.55464058092667
 10
74.58249757670201
 20
86.4750096545322
 10
74.64990688453875
 20
86.40391574838821
 10
75.97301598605038
 20
84.93929798582317
 10
77.38945308406255
 20
83.47327090322776
 10
77.41039964050381
 20
83.45044910384243
 10
77.4327078050185
 20
83.42773121131107
 10
78.84764911359994
 20
81.96323736999604
 10
80.30922596825341
 20
80.54385818488055
 10
80.33164827994203
 20
80.52092785706095
 10
80.35387533811264
 20
80.49960396545107
 10
81.82058735785061
 20
79.08597989137998
 10
83.27507308197607
 20
77.76627112376129
 10
83.35354945159654
 20
77.69570500708943
 10
83.44719987541914
 20
77.61617790665058
 10
84.90185961219025
 20
76.31762438697793
 10
86.19572648063505
 20
75.22676722939892
 10
86.49062517720117
 20
74.98383676891527
 10
86.8709912214794
 20
74.68704746490273
 10
88.10614377749489
 20
73.672943974352
 10
89.11609610232632
 20
72.88733466585232
 10
89.76053720963837
 20
72.40555746408428
 10
90.6723837024557
 20
71.7579867646399
 10
91.45433825188886
 20
71.17294828635723
 10
92.03613387145289
 20
70.75927285772708
 10
93.18913702068524
 20
69.9868351969408
 10
94.95560478105968
 20
68.85940624944551
 10
94.97210481913429
 20
68.84972091307607
 10
95.00501799106202
 20
68.83127601369564
 10
96.81306667460996
 20
67.76448960222261
 10
97.87460529888376
 20
67.1660758091463
 10
98.7127984215105
 20
66.74519673324059
 10
100.46624977776634
 20
65.90239184464993
 10
100.68505243624561
 20
65.79147504327243
 10
100.7929931106892
 20
65.73904473736354
 10
102.7435500904914
 20
64.93214368035419
 10
103.71033585686993
 20
64.54830879131764
 10
104.90026037197121
 20
64.17189385702825
 10
106.6268947313785
 20
63.647222044641055
 10
107.17407235684404
 20
63.52948253370853
 10
109.54269447598362
 20
63.040320776761234
 10
109.59482782825654
 20
63.03456514597521
 10
110.12712308516868
 20
62.97858683997231
 10
112.23030276069656
 20
62.74630190572506
 10
112.45782717556762
 20
62.722265943822904
 10
115.12084022092634
 20
62.7224231708129
 10
115.37245554294081
 20
62.72288711236162
 10
117.61375473742443
 20
62.978556341761305
 10
118.28738589261096
 20
63.052035090137764
 10
118.37830928025159
 20
63.072428476866264
 10
121.20226710449585
 20
63.69911562602671
 10
122.29313846938264
 20
64.07280101032735
 10
124.11761375503937
 20
64.69068704336303
 10
126.72933710978852
 20
65.90336975899825
 10
127.03428304474593
 20
66.04013301848921
 10
127.35452355648593
 20
66.22451310084041
 10
129.95109900929515
 20
67.70712033281197
 10
131.54671852734847
 20
68.82790816514583
 10
132.86930601382923
 20
69.73166068377554
 10
135.35098481709744
 20
71.75576650264601
 10
135.7881719148511
 20
72.10412843606248
 10
138.56314362973697
 20
74.68367390689633
 10
138.707651013526
 20
74.81537780215749
 10
141.38599639286136
 20
77.61171687136572
 10
141.62766519365712
 20
77.85980155771352
 10
143.9413524853942
 20
80.53994740508156
 10
144.54815073700746
 20
81.23251040644985
 10
146.306694237985
 20
83.46840818823878
 10
147.46904886224124
 20
84.926439242127
 10
148.53349133054297
 20
86.39712968183063
 10
150.39030643537004
 20
88.92948897450793
 10
150.6570478579706
 20
89.32613206998816
 10
151.23447954164075
 20
90.17349036031673
 10
152.6639885642789
 20
92.25782048450367
 10
153.31226683188635
 20
93.19048092550995
 10
154.5988321772342
 20
95.18715705953389
 10
156.2341126583521
 20
97.68877332008498
 10
156.49578271795633
 20
98.11678706411098
 10
156.92889523708507
 20
98.81409021044729
 10
158.32443461284905
 20
101.04851434044879
 10
159.15657800070912
 20
102.36015883246675
 10
160.12638068458944
 20
103.97847701823436
 10
161.65293669140647
 20
106.48231649551866
 10
161.91472795086625
 20
106.91017711664965
 10
162.07921692408803
 20
107.17462799106657
 10
163.6607308798842
 20
109.84043082151419
 10
165.0016896714741
 20
112.06111510028735
 10
165.4137379186383
 20
112.77095492119894
 10
166.0148404600958
 20
113.78722914678761
 10
167.14812508943893
 20
115.70258092523802
 10
167.924616648842
 20
116.99311116933268
 10
168.88211180126603
 20
118.63332783225715
 10
170.29165864507422
 20
121.00721061755625
 10
170.62213387745737
 20
121.56482925457672
 10
170.84758556213222
 20
121.93988624551714
 10
172.35156359179533
 20
124.49574178061609
 10
173.77042400204175
 20
126.87477174153256
 10
174.09507504027272
 20
127.42681934374747
 10
174.57592359557555
 20
128.23464081277297
 10
175.83384574446677
 20
130.35809346216595
 10
176.6934261336487
 20
131.79748679108766
 10
177.57925774399382
 20
133.28924125661996
 10
178.90170182688783
 20
135.50371145824587
 10
179.3269042354382
 20
136.22025542261056
 10
179.61631163877678
 20
136.70751073526293
 10
181.07129684558532
 20
139.15143751782293
 10
182.53927560358483
 20
141.62333769063417
 10
182.81455796043707
 20
142.08268157444874
 10
183.22232253577116
 20
142.76754248855755
 10
184.5485281814564
 20
145.01330977100034
 10
185.46194789253448
 20
146.5790769258056
 10
186.27171072011572
 20
147.94447445658713
 10
187.41111684859962
 20
149.89897924848515
 10
187.97464134837347
 20
150.87476373517995
 10
188.3843560861071
 20
151.60104941083495
 10
189.65764445017462
 20
153.80579717622814
 10
191.29398064328205
 20
156.72338989237582
 10
191.30081105247885
 20
156.73570017765445
 10
191.30649791015622
 20
156.7463278587499
 10
192.9169211831854
 20
159.66656476135446
 10
194.22926333505393
 20
162.15076135137278
 10
194.47398725842308
 20
162.59740277567235
 10
194.74148592811758
 20
163.11075191797815
 10
195.98426497398216
 20
165.52670302784963
 10
197.15102459978718
 20
167.93147819118306
 10
197.41737145404667
 20
168.45729764695105
 10
197.6581383312076
 20
168.96541690397845
 10
198.78760159270684
 20
171.38615520303918
 10
200.04021259193442
 20
174.28398378625906
 10
200.0532898252692
 20
174.31478603108425
 10
200.07147864033365
 20
174.36153729057386
 10
201.2506128413501
 20
177.24489294682735
 10
201.94827725773567
 20
179.1262974066615
 10
202.32757248850507
 20
180.17310550676174
 10
202.99288902481615
 20
182.226884310726
 10
203.29339100890385
 20
183.1029188301226
 10
203.42395105993475
 20
183.53429710108355
 10
204.15564502125832
 20
186.03077126572572
 10
204.55178653751963
 20
187.5940008106992
 10
204.88354143260116
 20
188.95849837130018
 10
205.37153443667492
 20
191.34451134546194
 10
205.47632621678585
 20
191.8861612255243
 10
205.91289922420265
 20
194.67992389708445
 10
205.93553607058044
 20
194.81536996791746
 10
205.93870786328424
 20
194.83980831406936
 10
206.27706491498267
 20
197.74286960409705
 10
206.30934380308935
 20
198.13934680987543
 10
206.47882999573196
 20
200.6703872244996
 10
206.4989299081505
 20
201.25718754571898
 10
206.5421059171103
 20
203.5979769416186
 10
206.53485401477536
 20
204.22084586668262
 10
206.46809380236346
 20
206.5256311737253
 10
206.4384830585426
 20
207.051765311095
 10
206.25766824246344
 20
209.4534128775699
 10
206.22643522565212
 20
209.76667036591863
 10
205.9124385323324
 20
212.3707190430211
 10
205.9113249018266
 20
212.38069182283948
 10
205.52431501408597
 20
214.92043556425733
 10
205.45682349973583
 20
215.3087015138456
 10
205.0586885018008
 20
217.38116817945348
 10
204.87421227981415
 20
218.23696056585362
 10
204.52036666584058
 20
219.76904215093919
 10
204.1620492594824
 20
221.16536176126382
 10
203.91368208535857
 20
222.08840641703992
 10
203.31779537626429
 20
224.09387837538938
 10
203.24163888306268
 20
224.34226836048438
 10
202.9926901731867
 20
225.08039670243946
 10
202.5318838830179
 20
226.5613329331612
 10
202.37539173278228
 20
227.02231107047373
 10
201.7809132048698
 20
228.73622087274703
 10
201.32206954659017
 20
229.95114271727942
 10
200.97587969211338
 20
230.85694611779314
 10
200.1348827548716
 20
232.8800687271763
 10
200.11676536199167
 20
232.92348468003945
 10
200.0723888538994
 20
233.02129712175892
 10
199.249798510354
 20
234.98519885817547
 10
198.87712341077264
 20
235.80911678607976
 10
198.3384974108956
 20
236.99957631341164
 10
197.48890074407248
 20
238.73827920905487
 10
197.37860079561327
 20
238.96526828411365
 10
197.15128315933046
 20
239.39825179918483
 10
196.40887207720692
 20
240.92400947042452
 10
196.02029886488674
 20
241.66762460786015
 10
195.40779191530305
 20
242.848581621506
 10
194.43336393981883
 20
244.59703905631292
 10
194.36138765392755
 20
244.7277575169107
 10
194.2301837421713
 20
244.94934489717375
 10
193.31525399128296
 20
246.60990422652839
 10
192.77512236215742
 20
247.5266194446927
 10
192.23505484485452
 20
248.4553540840515
 10
191.3081593407064
 20
249.94471462569683
 10
191.1196416888445
 20
250.2678926104248
 10
191.0026574981236
 20
250.45623892669136
 10
190.00738798398666
 20
252.0813711304015
 10
189.15597813765498
 20
253.38599856966923
 10
188.8552841569373
 20
253.85496069757667
 10
188.38699447372616
 20
254.53974954106326
 10
187.69197921151576
 20
255.61943585211836
 10
187.21617852888602
 20
256.3158115381485
 10
186.51208037445883
 20
257.3653136094122
 10
185.46497452939718
 20
258.834641414034
 10
185.29923262350914
 20
259.07992329585437
 10
185.18081969053952
 20
259.2456293073875
 10
184.0919249259338
 20
260.7985006641681
 10
183.0699212611556
 20
262.1757091052894
 10
182.84840148051308
 20
262.48085363271497
 10
182.54369458994447
 20
262.87718987726987
 10
181.60246388967911
 20
264.1621951838955
 10
180.87367131945862
 20
265.1056871564737
 10
180.33423289383757
 20
265.8199550259423
 10
179.62165837291485
 20
266.71408454920294
 10
179.04944143794378
 20
267.46212532282044
 10
178.58829939454236
 20
268.03567170242064
 10
177.75613175050162
 20
269.0949135726767
 10
176.69965498143213
 20
270.3736511380727
 10
176.4369904557502
 20
270.7024028934883
 10
176.2166351710858
 20
270.9656350800553
 10
175.11803853431613
 20
272.30967228723193
 10
173.77769038421306
 20
273.8740591411595
 10
173.76787043278998
 20
273.8858212795257
 10
173.6512372261638
 20
274.0195652173913
 10
273.08934531989917
 20
274.0195652173913
 10
273.1451204876948
 20
273.8264556028159
 10
273.28494323776545
 20
273.4178319781188
 10
273.8743105792429
 20
271.6301087207443
 10
274.10138844894027
 20
271.0390733011792
 10
274.6404935173519
 20
269.4686060219704
 10
275.1852054550586
 20
268.10890589369205
 10
275.4544595621936
 20
267.35504144190594
 10
276.20611787950884
 20
265.55412760602707
 10
276.31326986208865
 20
265.28918228593477
 10
276.3634615527235
 20
265.1816112055566
 10
277.1830701966272
 20
263.2317389276419
 10
277.6590624217644
 20
262.2514855966886
 10
278.10606867134254
 20
261.227663512014
 10
279.0687285704833
 20
259.32136286324095
 10
279.08679667075035
 20
259.28150230683514
 10
279.1262580578821
 20
259.20631546703356
 10
280.0767643208861
 20
257.34791391644137
 10
280.6358667845558
 20
256.39442213638023
 10
281.12604504927594
 20
255.4706504676562
 10
282.04675579419654
 20
253.9587444059776
 10
282.2304200117432
 20
253.6523867522379
 10
282.35652130061476
 20
253.46770276862767
 10
283.35934082424205
 20
251.85512282232781
 10
284.2933949345007
 20
250.53764200125434
 10
284.5578058851242
 20
250.1276122678488
 10
284.96591467874975
 20
249.5729284252236
 10
285.79423043315813
 20
248.4426508392493
 10
286.48569138924125
 20
247.6112046327116
 10
287.0915406287526
 20
246.8143938058322
 10
287.88501768252735
 20
245.8954622861444
 10
288.4479074897922
 20
245.2505805104731
 10
289.00674791507504
 20
244.68495656791475
 10
289.8631955649753
 20
243.74078155170088
 10
290.8031957538439
 20
242.8259193959316
 10
291.3502001391172
 20
242.30896982318205
 10
292.0090081180474
 20
241.75884874824283
 10
292.90888822410625
 20
240.94311120310252
 10
293.7202953405414
 20
240.29372118021763
 10
294.5487895176794
 20
239.665670882892
 10
295.7963714800632
 20
238.83273298798002
 10
296.28588436870325
 20
238.47888527468064
 10
296.63607516297714
 20
238.2561828697838
 10
298.11810199951657
 20
237.39529094723704
 10
299.55219836273045
 20
236.66812805480015
 10
300.0743607600967
 20
236.4366603064849
 10
301.4579836949585
 20
235.90977761617935
 10
302.17552229644133
 20
235.6152595997969
 10
302.4653596036237
 20
235.5135861740176
 10
304.44087916082407
 20
234.96687627263054
 10
305.3795965224114
 20
234.75414909917552
 10
306.916052529748
 20
234.52851302355825
 10
308.29344863501984
 20
234.38384042431284
 10
309.65654232841246
 20
234.35529490162511
 10
311.20735634207506
 20
234.37644822963316
 10
312.7469441736384
 20
234.53162553389726
 10
314.1217415056269
 20
234.70907161031872
 10
316.3175924485968
 20
235.18801228516566
 10
317.03686017775965
 20
235.36130305767085
 10
318.7000949798899
 20
235.91145345248367
 10
319.9553963713306
 20
236.30104822514602
 10
320.59609451856494
 20
236.55520386721474
 10
322.87224826888945
 20
237.4931777016621
 10
325.5774454790387
 20
238.8386623766084
 10
325.7921412052682
 20
238.93946070472225
 10
326.01404530049666
 20
239.06159461414154
 10
328.7105472116267
 20
240.5724098841712
 10
330.57933505016604
 20
241.7659317331613
 10
331.6314475133806
 20
242.4042007826829
 10
333.6093181614115
 20
243.74936765789295
 10
334.55106316792114
 20
244.39547190217368
 10
334.9456370759997
 20
244.6937015872381
 10
337.4726377702657
 20
246.51951644491416
 10
338.8758682451817
 20
247.62389586374886
 10
340.3944061578801
 20
248.7717856457932
 10
342.58049507038703
 20
250.55415014403226
 10
343.3162897596675
 20
251.13306498947318
 10
346.11166960492557
 20
253.4844969825386
 10
346.2383074307133
 20
253.58777094241566
 10
346.9892742403312
 20
254.23736716594104
 10
349.15963754547937
 20
256.11791715308294
 10
349.48440297140286
 20
256.413628060182
 10
352.0819653418265
 20
258.7206365253157
 10
352.75452096935277
 20
259.344219430011
 10
355.0043275196975
 20
261.38807152395816
 10
355.9452131476041
 20
262.274871366313
 10
357.92675988202603
 20
264.112876891558
 10
359.068876773832
 20
265.20555596800057
 10
360.9760869565217
 20
267.0091253487569
 10
360.9760869565217
 20
96.23311992629348
 10
359.7435517000877
 20
96.88570161996462
 10
357.9449812405205
 20
97.84433110544143
 10
357.8332376100824
 20
97.8951982647964
 10
357.58524792212677
 20
98.009384881799
 10
355.83585785073944
 20
98.82433802014839
 10
355.02571259122493
 20
99.20855223135842
 10
353.7798935558523
 20
99.6869695992676
 10
352.1080119023373
 20
100.34580215284181
 10
351.65437991681495
 20
100.47893097022295
 10
350.15228160948806
 20
100.93686332947586
 10
349.414213208417
 20
101.1651143519198
 10
349.1901180102229
 20
101.2378114122917
 10
347.0254165706629
 20
101.69224818319942
 10
346.27444972536534
 20
101.86213164421511
 10
344.4639860294545
 20
102.04566122946551
 10
343.3598220631932
 20
102.17634203313834
 10
341.65261725693534
 20
102.14826203025805
 10
340.4460600535699
 20
102.14912715734211
 10
338.4542473080795
 20
101.86322247942807
 10
337.53271683486275
 20
101.74639057337737
 10
334.63884847700905
 20
100.93627608696042
 10
334.619605723781
 20
100.9310126299518
 10
334.61262421358595
 20
100.92804106106823
 10
331.705157537565
 20
99.72214902196193
 10
328.8731929467406
 20
98.0995163996659
 10
328.78971245388243
 20
98.0524280857387
 10
328.7402548753694
 20
98.01644903322969
 10
325.8723311879512
 20
95.99731711103072
 10
324.8153754918136
 20
95.08901294709732
 10
322.9534593252027
 20
93.54526571085503
 10
321.53268558843376
 20
92.16098894308573
 10
320.0334989686992
 20
90.75509203782094
 10
318.6120526421393
 20
89.23236530712778
 10
317.1126978523227
 20
87.68875046632773
 10
315.9081833684275
 20
86.3031968689154
 10
314.19132074918946
 20
84.40617843951068
 10
313.3396619346841
 20
83.37356325926166
 10
311.26948570377795
 20
80.96112114964968
 10
310.8585883089063
 20
80.44355048372
 10
308.8921699162479
 20
78.05899865905161
 10
308.44096918508734
 20
77.51144553250116
 10
308.34659077558763
 20
77.40062371954743
 10
306.0923451865327
 20
74.58122832616802
 10
305.42433866525755
 20
73.77023826287594
 10
303.7675880695049
 20
71.6508178986764
 10
302.50191521904316
 20
70.07272450364034
 10
301.46275936050245
 20
68.72026263583768
 10
299.57941611181786
 20
66.31955106637868
 10
299.17780478448384
 20
65.78961877980795
 10
297.8199483933471
 20
64.0249625974417
 10
296.92476099142976
 20
62.85823802069258
 10
296.6567099607851
 20
62.511921338524175
 10
294.71005431334424
 20
59.927738749790734
 10
293.7342800737432
 20
58.63547329063208
 10
292.5226947595973
 20
56.997247877827974
 10
290.81183666077175
 20
54.67354602985877
 10
290.3718002093481
 20
54.066800570724084
 10
289.2465896545499
 20
52.49693224725998
 10
288.27493720518606
 20
51.13622676228009
 10
287.8899069539936
 20
50.586911689922786
 10
286.23898246214526
 20
48.206065000221784
 10
284.96767411969626
 20
46.32383241358937
 10
284.26434414483913
 20
45.27599679832623
 10
282.9552967972718
 20
43.257765305886224
 10
282.366494736343
 20
42.34608533455516
 10
282.04634085846743
 20
41.829506934092144
 10
280.55544024424404
 20
39.416346474399575
 10
279.12431648003735
 20
36.98251691775933
 10
278.8325355893116
 20
36.4867152488711
 10
278.46557214504014
 20
35.82605282642716
 10
277.2113619630032
 20
33.55743036727949
 10
276.20331182837333
 20
31.61178231509857
 10
275.6918029008764
 20
30.628088562819315
 10
275.21094345174834
 20
29.632993722990655
 10
274.28150132050865
 20
27.699141807720913
 10
273.28237028892704
 20
25.44586467394271
 10
272.9806626989388
 20
24.770000960059804
 10
272.7715135998521
 20
24.257963212865914
 10
271.79095192647986
 20
21.841282946559986
 10
270.91634535636774
 20
19.467968254569996
 10
270.71344706101524
 20
18.9126338879671
 10
270.36212871287694
 20
17.845661258832695
 10
269.7429250174457
 20
15.983588415793657
 10
269.4799367501424
 20
15.099460456639633
 10
268.8630327636228
 20
13.0
 10
13.0
 20
13.0
  0
LWPOLYLINE
  5
8F
330
17
100
AcDbEntity
  8
GRABADO
100
AcDbPolyline
 90
582
 70
1
 10
13.0
 20
274.0195652173913
 10
57.43312893926634
 20
274.0195652173913
 10
56.98081493491243
 20
273.3456069877251
 10
55.37423644932683
 20
270.9722958079631
 10
54.05887258912793
 20
268.90263113297436
 10
53.503774575410105
 20
268.04267517992525
 10
52.661707012824394
 20
266.64133321478863
 10
51.71890452220926
 20
265.11288178658117
 10
51.13772253810656
 20
264.09784869606136
 10
50.01816779534215
 20
262.1833847088157
 10
48.70751959415641
 20
259.74617475515026
 10
48.433723404516286
 20
259.2536992351306
 10
48.21653328917374
 20
258.8276195568282
 10
46.905774122259274
 20
256.32436083666215
 10
45.71315444592565
 20
253.8138579495832
 10
45.505583325541295
 20
253.39475033377838
 10
45.29524770957637
 20
252.92516722150867
 10
44.156656191028844
 20
250.46551102038075
 10
43.3496661312047
 20
248.51447838913063
 10
42.92346584061579
 20
247.5359606905138
 10
42.37382646835684
 20
246.11880428348968
 10
41.763883793576625
 20
244.60682158931297
 10
41.427995615370335
 20
243.65842922862254
 10
40.68020066509622
 20
241.67724866608708
 10
39.84186763558883
 20
239.13770857844145
 10
39.704297428787086
 20
238.74763833676604
 10
39.45272482936477
 20
237.9286860260524
 10
38.77437690712118
 20
235.8185931388452
 10
38.51590092091632
 20
234.8793477620123
 10
37.922022006247005
 20
232.88893629306654
 10
37.39828780669748
 20
230.82851481850662
 10
37.15813199468592
 20
229.9592380543345
 10
36.531190480549014
 20
227.2814125210269
 10
36.46917474949845
 20
227.03014600947537
 10
36.45324652836827
 20
226.95229162315314
 10
35.80730825174517
 20
224.10038739475323
 10
35.64077587908156
 20
223.20748497257975
 10
35.21916759956231
 20
221.17056658582433
 10
34.95105363281385
 20
219.58574356031087
 10
34.697932014368796
 20
218.24071010953347
 10
34.36690484840685
 20
216.06988401018515
 10
34.237860482174135
 20
215.3108444479173
 10
33.87446963507526
 20
212.6459816347972
 10
33.834084327686284
 20
212.38092878393945
 10
33.60978298812506
 20
210.5230529680161
 10
33.4720511795652
 20
209.45150101357999
 10
33.45704785035251
 20
209.2987643676136
 10
33.1448246329105
 20
206.52148406006373
 10
33.10192131637861
 20
206.01250788898523
 10
32.86783553689787
 20
203.59146737738456
 10
32.81123793594777
 20
202.79088813238266
 10
32.63818324380307
 20
200.66141064437053
 10
32.57887392229844
 20
199.6277376118345
 10
32.453526108675604
 20
197.73135006645637
 10
32.39978744368839
 20
196.51802015250098
 10
32.312015276164246
 20
194.8012669455708
 10
32.269850696710506
 20
193.45759352687028
 10
32.212261756359496
 20
191.87118616148433
 10
32.185691422940884
 20
190.4430816412976
 10
32.153305463856114
 20
188.94108905050655
 10
32.144611607591486
 20
187.47181539439404
 10
32.134575309954705
 20
186.01099999006314
 10
32.14445428393991
 20
184.54152859571403
 10
32.15589962583347
 20
183.0809004164993
 10
32.18359140950179
 20
181.65069778310888
 10
32.21748097031474
 20
180.15081483786406
 10
32.2608251297153
 20
178.7980950392886
 10
32.31992163046925
 20
177.2207353037139
 10
32.37537860827043
 20
175.98293409470529
 10
32.4642130240471
 20
174.29065362830866
 10
32.52685603188919
 20
173.2048247643314
 10
32.65177907001771
 20
171.36059508515044
 10
32.7152341010767
 20
170.4637521938366
 10
32.88450245967013
 20
168.4305408310618
 10
32.94085138330182
 20
167.760052961491
 10
33.16476915415217
 20
165.50051604312483
 10
33.20440188511393
 20
165.09443784286057
 10
33.495532595823846
 20
162.57050270326252
 10
33.506963285823176
 20
162.46797890981838
 10
33.60977198759199
 20
161.68952914518795
 10
33.828870743118
 20
159.8602918890896
 10
33.859272461746784
 20
159.6411021720151
 10
34.177753392897216
 20
157.28039857133822
 10
34.26686807459309
 20
156.71119109780545
 10
34.56376568066807
 20
154.73779635577773
 10
34.73112905934651
 20
153.78131933041192
 10
34.988669113407745
 20
152.2342534129095
 10
35.25699878236908
 20
150.85147983056788
 10
35.45460423900998
 20
149.77191639044406
 10
35.850316242579055
 20
147.92166516079075
 10
35.964116412660594
 20
147.35334586710403
 10
36.51797153982123
 20
144.99190241717542
 10
36.520222317493335
 20
144.98158589550042
 10
36.53115870569029
 20
144.93889834745036
 10
37.06722866259989
 20
142.599815296316
 10
37.20902628553439
 20
142.06282878438853
 10
37.656213367585046
 20
140.26111786514176
 10
37.97954731934388
 20
139.1331492244087
 10
38.291565563130916
 20
137.9689966785593
 10
38.8394093365156
 20
136.20350062962683
 10
38.97696136999599
 20
135.7271473311711
 10
39.45267394820348
 20
134.3078690193394
 10
39.69075973289509
 20
133.51258444395296
 10
39.77218887687898
 20
133.27446298750826
 10
40.40572866525105
 20
131.30045350758732
 10
40.7568737064431
 20
130.34487265441277
 10
41.17108450163887
 20
129.13893198525628
 10
41.850597523817136
 20
127.41530884521167
 10
41.99116730678082
 20
127.03238217004818
 10
42.373749686708734
 20
126.12673800881181
 10
42.82235789712416
 20
124.935400092768
 10
43.01429614793325
 20
124.48619946654695
 10
43.66801689784782
 20
122.85450414424635
 10
44.25942874984173
 20
121.55663591126982
 10
44.56913633112846
 20
120.82930701669568
 10
45.29514955639978
 20
119.33392060284528
 10
45.5091452406553
 20
118.8413590362078
 10
45.61382348985039
 20
118.6274272512427
 10
46.435129284550726
 20
116.8410580955088
 10
47.028413225984906
 20
115.69782468608516
 10
47.41751151003069
 20
114.89737922538092
 10
48.21641071584514
 20
113.44469875658287
 10
48.440043101978844
 20
112.99211244812237
 10
48.56368931677679
 20
112.76849561747628
 10
49.44616778075938
 20
111.07216600936185
 10
50.16564605731605
 20
109.83881704261475
 10
50.509797592473646
 20
109.20992805386679
 10
51.13757250215997
 20
108.1890536161459
 10
51.59403342979451
 20
107.36649234395661
 10
51.87630237471703
 20
106.90935276937476
 10
52.680070622944285
 20
105.52661129449447
 10
53.68257745870157
 20
103.97956946407119
 10
53.824865367303104
 20
103.74566527368937
 10
54.05869281285737
 20
103.40152274955422
 10
54.9543983428314
 20
101.9476364136925
 10
55.56660314046054
 20
101.0499556255565
 10
56.120219034469045
 20
100.18762603901315
 10
56.980612649380305
 20
98.97896260978118
 10
57.31928555095219
 20
98.45949287227215
 10
57.56253833452338
 20
98.12031770429961
 10
58.508270359464674
 20
96.72255278375827
 10
59.65036894774005
 20
95.1902760509881
 10
59.754004340532646
 20
95.04248091068034
 10
59.90176065892415
 20
94.85147373474133
 10
60.97864556972847
 20
93.34006177460124
 10
61.8210440454107
 20
92.26050010506982
 10
62.24645085077634
 20
91.68193343546329
 10
62.82364919635225
 20
90.96599392589277
 10
63.52381829670844
 20
90.03262396787939
 10
64.09738788681628
 20
89.3307204980211
 10
64.81590153170163
 20
88.39864106646642
 10
65.74549349045972
 20
87.29270837892575
 10
66.13863395220349
 20
86.79508565948379
 10
66.47617196546209
 20
86.40094655279316
 10
67.45722282613798
 20
85.18747690893522
 10
68.66727724982826
 20
83.80776097256185
 10
68.81999954148506
 20
83.62437013923336
 10
68.9576514467989
 20
83.471187552283
 10
70.16749483826976
 20
82.04553534546118
 10
71.54640328466945
 20
80.54056817538756
 10
71.56605929324263
 20
80.51778192724443
 10
71.58859407609606
 20
80.49359736837543
 10
72.94590895020725
 20
78.97203077007558
 10
74.25120194544995
 20
77.61070200875152
 10
74.37447887724883
 20
77.47412861582421
 10
74.5103144487553
 20
77.33416388534692
 10
75.79374865487314
 20
75.96827518874065
 10
77.08853945567515
 20
74.68087129667026
 10
77.2560128043768
 20
74.50390963101387
 10
77.43194260227254
 20
74.33024645682474
 10
78.71461685363671
 20
73.037912094981
 10
80.07619853551564
 20
71.75109191564214
 10
80.2150295003648
 20
71.61154465990913
 10
80.35345075015344
 20
71.4810192053815
 10
81.7148083518067
 20
70.18728994027951
 10
83.24120975049196
 20
68.82136494377156
 10
83.25892891684639
 20
68.80448187439593
 10
83.2748104062905
 20
68.79022852907276
 10
84.8040016017597
 20
67.42615763083734
 10
86.19574492392137
 20
66.25274493222977
 10
86.39165968077909
 20
66.0911484314491
 10
86.64436252223496
 20
65.8935179274123
 10
87.99630090547348
 20
64.76872067549516
 10
89.11651790089037
 20
63.88455712281825
 10
89.63819879298748
 20
63.488738059313675
 10
90.36487068897793
 20
62.96415782303674
 10
91.31198453740346
 20
62.23537980662597
 10
92.03698686918146
 20
61.70420984137523
 10
93.02221982738372
 20
61.02464078770005
 10
94.52514778613171
 20
60.03490197157443
 10
94.78019683646728
 20
59.85544862004535
 10
94.95706138583365
 20
59.73652679244704
 10
96.58000516136414
 20
58.73534729755623
 10
97.87587462941123
 20
57.96942061722051
 10
98.43797533721886
 20
57.67438349042678
 10
99.56100322847252
 20
57.10828989223724
 10
100.36527100548635
 20
56.674854124795516
 10
100.79461879075564
 20
56.45235512567052
 10
102.36871963569135
 20
55.760721362704516
 10
103.71173272219266
 20
55.19200267645755
 10
104.46439447210604
 20
54.939801680968344
 10
106.62793348833713
 20
54.239801365569704
 10
106.67052360224756
 20
54.23016147402181
 10
106.88235009391586
 20
54.183816732298055
 10
109.04413358298788
 20
53.678687717344474
 10
109.54362982458264
 20
53.565582671709464
 10
111.60491812296522
 20
53.32525263918244
 10
112.4579261886419
 20
53.228893089746265
 10
114.43155959434996
 20
53.23815135716245
 10
115.37173661524332
 20
53.24306055323015
 10
117.64566838884429
 20
53.53880592797081
 10
118.28545948000465
 20
53.62072299481129
 10
120.45380190500062
 20
54.18338489368665
 10
121.20035313413274
 20
54.366486685298895
 10
121.49058124392089
 20
54.47602008536501
 10
124.11528896788208
 20
55.453632764460195
 10
126.69748432756711
 20
56.77070817699409
 10
127.03105334783211
 20
56.93900185275804
 10
127.28777706464234
 20
57.105144708790846
 10
129.94875481306048
 20
58.75400791367447
 10
131.62697283026233
 20
60.03295039939894
 10
132.86722685728174
 20
60.9441703959709
 10
135.16635069842962
 20
62.96077573586635
 10
135.7863434306703
 20
63.48824683426186
 10
138.2032949750352
 20
65.88868546237961
 10
138.7060330417219
 20
66.37556131673408
 10
140.90389670808375
 20
68.81672741442374
 10
141.62620796078755
 20
69.60254972324704
 10
143.36843160249097
 20
71.744940018343
 10
144.54680534537476
 20
73.16942747282967
 10
145.66118367267623
 20
74.67334930883509
 10
147.46777205864288
 20
77.0767229014794
 10
147.82529529738025
 20
77.60199254995604
 10
148.62770545677517
 20
78.76614989609071
 10
149.85706583672913
 20
80.5337372041774
 10
150.38948918608395
 20
81.2895765771991
 10
151.79038280933747
 20
83.46266418495894
 10
153.3110606801125
 20
85.79251376333121
 10
153.67232906297767
 20
86.39187036891984
 10
154.2441048159812
 20
87.32824765948592
 10
155.47523177514216
 20
89.32366424486888
 10
156.2333096453246
 20
90.53567657928491
 10
157.23515351670687
 20
92.25321104289766
 10
158.70118339923405
 20
94.72861450659356
 10
158.97391350800146
 20
95.1850213292683
 10
159.1557954221492
 20
95.48465558230689
 10
160.65922543041714
 20
98.11490791702496
 10
162.07806929535977
 20
100.5536585736205
 10
162.34944780642584
 20
101.04509427285346
 10
162.70237762094706
 20
101.67156672663245
 10
164.00913658134365
 20
103.97693934172261
 10
165.00095196534332
 20
105.69267386343938
 10
165.67376280680824
 20
106.90743852833724
 10
166.55712034315513
 20
108.46829112666232
 10
167.33554805569435
 20
109.83923120914255
 10
167.9239746684816
 20
110.85465168578068
 10
168.99734451312597
 20
112.77000558142896
 10
170.44537143943057
 20
115.29870262844601
 10
170.6762715418432
 20
115.70171044906485
 10
170.84708844055024
 20
115.99410025666445
 10
172.35146804956554
 20
118.63270115021997
 10
173.76998217799607
 20
121.07210927561779
 10
174.05111935033258
 20
121.56388554200718
 10
174.4467058563977
 20
122.24258767812786
 10
175.75585112458995
 20
124.49542214042137
 10
176.69321314513897
 20
126.08305891073923
 10
177.47998037085455
 20
127.42672877074514
 10
178.63911123019273
 20
129.37809988499882
 10
179.2184068205429
 20
130.35806304432393
 10
179.61638278093062
 20
131.02450936737057
 10
180.96906978630156
 20
133.2894301292375
 10
182.53948252470974
 20
135.89925678720525
 10
182.73440823741927
 20
136.22091138309676
 10
183.0394662169785
 20
136.72218852256324
 10
184.50805502994513
 20
139.1518875325544
 10
185.46251887238478
 20
140.7326545292665
 10
186.29035031353848
 20
142.08333599321463
 10
187.5922618780418
 20
144.21891649549966
 10
188.0731862035612
 20
145.0140038960793
 10
188.38532009962563
 20
145.5358200137888
 10
189.85934530053385
 20
147.94536533258815
 10
191.3083922574185
 20
150.35310629825366
 10
191.63284925693156
 20
150.87677191980964
 10
192.13522710786285
 20
151.70569254857037
 10
193.39731836861338
 20
153.80691087716698
 10
194.23083681429787
 20
155.23503087455688
 10
195.14037111088686
 20
156.7381423710752
 10
196.4262462040745
 20
158.93944859615752
 10
196.84747699388342
 20
159.66788937107765
 10
197.15295602523258
 20
160.2190990914069
 10
198.52966381059807
 20
162.59891344154988
 10
200.075819507013
 20
165.40826521542553
 10
200.14618237114084
 20
165.52992521363703
 10
200.230861501453
 20
165.68502566026407
 10
201.7274192074492
 20
168.45900377437144
 10
202.99748289545454
 20
170.97422933015898
 10
203.2195294279485
 20
171.38975430298697
 10
203.43864880626808
 20
171.83167812458365
 10
204.65392442492035
 20
174.31836135102972
 10
205.91889399465356
 20
177.1358586598081
 10
205.97297188030936
 20
177.24882662054728
 10
206.01439967325464
 20
177.34396025928524
 10
207.22544208639488
 20
180.17696337061403
 10
208.04438041702122
 20
182.30891428753807
 10
208.34321128779837
 20
183.104900241075
 10
208.838955234229
 20
184.59606281574023
 10
209.35348115207208
 20
186.03482842746436
 10
209.5878724812091
 20
186.7848539233904
 10
210.2461728628106
 20
188.96237060195637
 10
210.73904572484759
 20
190.8677674243721
 10
210.99195828394178
 20
191.88981304551834
 10
211.55156568782354
 20
194.61080733484093
 10
211.59146226900106
 20
194.81717834880115
 10
211.75870495009568
 20
195.90515116211333
 10
212.06713435248284
 20
197.74644152938689
 10
212.11229739052874
 20
198.09943115480297
 10
212.40173670018362
 20
200.67362852451018
 10
212.45463508052796
 20
201.37029869034373
 10
212.58545455220477
 20
203.60087093072778
 10
212.60704689575437
 20
204.45056618355835
 10
212.61983086774825
 20
206.52816887554602
 10
212.5999092509065
 20
207.37072346656856
 10
212.50586241746404
 20
209.4555909840331
 10
212.45606520363918
 20
210.15373845896147
 10
212.2437177454408
 20
212.38313133889898
 10
212.1926400497279
 20
212.81679791153545
 10
211.83246214436826
 20
215.31079926169457
 10
211.82236340674416
 20
215.37268832155672
 10
211.7589832029104
 20
215.7013837692439
 10
211.38343167735505
 20
217.86283405121213
 10
211.30802169897294
 20
218.2379931670345
 10
210.86827111272902
 20
220.27362932361206
 10
210.64858516428671
 20
221.16610765076774
 10
210.27705596815315
 20
222.60817874938198
 10
209.84471346960308
 20
224.09434092694696
 10
209.61302882621175
 20
224.86972725354488
 10
208.8906428776661
 20
227.02266238933453
 10
208.87794685376858
 20
227.06003086480615
 10
208.83929773475492
 20
227.16166330863166
 10
208.12961994715727
 20
229.24075298599718
 10
207.8610494660669
 20
229.95119791737218
 10
207.32504454568917
 20
231.36162421809468
 10
206.68697110859827
 20
232.87988963740244
 10
206.4599872464327
 20
233.4218675929768
 10
205.9182746468235
 20
234.59211275508193
 10
205.55999491516286
 20
235.45077110691628
 10
205.39626721858934
 20
235.80893468267809
 10
204.6457164951164
 20
237.4618571760592
 10
204.0108417785133
 20
238.73789592521473
 10
203.67674136017877
 20
239.418122384154
 10
202.99728614714425
 20
240.679920249414
 10
202.673693309557
 20
241.3438549545444
 10
202.5021951607108
 20
241.6673214019869
 10
201.66796948866738
 20
243.26348956890467
 10
200.90944952866687
 20
244.59655746112534
 10
200.61079244837964
 20
245.13155758476086
 10
200.07625998293054
 20
246.0101624854215
 10
199.53662384840476
 20
246.98607824572528
 10
199.2133912016789
 20
247.52627534709814
 10
198.45096296056386
 20
248.8257890388813
 10
197.41505572139516
 20
250.45571776581866
 10
197.31569562382288
 20
250.61579250763828
 10
197.1551368727145
 20
250.8542869356474
 10
196.1923491985643
 20
252.42104525474087
 10
195.55366460325928
 20
253.38567110390755
 10
195.03451917629224
 20
254.1886400594935
 10
194.23297445685682
 20
255.3379641990518
 10
193.8508039035084
 20
255.93320339977367
 10
193.58750147413375
 20
256.31567638354187
 10
192.67114909945133
 20
257.67910370646166
 10
191.54117514054388
 20
259.2454757506497
 10
191.44666319791844
 20
259.3801102162991
 10
191.31168833560608
 20
259.55905081202457
 10
190.23734323836183
 20
261.09896544964244
 10
189.43473853574434
 20
262.1756563353234
 10
188.99485456444867
 20
262.7821391344742
 10
188.38946361858044
 20
263.5625658107086
 10
187.74213799926034
 20
264.4572808355834
 10
187.24286640127823
 20
265.1058581685213
 10
186.48155614926569
 20
266.12251105703683
 10
185.467259291229
 20
267.39449304471617
 10
185.19246143274023
 20
267.7609683157755
 10
184.97384021244454
 20
268.0360739395506
 10
183.91357765937977
 20
269.4080427496163
 10
182.63640196624056
 20
270.96633516134096
 10
182.59633554098394
 20
271.0167509399805
 10
182.54568820912235
 20
271.0768010784455
 10
181.29609043106683
 20
272.6439202103625
 10
180.13720280023824
 20
274.0195652173913
 10
266.2770714358113
 20
274.0195652173913
 10
266.4913510803122
 20
273.00962313279837
 10
267.0145723121564
 20
271.03114932019076
 10
267.0920068133429
 20
270.6817638843037
 10
267.44046091813215
 20
269.42199692025054
 10
267.7129818279657
 20
268.3767418854161
 10
267.7993401087421
 20
268.10348227640367
 10
268.3482992388658
 20
266.0837898817516
 10
268.64868664463927
 20
265.17319101839973
 10
269.0277336309044
 20
263.83511268650057
 10
269.57575578128314
 20
262.2429207324665
 10
269.7552949357636
 20
261.6347384185433
 10
270.3617366347334
 20
259.9456699569756
 10
270.5212590633407
 20
259.4755233548692
 10
270.58590252927894
 20
259.3155034634682
 10
271.29106669203514
 20
257.31765971736604
 10
271.6832134253478
 20
256.3853396724622
 10
272.11374190785403
 20
255.21284774689892
 10
272.8833627109971
 20
253.45517766426434
 10
272.99394772960767
 20
253.16577252180187
 10
273.2823914775228
 20
252.53297720900719
 10
273.887340850098
 20
251.13480100970835
 10
274.1956148104113
 20
250.52798858659048
 10
274.81955691850936
 20
249.14001945572264
 10
275.6337054864805
 20
247.59791028873798
 10
275.81539427320473
 20
247.2090941617738
 10
276.20282161390617
 20
246.5030038121583
 10
276.83323785635224
 20
245.30337291690688
 10
277.2188968296383
 20
244.67088594251925
 10
277.8925060842236
 20
243.43613961543974
 10
278.9652312701773
 20
241.7408214791524
 10
279.0224589707635
 20
241.63984545251606
 10
279.1226513875355
 20
241.48728073234815
 10
280.16090385941084
 20
239.8556235741438
 10
280.9222943844478
 20
238.8139511017859
 10
281.3689062261994
 20
238.13769161255246
 10
282.0425252847852
 20
237.2485900617735
 10
282.62274618263774
 20
236.46986507560487
 10
283.11765144859476
 20
235.88726737678843
 10
283.923396385443
 20
234.84490824470927
 10
284.9617597737401
 20
233.66469911210908
 10
285.2904630973725
 20
233.29142724061643
 10
285.6206431564386
 20
232.96072412193394
 10
286.70191879117414
 20
231.7776294525002
 10
287.88021663017753
 20
230.63802028261935
 10
288.18932724940703
 20
230.34578826200791
 10
288.5615748051634
 20
230.03430486958763
 10
289.7351873445015
 20
228.96682714816114
 10
290.79765853144016
 20
228.10908514386404
 10
291.36233905642433
 20
227.67622021178045
 10
292.1991518025366
 20
227.1079133317156
 10
293.07473359449426
 20
226.46428152741984
 10
293.71391466475677
 20
226.0465210170102
 10
294.8794014268083
 20
225.3528402391195
 10
296.63012748010084
 20
224.43248051445977
 10
296.79760399517477
 20
224.35615297733418
 10
297.22911040404864
 20
224.18489592272286
 10
298.85420316657456
 20
223.48953092481102
 10
299.54358421223895
 20
223.23184899954992
 10
301.06948310814806
 20
222.79142583145412
 10
302.4573692880548
 20
222.4538666986971
 10
303.49002548798796
 20
222.29908077386423
 10
305.37049428802425
 20
222.0881537435296
 10
306.1820028915575
 20
222.07813015664303
 10
308.28343743162094
 20
222.11716344873193
 10
309.2540081630142
 20
222.23685672648259
 10
311.1967812167425
 20
222.52486643287003
 10
312.8897206221893
 20
222.95905272210962
 10
314.1109994962693
 20
223.29629582910124
 10
316.4127787408057
 20
224.18583438472555
 10
317.0289543470868
 20
224.40710743418717
 10
317.43740171683794
 20
224.5964319748752
 10
319.94535781020966
 20
225.79157450982348
 10
322.21986078869634
 20
227.11208006435984
 10
322.86520163050506
 20
227.461341879287
 10
323.82278958573704
 20
228.07249907305282
 10
325.7834789432201
 20
229.3392777820454
 10
326.7276820663233
 20
230.03873729367913
 10
328.704598476648
 20
231.4103912296183
 10
330.6998195003799
 20
232.96869186097234
 10
331.6260940477588
 20
233.64926164562388
 10
334.3869613210783
 20
235.89882312733903
 10
334.5478324275735
 20
236.02271043947832
 10
335.3260218419808
 20
236.67901907677822
 10
337.4682647922214
 20
238.49129622150812
 10
337.83545222854275
 20
238.8271081902316
 10
340.3905450030213
 20
241.04949645676956
 10
341.1507525798179
 20
241.7577104626522
 10
343.3129156615796
 20
243.682750213511
 10
344.3762867565333
 20
244.68839375651527
 10
346.23539569326636
 20
246.37683362674625
 10
347.53288506575007
 20
247.61914191913095
 10
349.1579229568694
 20
249.12048264920944
 10
350.6357253911744
 20
250.5499215018067
 10
352.0805274329259
 20
251.90477886067842
 10
353.6960934128858
 20
253.48076690812132
 10
355.00315549813996
 20
254.72258934029136
 10
356.7225496230784
 20
256.4116500105156
 10
357.9258437050532
 20
257.5681447525981
 10
359.721682037407
 20
259.3425423967469
 10
360.9760869565217
 20
260.5606013592954
 10
360.9760869565217
 20
102.58340343014247
 10
360.0740778731267
 20
103.08141472712512
 10
358.6624845913454
 20
103.87439451957826
 10
358.20192230455325
 20
104.13656958409263
 10
357.94254487246553
 20
104.28758427667563
 10
356.26797420176837
 20
105.1228598269241
 10
355.02358434128286
 20
105.76269426923257
 10
354.2942018591062
 20
106.06819797668182
 10
352.61213637497815
 20
106.80213769694262
 10
352.2575753398001
 20
106.95911377508412
 10
352.10400545111156
 20
107.03042578776152
 10
350.11485481654114
 20
107.73412061792419
 10
349.1868928047774
 20
108.08435372962072
 10
347.88088892781275
 20
108.41654815800123
 10
346.27103875672753
 20
108.86661816684966
 10
345.5235544805108
 20
108.97436223069036
 10
343.35644556077006
 20
109.34345812978864
 10
342.9868745458853
 20
109.35183647961416
 10
340.4430291204242
 20
109.47672586955377
 10
340.1678398417023
 20
109.44629318043049
 10
337.5303757500718
 20
109.22267374919956
 10
336.8590848802374
 20
109.05062761949559
 10
334.6179320690577
 20
108.53027910522798
 10
332.5807302235312
 20
107.68432926930465
 10
331.7049845675168
 20
107.33917785371452
 10
330.7988313988471
 20
106.80593306980974
 10
328.7906352549841
 20
105.65621358073554
 10
326.4596780875676
 20
103.87967552408796
 10
325.87398007882007
 20
103.44750643741368
 10
323.1608032739039
 20
100.95288153344758
 10
322.955479360512
 20
100.77096962876952
 10
320.35695293010383
 20
98.02532510126053
 10
320.03566570411533
 20
97.69957261950007
 10
317.8136539292605
 20
95.09699769895472
 10
317.1148773428634
 20
94.31424815375972
 10
315.41509407446483
 20
92.1679692828845
 10
314.1934329850057
 20
90.69605190572854
 10
313.09867540963967
 20
89.238354053584
 10
311.27148048538385
 20
86.91925743386007
 10
310.82866599435306
 20
86.3082626694931
 10
309.4068687236877
 20
84.43786163689023
 10
308.5989889883496
 20
83.37582085679998
 10
308.34822818336437
 20
83.06002246694642
 10
306.4066975169333
 20
80.44542497984575
 10
305.42577423744655
 20
79.17724932348118
 10
304.20911908410096
 20
77.51477197321132
 10
302.50312552730634
 20
75.26961430142364
 10
302.0050977979749
 20
74.58393147653548
 10
300.4853746014896
 20
72.56027307876285
 10
299.8045979748399
 20
71.65200357261969
 10
299.5798295331546
 20
71.36013312786747
 10
297.61779108939095
 20
68.72119424852441
 10
296.6571156632494
 20
67.45686646579338
 10
295.4250834921145
 20
65.7903260517018
 10
293.7343941073105
 20
63.53902289233878
 10
293.2343850974228
 20
62.85943972038095
 10
291.77646179134643
 20
60.89587118931368
 10
291.0601227011684
 20
59.928241399916374
 10
290.81166747175587
 20
59.59339153404591
 10
288.91349595608375
 20
56.99758069012603
 10
287.8891232748159
 20
55.58981646307967
 10
286.79118666394186
 20
54.06698099959631
 10
284.96660214748647
 20
51.50446399603892
 10
284.70571859090876
 20
51.136461960467386
 10
284.1064933618045
 20
50.273784245381066
 10
282.67488118214493
 20
48.20612307392564
 10
282.0447735169794
 20
47.27084603193376
 10
280.7020458825584
 20
45.27593496748908
 10
279.12253106841706
 20
42.84441371535509
 10
278.797673732233
 20
42.34586769275036
 10
278.25510657740585
 20
41.475885477449765
 10
276.9747845922907
 20
39.41619173935104
 10
276.201268484373
 20
38.10695917629228
 10
275.23831972449545
 20
36.486462889034776
 10
274.00455923971816
 20
34.2835218756389
 10
273.59923344240394
 20
33.557190442795815
 10
273.2802644290835
 20
32.94647103966474
 10
272.0588987754203
 20
30.627757962773895
 10
270.8843538542149
 20
28.225206064450013
 10
270.6280571000938
 20
27.698817749569116
 10
270.35928570472885
 20
27.09985683205415
 10
269.30148133959614
 20
24.76959262602594
 10
268.54766532300783
 20
22.953133581201236
 10
268.08838569478104
 20
21.840873493699846
 10
267.4381889329917
 20
20.106344770513356
 10
266.98351057013014
 20
18.911724477999044
 10
266.7453555595056
 20
18.217394338535517
 10
265.98436716727343
 20
15.983087303124176
 10
265.3440690489011
 20
13.882740723987217
 10
265.0776263973741
 20
13.0
 10
13.0
 20
13.0
 10
13.0
 20
274.0195652173913
  0
TEXT
  5
90
330
17
100
AcDbEntity
  8
GRABADO
100
AcDbText
 10
272.486368518691
 20
144.07877161227083
 30
0.0
 40
6.0
  1
15
 72
1
 11
272.486368518691
 21
144.07877161227083
 31
0.0
100
AcDbText
 73
2
  0
LWPOLYLINE
  5
91
330
17
100
AcDbEntity
  8
CORTE
100
AcDbPolyline
 90
582
 70
1
 10
198.4269140245955
 20
650.2460643482266
 10
382.99561861217717
 20
465.6773597606449
 10
351.5766518298857
 20
434.2583929783534
 10
351.4199256951566
 20
435.05478771249113
 10
350.877763807747
 20
437.8689946832327
 10
350.3443925865546
 20
440.26257131497385
 10
350.12882547035485
 20
441.26316557061966
 10
349.73335874776706
 20
442.84949566065063
 10
349.31924241260083
 20
444.596936064684
 10
349.012463353228
 20
445.7256305681817
 10
348.4503776360275
 20
447.8710057864188
 10
347.6537781814236
 20
450.5211417026394
 10
347.49914854400697
 20
451.06297762477124
 10
347.35144131751895
 20
451.51783805799005
 10
346.5082167968528
 20
454.2147559695115
 10
345.57633264172284
 20
456.8332590456654
 10
345.42675375134263
 20
457.27638782965016
 10
345.2434380886999
 20
457.75716297304064
 10
344.3093042932612
 20
460.30150833601215
 10
343.5003440330398
 20
462.2517248835371
 10
343.1097966484559
 20
463.24501049935924
 10
342.4963694703787
 20
464.6357451320994
 10
341.8585308557617
 20
466.1361729496606
 10
341.42542499482204
 20
467.04429642766036
 10
340.5532896645741
 20
468.97397351846007
 10
339.3503546175622
 20
471.3624905055867
 10
339.17181013065317
 20
471.73558864473324
 10
338.7706120892914
 20
472.49256406811946
 10
337.7582155156359
 20
474.46428947341946
 10
337.27683886309865
 20
475.31120637119545
 10
336.289341223822
 20
477.1385756260048
 10
335.20273923109903
 20
478.96584962680936
 10
334.7578835396398
 20
479.7503369246981
 10
333.3076895422571
 20
482.0871601141879
 10
333.17386903202
 20
482.3086841123572
 10
333.1300806206798
 20
482.3749984300441
 10
331.57022713711183
 20
484.84834658486847
 10
331.05660594945255
 20
485.59748011252276
 10
329.9144092189067
 20
487.3359209899735
 10
328.9833553146042
 20
488.64614530231336
 10
328.21125705350414
 20
489.77621158914815
 10
326.91032275168686
 20
491.5452889985828
 10
326.46484887645545
 20
492.1732591666883
 10
324.8374624425711
 20
494.31455786498213
 10
324.6785984990719
 20
494.53053525791154
 10
323.52348690926294
 20
496.0028568441864
 10
322.8631763517052
 20
496.85794959337966
 10
322.76578418943336
 20
496.9765596673048
 10
321.02272560500614
 20
499.16116856032636
 10
320.6931623290293
 20
499.5514062884134
 10
319.1467518077992
 20
501.42886409374375
 10
318.6206773422118
 20
502.0349796541925
 10
317.23727751638603
 20
503.66311577268164
 10
316.5482983289737
 20
504.43597100694103
 10
315.2959841248987
 20
505.86555378905524
 10
314.47602928934873
 20
506.76150657345397
 10
313.32416574996046
 20
508.03749870255376
 10
312.40386002395485
 20
509.0174341486746
 10
311.3228221484096
 20
510.17991508470686
 10
310.3317878208811
 20
511.2085255381128
 10
309.29261900592485
 20
512.2934950156372
 10
308.2598331249884
 20
513.3385758660124
 10
307.23397738064125
 20
514.3786250785936
 10
306.18791870344114
 20
515.4107127768013
 10
305.1470055342604
 20
516.4354397882503
 10
304.1161185057041
 20
517.4271647207765
 10
303.03157756587314
 20
518.4637785840829
 10
302.0444112742182
 20
519.3896469776639
 10
300.8872619723952
 20
520.4632212066319
 10
299.972790338677
 20
521.2992648302155
 10
298.7133519274199
 20
522.4330724058757
 10
297.90125967885444
 20
523.156574063163
 10
296.508858439253
 20
524.3723074479902
 10
295.82982526638386
 20
524.961601655335
 10
294.27243691997853
 20
526.279608393337
 10
293.75848569468917
 20
526.7138702066012
 10
292.00241804317466
 20
528.1532703097228
 10
291.6872528212557
 20
528.4123863860017
 10
289.6967006690163
 20
529.9912175387318
 10
289.6161226810268
 20
530.055630089897
 10
288.9929788434579
 20
530.5333804670945
 10
287.54458655948963
 20
531.6719203194988
 10
287.3680987627778
 20
531.8054135934063
 10
285.4736292122726
 20
533.2494830917215
 10
285.0081251521051
 20
533.588959960428
 10
283.4027860374857
 20
534.7744224539001
 10
282.6081108668146
 20
535.3324100645996
 10
281.33206174695226
 20
536.2442425471543
 10
280.16455544151677
 20
537.0322733955575
 10
279.2614606538939
 20
537.6559118664
 10
277.6733248213867
 20
538.6844264166659
 10
277.1909935229768
 20
539.0058199711461
 10
275.12956612993344
 20
540.283977931769
 10
275.1206797073439
 20
540.2896812740487
 10
275.08276185838974
 20
540.3121327344913
 10
273.049721669453
 20
541.5870555199858
 10
272.56974880473024
 20
541.8664962632424
 10
270.97953777781595
 20
542.8242892538026
 10
269.95331187311126
 20
543.3932518987542
 10
268.90950149756986
 20
543.9958018422242
 10
267.2737232220205
 20
544.8568120233913
 10
266.83962659880194
 20
545.0963806953298
 10
265.4996656901685
 20
545.7635824240708
 10
264.76896250108007
 20
546.15758146744
 10
264.54300610458483
 20
546.2683796641409
 10
262.6991903346968
 20
547.2162348730101
 10
261.77519559363816
 20
547.6436355344549
 10
260.6295755066453
 20
548.2034730972006
 10
258.93030163022297
 20
548.9417704418493
 10
258.5601337347541
 20
549.1131426437911
 10
257.6492200117923
 20
549.4830031763338
 10
256.4896029849924
 20
550.0081923877724
 10
256.03624933736205
 20
550.1901043579703
 10
254.42021613486597
 20
550.8816368099325
 10
253.08429337522264
 20
551.3811769075378
 10
252.35099785080362
 20
551.6764797701314
 10
250.78023110225533
 20
552.2205087690388
 10
250.28061967885233
 20
552.4174845934782
 10
250.05532836314362
 20
552.4947385094898
 10
248.21142372256125
 20
553.1771413563513
 10
246.9835205281216
 20
553.5660143544767
 10
246.1423860796908
 20
553.8568807325138
 10
244.55027882339053
 20
554.3191738969822
 10
244.0721199988778
 20
554.4810687680387
 10
243.8265679445889
 20
554.5517586684243
 10
242.00307526943047
 20
555.1272383313163
 10
240.6222178832045
 20
555.4905997810031
 10
239.93417433038158
 20
555.6919395652945
 10
238.76840319703118
 20
555.969902907249
 10
237.8639979262476
 20
556.2287749434785
 10
237.341157148039
 20
556.352427151541
 10
235.7950612956993
 20
556.7618230462327
 10
233.99225814487792
 20
557.1468674335545
 10
233.726250160658
 20
557.2116499276683
 10
233.3175636757684
 20
557.2896544678001
 10
231.65615133441523
 20
557.6843479007714
 10
230.58850099790484
 20
557.8862099095247
 10
229.5872763468162
 20
558.1045034549613
 10
228.12423208024072
 20
558.35076740235
 10
227.5174336009213
 20
558.4786100710583
 10
227.10559484683213
 20
558.546437439536
 10
225.44849226499136
 20
558.8660729653342
 10
223.55742334004216
 20
559.1419705771773
 10
223.37963510508953
 20
559.1731962341007
 10
223.14009314102995
 20
559.2037792087647
 10
221.30989087186126
 20
559.511036231959
 10
219.95085982001038
 20
559.6787359345776
 10
219.24094336772615
 20
559.787036313188
 10
218.32655682134308
 20
559.8851411310783
 10
217.17147027583687
 20
560.0500390389062
 10
216.26957462591403
 20
560.1407847955337
 10
215.10242906858375
 20
560.291798611517
 10
213.66309578791353
 20
560.4164903366386
 10
213.0332311020658
 20
560.4903704495707
 10
212.5158572489107
 20
560.530393466559
 10
210.9640969187019
 20
560.6947383642222
 10
209.13285273538494
 20
560.8147071703468
 10
208.89518486546206
 20
560.836393104132
 10
208.68953382377907
 20
560.8473749544335
 10
206.82595701443904
 20
560.9999748312081
 10
204.78674900993224
 20
561.0891118095456
 10
204.75673780239927
 20
561.0913252231722
 10
204.72370223905477
 20
561.0924917909803
 10
202.6880256276806
 20
561.2086352989757
 10
200.80243930075267
 20
561.2482585691607
 10
200.61869737404524
 20
561.2576605869905
 10
200.42367711025923
 20
561.2605803432994
 10
198.55032292019018
 20
561.3188844726631
 10
196.7244355425162
 20
561.3136611394068
 10
196.48088320818556
 20
561.3203703926677
 10
196.23368364696918
 20
561.3187676476743
 10
194.4128775949561
 20
561.3255983773014
 10
192.54017467958192
 20
561.2727340118836
 10
192.34333155207364
 20
561.2732405060249
 10
192.15315751367382
 20
561.267657335653
 10
190.27572758555183
 20
561.2198368802772
 10
188.23054397810589
 20
561.1063629280773
 10
188.20607650257696
 20
561.1057717182338
 10
188.18476795656306
 20
561.1046204464851
 10
186.13892271035454
 20
560.9878627645995
 10
184.3250834932671
 20
560.8334797001437
 10
184.07228485864047
 20
560.8092130285531
 10
183.75385109624818
 20
560.7702710053084
 10
182.00253453342324
 20
560.6096579710646
 10
180.5852234557877
 20
560.4427429809807
 10
179.9364530154434
 20
560.3537452284904
 10
179.051684147743
 20
560.2108448454858
 10
177.86664964558187
 20
560.0564580980921
 10
176.97840169601417
 20
559.9193979173073
 10
175.80120890408264
 20
559.7032608976522
 10
174.0386273243311
 20
559.3403813748725
 10
173.73138772953078
 20
559.286927143618
 10
173.52223517659644
 20
559.2459554521354
 10
171.6666998174121
 20
558.8063017129955
 10
170.20878977946631
 20
558.4315755741638
 10
169.60270180420815
 20
558.242733105021
 10
168.40831254477493
 20
557.8489210897201
 10
167.5331239753918
 20
557.5867032610706
 10
167.07219869385196
 20
557.4404390817077
 10
165.47008238823562
 20
556.8164406238731
 10
164.1182838879155
 20
556.2689318028184
 10
163.40773862647964
 20
555.9150526096473
 10
161.38291054688986
 20
554.8801744697598
 10
161.34597835584887
 20
554.8568751440856
 10
161.16342372601002
 20
554.7398618765372
 10
159.27763180958235
 20
553.5684302638051
 10
158.84445728521857
 20
553.2952104289511
 10
157.2169673557291
 20
552.007598490907
 10
156.54566307724392
 20
551.4725671940986
 10
155.15664009616347
 20
550.0704510456741
 10
154.49530587500365
 20
549.402174172855
 10
153.09651685791854
 20
547.5851380358025
 10
152.7020403522741
 20
547.0748133032424
 10
151.56665276383504
 20
545.1437016263833
 10
151.168233845709
 20
544.4863376712644
 10
151.04046339114
 20
544.203663596789
 10
149.87579131565647
 20
541.6564384117812
 10
148.98121642201156
 20
538.8992376070627
 10
148.86434910515192
 20
538.544367091476
 10
148.80029876425047
 20
538.2453552702816
 10
148.08462570717973
 20
535.1978375063665
 10
147.80229527131021
 20
533.1068092616903
 10
147.56963307713966
 20
531.5854873900621
 10
147.3698623290934
 20
528.5338060203817
 10
147.304439654395
 20
527.7224265645725
 10
147.2927632593395
 20
524.3160173059887
 10
147.28154698143473
 20
523.6162545916638
 10
147.4535877805058
 20
520.3359651873768
 10
147.4984968789682
 20
519.2695537190859
 10
147.78145743318683
 20
516.5227168620834
 10
147.9554861076042
 20
514.6822160589353
 10
148.230934964176
 20
512.8307982582792
 10
148.65292583072957
 20
509.85390559466583
 10
148.7715404545759
 20
509.22967675773356
 10
149.02733434339473
 20
507.83910353891247
 10
149.4079182540946
 20
505.7199415058376
 10
149.56589723945515
 20
504.8090021988953
 10
150.11192084229106
 20
502.2818158346123
 10
150.68409164387737
 20
499.5590817641753
 10
150.85244544068578
 20
498.87981732066237
 10
151.1102576603273
 20
497.81339207648716
 10
151.6506920378194
 20
495.5318812563465
 10
151.97167217569324
 20
494.1388171131257
 10
152.47774184669083
 20
492.21592625183894
 10
153.19147675068578
 20
489.42891200512986
 10
153.32135580063573
 20
488.91333433649356
 10
153.40461927796602
 20
488.5728509894251
 10
154.2014029861913
 20
485.6498961734286
 10
154.9225859947473
 20
482.9221649281809
 10
155.07818992474895
 20
482.38277382729297
 10
155.27161377991177
 20
481.69023184186847
 10
155.97774026693108
 20
479.1360691103037
 10
156.4896283982416
 20
477.22154221157064
 10
156.872847621881
 20
475.88682477101986
 10
157.35190897442615
 20
474.1585072101484
 10
157.77087848914837
 20
472.6386746670262
 10
158.07280874580235
 20
471.5045835141072
 10
158.66818137791816
 20
469.39123669025304
 10
159.4323305484996
 20
466.5792682018102
 10
159.55402908313775
 20
466.13102761078676
 10
159.63999411142427
 20
465.80349100766625
 10
160.44200967308876
 20
462.87396139997475
 10
161.163890741217
 20
460.14599841300225
 10
161.31283507300478
 20
459.5994660792089
 10
161.51302805487694
 20
458.8398292953677
 10
162.1803170833584
 20
456.32112927349215
 10
162.64013076855434
 20
454.53568550598237
 10
163.0339203977217
 20
453.0292389957774
 10
163.5941188543014
 20
450.82978195735643
 10
163.8774336093251
 20
449.7272195218366
 10
164.06727082330886
 20
448.9745593071741
 10
164.71231749855443
 20
446.41652432328704
 10
165.4472941295347
 20
443.4606486991265
 10
165.53690498220485
 20
443.09537125988726
 10
165.675652880774
 20
442.5252062293153
 10
166.3552604185576
 20
439.7687004746849
 10
166.7981236260222
 20
437.97602155644745
 10
167.16783442268368
 20
436.43558030834754
 10
167.75732738185368
 20
434.0049063576465
 10
167.9794742226272
 20
433.10262981324837
 10
168.1277419434467
 20
432.51293810333823
 10
168.78925456274396
 20
429.7668390536368
 10
169.4671535974358
 20
427.0396781600032
 10
169.6080153649532
 20
426.4399649033676
 10
169.8389159775039
 20
425.49859472059404
 10
170.43226841745505
 20
423.1203757027369
 10
170.85271520676997
 20
421.5211558230468
 10
171.27243766999771
 20
419.81515762213945
 10
171.91974523106975
 20
417.3493480647637
 10
172.13697549479005
 20
416.53640750520645
 10
172.31073333131351
 20
415.9306370795284
 10
173.02003678552043
 20
413.274374803833
 10
173.9132512978612
 20
410.19456593608186
 10
173.94952384922718
 20
410.05878526797886
 10
173.9993192395335
 20
409.8892355031351
 10
174.902591872535
 20
406.86951066543986
 10
175.7830542729187
 20
404.1929069724014
 10
175.91986419009228
 20
403.74207583749694
 10
176.077410722812
 20
403.2746477081789
 10
176.9764316639352
 20
400.6569675051363
 10
178.07423455619423
 20
397.7702274913713
 10
178.11587612763026
 20
397.65210824061637
 10
178.15385189537963
 20
397.55554472622464
 10
179.3007513038868
 20
394.69597271244544
 10
180.22919140744122
 20
392.60937891497207
 10
180.580733137762
 20
391.8352265143425
 10
181.2846003999061
 20
390.4302714396918
 10
181.9381365548912
 20
389.0490857535006
 10
182.30274497083917
 20
388.3529979409844
 10
183.37699311651184
 20
386.3477724675355
 10
184.37579838748414
 20
384.6519397105448
 10
184.91965759129593
 20
383.75040813556757
 10
186.44798891475878
 20
381.4306724319307
 10
186.56570411507366
 20
381.2565349454223
 10
187.21675863520747
 20
380.36896355747683
 10
188.3006550180948
 20
378.848882130699
 10
188.51832128545377
 20
378.5673456824175
 10
190.1338892030874
 20
376.54244876758605
 10
190.58910459814336
 20
376.01242376561953
 10
192.0738540197115
 20
374.34266767298357
 10
192.65941120238438
 20
373.7265743052194
 10
194.1194585212129
 20
372.24844771981617
 10
194.7293212964058
 20
371.66675836534523
 10
196.27004640955684
 20
370.2590355595468
 10
196.7989231709267
 20
369.8005826933364
 10
198.52549432191933
 20
368.3743161976634
 10
198.86826028121047
 20
368.10378500838425
 10
200.88646978750975
 20
366.59494398071166
 10
200.93737284727496
 20
366.5583226926573
 10
201.21461219920354
 20
366.37071648457635
 10
203.00854338118603
 20
365.1078953634042
 10
203.32714384309108
 20
364.8959407156654
 10
205.07750659499942
 20
363.76747920688473
 10
205.8639254960682
 20
363.29174315356585
 10
207.1463345628463
 20
362.5347557147774
 10
208.50292222906535
 20
361.7895926735982
 10
209.21502894108087
 20
361.40513752646024
 10
211.24818797790303
 20
360.3935864953391
 10
211.28358892490363
 20
360.37614043752257
 10
211.38278296926265
 20
360.3316045014464
 10
213.35473935489048
 20
359.3632840679541
 10
214.0470077919309
 20
359.0508316477247
 10
215.42334250748414
 20
358.43252236006845
 10
216.9481043353796
 20
357.81013264069685
 10
217.49184245117712
 20
357.5873981812138
 10
218.70237939359023
 20
357.1429585440764
 10
219.5628845647137
 20
356.7891374285908
 10
219.9319174224241
 20
356.6516504999108
 10
221.63142963246182
 20
356.0135773022574
 10
222.98264950236043
 20
355.5602058669867
 10
223.69988691562057
 20
355.31545779652976
 10
225.07256013128185
 20
354.903679358167
 10
225.770847553346
 20
354.6630213157055
 10
226.12084037582898
 20
354.5555635012427
 10
227.8393883403124
 20
354.0167887962429
 10
229.3183642940655
 20
353.61052205725326
 10
229.90784895614425
 20
353.44340228861546
 10
230.90708797046855
 20
353.20010633645796
 10
231.9787449925427
 20
352.89161005457686
 10
232.58928202250146
 20
352.7381930174195
 10
234.04729514566665
 20
352.35841625317545
 10
235.9323258348313
 20
351.93837963100367
 10
236.11577396904133
 20
351.8954478943391
 10
236.3979471780493
 20
351.8403390487062
 10
238.1866063031952
 20
351.4132673100292
 10
239.32031799082833
 20
351.1827920391552
 10
240.25519403623585
 20
350.98209849740846
 10
241.63466663563597
 20
350.7361813110825
 10
242.32579970073695
 20
350.58551902566643
 10
242.78243187449377
 20
350.501252718537
 10
244.3944795582797
 20
350.18512299093976
 10
246.30108410149379
 20
349.876542945541
 10
246.46311508066944
 20
349.84817203743245
 10
246.6850868297673
 20
349.8170835691962
 10
248.53364761607125
 20
349.48787619008414
 10
249.8625102704111
 20
349.2940679914103
 10
250.60240330940204
 20
349.1762648304962
 10
251.5823243474786
 20
349.0524958786045
 10
252.67271174385408
 20
348.877565152343
 10
253.48436350668536
 20
348.7719900546857
 10
254.74157330005247
 20
348.5914355448884
 10
256.35821657554163
 20
348.40922464230715
 10
256.81166515403777
 20
348.3443989221969
 10
257.16078275353414
 20
348.3044584174653
 10
258.8806300438183
 20
348.0840488094016
 10
260.8856087686057
 20
347.88526927138497
 10
260.9495893485574
 20
347.877951173427
 10
261.02786428048546
 20
347.8713023851156
 10
263.01958390820994
 20
347.64678088262855
 10
264.8117691235775
 20
347.49351027204517
 10
203.90168388084533
 20
286.5834250293131
 10
203.03602839452716
 20
287.1460433362376
 10
201.2670628641345
 20
288.1750623044346
 10
200.96525559228417
 20
288.3673606545114
 10
199.82807156885863
 20
289.01175615707945
 10
198.8962632622994
 20
289.55816169692184
 10
198.6419750137937
 20
289.69032089353027
 10
196.82566410211962
 20
290.73028635819486
 10
195.96936749929725
 20
291.16177101780636
 10
194.75517654267625
 20
291.83990858567466
 10
193.24181663625478
 20
292.5782481345496
 10
192.68481344426039
 20
292.8813446193007
 10
191.06164264346168
 20
293.64687734462774
 10
190.61639940194084
 20
293.86652180410937
 10
190.45753841848213
 20
293.9339631213195
 10
188.5462231965275
 20
294.8480256206048
 10
187.6096837561943
 20
295.22998583224694
 10
186.47617715526795
 20
295.75463321422507
 10
184.6891126319036
 20
296.4532895599
 10
184.406276876601
 20
296.5797344820883
 10
183.75486248967914
 20
296.8232278087268
 10
182.33843881423886
 20
297.3841238769222
 10
181.69137502714318
 20
297.59522244841634
 10
180.26873894692497
 20
298.1354711372266
 10
178.60261312431447
 20
298.6502170132257
 10
178.19920523114513
 20
298.79667816007844
 10
177.4259714569746
 20
299.0220069345949
 10
176.13193271601764
 20
299.42450247554433
 10
175.41199481217998
 20
299.59903622890994
 10
174.0625836394696
 20
299.9958200580458
 10
172.10528143569485
 20
300.43605975514566
 10
171.99341450736677
 20
300.4669944931613
 10
171.81468822184328
 20
300.50402730403886
 10
169.92677701725867
 20
300.92362778173
 10
168.6518189448942
 20
301.1218170473248
 10
167.85782901235473
 20
301.28420245614274
 10
166.75281867237294
 20
301.43657158759953
 10
165.791898822516
 20
301.57693517454106
 10
165.0299891693761
 20
301.6389430884747
 10
163.72318224989905
 20
301.80625459044745
 10
162.1544145758185
 20
301.90655467812667
 10
161.6580431551208
 20
301.9380694005463
 10
161.19072817856267
 20
301.93843925954803
 10
159.5895765813671
 20
302.0104361894369
 10
157.95056881722525
 20
301.98307916914536
 10
157.5253553587771
 20
301.97114419760555
 10
157.04188456881428
 20
301.92817744565747
 10
155.45719444817647
 20
301.85312879619215
 10
154.09939867932982
 20
301.70836340283955
 10
153.3940275220954
 20
301.6151557032335
 10
152.40045790604722
 20
301.42529338456296
 10
151.32621167006565
 20
301.26127997539106
 10
150.57884111105432
 20
301.104711996025
 10
149.2642111361993
 20
300.7710947852205
 10
147.3754682694783
 20
300.18393712337524
 10
147.20307277088722
 20
300.1194850629698
 10
146.77685463840538
 20
299.9354609797713
 10
145.1360432205429
 20
299.27804417275524
 10
144.4663685715908
 20
298.9727867972858
 10
143.07596890613618
 20
298.2052395493356
 10
141.8558948249851
 20
297.46254617183246
 10
141.01624644629646
 20
296.84179814730686
 10
139.53740627249593
 20
295.66125384047666
 10
138.95649528968707
 20
295.09451835018643
 10
137.49815738171662
 20
293.5809790311598
 10
136.8964961642872
 20
292.8100459570105
 10
135.72640178012352
 20
291.2326443399786
 10
134.83632891581374
 20
289.7285393368297
 10
134.21122123009408
 20
288.62649787538567
 10
133.21261626229676
 20
286.36989541797067
 10
132.9333779864618
 20
285.77772979459945
 10
132.7784347481185
 20
285.35504122312506
 10
131.85013537852365
 20
282.73655507163744
 10
131.1755573308139
 20
280.1945001595133
 10
130.96619784313881
 20
279.4912098763493
 10
130.72123430249448
 20
278.3819395435394
 10
130.23056537740933
 20
276.0997749876714
 10
130.05750551008714
 20
274.937529992666
 10
129.62952031005142
 20
272.5697331935426
 10
129.32057093776237
 20
270.0570139341382
 10
129.146831433868
 20
268.92080341064826
 10
128.7852836413646
 20
265.37789526131115
 10
128.75913214958152
 20
265.1765406524948
 10
128.6729494255926
 20
264.1621973525337
 10
128.43962836695627
 20
261.3659293770416
 10
128.41744256105494
 20
260.8688337305643
 10
128.18218494735882
 20
257.4906444894713
 10
128.14541994078743
 20
256.45231363071815
 10
127.97774842552846
 20
253.56222479168736
 10
127.93692888208372
 20
252.099210510813
 10
127.81624762782133
 20
249.5907146928185
 10
127.77722871189013
 20
247.79480654114826
 10
127.6897616105046
 20
245.5841230175427
 10
127.6555633939166
 20
243.52839298902865
 10
127.59196289872062
 20
241.54873484183526
 10
127.56397707425253
 20
239.2919653465355
 10
127.51784567315448
 20
237.48963181980344
 10
127.49639668162925
 20
235.07949032077607
 10
127.46330455103634
 20
233.41086764111702
 10
127.4481436950133
 20
230.8863295716958
 10
127.4224432226566
 20
229.13803359473292
 10
15.71569529410317
 20
340.8447815232864
 10
16.70565919886758
 20
341.1304510976429
 10
18.264527769280022
 20
341.56787689088037
 10
18.77558025140567
 20
341.7081578410537
 10
19.06577130570591
 20
341.7847818689855
 10
20.840500588271965
 20
342.37825314007154
 10
22.172848370054083
 20
342.8057383758676
 10
22.904623412494885
 20
343.10546593187837
 10
24.61299707590021
 20
343.7758920889266
 10
24.97470843755707
 20
343.91560575190755
 10
25.133723954979047
 20
343.973770853841
 10
27.037853243779267
 20
344.8827253700534
 10
27.941673683257562
 20
345.29124139297835
 10
29.10005481389547
 20
345.97982865765573
 10
30.55663834182954
 20
346.799917075059
 10
31.161376100547074
 20
347.2522817174278
 10
32.95474372642619
 20
348.5236689169858
 10
33.22199428515793
 20
348.779070699764
 10
35.109074770316425
 20
350.4895309158734
 10
35.28214381456169
 20
350.70563828181633
 10
36.988989742661175
 20
352.72872984237273
 10
37.342009083879105
 20
353.32505915357183
 10
38.558801471320606
 20
355.2777354670513
 10
39.401143845413145
 20
357.31643157219384
 10
39.776330630875634
 20
358.17973617065616
 10
40.04001667850426
 20
359.1975442237477
 10
40.64705134259572
 20
361.43052778221255
 10
41.039084855439825
 20
364.3349655088396
 10
41.14764619734609
 20
365.054706234359
 10
41.30218572854912
 20
368.73717813778455
 10
41.31874051867183
 20
369.01099521066016
 10
41.214712314576644
 20
372.7898947348236
 10
41.21155490194056
 20
373.24742089986984
 10
40.942456120953096
 20
376.6589188686097
 10
40.88307827235079
 20
377.70651604276355
 10
40.56735820406959
 20
380.42609266230886
 10
40.390400286004564
 20
382.33074026171045
 10
40.1337627551288
 20
384.1355988031796
 10
39.78593573058612
 20
387.06746967070416
 10
39.66701431884829
 20
387.812625341273
 10
39.349803556716495
 20
390.1405610865248
 10
39.17008455845877
 20
391.4627945632641
 10
39.12409604116638
 20
391.8634124118782
 10
38.64816592807924
 20
395.0850815251954
 10
38.44504782447697
 20
396.67543463429536
 10
38.129803925828384
 20
398.7112887515364
 10
37.74855732394431
 20
401.5051745787605
 10
37.615865133351974
 20
402.3421843386113
 10
37.25952913524307
 20
404.8477334922427
 10
37.098667377481576
 20
405.97135878835877
 10
37.05121909608178
 20
406.3366776483834
 10
36.572578207895475
 20
409.5900599136377
 10
36.357863567427756
 20
411.1633747707933
 10
36.05061984235164
 20
413.21297510156836
 10
35.65420604073438
 20
416.00038476093573
 10
35.5272279330087
 20
416.83448239175334
 10
35.169682765543
 20
419.25384247157194
 10
34.991993408075956
 20
420.4445882856269
 10
34.93090317477842
 20
420.85704727400207
 10
34.437597674951974
 20
424.03477267500233
 10
34.16649891308239
 20
425.75455317564536
 10
33.86605005308397
 20
427.6077188813679
 10
33.34425298739632
 20
430.70986811592263
 10
33.26850878450938
 20
431.1545573827219
 10
33.08221974515101
 20
432.1882788679957
 10
32.632465189885295
 20
434.6626387837945
 10
32.416677854120906
 20
435.76953292539116
 10
31.955514528173637
 20
438.1295998825097
 10
31.353054998254464
 20
440.96583068455686
 10
31.230238550270997
 20
441.54806478320813
 10
30.998721140747648
 20
442.54688802158626
 10
30.44762208914773
 20
444.9086357887405
 10
30.068813350924273
 20
446.3813614974953
 10
29.603857035361443
 20
448.2081330091472
 10
28.91854291138128
 20
450.6382479434194
 10
28.691557649699718
 20
451.4384504448425
 10
28.48525897065082
 20
452.0958394285059
 10
27.709317166368976
 20
454.59905310481497
 10
26.840985105504075
 20
457.12844252286493
 10
26.650001531349545
 20
457.6818844426897
 10
26.416522281160553
 20
458.29546384538173
 10
25.516757298875774
 20
460.6911901071747
 10
24.765355207629227
 20
462.50864903261447
 10
24.303628296893862
 20
463.6198954225099
 10
23.536889813932646
 20
465.3061509842047
 10
23.013671857790882
 20
466.4723812476228
 10
22.691107330780227
 20
467.1317478206058
 10
21.64931372733966
 20
469.2497415291496
 10
20.616903559872014
 20
471.1876699795814
 10
20.181115013603176
 20
472.0002653372343
 10
198.4269140245955
 20
650.2460643482266
  0
LWPOLYLINE
  5
92
330
17
100
AcDbEntity
  8
GRABADO
100
AcDbPolyline
 90
626
 70
1
 10
382.99561861217717
 20
465.6773597606449
 10
357.6557807535602
 20
440.3375219020279
 10
357.4300977375965
 20
441.4454552910911
 10
356.9635183373689
 20
443.9549282999232
 10
356.3550709484862
 20
446.65298583753645
 10
356.21336473491874
 20
447.3482409494264
 10
355.93455113584093
 20
448.4698761866933
 10
355.4177329128679
 20
450.6953885197496
 10
355.0233794611264
 20
452.11561399347795
 10
354.55190085503716
 20
453.9727048262721
 10
353.85488001231204
 20
456.2588122962794
 10
353.59835897285825
 20
457.1617970747878
 10
353.34102709105025
 20
457.9289282582962
 10
352.60357211771134
 20
460.30977232398016
 10
351.77758302265386
 20
462.55969492091776
 10
351.5062075430925
 20
463.3549690368991
 10
351.1484951916002
 20
464.25254438654076
 10
350.36689413628903
 20
466.35809965722603
 10
349.70192510382344
 20
467.8869419436685
 10
349.14174047733604
 20
469.2754863077576
 10
348.166520330724
 20
471.36582879161466
 10
347.83860029727884
 20
472.1144613038308
 10
347.62749595078606
 20
472.5300131749593
 10
346.50271061209037
 20
474.9212418109528
 10
345.5527891739563
 20
476.6836763935072
 10
345.07508121361855
 20
477.6364346131781
 10
343.82096958585385
 20
479.84226450918936
 10
343.5813920963469
 20
480.28457459528954
 10
343.47984409287903
 20
480.4496372309777
 10
342.0694006754568
 20
482.9155989374251
 10
341.4060369342884
 20
483.94695021673346
 10
340.48686556265545
 20
485.4762172305284
 10
339.3325467554905
 20
487.19930271372436
 10
338.8437105303864
 20
487.9763343682903
 10
337.259324466189
 20
490.25416725033153
 10
337.1479299621193
 20
490.4238977621029
 10
336.5750688567932
 20
491.21918576223413
 10
335.43323401591533
 20
492.8513162620335
 10
335.1875409200462
 20
493.17165997005054
 10
333.68365385543893
 20
495.2453529465238
 10
333.1145926098545
 20
495.96640579524814
 10
331.89151833969197
 20
497.5968843877405
 10
331.0417924364016
 20
498.6450107477291
 10
330.061539304579
 20
499.9106713637523
 10
328.96910324101964
 20
501.2242782048931
 10
328.19760616452936
 20
502.1905636873828
 10
326.89652014821513
 20
503.7175283270795
 10
326.30287289255784
 20
504.43970523205394
 10
324.82404335415856
 20
506.1353048122754
 10
324.37991026599445
 20
506.6606273904347
 10
322.7516432478236
 20
508.48607461013546
 10
322.4307560845813
 20
508.8554234070695
 10
320.67932445350357
 20
510.7765928381134
 10
320.4570756931503
 20
511.0257055064472
 10
318.6070726335703
 20
513.0123084375992
 10
318.46014049393295
 20
513.172769277566
 10
316.53489648775906
 20
515.197506231426
 10
316.44091571479044
 20
515.2975442198727
 10
314.4627804136247
 20
517.3356037043648
 10
314.4000500654058
 20
517.400703298938
 10
312.3907373072291
 20
519.4291661563097
 10
312.3379317249869
 20
519.4825999164842
 10
310.3187523993863
 20
521.4801736651273
 10
310.2546863857435
 20
521.5433837149309
 10
308.2468410649757
 20
523.4898937452094
 10
308.1501729594569
 20
523.5828794343603
 10
306.1749975597619
 20
525.4591488494316
 10
306.0240061095841
 20
525.6007104878302
 10
304.1032179599308
 20
527.3881703339076
 10
303.87548589496873
 20
527.5961875833739
 10
302.03151829976844
 20
529.2767281691156
 10
301.70367145315686
 20
529.5683325407094
 10
299.9598919489739
 20
531.1240736630872
 10
299.5072386672167
 20
531.5158469833152
 10
297.88835446703126
 20
532.9289690384597
 10
297.2845448660072
 20
533.4370492414864
 10
295.81690464346457
 20
534.6896138333462
 10
295.03347436832416
 20
535.3298489523803
 10
293.74555672418285
 20
536.4036646347306
 10
292.75145996257527
 20
537.191638550087
 10
291.67431736369804
 20
538.0681156027238
 10
290.4352948506237
 20
539.0192333766499
 10
289.60319912380896
 20
539.6792311668823
 10
288.08108151264753
 20
540.8086946464919
 10
287.53222088388634
 20
541.2324492082272
 10
285.68399811268876
 20
542.5552034837219
 10
285.4613947712053
 20
542.7222059904384
 10
284.21175090354905
 20
543.5825304362496
 10
283.39045461975525
 20
544.1789713215358
 10
283.25604874748865
 20
544.2693369016158
 10
281.3197979234095
 20
545.6300876092998
 10
280.8050704942925
 20
545.9617072026081
 10
279.2493015985398
 20
547.0174344566014
 10
278.3010285614214
 20
547.6009252579938
 10
277.1789952769973
 20
548.3341744964778
 10
275.7358192047283
 20
549.1788386476803
 10
275.1089026250953
 20
549.5721376389363
 10
273.0993857958314
 20
550.685405732986
 10
273.03905028894565
 20
550.7216052489312
 10
272.83572756661624
 20
550.8275793516393
 10
270.9683505413482
 20
551.912879894225
 10
270.4506025007987
 20
552.1784379176436
 10
268.89861118495116
 20
553.0375719252718
 10
267.7291785176436
 20
553.599802403673
 10
266.82912314824864
 20
554.0721050094835
 10
264.9149655845803
 20
554.9282408013021
 10
264.75992311526363
 20
555.0049164818327
 10
264.3646549788689
 20
555.1678141175308
 10
262.68918781241644
 20
555.9774581737423
 10
262.0749077366928
 20
556.2302589672881
 10
260.620024263755
 20
556.8905185911228
 10
259.1488043668521
 20
557.4467077509603
 10
258.55115162420816
 20
557.6995954692476
 10
257.25785519492536
 20
558.1433377473397
 10
256.48044122725776
 20
558.4675072083238
 10
256.14390601032073
 20
558.5842177051941
 10
254.41155592838558
 20
559.2557970156254
 10
253.0883749607419
 20
559.6712302165976
 10
252.34295262168936
 20
559.9375472291977
 10
250.93984140099448
 20
560.3303018656156
 10
250.27219938322125
 20
560.5674871873091
 10
249.93781697794927
 20
560.6634327263657
 10
248.20353312387843
 20
561.2299822474104
 10
246.73637381876281
 20
561.6046084980845
 10
246.1351319272002
 20
561.7833110389024
 10
245.13256771433814
 20
562.0066487921633
 10
244.06430210856965
 20
562.325440421729
 10
243.45548738262838
 20
562.4668396848233
 10
241.9957954410427
 20
562.8626319230577
 10
240.09356908338967
 20
563.247681086966
 10
239.92752992915032
 20
563.288068062686
 10
239.67722273388327
 20
563.3310907738044
 10
237.85661377746473
 20
563.7804117214102
 10
236.6953675071271
 20
563.9929545051108
 10
235.78819827652885
 20
564.1937638763848
 10
234.4784575915023
 20
564.3973619393757
 10
233.71756580626564
 20
564.5676021860481
 10
233.20987466145183
 20
564.651025281365
 10
231.64901110984133
 20
564.9642901744646
 10
229.6577836343271
 20
565.2421410563554
 10
229.5806291374286
 20
565.2558438520808
 10
229.4769710253233
 20
565.2677324634764
 10
227.5099489070329
 20
565.6235974352443
 10
226.07343300722604
 20
565.8016544117116
 10
225.44138984241525
 20
565.9030579455574
 10
224.62577100101484
 20
565.9863166648674
 10
223.37099840223036
 20
566.1892438807843
 10
222.42029467380186
 20
566.2924186701587
 10
221.30227371886483
 20
566.4532009338541
 10
219.90086000728368
 20
566.5786272125997
 10
219.23215819080488
 20
566.6741766621099
 10
218.70701017106214
 20
566.7230595739771
 10
217.16327023846245
 20
566.919877195369
 10
215.2825307721496
 20
567.0643692789072
 10
215.09342256497544
 20
567.0878567328796
 10
214.93977857026076
 20
567.0997645469556
 10
213.02437895386365
 20
567.3129638906084
 10
211.12994051847252
 20
567.4341266122906
 10
210.95538699506398
 20
567.4514724091288
 10
210.7532728793138
 20
567.4618660660956
 10
208.8856015387139
 20
567.6393874449288
 10
207.27288576134774
 20
567.7212320262902
 10
206.81642524418106
 20
567.7604132298355
 10
206.30083731453308
 20
567.7816187523315
 10
204.74693826333984
 20
567.9037016770935
 10
203.36255341652196
 20
567.9550430738543
 10
202.6775834247969
 20
568.0044094825936
 10
201.9224854681302
 20
568.0273350445307
 10
200.60840347551022
 20
568.1083455106867
 10
199.39932873743462
 20
568.1359270930251
 10
198.53886985126204
 20
568.1857736183717
 10
197.61389367692288
 20
568.2033512569044
 10
196.47000601294565
 20
568.2537938544071
 10
195.38157463919953
 20
568.2622515240373
 10
194.40029292294503
 20
568.3046708241953
 10
193.37296197018674
 20
568.3117899339361
 10
192.3317655026586
 20
568.3385315564293
 10
191.30534812043658
 20
568.33005186521
 10
190.26186855153833
 20
568.359011739446
 10
189.19975870367082
 20
568.3525871806188
 10
188.19370293829402
 20
568.3587392721221
 10
187.16378041312186
 20
568.3324449286447
 10
186.12362056005819
 20
568.3441564608419
 10
185.09658177255724
 20
568.3234763301566
 10
184.05585319663328
 20
568.307922457596
 10
182.94616753522894
 20
568.2587098832777
 10
181.9855821191969
 20
568.2524189266247
 10
181.06818637171537
 20
568.2197348689903
 10
179.9182613669419
 20
568.1760927198537
 10
178.63625518252667
 20
568.0925694277689
 10
177.84779816303077
 20
568.0719978970881
 10
177.1223458735733
 20
568.0336315433213
 10
175.78099001577266
 20
567.9484630479827
 10
174.20943488961578
 20
567.8093841025275
 10
173.7103340818332
 20
567.7854770506987
 10
173.27065514654876
 20
567.7536372865319
 10
171.64411940672073
 20
567.6033929181503
 10
169.6277777529149
 20
567.3711983746281
 10
169.5732680177605
 20
567.3672343865794
 10
169.52982625429803
 20
567.3631093259387
 10
167.50776380141755
 20
567.1088344597388
 10
165.89158074075144
 20
566.8724873658269
 10
165.44300890635944
 20
566.7876057349731
 10
164.76346159014042
 20
566.6463128784503
 10
163.37209531454045
 20
566.4163312613641
 10
162.39678076995892
 20
566.2374590867322
 10
161.30833055254956
 20
565.9739708884192
 10
159.47522539288897
 20
565.5005725457371
 10
159.237369541209
 20
565.4497644585672
 10
159.08949767975966
 20
565.4158799775462
 10
157.17485378506677
 20
564.8258443219222
 10
155.94898761358192
 20
564.4316603271637
 10
155.1133319729706
 20
564.0764507631669
 10
153.07143698361475
 20
563.1863207977292
 10
153.05266713762205
 20
563.1755829073078
 10
152.9676279230255
 20
563.126274149354
 10
150.9832678797309
 20
562.04181152346
 10
150.41042963960695
 20
561.7247131776758
 10
148.9242719480002
 20
560.6180844592437
 10
148.0512635373284
 20
559.9653970146055
 10
146.8656486436234
 20
558.7650757749316
 10
146.00417010036273
 20
557.8950739044518
 10
144.80703185936574
 20
556.2276395828742
 10
144.28114103030032
 20
555.5006500484137
 10
143.1937733091029
 20
553.3533714559396
 10
142.8836312615704
 20
552.7771498692105
 10
142.752169925396
 20
552.4198140272025
 10
141.7649499760931
 20
549.7748545499687
 10
141.1681349490283
 20
547.1928566222562
 10
140.96988025031376
 20
546.4444902354987
 10
140.6973389738694
 20
544.5827873892586
 10
140.4386641564893
 20
542.8509620273915
 10
140.4124330122664
 20
542.3032634920437
 10
140.15969379014356
 20
539.0015134630462
 10
140.17167254300549
 20
537.9217300349236
 10
140.13338760741598
 20
534.8985907176555
 10
140.20296240346298
 20
533.8120365267812
 10
140.34887059140766
 20
530.5532239658553
 10
140.42335739305275
 20
529.891257986742
 10
140.72275304912694
 20
526.8143894472573
 10
140.78936535849238
 20
526.1106533201553
 10
140.8007721993524
 20
525.9698832289029
 10
141.29563420274624
 20
522.4756622633474
 10
141.46624906952647
 20
521.173732627743
 10
141.88308017303822
 20
518.921623308061
 10
142.37696256970736
 20
516.1319234098817
 10
142.53474634105444
 20
515.4315564041625
 10
142.80884335857914
 20
514.1811316503474
 10
143.26876322360403
 20
512.0192801084354
 10
143.50628037710104
 20
510.87047749779845
 10
144.05717429938574
 20
508.66568174638684
 10
144.86075920285134
 20
505.3842275168803
 10
144.87340880545807
 20
505.3395646682322
 10
144.89004482215688
 20
505.27987066433866
 10
145.75787032257367
 20
502.0777263758642
 10
146.38210992498094
 20
499.7301731964389
 10
146.6521337518377
 20
498.8292063102257
 10
146.9700159804913
 20
497.7489950335689
 10
147.5830807479243
 20
495.61381716101147
 10
148.05899867858818
 20
493.92027442019605
 10
148.52657036078963
 20
492.41403694855023
 10
149.04943820654307
 20
490.69093814477804
 10
149.48493996765546
 20
489.2260270492947
 10
149.83776869690442
 20
488.00820386555364
 10
150.45393161476179
 20
486.05124479913707
 10
151.12867843370694
 20
483.8470900854392
 10
151.4221584476012
 20
482.87307609333516
 10
151.66283720297022
 20
482.0495359286306
 10
152.39744189521556
 20
479.7040985985033
 10
153.20799495455287
 20
477.02861528307756
 10
153.3602526879888
 20
476.52052248568464
 10
153.4833809892968
 20
476.095148949448
 10
154.32657734978795
 20
473.3421432241937
 10
155.25747365667246
 20
470.18761866889594
 10
155.27153636735798
 20
470.14203468591245
 10
155.28753811086605
 20
470.0880598422218
 10
156.2170341471597
 20
466.94120316773115
 10
156.95010775208922
 20
464.36075746985233
 10
157.1388264716526
 20
463.7175916009057
 10
157.36758720249776
 20
462.9057316077215
 10
158.05081706314988
 20
460.4834245781934
 10
158.55717126002457
 20
458.61937923940525
 10
158.9421425952835
 20
457.2290957374309
 10
159.44818544713343
 20
455.33157055047343
 10
159.81653482879412
 20
453.9575679231832
 10
160.07307056731813
 20
452.96916168025024
 10
160.67304542482552
 20
450.668263378337
 10
161.49710538582397
 20
447.4110917714352
 10
161.51010210904062
 20
447.3592847590023
 10
161.52956739727207
 20
447.27958281803535
 10
162.33049610383634
 20
444.0342068771623
 10
162.83956660461362
 20
441.9343626873253
 10
163.13341639950266
 20
440.691085292509
 10
163.61155384146045
 20
438.6448575131135
 10
163.92180855420148
 20
437.3343897609807
 10
164.11283800576817
 20
436.52708135713704
 10
164.69461224690215
 20
433.9612044047854
 10
165.33242447085476
 20
431.173366185979
 10
165.46018670159103
 20
430.58069503982824
 10
165.69427701641527
 20
429.5170554115258
 10
166.21447938032955
 20
427.190575803075
 10
166.5248051601491
 20
425.84739361564993
 10
166.96459784036907
 20
423.794782705682
 10
167.6947441916928
 20
420.54339207780356
 10
167.72264714388166
 20
420.40690727530256
 10
167.7771400628578
 20
420.1567964933622
 10
168.47371738586594
 20
417.01435868319095
 10
168.90627742946637
 20
415.1988817508519
 10
169.24186012854014
 20
413.6368268016474
 10
169.8594040159745
 20
411.0074660482507
 10
170.0323030275502
 20
410.2842580759533
 10
170.1545899734341
 20
409.81815439671385
 10
170.8333633523567
 20
406.9399606675479
 10
171.5229534560436
 20
404.3161238367426
 10
171.6800566341524
 20
403.641338382666
 10
171.94033589672878
 20
402.6542313023308
 10
172.55305720874574
 20
400.3723007775213
 10
173.08180718359796
 20
398.625541579012
 10
173.47896534104515
 20
397.1532648490348
 10
174.01936336672435
 20
395.39868738194525
 10
174.46041079807364
 20
393.9933842074979
 10
174.9442747696248
 20
392.6317751721993
 10
175.50119056679728
 20
390.88961107310985
 10
176.09642425240975
 20
389.26014674871493
 10
176.6166529113682
 20
387.86447865101354
 10
177.37155648940336
 20
386.0733917035935
 10
177.81448443744898
 20
384.9181320379913
 10
178.17163232443684
 20
384.09925835558624
 10
179.08612358021216
 20
382.0498575344085
 10
180.24571486138666
 20
379.73849924997063
 10
180.47282670658555
 20
379.29686781789127
 10
181.0798482266052
 20
378.23586544623237
 10
181.94327969915997
 20
376.6238923759194
 10
182.31794790391172
 20
375.99610941914386
 10
183.5128665124029
 20
374.05430274255343
 10
184.3897948272157
 20
372.7609595340972
 10
185.20159015809335
 20
371.6039323207556
 10
186.46083827091167
 20
369.95812885249217
 10
187.00743328619592
 20
369.27065967980036
 10
188.53123204956603
 20
367.49596946736204
 10
188.92866127134795
 20
367.05273471387846
 10
190.6011193195634
 20
365.30929257959014
 10
190.96419060820108
 20
364.9489633382154
 10
192.67059082851833
 20
363.3514091842888
 10
193.11376408123175
 20
362.95908496079466
 10
194.73971559616393
 20
361.58883611725986
 10
195.3783165132001
 20
361.08401413484495
 10
196.80853689249852
 20
359.9977454416498
 10
197.7602191065734
 20
359.3261478330334
 10
198.87710243927447
 20
358.5616704018898
 10
200.26374762787455
 20
357.68970112400933
 10
200.9454354474968
 20
357.2697784576279
 10
202.89535799978594
 20
356.18117467150233
 10
203.01353577792761
 20
356.1158559510073
 10
203.3792605501753
 20
355.9356691627648
 10
205.08475300922584
 20
355.00067264644775
 10
205.59999056345603
 20
354.7454281735
 10
207.15290600358588
 20
353.9783280201472
 10
208.4181878232475
 20
353.4227901829723
 10
209.22087991500504
 20
353.06745040408003
 10
211.1039654107908
 20
352.3414697014022
 10
211.29213156921932
 20
352.2574852350538
 10
211.36553293737106
 20
352.22844390100465
 10
213.36023065567534
 20
351.4282709191578
 10
214.35878738734354
 20
351.08029645245205
 10
215.42816432461248
 20
350.6977751964641
 10
217.4924214441431
 20
350.072471128794
 10
217.49591675784026
 20
350.0713682019239
 10
217.50508504873298
 20
350.06899765022155
 10
219.56754996441154
 20
349.39430248940096
 10
220.65627348546477
 20
349.09334685010555
 10
221.63548336278458
 20
348.81008234808036
 10
223.28734271913683
 20
348.4191675831224
 10
223.70685066159288
 20
348.29315681476595
 10
223.94023853753012
 20
348.2340600284244
 10
225.77494949973484
 20
347.7456941352652
 10
227.26934683408658
 20
347.4208988403922
 10
227.84291020390557
 20
347.287443981438
 10
228.70725917965208
 20
347.1300232044489
 10
229.91431460313785
 20
346.83383311590495
 10
230.67411492853282
 20
346.68195512758984
 10
231.98243885446763
 20
346.40059543332643
 10
233.88998354472162
 20
346.0799690463617
 10
234.05359959213226
 20
346.0429472585933
 10
234.15950703735368
 20
346.02348471146854
 10
236.12188295228802
 20
345.63339883070904
 10
237.67201535950082
 20
345.39310234527176
 10
238.19006460228874
 20
345.3040588510576
 10
238.88518972660708
 20
345.21588655451995
 10
240.26123517538142
 20
344.9633804139591
 10
241.2460038414957
 20
344.8229314488772
 10
242.32958826372058
 20
344.65034620714
 10
243.7503036797966
 20
344.4836597537733
 10
244.40052752915918
 20
344.3737985897065
 10
244.87861700298086
 20
344.31130486852084
 10
246.46903717522375
 20
344.07715897004056
 10
248.51031671235123
 20
343.85652924294226
 10
248.5397472294869
 20
343.8519697580597
 10
248.56102139517273
 20
343.8494357198843
 10
250.6084046479917
 20
343.5719055475618
 10
252.26331560890523
 20
343.40808270456336
 10
252.67701422148158
 20
343.35969099443514
 10
253.17883536843746
 20
343.3197064095384
 10
254.74768864720065
 20
343.1249590499887
 10
256.0110064591613
 20
343.0113041834968
 10
256.81645480579493
 20
342.924374663146
 10
257.77749612556
 20
342.8540671118722
 10
258.88690745178087
 20
342.72885212518787
 10
259.9602465628749
 20
342.6419877113426
 10
208.92441335062435
 20
291.6061544990921
 10
207.16275767865127
 20
292.94612697298635
 10
206.48978688054837
 20
293.4054975711744
 10
205.0914220549225
 20
294.4545252326128
 10
204.07476424615572
 20
295.1348287126496
 10
203.02018172939376
 20
295.91440602260326
 10
201.6244410183434
 20
296.82883912219677
 10
200.94904719077942
 20
297.32026647556694
 10
199.13410644887966
 20
298.4827785080733
 10
198.87804066952887
 20
298.6659254724301
 10
197.70958496116933
 20
299.396327602535
 10
196.80909486739623
 20
299.9844385182569
 10
196.609634746806
 20
300.09817342183044
 10
194.73827657497668
 20
301.2941786319789
 10
194.04534702398809
 20
301.6779005380975
 10
192.6675999340005
 20
302.53793112793
 10
191.42698833977016
 20
303.20349901116936
 10
190.59709253182226
 20
303.7082416543739
 10
188.74670909357994
 20
304.6670685378496
 10
188.52678683515916
 20
304.7969898106765
 10
187.8308027649983
 20
305.1440325940048
 10
186.45832539525915
 20
305.87766125582084
 10
186.01648906096818
 20
306.0763692603762
 10
184.3881974365066
 20
306.9170362962177
 10
183.21711099781345
 20
307.42061267073456
 10
182.31829860317825
 20
307.8668112576496
 10
180.33211875451067
 20
308.6790936629531
 10
180.24866520228335
 20
308.7187042867387
 10
180.0485263583973
 20
308.7960281268345
 10
178.18046190912122
 20
309.5908119948404
 10
177.3795958445816
 20
309.86610200071203
 10
176.11101308258975
 20
310.37799257603734
 10
174.32326630203195
 20
310.95302023480076
 10
174.0418622392883
 20
311.0597958942285
 10
173.49042572708478
 20
311.2240961115405
 10
171.97392170838322
 20
311.7319331153464
 10
171.17046571741068
 20
311.9398534345973
 10
169.90491315409585
 20
312.3335676026782
 10
167.895428688483
 20
312.8079698303422
 10
167.83621569767226
 20
312.8248514940749
 10
167.74000551790522
 20
312.8452328142767
 10
165.76853320275293
 20
313.3256138011682
 10
164.49562146793818
 20
313.54794095108656
 10
163.69997122290985
 20
313.7217389542407
 10
162.56042435577982
 20
313.8948670094063
 10
161.632778532916
 20
314.0576030464652
 10
160.94289399486206
 20
314.13498333090644
 10
159.56431961110303
 20
314.343371114288
 10
157.82379176700724
 20
314.50204319410386
 10
157.49767591739092
 20
314.53620897360406
 10
157.2175414047197
 20
314.54941465558335
 10
155.42931488873538
 20
314.6954464357667
 10
153.44582677800423
 20
314.7512212912689
 10
153.36334446460165
 20
314.75368192355535
 10
153.28022995680323
 20
314.75184962027214
 10
151.29506369477912
 20
314.7680761250286
 10
149.37533380428366
 20
314.6937089213362
 10
149.22990148808262
 20
314.68621426721944
 10
149.05818686298258
 20
314.6694944581906
 10
147.1616514880836
 20
314.5342137017805
 10
145.583324785199
 20
314.35863604502885
 10
145.09743706681036
 20
314.28960618921343
 10
144.41475701664854
 20
314.1658095629815
 10
143.0292126196072
 20
313.94489104297867
 10
142.05743350476558
 20
313.7586348870467
 10
140.96615168875795
 20
313.4905963561082
 10
139.07481226912338
 20
312.96574555541804
 10
138.8979129441723
 20
312.9197936369314
 10
138.7995931194917
 20
312.8919426468215
 10
136.83621847997512
 20
312.1697980416068
 10
135.80268978377492
 20
311.7656129629271
 10
134.7757836598487
 20
311.24409380832475
 10
133.09579798414802
 20
310.35159889250207
 10
132.71632414260077
 20
310.0887328086121
 10
130.6912688285041
 20
308.63738754825243
 10
130.65734142117665
 20
308.6053744596026
 10
128.59945335160103
 20
306.6118027514006
 10
128.59825021381315
 20
306.6102408677339
 10
126.8288548125372
 20
304.26517943318436
 10
126.53889514188756
 20
303.73453313106364
 10
125.38609957898234
 20
301.58956996429373
 10
124.4801127139568
 20
299.1387278187328
 10
124.27603377475938
 20
298.57918653307325
 10
124.15479807648356
 20
298.0469275997241
 10
123.43384235756344
 20
295.2953289747539
 10
123.05545675813701
 20
292.806481179945
 10
122.85458027098184
 20
291.7462040676565
 10
122.49438631759031
 20
288.10344080644535
 10
122.47903357411784
 20
287.99179811248194
 10
122.43161865646562
 20
287.2199233805562
 10
122.24325945161607
 20
284.09959177807815
 10
122.24501835524538
 20
283.7160429809257
 10
122.12046009533876
 20
280.09040849890795
 10
122.13390656295846
 20
279.46100342778414
 10
122.07840788139163
 20
275.9999117013227
 10
122.1014549924881
 20
275.28421229253894
 10
122.09053127838968
 20
271.85489983269207
 10
122.11765465585785
 20
271.1557999697778
 10
122.13759093241123
 20
267.6746917459668
 10
122.16376171794644
 20
267.05704039814924
 10
122.20588385506389
 20
263.47303207046
 10
122.22763288502719
 20
262.97587988299466
 10
122.2858330750187
 20
259.2596114409426
 10
122.3012885865324
 20
258.9043803695053
 10
122.37073356322071
 20
255.0411076620676
 10
122.37931531118133
 20
254.83719100883894
 10
122.45596201667155
 20
250.82223121513385
 10
122.45801593339655
 20
250.77057310572428
 10
122.48481949832069
 20
249.3792204387292
 10
122.53679467013228
 20
246.70262695476214
 10
122.53685679484846
 20
246.60625485410168
 10
122.61167501571728
 20
242.63231745348526
 10
122.61225073357647
 20
242.3972794653344
 10
122.67993686351915
 20
238.55537251438477
 10
122.68123651716039
 20
238.1946387113648
 10
122.74050883874051
 20
234.47066673455612
 10
122.74325556692506
 20
233.81722125046446
 10
20.386575569563036
 20
336.1739012478265
 10
20.854125873879838
 20
336.2942720668861
 10
21.422117381485833
 20
336.4331766661307
 10
22.924591989375415
 20
336.79002153746313
 10
23.856975961385984
 20
336.9972153791022
 10
24.99001303817076
 20
337.3272352377407
 10
27.009591717568213
 20
337.8768148538525
 10
27.06080216000143
 20
337.89038597541827
 10
27.08827389330034
 20
337.89706799233176
 10
29.125458829347423
 20
338.56706881015236
 10
30.21633224102598
 20
338.8966566414121
 10
31.189208828162066
 20
339.2960275367663
 10
33.188088396141126
 20
340.0510098728253
 10
33.25198883476489
 20
340.0839892592301
 10
33.446612617554734
 20
340.17659408724023
 10
35.32298997854693
 20
341.0587124777416
 10
36.01432704818447
 20
341.3530800057436
 10
37.38446974451361
 20
342.1767176990366
 10
38.631736681107526
 20
342.8580772647208
 10
39.444804128749894
 20
343.4927120098014
 10
41.006100441284076
 20
344.6036392494172
 10
41.504198816637626
 20
345.12082569923024
 10
43.09581045029975
 20
346.63162412431365
 10
43.56302546119852
 20
347.30278797620423
 10
44.84847701853127
 20
348.995164682753
 10
45.621349987794844
 20
350.639738368087
 10
46.196316426785444
 20
351.7634813626784
 10
46.63778575450391
 20
353.3603891911999
 10
47.0992739347391
 20
354.9777738309213
 10
47.474637104782545
 20
358.3332624062163
 10
47.518000980975756
 20
358.68126775480755
 10
47.48933340222118
 20
362.48496407559804
 10
47.49246681761164
 20
362.8328749336778
 10
47.16556688016519
 20
366.29980295398525
 10
47.08629779548002
 20
367.36770769734085
 10
46.68096410057305
 20
369.95544887632155
 10
46.380874923987534
 20
372.2035687798057
 10
46.114978288323584
 20
373.53113466055004
 10
45.57830423794812
 20
376.6045248382533
 10
45.50009780445387
 20
377.063994626191
 10
45.47403430477698
 20
377.2437542656723
 10
44.82373116219256
 20
380.5305800941477
 10
44.514473987501646
 20
382.33568419745075
 10
44.1552603201626
 20
384.0059073246978
 10
43.50234378065878
 20
387.4806972328395
 10
43.49927655298205
 20
387.4943849248603
 10
43.49359826932843
 20
387.52321674624847
 10
42.82061952764957
 20
390.96327333476546
 10
42.54600962871393
 20
392.57182730685815
 10
42.16978473068647
 20
394.4572923522876
 10
41.61053428777126
 20
397.64080792844544
 10
41.5437146366597
 20
397.9764202591888
 10
41.40789712102523
 20
398.74452275949835
 10
40.919847346653825
 20
401.499505618502
 10
40.73865064653779
 20
402.64750407613866
 10
40.31737098449713
 20
405.04226378238224
 10
39.90922326726499
 20
407.61062500296856
 10
39.73693127784347
 20
408.607184808049
 10
39.32046058985429
 20
411.23320115341915
 10
39.168512909163326
 20
412.1849643216201
 10
39.11599808521376
 20
412.53819262326476
 10
38.603646388075674
 20
415.7652678126534
 10
38.351400269734995
 20
417.43638286305463
 10
38.04848359928505
 20
419.35526582968635
 10
37.59207837253072
 20
422.3292413825465
 10
37.49482761713435
 20
422.9466843615644
 10
37.23195554413783
 20
424.62364904547087
 10
36.93104880967692
 20
426.52797937723074
 10
36.817015115100105
 20
427.2375679702384
 10
36.35287659832579
 20
430.0944992056882
 10
35.999003544507275
 20
432.1887377331077
 10
35.754400594463704
 20
433.64058160471944
 10
35.14508321553981
 20
437.0460472298375
 10
35.12534042195938
 20
437.15562388
 10
35.11596200234504
 20
437.2039794628662
 10
34.457978492057094
 20
440.63233016179703
 10
34.096626950820195
 20
442.35611364888206
 10
33.745292259978015
 20
444.0635262087974
 10
33.06201326915851
 20
447.06827483562574
 10
32.977352294827284
 20
447.4387461758318
 10
32.92042407327986
 20
447.6636187472201
 10
32.152623281193286
 20
450.7574083643341
 10
31.46227128981019
 20
453.2542773070562
 10
31.259107622849484
 20
454.00711314505264
 10
30.98261627708439
 20
454.92364769131416
 10
30.297606982816234
 20
457.18794595852864
 10
29.606438399211015
 20
459.24097855739865
 10
29.26018046515341
 20
460.29336452933694
 10
28.905385769274318
 20
461.26271531139406
 10
28.14899646138838
 20
463.3241279633017
 10
27.12222421974593
 20
465.85614078873607
 10
26.956343696873773
 20
466.2741094565485
 10
26.82996420552746
 20
466.56306504450254
 10
25.693876136797286
 20
469.15338701048336
 10
24.75497476140518
 20
471.11061857414376
 10
24.350072770742173
 20
471.95130710265767
 10
23.465658052683324
 20
473.64274152465885
 10
22.908309841800644
 20
474.7274601654318
 10
198.4269140245955
 20
650.2460643482266
 10
382.99561861217717
 20
465.6773597606449
  0
TEXT
  5
93
330
17
100
AcDbEntity
  8
GRABADO
100
AcDbText
 10
99.16957566788564
 20
438.9491501785973
 30
0.0
 40
6.0
  1
16
 72
1
 11
99.16957566788564
 21
438.9491501785973
 31
0.0
100
AcDbText
 73
2
  0
TEXT
  5
94
330
17
100
AcDbEntity
  8
HOJA
100
AcDbText
 10
10.0
 20
691.0
 30
0.0
 40
6.0
  1
terreno_prueba  hoja 8/9  1:345  lamina 3.0mm
 11
10.0
 21
691.0
 31
0.0
100
AcDbText
  0
ENDSEC
  0
SECTION
  2
OBJECTS
  0
DICTIONARY
  5
A
330
0
100
AcDbDictionary
281
1
  3
ACAD_COLOR
350
B
  3
ACAD_GROUP
350
C
  3
ACAD_LAYOUT
350
D
  3
ACAD_MATERIAL
350
E
  3
ACAD_MLEADERSTYLE
350
F
  3
ACAD_MLINESTYLE
350
10
  3
ACAD_PLOTSETTINGS
350
11
  3
ACAD_PLOTSTYLENAME
350
12
  3
ACAD_SCALELIST
350
14
  3
ACAD_TABLESTYLE
350
15
  3
ACAD_VISUALSTYLE
350
16
  3
EZDXF_META
350
2D
  0
DICTIONARY
  5
B
330
A
100
AcDbDictionary
281
1
  0
DICTIONARY
  5
C
330
A
100
AcDbDictionary
281
1
  0
DICTIONARY
  5
D
330
A
100
AcDbDictionary
281
1
  3
Model
350
1A
  3
Layout1
350
1E
  0
DICTIONARY
  5
E
330
A
100
AcDbDictionary
281
1
  3
ByBlock
350
1F
  3
ByLayer
350
20
  3
Global
350
21
  0
DICTIONARY
  5
F
330
A
100
AcDbDictionary
281
1
  3
Standard
350
2C
  0
DICTIONARY
  5
10
330
A
100
AcDbDictionary
281
1
  3
Standard
350
22
  0
DICTIONARY
  5
11
330
A
100
AcDbDictionary
281
1
  0
ACDBDICTIONARYWDFLT
  5
12
330
A
100
AcDbDictionary
281
1
  3
Normal
350
13
100
AcDbDictionaryWithDefault
340
13
  0
ACDBPLACEHOLDER
  5
13
330
12
  0
DICTIONARY
  5
14
330
A
100
AcDbDictionary
281
1
  0
DICTIONARY
  5
15
330
A
100
AcDbDictionary
281
1
  0
DICTIONARY
  5
16
330
A
100
AcDbDictionary
281
1
  3
2dWireframe
350
5A
  3
Basic
350
5B
  3
Brighten
350
5C
  3
ColorChange
350
5D
  3
Conceptual
350
5E
  3
Dim
350
5F
  3
EdgeColorOff
350
60
  3
Facepattern
350
61
  3
Flat
350
62
  3
FlatWithEdges
350
63
  3
Gouraud
350
64
  3
GouraudWithEdges
350
65
  3
Hidden
350
66
  3
JitterOff
350
67
  3
Linepattern
350
68
  3
Modeling
350
69
  3
OverhangOff
350
6A
  3
Realistic
350
6B
  3
Shaded
350
6C
  3
Shaded with edges
350
6D
  3
Shades of Gray
350
6E
  3
Sketchy
350
6F
  3
Thicken
350
70
  3
Wireframe
350
71
  3
X-Ray
350
72
  0
LAYOUT
  5
1A
330
D
100
AcDbPlotSettings
  1

  4
A3
  6

 40
7.5
 41
20.0
 42
7.5
 43
20.0
 44
420.0
 45
297.0
 46
0.0
 47
0.0
 48
0.0
 49
0.0
140
0.0
141
0.0
142
1.0
143
1.0
 70
1024
 72
1
 73
0
 74
5
  7

 75
16
 76
0
 77
2
 78
300
147
1.0
148
0.0
149
0.0
100
AcDbLayout
  1
Model
 70
1
 71
0
 10
0.0
 20
0.0
 11
420.0
 21
297.0
 12
0.0
 22
0.0
 32
0.0
 14
1e+20
 24
1e+20
 34
1e+20
 15
-1e+20
 25
-1e+20
 35
-1e+20
146
0.0
 13
0.0
 23
0.0
 33
0.0
 16
1.0
 26
0.0
 36
0.0
 17
0.0
 27
1.0
 37
0.0
 76
1
330
17
  0
LAYOUT
  5
1E
330
D
100
AcDbPlotSettings
  1

  4
A3
  6

 40
7.5
 41
20.0
 42
7.5
 43
20.0
 44
420.0
 45
297.0
 46
0.0
 47
0.0
 48
0.0
 49
0.0
140
0.0
141
0.0
142
1.0
143
1.0
 70
0
 72
1
 73
0
 74
5
  7

 75
16
 76
0
 77
2
 78
300
147
1.0
148
0.0
149
0.0
100
AcDbLayout
  1
Layout1
 70
1
 71
1
 10
0.0
 20
0.0
 11
420.0
 21
297.0
 12
0.0
 22
0.0
 32
0.0
 14
1e+20
 24
1e+20
 34
1e+20
 15
-1e+20
 25
-1e+20
 35
-1e+20
146
0.0
 13
0.0
 23
0.0
 33
0.0
 16
1.0
 26
0.0
 36
0.0
 17
0.0
 27
1.0
 37
0.0
 76
1
330
1B
  0
MATERIAL
  5
1F
102
{ACAD_REACTORS
330
E
102
}
330
E
100
AcDbMaterial
  1
ByBlock
  2

 70
0
 40
1.0
 71
1
 41
1.0
 91
-1023410177
 42
1.0
 72
1
  3

 73
1
 74
1
 75
1
 44
0.5
 73
0
 45
1.0
 46
1.0
 77
1
  4

 78
1
 79
1
170
1
 48
1.0
171
1
  6

172
1
173
1
174
1
140
1.0
141
1.0
175
1
  7

176
1
177
1
178
1
143
1.0
179
1
  8

270
1
271
1
272
1
145
1.0
146
1.0
273
1
  9

274
1
275
1
276
1
 42
1.0
 72
1
  3

 73
1
 74
1
 75
1
 94
63
  0
MATERIAL
  5
20
102
{ACAD_REACTORS
330
E
102
}
330
E
100
AcDbMaterial
  1
ByLayer
  2

 70
0
 40
1.0
 71
1
 41
1.0
 91
-1023410177
 42
1.0
 72
1
  3

 73
1
 74
1
 75
1
 44
0.5
 73
0
 45
1.0
 46
1.0
 77
1
  4

 78
1
 79
1
170
1
 48
1.0
171
1
  6

172
1
173
1
174
1
140
1.0
141
1.0
175
1
  7

176
1
177
1
178
1
143
1.0
179
1
  8

270
1
271
1
272
1
145
1.0
146
1.0
273
1
  9

274
1
275
1
276
1
 42
1.0
 72
1
  3

 73
1
 74
1
 75
1
 94
63
  0
MATERIAL
  5
21
102
{ACAD_REACTORS
330
E
102
}
330
E
100
AcDbMaterial
  1
Global
  2

 70
0
 40
1.0
 71
1
 41
1.0
 91
-1023410177
 42
1.0
 72
1
  3

 73
1
 74
1
 75
1
 44
0.5
 73
0
 45
1.0
 46
1.0
 77
1
  4

 78
1
 79
1
170
1
 48
1.0
171
1
  6

172
1
173
1
174
1
140
1.0
141
1.0
175
1
  7

176
1
177
1
178
1
143
1.0
179
1
  8

270
1
271
1
272
1
145
1.0
146
1.0
273
1
  9

274
1
275
1
276
1
 42
1.0
 72
1
  3

 73
1
 74
1
 75
1
 94
63
  0
MLINESTYLE
  5
22
102
{ACAD_REACTORS
330
10
102
}
330
10
100
AcDbMlineStyle
  2
Standard
 70
0
  3

 62
256
 51
90.0
 52
90.0
 71
2
 49
0.5
 62
256
  6
BYLAYER
 49
-0.5
 62
256
  6
BYLAYER
  0
MLEADERSTYLE
  5
2C
102
{ACAD_REACTORS
330
F
102
}
330
F
100
AcDbMLeaderStyle
179
2
170
2
171
1
172
0
 90
2
 40
0.0
 41
0.0
173
1
 91
-1056964608
 92
-2
290
1
 42
2.0
291
1
 43
8.0
  3
Standard
 44
4.0
300

342
29
174
1
175
1
176
0
178
1
 93
-1056964608
 45
4.0
292
0
297
0
 46
4.0
 94
-1056964608
 47
1.0
 49
1.0
140
1.0
294
1
141
0.0
177
0
142
1.0
295
0
296
0
143
3.75
271
0
272
9
273
9
  0
DICTIONARY
  5
2D
330
A
100
AcDbDictionary
280
1
281
1
  3
CREATED_BY_EZDXF
350
2E
  3
WRITTEN_BY_EZDXF
350
97
  0
DICTIONARYVAR
  5
2E
330
2D
100
DictionaryVariables
280
0
  1
1.4.2 @ 2026-09-06T09:28:59.761691+00:00
  0
VISUALSTYLE
  5
5A
102
{ACAD_REACTORS
330
16
102
}
330
16
100
AcDbVisualStyle
  2
2dWireframe
 70
4
 90
0
 40
0.6
 62
7
290
0
291
0
  0
VISUALSTYLE
  5
5B
102
{ACAD_REACTORS
330
16
102
}
330
16
100
AcDbVisualStyle
  2
Basic
 70
7
 90
1
 40
0.6
 62
7
290
0
291
1
  0
VISUALSTYLE
  5
5C
102
{ACAD_REACTORS
330
16
102
}
330
16
100
AcDbVisualStyle
  2
Brighten
 70
12
 90
2
 40
0.6
 62
7
290
0
291
1
  0
VISUALSTYLE
  5
5D
102
{ACAD_REACTORS
330
16
102
}
330
16
100
AcDbVisualStyle
  2
ColorChange
 70
16
 90
2
 40
0.6
 62
8
290
0
291
1
  0
VISUALSTYLE
  5
5E
102
{ACAD_REACTORS
330
16
102
}
330
16
100
AcDbVisualStyle
  2
Conceptual
 70
9
 90
3
 40
0.6
 62
7
290
0
291
0
  0
VISUALSTYLE
  5
5F
102
{ACAD_REACTORS
330
16
102
}
330
16
100
AcDbVisualStyle
  2
Dim
 70
11
 90
2
 40
0.6
 62
7
290
0
291
1
  0
VISUALSTYLE
  5
60
102
{ACAD_REACTORS
330
16
102
}
330
16
100
AcDbVisualStyle
  2
EdgeColorOff
 70
22
 90
2
 40
0.6
 62
7
290
0
291
1
  0
VISUALSTYLE
  5
61
102
{ACAD_REACTORS
330
16
102
}
330
16
100
AcDbVisualStyle
  2
Facepattern
 70
15
 90
2
 40
0.6
 62
7
290
0
291
1
  0
VISUALSTYLE
  5
62
102
{ACAD_REACTORS
330
16
102
}
330
16
100
AcDbVisualStyle
  2
Flat
 70
0
 90
2
 40
0.6
 62
7
290
0
291
1
  0
VISUALSTYLE
  5
63
102
{ACAD_REACTORS
330
16
102
}
330
16
100
AcDbVisualStyle
  2
FlatWithEdges
 70
1
 90
2
 40
0.6
 62
7
290
0
291
1
  0
VISUALSTYLE
  5
64
102
{ACAD_REACTORS
330
16
102
}
330
16
100
AcDbVisualStyle
  2
Gouraud
 70
2
 90
2
 40
0.6
 62
7
290
0
291
1
  0
VISUALSTYLE
  5
65
102
{ACAD_REACTORS
330
16
102
}
330
16
100
AcDbVisualStyle
  2
GouraudWithEdges
 70
3
 90
2
 40
0.6
 62
7
290
0
291
1
  0
VISUALSTYLE
  5
66
102
{ACAD_REACTORS
330
16
102
}
330
16
100
AcDbVisualStyle
  2
Hidden
 70
6
 90
1
 40
0.6
 62
7
290
0
291
0
  0
VISUALSTYLE
  5
67
102
{ACAD_REACTORS
330
16
102
}
330
16
100
AcDbVisualStyle
  2
JitterOff
 70
20
 90
2
 40
0.6
 62
7
290
0
291
1
  0
VISUALSTYLE
  5
68
102
{ACAD_REACTORS
330
16
102
}
330
16
100
AcDbVisualStyle
  2
Linepattern
 70
14
 90
2
 40
0.6
 62
7
290
0
291
1
  0
VISUALSTYLE
  5
69
102
{ACAD_REACTORS
330
16
102
}
330
16
100
AcDbVisualStyle
  2
Modeling
 70
10
 90
2
 40
0.6
 62
7
290
0
291
0
  0
VISUALSTYLE
  5
6A
102
{ACAD_REACTORS
330
16
102
}
330
16
100
AcDbVisualStyle
  2
OverhangOff
 70
21
 90
2
 40
0.6
 62
7
290
0
291
1
  0
VISUALSTYLE
  5
6B
102
{ACAD_REACTORS
330
16
102
}
330
16
100
AcDbVisualStyle
  2
Realistic
 70
8
 90
2
 40
0.6
 62
7
290
0
291
0
  0
VISUALSTYLE
  5
6C
102
{ACAD_REACTORS
330
16
102
}
330
16
100
AcDbVisualStyle
  2
Shaded
 70
27
 90
2
 40
0.6
 62
7
290
0
291
0
  0
VISUALSTYLE
  5
6D
102
{ACAD_REACTORS
330
16
102
}
330
16
100
AcDbVisualStyle
  2
Shaded with edges
 70
26
 90
2
 40
0.6
 62
7
290
0
291
0
  0
VISUALSTYLE
  5
6E
102
{ACAD_REACTORS
330
16
102
}
330
16
100
AcDbVisualStyle
  2
Shades of Gray
 70
23
 90
2
 40
0.6
 62
7
290
0
291
0
  0
VISUALSTYLE
  5
6F
102
{ACAD_REACTORS
330
16
102
}
330
16
100
AcDbVisualStyle
  2
Sketchy
 70
24
 90
1
 40
0.6
 62
7
290
0
291
0
  0
VISUALSTYLE
  5
70
102
{ACAD_REACTORS
330
16
102
}
330
16
100
AcDbVisualStyle
  2
Thicken
 70
13
 90
2
 40
0.6
 62
7
290
0
291
1
  0
VISUALSTYLE
  5
71
102
{ACAD_REACTORS
330
16
102
}
330
16
100
AcDbVisualStyle
  2
Wireframe
 70
5
 90
0
 40
0.6
 62
7
290
0
291
0
  0
VISUALSTYLE
  5
72
102
{ACAD_REACTORS
330
16
102
}
330
16
100
AcDbVisualStyle
  2
X-Ray
 70
25
 90
2
 40
0.5
 62
7
290
0
291
0
  0
DICTIONARYVAR
  5
97
330
2D
100
DictionaryVariables
280
0
  1
1.4.2 @ 2026-09-06T09:28:59.772192+00:00
  0
ENDSEC
  0
EOF
