  0
SECTION
  2
HEADER
  9
$ACADVER
  1
AC1024
  9
$ACADMAINTVER
 70
6
  9
$DWGCODEPAGE
  3
ANSI_1252
  9
$LASTSAVEDBY
  1
ezdxf
  9
$INSBASE
 10
0.0
 20
0.0
 30
0.0
  9
$EXTMIN
 10
1e+20
 20
1e+20
 30
1e+20
  9
$EXTMAX
 10
-1e+20
 20
-1e+20
 30
-1e+20
  9
$LIMMIN
 10
0.0
 20
0.0
  9
$LIMMAX
 10
420.0
 20
297.0
  9
$ORTHOMODE
 70
0
  9
$REGENMODE
 70
1
  9
$FILLMODE
 70
1
  9
$QTEXTMODE
 70
0
  9
$MIRRTEXT
 70
1
  9
$LTSCALE
 40
1.0
  9
$ATTMODE
 70
1
  9
$TEXTSIZE
 40
2.5
  9
$TRACEWID
 40
1.0
  9
$TEXTSTYLE
  7
OpenSans
  9
$CLAYER
  8
0
  9
$CELTYPE
  6
ByLayer
  9
$CECOLOR
 62
256
  9
$CELTSCALE
 40
1.0
  9
$DISPSILH
 70
0
  9
$DIMSCALE
 40
1.0
  9
$DIMASZ
 40
0.175
  9
$DIMEXO
 40
0.125
  9
$DIMDLI
 40
3.75
  9
$DIMRND
 40
0.0
  9
$DIMDLE
 40
0.0
  9
$DIMEXE
 40
0.375
  9
$DIMTP
 40
0.0
  9
$DIMTM
 40
0.0
  9
$DIMTXT
 40
0.25
  9
$DIMCEN
 40
2.5
  9
$DIMTSZ
 40
0.0
  9
$DIMTOL
 70
0
  9
$DIMLIM
 70
0
  9
$DIMTIH
 70
0
  9
$DIMTOH
 70
0
  9
$DIMSE1
 70
0
  9
$DIMSE2
 70
0
  9
$DIMTAD
 70
1
  9
$DIMZIN
 70
12
  9
$DIMBLK
  1
ARCHTICK
  9
$DIMASO
 70
1
  9
$DIMSHO
 70
1
  9
$DIMPOST
  1

  9
$DIMAPOST
  1

  9
$DIMALT
 70
0
  9
$DIMALTD
 70
3
  9
$DIMALTF
 40
0.03937007874
  9
$DIMLFAC
 40
100.0
  9
$DIMTOFL
 70
1
  9
$DIMTVP
 40
0.0
  9
$DIMTIX
 70
0
  9
$DIMSOXD
 70
0
  9
$DIMSAH
 70
0
  9
$DIMBLK1
  1

  9
$DIMBLK2
  1

  9
$DIMSTYLE
  2
EZDXF
  9
$DIMCLRD
 70
0
  9
$DIMCLRE
 70
0
  9
$DIMCLRT
 70
0
  9
$DIMTFAC
 40
0.5
  9
$DIMGAP
 40
0.1
  9
$DIMJUST
 70
0
  9
$DIMSD1
 70
0
  9
$DIMSD2
 70
0
  9
$DIMTOLJ
 70
0
  9
$DIMTZIN
 70
8
  9
$DIMALTZ
 70
0
  9
$DIMALTTZ
 70
0
  9
$DIMUPT
 70
1
  9
$DIMDEC
 70
2
  9
$DIMTDEC
 70
2
  9
$DIMALTU
 70
2
  9
$DIMALTTD
 70
3
  9
$DIMTXSTY
  7
OpenSansCondensed-Light
  9
$DIMAUNIT
 70
0
  9
$DIMADEC
 70
2
  9
$DIMALTRND
 40
0.0
  9
$DIMAZIN
 70
3
  9
$DIMDSEP
 70
46
  9
$DIMATFIT
 70
3
  9
$DIMFRAC
 70
0
  9
$DIMLDRBLK
  1

  9
$DIMLUNIT
 70
2
  9
$DIMLWD
 70
-2
  9
$DIMLWE
 70
-2
  9
$DIMTMOVE
 70
2
  9
$DIMFXL
 40
1.0
  9
$DIMFXLON
 70
0
  9
$DIMJOGANG
 40
0.785398163397
  9
$DIMTFILL
 70
0
  9
$DIMTFILLCLR
 70
0
  9
$DIMARCSYM
 70
0
  9
$DIMLTYPE
  6

  9
$DIMLTEX1
  6

  9
$DIMLTEX2
  6

  9
$DIMTXTDIRECTION
 70
0
  9
$LUNITS
 70
2
  9
$LUPREC
 70
4
  9
$SKETCHINC
 40
1.0
  9
$FILLETRAD
 40
10.0
  9
$AUNITS
 70
0
  9
$AUPREC
 70
2
  9
$MENU
  1
.
  9
$ELEVATION
 40
0.0
  9
$PELEVATION
 40
0.0
  9
$THICKNESS
 40
0.0
  9
$LIMCHECK
 70
0
  9
$CHAMFERA
 40
0.0
  9
$CHAMFERB
 40
0.0
  9
$CHAMFERC
 40
0.0
  9
$CHAMFERD
 40
0.0
  9
$SKPOLY
 70
0
  9
$TDCREATE
 40
2461290.1451273146
  9
$TDUCREATE
 40
2458532.153996898
  9
$TDUPDATE
 40
2461290.1451273146
  9
$TDUUPDATE
 40
2458532.1544311
  9
$TDINDWG
 40
0.0
  9
$TDUSRTIMER
 40
0.0
  9
$USRTIMER
 70
1
  9
$ANGBASE
 50
0.0
  9
$ANGDIR
 70
0
  9
$PDMODE
 70
0
  9
$PDSIZE
 40
0.0
  9
$PLINEWID
 40
0.0
  9
$SPLFRAME
 70
0
  9
$SPLINETYPE
 70
6
  9
$SPLINESEGS
 70
8
  9
$HANDSEED
  5
9B
  9
$SURFTAB1
 70
6
  9
$SURFTAB2
 70
6
  9
$SURFTYPE
 70
6
  9
$SURFU
 70
6
  9
$SURFV
 70
6
  9
$UCSBASE
  2

  9
$UCSNAME
  2

  9
$UCSORG
 10
0.0
 20
0.0
 30
0.0
  9
$UCSXDIR
 10
1.0
 20
0.0
 30
0.0
  9
$UCSYDIR
 10
0.0
 20
1.0
 30
0.0
  9
$UCSORTHOREF
  2

  9
$UCSORTHOVIEW
 70
0
  9
$UCSORGTOP
 10
0.0
 20
0.0
 30
0.0
  9
$UCSORGBOTTOM
 10
0.0
 20
0.0
 30
0.0
  9
$UCSORGLEFT
 10
0.0
 20
0.0
 30
0.0
  9
$UCSORGRIGHT
 10
0.0
 20
0.0
 30
0.0
  9
$UCSORGFRONT
 10
0.0
 20
0.0
 30
0.0
  9
$UCSORGBACK
 10
0.0
 20
0.0
 30
0.0
  9
$PUCSBASE
  2

  9
$PUCSNAME
  2

  9
$PUCSORG
 10
0.0
 20
0.0
 30
0.0
  9
$PUCSXDIR
 10
1.0
 20
0.0
 30
0.0
  9
$PUCSYDIR
 10
0.0
 20
1.0
 30
0.0
  9
$PUCSORTHOREF
  2

  9
$PUCSORTHOVIEW
 70
0
  9
$PUCSORGTOP
 10
0.0
 20
0.0
 30
0.0
  9
$PUCSORGBOTTOM
 10
0.0
 20
0.0
 30
0.0
  9
$PUCSORGLEFT
 10
0.0
 20
0.0
 30
0.0
  9
$PUCSORGRIGHT
 10
0.0
 20
0.0
 30
0.0
  9
$PUCSORGFRONT
 10
0.0
 20
0.0
 30
0.0
  9
$PUCSORGBACK
 10
0.0
 20
0.0
 30
0.0
  9
$USERI1
 70
0
  9
$USERI2
 70
0
  9
$USERI3
 70
0
  9
$USERI4
 70
0
  9
$USERI5
 70
0
  9
$USERR1
 40
0.0
  9
$USERR2
 40
0.0
  9
$USERR3
 40
0.0
  9
$USERR4
 40
0.0
  9
$USERR5
 40
0.0
  9
$WORLDVIEW
 70
1
  9
$SHADEDGE
 70
3
  9
$SHADEDIF
 70
70
  9
$TILEMODE
 70
1
  9
$MAXACTVP
 70
64
  9
$PINSBASE
 10
0.0
 20
0.0
 30
0.0
  9
$PLIMCHECK
 70
0
  9
$PEXTMIN
 10
1e+20
 20
1e+20
 30
1e+20
  9
$PEXTMAX
 10
-1e+20
 20
-1e+20
 30
-1e+20
  9
$PLIMMIN
 10
0.0
 20
0.0
  9
$PLIMMAX
 10
420.0
 20
297.0
  9
$UNITMODE
 70
0
  9
$VISRETAIN
 70
1
  9
$PLINEGEN
 70
0
  9
$PSLTSCALE
 70
1
  9
$TREEDEPTH
 70
3020
  9
$CMLSTYLE
  2
Standard
  9
$CMLJUST
 70
0
  9
$CMLSCALE
 40
20.0
  9
$PROXYGRAPHICS
 70
1
  9
$MEASUREMENT
 70
1
  9
$CELWEIGHT
370
-1
  9
$ENDCAPS
280
0
  9
$JOINSTYLE
280
0
  9
$LWDISPLAY
290
0
  9
$INSUNITS
 70
4
  9
$HYPERLINKBASE
  1

  9
$STYLESHEET
  1

  9
$XEDIT
290
1
  9
$CEPSNTYPE
380
0
  9
$PSTYLEMODE
290
1
  9
$FINGERPRINTGUID
  2
{BF16F36E-2BF3-4E3B-B314-BF0E00596B1C}
  9
$VERSIONGUID
  2
{0F91C345-FDFE-46F3-9A45-EC66E4DF780C}
  9
$EXTNAMES
290
1
  9
$PSVPSCALE
 40
0.0
  9
$OLESTARTUP
290
0
  9
$SORTENTS
280
127
  9
$INDEXCTL
280
0
  9
$HIDETEXT
280
1
  9
$XCLIPFRAME
280
1
  9
$HALOGAP
280
0
  9
$OBSCOLOR
 70
257
  9
$OBSLTYPE
280
0
  9
$INTERSECTIONDISPLAY
280
0
  9
$INTERSECTIONCOLOR
 70
257
  9
$DIMASSOC
280
2
  9
$PROJECTNAME
  1

  9
$CAMERADISPLAY
290
0
  9
$LENSLENGTH
 40
50.0
  9
$CAMERAHEIGHT
 40
0.0
  9
$STEPSPERSEC
 40
24.0
  9
$STEPSIZE
 40
100.0
  9
$3DDWFPREC
 40
2.0
  9
$PSOLWIDTH
 40
0.005
  9
$PSOLHEIGHT
 40
0.08
  9
$LOFTANG1
 40
1.570796326795
  9
$LOFTANG2
 40
1.570796326795
  9
$LOFTMAG1
 40
0.0
  9
$LOFTMAG2
 40
0.0
  9
$LOFTPARAM
 70
7
  9
$LOFTNORMALS
280
1
  9
$LATITUDE
 40
37.795
  9
$LONGITUDE
 40
-122.394
  9
$NORTHDIRECTION
 40
0.0
  9
$TIMEZONE
 70
-8000
  9
$LIGHTGLYPHDISPLAY
280
1
  9
$TILEMODELIGHTSYNCH
280
1
  9
$CMATERIAL
347
20
  9
$SOLIDHIST
280
0
  9
$SHOWHIST
280
1
  9
$DWFFRAME
280
2
  9
$DGNFRAME
280
2
  9
$REALWORLDSCALE
290
1
  9
$INTERFERECOLOR
 62
256
  9
$CSHADOW
280
0
  9
$SHADOWPLANELOCATION
 40
0.0
  0
ENDSEC
  0
SECTION
  2
CLASSES
  0
CLASS
  1
ACDBDICTIONARYWDFLT
  2
AcDbDictionaryWithDefault
  3
ObjectDBX Classes
 90
0
 91
0
280
0
281
0
  0
CLASS
  1
SUN
  2
AcDbSun
  3
SCENEOE
 90
1153
 91
0
280
0
281
0
  0
CLASS
  1
VISUALSTYLE
  2
AcDbVisualStyle
  3
ObjectDBX Classes
 90
4095
 91
0
280
0
281
0
  0
CLASS
  1
MATERIAL
  2
AcDbMaterial
  3
ObjectDBX Classes
 90
1153
 91
0
280
0
281
0
  0
CLASS
  1
SCALE
  2
AcDbScale
  3
ObjectDBX Classes
 90
1153
 91
0
280
0
281
0
  0
CLASS
  1
TABLESTYLE
  2
AcDbTableStyle
  3
ObjectDBX Classes
 90
4095
 91
0
280
0
281
0
  0
CLASS
  1
MLEADERSTYLE
  2
AcDbMLeaderStyle
  3
ACDB_MLEADERSTYLE_CLASS
 90
4095
 91
0
280
0
281
0
  0
CLASS
  1
DICTIONARYVAR
  2
AcDbDictionaryVar
  3
ObjectDBX Classes
 90
0
 91
0
280
0
281
0
  0
CLASS
  1
CELLSTYLEMAP
  2
AcDbCellStyleMap
  3
ObjectDBX Classes
 90
1152
 91
0
280
0
281
0
  0
CLASS
  1
MENTALRAYRENDERSETTINGS
  2
AcDbMentalRayRenderSettings
  3
SCENEOE
 90
1024
 91
0
280
0
281
0
  0
CLASS
  1
ACDBDETAILVIEWSTYLE
  2
AcDbDetailViewStyle
  3
ObjectDBX Classes
 90
1025
 91
0
280
0
281
0
  0
CLASS
  1
ACDBSECTIONVIEWSTYLE
  2
AcDbSectionViewStyle
  3
ObjectDBX Classes
 90
1025
 91
0
280
0
281
0
  0
CLASS
  1
RASTERVARIABLES
  2
AcDbRasterVariables
  3
ISM
 90
0
 91
0
280
0
281
0
  0
CLASS
  1
LAYOUT
  2
AcDbLayout
  3
ObjectDBX Classes
 90
0
 91
0
280
0
281
0
  0
CLASS
  1
ACDBPLACEHOLDER
  2
AcDbPlaceHolder
  3
ObjectDBX Classes
 90
0
 91
0
280
0
281
0
  0
ENDSEC
  0
SECTION
  2
TABLES
  0
TABLE
  2
VPORT
  5
8
330
0
100
AcDbSymbolTable
 70
1
  0
VPORT
  5
23
330
8
100
AcDbSymbolTableRecord
100
AcDbViewportTableRecord
  2
*Active
 70
0
 10
0.0
 20
0.0
 11
1.0
 21
1.0
 12
0.0
 22
0.0
 13
0.0
 23
0.0
 14
0.5
 24
0.5
 15
0.5
 25
0.5
 16
0.0
 26
0.0
 36
1.0
 17
0.0
 27
0.0
 37
0.0
 40
1000.0
 41
1.34
 42
50.0
 43
0.0
 44
0.0
 50
0.0
 51
0.0
 71
0
 72
1000
 73
1
 74
3
 75
0
 76
0
 77
0
 78
0
281
0
 65
0
146
0.0
  0
ENDTAB
  0
TABLE
  2
LTYPE
  5
2
330
0
100
AcDbSymbolTable
 70
21
  0
LTYPE
  5
24
330
2
100
AcDbSymbolTableRecord
100
AcDbLinetypeTableRecord
  2
ByBlock
 70
0
  3

 72
65
 73
0
 40
0.0
  0
LTYPE
  5
25
330
2
100
AcDbSymbolTableRecord
100
AcDbLinetypeTableRecord
  2
ByLayer
 70
0
  3

 72
65
 73
0
 40
0.0
  0
LTYPE
  5
26
330
2
100
AcDbSymbolTableRecord
100
AcDbLinetypeTableRecord
  2
Continuous
 70
0
  3

 72
65
 73
0
 40
0.0
  0
LTYPE
  5
2F
330
2
100
AcDbSymbolTableRecord
100
AcDbLinetypeTableRecord
  2
CENTER
 70
0
  3
Center ____ _ ____ _ ____ _ ____ _ ____ _ ____
 72
65
 73
4
 40
5.08
 49
3.175
 74
0
 49
-0.635
 74
0
 49
0.635
 74
0
 49
-0.635
 74
0
  0
LTYPE
  5
30
330
2
100
AcDbSymbolTableRecord
100
AcDbLinetypeTableRecord
  2
CENTERX2
 70
0
  3
Center (2x) ________  __  ________  __  ________
 72
65
 73
4
 40
8.89
 49
6.35
 74
0
 49
-0.635
 74
0
 49
1.27
 74
0
 49
-0.635
 74
0
  0
LTYPE
  5
31
330
2
100
AcDbSymbolTableRecord
100
AcDbLinetypeTableRecord
  2
CENTER2
 70
0
  3
Center (.5x) ____ _ ____ _ ____ _ ____ _ ____
 72
65
 73
4
 40
2.54
 49
1.587
 74
0
 49
-0.318
 74
0
 49
0.318
 74
0
 49
-0.318
 74
0
  0
LTYPE
  5
32
330
2
100
AcDbSymbolTableRecord
100
AcDbLinetypeTableRecord
  2
DASHED
 70
0
  3
Dashed __ __ __ __ __ __ __ __ __ __ __ __ __ _
 72
65
 73
2
 40
1.524
 49
1.27
 74
0
 49
-0.254
 74
0
  0
LTYPE
  5
33
330
2
100
AcDbSymbolTableRecord
100
AcDbLinetypeTableRecord
  2
DASHEDX2
 70
0
  3
Dashed (2x) ____  ____  ____  ____  ____  ____
 72
65
 73
2
 40
3.048
 49
2.54
 74
0
 49
-0.508
 74
0
  0
LTYPE
  5
34
330
2
100
AcDbSymbolTableRecord
100
AcDbLinetypeTableRecord
  2
DASHED2
 70
0
  3
Dashed (.5x) _ _ _ _ _ _ _ _ _ _ _ _ _ _
 72
65
 73
2
 40
0.762
 49
0.635
 74
0
 49
-0.127
 74
0
  0
LTYPE
  5
35
330
2
100
AcDbSymbolTableRecord
100
AcDbLinetypeTableRecord
  2
PHANTOM
 70
0
  3
Phantom ______  __  __  ______  __  __  ______
 72
65
 73
6
 40
6.35
 49
3.175
 74
0
 49
-0.635
 74
0
 49
0.635
 74
0
 49
-0.635
 74
0
 49
0.635
 74
0
 49
-0.635
 74
0
  0
LTYPE
  5
36
330
2
100
AcDbSymbolTableRecord
100
AcDbLinetypeTableRecord
  2
PHANTOMX2
 70
0
  3
Phantom (2x)____________    ____    ____    ____________
 72
65
 73
6
 40
10.795
 49
6.35
 74
0
 49
-0.635
 74
0
 49
1.27
 74
0
 49
-0.635
 74
0
 49
1.27
 74
0
 49
-0.635
 74
0
  0
LTYPE
  5
37
330
2
100
AcDbSymbolTableRecord
100
AcDbLinetypeTableRecord
  2
PHANTOM2
 70
0
  3
Phantom (.5x) ___ _ _ ___ _ _ ___ _ _ ___ _ _ ___
 72
65
 73
6
 40
3.175
 49
1.587
 74
0
 49
-0.318
 74
0
 49
0.318
 74
0
 49
-0.318
 74
0
 49
0.318
 74
0
 49
-0.318
 74
0
  0
LTYPE
  5
38
330
2
100
AcDbSymbolTableRecord
100
AcDbLinetypeTableRecord
  2
DASHDOT
 70
0
  3
Dash dot __ . __ . __ . __ . __ . __ . __ . __
 72
65
 73
4
 40
3.556
 49
2.54
 74
0
 49
-0.508
 74
0
 49
0.0
 74
0
 49
-0.508
 74
0
  0
LTYPE
  5
39
330
2
100
AcDbSymbolTableRecord
100
AcDbLinetypeTableRecord
  2
DASHDOTX2
 70
0
  3
Dash dot (2x) ____  .  ____  .  ____  .  ____
 72
65
 73
4
 40
6.096
 49
5.08
 74
0
 49
-0.508
 74
0
 49
0.0
 74
0
 49
-0.508
 74
0
  0
LTYPE
  5
3A
330
2
100
AcDbSymbolTableRecord
100
AcDbLinetypeTableRecord
  2
DASHDOT2
 70
0
  3
Dash dot (.5x) _ . _ . _ . _ . _ . _ . _ . _
 72
65
 73
4
 40
1.778
 49
1.27
 74
0
 49
-0.254
 74
0
 49
0.0
 74
0
 49
-0.254
 74
0
  0
LTYPE
  5
3B
330
2
100
AcDbSymbolTableRecord
100
AcDbLinetypeTableRecord
  2
DOT
 70
0
  3
Dot .  .  .  .  .  .  .  .  .  .  .  .  .  .  .  .
 72
65
 73
2
 40
0.508
 49
0.0
 74
0
 49
-0.508
 74
0
  0
LTYPE
  5
3C
330
2
100
AcDbSymbolTableRecord
100
AcDbLinetypeTableRecord
  2
DOTX2
 70
0
  3
Dot (2x) .    .    .    .    .    .    .    . 
 72
65
 73
2
 40
1.016
 49
0.0
 74
0
 49
-1.016
 74
0
  0
LTYPE
  5
3D
330
2
100
AcDbSymbolTableRecord
100
AcDbLinetypeTableRecord
  2
DOT2
 70
0
  3
Dot (.5) . . . . . . . . . . . . . . . . . . . 
 72
65
 73
2
 40
0.254
 49
0.0
 74
0
 49
-0.254
 74
0
  0
LTYPE
  5
3E
330
2
100
AcDbSymbolTableRecord
100
AcDbLinetypeTableRecord
  2
DIVIDE
 70
0
  3
Divide __ . . __ . . __ . . __ . . __ . . __
 72
65
 73
6
 40
4.064
 49
2.54
 74
0
 49
-0.508
 74
0
 49
0.0
 74
0
 49
-0.508
 74
0
 49
0.0
 74
0
 49
-0.508
 74
0
  0
LTYPE
  5
3F
330
2
100
AcDbSymbolTableRecord
100
AcDbLinetypeTableRecord
  2
DIVIDEX2
 70
0
  3
Divide (2x) ____  . .  ____  . .  ____  . .  ____
 72
65
 73
6
 40
6.604
 49
5.08
 74
0
 49
-0.508
 74
0
 49
0.0
 74
0
 49
-0.508
 74
0
 49
0.0
 74
0
 49
-0.508
 74
0
  0
LTYPE
  5
40
330
2
100
AcDbSymbolTableRecord
100
AcDbLinetypeTableRecord
  2
DIVIDE2
 70
0
  3
Divide(.5x) _ . _ . _ . _ . _ . _ . _ . _
 72
65
 73
6
 40
2.032
 49
1.27
 74
0
 49
-0.254
 74
0
 49
0.0
 74
0
 49
-0.254
 74
0
 49
0.0
 74
0
 49
-0.254
 74
0
  0
ENDTAB
  0
TABLE
  2
LAYER
  5
1
330
0
100
AcDbSymbolTable
 70
5
  0
LAYER
  5
27
330
1
100
AcDbSymbolTableRecord
100
AcDbLayerTableRecord
  2
0
 70
0
 62
7
  6
Continuous
370
-3
390
13
347
21
  0
LAYER
  5
28
330
1
100
AcDbSymbolTableRecord
100
AcDbLayerTableRecord
  2
Defpoints
 70
0
 62
7
  6
Continuous
290
0
370
-3
390
13
347
21
  0
LAYER
  5
8A
330
1
100
AcDbSymbolTableRecord
100
AcDbLayerTableRecord
  2
CORTE
 70
0
 62
1
  6
Continuous
370
-3
390
13
347
21
  0
LAYER
  5
8B
330
1
100
AcDbSymbolTableRecord
100
AcDbLayerTableRecord
  2
GRABADO
 70
0
 62
5
  6
Continuous
370
-3
390
13
347
21
  0
LAYER
  5
8C
330
1
100
AcDbSymbolTableRecord
100
AcDbLayerTableRecord
  2
HOJA
 70
0
 62
8
  6
Continuous
370
-3
390
13
347
21
  0
ENDTAB
  0
TABLE
  2
STYLE
  5
5
330
0
100
AcDbSymbolTable
 70
26
  0
STYLE
  5
29
330
5
100
AcDbSymbolTableRecord
100
AcDbTextStyleTableRecord
  2
Standard
 70
0
 40
0.0
 41
1.0
 50
0.0
 71
0
 42
2.5
  3
txt
  4

  0
STYLE
  5
41
330
5
100
AcDbSymbolTableRecord
100
AcDbTextStyleTableRecord
  2
OpenSans-Light
 70
0
 40
0.0
 41
1.0
 50
0.0
 71
0
 42
2.5
  3
OpenSans-Light.ttf
  4

  0
STYLE
  5
42
330
5
100
AcDbSymbolTableRecord
100
AcDbTextStyleTableRecord
  2
OpenSans-Light-Italic
 70
0
 40
0.0
 41
1.0
 50
0.0
 71
0
 42
2.5
  3
OpenSans-LightItalic.ttf
  4

  0
STYLE
  5
43
330
5
100
AcDbSymbolTableRecord
100
AcDbTextStyleTableRecord
  2
OpenSans
 70
0
 40
0.0
 41
1.0
 50
0.0
 71
0
 42
2.5
  3
OpenSans-Regular.ttf
  4

  0
STYLE
  5
44
330
5
100
AcDbSymbolTableRecord
100
AcDbTextStyleTableRecord
  2
OpenSans-Italic
 70
0
 40
0.0
 41
1.0
 50
0.0
 71
0
 42
2.5
  3
OpenSans-Italic.ttf
  4

  0
STYLE
  5
45
330
5
100
AcDbSymbolTableRecord
100
AcDbTextStyleTableRecord
  2
OpenSans-SemiBold
 70
0
 40
0.0
 41
1.0
 50
0.0
 71
0
 42
2.5
  3
OpenSans-SemiBold.ttf
  4

  0
STYLE
  5
46
330
5
100
AcDbSymbolTableRecord
100
AcDbTextStyleTableRecord
  2
OpenSans-SemiBoldItalic
 70
0
 40
0.0
 41
1.0
 50
0.0
 71
0
 42
2.5
  3
OpenSans-SemiBoldItalic.ttf
  4

  0
STYLE
  5
47
330
5
100
AcDbSymbolTableRecord
100
AcDbTextStyleTableRecord
  2
OpenSans-Bold
 70
0
 40
0.0
 41
1.0
 50
0.0
 71
0
 42
2.5
  3
OpenSans-Bold.ttf
  4

  0
STYLE
  5
48
330
5
100
AcDbSymbolTableRecord
100
AcDbTextStyleTableRecord
  2
OpenSans-BoldItalic
 70
0
 40
0.0
 41
1.0
 50
0.0
 71
0
 42
2.5
  3
OpenSans-BoldItalic.ttf
  4

  0
STYLE
  5
49
330
5
100
AcDbSymbolTableRecord
100
AcDbTextStyleTableRecord
  2
OpenSans-ExtraBold
 70
0
 40
0.0
 41
1.0
 50
0.0
 71
0
 42
2.5
  3
OpenSans-ExtraBold.ttf
  4

  0
STYLE
  5
4A
330
5
100
AcDbSymbolTableRecord
100
AcDbTextStyleTableRecord
  2
OpenSans-ExtraBoldItalic
 70
0
 40
0.0
 41
1.0
 50
0.0
 71
0
 42
2.5
  3
OpenSans-ExtraBoldItalic.ttf
  4

  0
STYLE
  5
4B
330
5
100
AcDbSymbolTableRecord
100
AcDbTextStyleTableRecord
  2
OpenSansCondensed-Bold
 70
0
 40
0.0
 41
1.0
 50
0.0
 71
0
 42
2.5
  3
OpenSansCondensed-Bold.ttf
  4

  0
STYLE
  5
4C
330
5
100
AcDbSymbolTableRecord
100
AcDbTextStyleTableRecord
  2
OpenSansCondensed-Light
 70
0
 40
0.0
 41
1.0
 50
0.0
 71
0
 42
2.5
  3
OpenSansCondensed-Light.ttf
  4

  0
STYLE
  5
4D
330
5
100
AcDbSymbolTableRecord
100
AcDbTextStyleTableRecord
  2
OpenSansCondensed-Italic
 70
0
 40
0.0
 41
1.0
 50
0.0
 71
0
 42
2.5
  3
OpenSansCondensed-LightItalic.ttf
  4

  0
STYLE
  5
4E
330
5
100
AcDbSymbolTableRecord
100
AcDbTextStyleTableRecord
  2
LiberationSans
 70
0
 40
0.0
 41
1.0
 50
0.0
 71
0
 42
2.5
  3
LiberationSans-Regular.ttf
  4

  0
STYLE
  5
4F
330
5
100
AcDbSymbolTableRecord
100
AcDbTextStyleTableRecord
  2
LiberationSans-Bold
 70
0
 40
0.0
 41
1.0
 50
0.0
 71
0
 42
2.5
  3
LiberationSans-Bold.ttf
  4

  0
STYLE
  5
50
330
5
100
AcDbSymbolTableRecord
100
AcDbTextStyleTableRecord
  2
LiberationSans-BoldItalic
 70
0
 40
0.0
 41
1.0
 50
0.0
 71
0
 42
2.5
  3
LiberationSans-BoldItalic.ttf
  4

  0
STYLE
  5
51
330
5
100
AcDbSymbolTableRecord
100
AcDbTextStyleTableRecord
  2
LiberationSans-Italic
 70
0
 40
0.0
 41
1.0
 50
0.0
 71
0
 42
2.5
  3
LiberationSans-Italic.ttf
  4

  0
STYLE
  5
52
330
5
100
AcDbSymbolTableRecord
100
AcDbTextStyleTableRecord
  2
LiberationSerif
 70
0
 40
0.0
 41
1.0
 50
0.0
 71
0
 42
2.5
  3
LiberationSerif-Regular.ttf
  4

  0
STYLE
  5
53
330
5
100
AcDbSymbolTableRecord
100
AcDbTextStyleTableRecord
  2
LiberationSerif-Bold
 70
0
 40
0.0
 41
1.0
 50
0.0
 71
0
 42
2.5
  3
LiberationSerif-Bold.ttf
  4

  0
STYLE
  5
54
330
5
100
AcDbSymbolTableRecord
100
AcDbTextStyleTableRecord
  2
LiberationSerif-BoldItalic
 70
0
 40
0.0
 41
1.0
 50
0.0
 71
0
 42
2.5
  3
LiberationSerif-BoldItalic.ttf
  4

  0
STYLE
  5
55
330
5
100
AcDbSymbolTableRecord
100
AcDbTextStyleTableRecord
  2
LiberationSerif-Italic
 70
0
 40
0.0
 41
1.0
 50
0.0
 71
0
 42
2.5
  3
LiberationSerif-Italic.ttf
  4

  0
STYLE
  5
56
330
5
100
AcDbSymbolTableRecord
100
AcDbTextStyleTableRecord
  2
LiberationMono
 70
0
 40
0.0
 41
1.0
 50
0.0
 71
0
 42
2.5
  3
LiberationMono-Regular.ttf
  4

  0
STYLE
  5
57
330
5
100
AcDbSymbolTableRecord
100
AcDbTextStyleTableRecord
  2
LiberationMono-Bold
 70
0
 40
0.0
 41
1.0
 50
0.0
 71
0
 42
2.5
  3
LiberationMono-Bold.ttf
  4

  0
STYLE
  5
58
330
5
100
AcDbSymbolTableRecord
100
AcDbTextStyleTableRecord
  2
LiberationMono-BoldItalic
 70
0
 40
0.0
 41
1.0
 50
0.0
 71
0
 42
2.5
  3
LiberationMono-BoldItalic.ttf
  4

  0
STYLE
  5
59
330
5
100
AcDbSymbolTableRecord
100
AcDbTextStyleTableRecord
  2
LiberationMono-Italic
 70
0
 40
0.0
 41
1.0
 50
0.0
 71
0
 42
2.5
  3
LiberationMono-Italic.ttf
  4

  0
ENDTAB
  0
TABLE
  2
VIEW
  5
7
330
0
100
AcDbSymbolTable
 70
0
  0
ENDTAB
  0
TABLE
  2
UCS
  5
6
330
0
100
AcDbSymbolTable
 70
0
  0
ENDTAB
  0
TABLE
  2
APPID
  5
3
330
0
100
AcDbSymbolTable
 70
3
  0
APPID
  5
2A
330
3
100
AcDbSymbolTableRecord
100
AcDbRegAppTableRecord
  2
ACAD
 70
0
  0
APPID
  5
98
330
3
100
AcDbSymbolTableRecord
100
AcDbRegAppTableRecord
  2
HATCHBACKGROUNDCOLOR
 70
0
  0
APPID
  5
99
330
3
100
AcDbSymbolTableRecord
100
AcDbRegAppTableRecord
  2
EZDXF
 70
0
  0
ENDTAB
  0
TABLE
  2
DIMSTYLE
  5
4
330
0
100
AcDbSymbolTable
 70
12
100
AcDbDimStyleTable
  0
DIMSTYLE
105
2B
330
4
100
AcDbSymbolTableRecord
100
AcDbDimStyleTableRecord
  2
Standard
 70
0
 40
1.0
 41
2.5
 42
0.625
 43
3.75
 44
1.25
 45
0.0
 46
0.0
 47
0.0
 48
0.0
 49
2.5
140
2.5
141
2.5
142
0.0
143
0.03937007874
144
1.0
145
0.0
146
1.0
147
0.625
148
0.0
 69
0
 70
0
 71
0
 72
0
 73
0
 74
0
 75
0
 76
0
 77
1
 78
8
 79
3
170
0
171
3
172
1
173
0
174
0
175
0
176
0
177
0
178
0
179
2
271
2
272
2
273
2
274
3
275
0
276
0
277
2
278
44
279
0
280
0
281
0
282
0
283
0
284
8
285
0
286
0
288
0
289
3
290
0
371
-2
372
-2
  0
DIMSTYLE
105
73
330
4
100
AcDbSymbolTableRecord
100
AcDbDimStyleTableRecord
  2
EZDXF
 70
0
 40
1.0
 41
0.175
 42
0.125
 43
3.75
 44
0.375
 45
0.0
 46
0.0
 47
0.0
 48
0.0
 49
2.5
140
0.25
141
2.5
142
0.0
143
0.03937007874
144
100.0
145
0.0
146
0.5
147
0.1
148
0.0
 69
0
 70
0
 71
0
 72
0
 73
0
 74
0
 75
0
 76
0
 77
1
 78
12
 79
3
170
0
171
3
172
1
173
0
174
0
175
0
176
0
177
0
178
0
179
2
271
2
272
2
273
2
274
3
275
0
276
0
277
2
278
46
279
2
280
0
281
0
282
0
283
0
284
8
285
0
286
0
288
1
289
3
290
0
340
4C
342
74
371
-2
372
-2
  0
DIMSTYLE
105
7C
330
4
100
AcDbSymbolTableRecord
100
AcDbDimStyleTableRecord
  2
EZ_M_100_H25_CM
 70
0
 40
1.0
 41
0.25
 42
0.125
 43
3.75
 44
0.375
 45
0.0
 46
0.0
 47
0.0
 48
0.0
 49
2.5
140
0.25
141
2.5
142
0.125
143
0.03937007874
144
100.0
145
0.0
146
0.5
147
0.1
148
0.0
 69
0
 70
0
 71
0
 72
0
 73
0
 74
0
 75
0
 76
0
 77
1
 78
12
 79
3
170
0
171
3
172
1
173
0
174
0
175
0
176
0
177
0
178
0
179
2
271
2
272
2
273
2
274
3
275
0
276
0
277
2
278
46
279
2
280
0
281
0
282
0
283
0
284
8
285
0
286
0
288
1
289
3
290
0
340
4C
371
-2
372
-2
  0
DIMSTYLE
105
7D
330
4
100
AcDbSymbolTableRecord
100
AcDbDimStyleTableRecord
  2
EZ_M_50_H25_CM
 70
0
 40
1.0
 41
0.125
 42
0.0625
 43
3.75
 44
0.1875
 45
0.0
 46
0.0
 47
0.0
 48
0.0
 49
2.5
140
0.125
141
2.5
142
0.0625
143
0.03937007874
144
100.0
145
0.0
146
0.5
147
0.05
148
0.0
 69
0
 70
0
 71
0
 72
0
 73
0
 74
0
 75
0
 76
0
 77
1
 78
12
 79
3
170
0
171
3
172
1
173
0
174
0
175
0
176
0
177
0
178
0
179
2
271
2
272
2
273
2
274
3
275
0
276
0
277
2
278
46
279
2
280
0
281
0
282
0
283
0
284
8
285
0
286
0
288
1
289
3
290
0
340
4C
371
-2
372
-2
  0
DIMSTYLE
105
7E
330
4
100
AcDbSymbolTableRecord
100
AcDbDimStyleTableRecord
  2
EZ_M_25_H25_CM
 70
0
 40
1.0
 41
0.0625
 42
0.03125
 43
3.75
 44
0.09375
 45
0.0
 46
0.0
 47
0.0
 48
0.0
 49
2.5
140
0.0625
141
2.5
142
0.03125
143
0.03937007874
144
100.0
145
0.0
146
0.5
147
0.025
148
0.0
 69
0
 70
0
 71
0
 72
0
 73
0
 74
0
 75
0
 76
0
 77
1
 78
12
 79
3
170
0
171
3
172
1
173
0
174
0
175
0
176
0
177
0
178
0
179
2
271
2
272
2
273
2
274
3
275
0
276
0
277
2
278
46
279
2
280
0
281
0
282
0
283
0
284
8
285
0
286
0
288
1
289
3
290
0
340
4C
371
-2
372
-2
  0
DIMSTYLE
105
7F
330
4
100
AcDbSymbolTableRecord
100
AcDbDimStyleTableRecord
  2
EZ_M_20_H25_CM
 70
0
 40
1.0
 41
0.05
 42
0.025
 43
3.75
 44
0.07500000000000001
 45
0.0
 46
0.0
 47
0.0
 48
0.0
 49
2.5
140
0.05
141
2.5
142
0.025
143
0.03937007874
144
100.0
145
0.0
146
0.5
147
0.020000000000000004
148
0.0
 69
0
 70
0
 71
0
 72
0
 73
0
 74
0
 75
0
 76
0
 77
1
 78
12
 79
3
170
0
171
3
172
1
173
0
174
0
175
0
176
0
177
0
178
0
179
2
271
2
272
2
273
2
274
3
275
0
276
0
277
2
278
46
279
2
280
0
281
0
282
0
283
0
284
8
285
0
286
0
288
1
289
3
290
0
340
4C
371
-2
372
-2
  0
DIMSTYLE
105
80
330
4
100
AcDbSymbolTableRecord
100
AcDbDimStyleTableRecord
  2
EZ_M_10_H25_CM
 70
0
 40
1.0
 41
0.025
 42
0.0125
 43
3.75
 44
0.037500000000000006
 45
0.0
 46
0.0
 47
0.0
 48
0.0
 49
2.5
140
0.025
141
2.5
142
0.0125
143
0.03937007874
144
100.0
145
0.0
146
0.5
147
0.010000000000000002
148
0.0
 69
0
 70
0
 71
0
 72
0
 73
0
 74
0
 75
0
 76
0
 77
1
 78
12
 79
3
170
0
171
3
172
1
173
0
174
0
175
0
176
0
177
0
178
0
179
2
271
2
272
2
273
2
274
3
275
0
276
0
277
2
278
46
279
2
280
0
281
0
282
0
283
0
284
8
285
0
286
0
288
1
289
3
290
0
340
4C
371
-2
372
-2
  0
DIMSTYLE
105
81
330
4
100
AcDbSymbolTableRecord
100
AcDbDimStyleTableRecord
  2
EZ_M_5_H25_CM
 70
0
 40
1.0
 41
0.0125
 42
0.00625
 43
3.75
 44
0.018750000000000003
 45
0.0
 46
0.0
 47
0.0
 48
0.0
 49
2.5
140
0.0125
141
2.5
142
0.00625
143
0.03937007874
144
100.0
145
0.0
146
0.5
147
0.005000000000000001
148
0.0
 69
0
 70
0
 71
0
 72
0
 73
0
 74
0
 75
0
 76
0
 77
1
 78
12
 79
3
170
0
171
3
172
1
173
0
174
0
175
0
176
0
177
0
178
0
179
2
271
2
272
2
273
2
274
3
275
0
276
0
277
2
278
46
279
2
280
0
281
0
282
0
283
0
284
8
285
0
286
0
288
1
289
3
290
0
340
4C
371
-2
372
-2
  0
DIMSTYLE
105
82
330
4
100
AcDbSymbolTableRecord
100
AcDbDimStyleTableRecord
  2
EZ_M_1_H25_CM
 70
0
 40
1.0
 41
0.0025
 42
0.00125
 43
3.75
 44
0.00375
 45
0.0
 46
0.0
 47
0.0
 48
0.0
 49
2.5
140
0.0025
141
2.5
142
0.00125
143
0.03937007874
144
100.0
145
0.0
146
0.5
147
0.001
148
0.0
 69
0
 70
0
 71
0
 72
0
 73
0
 74
0
 75
0
 76
0
 77
1
 78
12
 79
3
170
0
171
3
172
1
173
0
174
0
175
0
176
0
177
0
178
0
179
2
271
2
272
2
273
2
274
3
275
0
276
0
277
2
278
46
279
2
280
0
281
0
282
0
283
0
284
8
285
0
286
0
288
1
289
3
290
0
340
4C
371
-2
372
-2
  0
DIMSTYLE
105
83
330
4
100
AcDbSymbolTableRecord
100
AcDbDimStyleTableRecord
  2
EZ_RADIUS
 70
0
 40
1.0
 41
0.25
 42
0.125
 43
3.75
 44
0.375
 45
0.0
 46
0.0
 47
0.0
 48
0.0
 49
2.5
140
0.25
141
0.0
142
0.0
143
0.03937007874
144
100.0
145
0.0
146
0.5
147
0.1
148
0.0
 69
0
 70
0
 71
0
 72
0
 73
0
 74
0
 75
0
 76
0
 77
1
 78
12
 79
3
170
0
171
3
172
0
173
0
174
0
175
0
176
0
177
0
178
0
179
2
271
2
272
2
273
2
274
3
275
0
276
0
277
2
278
46
279
1
280
0
281
0
282
0
283
0
284
8
285
0
286
0
288
1
289
3
290
0
340
4C
342
84
371
-2
372
-2
  0
DIMSTYLE
105
88
330
4
100
AcDbSymbolTableRecord
100
AcDbDimStyleTableRecord
  2
EZ_RADIUS_INSIDE
 70
0
 40
1.0
 41
0.25
 42
0.125
 43
3.75
 44
0.375
 45
0.0
 46
0.0
 47
0.0
 48
0.0
 49
2.5
140
0.25
141
0.0
142
0.0
143
0.03937007874
144
100.0
145
0.0
146
0.5
147
0.1
148
0.0
 69
0
 70
0
 71
0
 72
0
 73
0
 74
0
 75
0
 76
0
 77
0
 78
12
 79
3
170
0
171
3
172
0
173
0
174
1
175
0
176
0
177
0
178
0
179
2
271
2
272
2
273
2
274
3
275
0
276
0
277
2
278
46
279
0
280
0
281
0
282
0
283
0
284
8
285
0
286
0
288
1
289
0
290
0
340
4C
342
84
371
-2
372
-2
  0
DIMSTYLE
105
89
330
4
100
AcDbSymbolTableRecord
100
AcDbDimStyleTableRecord
  2
EZ_CURVED
 70
0
 40
1.0
 41
0.25
 42
0.125
 43
3.75
 44
0.375
 45
0.0
 46
0.0
 47
0.0
 48
0.0
 49
2.5
140
0.25
141
2.5
142
0.0
143
0.03937007874
144
100.0
145
0.0
146
0.5
147
0.1
148
0.0
 69
0
 70
0
 71
0
 72
0
 73
0
 74
0
 75
0
 76
0
 77
1
 78
12
 79
2
 90
2
170
0
171
3
172
1
173
0
174
0
175
0
176
0
177
0
178
0
179
2
271
2
272
2
273
2
274
3
275
0
276
0
277
2
278
46
279
2
280
0
281
0
282
0
283
0
284
8
285
0
286
0
288
1
289
3
290
0
340
4C
371
-2
372
-2
  0
ENDTAB
  0
TABLE
  2
BLOCK_RECORD
  5
9
330
0
100
AcDbSymbolTable
 70
5
  0
BLOCK_RECORD
  5
17
330
9
100
AcDbSymbolTableRecord
100
AcDbBlockTableRecord
  2
*Model_Space
340
1A
 70
0
280
1
281
0
  0
BLOCK_RECORD
  5
1B
330
9
100
AcDbSymbolTableRecord
100
AcDbBlockTableRecord
  2
*Paper_Space
340
1E
 70
0
280
1
281
0
  0
BLOCK_RECORD
  5
74
330
9
100
AcDbSymbolTableRecord
100
AcDbBlockTableRecord
  2
_ARCHTICK
340
0
 70
0
280
1
281
0
  0
BLOCK_RECORD
  5
78
330
9
100
AcDbSymbolTableRecord
100
AcDbBlockTableRecord
  2
_CLOSEDFILLED
340
0
 70
0
280
1
281
0
  0
BLOCK_RECORD
  5
84
330
9
100
AcDbSymbolTableRecord
100
AcDbBlockTableRecord
  2
_CLOSEDBLANK
340
0
 70
0
280
1
281
0
  0
ENDTAB
  0
ENDSEC
  0
SECTION
  2
BLOCKS
  0
BLOCK
  5
18
330
17
100
AcDbEntity
  8
0
100
AcDbBlockBegin
  2
*Model_Space
 70
0
 10
0.0
 20
0.0
 30
0.0
  3
*Model_Space
  1

  0
ENDBLK
  5
19
330
17
100
AcDbEntity
  8
0
100
AcDbBlockEnd
  0
BLOCK
  5
1C
330
1B
100
AcDbEntity
  8
0
100
AcDbBlockBegin
  2
*Paper_Space
 70
0
 10
0.0
 20
0.0
 30
0.0
  3
*Paper_Space
  1

  0
ENDBLK
  5
1D
330
1B
100
AcDbEntity
  8
0
100
AcDbBlockEnd
  0
BLOCK
  5
75
330
74
100
AcDbEntity
  8
0
100
AcDbBlockBegin
  2
_ARCHTICK
 70
0
 10
0.0
 20
0.0
 30
0.0
  3
_ARCHTICK
  1

  0
LWPOLYLINE
  5
77
330
74
100
AcDbEntity
  8
0
  6
BYBLOCK
 62
0
100
AcDbPolyline
 90
2
 70
0
 43
0.15
 10
-0.5
 20
-0.5
 10
0.5
 20
0.5
  0
ENDBLK
  5
76
330
74
100
AcDbEntity
  8
0
100
AcDbBlockEnd
  0
BLOCK
  5
79
330
78
100
AcDbEntity
  8
0
100
AcDbBlockBegin
  2
_CLOSEDFILLED
 70
0
 10
0.0
 20
0.0
 30
0.0
  3
_CLOSEDFILLED
  1

  0
SOLID
  5
7B
330
78
100
AcDbEntity
  8
0
  6
BYBLOCK
 62
0
100
AcDbTrace
 10
-1.0
 20
0.16439898372402537
 30
0.0
 11
0.0
 21
0.0
 31
0.0
 12
-1.0
 22
-0.16439898372402537
 32
0.0
 13
-1.0
 23
-0.16439898372402537
 33
0.0
  0
ENDBLK
  5
7A
330
78
100
AcDbEntity
  8
0
100
AcDbBlockEnd
  0
BLOCK
  5
85
330
84
100
AcDbEntity
  8
0
100
AcDbBlockBegin
  2
_CLOSEDBLANK
 70
0
 10
0.0
 20
0.0
 30
0.0
  3
_CLOSEDBLANK
  1

  0
LWPOLYLINE
  5
87
330
84
100
AcDbEntity
  8
0
  6
BYBLOCK
 62
0
100
AcDbPolyline
 90
3
 70
1
 10
-1.0
 20
0.16439898372402537
 10
0.0
 20
0.0
 10
-1.0
 20
-0.16439898372402537
  0
ENDBLK
  5
86
330
84
100
AcDbEntity
  8
0
100
AcDbBlockEnd
  0
ENDSEC
  0
SECTION
  2
ENTITIES
  0
LWPOLYLINE
  5
8D
330
17
100
AcDbEntity
  8
HOJA
100
AcDbPolyline
 90
4
 70
1
 10
0.0
 20
0.0
 10
500.0
 20
0.0
 10
500.0
 20
700.0
 10
0.0
 20
700.0
  0
LWPOLYLINE
  5
8E
330
17
100
AcDbEntity
  8
CORTE
100
AcDbPolyline
 90
424
 70
1
 10
13.0
 20
13.0
 10
13.0
 20
274.0195652173913
 10
95.09069421074716
 20
274.0195652173913
 10
92.04189583116634
 20
271.571147437707
 10
91.34916687047637
 20
270.957603742875
 10
89.12219969655267
 20
268.93538881573784
 10
88.20501387884615
 20
268.02937447523993
 10
86.20215863381152
 20
265.99086932154273
 10
85.38900875761342
 20
265.1010981729388
 10
83.28179530497698
 20
262.7132599049457
 10
82.83352956689762
 20
262.1727768560059
 10
81.04807994004013
 20
259.9316736787618
 10
80.49587587811084
 20
259.2426722772266
 10
80.3619585573574
 20
259.068205807898
 10
78.35604048656776
 20
256.3143992494265
 10
77.44104045759389
 20
254.99551660278894
 10
76.37247228987087
 20
253.3860279045358
 10
74.54825654518172
 20
250.48439463575733
 10
74.5302643069633
 20
250.45614157963394
 10
74.52065677516146
 20
250.44015732270864
 10
72.83174678855583
 20
247.52777051074756
 10
71.59926600574114
 20
245.26180707494132
 10
71.24906208927116
 20
244.599282871849
 10
70.90698708677786
 20
243.90469354689725
 10
69.78330707413264
 20
241.66955030731972
 10
68.67835216083347
 20
239.30145961411202
 10
68.42234264033887
 20
238.7409994194161
 10
68.23529846305006
 20
238.29652529683923
 10
67.16253630748146
 20
235.81135666557472
 10
66.16391860093715
 20
233.28908273098943
 10
65.99829812820889
 20
232.88172694492218
 10
65.75772072076369
 20
232.23348571946119
 10
64.92290917976516
 20
229.95309246808785
 10
64.50779352424227
 20
228.69970328530783
 10
63.934677501613436
 20
227.0234945500315
 10
63.12161150104939
 20
224.37955941509037
 10
63.030832446400396
 20
224.09394344539186
 10
62.836602676122965
 20
223.41001357547685
 10
62.202922845286594
 20
221.16516276786092
 10
61.99173731122934
 20
220.31817755912175
 10
61.45193488564469
 20
218.235588624948
 10
61.043851791502064
 20
216.43769440246476
 10
60.77652213368263
 20
215.30605174992496
 10
60.244069600536065
 20
212.7057730092078
 10
60.173816634678104
 20
212.37650679214784
 10
59.915314232912266
 20
210.96159046674273
 10
59.637975446537155
 20
209.44748940032437
 10
59.58747994714918
 20
209.1192124310557
 10
59.1678709413941
 20
206.51791047913613
 10
59.052980362766405
 20
205.65341498530287
 10
58.76484331579708
 20
203.58836058986728
 10
58.619147812844574
 20
202.28861527556816
 10
58.427119883478156
 20
200.65879454610115
 10
58.2769507736116
 20
199.01573698123673
 10
58.15322575901109
 20
197.72924436632346
 10
58.018570158229934
 20
195.82694652555188
 10
57.941976256139625
 20
194.79968731024238
 10
57.8372519988979
 20
192.71547456589732
 10
57.792470462072515
 20
191.87014433856572
 10
57.72714074857534
 20
189.67544048940744
 10
57.70406835637414
 20
188.94059264954635
 10
57.68318847915663
 20
186.70180954380456
 10
57.676411108106834
 20
186.01105327278376
 10
57.70102979193706
 20
183.79013793011913
 10
57.70939221630516
 20
183.08150346263557
 10
57.77692602402939
 20
180.93674104242874
 10
57.803178325502984
 20
180.15196416907867
 10
57.90767148037234
 20
178.1383821635862
 10
57.958195674463326
 20
177.22242350932913
 10
58.09054826328564
 20
175.39232525100755
 10
58.1751414925299
 20
174.29286950330498
 10
58.32327252323401
 20
172.69628879949127
 10
58.45498811458242
 20
171.36332343587273
 10
58.60395876202551
 20
170.04837727898345
 10
58.79899098665901
 20
168.43376220281976
 10
58.931078733663824
 20
167.447057019197
 10
59.20870333898287
 20
165.5042069044004
 10
59.30343601351481
 20
164.89113143971915
 10
59.68596971688497
 20
162.57463443492657
 10
59.72013706935839
 20
162.3796936743714
 10
59.91527826177757
 20
161.33912306952635
 10
60.177682609802645
 20
159.90807948542988
 10
60.22892657826843
 20
159.64565841617883
 10
60.673844460484176
 20
157.47642854844796
 10
60.84010149481834
 20
156.71612200460137
 10
61.21023793717795
 20
155.0851484900002
 10
61.52480039139087
 20
153.78658366740606
 10
61.78675062084527
 20
152.73412165152232
 10
62.28601381493793
 20
150.85703035479065
 10
62.40349576262672
 20
150.42345489037254
 10
62.83653488888717
 20
148.92972029997864
 10
63.05775817928205
 20
148.1494914358424
 10
63.12456518919244
 20
147.92829383288029
 10
63.743857401708965
 20
145.9084584688973
 10
64.04130784748999
 20
144.99874388783275
 10
64.46782384903604
 20
143.70540109171793
 10
65.04390997166983
 20
142.0691580384726
 10
65.23036689566955
 20
141.54103059762554
 10
65.75760621832526
 20
140.14385778963333
 10
66.02842581066417
 20
139.41162037920708
 10
66.13513013253896
 20
139.14059386481668
 10
66.85571457243897
 20
137.3122389345251
 10
67.31823478722025
 20
136.21097763192373
 10
67.72025781632344
 20
135.25020854140433
 10
68.59915426525924
 20
133.2813368252109
 10
68.62331028232194
 20
133.2267847674315
 10
68.67816732713605
 20
133.11078526596245
 10
69.55248068275318
 20
131.22922319378523
 10
69.98572712045642
 20
130.35287268265364
 10
70.5173682260063
 20
129.26783298951375
 10
71.47996907094405
 20
127.42315306085726
 10
71.52040772470656
 20
127.34466761605745
 10
71.59900080738083
 20
127.20158559619179
 10
72.54994912978133
 20
125.44810356769392
 10
73.09920036351257
 20
124.49476853328567
 10
73.61511703738046
 20
123.58724859056254
 10
74.52030569861016
 20
122.08985867599189
 10
74.71663143100362
 20
121.76319497617372
 10
74.84194612512096
 20
121.56648594088064
 10
75.8465348339091
 20
119.96724454534991
 10
76.73330442257156
 20
118.63662076746556
 10
77.01368489407561
 20
118.20857934096878
 10
77.44054846408562
 20
117.59485334010321
 10
78.21370340745021
 20
116.48373240199044
 10
78.78490168024754
 20
115.70837849506553
 10
79.44787676855738
 20
114.79223119670384
 10
80.36131056706101
 20
113.60091118348166
 10
80.71874761754444
 20
113.13888560341503
 10
81.01195015828903
 20
112.78024456476582
 10
82.02425436681179
 20
111.5188499246422
 10
83.28176170593784
 20
110.03709261001934
 10
83.36719586962025
 20
109.93826972126912
 10
83.4457088060234
 20
109.85218785495495
 10
84.74938333541472
 20
108.39504715642288
 10
86.14060876764749
 20
106.92199583700108
 10
86.16996689558485
 20
106.89021857073531
 10
86.20100977771745
 20
106.8584061379301
 10
87.6340478408263
 20
105.43167534921753
 10
89.1215376858574
 20
104.02658884367958
 10
89.13693574669564
 20
104.01264901125327
 10
89.1559621139357
 20
103.99627814687676
 10
90.69423762172507
 20
102.64478721112788
 10
92.04076366370973
 20
101.52082054032519
 10
92.29280573539096
 20
101.32234462243636
 10
92.63182930642539
 20
101.0683473916653
 10
93.95258010074845
 20
100.05708920465668
 10
94.95947362120364
 20
99.32377896284322
 10
95.6644542678654
 20
98.84892535008034
 10
96.76933275852633
 20
98.14036403048961
 10
97.44049308433154
 20
97.70009034374858
 10
97.87761594933163
 20
97.42709921272447
 10
99.29112805929482
 20
96.6317227115084
 10
100.7958413331745
 20
95.82532763182236
 10
101.20976682580172
 20
95.6321979939953
 10
102.14975249718196
 20
95.21474545691609
 10
103.22746371510141
 20
94.72545255869476
 10
103.71266057603754
 20
94.51572437148002
 10
105.35069583802398
 20
93.93156464674293
 10
106.62946014461023
 20
93.49832427253028
 10
107.58781402786661
 20
93.25225957515947
 10
109.54556263815012
 20
92.7775195887639
 10
109.96424046776052
 20
92.71278644548026
 10
112.46111001729464
 20
92.35434691408057
 10
112.51850198247251
 20
92.35145511314639
 10
113.97234697482038
 20
92.2901404309887
 10
115.32186777094199
 20
92.23212642322048
 10
115.37577304631797
 20
92.23021370014571
 10
116.33195253336571
 20
92.29006315944285
 10
118.29132015396272
 20
92.41051761560023
 10
118.4312683922504
 20
92.43341662704198
 10
121.20650222816374
 20
92.89751237308856
 10
122.03729266013129
 20
93.1243902695464
 10
124.12207592759543
 20
93.69757300060252
 10
126.3988621502303
 20
94.57186727073866
 10
127.03823351837055
 20
94.81768641690739
 10
127.83604259837298
 20
95.21359344848354
 10
129.95540689917866
 20
96.25198712201976
 10
132.55249251774393
 20
97.81773420526078
 10
132.87298895013646
 20
98.0107595680572
 10
133.05125630557117
 20
98.138511177206
 10
135.79156493953758
 20
100.08176540361637
 10
136.988317715673
 20
101.0665788800452
 10
138.7108026630845
 20
102.47113489413066
 10
140.35340244508168
 20
103.99476867004493
 10
141.63063082146357
 20
105.16995552939788
 10
143.33353394769426
 20
106.92315253006689
 10
144.55097918871513
 20
108.16742191896304
 10
146.0447348178134
 20
109.85176969989998
 10
147.4717761137779
 20
111.4500530187933
 10
148.56195490979937
 20
112.78065972976393
 10
150.39295447732493
 20
115.00130730969234
 10
150.93495889859386
 20
115.70980731198433
 10
152.77038993239307
 20
118.0947098187001
 10
153.190536741602
 20
118.64105181610334
 10
153.3145322911373
 20
118.80167027807093
 10
155.31991273451126
 20
121.57042979413254
 10
156.23626881712008
 20
122.83161707549772
 10
157.38422160988372
 20
124.50006038999722
 10
159.1582255298539
 20
127.0724680467517
 10
159.39366117150595
 20
127.42988570550348
 10
159.85427099977346
 20
128.1283234079679
 10
161.32121568112345
 20
130.36090583743012
 10
162.08025156236587
 20
131.51872433880357
 10
163.20013210755982
 20
133.29087402618683
 10
165.00249188612537
 20
136.15480022594937
 10
165.04296595467966
 20
136.22100844670445
 10
165.10640942971122
 20
136.32545799075768
 10
166.81216168575816
 20
139.15170536823507
 10
167.92456288537932
 20
141.01512166300526
 10
168.5481712771223
 20
142.08187264767997
 10
169.4025762004925
 20
143.56419803431433
 10
170.23042008579998
 20
145.01229684337687
 10
170.84652335677825
 20
146.11112437553936
 10
171.85962419075648
 20
147.9424398020891
 10
173.05802306788266
 20
150.160225408492
 10
173.4390169982191
 20
150.872552278292
 10
173.7683489745604
 20
151.50681022233684
 10
174.9527905296475
 20
153.8026175193602
 10
176.13573892913413
 20
156.17662031895946
 10
176.4092162374149
 20
156.7323740907598
 10
176.6900381314351
 20
157.32748756136215
 10
177.7919631044101
 20
159.66232551534108
 10
178.6970563777266
 20
161.67481835132327
 10
179.10314294712109
 20
162.5917148658489
 10
179.6116213354051
 20
163.8068652283916
 10
180.33370705964668
 20
165.5215043823398
 10
180.80676797350586
 20
166.71969078652617
 10
181.47728481181198
 20
168.45052092514075
 10
182.52855242567767
 20
171.37605951157315
 10
182.5297128131129
 20
171.37935910274103
 10
182.53234034438643
 20
171.38751440727236
 10
183.48531132713438
 20
174.30878686115128
 10
183.88622636918655
 20
175.6658609493356
 10
184.33756456458406
 20
177.23729583361649
 10
184.95978980759796
 20
179.6715976074609
 10
185.08189634172757
 20
180.16565182407282
 10
185.45330075720955
 20
181.89281300186983
 10
185.71661756748313
 20
183.09478204300595
 10
185.7769425081224
 20
183.41835139158977
 10
186.238739118668
 20
186.02292928964403
 10
186.37207704444452
 20
186.94375290469281
 10
186.64373846385715
 20
188.9510024959597
 10
186.78121459033247
 20
190.2824614939626
 10
186.9303667897816
 20
191.87905413858851
 10
187.02828596264717
 20
193.45850544035764
 10
187.09806101513266
 20
194.80709146517282
 10
187.13380004756974
 20
196.49247764976704
 10
187.1468048008078
 20
197.73516396830541
 10
187.1151770681263
 20
199.4018737499438
 10
187.07698535834956
 20
200.66327344555827
 10
186.98708625770527
 20
202.2014351455148
 10
186.88924371446257
 20
203.59146232637784
 10
186.7618037423357
 20
204.9034923014664
 10
186.5843316490861
 20
206.51971363102942
 10
186.44953479232385
 20
207.51830639372523
 10
186.1629827982738
 20
209.44808371501298
 10
186.058707317327
 20
210.05436454721556
 10
185.62580202758647
 20
212.37655873438112
 10
185.5962350611676
 20
212.51860519151091
 10
185.4533588359481
 20
213.15756795714185
 10
185.06893287023775
 20
214.92012433832568
 10
184.9794179073773
 20
215.30448173725816
 10
184.48364558551452
 20
217.26124019438367
 10
184.2219903888247
 20
218.2331801913753
 10
183.84367416397913
 20
219.54758348277352
 10
183.3515697965037
 20
221.16201376348744
 10
183.15213983156573
 20
221.78229243360843
 10
182.5325922496835
 20
223.60583279309137
 10
182.41156967161726
 20
223.96986659228327
 10
182.36943660770999
 20
224.0902934970973
 10
181.62973011061192
 20
226.11407505111353
 10
181.2819539022717
 20
227.01934381964864
 10
180.8058132506042
 20
228.21617887683448
 10
180.08199045014956
 20
229.94852383379896
 10
179.94083592295024
 20
230.27719921533208
 10
179.612295716585
 20
231.0058953210278
 10
179.0385616707854
 20
232.30247594043257
 10
178.77255324202454
 20
232.87709894316376
 10
178.1023488565033
 20
234.29215311344578
 10
177.35208834294286
 20
235.80650310623585
 10
177.13048157920605
 20
236.24616825750437
 10
176.69142148715798
 20
237.07884437132506
 10
176.12522615792358
 20
238.167979330667
 10
175.81774488163632
 20
238.73519418663875
 10
175.09011205917795
 20
240.0586740712032
 10
174.16912617350835
 20
241.664814943079
 10
174.02293876866835
 20
241.91732872258916
 10
173.77067733631185
 20
242.3349811862308
 10
172.9258736078049
 20
243.74687470110092
 10
172.39888031626072
 20
244.5936484299928
 10
171.80080711454207
 20
245.54759230876923
 10
170.84920380390315
 20
247.0063564524555
 10
170.64590788306384
 20
247.3188919408905
 10
170.50852003991645
 20
247.52247517485918
 10
169.46366909694413
 20
249.06239231824767
 10
168.48482172178973
 20
250.4524015300852
 10
168.25444593425593
 20
250.7789551948063
 10
167.92866060455512
 20
251.22372923886894
 10
167.016067049179
 20
252.46627689954892
 10
166.3202351868552
 20
253.38133370366563
 10
165.7521687595853
 20
254.1281658702044
 10
165.00742825593213
 20
255.07347508310522
 10
164.46005469278032
 20
255.76129470374684
 10
164.0088105021167
 20
256.3102336590867
 10
163.14060418805133
 20
257.36762264184006
 10
162.0863442966219
 20
258.61021285624537
 10
161.7953322123031
 20
258.94709628721023
 10
161.53534794730606
 20
259.23912757433783
 10
160.41885827556106
 20
260.49640923805777
 10
159.16543591943537
 20
261.86556248246995
 10
159.01925922058118
 20
262.0210477957121
 10
158.87718897385497
 20
262.16801142105095
 10
157.58364030462542
 20
263.5112353638508
 10
156.2446998739666
 20
264.8630112443756
 10
156.12667103469883
 20
264.97795826944497
 10
156.0013914499154
 20
265.0968837876573
 10
154.62911012355798
 20
266.4062201139002
 10
153.32416607455647
 20
267.6195640334615
 10
153.10970139089176
 20
267.8099149295116
 10
152.86079706703418
 20
268.0257514831982
 10
151.54658169710942
 20
269.1726250890737
 10
150.40385525074194
 20
270.1467238475608
 10
149.9572955500699
 20
270.5058036754095
 10
149.3873872127684
 20
270.95460344177735
 10
148.32403704738473
 20
271.79839245598987
 10
147.48378792174375
 20
272.45128335911477
 10
146.6546204836804
 20
273.0507798017027
 10
145.28986957485338
 20
274.0195652173913
 10
306.92907406230586
 20
274.0195652173913
 10
307.7999883494059
 20
273.4811936675245
 10
308.3231183145076
 20
273.191851608965
 10
309.744645660462
 20
272.51088757026577
 10
311.2385928401167
 20
271.87759744116073
 10
311.82309082396114
 20
271.6748328038989
 10
313.78621381670035
 20
271.0851605811825
 10
314.0676137220648
 20
270.99751801410605
 10
314.151174600926
 20
270.9752747423944
 10
316.51390653363507
 20
270.5297517103389
 10
317.0657392672523
 20
270.44665978504946
 10
319.1923079289399
 20
270.2938527475923
 10
319.9804258630045
 20
270.26219888241116
 10
322.15995254733184
 20
270.3468395249445
 10
322.8954970319993
 20
270.39471028028294
 10
325.49625737118805
 20
270.76817942786255
 10
325.8112259753785
 20
270.8201981912387
 10
326.90883084199737
 20
271.08637694892934
 10
328.7292156325125
 20
271.51709755459734
 10
329.35187508404044
 20
271.712303801985
 10
331.6462933887148
 20
272.4649975890127
 10
333.94444443644704
 20
273.3901336931038
 10
334.5641555359716
 20
273.6467571595305
 10
335.3317871430159
 20
274.0195652173913
 10
360.9760869565217
 20
274.0195652173913
 10
360.9760869565217
 20
71.38976210346287
 10
360.75389869363016
 20
71.52369244754321
 10
360.56779166526894
 20
71.63257222196643
 10
358.9038430289214
 20
72.59789342992791
 10
357.943112584026
 20
73.14015849508216
 10
356.99551226612806
 20
73.60855472887245
 10
355.02503139887466
 20
74.55361632023254
 10
355.0232938765455
 20
74.55431485487978
 10
355.01235279770407
 20
74.55856350639182
 10
352.915416341048
 20
75.37046302428314
 10
352.1086777264517
 20
75.67345949359506
 10
350.70881122665287
 20
76.08058632887601
 10
349.19232612989816
 20
76.50544668522434
 10
348.3728728808891
 20
76.66056273767448
 10
346.2767874764351
 20
77.03683980238665
 10
345.8678937678742
 20
77.07092748172177
 10
343.3618173516618
 20
77.25754097404767
 10
343.13348635573595
 20
77.25159216830457
 10
340.4471529146261
 20
77.16004342102838
 10
340.07572869607293
 20
77.10877960612922
 10
337.53238401253384
 20
76.73956921085168
 10
336.54284865490325
 20
76.49066409311331
 10
334.61720294453386
 20
75.99425713389842
 10
332.27687419987365
 20
75.13868220079618
 10
331.70131885423285
 20
74.92520112110765
 10
330.9406529716889
 20
74.56077616297678
 10
328.7839624839974
 20
73.53997886777772
 10
326.3805317083532
 20
72.15065286189488
 10
325.8663263995824
 20
71.85108362236655
 10
325.5516169937929
 20
71.63538763015755
 10
322.9472938075854
 20
69.87289635998165
 10
321.4411656891924
 20
68.7068393009439
 10
320.0276390834437
 20
67.62368526035058
 10
317.8765398487909
 20
65.77812912437783
 10
317.1074467157903
 20
65.12305564086616
 10
314.6819413373049
 20
62.84925627626825
 10
314.1868737357576
 20
62.38681178168247
 10
311.7536990030835
 20
59.92023889951254
 10
311.265970166832
 20
59.425446511527596
 10
309.0287160405047
 20
56.99110736722611
 10
308.34485619243725
 20
56.24277083170222
 10
306.4679910135798
 20
54.061897456015984
 10
305.4235691684799
 20
52.83466919138566
 10
304.0476023488697
 20
51.13263735403795
 10
302.50213281387397
 20
49.18777961565584
 10
301.7534198206371
 20
48.20336154934766
 10
299.58062474540185
 20
45.27803486787482
 10
299.5778059926103
 20
45.27409624914169
 10
299.5701179167423
 20
45.263019521062034
 10
297.55672922736505
 20
42.34414215804112
 10
296.65987908343754
 20
40.99410777218192
 10
295.64435367782784
 20
39.415140626900666
 10
294.01124721428874
 20
36.75863710674077
 10
293.8447716650023
 20
36.48564144288329
 10
293.7393477737018
 20
36.303418260439734
 10
292.19453399651405
 20
33.55689916084616
 10
290.8177352429129
 20
30.955696494071976
 10
290.64835170535656
 20
30.628180884474915
 10
290.4894329631737
 20
30.298871318872447
 10
289.2488702865688
 20
27.699290229142136
 10
288.00146716595617
 20
24.874042566887162
 10
287.9563797984175
 20
24.77057627951543
 10
287.8981282213793
 20
24.624749917633956
 10
286.80899524220166
 20
21.84212386727539
 10
286.20608354672765
 20
20.145645632109122
 10
285.7756760196133
 20
18.913637211858614
 10
284.97707391743137
 20
16.368366189769684
 10
284.85876161422846
 20
15.985129211544114
 10
284.8140721297685
 20
15.822253256197103
 10
284.0578163771739
 20
13.0
 10
13.0
 20
13.0
  0
LWPOLYLINE
  5
8F
330
17
100
AcDbEntity
  8
GRABADO
100
AcDbPolyline
 90
458
 70
1
 10
13.0
 20
274.0195652173913
 10
86.54736028459207
 20
274.0195652173913
 10
86.2006428950217
 20
273.68671205678766
 10
83.56299653799782
 20
270.96167214231417
 10
83.28025081978976
 20
270.6608866076414
 10
80.96069376078333
 20
268.0331833224579
 10
80.35959590761621
 20
267.32836262287043
 10
78.56186782471863
 20
265.1046262774348
 10
77.43870644532305
 20
263.65890407628945
 10
76.337303914891
 20
262.17601699849007
 10
74.5176086239573
 20
259.6123613871123
 10
74.26795107033075
 20
259.2473522042155
 10
73.79958689296123
 20
258.5266389336554
 10
72.34496469299964
 20
256.3173871585385
 10
71.59706702211218
 20
255.11819316496974
 10
70.54981416662828
 20
253.38873367955188
 10
69.1516883990759
 20
250.9359747593286
 10
68.87494890242814
 20
250.4588622589046
 10
68.67630133221174
 20
250.0938555211475
 10
67.31186973244483
 20
247.5302187624973
 10
65.96124394173015
 20
244.80719378248432
 10
65.85640305926525
 20
244.60044028092452
 10
65.7552969557442
 20
244.38571987534513
 10
64.49683043942134
 20
241.6717379933469
 10
63.55282138804027
 20
239.46290101730074
 10
63.23624200915121
 20
238.7420266526616
 10
62.83404161978659
 20
237.74429432926834
 10
62.062246154232085
 20
235.81328525704214
 10
61.61896248348371
 20
234.59477273327178
 10
60.97571858885637
 20
232.88361552926781
 10
60.01181628158564
 20
230.0529217224646
 10
59.97695523489439
 20
229.95396741830206
 10
59.91302436275805
 20
229.7525744455224
 10
59.04833530584821
 20
227.02511403606044
 10
58.70621500082886
 20
225.8150978689071
 10
58.200077786936504
 20
224.09549628670865
 10
57.59342843462552
 20
221.76915039663217
 10
57.429453098452896
 20
221.1658692719366
 10
56.991556154691324
 20
219.33381204954603
 10
56.72773318006925
 20
218.23687071776695
 10
56.65802349603085
 20
217.90274249446256
 10
56.089709256009414
 20
215.30724594012736
 10
55.880171624088675
 20
214.19277831711395
 10
55.52153410307193
 20
212.37760463733767
 10
55.22451301703833
 20
210.6053665433516
 10
55.020412600090026
 20
209.44796815894205
 10
54.6785633931716
 20
207.1280071864793
 10
54.58392144306214
 20
206.5183362009569
 10
54.23161681213553
 20
203.74998433858542
 10
54.20997043138243
 20
203.58872998653078
 10
54.070281121953215
 20
202.28699593545625
 10
53.89266851954244
 20
200.6593976688287
 10
53.87643514108363
 20
200.46559311512516
 10
53.632822674915886
 20
197.7297292980561
 10
53.602425312613036
 20
197.26103414922318
 10
53.43254955701424
 20
194.80005053533785
 10
53.401699568535264
 20
194.1299861138293
 10
53.29085099749845
 20
191.87038327132748
 10
53.26892349150103
 20
191.06711319848688
 10
53.207024886384275
 20
188.9407053910056
 10
53.19951307076494
 20
188.06782799923283
 10
53.180668092287775
 20
186.0110390726815
 10
53.189547371809994
 20
185.12814613920403
 10
53.21166362281727
 20
183.08136198691753
 10
53.23568027681556
 20
182.24476476895174
 10
53.30017030160981
 20
180.15169623036354
 10
53.33507624836
 20
179.41483228081492
 10
53.446655734801084
 20
177.2220307636829
 10
53.48537223991333
 20
176.63596863109697
 10
53.65186522323748
 20
174.29235439091744
 10
53.68461245690669
 20
173.90620837085794
 10
53.916849596020356
 20
171.36268905337886
 10
53.931221489715284
 20
171.2239863897942
 10
54.07026683221588
 20
169.9791538379513
 10
54.22135816831677
 20
168.58418492028403
 10
54.23886387693456
 20
168.43337548949663
 10
54.55213256464957
 20
165.98646182830245
 10
54.618442491331834
 20
165.5037632698279
 10
54.92488605359664
 20
163.43085580064232
 10
55.06095121153987
 20
162.57413670040694
 10
55.3389831886752
 20
160.9167412803353
 10
55.56855494379889
 20
159.64451760495396
 10
55.79406343994353
 20
158.44375001867502
 10
56.14376527111445
 20
156.71488292327567
 10
56.290013808554065
 20
156.01176726078907
 10
56.789450044435355
 20
153.78525424536886
 10
56.826973227776875
 20
153.62094023546
 10
56.99151280534679
 20
152.9536933261989
 10
57.39494401869024
 20
151.26020841996527
 10
57.49827505331447
 20
150.85629703644554
 10
57.99692298184523
 20
148.9346592429062
 10
58.2781585620552
 20
147.9266788978958
 10
58.63743317878263
 20
146.6477716297798
 10
59.13665774548505
 20
144.99705939348013
 10
59.31720307113564
 20
144.4002721879456
 10
59.9129516606326
 20
142.5733936409075
 10
60.034162906937084
 20
142.18920163837825
 10
60.07508504188132
 20
142.06825824525944
 10
60.77357323628014
 20
140.00158050119632
 10
61.086743267379944
 20
139.13861965972677
 10
61.55076034245003
 20
137.85184433827604
 10
62.18765563762213
 20
136.20896040876534
 10
62.36697222219334
 20
135.74124493732793
 10
62.833924848150886
 20
134.6096794464574
 10
63.21354355398917
 20
133.66043571846734
 10
63.37642317846911
 20
133.28025942161008
 10
64.08554542507405
 20
131.60582672876959
 10
64.65569902899068
 20
130.350570072627
 10
64.9959351415923
 20
129.58969975242007
 10
65.75513069339891
 20
128.00854631731642
 10
65.94189506039206
 20
127.60880258389207
 10
66.03523806074588
 20
127.42193091840305
 10
66.90737823792796
 20
125.64794220705961
 10
67.5155190585578
 20
124.49217401303201
 10
67.91116834718706
 20
123.72546667669661
 10
68.67606844376834
 20
122.34202095858862
 10
68.9490021480263
 20
121.83698414515577
 10
69.10667635249773
 20
121.56358436703475
 10
70.00795617880591
 20
119.96981866789118
 10
70.81506234899945
 20
118.63373278370906
 10
71.10569278320115
 20
118.1414980837273
 10
71.59674596720096
 20
117.36369195155845
 10
72.23103023705183
 20
116.34107931904973
 10
72.65122620459725
 20
115.70516858213242
 10
73.38489743772965
 20
114.56900851272287
 10
74.51794631981987
 20
112.92344595989763
 10
74.57736902250764
 20
112.83625633049527
 10
74.62050699415207
 20
112.77669602945303
 10
75.79036177284344
 20
111.12341412745289
 10
76.7512320677559
 20
109.8466356413579
 10
77.04232822567121
 20
109.44957824156876
 10
77.43814835310776
 20
108.94233941442697
 10
78.32246749544582
 20
107.80512462936076
 10
79.05432404840839
 20
106.9181562198468
 10
79.63659234153138
 20
106.1935369642287
 10
80.35887786757795
 20
105.34699567563224
 10
80.9846841511362
 20
104.61765136465809
 10
81.55514606904508
 20
103.98974055316098
 10
82.36578710683473
 20
103.07312290430983
 10
83.27932740423734
 20
102.0981027618755
 10
83.7839649601428
 20
101.56799714513143
 10
84.29360198162422
 20
101.06138779698837
 10
85.2380015431176
 20
100.0964842574008
 10
86.19945625577343
 20
99.1673341591184
 10
86.7313923045229
 20
98.66730902756076
 10
87.330885388977
 20
98.13308560717452
 10
88.26579882780915
 20
97.27625672121756
 10
89.11921271273727
 20
96.5350417218894
 10
89.8431748005507
 20
95.93187581476327
 10
90.76221741321737
 20
95.2048194597274
 10
91.46736531377066
 20
94.63070181575324
 10
92.03855703085041
 20
94.18919998886277
 10
93.14217046390415
 20
93.38462502513451
 10
94.74053704772723
 20
92.27654720601076
 10
94.86819043347178
 20
92.18539876740479
 10
94.9574294559017
 20
92.12480871067964
 10
96.66011741280565
 20
91.05739844678449
 10
97.87630867533942
 20
90.33149372572461
 10
98.51218367459042
 20
89.99036797879869
 10
99.76378886455964
 20
89.35067069398406
 10
100.44112255723417
 20
88.99442197181344
 10
100.79398898990053
 20
88.81755231748733
 10
102.46008950827185
 20
88.09533643760746
 10
103.71151056445984
 20
87.57842522971877
 10
104.57017217827318
 20
87.28813957404408
 10
106.62832942405437
 20
86.6262692866644
 10
106.78688853007496
 20
86.58822563539215
 10
107.5011649246902
 20
86.42605896174264
 10
109.16153660903386
 20
86.0389886475695
 10
109.54401989934198
 20
85.95451180448282
 10
111.70550436642723
 20
85.66730649271275
 10
112.45963017792515
 20
85.57390558926788
 10
114.46685183507489
 20
85.51341426485638
 10
115.3748797397281
 20
85.49163401597643
 10
117.52087859055868
 20
85.6524997647613
 10
118.29000810539894
 20
85.71296520965568
 10
120.9877602211071
 20
86.20477968919957
 10
121.20527631896941
 20
86.24477044792535
 10
121.82295356781027
 20
86.42502080948368
 10
124.12131175972873
 20
87.08256659290747
 10
125.20450035080958
 20
87.51237832781078
 10
127.03751725728185
 20
88.23823362962993
 10
129.22001577595478
 20
89.35101373307748
 10
129.95475683459148
 20
89.71968572460703
 10
130.91107939830673
 20
90.30972069590439
 10
132.87236356055018
 20
91.51659467702018
 10
133.90880192785824
 20
92.27584904762526
 10
135.79099527665014
 20
93.6365661575294
 10
137.6571671704288
 20
95.20389684269136
 10
138.7102823768285
 20
96.07809163356002
 10
140.88210821184344
 20
98.13206714849183
 10
141.63015364423939
 20
98.8320772634277
 10
143.7543522874778
 20
101.0604425240692
 10
144.55054109206202
 20
101.88747115041767
 10
146.38048625818948
 20
103.9890634993688
 10
147.47137554720476
 20
105.23004797210102
 10
148.82979335454775
 20
106.91795533679574
 10
150.39259212345067
 20
108.8416673639343
 10
151.14860456264594
 20
109.84712192683862
 10
153.3141324567878
 20
112.70005249322763
 10
153.3684328593629
 20
112.77657794596995
 10
153.5086098400307
 20
112.97224013013533
 10
155.468093780248
 20
115.70793592323913
 10
156.2361114283653
 20
116.77190737151616
 10
157.50841035535154
 20
118.63764012604175
 10
159.15813141272378
 20
121.03862959516259
 10
159.50446168902704
 20
121.56757642431712
 10
160.18148544376595
 20
122.59422577667559
 10
161.43446023877303
 20
124.49879754284315
 10
162.0803772660848
 20
125.47638327750404
 10
163.32134604974837
 20
127.42890500859792
 10
165.0027075771747
 20
130.06580565808585
 10
165.18405947685872
 20
130.3591884029526
 10
165.48159977191634
 20
130.8396931721058
 10
166.99144490465463
 20
133.2901787959262
 10
167.92504936177477
 20
134.8087270497858
 10
168.77366058259383
 20
136.22055491727883
 10
170.0470097496637
 20
138.34864883870955
 10
170.52407493351762
 20
139.15129661223787
 10
170.84730024272247
 20
139.70011576305646
 10
172.22951236285846
 20
142.08169278949765
 10
173.76982489928398
 20
144.76887903681055
 10
173.90820583754956
 20
145.01219624101728
 10
174.0851900553304
 20
145.32848141706822
 10
175.53425019415465
 20
147.94251696445912
 10
176.69193025385093
 20
150.07736898855816
 10
177.1230411999063
 20
150.87294925025915
 10
177.60730147427236
 20
151.79084811549365
 10
178.65687982037048
 20
153.80293443000312
 10
179.6138553676408
 20
155.69972148041717
 10
180.138402162198
 20
156.7332329384463
 10
180.64107544088372
 20
157.76320482980486
 10
181.55570313775607
 20
159.66286311692375
 10
182.53560728407544
 20
161.79559573773963
 10
182.90651037933125
 20
162.59299436948623
 10
183.20013325594604
 20
163.25913230890802
 10
184.18146361123416
 20
165.52223989132654
 10
185.31768976318367
 20
168.31260838737248
 10
185.37312107443012
 20
168.45127362465917
 10
185.45636928399745
 20
168.67532953354544
 10
186.48036902055506
 20
171.38103004815832
 10
187.03000675068802
 20
172.95858676194177
 10
187.48992836993907
 20
174.3096946703154
 10
188.37791734273597
 20
177.18148060300686
 10
188.39621998893952
 20
177.23923891119318
 10
188.40323190426273
 20
177.26390696681648
 10
189.20355009930486
 20
180.16757476033393
 10
189.46889311643315
 20
181.26156476900846
 10
189.89736929872407
 20
183.09578378820078
 10
190.27967768781383
 20
185.00342908045275
 10
190.47471679483942
 20
186.02390587346818
 10
190.8700838676898
 20
188.52409906321296
 10
190.93361130832628
 20
188.95194960535684
 10
191.27014140690687
 20
191.85371897065042
 10
191.2729214450607
 20
191.87996848446303
 10
191.29761421764977
 20
192.21297652030694
 10
191.49638919548389
 20
194.80892121206998
 10
191.50579143635463
 20
195.01624617745927
 10
191.59811988388742
 20
197.73690612195657
 10
191.59933142524562
 20
198.03810913503423
 10
191.57812510412526
 20
200.6649264532783
 10
191.56827228775887
 20
200.93494460782426
 10
191.4370823652141
 20
203.59302624751092
 10
191.4273010377731
 20
203.72152636399397
 10
191.29769283098014
 20
205.16392935166073
 10
191.18931780570668
 20
206.41314279935767
 10
191.17859401141666
 20
206.5204451095719
 10
190.86661126329614
 20
209.0174898164947
 10
190.80665257183753
 20
209.44877911061417
 10
190.4666649936561
 20
211.5443898198146
 10
190.318985084746
 20
212.37721864654475
 10
189.9964377589762
 20
214.0008377590721
 10
189.71606399267327
 20
215.3057686219
 10
189.46153153354535
 20
216.39245772452313
 10
188.99801086202584
 20
218.2344091539308
 10
188.86639598952644
 20
218.7237254897848
 10
188.3773234120539
 20
220.42347847244122
 10
188.21641435447532
 20
221.00230776337054
 10
188.16898966681433
 20
221.16262809620872
 10
187.52292757614086
 20
223.2350448157395
 10
187.23950989442923
 20
224.0915476671402
 10
186.78155629253155
 20
225.41982162772754
 10
186.19670563841441
 20
227.02055275279906
 10
185.99391957699044
 20
227.55827419318987
 10
185.45678959236653
 20
228.9036388445942
 10
185.16521380659063
 20
229.6575996213431
 10
185.04634411189994
 20
229.94914981078514
 10
184.30440578835785
 20
231.72278990263422
 10
183.79499624634724
 20
232.8784106500554
 10
183.40411157999566
 20
233.74846569392238
 10
182.53572528031083
 20
235.58302089665784
 10
182.46489218161753
 20
235.73686663752392
 10
182.43090462442336
 20
235.80719194153139
 10
181.50210505169218
 20
237.6999656342755
 10
180.96808494289422
 20
238.73665001321618
 10
180.50426924638126
 20
239.62801520588957
 10
179.6147823052152
 20
241.25604321167188
 10
179.47220766523338
 20
241.52317252291292
 10
179.3926750765959
 20
241.66558274084335
 10
178.41903670899129
 20
243.39585458638896
 10
177.7125938587573
 20
244.59527253212553
 10
177.3337176573541
 20
245.23639711139765
 10
176.69392340028622
 20
246.27031488700302
 10
176.22046890801977
 20
247.04996869197993
 10
175.91981523730894
 20
247.5243355143322
 10
175.08467382280722
 20
248.84001055208606
 10
174.01482788500988
 20
250.4541756622733
 10
173.9185521068624
 20
250.59974614698038
 10
173.77311227845067
 20
250.8102561725972
 10
172.73148198821858
 20
252.33909479426327
 10
171.99055869463237
 20
253.38338731707762
 10
171.5181261704273
 20
254.05161666679453
 10
170.85158354115046
 20
254.9565560309274
 10
170.27942069189447
 20
255.73893746548674
 10
169.84368713277132
 20
256.3125629134471
 10
169.01861185206087
 20
257.40401341360115
 10
167.93015808899784
 20
258.7896433013839
 10
167.731519190237
 20
259.04252602503624
 10
167.56940738961623
 20
259.24170619343363
 10
166.42252864790672
 20
260.65944993990774
 10
165.15422112232872
 20
262.1720274483043
 10
165.08837766319965
 20
262.2512713574064
 10
165.00948298907292
 20
262.34284108354865
 10
163.7303229682699
 20
263.8183754838715
 10
162.5803175326747
 20
265.10129354402306
 10
162.3485015606006
 20
265.3625647872392
 10
162.08824153333933
 20
265.64615510133325
 10
160.94039913507032
 20
266.8791562763535
 10
159.83474094412887
 20
268.0305431159458
 10
159.50891838879664
 20
268.37371862458394
 10
159.16714593132647
 20
268.7226014635923
 10
158.0490089815106
 20
269.83800421746446
 10
156.89184361037067
 20
270.95975304135
 10
156.56525561473427
 20
271.28033634159124
 10
156.24618956638852
 20
271.58463165499114
 10
155.0500606758729
 20
272.6888240478971
 10
153.5702297934889
 20
274.0195652173913
 10
295.53982640563106
 20
274.0195652173913
 10
296.0461704272552
 20
273.38256840051974
 10
296.6527941518695
 20
272.6945508825035
 10
297.43255993810214
 20
271.8495524130886
 10
298.2332720464794
 20
271.0663648505281
 10
298.89321048168574
 20
270.38588568464047
 10
299.57018101748866
 20
269.7574126432244
 10
300.43187309344484
 20
269.0066464948997
 10
301.5367254255697
 20
268.14078799605005
 10
302.05886123550914
 20
267.7099816912201
 10
302.48626867434234
 20
267.3937884053828
 10
303.78175585889574
 20
266.5164163688526
 10
305.4030073564382
 20
265.5361116289361
 10
305.60734505689476
 20
265.4263916908408
 10
306.0444171946943
 20
265.2186508644107
 10
307.5646075075859
 20
264.46110524633036
 10
308.3167489080404
 20
264.13142028046354
 10
309.65717839997296
 20
263.63903857925345
 10
311.2318206028119
 20
263.1405404006845
 10
311.9088571663283
 20
262.97626619759876
 10
314.146537712704
 20
262.52899028920615
 10
314.3508573718004
 20
262.5036579710749
 10
316.7198991039767
 20
262.2947855622349
 10
317.034123110808
 20
262.2659017665333
 10
317.0588729555294
 20
262.264486032572
 10
318.63814156409757
 20
262.2950735796734
 10
319.9760935340473
 20
262.3199885136931
 10
319.9998403879565
 20
262.3222646560888
 10
322.89151765534785
 20
262.670629759095
 10
323.35529680310407
 20
262.7620852689892
 10
325.8076674872405
 20
263.2950920274057
 10
327.2163471246246
 20
263.70765016783093
 10
328.724582284492
 20
264.17396640989426
 10
331.46042217218485
 20
265.22137969207097
 10
331.64368081956
 20
265.2895906437267
 10
331.764608681528
 20
265.3433146959674
 10
334.561950038219
 20
266.61605503199377
 10
337.47882308209637
 20
268.14468557811153
 10
337.48091947864555
 20
268.1458016735592
 10
337.482714267108
 20
268.14687493810686
 10
340.40133278140746
 20
269.85767687646006
 10
342.2793480549125
 20
271.07649618106336
 10
343.3219371001584
 20
271.74274764033095
 10
345.51515404770095
 20
273.2755859984418
 10
346.24232803881495
 20
273.786530509985
 10
346.54984314945614
 20
274.0195652173913
 10
360.9760869565217
 20
274.0195652173913
 10
360.9760869565217
 20
77.7172481352078
 10
359.1568436100155
 20
78.71137815204685
 10
357.94467872440447
 20
79.35984174657747
 10
357.22185567811067
 20
79.69549989061146
 10
355.6205795543539
 20
80.42243728235982
 10
355.21044419717884
 20
80.60884689217157
 10
355.02702863114575
 20
80.69072169714804
 10
353.086649714525
 20
81.40289851551225
 10
352.1097545292793
 20
81.75452145597698
 10
350.86213950234935
 20
82.09525515142155
 10
349.19333952523465
 20
82.54072753022355
 10
348.51003357349794
 20
82.65919099237091
 10
346.2777522279142
 20
83.03429383529378
 10
345.9894463746797
 20
83.0540441352257
 10
343.36276078620705
 20
83.22195220266414
 10
343.2371112505727
 20
83.21683662446121
 10
340.4481114829542
 20
83.09241806264707
 10
340.1523710963896
 20
83.04704010423086
 10
337.53339459007776
 20
82.63663451047839
 10
336.56775163085246
 20
82.37709966127292
 10
334.618294786494
 20
81.84790545633207
 10
332.1869468365872
 20
80.91002762910907
 10
331.70250679781424
 20
80.72211659442108
 10
331.1094891961465
 20
80.42361281891696
 10
328.78518839427574
 20
79.27516077777533
 10
325.8959613814134
 20
77.52644393353606
 10
325.8675871619657
 20
77.50920359429294
 10
325.8526106115207
 20
77.49845932177038
 10
322.94842248442444
 20
75.45710992007726
 10
321.847794650314
 20
74.56988220160291
 10
320.02856204189567
 20
73.13094701070676
 10
318.3488886261328
 20
71.64106157086313
 10
317.10811666430953
 20
70.55881075566155
 10
315.1860776746398
 20
68.71199657188143
 10
314.18726190530987
 20
67.76549980340852
 10
312.2597623972886
 20
65.78272225459001
 10
311.2660608840289
 20
64.7709413299402
 10
309.5096170527257
 20
62.85327972460968
 10
308.3446435117485
 20
61.58889811860142
 10
306.8987073115362
 20
59.92372535659074
 10
305.42305486872226
 20
58.225992084460046
 10
304.40471815013404
 20
56.994060294376766
 10
302.5013257467939
 20
54.68089353333528
 10
302.015040971161
 20
54.06436837408573
 10
300.26259356924925
 20
51.818783403466995
 10
299.7301637443779
 20
51.13376280744802
 10
299.5800111335165
 20
50.93724383303717
 10
297.56600665565156
 20
48.2042737847236
 10
296.65828900294025
 20
46.9427801306271
 10
295.4936907104593
 20
45.27481417744757
 10
293.73654977584414
 20
42.67893189064473
 10
293.51627965994425
 20
42.34540659371595
 10
293.1286850188003
 20
41.735473327443046
 10
291.6643931146711
 20
39.41568302217542
 10
290.8156839443265
 20
38.00830126667665
 10
289.9169021240011
 20
36.48655716287628
 10
288.7664465109289
 20
34.431321928371815
 10
288.28121698320183
 20
33.557267025747336
 10
287.89498716298823
 20
32.8175986866268
 10
286.7714265043998
 20
30.628392200297522
 10
285.7341832320638
 20
28.461488606278074
 10
285.3731410838379
 20
27.69947791450044
 10
284.9742300785674
 20
26.789295112989176
 10
284.10165547174404
 20
24.770771362159273
 10
283.526236159681
 20
23.31890913953042
 10
282.948447925662
 20
21.84212778590693
 10
282.05327218152746
 20
19.323474329315083
 10
281.9089948615783
 20
18.913462001293613
 10
281.84206201817807
 20
18.702115152446282
 10
280.99615605981853
 20
15.984949449600755
 10
280.5890520892569
 20
14.516318209356427
 10
280.17762900476214
 20
13.0
 10
13.0
 20
13.0
 10
13.0
 20
274.0195652173913
  0
TEXT
  5
90
330
17
100
AcDbEntity
  8
GRABADO
100
AcDbText
 10
264.9757303476646
 20
142.82303534099714
 30
0.0
 40
6.0
  1
11
 72
1
 11
264.9757303476646
 21
142.82303534099714
 31
0.0
100
AcDbText
 73
2
  0
LWPOLYLINE
  5
91
330
17
100
AcDbEntity
  8
CORTE
100
AcDbPolyline
 90
458
 70
1
 10
26.242640687119277
 20
481.9921510382998
 10
210.811345274701
 20
666.5608556258815
 10
262.8171824703062
 20
614.5550184302763
 10
262.3366535259835
 20
614.5648219205946
 10
258.5446616980317
 20
614.5030253434899
 10
258.1320427920854
 20
614.4902692669364
 10
254.63380145441334
 20
614.2723769808094
 10
253.71037759008328
 20
614.1990338527416
 10
250.86677282250838
 20
613.8978005214595
 10
249.0502978226291
 20
613.6697155770552
 10
247.22292911609873
 20
613.3999652666938
 10
244.12343196875412
 20
612.8739058791741
 10
243.68879695118864
 20
612.7923399598961
 10
242.84799222440165
 20
612.6139022048749
 10
240.25724209121074
 20
612.0802985149986
 10
238.8804403716819
 20
611.7611838249061
 10
236.91700824602594
 20
611.2787908907094
 10
234.19402156973234
 20
610.5330526367917
 10
233.66096771059188
 20
610.3913675270547
 10
233.26240392717875
 20
610.2737338315742
 10
230.48484015397776
 20
609.4257677316939
 10
227.60433406981042
 20
608.4553349584462
 10
227.3840035678869
 20
608.3832718543957
 10
227.16068050162346
 20
608.3029344109705
 10
224.351735301257
 20
607.2737296257802
 10
222.12233649522614
 20
606.3793612232155
 10
221.38874591801
 20
606.0934814971918
 10
220.398844003614
 20
605.672376828227
 10
218.4876725867275
 20
604.8526890261057
 10
217.3126052286333
 20
604.3045194471624
 10
215.64779224615802
 20
603.5493907043829
 10
212.96460760203223
 20
602.229369776002
 10
212.8699858600167
 20
602.1840489990158
 10
212.6823735700661
 20
602.0868486154948
 10
210.14234032335895
 20
600.7696703603051
 10
209.04481409855867
 20
600.1559753108263
 10
207.47097910269287
 20
599.297926427269
 10
205.3970382776128
 20
598.081917343832
 10
204.8545060312237
 20
597.7712812417528
 10
203.2494060473549
 20
596.7854610546733
 10
202.28720037870204
 20
596.1963574147966
 10
202.00164385591978
 20
596.0093852726102
 10
199.764491788839
 20
594.5759509114575
 10
198.8282786947484
 20
593.9360687782568
 10
197.2911620536484
 20
592.9061421833545
 10
195.82797485542397
 20
591.8630062333095
 10
194.86524982040646
 20
591.1889227760264
 10
192.98306579233468
 20
589.7901865326651
 10
192.485041339472
 20
589.4260060092166
 10
190.27840397130706
 20
587.717602628195
 10
190.1490736228547
 20
587.6188848849799
 10
189.12983339008184
 20
586.7971951681204
 10
187.85335654311314
 20
585.7719004723294
 10
187.70483729697474
 20
585.6463386901706
 10
185.59802941271354
 20
583.884050859527
 10
185.24511771365005
 20
583.5741275224925
 10
183.38481921313965
 20
581.9540696194683
 10
182.88919788080608
 20
581.5020767592407
 10
181.2130356118197
 20
579.9826780427843
 10
180.6295328080046
 20
579.4301854153398
 10
179.08216650434252
 20
577.9703569585258
 10
178.45963732571212
 20
577.3584510914224
 10
176.99194251620577
 20
575.917407106061
 10
176.37392153464435
 20
575.2868289269752
 10
174.94226513199908
 20
573.8238954222065
 10
174.3676839049573
 20
573.2153495173576
 10
172.93326228168425
 20
571.6897252263827
 10
172.4369030177973
 20
571.1440014991942
 10
170.9652568067409
 20
569.5145580651301
 10
170.57822500190147
 20
569.0727728536733
 10
169.03876779771363
 20
567.2978590144285
 10
168.78887711939396
 20
567.0016567541237
 10
167.15455381783616
 20
565.0389005407446
 10
167.066638687337
 20
564.930660483265
 10
166.2847290530617
 20
563.9521110398406
 10
165.4051747801702
 20
562.8588813502781
 10
165.31091481426665
 20
562.7398645738284
 10
163.80219998487496
 20
560.7881209176032
 10
163.50776875972565
 20
560.39991329482
 10
162.25869015242066
 20
558.7174580456582
 10
161.74911086293707
 20
558.0154535644449
 10
160.77375361871597
 20
556.6468997273855
 10
160.03648737548463
 20
555.5849699945204
 10
159.34687505943683
 20
554.5764405047946
 10
158.37165794872396
 20
553.1066703216532
 10
157.9778934283834
 20
552.5060791361882
 10
156.75666572594162
 20
550.5785419354224
 10
156.6670110726836
 20
550.4358214873795
 10
156.31154330949255
 20
549.847659622042
 10
155.39933759515515
 20
548.3649160143095
 10
155.18679519215974
 20
548.0062414607346
 10
154.18058940905246
 20
546.2948410142499
 10
153.66670325767024
 20
545.3832276911128
 10
153.0164247736728
 20
544.224858171523
 10
152.2022000340479
 20
542.7046232789977
 10
151.9078725781681
 20
542.1549661749598
 10
151.0373322366689
 20
540.4419100984294
 10
150.85137676062078
 20
540.0845360339454
 10
150.79479318632647
 20
539.9700798214116
 10
149.82733707781026
 20
538.0148122352191
 10
149.43857626756377
 20
537.1831621196625
 10
148.85679833227084
 20
535.9451649436328
 10
148.14545694713343
 20
534.3331175942512
 10
147.9415281385437
 20
533.8755968398025
 10
147.4715758748999
 20
532.7452738395439
 10
147.06879015900284
 20
531.8056262013198
 10
146.9151382084356
 20
531.4216276767787
 10
146.2325606459522
 20
529.7361998157662
 10
145.7481196319116
 20
528.4454398424308
 10
145.4506863313149
 20
527.6668400169838
 10
144.8694743381858
 20
526.0119633779964
 10
144.7188751839295
 20
525.5972395229703
 10
144.65274043057707
 20
525.399097832565
 10
144.01503721646841
 20
523.528002151595
 10
143.62780618717548
 20
522.2807301259346
 10
143.36542852542863
 20
521.4588198742649
 10
142.92805072197385
 20
519.9397099803645
 10
142.76392903954178
 20
519.389601751742
 10
142.68209870165748
 20
519.0847864154579
 10
142.19243724509968
 20
517.3205228050417
 10
141.81839210222822
 20
515.8050571700077
 10
141.675836358779
 20
515.251487924872
 10
141.47307140460344
 20
514.3542688980374
 10
141.19848178604101
 20
513.1826658626519
 10
141.04594840981608
 20
512.4358856502697
 10
140.7613458243326
 20
511.1137152565675
 10
140.3989439323051
 20
509.14894026865625
 10
140.37930975013248
 20
509.0452696944298
 10
140.3676974096524
 20
508.9726510493969
 10
140.02586281255125
 20
506.97639195826343
 10
139.8024819883337
 20
505.39413533129925
 10
139.72755607566177
 20
504.9075372841488
 10
139.64877115754922
 20
504.26897817355524
 10
139.4699469336436
 20
502.839537825089
 10
139.3602662880337
 20
501.69485571656776
 10
139.25960895714496
 20
500.7707466686047
 10
139.1717468648444
 20
499.6614185894633
 10
139.09853442354796
 20
498.7031824145405
 10
139.05791192132008
 20
497.85580493118846
 10
138.9829751409913
 20
496.6344486010014
 10
138.93950232566306
 20
495.29903470731205
 10
138.9214936871404
 20
494.5673607931451
 10
138.92363457548922
 20
493.8487660938274
 10
138.9091360735375
 20
492.4986849237125
 10
138.93197888542457
 20
491.1618254413542
 10
138.9545433113648
 20
490.4321186928378
 10
139.00069593343295
 20
489.63046006432205
 10
139.0559100502769
 20
488.36350691632475
 10
139.1352466431262
 20
487.23593401879117
 10
139.22066244163165
 20
486.2975128140669
 10
139.35641722629703
 20
485.1335450715003
 10
139.4490696092647
 20
484.2289677300266
 10
139.5407742100689
 20
483.51288525782144
 10
139.7522263395646
 20
482.1635923026754
 10
140.09891284982308
 20
480.2498471124473
 10
140.12472574549162
 20
480.0951308587131
 10
140.14498362341544
 20
479.98918570082355
 10
140.5941927880785
 20
478.03043046434374
 10
140.94087772627918
 20
476.65716122462953
 10
141.1492969213479
 20
475.9663173717835
 10
141.58198115054438
 20
474.62896456658893
 10
141.80902251052478
 20
473.8981114321368
 10
141.93347102595615
 20
473.52353145278516
 10
142.60089825449126
 20
471.8347367319627
 10
143.12027514907203
 20
470.5843369966432
 10
143.52217764333525
 20
469.7719085911624
 10
144.5095016201033
 20
467.8485586774502
 10
144.59471891539363
 20
467.7095395345685
 10
144.9851194430475
 20
467.08980069767455
 10
145.8854794763892
 20
465.6420405764371
 10
146.09620185605678
 20
465.31184989956995
 10
147.42151735661676
 20
463.58036475191915
 10
147.88872041959993
 20
462.9810728645464
 10
149.2652666390207
 20
461.51897899373694
 10
149.89193836622863
 20
460.8615053431711
 10
151.5231379678959
 20
459.4578042651567
 10
152.10975018956245
 20
458.9567030957147
 10
154.36511435811124
 20
457.39686963430836
 10
154.54719920260672
 20
457.2713402631724
 10
155.11141922681597
 20
456.96203274490165
 10
157.20155897231675
 20
455.8018031642
 10
158.27141176275762
 20
455.33979595852657
 10
160.08080765343027
 20
454.5569144800069
 10
162.41092151303073
 20
453.80050933464094
 10
163.19115236325302
 20
453.5416594149068
 10
164.28459226239934
 20
453.28265497444363
 10
166.52481836944006
 20
452.7492064195721
 10
167.79456488134585
 20
452.55320773586703
 10
170.0876488574706
 20
452.18446835112184
 10
172.51550181426103
 20
451.97315570601097
 10
173.87831578277812
 20
451.8466398668963
 10
176.8664085732727
 20
451.7633071064005
 10
177.89033847032587
 20
451.72934100768805
 10
180.96806592230712
 20
451.802997929227
 10
182.11585397505982
 20
451.8248049763271
 10
184.89587081246123
 20
452.01688854139195
 10
186.54475456226388
 20
452.1230218636216
 10
188.69883174911098
 20
452.35600616395516
 10
191.16416717567205
 20
452.61121037627373
 10
192.40971243769297
 20
452.78759259346197
 10
195.95829844623734
 20
453.2736596844137
 10
196.05080629568687
 20
453.2893751680991
 10
196.2882804465284
 20
453.32860913174784
 10
199.60827387484943
 20
453.8774737965612
 10
200.90368578796966
 20
454.0867447355721
 10
203.1226092695449
 20
454.50636581921066
 10
205.9868941514519
 20
455.03759280764933
 10
206.60580852813843
 20
455.1667222105274
 10
207.8104873350921
 20
455.41394484148054
 10
210.04320992041096
 20
455.87469347838874
 10
211.19119973267692
 20
456.1092186704627
 10
213.44933853131687
 20
456.61236258476396
 10
216.5028109995543
 20
457.28803077766275
 10
216.83849908598035
 20
457.36724854799354
 10
217.38866002695255
 20
457.4966239683427
 10
220.18903676065685
 20
458.1617572382455
 10
221.92297057109562
 20
458.575374963533
 10
223.52134237890021
 20
458.9736292736733
 10
225.92652585259907
 20
459.5780250856655
 10
226.83141956273636
 20
459.8082467426606
 10
227.4480481139151
 20
459.9677656778596
 10
230.10944894241612
 20
460.67442337998784
 10
233.09874199985546
 20
461.48538555812087
 10
233.36864334476394
 20
461.55958670336025
 10
233.71743747809415
 20
461.6580873555788
 10
236.59047999042673
 20
462.4818493668919
 10
238.91865175415268
 20
463.1728142893064
 10
239.7860534255791
 20
463.4305330139339
 10
240.77752966149336
 20
463.73716180212114
 10
242.94245350472818
 20
464.4177577135309
 10
244.96036838944735
 20
465.0823048004409
 10
246.0620819453348
 20
465.4421971653663
 10
247.14582573822594
 20
465.8150535900975
 10
249.1358264417044
 20
466.51157540013696
 10
251.33679300711628
 20
467.3267482319984
 10
252.16290708075167
 20
467.62832611799683
 10
252.84156046208824
 20
467.89173404500184
 10
255.1357245289795
 20
468.7980874142762
 10
257.9122462315479
 20
469.9677426828346
 10
258.0494932172206
 20
470.0265979563625
 10
258.2667900432657
 20
470.12616403539414
 10
260.9040863826615
 20
471.3153060594837
 10
262.40823999885714
 20
472.04215454333337
 10
263.6888312587696
 20
472.6723184116724
 10
266.34739359017544
 20
474.0750746945111
 10
266.40117680680805
 20
474.10297406065536
 10
266.4235779290921
 20
474.1154588371911
 10
269.0426915390226
 20
475.602751601479
 10
270.00388513945853
 20
476.1886935084112
 10
271.60385226018565
 20
477.1827038009886
 10
273.22309403686546
 20
478.2612798688087
 10
274.0825935724245
 20
478.844952454019
 10
276.1300638694399
 20
480.3332892744936
 10
276.4775205731896
 20
480.5909046101124
 10
278.76734408360784
 20
482.40480269097117
 10
278.78787107665806
 20
482.42139811636036
 10
279.040803743937
 20
482.6394099297512
 10
281.01696897382453
 20
484.33446489012533
 10
281.17021825103865
 20
484.4744173907833
 10
283.15930141844217
 20
486.33292841549314
 10
283.3731408006132
 20
486.5450544194441
 10
285.2155860058137
 20
488.41748989158094
 10
285.39955068067013
 20
488.61538855297033
 10
287.18633294918527
 20
490.587701389195
 10
287.27027980997116
 20
490.68548113590595
 10
288.1985659018334
 20
491.7970609116096
 10
289.0052604865672
 20
492.75702092690767
 10
289.0735518100941
 20
492.8404779857596
 10
290.61862393847593
 20
494.82676034775994
 10
290.88119432567953
 20
495.1741251296064
 10
292.12260734683105
 20
496.89635319486047
 10
292.6070807927442
 20
497.58967757084434
 10
293.527077475971
 20
498.9658250566819
 10
294.25154874663656
 20
500.08680471018675
 10
294.83997235226144
 20
501.03519157157456
 10
295.8146700885603
 20
502.66540652797653
 10
296.0676032189387
 20
503.1044711960536
 10
296.9236835432939
 20
504.65220459245523
 10
297.2191977742913
 20
505.17527859498887
 10
297.2990270505625
 20
505.3221765077416
 10
298.3076120810043
 20
507.24443130894895
 10
298.7128444906889
 20
508.05047684792646
 10
299.32825391812304
 20
509.31353047010197
 10
300.04658988800986
 20
510.85897016700403
 10
300.28342496573663
 20
511.3825880430568
 10
300.8549331794071
 20
512.7137127657396
 10
301.18188874204304
 20
513.4530187590794
 10
301.3039922908603
 20
513.7432294422835
 10
302.03351560739236
 20
515.5220119984131
 10
302.4904559328169
 20
516.6993662069513
 10
302.82928055610176
 20
517.5909852267142
 10
303.51246513922047
 20
519.5022534922261
 10
303.571163941425
 20
519.6611254232678
 10
303.59685860860975
 20
519.7348857547884
 10
304.2784912457592
 20
521.7300393444206
 10
304.63392855983733
 20
522.8406951389408
 10
304.93625170786527
 20
523.7989527354189
 10
305.4584791028401
 20
525.5791046261445
 10
305.546552555516
 20
525.8688090683331
 10
305.591013753574
 20
526.0257463318928
 10
306.1260344166988
 20
527.9376995793309
 10
306.4746204496848
 20
529.2853466721593
 10
306.66005805603106
 20
530.0065961409904
 10
306.938745468614
 20
531.1900892690471
 10
307.1552610790262
 20
532.0761706435891
 10
307.2780948265332
 20
532.6241928897925
 10
307.6178834101229
 20
534.1450497882701
 10
308.00277518804967
 20
536.0429322010796
 10
308.0376318093345
 20
536.2139433335487
 10
308.08364338703143
 20
536.4656378890946
 10
308.428151702039
 20
538.283233887527
 10
308.64266614122954
 20
539.5455720971853
 10
308.78111540428375
 20
540.3521418432765
 10
308.9496873521132
 20
541.463347417329
 10
309.09833433931266
 20
542.4211548658324
 10
309.19583862898
 20
543.1348794643928
 10
309.38419435298863
 20
544.4900678403609
 10
309.5943296059847
 20
546.2395091670967
 10
309.632685782403
 20
546.5587831681576
 10
309.65889707662535
 20
546.8142551694384
 10
309.8504275582805
 20
548.6277171220166
 10
310.0231525195718
 20
550.5940997872401
 10
310.0326280686187
 20
550.6966920491809
 10
310.0415906838508
 20
550.817228582562
 10
310.1804483392606
 20
552.765091687837
 10
310.2744317573897
 20
554.4854283897876
 10
310.2952597793559
 20
554.8340937034357
 10
310.3117567833824
 20
555.2186539677587
 10
310.37197313190075
 20
556.9021646033759
 10
310.40430816945627
 20
558.4981364499097
 10
310.4165785604125
 20
558.9711895175437
 10
310.42160635941497
 20
559.4595565611462
 10
310.4196729909221
 20
561.0389076316734
 10
310.39462971019225
 20
562.6503433127182
 10
310.3903837493594
 20
563.1079625246225
 10
310.3799392625161
 20
563.5487455706426
 10
310.3149303416178
 20
565.1753183490578
 10
310.2095079946282
 20
567.1626929059541
 10
410.5971724813926
 20
466.77502841918977
 10
410.5047870038922
 20
465.9665643590819
 10
410.4472329006312
 20
465.05111475721407
 10
410.401106427998
 20
463.90223293421616
 10
410.4134981531822
 20
462.78224673617694
 10
410.398973663227
 20
461.83442836082156
 10
410.4332665703785
 20
460.91134035491365
 10
410.5117030460161
 20
459.7711602101446
 10
410.6806972061868
 20
458.3776572178047
 10
410.74527691857213
 20
457.70382538637307
 10
410.8239172003194
 20
457.1780202714633
 10
411.11956925680346
 20
455.6415767816714
 10
411.57278705550027
 20
453.801998724526
 10
411.6396919168866
 20
453.57992643862246
 10
411.80185364229436
 20
453.12397481901877
 10
412.3411248776314
 20
451.5133722964763
 10
412.63984668728415
 20
450.74840553678405
 10
413.2395070308743
 20
449.45241231347825
 10
414.000455767969
 20
447.98648069143303
 10
414.36303351016676
 20
447.39158414328347
 10
415.62904077075245
 20
445.4930332269262
 10
415.75560393329545
 20
445.33064475651565
 10
417.28307431033767
 20
443.50778418608627
 10
417.48484030857276
 20
443.26517033223723
 10
417.5013400165242
 20
443.2466684741171
 10
418.639680220933
 20
442.15158559365875
 10
419.6033726505845
 20
441.22312820160346
 10
419.6217736877385
 20
441.2079461158954
 10
421.9128296191783
 20
439.4095528377844
 10
422.3054398107528
 20
439.1462802686562
 10
424.4164204447833
 20
437.78908502121476
 10
425.70423002762533
 20
437.0847207558295
 10
427.10044871373196
 20
436.34797282360364
 10
429.77561268509226
 20
435.15407492130737
 10
429.9534285438292
 20
435.0727239155043
 10
430.07692609671346
 20
435.0252036459246
 10
432.9549084616171
 20
433.9471479256087
 10
436.0983541958918
 20
432.96551224151153
 10
436.1006257707673
 20
432.964819063955
 10
436.1026537904995
 20
432.9643088695021
 10
439.37614838553395
 20
432.110253578221
 10
441.56594111592733
 20
431.64413163847973
 10
442.77427382463503
 20
431.3780207794191
 10
445.40899279833866
 20
430.9110626006815
 10
446.2844747874801
 20
430.75816526938456
 10
446.66670122939064
 20
430.70549967119166
 10
456.8675960524172
 20
420.5046048481652
 10
318.0608964809733
 20
281.6979052767214
 10
317.47745325031826
 20
283.6872606599524
 10
317.0788562448317
 20
285.0029236755294
 10
316.8050893170064
 20
285.7513829029686
 10
316.18683847054916
 20
287.39767846783246
 10
316.02864047746255
 20
287.8194994592715
 10
315.95684031675256
 20
288.00708807959586
 10
315.0883702844078
 20
289.882728227279
 10
314.64623604003543
 20
290.8221324028981
 10
314.00497410081067
 20
291.9452645553781
 10
313.1399508604311
 20
293.44028087552203
 10
312.7405469057402
 20
294.00721746502745
 10
311.4273233926348
 20
295.85091650587907
 10
311.2374259397692
 20
296.0687451007693
 10
309.49880768121693
 20
298.04482122552497
 10
309.4063427824799
 20
298.13005160418794
 10
307.3462449253049
 20
300.01419504383443
 10
307.10503783038183
 20
300.1912280145325
 10
304.96294120462125
 20
301.7529234835346
 10
304.09660966812055
 20
302.25221731638044
 10
302.3439387029659
 20
303.25649465977847
 10
299.96153630860886
 20
304.3125375110277
 10
299.4861123052266
 20
304.5222151806347
 10
298.8557114938556
 20
304.73046790426815
 10
296.40010440917666
 20
305.5619185366296
 10
293.12058285705757
 20
306.36838101087517
 10
293.0883284932865
 20
306.37625385306876
 10
293.07014112494846
 20
306.3792465254876
 10
289.5731180017289
 20
306.98936563929044
 10
288.1674918604769
 20
307.1402623081628
 10
285.863619315338
 20
307.4091731909604
 10
283.62240275516876
 20
307.54337355572056
 10
281.9797775966837
 20
307.65546493345823
 10
279.31479596044085
 20
307.7086569038162
 10
277.9392522734332
 20
307.74565202410713
 10
275.1742688502237
 20
307.70656454660866
 10
273.75617861882733
 20
307.6937804722149
 10
271.15819374978923
 20
307.5797822909524
 10
269.4403802514454
 20
307.5094901740643
 10
267.2404940072473
 20
307.35446651453265
 10
264.9965714488894
 20
307.1974316541512
 10
263.40539132691725
 20
307.046397130669
 10
260.42383374850874
 20
306.7566429035821
 10
259.6440293651935
 20
306.6645490451424
 10
256.8169935631738
 20
306.3158481262518
 10
255.95612611480385
 20
306.2079501572269
 10
255.71099228601315
 20
306.17516418714206
 10
252.35437440843253
 20
305.6667787568382
 10
250.82051038356218
 20
305.41662134723765
 10
248.8175849973091
 20
305.0606866609277
 10
245.73953275878193
 20
304.4676069631342
 10
245.3479402669808
 20
304.3875234566242
 10
244.64258151922348
 20
304.2303063070758
 10
241.9668313283916
 20
303.6253775863365
 10
240.3715341357543
 20
303.230336412911
 10
238.6599638407672
 20
302.7898355578424
 10
236.39319810405806
 20
302.15005975204826
 10
235.43203886579516
 20
301.8751186927609
 10
234.63590864240456
 20
301.6251999193093
 10
232.29342852974122
 20
300.87167452817056
 10
230.02775455262372
 20
300.07288405427084
 10
229.2336362738264
 20
299.78935647808294
 10
228.30796716584172
 20
299.4278327239316
 10
226.26365191206776
 20
298.6175243133097
 10
224.83014739151287
 20
297.99778558792576
 10
223.37734730367123
 20
297.3621014568133
 10
220.96340552602493
 20
296.2141293572296
 10
220.5714635572034
 20
296.02622633102294
 10
220.37469009974865
 20
295.92411020847305
 10
217.85521796625693
 20
294.6009297537856
 10
216.52887287898562
 20
293.85031662297854
 10
215.16575393773013
 20
293.0690377876889
 10
26.242640687119277
 20
481.9921510382998
  0
LWPOLYLINE
  5
92
330
17
100
AcDbEntity
  8
GRABADO
100
AcDbPolyline
 90
488
 70
1
 10
210.811345274701
 20
666.5608556258815
 10
257.53152675339425
 20
619.8406741471882
 10
255.0203473558833
 20
619.6428009344768
 10
253.55972078666935
 20
619.4948537512325
 10
250.35905407790904
 20
619.112597091719
 10
249.86760888742407
 20
619.0448816229201
 10
248.51406231869953
 20
618.8302930759849
 10
246.28122105146707
 20
618.487405434343
 10
245.45921964206224
 20
618.3430635976808
 10
242.79063174121757
 20
617.8359439832551
 10
240.28222934090388
 20
617.2975915918992
 10
239.38841047188725
 20
617.0960567595697
 10
238.00722540368957
 20
616.7471494482434
 10
236.06769874489856
 20
616.2732269650259
 10
234.774598484146
 20
615.9206772314988
 10
232.82436040005211
 20
615.3744936804566
 10
230.5515314843248
 20
614.6680439127041
 10
229.6564766670988
 20
614.3989475280596
 10
228.8556799102572
 20
614.1327246590415
 10
226.55515956865952
 20
613.358232373421
 10
224.48649132738683
 20
612.5910949580757
 10
223.52422801002734
 20
612.2458429278261
 10
222.3913538698722
 20
611.7996391988454
 10
220.5542320649223
 20
611.0737517647383
 10
219.26323188480228
 20
610.5154952260011
 10
217.64617381775906
 20
609.8385606276777
 10
215.16624521207132
 20
608.7060869984791
 10
214.80224557781088
 20
608.5403770548888
 10
214.60131426234045
 20
608.440854088429
 10
212.00477395267563
 20
607.1946348968172
 10
210.41281163563963
 20
606.3659408313813
 10
209.26841120204108
 20
605.787797686828
 10
206.7300916660745
 20
604.4011715939712
 10
206.5892225480979
 20
604.3247413184349
 10
206.53422432986412
 20
604.2925563151188
 10
203.94884270745206
 20
602.8219428400429
 10
202.96249599315684
 20
602.2186013660446
 10
201.36218347137475
 20
601.2653959884881
 10
199.60789342500624
 20
600.1449582604183
 10
198.8263570467322
 20
599.6580187226851
 10
196.44511663573576
 20
598.0716212341229
 10
196.33880586173183
 20
598.0024001462415
 10
195.8857590977222
 20
597.6878407692885
 10
193.88791131447266
 20
596.3107651642507
 10
193.46340360292845
 20
595.9996530637361
 10
191.48017618410006
 20
594.5752407916059
 10
190.6286789391349
 20
593.9268041771816
 10
189.11640070274564
 20
592.7957536590875
 10
187.92573261334883
 20
591.8541658707587
 10
186.79494231503975
 20
590.9739779921974
 10
185.3423617713039
 20
589.7817127326887
 10
184.51437758401477
 20
589.1112749012212
 10
182.86811109001368
 20
587.7094284240052
 10
182.27357342272182
 20
587.2088250743748
 10
180.49403675717483
 20
585.6372988994377
 10
180.07159782289432
 20
585.2675294866386
 10
178.21246066726667
 20
583.5653215590828
 10
177.90775718473844
 20
583.2881136983672
 10
176.01680690650738
 20
581.4934771551493
 10
175.78154513078877
 20
581.2710530121562
 10
173.90148358058596
 20
579.4217851667091
 10
173.69268729927637
 20
579.2166537132534
 10
171.86165839665105
 20
577.3501799269494
 10
171.64108285681775
 20
577.1249859160926
 10
169.89336098813015
 20
575.2787152610651
 10
169.62686275151637
 20
574.9959502404308
 10
167.99319754597482
 20
573.2073658906696
 10
167.65033861506936
 20
572.8292200877099
 10
166.1583782106341
 20
571.1361211868439
 10
165.71202406614367
 20
570.6242665568454
 10
164.38667199319957
 20
569.0649887764774
 10
163.8126740372184
 20
568.3803664845659
 10
162.6763170339908
 20
566.9939592083815
 10
161.95322734429104
 20
566.096550139508
 10
161.0260190270317
 20
564.9230359084211
 10
160.13488941402443
 20
563.7716438592566
 10
159.43490410675085
 20
562.8522162168347
 10
158.35907751588434
 20
561.4041994003328
 10
157.90250040845774
 20
560.781498396516
 10
156.627506039021
 20
558.9925342336425
 10
156.42873870127008
 20
558.7108881744844
 10
155.39395221091422
 20
557.1960692461299
 10
155.00724262690065
 20
556.6396085928648
 10
154.93909858291437
 20
556.538441566447
 10
153.62477643154625
 20
554.5691889447128
 10
153.28800277154215
 20
554.0463610138167
 10
152.296808467725
 20
552.498865936678
 10
151.68559255574158
 20
551.5055930086172
 10
151.0241502443696
 20
550.4286371487195
 10
150.13450909020162
 20
548.9135256939878
 10
149.80795724344304
 20
548.3585062309752
 10
148.68995740789057
 20
546.36052513071
 10
148.64811364082783
 20
546.2877822772118
 10
148.6374510837495
 20
546.2683265451408
 10
147.5104065534352
 20
544.2178105763793
 10
147.17972094044524
 20
543.5828815829572
 10
146.42695728431502
 20
542.1479340765081
 10
145.7802117064649
 20
540.8392187373599
 10
145.3996347514393
 20
540.0781501184036
 10
144.4426114764589
 20
538.0336173239752
 10
144.43063556400426
 20
538.0084578067516
 10
144.4005852433449
 20
537.9405481309796
 10
143.4766241370424
 20
535.9381861713956
 10
143.15176097276833
 20
535.1823919081339
 10
142.5764856790076
 20
533.868621633992
 10
141.92680852250695
 20
532.2641234367064
 10
141.73391020437322
 20
531.799141100647
 10
141.33044059147136
 20
530.738894349141
 10
140.92739128946275
 20
529.7291925502377
 10
140.7643315802809
 20
529.2845756757291
 10
140.15213919422303
 20
527.6598193671895
 10
139.66508094812974
 20
526.2405331461681
 10
139.43433751485665
 20
525.5905198671819
 10
139.02033408609466
 20
524.2976096117247
 10
138.757776961686
 20
523.5208906699718
 10
138.63737274805828
 20
523.126252197211
 10
138.10651801418564
 20
521.4516767860537
 10
137.67896972564856
 20
519.9412518425629
 10
137.5132390915811
 20
519.3825251795838
 10
137.25700090541258
 20
518.4033916601672
 10
136.95372665490737
 20
517.3132123172634
 10
136.79848477993335
 20
516.6797521106031
 10
136.42705626606818
 20
515.2441269122644
 10
135.9982873422047
 20
513.3363998756272
 10
135.95957928386127
 20
513.175093475177
 10
135.90801603271166
 20
512.9237926046135
 10
135.50851233564129
 20
511.1061042676042
 10
135.2847350241665
 20
509.9079440519596
 10
135.10875418787833
 20
509.0371155147248
 10
134.89738079525384
 20
507.7817464290746
 10
134.75137234862484
 20
506.96846716582365
 10
134.66538818743314
 20
506.38537284984375
 10
134.423286725105
 20
504.8995227835155
 10
134.16514344223893
 20
502.91834868639734
 10
134.1531530458296
 20
502.83122880453084
 10
134.145887670787
 20
502.7630265720297
 10
133.90139477976874
 20
500.76231958880305
 10
133.74360013167868
 20
499.0213251279366
 10
133.70827868829468
 20
498.6934269888855
 10
133.67863337930754
 20
498.30193620362695
 10
133.5453492578161
 20
496.6255306650577
 10
133.47301016355735
 20
495.15001198023117
 10
133.43366326219447
 20
494.5566632489884
 10
133.41045507949946
 20
493.9031443643674
 10
133.36182158869195
 20
492.4891914339921
 10
133.3549533741497
 20
491.12624873520235
 10
133.33903834078686
 20
490.4203498726704
 10
133.34406096000748
 20
489.70648611998655
 10
133.362555514603
 20
488.3533377209865
 10
133.42267868098807
 20
486.9167681298359
 10
133.43793299268367
 20
486.284523620952
 10
133.46852727637375
 20
485.7010916464489
 10
133.56544244058725
 20
484.2180203099829
 10
133.72666849052823
 20
482.47108662640903
 10
133.75060519703305
 20
482.1492457078579
 10
133.77779495786487
 20
481.8809735000972
 10
133.996185395317
 20
480.0833007593469
 10
134.2671946025656
 20
478.240891311767
 10
134.30636970770365
 20
478.0178901053032
 10
134.372578479577
 20
477.68674818761974
 10
134.69080073954404
 20
475.9492487602874
 10
134.93339682711775
 20
474.77898033191536
 10
135.15315273537533
 20
473.88449173988244
 10
135.56402344374908
 20
472.35376741579626
 10
135.69941863802552
 20
471.8159559087844
 10
135.78515776076443
 20
471.50335095283083
 10
136.3534198575427
 20
469.75191307542343
 10
136.81744192353085
 20
468.4086668172025
 10
137.1123794096737
 20
467.6884489186492
 10
137.87946733745997
 20
465.89987950707007
 10
137.99537449215333
 20
465.62026169947876
 10
138.0435285433402
 20
465.5091756265412
 10
139.04933801683828
 20
463.5575619625515
 10
139.4550084663976
 20
462.79567557330404
 10
140.281797611037
 20
461.49536168541397
 10
141.06903777766755
 20
460.2856843530443
 10
141.7351678051674
 20
459.4335426864357
 10
142.88823868962297
 20
457.98162237071784
 10
143.47438192187258
 20
457.37197659148757
 10
144.916259109964
 20
455.88688940826603
 10
145.60080653771826
 20
455.3105778735309
 10
147.1579092464695
 20
454.005954575005
 10
148.27849006815586
 20
453.24936699424364
 10
149.6193379175066
 20
452.34459604617814
 10
151.78758777630387
 20
451.1885846489939
 10
152.30823066280902
 20
450.91015786563145
 10
153.25992788277352
 20
450.5192039799205
 10
155.21901820044238
 20
449.6962174665755
 10
157.0316063955324
 20
449.1316734203674
 10
158.36204553585705
 20
448.7141338640135
 10
159.4356641096353
 20
448.4801476815723
 10
161.7340024481039
 20
447.9594013486574
 10
164.48844346613828
 20
447.56815356626987
 10
165.34248782104862
 20
447.4402497220254
 10
169.03465481334075
 20
447.16277562647326
 10
169.18151405679785
 20
447.1507231830376
 10
173.06077370623566
 20
447.08789020098175
 10
173.24456525538815
 20
447.0848782817749
 10
173.24896141289207
 20
447.0850638580254
 10
173.3373932239638
 20
447.088244983425
 10
177.25207111309274
 20
447.2276800309139
 10
177.5260777512698
 20
447.2358304548812
 10
181.0966720204688
 20
447.5247242942728
 10
182.01477122728505
 20
447.5938085682384
 10
184.83119950885524
 20
447.9322395351775
 10
186.69827488969523
 20
448.1460578627259
 10
188.48505469548627
 20
448.42083469477217
 10
191.55987751459548
 20
448.8759461577182
 10
192.0783726449813
 20
448.97037696409353
 10
193.29619935043553
 20
449.1848644394065
 10
195.60448896712433
 20
449.5900131629851
 10
196.5707940980284
 20
449.7543908849237
 10
199.08363297713635
 20
450.2541388075159
 10
201.71085018093623
 20
450.7620267973811
 10
202.53906050387081
 20
450.94233636769263
 10
204.08052894757276
 20
451.26920514684855
 10
205.95876923864023
 20
451.6682664098209
 10
206.95762332984935
 20
451.8758695958003
 10
209.3506248777217
 20
452.42034089041863
 10
212.29092401879666
 20
453.07627108767576
 10
212.73325486753396
 20
453.1819589031536
 10
213.45610517883483
 20
453.3517041374839
 10
216.08673068791296
 20
453.97384493667255
 10
217.69882257332574
 20
454.3510146071605
 10
219.42904166489706
 20
454.77596084819584
 10
222.12574774291255
 20
455.4334138223304
 10
222.7603827999925
 20
455.58970260386445
 10
223.1719944145148
 20
455.69110826915585
 10
226.0678199794317
 20
456.42677133565485
 10
228.7172955960869
 20
457.1031621992895
 10
229.36732071535357
 20
457.2719640816187
 10
230.29086608502587
 20
457.51424060123713
 10
232.6438570717807
 20
458.1400109188756
 10
234.3491355172896
 20
458.60207680603094
 10
235.90384191140413
 20
459.0246816510343
 10
237.9483463366036
 20
459.5943817318573
 10
239.14085172755057
 20
459.93182548313666
 10
240.0887203372355
 20
460.2089967158681
 10
242.3518587026809
 20
460.86535733746774
 10
245.03109234769562
 20
461.6735706424992
 10
245.533288428792
 20
461.827598975281
 10
245.9846683974945
 20
461.97257166050133
 10
248.6810499261244
 20
462.82417054272514
 10
251.467641767084
 20
463.7516525790906
 10
251.78816983978237
 20
463.8602103719091
 10
252.1253260193635
 20
463.9811445761045
 10
254.85424297849175
 20
464.938215872108
 10
257.23762636050355
 20
465.82854242015406
 10
257.86711509453755
 20
466.06794617184835
 10
258.67025557870755
 20
466.3942462092296
 10
260.8294603822522
 20
467.24937445545754
 10
262.3699800561344
 20
467.9041983452029
 10
263.72852491214644
 20
468.4923488011317
 10
265.91889099659886
 20
469.51118458058625
 10
266.56182320992104
 20
469.80248700246983
 10
266.92240455527724
 20
469.97863440974794
 10
269.3291502055484
 20
471.1766624597671
 10
270.9624436842789
 20
472.05269848162277
 10
272.0175782148653
 20
472.62949521206485
 10
274.5610984745307
 20
474.125979830521
 10
274.6242719040753
 20
474.1638726414228
 10
274.8403235198611
 20
474.30312959511673
 10
277.1588509883381
 20
475.7719467295935
 10
277.7835737242159
 20
476.1975155676374
 10
279.6063657641026
 20
477.4651772074108
 10
280.6846018643755
 20
478.2694014721015
 10
281.96619963920386
 20
479.2460388710307
 10
283.30946263750906
 20
480.34078308114476
 10
284.2381170849102
 20
481.1147831444939
 10
285.69752044628945
 20
482.4117361519766
 10
286.42233959453733
 20
483.07126320398635
 10
287.8813647574308
 20
484.482324774316
 10
288.5193567946692
 20
485.1149971785076
 10
289.8878392882808
 20
486.55261347239167
 10
290.52985255140555
 20
487.24536492668636
 10
291.7389140416018
 20
488.6226433729356
 10
292.4545190766164
 20
489.4616529145537
 10
293.4524970439441
 20
490.6924696800227
 10
294.2940342415385
 20
491.7632649155438
 10
295.04308244721034
 20
492.76213053539254
 10
296.04884932387347
 20
494.1497306917887
 10
296.5223064036021
 20
494.8316496718901
 10
297.71916268831
 20
496.62085834766157
 10
297.8994191891179
 20
496.90104843756137
 10
298.6437156912227
 20
498.10628466570455
 10
299.1909269502573
 20
498.9720806347898
 10
299.3111027669961
 20
499.16975366734505
 10
300.40880196521493
 20
501.0413280897528
 10
300.8306755818632
 20
501.7920287526139
 10
301.5484132707071
 20
503.11050685114753
 10
302.26816649085475
 20
504.49654127301153
 10
302.61325336486595
 20
505.1796204136897
 10
303.5591668365816
 20
507.15230664459096
 10
303.60784417017163
 20
507.25030124430305
 10
303.62328443793257
 20
507.28296109384695
 10
304.56219623506024
 20
509.3193443637898
 10
304.9168247081954
 20
510.1317850066868
 10
305.4542128909785
 20
511.38835027782125
 10
306.12816807755905
 20
513.0629445050654
 10
306.28445266388917
 20
513.4573205763375
 10
306.6082253807758
 20
514.3314230269146
 10
307.0734968974124
 20
515.527738968346
 10
307.2691464289106
 20
516.0640793944874
 10
307.82093133973524
 20
517.5966682515495
 10
308.33778736883926
 20
519.1382278478718
 10
308.51328609296866
 20
519.6655761671035
 10
308.824817566041
 20
520.6790036481012
 10
309.16832262286465
 20
521.7357568441957
 10
309.3337452985886
 20
522.2846503408307
 10
309.78963386132926
 20
523.8046644427384
 10
310.25795181457624
 20
525.503538932541
 10
310.3601466821641
 20
525.8735611992184
 10
310.51851665379303
 20
526.503632769974
 10
310.90395766200345
 20
527.9435134636523
 10
311.1115682673113
 20
528.7925477506711
 10
311.411449873897
 20
530.0124107606598
 10
311.84449170628847
 20
531.9616372713422
 10
311.87289403000045
 20
532.082113631754
 10
311.8890393079641
 20
532.1576780338322
 10
312.31899180836695
 20
534.151027849532
 10
312.59748562906583
 20
535.592797748643
 10
312.7209527460792
 20
536.2199515132111
 10
312.8786224352836
 20
537.1266217091392
 10
313.0943214819224
 20
538.2894285189807
 10
313.22814389704433
 20
539.1049486604809
 10
313.43921648952795
 20
540.3583723012646
 10
313.6901843183224
 20
542.070065137616
 10
313.74560824417193
 20
542.4275879174461
 10
313.7815487357824
 20
542.6943233347781
 10
314.03318850902656
 20
544.4965659777793
 10
314.2555173308437
 20
546.3643557448972
 10
314.2807562999766
 20
546.5655712290301
 10
314.30713156041907
 20
546.8178669132733
 10
314.50759074999274
 20
548.6345420452191
 10
314.64268840011977
 20
550.1201481047484
 10
314.69978623222516
 20
550.703589015038
 10
314.75397880040714
 20
551.3964426010789
 10
314.8645394306028
 20
552.7722829219387
 10
314.9387857363367
 20
553.9669984833974
 10
314.99963939647427
 20
554.8413698671459
 10
315.04994724215845
 20
555.8240107305095
 10
315.1036400582308
 20
556.909764636513
 10
315.13617742568374
 20
557.9125018047748
 10
315.179311308203
 20
558.9788974237349
 10
315.2056988231607
 20
560.1112172694438
 10
315.2219970575966
 20
561.046990809628
 10
315.2238140325564
 20
562.148386868026
 10
404.7130218461647
 20
472.6591790544177
 10
404.56071830578037
 20
472.1540880924412
 10
404.36227492875224
 20
471.35500788760083
 10
404.05312798475563
 20
470.0875910738797
 10
403.8985469645925
 20
469.2805441851559
 10
403.61609772616515
 20
468.0187361874865
 10
403.30055439049437
 20
466.16421013516714
 10
403.266694963887
 20
465.9530918821565
 10
403.24936604191
 20
465.79160398558054
 10
402.9841169646555
 20
463.8845892915473
 10
402.8300805078474
 20
462.067442661893
 10
402.8004562946164
 20
461.81622588333477
 10
402.78192749313735
 20
461.5192407691583
 10
402.70145922421034
 20
459.7517641429555
 10
402.71784019547573
 20
458.04189439936926
 10
402.7096991305907
 20
457.68382190653097
 10
402.721473623238
 20
457.3326660900385
 10
402.8228203669279
 20
455.62037890026613
 10
403.0600916006209
 20
453.5619717307002
 10
403.06085638871104
 20
453.5528861644923
 10
403.061507917535
 20
453.5482778835603
 10
403.428172684453
 20
451.49048789173537
 10
403.75231739727275
 20
450.1139679607678
 10
403.9469987884687
 20
449.4287217593627
 10
404.40711780703384
 20
448.0823373879772
 10
404.6346040337146
 20
447.3620525763291
 10
404.76729346964015
 20
447.0078854061964
 10
405.519611030615
 20
445.3010474902991
 10
406.0743173750829
 20
444.192243695182
 10
406.63069301601337
 20
443.2402526256023
 10
407.65544414020883
 20
441.6513395684448
 10
408.0099357623274
 20
441.1794183960528
 10
409.4876960361611
 20
439.36172473790293
 10
409.7180590855628
 20
439.1183543452241
 10
411.5513633393708
 20
437.30328758420603
 10
411.8414626356496
 20
437.05701931407856
 10
413.8293594134588
 20
435.4584747705797
 10
414.50317452070044
 20
434.99549121009625
 10
416.30647510886115
 20
433.8118535509627
 10
417.87975383167543
 20
432.93406059123214
 10
418.9690460830273
 20
432.34954778792564
 10
421.11803104497346
 20
431.3762425994097
 10
421.80334033970894
 20
431.0554697082412
 10
422.26286642054754
 20
430.87464776851505
 10
424.7855460150564
 20
429.9108296355388
 10
427.6272683846727
 20
429.00722960886765
 10
427.91574411103045
 20
428.91138783131794
 10
428.263532796797
 20
428.81580582814706
 10
431.168076846913
 20
428.03520995036877
 10
433.1809242077179
 20
427.59394626631087
 10
434.54248050974815
 20
427.2789452874666
 10
437.31697220269956
 20
426.76018368154996
 10
438.02364216580867
 20
426.6302504886554
 10
438.33018734439884
 20
426.5855916996079
 10
441.60262148093034
 20
426.07781430975604
 10
443.17166982314245
 20
425.88773620726784
 10
445.27392574612605
 20
425.6175512866856
 10
447.8376670096768
 20
425.36538702307473
 10
449.0299938716655
 20
425.2418651072703
 10
452.38906980503214
 20
424.98313109555016
 10
456.8675960524172
 20
420.5046048481652
 10
322.4292777136602
 20
286.06628650940826
 10
321.8824412700093
 20
287.83189693247635
 10
321.40892842608525
 20
289.33179650377826
 10
321.1937674754446
 20
289.89613199309076
 10
320.6988902944331
 20
291.1757038921236
 10
320.39564814379986
 20
291.96460880431164
 10
320.26139115438457
 20
292.3111073368156
 10
319.45236592466216
 20
294.0279572789376
 10
318.93826252689405
 20
295.11375790588465
 10
318.3731881704184
 20
296.0905919177122
 10
317.42529990771783
 20
297.72531755943487
 10
317.1209776461993
 20
298.15261266092307
 10
315.7097126411189
 20
300.13301016504806
 10
315.6381961136226
 20
300.21415543792233
 10
314.4677315474875
 20
301.5431983281256
 10
313.8186498154358
 20
302.28147558998967
 10
313.7799347646894
 20
302.3257903229012
 10
312.7274917225669
 20
303.2833433283447
 10
311.62264302991184
 20
304.2900227267886
 10
311.5579960711106
 20
304.33659276399095
 10
309.229273933147
 20
306.01839597287255
 10
308.5528457584172
 20
306.3975088765589
 10
306.58981593567523
 20
307.5011620430676
 10
304.33696071065333
 20
308.45766604790373
 10
303.6961784795248
 20
308.730709387546
 10
302.9016935676302
 20
308.9758412950009
 10
300.5626077846942
 20
309.7225471701294
 10
297.2877953376727
 20
310.44876168672187
 10
297.18566032242666
 20
310.47257912437635
 10
296.92712232727024
 20
310.5118180583911
 10
293.60076970273906
 20
311.01497436859205
 10
292.49511367655623
 20
311.1047106631431
 10
289.8141021996318
 20
311.35778306317843
 10
288.037027787502
 20
311.4207713755214
 10
285.8519434215623
 20
311.526020345304
 10
283.7925111346451
 20
311.52280407962013
 10
281.7386044421007
 20
311.5437175931048
 10
279.69374699690457
 20
311.478693730059
 10
277.4947913540712
 20
311.4314705939925
 10
275.6998820937519
 20
311.3293528133283
 10
273.13674694043004
 20
311.2053246375996
 10
271.7860380921225
 20
311.09974207167033
 10
268.6755131455458
 20
310.8762475697593
 10
267.93732050583486
 20
310.80482791021495
 10
264.2864879250066
 20
310.4654992447323
 10
264.1447362376021
 20
310.4521365918855
 10
264.11643095714203
 20
310.449490613081
 10
260.42540733932896
 20
310.02794780639897
 10
259.44909151242587
 20
309.914385914161
 10
256.75487914440674
 20
309.5549625274409
 10
254.66803163606232
 20
309.2656533705974
 10
253.13456571449132
 20
309.0317756440342
 10
249.7580622842667
 20
308.4880068222324
 10
249.56765090818294
 20
308.4552461875468
 10
249.134051351528
 20
308.3754556829598
 10
246.07424755977286
 20
307.8047776693037
 10
244.6578078326187
 20
307.5190919299313
 10
242.6414719865839
 20
307.0945202496813
 10
239.3454944140351
 20
306.3389414027486
 10
239.27155866163605
 20
306.32150758225237
 10
239.16067855410716
 20
306.29290430873544
 10
235.98586880218124
 20
305.4642556746925
 10
233.68010795985606
 20
304.80436940314064
 10
232.7685608994758
 20
304.5390504633686
 10
231.75119931845688
 20
304.21399559128497
 10
229.63483384309643
 20
303.530393294201
 10
227.53008624540428
 20
302.7850066062772
 10
226.57822257955684
 20
302.4448171117673
 10
225.79294565998288
 20
302.13752953242306
 10
223.60753886846476
 20
301.2735562531814
 10
220.79878434174304
 20
300.0617983602405
 10
220.71434731336439
 20
300.02497782429555
 10
220.57409081818804
 20
299.9584906329104
 10
217.9077335968969
 20
298.6896675493548
 10
216.54682860707646
 20
297.9883390673392
 10
215.17962070234813
 20
297.2761796419693
 10
212.75415492100257
 20
295.9145968223211
 10
212.47737408234315
 20
295.7574176430759
 10
26.242640687119277
 20
481.9921510382998
 10
210.811345274701
 20
666.5608556258815
  0
TEXT
  5
93
330
17
100
AcDbEntity
  8
GRABADO
100
AcDbText
 10
334.93785368891014
 20
474.37221170189
 30
0.0
 40
6.0
  1
12
 72
1
 11
334.93785368891014
 21
474.37221170189
 31
0.0
100
AcDbText
 73
2
  0
LWPOLYLINE
  5
94
330
17
100
AcDbEntity
  8
CORTE
100
AcDbPolyline
 90
307
 70
1
 10
334.37944304189705
 20
665.898029938823
 10
335.3086581972059
 20
667.0465800066444
 10
336.59927585704986
 20
667.9656528674481
 10
336.8564460887863
 20
668.415596378881
 10
337.31646635008485
 20
668.7667141465482
 10
338.37235041023087
 20
669.8517783581033
 10
340.2605401049202
 20
670.7407064752545
 10
340.3627931954361
 20
670.8087066116842
 10
340.6937382635797
 20
670.9057084658484
 10
342.1910453970924
 20
671.917157132634
 10
343.2124580703547
 20
672.0386111471779
 10
344.5760792893412
 20
672.4801799531047
 10
346.15535752404674
 20
672.4553058387585
 10
347.37997910001945
 20
672.6175609664748
 10
349.09447658079887
 20
672.4386819682693
 10
350.4876152534762
 20
672.4481902488593
 10
352.03150431206404
 20
672.1848037301298
 10
353.84453479709305
 20
672.0282205001507
 10
354.9672972281149
 20
671.7756039269563
 10
357.4319814677664
 20
671.3772239182122
 10
357.90234821464793
 20
671.2489255984084
 10
359.3970444385835
 20
670.9106402217511
 10
360.8266249427754
 20
670.671171946918
 10
361.1076563834922
 20
670.6324411353576
 10
363.7616418149512
 20
670.0574324947466
 10
364.8304693559083
 20
669.8459523498856
 10
366.6963779677445
 20
669.3533796273744
 10
368.7942124534594
 20
668.8188160408656
 10
369.63085709018105
 20
668.5593209365378
 10
371.4822003722099
 20
667.9862991892868
 10
372.55875425836535
 20
667.7086295177054
 10
372.9400710513059
 20
667.6076104469671
 10
375.49326782125416
 20
666.8269485882898
 10
377.2038797973855
 20
666.2809219572814
 10
378.4275928946357
 20
665.8488110898506
 10
380.54144090213606
 20
665.0620264634256
 10
381.3571751026703
 20
664.7958234104923
 10
381.77061580440653
 20
664.6509537785655
 10
384.2914289426736
 20
663.7067387529796
 10
386.57108583573904
 20
662.7886981697038
 10
387.2254606410369
 20
662.5124263385579
 10
388.0526266826379
 20
662.1371530606676
 10
390.1560512527194
 20
661.2713919533802
 10
391.72840181521514
 20
660.5700538081292
 10
393.08990512168316
 20
659.9452678817936
 10
394.56830523236044
 20
659.2131083813742
 10
396.02107020501956
 20
658.5464821835432
 10
397.3548111870454
 20
657.8836994015511
 10
398.95465386802795
 20
657.0762392308478
 10
400.4041284608855
 20
656.2888247069211
 10
401.8861671924852
 20
655.5298848649369
 10
403.58814827876193
 20
654.592005245065
 10
404.819426671295
 20
653.9084940806168
 10
405.7366163178316
 20
653.3644638067142
 10
407.7511117750112
 20
652.2217824414212
 10
410.6602422218358
 20
650.463680829957
 10
410.6839951826812
 20
650.4492894991887
 10
410.69831545972954
 20
650.4401141118664
 10
413.6157105060887
 20
648.6310058711146
 10
415.3227756064917
 20
647.5167966460524
 10
416.5475295163775
 20
646.7362971666502
 10
418.9107397024483
 20
645.1602082492684
 10
419.47982624733186
 20
644.7809259167894
 10
419.7518268183249
 20
644.5926681666853
 10
422.41149316902954
 20
642.779600870575
 10
423.9903428338479
 20
641.6693834569267
 10
425.3431619597861
 20
640.7259769812772
 10
428.1157421171325
 20
638.7460851970294
 10
428.27479160484313
 20
638.6327464163252
 10
428.6893621950461
 20
638.3325918399664
 10
431.20621732465406
 20
636.5130069604166
 10
432.1531715564732
 20
635.8227026204311
 10
434.1375471203196
 20
634.3715721611592
 10
436.15011135823255
 20
632.899683925342
 10
437.06878044845377
 20
632.2223920802763
 10
439.6138360851995
 20
630.3617114925516
 10
439.9995141319902
 20
630.0800961190365
 10
440.14281273755097
 20
629.9770908712117
 10
442.9303876018199
 20
627.9502471841713
 10
444.1927858322067
 20
627.0544182982496
 10
445.86112491975734
 20
625.8521074921887
 10
448.3285526668497
 20
624.131821442419
 10
448.7917157684732
 20
623.802655307602
 10
449.8344410041146
 20
623.0920578646821
 10
451.7215185189376
 20
621.8062919965741
 10
452.6400599935189
 20
621.2103087493615
 10
454.65172643663243
 20
619.8767084351687
 10
457.1904114321059
 20
618.2880242024086
 10
457.5817923735527
 20
618.0368764076745
 10
458.21489639423413
 20
617.6566886179312
 10
460.51096766311406
 20
616.2764782836722
 10
462.1382314543017
 20
615.3670251055663
 10
463.44071598966906
 20
614.6185639869439
 10
465.0421607354689
 20
613.7699459989761
 10
466.36957472447466
 20
613.0654479261624
 10
467.64283150604956
 20
612.4460946475067
 10
469.29910701364014
 20
611.614915189794
 10
470.8361802195201
 20
610.9130642786046
 10
472.2277703807297
 20
610.2765330559074
 10
474.0431138905502
 20
609.5250701788343
 10
475.15723395269714
 20
609.0471897942505
 10
475.93842382664803
 20
608.7456401844722
 10
478.08585101612977
 20
607.9159116804326
 10
480.55881640261384
 20
607.0595388075571
 10
481.0661750355739
 20
606.8840476780709
 10
481.0661750355739
 20
493.14960465328465
 10
480.35077286130064
 20
493.10725642076466
 10
478.06068437135536
 20
493.00201183763147
 10
477.5021475127217
 20
493.0183191379659
 10
475.1230662207476
 20
493.12033089384266
 10
474.37746216332636
 20
493.2055338379762
 10
472.18584163454403
 20
493.48640246150586
 10
470.90945083479613
 20
493.736026546351
 10
469.2491324882986
 20
494.0837164088164
 10
467.01457790944824
 20
494.6930691904673
 10
466.3130030214794
 20
494.89391352284485
 10
464.87287740811774
 20
495.3912411265155
 10
463.3808005787654
 20
495.85307743262354
 10
462.6592449515145
 20
496.10965357455484
 10
460.44605003679095
 20
496.9279153597179
 10
457.8216566021395
 20
498.0087255138418
 10
457.51176097743644
 20
498.1405629746218
 10
457.1317211600483
 20
498.3168031627049
 10
454.5813289772356
 20
499.38454241568195
 10
452.64058454395234
 20
500.2512387698529
 10
451.647903253027
 20
500.7087417588818
 10
450.5535431034504
 20
501.2402918366778
 10
448.718090585878
 20
502.05108616440293
 10
447.2118669492374
 20
502.74147507536543
 10
445.78525633652276
 20
503.4169850510505
 10
444.2557727479077
 20
504.16329566867483
 10
442.8558116146667
 20
504.78854085627853
 10
441.70146191106545
 20
505.3136273367612
 10
439.9233655446665
 20
506.1508798526096
 10
437.96682262183816
 20
507.0859928999244
 10
436.9941037668861
 20
507.5140818094561
 10
436.2204558478786
 20
507.8567300569374
 10
434.06188781991506
 20
508.84863458877084
 10
431.5517112004718
 20
510.0085469382261
 10
431.13264189827686
 20
510.1879362531342
 10
430.81619572458845
 20
510.3234091893204
 10
428.2005489836324
 20
511.4871823898317
 10
425.5197363975991
 20
512.6815910798949
 10
425.268465732781
 20
512.797489018464
 10
424.9787789751282
 20
512.9315074195499
 10
422.3390898232245
 20
514.0702679573325
 10
420.3224054627583
 20
514.9418799513129
 10
419.4070003058815
 20
515.3513606749501
 10
418.288262626129
 20
515.8541222169486
 10
416.4773227834779
 20
516.6185217303306
 10
415.14109630236544
 20
517.186028212134
 10
413.54519966601254
 20
517.8860241566739
 10
411.5332037192417
 20
518.776912539392
 10
410.61517542590974
 20
519.1616560886048
 10
409.9423550815897
 20
519.4473315694838
 10
407.6829848549214
 20
520.4340994320905
 10
404.8310403233902
 20
521.6998919192889
 10
404.7525778598159
 20
521.7331227079137
 10
404.69294184710276
 20
521.7589119283674
 10
401.8203292001484
 20
523.0297933974308
 10
399.3778775911915
 20
524.1355675931774
 10
398.8881212460035
 20
524.3614096962039
 10
398.333387803008
 20
524.6235804061257
 10
395.95726274565885
 20
525.7062051920911
 10
393.9070309705884
 20
526.6677372487196
 10
393.02504710758797
 20
527.0867205573197
 10
392.0840412931327
 20
527.5469713614804
 10
390.09384013808005
 20
528.4938962479351
 10
388.2206387016187
 20
529.4146892540061
 10
387.16166260702283
 20
529.9392085236925
 10
386.12226107046234
 20
530.4705240490877
 10
384.2301672273478
 20
531.4200351181856
 10
382.2443186232182
 20
532.4506736352023
 10
381.298074110402
 20
532.9432963117349
 10
380.4586571579258
 20
533.394202007702
 10
378.36634594344616
 20
534.5077636109272
 10
375.87924488486254
 20
535.8743054509691
 10
375.4343952556153
 20
536.1186348792648
 10
375.0816881067026
 20
536.3179548039902
 10
372.5025015203915
 20
537.7753126722937
 10
369.9784037535112
 20
539.2413656795893
 10
369.57042170323444
 20
539.4800574972204
 10
368.96941421449793
 20
539.8408390388295
 10
366.63875216627537
 20
541.2347285531339
 10
365.1152265820161
 20
542.1651932943737
 10
363.70661287084636
 20
543.0395356199958
 10
361.3139783533034
 20
544.5513653276194
 10
360.7752074497946
 20
544.8901168073518
 10
360.46292781702033
 20
545.0889300159278
 10
357.8430828232258
 20
546.7988574802398
 10
355.99878713891934
 20
548.012533628256
 10
354.9108636976435
 20
548.7519169296879
 10
352.56718525390585
 20
550.3500083409635
 10
351.979901063585
 20
550.7482596230996
 10
351.7021981737752
 20
550.9360577848038
 10
349.04776958002503
 20
552.8053642704809
 10
347.5377851327506
 20
553.8597018526455
 10
346.1156081410694
 20
554.901503551769
 10
343.50831039228336
 20
556.7833760622001
 10
343.1834045313674
 20
557.0312864318267
 10
342.1953296011072
 20
557.7691462352332
 10
340.25314623483735
 20
559.2125593286352
 10
339.5696089995913
 20
559.706380493913
 10
337.3211171964887
 20
561.4376049667196
 10
335.7163291447847
 20
562.6299998114569
 10
334.3890623016831
 20
563.6895308631001
 10
331.95078901755255
 20
565.5536325089457
 10
331.4569993328471
 20
565.9627076424417
 10
329.5118467344729
 20
567.4938450913589
 10
328.5275548137482
 20
568.2656152025053
 10
328.2431934100798
 20
568.4759066253446
 10
325.595671229314
 20
570.6168512223499
 10
324.5611049800424
 20
571.3994240039026
 10
322.6637276074754
 20
572.9847896424319
 10
320.937134621347
 20
574.3230327805716
 10
319.7317138446591
 20
575.3668766122278
 10
317.37177673412145
 20
577.2467280681403
 10
316.79955796858576
 20
577.7627557311461
 10
313.87286604629264
 20
580.1706165481148
 10
313.86721195288897
 20
580.175966322051
 10
313.83428600786186
 20
580.2041635679227
 10
310.9390870934592
 20
582.6770409029571
 10
310.3978701174326
 20
583.0920684849428
 10
308.00655587191255
 20
585.2457905407763
 10
307.04686110022857
 20
586.0163752936502
 10
305.0735043938966
 20
587.9267949501908
 10
303.89129006045493
 20
588.9414049743953
 10
302.1396569728237
 20
590.8204047196891
 10
301.0344649335961
 20
591.8676046867871
 10
299.2047043727681
 20
594.1537320284358
 10
298.6224568355486
 20
594.795917194824
 10
297.644326945825
 20
596.3510309451616
 10
296.7606741549588
 20
597.7302400189518
 10
296.2612641573305
 20
599.0242032611677
 10
295.55070177881817
 20
600.6660065953463
 10
295.41260464269897
 20
601.5160585757233
 10
295.01459045346303
 20
603.6049691858245
 10
295.0755102964083
 20
604.7897524358999
 10
295.11140847210436
 20
606.5424991197565
 10
295.3300577445873
 20
607.473857893661
 10
295.7370262075351
 20
609.477213090496
 10
295.8851136502554
 20
609.8565829877595
 10
296.2597623086121
 20
610.8981234947219
 10
296.63150595860424
 20
612.0304554242559
 10
296.74795356653453
 20
612.4055013763258
 10
297.50813899794434
 20
614.0896931991318
 10
298.0516911612307
 20
615.3350370892073
 10
298.4602087762127
 20
616.0716577395148
 10
299.1952580123964
 20
617.4247762473924
 10
299.47185609788914
 20
617.9816002559791
 10
299.6102001162333
 20
618.2601957005954
 10
300.5333845024627
 20
619.8526584885758
 10
301.31268922195216
 20
621.1868845758369
 10
301.63370661953866
 20
621.6834879668323
 10
302.1293796883076
 20
622.4396130712913
 10
302.7557179727128
 20
623.4844178166736
 10
303.1431584171972
 20
624.110715034818
 10
303.8997879235044
 20
625.2705533886391
 10
305.06105078664564
 20
626.9861285689293
 10
305.0790069480174
 20
627.0152560688074
 10
305.0914859864388
 20
627.0344587999165
 10
306.24144902098357
 20
628.7821963480108
 10
307.0620989176794
 20
629.9589687476362
 10
307.4408020304696
 20
630.5112632515899
 10
307.99363290699034
 20
631.26753304681
 10
308.63881231072514
 20
632.2383498791891
 10
309.1016706687289
 20
632.8822812798886
 10
309.84087789281546
 20
633.9640908798149
 10
310.9250688419281
 20
635.4212721275995
 10
311.0798306136272
 20
635.6511139834894
 10
311.194641859291
 20
635.8056800047339
 10
312.2742697312948
 20
637.3839048894532
 10
313.29747919600834
 20
638.7288576102336
 10
313.52348366566787
 20
639.061060551879
 10
313.8566895746769
 20
639.4972666317234
 10
314.73684258245476
 20
640.7749345039009
 10
315.4234460594869
 20
641.6521461748142
 10
315.9734975852401
 20
642.464120410937
 10
316.7881586861323
 20
643.5098715491434
 10
317.22736439256374
 20
644.1384692701107
 10
317.58216190994676
 20
644.575638659376
 10
318.44542964757363
 20
645.8457350853424
 10
319.7198339249727
 20
647.4355659356205
 10
319.7469563323079
 20
647.47351130498
 10
319.7689740275911
 20
647.4994252856962
 10
320.9417273014287
 20
649.2035649241568
 10
321.95707643447497
 20
650.4210890123971
 10
322.22682341674124
 20
650.84206782692
 10
322.6507199417887
 20
651.3741859730702
 10
323.4670414327775
 20
652.5330975545919
 10
324.1811100883133
 20
653.3449511779193
 10
324.7294585367613
 20
654.1936443550147
 10
325.5827519121575
 20
655.216478082357
 10
326.0288916301091
 20
655.8270117225517
 10
326.4464065390282
 20
656.2692331807281
 10
327.2663764678384
 20
657.5118602471354
 10
328.5152384328686
 20
658.9131079131851
 10
328.6391516617757
 20
659.0737620098582
 10
328.76407728518495
 20
659.1941147458344
 10
329.8525956111796
 20
660.7821089242531
 10
331.156747784305
 20
662.1134347072123
 10
331.2570900604436
 20
662.2961041479341
 10
331.4454289207329
 20
662.5126807837089
 10
332.514938273756
 20
663.9782700581598
 10
333.70900846050205
 20
665.0387746436262
 10
333.94537986297723
 20
665.4650272295961
 10
334.37944304189705
 20
665.898029938823
  0
LWPOLYLINE
  5
95
330
17
100
AcDbEntity
  8
GRABADO
100
AcDbPolyline
 90
283
 70
1
 10
475.709875631047
 20
503.5777626973179
 10
475.1273911758544
 20
503.57589374262557
 10
472.66622723148595
 20
503.6853364465168
 10
472.1916498807399
 20
503.71412107653043
 10
469.41086215221725
 20
504.0045837940447
 10
469.2562188134298
 20
504.0233306447549
 10
468.42559397522143
 20
504.15714684005957
 10
466.32337540197943
 20
504.47225057079936
 10
465.9361486802855
 20
504.541959532747
 10
463.38890857224493
 20
505.04838813342667
 10
462.23379284093215
 20
505.30854226231133
 10
460.4547732993514
 20
505.7428623084669
 10
458.283668160104
 20
506.3225811471856
 10
457.52095932443603
 20
506.54063453848295
 10
455.7481635144015
 20
507.0822224949943
 10
454.5902273419257
 20
507.41105557475737
 10
454.1202739139064
 20
507.55002384589375
 10
451.6570793760424
 20
508.3286910482418
 10
449.80150441861156
 20
508.9324961603511
 10
448.7241532466402
 20
509.3046669663321
 10
446.7352873863817
 20
510.00607454661395
 10
445.7943013098963
 20
510.31507082857934
 10
445.3301300820283
 20
510.46822128741127
 10
442.861779233821
 20
511.3351085123107
 10
440.80237817943026
 20
512.0595089119072
 10
439.9293458126599
 20
512.384547976293
 10
438.465568341291
 20
512.9294116198439
 10
436.9998783080693
 20
513.4388167105014
 10
436.2187002710815
 20
513.7077270155168
 10
434.0676289240614
 20
514.4936863866059
 10
431.60298572280806
 20
515.386901765966
 10
431.13543356860134
 20
515.5657375082544
 10
430.38112448218595
 20
515.8525026223249
 10
428.2059534645074
 20
516.6281056195829
 10
427.0006290998352
 20
517.0538221251297
 10
425.2737711819618
 20
517.6978699240872
 10
422.3694222803999
 20
518.7752340719351
 10
422.34407651498213
 20
518.7841049303676
 10
422.3294898936667
 20
518.7891851062609
 10
419.4118453610189
 20
519.8599234470867
 10
417.6900709630706
 20
520.4920007718724
 10
416.4796083894337
 20
520.9570292726893
 10
414.55938317159155
 20
521.6985129869352
 10
413.5494902320151
 20
522.0692410360359
 10
412.95695375193657
 20
522.2888542534888
 10
410.61716588052695
 20
523.191456089841
 10
408.1532309732029
 20
524.1554825304652
 10
407.6848593919141
 20
524.3449863127736
 10
407.01219027540515
 20
524.6220598484903
 10
404.7542387737523
 20
525.5143366687348
 10
403.2476656686962
 20
526.1239674585938
 10
401.8218646377537
 20
526.7164142397271
 10
399.878557816547
 20
527.5453634731607
 10
398.8908402027514
 20
527.9530303875162
 10
398.17634619551916
 20
528.2574918955638
 10
395.9584400861018
 20
529.2207381596786
 10
393.1775293872535
 20
530.4688706296286
 10
393.0270375742623
 20
530.534808174826
 10
392.9049627064835
 20
530.5903369337871
 10
390.0946506597784
 20
531.8841182676156
 10
387.371501921862
 20
533.1847411667761
 10
387.1623561420875
 20
533.2854808242307
 10
386.94662000960216
 20
533.3931477547843
 10
384.23061260195726
 20
534.7311289084672
 10
381.4757644934356
 20
536.1401713010172
 10
381.2984127149073
 20
536.2311990102344
 10
381.1369862204797
 20
536.3169971309617
 10
378.3664374900835
 20
537.7841164074384
 10
375.7115912994566
 20
539.2404328478921
 10
375.43423773165676
 20
539.3931537923452
 10
375.07693762876124
 20
539.5968313481412
 10
372.50225843319845
 20
541.0622531648622
 10
370.6234532122039
 20
542.1644782144367
 10
369.5699385209774
 20
542.7906896688135
 10
367.9476475688215
 20
543.782442036485
 10
366.63819795494004
 20
544.5801497375015
 10
365.8226802944691
 20
545.0885209162598
 10
363.7058292021294
 20
546.4377800410917
 10
361.28326608703014
 20
548.0122731039332
 10
360.7733579642881
 20
548.353726857099
 10
359.6985716645907
 20
549.0844359061109
 10
357.8420242962784
 20
550.3408787459763
 10
356.9704132874033
 20
550.9362403484433
 10
354.9095904155354
 20
552.3995120146799
 10
352.860689102337
 20
553.8601190702959
 10
351.9771053110461
 20
554.5199858693088
 10
349.3586221172915
 20
556.4717520300403
 10
349.04625153154575
 20
556.7035885505484
 10
348.9372831676791
 20
556.7837931081685
 10
346.1138857839784
 20
558.9796183010852
 10
345.1637047365923
 20
559.7076723252126
 10
343.1814789668337
 20
561.325509723584
 10
341.54577119796113
 20
562.6316394699325
 10
340.24905973136424
 20
563.7438395600346
 10
338.0739943700113
 20
565.5556521740702
 10
337.31661795821134
 20
566.2393401551188
 10
334.74139403977847
 20
568.4797609687387
 10
334.38413991035657
 20
568.8197728964287
 10
331.5444654442223
 20
571.403934619006
 10
331.4516375841749
 20
571.4973032281008
 10
329.30770824456295
 20
573.5425199939262
 10
328.52206099065285
 20
574.2915218442554
 10
328.48293873174293
 20
574.326643604555
 10
325.58967067453284
 20
577.2294011708393
 10
325.56680830686435
 20
577.2508225362164
 10
325.2185820320442
 20
577.6202129584483
 10
322.8061184994275
 20
580.1773018849398
 10
322.6536922942432
 20
580.3630664121724
 10
320.22480414486165
 20
583.1021913761566
 10
319.72079774562496
 20
583.7677703116373
 10
317.85681180198765
 20
586.027468034679
 10
316.7876837462673
 20
587.580534311333
 10
315.75047828054505
 20
588.9533246932223
 10
314.12849827713
 20
591.6050393783587
 10
313.95795188718233
 20
591.8826185870631
 10
313.85036720025255
 20
592.1081016219348
 10
312.42510176539565
 20
594.8103678130369
 10
311.5393965926439
 20
597.1160127928085
 10
311.29770323517624
 20
597.7415445451966
 10
310.9138130172702
 20
599.26322126633
 10
310.5189865300215
 20
600.6717675421319
 10
310.4531993794251
 20
601.1342137689269
 10
310.10057441721887
 20
603.6041872495534
 10
310.08677149584275
 20
604.4312046133801
 10
310.05703440762034
 20
606.536240620362
 10
310.1343995021204
 20
607.3158030101259
 10
310.3616867098923
 20
609.4674733726519
 10
310.45614294569066
 20
609.9269269713674
 10
310.9128283022196
 20
612.0363058692171
 10
310.97114835407604
 20
612.3355260370253
 10
310.984026992081
 20
612.3969100730299
 10
311.6208519907875
 20
614.6186288907268
 10
311.83796821014124
 20
615.3258146931222
 10
312.38038168319196
 20
616.7914918058963
 10
312.9601685078726
 20
618.2537523883504
 10
313.23416645016704
 20
618.8695080911332
 10
313.84910046657353
 20
620.1562091882703
 10
314.1568031861731
 20
620.8713346839972
 10
314.30116284567487
 20
621.1801339516994
 10
315.12245095597245
 20
622.8368937352333
 10
315.8083989683695
 20
624.1064651138706
 10
316.155590257946
 20
624.7343260253064
 10
316.7834698711084
 20
625.7716019751343
 10
317.2276407557448
 20
626.5876957531848
 10
317.49468816878186
 20
627.0318999716405
 10
318.3220795793418
 20
628.423355745781
 10
319.33474158929994
 20
629.95711317543
 10
319.4837622766822
 20
630.1912098800692
 10
319.71743535709885
 20
630.5197183028878
 10
320.6382797524623
 20
631.9631245122861
 10
321.29817105712823
 20
632.8820881857172
 10
321.84222211321014
 20
633.6883887532912
 10
322.6500023517508
 20
634.7440061847301
 10
323.08254980309493
 20
635.3753407785063
 10
323.4199663125976
 20
635.8071085356889
 10
324.32252674343164
 20
637.0643198590011
 10
325.58276485821807
 20
638.58962594892
 10
325.64333465645393
 20
638.6716603358207
 10
325.6950481222553
 20
638.7322514842158
 10
326.91882647419254
 20
640.3249777967496
 10
328.11375287427967
 20
641.6562743211774
 10
328.2911532166614
 20
641.8811116593391
 10
328.51666669364374
 20
642.1227374277469
 10
329.6326651959904
 20
643.4689289829561
 10
330.72702802018006
 20
644.5814684853513
 10
331.0581696560166
 20
644.9719185323685
 10
331.4500215137886
 20
645.355535387152
 10
332.47305765659996
 20
646.4873203123572
 10
333.58530922990997
 20
647.506942043633
 10
333.96784355427883
 20
647.9212273547762
 10
334.3838640225264
 20
648.2879157738955
 10
335.4577176250224
 20
649.3626165218861
 10
336.77309023043654
 20
650.4326782083073
 10
337.0479047535524
 20
650.7015480014657
 10
337.31837122947354
 20
650.911948264422
 10
338.6161005749684
 20
652.0656245517811
 10
340.25228782655057
 20
653.2209838324476
 10
340.3305079476012
 20
653.2839470315274
 10
340.45122945972116
 20
653.361024302775
 10
341.995029842392
 20
654.5498198805004
 10
343.1882591334785
 20
655.2580858628148
 10
343.80152217869136
 20
655.6769530590689
 10
344.96471045141766
 20
656.2873624924903
 10
345.66967713046097
 20
656.740445985439
 10
346.12541565076674
 20
656.9567320927341
 10
347.5807025366694
 20
657.7638545580566
 10
349.0606579620468
 20
658.3647470291053
 10
349.64019257900475
 20
658.6390027453403
 10
351.32711535150713
 20
659.2155674264201
 10
351.7999175351869
 20
659.4131820522376
 10
351.9998014256348
 20
659.4692363771283
 10
354.00193197573105
 20
660.1462574123811
 10
354.9355053304863
 20
660.3498029680424
 10
356.3581797798415
 20
660.7251682612883
 10
357.8711719164602
 20
660.9656056786839
 10
358.8611646310933
 20
661.1574057148308
 10
360.80677450543374
 20
661.3562085204936
 10
361.50860249808375
 20
661.4452507148337
 10
363.74231361872006
 20
661.5506088457216
 10
364.30350736835624
 20
661.585706786716
 10
366.67778375684094
 20
661.5700675280209
 10
367.2544634743349
 20
661.5702148346589
 10
369.6131083714032
 20
661.430079157498
 10
370.37622529395725
 20
661.384042785527
 10
372.54838829173957
 20
661.1418128861751
 10
373.69065847952936
 20
661.0053930049003
 10
375.48347544693996
 20
660.7131380789282
 10
377.2280828395087
 20
660.4040227378998
 10
378.41840382892724
 20
660.1493314569697
 10
381.0292566187667
 20
659.5392913959586
 10
381.3531316129312
 20
659.4536647863298
 10
382.17000273676194
 20
659.2177156093693
 10
384.28428232251184
 20
658.6628711490665
 10
385.07225313274785
 20
658.4331115267844
 10
387.21883295029613
 20
657.761065486781
 10
389.45406593822565
 20
656.9887023855364
 10
390.15315556233145
 20
656.7350525691473
 10
391.2654661433344
 20
656.2924973604131
 10
393.0848496197394
 20
655.6176340142706
 10
394.23275813493495
 20
655.1485495831473
 10
396.0188860341855
 20
654.3988797438943
 10
398.26690660520626
 20
653.3680710492775
 10
398.9508958952025
 20
653.0706976389592
 10
399.5211731836548
 20
652.7998693839605
 10
401.88457191737257
 20
651.6622284923437
 10
404.2232194600611
 20
650.4434505922475
 10
404.8167376386459
 20
650.1459945003181
 10
405.4691067622123
 20
649.7931598924231
 10
407.74999766494534
 20
648.5522303569215
 10
409.525765853444
 20
647.5188104732227
 10
410.68217259693273
 20
646.8638117017236
 10
412.34273920023486
 20
645.8629475387511
 10
413.6149830830637
 20
645.0947485284836
 10
414.40062244385797
 20
644.5942571702258
 10
416.5470537927547
 20
643.2499876044913
 10
418.95264129902546
 20
641.6707340905725
 10
419.47915058409785
 20
641.3283265280252
 10
420.5474329905003
 20
640.605330952639
 10
422.41127780097383
 20
639.344575907603
 10
423.2678729066421
 20
638.7465460443805
 10
425.3431319067628
 20
637.3008773011576
 10
427.41460707678357
 20
635.8231467532291
 10
428.2749270705617
 20
635.2070710220116
 10
430.5568019735564
 20
633.5475286022655
 10
431.2063533587939
 20
633.0755612053389
 10
431.44660406754065
 20
632.8996522292468
 10
434.1378222840808
 20
630.9118783263915
 10
435.4053164685251
 20
629.976514388759
 10
437.06917697152636
 20
628.7320445568456
 10
439.33521222523973
 20
627.0534885875093
 10
440.0003987846665
 20
626.551915798688
 10
441.9511423261835
 20
625.1081407464834
 10
442.9308698887871
 20
624.3831920073468
 10
443.2804944936038
 20
624.131114290725
 10
445.8617033838393
 20
622.2315703124937
 10
447.3013377463216
 20
621.208478891695
 10
448.7923844645321
 20
620.1229159610127
 10
451.42886284794525
 20
618.2859280277771
 10
451.7229066208237
 20
618.0752802117079
 10
452.38585739990407
 20
617.6248485102356
 10
454.65244277737986
 20
616.0827870501657
 10
455.7729443297106
 20
615.3646401731346
 10
457.5825887224951
 20
614.1694035210841
 10
460.38252895784325
 20
612.4423871095177
 10
460.51260250009597
 20
612.3593906167075
 10
460.7167411824408
 20
612.2387725445872
 10
463.4415527809285
 20
610.6238230726065
 10
465.4622379402124
 20
609.5215126750891
 10
466.3712946065707
 20
609.006852796238
 10
467.4430324196194
 20
608.4526091270725
 10
469.29998971934094
 20
607.4885462215743
 10
471.1823105776163
 20
606.6006299109331
 10
472.22959447736883
 20
606.0857371899964
 10
473.15978372343716
 20
605.6727092529343
 10
475.1581768961407
 20
604.7817205773104
 10
477.90656117232106
 20
603.6795169894015
 10
478.08781903991996
 20
603.6033344452128
 10
478.2097945859188
 20
603.5573723337725
 10
481.0661750355739
 20
602.4779864996863
 10
481.0661750355739
 20
503.8673534819372
 10
478.5670023632435
 20
503.6567039579573
 10
478.0633732110112
 20
503.6214478347405
 10
475.709875631047
 20
503.5777626973179
  0
TEXT
  5
96
330
17
100
AcDbEntity
  8
GRABADO
100
AcDbText
 10
395.8673268205099
 20
582.8845546939499
 30
0.0
 40
6.0
  1
19b
 72
1
 11
395.8673268205099
 21
582.8845546939499
 31
0.0
100
AcDbText
 73
2
  0
TEXT
  5
97
330
17
100
AcDbEntity
  8
HOJA
100
AcDbText
 10
10.0
 20
691.0
 30
0.0
 40
6.0
  1
terreno_prueba  hoja 6/9  1:345  lamina 3.0mm
 11
10.0
 21
691.0
 31
0.0
100
AcDbText
  0
ENDSEC
  0
SECTION
  2
OBJECTS
  0
DICTIONARY
  5
A
330
0
100
AcDbDictionary
281
1
  3
ACAD_COLOR
350
B
  3
ACAD_GROUP
350
C
  3
ACAD_LAYOUT
350
D
  3
ACAD_MATERIAL
350
E
  3
ACAD_MLEADERSTYLE
350
F
  3
ACAD_MLINESTYLE
350
10
  3
ACAD_PLOTSETTINGS
350
11
  3
ACAD_PLOTSTYLENAME
350
12
  3
ACAD_SCALELIST
350
14
  3
ACAD_TABLESTYLE
350
15
  3
ACAD_VISUALSTYLE
350
16
  3
EZDXF_META
350
2D
  0
DICTIONARY
  5
B
330
A
100
AcDbDictionary
281
1
  0
DICTIONARY
  5
C
330
A
100
AcDbDictionary
281
1
  0
DICTIONARY
  5
D
330
A
100
AcDbDictionary
281
1
  3
Model
350
1A
  3
Layout1
350
1E
  0
DICTIONARY
  5
E
330
A
100
AcDbDictionary
281
1
  3
ByBlock
350
1F
  3
ByLayer
350
20
  3
Global
350
21
  0
DICTIONARY
  5
F
330
A
100
AcDbDictionary
281
1
  3
Standard
350
2C
  0
DICTIONARY
  5
10
330
A
100
AcDbDictionary
281
1
  3
Standard
350
22
  0
DICTIONARY
  5
11
330
A
100
AcDbDictionary
281
1
  0
ACDBDICTIONARYWDFLT
  5
12
330
A
100
AcDbDictionary
281
1
  3
Normal
350
13
100
AcDbDictionaryWithDefault
340
13
  0
ACDBPLACEHOLDER
  5
13
330
12
  0
DICTIONARY
  5
14
330
A
100
AcDbDictionary
281
1
  0
DICTIONARY
  5
15
330
A
100
AcDbDictionary
281
1
  0
DICTIONARY
  5
16
330
A
100
AcDbDictionary
281
1
  3
2dWireframe
350
5A
  3
Basic
350
5B
  3
Brighten
350
5C
  3
ColorChange
350
5D
  3
Conceptual
350
5E
  3
Dim
350
5F
  3
EdgeColorOff
350
60
  3
Facepattern
350
61
  3
Flat
350
62
  3
FlatWithEdges
350
63
  3
Gouraud
350
64
  3
GouraudWithEdges
350
65
  3
Hidden
350
66
  3
JitterOff
350
67
  3
Linepattern
350
68
  3
Modeling
350
69
  3
OverhangOff
350
6A
  3
Realistic
350
6B
  3
Shaded
350
6C
  3
Shaded with edges
350
6D
  3
Shades of Gray
350
6E
  3
Sketchy
350
6F
  3
Thicken
350
70
  3
Wireframe
350
71
  3
X-Ray
350
72
  0
LAYOUT
  5
1A
330
D
100
AcDbPlotSettings
  1

  4
A3
  6

 40
7.5
 41
20.0
 42
7.5
 43
20.0
 44
420.0
 45
297.0
 46
0.0
 47
0.0
 48
0.0
 49
0.0
140
0.0
141
0.0
142
1.0
143
1.0
 70
1024
 72
1
 73
0
 74
5
  7

 75
16
 76
0
 77
2
 78
300
147
1.0
148
0.0
149
0.0
100
AcDbLayout
  1
Model
 70
1
 71
0
 10
0.0
 20
0.0
 11
420.0
 21
297.0
 12
0.0
 22
0.0
 32
0.0
 14
1e+20
 24
1e+20
 34
1e+20
 15
-1e+20
 25
-1e+20
 35
-1e+20
146
0.0
 13
0.0
 23
0.0
 33
0.0
 16
1.0
 26
0.0
 36
0.0
 17
0.0
 27
1.0
 37
0.0
 76
1
330
17
  0
LAYOUT
  5
1E
330
D
100
AcDbPlotSettings
  1

  4
A3
  6

 40
7.5
 41
20.0
 42
7.5
 43
20.0
 44
420.0
 45
297.0
 46
0.0
 47
0.0
 48
0.0
 49
0.0
140
0.0
141
0.0
142
1.0
143
1.0
 70
0
 72
1
 73
0
 74
5
  7

 75
16
 76
0
 77
2
 78
300
147
1.0
148
0.0
149
0.0
100
AcDbLayout
  1
Layout1
 70
1
 71
1
 10
0.0
 20
0.0
 11
420.0
 21
297.0
 12
0.0
 22
0.0
 32
0.0
 14
1e+20
 24
1e+20
 34
1e+20
 15
-1e+20
 25
-1e+20
 35
-1e+20
146
0.0
 13
0.0
 23
0.0
 33
0.0
 16
1.0
 26
0.0
 36
0.0
 17
0.0
 27
1.0
 37
0.0
 76
1
330
1B
  0
MATERIAL
  5
1F
102
{ACAD_REACTORS
330
E
102
}
330
E
100
AcDbMaterial
  1
ByBlock
  2

 70
0
 40
1.0
 71
1
 41
1.0
 91
-1023410177
 42
1.0
 72
1
  3

 73
1
 74
1
 75
1
 44
0.5
 73
0
 45
1.0
 46
1.0
 77
1
  4

 78
1
 79
1
170
1
 48
1.0
171
1
  6

172
1
173
1
174
1
140
1.0
141
1.0
175
1
  7

176
1
177
1
178
1
143
1.0
179
1
  8

270
1
271
1
272
1
145
1.0
146
1.0
273
1
  9

274
1
275
1
276
1
 42
1.0
 72
1
  3

 73
1
 74
1
 75
1
 94
63
  0
MATERIAL
  5
20
102
{ACAD_REACTORS
330
E
102
}
330
E
100
AcDbMaterial
  1
ByLayer
  2

 70
0
 40
1.0
 71
1
 41
1.0
 91
-1023410177
 42
1.0
 72
1
  3

 73
1
 74
1
 75
1
 44
0.5
 73
0
 45
1.0
 46
1.0
 77
1
  4

 78
1
 79
1
170
1
 48
1.0
171
1
  6

172
1
173
1
174
1
140
1.0
141
1.0
175
1
  7

176
1
177
1
178
1
143
1.0
179
1
  8

270
1
271
1
272
1
145
1.0
146
1.0
273
1
  9

274
1
275
1
276
1
 42
1.0
 72
1
  3

 73
1
 74
1
 75
1
 94
63
  0
MATERIAL
  5
21
102
{ACAD_REACTORS
330
E
102
}
330
E
100
AcDbMaterial
  1
Global
  2

 70
0
 40
1.0
 71
1
 41
1.0
 91
-1023410177
 42
1.0
 72
1
  3

 73
1
 74
1
 75
1
 44
0.5
 73
0
 45
1.0
 46
1.0
 77
1
  4

 78
1
 79
1
170
1
 48
1.0
171
1
  6

172
1
173
1
174
1
140
1.0
141
1.0
175
1
  7

176
1
177
1
178
1
143
1.0
179
1
  8

270
1
271
1
272
1
145
1.0
146
1.0
273
1
  9

274
1
275
1
276
1
 42
1.0
 72
1
  3

 73
1
 74
1
 75
1
 94
63
  0
MLINESTYLE
  5
22
102
{ACAD_REACTORS
330
10
102
}
330
10
100
AcDbMlineStyle
  2
Standard
 70
0
  3

 62
256
 51
90.0
 52
90.0
 71
2
 49
0.5
 62
256
  6
BYLAYER
 49
-0.5
 62
256
  6
BYLAYER
  0
MLEADERSTYLE
  5
2C
102
{ACAD_REACTORS
330
F
102
}
330
F
100
AcDbMLeaderStyle
179
2
170
2
171
1
172
0
 90
2
 40
0.0
 41
0.0
173
1
 91
-1056964608
 92
-2
290
1
 42
2.0
291
1
 43
8.0
  3
Standard
 44
4.0
300

342
29
174
1
175
1
176
0
178
1
 93
-1056964608
 45
4.0
292
0
297
0
 46
4.0
 94
-1056964608
 47
1.0
 49
1.0
140
1.0
294
1
141
0.0
177
0
142
1.0
295
0
296
0
143
3.75
271
0
272
9
273
9
  0
DICTIONARY
  5
2D
330
A
100
AcDbDictionary
280
1
281
1
  3
CREATED_BY_EZDXF
350
2E
  3
WRITTEN_BY_EZDXF
350
9A
  0
DICTIONARYVAR
  5
2E
330
2D
100
DictionaryVariables
280
0
  1
1.4.2 @ 2026-09-06T09:28:59.689241+00:00
  0
VISUALSTYLE
  5
5A
102
{ACAD_REACTORS
330
16
102
}
330
16
100
AcDbVisualStyle
  2
2dWireframe
 70
4
 90
0
 40
0.6
 62
7
290
0
291
0
  0
VISUALSTYLE
  5
5B
102
{ACAD_REACTORS
330
16
102
}
330
16
100
AcDbVisualStyle
  2
Basic
 70
7
 90
1
 40
0.6
 62
7
290
0
291
1
  0
VISUALSTYLE
  5
5C
102
{ACAD_REACTORS
330
16
102
}
330
16
100
AcDbVisualStyle
  2
Brighten
 70
12
 90
2
 40
0.6
 62
7
290
0
291
1
  0
VISUALSTYLE
  5
5D
102
{ACAD_REACTORS
330
16
102
}
330
16
100
AcDbVisualStyle
  2
ColorChange
 70
16
 90
2
 40
0.6
 62
8
290
0
291
1
  0
VISUALSTYLE
  5
5E
102
{ACAD_REACTORS
330
16
102
}
330
16
100
AcDbVisualStyle
  2
Conceptual
 70
9
 90
3
 40
0.6
 62
7
290
0
291
0
  0
VISUALSTYLE
  5
5F
102
{ACAD_REACTORS
330
16
102
}
330
16
100
AcDbVisualStyle
  2
Dim
 70
11
 90
2
 40
0.6
 62
7
290
0
291
1
  0
VISUALSTYLE
  5
60
102
{ACAD_REACTORS
330
16
102
}
330
16
100
AcDbVisualStyle
  2
EdgeColorOff
 70
22
 90
2
 40
0.6
 62
7
290
0
291
1
  0
VISUALSTYLE
  5
61
102
{ACAD_REACTORS
330
16
102
}
330
16
100
AcDbVisualStyle
  2
Facepattern
 70
15
 90
2
 40
0.6
 62
7
290
0
291
1
  0
VISUALSTYLE
  5
62
102
{ACAD_REACTORS
330
16
102
}
330
16
100
AcDbVisualStyle
  2
Flat
 70
0
 90
2
 40
0.6
 62
7
290
0
291
1
  0
VISUALSTYLE
  5
63
102
{ACAD_REACTORS
330
16
102
}
330
16
100
AcDbVisualStyle
  2
FlatWithEdges
 70
1
 90
2
 40
0.6
 62
7
290
0
291
1
  0
VISUALSTYLE
  5
64
102
{ACAD_REACTORS
330
16
102
}
330
16
100
AcDbVisualStyle
  2
Gouraud
 70
2
 90
2
 40
0.6
 62
7
290
0
291
1
  0
VISUALSTYLE
  5
65
102
{ACAD_REACTORS
330
16
102
}
330
16
100
AcDbVisualStyle
  2
GouraudWithEdges
 70
3
 90
2
 40
0.6
 62
7
290
0
291
1
  0
VISUALSTYLE
  5
66
102
{ACAD_REACTORS
330
16
102
}
330
16
100
AcDbVisualStyle
  2
Hidden
 70
6
 90
1
 40
0.6
 62
7
290
0
291
0
  0
VISUALSTYLE
  5
67
102
{ACAD_REACTORS
330
16
102
}
330
16
100
AcDbVisualStyle
  2
JitterOff
 70
20
 90
2
 40
0.6
 62
7
290
0
291
1
  0
VISUALSTYLE
  5
68
102
{ACAD_REACTORS
330
16
102
}
330
16
100
AcDbVisualStyle
  2
Linepattern
 70
14
 90
2
 40
0.6
 62
7
290
0
291
1
  0
VISUALSTYLE
  5
69
102
{ACAD_REACTORS
330
16
102
}
330
16
100
AcDbVisualStyle
  2
Modeling
 70
10
 90
2
 40
0.6
 62
7
290
0
291
0
  0
VISUALSTYLE
  5
6A
102
{ACAD_REACTORS
330
16
102
}
330
16
100
AcDbVisualStyle
  2
OverhangOff
 70
21
 90
2
 40
0.6
 62
7
290
0
291
1
  0
VISUALSTYLE
  5
6B
102
{ACAD_REACTORS
330
16
102
}
330
16
100
AcDbVisualStyle
  2
Realistic
 70
8
 90
2
 40
0.6
 62
7
290
0
291
0
  0
VISUALSTYLE
  5
6C
102
{ACAD_REACTORS
330
16
102
}
330
16
100
AcDbVisualStyle
  2
Shaded
 70
27
 90
2
 40
0.6
 62
7
290
0
291
0
  0
VISUALSTYLE
  5
6D
102
{ACAD_REACTORS
330
16
102
}
330
16
100
AcDbVisualStyle
  2
Shaded with edges
 70
26
 90
2
 40
0.6
 62
7
290
0
291
0
  0
VISUALSTYLE
  5
6E
102
{ACAD_REACTORS
330
16
102
}
330
16
100
AcDbVisualStyle
  2
Shades of Gray
 70
23
 90
2
 40
0.6
 62
7
290
0
291
0
  0
VISUALSTYLE
  5
6F
102
{ACAD_REACTORS
330
16
102
}
330
16
100
AcDbVisualStyle
  2
Sketchy
 70
24
 90
1
 40
0.6
 62
7
290
0
291
0
  0
VISUALSTYLE
  5
70
102
{ACAD_REACTORS
330
16
102
}
330
16
100
AcDbVisualStyle
  2
Thicken
 70
13
 90
2
 40
0.6
 62
7
290
0
291
1
  0
VISUALSTYLE
  5
71
102
{ACAD_REACTORS
330
16
102
}
330
16
100
AcDbVisualStyle
  2
Wireframe
 70
5
 90
0
 40
0.6
 62
7
290
0
291
0
  0
VISUALSTYLE
  5
72
102
{ACAD_REACTORS
330
16
102
}
330
16
100
AcDbVisualStyle
  2
X-Ray
 70
25
 90
2
 40
0.5
 62
7
290
0
291
0
  0
DICTIONARYVAR
  5
9A
330
2D
100
DictionaryVariables
280
0
  1
1.4.2 @ 2026-09-06T09:28:59.699032+00:00
  0
ENDSEC
  0
EOF
