  0
SECTION
  2
HEADER
  9
$ACADVER
  1
AC1024
  9
$ACADMAINTVER
 70
6
  9
$DWGCODEPAGE
  3
ANSI_1252
  9
$LASTSAVEDBY
  1
ezdxf
  9
$INSBASE
 10
0.0
 20
0.0
 30
0.0
  9
$EXTMIN
 10
1e+20
 20
1e+20
 30
1e+20
  9
$EXTMAX
 10
-1e+20
 20
-1e+20
 30
-1e+20
  9
$LIMMIN
 10
0.0
 20
0.0
  9
$LIMMAX
 10
420.0
 20
297.0
  9
$ORTHOMODE
 70
0
  9
$REGENMODE
 70
1
  9
$FILLMODE
 70
1
  9
$QTEXTMODE
 70
0
  9
$MIRRTEXT
 70
1
  9
$LTSCALE
 40
1.0
  9
$ATTMODE
 70
1
  9
$TEXTSIZE
 40
2.5
  9
$TRACEWID
 40
1.0
  9
$TEXTSTYLE
  7
OpenSans
  9
$CLAYER
  8
0
  9
$CELTYPE
  6
ByLayer
  9
$CECOLOR
 62
256
  9
$CELTSCALE
 40
1.0
  9
$DISPSILH
 70
0
  9
$DIMSCALE
 40
1.0
  9
$DIMASZ
 40
0.175
  9
$DIMEXO
 40
0.125
  9
$DIMDLI
 40
3.75
  9
$DIMRND
 40
0.0
  9
$DIMDLE
 40
0.0
  9
$DIMEXE
 40
0.375
  9
$DIMTP
 40
0.0
  9
$DIMTM
 40
0.0
  9
$DIMTXT
 40
0.25
  9
$DIMCEN
 40
2.5
  9
$DIMTSZ
 40
0.0
  9
$DIMTOL
 70
0
  9
$DIMLIM
 70
0
  9
$DIMTIH
 70
0
  9
$DIMTOH
 70
0
  9
$DIMSE1
 70
0
  9
$DIMSE2
 70
0
  9
$DIMTAD
 70
1
  9
$DIMZIN
 70
12
  9
$DIMBLK
  1
ARCHTICK
  9
$DIMASO
 70
1
  9
$DIMSHO
 70
1
  9
$DIMPOST
  1

  9
$DIMAPOST
  1

  9
$DIMALT
 70
0
  9
$DIMALTD
 70
3
  9
$DIMALTF
 40
0.03937007874
  9
$DIMLFAC
 40
100.0
  9
$DIMTOFL
 70
1
  9
$DIMTVP
 40
0.0
  9
$DIMTIX
 70
0
  9
$DIMSOXD
 70
0
  9
$DIMSAH
 70
0
  9
$DIMBLK1
  1

  9
$DIMBLK2
  1

  9
$DIMSTYLE
  2
EZDXF
  9
$DIMCLRD
 70
0
  9
$DIMCLRE
 70
0
  9
$DIMCLRT
 70
0
  9
$DIMTFAC
 40
0.5
  9
$DIMGAP
 40
0.1
  9
$DIMJUST
 70
0
  9
$DIMSD1
 70
0
  9
$DIMSD2
 70
0
  9
$DIMTOLJ
 70
0
  9
$DIMTZIN
 70
8
  9
$DIMALTZ
 70
0
  9
$DIMALTTZ
 70
0
  9
$DIMUPT
 70
1
  9
$DIMDEC
 70
2
  9
$DIMTDEC
 70
2
  9
$DIMALTU
 70
2
  9
$DIMALTTD
 70
3
  9
$DIMTXSTY
  7
OpenSansCondensed-Light
  9
$DIMAUNIT
 70
0
  9
$DIMADEC
 70
2
  9
$DIMALTRND
 40
0.0
  9
$DIMAZIN
 70
3
  9
$DIMDSEP
 70
46
  9
$DIMATFIT
 70
3
  9
$DIMFRAC
 70
0
  9
$DIMLDRBLK
  1

  9
$DIMLUNIT
 70
2
  9
$DIMLWD
 70
-2
  9
$DIMLWE
 70
-2
  9
$DIMTMOVE
 70
2
  9
$DIMFXL
 40
1.0
  9
$DIMFXLON
 70
0
  9
$DIMJOGANG
 40
0.785398163397
  9
$DIMTFILL
 70
0
  9
$DIMTFILLCLR
 70
0
  9
$DIMARCSYM
 70
0
  9
$DIMLTYPE
  6

  9
$DIMLTEX1
  6

  9
$DIMLTEX2
  6

  9
$DIMTXTDIRECTION
 70
0
  9
$LUNITS
 70
2
  9
$LUPREC
 70
4
  9
$SKETCHINC
 40
1.0
  9
$FILLETRAD
 40
10.0
  9
$AUNITS
 70
0
  9
$AUPREC
 70
2
  9
$MENU
  1
.
  9
$ELEVATION
 40
0.0
  9
$PELEVATION
 40
0.0
  9
$THICKNESS
 40
0.0
  9
$LIMCHECK
 70
0
  9
$CHAMFERA
 40
0.0
  9
$CHAMFERB
 40
0.0
  9
$CHAMFERC
 40
0.0
  9
$CHAMFERD
 40
0.0
  9
$SKPOLY
 70
0
  9
$TDCREATE
 40
2461290.1451273146
  9
$TDUCREATE
 40
2458532.153996898
  9
$TDUPDATE
 40
2461290.1451273146
  9
$TDUUPDATE
 40
2458532.1544311
  9
$TDINDWG
 40
0.0
  9
$TDUSRTIMER
 40
0.0
  9
$USRTIMER
 70
1
  9
$ANGBASE
 50
0.0
  9
$ANGDIR
 70
0
  9
$PDMODE
 70
0
  9
$PDSIZE
 40
0.0
  9
$PLINEWID
 40
0.0
  9
$SPLFRAME
 70
0
  9
$SPLINETYPE
 70
6
  9
$SPLINESEGS
 70
8
  9
$HANDSEED
  5
99
  9
$SURFTAB1
 70
6
  9
$SURFTAB2
 70
6
  9
$SURFTYPE
 70
6
  9
$SURFU
 70
6
  9
$SURFV
 70
6
  9
$UCSBASE
  2

  9
$UCSNAME
  2

  9
$UCSORG
 10
0.0
 20
0.0
 30
0.0
  9
$UCSXDIR
 10
1.0
 20
0.0
 30
0.0
  9
$UCSYDIR
 10
0.0
 20
1.0
 30
0.0
  9
$UCSORTHOREF
  2

  9
$UCSORTHOVIEW
 70
0
  9
$UCSORGTOP
 10
0.0
 20
0.0
 30
0.0
  9
$UCSORGBOTTOM
 10
0.0
 20
0.0
 30
0.0
  9
$UCSORGLEFT
 10
0.0
 20
0.0
 30
0.0
  9
$UCSORGRIGHT
 10
0.0
 20
0.0
 30
0.0
  9
$UCSORGFRONT
 10
0.0
 20
0.0
 30
0.0
  9
$UCSORGBACK
 10
0.0
 20
0.0
 30
0.0
  9
$PUCSBASE
  2

  9
$PUCSNAME
  2

  9
$PUCSORG
 10
0.0
 20
0.0
 30
0.0
  9
$PUCSXDIR
 10
1.0
 20
0.0
 30
0.0
  9
$PUCSYDIR
 10
0.0
 20
1.0
 30
0.0
  9
$PUCSORTHOREF
  2

  9
$PUCSORTHOVIEW
 70
0
  9
$PUCSORGTOP
 10
0.0
 20
0.0
 30
0.0
  9
$PUCSORGBOTTOM
 10
0.0
 20
0.0
 30
0.0
  9
$PUCSORGLEFT
 10
0.0
 20
0.0
 30
0.0
  9
$PUCSORGRIGHT
 10
0.0
 20
0.0
 30
0.0
  9
$PUCSORGFRONT
 10
0.0
 20
0.0
 30
0.0
  9
$PUCSORGBACK
 10
0.0
 20
0.0
 30
0.0
  9
$USERI1
 70
0
  9
$USERI2
 70
0
  9
$USERI3
 70
0
  9
$USERI4
 70
0
  9
$USERI5
 70
0
  9
$USERR1
 40
0.0
  9
$USERR2
 40
0.0
  9
$USERR3
 40
0.0
  9
$USERR4
 40
0.0
  9
$USERR5
 40
0.0
  9
$WORLDVIEW
 70
1
  9
$SHADEDGE
 70
3
  9
$SHADEDIF
 70
70
  9
$TILEMODE
 70
1
  9
$MAXACTVP
 70
64
  9
$PINSBASE
 10
0.0
 20
0.0
 30
0.0
  9
$PLIMCHECK
 70
0
  9
$PEXTMIN
 10
1e+20
 20
1e+20
 30
1e+20
  9
$PEXTMAX
 10
-1e+20
 20
-1e+20
 30
-1e+20
  9
$PLIMMIN
 10
0.0
 20
0.0
  9
$PLIMMAX
 10
420.0
 20
297.0
  9
$UNITMODE
 70
0
  9
$VISRETAIN
 70
1
  9
$PLINEGEN
 70
0
  9
$PSLTSCALE
 70
1
  9
$TREEDEPTH
 70
3020
  9
$CMLSTYLE
  2
Standard
  9
$CMLJUST
 70
0
  9
$CMLSCALE
 40
20.0
  9
$PROXYGRAPHICS
 70
1
  9
$MEASUREMENT
 70
1
  9
$CELWEIGHT
370
-1
  9
$ENDCAPS
280
0
  9
$JOINSTYLE
280
0
  9
$LWDISPLAY
290
0
  9
$INSUNITS
 70
4
  9
$HYPERLINKBASE
  1

  9
$STYLESHEET
  1

  9
$XEDIT
290
1
  9
$CEPSNTYPE
380
0
  9
$PSTYLEMODE
290
1
  9
$FINGERPRINTGUID
  2
{FEE8D14F-C8E1-4455-BB56-C3D085976512}
  9
$VERSIONGUID
  2
{B9690F83-CAAD-4B31-BDB9-7CE208F2647C}
  9
$EXTNAMES
290
1
  9
$PSVPSCALE
 40
0.0
  9
$OLESTARTUP
290
0
  9
$SORTENTS
280
127
  9
$INDEXCTL
280
0
  9
$HIDETEXT
280
1
  9
$XCLIPFRAME
280
1
  9
$HALOGAP
280
0
  9
$OBSCOLOR
 70
257
  9
$OBSLTYPE
280
0
  9
$INTERSECTIONDISPLAY
280
0
  9
$INTERSECTIONCOLOR
 70
257
  9
$DIMASSOC
280
2
  9
$PROJECTNAME
  1

  9
$CAMERADISPLAY
290
0
  9
$LENSLENGTH
 40
50.0
  9
$CAMERAHEIGHT
 40
0.0
  9
$STEPSPERSEC
 40
24.0
  9
$STEPSIZE
 40
100.0
  9
$3DDWFPREC
 40
2.0
  9
$PSOLWIDTH
 40
0.005
  9
$PSOLHEIGHT
 40
0.08
  9
$LOFTANG1
 40
1.570796326795
  9
$LOFTANG2
 40
1.570796326795
  9
$LOFTMAG1
 40
0.0
  9
$LOFTMAG2
 40
0.0
  9
$LOFTPARAM
 70
7
  9
$LOFTNORMALS
280
1
  9
$LATITUDE
 40
37.795
  9
$LONGITUDE
 40
-122.394
  9
$NORTHDIRECTION
 40
0.0
  9
$TIMEZONE
 70
-8000
  9
$LIGHTGLYPHDISPLAY
280
1
  9
$TILEMODELIGHTSYNCH
280
1
  9
$CMATERIAL
347
20
  9
$SOLIDHIST
280
0
  9
$SHOWHIST
280
1
  9
$DWFFRAME
280
2
  9
$DGNFRAME
280
2
  9
$REALWORLDSCALE
290
1
  9
$INTERFERECOLOR
 62
256
  9
$CSHADOW
280
0
  9
$SHADOWPLANELOCATION
 40
0.0
  0
ENDSEC
  0
SECTION
  2
CLASSES
  0
CLASS
  1
ACDBDICTIONARYWDFLT
  2
AcDbDictionaryWithDefault
  3
ObjectDBX Classes
 90
0
 91
0
280
0
281
0
  0
CLASS
  1
SUN
  2
AcDbSun
  3
SCENEOE
 90
1153
 91
0
280
0
281
0
  0
CLASS
  1
VISUALSTYLE
  2
AcDbVisualStyle
  3
ObjectDBX Classes
 90
4095
 91
0
280
0
281
0
  0
CLASS
  1
MATERIAL
  2
AcDbMaterial
  3
ObjectDBX Classes
 90
1153
 91
0
280
0
281
0
  0
CLASS
  1
SCALE
  2
AcDbScale
  3
ObjectDBX Classes
 90
1153
 91
0
280
0
281
0
  0
CLASS
  1
TABLESTYLE
  2
AcDbTableStyle
  3
ObjectDBX Classes
 90
4095
 91
0
280
0
281
0
  0
CLASS
  1
MLEADERSTYLE
  2
AcDbMLeaderStyle
  3
ACDB_MLEADERSTYLE_CLASS
 90
4095
 91
0
280
0
281
0
  0
CLASS
  1
DICTIONARYVAR
  2
AcDbDictionaryVar
  3
ObjectDBX Classes
 90
0
 91
0
280
0
281
0
  0
CLASS
  1
CELLSTYLEMAP
  2
AcDbCellStyleMap
  3
ObjectDBX Classes
 90
1152
 91
0
280
0
281
0
  0
CLASS
  1
MENTALRAYRENDERSETTINGS
  2
AcDbMentalRayRenderSettings
  3
SCENEOE
 90
1024
 91
0
280
0
281
0
  0
CLASS
  1
ACDBDETAILVIEWSTYLE
  2
AcDbDetailViewStyle
  3
ObjectDBX Classes
 90
1025
 91
0
280
0
281
0
  0
CLASS
  1
ACDBSECTIONVIEWSTYLE
  2
AcDbSectionViewStyle
  3
ObjectDBX Classes
 90
1025
 91
0
280
0
281
0
  0
CLASS
  1
RASTERVARIABLES
  2
AcDbRasterVariables
  3
ISM
 90
0
 91
0
280
0
281
0
  0
CLASS
  1
LAYOUT
  2
AcDbLayout
  3
ObjectDBX Classes
 90
0
 91
0
280
0
281
0
  0
CLASS
  1
ACDBPLACEHOLDER
  2
AcDbPlaceHolder
  3
ObjectDBX Classes
 90
0
 91
0
280
0
281
0
  0
ENDSEC
  0
SECTION
  2
TABLES
  0
TABLE
  2
VPORT
  5
8
330
0
100
AcDbSymbolTable
 70
1
  0
VPORT
  5
23
330
8
100
AcDbSymbolTableRecord
100
AcDbViewportTableRecord
  2
*Active
 70
0
 10
0.0
 20
0.0
 11
1.0
 21
1.0
 12
0.0
 22
0.0
 13
0.0
 23
0.0
 14
0.5
 24
0.5
 15
0.5
 25
0.5
 16
0.0
 26
0.0
 36
1.0
 17
0.0
 27
0.0
 37
0.0
 40
1000.0
 41
1.34
 42
50.0
 43
0.0
 44
0.0
 50
0.0
 51
0.0
 71
0
 72
1000
 73
1
 74
3
 75
0
 76
0
 77
0
 78
0
281
0
 65
0
146
0.0
  0
ENDTAB
  0
TABLE
  2
LTYPE
  5
2
330
0
100
AcDbSymbolTable
 70
21
  0
LTYPE
  5
24
330
2
100
AcDbSymbolTableRecord
100
AcDbLinetypeTableRecord
  2
ByBlock
 70
0
  3

 72
65
 73
0
 40
0.0
  0
LTYPE
  5
25
330
2
100
AcDbSymbolTableRecord
100
AcDbLinetypeTableRecord
  2
ByLayer
 70
0
  3

 72
65
 73
0
 40
0.0
  0
LTYPE
  5
26
330
2
100
AcDbSymbolTableRecord
100
AcDbLinetypeTableRecord
  2
Continuous
 70
0
  3

 72
65
 73
0
 40
0.0
  0
LTYPE
  5
2F
330
2
100
AcDbSymbolTableRecord
100
AcDbLinetypeTableRecord
  2
CENTER
 70
0
  3
Center ____ _ ____ _ ____ _ ____ _ ____ _ ____
 72
65
 73
4
 40
5.08
 49
3.175
 74
0
 49
-0.635
 74
0
 49
0.635
 74
0
 49
-0.635
 74
0
  0
LTYPE
  5
30
330
2
100
AcDbSymbolTableRecord
100
AcDbLinetypeTableRecord
  2
CENTERX2
 70
0
  3
Center (2x) ________  __  ________  __  ________
 72
65
 73
4
 40
8.89
 49
6.35
 74
0
 49
-0.635
 74
0
 49
1.27
 74
0
 49
-0.635
 74
0
  0
LTYPE
  5
31
330
2
100
AcDbSymbolTableRecord
100
AcDbLinetypeTableRecord
  2
CENTER2
 70
0
  3
Center (.5x) ____ _ ____ _ ____ _ ____ _ ____
 72
65
 73
4
 40
2.54
 49
1.587
 74
0
 49
-0.318
 74
0
 49
0.318
 74
0
 49
-0.318
 74
0
  0
LTYPE
  5
32
330
2
100
AcDbSymbolTableRecord
100
AcDbLinetypeTableRecord
  2
DASHED
 70
0
  3
Dashed __ __ __ __ __ __ __ __ __ __ __ __ __ _
 72
65
 73
2
 40
1.524
 49
1.27
 74
0
 49
-0.254
 74
0
  0
LTYPE
  5
33
330
2
100
AcDbSymbolTableRecord
100
AcDbLinetypeTableRecord
  2
DASHEDX2
 70
0
  3
Dashed (2x) ____  ____  ____  ____  ____  ____
 72
65
 73
2
 40
3.048
 49
2.54
 74
0
 49
-0.508
 74
0
  0
LTYPE
  5
34
330
2
100
AcDbSymbolTableRecord
100
AcDbLinetypeTableRecord
  2
DASHED2
 70
0
  3
Dashed (.5x) _ _ _ _ _ _ _ _ _ _ _ _ _ _
 72
65
 73
2
 40
0.762
 49
0.635
 74
0
 49
-0.127
 74
0
  0
LTYPE
  5
35
330
2
100
AcDbSymbolTableRecord
100
AcDbLinetypeTableRecord
  2
PHANTOM
 70
0
  3
Phantom ______  __  __  ______  __  __  ______
 72
65
 73
6
 40
6.35
 49
3.175
 74
0
 49
-0.635
 74
0
 49
0.635
 74
0
 49
-0.635
 74
0
 49
0.635
 74
0
 49
-0.635
 74
0
  0
LTYPE
  5
36
330
2
100
AcDbSymbolTableRecord
100
AcDbLinetypeTableRecord
  2
PHANTOMX2
 70
0
  3
Phantom (2x)____________    ____    ____    ____________
 72
65
 73
6
 40
10.795
 49
6.35
 74
0
 49
-0.635
 74
0
 49
1.27
 74
0
 49
-0.635
 74
0
 49
1.27
 74
0
 49
-0.635
 74
0
  0
LTYPE
  5
37
330
2
100
AcDbSymbolTableRecord
100
AcDbLinetypeTableRecord
  2
PHANTOM2
 70
0
  3
Phantom (.5x) ___ _ _ ___ _ _ ___ _ _ ___ _ _ ___
 72
65
 73
6
 40
3.175
 49
1.587
 74
0
 49
-0.318
 74
0
 49
0.318
 74
0
 49
-0.318
 74
0
 49
0.318
 74
0
 49
-0.318
 74
0
  0
LTYPE
  5
38
330
2
100
AcDbSymbolTableRecord
100
AcDbLinetypeTableRecord
  2
DASHDOT
 70
0
  3
Dash dot __ . __ . __ . __ . __ . __ . __ . __
 72
65
 73
4
 40
3.556
 49
2.54
 74
0
 49
-0.508
 74
0
 49
0.0
 74
0
 49
-0.508
 74
0
  0
LTYPE
  5
39
330
2
100
AcDbSymbolTableRecord
100
AcDbLinetypeTableRecord
  2
DASHDOTX2
 70
0
  3
Dash dot (2x) ____  .  ____  .  ____  .  ____
 72
65
 73
4
 40
6.096
 49
5.08
 74
0
 49
-0.508
 74
0
 49
0.0
 74
0
 49
-0.508
 74
0
  0
LTYPE
  5
3A
330
2
100
AcDbSymbolTableRecord
100
AcDbLinetypeTableRecord
  2
DASHDOT2
 70
0
  3
Dash dot (.5x) _ . _ . _ . _ . _ . _ . _ . _
 72
65
 73
4
 40
1.778
 49
1.27
 74
0
 49
-0.254
 74
0
 49
0.0
 74
0
 49
-0.254
 74
0
  0
LTYPE
  5
3B
330
2
100
AcDbSymbolTableRecord
100
AcDbLinetypeTableRecord
  2
DOT
 70
0
  3
Dot .  .  .  .  .  .  .  .  .  .  .  .  .  .  .  .
 72
65
 73
2
 40
0.508
 49
0.0
 74
0
 49
-0.508
 74
0
  0
LTYPE
  5
3C
330
2
100
AcDbSymbolTableRecord
100
AcDbLinetypeTableRecord
  2
DOTX2
 70
0
  3
Dot (2x) .    .    .    .    .    .    .    . 
 72
65
 73
2
 40
1.016
 49
0.0
 74
0
 49
-1.016
 74
0
  0
LTYPE
  5
3D
330
2
100
AcDbSymbolTableRecord
100
AcDbLinetypeTableRecord
  2
DOT2
 70
0
  3
Dot (.5) . . . . . . . . . . . . . . . . . . . 
 72
65
 73
2
 40
0.254
 49
0.0
 74
0
 49
-0.254
 74
0
  0
LTYPE
  5
3E
330
2
100
AcDbSymbolTableRecord
100
AcDbLinetypeTableRecord
  2
DIVIDE
 70
0
  3
Divide __ . . __ . . __ . . __ . . __ . . __
 72
65
 73
6
 40
4.064
 49
2.54
 74
0
 49
-0.508
 74
0
 49
0.0
 74
0
 49
-0.508
 74
0
 49
0.0
 74
0
 49
-0.508
 74
0
  0
LTYPE
  5
3F
330
2
100
AcDbSymbolTableRecord
100
AcDbLinetypeTableRecord
  2
DIVIDEX2
 70
0
  3
Divide (2x) ____  . .  ____  . .  ____  . .  ____
 72
65
 73
6
 40
6.604
 49
5.08
 74
0
 49
-0.508
 74
0
 49
0.0
 74
0
 49
-0.508
 74
0
 49
0.0
 74
0
 49
-0.508
 74
0
  0
LTYPE
  5
40
330
2
100
AcDbSymbolTableRecord
100
AcDbLinetypeTableRecord
  2
DIVIDE2
 70
0
  3
Divide(.5x) _ . _ . _ . _ . _ . _ . _ . _
 72
65
 73
6
 40
2.032
 49
1.27
 74
0
 49
-0.254
 74
0
 49
0.0
 74
0
 49
-0.254
 74
0
 49
0.0
 74
0
 49
-0.254
 74
0
  0
ENDTAB
  0
TABLE
  2
LAYER
  5
1
330
0
100
AcDbSymbolTable
 70
5
  0
LAYER
  5
27
330
1
100
AcDbSymbolTableRecord
100
AcDbLayerTableRecord
  2
0
 70
0
 62
7
  6
Continuous
370
-3
390
13
347
21
  0
LAYER
  5
28
330
1
100
AcDbSymbolTableRecord
100
AcDbLayerTableRecord
  2
Defpoints
 70
0
 62
7
  6
Continuous
290
0
370
-3
390
13
347
21
  0
LAYER
  5
8A
330
1
100
AcDbSymbolTableRecord
100
AcDbLayerTableRecord
  2
CORTE
 70
0
 62
1
  6
Continuous
370
-3
390
13
347
21
  0
LAYER
  5
8B
330
1
100
AcDbSymbolTableRecord
100
AcDbLayerTableRecord
  2
GRABADO
 70
0
 62
5
  6
Continuous
370
-3
390
13
347
21
  0
LAYER
  5
8C
330
1
100
AcDbSymbolTableRecord
100
AcDbLayerTableRecord
  2
HOJA
 70
0
 62
8
  6
Continuous
370
-3
390
13
347
21
  0
ENDTAB
  0
TABLE
  2
STYLE
  5
5
330
0
100
AcDbSymbolTable
 70
26
  0
STYLE
  5
29
330
5
100
AcDbSymbolTableRecord
100
AcDbTextStyleTableRecord
  2
Standard
 70
0
 40
0.0
 41
1.0
 50
0.0
 71
0
 42
2.5
  3
txt
  4

  0
STYLE
  5
41
330
5
100
AcDbSymbolTableRecord
100
AcDbTextStyleTableRecord
  2
OpenSans-Light
 70
0
 40
0.0
 41
1.0
 50
0.0
 71
0
 42
2.5
  3
OpenSans-Light.ttf
  4

  0
STYLE
  5
42
330
5
100
AcDbSymbolTableRecord
100
AcDbTextStyleTableRecord
  2
OpenSans-Light-Italic
 70
0
 40
0.0
 41
1.0
 50
0.0
 71
0
 42
2.5
  3
OpenSans-LightItalic.ttf
  4

  0
STYLE
  5
43
330
5
100
AcDbSymbolTableRecord
100
AcDbTextStyleTableRecord
  2
OpenSans
 70
0
 40
0.0
 41
1.0
 50
0.0
 71
0
 42
2.5
  3
OpenSans-Regular.ttf
  4

  0
STYLE
  5
44
330
5
100
AcDbSymbolTableRecord
100
AcDbTextStyleTableRecord
  2
OpenSans-Italic
 70
0
 40
0.0
 41
1.0
 50
0.0
 71
0
 42
2.5
  3
OpenSans-Italic.ttf
  4

  0
STYLE
  5
45
330
5
100
AcDbSymbolTableRecord
100
AcDbTextStyleTableRecord
  2
OpenSans-SemiBold
 70
0
 40
0.0
 41
1.0
 50
0.0
 71
0
 42
2.5
  3
OpenSans-SemiBold.ttf
  4

  0
STYLE
  5
46
330
5
100
AcDbSymbolTableRecord
100
AcDbTextStyleTableRecord
  2
OpenSans-SemiBoldItalic
 70
0
 40
0.0
 41
1.0
 50
0.0
 71
0
 42
2.5
  3
OpenSans-SemiBoldItalic.ttf
  4

  0
STYLE
  5
47
330
5
100
AcDbSymbolTableRecord
100
AcDbTextStyleTableRecord
  2
OpenSans-Bold
 70
0
 40
0.0
 41
1.0
 50
0.0
 71
0
 42
2.5
  3
OpenSans-Bold.ttf
  4

  0
STYLE
  5
48
330
5
100
AcDbSymbolTableRecord
100
AcDbTextStyleTableRecord
  2
OpenSans-BoldItalic
 70
0
 40
0.0
 41
1.0
 50
0.0
 71
0
 42
2.5
  3
OpenSans-BoldItalic.ttf
  4

  0
STYLE
  5
49
330
5
100
AcDbSymbolTableRecord
100
AcDbTextStyleTableRecord
  2
OpenSans-ExtraBold
 70
0
 40
0.0
 41
1.0
 50
0.0
 71
0
 42
2.5
  3
OpenSans-ExtraBold.ttf
  4

  0
STYLE
  5
4A
330
5
100
AcDbSymbolTableRecord
100
AcDbTextStyleTableRecord
  2
OpenSans-ExtraBoldItalic
 70
0
 40
0.0
 41
1.0
 50
0.0
 71
0
 42
2.5
  3
OpenSans-ExtraBoldItalic.ttf
  4

  0
STYLE
  5
4B
330
5
100
AcDbSymbolTableRecord
100
AcDbTextStyleTableRecord
  2
OpenSansCondensed-Bold
 70
0
 40
0.0
 41
1.0
 50
0.0
 71
0
 42
2.5
  3
OpenSansCondensed-Bold.ttf
  4

  0
STYLE
  5
4C
330
5
100
AcDbSymbolTableRecord
100
AcDbTextStyleTableRecord
  2
OpenSansCondensed-Light
 70
0
 40
0.0
 41
1.0
 50
0.0
 71
0
 42
2.5
  3
OpenSansCondensed-Light.ttf
  4

  0
STYLE
  5
4D
330
5
100
AcDbSymbolTableRecord
100
AcDbTextStyleTableRecord
  2
OpenSansCondensed-Italic
 70
0
 40
0.0
 41
1.0
 50
0.0
 71
0
 42
2.5
  3
OpenSansCondensed-LightItalic.ttf
  4

  0
STYLE
  5
4E
330
5
100
AcDbSymbolTableRecord
100
AcDbTextStyleTableRecord
  2
LiberationSans
 70
0
 40
0.0
 41
1.0
 50
0.0
 71
0
 42
2.5
  3
LiberationSans-Regular.ttf
  4

  0
STYLE
  5
4F
330
5
100
AcDbSymbolTableRecord
100
AcDbTextStyleTableRecord
  2
LiberationSans-Bold
 70
0
 40
0.0
 41
1.0
 50
0.0
 71
0
 42
2.5
  3
LiberationSans-Bold.ttf
  4

  0
STYLE
  5
50
330
5
100
AcDbSymbolTableRecord
100
AcDbTextStyleTableRecord
  2
LiberationSans-BoldItalic
 70
0
 40
0.0
 41
1.0
 50
0.0
 71
0
 42
2.5
  3
LiberationSans-BoldItalic.ttf
  4

  0
STYLE
  5
51
330
5
100
AcDbSymbolTableRecord
100
AcDbTextStyleTableRecord
  2
LiberationSans-Italic
 70
0
 40
0.0
 41
1.0
 50
0.0
 71
0
 42
2.5
  3
LiberationSans-Italic.ttf
  4

  0
STYLE
  5
52
330
5
100
AcDbSymbolTableRecord
100
AcDbTextStyleTableRecord
  2
LiberationSerif
 70
0
 40
0.0
 41
1.0
 50
0.0
 71
0
 42
2.5
  3
LiberationSerif-Regular.ttf
  4

  0
STYLE
  5
53
330
5
100
AcDbSymbolTableRecord
100
AcDbTextStyleTableRecord
  2
LiberationSerif-Bold
 70
0
 40
0.0
 41
1.0
 50
0.0
 71
0
 42
2.5
  3
LiberationSerif-Bold.ttf
  4

  0
STYLE
  5
54
330
5
100
AcDbSymbolTableRecord
100
AcDbTextStyleTableRecord
  2
LiberationSerif-BoldItalic
 70
0
 40
0.0
 41
1.0
 50
0.0
 71
0
 42
2.5
  3
LiberationSerif-BoldItalic.ttf
  4

  0
STYLE
  5
55
330
5
100
AcDbSymbolTableRecord
100
AcDbTextStyleTableRecord
  2
LiberationSerif-Italic
 70
0
 40
0.0
 41
1.0
 50
0.0
 71
0
 42
2.5
  3
LiberationSerif-Italic.ttf
  4

  0
STYLE
  5
56
330
5
100
AcDbSymbolTableRecord
100
AcDbTextStyleTableRecord
  2
LiberationMono
 70
0
 40
0.0
 41
1.0
 50
0.0
 71
0
 42
2.5
  3
LiberationMono-Regular.ttf
  4

  0
STYLE
  5
57
330
5
100
AcDbSymbolTableRecord
100
AcDbTextStyleTableRecord
  2
LiberationMono-Bold
 70
0
 40
0.0
 41
1.0
 50
0.0
 71
0
 42
2.5
  3
LiberationMono-Bold.ttf
  4

  0
STYLE
  5
58
330
5
100
AcDbSymbolTableRecord
100
AcDbTextStyleTableRecord
  2
LiberationMono-BoldItalic
 70
0
 40
0.0
 41
1.0
 50
0.0
 71
0
 42
2.5
  3
LiberationMono-BoldItalic.ttf
  4

  0
STYLE
  5
59
330
5
100
AcDbSymbolTableRecord
100
AcDbTextStyleTableRecord
  2
LiberationMono-Italic
 70
0
 40
0.0
 41
1.0
 50
0.0
 71
0
 42
2.5
  3
LiberationMono-Italic.ttf
  4

  0
ENDTAB
  0
TABLE
  2
VIEW
  5
7
330
0
100
AcDbSymbolTable
 70
0
  0
ENDTAB
  0
TABLE
  2
UCS
  5
6
330
0
100
AcDbSymbolTable
 70
0
  0
ENDTAB
  0
TABLE
  2
APPID
  5
3
330
0
100
AcDbSymbolTable
 70
3
  0
APPID
  5
2A
330
3
100
AcDbSymbolTableRecord
100
AcDbRegAppTableRecord
  2
ACAD
 70
0
  0
APPID
  5
96
330
3
100
AcDbSymbolTableRecord
100
AcDbRegAppTableRecord
  2
HATCHBACKGROUNDCOLOR
 70
0
  0
APPID
  5
97
330
3
100
AcDbSymbolTableRecord
100
AcDbRegAppTableRecord
  2
EZDXF
 70
0
  0
ENDTAB
  0
TABLE
  2
DIMSTYLE
  5
4
330
0
100
AcDbSymbolTable
 70
12
100
AcDbDimStyleTable
  0
DIMSTYLE
105
2B
330
4
100
AcDbSymbolTableRecord
100
AcDbDimStyleTableRecord
  2
Standard
 70
0
 40
1.0
 41
2.5
 42
0.625
 43
3.75
 44
1.25
 45
0.0
 46
0.0
 47
0.0
 48
0.0
 49
2.5
140
2.5
141
2.5
142
0.0
143
0.03937007874
144
1.0
145
0.0
146
1.0
147
0.625
148
0.0
 69
0
 70
0
 71
0
 72
0
 73
0
 74
0
 75
0
 76
0
 77
1
 78
8
 79
3
170
0
171
3
172
1
173
0
174
0
175
0
176
0
177
0
178
0
179
2
271
2
272
2
273
2
274
3
275
0
276
0
277
2
278
44
279
0
280
0
281
0
282
0
283
0
284
8
285
0
286
0
288
0
289
3
290
0
371
-2
372
-2
  0
DIMSTYLE
105
73
330
4
100
AcDbSymbolTableRecord
100
AcDbDimStyleTableRecord
  2
EZDXF
 70
0
 40
1.0
 41
0.175
 42
0.125
 43
3.75
 44
0.375
 45
0.0
 46
0.0
 47
0.0
 48
0.0
 49
2.5
140
0.25
141
2.5
142
0.0
143
0.03937007874
144
100.0
145
0.0
146
0.5
147
0.1
148
0.0
 69
0
 70
0
 71
0
 72
0
 73
0
 74
0
 75
0
 76
0
 77
1
 78
12
 79
3
170
0
171
3
172
1
173
0
174
0
175
0
176
0
177
0
178
0
179
2
271
2
272
2
273
2
274
3
275
0
276
0
277
2
278
46
279
2
280
0
281
0
282
0
283
0
284
8
285
0
286
0
288
1
289
3
290
0
340
4C
342
74
371
-2
372
-2
  0
DIMSTYLE
105
7C
330
4
100
AcDbSymbolTableRecord
100
AcDbDimStyleTableRecord
  2
EZ_M_100_H25_CM
 70
0
 40
1.0
 41
0.25
 42
0.125
 43
3.75
 44
0.375
 45
0.0
 46
0.0
 47
0.0
 48
0.0
 49
2.5
140
0.25
141
2.5
142
0.125
143
0.03937007874
144
100.0
145
0.0
146
0.5
147
0.1
148
0.0
 69
0
 70
0
 71
0
 72
0
 73
0
 74
0
 75
0
 76
0
 77
1
 78
12
 79
3
170
0
171
3
172
1
173
0
174
0
175
0
176
0
177
0
178
0
179
2
271
2
272
2
273
2
274
3
275
0
276
0
277
2
278
46
279
2
280
0
281
0
282
0
283
0
284
8
285
0
286
0
288
1
289
3
290
0
340
4C
371
-2
372
-2
  0
DIMSTYLE
105
7D
330
4
100
AcDbSymbolTableRecord
100
AcDbDimStyleTableRecord
  2
EZ_M_50_H25_CM
 70
0
 40
1.0
 41
0.125
 42
0.0625
 43
3.75
 44
0.1875
 45
0.0
 46
0.0
 47
0.0
 48
0.0
 49
2.5
140
0.125
141
2.5
142
0.0625
143
0.03937007874
144
100.0
145
0.0
146
0.5
147
0.05
148
0.0
 69
0
 70
0
 71
0
 72
0
 73
0
 74
0
 75
0
 76
0
 77
1
 78
12
 79
3
170
0
171
3
172
1
173
0
174
0
175
0
176
0
177
0
178
0
179
2
271
2
272
2
273
2
274
3
275
0
276
0
277
2
278
46
279
2
280
0
281
0
282
0
283
0
284
8
285
0
286
0
288
1
289
3
290
0
340
4C
371
-2
372
-2
  0
DIMSTYLE
105
7E
330
4
100
AcDbSymbolTableRecord
100
AcDbDimStyleTableRecord
  2
EZ_M_25_H25_CM
 70
0
 40
1.0
 41
0.0625
 42
0.03125
 43
3.75
 44
0.09375
 45
0.0
 46
0.0
 47
0.0
 48
0.0
 49
2.5
140
0.0625
141
2.5
142
0.03125
143
0.03937007874
144
100.0
145
0.0
146
0.5
147
0.025
148
0.0
 69
0
 70
0
 71
0
 72
0
 73
0
 74
0
 75
0
 76
0
 77
1
 78
12
 79
3
170
0
171
3
172
1
173
0
174
0
175
0
176
0
177
0
178
0
179
2
271
2
272
2
273
2
274
3
275
0
276
0
277
2
278
46
279
2
280
0
281
0
282
0
283
0
284
8
285
0
286
0
288
1
289
3
290
0
340
4C
371
-2
372
-2
  0
DIMSTYLE
105
7F
330
4
100
AcDbSymbolTableRecord
100
AcDbDimStyleTableRecord
  2
EZ_M_20_H25_CM
 70
0
 40
1.0
 41
0.05
 42
0.025
 43
3.75
 44
0.07500000000000001
 45
0.0
 46
0.0
 47
0.0
 48
0.0
 49
2.5
140
0.05
141
2.5
142
0.025
143
0.03937007874
144
100.0
145
0.0
146
0.5
147
0.020000000000000004
148
0.0
 69
0
 70
0
 71
0
 72
0
 73
0
 74
0
 75
0
 76
0
 77
1
 78
12
 79
3
170
0
171
3
172
1
173
0
174
0
175
0
176
0
177
0
178
0
179
2
271
2
272
2
273
2
274
3
275
0
276
0
277
2
278
46
279
2
280
0
281
0
282
0
283
0
284
8
285
0
286
0
288
1
289
3
290
0
340
4C
371
-2
372
-2
  0
DIMSTYLE
105
80
330
4
100
AcDbSymbolTableRecord
100
AcDbDimStyleTableRecord
  2
EZ_M_10_H25_CM
 70
0
 40
1.0
 41
0.025
 42
0.0125
 43
3.75
 44
0.037500000000000006
 45
0.0
 46
0.0
 47
0.0
 48
0.0
 49
2.5
140
0.025
141
2.5
142
0.0125
143
0.03937007874
144
100.0
145
0.0
146
0.5
147
0.010000000000000002
148
0.0
 69
0
 70
0
 71
0
 72
0
 73
0
 74
0
 75
0
 76
0
 77
1
 78
12
 79
3
170
0
171
3
172
1
173
0
174
0
175
0
176
0
177
0
178
0
179
2
271
2
272
2
273
2
274
3
275
0
276
0
277
2
278
46
279
2
280
0
281
0
282
0
283
0
284
8
285
0
286
0
288
1
289
3
290
0
340
4C
371
-2
372
-2
  0
DIMSTYLE
105
81
330
4
100
AcDbSymbolTableRecord
100
AcDbDimStyleTableRecord
  2
EZ_M_5_H25_CM
 70
0
 40
1.0
 41
0.0125
 42
0.00625
 43
3.75
 44
0.018750000000000003
 45
0.0
 46
0.0
 47
0.0
 48
0.0
 49
2.5
140
0.0125
141
2.5
142
0.00625
143
0.03937007874
144
100.0
145
0.0
146
0.5
147
0.005000000000000001
148
0.0
 69
0
 70
0
 71
0
 72
0
 73
0
 74
0
 75
0
 76
0
 77
1
 78
12
 79
3
170
0
171
3
172
1
173
0
174
0
175
0
176
0
177
0
178
0
179
2
271
2
272
2
273
2
274
3
275
0
276
0
277
2
278
46
279
2
280
0
281
0
282
0
283
0
284
8
285
0
286
0
288
1
289
3
290
0
340
4C
371
-2
372
-2
  0
DIMSTYLE
105
82
330
4
100
AcDbSymbolTableRecord
100
AcDbDimStyleTableRecord
  2
EZ_M_1_H25_CM
 70
0
 40
1.0
 41
0.0025
 42
0.00125
 43
3.75
 44
0.00375
 45
0.0
 46
0.0
 47
0.0
 48
0.0
 49
2.5
140
0.0025
141
2.5
142
0.00125
143
0.03937007874
144
100.0
145
0.0
146
0.5
147
0.001
148
0.0
 69
0
 70
0
 71
0
 72
0
 73
0
 74
0
 75
0
 76
0
 77
1
 78
12
 79
3
170
0
171
3
172
1
173
0
174
0
175
0
176
0
177
0
178
0
179
2
271
2
272
2
273
2
274
3
275
0
276
0
277
2
278
46
279
2
280
0
281
0
282
0
283
0
284
8
285
0
286
0
288
1
289
3
290
0
340
4C
371
-2
372
-2
  0
DIMSTYLE
105
83
330
4
100
AcDbSymbolTableRecord
100
AcDbDimStyleTableRecord
  2
EZ_RADIUS
 70
0
 40
1.0
 41
0.25
 42
0.125
 43
3.75
 44
0.375
 45
0.0
 46
0.0
 47
0.0
 48
0.0
 49
2.5
140
0.25
141
0.0
142
0.0
143
0.03937007874
144
100.0
145
0.0
146
0.5
147
0.1
148
0.0
 69
0
 70
0
 71
0
 72
0
 73
0
 74
0
 75
0
 76
0
 77
1
 78
12
 79
3
170
0
171
3
172
0
173
0
174
0
175
0
176
0
177
0
178
0
179
2
271
2
272
2
273
2
274
3
275
0
276
0
277
2
278
46
279
1
280
0
281
0
282
0
283
0
284
8
285
0
286
0
288
1
289
3
290
0
340
4C
342
84
371
-2
372
-2
  0
DIMSTYLE
105
88
330
4
100
AcDbSymbolTableRecord
100
AcDbDimStyleTableRecord
  2
EZ_RADIUS_INSIDE
 70
0
 40
1.0
 41
0.25
 42
0.125
 43
3.75
 44
0.375
 45
0.0
 46
0.0
 47
0.0
 48
0.0
 49
2.5
140
0.25
141
0.0
142
0.0
143
0.03937007874
144
100.0
145
0.0
146
0.5
147
0.1
148
0.0
 69
0
 70
0
 71
0
 72
0
 73
0
 74
0
 75
0
 76
0
 77
0
 78
12
 79
3
170
0
171
3
172
0
173
0
174
1
175
0
176
0
177
0
178
0
179
2
271
2
272
2
273
2
274
3
275
0
276
0
277
2
278
46
279
0
280
0
281
0
282
0
283
0
284
8
285
0
286
0
288
1
289
0
290
0
340
4C
342
84
371
-2
372
-2
  0
DIMSTYLE
105
89
330
4
100
AcDbSymbolTableRecord
100
AcDbDimStyleTableRecord
  2
EZ_CURVED
 70
0
 40
1.0
 41
0.25
 42
0.125
 43
3.75
 44
0.375
 45
0.0
 46
0.0
 47
0.0
 48
0.0
 49
2.5
140
0.25
141
2.5
142
0.0
143
0.03937007874
144
100.0
145
0.0
146
0.5
147
0.1
148
0.0
 69
0
 70
0
 71
0
 72
0
 73
0
 74
0
 75
0
 76
0
 77
1
 78
12
 79
2
 90
2
170
0
171
3
172
1
173
0
174
0
175
0
176
0
177
0
178
0
179
2
271
2
272
2
273
2
274
3
275
0
276
0
277
2
278
46
279
2
280
0
281
0
282
0
283
0
284
8
285
0
286
0
288
1
289
3
290
0
340
4C
371
-2
372
-2
  0
ENDTAB
  0
TABLE
  2
BLOCK_RECORD
  5
9
330
0
100
AcDbSymbolTable
 70
5
  0
BLOCK_RECORD
  5
17
330
9
100
AcDbSymbolTableRecord
100
AcDbBlockTableRecord
  2
*Model_Space
340
1A
 70
0
280
1
281
0
  0
BLOCK_RECORD
  5
1B
330
9
100
AcDbSymbolTableRecord
100
AcDbBlockTableRecord
  2
*Paper_Space
340
1E
 70
0
280
1
281
0
  0
BLOCK_RECORD
  5
74
330
9
100
AcDbSymbolTableRecord
100
AcDbBlockTableRecord
  2
_ARCHTICK
340
0
 70
0
280
1
281
0
  0
BLOCK_RECORD
  5
78
330
9
100
AcDbSymbolTableRecord
100
AcDbBlockTableRecord
  2
_CLOSEDFILLED
340
0
 70
0
280
1
281
0
  0
BLOCK_RECORD
  5
84
330
9
100
AcDbSymbolTableRecord
100
AcDbBlockTableRecord
  2
_CLOSEDBLANK
340
0
 70
0
280
1
281
0
  0
ENDTAB
  0
ENDSEC
  0
SECTION
  2
BLOCKS
  0
BLOCK
  5
18
330
17
100
AcDbEntity
  8
0
100
AcDbBlockBegin
  2
*Model_Space
 70
0
 10
0.0
 20
0.0
 30
0.0
  3
*Model_Space
  1

  0
ENDBLK
  5
19
330
17
100
AcDbEntity
  8
0
100
AcDbBlockEnd
  0
BLOCK
  5
1C
330
1B
100
AcDbEntity
  8
0
100
AcDbBlockBegin
  2
*Paper_Space
 70
0
 10
0.0
 20
0.0
 30
0.0
  3
*Paper_Space
  1

  0
ENDBLK
  5
1D
330
1B
100
AcDbEntity
  8
0
100
AcDbBlockEnd
  0
BLOCK
  5
75
330
74
100
AcDbEntity
  8
0
100
AcDbBlockBegin
  2
_ARCHTICK
 70
0
 10
0.0
 20
0.0
 30
0.0
  3
_ARCHTICK
  1

  0
LWPOLYLINE
  5
77
330
74
100
AcDbEntity
  8
0
  6
BYBLOCK
 62
0
100
AcDbPolyline
 90
2
 70
0
 43
0.15
 10
-0.5
 20
-0.5
 10
0.5
 20
0.5
  0
ENDBLK
  5
76
330
74
100
AcDbEntity
  8
0
100
AcDbBlockEnd
  0
BLOCK
  5
79
330
78
100
AcDbEntity
  8
0
100
AcDbBlockBegin
  2
_CLOSEDFILLED
 70
0
 10
0.0
 20
0.0
 30
0.0
  3
_CLOSEDFILLED
  1

  0
SOLID
  5
7B
330
78
100
AcDbEntity
  8
0
  6
BYBLOCK
 62
0
100
AcDbTrace
 10
-1.0
 20
0.16439898372402537
 30
0.0
 11
0.0
 21
0.0
 31
0.0
 12
-1.0
 22
-0.16439898372402537
 32
0.0
 13
-1.0
 23
-0.16439898372402537
 33
0.0
  0
ENDBLK
  5
7A
330
78
100
AcDbEntity
  8
0
100
AcDbBlockEnd
  0
BLOCK
  5
85
330
84
100
AcDbEntity
  8
0
100
AcDbBlockBegin
  2
_CLOSEDBLANK
 70
0
 10
0.0
 20
0.0
 30
0.0
  3
_CLOSEDBLANK
  1

  0
LWPOLYLINE
  5
87
330
84
100
AcDbEntity
  8
0
  6
BYBLOCK
 62
0
100
AcDbPolyline
 90
3
 70
1
 10
-1.0
 20
0.16439898372402537
 10
0.0
 20
0.0
 10
-1.0
 20
-0.16439898372402537
  0
ENDBLK
  5
86
330
84
100
AcDbEntity
  8
0
100
AcDbBlockEnd
  0
ENDSEC
  0
SECTION
  2
ENTITIES
  0
LWPOLYLINE
  5
8D
330
17
100
AcDbEntity
  8
HOJA
100
AcDbPolyline
 90
4
 70
1
 10
0.0
 20
0.0
 10
500.0
 20
0.0
 10
500.0
 20
700.0
 10
0.0
 20
700.0
  0
LWPOLYLINE
  5
8E
330
17
100
AcDbEntity
  8
CORTE
100
AcDbPolyline
 90
66
 70
1
 10
13.0
 20
13.0
 10
13.0
 20
274.0195652173913
 10
360.9760869565217
 20
274.0195652173913
 10
360.9760869565217
 20
57.66686667065787
 10
359.61967429083563
 20
58.67149005442273
 10
357.93615694427143
 20
59.874913430705774
 10
357.91653057180616
 20
59.88745803801808
 10
357.88179690369356
 20
59.90879966775182
 10
356.090553289902
 20
60.98465012385121
 10
355.01977660687567
 20
61.60346739554997
 10
354.19946667276446
 20
62.01124928082484
 10
352.46453474397595
 20
62.8361791433059
 10
352.2169333639691
 20
62.95191056583546
 10
352.10423993518486
 20
63.00236728407769
 10
350.0829554003891
 20
63.73426593360949
 10
349.1880518241361
 20
64.0416547210974
 10
347.82019934084417
 20
64.38691544010709
 10
346.2727686252125
 20
64.75045441538049
 10
345.3917408126021
 20
64.87323884669135
 10
343.3581345346396
 20
65.12355145261412
 10
342.7423368632148
 20
65.13834932063278
 10
340.4438534034301
 20
65.15914302140813
 10
339.787979230457
 20
65.09848992612096
 10
337.5294689046282
 20
64.8589102076141
 10
336.39719285378516
 20
64.62222822886304
 10
334.6146307316619
 20
64.22800002961988
 10
332.35585966263716
 20
63.49500413890844
 10
331.6990219116499
 20
63.27490944873287
 10
330.6949868658622
 20
62.83533776007978
 10
328.78208873187356
 20
61.99433844122025
 10
326.96058077955934
 20
61.00862405413582
 10
325.8646915578793
 20
60.406712391411006
 10
325.09817821087836
 20
59.91001296237252
 10
322.94625441260973
 20
58.507390122832774
 10
320.9062915105936
 20
56.981822963415794
 10
320.02727019704196
 20
56.31800525827413
 10
317.3577610319883
 20
54.05363870045842
 10
317.10777756905173
 20
53.838550202676686
 10
314.252919905456
 20
51.12542760283321
 10
314.1878995025169
 20
51.06243072027067
 10
311.47358974386015
 20
48.19718319739671
 10
311.2676604776254
 20
47.97432058093028
 10
308.94692649381557
 20
45.26890909490521
 10
308.3471607949797
 20
44.5476927908779
 10
306.6266471266081
 20
42.340615431915936
 10
305.4264216925848
 20
40.74185962231317
 10
304.48288082916514
 20
39.412305045003635
 10
302.50545315917657
 20
36.49823376706425
 10
302.49624674697696
 20
36.483987122334746
 10
302.4805909773645
 20
36.45845718690577
 10
300.7169868861815
 20
33.554747142627434
 10
299.58547835521614
 20
31.575419433738805
 10
299.06626570283817
 20
30.626646162677606
 10
298.5208515228872
 20
29.558733558513193
 10
297.5828019756473
 20
27.697865852990002
 10
296.6653126684061
 20
25.729146203031657
 10
296.2352813742299
 20
24.76988691818116
 10
295.9344545929952
 20
24.03703349243367
 10
295.0489103896238
 20
21.8414606215431
 10
294.11472166753754
 20
19.28277560283967
 10
293.98260742851716
 20
18.9132013025955
 10
293.7457619468636
 20
18.171405876979556
 10
293.07169687701474
 20
15.98522502012155
 10
292.8192422853983
 20
15.05670677267424
 10
292.27665777100844
 20
13.0
 10
13.0
 20
13.0
  0
LWPOLYLINE
  5
8F
330
17
100
AcDbEntity
  8
CORTE
100
AcDbPolyline
 90
319
 70
1
 10
178.4576360416673
 20
196.58297460843784
 10
178.43458485970663
 20
197.7328499921602
 10
178.35067288283747
 20
199.40371206234926
 10
178.27460987205401
 20
200.66098324361232
 10
178.1434789098592
 20
202.12388389719806
 10
177.99632299765318
 20
203.58919793077672
 10
177.8467508551752
 20
204.7542375891317
 10
177.60031681707179
 20
206.51747680559598
 10
177.4694721883433
 20
207.30380627494426
 10
177.08722763011943
 20
209.44587673208335
 10
177.01915224366155
 20
209.7801597324028
 10
176.68456323273088
 20
211.32596130827892
 10
176.49864262264566
 20
212.18831243680003
 10
176.45641494982905
 20
212.37355546427244
 10
175.91226890618847
 20
214.52822130322002
 10
175.7066321026459
 20
215.30216600686325
 10
175.27054575657243
 20
216.81266946518326
 10
174.841199585784
 20
218.23087387617585
 10
174.5772251290968
 20
219.04544552692548
 10
173.86036280767559
 20
221.15972463054044
 10
173.83530998478503
 20
221.22958058283888
 10
173.7647239131727
 20
221.4179765709304
 10
173.03775013938943
 20
223.3595913750477
 10
172.753871914401
 20
224.08773700049974
 10
172.19847672500302
 20
225.4461323282124
 10
171.53036329973799
 20
227.01680052060385
 10
171.31961560637416
 20
227.49307392715787
 10
170.84394021302822
 20
228.5268812028039
 10
170.39587215043179
 20
229.4962637499734
 10
170.18086547872193
 20
229.9449137073915
 10
169.43107178291595
 20
231.45710593322877
 10
168.70270880530214
 20
232.87423715230787
 10
168.43292696999865
 20
233.3846270332771
 10
167.92343950913286
 20
234.3145328667882
 10
167.39369973330227
 20
235.27168201192322
 10
167.0900398508021
 20
235.80244165369047
 10
166.31722983536477
 20
237.120740935842
 10
165.34074382837903
 20
238.73198199393005
 10
165.21170351165173
 20
238.94079006361744
 10
165.00317728039605
 20
239.2671131979328
 10
164.0618939747671
 20
240.71659438268355
 10
163.42986396375431
 20
241.66027886426403
 10
162.8829894693435
 20
242.46318934274174
 10
162.08219439980283
 20
243.60288406348184
 10
161.67019252013586
 20
244.17545497975382
 10
161.36432629594833
 20
244.58854291031125
 10
160.41780550139953
 20
245.848491930007
 10
159.16144741366352
 20
247.47327693700143
 10
159.14221045186835
 20
247.4973662353016
 10
159.12629489485397
 20
247.51677672910017
 10
157.815364955924
 20
249.09588320362874
 10
156.66350742575025
 20
250.4468244902024
 10
156.46805721453515
 20
250.67403622444553
 10
156.24181108512002
 20
250.9300438653907
 10
155.07178827491722
 20
252.20147516605002
 10
153.9648576206965
 20
253.37517939829226
 10
153.65074125063035
 20
253.70587185085546
 10
153.32153336640243
 20
254.04395586693522
 10
152.17994136998098
 20
255.15810586810616
 10
150.97974458431915
 20
256.30353142380716
 10
150.68226785353062
 20
256.5858577396818
 10
150.40153842965617
 20
256.8463310041479
 10
149.12909749908766
 20
257.9549933884927
 10
147.63375997887135
 20
259.2318788471268
 10
147.55097709711202
 20
259.30228256902814
 10
147.48184794216164
 20
259.35988959872867
 10
145.90438860907122
 20
260.57725103549024
 10
144.56190539006525
 20
261.59499727870036
 10
144.2300877746287
 20
261.8238367699318
 10
143.73814686540788
 20
262.1580069431832
 10
142.4860073252353
 20
263.0050406127146
 10
141.6429981575906
 20
263.5666670719284
 10
140.69216687595852
 20
264.1312650152542
 10
139.0634290610127
 20
265.08649522313357
 10
138.8480842585406
 20
265.2124434623837
 10
138.7244514684015
 20
265.28385691504315
 10
136.91030728579082
 20
266.1938923440728
 10
135.806014339683
 20
266.74278135821737
 10
134.912385796182
 20
267.1145256401704
 10
132.88817369574002
 20
267.95217208058807
 10
132.84593878279858
 20
267.96603650662996
 10
132.70876182417356
 20
268.011062736809
 10
130.64167206585702
 20
268.6865675502653
 10
129.97093106642583
 20
268.9057378311751
 10
128.33496539008328
 20
269.29706051254504
 10
127.05404189887358
 20
269.6058283145567
 10
125.9002216455782
 20
269.77910701764756
 10
124.13755771396805
 20
270.0499214836377
 10
123.30453703657463
 20
270.0999362302498
 10
121.22133497528041
 20
270.2350402950218
 10
120.50105813683739
 20
270.2127975986243
 10
118.30519792609576
 20
270.15794565918213
 10
117.42204615295043
 20
270.0499729437727
 10
115.38895886389419
 20
269.8150813696719
 10
113.96736554545919
 20
269.5112036588459
 10
112.472443218791
 20
269.20253200635966
 10
109.98442330351482
 20
268.44355502610114
 10
109.55551022917888
 20
268.315959984581
 10
108.78928860415542
 20
268.01268141765456
 10
106.63894718490988
 20
267.1471081111733
 10
104.91111631845824
 20
266.27994440408366
 10
103.72095542314693
 20
265.6910984773033
 10
102.70145061274793
 20
265.0868871340334
 10
100.80333674431498
 20
263.935680418426
 10
98.2812109173512
 20
262.1590565776383
 10
97.88519045073461
 20
261.8722317691399
 10
96.29355334177103
 20
260.5642691391065
 10
94.96549003229144
 20
259.47763095759444
 10
94.69844543369115
 20
259.2339923487387
 10
92.04629336800309
 20
256.7292912531001
 10
91.63841553447652
 20
256.3063317551803
 10
89.12663823651882
 20
253.59646785821164
 10
88.94033128656625
 20
253.37861807677194
 10
88.08513561761058
 20
252.3327734156846
 10
86.53748743592035
 20
250.44868492604527
 10
86.20752792212892
 20
250.02719793849593
 10
84.37549255799452
 20
247.52101551252196
 10
83.28703186907187
 20
245.94978134640508
 10
82.40077127848646
 20
244.5932099328126
 10
80.97062116650085
 20
242.26944265922717
 10
80.59343320946006
 20
241.66351659907005
 10
80.36704961100044
 20
241.27599018121933
 10
78.95405035690999
 20
238.73563365083618
 10
77.44584676108076
 20
235.8271913493276
 10
77.43610266844144
 20
235.8076167973216
 10
77.42742205138869
 20
235.78877920743722
 10
76.06072227029023
 20
232.87807075904675
 10
74.99870595412584
 20
230.42299194455646
 10
74.78939035316138
 20
229.94857821089937
 10
74.52575763135728
 20
229.2965665201018
 10
73.63439339136276
 20
227.02040453428467
 10
73.13996666966129
 20
225.6306832933684
 10
72.57872434244912
 20
224.09098435160564
 10
71.6198451317236
 20
221.17628531699805
 10
71.61488466253381
 20
221.16158341264102
 10
71.60503010534384
 20
221.1289785534073
 10
70.75005685879952
 20
218.2331948742602
 10
70.44640772297903
 20
217.07156312936291
 10
69.97020714431837
 20
215.30382468534773
 10
69.46307135932712
 20
213.15565709292133
 10
69.2728193654267
 20
212.37446089757916
 10
68.68366829154441
 20
209.58009656080526
 10
68.65577468476813
 20
209.44580091884998
 10
68.64987478679316
 20
209.41238111762848
 10
68.11974368358679
 20
206.5164108082175
 10
68.01785273311837
 20
205.84891433476238
 10
67.6594791842256
 20
203.58705992125766
 10
67.50752999605565
 20
202.4075570258922
 10
67.27331393801079
 20
200.65770154300492
 10
67.1071743082747
 20
199.07651927709875
 10
66.9598608912348
 20
197.7283667737546
 10
66.80665184454604
 20
195.8456477807422
 10
66.71800610341226
 20
194.7990311510655
 10
66.59718550542058
 20
192.70614271128412
 10
66.54689954075417
 20
191.86971446144773
 10
66.47117149805005
 20
189.65036942271968
 10
66.44594551432019
 20
188.94039225162234
 10
66.42202929058043
 20
186.67175113174292
 10
66.41481734821737
 20
186.01108435145107
 10
66.44406400745014
 20
183.76452149255695
 10
66.45343837447184
 20
183.08176601060737
 10
66.53234813048391
 20
180.92379016409666
 10
66.56198460843792
 20
180.15245723684427
 10
66.68264754405689
 20
178.14529143989722
 10
66.74089664117463
 20
177.2231443018167
 10
66.89132259993202
 20
175.42536343649485
 10
66.99087304453602
 20
174.29381401699473
 10
67.1552777945087
 20
172.76090844986277
 10
67.31287775408428
 20
171.3644858366878
 10
67.47188942820033
 20
170.14928949618073
 10
67.70814301539701
 20
168.4351354752584
 10
67.8389713167254
 20
167.5883099977652
 10
68.17818899454217
 20
165.50578273663243
 10
68.25473330928948
 20
165.07617774545903
 10
68.68396652663016
 20
162.79358545568462
 10
68.71829928164135
 20
162.61072718850218
 10
68.72493690663028
 20
162.5771193986216
 10
69.23136975095142
 20
160.19630973483083
 10
69.35422492455868
 20
159.64780624229437
 10
69.78751562100861
 20
157.82509917011973
 10
70.06479965218274
 20
156.71845688837266
 10
70.38594360742985
 20
155.4963052242054
 10
70.8592730248786
 20
153.78909098625468
 10
71.02614332236676
 20
153.20941292011926
 10
71.60492413276481
 20
151.3058331219377
 10
71.70879237150243
 20
150.9642502567663
 10
71.74191807869586
 20
150.86078859267576
 10
72.43508907707046
 20
148.76380370613663
 10
72.725095568863
 20
147.93140685433184
 10
73.19980945948257
 20
146.60188760184056
 10
73.80250673050837
 20
145.00199518720734
 10
74.00321199510057
 20
144.47875241874937
 10
74.52556726273836
 20
143.18930031419447
 10
74.84784882610776
 20
142.3965694925679
 10
74.9859786796243
 20
142.07392463633437
 10
75.73280651091233
 20
140.3553042126116
 10
76.28743306590356
 20
139.14446520927737
 10
76.65449843310101
 20
138.35084430360237
 10
77.44632527935802
 20
136.72825724540425
 10
77.61511796468038
 20
136.38547112623183
 10
77.70262969148922
 20
136.21658808399644
 10
78.61820217172298
 20
134.4626958048894
 10
79.2646247293878
 20
133.2870457240673
 10
79.65697055675781
 20
132.5756541257941
 10
80.36660170477516
 20
131.35517419547733
 10
80.73597218635744
 20
130.72956933390728
 10
80.96587706003379
 20
130.35933654016267
 10
81.85739279653522
 20
128.92543373489264
 10
82.83632786973452
 20
127.42966385897802
 10
83.01439397037974
 20
127.15690552927252
 10
83.28636765600062
 20
126.76146606434969
 10
84.2184745604136
 20
125.43687306617765
 10
84.9100298847455
 20
124.50206224311388
 10
85.46109369029742
 20
123.7541924643591
 10
86.20661873160275
 20
122.79251665337634
 10
86.74748175481807
 20
122.11730436074956
 10
87.20402403823728
 20
121.57459433641925
 10
88.08132581569821
 20
120.52606667298252
 10
89.12639127490627
 20
119.33756527589466
 10
89.45626705990577
 20
118.97866744086917
 10
89.77592129574465
 20
118.64725083935502
 10
90.88842858181503
 20
117.48594262553162
 10
92.0456260241051
 20
116.33553238212549
 10
92.36232700304768
 20
116.0385072047011
 10
92.71857512977145
 20
115.71995850458288
 10
93.90180050500237
 20
114.65328622888812
 10
94.96424654391082
 20
113.74061226820463
 10
95.49036602990826
 20
113.32161324913177
 10
96.18693833103667
 20
112.79266398153885
 10
97.1486663874122
 20
112.05539780393396
 10
97.88219110361187
 20
111.51945724282716
 10
98.8746724904269
 20
110.86230757852964
 10
100.45468572386928
 20
109.86524133026481
 10
100.66669399719892
 20
109.72999983086127
 10
100.79941071232234
 20
109.64933810748306
 10
102.56271235850014
 20
108.70809330720346
 10
103.71691903048692
 20
108.12166917505998
 10
104.54098498742994
 20
107.76933460002907
 10
106.58390394178656
 20
106.94023973480093
 10
106.62067053952353
 20
106.92515508564223
 10
106.63263055105313
 20
106.92049786894496
 10
108.85553270638773
 20
106.24406370969884
 10
109.54857954680818
 20
106.04515159363523
 10
111.23956496252173
 20
105.71275849322792
 10
112.46389565855146
 20
105.48931831687905
 10
113.81323635343762
 20
105.37148057093097
 10
115.37877097593551
 20
105.25230783360875
 10
116.63800850809126
 20
105.28148257671661
 10
118.29348292654764
 20
105.33422079298592
 10
119.80959079728403
 20
105.53838588877409
 10
121.20833933342728
 20
105.73585640654082
 10
123.48312308912736
 20
106.2975067206201
 10
124.1236250081123
 20
106.45863320173746
 10
125.46607579919547
 20
106.94139708968676
 10
127.03986092229177
 20
107.5040808913661
 10
128.08964895801284
 20
107.99471508780346
 10
129.95649457089175
 20
108.87190134533617
 10
131.67017091541354
 20
109.86680355934249
 10
132.87412733124805
 20
110.56323318219465
 10
135.09636398095793
 20
112.09461410611621
 10
135.79235333831966
 20
112.57506454709883
 10
136.06296162664663
 20
112.79162219714671
 10
138.71142641100772
 20
114.90603820715565
 10
139.60924144972483
 20
115.71972389801061
 10
141.6311037218522
 20
117.5502906385391
 10
142.71770104863444
 20
118.64803405914475
 10
144.55131108170778
 20
120.50096808063117
 10
145.51917651168844
 20
121.57653657242409
 10
147.47197140404083
 20
123.75000805716333
 10
148.0969080087093
 20
124.50528633159675
 10
150.39301273007078
 20
127.2882341533234
 10
150.50522226007067
 20
127.43426410264405
 10
150.87780153971445
 20
127.92123507900696
 10
152.74316006191
 20
130.36514888930495
 10
153.314164183524
 20
131.11897176862564
 10
154.86543217397883
 20
133.29427515119107
 10
156.23573407533436
 20
135.23435176338893
 10
156.89966839033636
 20
136.2236060006161
 10
158.21917462381862
 20
138.21315453046205
 10
158.84013836140866
 20
139.15418116581617
 10
159.15712665529512
 20
139.6424224957501
 10
160.67687072803875
 20
142.0835833692997
 10
162.0790155745063
 20
144.37973084390407
 10
162.45287310878922
 20
145.0131468362169
 10
162.96649830374486
 20
145.9034121732323
 10
164.13362435100245
 20
147.94330885894865
 10
165.00047998529726
 20
149.50207442740344
 10
165.74306600251043
 20
150.87285814892707
 10
166.5662245120165
 20
152.44315582007633
 10
167.27129142683606
 20
153.80269387248276
 10
167.92188827247088
 20
155.10784970008527
 10
168.71633921594068
 20
156.73217099659888
 10
169.41744985936586
 20
158.23194019470182
 10
170.07678055035288
 20
159.66166606908376
 10
170.8432603535779
 20
161.4147618081629
 10
171.3512745175478
 20
162.59104499553428
 10
171.7008250928154
 20
163.45084195188772
 10
172.52773903359076
 20
165.5201797892242
 10
173.53184053904852
 20
168.21683742991115
 10
173.6166594704664
 20
168.44910788570368
 10
173.76384575997423
 20
168.88685140757102
 10
174.59656937848027
 20
171.37822635988155
 10
174.96223554046117
 20
172.57947331002723
 10
175.47475749243952
 20
174.3068296650677
 10
176.09634854116362
 20
176.6460296482354
 10
176.2482855647589
 20
177.23528647590936
 10
176.6847107826775
 20
179.1663369961079
 10
176.91027208240698
 20
180.16417895828314
 10
176.9645218266925
 20
180.4438774009802
 10
177.45595103221152
 20
183.09240274241967
 10
177.59583367684297
 20
184.00563836339853
 10
177.88708800547363
 20
186.0205524568056
 10
178.0394464689718
 20
187.3789948652854
 10
178.20157454506318
 20
188.94863451480342
 10
178.31809145722158
 20
190.58675676043288
 10
178.39805261127117
 20
191.87670046798178
 10
178.45172678269307
 20
193.64896258179527
 10
178.4757928809903
 20
194.80475605154916
 10
178.4576360416673
 20
196.58297460843784
  0
LWPOLYLINE
  5
90
330
17
100
AcDbEntity
  8
GRABADO
100
AcDbPolyline
 90
396
 70
1
 10
13.0
 20
274.0195652173913
 10
107.04084586336143
 20
274.0195652173913
 10
107.04377625447725
 20
274.00340811290954
 10
106.63726493377966
 20
273.8509358413462
 10
106.59379410644635
 20
273.8304648316478
 10
103.7192355364019
 20
272.49852806913856
 10
100.93937535554915
 20
270.9480751149781
 10
100.80149018656529
 20
270.86982232090423
 10
100.57011721322692
 20
270.7167704089799
 10
97.88237658915803
 20
268.9551595427636
 10
96.6334126599139
 20
268.0225013362201
 10
94.96361229786403
 20
266.7454660096095
 10
93.03193771767057
 20
265.0945438922694
 10
92.04439227569456
 20
264.225997546674
 10
89.9157875402722
 20
262.16662289007695
 10
89.124746840617
 20
261.37518401629615
 10
87.15756540423612
 20
259.2386911385092
 10
86.2047169615812
 20
258.1630687547844
 10
84.67565334110695
 20
256.31073539268056
 10
83.28432997470648
 20
254.549600851359
 10
82.41655967051715
 20
253.3826865347448
 10
80.36362835316989
 20
250.48228290577146
 10
80.34498171304969
 20
250.45454924038026
 10
80.31069424433798
 20
250.4006613170675
 10
78.45936837888935
 20
247.52474163958712
 10
77.44345559574732
 20
245.85136648349751
 10
76.71342647989331
 20
244.59656535978692
 10
75.83195861983012
 20
242.97997513036088
 10
75.10456283360882
 20
241.666852242503
 10
74.5229292971539
 20
240.54222881876242
 10
73.62167507916199
 20
238.73859900618805
 10
72.83929675527334
 20
237.04991065252574
 10
72.25265542830226
 20
235.80899670150035
 10
71.60205299528252
 20
234.31811255050096
 10
70.99125385642446
 20
232.88063320912732
 10
70.60025997377065
 20
231.87590399633527
 10
69.83235565215128
 20
229.95106831398547
 10
68.81703239643994
 20
227.15751582249473
 10
68.76631486960027
 20
227.0215414329767
 10
68.68138045747772
 20
226.77012624552165
 10
67.79364770616556
 20
224.09305461100382
 10
67.41648643878543
 20
222.8247401997411
 10
66.90696731484344
 20
221.1635495221716
 10
66.23792714601872
 20
218.71290318411488
 10
66.10294892433168
 20
218.23407121254795
 10
65.76015331201202
 20
216.85596534395532
 10
65.3784988942326
 20
215.30537833709005
 10
65.27418233670463
 20
214.81839492192944
 10
64.73098776460998
 20
212.375888086062
 10
64.48686155810758
 20
211.09904011201672
 10
64.15846008421315
 20
209.44641445528634
 10
63.83322116819454
 20
207.51379265937032
 10
63.65867784116506
 20
206.51695579532588
 10
63.29964070767855
 20
204.0490117438424
 10
63.22971349459699
 20
203.5875324232316
 10
62.87436080199676
 20
200.69287025288327
 10
62.86991023037615
 20
200.65809861372887
 10
62.8390663220146
 20
200.35002683087703
 10
62.576569859679566
 20
197.72897638833277
 10
62.555572617557516
 20
197.4453614803173
 10
62.350135033011995
 20
194.79948670760385
 10
62.322969960109816
 20
194.28251396223135
 10
62.18991615292225
 20
191.87001273265562
 10
62.169028419508436
 20
191.19859571328735
 10
62.0952781506538
 20
188.94053091206524
 10
62.08796863688984
 20
188.18781313786118
 10
62.065857367235964
 20
186.01106207502093
 10
62.07479295257332
 20
185.24511520343498
 10
62.10155985315639
 20
183.0815826478595
 10
62.12518858835685
 20
182.36621453551962
 10
62.20255992796393
 20
180.15211353428882
 10
62.235454414890995
 20
179.54739492402635
 10
62.369291091313656
 20
177.2226421316326
 10
62.40241928395142
 20
176.78546520369414
 10
62.602469751572
 20
174.29315627697991
 10
62.623406469556954
 20
174.07773345777488
 10
62.83904840942664
 20
171.98506502696787
 10
62.89657879082988
 20
171.4209436577157
 10
62.902704929174135
 20
171.36406158933934
 10
63.219843564079596
 20
168.81589385049728
 10
63.27000367855689
 20
168.43463435020365
 10
63.58994351726676
 20
166.25784765280582
 10
63.70700370537972
 20
165.50520776302304
 10
64.00539808615515
 20
163.74530421255488
 10
64.21546095163174
 20
162.57575782975843
 10
64.46504982572371
 20
161.27710802914953
 10
64.7974271395746
 20
159.64630469071298
 10
64.96803667849406
 20
158.852390739999
 10
65.45525683836118
 20
156.71682483285582
 10
65.51378855928616
 20
156.47057195574996
 10
65.76009108780103
 20
155.49558014256758
 10
66.10103152596209
 20
154.12935386822852
 10
66.1911767217701
 20
153.78816925167288
 10
66.7271572482509
 20
151.82824733055773
 10
67.00817293139643
 20
150.85871531517935
 10
67.3925451209831
 20
149.56651661970088
 10
67.90929859440341
 20
147.92922414625795
 10
68.09735602818519
 20
147.3443231939471
 10
68.68126948412045
 20
145.63453211490125
 10
68.84147846335438
 20
145.16083500055424
 10
68.89876795246435
 20
145.00079315006155
 10
69.62099673139365
 20
143.01364404318338
 10
69.98388201227371
 20
142.07128287153483
 10
70.43772588856542
 20
140.9037628974084
 10
71.16418934946967
 20
139.14174521658722
 10
71.29244639877902
 20
138.83196829892756
 10
71.60186437532938
 20
138.12808045236144
 10
72.18341760066082
 20
136.7961897682222
 10
72.45266663528274
 20
136.21347031845943
 10
73.10926421113484
 20
134.7957783091828
 10
73.85098530855558
 20
133.2839010009053
 10
74.07205466925586
 20
132.83238516854252
 10
74.5226365770165
 20
131.9644455662546
 10
75.07137461246224
 20
130.90568595704516
 10
75.3726736888908
 20
130.35574306992808
 10
76.105414579294
 20
129.01376542725387
 10
77.02267432631783
 20
127.42604636650044
 10
77.176110135567
 20
127.15855194021562
 10
77.44304477516387
 20
126.71913180336995
 10
78.28377030333128
 20
125.34096258164591
 10
78.82684143471357
 20
124.49801546992302
 10
79.42709268592301
 20
123.55858038799302
 10
80.36392520801648
 20
122.17143370346683
 10
80.60780259776291
 20
121.81469922094898
 10
80.78410494251173
 20
121.57011039090999
 10
81.8275332003278
 20
120.10892095111737
 10
82.93420875774945
 20
118.64023033237737
 10
83.08358869875804
 20
118.43948308427191
 10
83.28354379048106
 20
118.18501701627812
 10
84.38241530361479
 20
116.81461463685409
 10
85.3136681969594
 20
115.71236338840852
 10
85.71909851604703
 20
115.22596733633127
 10
86.20366760002915
 20
114.67458959931756
 10
87.10075783116714
 20
113.68474656074967
 10
87.95920957586853
 20
112.78460234130151
 10
88.52444923537706
 20
112.1832699133956
 10
89.12335130170271
 20
111.57813777431576
 10
89.99642917476326
 20
110.73324668197866
 10
90.94838220576499
 20
109.85689527204295
 10
91.51517898685469
 20
109.3269782817007
 10
92.04254667802041
 20
108.85816240697842
 10
93.08939142532925
 20
107.98014951524569
 10
94.40553451678333
 20
106.92921822013616
 10
94.71340336715937
 20
106.67929973615085
 10
94.96119002385788
 20
106.48787240898669
 10
96.40750887179439
 20
105.45338900882655
 10
97.88014484002721
 20
104.45016584463583
 10
98.15445049772556
 20
104.2811925083468
 10
98.62645366011877
 20
104.00423211446727
 10
99.98934866933058
 20
103.19160110590475
 10
100.79747127905108
 20
102.73268109884242
 10
101.9006197201918
 20
102.18482979325145
 10
103.7149769183756
 20
101.32737322392785
 10
103.89094123239146
 20
101.25793013215443
 10
104.3693763828439
 20
101.07872569309698
 10
106.01103330504954
 20
100.45401587586306
 10
106.63089065498885
 20
100.23009752597731
 10
108.25241282764809
 20
99.77919420133018
 10
109.54692755102782
 20
99.4395866779292
 10
110.63888770130922
 20
99.2500316781336
 10
112.46237826424765
 20
98.9563356047803
 10
113.21015402569755
 20
98.90600585274193
 10
115.3774273330733
 20
98.78111768588343
 10
116.0267326913151
 20
98.80745567846276
 10
118.29233413891001
 20
98.9156493090129
 10
119.18345932947885
 20
99.04915578254489
 10
121.20738516907272
 20
99.36258361091
 10
122.83525617787619
 20
99.78622517913554
 10
124.12284386638989
 20
100.1254930775709
 10
126.68824706725322
 20
101.0789030215532
 10
127.03923775209505
 20
101.20808376154477
 10
127.28442598961588
 20
101.32528778280067
 10
129.955989153522
 20
102.60579293230816
 10
132.32360924916432
 20
104.00431665401516
 10
132.87375600338143
 20
104.32688096639788
 10
133.9335055329929
 20
105.06635339794751
 10
135.79202607199176
 20
106.36383098391683
 10
136.49038820000604
 20
106.92916235238918
 10
138.71119547968345
 20
108.7160298352103
 10
139.95972044656136
 20
109.85733112844623
 10
141.6309610183958
 20
111.37753900056684
 10
143.01667939204637
 20
112.78569563229016
 10
144.55125088280138
 20
114.3389462427036
 10
145.78509836997048
 20
115.71427780342074
 10
147.4719905790369
 20
117.58878925361387
 10
148.34437887305387
 20
118.64312081696245
 10
150.39311072579736
 20
121.11347693400384
 10
150.74680778115285
 20
121.57218679811662
 10
151.9632493697526
 20
123.1475583687563
 10
153.00842297077267
 20
124.50328795012874
 10
153.31449617027798
 20
124.90082066875381
 10
155.14690243968641
 20
127.432564717052
 10
156.23615692384584
 20
128.94146736004694
 10
157.20917214809234
 20
130.36207528522093
 10
159.15803178213474
 20
133.2192723252227
 10
159.20535996931727
 20
133.29177695166763
 10
159.29428988571155
 20
133.428836779776
 10
161.09804052349543
 20
136.22251803196968
 10
162.0798043735636
 20
137.75853291964526
 10
162.93990656326216
 20
139.1523118191369
 10
164.29135134048425
 20
141.37038306439206
 10
164.72251037546437
 20
142.0828038634155
 10
165.001538726661
 20
142.55202490485848
 10
166.42580476395432
 20
145.0126221185962
 10
167.92373164226674
 20
147.65558526063472
 10
168.0831706430558
 20
147.94253884721923
 10
168.27305429646432
 20
148.29296895173528
 10
169.65692322199823
 20
150.8726126095014
 10
170.84541515671992
 20
153.15831012829736
 10
171.17613493884053
 20
153.80246649475947
 10
171.50228866859538
 20
154.46119282565323
 10
172.61279382335624
 20
156.7321874302755
 10
173.7669952566296
 20
159.19750879171144
 10
173.98313122462977
 20
159.66194371689693
 10
174.1556365628273
 20
160.0515440968587
 10
175.26295111185445
 20
162.59130234755577
 10
176.31309404750212
 20
165.14511298334187
 10
176.46480141561656
 20
165.5204729021223
 10
176.68769742809147
 20
166.1110254031637
 10
177.5707639332554
 20
168.4499090793833
 10
178.04690789309515
 20
169.81253977716855
 10
178.58229308183076
 20
171.37872652713654
 10
179.44627759356985
 20
174.1453449737712
 10
179.4956080868765
 20
174.3073580126807
 10
179.60845372008242
 20
174.71951220524699
 10
180.30200031384612
 20
177.23651101206664
 10
180.52654472003795
 20
178.15642949372068
 10
181.0000385701951
 20
180.16486266978364
 10
181.3573686081433
 20
181.9184962786869
 10
181.58665721803246
 20
183.09310022454122
 10
181.97316484380502
 20
185.46474271774883
 10
182.05896321189434
 20
186.0212620928232
 10
182.40054611065437
 20
188.8218559708844
 10
182.41494110376993
 20
188.94935526742225
 10
182.52893268002742
 20
190.35695320272657
 10
182.65374488626182
 20
191.87821211415292
 10
182.66036250084147
 20
192.00864138799923
 10
182.77438223250817
 20
194.80627033809506
 10
182.77691997111447
 20
195.05366961230965
 10
182.77647597828934
 20
197.73436485059878
 10
182.76936347668476
 20
197.97415908164987
 10
182.66022100941768
 20
200.66249691482457
 10
182.6518279009358
 20
200.78429362716727
 10
182.5289226892906
 20
202.31220331110077
 10
182.43500811212954
 20
203.49717484538795
 10
182.42662068626223
 20
203.58995786384617
 10
182.12885590322512
 20
206.1181029963349
 10
182.07701623547686
 20
206.5182412136845
 10
181.7438718568068
 20
208.65998836393612
 10
181.6116844787668
 20
209.44664399830486
 10
181.28753237082122
 20
211.13033669764081
 10
181.03132760485428
 20
212.37515267743416
 10
180.76599717724437
 20
213.5353399579407
 10
180.33646946821122
 20
215.30377232353692
 10
180.18429234549617
 20
215.88004869534862
 10
179.60850629223177
 20
217.94200044512448
 10
179.54569025426045
 20
218.16978085324516
 10
179.52770648799032
 20
218.231719260772
 10
178.85309868975898
 20
220.40333471719237
 10
178.60605932844035
 20
221.16057289257967
 10
178.1133754227816
 20
222.58969918229272
 10
177.57129297156112
 20
224.089542560599
 10
177.3287363763395
 20
224.73109830887702
 10
176.68809080158277
 20
226.349150750028
 10
176.49957415487216
 20
226.82953518094033
 10
176.42248286129814
 20
227.01776015014542
 10
175.62841591719626
 20
228.88424367978308
 10
175.15682398849285
 20
229.94696221237862
 10
174.7199105195934
 20
230.90159897649016
 10
173.7775052742973
 20
232.87627494048957
 10
173.77462227475797
 20
232.8821688478635
 10
173.76810766968615
 20
232.89494202470058
 10
172.78947462381004
 20
234.8239521253198
 10
172.27222566795072
 20
235.80475596895457
 10
171.77250167001793
 20
236.73272209901666
 10
170.84661279584446
 20
238.386558105336
 10
170.72207238653905
 20
238.60877562553046
 10
170.64978148596714
 20
238.7332046295803
 10
169.63564842191298
 20
240.4480083420199
 10
168.8907168086255
 20
241.66286153307115
 10
168.52052472232822
 20
242.2585821783861
 10
167.92615677909149
 20
243.18080577201098
 10
167.37161391696839
 20
244.0355957584538
 10
166.99864699673
 20
244.59143380327126
 10
166.1915039703883
 20
245.78112305844218
 10
165.00498124653365
 20
247.47148012079936
 10
164.984790740995
 20
247.49985028137144
 10
164.97000520864668
 20
247.51998352525572
 10
163.73965767108734
 20
249.18029450652648
 10
162.7684572897888
 20
250.449964832764
 10
162.47075579959701
 20
250.8370430872033
 10
162.08481821563512
 20
251.32301161415162
 10
161.16578874124951
 20
252.45689463004044
 10
160.39636205364482
 20
253.37861834290268
 10
159.83353852909894
 20
254.0502778010369
 10
159.16400007871295
 20
254.82581716437255
 10
158.46801972435838
 20
255.60902740085174
 10
157.83039665075984
 20
256.3072531799902
 10
157.0706613783051
 20
257.13728938864637
 10
156.24337899403977
 20
258.01653150373136
 10
155.641698867589
 20
258.6319986803167
 10
155.03637493295292
 20
259.23585422249994
 10
154.17675225550784
 20
260.09267135735035
 10
153.32298619650362
 20
260.92235488650437
 10
152.67922421402682
 20
261.5181987428664
 10
151.9648401143933
 20
262.16446948583894
 10
151.14339198134638
 20
262.90799085229685
 10
150.40284397852213
 20
263.5629991493302
 10
149.5696232229133
 20
264.2566086600052
 10
148.54391800518417
 20
265.0930899673287
 10
147.95866109860663
 20
265.57127245292025
 10
147.48297287904583
 20
265.95196270256923
 10
146.2979876373349
 20
266.8322758264096
 10
144.66752727832002
 20
268.02178156162614
 10
144.6065215698009
 20
268.066430330804
 10
144.56339314906086
 20
268.09742453468147
 10
142.8446280285307
 20
269.2254553157273
 10
141.64382708605706
 20
270.0014274685073
 10
141.0458055024046
 20
270.3468984122009
 10
139.99158705761732
 20
270.94831955932335
 10
139.18390873774402
 20
271.4104653294882
 10
138.7250088187421
 20
271.6697576632086
 10
137.2501287996206
 20
272.3961615998072
 10
135.806427391428
 20
273.10066789983756
 10
135.2600417977515
 20
273.32492271366084
 10
133.5722551313681
 20
274.0140166807464
 10
133.57334418065628
 20
274.0195652173913
 10
360.9760869565217
 20
274.0195652173913
 10
360.9760869565217
 20
64.77015031958005
 10
360.3040272786715
 20
65.21452560462416
 10
359.432558605082
 20
65.7718113805871
 10
358.515145295358
 20
66.34947468278291
 10
357.94084545215617
 20
66.69975267722508
 10
356.6448924248493
 20
67.39813309955649
 10
355.02277252080876
 20
68.2419095020564
 10
354.7093407014993
 20
68.38041726347014
 10
353.9626109123893
 20
68.69716278895305
 10
352.6528483213575
 20
69.24753073199159
 10
352.1068376932405
 20
69.4683709646307
 10
350.47852291446605
 20
69.98976353215372
 10
349.1905617570869
 20
70.38315330115383
 10
348.17503225763625
 20
70.6019874770723
 10
346.27512259602497
 20
70.9852243086996
 10
345.7042000292319
 20
71.04629549730903
 10
343.3602680246149
 20
71.26713728021365
 10
343.0086177677128
 20
71.26560116252152
 10
340.445721690911
 20
71.22447983990241
 10
340.0003481568622
 20
71.17215153080011
 10
337.5310588273901
 20
70.855975442122
 10
336.5402064311504
 20
70.62675086795856
 10
334.61596128792087
 20
70.16357712016115
 10
332.3980951404029
 20
69.39879060262288
 10
331.70013490970837
 20
69.15244264762913
 10
330.70551068044443
 20
68.69801368679357
 10
328.78290618218216
 20
67.82355333537573
 10
326.8242748751116
 20
66.73384766660564
 10
325.86533761128175
 20
66.19414329799667
 10
325.2284611697671
 20
65.77256140344505
 10
322.94654621003076
 20
64.2679193771556
 10
321.0593906289915
 20
62.844146884399706
 10
320.0271832260499
 20
62.065956597008
 10
317.4811547777046
 20
59.915637227660696
 10
317.1073099215292
 20
59.598929722771274
 10
314.3086708398632
 20
56.98704387477515
 10
314.18706640722
 20
56.87270723622365
 10
311.4324265919592
 20
54.05836777140068
 10
311.26648998243815
 20
53.88672037813669
 10
308.78535157013874
 20
51.12962218175781
 10
308.3456908527449
 20
50.63223469475713
 10
306.3254277518123
 20
48.20083197080051
 10
305.4246979665597
 20
47.09053221896265
 10
304.026213958026
 20
45.27202015786668
 10
302.5035274653265
 20
43.23076196721152
 10
301.87127608090714
 20
42.343210712142515
 10
300.47494169917593
 20
40.308258309464875
 10
299.86528075645487
 20
39.41347798198341
 10
299.5832385469343
 20
38.98060024487404
 10
298.0222594462788
 20
36.48491853220396
 10
296.6618861145491
 20
34.19292847546177
 10
296.29703301645156
 20
33.55637209457733
 10
295.86658374825544
 20
32.75852572915433
 10
294.7291578923686
 20
30.627327631548383
 10
293.74153541358095
 20
28.64481096321452
 10
293.2845697399407
 20
27.698971157267195
 10
292.9133232120525
 20
26.86841125737068
 10
291.9885917863778
 20
24.770301157680937
 10
290.8209518653969
 20
21.87900855825146
 10
290.806404080949
 20
21.842020188133365
 10
290.7984591061473
 20
21.819756387959515
 10
289.7804796121495
 20
18.91359583123709
 10
289.30173840378603
 20
17.389544571131452
 10
288.8704859902304
 20
15.985274283942012
 10
288.1397817456305
 20
13.29521861031058
 10
288.0618092314525
 20
13.0
 10
13.0
 20
13.0
 10
13.0
 20
274.0195652173913
  0
TEXT
  5
91
330
17
100
AcDbEntity
  8
GRABADO
100
AcDbText
 10
261.34581685485756
 20
143.78451557904927
 30
0.0
 40
6.0
  1
09
 72
1
 11
261.34581685485756
 21
143.78451557904927
 31
0.0
100
AcDbText
 73
2
  0
LWPOLYLINE
  5
92
330
17
100
AcDbEntity
  8
CORTE
100
AcDbPolyline
 90
396
 70
1
 10
13.0
 20
283.0
 10
13.0
 20
544.0195652173913
 10
107.04084586336143
 20
544.0195652173913
 10
107.04377625447725
 20
544.0034081129095
 10
106.63726493377966
 20
543.8509358413462
 10
106.59379410644635
 20
543.8304648316478
 10
103.7192355364019
 20
542.4985280691385
 10
100.93937535554915
 20
540.9480751149781
 10
100.80149018656529
 20
540.8698223209042
 10
100.57011721322692
 20
540.71677040898
 10
97.88237658915803
 20
538.9551595427636
 10
96.6334126599139
 20
538.0225013362201
 10
94.96361229786403
 20
536.7454660096095
 10
93.03193771767057
 20
535.0945438922695
 10
92.04439227569456
 20
534.225997546674
 10
89.9157875402722
 20
532.166622890077
 10
89.124746840617
 20
531.3751840162961
 10
87.15756540423612
 20
529.2386911385091
 10
86.2047169615812
 20
528.1630687547844
 10
84.67565334110695
 20
526.3107353926805
 10
83.28432997470648
 20
524.549600851359
 10
82.41655967051715
 20
523.3826865347448
 10
80.36362835316989
 20
520.4822829057714
 10
80.34498171304969
 20
520.4545492403803
 10
80.31069424433798
 20
520.4006613170675
 10
78.45936837888935
 20
517.5247416395871
 10
77.44345559574732
 20
515.8513664834975
 10
76.71342647989331
 20
514.596565359787
 10
75.83195861983012
 20
512.9799751303609
 10
75.10456283360882
 20
511.666852242503
 10
74.5229292971539
 20
510.5422288187624
 10
73.62167507916199
 20
508.73859900618805
 10
72.83929675527334
 20
507.04991065252574
 10
72.25265542830226
 20
505.80899670150035
 10
71.60205299528252
 20
504.3181125505009
 10
70.99125385642446
 20
502.8806332091273
 10
70.60025997377065
 20
501.8759039963353
 10
69.83235565215128
 20
499.9510683139855
 10
68.81703239643994
 20
497.1575158224947
 10
68.76631486960027
 20
497.02154143297673
 10
68.68138045747772
 20
496.7701262455216
 10
67.79364770616556
 20
494.0930546110038
 10
67.41648643878543
 20
492.8247401997411
 10
66.90696731484344
 20
491.1635495221716
 10
66.23792714601872
 20
488.7129031841149
 10
66.10294892433168
 20
488.234071212548
 10
65.76015331201202
 20
486.8559653439553
 10
65.3784988942326
 20
485.30537833709
 10
65.27418233670463
 20
484.81839492192944
 10
64.73098776460998
 20
482.375888086062
 10
64.48686155810758
 20
481.0990401120167
 10
64.15846008421315
 20
479.44641445528634
 10
63.83322116819454
 20
477.5137926593703
 10
63.65867784116506
 20
476.5169557953259
 10
63.29964070767855
 20
474.0490117438424
 10
63.22971349459699
 20
473.5875324232316
 10
62.87436080199676
 20
470.69287025288327
 10
62.86991023037615
 20
470.65809861372884
 10
62.8390663220146
 20
470.350026830877
 10
62.576569859679566
 20
467.72897638833274
 10
62.555572617557516
 20
467.4453614803173
 10
62.350135033011995
 20
464.7994867076038
 10
62.322969960109816
 20
464.28251396223135
 10
62.18991615292225
 20
461.8700127326556
 10
62.169028419508436
 20
461.1985957132873
 10
62.0952781506538
 20
458.94053091206524
 10
62.08796863688984
 20
458.1878131378612
 10
62.065857367235964
 20
456.01106207502096
 10
62.07479295257332
 20
455.245115203435
 10
62.10155985315639
 20
453.0815826478595
 10
62.12518858835685
 20
452.3662145355196
 10
62.20255992796393
 20
450.1521135342888
 10
62.235454414890995
 20
449.5473949240263
 10
62.369291091313656
 20
447.2226421316326
 10
62.40241928395142
 20
446.7854652036941
 10
62.602469751572
 20
444.2931562769799
 10
62.623406469556954
 20
444.0777334577749
 10
62.83904840942664
 20
441.98506502696785
 10
62.89657879082988
 20
441.4209436577157
 10
62.902704929174135
 20
441.36406158933937
 10
63.219843564079596
 20
438.8158938504973
 10
63.27000367855689
 20
438.4346343502036
 10
63.58994351726676
 20
436.2578476528058
 10
63.70700370537972
 20
435.505207763023
 10
64.00539808615515
 20
433.74530421255486
 10
64.21546095163174
 20
432.57575782975846
 10
64.46504982572371
 20
431.27710802914953
 10
64.7974271395746
 20
429.646304690713
 10
64.96803667849406
 20
428.852390739999
 10
65.45525683836118
 20
426.7168248328558
 10
65.51378855928616
 20
426.47057195574996
 10
65.76009108780103
 20
425.4955801425676
 10
66.10103152596209
 20
424.1293538682285
 10
66.1911767217701
 20
423.7881692516729
 10
66.7271572482509
 20
421.8282473305577
 10
67.00817293139643
 20
420.8587153151793
 10
67.3925451209831
 20
419.5665166197009
 10
67.90929859440341
 20
417.929224146258
 10
68.09735602818519
 20
417.3443231939471
 10
68.68126948412045
 20
415.6345321149013
 10
68.84147846335438
 20
415.16083500055424
 10
68.89876795246435
 20
415.00079315006155
 10
69.62099673139365
 20
413.0136440431834
 10
69.98388201227371
 20
412.07128287153483
 10
70.43772588856542
 20
410.9037628974084
 10
71.16418934946967
 20
409.1417452165872
 10
71.29244639877902
 20
408.83196829892756
 10
71.60186437532938
 20
408.1280804523614
 10
72.18341760066082
 20
406.7961897682222
 10
72.45266663528274
 20
406.21347031845943
 10
73.10926421113484
 20
404.79577830918277
 10
73.85098530855558
 20
403.2839010009053
 10
74.07205466925586
 20
402.8323851685425
 10
74.5226365770165
 20
401.9644455662546
 10
75.07137461246224
 20
400.90568595704514
 10
75.3726736888908
 20
400.35574306992805
 10
76.105414579294
 20
399.0137654272539
 10
77.02267432631783
 20
397.42604636650043
 10
77.176110135567
 20
397.1585519402156
 10
77.44304477516387
 20
396.7191318033699
 10
78.28377030333128
 20
395.3409625816459
 10
78.82684143471357
 20
394.498015469923
 10
79.42709268592301
 20
393.558580387993
 10
80.36392520801648
 20
392.17143370346685
 10
80.60780259776291
 20
391.81469922094897
 10
80.78410494251173
 20
391.57011039091
 10
81.8275332003278
 20
390.10892095111734
 10
82.93420875774945
 20
388.64023033237737
 10
83.08358869875804
 20
388.4394830842719
 10
83.28354379048106
 20
388.1850170162781
 10
84.38241530361479
 20
386.81461463685406
 10
85.3136681969594
 20
385.7123633884085
 10
85.71909851604703
 20
385.2259673363312
 10
86.20366760002915
 20
384.6745895993175
 10
87.10075783116714
 20
383.68474656074966
 10
87.95920957586853
 20
382.7846023413015
 10
88.52444923537706
 20
382.1832699133956
 10
89.12335130170271
 20
381.57813777431573
 10
89.99642917476326
 20
380.73324668197864
 10
90.94838220576499
 20
379.85689527204295
 10
91.51517898685469
 20
379.3269782817007
 10
92.04254667802041
 20
378.8581624069784
 10
93.08939142532925
 20
377.98014951524567
 10
94.40553451678333
 20
376.92921822013614
 10
94.71340336715937
 20
376.6792997361508
 10
94.96119002385788
 20
376.4878724089867
 10
96.40750887179439
 20
375.45338900882655
 10
97.88014484002721
 20
374.4501658446358
 10
98.15445049772556
 20
374.2811925083468
 10
98.62645366011877
 20
374.00423211446724
 10
99.98934866933058
 20
373.19160110590474
 10
100.79747127905108
 20
372.7326810988424
 10
101.9006197201918
 20
372.1848297932514
 10
103.7149769183756
 20
371.32737322392785
 10
103.89094123239146
 20
371.2579301321544
 10
104.3693763828439
 20
371.078725693097
 10
106.01103330504954
 20
370.45401587586304
 10
106.63089065498885
 20
370.23009752597727
 10
108.25241282764809
 20
369.77919420133014
 10
109.54692755102782
 20
369.4395866779292
 10
110.63888770130922
 20
369.2500316781336
 10
112.46237826424765
 20
368.9563356047803
 10
113.21015402569755
 20
368.90600585274194
 10
115.3774273330733
 20
368.78111768588343
 10
116.0267326913151
 20
368.80745567846276
 10
118.29233413891001
 20
368.9156493090129
 10
119.18345932947885
 20
369.04915578254486
 10
121.20738516907272
 20
369.36258361090995
 10
122.83525617787619
 20
369.7862251791355
 10
124.12284386638989
 20
370.12549307757087
 10
126.68824706725322
 20
371.0789030215532
 10
127.03923775209505
 20
371.20808376154474
 10
127.28442598961588
 20
371.3252877828007
 10
129.955989153522
 20
372.60579293230813
 10
132.32360924916432
 20
374.00431665401516
 10
132.87375600338143
 20
374.3268809663979
 10
133.9335055329929
 20
375.0663533979475
 10
135.79202607199176
 20
376.36383098391684
 10
136.49038820000604
 20
376.9291623523892
 10
138.71119547968345
 20
378.7160298352103
 10
139.95972044656136
 20
379.8573311284462
 10
141.6309610183958
 20
381.3775390005668
 10
143.01667939204637
 20
382.7856956322901
 10
144.55125088280138
 20
384.33894624270357
 10
145.78509836997048
 20
385.7142778034207
 10
147.4719905790369
 20
387.58878925361387
 10
148.34437887305387
 20
388.64312081696244
 10
150.39311072579736
 20
391.1134769340038
 10
150.74680778115285
 20
391.5721867981166
 10
151.9632493697526
 20
393.1475583687563
 10
153.00842297077267
 20
394.5032879501287
 10
153.31449617027798
 20
394.9008206687538
 10
155.14690243968641
 20
397.432564717052
 10
156.23615692384584
 20
398.94146736004694
 10
157.20917214809234
 20
400.36207528522095
 10
159.15803178213474
 20
403.21927232522273
 10
159.20535996931727
 20
403.2917769516676
 10
159.29428988571155
 20
403.428836779776
 10
161.09804052349543
 20
406.2225180319697
 10
162.0798043735636
 20
407.7585329196453
 10
162.93990656326216
 20
409.1523118191369
 10
164.29135134048425
 20
411.37038306439206
 10
164.72251037546437
 20
412.0828038634155
 10
165.001538726661
 20
412.5520249048585
 10
166.42580476395432
 20
415.0126221185962
 10
167.92373164226674
 20
417.6555852606347
 10
168.0831706430558
 20
417.9425388472192
 10
168.27305429646432
 20
418.29296895173525
 10
169.65692322199823
 20
420.8726126095014
 10
170.84541515671992
 20
423.15831012829733
 10
171.17613493884053
 20
423.80246649475947
 10
171.50228866859538
 20
424.46119282565326
 10
172.61279382335624
 20
426.73218743027553
 10
173.7669952566296
 20
429.19750879171147
 10
173.98313122462977
 20
429.66194371689693
 10
174.1556365628273
 20
430.0515440968587
 10
175.26295111185445
 20
432.59130234755577
 10
176.31309404750212
 20
435.14511298334185
 10
176.46480141561656
 20
435.52047290212226
 10
176.68769742809147
 20
436.1110254031637
 10
177.5707639332554
 20
438.4499090793833
 10
178.04690789309515
 20
439.8125397771686
 10
178.58229308183076
 20
441.37872652713656
 10
179.44627759356985
 20
444.1453449737712
 10
179.4956080868765
 20
444.3073580126807
 10
179.60845372008242
 20
444.719512205247
 10
180.30200031384612
 20
447.23651101206667
 10
180.52654472003795
 20
448.1564294937207
 10
181.0000385701951
 20
450.16486266978364
 10
181.3573686081433
 20
451.9184962786869
 10
181.58665721803246
 20
453.0931002245412
 10
181.97316484380502
 20
455.46474271774883
 10
182.05896321189434
 20
456.02126209282324
 10
182.40054611065437
 20
458.82185597088437
 10
182.41494110376993
 20
458.9493552674222
 10
182.52893268002742
 20
460.3569532027266
 10
182.65374488626182
 20
461.8782121141529
 10
182.66036250084147
 20
462.0086413879992
 10
182.77438223250817
 20
464.80627033809503
 10
182.77691997111447
 20
465.05366961230965
 10
182.77647597828934
 20
467.7343648505988
 10
182.76936347668476
 20
467.9741590816499
 10
182.66022100941768
 20
470.6624969148246
 10
182.6518279009358
 20
470.78429362716724
 10
182.5289226892906
 20
472.3122033111008
 10
182.43500811212954
 20
473.4971748453879
 10
182.42662068626223
 20
473.58995786384617
 10
182.12885590322512
 20
476.11810299633487
 10
182.07701623547686
 20
476.5182412136845
 10
181.7438718568068
 20
478.6599883639361
 10
181.6116844787668
 20
479.44664399830486
 10
181.28753237082122
 20
481.1303366976408
 10
181.03132760485428
 20
482.37515267743413
 10
180.76599717724437
 20
483.53533995794066
 10
180.33646946821122
 20
485.3037723235369
 10
180.18429234549617
 20
485.8800486953486
 10
179.60850629223177
 20
487.94200044512445
 10
179.54569025426045
 20
488.16978085324513
 10
179.52770648799032
 20
488.231719260772
 10
178.85309868975898
 20
490.40333471719237
 10
178.60605932844035
 20
491.1605728925797
 10
178.1133754227816
 20
492.58969918229275
 10
177.57129297156112
 20
494.089542560599
 10
177.3287363763395
 20
494.731098308877
 10
176.68809080158277
 20
496.349150750028
 10
176.49957415487216
 20
496.8295351809403
 10
176.42248286129814
 20
497.0177601501454
 10
175.62841591719626
 20
498.8842436797831
 10
175.15682398849285
 20
499.9469622123786
 10
174.7199105195934
 20
500.90159897649016
 10
173.7775052742973
 20
502.87627494048957
 10
173.77462227475797
 20
502.8821688478635
 10
173.76810766968615
 20
502.8949420247006
 10
172.78947462381004
 20
504.8239521253198
 10
172.27222566795072
 20
505.80475596895457
 10
171.77250167001793
 20
506.73272209901666
 10
170.84661279584446
 20
508.386558105336
 10
170.72207238653905
 20
508.6087756255305
 10
170.64978148596714
 20
508.7332046295803
 10
169.63564842191298
 20
510.4480083420199
 10
168.8907168086255
 20
511.6628615330711
 10
168.52052472232822
 20
512.2585821783861
 10
167.92615677909149
 20
513.180805772011
 10
167.37161391696839
 20
514.0355957584538
 10
166.99864699673
 20
514.5914338032712
 10
166.1915039703883
 20
515.7811230584422
 10
165.00498124653365
 20
517.4714801207994
 10
164.984790740995
 20
517.4998502813714
 10
164.97000520864668
 20
517.5199835252557
 10
163.73965767108734
 20
519.1802945065265
 10
162.7684572897888
 20
520.449964832764
 10
162.47075579959701
 20
520.8370430872033
 10
162.08481821563512
 20
521.3230116141516
 10
161.16578874124951
 20
522.4568946300404
 10
160.39636205364482
 20
523.3786183429027
 10
159.83353852909894
 20
524.0502778010369
 10
159.16400007871295
 20
524.8258171643726
 10
158.46801972435838
 20
525.6090274008518
 10
157.83039665075984
 20
526.3072531799902
 10
157.0706613783051
 20
527.1372893886464
 10
156.24337899403977
 20
528.0165315037314
 10
155.641698867589
 20
528.6319986803167
 10
155.03637493295292
 20
529.2358542224999
 10
154.17675225550784
 20
530.0926713573504
 10
153.32298619650362
 20
530.9223548865043
 10
152.67922421402682
 20
531.5181987428664
 10
151.9648401143933
 20
532.1644694858389
 10
151.14339198134638
 20
532.9079908522968
 10
150.40284397852213
 20
533.5629991493302
 10
149.5696232229133
 20
534.2566086600052
 10
148.54391800518417
 20
535.0930899673286
 10
147.95866109860663
 20
535.5712724529203
 10
147.48297287904583
 20
535.9519627025692
 10
146.2979876373349
 20
536.8322758264096
 10
144.66752727832002
 20
538.0217815616261
 10
144.6065215698009
 20
538.066430330804
 10
144.56339314906086
 20
538.0974245346815
 10
142.8446280285307
 20
539.2254553157272
 10
141.64382708605706
 20
540.0014274685072
 10
141.0458055024046
 20
540.346898412201
 10
139.99158705761732
 20
540.9483195593234
 10
139.18390873774402
 20
541.4104653294883
 10
138.7250088187421
 20
541.6697576632087
 10
137.2501287996206
 20
542.3961615998072
 10
135.806427391428
 20
543.1006678998376
 10
135.2600417977515
 20
543.3249227136608
 10
133.5722551313681
 20
544.0140166807464
 10
133.57334418065628
 20
544.0195652173913
 10
360.9760869565217
 20
544.0195652173913
 10
360.9760869565217
 20
334.77015031958007
 10
360.3040272786715
 20
335.21452560462416
 10
359.432558605082
 20
335.7718113805871
 10
358.515145295358
 20
336.3494746827829
 10
357.94084545215617
 20
336.6997526772251
 10
356.6448924248493
 20
337.3981330995565
 10
355.02277252080876
 20
338.2419095020564
 10
354.7093407014993
 20
338.3804172634701
 10
353.9626109123893
 20
338.69716278895305
 10
352.6528483213575
 20
339.24753073199156
 10
352.1068376932405
 20
339.4683709646307
 10
350.47852291446605
 20
339.9897635321537
 10
349.1905617570869
 20
340.3831533011538
 10
348.17503225763625
 20
340.60198747707227
 10
346.27512259602497
 20
340.98522430869957
 10
345.7042000292319
 20
341.046295497309
 10
343.3602680246149
 20
341.26713728021366
 10
343.0086177677128
 20
341.26560116252153
 10
340.445721690911
 20
341.2244798399024
 10
340.0003481568622
 20
341.1721515308001
 10
337.5310588273901
 20
340.855975442122
 10
336.5402064311504
 20
340.62675086795855
 10
334.61596128792087
 20
340.1635771201611
 10
332.3980951404029
 20
339.39879060262285
 10
331.70013490970837
 20
339.15244264762913
 10
330.70551068044443
 20
338.69801368679356
 10
328.78290618218216
 20
337.8235533353757
 10
326.8242748751116
 20
336.73384766660564
 10
325.86533761128175
 20
336.1941432979967
 10
325.2284611697671
 20
335.772561403445
 10
322.94654621003076
 20
334.2679193771556
 10
321.0593906289915
 20
332.8441468843997
 10
320.0271832260499
 20
332.065956597008
 10
317.4811547777046
 20
329.9156372276607
 10
317.1073099215292
 20
329.5989297227713
 10
314.3086708398632
 20
326.98704387477517
 10
314.18706640722
 20
326.8727072362236
 10
311.4324265919592
 20
324.0583677714007
 10
311.26648998243815
 20
323.88672037813666
 10
308.78535157013874
 20
321.1296221817578
 10
308.3456908527449
 20
320.63223469475713
 10
306.3254277518123
 20
318.2008319708005
 10
305.4246979665597
 20
317.0905322189626
 10
304.026213958026
 20
315.2720201578667
 10
302.5035274653265
 20
313.2307619672115
 10
301.87127608090714
 20
312.3432107121425
 10
300.47494169917593
 20
310.30825830946486
 10
299.86528075645487
 20
309.4134779819834
 10
299.5832385469343
 20
308.98060024487404
 10
298.0222594462788
 20
306.48491853220395
 10
296.6618861145491
 20
304.19292847546177
 10
296.29703301645156
 20
303.55637209457734
 10
295.86658374825544
 20
302.7585257291543
 10
294.7291578923686
 20
300.6273276315484
 10
293.74153541358095
 20
298.6448109632145
 10
293.2845697399407
 20
297.6989711572672
 10
292.9133232120525
 20
296.86841125737067
 10
291.9885917863778
 20
294.77030115768093
 10
290.8209518653969
 20
291.8790085582514
 10
290.806404080949
 20
291.84202018813335
 10
290.7984591061473
 20
291.8197563879595
 10
289.7804796121495
 20
288.9135958312371
 10
289.30173840378603
 20
287.38954457113147
 10
288.8704859902304
 20
285.985274283942
 10
288.1397817456305
 20
283.29521861031054
 10
288.0618092314525
 20
283.0
 10
13.0
 20
283.0
  0
LWPOLYLINE
  5
93
330
17
100
AcDbEntity
  8
GRABADO
100
AcDbPolyline
 90
424
 70
1
 10
13.0
 20
544.0195652173913
 10
95.09069421074716
 20
544.0195652173913
 10
92.04189583116634
 20
541.5711474377069
 10
91.34916687047637
 20
540.957603742875
 10
89.12219969655267
 20
538.9353888157378
 10
88.20501387884615
 20
538.0293744752399
 10
86.20215863381152
 20
535.9908693215427
 10
85.38900875761342
 20
535.1010981729388
 10
83.28179530497698
 20
532.7132599049457
 10
82.83352956689762
 20
532.1727768560058
 10
81.04807994004013
 20
529.9316736787617
 10
80.49587587811084
 20
529.2426722772266
 10
80.3619585573574
 20
529.068205807898
 10
78.35604048656776
 20
526.3143992494265
 10
77.44104045759389
 20
524.9955166027889
 10
76.37247228987087
 20
523.3860279045358
 10
74.54825654518172
 20
520.4843946357573
 10
74.5302643069633
 20
520.4561415796339
 10
74.52065677516146
 20
520.4401573227086
 10
72.83174678855583
 20
517.5277705107476
 10
71.59926600574114
 20
515.2618070749413
 10
71.24906208927116
 20
514.599282871849
 10
70.90698708677786
 20
513.9046935468973
 10
69.78330707413264
 20
511.6695503073197
 10
68.67835216083347
 20
509.301459614112
 10
68.42234264033887
 20
508.7409994194161
 10
68.23529846305006
 20
508.29652529683926
 10
67.16253630748146
 20
505.81135666557475
 10
66.16391860093715
 20
503.28908273098943
 10
65.99829812820889
 20
502.8817269449222
 10
65.75772072076369
 20
502.2334857194612
 10
64.92290917976516
 20
499.95309246808785
 10
64.50779352424227
 20
498.6997032853078
 10
63.934677501613436
 20
497.0234945500315
 10
63.12161150104939
 20
494.3795594150904
 10
63.030832446400396
 20
494.09394344539186
 10
62.836602676122965
 20
493.41001357547685
 10
62.202922845286594
 20
491.1651627678609
 10
61.99173731122934
 20
490.31817755912175
 10
61.45193488564469
 20
488.23558862494804
 10
61.043851791502064
 20
486.4376944024648
 10
60.77652213368263
 20
485.30605174992496
 10
60.244069600536065
 20
482.7057730092078
 10
60.173816634678104
 20
482.37650679214784
 10
59.915314232912266
 20
480.96159046674273
 10
59.637975446537155
 20
479.44748940032434
 10
59.58747994714918
 20
479.1192124310557
 10
59.1678709413941
 20
476.51791047913616
 10
59.052980362766405
 20
475.6534149853029
 10
58.76484331579708
 20
473.5883605898673
 10
58.619147812844574
 20
472.2886152755682
 10
58.427119883478156
 20
470.65879454610115
 10
58.2769507736116
 20
469.0157369812367
 10
58.15322575901109
 20
467.7292443663234
 10
58.018570158229934
 20
465.8269465255519
 10
57.941976256139625
 20
464.79968731024235
 10
57.8372519988979
 20
462.71547456589735
 10
57.792470462072515
 20
461.87014433856575
 10
57.72714074857534
 20
459.67544048940744
 10
57.70406835637414
 20
458.9405926495464
 10
57.68318847915663
 20
456.70180954380453
 10
57.676411108106834
 20
456.0110532727838
 10
57.70102979193706
 20
453.79013793011916
 10
57.70939221630516
 20
453.08150346263557
 10
57.77692602402939
 20
450.9367410424287
 10
57.803178325502984
 20
450.15196416907867
 10
57.90767148037234
 20
448.1383821635862
 10
57.958195674463326
 20
447.22242350932913
 10
58.09054826328564
 20
445.39232525100755
 10
58.1751414925299
 20
444.292869503305
 10
58.32327252323401
 20
442.6962887994913
 10
58.45498811458242
 20
441.36332343587276
 10
58.60395876202551
 20
440.0483772789835
 10
58.79899098665901
 20
438.43376220281976
 10
58.931078733663824
 20
437.447057019197
 10
59.20870333898287
 20
435.5042069044004
 10
59.30343601351481
 20
434.8911314397192
 10
59.68596971688497
 20
432.57463443492657
 10
59.72013706935839
 20
432.3796936743714
 10
59.91527826177757
 20
431.33912306952635
 10
60.177682609802645
 20
429.9080794854299
 10
60.22892657826843
 20
429.64565841617883
 10
60.673844460484176
 20
427.476428548448
 10
60.84010149481834
 20
426.7161220046014
 10
61.21023793717795
 20
425.08514849000017
 10
61.52480039139087
 20
423.78658366740603
 10
61.78675062084527
 20
422.7341216515223
 10
62.28601381493793
 20
420.85703035479065
 10
62.40349576262672
 20
420.42345489037257
 10
62.83653488888717
 20
418.9297202999786
 10
63.05775817928205
 20
418.1494914358424
 10
63.12456518919244
 20
417.9282938328803
 10
63.743857401708965
 20
415.90845846889727
 10
64.04130784748999
 20
414.99874388783275
 10
64.46782384903604
 20
413.70540109171793
 10
65.04390997166983
 20
412.0691580384726
 10
65.23036689566955
 20
411.54103059762554
 10
65.75760621832526
 20
410.14385778963333
 10
66.02842581066417
 20
409.4116203792071
 10
66.13513013253896
 20
409.14059386481665
 10
66.85571457243897
 20
407.3122389345251
 10
67.31823478722025
 20
406.2109776319237
 10
67.72025781632344
 20
405.25020854140433
 10
68.59915426525924
 20
403.2813368252109
 10
68.62331028232194
 20
403.22678476743147
 10
68.67816732713605
 20
403.1107852659625
 10
69.55248068275318
 20
401.22922319378523
 10
69.98572712045642
 20
400.35287268265364
 10
70.5173682260063
 20
399.26783298951375
 10
71.47996907094405
 20
397.42315306085726
 10
71.52040772470656
 20
397.34466761605745
 10
71.59900080738083
 20
397.20158559619176
 10
72.54994912978133
 20
395.4481035676939
 10
73.09920036351257
 20
394.49476853328565
 10
73.61511703738046
 20
393.5872485905625
 10
74.52030569861016
 20
392.0898586759919
 10
74.71663143100362
 20
391.76319497617374
 10
74.84194612512096
 20
391.5664859408806
 10
75.8465348339091
 20
389.9672445453499
 10
76.73330442257156
 20
388.63662076746556
 10
77.01368489407561
 20
388.20857934096875
 10
77.44054846408562
 20
387.5948533401032
 10
78.21370340745021
 20
386.48373240199044
 10
78.78490168024754
 20
385.7083784950655
 10
79.44787676855738
 20
384.7922311967038
 10
80.36131056706101
 20
383.6009111834816
 10
80.71874761754444
 20
383.138885603415
 10
81.01195015828903
 20
382.7802445647658
 10
82.02425436681179
 20
381.51884992464215
 10
83.28176170593784
 20
380.03709261001933
 10
83.36719586962025
 20
379.9382697212691
 10
83.4457088060234
 20
379.85218785495493
 10
84.74938333541472
 20
378.39504715642283
 10
86.14060876764749
 20
376.9219958370011
 10
86.16996689558485
 20
376.8902185707353
 10
86.20100977771745
 20
376.8584061379301
 10
87.6340478408263
 20
375.4316753492175
 10
89.1215376858574
 20
374.0265888436796
 10
89.13693574669564
 20
374.01264901125325
 10
89.1559621139357
 20
373.99627814687676
 10
90.69423762172507
 20
372.6447872111279
 10
92.04076366370973
 20
371.5208205403252
 10
92.29280573539096
 20
371.32234462243633
 10
92.63182930642539
 20
371.06834739166527
 10
93.95258010074845
 20
370.0570892046567
 10
94.95947362120364
 20
369.3237789628432
 10
95.6644542678654
 20
368.8489253500803
 10
96.76933275852633
 20
368.1403640304896
 10
97.44049308433154
 20
367.70009034374857
 10
97.87761594933163
 20
367.42709921272444
 10
99.29112805929482
 20
366.63172271150836
 10
100.7958413331745
 20
365.82532763182235
 10
101.20976682580172
 20
365.6321979939953
 10
102.14975249718196
 20
365.2147454569161
 10
103.22746371510141
 20
364.72545255869477
 10
103.71266057603754
 20
364.51572437148
 10
105.35069583802398
 20
363.9315646467429
 10
106.62946014461023
 20
363.4983242725303
 10
107.58781402786661
 20
363.2522595751594
 10
109.54556263815012
 20
362.7775195887639
 10
109.96424046776052
 20
362.7127864454802
 10
112.46111001729464
 20
362.35434691408057
 10
112.51850198247251
 20
362.35145511314636
 10
113.97234697482038
 20
362.2901404309887
 10
115.32186777094199
 20
362.23212642322045
 10
115.37577304631797
 20
362.23021370014567
 10
116.33195253336571
 20
362.29006315944287
 10
118.29132015396272
 20
362.4105176156002
 10
118.4312683922504
 20
362.433416627042
 10
121.20650222816374
 20
362.89751237308855
 10
122.03729266013129
 20
363.1243902695464
 10
124.12207592759543
 20
363.6975730006025
 10
126.3988621502303
 20
364.57186727073866
 10
127.03823351837055
 20
364.81768641690735
 10
127.83604259837298
 20
365.2135934484835
 10
129.95540689917866
 20
366.2519871220197
 10
132.55249251774393
 20
367.81773420526076
 10
132.87298895013646
 20
368.0107595680572
 10
133.05125630557117
 20
368.138511177206
 10
135.79156493953758
 20
370.0817654036164
 10
136.988317715673
 20
371.0665788800452
 10
138.7108026630845
 20
372.4711348941306
 10
140.35340244508168
 20
373.9947686700449
 10
141.63063082146357
 20
375.16995552939784
 10
143.33353394769426
 20
376.9231525300669
 10
144.55097918871513
 20
378.16742191896304
 10
146.0447348178134
 20
379.85176969989993
 10
147.4717761137779
 20
381.45005301879326
 10
148.56195490979937
 20
382.7806597297639
 10
150.39295447732493
 20
385.0013073096923
 10
150.93495889859386
 20
385.7098073119843
 10
152.77038993239307
 20
388.0947098187001
 10
153.190536741602
 20
388.6410518161033
 10
153.3145322911373
 20
388.8016702780709
 10
155.31991273451126
 20
391.5704297941325
 10
156.23626881712008
 20
392.8316170754977
 10
157.38422160988372
 20
394.5000603899972
 10
159.1582255298539
 20
397.0724680467517
 10
159.39366117150595
 20
397.42988570550347
 10
159.85427099977346
 20
398.1283234079679
 10
161.32121568112345
 20
400.3609058374301
 10
162.08025156236587
 20
401.51872433880357
 10
163.20013210755982
 20
403.2908740261868
 10
165.00249188612537
 20
406.1548002259494
 10
165.04296595467966
 20
406.22100844670445
 10
165.10640942971122
 20
406.3254579907577
 10
166.81216168575816
 20
409.15170536823507
 10
167.92456288537932
 20
411.0151216630053
 10
168.5481712771223
 20
412.08187264768
 10
169.4025762004925
 20
413.56419803431436
 10
170.23042008579998
 20
415.0122968433769
 10
170.84652335677825
 20
416.11112437553936
 10
171.85962419075648
 20
417.9424398020891
 10
173.05802306788266
 20
420.160225408492
 10
173.4390169982191
 20
420.872552278292
 10
173.7683489745604
 20
421.50681022233687
 10
174.9527905296475
 20
423.8026175193602
 10
176.13573892913413
 20
426.17662031895946
 10
176.4092162374149
 20
426.7323740907598
 10
176.6900381314351
 20
427.32748756136215
 10
177.7919631044101
 20
429.6623255153411
 10
178.6970563777266
 20
431.67481835132327
 10
179.10314294712109
 20
432.59171486584887
 10
179.6116213354051
 20
433.8068652283916
 10
180.33370705964668
 20
435.5215043823398
 10
180.80676797350586
 20
436.71969078652614
 10
181.47728481181198
 20
438.4505209251407
 10
182.52855242567767
 20
441.37605951157315
 10
182.5297128131129
 20
441.37935910274103
 10
182.53234034438643
 20
441.38751440727236
 10
183.48531132713438
 20
444.30878686115125
 10
183.88622636918655
 20
445.66586094933564
 10
184.33756456458406
 20
447.2372958336165
 10
184.95978980759796
 20
449.6715976074609
 10
185.08189634172757
 20
450.1656518240728
 10
185.45330075720955
 20
451.89281300186985
 10
185.71661756748313
 20
453.0947820430059
 10
185.7769425081224
 20
453.4183513915898
 10
186.238739118668
 20
456.022929289644
 10
186.37207704444452
 20
456.9437529046928
 10
186.64373846385715
 20
458.9510024959597
 10
186.78121459033247
 20
460.2824614939626
 10
186.9303667897816
 20
461.8790541385885
 10
187.02828596264717
 20
463.4585054403576
 10
187.09806101513266
 20
464.8070914651728
 10
187.13380004756974
 20
466.492477649767
 10
187.1468048008078
 20
467.7351639683054
 10
187.1151770681263
 20
469.4018737499438
 10
187.07698535834956
 20
470.6632734455583
 10
186.98708625770527
 20
472.2014351455148
 10
186.88924371446257
 20
473.59146232637784
 10
186.7618037423357
 20
474.9034923014664
 10
186.5843316490861
 20
476.5197136310294
 10
186.44953479232385
 20
477.5183063937252
 10
186.1629827982738
 20
479.448083715013
 10
186.058707317327
 20
480.0543645472155
 10
185.62580202758647
 20
482.3765587343811
 10
185.5962350611676
 20
482.5186051915109
 10
185.4533588359481
 20
483.15756795714185
 10
185.06893287023775
 20
484.92012433832565
 10
184.9794179073773
 20
485.30448173725813
 10
184.48364558551452
 20
487.2612401943837
 10
184.2219903888247
 20
488.2331801913753
 10
183.84367416397913
 20
489.5475834827735
 10
183.3515697965037
 20
491.16201376348744
 10
183.15213983156573
 20
491.7822924336084
 10
182.5325922496835
 20
493.6058327930914
 10
182.41156967161726
 20
493.96986659228327
 10
182.36943660770999
 20
494.09029349709726
 10
181.62973011061192
 20
496.11407505111356
 10
181.2819539022717
 20
497.0193438196486
 10
180.8058132506042
 20
498.2161788768345
 10
180.08199045014956
 20
499.94852383379896
 10
179.94083592295024
 20
500.2771992153321
 10
179.612295716585
 20
501.00589532102777
 10
179.0385616707854
 20
502.3024759404326
 10
178.77255324202454
 20
502.8770989431638
 10
178.1023488565033
 20
504.2921531134458
 10
177.35208834294286
 20
505.8065031062358
 10
177.13048157920605
 20
506.24616825750434
 10
176.69142148715798
 20
507.0788443713251
 10
176.12522615792358
 20
508.167979330667
 10
175.81774488163632
 20
508.73519418663875
 10
175.09011205917795
 20
510.0586740712032
 10
174.16912617350835
 20
511.664814943079
 10
174.02293876866835
 20
511.91732872258916
 10
173.77067733631185
 20
512.3349811862308
 10
172.9258736078049
 20
513.746874701101
 10
172.39888031626072
 20
514.5936484299928
 10
171.80080711454207
 20
515.5475923087693
 10
170.84920380390315
 20
517.0063564524555
 10
170.64590788306384
 20
517.3188919408905
 10
170.50852003991645
 20
517.5224751748592
 10
169.46366909694413
 20
519.0623923182477
 10
168.48482172178973
 20
520.4524015300852
 10
168.25444593425593
 20
520.7789551948063
 10
167.92866060455512
 20
521.2237292388689
 10
167.016067049179
 20
522.4662768995489
 10
166.3202351868552
 20
523.3813337036656
 10
165.7521687595853
 20
524.1281658702044
 10
165.00742825593213
 20
525.0734750831052
 10
164.46005469278032
 20
525.7612947037469
 10
164.0088105021167
 20
526.3102336590866
 10
163.14060418805133
 20
527.3676226418401
 10
162.0863442966219
 20
528.6102128562453
 10
161.7953322123031
 20
528.9470962872102
 10
161.53534794730606
 20
529.2391275743378
 10
160.41885827556106
 20
530.4964092380577
 10
159.16543591943537
 20
531.86556248247
 10
159.01925922058118
 20
532.0210477957121
 10
158.87718897385497
 20
532.1680114210509
 10
157.58364030462542
 20
533.5112353638508
 10
156.2446998739666
 20
534.8630112443757
 10
156.12667103469883
 20
534.9779582694449
 10
156.0013914499154
 20
535.0968837876574
 10
154.62911012355798
 20
536.4062201139002
 10
153.32416607455647
 20
537.6195640334614
 10
153.10970139089176
 20
537.8099149295116
 10
152.86079706703418
 20
538.0257514831982
 10
151.54658169710942
 20
539.1726250890737
 10
150.40385525074194
 20
540.1467238475608
 10
149.9572955500699
 20
540.5058036754094
 10
149.3873872127684
 20
540.9546034417774
 10
148.32403704738473
 20
541.7983924559899
 10
147.48378792174375
 20
542.4512833591148
 10
146.6546204836804
 20
543.0507798017027
 10
145.28986957485338
 20
544.0195652173913
 10
306.92907406230586
 20
544.0195652173913
 10
307.7999883494059
 20
543.4811936675245
 10
308.3231183145076
 20
543.191851608965
 10
309.744645660462
 20
542.5108875702658
 10
311.2385928401167
 20
541.8775974411608
 10
311.82309082396114
 20
541.6748328038989
 10
313.78621381670035
 20
541.0851605811824
 10
314.0676137220648
 20
540.997518014106
 10
314.151174600926
 20
540.9752747423944
 10
316.51390653363507
 20
540.5297517103389
 10
317.0657392672523
 20
540.4466597850494
 10
319.1923079289399
 20
540.2938527475924
 10
319.9804258630045
 20
540.2621988824112
 10
322.15995254733184
 20
540.3468395249445
 10
322.8954970319993
 20
540.3947102802829
 10
325.49625737118805
 20
540.7681794278626
 10
325.8112259753785
 20
540.8201981912387
 10
326.90883084199737
 20
541.0863769489293
 10
328.7292156325125
 20
541.5170975545973
 10
329.35187508404044
 20
541.712303801985
 10
331.6462933887148
 20
542.4649975890127
 10
333.94444443644704
 20
543.3901336931037
 10
334.5641555359716
 20
543.6467571595306
 10
335.3317871430159
 20
544.0195652173913
 10
360.9760869565217
 20
544.0195652173913
 10
360.9760869565217
 20
341.3897621034629
 10
360.75389869363016
 20
341.5236924475432
 10
360.56779166526894
 20
341.6325722219664
 10
358.9038430289214
 20
342.5978934299279
 10
357.943112584026
 20
343.1401584950822
 10
356.99551226612806
 20
343.60855472887243
 10
355.02503139887466
 20
344.55361632023255
 10
355.0232938765455
 20
344.55431485487975
 10
355.01235279770407
 20
344.5585635063918
 10
352.915416341048
 20
345.37046302428314
 10
352.1086777264517
 20
345.67345949359503
 10
350.70881122665287
 20
346.080586328876
 10
349.19232612989816
 20
346.50544668522434
 10
348.3728728808891
 20
346.66056273767447
 10
346.2767874764351
 20
347.0368398023866
 10
345.8678937678742
 20
347.07092748172175
 10
343.3618173516618
 20
347.25754097404763
 10
343.13348635573595
 20
347.25159216830457
 10
340.4471529146261
 20
347.1600434210284
 10
340.07572869607293
 20
347.1087796061292
 10
337.53238401253384
 20
346.73956921085164
 10
336.54284865490325
 20
346.4906640931133
 10
334.61720294453386
 20
345.99425713389843
 10
332.27687419987365
 20
345.13868220079615
 10
331.70131885423285
 20
344.92520112110765
 10
330.9406529716889
 20
344.56077616297677
 10
328.7839624839974
 20
343.53997886777773
 10
326.3805317083532
 20
342.15065286189486
 10
325.8663263995824
 20
341.85108362236656
 10
325.5516169937929
 20
341.63538763015754
 10
322.9472938075854
 20
339.87289635998167
 10
321.4411656891924
 20
338.7068393009439
 10
320.0276390834437
 20
337.62368526035056
 10
317.8765398487909
 20
335.7781291243778
 10
317.1074467157903
 20
335.12305564086614
 10
314.6819413373049
 20
332.84925627626825
 10
314.1868737357576
 20
332.38681178168247
 10
311.7536990030835
 20
329.9202388995125
 10
311.265970166832
 20
329.4254465115276
 10
309.0287160405047
 20
326.9911073672261
 10
308.34485619243725
 20
326.2427708317022
 10
306.4679910135798
 20
324.06189745601597
 10
305.4235691684799
 20
322.8346691913856
 10
304.0476023488697
 20
321.1326373540379
 10
302.50213281387397
 20
319.1877796156558
 10
301.7534198206371
 20
318.2033615493477
 10
299.58062474540185
 20
315.2780348678748
 10
299.5778059926103
 20
315.2740962491417
 10
299.5701179167423
 20
315.263019521062
 10
297.55672922736505
 20
312.3441421580411
 10
296.65987908343754
 20
310.9941077721819
 10
295.64435367782784
 20
309.41514062690067
 10
294.01124721428874
 20
306.75863710674076
 10
293.8447716650023
 20
306.48564144288326
 10
293.7393477737018
 20
306.30341826043974
 10
292.19453399651405
 20
303.5568991608461
 10
290.8177352429129
 20
300.95569649407196
 10
290.64835170535656
 20
300.6281808844749
 10
290.4894329631737
 20
300.29887131887244
 10
289.2488702865688
 20
297.69929022914215
 10
288.00146716595617
 20
294.87404256688717
 10
287.9563797984175
 20
294.7705762795154
 10
287.8981282213793
 20
294.62474991763395
 10
286.80899524220166
 20
291.8421238672754
 10
286.20608354672765
 20
290.1456456321091
 10
285.7756760196133
 20
288.9136372118586
 10
284.97707391743137
 20
286.3683661897697
 10
284.85876161422846
 20
285.9851292115441
 10
284.8140721297685
 20
285.8222532561971
 10
284.0578163771739
 20
283.0
 10
13.0
 20
283.0
 10
13.0
 20
544.0195652173913
  0
TEXT
  5
94
330
17
100
AcDbEntity
  8
GRABADO
100
AcDbText
 10
263.40996729574005
 20
414.00721859662247
 30
0.0
 40
6.0
  1
10
 72
1
 11
263.40996729574005
 21
414.00721859662247
 31
0.0
100
AcDbText
 73
2
  0
TEXT
  5
95
330
17
100
AcDbEntity
  8
HOJA
100
AcDbText
 10
10.0
 20
691.0
 30
0.0
 40
6.0
  1
terreno_prueba  hoja 5/9  1:345  lamina 3.0mm
 11
10.0
 21
691.0
 31
0.0
100
AcDbText
  0
ENDSEC
  0
SECTION
  2
OBJECTS
  0
DICTIONARY
  5
A
330
0
100
AcDbDictionary
281
1
  3
ACAD_COLOR
350
B
  3
ACAD_GROUP
350
C
  3
ACAD_LAYOUT
350
D
  3
ACAD_MATERIAL
350
E
  3
ACAD_MLEADERSTYLE
350
F
  3
ACAD_MLINESTYLE
350
10
  3
ACAD_PLOTSETTINGS
350
11
  3
ACAD_PLOTSTYLENAME
350
12
  3
ACAD_SCALELIST
350
14
  3
ACAD_TABLESTYLE
350
15
  3
ACAD_VISUALSTYLE
350
16
  3
EZDXF_META
350
2D
  0
DICTIONARY
  5
B
330
A
100
AcDbDictionary
281
1
  0
DICTIONARY
  5
C
330
A
100
AcDbDictionary
281
1
  0
DICTIONARY
  5
D
330
A
100
AcDbDictionary
281
1
  3
Model
350
1A
  3
Layout1
350
1E
  0
DICTIONARY
  5
E
330
A
100
AcDbDictionary
281
1
  3
ByBlock
350
1F
  3
ByLayer
350
20
  3
Global
350
21
  0
DICTIONARY
  5
F
330
A
100
AcDbDictionary
281
1
  3
Standard
350
2C
  0
DICTIONARY
  5
10
330
A
100
AcDbDictionary
281
1
  3
Standard
350
22
  0
DICTIONARY
  5
11
330
A
100
AcDbDictionary
281
1
  0
ACDBDICTIONARYWDFLT
  5
12
330
A
100
AcDbDictionary
281
1
  3
Normal
350
13
100
AcDbDictionaryWithDefault
340
13
  0
ACDBPLACEHOLDER
  5
13
330
12
  0
DICTIONARY
  5
14
330
A
100
AcDbDictionary
281
1
  0
DICTIONARY
  5
15
330
A
100
AcDbDictionary
281
1
  0
DICTIONARY
  5
16
330
A
100
AcDbDictionary
281
1
  3
2dWireframe
350
5A
  3
Basic
350
5B
  3
Brighten
350
5C
  3
ColorChange
350
5D
  3
Conceptual
350
5E
  3
Dim
350
5F
  3
EdgeColorOff
350
60
  3
Facepattern
350
61
  3
Flat
350
62
  3
FlatWithEdges
350
63
  3
Gouraud
350
64
  3
GouraudWithEdges
350
65
  3
Hidden
350
66
  3
JitterOff
350
67
  3
Linepattern
350
68
  3
Modeling
350
69
  3
OverhangOff
350
6A
  3
Realistic
350
6B
  3
Shaded
350
6C
  3
Shaded with edges
350
6D
  3
Shades of Gray
350
6E
  3
Sketchy
350
6F
  3
Thicken
350
70
  3
Wireframe
350
71
  3
X-Ray
350
72
  0
LAYOUT
  5
1A
330
D
100
AcDbPlotSettings
  1

  4
A3
  6

 40
7.5
 41
20.0
 42
7.5
 43
20.0
 44
420.0
 45
297.0
 46
0.0
 47
0.0
 48
0.0
 49
0.0
140
0.0
141
0.0
142
1.0
143
1.0
 70
1024
 72
1
 73
0
 74
5
  7

 75
16
 76
0
 77
2
 78
300
147
1.0
148
0.0
149
0.0
100
AcDbLayout
  1
Model
 70
1
 71
0
 10
0.0
 20
0.0
 11
420.0
 21
297.0
 12
0.0
 22
0.0
 32
0.0
 14
1e+20
 24
1e+20
 34
1e+20
 15
-1e+20
 25
-1e+20
 35
-1e+20
146
0.0
 13
0.0
 23
0.0
 33
0.0
 16
1.0
 26
0.0
 36
0.0
 17
0.0
 27
1.0
 37
0.0
 76
1
330
17
  0
LAYOUT
  5
1E
330
D
100
AcDbPlotSettings
  1

  4
A3
  6

 40
7.5
 41
20.0
 42
7.5
 43
20.0
 44
420.0
 45
297.0
 46
0.0
 47
0.0
 48
0.0
 49
0.0
140
0.0
141
0.0
142
1.0
143
1.0
 70
0
 72
1
 73
0
 74
5
  7

 75
16
 76
0
 77
2
 78
300
147
1.0
148
0.0
149
0.0
100
AcDbLayout
  1
Layout1
 70
1
 71
1
 10
0.0
 20
0.0
 11
420.0
 21
297.0
 12
0.0
 22
0.0
 32
0.0
 14
1e+20
 24
1e+20
 34
1e+20
 15
-1e+20
 25
-1e+20
 35
-1e+20
146
0.0
 13
0.0
 23
0.0
 33
0.0
 16
1.0
 26
0.0
 36
0.0
 17
0.0
 27
1.0
 37
0.0
 76
1
330
1B
  0
MATERIAL
  5
1F
102
{ACAD_REACTORS
330
E
102
}
330
E
100
AcDbMaterial
  1
ByBlock
  2

 70
0
 40
1.0
 71
1
 41
1.0
 91
-1023410177
 42
1.0
 72
1
  3

 73
1
 74
1
 75
1
 44
0.5
 73
0
 45
1.0
 46
1.0
 77
1
  4

 78
1
 79
1
170
1
 48
1.0
171
1
  6

172
1
173
1
174
1
140
1.0
141
1.0
175
1
  7

176
1
177
1
178
1
143
1.0
179
1
  8

270
1
271
1
272
1
145
1.0
146
1.0
273
1
  9

274
1
275
1
276
1
 42
1.0
 72
1
  3

 73
1
 74
1
 75
1
 94
63
  0
MATERIAL
  5
20
102
{ACAD_REACTORS
330
E
102
}
330
E
100
AcDbMaterial
  1
ByLayer
  2

 70
0
 40
1.0
 71
1
 41
1.0
 91
-1023410177
 42
1.0
 72
1
  3

 73
1
 74
1
 75
1
 44
0.5
 73
0
 45
1.0
 46
1.0
 77
1
  4

 78
1
 79
1
170
1
 48
1.0
171
1
  6

172
1
173
1
174
1
140
1.0
141
1.0
175
1
  7

176
1
177
1
178
1
143
1.0
179
1
  8

270
1
271
1
272
1
145
1.0
146
1.0
273
1
  9

274
1
275
1
276
1
 42
1.0
 72
1
  3

 73
1
 74
1
 75
1
 94
63
  0
MATERIAL
  5
21
102
{ACAD_REACTORS
330
E
102
}
330
E
100
AcDbMaterial
  1
Global
  2

 70
0
 40
1.0
 71
1
 41
1.0
 91
-1023410177
 42
1.0
 72
1
  3

 73
1
 74
1
 75
1
 44
0.5
 73
0
 45
1.0
 46
1.0
 77
1
  4

 78
1
 79
1
170
1
 48
1.0
171
1
  6

172
1
173
1
174
1
140
1.0
141
1.0
175
1
  7

176
1
177
1
178
1
143
1.0
179
1
  8

270
1
271
1
272
1
145
1.0
146
1.0
273
1
  9

274
1
275
1
276
1
 42
1.0
 72
1
  3

 73
1
 74
1
 75
1
 94
63
  0
MLINESTYLE
  5
22
102
{ACAD_REACTORS
330
10
102
}
330
10
100
AcDbMlineStyle
  2
Standard
 70
0
  3

 62
256
 51
90.0
 52
90.0
 71
2
 49
0.5
 62
256
  6
BYLAYER
 49
-0.5
 62
256
  6
BYLAYER
  0
MLEADERSTYLE
  5
2C
102
{ACAD_REACTORS
330
F
102
}
330
F
100
AcDbMLeaderStyle
179
2
170
2
171
1
172
0
 90
2
 40
0.0
 41
0.0
173
1
 91
-1056964608
 92
-2
290
1
 42
2.0
291
1
 43
8.0
  3
Standard
 44
4.0
300

342
29
174
1
175
1
176
0
178
1
 93
-1056964608
 45
4.0
292
0
297
0
 46
4.0
 94
-1056964608
 47
1.0
 49
1.0
140
1.0
294
1
141
0.0
177
0
142
1.0
295
0
296
0
143
3.75
271
0
272
9
273
9
  0
DICTIONARY
  5
2D
330
A
100
AcDbDictionary
280
1
281
1
  3
CREATED_BY_EZDXF
350
2E
  3
WRITTEN_BY_EZDXF
350
98
  0
DICTIONARYVAR
  5
2E
330
2D
100
DictionaryVariables
280
0
  1
1.4.2 @ 2026-09-06T09:28:59.667571+00:00
  0
VISUALSTYLE
  5
5A
102
{ACAD_REACTORS
330
16
102
}
330
16
100
AcDbVisualStyle
  2
2dWireframe
 70
4
 90
0
 40
0.6
 62
7
290
0
291
0
  0
VISUALSTYLE
  5
5B
102
{ACAD_REACTORS
330
16
102
}
330
16
100
AcDbVisualStyle
  2
Basic
 70
7
 90
1
 40
0.6
 62
7
290
0
291
1
  0
VISUALSTYLE
  5
5C
102
{ACAD_REACTORS
330
16
102
}
330
16
100
AcDbVisualStyle
  2
Brighten
 70
12
 90
2
 40
0.6
 62
7
290
0
291
1
  0
VISUALSTYLE
  5
5D
102
{ACAD_REACTORS
330
16
102
}
330
16
100
AcDbVisualStyle
  2
ColorChange
 70
16
 90
2
 40
0.6
 62
8
290
0
291
1
  0
VISUALSTYLE
  5
5E
102
{ACAD_REACTORS
330
16
102
}
330
16
100
AcDbVisualStyle
  2
Conceptual
 70
9
 90
3
 40
0.6
 62
7
290
0
291
0
  0
VISUALSTYLE
  5
5F
102
{ACAD_REACTORS
330
16
102
}
330
16
100
AcDbVisualStyle
  2
Dim
 70
11
 90
2
 40
0.6
 62
7
290
0
291
1
  0
VISUALSTYLE
  5
60
102
{ACAD_REACTORS
330
16
102
}
330
16
100
AcDbVisualStyle
  2
EdgeColorOff
 70
22
 90
2
 40
0.6
 62
7
290
0
291
1
  0
VISUALSTYLE
  5
61
102
{ACAD_REACTORS
330
16
102
}
330
16
100
AcDbVisualStyle
  2
Facepattern
 70
15
 90
2
 40
0.6
 62
7
290
0
291
1
  0
VISUALSTYLE
  5
62
102
{ACAD_REACTORS
330
16
102
}
330
16
100
AcDbVisualStyle
  2
Flat
 70
0
 90
2
 40
0.6
 62
7
290
0
291
1
  0
VISUALSTYLE
  5
63
102
{ACAD_REACTORS
330
16
102
}
330
16
100
AcDbVisualStyle
  2
FlatWithEdges
 70
1
 90
2
 40
0.6
 62
7
290
0
291
1
  0
VISUALSTYLE
  5
64
102
{ACAD_REACTORS
330
16
102
}
330
16
100
AcDbVisualStyle
  2
Gouraud
 70
2
 90
2
 40
0.6
 62
7
290
0
291
1
  0
VISUALSTYLE
  5
65
102
{ACAD_REACTORS
330
16
102
}
330
16
100
AcDbVisualStyle
  2
GouraudWithEdges
 70
3
 90
2
 40
0.6
 62
7
290
0
291
1
  0
VISUALSTYLE
  5
66
102
{ACAD_REACTORS
330
16
102
}
330
16
100
AcDbVisualStyle
  2
Hidden
 70
6
 90
1
 40
0.6
 62
7
290
0
291
0
  0
VISUALSTYLE
  5
67
102
{ACAD_REACTORS
330
16
102
}
330
16
100
AcDbVisualStyle
  2
JitterOff
 70
20
 90
2
 40
0.6
 62
7
290
0
291
1
  0
VISUALSTYLE
  5
68
102
{ACAD_REACTORS
330
16
102
}
330
16
100
AcDbVisualStyle
  2
Linepattern
 70
14
 90
2
 40
0.6
 62
7
290
0
291
1
  0
VISUALSTYLE
  5
69
102
{ACAD_REACTORS
330
16
102
}
330
16
100
AcDbVisualStyle
  2
Modeling
 70
10
 90
2
 40
0.6
 62
7
290
0
291
0
  0
VISUALSTYLE
  5
6A
102
{ACAD_REACTORS
330
16
102
}
330
16
100
AcDbVisualStyle
  2
OverhangOff
 70
21
 90
2
 40
0.6
 62
7
290
0
291
1
  0
VISUALSTYLE
  5
6B
102
{ACAD_REACTORS
330
16
102
}
330
16
100
AcDbVisualStyle
  2
Realistic
 70
8
 90
2
 40
0.6
 62
7
290
0
291
0
  0
VISUALSTYLE
  5
6C
102
{ACAD_REACTORS
330
16
102
}
330
16
100
AcDbVisualStyle
  2
Shaded
 70
27
 90
2
 40
0.6
 62
7
290
0
291
0
  0
VISUALSTYLE
  5
6D
102
{ACAD_REACTORS
330
16
102
}
330
16
100
AcDbVisualStyle
  2
Shaded with edges
 70
26
 90
2
 40
0.6
 62
7
290
0
291
0
  0
VISUALSTYLE
  5
6E
102
{ACAD_REACTORS
330
16
102
}
330
16
100
AcDbVisualStyle
  2
Shades of Gray
 70
23
 90
2
 40
0.6
 62
7
290
0
291
0
  0
VISUALSTYLE
  5
6F
102
{ACAD_REACTORS
330
16
102
}
330
16
100
AcDbVisualStyle
  2
Sketchy
 70
24
 90
1
 40
0.6
 62
7
290
0
291
0
  0
VISUALSTYLE
  5
70
102
{ACAD_REACTORS
330
16
102
}
330
16
100
AcDbVisualStyle
  2
Thicken
 70
13
 90
2
 40
0.6
 62
7
290
0
291
1
  0
VISUALSTYLE
  5
71
102
{ACAD_REACTORS
330
16
102
}
330
16
100
AcDbVisualStyle
  2
Wireframe
 70
5
 90
0
 40
0.6
 62
7
290
0
291
0
  0
VISUALSTYLE
  5
72
102
{ACAD_REACTORS
330
16
102
}
330
16
100
AcDbVisualStyle
  2
X-Ray
 70
25
 90
2
 40
0.5
 62
7
290
0
291
0
  0
DICTIONARYVAR
  5
98
330
2D
100
DictionaryVariables
280
0
  1
1.4.2 @ 2026-09-06T09:28:59.674927+00:00
  0
ENDSEC
  0
EOF
