  0
SECTION
  2
HEADER
  9
$ACADVER
  1
AC1024
  9
$ACADMAINTVER
 70
6
  9
$DWGCODEPAGE
  3
ANSI_1252
  9
$LASTSAVEDBY
  1
ezdxf
  9
$INSBASE
 10
0.0
 20
0.0
 30
0.0
  9
$EXTMIN
 10
1e+20
 20
1e+20
 30
1e+20
  9
$EXTMAX
 10
-1e+20
 20
-1e+20
 30
-1e+20
  9
$LIMMIN
 10
0.0
 20
0.0
  9
$LIMMAX
 10
420.0
 20
297.0
  9
$ORTHOMODE
 70
0
  9
$REGENMODE
 70
1
  9
$FILLMODE
 70
1
  9
$QTEXTMODE
 70
0
  9
$MIRRTEXT
 70
1
  9
$LTSCALE
 40
1.0
  9
$ATTMODE
 70
1
  9
$TEXTSIZE
 40
2.5
  9
$TRACEWID
 40
1.0
  9
$TEXTSTYLE
  7
OpenSans
  9
$CLAYER
  8
0
  9
$CELTYPE
  6
ByLayer
  9
$CECOLOR
 62
256
  9
$CELTSCALE
 40
1.0
  9
$DISPSILH
 70
0
  9
$DIMSCALE
 40
1.0
  9
$DIMASZ
 40
0.175
  9
$DIMEXO
 40
0.125
  9
$DIMDLI
 40
3.75
  9
$DIMRND
 40
0.0
  9
$DIMDLE
 40
0.0
  9
$DIMEXE
 40
0.375
  9
$DIMTP
 40
0.0
  9
$DIMTM
 40
0.0
  9
$DIMTXT
 40
0.25
  9
$DIMCEN
 40
2.5
  9
$DIMTSZ
 40
0.0
  9
$DIMTOL
 70
0
  9
$DIMLIM
 70
0
  9
$DIMTIH
 70
0
  9
$DIMTOH
 70
0
  9
$DIMSE1
 70
0
  9
$DIMSE2
 70
0
  9
$DIMTAD
 70
1
  9
$DIMZIN
 70
12
  9
$DIMBLK
  1
ARCHTICK
  9
$DIMASO
 70
1
  9
$DIMSHO
 70
1
  9
$DIMPOST
  1

  9
$DIMAPOST
  1

  9
$DIMALT
 70
0
  9
$DIMALTD
 70
3
  9
$DIMALTF
 40
0.03937007874
  9
$DIMLFAC
 40
100.0
  9
$DIMTOFL
 70
1
  9
$DIMTVP
 40
0.0
  9
$DIMTIX
 70
0
  9
$DIMSOXD
 70
0
  9
$DIMSAH
 70
0
  9
$DIMBLK1
  1

  9
$DIMBLK2
  1

  9
$DIMSTYLE
  2
EZDXF
  9
$DIMCLRD
 70
0
  9
$DIMCLRE
 70
0
  9
$DIMCLRT
 70
0
  9
$DIMTFAC
 40
0.5
  9
$DIMGAP
 40
0.1
  9
$DIMJUST
 70
0
  9
$DIMSD1
 70
0
  9
$DIMSD2
 70
0
  9
$DIMTOLJ
 70
0
  9
$DIMTZIN
 70
8
  9
$DIMALTZ
 70
0
  9
$DIMALTTZ
 70
0
  9
$DIMUPT
 70
1
  9
$DIMDEC
 70
2
  9
$DIMTDEC
 70
2
  9
$DIMALTU
 70
2
  9
$DIMALTTD
 70
3
  9
$DIMTXSTY
  7
OpenSansCondensed-Light
  9
$DIMAUNIT
 70
0
  9
$DIMADEC
 70
2
  9
$DIMALTRND
 40
0.0
  9
$DIMAZIN
 70
3
  9
$DIMDSEP
 70
46
  9
$DIMATFIT
 70
3
  9
$DIMFRAC
 70
0
  9
$DIMLDRBLK
  1

  9
$DIMLUNIT
 70
2
  9
$DIMLWD
 70
-2
  9
$DIMLWE
 70
-2
  9
$DIMTMOVE
 70
2
  9
$DIMFXL
 40
1.0
  9
$DIMFXLON
 70
0
  9
$DIMJOGANG
 40
0.785398163397
  9
$DIMTFILL
 70
0
  9
$DIMTFILLCLR
 70
0
  9
$DIMARCSYM
 70
0
  9
$DIMLTYPE
  6

  9
$DIMLTEX1
  6

  9
$DIMLTEX2
  6

  9
$DIMTXTDIRECTION
 70
0
  9
$LUNITS
 70
2
  9
$LUPREC
 70
4
  9
$SKETCHINC
 40
1.0
  9
$FILLETRAD
 40
10.0
  9
$AUNITS
 70
0
  9
$AUPREC
 70
2
  9
$MENU
  1
.
  9
$ELEVATION
 40
0.0
  9
$PELEVATION
 40
0.0
  9
$THICKNESS
 40
0.0
  9
$LIMCHECK
 70
0
  9
$CHAMFERA
 40
0.0
  9
$CHAMFERB
 40
0.0
  9
$CHAMFERC
 40
0.0
  9
$CHAMFERD
 40
0.0
  9
$SKPOLY
 70
0
  9
$TDCREATE
 40
2461290.1451273146
  9
$TDUCREATE
 40
2458532.153996898
  9
$TDUPDATE
 40
2461290.1451273146
  9
$TDUUPDATE
 40
2458532.1544311
  9
$TDINDWG
 40
0.0
  9
$TDUSRTIMER
 40
0.0
  9
$USRTIMER
 70
1
  9
$ANGBASE
 50
0.0
  9
$ANGDIR
 70
0
  9
$PDMODE
 70
0
  9
$PDSIZE
 40
0.0
  9
$PLINEWID
 40
0.0
  9
$SPLFRAME
 70
0
  9
$SPLINETYPE
 70
6
  9
$SPLINESEGS
 70
8
  9
$HANDSEED
  5
9B
  9
$SURFTAB1
 70
6
  9
$SURFTAB2
 70
6
  9
$SURFTYPE
 70
6
  9
$SURFU
 70
6
  9
$SURFV
 70
6
  9
$UCSBASE
  2

  9
$UCSNAME
  2

  9
$UCSORG
 10
0.0
 20
0.0
 30
0.0
  9
$UCSXDIR
 10
1.0
 20
0.0
 30
0.0
  9
$UCSYDIR
 10
0.0
 20
1.0
 30
0.0
  9
$UCSORTHOREF
  2

  9
$UCSORTHOVIEW
 70
0
  9
$UCSORGTOP
 10
0.0
 20
0.0
 30
0.0
  9
$UCSORGBOTTOM
 10
0.0
 20
0.0
 30
0.0
  9
$UCSORGLEFT
 10
0.0
 20
0.0
 30
0.0
  9
$UCSORGRIGHT
 10
0.0
 20
0.0
 30
0.0
  9
$UCSORGFRONT
 10
0.0
 20
0.0
 30
0.0
  9
$UCSORGBACK
 10
0.0
 20
0.0
 30
0.0
  9
$PUCSBASE
  2

  9
$PUCSNAME
  2

  9
$PUCSORG
 10
0.0
 20
0.0
 30
0.0
  9
$PUCSXDIR
 10
1.0
 20
0.0
 30
0.0
  9
$PUCSYDIR
 10
0.0
 20
1.0
 30
0.0
  9
$PUCSORTHOREF
  2

  9
$PUCSORTHOVIEW
 70
0
  9
$PUCSORGTOP
 10
0.0
 20
0.0
 30
0.0
  9
$PUCSORGBOTTOM
 10
0.0
 20
0.0
 30
0.0
  9
$PUCSORGLEFT
 10
0.0
 20
0.0
 30
0.0
  9
$PUCSORGRIGHT
 10
0.0
 20
0.0
 30
0.0
  9
$PUCSORGFRONT
 10
0.0
 20
0.0
 30
0.0
  9
$PUCSORGBACK
 10
0.0
 20
0.0
 30
0.0
  9
$USERI1
 70
0
  9
$USERI2
 70
0
  9
$USERI3
 70
0
  9
$USERI4
 70
0
  9
$USERI5
 70
0
  9
$USERR1
 40
0.0
  9
$USERR2
 40
0.0
  9
$USERR3
 40
0.0
  9
$USERR4
 40
0.0
  9
$USERR5
 40
0.0
  9
$WORLDVIEW
 70
1
  9
$SHADEDGE
 70
3
  9
$SHADEDIF
 70
70
  9
$TILEMODE
 70
1
  9
$MAXACTVP
 70
64
  9
$PINSBASE
 10
0.0
 20
0.0
 30
0.0
  9
$PLIMCHECK
 70
0
  9
$PEXTMIN
 10
1e+20
 20
1e+20
 30
1e+20
  9
$PEXTMAX
 10
-1e+20
 20
-1e+20
 30
-1e+20
  9
$PLIMMIN
 10
0.0
 20
0.0
  9
$PLIMMAX
 10
420.0
 20
297.0
  9
$UNITMODE
 70
0
  9
$VISRETAIN
 70
1
  9
$PLINEGEN
 70
0
  9
$PSLTSCALE
 70
1
  9
$TREEDEPTH
 70
3020
  9
$CMLSTYLE
  2
Standard
  9
$CMLJUST
 70
0
  9
$CMLSCALE
 40
20.0
  9
$PROXYGRAPHICS
 70
1
  9
$MEASUREMENT
 70
1
  9
$CELWEIGHT
370
-1
  9
$ENDCAPS
280
0
  9
$JOINSTYLE
280
0
  9
$LWDISPLAY
290
0
  9
$INSUNITS
 70
4
  9
$HYPERLINKBASE
  1

  9
$STYLESHEET
  1

  9
$XEDIT
290
1
  9
$CEPSNTYPE
380
0
  9
$PSTYLEMODE
290
1
  9
$FINGERPRINTGUID
  2
{F4513866-CDDE-4D6C-9EA1-D6360F92A4D6}
  9
$VERSIONGUID
  2
{1C82C7CD-E2B3-44F3-A30D-10CD55963606}
  9
$EXTNAMES
290
1
  9
$PSVPSCALE
 40
0.0
  9
$OLESTARTUP
290
0
  9
$SORTENTS
280
127
  9
$INDEXCTL
280
0
  9
$HIDETEXT
280
1
  9
$XCLIPFRAME
280
1
  9
$HALOGAP
280
0
  9
$OBSCOLOR
 70
257
  9
$OBSLTYPE
280
0
  9
$INTERSECTIONDISPLAY
280
0
  9
$INTERSECTIONCOLOR
 70
257
  9
$DIMASSOC
280
2
  9
$PROJECTNAME
  1

  9
$CAMERADISPLAY
290
0
  9
$LENSLENGTH
 40
50.0
  9
$CAMERAHEIGHT
 40
0.0
  9
$STEPSPERSEC
 40
24.0
  9
$STEPSIZE
 40
100.0
  9
$3DDWFPREC
 40
2.0
  9
$PSOLWIDTH
 40
0.005
  9
$PSOLHEIGHT
 40
0.08
  9
$LOFTANG1
 40
1.570796326795
  9
$LOFTANG2
 40
1.570796326795
  9
$LOFTMAG1
 40
0.0
  9
$LOFTMAG2
 40
0.0
  9
$LOFTPARAM
 70
7
  9
$LOFTNORMALS
280
1
  9
$LATITUDE
 40
37.795
  9
$LONGITUDE
 40
-122.394
  9
$NORTHDIRECTION
 40
0.0
  9
$TIMEZONE
 70
-8000
  9
$LIGHTGLYPHDISPLAY
280
1
  9
$TILEMODELIGHTSYNCH
280
1
  9
$CMATERIAL
347
20
  9
$SOLIDHIST
280
0
  9
$SHOWHIST
280
1
  9
$DWFFRAME
280
2
  9
$DGNFRAME
280
2
  9
$REALWORLDSCALE
290
1
  9
$INTERFERECOLOR
 62
256
  9
$CSHADOW
280
0
  9
$SHADOWPLANELOCATION
 40
0.0
  0
ENDSEC
  0
SECTION
  2
CLASSES
  0
CLASS
  1
ACDBDICTIONARYWDFLT
  2
AcDbDictionaryWithDefault
  3
ObjectDBX Classes
 90
0
 91
0
280
0
281
0
  0
CLASS
  1
SUN
  2
AcDbSun
  3
SCENEOE
 90
1153
 91
0
280
0
281
0
  0
CLASS
  1
VISUALSTYLE
  2
AcDbVisualStyle
  3
ObjectDBX Classes
 90
4095
 91
0
280
0
281
0
  0
CLASS
  1
MATERIAL
  2
AcDbMaterial
  3
ObjectDBX Classes
 90
1153
 91
0
280
0
281
0
  0
CLASS
  1
SCALE
  2
AcDbScale
  3
ObjectDBX Classes
 90
1153
 91
0
280
0
281
0
  0
CLASS
  1
TABLESTYLE
  2
AcDbTableStyle
  3
ObjectDBX Classes
 90
4095
 91
0
280
0
281
0
  0
CLASS
  1
MLEADERSTYLE
  2
AcDbMLeaderStyle
  3
ACDB_MLEADERSTYLE_CLASS
 90
4095
 91
0
280
0
281
0
  0
CLASS
  1
DICTIONARYVAR
  2
AcDbDictionaryVar
  3
ObjectDBX Classes
 90
0
 91
0
280
0
281
0
  0
CLASS
  1
CELLSTYLEMAP
  2
AcDbCellStyleMap
  3
ObjectDBX Classes
 90
1152
 91
0
280
0
281
0
  0
CLASS
  1
MENTALRAYRENDERSETTINGS
  2
AcDbMentalRayRenderSettings
  3
SCENEOE
 90
1024
 91
0
280
0
281
0
  0
CLASS
  1
ACDBDETAILVIEWSTYLE
  2
AcDbDetailViewStyle
  3
ObjectDBX Classes
 90
1025
 91
0
280
0
281
0
  0
CLASS
  1
ACDBSECTIONVIEWSTYLE
  2
AcDbSectionViewStyle
  3
ObjectDBX Classes
 90
1025
 91
0
280
0
281
0
  0
CLASS
  1
RASTERVARIABLES
  2
AcDbRasterVariables
  3
ISM
 90
0
 91
0
280
0
281
0
  0
CLASS
  1
LAYOUT
  2
AcDbLayout
  3
ObjectDBX Classes
 90
0
 91
0
280
0
281
0
  0
CLASS
  1
ACDBPLACEHOLDER
  2
AcDbPlaceHolder
  3
ObjectDBX Classes
 90
0
 91
0
280
0
281
0
  0
ENDSEC
  0
SECTION
  2
TABLES
  0
TABLE
  2
VPORT
  5
8
330
0
100
AcDbSymbolTable
 70
1
  0
VPORT
  5
23
330
8
100
AcDbSymbolTableRecord
100
AcDbViewportTableRecord
  2
*Active
 70
0
 10
0.0
 20
0.0
 11
1.0
 21
1.0
 12
0.0
 22
0.0
 13
0.0
 23
0.0
 14
0.5
 24
0.5
 15
0.5
 25
0.5
 16
0.0
 26
0.0
 36
1.0
 17
0.0
 27
0.0
 37
0.0
 40
1000.0
 41
1.34
 42
50.0
 43
0.0
 44
0.0
 50
0.0
 51
0.0
 71
0
 72
1000
 73
1
 74
3
 75
0
 76
0
 77
0
 78
0
281
0
 65
0
146
0.0
  0
ENDTAB
  0
TABLE
  2
LTYPE
  5
2
330
0
100
AcDbSymbolTable
 70
21
  0
LTYPE
  5
24
330
2
100
AcDbSymbolTableRecord
100
AcDbLinetypeTableRecord
  2
ByBlock
 70
0
  3

 72
65
 73
0
 40
0.0
  0
LTYPE
  5
25
330
2
100
AcDbSymbolTableRecord
100
AcDbLinetypeTableRecord
  2
ByLayer
 70
0
  3

 72
65
 73
0
 40
0.0
  0
LTYPE
  5
26
330
2
100
AcDbSymbolTableRecord
100
AcDbLinetypeTableRecord
  2
Continuous
 70
0
  3

 72
65
 73
0
 40
0.0
  0
LTYPE
  5
2F
330
2
100
AcDbSymbolTableRecord
100
AcDbLinetypeTableRecord
  2
CENTER
 70
0
  3
Center ____ _ ____ _ ____ _ ____ _ ____ _ ____
 72
65
 73
4
 40
5.08
 49
3.175
 74
0
 49
-0.635
 74
0
 49
0.635
 74
0
 49
-0.635
 74
0
  0
LTYPE
  5
30
330
2
100
AcDbSymbolTableRecord
100
AcDbLinetypeTableRecord
  2
CENTERX2
 70
0
  3
Center (2x) ________  __  ________  __  ________
 72
65
 73
4
 40
8.89
 49
6.35
 74
0
 49
-0.635
 74
0
 49
1.27
 74
0
 49
-0.635
 74
0
  0
LTYPE
  5
31
330
2
100
AcDbSymbolTableRecord
100
AcDbLinetypeTableRecord
  2
CENTER2
 70
0
  3
Center (.5x) ____ _ ____ _ ____ _ ____ _ ____
 72
65
 73
4
 40
2.54
 49
1.587
 74
0
 49
-0.318
 74
0
 49
0.318
 74
0
 49
-0.318
 74
0
  0
LTYPE
  5
32
330
2
100
AcDbSymbolTableRecord
100
AcDbLinetypeTableRecord
  2
DASHED
 70
0
  3
Dashed __ __ __ __ __ __ __ __ __ __ __ __ __ _
 72
65
 73
2
 40
1.524
 49
1.27
 74
0
 49
-0.254
 74
0
  0
LTYPE
  5
33
330
2
100
AcDbSymbolTableRecord
100
AcDbLinetypeTableRecord
  2
DASHEDX2
 70
0
  3
Dashed (2x) ____  ____  ____  ____  ____  ____
 72
65
 73
2
 40
3.048
 49
2.54
 74
0
 49
-0.508
 74
0
  0
LTYPE
  5
34
330
2
100
AcDbSymbolTableRecord
100
AcDbLinetypeTableRecord
  2
DASHED2
 70
0
  3
Dashed (.5x) _ _ _ _ _ _ _ _ _ _ _ _ _ _
 72
65
 73
2
 40
0.762
 49
0.635
 74
0
 49
-0.127
 74
0
  0
LTYPE
  5
35
330
2
100
AcDbSymbolTableRecord
100
AcDbLinetypeTableRecord
  2
PHANTOM
 70
0
  3
Phantom ______  __  __  ______  __  __  ______
 72
65
 73
6
 40
6.35
 49
3.175
 74
0
 49
-0.635
 74
0
 49
0.635
 74
0
 49
-0.635
 74
0
 49
0.635
 74
0
 49
-0.635
 74
0
  0
LTYPE
  5
36
330
2
100
AcDbSymbolTableRecord
100
AcDbLinetypeTableRecord
  2
PHANTOMX2
 70
0
  3
Phantom (2x)____________    ____    ____    ____________
 72
65
 73
6
 40
10.795
 49
6.35
 74
0
 49
-0.635
 74
0
 49
1.27
 74
0
 49
-0.635
 74
0
 49
1.27
 74
0
 49
-0.635
 74
0
  0
LTYPE
  5
37
330
2
100
AcDbSymbolTableRecord
100
AcDbLinetypeTableRecord
  2
PHANTOM2
 70
0
  3
Phantom (.5x) ___ _ _ ___ _ _ ___ _ _ ___ _ _ ___
 72
65
 73
6
 40
3.175
 49
1.587
 74
0
 49
-0.318
 74
0
 49
0.318
 74
0
 49
-0.318
 74
0
 49
0.318
 74
0
 49
-0.318
 74
0
  0
LTYPE
  5
38
330
2
100
AcDbSymbolTableRecord
100
AcDbLinetypeTableRecord
  2
DASHDOT
 70
0
  3
Dash dot __ . __ . __ . __ . __ . __ . __ . __
 72
65
 73
4
 40
3.556
 49
2.54
 74
0
 49
-0.508
 74
0
 49
0.0
 74
0
 49
-0.508
 74
0
  0
LTYPE
  5
39
330
2
100
AcDbSymbolTableRecord
100
AcDbLinetypeTableRecord
  2
DASHDOTX2
 70
0
  3
Dash dot (2x) ____  .  ____  .  ____  .  ____
 72
65
 73
4
 40
6.096
 49
5.08
 74
0
 49
-0.508
 74
0
 49
0.0
 74
0
 49
-0.508
 74
0
  0
LTYPE
  5
3A
330
2
100
AcDbSymbolTableRecord
100
AcDbLinetypeTableRecord
  2
DASHDOT2
 70
0
  3
Dash dot (.5x) _ . _ . _ . _ . _ . _ . _ . _
 72
65
 73
4
 40
1.778
 49
1.27
 74
0
 49
-0.254
 74
0
 49
0.0
 74
0
 49
-0.254
 74
0
  0
LTYPE
  5
3B
330
2
100
AcDbSymbolTableRecord
100
AcDbLinetypeTableRecord
  2
DOT
 70
0
  3
Dot .  .  .  .  .  .  .  .  .  .  .  .  .  .  .  .
 72
65
 73
2
 40
0.508
 49
0.0
 74
0
 49
-0.508
 74
0
  0
LTYPE
  5
3C
330
2
100
AcDbSymbolTableRecord
100
AcDbLinetypeTableRecord
  2
DOTX2
 70
0
  3
Dot (2x) .    .    .    .    .    .    .    . 
 72
65
 73
2
 40
1.016
 49
0.0
 74
0
 49
-1.016
 74
0
  0
LTYPE
  5
3D
330
2
100
AcDbSymbolTableRecord
100
AcDbLinetypeTableRecord
  2
DOT2
 70
0
  3
Dot (.5) . . . . . . . . . . . . . . . . . . . 
 72
65
 73
2
 40
0.254
 49
0.0
 74
0
 49
-0.254
 74
0
  0
LTYPE
  5
3E
330
2
100
AcDbSymbolTableRecord
100
AcDbLinetypeTableRecord
  2
DIVIDE
 70
0
  3
Divide __ . . __ . . __ . . __ . . __ . . __
 72
65
 73
6
 40
4.064
 49
2.54
 74
0
 49
-0.508
 74
0
 49
0.0
 74
0
 49
-0.508
 74
0
 49
0.0
 74
0
 49
-0.508
 74
0
  0
LTYPE
  5
3F
330
2
100
AcDbSymbolTableRecord
100
AcDbLinetypeTableRecord
  2
DIVIDEX2
 70
0
  3
Divide (2x) ____  . .  ____  . .  ____  . .  ____
 72
65
 73
6
 40
6.604
 49
5.08
 74
0
 49
-0.508
 74
0
 49
0.0
 74
0
 49
-0.508
 74
0
 49
0.0
 74
0
 49
-0.508
 74
0
  0
LTYPE
  5
40
330
2
100
AcDbSymbolTableRecord
100
AcDbLinetypeTableRecord
  2
DIVIDE2
 70
0
  3
Divide(.5x) _ . _ . _ . _ . _ . _ . _ . _
 72
65
 73
6
 40
2.032
 49
1.27
 74
0
 49
-0.254
 74
0
 49
0.0
 74
0
 49
-0.254
 74
0
 49
0.0
 74
0
 49
-0.254
 74
0
  0
ENDTAB
  0
TABLE
  2
LAYER
  5
1
330
0
100
AcDbSymbolTable
 70
5
  0
LAYER
  5
27
330
1
100
AcDbSymbolTableRecord
100
AcDbLayerTableRecord
  2
0
 70
0
 62
7
  6
Continuous
370
-3
390
13
347
21
  0
LAYER
  5
28
330
1
100
AcDbSymbolTableRecord
100
AcDbLayerTableRecord
  2
Defpoints
 70
0
 62
7
  6
Continuous
290
0
370
-3
390
13
347
21
  0
LAYER
  5
8A
330
1
100
AcDbSymbolTableRecord
100
AcDbLayerTableRecord
  2
CORTE
 70
0
 62
1
  6
Continuous
370
-3
390
13
347
21
  0
LAYER
  5
8B
330
1
100
AcDbSymbolTableRecord
100
AcDbLayerTableRecord
  2
GRABADO
 70
0
 62
5
  6
Continuous
370
-3
390
13
347
21
  0
LAYER
  5
8C
330
1
100
AcDbSymbolTableRecord
100
AcDbLayerTableRecord
  2
HOJA
 70
0
 62
8
  6
Continuous
370
-3
390
13
347
21
  0
ENDTAB
  0
TABLE
  2
STYLE
  5
5
330
0
100
AcDbSymbolTable
 70
26
  0
STYLE
  5
29
330
5
100
AcDbSymbolTableRecord
100
AcDbTextStyleTableRecord
  2
Standard
 70
0
 40
0.0
 41
1.0
 50
0.0
 71
0
 42
2.5
  3
txt
  4

  0
STYLE
  5
41
330
5
100
AcDbSymbolTableRecord
100
AcDbTextStyleTableRecord
  2
OpenSans-Light
 70
0
 40
0.0
 41
1.0
 50
0.0
 71
0
 42
2.5
  3
OpenSans-Light.ttf
  4

  0
STYLE
  5
42
330
5
100
AcDbSymbolTableRecord
100
AcDbTextStyleTableRecord
  2
OpenSans-Light-Italic
 70
0
 40
0.0
 41
1.0
 50
0.0
 71
0
 42
2.5
  3
OpenSans-LightItalic.ttf
  4

  0
STYLE
  5
43
330
5
100
AcDbSymbolTableRecord
100
AcDbTextStyleTableRecord
  2
OpenSans
 70
0
 40
0.0
 41
1.0
 50
0.0
 71
0
 42
2.5
  3
OpenSans-Regular.ttf
  4

  0
STYLE
  5
44
330
5
100
AcDbSymbolTableRecord
100
AcDbTextStyleTableRecord
  2
OpenSans-Italic
 70
0
 40
0.0
 41
1.0
 50
0.0
 71
0
 42
2.5
  3
OpenSans-Italic.ttf
  4

  0
STYLE
  5
45
330
5
100
AcDbSymbolTableRecord
100
AcDbTextStyleTableRecord
  2
OpenSans-SemiBold
 70
0
 40
0.0
 41
1.0
 50
0.0
 71
0
 42
2.5
  3
OpenSans-SemiBold.ttf
  4

  0
STYLE
  5
46
330
5
100
AcDbSymbolTableRecord
100
AcDbTextStyleTableRecord
  2
OpenSans-SemiBoldItalic
 70
0
 40
0.0
 41
1.0
 50
0.0
 71
0
 42
2.5
  3
OpenSans-SemiBoldItalic.ttf
  4

  0
STYLE
  5
47
330
5
100
AcDbSymbolTableRecord
100
AcDbTextStyleTableRecord
  2
OpenSans-Bold
 70
0
 40
0.0
 41
1.0
 50
0.0
 71
0
 42
2.5
  3
OpenSans-Bold.ttf
  4

  0
STYLE
  5
48
330
5
100
AcDbSymbolTableRecord
100
AcDbTextStyleTableRecord
  2
OpenSans-BoldItalic
 70
0
 40
0.0
 41
1.0
 50
0.0
 71
0
 42
2.5
  3
OpenSans-BoldItalic.ttf
  4

  0
STYLE
  5
49
330
5
100
AcDbSymbolTableRecord
100
AcDbTextStyleTableRecord
  2
OpenSans-ExtraBold
 70
0
 40
0.0
 41
1.0
 50
0.0
 71
0
 42
2.5
  3
OpenSans-ExtraBold.ttf
  4

  0
STYLE
  5
4A
330
5
100
AcDbSymbolTableRecord
100
AcDbTextStyleTableRecord
  2
OpenSans-ExtraBoldItalic
 70
0
 40
0.0
 41
1.0
 50
0.0
 71
0
 42
2.5
  3
OpenSans-ExtraBoldItalic.ttf
  4

  0
STYLE
  5
4B
330
5
100
AcDbSymbolTableRecord
100
AcDbTextStyleTableRecord
  2
OpenSansCondensed-Bold
 70
0
 40
0.0
 41
1.0
 50
0.0
 71
0
 42
2.5
  3
OpenSansCondensed-Bold.ttf
  4

  0
STYLE
  5
4C
330
5
100
AcDbSymbolTableRecord
100
AcDbTextStyleTableRecord
  2
OpenSansCondensed-Light
 70
0
 40
0.0
 41
1.0
 50
0.0
 71
0
 42
2.5
  3
OpenSansCondensed-Light.ttf
  4

  0
STYLE
  5
4D
330
5
100
AcDbSymbolTableRecord
100
AcDbTextStyleTableRecord
  2
OpenSansCondensed-Italic
 70
0
 40
0.0
 41
1.0
 50
0.0
 71
0
 42
2.5
  3
OpenSansCondensed-LightItalic.ttf
  4

  0
STYLE
  5
4E
330
5
100
AcDbSymbolTableRecord
100
AcDbTextStyleTableRecord
  2
LiberationSans
 70
0
 40
0.0
 41
1.0
 50
0.0
 71
0
 42
2.5
  3
LiberationSans-Regular.ttf
  4

  0
STYLE
  5
4F
330
5
100
AcDbSymbolTableRecord
100
AcDbTextStyleTableRecord
  2
LiberationSans-Bold
 70
0
 40
0.0
 41
1.0
 50
0.0
 71
0
 42
2.5
  3
LiberationSans-Bold.ttf
  4

  0
STYLE
  5
50
330
5
100
AcDbSymbolTableRecord
100
AcDbTextStyleTableRecord
  2
LiberationSans-BoldItalic
 70
0
 40
0.0
 41
1.0
 50
0.0
 71
0
 42
2.5
  3
LiberationSans-BoldItalic.ttf
  4

  0
STYLE
  5
51
330
5
100
AcDbSymbolTableRecord
100
AcDbTextStyleTableRecord
  2
LiberationSans-Italic
 70
0
 40
0.0
 41
1.0
 50
0.0
 71
0
 42
2.5
  3
LiberationSans-Italic.ttf
  4

  0
STYLE
  5
52
330
5
100
AcDbSymbolTableRecord
100
AcDbTextStyleTableRecord
  2
LiberationSerif
 70
0
 40
0.0
 41
1.0
 50
0.0
 71
0
 42
2.5
  3
LiberationSerif-Regular.ttf
  4

  0
STYLE
  5
53
330
5
100
AcDbSymbolTableRecord
100
AcDbTextStyleTableRecord
  2
LiberationSerif-Bold
 70
0
 40
0.0
 41
1.0
 50
0.0
 71
0
 42
2.5
  3
LiberationSerif-Bold.ttf
  4

  0
STYLE
  5
54
330
5
100
AcDbSymbolTableRecord
100
AcDbTextStyleTableRecord
  2
LiberationSerif-BoldItalic
 70
0
 40
0.0
 41
1.0
 50
0.0
 71
0
 42
2.5
  3
LiberationSerif-BoldItalic.ttf
  4

  0
STYLE
  5
55
330
5
100
AcDbSymbolTableRecord
100
AcDbTextStyleTableRecord
  2
LiberationSerif-Italic
 70
0
 40
0.0
 41
1.0
 50
0.0
 71
0
 42
2.5
  3
LiberationSerif-Italic.ttf
  4

  0
STYLE
  5
56
330
5
100
AcDbSymbolTableRecord
100
AcDbTextStyleTableRecord
  2
LiberationMono
 70
0
 40
0.0
 41
1.0
 50
0.0
 71
0
 42
2.5
  3
LiberationMono-Regular.ttf
  4

  0
STYLE
  5
57
330
5
100
AcDbSymbolTableRecord
100
AcDbTextStyleTableRecord
  2
LiberationMono-Bold
 70
0
 40
0.0
 41
1.0
 50
0.0
 71
0
 42
2.5
  3
LiberationMono-Bold.ttf
  4

  0
STYLE
  5
58
330
5
100
AcDbSymbolTableRecord
100
AcDbTextStyleTableRecord
  2
LiberationMono-BoldItalic
 70
0
 40
0.0
 41
1.0
 50
0.0
 71
0
 42
2.5
  3
LiberationMono-BoldItalic.ttf
  4

  0
STYLE
  5
59
330
5
100
AcDbSymbolTableRecord
100
AcDbTextStyleTableRecord
  2
LiberationMono-Italic
 70
0
 40
0.0
 41
1.0
 50
0.0
 71
0
 42
2.5
  3
LiberationMono-Italic.ttf
  4

  0
ENDTAB
  0
TABLE
  2
VIEW
  5
7
330
0
100
AcDbSymbolTable
 70
0
  0
ENDTAB
  0
TABLE
  2
UCS
  5
6
330
0
100
AcDbSymbolTable
 70
0
  0
ENDTAB
  0
TABLE
  2
APPID
  5
3
330
0
100
AcDbSymbolTable
 70
3
  0
APPID
  5
2A
330
3
100
AcDbSymbolTableRecord
100
AcDbRegAppTableRecord
  2
ACAD
 70
0
  0
APPID
  5
98
330
3
100
AcDbSymbolTableRecord
100
AcDbRegAppTableRecord
  2
HATCHBACKGROUNDCOLOR
 70
0
  0
APPID
  5
99
330
3
100
AcDbSymbolTableRecord
100
AcDbRegAppTableRecord
  2
EZDXF
 70
0
  0
ENDTAB
  0
TABLE
  2
DIMSTYLE
  5
4
330
0
100
AcDbSymbolTable
 70
12
100
AcDbDimStyleTable
  0
DIMSTYLE
105
2B
330
4
100
AcDbSymbolTableRecord
100
AcDbDimStyleTableRecord
  2
Standard
 70
0
 40
1.0
 41
2.5
 42
0.625
 43
3.75
 44
1.25
 45
0.0
 46
0.0
 47
0.0
 48
0.0
 49
2.5
140
2.5
141
2.5
142
0.0
143
0.03937007874
144
1.0
145
0.0
146
1.0
147
0.625
148
0.0
 69
0
 70
0
 71
0
 72
0
 73
0
 74
0
 75
0
 76
0
 77
1
 78
8
 79
3
170
0
171
3
172
1
173
0
174
0
175
0
176
0
177
0
178
0
179
2
271
2
272
2
273
2
274
3
275
0
276
0
277
2
278
44
279
0
280
0
281
0
282
0
283
0
284
8
285
0
286
0
288
0
289
3
290
0
371
-2
372
-2
  0
DIMSTYLE
105
73
330
4
100
AcDbSymbolTableRecord
100
AcDbDimStyleTableRecord
  2
EZDXF
 70
0
 40
1.0
 41
0.175
 42
0.125
 43
3.75
 44
0.375
 45
0.0
 46
0.0
 47
0.0
 48
0.0
 49
2.5
140
0.25
141
2.5
142
0.0
143
0.03937007874
144
100.0
145
0.0
146
0.5
147
0.1
148
0.0
 69
0
 70
0
 71
0
 72
0
 73
0
 74
0
 75
0
 76
0
 77
1
 78
12
 79
3
170
0
171
3
172
1
173
0
174
0
175
0
176
0
177
0
178
0
179
2
271
2
272
2
273
2
274
3
275
0
276
0
277
2
278
46
279
2
280
0
281
0
282
0
283
0
284
8
285
0
286
0
288
1
289
3
290
0
340
4C
342
74
371
-2
372
-2
  0
DIMSTYLE
105
7C
330
4
100
AcDbSymbolTableRecord
100
AcDbDimStyleTableRecord
  2
EZ_M_100_H25_CM
 70
0
 40
1.0
 41
0.25
 42
0.125
 43
3.75
 44
0.375
 45
0.0
 46
0.0
 47
0.0
 48
0.0
 49
2.5
140
0.25
141
2.5
142
0.125
143
0.03937007874
144
100.0
145
0.0
146
0.5
147
0.1
148
0.0
 69
0
 70
0
 71
0
 72
0
 73
0
 74
0
 75
0
 76
0
 77
1
 78
12
 79
3
170
0
171
3
172
1
173
0
174
0
175
0
176
0
177
0
178
0
179
2
271
2
272
2
273
2
274
3
275
0
276
0
277
2
278
46
279
2
280
0
281
0
282
0
283
0
284
8
285
0
286
0
288
1
289
3
290
0
340
4C
371
-2
372
-2
  0
DIMSTYLE
105
7D
330
4
100
AcDbSymbolTableRecord
100
AcDbDimStyleTableRecord
  2
EZ_M_50_H25_CM
 70
0
 40
1.0
 41
0.125
 42
0.0625
 43
3.75
 44
0.1875
 45
0.0
 46
0.0
 47
0.0
 48
0.0
 49
2.5
140
0.125
141
2.5
142
0.0625
143
0.03937007874
144
100.0
145
0.0
146
0.5
147
0.05
148
0.0
 69
0
 70
0
 71
0
 72
0
 73
0
 74
0
 75
0
 76
0
 77
1
 78
12
 79
3
170
0
171
3
172
1
173
0
174
0
175
0
176
0
177
0
178
0
179
2
271
2
272
2
273
2
274
3
275
0
276
0
277
2
278
46
279
2
280
0
281
0
282
0
283
0
284
8
285
0
286
0
288
1
289
3
290
0
340
4C
371
-2
372
-2
  0
DIMSTYLE
105
7E
330
4
100
AcDbSymbolTableRecord
100
AcDbDimStyleTableRecord
  2
EZ_M_25_H25_CM
 70
0
 40
1.0
 41
0.0625
 42
0.03125
 43
3.75
 44
0.09375
 45
0.0
 46
0.0
 47
0.0
 48
0.0
 49
2.5
140
0.0625
141
2.5
142
0.03125
143
0.03937007874
144
100.0
145
0.0
146
0.5
147
0.025
148
0.0
 69
0
 70
0
 71
0
 72
0
 73
0
 74
0
 75
0
 76
0
 77
1
 78
12
 79
3
170
0
171
3
172
1
173
0
174
0
175
0
176
0
177
0
178
0
179
2
271
2
272
2
273
2
274
3
275
0
276
0
277
2
278
46
279
2
280
0
281
0
282
0
283
0
284
8
285
0
286
0
288
1
289
3
290
0
340
4C
371
-2
372
-2
  0
DIMSTYLE
105
7F
330
4
100
AcDbSymbolTableRecord
100
AcDbDimStyleTableRecord
  2
EZ_M_20_H25_CM
 70
0
 40
1.0
 41
0.05
 42
0.025
 43
3.75
 44
0.07500000000000001
 45
0.0
 46
0.0
 47
0.0
 48
0.0
 49
2.5
140
0.05
141
2.5
142
0.025
143
0.03937007874
144
100.0
145
0.0
146
0.5
147
0.020000000000000004
148
0.0
 69
0
 70
0
 71
0
 72
0
 73
0
 74
0
 75
0
 76
0
 77
1
 78
12
 79
3
170
0
171
3
172
1
173
0
174
0
175
0
176
0
177
0
178
0
179
2
271
2
272
2
273
2
274
3
275
0
276
0
277
2
278
46
279
2
280
0
281
0
282
0
283
0
284
8
285
0
286
0
288
1
289
3
290
0
340
4C
371
-2
372
-2
  0
DIMSTYLE
105
80
330
4
100
AcDbSymbolTableRecord
100
AcDbDimStyleTableRecord
  2
EZ_M_10_H25_CM
 70
0
 40
1.0
 41
0.025
 42
0.0125
 43
3.75
 44
0.037500000000000006
 45
0.0
 46
0.0
 47
0.0
 48
0.0
 49
2.5
140
0.025
141
2.5
142
0.0125
143
0.03937007874
144
100.0
145
0.0
146
0.5
147
0.010000000000000002
148
0.0
 69
0
 70
0
 71
0
 72
0
 73
0
 74
0
 75
0
 76
0
 77
1
 78
12
 79
3
170
0
171
3
172
1
173
0
174
0
175
0
176
0
177
0
178
0
179
2
271
2
272
2
273
2
274
3
275
0
276
0
277
2
278
46
279
2
280
0
281
0
282
0
283
0
284
8
285
0
286
0
288
1
289
3
290
0
340
4C
371
-2
372
-2
  0
DIMSTYLE
105
81
330
4
100
AcDbSymbolTableRecord
100
AcDbDimStyleTableRecord
  2
EZ_M_5_H25_CM
 70
0
 40
1.0
 41
0.0125
 42
0.00625
 43
3.75
 44
0.018750000000000003
 45
0.0
 46
0.0
 47
0.0
 48
0.0
 49
2.5
140
0.0125
141
2.5
142
0.00625
143
0.03937007874
144
100.0
145
0.0
146
0.5
147
0.005000000000000001
148
0.0
 69
0
 70
0
 71
0
 72
0
 73
0
 74
0
 75
0
 76
0
 77
1
 78
12
 79
3
170
0
171
3
172
1
173
0
174
0
175
0
176
0
177
0
178
0
179
2
271
2
272
2
273
2
274
3
275
0
276
0
277
2
278
46
279
2
280
0
281
0
282
0
283
0
284
8
285
0
286
0
288
1
289
3
290
0
340
4C
371
-2
372
-2
  0
DIMSTYLE
105
82
330
4
100
AcDbSymbolTableRecord
100
AcDbDimStyleTableRecord
  2
EZ_M_1_H25_CM
 70
0
 40
1.0
 41
0.0025
 42
0.00125
 43
3.75
 44
0.00375
 45
0.0
 46
0.0
 47
0.0
 48
0.0
 49
2.5
140
0.0025
141
2.5
142
0.00125
143
0.03937007874
144
100.0
145
0.0
146
0.5
147
0.001
148
0.0
 69
0
 70
0
 71
0
 72
0
 73
0
 74
0
 75
0
 76
0
 77
1
 78
12
 79
3
170
0
171
3
172
1
173
0
174
0
175
0
176
0
177
0
178
0
179
2
271
2
272
2
273
2
274
3
275
0
276
0
277
2
278
46
279
2
280
0
281
0
282
0
283
0
284
8
285
0
286
0
288
1
289
3
290
0
340
4C
371
-2
372
-2
  0
DIMSTYLE
105
83
330
4
100
AcDbSymbolTableRecord
100
AcDbDimStyleTableRecord
  2
EZ_RADIUS
 70
0
 40
1.0
 41
0.25
 42
0.125
 43
3.75
 44
0.375
 45
0.0
 46
0.0
 47
0.0
 48
0.0
 49
2.5
140
0.25
141
0.0
142
0.0
143
0.03937007874
144
100.0
145
0.0
146
0.5
147
0.1
148
0.0
 69
0
 70
0
 71
0
 72
0
 73
0
 74
0
 75
0
 76
0
 77
1
 78
12
 79
3
170
0
171
3
172
0
173
0
174
0
175
0
176
0
177
0
178
0
179
2
271
2
272
2
273
2
274
3
275
0
276
0
277
2
278
46
279
1
280
0
281
0
282
0
283
0
284
8
285
0
286
0
288
1
289
3
290
0
340
4C
342
84
371
-2
372
-2
  0
DIMSTYLE
105
88
330
4
100
AcDbSymbolTableRecord
100
AcDbDimStyleTableRecord
  2
EZ_RADIUS_INSIDE
 70
0
 40
1.0
 41
0.25
 42
0.125
 43
3.75
 44
0.375
 45
0.0
 46
0.0
 47
0.0
 48
0.0
 49
2.5
140
0.25
141
0.0
142
0.0
143
0.03937007874
144
100.0
145
0.0
146
0.5
147
0.1
148
0.0
 69
0
 70
0
 71
0
 72
0
 73
0
 74
0
 75
0
 76
0
 77
0
 78
12
 79
3
170
0
171
3
172
0
173
0
174
1
175
0
176
0
177
0
178
0
179
2
271
2
272
2
273
2
274
3
275
0
276
0
277
2
278
46
279
0
280
0
281
0
282
0
283
0
284
8
285
0
286
0
288
1
289
0
290
0
340
4C
342
84
371
-2
372
-2
  0
DIMSTYLE
105
89
330
4
100
AcDbSymbolTableRecord
100
AcDbDimStyleTableRecord
  2
EZ_CURVED
 70
0
 40
1.0
 41
0.25
 42
0.125
 43
3.75
 44
0.375
 45
0.0
 46
0.0
 47
0.0
 48
0.0
 49
2.5
140
0.25
141
2.5
142
0.0
143
0.03937007874
144
100.0
145
0.0
146
0.5
147
0.1
148
0.0
 69
0
 70
0
 71
0
 72
0
 73
0
 74
0
 75
0
 76
0
 77
1
 78
12
 79
2
 90
2
170
0
171
3
172
1
173
0
174
0
175
0
176
0
177
0
178
0
179
2
271
2
272
2
273
2
274
3
275
0
276
0
277
2
278
46
279
2
280
0
281
0
282
0
283
0
284
8
285
0
286
0
288
1
289
3
290
0
340
4C
371
-2
372
-2
  0
ENDTAB
  0
TABLE
  2
BLOCK_RECORD
  5
9
330
0
100
AcDbSymbolTable
 70
5
  0
BLOCK_RECORD
  5
17
330
9
100
AcDbSymbolTableRecord
100
AcDbBlockTableRecord
  2
*Model_Space
340
1A
 70
0
280
1
281
0
  0
BLOCK_RECORD
  5
1B
330
9
100
AcDbSymbolTableRecord
100
AcDbBlockTableRecord
  2
*Paper_Space
340
1E
 70
0
280
1
281
0
  0
BLOCK_RECORD
  5
74
330
9
100
AcDbSymbolTableRecord
100
AcDbBlockTableRecord
  2
_ARCHTICK
340
0
 70
0
280
1
281
0
  0
BLOCK_RECORD
  5
78
330
9
100
AcDbSymbolTableRecord
100
AcDbBlockTableRecord
  2
_CLOSEDFILLED
340
0
 70
0
280
1
281
0
  0
BLOCK_RECORD
  5
84
330
9
100
AcDbSymbolTableRecord
100
AcDbBlockTableRecord
  2
_CLOSEDBLANK
340
0
 70
0
280
1
281
0
  0
ENDTAB
  0
ENDSEC
  0
SECTION
  2
BLOCKS
  0
BLOCK
  5
18
330
17
100
AcDbEntity
  8
0
100
AcDbBlockBegin
  2
*Model_Space
 70
0
 10
0.0
 20
0.0
 30
0.0
  3
*Model_Space
  1

  0
ENDBLK
  5
19
330
17
100
AcDbEntity
  8
0
100
AcDbBlockEnd
  0
BLOCK
  5
1C
330
1B
100
AcDbEntity
  8
0
100
AcDbBlockBegin
  2
*Paper_Space
 70
0
 10
0.0
 20
0.0
 30
0.0
  3
*Paper_Space
  1

  0
ENDBLK
  5
1D
330
1B
100
AcDbEntity
  8
0
100
AcDbBlockEnd
  0
BLOCK
  5
75
330
74
100
AcDbEntity
  8
0
100
AcDbBlockBegin
  2
_ARCHTICK
 70
0
 10
0.0
 20
0.0
 30
0.0
  3
_ARCHTICK
  1

  0
LWPOLYLINE
  5
77
330
74
100
AcDbEntity
  8
0
  6
BYBLOCK
 62
0
100
AcDbPolyline
 90
2
 70
0
 43
0.15
 10
-0.5
 20
-0.5
 10
0.5
 20
0.5
  0
ENDBLK
  5
76
330
74
100
AcDbEntity
  8
0
100
AcDbBlockEnd
  0
BLOCK
  5
79
330
78
100
AcDbEntity
  8
0
100
AcDbBlockBegin
  2
_CLOSEDFILLED
 70
0
 10
0.0
 20
0.0
 30
0.0
  3
_CLOSEDFILLED
  1

  0
SOLID
  5
7B
330
78
100
AcDbEntity
  8
0
  6
BYBLOCK
 62
0
100
AcDbTrace
 10
-1.0
 20
0.16439898372402537
 30
0.0
 11
0.0
 21
0.0
 31
0.0
 12
-1.0
 22
-0.16439898372402537
 32
0.0
 13
-1.0
 23
-0.16439898372402537
 33
0.0
  0
ENDBLK
  5
7A
330
78
100
AcDbEntity
  8
0
100
AcDbBlockEnd
  0
BLOCK
  5
85
330
84
100
AcDbEntity
  8
0
100
AcDbBlockBegin
  2
_CLOSEDBLANK
 70
0
 10
0.0
 20
0.0
 30
0.0
  3
_CLOSEDBLANK
  1

  0
LWPOLYLINE
  5
87
330
84
100
AcDbEntity
  8
0
  6
BYBLOCK
 62
0
100
AcDbPolyline
 90
3
 70
1
 10
-1.0
 20
0.16439898372402537
 10
0.0
 20
0.0
 10
-1.0
 20
-0.16439898372402537
  0
ENDBLK
  5
86
330
84
100
AcDbEntity
  8
0
100
AcDbBlockEnd
  0
ENDSEC
  0
SECTION
  2
ENTITIES
  0
LWPOLYLINE
  5
8D
330
17
100
AcDbEntity
  8
HOJA
100
AcDbPolyline
 90
4
 70
1
 10
0.0
 20
0.0
 10
500.0
 20
0.0
 10
500.0
 20
700.0
 10
0.0
 20
700.0
  0
LWPOLYLINE
  5
8E
330
17
100
AcDbEntity
  8
CORTE
100
AcDbPolyline
 90
626
 70
1
 10
13.0
 20
13.000000000000002
 10
13.0
 20
274.0195652173913
 10
48.83594236799135
 20
274.0195652173913
 10
48.21209714646827
 20
273.0765560138952
 10
46.76755322258141
 20
270.97216917428244
 10
45.289975716377825
 20
268.6341171187305
 10
44.89855753665569
 20
268.04229608990863
 10
44.302592640961386
 20
267.0520292210245
 10
43.094363448748
 20
265.1129086886011
 10
42.368962385371475
 20
263.8298076254032
 10
41.38918658377352
 20
262.1832603847049
 10
40.265532653729394
 20
260.0738701256223
 10
39.808413760052694
 20
259.25397569891595
 10
39.44793121677617
 20
258.5295709183556
 10
38.28587964545094
 20
256.324600522095
 10
37.27900661031279
 20
254.14960250635428
 10
36.90855433184585
 20
253.3953673441962
 10
36.52681354494281
 20
252.50774489838423
 10
35.5906365412712
 20
250.46621708192654
 10
34.9797859052985
 20
248.9149582216829
 10
34.39404711757837
 20
247.53699873775142
 10
33.60553655105994
 20
245.36931861359457
 10
33.308047904391096
 20
244.60808100825383
 10
33.1634816733244
 20
244.1649681473011
 10
32.267971029816856
 20
241.6787708230518
 10
31.69343747559409
 20
239.76084548783075
 10
31.357526215815135
 20
238.7493531516887
 10
30.684559774558878
 20
236.30280503771772
 10
30.541206180740257
 20
235.8206377089991
 10
30.496294553592687
 20
235.63211551811543
 10
29.749930413756655
 20
232.89108316840088
 10
29.4897239301457
 20
231.69273868524309
 10
29.058321164400606
 20
229.96143129958955
 10
28.656142390866115
 20
227.9267992136601
 10
28.452357448386763
 20
227.03169545185918
 10
27.96201650109709
 20
224.30069424454672
 10
27.92076671446388
 20
224.10190883948422
 10
27.763487148828872
 20
223.13448132934118
 10
27.416795763619177
 20
221.17299162617184
 10
27.364009809549664
 20
220.7727431637427
 10
26.961096185309067
 20
218.24301205645708
 10
26.853621892045368
 20
217.330763631867
 10
26.5655435330413
 20
215.31299705220937
 10
26.425253224719455
 20
213.9710128471546
 10
26.22343965723988
 20
212.38291200609277
 10
26.06704830061164
 20
210.6815827523535
 10
25.929312097832934
 20
209.45278492067104
 10
25.76959179151413
 20
207.45305112426664
 10
25.67870760489844
 20
206.52262293743487
 10
25.525428038367913
 20
204.27796258126207
 10
25.468018399431177
 20
203.5924539055451
 10
25.32859094181367
 20
201.15030914766547
 10
25.29432339200293
 20
200.66223861960597
 10
25.174300642623077
 20
198.06531750398693
 10
25.155304991120957
 20
197.73201464137244
 10
25.05871429562316
 20
195.01912452858488
 10
25.049148059879535
 20
194.80176486821773
 10
24.978795921890438
 20
192.00870654582005
 10
24.974512823750732
 20
191.87151456394582
 10
24.932140027363708
 20
189.03163599644114
 10
24.930464717200245
 20
188.94124657705416
 10
24.91692355219903
 20
186.08610805839018
 10
24.916479363323326
 20
186.01098549893854
 10
24.9317568133014
 20
183.17071216178897
 10
24.932362071136552
 20
183.08071439424324
 10
24.97573267096765
 20
180.28456291029704
 10
24.978336532552518
 20
180.15045742600836
 10
25.0482736249799
 20
177.4270746801214
 10
25.054941508834307
 20
177.22020840733197
 10
25.149218856416795
 20
174.5980811032293
 10
25.163159336143828
 20
174.2899598080997
 10
25.278719682760972
 20
171.79775617300808
 10
25.304346982612962
 20
171.3597380160008
 10
25.43731019751076
 20
169.0266246062948
 10
25.48035883114654
 20
168.42952482981676
 10
25.625854639216328
 20
166.2855726460729
 10
25.693545545699287
 20
165.49934782569642
 10
25.845626982622985
 20
163.57587255521616
 10
25.946881248538897
 20
162.56918910085477
 10
26.09827419758667
 20
160.8991914503383
 10
26.244025059928358
 20
159.63907719010345
 10
26.385917028425492
 20
158.25765948665847
 10
26.589496421812967
 20
156.70899643797063
 10
26.711188039798458
 20
155.65392699390213
 10
26.988836438879808
 20
153.77897602375197
 10
27.077299787241273
 20
153.0912332270668
 10
27.448862123852646
 20
150.8490138543637
 10
27.48817785115601
 20
150.57352091711164
 10
27.763468254390343
 20
149.08154801457005
 10
27.922465031461428
 20
148.0790564483734
 10
27.95360622071204
 20
147.92011903020187
 10
28.36054625558856
 20
145.58878688950975
 10
28.490023047977406
 20
144.99032917071582
 10
28.843605883741084
 20
143.14372253418782
 10
29.10154587627936
 20
142.06060193680045
 10
29.376457711580777
 20
140.74871908383537
 10
29.799669549587925
 20
139.13097174754725
 10
29.964862130533735
 20
138.40957039909964
 10
30.59860568883345
 20
136.20142800363732
 10
30.615672411698263
 20
136.13316743437161
 10
30.684508280771645
 20
135.91446155198813
 10
31.23751986508287
 20
133.82660322110135
 10
31.415845136343677
 20
133.27272219152508
 10
31.905769237380174
 20
131.56779912500474
 10
32.33512602270714
 20
130.3433283719432
 10
32.63759290250913
 20
129.37292474146003
 10
33.385727272027104
 20
127.4140315239191
 10
33.44114095979749
 20
127.2501820488382
 10
33.60545171658774
 20
126.85549924636507
 10
34.21768110914719
 20
125.09826024881659
 10
34.47328556083353
 20
124.48514148631908
 10
35.03516947302683
 20
122.98950945941127
 10
35.68219391219998
 20
121.55591476715111
 10
35.925979598838545
 20
120.9544918395531
 10
36.52670510013067
 20
119.72621999038486
 10
36.84719736434208
 20
118.9472828779425
 10
37.0026369145738
 20
118.6267897601656
 10
37.75271512038863
 20
116.92695498532964
 10
38.39458972180894
 20
115.69756911683434
 10
38.733368347046
 20
114.98216136048747
 10
39.447798339204766
 20
113.71229243482163
 10
39.75217718800987
 20
113.07248288728165
 10
39.92077751299564
 20
112.76819507971291
 10
40.74649037850284
 20
111.14126019778844
 10
41.51902790996883
 20
109.83892114179798
 10
41.81780835019857
 20
109.28741714471306
 10
42.36880466386256
 20
108.42057355139758
 10
42.89876279475837
 20
107.43977597439891
 10
43.2292754381689
 20
106.90929457541084
 10
43.981566132911
 20
105.59726912947572
 10
45.05437241486944
 20
103.97992109773766
 10
45.14322192237137
 20
103.83395578142941
 10
45.28979418674761
 20
103.62654021549942
 10
46.25944123673892
 20
102.02145738754568
 10
46.93027590547531
 20
101.05004183151539
 10
47.42974775196147
 20
100.266582648722
 10
48.211908700962255
 20
99.19649055776632
 10
48.62956240919934
 20
98.53808078382349
 10
48.92956522403942
 20
98.12009989617118
 10
49.811750695671705
 20
96.79489096410201
 10
51.023290903749086
 20
95.19041027053724
 10
51.068158031926444
 20
95.12616446280269
 10
51.1330488681844
 20
95.04446059107138
 10
52.27230901204763
 20
93.40193137776045
 10
53.16217385058573
 20
92.26025594822708
 10
53.537392732007405
 20
91.74163081396809
 10
54.05524954060817
 20
91.10602839533335
 10
54.79901654359362
 20
90.07527897142371
 10
55.39831000365058
 20
89.3300743249384
 10
56.07517997344172
 20
88.4258238972403
 10
56.97743933990853
 20
87.34618498629342
 10
57.3827192652451
 20
86.80577773358215
 10
57.71948955266642
 20
86.39987656922989
 10
58.67190745265286
 20
85.16911651975694
 10
59.89961975083031
 20
83.73706155738442
 10
60.01673130852454
 20
83.5867337237369
 10
60.116953922993545
 20
83.46967091710319
 10
61.320591278788655
 20
81.96452415802528
 10
62.57448656086572
 20
80.53927891169138
 10
62.68564921037847
 20
80.40358560103975
 10
62.82121604687643
 20
80.25331991389675
 10
64.01633254606382
 20
78.80715027315223
 10
65.09882194988195
 20
77.60891515236604
 10
65.39388298219247
 20
77.25844353061161
 10
65.74346413478898
 20
76.87887324050408
 10
66.75591102720078
 20
75.69377502015975
 10
67.69851509035247
 20
74.67856325739777
 10
68.14795469402814
 20
74.15930900895727
 10
68.66567875933912
 20
73.60916330302997
 10
69.53759199738973
 20
72.62268396504717
 10
70.37303381973703
 20
71.74823589488527
 10
70.94622331699065
 20
71.10455276544918
 10
71.58785097489819
 20
70.4380665727343
 10
72.36103339625735
 20
69.59354754586556
 10
73.12469012594086
 20
68.81792986508495
 10
73.78856610696381
 20
68.09406393447205
 10
74.5099648194084
 20
67.36259728048017
 10
75.22729271954012
 20
66.60745101513865
 10
75.95907545800057
 20
65.88766037100523
 10
76.67644921374355
 20
65.12933116835306
 10
77.43201713864855
 20
64.38284894167379
 10
78.13905580697784
 20
63.66710990210357
 10
78.8859139172036
 20
62.95743760903733
 10
79.61313669898817
 20
62.21365221958324
 10
80.3539858508151
 20
61.502049189043134
 10
81.10089033298689
 20
60.777141204394006
 10
81.92035513417146
 20
60.0272734932496
 10
82.60403997386605
 20
59.3524854097739
 10
83.275847846732
 20
58.72689977448806
 10
84.11982727506332
 20
57.94463966535675
 10
85.08540242780661
 20
57.097184285053885
 10
85.65747200181009
 20
56.554207248737974
 10
86.19757334403062
 20
56.068364124353145
 10
87.20627838766313
 20
55.18010552191541
 10
88.41587933982886
 20
54.16719190065312
 10
88.7857017439739
 20
53.83117917344063
 10
89.1191158138121
 20
53.54279332990983
 10
90.37548907700446
 20
52.49889769015285
 10
91.96544426987859
 20
51.237315169837004
 10
92.00679143607672
 20
51.20157392929839
 10
92.04042625995953
 20
51.17377282211916
 10
93.65003981454933
 20
49.923758231879994
 10
94.95997644920395
 20
48.94806686286294
 10
95.33718501192678
 20
48.69089905369002
 10
95.91760666434287
 20
48.31029567523494
 10
97.06407275392377
 20
47.48907270763381
 10
97.88020600983499
 20
46.92590290701811
 10
98.83617083133886
 20
46.34256666909373
 10
100.46711509867595
 20
45.381108758382666
 10
100.67123132732067
 20
45.2488460156918
 10
100.79975246960515
 20
45.16824476602126
 10
102.57082836433352
 20
44.23160529776011
 10
103.71637682274653
 20
43.64351719080483
 10
104.55844568440405
 20
43.303790512036294
 10
106.63170041254678
 20
42.489369653290254
 10
106.65256553306266
 20
42.483690203039636
 10
106.7475638954917
 20
42.45842495485267
 10
108.91754921513395
 20
41.82210138863646
 10
109.54682940985563
 20
41.641265975128896
 10
111.38020626256234
 20
41.37289846454025
 10
112.4590361478803
 20
41.217108015420365
 10
114.14614776727055
 20
41.22750697238147
 10
115.3704893093181
 20
41.23353387485636
 10
117.39604799351552
 20
41.566083422600364
 10
118.2819681945801
 20
41.70828168087299
 10
120.56920853771726
 20
42.45775184540609
 10
121.19596227410084
 20
42.64589849190702
 10
121.54159407341847
 20
42.80561588667913
 10
124.10993277640888
 20
43.977814748320085
 10
126.35769297285553
 20
45.38155103926366
 10
127.02705516160692
 20
45.770538744288736
 10
128.53619365346472
 20
46.894245666692434
 10
129.9436898281635
 20
47.935920406407895
 10
130.3495193965121
 20
48.30465353483996
 10
132.862922849634
 20
50.46062975229208
 10
133.61797477649347
 20
51.2326221939092
 10
135.7827286257781
 20
53.34323296804859
 10
136.5018416521875
 20
54.16073961462693
 10
138.70299744350777
 20
56.5682407441999
 10
139.11840795370148
 20
57.088991499497865
 10
141.08237786412263
 20
59.47637080725476
 10
141.53289243609976
 20
60.021089410557465
 10
141.6243660676885
 20
60.12869475119426
 10
143.7452331290456
 20
62.949402369254095
 10
144.54519347373775
 20
63.990648572489306
 10
145.8429311457556
 20
65.87787444431241
 10
147.46631926944028
 20
68.19971775158389
 10
147.84998355382282
 20
68.8065219853279
 10
148.5403515168143
 20
69.88452166790881
 10
149.74379894665745
 20
71.73839400847494
 10
150.38817507299774
 20
72.71867011458697
 10
151.5576602717902
 20
74.66723696970337
 10
153.3097784751279
 20
77.5557958420404
 10
153.33241525849155
 20
77.5963218649691
 10
153.3628618532212
 20
77.65029534013807
 10
155.01347449770793
 20
80.52819857708744
 10
156.2320412141282
 20
82.62957340540247
 10
156.67818532994173
 20
83.45758887932074
 10
157.21723336928025
 20
84.44619027765856
 10
158.29352986764667
 20
86.38949128474184
 10
159.1545206278458
 20
87.92353163706238
 10
159.88896825094838
 20
89.31922547451583
 10
160.73765970035348
 20
90.90736372271424
 10
161.4655620213039
 20
92.25115854066718
 10
162.07720546576402
 20
93.36177715922605
 10
163.02529151459905
 20
95.18124916312631
 10
164.10674620817892
 20
97.21693995922656
 10
164.58795639899895
 20
98.11319356598126
 10
165.00010165403208
 20
98.86570998103237
 10
166.13913233563497
 20
101.04362858139154
 10
167.4578371661551
 20
103.50862854144948
 10
167.709450552863
 20
103.97556687975866
 10
167.92317020806237
 20
104.36341624857977
 10
169.27360936065998
 20
106.9063151299276
 10
170.84595197395095
 20
109.79514392557766
 10
170.86824087934448
 20
109.8373205071464
 10
170.89509191598623
 20
109.88680142647888
 10
172.4630026595915
 20
112.76921807078264
 10
173.7692919938907
 20
115.11223003939091
 10
174.09063465491053
 20
115.70046127309095
 10
174.5029480974153
 20
116.43629124369534
 10
175.7326613565342
 20
118.63223743796674
 10
176.69269396973814
 20
120.30836302375542
 10
177.40355702003194
 20
121.5636577574973
 10
178.38748361508777
 20
123.26323701678123
 10
179.0985878445947
 20
124.49526593752444
 10
179.6160984412127
 20
125.37557285479649
 10
180.81883294303125
 20
127.42679993718484
 10
182.53930268723343
 20
130.31266645443972
 10
182.5667457059181
 20
130.35848961536374
 10
182.60933945154332
 20
130.4286114356014
 10
184.33782466717574
 20
133.28978089055096
 10
185.46267153004305
 20
135.13456215982154
 10
186.13401822419726
 20
136.2214752192084
 10
187.24282553531262
 20
138.00647098541882
 10
187.9500829580977
 20
139.15249483075246
 10
188.3858579843553
 20
139.85842629822838
 10
189.7888304660279
 20
142.08415180195195
 10
191.3091284267164
 20
144.50645246000155
 10
191.63786867344004
 20
145.01587578619146
 10
192.22444861832912
 20
145.93350942912517
 10
193.50167950664385
 20
147.94641755566607
 10
194.23201927645366
 20
149.11562425205068
 10
195.37245398352974
 20
150.87801973212626
 10
197.1552429085094
 20
153.69339152966512
 10
197.23202187117886
 20
153.80963122575037
 10
197.3703445886021
 20
154.02501856824293
 10
199.09982912491137
 20
156.73961220199186
 10
200.0776990347558
 20
158.32921439203676
 10
200.9449458797604
 20
159.67104684136922
 10
202.36751522818784
 20
161.96695513076693
 10
202.7566424260619
 20
162.60059845573224
 10
202.99975756970298
 20
163.01665345674354
 10
204.55498261403974
 20
165.53180901933044
 10
205.92270159127307
 20
167.87475567367608
 10
206.28875823910997
 20
168.46298976668632
 10
206.80270311780222
 20
169.3450251085186
 10
207.9830122713869
 20
171.39185305151273
 10
208.84427485298258
 20
173.00088101864878
 10
209.60449848619817
 20
174.3227711045333
 10
210.4630530027967
 20
175.94556383812701
 10
211.1448847775394
 20
177.25113087193373
 10
211.76554426426827
 20
178.5560773495739
 10
212.6036413759436
 20
180.18177233471042
 10
213.33495287393757
 20
181.75487138367885
 10
213.95398203759083
 20
183.1096149723663
 10
214.68667432463565
 20
184.90990213775243
 10
215.19036891257412
 20
186.03999143697112
 10
215.51685835356238
 20
186.87156426351046
 10
216.3193606032919
 20
188.9673524498291
 10
217.13378286164635
 20
191.42168442483012
 10
217.28547111622686
 20
191.89455733106644
 10
217.6064840549498
 20
193.07402833605352
 10
218.13578289472485
 20
194.8244036744953
 10
218.31476205229924
 20
195.5332436886196
 10
218.84289167003953
 20
197.75124340842007
 10
219.13734146512186
 20
199.28585711953968
 10
219.38145727029394
 20
200.6780248915101
 10
219.65479318343313
 20
202.73220656418965
 10
219.75440625542996
 20
203.604821719927
 10
219.9318133004078
 20
205.9372056423902
 10
219.9642027024899
 20
206.53164483999967
 10
220.0143960311084
 20
208.9470510229045
 10
220.01245711089442
 20
209.4585724431902
 10
219.9354913192441
 20
211.79482098594897
 10
219.89953562586643
 20
212.3856069170396
 10
219.7187265329538
 20
214.5042405083052
 10
219.62413054110317
 20
215.312762594271
 10
219.38091997145904
 20
217.0921890822131
 10
219.18287024763336
 20
218.24002125260137
 10
218.93368164491196
 20
219.57034420657422
 10
218.5697508183287
 20
221.16742581190866
 10
218.3846549033938
 20
221.94638205678805
 10
217.77561056307633
 20
224.09494463549504
 10
217.73823356496723
 20
224.22469625400507
 10
217.6070383983095
 20
224.6107140203558
 10
217.06221549232592
 20
226.4778216804865
 10
216.87837262148952
 20
227.0226347466864
 10
216.3227173034494
 20
228.66313350529649
 10
215.82085252052673
 20
229.9506474319634
 10
215.50452666652018
 20
230.76949962053
 10
214.6863300207701
 20
232.61438802202818
 10
214.6126624398248
 20
232.80682757431214
 10
214.58129515889718
 20
232.87926550372146
 10
213.73663861745308
 20
234.85553752833795
 10
213.27660748617842
 20
235.80767886978734
 10
212.7909271762481
 20
236.8343259278318
 10
211.77343371546849
 20
238.7361328817176
 10
211.77174204251978
 20
238.7393843288042
 10
211.7669353150416
 20
238.7475435226502
 10
210.7856339106559
 20
240.6830079739359
 10
210.228597899464
 20
241.665659531892
 10
209.73649020525772
 20
242.5583637266012
 10
208.84486773398234
 20
244.002823160212
 10
208.6373338919174
 20
244.38856313989163
 10
208.5140914805639
 20
244.59538102798206
 10
207.56208175242477
 20
246.23804442562744
 10
206.73504821901972
 20
247.52440787003675
 10
206.42384450652935
 20
248.02434525402484
 10
205.92397078337598
 20
248.7468455749955
 10
205.27989172829083
 20
249.80980067034
 10
204.8500257213069
 20
250.45445458822508
 10
204.123852349056
 20
251.5785306560084
 10
203.00173165561114
 20
253.15408553435344
 10
202.91221599615886
 20
253.29595790817118
 10
202.8510902225157
 20
253.38460787991647
 10
201.73931327735863
 20
255.04804956813385
 10
200.81311941482943
 20
256.3140739793591
 10
200.5097665408449
 20
256.7433533705023
 10
200.08058608046085
 20
257.29722828847554
 10
199.28612381669345
 20
258.44878816080654
 10
198.689099630604
 20
259.244437178136
 10
198.04492593242585
 20
260.1326832658445
 10
197.15819354908976
 20
261.2551458921956
 10
196.77609943001693
 20
261.7926071594698
 10
196.48222885509568
 20
262.17485720245503
 10
195.52319811896925
 20
263.4650202437862
 10
194.23580429213158
 20
265.064431622949
 10
194.21821781657033
 20
265.0884661838686
 10
194.2049665453274
 20
265.10530112626674
 10
192.95349143040443
 20
266.74926317485586
 10
191.89913291087998
 20
268.03530218077526
 10
191.64082192294467
 20
268.3620493814804
 10
191.3142541581128
 20
268.74516388855903
 10
190.34261454456833
 20
269.99221785921503
 10
189.52968007974852
 20
270.9658845776574
 10
189.02161054527372
 20
271.5968910187829
 10
188.3917666573417
 20
272.3261647992636
 10
187.69583475163645
 20
273.1991774373502
 10
186.99829180374286
 20
274.0195652173913
 10
259.1738592995188
 20
274.0195652173913
 10
259.4720343483928
 20
271.82638292272947
 10
259.6230724982154
 20
271.0256966427939
 10
259.8700911759328
 20
269.29512881896574
 10
260.1079296026592
 20
268.0951959842416
 10
260.30238764925497
 20
266.7982491329911
 10
260.64272352515286
 20
265.16470956576524
 10
260.77280746656623
 20
264.3396423962946
 10
261.2341442312191
 20
262.23426534884936
 10
261.28570561977745
 20
261.92369503939017
 10
261.59545627548437
 20
260.58099978530277
 10
261.8163417105858
 20
259.5283999170077
 10
261.876958592857
 20
259.3069375915876
 10
262.35450525175594
 20
257.1379841438278
 10
262.57314807423825
 20
256.37667659753293
 10
262.9392289222301
 20
254.79432882534422
 10
263.3458462297505
 20
253.44645639066678
 10
263.5757642374648
 20
252.50272449142454
 10
264.2061899231516
 20
250.51631282315853
 10
264.2698302303785
 20
250.268936089859
 10
264.51656898053375
 20
249.5314047287972
 10
264.96830323405845
 20
248.04216287198662
 10
265.14022092471305
 20
247.58922962633773
 10
265.6971556123556
 20
245.84341221516817
 10
266.16915650524487
 20
244.65924678374643
 10
266.4892027979425
 20
243.70818039792186
 10
267.31927364056276
 20
241.72936876124433
 10
267.35027527257097
 20
241.64234924786442
 10
267.43711859458256
 20
241.4461535024947
 10
268.19604257171454
 20
239.5632354000734
 10
268.56768096682794
 20
238.80227814507055
 10
269.1027431432907
 20
237.54329337453171
 10
269.96026505798613
 20
235.87255954607346
 10
270.0837459861586
 20
235.59807503220696
 10
270.3574926855198
 20
235.09197273722222
 10
271.07072797171173
 20
233.66054747277315
 10
271.4918352836246
 20
232.9453964254827
 10
272.10831812499333
 20
231.77211766791555
 10
273.19378518512593
 20
230.01574454340044
 10
273.22371795355946
 20
229.96193749716073
 10
273.27733705436765
 20
229.87949485690405
 10
274.33169784394937
 20
228.14577276055428
 10
275.07457332813965
 20
227.0884792056657
 10
275.5142892652649
 20
226.40297577536643
 10
276.1976505606712
 20
225.47477443631766
 10
276.7385234572098
 20
224.7037580290835
 10
277.171629368445
 20
224.1612198701313
 10
277.9990762488255
 20
223.03906816025963
 10
279.1176171866069
 20
221.69613101523277
 10
279.32405706095386
 20
221.44137343214754
 10
279.51280424723035
 20
221.23395059131556
 10
280.67401128094406
 20
219.86622343352906
 10
282.0371103958996
 20
218.42424676148286
 10
282.09369426925883
 20
218.36418302857223
 10
282.15376073541483
 20
218.30670783056974
 10
283.54601138952654
 20
216.89150943336145
 10
284.95605096717117
 20
215.58664096377439
 10
285.0641866649092
 20
215.48910430753358
 10
285.19742993109077
 20
215.37950642204083
 10
286.6341408956636
 20
214.13411133791126
 10
287.87433856191507
 20
213.14221797508768
 10
288.2667245416344
 20
212.84745495367125
 10
288.8369896683812
 20
212.45226469471766
 10
289.97293049074784
 20
211.6287498395184
 10
290.79178508356506
 20
211.07330122849567
 10
291.7529697186955
 20
210.49118031905698
 10
293.4614742081237
 20
209.52492695018717
 10
293.61905383355446
 20
209.4323331510974
 10
293.7082700722806
 20
209.3825041603101
 10
295.6072189412371
 20
208.50482198604286
 10
296.62383610085993
 20
208.05980884639763
 10
297.71873811546817
 20
207.70244629326538
 10
299.53775658620515
 20
207.1456062368339
 10
299.99195950330864
 20
207.0631521006555
 10
302.45014592362753
 20
206.65747783122316
 10
302.4967728954878
 20
206.65612420350485
 10
305.36158757805896
 20
206.61064566823634
 10
305.3635427434796
 20
206.61089933987998
 10
308.2729030729912
 20
207.0179566957065
 10
308.8531591210193
 20
207.18814784496067
 10
311.1850266814897
 20
207.88971628572696
 10
313.5586632381591
 20
208.9820939305454
 10
314.09862427740666
 20
209.23344376618525
 10
314.5607147628977
 20
209.52408108293082
 10
317.01618148750134
 20
210.9599624519672
 10
319.0436216638097
 20
212.45228458175998
 10
319.9353919260941
 20
213.0599725915477
 10
322.7659101173393
 20
215.38109960882178
 10
322.85570945232996
 20
215.44918688577408
 10
323.43503471930245
 20
215.961457333144
 10
325.7746324260134
 20
218.03467489775892
 10
326.0445986487121
 20
218.3071285858251
 10
328.6963853672834
 20
220.78276332393088
 10
329.13193387275135
 20
221.2373280062726
 10
331.6185387969237
 20
223.6454459422793
 10
332.10831793362286
 20
224.1678186160646
 10
334.5409322611028
 20
226.58498447891506
 10
335.01609139075964
 20
227.0985018568448
 10
337.46350954551815
 20
229.57411416428832
 10
337.88174946204805
 20
230.02936516066003
 10
340.38624120559234
 20
232.59342660179198
 10
340.72240200205954
 20
232.9603451714017
 10
343.3090468691348
 20
235.62929753649567
 10
343.5493044716382
 20
235.89141253299516
 10
346.23194578670467
 20
238.67226387593294
 10
346.37006842282216
 20
238.8225229364052
 10
349.1548763139346
 20
241.7157256379331
 10
349.18995177495714
 20
241.75370577584414
 10
350.15483369829354
 20
242.7564936642162
 10
352.01071910484507
 20
244.68588306365032
 10
352.0788205419312
 20
244.75407235835263
 10
354.8359141545852
 20
247.616974913672
 10
355.00170401584086
 20
247.78357896293224
 10
357.67048115207035
 20
250.54807874211116
 10
357.92463947648605
 20
250.80407505433274
 10
360.51597345371016
 20
253.4792327526088
 10
360.9760869565217
 20
253.94323071567106
 10
360.9760869565217
 20
109.1890256639188
 10
360.56036394337946
 20
109.43451863223302
 10
360.06051291263105
 20
109.7379288948538
 10
358.74577550048093
 20
110.5480114503023
 10
357.9399723007595
 20
111.0607983091375
 10
356.90543482045973
 20
111.62861722949829
 10
355.0887655677634
 20
112.66806353548543
 10
355.0429580845639
 20
112.69467855451009
 10
355.01880773618575
 20
112.70937910394517
 10
353.1045383316943
 20
113.67612426507367
 10
352.10012055439995
 20
114.21443446140732
 10
351.1297950540649
 20
114.61996422511542
 10
349.1825206272683
 20
115.49953239290522
 10
349.1140162460304
 20
115.5213968786107
 10
348.91091494758297
 20
115.593535173345
 10
346.9603638958276
 20
116.29658243363463
 10
346.26336549058993
 20
116.57728228844962
 10
344.71212850065405
 20
116.96371968204883
 10
343.3483836225171
 20
117.36387662154256
 10
342.32470358490406
 20
117.49004759550945
 10
340.4351561903324
 20
117.80850662100671
 10
339.7172414056213
 20
117.7950093141166
 10
337.523506215061
 20
117.85215288191209
 10
336.7185508016232
 20
117.70793927343165
 10
334.6129082430236
 20
117.42019974098561
 10
332.9035153204009
 20
116.80381425348703
 10
331.7023463606495
 20
116.41577062966553
 10
330.26099605085653
 20
115.59875223050373
 10
328.79101098264084
 20
114.7814100056515
 10
326.15290041391034
 20
112.6741431228118
 10
325.8761605811175
 20
112.45872907184848
 10
323.2068121584498
 20
109.74883857050564
 10
322.9585863721823
 20
109.5050441027799
 10
320.7382512216751
 20
106.82240262719698
 10
320.0391802433064
 20
106.01122823418963
 10
318.4959851120056
 20
103.89480469426458
 10
317.11851937505577
 20
102.09294877386617
 10
316.36780585248226
 20
100.9662006229473
 10
314.5740766769035
 20
98.41349972675384
 10
314.3044827735586
 20
98.03330522449659
 10
314.1958031908607
 20
97.88776628707271
 10
312.33150012091505
 20
95.10379569323031
 10
311.2737766140763
 20
93.60871649568253
 10
310.3467529347757
 20
92.1736879762412
 10
308.3513871401621
 20
89.25495875636366
 10
308.34387733780505
 20
89.24311123902729
 10
308.3275053142645
 20
89.21870890973274
 10
306.3708858046942
 20
86.31035373649144
 10
305.4276449048412
 20
84.97875579320177
 10
304.3604509621743
 20
83.37949949724201
 10
302.504815290827
 20
80.73296426476085
 10
302.3147501643261
 20
80.44840188142489
 10
301.8676571640199
 20
79.80923390850062
 10
300.26469340738026
 20
77.51606354183184
 10
299.5810613285744
 20
76.57618063226458
 10
298.18560020678217
 20
74.58494009886252
 10
296.65809858974967
 20
72.48023044466872
 10
296.07525322778343
 20
71.65372741457432
 10
294.51286851010804
 20
69.5023642016138
 10
293.9473135551917
 20
68.72192277589315
 10
293.7346770159193
 20
68.43501906036568
 10
291.8150776255025
 20
65.79084495115129
 10
290.8117857820276
 20
64.43082322606303
 10
289.66912505582854
 20
62.85977363624476
 10
287.8889340061251
 20
60.43412812492738
 10
287.5211025572818
 20
59.9287633388515
 10
286.5211880828816
 20
58.55709161365051
 10
285.387396384117
 20
56.99775353000187
 10
284.9662754768677
 20
56.41536462531449
 10
283.27431551951844
 20
54.06701368272328
 10
282.04369129139224
 20
52.33593738252857
 10
281.1900430492255
 20
51.13636833101373
 10
279.21286766313875
 20
48.29748804386317
 10
279.14934553396944
 20
48.206045388253294
 10
279.1217845175226
 20
48.16522128359422
 10
277.1628390920565
 20
45.275746654061074
 10
276.1994542242421
 20
43.80133353584505
 10
275.24056236720344
 20
42.34557939408522
 10
273.5990354452629
 20
39.73775005644317
 10
273.39693699741946
 20
39.41592291049672
 10
273.27818240878497
 20
39.216659658868124
 10
271.633459937644
 20
36.486102894357465
 10
270.3560595510237
 20
34.23239735871196
 10
269.9673826314548
 20
33.55640362594577
 10
269.5148037441315
 20
32.71280692756266
 10
268.398077801908
 20
30.627331551033514
 10
267.43509452166035
 20
28.68688828596514
 10
266.93578659768895
 20
27.697897695570187
 10
266.501229821733
 20
26.761585448843977
 10
265.5784389655685
 20
24.76909857503321
 10
264.51407314145206
 20
22.252657521317758
 10
264.33581990470805
 20
21.839813799394417
 10
264.22086124433787
 20
21.546127548356463
 10
263.1925625941606
 20
18.911157743330765
 10
262.4724944125491
 20
16.863282502908998
 10
262.16434679648495
 20
15.982517000217326
 10
261.5936976912762
 20
14.16111660596734
 10
261.2207904841035
 20
13.000000000000002
 10
13.0
 20
13.000000000000002
  0
LWPOLYLINE
  5
8F
330
17
100
AcDbEntity
  8
GRABADO
100
AcDbPolyline
 90
248
 70
1
 10
36.770190038255166
 20
274.0195652173913
 10
36.5171333571929
 20
273.68149560095816
 10
34.25447944923841
 20
270.96725014595495
 10
33.594527019234064
 20
270.0645310892972
 10
31.908916317982328
 20
268.0365597119218
 10
30.67193039775708
 20
266.29838550460306
 10
29.681208571621973
 20
265.1058769150847
 10
27.749346299470165
 20
262.30289073413496
 10
27.64291829309023
 20
262.17524180994957
 10
27.433663209382892
 20
261.85904028098275
 10
25.582890388011144
 20
259.2488107403888
 10
24.830350989328007
 20
257.90765587678675
 10
23.735923903860474
 20
256.3193929464077
 10
22.593457002200147
 20
254.07662555900131
 10
22.197026023355455
 20
253.3930597055498
 10
21.911404016138608
 20
252.72477723438027
 10
20.70302946803544
 20
250.4653855232791
 10
20.0526139294862
 20
248.6018401210218
 10
19.579260072452662
 20
247.538702972702
 10
18.99208915178286
 20
245.51095704569533
 10
18.658910489119783
 20
244.6135198913416
 10
18.585448493696106
 20
244.20617589722022
 10
17.81600085904972
 20
241.68573488893304
 10
17.611321572325288
 20
240.3003926291645
 10
17.21437908690151
 20
238.75712091963538
 10
16.961861957886555
 20
236.71976892724666
 10
16.76533515280472
 20
235.82797877001227
 10
16.500992253950383
 20
233.32793885353811
 10
16.418925178390104
 20
232.8984342941888
 10
16.15953412982884
 20
230.05561394150197
 10
16.144997297695642
 20
229.9686155101592
 10
16.07262466028852
 20
229.0567473646653
 10
15.879500454442852
 20
227.04306667416114
 10
15.879500454442852
 20
226.84959854713287
 10
15.652391176604697
 20
224.11244645257776
 10
15.652396640089052
 20
223.69115633646416
 10
15.471327369495768
 20
221.1817253212383
 10
15.471334622574481
 20
220.57880577808956
 10
15.324880304866104
 20
218.2509453334697
 10
15.324880304866104
 20
217.5011216013818
 10
15.205248669205014
 20
215.32014444173848
 10
15.205257933544603
 20
214.45032312181482
 10
15.106977456560372
 20
212.38928812481697
 10
15.106997098186842
 20
211.42090282653794
 10
15.02606368264785
 20
209.45840413701941
 10
15.026073886255418
 20
208.40884740636346
 10
14.959565211095692
 20
206.5274997728212
 10
14.9595756783407
 20
205.41125042526872
 10
14.905336780934107
 20
203.59660196170836
 10
14.905358077091565
 20
202.42596093043153
 10
14.86173447717855
 20
200.66566844484947
 10
14.861756019538658
 20
199.45129745817658
 10
14.827527769202865
 20
197.7347363992754
 10
14.82756033043691
 20
196.48606199485712
 10
14.801845182454016
 20
194.80378562874384
 10
14.801866997778196
 20
193.52934441526997
 10
14.783986465482734
 20
191.872840494461
 10
14.784019288343352
 20
190.5804938437197
 10
14.773571490940135
 20
188.94188155234366
 10
14.773615324946556
 20
187.63910417432746
 10
14.770321487925013
 20
186.01093060420612
 10
14.770354377970055
 20
184.7048785443993
 10
14.774155073461227
 20
183.07996957629692
 10
14.774198898803625
 20
181.77777931188982
 10
14.785180670950878
 20
180.14902116208518
 10
14.78523535230624
 20
178.85790146324118
 10
14.803649342333644
 20
177.21807555993672
 10
14.803703843675073
 20
175.94547720923418
 10
14.83002388600363
 20
174.2871247126775
 10
14.83007810142678
 20
173.0409862278151
 10
14.86494317920464
 20
171.35619202259792
 10
14.865007717766881
 20
170.14508696757102
 10
14.909366363480434
 20
168.42525826830953
 10
14.90943013196835
 20
167.25871725288525
 10
14.964515919653135
 20
165.4943482735469
 10
14.96458900234184
 20
164.38313273461205
 10
15.03205671867902
 20
162.5634428222288
 10
15.032127892471133
 20
161.51998123633797
 10
15.114232387345718
 20
159.63257007929772
 10
15.114310565079617
 20
158.67154417641504
 10
15.21402349082446
 20
156.70171142523554
 10
15.214087877390787
 20
155.8407800448862
 10
15.335460715034605
 20
153.77089813433747
 10
15.33552759680284
 20
153.0317919845639
 10
15.484236951974236
 20
150.84012946878403
 10
15.484301080342975
 20
150.25026921286297
 10
15.668292652762466
 20
147.9094057949359
 10
15.668334895586154
 20
147.5041765392391
 10
15.899312129610806
 20
144.9787725236636
 10
15.899334337046973
 20
144.8053001925462
 10
16.072611850994008
 20
143.19026647405727
 10
16.151129889948233
 20
142.13181919463005
 10
16.16369436262318
 20
142.0533122277318
 10
16.38454609789694
 20
139.43616049169987
 10
16.442094500340414
 20
139.1235172254443
 10
16.667324773533206
 20
136.79029681380453
 10
16.794593456106668
 20
136.1939895422358
 10
17.015529536397036
 20
134.21047784021974
 10
17.25231609056168
 20
133.26486170370637
 10
17.453185654047065
 20
131.72099281053698
 10
17.866941971843104
 20
130.3362980841305
 10
18.017927427868955
 20
129.35991692283878
 10
18.73097358795463
 20
127.40857470780905
 10
18.77207509706856
 20
127.19036286792533
 10
18.991768769196643
 20
126.71656867631977
 10
19.446346698479616
 20
124.93769077859447
 10
19.645658190138192
 20
124.48347350478294
 10
20.170289926306506
 20
122.73808923981407
 10
20.79607675697332
 20
121.55684697006224
 10
21.091931256305585
 20
120.73871390281269
 10
21.91091490024855
 20
119.49998892533023
 10
22.15029071300372
 20
118.86665221229067
 10
22.286882025953798
 20
118.62918765718439
 10
23.06596823324559
 20
116.86050479076926
 10
23.86086860352472
 20
115.70292720315776
 10
24.193389922476463
 20
115.06862731456611
 10
24.82976228497018
 20
114.31523740205344
 10
25.34246961220869
 20
113.28432207109765
 10
25.703901004810476
 20
112.77346964529369
 10
26.451446625212096
 20
111.47258761444694
 10
27.751909882250985
 20
109.91642556386687
 10
27.778475679774438
 20
109.86738237839698
 10
27.79574329517473
 20
109.84359165901317
 10
28.89001487026035
 20
108.05720229956808
 10
29.841173194253937
 20
106.91643056893133
 10
30.18266067268292
 20
106.42973158457204
 10
30.671440385863733
 20
105.92816599356958
 10
31.432108204124912
 20
104.74542327704637
 10
32.06695821031013
 20
103.98572741431913
 10
32.70690666205152
 20
103.09890296525877
 10
33.594122273318945
 20
102.16622560915737
 10
34.04014773159214
 20
101.49964453043034
 10
34.41360221188671
 20
101.05500331226861
 10
35.307530389991086
 20
99.84479262200222
 10
36.5167848052768
 20
98.55444897329404
 10
36.69344524267418
 20
98.29916274707149
 10
36.84135445160855
 20
98.12426483835571
 10
37.95892246252831
 20
96.64167808218146
 10
39.30181413294801
 20
95.19576089103032
 10
39.362120745351845
 20
95.12270558921763
 10
39.43737380193293
 20
95.04941648851371
 10
40.646290502490004
 20
93.47469702997924
 10
41.764531398909575
 20
92.26463814069747
 10
42.03418925524525
 20
91.93962867994861
 10
42.36030119831165
 20
91.6154308171706
 10
43.36036571723339
 20
90.33453599675092
 10
44.28343397747325
 20
89.333563791545
 10
44.738085316774274
 20
88.7886274840376
 10
45.283178857991544
 20
88.23846925125571
 10
46.09501552514459
 20
87.21504161931111
 10
46.84433827689976
 20
86.402525608927
 10
47.46599442419584
 20
85.66181921566843
 10
48.206023696757285
 20
84.90651211977544
 10
48.84598734795168
 20
84.11194314747381
 10
49.43764745229592
 20
83.47151614744031
 10
50.212622112100036
 20
82.55387074659967
 10
51.128837527112196
 20
81.61103115967691
 10
51.610204014793624
 20
81.0221557329231
 10
52.05656906737805
 20
80.54053075011336
 10
52.97422609728413
 20
79.46100899052311
 10
54.051630649297465
 20
78.3457498770159
 10
54.38536904856193
 20
77.94337176743035
 10
54.69609243239731
 20
77.60956563277372
 10
55.74803227855399
 20
76.38044032494291
 10
56.97440019319046
 20
75.1058552957675
 10
57.16968382492027
 20
74.87379297765546
 10
57.35235378685218
 20
74.6786195958402
 10
58.531949979290786
 20
73.3100610566386
 10
59.89715579417819
 20
71.88764236848974
 10
59.961738214900066
 20
71.81200656508322
 10
60.02231846645901
 20
71.74769748996268
 10
61.32434431722373
 20
70.24822788499377
 10
62.69639800917568
 20
68.81701012369845
 10
62.75402509910995
 20
68.75154920029479
 10
62.81958188637468
 20
68.68413961340366
 10
64.12388104529101
 20
67.1935950201401
 10
65.37752705333342
 20
65.88589106179415
 10
65.54862182574045
 20
65.69154240109283
 10
65.74248642209913
 20
65.49057480901583
 10
66.9294832745054
 20
64.14508124553336
 10
68.07177321086553
 20
62.95479198423194
 10
68.35023586075235
 20
62.63861165621895
 10
68.6653723575981
 20
62.309627970339264
 10
69.74018254256242
 20
61.101717319237004
 10
70.77684722977354
 20
60.02371156242027
 10
71.15770661919811
 20
59.591588328231516
 10
71.58823973460649
 20
59.139402407274474
 10
72.55514144195962
 20
58.06266863654063
 10
73.49081742809332
 20
57.092648891082334
 10
73.9700431183288
 20
56.54947619796072
 10
74.51108465389244
 20
55.97818533323049
 10
75.37354787492167
 20
55.02712596521922
 10
76.2118498166293
 20
54.16160719602971
 10
76.78631365955955
 20
53.5113318248008
 10
77.4339167206599
 20
52.82431184595291
 10
78.19464114059977
 20
51.99432470249568
 10
78.93822885371837
 20
51.23058119220613
 10
79.6056254081653
 20
50.47625380337959
 10
80.35672938636331
 20
49.676118154573345
 10
81.01759628188168
 20
48.96344996552234
 10
81.66812410847898
 20
48.299575028223096
 10
82.4270291957975
 20
47.44329045399839
 10
83.2795198234675
 20
46.5317669772358
 10
83.84148785249994
 20
45.93358938754514
 10
84.39952214176472
 20
45.36859224291973
 10
85.24949228235346
 20
44.41140529106439
 10
86.20228373488418
 20
43.389203362071996
 10
86.6652200815488
 20
42.9036678017242
 10
87.13000889573017
 20
42.437640552520385
 10
88.07177171298586
 20
41.3793534705669
 10
89.12500910641644
 20
40.24589469538859
 10
89.48737542270277
 20
39.87229241030041
 10
89.85641705124043
 20
39.506722186128236
 10
90.8922444925182
 20
38.345498623289245
 10
92.0476953659106
 20
37.09847355471874
 10
92.30600279743201
 20
36.83754640965889
 10
92.57424978093597
 20
36.57585139619257
 10
93.70861453494885
 20
35.307539464884336
 10
94.9703186477448
 20
33.94213728526815
 10
95.11814086294784
 20
33.79654491309707
 10
95.27654617961409
 20
33.6450509415491
 10
96.51736556127324
 20
32.261953459137025
 10
97.89284691016921
 20
30.76953230224794
 10
97.91899536960234
 20
30.744607575230305
 10
97.95149169719001
 20
30.71435211453023
 10
99.31251207270637
 20
29.202740046227497
 10
100.62166204353845
 20
27.778476310829667
 10
100.7085667224166
 20
27.661598140853776
 10
100.82007297779668
 20
27.514217556460462
 10
102.08262047354053
 20
26.11844238639371
 10
103.2484304313461
 20
24.846588627420914
 10
103.45602102039217
 20
24.55156717402723
 10
103.7436770635429
 20
24.146399506767516
 10
104.8023050563913
 20
22.98361013936478
 10
105.77936598276804
 20
21.914183507814045
 10
106.12990575633664
 20
21.36580216469527
 10
106.66775075117876
 20
20.52185085885264
 10
107.39987668716252
 20
19.7264099212249
 10
108.07842159312334
 20
18.980414814208636
 10
108.60004286010482
 20
17.970755037739323
 10
109.57753355294511
 20
16.027921101856425
 10
109.58184269822172
 20
15.990418831993406
 10
109.6052651330005
 20
15.75921180536061
 10
110.02845023724372
 20
13.51251208600592
 10
110.10886987481578
 20
13.000000000000002
 10
13.0
 20
13.000000000000002
 10
13.0
 20
274.0195652173913
 10
36.770190038255166
 20
274.0195652173913
  0
LWPOLYLINE
  5
90
330
17
100
AcDbEntity
  8
GRABADO
100
AcDbPolyline
 90
455
 70
1
 10
357.9367127671082
 20
118.30307883268749
 10
357.7963431810967
 20
118.38988273923204
 10
357.57709048540084
 20
118.5325671553364
 10
356.031695732763
 20
119.55470811173716
 10
355.01468735003436
 20
120.26542062969938
 10
354.2638606216178
 20
120.70789568909696
 10
353.067223837661
 20
121.46310471575832
 10
352.4710617546127
 20
121.84520116356892
 10
352.0927120272261
 20
122.10583002640618
 10
350.62956069283746
 20
122.9237268676579
 10
349.1739893142369
 20
123.81410159855581
 10
348.7827584583736
 20
123.99550873790359
 10
348.02299561350424
 20
124.39107896235664
 10
346.86017252924603
 20
125.00400569695924
 10
346.25279432635216
 20
125.36397589847698
 10
344.87827360853635
 20
125.9391048812735
 10
343.33646229810756
 20
126.69224887413215
 10
342.85662382172336
 20
126.83237492345522
 10
341.5270729914318
 20
127.3182130300223
 10
340.7107724319091
 20
127.61855199244249
 10
340.416899322081
 20
127.7518680025708
 10
338.3812014800528
 20
128.2011226549038
 10
337.50478903235353
 20
128.47218831230884
 10
335.82091843023824
 20
128.5500866689937
 10
334.59595362643176
 20
128.71503688200048
 10
332.78399880276964
 20
128.4201803732699
 10
331.6898803791062
 20
128.33295149690434
 10
329.2616260295469
 20
127.3194391487744
 10
328.78709852833344
 20
127.12046868406675
 10
327.9248312116382
 20
126.45686758259308
 10
325.8772925202989
 20
124.93898031750916
 10
325.411499713722
 20
124.40805298161803
 10
322.96323511770595
 20
121.61796869334893
 10
322.8772363716948
 20
121.48539992171999
 10
322.7055284852868
 20
121.22386873719293
 10
320.88468177906964
 20
118.55271623000543
 10
320.0439775439884
 20
117.34602713728971
 10
319.0771615042196
 20
115.62689684086313
 10
317.71759052748985
 20
113.29207443257746
 10
317.35633284993116
 20
112.69369358595003
 10
317.12235337975756
 20
112.32152051602361
 10
315.7560253637027
 20
109.76583011049892
 10
314.2009234137203
 20
107.00375986137618
 10
314.1186766424552
 20
106.83681263545012
 10
314.02638329876964
 20
106.6607171268384
 10
312.5424792021866
 20
103.90327675668732
 10
311.27755300303784
 20
101.69285417451607
 10
310.9068845498508
 20
100.97327889190666
 10
310.4478759311703
 20
100.14047952918108
 10
309.2713389385763
 20
98.039876940026
 10
308.35381442485027
 20
96.50391004062308
 10
307.5871500148391
 20
95.10925227184103
 10
306.48579094814284
 20
93.23541515382296
 10
305.85785545186866
 20
92.17607476243197
 10
305.4298594879843
 20
91.49739609682291
 10
304.09929050598294
 20
89.24505887553289
 10
302.50689982916333
 20
86.71020690669248
 10
302.2707400562861
 20
86.31373417256823
 10
301.86141872731207
 20
85.6661841444708
 10
300.41405278544124
 20
83.38095546959775
 10
299.5827812183424
 20
82.13588283202888
 10
298.50144500350086
 20
80.4495389687127
 10
296.65961362187096
 20
77.71389220916267
 10
296.53175625026273
 20
77.51798559130627
 10
296.25520040460503
 20
77.11236210397927
 10
294.5343152239988
 20
74.58574162424672
 10
293.73568101021476
 20
73.45515455667139
 10
292.4910062170702
 20
71.6542946358096
 10
290.81251488248023
 20
69.29824673819951
 10
290.4085200657366
 20
68.72282173239337
 10
289.36561660279733
 20
67.27185835728757
 10
288.30347641169493
 20
65.79118827273568
 10
287.88907216302107
 20
65.22275168914291
 10
286.1803970365772
 20
62.85994339716446
 10
284.9660793103674
 20
61.19535336951027
 10
284.04441687547205
 20
59.92877035767174
 10
282.04316101629485
 20
57.18105475962886
 10
281.9092393360509
 20
56.99765507548852
 10
281.5526251643985
 20
56.50572658969397
 10
279.78793419302644
 20
54.066905230383014
 10
279.1206617702965
 20
53.13129711956023
 10
277.68874479005774
 20
51.13614209599673
 10
276.19803921135957
 20
49.01104816085345
 10
275.6270827582634
 20
48.20550597534331
 10
274.36328569936904
 20
46.36552613025478
 10
273.6156892245568
 20
45.27543691066557
 10
273.27631962573577
 20
44.76119955597968
 10
271.6610125381671
 20
42.345175083617484
 10
270.35400537584354
 20
40.296056985386045
 10
269.7826456565968
 20
39.41505125647457
 10
268.86952399362553
 20
37.92634874414028
 10
267.9865727753871
 20
36.48563729915479
 10
267.43286963274295
 20
35.523868243577205
 10
266.277987279979
 20
33.555857481586024
 10
264.87707518400515
 20
30.992929064683544
 10
264.6770709041361
 20
30.62680801068086
 10
264.5118901709313
 20
30.300036860347426
 10
263.1669785473
 20
27.69729839316895
 10
261.9470388954058
 20
25.125407960213174
 10
261.77784794986155
 20
24.76851678524686
 10
261.5909068843914
 20
24.336241694876456
 10
260.4830544233613
 20
21.839155885677965
 10
259.73543545253665
 20
19.978827817086728
 10
259.30661189502257
 20
18.910509728081838
 10
258.6696952822967
 20
17.14889325597353
 10
258.2346182788155
 20
15.981143683295716
 10
258.0159070885162
 20
15.326030329268646
 10
257.2419050291688
 20
13.000000000000002
 10
118.69604641861642
 20
13.000000000000002
 10
118.71262950255638
 20
13.567355283354438
 10
118.84494001672296
 20
16.024628103726755
 10
119.39353486482723
 20
17.203062026172805
 10
120.2438586158172
 20
18.978937043510104
 10
121.16100380582061
 20
20.024436170543332
 10
122.21518547953471
 20
21.910476204320453
 10
124.08364174577738
 20
24.22979344422839
 10
124.44268232882743
 20
24.84128835364418
 10
125.59384501482029
 20
26.357147504906592
 10
126.68011629248585
 20
27.778996434590614
 10
127.01041653925014
 20
28.13451076038166
 10
128.88191109164953
 20
30.708089612788648
 10
129.93178855836857
 20
31.945785898505683
 10
131.1054856585244
 20
33.63740138804306
 10
132.8533754641788
 20
35.86420991295231
 10
133.3183338984883
 20
36.566797388347034
 10
134.59789569942376
 20
38.317344664641844
 10
135.47001635263575
 20
39.500785035408846
 10
135.77693641710218
 20
39.88377994922045
 10
137.53339148781066
 20
42.42976517422388
 10
138.6983290437436
 20
44.0079329269621
 10
139.5714482745801
 20
45.35879534975636
 10
141.46249399888512
 20
48.13178305380573
 10
141.5728254958239
 20
48.291687039680596
 10
141.6209393731887
 20
48.35828440793057
 10
143.45423200747516
 20
51.220507391630996
 10
144.54236084851235
 20
52.86024449738422
 10
145.30938166049478
 20
54.1493839707745
 10
146.52285168344764
 20
56.13639742283668
 10
147.11012832392967
 20
57.08168382370168
 10
147.4645909299188
 20
57.639447622184505
 10
148.82781955405437
 20
60.01050462094049
 10
150.38619245849253
 20
62.67850970031059
 10
150.5252609976485
 20
62.93943428109794
 10
150.68943189073337
 20
63.244351911303895
 10
152.13704693103796
 20
65.87146977997585
 10
153.3084290083252
 20
67.97660934469071
 10
153.73003028504888
 20
68.80051142288438
 10
154.18124894199505
 20
69.67653692457489
 10
155.2662515641227
 20
71.73248514643481
 10
156.2307475460022
 20
73.54635394402202
 10
156.78045904440782
 20
74.66173536559442
 10
157.32545843579018
 20
75.76019779753796
 10
158.2574473331503
 20
77.59371045093388
 10
159.15321731017067
 20
79.34096755909285
 10
159.71955612765663
 20
80.52325960154403
 10
160.25365460227613
 20
81.62739086669853
 10
161.1581386101668
 20
83.4552720527099
 10
162.0758642280628
 20
85.28782180636883
 10
162.59363176504078
 20
86.38516691520731
 10
163.0724632686878
 20
87.38508586762336
 10
164.01616193904468
 20
89.31722705088465
 10
164.99872348825218
 20
91.29546660909723
 10
165.44808985873638
 20
92.24749006394855
 10
165.86849752669653
 20
93.12014717737675
 10
166.87639127581352
 20
95.17958590064289
 10
167.92178028090655
 20
97.26974008756616
 10
168.3248108841238
 20
98.11020746634046
 10
168.71748084125235
 20
98.90849737418093
 10
169.77893185146092
 20
101.04231008138888
 10
170.84501875874332
 20
103.13106090454359
 10
171.26089997845315
 20
103.97327390054461
 10
171.69343704746964
 20
104.82433774869502
 10
172.75822869740708
 20
106.9053423986009
 10
173.76841194103332
 20
108.82528085697206
 10
174.28793535397855
 20
109.83659253976283
 10
174.87587540456687
 20
110.94733469059655
 10
175.8425561325118
 20
112.76858499041184
 10
176.69192143772702
 20
114.32480762175902
 10
177.43149674654407
 20
115.70006996003296
 10
178.35365040534012
 20
117.36653822408043
 10
179.05350633995528
 20
118.63193140098875
 10
179.61549715423502
 20
119.62248002077936
 10
180.71046946108416
 20
121.56358749268973
 10
182.22182142220456
 20
124.17721368837513
 10
182.40519326622518
 20
124.49526972250518
 10
182.5390779658927
 20
124.72270283780259
 10
184.13599537096164
 20
127.42703127009247
 10
185.46241952505653
 20
129.63141380290364
 10
185.9047326995444
 20
130.35894439373334
 10
186.62468283646064
 20
131.5243038885426
 10
187.70998628826197
 20
133.29029278549694
 10
188.3859553211161
 20
134.37825298910664
 10
189.55340496494486
 20
136.22220153335337
 10
191.3094013900838
 20
138.97633430638484
 10
191.4257969626228
 20
139.1542082907032
 10
191.64901062433742
 20
139.49448551052748
 10
193.33795553410334
 20
142.0851302587981
 10
194.2327394177407
 20
143.46237865019526
 10
195.2777750127162
 20
145.01705703832846
 10
197.15620308085423
 20
147.83656403967262
 10
197.23427257880317
 20
147.94901581018493
 10
197.40396567865562
 20
148.19711588356927
 10
199.22695574856797
 20
150.87943385972338
 10
200.0791690727804
 20
152.160518776481
 10
201.2322894047869
 20
153.81124387230062
 10
203.0025532028798
 20
156.41769855577706
 10
203.2363166450158
 20
156.74306720075555
 10
203.76945746800627
 20
157.51173105072186
 10
205.25880478922585
 20
159.67288889783174
 10
205.92497405329885
 20
160.68136038315973
 10
207.27916304265742
 20
162.60451496952692
 10
208.8482468132668
 20
164.9471520509217
 10
209.27209829215215
 20
165.53615362651442
 10
210.1758793235438
 20
166.8670764676661
 10
211.25368921922478
 20
168.4652856716304
 10
211.7700764411238
 20
169.28316521312473
 10
213.21585414572954
 20
171.3967010303808
 10
214.69319254116002
 20
173.72315324643137
 10
215.11325845577167
 20
174.32812372996142
 10
215.8617336260112
 20
175.49941477399508
 10
216.97520627731882
 20
177.2565059918488
 10
217.61447339522147
 20
178.36263463722108
 10
218.7801338631861
 20
180.18771876834924
 10
220.38141543513922
 20
182.96174634897667
 10
220.4691831899535
 20
183.11553561366537
 10
220.53550075404235
 20
183.2454639984111
 10
222.13615781904838
 20
186.04657412787014
 10
223.45838969799215
 20
188.65780868285992
 10
223.64248905309233
 20
188.97776315335673
 10
223.8306617273998
 20
189.35007503675098
 10
225.09761461833017
 20
191.90474147003312
 10
226.34080535623326
 20
194.79607291241544
 10
226.35559897062126
 20
194.83144632486247
 10
226.37732154295296
 20
194.89233723586437
 10
227.56994464707444
 20
197.76233438056306
 10
228.21877884682996
 20
199.6074038079801
 10
228.58031402984344
 20
200.68850596026658
 10
229.29844783179402
 20
203.2838128335627
 10
229.41030850816685
 20
203.6195264093018
 10
229.45207397340198
 20
203.7715456507272
 10
230.13969784156595
 20
206.54512421421208
 10
230.34725638107608
 20
207.59598776849063
 10
230.65538337827962
 20
209.47058963511964
 10
230.8450906891991
 20
211.0214273400381
 10
230.95749690022345
 20
212.39594712660008
 10
231.04222895830807
 20
214.1447928627541
 10
231.04128054957104
 20
215.3212299880097
 10
230.99857149179087
 20
217.0261512135774
 10
230.8952446498206
 20
218.2464315157337
 10
230.75065657001113
 20
219.7021535883556
 10
230.4987405291242
 20
221.17159478256715
 10
230.31902751269172
 20
222.19336878047926
 10
229.81787075589367
 20
224.0966790955413
 10
229.71221161154608
 20
224.50827064811483
 10
229.2986318951686
 20
225.6469878844612
 10
229.00623893786153
 20
226.73118448408502
 10
228.90312775997273
 20
227.02194977645343
 10
228.25723078970802
 20
228.90428826396092
 10
227.79363787002703
 20
229.94795921555067
 10
227.37364772458525
 20
230.94197788253106
 10
226.37945169893837
 20
232.77085292777244
 10
226.3483254283603
 20
232.84701588199596
 10
226.33382977761067
 20
232.87576838909294
 10
225.3990152862166
 20
234.8197005522721
 10
224.8161487295318
 20
235.80256622016023
 10
224.329380278051
 20
236.67134634945552
 10
223.4601553719909
 20
237.92556614224415
 10
223.18147127912152
 20
238.45489699632455
 10
223.00679656263029
 20
238.7318660681046
 10
222.08188632769816
 20
240.27735993598134
 10
221.08749493892822
 20
241.65929362909614
 10
220.86716741719945
 20
241.98406421305765
 10
220.54052341476537
 20
242.38223775065788
 10
219.68811528035263
 20
243.73723813620987
 10
219.05712688232813
 20
244.5895340575662
 10
218.46408563162248
 20
245.4353920419835
 10
217.61814313754778
 20
246.45548287237267
 10
217.1966081022106
 20
247.0994666113228
 10
216.87813555936404
 20
247.51995177829934
 10
215.96411621787684
 20
248.78975066300757
 10
214.69570026770597
 20
250.30603952466674
 10
214.63667928009124
 20
250.3932785806836
 10
214.59253192645176
 20
250.45046327714576
 10
213.39629600633668
 20
252.07620223678842
 10
212.29813565841025
 20
253.37913095875098
 10
212.06617805273504
 20
253.66902062833054
 10
211.7750228781468
 20
253.9852702794832
 10
210.77908434229127
 20
255.31322432157958
 10
209.9331328990571
 20
256.3100232270471
 10
209.45023304091433
 20
256.90780178332386
 10
208.8522956019136
 20
257.55946194359257
 10
208.1247764355484
 20
258.51307562594985
 10
207.50295281625844
 20
259.24090768505056
 10
206.7961014251661
 20
260.1082811699435
 10
205.92954086934222
 20
261.0548835902889
 10
205.4418119347867
 20
261.68424823188474
 10
205.02249776549203
 20
262.17182262209957
 10
204.11253329194753
 20
263.2792360906699
 10
203.0068087297532
 20
264.48868982102897
 10
202.73622174154062
 20
264.83273872232945
 10
202.5024581202428
 20
265.1027401875196
 10
201.4057068311811
 20
266.4268449394909
 10
200.0840787728695
 20
267.8731199033914
 10
200.0124117081113
 20
267.96296827045865
 10
199.95078561889852
 20
268.03365619507053
 10
198.68013311918563
 20
269.55563395259713
 10
197.39319227245198
 20
270.9634732506588
 10
197.28598676190842
 20
271.0862997295864
 10
197.16238373461763
 20
271.21539639718526
 10
195.9392244264331
 20
272.669033863629
 10
194.7033845400891
 20
274.0195652173913
 10
251.25243324740467
 20
274.0195652173913
 10
251.25647676537187
 20
272.37041299462396
 10
251.33518504201248
 20
271.01574436213394
 10
251.34024714618005
 20
269.52349875722143
 10
251.42984030180702
 20
268.0848458270608
 10
251.43637071658875
 20
266.6890082837376
 10
251.53928475306424
 20
265.1539649948729
 10
251.54755338387292
 20
263.8696547688508
 10
251.6669773824517
 20
262.22313490310796
 10
251.6771782176512
 20
261.068858507841
 10
251.81752186314745
 20
259.29237385800656
 10
251.82964571235388
 20
258.29105961417497
 10
251.99693707455324
 20
256.3617246915428
 10
252.01050744677778
 20
255.5418535304989
 10
252.21327420323018
 20
253.431174873659
 10
252.22690692832094
 20
252.82842288237217
 10
252.4773951036363
 20
250.50078704218555
 10
252.48791690616605
 20
250.15993598682925
 10
252.80395210989698
 20
247.57063743873277
 10
252.8049097504271
 20
247.54788847461043
 10
252.8278988676576
 20
247.38415984716283
 10
253.10755302918113
 20
244.9259102248448
 10
253.16516212462767
 20
244.64581387489568
 10
253.46465269678663
 20
242.35457565717255
 10
253.6109153456977
 20
241.7163018368204
 10
253.8943177331321
 20
239.8564583130257
 10
254.17047457670495
 20
238.78718503995853
 10
254.412032900182
 20
237.44724201322393
 10
254.88040879161056
 20
235.858594964881
 10
255.0350431863428
 20
235.14440489856636
 10
255.74814843906893
 20
233.0545698198736
 10
255.77415037184758
 20
232.95861394405844
 10
255.78375693056876
 20
232.93351582741067
 10
256.47181107711856
 20
230.73096861594908
 10
256.7854549335903
 20
230.0055358460367
 10
257.2892601892867
 20
228.6243631672493
 10
258.05312978645054
 20
227.07813534598628
 10
258.23768194257417
 20
226.6501891814069
 10
258.66611348809573
 20
225.89998977372173
 10
259.21351411742097
 20
224.69893322246327
 10
259.5293404084013
 20
224.1517370170142
 10
260.2381487386653
 20
222.80096846636957
 10
261.26755561871863
 20
221.22446602377028
 10
261.38706217342553
 20
221.0285307608521
 10
261.5843979629013
 20
220.7636852115328
 10
262.5204408605369
 20
219.23348261538456
 10
263.2027327514961
 20
218.29682030032433
 10
263.7376107526462
 20
217.52893955859477
 10
264.50503329943706
 20
216.58815445596065
 10
265.0055607919243
 20
215.86884651613303
 10
265.40611600489785
 20
215.368701152618
 10
266.2917041519865
 20
214.2328803079469
 10
267.4257602617609
 20
212.94857496321055
 10
267.64890530643174
 20
212.66246773975197
 10
267.84285672857953
 20
212.4402165343428
 10
269.0031683025343
 20
211.09422958171848
 10
270.3464970727925
 20
209.67880058194223
 10
270.42463589831175
 20
209.58860808439997
 10
270.4975681838383
 20
209.5114844653588
 10
271.84544360222645
 20
208.08648854497667
 10
273.2672571532701
 20
206.68636225650448
 10
273.31840702104654
 20
206.6329351817084
 10
273.36985509542774
 20
206.58256258718785
 10
274.8034703827735
 20
205.19463912788083
 10
276.18797919234015
 20
203.91648223130807
 10
276.32309863796735
 20
203.7884282227839
 10
276.4716616613666
 20
203.6535100431182
 10
277.8694192227659
 20
202.41086395124697
 10
279.10869549395534
 20
201.33596341286227
 10
279.4370777151857
 20
201.05340279856827
 10
279.82746564881637
 20
200.7243038046415
 10
281.04059728823506
 20
199.73248496638502
 10
282.02935265987185
 20
198.92543824882358
 10
282.6631776263707
 20
198.43079818809395
 10
283.4757900630599
 20
197.79499127033387
 10
284.31855446143317
 20
197.16108504614996
 10
284.9499691516228
 20
196.6754292904648
 10
286.0088022338997
 20
195.9280135238372
 10
287.4730966471409
 20
194.86556005247655
 10
287.709025607626
 20
194.7023839228904
 10
287.87056150892016
 20
194.5851611532646
 10
289.48681172138583
 20
193.55797676066697
 10
290.79056619045093
 20
192.6822086824182
 10
291.2656851522445
 20
192.4163843211893
 10
292.0669607790024
 20
191.93805674679334
 10
293.11761255687196
 20
191.34118327985013
 10
293.7102915986447
 20
190.97363487159973
 10
295.03386086746485
 20
190.33859566439733
 10
296.62783567232844
 20
189.49016208335254
 10
296.9741753527372
 20
189.36244799012556
 10
297.8091552704673
 20
189.0115200376764
 10
299.05433533441675
 20
188.51411491210663
 10
299.54586814244846
 20
188.2847514402248
 10
301.27163576706033
 20
187.81755342955546
 10
302.45925840648414
 20
187.41922438146264
 10
303.64896331231347
 20
187.28401939440226
 10
305.36952019361723
 20
186.98554046800882
 10
306.3306649308048
 20
187.05710730776468
 10
308.27704481306307
 20
187.1001491816655
 10
309.704886932027
 20
187.5234334831936
 10
311.1837095580618
 20
187.90012718553646
 10
313.17759223653934
 20
189.00767404390277
 10
314.0915960734591
 20
189.51599908304271
 10
316.9267050325898
 20
191.93067217178117
 10
317.0054109003399
 20
191.99588175568067
 10
319.58445230018634
 20
194.85531066144665
 10
319.92321309286666
 20
195.2119061035365
 10
321.8848500956154
 20
197.78200567073065
 10
322.8432713418675
 20
198.95254201226373
 10
324.05377368591195
 20
200.71034041262098
 10
325.76464346300673
 20
202.99817618972372
 10
326.181255022434
 20
203.63986636956324
 10
327.21246577594087
 20
205.09262464549693
 10
328.26322465599964
 20
206.5735097837144
 10
328.68854343591084
 20
207.12255361891997
 10
330.3327076614948
 20
209.50385944463673
 10
331.6110942756079
 20
211.1984676254404
 10
332.45682763429
 20
212.4346930725642
 10
334.53391469883775
 20
215.218349416302
 10
334.63515163075044
 20
215.36585928259095
 10
334.9366677333131
 20
215.77003384872094
 10
336.81820656087
 20
218.29921531787582
 10
337.458569634769
 20
219.09478796956793
 10
339.0587101114181
 20
221.2304755132281
 10
340.381655897927
 20
222.87007872537043
 10
341.36147356095955
 20
224.1618766709239
 10
343.30481394706754
 20
226.55329200515106
 10
343.72098346253046
 20
227.09335352061706
 10
345.6621901906967
 20
229.4573831764362
 10
346.12837231041493
 20
230.02616776914883
 10
346.22939468695887
 20
230.1423459045139
 10
348.56705148910027
 20
232.95758376530927
 10
349.1525636411592
 20
233.62577159711424
 10
351.0597701717371
 20
235.88904742548937
 10
352.07579281225264
 20
237.03763558206865
 10
353.6023245509579
 20
238.8205227119307
 10
354.999029327652
 20
240.38263478626195
 10
356.1914560834173
 20
241.75204612224866
 10
357.92231326094964
 20
243.6652293311978
 10
358.82478081714106
 20
244.68358935561244
 10
360.9760869565217
 20
247.03174760347275
 10
360.9760869565217
 20
116.18644642364113
 10
359.5125125402186
 20
117.18418463605572
 10
357.9367127671082
 20
118.30307883268749
  0
TEXT
  5
91
330
17
100
AcDbEntity
  8
GRABADO
100
AcDbText
 10
275.9287866367988
 20
143.82508749709467
 30
0.0
 40
6.0
  1
17
 72
1
 11
275.9287866367988
 21
143.82508749709467
 31
0.0
100
AcDbText
 73
2
  0
LWPOLYLINE
  5
92
330
17
100
AcDbEntity
  8
CORTE
100
AcDbPolyline
 90
455
 70
1
 10
110.09860506938932
 20
428.11535353719063
 10
110.42800100808117
 20
426.3749426868043
 10
110.75108203957117
 20
424.4695063075771
 10
110.78895869476108
 20
424.30887039048486
 10
110.843100644484
 20
424.05294220436787
 10
111.21309695208484
 20
422.23742029356805
 10
111.42968083511059
 20
421.01573712869185
 10
111.64771839126408
 20
420.17194534252644
 10
111.95985495185167
 20
418.79178193400776
 10
112.11122221414726
 20
418.10004869308386
 10
112.19446343575723
 20
417.64822259890354
 10
112.65072726344542
 20
416.035277965695
 10
113.05038164573992
 20
414.37644356337046
 10
113.19874941854178
 20
413.97152735379166
 10
113.45627249009627
 20
413.1545835059447
 10
113.84510792788748
 20
411.8989387673374
 10
114.02005180338031
 20
411.214920150808
 10
114.58530712003696
 20
409.8363096265667
 10
115.14297912839098
 20
408.2135311690921
 10
115.38319208921925
 20
407.7751500488694
 10
115.97978707753825
 20
406.4914762211256
 10
116.34462702168125
 20
405.7018928430189
 10
116.45815803564662
 20
405.3998245194486
 10
117.57994277304729
 20
403.64269775975936
 10
118.00798759343385
 20
402.831308210377
 10
119.14358145857508
 20
401.5855494327255
 10
119.89312496388627
 20
400.6027310990638
 10
121.3828655437018
 20
399.52998059284903
 10
122.21820423048868
 20
398.81800216604887
 10
124.65190080168682
 20
397.8176285032087
 10
125.12813578050495
 20
397.62278025409177
 10
126.20708768619065
 20
397.482302026116
 10
128.72822455779598
 20
397.1077819109457
 10
129.43301212948037
 20
397.1538389783131
 10
133.1370841477794
 20
397.39554200064833
 10
133.29163472164984
 20
397.4284719815627
 10
133.59798100658296
 20
397.49198664477126
 10
136.77430411146602
 20
398.09324364271964
 10
138.2220298173074
 20
398.3520340173646
 10
140.1212806855343
 20
398.8840005298306
 10
142.73361130044938
 20
399.5736074304457
 10
143.41217820838924
 20
399.7412788312707
 10
143.84079277992745
 20
399.83899646277246
 10
146.61407860176487
 20
400.68000267365477
 10
149.6667803393021
 20
401.5334581426541
 10
149.84298710454695
 20
401.5933504085145
 10
150.03276668200127
 20
401.6526074876119
 10
153.03185011577702
 20
402.55313362273887
 10
155.4892928060368
 20
403.2217005267614
 10
156.26021154476464
 20
403.4684149118483
 10
157.1736577284078
 20
403.7327248817073
 10
159.4909453495574
 20
404.3861379312969
 10
161.22582576536385
 20
404.8234427359822
 10
162.7541113343174
 20
405.2675010985092
 10
164.85789273188928
 20
405.8137255669166
 10
166.05097695378984
 20
406.1187748936908
 10
166.83351408887174
 20
406.29603433200646
 10
169.36701136157447
 20
406.9478229046899
 10
172.28541262392295
 20
407.6142436752836
 10
172.7327513596227
 20
407.7276020572935
 10
173.4800722630498
 20
407.89605518591685
 10
176.1194152279698
 20
408.4885136061262
 10
177.5876122951677
 20
408.78111514911785
 10
179.54465764658795
 20
409.208920160024
 10
182.78142348094948
 20
409.84094307488016
 10
183.01035919340396
 20
409.88906115835687
 10
183.49273282574273
 20
409.98032576301296
 10
186.49617288129653
 20
410.5500666568666
 10
187.86033833175514
 20
410.7847927708166
 10
190.01385658036804
 20
411.17807504622056
 10
192.86670663041988
 20
411.65717988656957
 10
193.5592610285734
 20
411.77839933575575
 10
195.3226911811313
 20
412.06694126677905
 10
197.12072957031725
 20
412.3628865925665
 10
197.81570298764
 20
412.47180390110964
 10
200.69467652229505
 20
412.9343458982582
 10
202.7303717174628
 20
413.25273649598995
 10
204.2776949117489
 20
413.4966321749173
 10
207.63572483281055
 20
414.02445891815194
 10
207.8601049213821
 20
414.0594451502267
 10
208.46011518858884
 20
414.1551268193482
 10
211.4324472624161
 20
414.6318089880637
 10
212.56585495712315
 20
414.8215509727485
 10
214.98916081062626
 20
415.21982041260566
 10
217.54591716627462
 20
415.6684007213538
 10
218.51924868792722
 20
415.8342778835133
 10
220.71395038402366
 20
416.2417006388342
 10
222.0133904002245
 20
416.48387958117314
 10
222.61698166551722
 20
416.60752975715604
 10
225.46756354875563
 20
417.1737224497575
 10
227.8407024790055
 20
417.69847412493067
 10
228.86767993615925
 20
417.917426918132
 10
230.5660260977356
 20
418.3244240398377
 10
232.2091037240912
 20
418.7188200784467
 10
233.28070439215358
 20
419.00736625265296
 10
235.48892329051765
 20
419.582334864793
 10
238.2917817967145
 20
420.4040044851711
 10
238.69209285929665
 20
420.5214667826298
 10
239.0399553721641
 20
420.63572846235616
 10
241.8313655211273
 20
421.5251463529869
 10
244.5125942872319
 20
422.48111991810595
 10
244.88459052210592
 20
422.6138440231606
 10
245.322442464921
 20
422.78732137582335
 10
247.87151876155858
 20
423.76965769696375
 10
249.71561579810495
 20
424.55646184548243
 10
250.77425480875527
 20
425.00865276523126
 10
252.47027381794183
 20
425.80393566260017
 10
253.6036433590099
 20
426.32201340466844
 10
254.22153061987032
 20
426.6305963339649
 10
256.4135845437586
 20
427.72804604821937
 10
354.38030067259285
 20
329.76132991938516
 10
353.967393893284
 20
329.37187516229017
 10
352.1362819569839
 20
327.72787854956897
 10
350.9150882020234
 20
327.28251506904564
 10
349.05808524419547
 20
326.62805149227563
 10
347.67028613856166
 20
326.5372915530099
 10
345.5912354310027
 20
325.9490788656226
 10
342.63003238673025
 20
325.63027201377156
 10
341.9437601586254
 20
325.4517598476584
 10
340.0578909319296
 20
325.1938805039915
 10
338.2843821252817
 20
324.95659127063465
 10
337.7994379903913
 20
324.9387622243735
 10
334.65629644298076
 20
324.4423136548735
 10
333.03873753016876
 20
324.30950569432554
 10
331.01265556777753
 20
323.94328208909263
 10
328.2021194250651
 20
323.60463541507033
 10
327.3765397949667
 20
323.43660630871216
 10
325.23392911872224
 20
323.10356928524516
 10
323.7804279795239
 20
322.88343300184494
 10
323.29258441994136
 20
322.82963995999523
 10
320.2502997111932
 20
322.27135783394203
 10
318.31063134592307
 20
321.97915995958994
 10
316.7380388374063
 20
321.6413445088909
 10
313.44006917253614
 20
321.0177173544006
 10
313.24898383012135
 20
320.9826643113136
 10
313.16787073046885
 20
320.96959450956865
 10
309.84763979582294
 20
320.2420308821294
 10
307.9187472866796
 20
319.85198493759015
 10
306.46482240568605
 20
319.4827912915246
 10
304.20173883742746
 20
318.9358134872591
 10
303.11805311829505
 20
318.68266235796136
 10
302.4730116417155
 20
318.5389067061258
 10
299.8324729548815
 20
317.82626442815945
 10
296.8439724226731
 20
317.04163599264234
 10
296.5611345751332
 20
316.9554707592762
 10
296.22943889933754
 20
316.855947787028
 10
293.34816762787625
 20
316.02191333866074
 10
291.03131695611205
 20
315.3616470873169
 10
290.15061308785937
 20
315.0771774625207
 10
289.2121097429972
 20
314.77679366190756
 10
286.9911221018399
 20
314.09023144417364
 10
285.0265215256692
 20
313.4896341664312
 10
283.849123030647
 20
313.08964512784667
 10
282.687020030752
 20
312.6982876587298
 10
280.73151513083053
 20
312.06081409743604
 10
278.86261275604045
 20
311.4587217729149
 10
277.6261440171869
 20
311.0231770706483
 10
276.4677406590512
 20
310.62010301896225
 10
274.53566670176497
 20
309.9671626125846
 10
272.5909283364082
 20
309.32028426259353
 10
271.4488712321712
 20
308.91046103130736
 10
270.4032367570063
 20
308.54199656269157
 10
268.36971089490635
 20
307.84306215900375
 10
266.27610835410496
 20
307.13901148695794
 10
265.28517610552444
 20
306.7835792539905
 10
264.3708412300912
 20
306.4637906043122
 10
262.2019096387154
 20
305.7202360223687
 10
259.98474578493733
 20
304.9814754775489
 10
259.10545992947937
 20
304.67216096721216
 10
258.26332413283876
 20
304.3853443494792
 10
256.00393149057413
 20
303.6270701216462
 10
253.77312433783894
 20
302.90393753185816
 10
252.88351738653822
 20
302.6024754418073
 10
251.97587447367223
 20
302.3065323181736
 10
249.75146057782146
 20
301.587961214766
 10
247.67955165263723
 20
300.9446671332
 10
246.59708777556395
 20
300.59692031268423
 10
245.3959380718575
 20
300.2272434023821
 10
243.42457313664787
 20
299.6229714631169
 10
241.72356559396408
 20
299.1231478544776
 10
240.22814955259744
 20
298.67364924523633
 10
238.3977174370266
 20
298.14733934052686
 10
237.0080764635475
 20
297.74744412148783
 10
235.91026530165684
 20
297.44440799108065
 10
233.76343270187263
 20
296.84610007806543
 10
230.8466326749489
 20
296.06667449207737
 10
230.49206962203257
 20
295.9714383879323
 10
230.23657934490737
 20
295.9052896688712
 10
227.19513924576054
 20
295.1222318219625
 10
224.69848189439043
 20
294.5014214987727
 10
223.87127743500557
 20
294.2997423295649
 10
222.53816220977617
 20
293.98479035219475
 10
220.52199405482568
 20
293.5034730580721
 10
219.2747077301889
 20
293.21215130744184
 10
217.1453276505479
 20
292.733794347491
 10
213.9561847104941
 20
292.0280053673474
 10
213.74810471134353
 20
291.9845335654817
 10
213.3496564878706
 20
291.90175712971256
 10
210.3235296199771
 20
291.26415905931105
 10
208.71696019122547
 20
290.92300513419224
 10
206.87868480462387
 20
290.56263325916757
 10
203.55674305941892
 20
289.8971899638657
 10
203.4220241785297
 20
289.87287802578356
 10
203.1265997926005
 20
289.8174359231068
 10
199.9408659218926
 20
289.20979933334047
 10
198.43239626940934
 20
288.9065413219935
 10
196.44977815399463
 20
288.55468161915053
 10
193.35497083633246
 20
287.9634053737294
 10
192.9596047459548
 20
287.89863071360753
 10
192.0390898339267
 20
287.73209078410736
 10
189.4577928746444
 20
287.25704900557776
 10
188.27364304469165
 20
287.01500478371315
 10
185.9562111780178
 20
286.61268535180653
 10
183.19020683745686
 20
286.0657005601409
 10
182.4740115742899
 20
285.9489218068455
 10
180.89383731207067
 20
285.64688693663584
 10
179.00160606012676
 20
285.2789090568239
 10
178.05813698381954
 20
285.0657217931624
 10
175.54132225614205
 20
284.5935455035151
 10
172.85163612055007
 20
283.99313136295535
 10
172.12682593246106
 20
283.8623840884008
 10
170.76934622405562
 20
283.56340811684765
 10
168.7395510463426
 20
283.1083010639453
 10
167.5053698662766
 20
282.77818011199645
 10
165.390594079461
 20
282.31189716809865
 10
162.29678330788377
 20
281.48264051275555
 10
162.12597670135003
 20
281.4359562554192
 10
161.98720986014868
 20
281.3909766127759
 10
158.87469042773793
 20
280.542128110405
 10
156.09330963873387
 20
279.63066557720526
 10
155.7368897605712
 20
279.53460150384944
 10
155.34056732907
 20
279.4043954204218
 10
152.6382743898058
 20
278.49384444239917
 10
149.71472571915976
 20
277.3284329739123
 10
149.67925227429274
 20
277.3138808591493
 10
149.62083572001015
 20
277.2861846612678
 10
146.74812939268358
 20
276.10010210258935
 10
144.98467322628417
 20
275.2542360612157
 10
143.96457458370068
 20
274.74542537772487
 10
141.6216182131744
 20
273.4180635695157
 10
141.30513542442154
 20
273.2597756663855
 10
141.1681089442516
 20
273.18181447358995
 10
138.72066923377335
 20
271.70682176328063
 10
137.8308304376604
 20
271.1105150687292
 10
136.28740805655283
 20
270.0028500660002
 10
135.05665687289334
 20
269.0403855343244
 10
134.0052414168775
 20
268.14793646643415
 10
132.7087061247383
 20
266.971230400006
 10
131.87751008207974
 20
266.13869310484887
 10
130.70214858646634
 20
264.9029318804866
 10
129.91234322049908
 20
263.96700029324774
 10
128.9852314831372
 20
262.83541013246185
 10
128.12431119095615
 20
261.61822675867916
 10
127.52888416077926
 20
260.7686471433285
 10
126.53741187146599
 20
259.0684321716765
 10
126.32108499102466
 20
258.70268069631015
 10
125.8083353333619
 20
257.6050409946239
 10
125.24844560851156
 20
256.6316451840075
 10
125.11575411164543
 20
256.35313246093875
 10
124.2414579302625
 20
254.56540002431177
 10
123.83128082028244
 20
253.4996035198987
 10
123.42538136010805
 20
252.49974829997745
 10
122.83517416523861
 20
250.50353560198084
 10
122.80332842083075
 20
250.42767066357538
 10
122.79324730102914
 20
250.39708959788823
 10
122.0796933522947
 20
248.36150831712138
 10
121.79685126829426
 20
247.25436844360354
 10
121.52672822041913
 20
246.29585084990896
 10
121.25449572529126
 20
244.79434870387843
 10
121.07726170075651
 20
244.22299585559017
 10
121.00492866845465
 20
243.90363547022275
 10
120.56610977330618
 20
242.1567959768555
 10
120.29207598190723
 20
240.47648039715114
 10
120.2182235843546
 20
240.0910378302056
 10
120.16764456498348
 20
239.5785144325244
 10
119.81225817603112
 20
238.01764089920835
 10
119.65577012555556
 20
236.96880049854656
 10
119.47700169875063
 20
235.95134509194696
 10
119.35386022921031
 20
234.63186027429845
 10
119.19656524241944
 20
233.87842472351832
 10
119.1244314241305
 20
233.35590271589234
 10
118.87285729651146
 20
231.8117100392708
 10
118.6975846799256
 20
229.84262638322298
 10
118.67763149240645
 20
229.73920491455442
 10
118.66841269888798
 20
229.66755233477602
 10
118.36470818709776
 20
227.67211476096122
 10
118.21991508124424
 20
225.9742883974098
 10
118.17895092600938
 20
225.60528665033343
 10
118.16120645146034
 20
225.17578657912662
 10
117.92643603553833
 20
223.53254637850773
 10
117.81977077206838
 20
222.22952511090693
 10
117.73853926560398
 20
221.46537007578894
 10
117.70055156509156
 20
220.58177113959107
 10
117.54067859964445
 20
219.39303070218398
 10
117.46571931299124
 20
218.43868001972697
 10
117.35221305193463
 20
217.32553493480526
 10
117.29561490675266
 20
216.04343509895955
 10
117.19546333784623
 20
215.25353065604298
 10
117.14719607274836
 20
214.61226360583333
 10
117.00757854942711
 20
213.18576198274775
 10
116.93423095121099
 20
211.54868371242736
 10
116.88228553430756
 20
211.11407050699205
 10
116.85666150915571
 20
210.75785479821138
 10
116.69589833380607
 20
209.04605107532052
 10
116.60775966161029
 20
207.08884807864763
 10
116.59490353945674
 20
206.97463942153757
 10
116.58849585419605
 20
206.88107928511613
 10
116.4107820601125
 20
204.90639149287534
 10
116.32529394534353
 20
203.00089417868372
 10
116.31424825267047
 20
202.83823699903883
 10
116.31036366235523
 20
202.6595513311786
 10
116.14739099373477
 20
200.76677017998065
 10
116.06629187937901
 20
198.93792953743565
 10
76.08007606878786
 20
238.92414534802685
 10
77.24334358974099
 20
240.09313126692894
 10
78.14558380988737
 20
241.10668179937147
 10
79.19718134813283
 20
242.16543823398484
 10
80.15111066293159
 20
243.24607140456703
 10
81.13349915467401
 20
244.2376952974618
 10
82.1461674605741
 20
245.39590602950403
 10
83.0484651256256
 20
246.3098973043874
 10
84.12828496881932
 20
247.55860818604407
 10
84.93726855553277
 20
248.3820179322442
 10
86.0941949546777
 20
249.7374202182428
 10
86.79365819060169
 20
250.45402916614273
 10
88.03961114092985
 20
251.93656782976103
 10
88.60975189638006
 20
252.52589998965766
 10
89.9588493390506
 20
254.1617529293016
 10
90.37541956710547
 20
254.5976027420719
 10
91.84418476646178
 20
256.42061171617325
 10
92.07776282115967
 20
256.66906984670936
 10
93.68520274738339
 20
258.7234510442367
 10
93.70061154006643
 20
258.7402141451454
 10
93.80012940212183
 20
258.8722435285751
 10
95.34062902591185
 20
260.80823386036576
 10
95.4979512722982
 20
261.04702767084865
 10
96.90632953888897
 20
262.8789495663895
 10
97.2542339746345
 20
263.4337006238937
 10
98.3689461922963
 20
264.9492043414741
 10
98.92976419786223
 20
265.9005671005629
 10
99.70643946988716
 20
267.0188574297532
 10
100.49859080170901
 20
268.47339229952195
 10
100.89425641153636
 20
269.0877439675889
 10
101.86775140733911
 20
271.0697220831965
 10
101.91721631483094
 20
271.15595927667187
 10
101.92817050049203
 20
271.1804991879641
 10
102.99907881675117
 20
273.22446300992095
 10
103.2902575498625
 20
273.9592011386096
 10
103.91065000432226
 20
275.29208181847014
 10
104.4638608098999
 20
276.9255673682413
 10
104.63596636377915
 20
277.3586690842758
 10
104.86349060108293
 20
278.1920870238046
 10
105.32569513604463
 20
279.42843295280966
 10
105.48929837152801
 20
280.03868201235144
 10
105.94323279661117
 20
281.49502279121697
 10
106.3300877788445
 20
283.33767894442184
 10
106.384131036698
 20
283.56072999273437
 10
106.43186764567972
 20
283.88754155153424
 10
106.8520019976057
 20
285.6314404642595
 10
107.0318690494208
 20
286.7762139617664
 10
107.19662686731962
 20
287.69740350310667
 10
107.31921270616019
 20
288.90528871568984
 10
107.4739138440656
 20
289.76784262181127
 10
107.54433471485291
 20
290.40473410726497
 10
107.72127595218805
 20
291.83408611288974
 10
107.82751820509768
 20
293.5441258967345
 10
107.87203918867678
 20
293.9042216288634
 10
107.89205015732702
 20
294.1985213291566
 10
108.02334247668372
 20
295.9707420129785
 10
108.07432503790099
 20
297.92147833982096
 10
108.08284827112661
 20
298.0405065598439
 10
108.08581199147702
 20
298.1466121075208
 10
108.1403444214055
 20
300.10732823452304
 10
108.12500921097589
 20
302.1027410311452
 10
108.12661943950158
 20
302.176688096394
 10
108.12585896039909
 20
302.2486861818394
 10
108.0935499589481
 20
304.2438153629781
 10
108.01834780007798
 20
306.12660433982217
 10
108.01335178159039
 20
306.3126960738809
 10
108.00370342005814
 20
306.51314755490705
 10
107.89402304811503
 20
308.38019488320435
 10
107.7777918527863
 20
310.0165649981189
 10
107.74539108379676
 20
310.4485668200355
 10
107.70205325892036
 20
310.9573209054864
 10
107.54556147645516
 20
312.5164563404311
 10
107.41707405495825
 20
313.7862801753721
 10
107.31865546424999
 20
314.58422544845723
 10
107.193635082864
 20
315.60841259599016
 10
107.0459500515885
 20
316.6525764067793
 10
106.94288292058187
 20
317.44246449412043
 10
106.72267762490728
 20
318.71967530369125
 10
106.4385331699452
 20
320.50635586724195
 10
106.387089149866
 20
320.7885657828374
 10
106.35575503396771
 20
320.98567792935944
 10
105.93922259817381
 20
322.85486846422293
 10
105.63659051897204
 20
324.3960236371775
 10
105.48859688764705
 20
324.9199496853616
 10
105.26023812985088
 20
325.82476578612545
 10
104.93936840903947
 20
326.98974205890863
 10
104.78017701142304
 20
327.66872540030147
 10
104.29331273580235
 20
329.05367073538645
 10
103.76613548078589
 20
330.7807142674892
 10
103.61154384554882
 20
331.11592090547407
 10
103.26926741845202
 20
331.9544844023403
 10
102.74051068872231
 20
333.1866782066446
 10
102.55512897331161
 20
333.69642885470364
 10
101.66518586469752
 20
335.24708972632004
 10
101.10707101392026
 20
336.3685269191973
 10
100.3614269705981
 20
337.30537968892077
 10
99.3558660053051
 20
338.7330536000019
 10
98.62562864623854
 20
339.36208016366953
 10
97.21889503181839
 20
340.70794337626916
 10
95.90995098705488
 20
341.418273021072
 10
94.5979028086567
 20
342.19759585675644
 10
92.40486095178218
 20
342.8243299255656
 10
91.39912255844294
 20
343.1111881544593
 10
87.68696607264323
 20
343.4084812094677
 10
87.58520248086424
 20
343.4180245232993
 10
83.73962324848404
 20
343.2197606165036
 10
83.24793213953771
 20
343.20714961496606
 10
80.04351048038004
 20
342.77690160954853
 10
78.53811013319861
 20
342.62691358728335
 10
76.43920454823106
 20
342.2399168345479
 10
73.61169273488971
 20
341.8319402634282
 10
72.86336039851264
 20
341.6727856446346
 10
71.10692905353787
 20
341.37470653293417
 10
69.31678640066431
 20
341.0705613390238
 10
68.62780798818059
 20
340.9830745134225
 10
65.78137081744248
 20
340.46183668927387
 10
63.67914603752453
 20
340.16752359699086
 10
62.20697884778818
 20
339.8914039932541
 10
58.769914222181654
 20
339.3917840645607
 10
58.594023674374824
 20
339.3590641588778
 10
58.0950250171222
 20
339.28647366314317
 10
54.97617478540016
 20
338.82852115948367
 10
53.96081489648665
 20
338.71877141452103
 10
51.319185569979226
 20
338.34008245179297
 10
49.224347083435504
 20
338.11617183881447
 10
47.61807228235514
 20
337.8955684654474
 10
44.55293711771898
 20
337.57873163115255
 10
43.876779671368155
 20
337.4911267578156
 10
40.832517829641034
 20
337.1921457984311
 10
40.10068584897883
 20
337.1195948940103
 10
39.94710189413078
 20
337.1088781541738
 10
36.30345513522823
 20
336.77117734903334
 10
35.41695537506459
 20
336.7127168152457
 10
32.46797901823001
 20
336.46093780020095
 10
30.937368044974647
 20
336.3671998248408
 10
28.597255521224014
 20
336.18592918936014
 10
26.505056061574948
 20
336.06896856754315
 10
24.693562974595096
 20
335.9438215707031
 10
22.116837306396434
 20
335.8148975975015
 10
20.758607098659667
 20
335.7329492473324
 10
17.577005318734194
 20
335.59375378653556
 10
110.09860506938932
 20
428.11535353719063
  0
LWPOLYLINE
  5
93
330
17
100
AcDbEntity
  8
GRABADO
100
AcDbPolyline
 90
307
 70
1
 10
113.85813213127099
 20
366.3401439580121
 10
113.93513782300576
 20
366.91370515877213
 10
113.91450434006836
 20
368.42758419986154
 10
114.62108897772484
 20
370.3913030367679
 10
114.64530947383477
 20
370.5116902480601
 10
114.81073230685215
 20
370.81429441881187
 10
115.15428612337186
 20
372.5882526575439
 10
115.7906529937392
 20
373.39638144248386
 10
116.4426425076231
 20
374.67284355043034
 10
117.57694951169398
 20
375.7719732446407
 10
118.32815603136109
 20
376.75264316648895
 10
119.66697537899043
 20
377.83848940883223
 10
120.64534981189124
 20
378.8303105810983
 10
121.9232866280851
 20
379.7357626103588
 10
123.3160138422854
 20
380.9070476970824
 10
124.28855366286834
 20
381.52233373377345
 10
126.3130458078816
 20
382.98343146744253
 10
126.73636593619429
 20
383.22531037185905
 10
128.0324796557637
 20
384.04301632380725
 10
129.21267536554345
 20
384.88455275155985
 10
129.43878142249608
 20
385.0558851695221
 10
131.72202502726785
 20
386.52594375626023
 10
132.62733927391517
 20
387.13217991387233
 10
134.29503741873415
 20
388.1032750340609
 10
136.15642394638584
 20
389.2086744877212
 10
136.93151179040998
 20
389.61678083583547
 10
138.6457967426853
 20
390.52069066161374
 10
139.60337740360362
 20
391.08558710712197
 10
139.94444036362043
 20
391.2837875272423
 10
142.3018344074388
 20
392.53715898289187
 10
143.8975188692347
 20
393.36064517769876
 10
145.06836322311185
 20
393.92039248240644
 10
147.11942022829143
 20
394.8587679982292
 10
147.88446539703668
 20
395.247345199171
 10
148.2792504199763
 20
395.43725362386385
 10
150.7293953316391
 20
396.55207684054653
 10
152.99050890134308
 20
397.51488496657305
 10
153.6485754488609
 20
397.7822441435827
 10
154.49882844563862
 20
398.1017805811716
 10
156.5983597727081
 20
398.97694080854023
 10
158.20610047626317
 20
399.5928395952716
 10
159.61061906217637
 20
400.1137774505812
 10
161.17372075339992
 20
400.64144924649145
 10
162.67235662204044
 20
401.197333305126
 10
164.08411211437763
 20
401.6717723982626
 10
165.78633228517432
 20
402.23207144457473
 10
167.3680517484149
 20
402.7002186088685
 10
168.95266289428983
 20
403.21152673718404
 10
170.81932630099547
 20
403.75182806559354
 10
172.17328698128202
 20
404.13915798708416
 10
173.20652549582948
 20
404.40302150993693
 10
175.43898663640496
 20
405.01948716624395
 10
178.73921807419214
 20
405.8333874610685
 10
178.76619016145574
 20
405.84000713317903
 10
178.7828041050607
 20
405.84364511959274
 10
182.12494663067739
 20
406.6273222353373
 10
184.1198888378013
 20
407.0465346450571
 10
185.5378171073642
 20
407.3606699654241
 10
188.3233222165376
 20
407.9172487521303
 10
188.9939202807869
 20
408.05146059781936
 10
189.31937206073226
 20
408.1106757143456
 10
192.48207235283635
 20
408.7093116467954
 10
194.38352991908565
 20
409.04068468948043
 10
196.0072066131024
 20
409.3301831508032
 10
199.36771175040252
 20
409.89069847478896
 10
199.5603193421143
 20
409.92302082568597
 10
200.06570635407482
 20
410.00392516495157
 10
203.13203249075886
 20
410.4969696870874
 10
204.28974912943775
 20
410.6784485659937
 10
206.7190187351919
 20
411.0555097954728
 10
209.1828987080888
 20
411.43782546297956
 10
210.31141350793897
 20
411.60850494985317
 10
213.42673946838121
 20
412.0924311878909
 10
213.89858717092065
 20
412.1660146098324
 10
214.0727502958819
 20
412.19450631632424
 10
217.47705830098315
 20
412.7324244904026
 10
219.0031553302655
 20
412.991628159649
 10
221.03301133645064
 20
413.3211599177151
 10
223.99417215988038
 20
413.84946887839914
 10
224.55443353589973
 20
413.9442190422865
 10
225.7942198915185
 20
414.1790688567404
 10
228.03775896323194
 20
414.604260399739
 10
229.10868966428714
 20
414.83234350963886
 10
231.47415047325634
 20
415.3118086674916
 10
234.392641243001
 20
415.98356064893864
 10
234.84697766946172
 20
416.0827204579263
 10
235.56348317993385
 20
416.26155923989484
 10
238.16300683106473
 20
416.90917071738915
 10
239.9567366020032
 20
417.416739469507
 10
241.40697418178442
 20
417.8084931844234
 10
243.13943015516392
 20
418.34082208994516
 10
244.57620895285126
 20
418.7812901583936
 10
245.91448636058217
 20
419.2436697595494
 10
247.67338263444427
 20
419.8271007715483
 10
249.25654106018615
 20
420.4176921199221
 10
250.69063944381608
 20
420.95159941553976
 10
252.50564564598156
 20
421.70387662532846
 10
253.63135995751682
 20
422.15376601579334
 10
254.39697238872012
 20
422.49292289911995
 10
256.5021393682571
 20
423.42467657515664
 10
258.8563370283142
 20
424.56778010394464
 10
259.3391847258715
 20
424.8024458661065
 10
339.7615806431729
 20
344.3800499488051
 10
339.2856596368549
 20
343.84423949771474
 10
337.7407416945139
 20
342.15048323854046
 10
337.3342654915821
 20
341.7670690409073
 10
335.57986777269195
 20
340.1569377306996
 10
334.9923985080353
 20
339.68996362519067
 10
333.24408466202533
 20
338.33885799582146
 10
332.165029188938
 20
337.6128242890171
 10
330.745152967702
 20
336.68465578677933
 10
328.7342067880252
 20
335.535464575183
 10
328.0961000378452
 20
335.18139460377716
 10
326.72611372985
 20
334.51473573783545
 10
325.34448850191643
 20
333.7862456775962
 10
324.6528448950337
 20
333.4574555304141
 10
322.5092813056706
 20
332.4710888552001
 10
319.88930672237086
 20
331.3796106502129
 10
319.5769542621513
 20
331.2537045150572
 10
319.183604898044
 20
331.1095964151724
 10
316.62519962457293
 20
330.06120247433944
 10
314.6400392059843
 20
329.3017357942788
 10
313.61460406765855
 20
328.92330758786386
 10
312.4649119202828
 20
328.52534076958773
 10
310.59373283127934
 20
327.8007980151484
 10
309.04049320322986
 20
327.2239157482939
 10
307.55406948030054
 20
326.6928073944968
 10
305.94483996448355
 20
326.13902047586726
 10
304.5128028417125
 20
325.5912135772138
 10
303.3252621273766
 20
325.14625728499533
 10
301.47593119757096
 20
324.48098021823336
 10
299.43122165222405
 20
323.75872022675117
 10
298.44070098281884
 20
323.3736086991072
 10
297.6513603936821
 20
323.06884590868185
 10
295.42363988270756
 20
322.2438902392054
 10
292.82849508524146
 20
321.2891092175031
 10
292.40532093882837
 20
321.1196298731778
 10
292.0857658716883
 20
320.9916624697267
 10
289.41331240212503
 20
319.9650328438529
 10
286.6731171591988
 20
318.91398656943034
 10
286.4134897499049
 20
318.81826359671203
 10
286.113884958937
 20
318.70818944616735
 10
283.44211756098764
 20
317.64687264504545
 10
281.399783622682
 20
316.83718420975396
 10
280.46294783227233
 20
316.47944161224234
 10
279.3163747368835
 20
316.04388070818726
 10
277.49533481437584
 20
315.303864944576
 10
276.1491923267297
 20
314.7602978202308
 10
274.52575111390456
 20
314.1268003657801
 10
272.4731019195227
 20
313.33405760479894
 10
271.55190311532044
 20
312.9569683459289
 10
270.8741442175832
 20
312.6832155876882
 10
268.57877796198886
 20
311.78334982630616
 10
265.66709819290224
 20
310.6617709597656
 10
265.58811913685963
 20
310.62978733568434
 10
265.5277143752029
 20
310.60585403935625
 10
262.5978215879601
 20
309.47325906183175
 10
260.0888470602732
 20
308.5280853986918
 10
259.58284254493424
 20
308.34146984840766
 10
259.005204078827
 20
308.1345967559288
 10
256.5594986101912
 20
307.2199539425667
 10
254.4298599814645
 20
306.4501269889805
 10
253.50993727232472
 20
306.1227361572709
 10
252.51909921511887
 20
305.78279102940223
 10
250.44223747396936
 20
305.04508330522566
 10
248.4665850570572
 20
304.3716288456375
 10
247.3468847469958
 20
303.99371080049247
 10
246.2362200611615
 20
303.63443973657144
 10
244.2269019582831
 20
302.96793306523466
 10
242.09392345955874
 20
302.2924975351793
 10
241.07649071274327
 20
301.97173845864893
 10
240.16409481811044
 20
301.697019514604
 10
237.89720040908972
 20
301.00493902740226
 10
235.17226338320026
 20
300.2125840052504
 10
234.68494019815986
 20
300.07079481139266
 10
234.29459811099176
 20
299.9623336650224
 10
231.44033015457288
 20
299.1690809711894
 10
228.61886748419627
 20
298.4209303468882
 10
228.16160000698258
 20
298.3012240753958
 10
227.48151246155433
 20
298.13135867916503
 10
224.84785679481254
 20
297.4689604680022
 10
223.11262359468597
 20
297.0496031242469
 10
221.49832989991964
 20
296.6718162045323
 10
218.7374567694042
 20
296.0489931505365
 10
218.11695474157133
 20
295.9075580596152
 10
217.75555752763668
 20
295.82732518162766
 10
214.69394606151482
 20
295.18391632621
 10
212.53163344220192
 20
294.73800097575054
 10
211.23953245312546
 20
294.4915458793511
 10
208.4522802587688
 20
293.9643362327325
 10
207.7554014430946
 20
293.8306697814876
 10
207.42624249291973
 20
293.76709753858336
 10
204.22747874196514
 20
293.2119323719055
 10
202.4142292458029
 20
292.8897413837599
 10
200.6719332048356
 20
292.6207754349965
 10
197.4976104726422
 20
292.1078223297119
 10
197.09256823165177
 20
292.05337829570044
 10
195.8721480775907
 20
291.8764494827467
 10
193.4781698625956
 20
291.52376564054754
 10
192.64565175369827
 20
291.38961612097296
 10
189.8315673878043
 20
291.0238528840344
 10
187.8536603935117
 20
290.7322468508729
 10
186.16593941681583
 20
290.5429290571665
 10
183.12370092862272
 20
290.1369283981702
 10
182.4852790931777
 20
290.0770261645448
 10
180.0271708273666
 20
289.7842732448497
 10
178.7854474564464
 20
289.63399763214693
 10
178.4356750884897
 20
289.58162224642035
 10
175.04971775844132
 20
289.223417801746
 10
173.76480642738665
 20
289.04523151190733
 10
171.30213522711037
 20
288.82460589895953
 10
169.13496882041497
 20
288.5500010879739
 10
167.5444985631719
 20
288.4357489344586
 10
164.5465153170379
 20
288.0962771125228
 10
163.77700888781416
 20
288.05654400288154
 10
160.00491047128477
 20
287.68967501001623
 10
159.9971295620695
 20
287.6894598236571
 10
159.95390893929712
 20
287.6861161284181
 10
156.15810582139378
 20
287.38748967580534
 10
155.4819388099505
 20
287.2982602995653
 10
152.2681128205244
 20
287.13025725108093
 10
151.04462043536134
 20
286.99653627439
 10
148.29837583256207
 20
286.95203305969466
 10
146.74498643219474
 20
286.83351891607697
 10
144.1777413360348
 20
286.92358074340723
 10
142.65577035259034
 20
286.8825741559493
 10
139.74539810614542
 20
287.20527420137586
 10
138.87959343831776
 20
287.2476565054094
 10
137.08831968203285
 20
287.65564570588475
 10
135.48823471264583
 20
288.0060569139998
 10
134.22012833355356
 20
288.56789090126153
 10
132.55675458627908
 20
289.2263776959318
 10
131.85802764518112
 20
289.7298057942051
 10
130.09950625526878
 20
290.925450119683
 10
129.30481481895967
 20
291.80629522410294
 10
128.0908195965694
 20
293.0710581334271
 10
127.58685787509805
 20
293.8842366214468
 10
126.45804199017019
 20
295.58859282613355
 10
126.29450059819325
 20
295.96156148802265
 10
125.82293684972612
 20
296.96295845026276
 10
125.28511971957099
 20
298.02650049196285
 10
125.10226307682635
 20
298.37403892114844
 10
124.44889189161037
 20
300.1024746533826
 10
123.95265020261715
 20
301.36741518355257
 10
123.72064632141061
 20
302.177150216335
 10
123.2836053481528
 20
303.6537077884157
 10
123.08545569766883
 20
304.24302620273005
 10
122.9862829630807
 20
304.5378469243337
 10
122.51303166670087
 20
306.31667810029023
 10
122.12064300452423
 20
307.81117006599015
 10
121.99648495790345
 20
308.3893152700356
 10
121.81231755729314
 20
309.274470247002
 10
121.51641708503709
 20
310.45614681569725
 10
121.34751984064977
 20
311.1729675912863
 10
121.06240813033824
 20
312.5281150111091
 10
120.67045013198705
 20
314.5623466999949
 10
120.66255080277423
 20
314.59563987614786
 10
120.65779643408015
 20
314.61804227022276
 10
120.23510602192889
 20
316.6670260020551
 10
119.98328938517417
 20
318.07941685267707
 10
119.86054173532696
 20
318.73773158074516
 10
119.7166886963573
 20
319.663405542989
 10
119.48642826235479
 20
320.80608743991706
 10
119.35839028597448
 20
321.588705983644
 10
119.11613382276764
 20
322.8763593285582
 10
118.8523898532599
 20
324.6733808425033
 10
118.79930021659649
 20
324.94533667564036
 10
118.77118934519885
 20
325.1358151677687
 10
118.4186280164283
 20
327.015200875443
 10
118.19112117826242
 20
328.68974441575534
 10
118.11602751856961
 20
329.0844566615976
 10
118.04319539930853
 20
329.62851309644213
 10
117.76210994306902
 20
331.1543228732445
 10
117.62732959662591
 20
332.2601071688789
 10
117.4421222719769
 20
333.22320482125224
 10
117.2787169395273
 20
334.53871493132135
 10
117.14479656174652
 20
335.29376597580915
 10
117.08655085255955
 20
335.8537711459755
 10
116.79887952825331
 20
337.36228741279274
 10
116.57583925960418
 20
339.3876074944859
 10
116.56818626976425
 20
339.4336173606235
 10
116.56543117991313
 20
339.4675101737564
 10
116.18968427805814
 20
341.50178066078996
 10
116.04672499625437
 20
343.08066045709154
 10
115.93978794213442
 20
343.5690773519416
 10
115.86326369998162
 20
344.24508180885925
 10
115.62101592379852
 20
345.6417825088554
 10
115.55187150997509
 20
346.7207724998031
 10
115.3394957156548
 20
347.7086301068248
 10
115.21961258310907
 20
349.03525230353904
 10
115.1033685259051
 20
349.78243320058345
 10
115.0858983573855
 20
350.3903586157894
 10
114.78703462927368
 20
351.8488349379627
 10
114.67928166672695
 20
353.72274542898697
 10
114.65330194998288
 20
353.923964914609
 10
114.65653546969642
 20
354.09740290580874
 10
114.30335270740844
 20
355.98998304760994
 10
114.2841380636257
 20
357.853547382025
 10
114.22592396727302
 20
358.0536668861723
 10
114.20595684474156
 20
358.33998537924674
 10
113.92588604640824
 20
360.1325708097103
 10
114.0203311888063
 20
361.7267959198338
 10
113.88606491633735
 20
362.1953418354402
 10
113.88681478164844
 20
362.80845000468435
 10
113.73172157765995
 20
364.27765188367334
 10
113.9944434245759
 20
365.8401390351469
 10
113.85813213127099
 20
366.3401439580121
  0
LWPOLYLINE
  5
94
330
17
100
AcDbEntity
  8
GRABADO
100
AcDbPolyline
 90
107
 70
1
 10
105.02325579610996
 20
420.15137676635675
 10
105.11956938738516
 20
418.82965472746423
 10
105.21811597491197
 20
418.0842826435183
 10
105.31440241089652
 20
417.13919944572547
 10
105.41926270501884
 20
416.01189913826335
 10
105.47788420246897
 20
415.0538494724038
 10
105.62457586636341
 20
413.9451447811456
 10
105.75549818510669
 20
412.55236430171743
 10
105.81393257880345
 20
411.87221978506113
 10
105.84120223213264
 20
411.282868353599
 10
106.03397088589472
 20
409.80582813361
 10
106.18548073514634
 20
407.9764414498714
 10
106.20401815398381
 20
407.7322632463766
 10
106.20987020388665
 20
407.5169318543944
 10
106.44325078611891
 20
405.66625059980095
 10
106.57210908287524
 20
403.7498545480788
 10
106.60080112350553
 20
403.6011829656102
 10
106.62594946161667
 20
403.3934296622303
 10
106.84662859398955
 20
401.52631110904946
 10
106.91826817182474
 20
399.96150020344817
 10
107.0155482883238
 20
399.4618142551255
 10
107.08638814705947
 20
398.78681111865615
 10
107.23407354244952
 20
397.3858651547106
 10
107.25395512942904
 20
396.162222002474
 10
107.41624346878567
 20
395.3220120842712
 10
107.50462688563059
 20
394.22186650928757
 10
107.5883976284853
 20
393.2446743845891
 10
107.5659045464931
 20
392.3384882281034
 10
107.78198966300678
 20
391.1814859589854
 10
107.84375646639481
 20
389.73514701393515
 10
107.87898773398385
 20
389.10235838198093
 10
107.82564649954591
 20
388.4615660911858
 10
108.07109304516811
 20
387.0397657488646
 10
108.04366667476776
 20
385.38613685680286
 10
108.04746908687477
 20
384.9582247674644
 10
107.96288777812336
 20
384.460553675522
 10
108.18864202488075
 20
382.89572614784566
 10
107.99961223204534
 20
381.2780330139238
 10
107.96775330580405
 20
380.8109007922706
 10
107.75086017024799
 20
380.10758685001446
 10
107.86479390337936
 20
378.7464593494097
 10
107.50905905195086
 20
377.6092290386787
 10
107.30813191148306
 20
376.6576822674175
 10
106.22633879684966
 20
374.726171976426
 10
106.15743404092134
 20
374.5743456902625
 10
105.474740806835
 20
373.6779608416871
 10
104.81862363302295
 20
372.49345300260484
 10
104.52982243207848
 20
372.24386390421677
 10
102.91842355700354
 20
370.41334541423225
 10
102.5050618335126
 20
370.1124348633846
 10
100.50178748284029
 20
368.3361808128857
 10
100.27582169305052
 20
368.1893971531612
 10
99.11595540626476
 20
367.3178998876698
 10
97.96277172374889
 20
366.3669465091357
 10
97.84451232847911
 20
366.26414581534306
 10
95.5936638864716
 20
364.585112415914
 10
95.07805547622777
 20
364.18823802266365
 10
93.1520613500422
 20
362.87649072150174
 10
92.04320799992061
 20
362.11232264178125
 10
90.64168256380114
 20
361.23707242110453
 10
88.70576393618293
 20
360.0362289208784
 10
88.06190987231375
 20
359.6673353373576
 10
86.40037271983314
 20
358.73858340688054
 10
85.44066765191516
 20
358.1461396645275
 10
85.12539583449896
 20
357.9608997263217
 10
82.78911767727786
 20
356.64800181675906
 10
81.34118496737548
 20
355.88433232805164
 10
80.05718727393744
 20
355.23036658877027
 10
77.59744691767796
 20
354.0714881376782
 10
77.25086094683914
 20
353.89190763691585
 10
77.07231100233102
 20
353.80734133255476
 10
74.42020166530685
 20
352.5729927676316
 10
72.41190620552871
 20
351.72977368696996
 10
71.49451263198247
 20
351.3492005427681
 10
70.2961553756924
 20
350.90720231871234
 10
68.51746337439303
 20
350.1804476196681
 10
67.05285244336514
 20
349.65122727893487
 10
65.4682074238801
 20
349.08039856770256
 10
63.814333848304756
 20
348.56130259056226
 10
62.350217192760084
 20
348.0521524498524
 10
60.759442357924826
 20
347.57145585532754
 10
59.16485785216739
 20
347.08850357600505
 10
57.86996787714415
 20
346.7532037266132
 10
55.91644143524272
 20
346.1904958773483
 10
53.0687376480856
 20
345.48992524905645
 10
52.58742105025894
 20
345.37088287330056
 10
52.289515577735216
 20
345.3091317484609
 10
49.21667325419887
 20
344.59525308954983
 10
47.011836906408035
 20
344.165889244027
 10
45.76803065278736
 20
343.89737591619325
 10
43.04769788432063
 20
343.40519819566305
 10
42.25632708610337
 20
343.2610840678317
 10
41.92055175249365
 20
343.21095606513035
 10
38.69896514164677
 20
342.6721133249089
 10
37.0164495105287
 20
342.4413353770843
 10
35.077743419015775
 20
342.14693081784105
 10
32.23352240331516
 20
341.79290762002074
 10
31.398893908526446
 20
341.67935016715126
 10
28.116531598733303
 20
341.31381942609613
 10
27.667525411749665
 20
341.2635842802399
 10
27.558453048693963
 20
341.25386119279796
 10
23.891484574643272
 20
340.8934253124528
 10
22.790651903747715
 20
340.807400371549
 10
104.7453547554903
 20
422.7621032232916
 10
104.81578621356468
 20
422.22326773425766
 10
104.86862555725932
 20
421.73053837928285
 10
105.02325579610996
 20
420.15137676635675
  0
LWPOLYLINE
  5
95
330
17
100
AcDbEntity
  8
GRABADO
100
AcDbPolyline
 90
43
 70
1
 10
106.06798082696193
 20
229.65659288073937
 10
106.525835780819
 20
227.68578826151293
 10
106.98570115351552
 20
226.42662650130046
 10
107.07869743026211
 20
225.60775558324582
 10
107.33493430920626
 20
224.44461469559343
 10
107.49949181298516
 20
223.543719067192
 10
107.66851732773384
 20
222.9719232565082
 10
107.79887826163159
 20
221.46690049540064
 10
108.15679971121719
 20
219.4752016241207
 10
108.16735114466192
 20
219.40202657387783
 10
108.18058110296752
 20
219.34734833241083
 10
108.31150445826174
 20
217.32620273596996
 10
108.56625657157142
 20
215.59326582703517
 10
108.56862192591436
 20
215.25212412751813
 10
108.59726523591158
 20
214.88297731399268
 10
108.67639157570895
 20
213.18563149569223
 10
108.849591041671
 20
211.7415801994161
 10
108.84779608402184
 20
211.1121265860367
 10
108.88841034330844
 20
210.44549291966968
 10
108.93209087282773
 20
209.04515505862804
 10
109.05205242289989
 20
207.80921338144316
 10
109.04260747229355
 20
206.972125326551
 10
109.09198273269706
 20
205.9122386841176
 10
83.13791754565537
 20
231.8663038711593
 10
83.69795047764174
 20
232.23367192141126
 10
85.8121946219222
 20
233.4740995642
 10
86.71485047618793
 20
233.9123730584667
 10
88.51635439759613
 20
234.91758024348042
 10
90.87950458360623
 20
235.9887741496796
 10
91.34707357246944
 20
236.2348254956956
 10
92.19555644802423
 20
236.58941223271393
 10
94.56746823093121
 20
237.18269902683642
 10
97.35936937907863
 20
237.59983680394794
 10
98.51827356238104
 20
237.40679985563213
 10
100.7862969712007
 20
236.85029891669683
 10
101.74679603674966
 20
235.99588296360116
 10
103.15354078153277
 20
235.0470419609726
 10
103.79167544496167
 20
233.91142644736226
 10
104.8418505562988
 20
232.57355624970415
 10
105.06517443687167
 20
231.82829732073412
 10
105.88178926971008
 20
230.05352265050527
 10
106.00217944660605
 20
229.7672055336986
 10
106.06798082696193
 20
229.65659288073937
  0
TEXT
  5
96
330
17
100
AcDbEntity
  8
GRABADO
100
AcDbText
 10
196.47188990186666
 20
313.63795717090164
 30
0.0
 40
6.0
  1
18b
 72
1
 11
196.47188990186666
 21
313.63795717090164
 31
0.0
100
AcDbText
 73
2
  0
TEXT
  5
97
330
17
100
AcDbEntity
  8
HOJA
100
AcDbText
 10
10.0
 20
691.0
 30
0.0
 40
6.0
  1
terreno_prueba  hoja 9/9  1:345  lamina 3.0mm
 11
10.0
 21
691.0
 31
0.0
100
AcDbText
  0
ENDSEC
  0
SECTION
  2
OBJECTS
  0
DICTIONARY
  5
A
330
0
100
AcDbDictionary
281
1
  3
ACAD_COLOR
350
B
  3
ACAD_GROUP
350
C
  3
ACAD_LAYOUT
350
D
  3
ACAD_MATERIAL
350
E
  3
ACAD_MLEADERSTYLE
350
F
  3
ACAD_MLINESTYLE
350
10
  3
ACAD_PLOTSETTINGS
350
11
  3
ACAD_PLOTSTYLENAME
350
12
  3
ACAD_SCALELIST
350
14
  3
ACAD_TABLESTYLE
350
15
  3
ACAD_VISUALSTYLE
350
16
  3
EZDXF_META
350
2D
  0
DICTIONARY
  5
B
330
A
100
AcDbDictionary
281
1
  0
DICTIONARY
  5
C
330
A
100
AcDbDictionary
281
1
  0
DICTIONARY
  5
D
330
A
100
AcDbDictionary
281
1
  3
Model
350
1A
  3
Layout1
350
1E
  0
DICTIONARY
  5
E
330
A
100
AcDbDictionary
281
1
  3
ByBlock
350
1F
  3
ByLayer
350
20
  3
Global
350
21
  0
DICTIONARY
  5
F
330
A
100
AcDbDictionary
281
1
  3
Standard
350
2C
  0
DICTIONARY
  5
10
330
A
100
AcDbDictionary
281
1
  3
Standard
350
22
  0
DICTIONARY
  5
11
330
A
100
AcDbDictionary
281
1
  0
ACDBDICTIONARYWDFLT
  5
12
330
A
100
AcDbDictionary
281
1
  3
Normal
350
13
100
AcDbDictionaryWithDefault
340
13
  0
ACDBPLACEHOLDER
  5
13
330
12
  0
DICTIONARY
  5
14
330
A
100
AcDbDictionary
281
1
  0
DICTIONARY
  5
15
330
A
100
AcDbDictionary
281
1
  0
DICTIONARY
  5
16
330
A
100
AcDbDictionary
281
1
  3
2dWireframe
350
5A
  3
Basic
350
5B
  3
Brighten
350
5C
  3
ColorChange
350
5D
  3
Conceptual
350
5E
  3
Dim
350
5F
  3
EdgeColorOff
350
60
  3
Facepattern
350
61
  3
Flat
350
62
  3
FlatWithEdges
350
63
  3
Gouraud
350
64
  3
GouraudWithEdges
350
65
  3
Hidden
350
66
  3
JitterOff
350
67
  3
Linepattern
350
68
  3
Modeling
350
69
  3
OverhangOff
350
6A
  3
Realistic
350
6B
  3
Shaded
350
6C
  3
Shaded with edges
350
6D
  3
Shades of Gray
350
6E
  3
Sketchy
350
6F
  3
Thicken
350
70
  3
Wireframe
350
71
  3
X-Ray
350
72
  0
LAYOUT
  5
1A
330
D
100
AcDbPlotSettings
  1

  4
A3
  6

 40
7.5
 41
20.0
 42
7.5
 43
20.0
 44
420.0
 45
297.0
 46
0.0
 47
0.0
 48
0.0
 49
0.0
140
0.0
141
0.0
142
1.0
143
1.0
 70
1024
 72
1
 73
0
 74
5
  7

 75
16
 76
0
 77
2
 78
300
147
1.0
148
0.0
149
0.0
100
AcDbLayout
  1
Model
 70
1
 71
0
 10
0.0
 20
0.0
 11
420.0
 21
297.0
 12
0.0
 22
0.0
 32
0.0
 14
1e+20
 24
1e+20
 34
1e+20
 15
-1e+20
 25
-1e+20
 35
-1e+20
146
0.0
 13
0.0
 23
0.0
 33
0.0
 16
1.0
 26
0.0
 36
0.0
 17
0.0
 27
1.0
 37
0.0
 76
1
330
17
  0
LAYOUT
  5
1E
330
D
100
AcDbPlotSettings
  1

  4
A3
  6

 40
7.5
 41
20.0
 42
7.5
 43
20.0
 44
420.0
 45
297.0
 46
0.0
 47
0.0
 48
0.0
 49
0.0
140
0.0
141
0.0
142
1.0
143
1.0
 70
0
 72
1
 73
0
 74
5
  7

 75
16
 76
0
 77
2
 78
300
147
1.0
148
0.0
149
0.0
100
AcDbLayout
  1
Layout1
 70
1
 71
1
 10
0.0
 20
0.0
 11
420.0
 21
297.0
 12
0.0
 22
0.0
 32
0.0
 14
1e+20
 24
1e+20
 34
1e+20
 15
-1e+20
 25
-1e+20
 35
-1e+20
146
0.0
 13
0.0
 23
0.0
 33
0.0
 16
1.0
 26
0.0
 36
0.0
 17
0.0
 27
1.0
 37
0.0
 76
1
330
1B
  0
MATERIAL
  5
1F
102
{ACAD_REACTORS
330
E
102
}
330
E
100
AcDbMaterial
  1
ByBlock
  2

 70
0
 40
1.0
 71
1
 41
1.0
 91
-1023410177
 42
1.0
 72
1
  3

 73
1
 74
1
 75
1
 44
0.5
 73
0
 45
1.0
 46
1.0
 77
1
  4

 78
1
 79
1
170
1
 48
1.0
171
1
  6

172
1
173
1
174
1
140
1.0
141
1.0
175
1
  7

176
1
177
1
178
1
143
1.0
179
1
  8

270
1
271
1
272
1
145
1.0
146
1.0
273
1
  9

274
1
275
1
276
1
 42
1.0
 72
1
  3

 73
1
 74
1
 75
1
 94
63
  0
MATERIAL
  5
20
102
{ACAD_REACTORS
330
E
102
}
330
E
100
AcDbMaterial
  1
ByLayer
  2

 70
0
 40
1.0
 71
1
 41
1.0
 91
-1023410177
 42
1.0
 72
1
  3

 73
1
 74
1
 75
1
 44
0.5
 73
0
 45
1.0
 46
1.0
 77
1
  4

 78
1
 79
1
170
1
 48
1.0
171
1
  6

172
1
173
1
174
1
140
1.0
141
1.0
175
1
  7

176
1
177
1
178
1
143
1.0
179
1
  8

270
1
271
1
272
1
145
1.0
146
1.0
273
1
  9

274
1
275
1
276
1
 42
1.0
 72
1
  3

 73
1
 74
1
 75
1
 94
63
  0
MATERIAL
  5
21
102
{ACAD_REACTORS
330
E
102
}
330
E
100
AcDbMaterial
  1
Global
  2

 70
0
 40
1.0
 71
1
 41
1.0
 91
-1023410177
 42
1.0
 72
1
  3

 73
1
 74
1
 75
1
 44
0.5
 73
0
 45
1.0
 46
1.0
 77
1
  4

 78
1
 79
1
170
1
 48
1.0
171
1
  6

172
1
173
1
174
1
140
1.0
141
1.0
175
1
  7

176
1
177
1
178
1
143
1.0
179
1
  8

270
1
271
1
272
1
145
1.0
146
1.0
273
1
  9

274
1
275
1
276
1
 42
1.0
 72
1
  3

 73
1
 74
1
 75
1
 94
63
  0
MLINESTYLE
  5
22
102
{ACAD_REACTORS
330
10
102
}
330
10
100
AcDbMlineStyle
  2
Standard
 70
0
  3

 62
256
 51
90.0
 52
90.0
 71
2
 49
0.5
 62
256
  6
BYLAYER
 49
-0.5
 62
256
  6
BYLAYER
  0
MLEADERSTYLE
  5
2C
102
{ACAD_REACTORS
330
F
102
}
330
F
100
AcDbMLeaderStyle
179
2
170
2
171
1
172
0
 90
2
 40
0.0
 41
0.0
173
1
 91
-1056964608
 92
-2
290
1
 42
2.0
291
1
 43
8.0
  3
Standard
 44
4.0
300

342
29
174
1
175
1
176
0
178
1
 93
-1056964608
 45
4.0
292
0
297
0
 46
4.0
 94
-1056964608
 47
1.0
 49
1.0
140
1.0
294
1
141
0.0
177
0
142
1.0
295
0
296
0
143
3.75
271
0
272
9
273
9
  0
DICTIONARY
  5
2D
330
A
100
AcDbDictionary
280
1
281
1
  3
CREATED_BY_EZDXF
350
2E
  3
WRITTEN_BY_EZDXF
350
9A
  0
DICTIONARYVAR
  5
2E
330
2D
100
DictionaryVariables
280
0
  1
1.4.2 @ 2026-09-06T09:28:59.796180+00:00
  0
VISUALSTYLE
  5
5A
102
{ACAD_REACTORS
330
16
102
}
330
16
100
AcDbVisualStyle
  2
2dWireframe
 70
4
 90
0
 40
0.6
 62
7
290
0
291
0
  0
VISUALSTYLE
  5
5B
102
{ACAD_REACTORS
330
16
102
}
330
16
100
AcDbVisualStyle
  2
Basic
 70
7
 90
1
 40
0.6
 62
7
290
0
291
1
  0
VISUALSTYLE
  5
5C
102
{ACAD_REACTORS
330
16
102
}
330
16
100
AcDbVisualStyle
  2
Brighten
 70
12
 90
2
 40
0.6
 62
7
290
0
291
1
  0
VISUALSTYLE
  5
5D
102
{ACAD_REACTORS
330
16
102
}
330
16
100
AcDbVisualStyle
  2
ColorChange
 70
16
 90
2
 40
0.6
 62
8
290
0
291
1
  0
VISUALSTYLE
  5
5E
102
{ACAD_REACTORS
330
16
102
}
330
16
100
AcDbVisualStyle
  2
Conceptual
 70
9
 90
3
 40
0.6
 62
7
290
0
291
0
  0
VISUALSTYLE
  5
5F
102
{ACAD_REACTORS
330
16
102
}
330
16
100
AcDbVisualStyle
  2
Dim
 70
11
 90
2
 40
0.6
 62
7
290
0
291
1
  0
VISUALSTYLE
  5
60
102
{ACAD_REACTORS
330
16
102
}
330
16
100
AcDbVisualStyle
  2
EdgeColorOff
 70
22
 90
2
 40
0.6
 62
7
290
0
291
1
  0
VISUALSTYLE
  5
61
102
{ACAD_REACTORS
330
16
102
}
330
16
100
AcDbVisualStyle
  2
Facepattern
 70
15
 90
2
 40
0.6
 62
7
290
0
291
1
  0
VISUALSTYLE
  5
62
102
{ACAD_REACTORS
330
16
102
}
330
16
100
AcDbVisualStyle
  2
Flat
 70
0
 90
2
 40
0.6
 62
7
290
0
291
1
  0
VISUALSTYLE
  5
63
102
{ACAD_REACTORS
330
16
102
}
330
16
100
AcDbVisualStyle
  2
FlatWithEdges
 70
1
 90
2
 40
0.6
 62
7
290
0
291
1
  0
VISUALSTYLE
  5
64
102
{ACAD_REACTORS
330
16
102
}
330
16
100
AcDbVisualStyle
  2
Gouraud
 70
2
 90
2
 40
0.6
 62
7
290
0
291
1
  0
VISUALSTYLE
  5
65
102
{ACAD_REACTORS
330
16
102
}
330
16
100
AcDbVisualStyle
  2
GouraudWithEdges
 70
3
 90
2
 40
0.6
 62
7
290
0
291
1
  0
VISUALSTYLE
  5
66
102
{ACAD_REACTORS
330
16
102
}
330
16
100
AcDbVisualStyle
  2
Hidden
 70
6
 90
1
 40
0.6
 62
7
290
0
291
0
  0
VISUALSTYLE
  5
67
102
{ACAD_REACTORS
330
16
102
}
330
16
100
AcDbVisualStyle
  2
JitterOff
 70
20
 90
2
 40
0.6
 62
7
290
0
291
1
  0
VISUALSTYLE
  5
68
102
{ACAD_REACTORS
330
16
102
}
330
16
100
AcDbVisualStyle
  2
Linepattern
 70
14
 90
2
 40
0.6
 62
7
290
0
291
1
  0
VISUALSTYLE
  5
69
102
{ACAD_REACTORS
330
16
102
}
330
16
100
AcDbVisualStyle
  2
Modeling
 70
10
 90
2
 40
0.6
 62
7
290
0
291
0
  0
VISUALSTYLE
  5
6A
102
{ACAD_REACTORS
330
16
102
}
330
16
100
AcDbVisualStyle
  2
OverhangOff
 70
21
 90
2
 40
0.6
 62
7
290
0
291
1
  0
VISUALSTYLE
  5
6B
102
{ACAD_REACTORS
330
16
102
}
330
16
100
AcDbVisualStyle
  2
Realistic
 70
8
 90
2
 40
0.6
 62
7
290
0
291
0
  0
VISUALSTYLE
  5
6C
102
{ACAD_REACTORS
330
16
102
}
330
16
100
AcDbVisualStyle
  2
Shaded
 70
27
 90
2
 40
0.6
 62
7
290
0
291
0
  0
VISUALSTYLE
  5
6D
102
{ACAD_REACTORS
330
16
102
}
330
16
100
AcDbVisualStyle
  2
Shaded with edges
 70
26
 90
2
 40
0.6
 62
7
290
0
291
0
  0
VISUALSTYLE
  5
6E
102
{ACAD_REACTORS
330
16
102
}
330
16
100
AcDbVisualStyle
  2
Shades of Gray
 70
23
 90
2
 40
0.6
 62
7
290
0
291
0
  0
VISUALSTYLE
  5
6F
102
{ACAD_REACTORS
330
16
102
}
330
16
100
AcDbVisualStyle
  2
Sketchy
 70
24
 90
1
 40
0.6
 62
7
290
0
291
0
  0
VISUALSTYLE
  5
70
102
{ACAD_REACTORS
330
16
102
}
330
16
100
AcDbVisualStyle
  2
Thicken
 70
13
 90
2
 40
0.6
 62
7
290
0
291
1
  0
VISUALSTYLE
  5
71
102
{ACAD_REACTORS
330
16
102
}
330
16
100
AcDbVisualStyle
  2
Wireframe
 70
5
 90
0
 40
0.6
 62
7
290
0
291
0
  0
VISUALSTYLE
  5
72
102
{ACAD_REACTORS
330
16
102
}
330
16
100
AcDbVisualStyle
  2
X-Ray
 70
25
 90
2
 40
0.5
 62
7
290
0
291
0
  0
DICTIONARYVAR
  5
9A
330
2D
100
DictionaryVariables
280
0
  1
1.4.2 @ 2026-09-06T09:28:59.807183+00:00
  0
ENDSEC
  0
EOF
