  0
SECTION
  2
HEADER
  9
$ACADVER
  1
AC1024
  9
$ACADMAINTVER
 70
6
  9
$DWGCODEPAGE
  3
ANSI_1252
  9
$LASTSAVEDBY
  1
ezdxf
  9
$INSBASE
 10
0.0
 20
0.0
 30
0.0
  9
$EXTMIN
 10
1e+20
 20
1e+20
 30
1e+20
  9
$EXTMAX
 10
-1e+20
 20
-1e+20
 30
-1e+20
  9
$LIMMIN
 10
0.0
 20
0.0
  9
$LIMMAX
 10
420.0
 20
297.0
  9
$ORTHOMODE
 70
0
  9
$REGENMODE
 70
1
  9
$FILLMODE
 70
1
  9
$QTEXTMODE
 70
0
  9
$MIRRTEXT
 70
1
  9
$LTSCALE
 40
1.0
  9
$ATTMODE
 70
1
  9
$TEXTSIZE
 40
2.5
  9
$TRACEWID
 40
1.0
  9
$TEXTSTYLE
  7
OpenSans
  9
$CLAYER
  8
0
  9
$CELTYPE
  6
ByLayer
  9
$CECOLOR
 62
256
  9
$CELTSCALE
 40
1.0
  9
$DISPSILH
 70
0
  9
$DIMSCALE
 40
1.0
  9
$DIMASZ
 40
0.175
  9
$DIMEXO
 40
0.125
  9
$DIMDLI
 40
3.75
  9
$DIMRND
 40
0.0
  9
$DIMDLE
 40
0.0
  9
$DIMEXE
 40
0.375
  9
$DIMTP
 40
0.0
  9
$DIMTM
 40
0.0
  9
$DIMTXT
 40
0.25
  9
$DIMCEN
 40
2.5
  9
$DIMTSZ
 40
0.0
  9
$DIMTOL
 70
0
  9
$DIMLIM
 70
0
  9
$DIMTIH
 70
0
  9
$DIMTOH
 70
0
  9
$DIMSE1
 70
0
  9
$DIMSE2
 70
0
  9
$DIMTAD
 70
1
  9
$DIMZIN
 70
12
  9
$DIMBLK
  1
ARCHTICK
  9
$DIMASO
 70
1
  9
$DIMSHO
 70
1
  9
$DIMPOST
  1

  9
$DIMAPOST
  1

  9
$DIMALT
 70
0
  9
$DIMALTD
 70
3
  9
$DIMALTF
 40
0.03937007874
  9
$DIMLFAC
 40
100.0
  9
$DIMTOFL
 70
1
  9
$DIMTVP
 40
0.0
  9
$DIMTIX
 70
0
  9
$DIMSOXD
 70
0
  9
$DIMSAH
 70
0
  9
$DIMBLK1
  1

  9
$DIMBLK2
  1

  9
$DIMSTYLE
  2
EZDXF
  9
$DIMCLRD
 70
0
  9
$DIMCLRE
 70
0
  9
$DIMCLRT
 70
0
  9
$DIMTFAC
 40
0.5
  9
$DIMGAP
 40
0.1
  9
$DIMJUST
 70
0
  9
$DIMSD1
 70
0
  9
$DIMSD2
 70
0
  9
$DIMTOLJ
 70
0
  9
$DIMTZIN
 70
8
  9
$DIMALTZ
 70
0
  9
$DIMALTTZ
 70
0
  9
$DIMUPT
 70
1
  9
$DIMDEC
 70
2
  9
$DIMTDEC
 70
2
  9
$DIMALTU
 70
2
  9
$DIMALTTD
 70
3
  9
$DIMTXSTY
  7
OpenSansCondensed-Light
  9
$DIMAUNIT
 70
0
  9
$DIMADEC
 70
2
  9
$DIMALTRND
 40
0.0
  9
$DIMAZIN
 70
3
  9
$DIMDSEP
 70
46
  9
$DIMATFIT
 70
3
  9
$DIMFRAC
 70
0
  9
$DIMLDRBLK
  1

  9
$DIMLUNIT
 70
2
  9
$DIMLWD
 70
-2
  9
$DIMLWE
 70
-2
  9
$DIMTMOVE
 70
2
  9
$DIMFXL
 40
1.0
  9
$DIMFXLON
 70
0
  9
$DIMJOGANG
 40
0.785398163397
  9
$DIMTFILL
 70
0
  9
$DIMTFILLCLR
 70
0
  9
$DIMARCSYM
 70
0
  9
$DIMLTYPE
  6

  9
$DIMLTEX1
  6

  9
$DIMLTEX2
  6

  9
$DIMTXTDIRECTION
 70
0
  9
$LUNITS
 70
2
  9
$LUPREC
 70
4
  9
$SKETCHINC
 40
1.0
  9
$FILLETRAD
 40
10.0
  9
$AUNITS
 70
0
  9
$AUPREC
 70
2
  9
$MENU
  1
.
  9
$ELEVATION
 40
0.0
  9
$PELEVATION
 40
0.0
  9
$THICKNESS
 40
0.0
  9
$LIMCHECK
 70
0
  9
$CHAMFERA
 40
0.0
  9
$CHAMFERB
 40
0.0
  9
$CHAMFERC
 40
0.0
  9
$CHAMFERD
 40
0.0
  9
$SKPOLY
 70
0
  9
$TDCREATE
 40
2461290.1451273146
  9
$TDUCREATE
 40
2458532.153996898
  9
$TDUPDATE
 40
2461290.1451273146
  9
$TDUUPDATE
 40
2458532.1544311
  9
$TDINDWG
 40
0.0
  9
$TDUSRTIMER
 40
0.0
  9
$USRTIMER
 70
1
  9
$ANGBASE
 50
0.0
  9
$ANGDIR
 70
0
  9
$PDMODE
 70
0
  9
$PDSIZE
 40
0.0
  9
$PLINEWID
 40
0.0
  9
$SPLFRAME
 70
0
  9
$SPLINETYPE
 70
6
  9
$SPLINESEGS
 70
8
  9
$HANDSEED
  5
9C
  9
$SURFTAB1
 70
6
  9
$SURFTAB2
 70
6
  9
$SURFTYPE
 70
6
  9
$SURFU
 70
6
  9
$SURFV
 70
6
  9
$UCSBASE
  2

  9
$UCSNAME
  2

  9
$UCSORG
 10
0.0
 20
0.0
 30
0.0
  9
$UCSXDIR
 10
1.0
 20
0.0
 30
0.0
  9
$UCSYDIR
 10
0.0
 20
1.0
 30
0.0
  9
$UCSORTHOREF
  2

  9
$UCSORTHOVIEW
 70
0
  9
$UCSORGTOP
 10
0.0
 20
0.0
 30
0.0
  9
$UCSORGBOTTOM
 10
0.0
 20
0.0
 30
0.0
  9
$UCSORGLEFT
 10
0.0
 20
0.0
 30
0.0
  9
$UCSORGRIGHT
 10
0.0
 20
0.0
 30
0.0
  9
$UCSORGFRONT
 10
0.0
 20
0.0
 30
0.0
  9
$UCSORGBACK
 10
0.0
 20
0.0
 30
0.0
  9
$PUCSBASE
  2

  9
$PUCSNAME
  2

  9
$PUCSORG
 10
0.0
 20
0.0
 30
0.0
  9
$PUCSXDIR
 10
1.0
 20
0.0
 30
0.0
  9
$PUCSYDIR
 10
0.0
 20
1.0
 30
0.0
  9
$PUCSORTHOREF
  2

  9
$PUCSORTHOVIEW
 70
0
  9
$PUCSORGTOP
 10
0.0
 20
0.0
 30
0.0
  9
$PUCSORGBOTTOM
 10
0.0
 20
0.0
 30
0.0
  9
$PUCSORGLEFT
 10
0.0
 20
0.0
 30
0.0
  9
$PUCSORGRIGHT
 10
0.0
 20
0.0
 30
0.0
  9
$PUCSORGFRONT
 10
0.0
 20
0.0
 30
0.0
  9
$PUCSORGBACK
 10
0.0
 20
0.0
 30
0.0
  9
$USERI1
 70
0
  9
$USERI2
 70
0
  9
$USERI3
 70
0
  9
$USERI4
 70
0
  9
$USERI5
 70
0
  9
$USERR1
 40
0.0
  9
$USERR2
 40
0.0
  9
$USERR3
 40
0.0
  9
$USERR4
 40
0.0
  9
$USERR5
 40
0.0
  9
$WORLDVIEW
 70
1
  9
$SHADEDGE
 70
3
  9
$SHADEDIF
 70
70
  9
$TILEMODE
 70
1
  9
$MAXACTVP
 70
64
  9
$PINSBASE
 10
0.0
 20
0.0
 30
0.0
  9
$PLIMCHECK
 70
0
  9
$PEXTMIN
 10
1e+20
 20
1e+20
 30
1e+20
  9
$PEXTMAX
 10
-1e+20
 20
-1e+20
 30
-1e+20
  9
$PLIMMIN
 10
0.0
 20
0.0
  9
$PLIMMAX
 10
420.0
 20
297.0
  9
$UNITMODE
 70
0
  9
$VISRETAIN
 70
1
  9
$PLINEGEN
 70
0
  9
$PSLTSCALE
 70
1
  9
$TREEDEPTH
 70
3020
  9
$CMLSTYLE
  2
Standard
  9
$CMLJUST
 70
0
  9
$CMLSCALE
 40
20.0
  9
$PROXYGRAPHICS
 70
1
  9
$MEASUREMENT
 70
1
  9
$CELWEIGHT
370
-1
  9
$ENDCAPS
280
0
  9
$JOINSTYLE
280
0
  9
$LWDISPLAY
290
0
  9
$INSUNITS
 70
4
  9
$HYPERLINKBASE
  1

  9
$STYLESHEET
  1

  9
$XEDIT
290
1
  9
$CEPSNTYPE
380
0
  9
$PSTYLEMODE
290
1
  9
$FINGERPRINTGUID
  2
{A55C9709-AD5B-41AA-A72F-EC4346F7E3E5}
  9
$VERSIONGUID
  2
{20593620-AEFA-4892-A852-878B509EE3D3}
  9
$EXTNAMES
290
1
  9
$PSVPSCALE
 40
0.0
  9
$OLESTARTUP
290
0
  9
$SORTENTS
280
127
  9
$INDEXCTL
280
0
  9
$HIDETEXT
280
1
  9
$XCLIPFRAME
280
1
  9
$HALOGAP
280
0
  9
$OBSCOLOR
 70
257
  9
$OBSLTYPE
280
0
  9
$INTERSECTIONDISPLAY
280
0
  9
$INTERSECTIONCOLOR
 70
257
  9
$DIMASSOC
280
2
  9
$PROJECTNAME
  1

  9
$CAMERADISPLAY
290
0
  9
$LENSLENGTH
 40
50.0
  9
$CAMERAHEIGHT
 40
0.0
  9
$STEPSPERSEC
 40
24.0
  9
$STEPSIZE
 40
100.0
  9
$3DDWFPREC
 40
2.0
  9
$PSOLWIDTH
 40
0.005
  9
$PSOLHEIGHT
 40
0.08
  9
$LOFTANG1
 40
1.570796326795
  9
$LOFTANG2
 40
1.570796326795
  9
$LOFTMAG1
 40
0.0
  9
$LOFTMAG2
 40
0.0
  9
$LOFTPARAM
 70
7
  9
$LOFTNORMALS
280
1
  9
$LATITUDE
 40
37.795
  9
$LONGITUDE
 40
-122.394
  9
$NORTHDIRECTION
 40
0.0
  9
$TIMEZONE
 70
-8000
  9
$LIGHTGLYPHDISPLAY
280
1
  9
$TILEMODELIGHTSYNCH
280
1
  9
$CMATERIAL
347
20
  9
$SOLIDHIST
280
0
  9
$SHOWHIST
280
1
  9
$DWFFRAME
280
2
  9
$DGNFRAME
280
2
  9
$REALWORLDSCALE
290
1
  9
$INTERFERECOLOR
 62
256
  9
$CSHADOW
280
0
  9
$SHADOWPLANELOCATION
 40
0.0
  0
ENDSEC
  0
SECTION
  2
CLASSES
  0
CLASS
  1
ACDBDICTIONARYWDFLT
  2
AcDbDictionaryWithDefault
  3
ObjectDBX Classes
 90
0
 91
0
280
0
281
0
  0
CLASS
  1
SUN
  2
AcDbSun
  3
SCENEOE
 90
1153
 91
0
280
0
281
0
  0
CLASS
  1
VISUALSTYLE
  2
AcDbVisualStyle
  3
ObjectDBX Classes
 90
4095
 91
0
280
0
281
0
  0
CLASS
  1
MATERIAL
  2
AcDbMaterial
  3
ObjectDBX Classes
 90
1153
 91
0
280
0
281
0
  0
CLASS
  1
SCALE
  2
AcDbScale
  3
ObjectDBX Classes
 90
1153
 91
0
280
0
281
0
  0
CLASS
  1
TABLESTYLE
  2
AcDbTableStyle
  3
ObjectDBX Classes
 90
4095
 91
0
280
0
281
0
  0
CLASS
  1
MLEADERSTYLE
  2
AcDbMLeaderStyle
  3
ACDB_MLEADERSTYLE_CLASS
 90
4095
 91
0
280
0
281
0
  0
CLASS
  1
DICTIONARYVAR
  2
AcDbDictionaryVar
  3
ObjectDBX Classes
 90
0
 91
0
280
0
281
0
  0
CLASS
  1
CELLSTYLEMAP
  2
AcDbCellStyleMap
  3
ObjectDBX Classes
 90
1152
 91
0
280
0
281
0
  0
CLASS
  1
MENTALRAYRENDERSETTINGS
  2
AcDbMentalRayRenderSettings
  3
SCENEOE
 90
1024
 91
0
280
0
281
0
  0
CLASS
  1
ACDBDETAILVIEWSTYLE
  2
AcDbDetailViewStyle
  3
ObjectDBX Classes
 90
1025
 91
0
280
0
281
0
  0
CLASS
  1
ACDBSECTIONVIEWSTYLE
  2
AcDbSectionViewStyle
  3
ObjectDBX Classes
 90
1025
 91
0
280
0
281
0
  0
CLASS
  1
RASTERVARIABLES
  2
AcDbRasterVariables
  3
ISM
 90
0
 91
0
280
0
281
0
  0
CLASS
  1
LAYOUT
  2
AcDbLayout
  3
ObjectDBX Classes
 90
0
 91
0
280
0
281
0
  0
CLASS
  1
ACDBPLACEHOLDER
  2
AcDbPlaceHolder
  3
ObjectDBX Classes
 90
0
 91
0
280
0
281
0
  0
ENDSEC
  0
SECTION
  2
TABLES
  0
TABLE
  2
VPORT
  5
8
330
0
100
AcDbSymbolTable
 70
1
  0
VPORT
  5
23
330
8
100
AcDbSymbolTableRecord
100
AcDbViewportTableRecord
  2
*Active
 70
0
 10
0.0
 20
0.0
 11
1.0
 21
1.0
 12
0.0
 22
0.0
 13
0.0
 23
0.0
 14
0.5
 24
0.5
 15
0.5
 25
0.5
 16
0.0
 26
0.0
 36
1.0
 17
0.0
 27
0.0
 37
0.0
 40
1000.0
 41
1.34
 42
50.0
 43
0.0
 44
0.0
 50
0.0
 51
0.0
 71
0
 72
1000
 73
1
 74
3
 75
0
 76
0
 77
0
 78
0
281
0
 65
0
146
0.0
  0
ENDTAB
  0
TABLE
  2
LTYPE
  5
2
330
0
100
AcDbSymbolTable
 70
21
  0
LTYPE
  5
24
330
2
100
AcDbSymbolTableRecord
100
AcDbLinetypeTableRecord
  2
ByBlock
 70
0
  3

 72
65
 73
0
 40
0.0
  0
LTYPE
  5
25
330
2
100
AcDbSymbolTableRecord
100
AcDbLinetypeTableRecord
  2
ByLayer
 70
0
  3

 72
65
 73
0
 40
0.0
  0
LTYPE
  5
26
330
2
100
AcDbSymbolTableRecord
100
AcDbLinetypeTableRecord
  2
Continuous
 70
0
  3

 72
65
 73
0
 40
0.0
  0
LTYPE
  5
2F
330
2
100
AcDbSymbolTableRecord
100
AcDbLinetypeTableRecord
  2
CENTER
 70
0
  3
Center ____ _ ____ _ ____ _ ____ _ ____ _ ____
 72
65
 73
4
 40
5.08
 49
3.175
 74
0
 49
-0.635
 74
0
 49
0.635
 74
0
 49
-0.635
 74
0
  0
LTYPE
  5
30
330
2
100
AcDbSymbolTableRecord
100
AcDbLinetypeTableRecord
  2
CENTERX2
 70
0
  3
Center (2x) ________  __  ________  __  ________
 72
65
 73
4
 40
8.89
 49
6.35
 74
0
 49
-0.635
 74
0
 49
1.27
 74
0
 49
-0.635
 74
0
  0
LTYPE
  5
31
330
2
100
AcDbSymbolTableRecord
100
AcDbLinetypeTableRecord
  2
CENTER2
 70
0
  3
Center (.5x) ____ _ ____ _ ____ _ ____ _ ____
 72
65
 73
4
 40
2.54
 49
1.587
 74
0
 49
-0.318
 74
0
 49
0.318
 74
0
 49
-0.318
 74
0
  0
LTYPE
  5
32
330
2
100
AcDbSymbolTableRecord
100
AcDbLinetypeTableRecord
  2
DASHED
 70
0
  3
Dashed __ __ __ __ __ __ __ __ __ __ __ __ __ _
 72
65
 73
2
 40
1.524
 49
1.27
 74
0
 49
-0.254
 74
0
  0
LTYPE
  5
33
330
2
100
AcDbSymbolTableRecord
100
AcDbLinetypeTableRecord
  2
DASHEDX2
 70
0
  3
Dashed (2x) ____  ____  ____  ____  ____  ____
 72
65
 73
2
 40
3.048
 49
2.54
 74
0
 49
-0.508
 74
0
  0
LTYPE
  5
34
330
2
100
AcDbSymbolTableRecord
100
AcDbLinetypeTableRecord
  2
DASHED2
 70
0
  3
Dashed (.5x) _ _ _ _ _ _ _ _ _ _ _ _ _ _
 72
65
 73
2
 40
0.762
 49
0.635
 74
0
 49
-0.127
 74
0
  0
LTYPE
  5
35
330
2
100
AcDbSymbolTableRecord
100
AcDbLinetypeTableRecord
  2
PHANTOM
 70
0
  3
Phantom ______  __  __  ______  __  __  ______
 72
65
 73
6
 40
6.35
 49
3.175
 74
0
 49
-0.635
 74
0
 49
0.635
 74
0
 49
-0.635
 74
0
 49
0.635
 74
0
 49
-0.635
 74
0
  0
LTYPE
  5
36
330
2
100
AcDbSymbolTableRecord
100
AcDbLinetypeTableRecord
  2
PHANTOMX2
 70
0
  3
Phantom (2x)____________    ____    ____    ____________
 72
65
 73
6
 40
10.795
 49
6.35
 74
0
 49
-0.635
 74
0
 49
1.27
 74
0
 49
-0.635
 74
0
 49
1.27
 74
0
 49
-0.635
 74
0
  0
LTYPE
  5
37
330
2
100
AcDbSymbolTableRecord
100
AcDbLinetypeTableRecord
  2
PHANTOM2
 70
0
  3
Phantom (.5x) ___ _ _ ___ _ _ ___ _ _ ___ _ _ ___
 72
65
 73
6
 40
3.175
 49
1.587
 74
0
 49
-0.318
 74
0
 49
0.318
 74
0
 49
-0.318
 74
0
 49
0.318
 74
0
 49
-0.318
 74
0
  0
LTYPE
  5
38
330
2
100
AcDbSymbolTableRecord
100
AcDbLinetypeTableRecord
  2
DASHDOT
 70
0
  3
Dash dot __ . __ . __ . __ . __ . __ . __ . __
 72
65
 73
4
 40
3.556
 49
2.54
 74
0
 49
-0.508
 74
0
 49
0.0
 74
0
 49
-0.508
 74
0
  0
LTYPE
  5
39
330
2
100
AcDbSymbolTableRecord
100
AcDbLinetypeTableRecord
  2
DASHDOTX2
 70
0
  3
Dash dot (2x) ____  .  ____  .  ____  .  ____
 72
65
 73
4
 40
6.096
 49
5.08
 74
0
 49
-0.508
 74
0
 49
0.0
 74
0
 49
-0.508
 74
0
  0
LTYPE
  5
3A
330
2
100
AcDbSymbolTableRecord
100
AcDbLinetypeTableRecord
  2
DASHDOT2
 70
0
  3
Dash dot (.5x) _ . _ . _ . _ . _ . _ . _ . _
 72
65
 73
4
 40
1.778
 49
1.27
 74
0
 49
-0.254
 74
0
 49
0.0
 74
0
 49
-0.254
 74
0
  0
LTYPE
  5
3B
330
2
100
AcDbSymbolTableRecord
100
AcDbLinetypeTableRecord
  2
DOT
 70
0
  3
Dot .  .  .  .  .  .  .  .  .  .  .  .  .  .  .  .
 72
65
 73
2
 40
0.508
 49
0.0
 74
0
 49
-0.508
 74
0
  0
LTYPE
  5
3C
330
2
100
AcDbSymbolTableRecord
100
AcDbLinetypeTableRecord
  2
DOTX2
 70
0
  3
Dot (2x) .    .    .    .    .    .    .    . 
 72
65
 73
2
 40
1.016
 49
0.0
 74
0
 49
-1.016
 74
0
  0
LTYPE
  5
3D
330
2
100
AcDbSymbolTableRecord
100
AcDbLinetypeTableRecord
  2
DOT2
 70
0
  3
Dot (.5) . . . . . . . . . . . . . . . . . . . 
 72
65
 73
2
 40
0.254
 49
0.0
 74
0
 49
-0.254
 74
0
  0
LTYPE
  5
3E
330
2
100
AcDbSymbolTableRecord
100
AcDbLinetypeTableRecord
  2
DIVIDE
 70
0
  3
Divide __ . . __ . . __ . . __ . . __ . . __
 72
65
 73
6
 40
4.064
 49
2.54
 74
0
 49
-0.508
 74
0
 49
0.0
 74
0
 49
-0.508
 74
0
 49
0.0
 74
0
 49
-0.508
 74
0
  0
LTYPE
  5
3F
330
2
100
AcDbSymbolTableRecord
100
AcDbLinetypeTableRecord
  2
DIVIDEX2
 70
0
  3
Divide (2x) ____  . .  ____  . .  ____  . .  ____
 72
65
 73
6
 40
6.604
 49
5.08
 74
0
 49
-0.508
 74
0
 49
0.0
 74
0
 49
-0.508
 74
0
 49
0.0
 74
0
 49
-0.508
 74
0
  0
LTYPE
  5
40
330
2
100
AcDbSymbolTableRecord
100
AcDbLinetypeTableRecord
  2
DIVIDE2
 70
0
  3
Divide(.5x) _ . _ . _ . _ . _ . _ . _ . _
 72
65
 73
6
 40
2.032
 49
1.27
 74
0
 49
-0.254
 74
0
 49
0.0
 74
0
 49
-0.254
 74
0
 49
0.0
 74
0
 49
-0.254
 74
0
  0
ENDTAB
  0
TABLE
  2
LAYER
  5
1
330
0
100
AcDbSymbolTable
 70
5
  0
LAYER
  5
27
330
1
100
AcDbSymbolTableRecord
100
AcDbLayerTableRecord
  2
0
 70
0
 62
7
  6
Continuous
370
-3
390
13
347
21
  0
LAYER
  5
28
330
1
100
AcDbSymbolTableRecord
100
AcDbLayerTableRecord
  2
Defpoints
 70
0
 62
7
  6
Continuous
290
0
370
-3
390
13
347
21
  0
LAYER
  5
8A
330
1
100
AcDbSymbolTableRecord
100
AcDbLayerTableRecord
  2
CORTE
 70
0
 62
1
  6
Continuous
370
-3
390
13
347
21
  0
LAYER
  5
8B
330
1
100
AcDbSymbolTableRecord
100
AcDbLayerTableRecord
  2
GRABADO
 70
0
 62
5
  6
Continuous
370
-3
390
13
347
21
  0
LAYER
  5
8C
330
1
100
AcDbSymbolTableRecord
100
AcDbLayerTableRecord
  2
HOJA
 70
0
 62
8
  6
Continuous
370
-3
390
13
347
21
  0
ENDTAB
  0
TABLE
  2
STYLE
  5
5
330
0
100
AcDbSymbolTable
 70
26
  0
STYLE
  5
29
330
5
100
AcDbSymbolTableRecord
100
AcDbTextStyleTableRecord
  2
Standard
 70
0
 40
0.0
 41
1.0
 50
0.0
 71
0
 42
2.5
  3
txt
  4

  0
STYLE
  5
41
330
5
100
AcDbSymbolTableRecord
100
AcDbTextStyleTableRecord
  2
OpenSans-Light
 70
0
 40
0.0
 41
1.0
 50
0.0
 71
0
 42
2.5
  3
OpenSans-Light.ttf
  4

  0
STYLE
  5
42
330
5
100
AcDbSymbolTableRecord
100
AcDbTextStyleTableRecord
  2
OpenSans-Light-Italic
 70
0
 40
0.0
 41
1.0
 50
0.0
 71
0
 42
2.5
  3
OpenSans-LightItalic.ttf
  4

  0
STYLE
  5
43
330
5
100
AcDbSymbolTableRecord
100
AcDbTextStyleTableRecord
  2
OpenSans
 70
0
 40
0.0
 41
1.0
 50
0.0
 71
0
 42
2.5
  3
OpenSans-Regular.ttf
  4

  0
STYLE
  5
44
330
5
100
AcDbSymbolTableRecord
100
AcDbTextStyleTableRecord
  2
OpenSans-Italic
 70
0
 40
0.0
 41
1.0
 50
0.0
 71
0
 42
2.5
  3
OpenSans-Italic.ttf
  4

  0
STYLE
  5
45
330
5
100
AcDbSymbolTableRecord
100
AcDbTextStyleTableRecord
  2
OpenSans-SemiBold
 70
0
 40
0.0
 41
1.0
 50
0.0
 71
0
 42
2.5
  3
OpenSans-SemiBold.ttf
  4

  0
STYLE
  5
46
330
5
100
AcDbSymbolTableRecord
100
AcDbTextStyleTableRecord
  2
OpenSans-SemiBoldItalic
 70
0
 40
0.0
 41
1.0
 50
0.0
 71
0
 42
2.5
  3
OpenSans-SemiBoldItalic.ttf
  4

  0
STYLE
  5
47
330
5
100
AcDbSymbolTableRecord
100
AcDbTextStyleTableRecord
  2
OpenSans-Bold
 70
0
 40
0.0
 41
1.0
 50
0.0
 71
0
 42
2.5
  3
OpenSans-Bold.ttf
  4

  0
STYLE
  5
48
330
5
100
AcDbSymbolTableRecord
100
AcDbTextStyleTableRecord
  2
OpenSans-BoldItalic
 70
0
 40
0.0
 41
1.0
 50
0.0
 71
0
 42
2.5
  3
OpenSans-BoldItalic.ttf
  4

  0
STYLE
  5
49
330
5
100
AcDbSymbolTableRecord
100
AcDbTextStyleTableRecord
  2
OpenSans-ExtraBold
 70
0
 40
0.0
 41
1.0
 50
0.0
 71
0
 42
2.5
  3
OpenSans-ExtraBold.ttf
  4

  0
STYLE
  5
4A
330
5
100
AcDbSymbolTableRecord
100
AcDbTextStyleTableRecord
  2
OpenSans-ExtraBoldItalic
 70
0
 40
0.0
 41
1.0
 50
0.0
 71
0
 42
2.5
  3
OpenSans-ExtraBoldItalic.ttf
  4

  0
STYLE
  5
4B
330
5
100
AcDbSymbolTableRecord
100
AcDbTextStyleTableRecord
  2
OpenSansCondensed-Bold
 70
0
 40
0.0
 41
1.0
 50
0.0
 71
0
 42
2.5
  3
OpenSansCondensed-Bold.ttf
  4

  0
STYLE
  5
4C
330
5
100
AcDbSymbolTableRecord
100
AcDbTextStyleTableRecord
  2
OpenSansCondensed-Light
 70
0
 40
0.0
 41
1.0
 50
0.0
 71
0
 42
2.5
  3
OpenSansCondensed-Light.ttf
  4

  0
STYLE
  5
4D
330
5
100
AcDbSymbolTableRecord
100
AcDbTextStyleTableRecord
  2
OpenSansCondensed-Italic
 70
0
 40
0.0
 41
1.0
 50
0.0
 71
0
 42
2.5
  3
OpenSansCondensed-LightItalic.ttf
  4

  0
STYLE
  5
4E
330
5
100
AcDbSymbolTableRecord
100
AcDbTextStyleTableRecord
  2
LiberationSans
 70
0
 40
0.0
 41
1.0
 50
0.0
 71
0
 42
2.5
  3
LiberationSans-Regular.ttf
  4

  0
STYLE
  5
4F
330
5
100
AcDbSymbolTableRecord
100
AcDbTextStyleTableRecord
  2
LiberationSans-Bold
 70
0
 40
0.0
 41
1.0
 50
0.0
 71
0
 42
2.5
  3
LiberationSans-Bold.ttf
  4

  0
STYLE
  5
50
330
5
100
AcDbSymbolTableRecord
100
AcDbTextStyleTableRecord
  2
LiberationSans-BoldItalic
 70
0
 40
0.0
 41
1.0
 50
0.0
 71
0
 42
2.5
  3
LiberationSans-BoldItalic.ttf
  4

  0
STYLE
  5
51
330
5
100
AcDbSymbolTableRecord
100
AcDbTextStyleTableRecord
  2
LiberationSans-Italic
 70
0
 40
0.0
 41
1.0
 50
0.0
 71
0
 42
2.5
  3
LiberationSans-Italic.ttf
  4

  0
STYLE
  5
52
330
5
100
AcDbSymbolTableRecord
100
AcDbTextStyleTableRecord
  2
LiberationSerif
 70
0
 40
0.0
 41
1.0
 50
0.0
 71
0
 42
2.5
  3
LiberationSerif-Regular.ttf
  4

  0
STYLE
  5
53
330
5
100
AcDbSymbolTableRecord
100
AcDbTextStyleTableRecord
  2
LiberationSerif-Bold
 70
0
 40
0.0
 41
1.0
 50
0.0
 71
0
 42
2.5
  3
LiberationSerif-Bold.ttf
  4

  0
STYLE
  5
54
330
5
100
AcDbSymbolTableRecord
100
AcDbTextStyleTableRecord
  2
LiberationSerif-BoldItalic
 70
0
 40
0.0
 41
1.0
 50
0.0
 71
0
 42
2.5
  3
LiberationSerif-BoldItalic.ttf
  4

  0
STYLE
  5
55
330
5
100
AcDbSymbolTableRecord
100
AcDbTextStyleTableRecord
  2
LiberationSerif-Italic
 70
0
 40
0.0
 41
1.0
 50
0.0
 71
0
 42
2.5
  3
LiberationSerif-Italic.ttf
  4

  0
STYLE
  5
56
330
5
100
AcDbSymbolTableRecord
100
AcDbTextStyleTableRecord
  2
LiberationMono
 70
0
 40
0.0
 41
1.0
 50
0.0
 71
0
 42
2.5
  3
LiberationMono-Regular.ttf
  4

  0
STYLE
  5
57
330
5
100
AcDbSymbolTableRecord
100
AcDbTextStyleTableRecord
  2
LiberationMono-Bold
 70
0
 40
0.0
 41
1.0
 50
0.0
 71
0
 42
2.5
  3
LiberationMono-Bold.ttf
  4

  0
STYLE
  5
58
330
5
100
AcDbSymbolTableRecord
100
AcDbTextStyleTableRecord
  2
LiberationMono-BoldItalic
 70
0
 40
0.0
 41
1.0
 50
0.0
 71
0
 42
2.5
  3
LiberationMono-BoldItalic.ttf
  4

  0
STYLE
  5
59
330
5
100
AcDbSymbolTableRecord
100
AcDbTextStyleTableRecord
  2
LiberationMono-Italic
 70
0
 40
0.0
 41
1.0
 50
0.0
 71
0
 42
2.5
  3
LiberationMono-Italic.ttf
  4

  0
ENDTAB
  0
TABLE
  2
VIEW
  5
7
330
0
100
AcDbSymbolTable
 70
0
  0
ENDTAB
  0
TABLE
  2
UCS
  5
6
330
0
100
AcDbSymbolTable
 70
0
  0
ENDTAB
  0
TABLE
  2
APPID
  5
3
330
0
100
AcDbSymbolTable
 70
3
  0
APPID
  5
2A
330
3
100
AcDbSymbolTableRecord
100
AcDbRegAppTableRecord
  2
ACAD
 70
0
  0
APPID
  5
99
330
3
100
AcDbSymbolTableRecord
100
AcDbRegAppTableRecord
  2
HATCHBACKGROUNDCOLOR
 70
0
  0
APPID
  5
9A
330
3
100
AcDbSymbolTableRecord
100
AcDbRegAppTableRecord
  2
EZDXF
 70
0
  0
ENDTAB
  0
TABLE
  2
DIMSTYLE
  5
4
330
0
100
AcDbSymbolTable
 70
12
100
AcDbDimStyleTable
  0
DIMSTYLE
105
2B
330
4
100
AcDbSymbolTableRecord
100
AcDbDimStyleTableRecord
  2
Standard
 70
0
 40
1.0
 41
2.5
 42
0.625
 43
3.75
 44
1.25
 45
0.0
 46
0.0
 47
0.0
 48
0.0
 49
2.5
140
2.5
141
2.5
142
0.0
143
0.03937007874
144
1.0
145
0.0
146
1.0
147
0.625
148
0.0
 69
0
 70
0
 71
0
 72
0
 73
0
 74
0
 75
0
 76
0
 77
1
 78
8
 79
3
170
0
171
3
172
1
173
0
174
0
175
0
176
0
177
0
178
0
179
2
271
2
272
2
273
2
274
3
275
0
276
0
277
2
278
44
279
0
280
0
281
0
282
0
283
0
284
8
285
0
286
0
288
0
289
3
290
0
371
-2
372
-2
  0
DIMSTYLE
105
73
330
4
100
AcDbSymbolTableRecord
100
AcDbDimStyleTableRecord
  2
EZDXF
 70
0
 40
1.0
 41
0.175
 42
0.125
 43
3.75
 44
0.375
 45
0.0
 46
0.0
 47
0.0
 48
0.0
 49
2.5
140
0.25
141
2.5
142
0.0
143
0.03937007874
144
100.0
145
0.0
146
0.5
147
0.1
148
0.0
 69
0
 70
0
 71
0
 72
0
 73
0
 74
0
 75
0
 76
0
 77
1
 78
12
 79
3
170
0
171
3
172
1
173
0
174
0
175
0
176
0
177
0
178
0
179
2
271
2
272
2
273
2
274
3
275
0
276
0
277
2
278
46
279
2
280
0
281
0
282
0
283
0
284
8
285
0
286
0
288
1
289
3
290
0
340
4C
342
74
371
-2
372
-2
  0
DIMSTYLE
105
7C
330
4
100
AcDbSymbolTableRecord
100
AcDbDimStyleTableRecord
  2
EZ_M_100_H25_CM
 70
0
 40
1.0
 41
0.25
 42
0.125
 43
3.75
 44
0.375
 45
0.0
 46
0.0
 47
0.0
 48
0.0
 49
2.5
140
0.25
141
2.5
142
0.125
143
0.03937007874
144
100.0
145
0.0
146
0.5
147
0.1
148
0.0
 69
0
 70
0
 71
0
 72
0
 73
0
 74
0
 75
0
 76
0
 77
1
 78
12
 79
3
170
0
171
3
172
1
173
0
174
0
175
0
176
0
177
0
178
0
179
2
271
2
272
2
273
2
274
3
275
0
276
0
277
2
278
46
279
2
280
0
281
0
282
0
283
0
284
8
285
0
286
0
288
1
289
3
290
0
340
4C
371
-2
372
-2
  0
DIMSTYLE
105
7D
330
4
100
AcDbSymbolTableRecord
100
AcDbDimStyleTableRecord
  2
EZ_M_50_H25_CM
 70
0
 40
1.0
 41
0.125
 42
0.0625
 43
3.75
 44
0.1875
 45
0.0
 46
0.0
 47
0.0
 48
0.0
 49
2.5
140
0.125
141
2.5
142
0.0625
143
0.03937007874
144
100.0
145
0.0
146
0.5
147
0.05
148
0.0
 69
0
 70
0
 71
0
 72
0
 73
0
 74
0
 75
0
 76
0
 77
1
 78
12
 79
3
170
0
171
3
172
1
173
0
174
0
175
0
176
0
177
0
178
0
179
2
271
2
272
2
273
2
274
3
275
0
276
0
277
2
278
46
279
2
280
0
281
0
282
0
283
0
284
8
285
0
286
0
288
1
289
3
290
0
340
4C
371
-2
372
-2
  0
DIMSTYLE
105
7E
330
4
100
AcDbSymbolTableRecord
100
AcDbDimStyleTableRecord
  2
EZ_M_25_H25_CM
 70
0
 40
1.0
 41
0.0625
 42
0.03125
 43
3.75
 44
0.09375
 45
0.0
 46
0.0
 47
0.0
 48
0.0
 49
2.5
140
0.0625
141
2.5
142
0.03125
143
0.03937007874
144
100.0
145
0.0
146
0.5
147
0.025
148
0.0
 69
0
 70
0
 71
0
 72
0
 73
0
 74
0
 75
0
 76
0
 77
1
 78
12
 79
3
170
0
171
3
172
1
173
0
174
0
175
0
176
0
177
0
178
0
179
2
271
2
272
2
273
2
274
3
275
0
276
0
277
2
278
46
279
2
280
0
281
0
282
0
283
0
284
8
285
0
286
0
288
1
289
3
290
0
340
4C
371
-2
372
-2
  0
DIMSTYLE
105
7F
330
4
100
AcDbSymbolTableRecord
100
AcDbDimStyleTableRecord
  2
EZ_M_20_H25_CM
 70
0
 40
1.0
 41
0.05
 42
0.025
 43
3.75
 44
0.07500000000000001
 45
0.0
 46
0.0
 47
0.0
 48
0.0
 49
2.5
140
0.05
141
2.5
142
0.025
143
0.03937007874
144
100.0
145
0.0
146
0.5
147
0.020000000000000004
148
0.0
 69
0
 70
0
 71
0
 72
0
 73
0
 74
0
 75
0
 76
0
 77
1
 78
12
 79
3
170
0
171
3
172
1
173
0
174
0
175
0
176
0
177
0
178
0
179
2
271
2
272
2
273
2
274
3
275
0
276
0
277
2
278
46
279
2
280
0
281
0
282
0
283
0
284
8
285
0
286
0
288
1
289
3
290
0
340
4C
371
-2
372
-2
  0
DIMSTYLE
105
80
330
4
100
AcDbSymbolTableRecord
100
AcDbDimStyleTableRecord
  2
EZ_M_10_H25_CM
 70
0
 40
1.0
 41
0.025
 42
0.0125
 43
3.75
 44
0.037500000000000006
 45
0.0
 46
0.0
 47
0.0
 48
0.0
 49
2.5
140
0.025
141
2.5
142
0.0125
143
0.03937007874
144
100.0
145
0.0
146
0.5
147
0.010000000000000002
148
0.0
 69
0
 70
0
 71
0
 72
0
 73
0
 74
0
 75
0
 76
0
 77
1
 78
12
 79
3
170
0
171
3
172
1
173
0
174
0
175
0
176
0
177
0
178
0
179
2
271
2
272
2
273
2
274
3
275
0
276
0
277
2
278
46
279
2
280
0
281
0
282
0
283
0
284
8
285
0
286
0
288
1
289
3
290
0
340
4C
371
-2
372
-2
  0
DIMSTYLE
105
81
330
4
100
AcDbSymbolTableRecord
100
AcDbDimStyleTableRecord
  2
EZ_M_5_H25_CM
 70
0
 40
1.0
 41
0.0125
 42
0.00625
 43
3.75
 44
0.018750000000000003
 45
0.0
 46
0.0
 47
0.0
 48
0.0
 49
2.5
140
0.0125
141
2.5
142
0.00625
143
0.03937007874
144
100.0
145
0.0
146
0.5
147
0.005000000000000001
148
0.0
 69
0
 70
0
 71
0
 72
0
 73
0
 74
0
 75
0
 76
0
 77
1
 78
12
 79
3
170
0
171
3
172
1
173
0
174
0
175
0
176
0
177
0
178
0
179
2
271
2
272
2
273
2
274
3
275
0
276
0
277
2
278
46
279
2
280
0
281
0
282
0
283
0
284
8
285
0
286
0
288
1
289
3
290
0
340
4C
371
-2
372
-2
  0
DIMSTYLE
105
82
330
4
100
AcDbSymbolTableRecord
100
AcDbDimStyleTableRecord
  2
EZ_M_1_H25_CM
 70
0
 40
1.0
 41
0.0025
 42
0.00125
 43
3.75
 44
0.00375
 45
0.0
 46
0.0
 47
0.0
 48
0.0
 49
2.5
140
0.0025
141
2.5
142
0.00125
143
0.03937007874
144
100.0
145
0.0
146
0.5
147
0.001
148
0.0
 69
0
 70
0
 71
0
 72
0
 73
0
 74
0
 75
0
 76
0
 77
1
 78
12
 79
3
170
0
171
3
172
1
173
0
174
0
175
0
176
0
177
0
178
0
179
2
271
2
272
2
273
2
274
3
275
0
276
0
277
2
278
46
279
2
280
0
281
0
282
0
283
0
284
8
285
0
286
0
288
1
289
3
290
0
340
4C
371
-2
372
-2
  0
DIMSTYLE
105
83
330
4
100
AcDbSymbolTableRecord
100
AcDbDimStyleTableRecord
  2
EZ_RADIUS
 70
0
 40
1.0
 41
0.25
 42
0.125
 43
3.75
 44
0.375
 45
0.0
 46
0.0
 47
0.0
 48
0.0
 49
2.5
140
0.25
141
0.0
142
0.0
143
0.03937007874
144
100.0
145
0.0
146
0.5
147
0.1
148
0.0
 69
0
 70
0
 71
0
 72
0
 73
0
 74
0
 75
0
 76
0
 77
1
 78
12
 79
3
170
0
171
3
172
0
173
0
174
0
175
0
176
0
177
0
178
0
179
2
271
2
272
2
273
2
274
3
275
0
276
0
277
2
278
46
279
1
280
0
281
0
282
0
283
0
284
8
285
0
286
0
288
1
289
3
290
0
340
4C
342
84
371
-2
372
-2
  0
DIMSTYLE
105
88
330
4
100
AcDbSymbolTableRecord
100
AcDbDimStyleTableRecord
  2
EZ_RADIUS_INSIDE
 70
0
 40
1.0
 41
0.25
 42
0.125
 43
3.75
 44
0.375
 45
0.0
 46
0.0
 47
0.0
 48
0.0
 49
2.5
140
0.25
141
0.0
142
0.0
143
0.03937007874
144
100.0
145
0.0
146
0.5
147
0.1
148
0.0
 69
0
 70
0
 71
0
 72
0
 73
0
 74
0
 75
0
 76
0
 77
0
 78
12
 79
3
170
0
171
3
172
0
173
0
174
1
175
0
176
0
177
0
178
0
179
2
271
2
272
2
273
2
274
3
275
0
276
0
277
2
278
46
279
0
280
0
281
0
282
0
283
0
284
8
285
0
286
0
288
1
289
0
290
0
340
4C
342
84
371
-2
372
-2
  0
DIMSTYLE
105
89
330
4
100
AcDbSymbolTableRecord
100
AcDbDimStyleTableRecord
  2
EZ_CURVED
 70
0
 40
1.0
 41
0.25
 42
0.125
 43
3.75
 44
0.375
 45
0.0
 46
0.0
 47
0.0
 48
0.0
 49
2.5
140
0.25
141
2.5
142
0.0
143
0.03937007874
144
100.0
145
0.0
146
0.5
147
0.1
148
0.0
 69
0
 70
0
 71
0
 72
0
 73
0
 74
0
 75
0
 76
0
 77
1
 78
12
 79
2
 90
2
170
0
171
3
172
1
173
0
174
0
175
0
176
0
177
0
178
0
179
2
271
2
272
2
273
2
274
3
275
0
276
0
277
2
278
46
279
2
280
0
281
0
282
0
283
0
284
8
285
0
286
0
288
1
289
3
290
0
340
4C
371
-2
372
-2
  0
ENDTAB
  0
TABLE
  2
BLOCK_RECORD
  5
9
330
0
100
AcDbSymbolTable
 70
5
  0
BLOCK_RECORD
  5
17
330
9
100
AcDbSymbolTableRecord
100
AcDbBlockTableRecord
  2
*Model_Space
340
1A
 70
0
280
1
281
0
  0
BLOCK_RECORD
  5
1B
330
9
100
AcDbSymbolTableRecord
100
AcDbBlockTableRecord
  2
*Paper_Space
340
1E
 70
0
280
1
281
0
  0
BLOCK_RECORD
  5
74
330
9
100
AcDbSymbolTableRecord
100
AcDbBlockTableRecord
  2
_ARCHTICK
340
0
 70
0
280
1
281
0
  0
BLOCK_RECORD
  5
78
330
9
100
AcDbSymbolTableRecord
100
AcDbBlockTableRecord
  2
_CLOSEDFILLED
340
0
 70
0
280
1
281
0
  0
BLOCK_RECORD
  5
84
330
9
100
AcDbSymbolTableRecord
100
AcDbBlockTableRecord
  2
_CLOSEDBLANK
340
0
 70
0
280
1
281
0
  0
ENDTAB
  0
ENDSEC
  0
SECTION
  2
BLOCKS
  0
BLOCK
  5
18
330
17
100
AcDbEntity
  8
0
100
AcDbBlockBegin
  2
*Model_Space
 70
0
 10
0.0
 20
0.0
 30
0.0
  3
*Model_Space
  1

  0
ENDBLK
  5
19
330
17
100
AcDbEntity
  8
0
100
AcDbBlockEnd
  0
BLOCK
  5
1C
330
1B
100
AcDbEntity
  8
0
100
AcDbBlockBegin
  2
*Paper_Space
 70
0
 10
0.0
 20
0.0
 30
0.0
  3
*Paper_Space
  1

  0
ENDBLK
  5
1D
330
1B
100
AcDbEntity
  8
0
100
AcDbBlockEnd
  0
BLOCK
  5
75
330
74
100
AcDbEntity
  8
0
100
AcDbBlockBegin
  2
_ARCHTICK
 70
0
 10
0.0
 20
0.0
 30
0.0
  3
_ARCHTICK
  1

  0
LWPOLYLINE
  5
77
330
74
100
AcDbEntity
  8
0
  6
BYBLOCK
 62
0
100
AcDbPolyline
 90
2
 70
0
 43
0.15
 10
-0.5
 20
-0.5
 10
0.5
 20
0.5
  0
ENDBLK
  5
76
330
74
100
AcDbEntity
  8
0
100
AcDbBlockEnd
  0
BLOCK
  5
79
330
78
100
AcDbEntity
  8
0
100
AcDbBlockBegin
  2
_CLOSEDFILLED
 70
0
 10
0.0
 20
0.0
 30
0.0
  3
_CLOSEDFILLED
  1

  0
SOLID
  5
7B
330
78
100
AcDbEntity
  8
0
  6
BYBLOCK
 62
0
100
AcDbTrace
 10
-1.0
 20
0.16439898372402537
 30
0.0
 11
0.0
 21
0.0
 31
0.0
 12
-1.0
 22
-0.16439898372402537
 32
0.0
 13
-1.0
 23
-0.16439898372402537
 33
0.0
  0
ENDBLK
  5
7A
330
78
100
AcDbEntity
  8
0
100
AcDbBlockEnd
  0
BLOCK
  5
85
330
84
100
AcDbEntity
  8
0
100
AcDbBlockBegin
  2
_CLOSEDBLANK
 70
0
 10
0.0
 20
0.0
 30
0.0
  3
_CLOSEDBLANK
  1

  0
LWPOLYLINE
  5
87
330
84
100
AcDbEntity
  8
0
  6
BYBLOCK
 62
0
100
AcDbPolyline
 90
3
 70
1
 10
-1.0
 20
0.16439898372402537
 10
0.0
 20
0.0
 10
-1.0
 20
-0.16439898372402537
  0
ENDBLK
  5
86
330
84
100
AcDbEntity
  8
0
100
AcDbBlockEnd
  0
ENDSEC
  0
SECTION
  2
ENTITIES
  0
LWPOLYLINE
  5
8D
330
17
100
AcDbEntity
  8
HOJA
100
AcDbPolyline
 90
4
 70
1
 10
0.0
 20
0.0
 10
500.0
 20
0.0
 10
500.0
 20
700.0
 10
0.0
 20
700.0
  0
LWPOLYLINE
  5
8E
330
17
100
AcDbEntity
  8
CORTE
100
AcDbPolyline
 90
62
 70
1
 10
13.0
 20
13.0
 10
13.0
 20
274.0195652173913
 10
360.9760869565217
 20
274.0195652173913
 10
360.9760869565217
 20
40.144962520616545
 10
359.92109776206996
 20
41.41231196066254
 10
359.1233551511753
 20
42.33629701551976
 10
358.548559175303
 20
42.9618304870727
 10
357.9251595205566
 20
43.61592252859546
 10
357.08366793576704
 20
44.41673056330392
 10
356.1598223422248
 20
45.26129012601153
 10
355.54212040662077
 20
45.79709481428698
 10
355.0090340480559
 20
46.24122175889784
 10
353.8898142975693
 20
47.06259184375881
 10
352.28673497477274
 20
48.18657479127809
 10
352.1701294128788
 20
48.26482549988286
 10
352.0942504207624
 20
48.31345957910098
 10
350.2822198879386
 20
49.29284721155882
 10
349.17819783590994
 20
49.858017820758405
 10
348.29238512626387
 20
50.217553699178126
 10
346.26347516100105
 20
50.98658152966547
 10
346.17237758893435
 20
51.011047628486395
 10
345.78013455775096
 20
51.10660879867896
 10
343.8104665293058
 20
51.57089595759753
 10
343.35192717464537
 20
51.668392736911684
 10
341.2166873495432
 20
51.88997804050881
 10
340.4387025998863
 20
51.95421002649357
 10
338.30763620183393
 20
51.89378355101681
 10
337.52551657995286
 20
51.85660944477361
 10
334.9463810368463
 20
51.44558241097397
 10
334.6118512801787
 20
51.38658290842638
 10
333.6429829382845
 20
51.10754791560895
 10
331.69695918719395
 20
50.53189182637465
 10
330.7268966315508
 20
50.1336012312927
 10
328.78150212254064
 20
49.30946438784761
 10
326.67869018971146
 20
48.18254264552394
 10
325.86518543394874
 20
47.7332563333905
 10
324.5276032821766
 20
46.8420147589173
 10
322.947425439883
 20
45.77657567323752
 10
322.2865096170121
 20
45.2586581581221
 10
320.02944719461124
 20
43.428248142138926
 10
318.8384662805694
 20
42.33152884093147
 10
317.1108358248995
 20
40.67508946205507
 10
315.9224480503318
 20
39.404479617779685
 10
314.1916805441633
 20
37.464807965400496
 10
313.38999200658174
 20
36.47744421344848
 10
311.27198842630986
 20
33.72319148209124
 10
311.14958602758674
 20
33.55037238540937
 10
310.90173378390324
 20
33.177939278478874
 10
309.21705137329917
 20
30.62146377370962
 10
308.35330900444245
 20
29.21291314382058
 10
307.48860143710664
 20
27.69459520834373
 10
306.52669055059266
 20
25.862238529544356
 10
305.9602966989326
 20
24.766278922722258
 10
305.43410043158485
 20
23.648132641415835
 10
304.6375859372614
 20
21.839416702273674
 10
304.11229509079817
 20
20.51391165618923
 10
303.4920147671054
 20
18.911536274427636
 10
302.5140863918598
 20
16.057059638835707
 10
302.4906374895462
 20
15.984436050342152
 10
302.481654563698
 20
15.952494826802434
 10
301.6805738310515
 20
13.0
 10
13.0
 20
13.0
  0
LWPOLYLINE
  5
8F
330
17
100
AcDbEntity
  8
CORTE
100
AcDbPolyline
 90
271
 70
1
 10
168.37503128092402
 20
206.97407527776178
 10
167.91583482399935
 20
209.11437090340047
 10
167.85687772618667
 20
209.38434244792614
 10
167.8436319488708
 20
209.44217344130647
 10
167.25643519797356
 20
211.70983992506362
 10
167.07789732110325
 20
212.37055484554008
 10
166.5979454146652
 20
213.97718255288277
 10
166.18723563472417
 20
215.29907077689123
 10
165.8860139376499
 20
216.19100135502964
 10
165.17225685198846
 20
218.22770302514982
 10
165.1243854577108
 20
218.3550660718096
 10
164.9964461242172
 20
218.68359627190708
 10
164.29259658062017
 20
220.45017901138394
 10
164.00243146834904
 20
221.15512946712894
 10
163.41527835021043
 20
222.49825443787282
 10
162.6997595478974
 20
224.0840371544359
 10
162.49878448927547
 20
224.50716552050585
 10
162.07616300753656
 20
225.36973253213816
 10
161.52580405915006
 20
226.4601750183972
 10
161.23952039032477
 20
227.01146895730477
 10
160.50466598387513
 20
228.3641965657382
 10
159.62378145693057
 20
229.94065290426465
 10
159.45188834815238
 20
230.23664454155437
 10
159.15634786847124
 20
230.731463820569
 10
158.3394481031014
 20
232.04926902696872
 10
157.81862963618877
 20
232.8681607875037
 10
157.1893626457164
 20
233.82423853616544
 10
156.23581135442237
 20
235.23630039954813
 10
156.00432298594458
 20
235.56352634711567
 10
155.83627484113697
 20
235.7955977857999
 10
154.75698432302704
 20
237.24108945511486
 10
153.62258534564887
 20
238.72521216886076
 10
153.4878438166613
 20
238.89697225172003
 10
153.31677357435623
 20
239.10995912696347
 10
152.1504448933605
 20
240.48286581301372
 10
151.13521274770696
 20
241.65277473251044
 10
150.78720833036274
 20
242.04457857604066
 10
150.39700822844634
 20
242.47456899983735
 10
149.36108120945605
 20
243.540883882129
 10
148.3317743158519
 20
244.58033214038292
 10
147.90133988308574
 20
245.00603781750002
 10
147.47766536104834
 20
245.41705146932867
 10
146.37548787161091
 20
246.4017035833507
 10
145.11612626335574
 20
247.50793000079116
 10
144.81578302949055
 20
247.76686566983787
 10
144.5587716814682
 20
247.9846930727814
 10
143.1748512236235
 20
249.0464858923201
 10
141.63945276404013
 20
250.20748470350742
 10
141.50565777341444
 20
250.29702237725783
 10
141.30022835569582
 20
250.43287993340533
 10
139.73394037362084
 20
251.45001258606612
 10
138.72162787464578
 20
252.09958594745197
 10
137.91198984593913
 20
252.54681181352996
 10
136.42518371370252
 20
253.36082520636887
 10
136.0196756087694
 20
253.57922114554827
 10
135.80426540068436
 20
253.69420188539124
 10
134.01061400198492
 20
254.48794528560802
 10
132.88687976947307
 20
254.98263955227705
 10
131.92088181847848
 20
255.31527327555787
 10
129.9701847903966
 20
255.98676780715283
 10
129.73368200827537
 20
256.04455295994546
 10
128.75674343163598
 20
256.2849966009768
 10
127.38218510250432
 20
256.6173520590613
 10
127.0541944789598
 20
256.697249742326
 10
124.86086662376509
 20
257.011792868382
 10
124.13840829985803
 20
257.1178585748135
 10
122.13916368121276
 20
257.2055370945666
 10
121.22290621590308
 20
257.2500370245585
 10
119.15126452774915
 20
257.1328891635865
 10
118.30745671371764
 20
257.09000067437023
 10
115.79816265398316
 20
256.6948250945014
 10
115.3918187449437
 20
256.6334473318477
 10
114.04572432180849
 20
256.2853075115085
 10
112.47675894854511
 20
255.86908784932828
 10
111.81410904537319
 20
255.61974011817813
 10
109.56026318335053
 20
254.78692399840912
 10
106.68980758087967
 20
253.4086305109653
 10
106.64308178507942
 20
253.38649930340137
 10
106.60147279654312
 20
253.362228339688
 10
103.72638807907806
 20
251.62809509485612
 10
102.05667101258872
 20
250.43498690464554
 10
100.80903235531238
 20
249.50852504432467
 10
98.47003918319699
 20
247.50803808052785
 10
97.89098241390644
 20
246.99066986772849
 10
95.49827426451341
 20
244.58118827591497
 10
94.97224135455595
 20
244.02478869708492
 10
92.94895796712761
 20
241.65433595377752
 10
92.05286238175488
 20
240.54524769849658
 10
90.70754110589482
 20
238.7273878398465
 10
89.1329114533847
 20
236.46587592171284
 10
88.70316231388601
 20
235.80030242676975
 10
88.0427899671013
 20
234.7061128883926
 10
86.92408033035905
 20
232.8708794795862
 10
86.21344903393837
 20
231.61765803041965
 10
85.32287871714126
 20
229.94362583423728
 10
84.45784745760739
 20
228.1825008949669
 10
83.87601952143417
 20
227.0143353837919
 10
83.29331959608926
 20
225.73977131869918
 10
82.57696660354998
 20
224.0868774382841
 10
82.10837900366026
 20
222.89838424982054
 10
81.40960699624168
 20
221.15767063061324
 10
80.37257875575173
 20
218.29661338772536
 10
80.3494404908983
 20
218.22991046242666
 10
80.33905455087887
 20
218.1963801077624
 10
79.4220120948298
 20
215.30076292348912
 10
79.0508665853916
 20
213.97485773603157
 10
78.59159349354495
 20
212.37164262508648
 10
77.99499851501021
 20
209.98638082576002
 10
77.8556701152332
 20
209.4425681543559
 10
77.4522802655232
 20
207.61183837231803
 10
77.21841225489533
 20
206.51438591679704
 10
77.16724920217372
 20
206.22907996697452
 10
76.67949447644536
 20
203.58530265675026
 10
76.54123278549957
 20
202.67189213493717
 10
76.227070504361
 20
200.65622485836607
 10
76.05395502229335
 20
199.25389791025327
 10
75.85974702012457
 20
197.72718181184845
 10
75.69093615093449
 20
195.96058995684297
 10
75.57640574808944
 20
194.7981470728128
 10
75.43975560819773
 20
192.77951135818884
 10
75.3762001766652
 20
191.86913854454045
 10
75.28975591472876
 20
189.69996557133098
 10
75.25855622926689
 20
188.94012954882572
 10
75.23177099036192
 20
186.7127750093377
 10
75.22316455579276
 20
186.01113770990028
 10
75.25792394343132
 20
183.8099991236495
 10
75.26998982213082
 20
183.08213611507037
 10
75.3614359722442
 20
180.9848732384121
 10
75.39926116379311
 20
180.15314243367715
 10
75.5364944075569
 20
178.23155176428085
 10
75.61148587026868
 20
177.22414082073732
 10
75.77811560768954
 20
175.54502259260894
 10
75.90744195803819
 20
174.2951156571627
 10
76.08204622634399
 20
172.92102295017654
 10
76.28818809081919
 20
171.36608462587523
 10
76.44467879747819
 20
170.35592855479732
 10
76.75506706102944
 20
168.43702117423868
 10
76.86297349558845
 20
167.84668082912543
 10
77.30971062298002
 20
165.5079433043596
 10
77.33440137382298
 20
165.3907476786687
 10
77.45219157602517
 20
164.85622436765513
 10
77.86964177186546
 20
162.99755817570104
 10
77.96753492600757
 20
162.57985156024614
 10
78.4564402224061
 20
160.65749816898727
 10
78.7238385336288
 20
159.65081241836447
 10
79.08945280087183
 20
158.36378837926478
 10
79.57709957895248
 20
156.72171775670276
 10
79.76745565786646
 20
156.11519611094846
 10
80.37306434576637
 20
154.2710980742449
 10
80.49320241958269
 20
153.9137899240007
 10
80.53522859075754
 20
153.79407498856122
 10
81.27903589623809
 20
151.77350037469054
 10
81.62854675022268
 20
150.8649767116714
 10
82.1051225274535
 20
149.6735515851754
 10
82.83222827871012
 20
147.93580291849304
 10
82.97130539357127
 20
147.61378067827906
 10
83.29296786667999
 20
146.90243179099681
 10
83.89421660871041
 20
145.61096185625928
 10
84.18729449293303
 20
145.00851867797547
 10
84.86387623753025
 20
143.65508130724925
 10
85.68778741561415
 20
142.07926527116996
 10
85.87085528148604
 20
141.7365672997008
 10
86.21287826403379
 20
141.12496440801038
 10
86.93660607251127
 20
139.8778034479539
 10
87.37662239207647
 20
139.15225642200437
 10
88.0483875079481
 20
138.06446934136147
 10
89.13317142596574
 20
136.38512796440207
 10
89.19752695436935
 20
136.29009247282815
 10
89.24320860809422
 20
136.2255112375138
 10
90.41957816846495
 20
134.58738611164074
 10
91.38905414612324
 20
133.29605233535355
 10
91.67553290191618
 20
132.91856674567507
 10
92.05158353750812
 20
132.4449835381638
 10
92.9991240029744
 20
131.32013191907714
 10
93.83620496442457
 20
130.36943314983006
 10
94.37080308024103
 20
129.76733331056306
 10
94.97043766198573
 20
129.12172933947951
 10
95.80842398517646
 20
128.2841877114909
 10
96.68845126234582
 20
127.44292107599348
 10
97.30528679233603
 20
126.85683752355129
 10
97.88847101292917
 20
126.3272407730803
 10
98.87753725676333
 20
125.50968860925605
 10
100.13495822971007
 20
124.51641236392001
 10
100.51176043892328
 20
124.21993196582044
 10
100.80559701424514
 20
123.99913642404147
 10
102.2481346475439
 20
123.03830357234372
 10
103.723224679477
 20
122.1010044619648
 10
104.05003629383646
 20
121.9233057670597
 10
104.68841394128805
 20
121.59302307822605
 10
105.97801282606977
 20
120.92776147389748
 10
106.63844336397437
 20
120.60381426819056
 10
108.02172520528079
 20
120.05584847736912
 10
109.55412441180422
 20
119.48185981244963
 10
110.18804043867456
 20
119.30731959080897
 10
112.46895678337931
 20
118.72074793487863
 10
112.50961121606281
 20
118.71449448404846
 10
112.83359843319428
 20
118.66956679750437
 10
115.0769669017716
 20
118.35919491963377
 10
115.38214536201623
 20
118.32135208099363
 10
117.90395651454557
 20
118.27239773951537
 10
118.29625526663416
 20
118.2693808869942
 10
121.0936239927494
 20
118.54833714202123
 10
121.21049341155172
 20
118.56109244313058
 10
121.70185236436821
 20
118.66853899272239
 10
124.12561194994598
 20
119.20037231231346
 10
124.91568616670163
 20
119.46261692315566
 10
127.04092298629284
 20
120.18143405588214
 10
129.78630550530153
 20
121.42015437421284
 10
129.95717153885306
 20
121.49806591279895
 10
130.12153350206165
 20
121.59153846910006
 10
132.87437147122523
 20
123.1661669349655
 10
134.85016803090434
 20
124.51931378685772
 10
135.79230864905588
 20
125.16980979741666
 10
138.62993695300995
 20
127.44700240566327
 10
138.71097632975614
 20
127.51272095797627
 10
139.53470990326687
 20
128.2715835038884
 10
141.6306217298384
 20
130.20415817637934
 10
141.79375992417243
 20
130.37188742017003
 10
144.55058855735564
 20
133.23989975123192
 10
144.6032479023173
 20
133.30006537683948
 10
144.95005575158834
 20
133.70195339553285
 10
147.12853877126935
 20
136.23067942934924
 10
147.47056955391758
 20
136.63494354946172
 10
149.44063156002858
 20
139.15895280486217
 10
150.39135101551886
 20
140.40284587775142
 10
151.59290389884876
 20
142.08742351613895
 10
153.31246324876133
 20
144.55736895358032
 10
153.6135703287416
 20
145.0161027343783
 10
154.15044370564746
 20
145.85708299244268
 10
155.47544589060996
 20
147.9461535736669
 10
156.23315075996484
 20
149.18144995447128
 10
157.22164821072033
 20
150.8748625007905
 10
158.4985006471558
 20
153.1470064959127
 10
158.86468219699344
 20
153.80456933760576
 10
159.15392158165182
 20
154.34781443282137
 10
160.3728793277333
 20
156.7332629529893
 10
161.53069157007508
 20
159.11692395850972
 10
161.79252763633306
 20
159.6626144209746
 10
162.0747893856834
 20
160.2868083269575
 10
163.0827234524545
 20
162.59128049795308
 10
163.78379782192357
 20
164.30503357308103
 10
164.27293093124996
 20
165.52026507567322
 10
164.9958295366605
 20
167.46213643565613
 10
165.3536997420599
 20
168.44889474966575
 10
165.5321367986673
 20
168.9863658061255
 10
166.30891327621612
 20
171.37753996533496
 10
166.8546836291419
 20
173.2419700187483
 10
167.15835925053875
 20
174.30599070293522
 10
167.89031665785112
 20
177.2096248409772
 10
167.89634845671523
 20
177.23428551972637
 10
167.91571309092936
 20
177.32635102369565
 10
168.5007617407537
 20
180.1627182560112
 10
168.62287917930277
 20
180.87091260673074
 10
168.9880284193544
 20
183.09081424686042
 10
169.14907222390846
 20
184.32708624144223
 10
169.35571565419016
 20
186.01883368482459
 10
169.49468435095318
 20
187.60197815017668
 10
169.60155636481275
 20
188.94678442453713
 10
169.68157706132453
 20
190.71753155741735
 10
169.72400085251672
 20
191.87471944196633
 10
169.72889013931072
 20
193.69296376885114
 10
169.72212103126378
 20
194.80264661450155
 10
169.65319660408022
 20
196.54492833590658
 10
169.59550438359454
 20
197.7306162162934
 10
169.46872808243336
 20
199.28772364837326
 10
169.34414240200186
 20
200.65863158954096
 10
169.18762396515396
 20
201.93355699190073
 10
168.9683209674908
 20
203.58673646528447
 10
168.8201686212693
 20
204.49276918783164
 10
168.4685130414488
 20
206.51491566447936
 10
168.37503128092402
 20
206.97407527776178
  0
LWPOLYLINE
  5
90
330
17
100
AcDbEntity
  8
GRABADO
100
AcDbPolyline
 90
64
 70
1
 10
13.0
 20
274.0195652173913
 10
360.9760869565217
 20
274.0195652173913
 10
360.9760869565217
 20
49.70927767322932
 10
360.1731434376238
 20
50.44403237214377
 10
359.40375516909114
 20
51.1228136569749
 10
358.6057458116216
 20
51.79934686415821
 10
357.9322003728682
 20
52.349954132173366
 10
356.95568694114354
 20
53.06845168744124
 10
355.56804837527835
 20
54.04908094126496
 10
355.23877174365384
 20
54.27426220808144
 10
355.0160359900721
 20
54.4206048321971
 10
353.3941723100237
 20
55.34720022093184
 10
352.0988721972348
 20
56.05401819755916
 10
351.4699555966258
 20
56.339257479451916
 10
349.9940545981881
 20
56.97272725796476
 10
349.4208482686942
 20
57.21268882008249
 10
349.1847627408438
 20
57.30623647212474
 10
347.19849225873924
 20
57.905288362394074
 10
346.2696871385685
 20
58.1658368226916
 10
344.8098245579119
 20
58.43083586918688
 10
343.35538579360156
 20
58.66627238901707
 10
342.200228296694
 20
58.735114547864
 10
340.4415365565053
 20
58.80809295876877
 10
339.28656038246874
 20
58.73533582614213
 10
337.527629382333
 20
58.59564611194966
 10
335.93886945240655
 20
58.30165841054064
 10
334.6132524876051
 20
58.03696654159786
 10
331.9458965850762
 20
57.22244643600514
 10
331.6980410830193
 20
57.14360122743875
 10
331.2940307355084
 20
56.97277508355249
 10
328.7815882581525
 20
55.89541072668429
 10
326.4851203063906
 20
54.669748729984775
 10
325.8644721400529
 20
54.33265208637525
 10
325.4227846570085
 20
54.04778941109393
 10
322.9465092381657
 20
52.42390844789223
 10
321.2225625894292
 20
51.11996008144787
 10
320.0279897771645
 20
50.196941896168184
 10
317.72863859549443
 20
48.192218058101375
 10
317.10892718019636
 20
47.637377468456236
 10
314.7193839632202
 20
45.26451364662125
 10
314.18942671516777
 20
44.72096687925317
 10
312.0640859653302
 20
42.33681740178764
 10
311.2695011412709
 20
41.41034164079636
 10
309.68192312831883
 20
39.40910515311781
 10
308.3492434306894
 20
37.650920364462266
 10
307.5210914145447
 20
36.48136563845276
 10
305.81118768873154
 20
33.935222446978244
 10
305.55619320496953
 20
33.55214766474376
 10
305.42995267357344
 20
33.350468891629305
 10
303.8250429002093
 20
30.624632293993034
 10
302.5090657113707
 20
28.227339039467147
 10
302.233113936118
 20
27.697028417889648
 10
301.9760101869578
 20
27.162199707953718
 10
300.8433488875902
 20
24.768544793712586
 10
299.58911698848726
 20
21.86751304869471
 10
299.57817602873195
 20
21.840967988589917
 10
299.5717572871913
 20
21.823736398372034
 10
298.51116998935805
 20
18.912815136118628
 10
297.99062693017055
 20
17.309053149445788
 10
297.5723227770603
 20
15.984824615179635
 10
296.79819183735964
 20
13.18440655471949
 10
296.74892429873603
 20
13.0
 10
13.0
 20
13.0
 10
13.0
 20
274.0195652173913
  0
LWPOLYLINE
  5
91
330
17
100
AcDbEntity
  8
GRABADO
100
AcDbPolyline
 90
297
 70
1
 10
152.6905932396391
 20
247.5127703553231
 10
151.56611024669064
 20
248.68376974552834
 10
150.39903484104258
 20
249.87280732273825
 10
150.1091630445312
 20
250.14923192291602
 10
149.79754181509676
 20
250.44065734953963
 10
148.58972283526967
 20
251.55488336936938
 10
147.479576012001
 20
252.5590115535716
 10
147.03956433433083
 20
252.92631525275894
 10
146.50048837296498
 20
253.36861506455006
 10
145.4270853687711
 20
254.2389159901375
 10
144.56050772156172
 20
254.92937618075757
 10
143.76905050401203
 20
255.50160558601965
 10
142.65293982030758
 20
256.2966690212333
 10
142.0583133884346
 20
256.71593887559254
 10
141.6418419624469
 20
257.00521981113394
 10
140.272838725901
 20
257.85029113721305
 10
138.72301586984577
 20
258.7954024814965
 10
138.44520517754756
 20
258.9417382175902
 10
137.90755252369576
 20
259.22240433880506
 10
136.51865506886418
 20
259.94009970981375
 10
135.8053008366068
 20
260.3053877865588
 10
134.5157418236592
 20
260.85539262012554
 10
132.8876721297221
 20
261.5461487165342
 10
132.43890556779454
 20
261.69611320290727
 10
131.08363797853286
 20
262.14891663684773
 10
130.24454783582127
 20
262.426417784556
 10
129.9708070664411
 20
262.51693480532657
 10
127.9107527586696
 20
263.00940220511734
 10
127.05419917965372
 20
263.21573469692106
 10
125.43678809799003
 20
263.45177892447083
 10
124.1380235610417
 20
263.6457817761448
 10
122.78469154710751
 20
263.7157322384291
 10
121.22211774682349
 20
263.8039411586436
 10
119.899668264068
 20
263.74657479669025
 10
118.3062826269985
 20
263.68672268288594
 10
116.70111263067177
 20
263.46370526184097
 10
115.39030855488384
 20
263.29022355345074
 10
113.06714707002374
 20
262.7450692437337
 10
112.47400481017594
 20
262.61008212339954
 10
111.07758129983091
 20
262.1489443516534
 10
109.55816987309662
 20
261.63656167018775
 10
108.64529932480745
 20
261.23303298571443
 10
106.64087933765748
 20
260.36103931015964
 10
104.52954121703125
 20
259.22314467289743
 10
103.7240140625122
 20
258.77701839896736
 10
102.42439994777413
 20
257.9207058985296
 10
100.80542981925265
 20
256.86285444851063
 10
100.05909665244421
 20
256.2984107143531
 10
97.88734874981824
 20
254.59943701348195
 10
96.49969804262953
 20
253.3710570495953
 10
94.96867532667873
 20
251.96211912853164
 10
93.48405084597135
 20
250.4437653450984
 10
92.04944225559639
 20
248.91056079403424
 10
90.85808584854125
 20
247.51647559132843
 10
89.12969420555086
 20
245.39143713181846
 10
88.52608572503858
 20
244.58908200631697
 10
87.01659173431234
 20
242.46878588813104
 10
86.43618733417122
 20
241.65939452255031
 10
86.2104816115466
 20
241.32551481837663
 10
84.56957354041612
 20
238.7319543462466
 10
83.28978664041932
 20
236.57269258230946
 10
82.85941787169081
 20
235.80436367115902
 10
82.38752176867165
 20
234.89894530435996
 10
81.3174926934871
 20
232.87488224853345
 10
80.3695537760635
 20
230.93850511330658
 10
79.90649584270999
 20
229.9471128508647
 10
79.55639181579619
 20
229.13136011105038
 10
78.63244136482236
 20
227.0177204187332
 10
77.47156407450562
 20
224.11059345310468
 10
77.46253235248513
 20
224.08840893534415
 10
77.44948942647521
 20
224.053105534263
 10
76.42003877987457
 20
221.16042842801298
 10
75.93428700572625
 20
219.6410262535682
 10
75.47273627432789
 20
218.23113333895
 10
74.65582317819684
 20
215.42914378813668
 10
74.6178002131956
 20
215.3019043277112
 10
74.52866346028144
 20
214.96353353372635
 10
73.86545640156837
 20
212.3736276349836
 10
73.67523084733257
 20
211.5181611412838
 10
73.20039999569654
 20
209.44436849095638
 10
72.8757612167861
 20
207.7867994982219
 10
72.61906296457947
 20
206.51513816679238
 10
72.22822959407051
 20
204.2078933429064
 10
72.11954359199727
 20
203.58595574646898
 10
71.71618274175862
 20
200.76491211624565
 10
71.70021753569726
 20
200.65677392178986
 10
71.60767182509831
 20
199.86319389556
 10
71.3630316625597
 20
197.72801462940546
 10
71.34012932063202
 20
197.46046034891762
 10
71.10378884391729
 20
194.79876826868744
 10
71.07116772635527
 20
194.26136421171847
 10
70.92048937077277
 20
191.86954281338004
 10
70.89489092291127
 20
191.15527614867727
 10
70.81253638650085
 20
188.9403132937666
 10
70.80367325779952
 20
188.13454620561123
 10
70.7796046201249
 20
186.0110987415648
 10
70.79091783441909
 20
185.19252972991734
 10
70.82162676278466
 20
183.08187414214325
 10
70.85092463794875
 20
182.3235349873665
 10
70.93880052932633
 20
180.15265840332785
 10
70.97877311914586
 20
179.52262477053543
 10
71.13159064302471
 20
177.22343765209206
 10
71.17024064778039
 20
176.78555162488274
 10
71.40072755451104
 20
174.29419760092028
 10
71.42170946066877
 20
174.10867788410545
 10
71.60764120693733
 20
172.54142698001058
 10
71.73337059000946
 20
171.49063749543788
 10
71.749033709047
 20
171.36548643191222
 10
72.10391443889239
 20
168.93333122674895
 10
72.17983208764976
 20
168.4363162412193
 10
72.52574175811664
 20
166.42749046075363
 10
72.69179584774811
 20
165.50713627356797
 10
72.99673361251446
 20
163.97097408079284
 10
73.28675128532124
 20
162.57792103917504
 10
73.51516838062328
 20
161.56205496538078
 10
73.96680679668684
 20
159.6486893166107
 10
74.07968723838312
 20
159.19936814136273
 10
74.5285647624809
 20
157.49902709315145
 10
74.69247684477139
 20
156.88406993269015
 10
74.7381669729946
 20
156.7204953410307
 10
75.35642429480718
 20
154.62123513265084
 10
75.612825183978
 20
153.7912775040296
 10
76.06159967820885
 20
152.39974476826941
 10
76.58231204044787
 20
150.86201634568468
 10
76.8076232822466
 20
150.21920859917063
 10
77.4493004560153
 20
148.47736797814758
 10
77.59705748344743
 20
148.08168755271782
 10
77.65481503829821
 20
147.9341536774776
 10
78.43666485455093
 20
145.99512129081197
 10
78.85566613565769
 20
145.00485864807388
 10
79.31398866638392
 20
143.94634692877372
 10
80.16483928738161
 20
142.0754931971493
 10
80.22947611538476
 20
141.93580740286916
 10
80.36921371413284
 20
141.64857068336374
 10
81.19717042889063
 20
139.97778015531281
 10
81.62854455453154
 20
139.1478926282014
 10
82.20317587837947
 20
138.05809509419586
 10
83.22158845982676
 20
136.21843954752075
 10
83.24581764810928
 20
136.1750896871523
 10
83.28925799815056
 20
136.10112723870552
 10
84.3447440911608
 20
134.3493346663216
 10
85.01343484392247
 20
133.29103367370476
 10
85.47950475583852
 20
132.55875509317613
 10
86.20973770689805
 20
131.46562572862672
 10
86.65967737198672
 20
130.8151166079388
 10
86.98672139708721
 20
130.36383851060015
 10
87.89144190819648
 20
129.12182451220633
 10
89.1297119475709
 20
127.50069649752432
 10
89.15789927161093
 20
127.46543987921797
 10
89.18186162855872
 20
127.43681667449721
 10
90.49290005055309
 20
125.87565399401826
 10
91.69728801253895
 20
124.50706257300826
 10
91.86194567734692
 20
124.31988645302954
 10
92.04790719244218
 20
124.11830228802332
 10
93.30081776024949
 20
122.83726452374981
 10
94.58893068072528
 20
121.58003547977526
 10
94.78066056363456
 20
121.39251659034986
 10
94.96657514766262
 20
121.21905352979938
 10
96.33930139424334
 20
120.0308387275541
 10
97.88576979893496
 20
118.75312399086071
 10
97.94011551648174
 20
118.71231616692292
 10
98.01839995099432
 20
118.65621313046714
 10
99.64189275435264
 20
117.48996754036747
 10
100.80289545898256
 20
116.69441603681162
 10
101.40183860754567
 20
116.33184383975376
 10
102.44682861958934
 20
115.72908537521985
 10
103.25497680548776
 20
115.26104509708483
 10
103.71918791507358
 20
115.00499327585946
 10
105.21596852528795
 20
114.30520226534391
 10
106.63585455975057
 20
113.674693407115
 10
107.27498950282295
 20
113.44825715855552
 10
109.20061779372645
 20
112.80414691645201
 10
109.46534876195327
 20
112.71518011138453
 10
109.55054071091999
 20
112.68816328672341
 10
111.84029176372529
 20
112.17513980118129
 10
112.46568659799169
 20
112.04481924301457
 10
114.40910261671682
 20
111.82941378469218
 10
115.38033443077617
 20
111.73416133019745
 10
117.23427590495562
 20
111.74024981882226
 10
118.2947838565998
 20
111.7545547599139
 10
120.41279307770526
 20
112.00450355042955
 10
121.2093737901067
 20
112.10486309012958
 10
124.10103477065796
 20
112.77870356128093
 10
124.12441865240812
 20
112.78429441099723
 10
124.18067135176106
 20
112.80387060542712
 10
127.04043126052697
 20
113.79764910089006
 10
128.86415231179063
 20
114.63337433853306
 10
129.95690050707807
 20
115.138154326143
 10
130.98844717934315
 20
115.72921989073447
 10
132.874348421562
 20
116.81058422616371
 10
135.57227258141415
 20
118.65714094179785
 10
135.79250765632938
 20
118.80828506947634
 10
136.52987502789605
 20
119.39547897651683
 10
138.7114507185511
 20
121.13585525419556
 10
139.20413630487528
 20
121.58193956758754
 10
141.63100953414778
 20
123.78761341737349
 10
142.34391783397416
 20
124.51011882255065
 10
144.5511087164759
 20
126.7593391623855
 10
145.1577191083282
 20
127.43848934574557
 10
147.47166799271298
 20
130.04803640520768
 10
147.7325024332846
 20
130.36709327778235
 10
148.8660809853923
 20
131.76645121565616
 10
150.10393466329208
 20
133.29783342824285
 10
150.39228478530958
 20
133.65913956564162
 10
152.30364132334086
 20
136.22654959652954
 10
153.31349597470026
 20
137.60380227128078
 10
154.38568859829823
 20
139.15548425454884
 10
156.23496828783092
 20
141.88015257121907
 10
156.36694860209136
 20
142.08459704305986
 10
156.59638680884754
 20
142.44755184129934
 10
158.20891567962516
 20
145.01486445352288
 10
159.15608920955646
 20
146.56283180519458
 10
159.967018166251
 20
147.94401007635022
 10
161.04821088758834
 20
149.84181778323932
 10
161.63112585469358
 20
150.87396293242296
 10
162.07720510487633
 20
151.69300982287658
 10
163.1888449154779
 20
153.80309617849036
 10
164.3318312612378
 20
156.06423480638287
 10
164.66587957147766
 20
156.73269276908366
 10
164.99834563433268
 20
157.431276776274
 10
166.03278970723417
 20
159.66178647613137
 10
166.8458009897248
 20
161.51440982640815
 10
167.31130229024475
 20
162.5910228713166
 10
167.91953723527436
 20
164.0916838106734
 10
168.48759970328723
 20
165.52004111602358
 10
168.82214147558588
 20
166.42493110738013
 10
169.55612705832468
 20
168.44892447635712
 10
170.3767284536363
 20
170.91348821358307
 10
170.52789617315733
 20
171.37762841307293
 10
170.84006772819333
 20
172.43732364089567
 10
171.38383498845596
 20
174.30642407483225
 10
171.5748106993383
 20
175.04259326276048
 10
172.1265226295859
 20
177.23484103739105
 10
172.4891260789168
 20
178.88847171072422
 10
172.75852435176648
 20
180.16310903959695
 10
173.17647356372674
 20
182.5065220255067
 10
173.27602799955312
 20
183.0912637514574
 10
173.66379057707192
 20
185.92378612680605
 10
173.67608088707783
 20
186.01934383946224
 10
173.7602914922425
 20
186.90431358982042
 10
173.9535851601669
 20
188.9479708685364
 10
173.96630177475242
 20
189.15322642907034
 10
174.11069089713226
 20
191.8760109156069
 10
174.11813152921064
 20
192.2336303999525
 10
174.1479106838178
 20
194.80404173950745
 10
174.14030424784818
 20
195.1838927464455
 10
174.0648865459983
 20
197.73211173791154
 10
174.04756542307413
 20
198.0188458330931
 10
173.86164411366482
 20
200.6602227230266
 10
173.8525304737679
 20
200.75115198593457
 10
173.7604136209091
 20
201.58336609095934
 10
173.55975408114736
 20
203.38779172136557
 10
173.5355042664603
 20
203.5876011543895
 10
173.180855674696
 20
205.93561091657097
 10
173.08701912846726
 20
206.51582867874797
 10
172.72707690208654
 20
208.4083528900998
 10
172.51838428570983
 20
209.44418337120644
 10
172.205445557901
 20
210.8130793938048
 10
171.8302646773301
 20
212.37265251935344
 10
171.62178965505225
 20
213.15565096687948
 10
171.02323511512415
 20
215.30124224323097
 10
170.98090514747764
 20
215.44089269410856
 10
170.84057331943217
 20
215.88405069818288
 10
170.2731838359362
 20
217.66092137411883
 10
170.08437195448224
 20
218.22888366828295
 10
169.5145776604954
 20
219.82811402141496
 10
169.0222562716291
 20
221.15770381060887
 10
168.71114844580853
 20
221.95045532426505
 10
167.91974955668414
 20
223.89315236047193
 10
167.86334369226967
 20
224.02967493755415
 10
167.83950210782376
 20
224.08542809241735
 10
166.95684578187448
 20
226.04867878776562
 10
166.50772932557933
 20
227.0144727344884
 10
166.01427915304433
 20
228.03164014635175
 10
165.0552407687944
 20
229.94367095464253
 10
165.03660486100273
 20
229.97952636249266
 10
165.00030365476354
 20
230.04708974027278
 10
164.00152927699776
 20
231.87048469835906
 10
163.43614509484354
 20
232.87158295894417
 10
162.93585079602224
 20
233.73020294379918
 10
162.07925886738494
 20
235.15604745724045
 10
161.83386478388107
 20
235.55366689072233
 10
161.67786381166223
 20
235.79944033503955
 10
160.68148204504905
 20
237.32652431224005
 10
159.74023962416868
 20
238.7290076710163
 10
159.50347258176285
 20
239.07383733078908
 10
159.15951325995582
 20
239.56077237427036
 10
158.27531038876782
 20
240.7702956732675
 10
157.61009199839134
 20
241.65695727561717
 10
157.01461854145958
 20
242.43484711567055
 10
156.23903204324165
 20
243.42185606972276
 10
155.71550053842157
 20
244.05966898005346
 10
155.2740234468243
 20
244.58487223103822
 10
154.37096940250495
 20
245.64030989808455
 10
153.318862413068
 20
246.84075924439546
 10
152.99657485450055
 20
247.1891207339895
 10
152.6905932396391
 20
247.5127703553231
  0
TEXT
  5
92
330
17
100
AcDbEntity
  8
GRABADO
100
AcDbText
 10
256.5573436221538
 20
142.87125241169412
 30
0.0
 40
6.0
  1
07
 72
1
 11
256.5573436221538
 21
142.87125241169412
 31
0.0
100
AcDbText
 73
2
  0
LWPOLYLINE
  5
93
330
17
100
AcDbEntity
  8
CORTE
100
AcDbPolyline
 90
64
 70
1
 10
13.0
 20
283.0
 10
13.0
 20
544.0195652173913
 10
360.9760869565217
 20
544.0195652173913
 10
360.9760869565217
 20
319.7092776732293
 10
360.1731434376238
 20
320.44403237214374
 10
359.40375516909114
 20
321.12281365697487
 10
358.6057458116216
 20
321.7993468641582
 10
357.9322003728682
 20
322.34995413217337
 10
356.95568694114354
 20
323.0684516874412
 10
355.56804837527835
 20
324.04908094126495
 10
355.23877174365384
 20
324.27426220808144
 10
355.0160359900721
 20
324.4206048321971
 10
353.3941723100237
 20
325.3472002209318
 10
352.0988721972348
 20
326.0540181975592
 10
351.4699555966258
 20
326.33925747945193
 10
349.9940545981881
 20
326.9727272579647
 10
349.4208482686942
 20
327.21268882008246
 10
349.1847627408438
 20
327.30623647212474
 10
347.19849225873924
 20
327.90528836239406
 10
346.2696871385685
 20
328.1658368226916
 10
344.8098245579119
 20
328.43083586918686
 10
343.35538579360156
 20
328.6662723890171
 10
342.200228296694
 20
328.735114547864
 10
340.4415365565053
 20
328.8080929587687
 10
339.28656038246874
 20
328.73533582614215
 10
337.527629382333
 20
328.59564611194963
 10
335.93886945240655
 20
328.30165841054065
 10
334.6132524876051
 20
328.03696654159785
 10
331.9458965850762
 20
327.22244643600516
 10
331.6980410830193
 20
327.14360122743875
 10
331.2940307355084
 20
326.9727750835525
 10
328.7815882581525
 20
325.8954107266843
 10
326.4851203063906
 20
324.66974872998475
 10
325.8644721400529
 20
324.3326520863752
 10
325.4227846570085
 20
324.0477894110939
 10
322.9465092381657
 20
322.42390844789225
 10
321.2225625894292
 20
321.11996008144786
 10
320.0279897771645
 20
320.1969418961682
 10
317.72863859549443
 20
318.1922180581014
 10
317.10892718019636
 20
317.63737746845624
 10
314.7193839632202
 20
315.26451364662125
 10
314.18942671516777
 20
314.7209668792532
 10
312.0640859653302
 20
312.33681740178764
 10
311.2695011412709
 20
311.41034164079633
 10
309.68192312831883
 20
309.4091051531178
 10
308.3492434306894
 20
307.65092036446225
 10
307.5210914145447
 20
306.48136563845276
 10
305.81118768873154
 20
303.93522244697823
 10
305.55619320496953
 20
303.55214766474376
 10
305.42995267357344
 20
303.3504688916293
 10
303.8250429002093
 20
300.62463229399305
 10
302.5090657113707
 20
298.22733903946715
 10
302.233113936118
 20
297.6970284178896
 10
301.9760101869578
 20
297.16219970795373
 10
300.8433488875902
 20
294.7685447937126
 10
299.58911698848726
 20
291.8675130486947
 10
299.57817602873195
 20
291.8409679885899
 10
299.5717572871913
 20
291.82373639837203
 10
298.51116998935805
 20
288.91281513611864
 10
297.99062693017055
 20
287.3090531494458
 10
297.5723227770603
 20
285.9848246151796
 10
296.79819183735964
 20
283.1844065547195
 10
296.74892429873603
 20
283.0
 10
13.0
 20
283.0
  0
LWPOLYLINE
  5
94
330
17
100
AcDbEntity
  8
CORTE
100
AcDbPolyline
 90
297
 70
1
 10
152.99657485450055
 20
517.1891207339895
 10
152.6905932396391
 20
517.5127703553231
 10
151.56611024669064
 20
518.6837697455284
 10
150.39903484104258
 20
519.8728073227383
 10
150.1091630445312
 20
520.149231922916
 10
149.79754181509676
 20
520.4406573495396
 10
148.58972283526967
 20
521.5548833693693
 10
147.479576012001
 20
522.5590115535716
 10
147.03956433433083
 20
522.926315252759
 10
146.50048837296498
 20
523.3686150645501
 10
145.4270853687711
 20
524.2389159901375
 10
144.56050772156172
 20
524.9293761807576
 10
143.76905050401203
 20
525.5016055860197
 10
142.65293982030758
 20
526.2966690212332
 10
142.0583133884346
 20
526.7159388755925
 10
141.6418419624469
 20
527.0052198111339
 10
140.272838725901
 20
527.850291137213
 10
138.72301586984577
 20
528.7954024814965
 10
138.44520517754756
 20
528.9417382175902
 10
137.90755252369576
 20
529.2224043388051
 10
136.51865506886418
 20
529.9400997098137
 10
135.8053008366068
 20
530.3053877865589
 10
134.5157418236592
 20
530.8553926201255
 10
132.8876721297221
 20
531.5461487165342
 10
132.43890556779454
 20
531.6961132029073
 10
131.08363797853286
 20
532.1489166368477
 10
130.24454783582127
 20
532.426417784556
 10
129.9708070664411
 20
532.5169348053265
 10
127.9107527586696
 20
533.0094022051173
 10
127.05419917965372
 20
533.2157346969211
 10
125.43678809799003
 20
533.4517789244708
 10
124.1380235610417
 20
533.6457817761448
 10
122.78469154710751
 20
533.7157322384292
 10
121.22211774682349
 20
533.8039411586436
 10
119.899668264068
 20
533.7465747966902
 10
118.3062826269985
 20
533.6867226828859
 10
116.70111263067177
 20
533.4637052618409
 10
115.39030855488384
 20
533.2902235534507
 10
113.06714707002374
 20
532.7450692437337
 10
112.47400481017594
 20
532.6100821233995
 10
111.07758129983091
 20
532.1489443516534
 10
109.55816987309662
 20
531.6365616701877
 10
108.64529932480745
 20
531.2330329857144
 10
106.64087933765748
 20
530.3610393101596
 10
104.52954121703125
 20
529.2231446728974
 10
103.7240140625122
 20
528.7770183989674
 10
102.42439994777413
 20
527.9207058985296
 10
100.80542981925265
 20
526.8628544485106
 10
100.05909665244421
 20
526.2984107143532
 10
97.88734874981824
 20
524.599437013482
 10
96.49969804262953
 20
523.3710570495953
 10
94.96867532667873
 20
521.9621191285316
 10
93.48405084597135
 20
520.4437653450984
 10
92.04944225559639
 20
518.9105607940343
 10
90.85808584854125
 20
517.5164755913285
 10
89.12969420555086
 20
515.3914371318185
 10
88.52608572503858
 20
514.589082006317
 10
87.01659173431234
 20
512.468785888131
 10
86.43618733417122
 20
511.6593945225503
 10
86.2104816115466
 20
511.32551481837663
 10
84.56957354041612
 20
508.7319543462466
 10
83.28978664041932
 20
506.57269258230946
 10
82.85941787169081
 20
505.804363671159
 10
82.38752176867165
 20
504.8989453043599
 10
81.3174926934871
 20
502.8748822485335
 10
80.3695537760635
 20
500.9385051133066
 10
79.90649584270999
 20
499.9471128508647
 10
79.55639181579619
 20
499.1313601110504
 10
78.63244136482236
 20
497.01772041873323
 10
77.47156407450562
 20
494.1105934531047
 10
77.46253235248513
 20
494.08840893534415
 10
77.44948942647521
 20
494.053105534263
 10
76.42003877987457
 20
491.160428428013
 10
75.93428700572625
 20
489.6410262535682
 10
75.47273627432789
 20
488.23113333895003
 10
74.65582317819684
 20
485.4291437881367
 10
74.6178002131956
 20
485.3019043277112
 10
74.52866346028144
 20
484.9635335337264
 10
73.86545640156837
 20
482.37362763498356
 10
73.67523084733257
 20
481.5181611412838
 10
73.20039999569654
 20
479.4443684909564
 10
72.8757612167861
 20
477.7867994982219
 10
72.61906296457947
 20
476.5151381667924
 10
72.22822959407051
 20
474.2078933429064
 10
72.11954359199727
 20
473.585955746469
 10
71.71618274175862
 20
470.7649121162457
 10
71.70021753569726
 20
470.65677392178986
 10
71.60767182509831
 20
469.86319389556
 10
71.3630316625597
 20
467.7280146294055
 10
71.34012932063202
 20
467.46046034891765
 10
71.10378884391729
 20
464.79876826868747
 10
71.07116772635527
 20
464.2613642117185
 10
70.92048937077277
 20
461.86954281338
 10
70.89489092291127
 20
461.1552761486773
 10
70.81253638650085
 20
458.9403132937666
 10
70.80367325779952
 20
458.13454620561123
 10
70.7796046201249
 20
456.0110987415648
 10
70.79091783441909
 20
455.19252972991734
 10
70.82162676278466
 20
453.08187414214325
 10
70.85092463794875
 20
452.3235349873665
 10
70.93880052932633
 20
450.15265840332785
 10
70.97877311914586
 20
449.52262477053546
 10
71.13159064302471
 20
447.22343765209206
 10
71.17024064778039
 20
446.7855516248827
 10
71.40072755451104
 20
444.29419760092026
 10
71.42170946066877
 20
444.1086778841054
 10
71.60764120693733
 20
442.54142698001056
 10
71.73337059000946
 20
441.4906374954379
 10
71.749033709047
 20
441.36548643191225
 10
72.10391443889239
 20
438.9333312267489
 10
72.17983208764976
 20
438.4363162412193
 10
72.52574175811664
 20
436.42749046075363
 10
72.69179584774811
 20
435.507136273568
 10
72.99673361251446
 20
433.97097408079287
 10
73.28675128532124
 20
432.57792103917507
 10
73.51516838062328
 20
431.56205496538075
 10
73.96680679668684
 20
429.64868931661067
 10
74.07968723838312
 20
429.1993681413627
 10
74.5285647624809
 20
427.4990270931514
 10
74.69247684477139
 20
426.8840699326902
 10
74.7381669729946
 20
426.7204953410307
 10
75.35642429480718
 20
424.62123513265084
 10
75.612825183978
 20
423.7912775040296
 10
76.06159967820885
 20
422.39974476826944
 10
76.58231204044787
 20
420.86201634568465
 10
76.8076232822466
 20
420.21920859917066
 10
77.4493004560153
 20
418.4773679781476
 10
77.59705748344743
 20
418.0816875527178
 10
77.65481503829821
 20
417.93415367747764
 10
78.43666485455093
 20
415.995121290812
 10
78.85566613565769
 20
415.0048586480739
 10
79.31398866638392
 20
413.9463469287737
 10
80.16483928738161
 20
412.0754931971493
 10
80.22947611538476
 20
411.93580740286916
 10
80.36921371413284
 20
411.64857068336374
 10
81.19717042889063
 20
409.9777801553128
 10
81.62854455453154
 20
409.14789262820136
 10
82.20317587837947
 20
408.05809509419583
 10
83.22158845982676
 20
406.21843954752075
 10
83.24581764810928
 20
406.1750896871523
 10
83.28925799815056
 20
406.1011272387055
 10
84.3447440911608
 20
404.3493346663216
 10
85.01343484392247
 20
403.29103367370476
 10
85.47950475583852
 20
402.55875509317616
 10
86.20973770689805
 20
401.4656257286267
 10
86.65967737198672
 20
400.81511660793876
 10
86.98672139708721
 20
400.36383851060015
 10
87.89144190819648
 20
399.12182451220633
 10
89.1297119475709
 20
397.5006964975243
 10
89.15789927161093
 20
397.46543987921797
 10
89.18186162855872
 20
397.4368166744972
 10
90.49290005055309
 20
395.87565399401825
 10
91.69728801253895
 20
394.5070625730082
 10
91.86194567734692
 20
394.31988645302954
 10
92.04790719244218
 20
394.1183022880233
 10
93.30081776024949
 20
392.8372645237498
 10
94.58893068072528
 20
391.58003547977523
 10
94.78066056363456
 20
391.3925165903498
 10
94.96657514766262
 20
391.21905352979934
 10
96.33930139424334
 20
390.03083872755406
 10
97.88576979893496
 20
388.7531239908607
 10
97.94011551648174
 20
388.7123161669229
 10
98.01839995099432
 20
388.6562131304671
 10
99.64189275435264
 20
387.48996754036745
 10
100.80289545898256
 20
386.6944160368116
 10
101.40183860754567
 20
386.33184383975373
 10
102.44682861958934
 20
385.7290853752198
 10
103.25497680548776
 20
385.26104509708483
 10
103.71918791507358
 20
385.0049932758594
 10
105.21596852528795
 20
384.3052022653439
 10
106.63585455975057
 20
383.674693407115
 10
107.27498950282295
 20
383.4482571585555
 10
109.20061779372645
 20
382.804146916452
 10
109.46534876195327
 20
382.7151801113845
 10
109.55054071091999
 20
382.6881632867234
 10
111.84029176372529
 20
382.1751398011813
 10
112.46568659799169
 20
382.04481924301456
 10
114.40910261671682
 20
381.8294137846922
 10
115.38033443077617
 20
381.7341613301974
 10
117.23427590495562
 20
381.74024981882224
 10
118.2947838565998
 20
381.7545547599139
 10
120.41279307770526
 20
382.00450355042955
 10
121.2093737901067
 20
382.1048630901296
 10
124.10103477065796
 20
382.7787035612809
 10
124.12441865240812
 20
382.78429441099723
 10
124.18067135176106
 20
382.8038706054271
 10
127.04043126052697
 20
383.79764910089006
 10
128.86415231179063
 20
384.63337433853303
 10
129.95690050707807
 20
385.13815432614297
 10
130.98844717934315
 20
385.72921989073444
 10
132.874348421562
 20
386.8105842261637
 10
135.57227258141415
 20
388.6571409417978
 10
135.79250765632938
 20
388.8082850694763
 10
136.52987502789605
 20
389.3954789765168
 10
138.7114507185511
 20
391.1358552541956
 10
139.20413630487528
 20
391.58193956758754
 10
141.63100953414778
 20
393.78761341737345
 10
142.34391783397416
 20
394.5101188225506
 10
144.5511087164759
 20
396.75933916238546
 10
145.1577191083282
 20
397.43848934574555
 10
147.47166799271298
 20
400.04803640520765
 10
147.7325024332846
 20
400.3670932777824
 10
148.8660809853923
 20
401.76645121565616
 10
150.10393466329208
 20
403.2978334282428
 10
150.39228478530958
 20
403.6591395656416
 10
152.30364132334086
 20
406.22654959652954
 10
153.31349597470026
 20
407.60380227128076
 10
154.38568859829823
 20
409.1554842545488
 10
156.23496828783092
 20
411.88015257121907
 10
156.36694860209136
 20
412.08459704305983
 10
156.59638680884754
 20
412.44755184129934
 10
158.20891567962516
 20
415.0148644535229
 10
159.15608920955646
 20
416.5628318051946
 10
159.967018166251
 20
417.9440100763502
 10
161.04821088758834
 20
419.8418177832393
 10
161.63112585469358
 20
420.87396293242296
 10
162.07720510487633
 20
421.69300982287655
 10
163.1888449154779
 20
423.80309617849036
 10
164.3318312612378
 20
426.06423480638284
 10
164.66587957147766
 20
426.73269276908366
 10
164.99834563433268
 20
427.431276776274
 10
166.03278970723417
 20
429.6617864761314
 10
166.8458009897248
 20
431.51440982640815
 10
167.31130229024475
 20
432.59102287131657
 10
167.91953723527436
 20
434.09168381067343
 10
168.48759970328723
 20
435.52004111602355
 10
168.82214147558588
 20
436.42493110738013
 10
169.55612705832468
 20
438.4489244763571
 10
170.3767284536363
 20
440.91348821358304
 10
170.52789617315733
 20
441.3776284130729
 10
170.84006772819333
 20
442.43732364089567
 10
171.38383498845596
 20
444.30642407483225
 10
171.5748106993383
 20
445.0425932627605
 10
172.1265226295859
 20
447.23484103739105
 10
172.4891260789168
 20
448.8884717107242
 10
172.75852435176648
 20
450.163109039597
 10
173.17647356372674
 20
452.5065220255067
 10
173.27602799955312
 20
453.0912637514574
 10
173.66379057707192
 20
455.923786126806
 10
173.67608088707783
 20
456.01934383946224
 10
173.7602914922425
 20
456.9043135898204
 10
173.9535851601669
 20
458.9479708685364
 10
173.96630177475242
 20
459.15322642907034
 10
174.11069089713226
 20
461.8760109156069
 10
174.11813152921064
 20
462.2336303999525
 10
174.1479106838178
 20
464.80404173950745
 10
174.14030424784818
 20
465.1838927464455
 10
174.0648865459983
 20
467.7321117379115
 10
174.04756542307413
 20
468.0188458330931
 10
173.86164411366482
 20
470.6602227230266
 10
173.8525304737679
 20
470.7511519859346
 10
173.7604136209091
 20
471.5833660909593
 10
173.55975408114736
 20
473.3877917213656
 10
173.5355042664603
 20
473.5876011543895
 10
173.180855674696
 20
475.93561091657097
 10
173.08701912846726
 20
476.515828678748
 10
172.72707690208654
 20
478.40835289009976
 10
172.51838428570983
 20
479.44418337120646
 10
172.205445557901
 20
480.8130793938048
 10
171.8302646773301
 20
482.37265251935344
 10
171.62178965505225
 20
483.1556509668795
 10
171.02323511512415
 20
485.30124224323094
 10
170.98090514747764
 20
485.4408926941086
 10
170.84057331943217
 20
485.8840506981829
 10
170.2731838359362
 20
487.66092137411886
 10
170.08437195448224
 20
488.22888366828295
 10
169.5145776604954
 20
489.828114021415
 10
169.0222562716291
 20
491.15770381060884
 10
168.71114844580853
 20
491.950455324265
 10
167.91974955668414
 20
493.89315236047196
 10
167.86334369226967
 20
494.02967493755415
 10
167.83950210782376
 20
494.0854280924174
 10
166.95684578187448
 20
496.04867878776565
 10
166.50772932557933
 20
497.01447273448844
 10
166.01427915304433
 20
498.0316401463517
 10
165.0552407687944
 20
499.9436709546425
 10
165.03660486100273
 20
499.97952636249266
 10
165.00030365476354
 20
500.0470897402728
 10
164.00152927699776
 20
501.87048469835906
 10
163.43614509484354
 20
502.87158295894415
 10
162.93585079602224
 20
503.7302029437992
 10
162.07925886738494
 20
505.15604745724045
 10
161.83386478388107
 20
505.5536668907223
 10
161.67786381166223
 20
505.79944033503955
 10
160.68148204504905
 20
507.32652431224005
 10
159.74023962416868
 20
508.7290076710163
 10
159.50347258176285
 20
509.07383733078905
 10
159.15951325995582
 20
509.56077237427036
 10
158.27531038876782
 20
510.77029567326747
 10
157.61009199839134
 20
511.6569572756172
 10
157.01461854145958
 20
512.4348471156706
 10
156.23903204324165
 20
513.4218560697227
 10
155.71550053842157
 20
514.0596689800534
 10
155.2740234468243
 20
514.5848722310382
 10
154.37096940250495
 20
515.6403098980845
 10
153.318862413068
 20
516.8407592443955
 10
152.99657485450055
 20
517.1891207339895
  0
LWPOLYLINE
  5
95
330
17
100
AcDbEntity
  8
GRABADO
100
AcDbPolyline
 90
66
 70
1
 10
13.0
 20
544.0195652173913
 10
360.9760869565217
 20
544.0195652173913
 10
360.9760869565217
 20
327.66686667065784
 10
359.61967429083563
 20
328.67149005442275
 10
357.93615694427143
 20
329.87491343070576
 10
357.91653057180616
 20
329.88745803801805
 10
357.88179690369356
 20
329.9087996677518
 10
356.090553289902
 20
330.9846501238512
 10
355.01977660687567
 20
331.60346739554996
 10
354.19946667276446
 20
332.0112492808248
 10
352.46453474397595
 20
332.8361791433059
 10
352.2169333639691
 20
332.9519105658354
 10
352.10423993518486
 20
333.0023672840777
 10
350.0829554003891
 20
333.7342659336095
 10
349.1880518241361
 20
334.0416547210974
 10
347.82019934084417
 20
334.3869154401071
 10
346.2727686252125
 20
334.7504544153805
 10
345.3917408126021
 20
334.8732388466913
 10
343.3581345346396
 20
335.1235514526141
 10
342.7423368632148
 20
335.13834932063276
 10
340.4438534034301
 20
335.1591430214081
 10
339.787979230457
 20
335.0984899261209
 10
337.5294689046282
 20
334.8589102076141
 10
336.39719285378516
 20
334.62222822886304
 10
334.6146307316619
 20
334.22800002961986
 10
332.35585966263716
 20
333.4950041389084
 10
331.6990219116499
 20
333.27490944873284
 10
330.6949868658622
 20
332.83533776007977
 10
328.78208873187356
 20
331.99433844122024
 10
326.96058077955934
 20
331.0086240541358
 10
325.8646915578793
 20
330.406712391411
 10
325.09817821087836
 20
329.9100129623725
 10
322.94625441260973
 20
328.50739012283276
 10
320.9062915105936
 20
326.98182296341577
 10
320.02727019704196
 20
326.3180052582741
 10
317.3577610319883
 20
324.0536387004584
 10
317.10777756905173
 20
323.8385502026767
 10
314.252919905456
 20
321.1254276028332
 10
314.1878995025169
 20
321.06243072027064
 10
311.47358974386015
 20
318.1971831973967
 10
311.2676604776254
 20
317.9743205809303
 10
308.94692649381557
 20
315.2689090949052
 10
308.3471607949797
 20
314.5476927908779
 10
306.6266471266081
 20
312.3406154319159
 10
305.4264216925848
 20
310.74185962231314
 10
304.48288082916514
 20
309.4123050450036
 10
302.50545315917657
 20
306.4982337670642
 10
302.49624674697696
 20
306.4839871223347
 10
302.4805909773645
 20
306.4584571869058
 10
300.7169868861815
 20
303.55474714262743
 10
299.58547835521614
 20
301.5754194337388
 10
299.06626570283817
 20
300.6266461626776
 10
298.5208515228872
 20
299.55873355851315
 10
297.5828019756473
 20
297.69786585299
 10
296.6653126684061
 20
295.72914620303163
 10
296.2352813742299
 20
294.76988691818116
 10
295.9344545929952
 20
294.03703349243364
 10
295.0489103896238
 20
291.8414606215431
 10
294.11472166753754
 20
289.28277560283965
 10
293.98260742851716
 20
288.9132013025955
 10
293.7457619468636
 20
288.1714058769795
 10
293.07169687701474
 20
285.98522502012156
 10
292.8192422853983
 20
285.0567067726742
 10
292.27665777100844
 20
283.0
 10
13.0
 20
283.0
 10
13.0
 20
544.0195652173913
  0
LWPOLYLINE
  5
96
330
17
100
AcDbEntity
  8
GRABADO
100
AcDbPolyline
 90
319
 70
1
 10
178.43458485970663
 20
467.7328499921602
 10
178.35067288283747
 20
469.40371206234926
 10
178.27460987205401
 20
470.66098324361235
 10
178.1434789098592
 20
472.1238838971981
 10
177.99632299765318
 20
473.5891979307767
 10
177.8467508551752
 20
474.75423758913166
 10
177.60031681707179
 20
476.51747680559595
 10
177.4694721883433
 20
477.30380627494424
 10
177.08722763011943
 20
479.4458767320833
 10
177.01915224366155
 20
479.7801597324028
 10
176.68456323273088
 20
481.3259613082789
 10
176.49864262264566
 20
482.18831243680006
 10
176.45641494982905
 20
482.37355546427244
 10
175.91226890618847
 20
484.52822130322
 10
175.7066321026459
 20
485.3021660068632
 10
175.27054575657243
 20
486.81266946518326
 10
174.841199585784
 20
488.23087387617585
 10
174.5772251290968
 20
489.0454455269255
 10
173.86036280767559
 20
491.15972463054044
 10
173.83530998478503
 20
491.2295805828389
 10
173.7647239131727
 20
491.41797657093036
 10
173.03775013938943
 20
493.35959137504767
 10
172.753871914401
 20
494.0877370004997
 10
172.19847672500302
 20
495.4461323282124
 10
171.53036329973799
 20
497.01680052060385
 10
171.31961560637416
 20
497.49307392715787
 10
170.84394021302822
 20
498.5268812028039
 10
170.39587215043179
 20
499.4962637499734
 10
170.18086547872193
 20
499.9449137073915
 10
169.43107178291595
 20
501.4571059332288
 10
168.70270880530214
 20
502.87423715230784
 10
168.43292696999865
 20
503.38462703327707
 10
167.92343950913286
 20
504.3145328667882
 10
167.39369973330227
 20
505.2716820119232
 10
167.0900398508021
 20
505.8024416536905
 10
166.31722983536477
 20
507.12074093584204
 10
165.34074382837903
 20
508.73198199393005
 10
165.21170351165173
 20
508.94079006361744
 10
165.00317728039605
 20
509.26711319793276
 10
164.0618939747671
 20
510.7165943826835
 10
163.42986396375431
 20
511.660278864264
 10
162.8829894693435
 20
512.4631893427418
 10
162.08219439980283
 20
513.6028840634818
 10
161.67019252013586
 20
514.1754549797538
 10
161.36432629594833
 20
514.5885429103113
 10
160.41780550139953
 20
515.848491930007
 10
159.16144741366352
 20
517.4732769370014
 10
159.14221045186835
 20
517.4973662353016
 10
159.12629489485397
 20
517.5167767291002
 10
157.815364955924
 20
519.0958832036288
 10
156.66350742575025
 20
520.4468244902024
 10
156.46805721453515
 20
520.6740362244456
 10
156.24181108512002
 20
520.9300438653906
 10
155.07178827491722
 20
522.20147516605
 10
153.9648576206965
 20
523.3751793982923
 10
153.65074125063035
 20
523.7058718508555
 10
153.32153336640243
 20
524.0439558669352
 10
152.17994136998098
 20
525.1581058681062
 10
150.97974458431915
 20
526.3035314238072
 10
150.68226785353062
 20
526.5858577396817
 10
150.40153842965617
 20
526.8463310041479
 10
149.12909749908766
 20
527.9549933884928
 10
147.63375997887135
 20
529.2318788471267
 10
147.55097709711202
 20
529.3022825690281
 10
147.48184794216164
 20
529.3598895987286
 10
145.90438860907122
 20
530.5772510354902
 10
144.56190539006525
 20
531.5949972787004
 10
144.2300877746287
 20
531.8238367699317
 10
143.73814686540788
 20
532.1580069431832
 10
142.4860073252353
 20
533.0050406127145
 10
141.6429981575906
 20
533.5666670719284
 10
140.69216687595852
 20
534.1312650152543
 10
139.0634290610127
 20
535.0864952231336
 10
138.8480842585406
 20
535.2124434623837
 10
138.7244514684015
 20
535.2838569150431
 10
136.91030728579082
 20
536.1938923440728
 10
135.806014339683
 20
536.7427813582174
 10
134.912385796182
 20
537.1145256401704
 10
132.88817369574002
 20
537.9521720805881
 10
132.84593878279858
 20
537.96603650663
 10
132.70876182417356
 20
538.011062736809
 10
130.64167206585702
 20
538.6865675502653
 10
129.97093106642583
 20
538.9057378311751
 10
128.33496539008328
 20
539.297060512545
 10
127.05404189887358
 20
539.6058283145567
 10
125.9002216455782
 20
539.7791070176476
 10
124.13755771396805
 20
540.0499214836377
 10
123.30453703657463
 20
540.0999362302498
 10
121.22133497528041
 20
540.2350402950218
 10
120.50105813683739
 20
540.2127975986243
 10
118.30519792609576
 20
540.1579456591821
 10
117.42204615295043
 20
540.0499729437727
 10
115.38895886389419
 20
539.8150813696718
 10
113.96736554545919
 20
539.511203658846
 10
112.472443218791
 20
539.2025320063597
 10
109.98442330351482
 20
538.4435550261012
 10
109.55551022917888
 20
538.315959984581
 10
108.78928860415542
 20
538.0126814176546
 10
106.63894718490988
 20
537.1471081111733
 10
104.91111631845824
 20
536.2799444040836
 10
103.72095542314693
 20
535.6910984773033
 10
102.70145061274793
 20
535.0868871340334
 10
100.80333674431498
 20
533.9356804184259
 10
98.2812109173512
 20
532.1590565776382
 10
97.88519045073461
 20
531.8722317691398
 10
96.29355334177103
 20
530.5642691391065
 10
94.96549003229144
 20
529.4776309575944
 10
94.69844543369115
 20
529.2339923487386
 10
92.04629336800309
 20
526.7292912531001
 10
91.63841553447652
 20
526.3063317551803
 10
89.12663823651882
 20
523.5964678582117
 10
88.94033128656625
 20
523.378618076772
 10
88.08513561761058
 20
522.3327734156846
 10
86.53748743592035
 20
520.4486849260453
 10
86.20752792212892
 20
520.0271979384959
 10
84.37549255799452
 20
517.5210155125219
 10
83.28703186907187
 20
515.9497813464051
 10
82.40077127848646
 20
514.5932099328127
 10
80.97062116650085
 20
512.2694426592271
 10
80.59343320946006
 20
511.66351659907
 10
80.36704961100044
 20
511.2759901812193
 10
78.95405035690999
 20
508.7356336508362
 10
77.44584676108076
 20
505.82719134932756
 10
77.43610266844144
 20
505.8076167973216
 10
77.42742205138869
 20
505.7887792074372
 10
76.06072227029023
 20
502.87807075904675
 10
74.99870595412584
 20
500.42299194455643
 10
74.78939035316138
 20
499.94857821089937
 10
74.52575763135728
 20
499.2965665201018
 10
73.63439339136276
 20
497.0204045342847
 10
73.13996666966129
 20
495.6306832933684
 10
72.57872434244912
 20
494.09098435160564
 10
71.6198451317236
 20
491.176285316998
 10
71.61488466253381
 20
491.161583412641
 10
71.60503010534384
 20
491.1289785534073
 10
70.75005685879952
 20
488.2331948742602
 10
70.44640772297903
 20
487.0715631293629
 10
69.97020714431837
 20
485.30382468534776
 10
69.46307135932712
 20
483.15565709292133
 10
69.2728193654267
 20
482.3744608975792
 10
68.68366829154441
 20
479.58009656080526
 10
68.65577468476813
 20
479.44580091884995
 10
68.64987478679316
 20
479.41238111762846
 10
68.11974368358679
 20
476.51641080821753
 10
68.01785273311837
 20
475.8489143347624
 10
67.6594791842256
 20
473.58705992125766
 10
67.50752999605565
 20
472.4075570258922
 10
67.27331393801079
 20
470.6577015430049
 10
67.1071743082747
 20
469.0765192770988
 10
66.9598608912348
 20
467.7283667737546
 10
66.80665184454604
 20
465.8456477807422
 10
66.71800610341226
 20
464.7990311510655
 10
66.59718550542058
 20
462.7061427112841
 10
66.54689954075417
 20
461.86971446144776
 10
66.47117149805005
 20
459.6503694227197
 10
66.44594551432019
 20
458.94039225162237
 10
66.42202929058043
 20
456.6717511317429
 10
66.41481734821737
 20
456.0110843514511
 10
66.44406400745014
 20
453.7645214925569
 10
66.45343837447184
 20
453.08176601060734
 10
66.53234813048391
 20
450.92379016409666
 10
66.56198460843792
 20
450.15245723684427
 10
66.68264754405689
 20
448.1452914398972
 10
66.74089664117463
 20
447.22314430181666
 10
66.89132259993202
 20
445.4253634364949
 10
66.99087304453602
 20
444.2938140169947
 10
67.1552777945087
 20
442.76090844986277
 10
67.31287775408428
 20
441.3644858366878
 10
67.47188942820033
 20
440.1492894961807
 10
67.70814301539701
 20
438.4351354752584
 10
67.8389713167254
 20
437.58830999776524
 10
68.17818899454217
 20
435.50578273663245
 10
68.25473330928948
 20
435.07617774545906
 10
68.68396652663016
 20
432.7935854556846
 10
68.71829928164135
 20
432.6107271885022
 10
68.72493690663028
 20
432.57711939862156
 10
69.23136975095142
 20
430.19630973483083
 10
69.35422492455868
 20
429.64780624229434
 10
69.78751562100861
 20
427.82509917011976
 10
70.06479965218274
 20
426.71845688837266
 10
70.38594360742985
 20
425.4963052242054
 10
70.8592730248786
 20
423.7890909862547
 10
71.02614332236676
 20
423.20941292011923
 10
71.60492413276481
 20
421.30583312193767
 10
71.70879237150243
 20
420.96425025676626
 10
71.74191807869586
 20
420.86078859267576
 10
72.43508907707046
 20
418.7638037061366
 10
72.725095568863
 20
417.93140685433184
 10
73.19980945948257
 20
416.60188760184053
 10
73.80250673050837
 20
415.00199518720734
 10
74.00321199510057
 20
414.47875241874937
 10
74.52556726273836
 20
413.1893003141945
 10
74.84784882610776
 20
412.3965694925679
 10
74.9859786796243
 20
412.07392463633437
 10
75.73280651091233
 20
410.3553042126116
 10
76.28743306590356
 20
409.14446520927737
 10
76.65449843310101
 20
408.35084430360234
 10
77.44632527935802
 20
406.7282572454043
 10
77.61511796468038
 20
406.38547112623183
 10
77.70262969148922
 20
406.21658808399644
 10
78.61820217172298
 20
404.4626958048894
 10
79.2646247293878
 20
403.2870457240673
 10
79.65697055675781
 20
402.5756541257941
 10
80.36660170477516
 20
401.35517419547733
 10
80.73597218635744
 20
400.7295693339073
 10
80.96587706003379
 20
400.35933654016264
 10
81.85739279653522
 20
398.92543373489264
 10
82.83632786973452
 20
397.429663858978
 10
83.01439397037974
 20
397.15690552927254
 10
83.28636765600062
 20
396.7614660643497
 10
84.2184745604136
 20
395.43687306617767
 10
84.9100298847455
 20
394.50206224311387
 10
85.46109369029742
 20
393.7541924643591
 10
86.20661873160275
 20
392.7925166533763
 10
86.74748175481807
 20
392.11730436074953
 10
87.20402403823728
 20
391.57459433641924
 10
88.08132581569821
 20
390.5260666729825
 10
89.12639127490627
 20
389.33756527589463
 10
89.45626705990577
 20
388.9786674408692
 10
89.77592129574465
 20
388.647250839355
 10
90.88842858181503
 20
387.4859426255316
 10
92.0456260241051
 20
386.3355323821255
 10
92.36232700304768
 20
386.0385072047011
 10
92.71857512977145
 20
385.71995850458285
 10
93.90180050500237
 20
384.6532862288881
 10
94.96424654391082
 20
383.7406122682046
 10
95.49036602990826
 20
383.32161324913176
 10
96.18693833103667
 20
382.79266398153885
 10
97.1486663874122
 20
382.05539780393394
 10
97.88219110361187
 20
381.5194572428271
 10
98.8746724904269
 20
380.8623075785296
 10
100.45468572386928
 20
379.8652413302648
 10
100.66669399719892
 20
379.7299998308613
 10
100.79941071232234
 20
379.64933810748306
 10
102.56271235850014
 20
378.70809330720346
 10
103.71691903048692
 20
378.12166917506
 10
104.54098498742994
 20
377.7693346000291
 10
106.58390394178656
 20
376.9402397348009
 10
106.62067053952353
 20
376.92515508564225
 10
106.63263055105313
 20
376.92049786894495
 10
108.85553270638773
 20
376.2440637096988
 10
109.54857954680818
 20
376.0451515936352
 10
111.23956496252173
 20
375.7127584932279
 10
112.46389565855146
 20
375.489318316879
 10
113.81323635343762
 20
375.37148057093094
 10
115.37877097593551
 20
375.2523078336087
 10
116.63800850809126
 20
375.2814825767166
 10
118.29348292654764
 20
375.3342207929859
 10
119.80959079728403
 20
375.5383858887741
 10
121.20833933342728
 20
375.7358564065408
 10
123.48312308912736
 20
376.2975067206201
 10
124.1236250081123
 20
376.4586332017374
 10
125.46607579919547
 20
376.94139708968675
 10
127.03986092229177
 20
377.5040808913661
 10
128.08964895801284
 20
377.99471508780346
 10
129.95649457089175
 20
378.87190134533614
 10
131.67017091541354
 20
379.8668035593425
 10
132.87412733124805
 20
380.5632331821946
 10
135.09636398095793
 20
382.0946141061162
 10
135.79235333831966
 20
382.5750645470988
 10
136.06296162664663
 20
382.7916221971467
 10
138.71142641100772
 20
384.90603820715563
 10
139.60924144972483
 20
385.7197238980106
 10
141.6311037218522
 20
387.5502906385391
 10
142.71770104863444
 20
388.6480340591447
 10
144.55131108170778
 20
390.50096808063114
 10
145.51917651168844
 20
391.57653657242406
 10
147.47197140404083
 20
393.7500080571633
 10
148.0969080087093
 20
394.5052863315967
 10
150.39301273007078
 20
397.2882341533234
 10
150.50522226007067
 20
397.434264102644
 10
150.87780153971445
 20
397.9212350790069
 10
152.74316006191
 20
400.3651488893049
 10
153.314164183524
 20
401.11897176862567
 10
154.86543217397883
 20
403.2942751511911
 10
156.23573407533436
 20
405.23435176338893
 10
156.89966839033636
 20
406.2236060006161
 10
158.21917462381862
 20
408.213154530462
 10
158.84013836140866
 20
409.15418116581617
 10
159.15712665529512
 20
409.6424224957501
 10
160.67687072803875
 20
412.08358336929973
 10
162.0790155745063
 20
414.3797308439041
 10
162.45287310878922
 20
415.0131468362169
 10
162.96649830374486
 20
415.9034121732323
 10
164.13362435100245
 20
417.9433088589486
 10
165.00047998529726
 20
419.50207442740344
 10
165.74306600251043
 20
420.8728581489271
 10
166.5662245120165
 20
422.4431558200763
 10
167.27129142683606
 20
423.8026938724828
 10
167.92188827247088
 20
425.10784970008524
 10
168.71633921594068
 20
426.7321709965989
 10
169.41744985936586
 20
428.2319401947018
 10
170.07678055035288
 20
429.66166606908376
 10
170.8432603535779
 20
431.4147618081629
 10
171.3512745175478
 20
432.5910449955343
 10
171.7008250928154
 20
433.4508419518877
 10
172.52773903359076
 20
435.5201797892242
 10
173.53184053904852
 20
438.21683742991115
 10
173.6166594704664
 20
438.4491078857037
 10
173.76384575997423
 20
438.88685140757104
 10
174.59656937848027
 20
441.3782263598815
 10
174.96223554046117
 20
442.5794733100272
 10
175.47475749243952
 20
444.3068296650677
 10
176.09634854116362
 20
446.6460296482354
 10
176.2482855647589
 20
447.23528647590933
 10
176.6847107826775
 20
449.16633699610793
 10
176.91027208240698
 20
450.1641789582832
 10
176.9645218266925
 20
450.4438774009802
 10
177.45595103221152
 20
453.09240274241967
 10
177.59583367684297
 20
454.00563836339853
 10
177.88708800547363
 20
456.0205524568056
 10
178.0394464689718
 20
457.3789948652854
 10
178.20157454506318
 20
458.9486345148034
 10
178.31809145722158
 20
460.5867567604329
 10
178.39805261127117
 20
461.8767004679818
 10
178.45172678269307
 20
463.6489625817953
 10
178.4757928809903
 20
464.80475605154913
 10
178.4576360416673
 20
466.58297460843784
 10
178.43458485970663
 20
467.7328499921602
  0
TEXT
  5
97
330
17
100
AcDbEntity
  8
GRABADO
100
AcDbText
 10
259.02158515488424
 20
413.19694938503653
 30
0.0
 40
6.0
  1
08
 72
1
 11
259.02158515488424
 21
413.19694938503653
 31
0.0
100
AcDbText
 73
2
  0
TEXT
  5
98
330
17
100
AcDbEntity
  8
HOJA
100
AcDbText
 10
10.0
 20
691.0
 30
0.0
 40
6.0
  1
terreno_prueba  hoja 4/9  1:345  lamina 3.0mm
 11
10.0
 21
691.0
 31
0.0
100
AcDbText
  0
ENDSEC
  0
SECTION
  2
OBJECTS
  0
DICTIONARY
  5
A
330
0
100
AcDbDictionary
281
1
  3
ACAD_COLOR
350
B
  3
ACAD_GROUP
350
C
  3
ACAD_LAYOUT
350
D
  3
ACAD_MATERIAL
350
E
  3
ACAD_MLEADERSTYLE
350
F
  3
ACAD_MLINESTYLE
350
10
  3
ACAD_PLOTSETTINGS
350
11
  3
ACAD_PLOTSTYLENAME
350
12
  3
ACAD_SCALELIST
350
14
  3
ACAD_TABLESTYLE
350
15
  3
ACAD_VISUALSTYLE
350
16
  3
EZDXF_META
350
2D
  0
DICTIONARY
  5
B
330
A
100
AcDbDictionary
281
1
  0
DICTIONARY
  5
C
330
A
100
AcDbDictionary
281
1
  0
DICTIONARY
  5
D
330
A
100
AcDbDictionary
281
1
  3
Model
350
1A
  3
Layout1
350
1E
  0
DICTIONARY
  5
E
330
A
100
AcDbDictionary
281
1
  3
ByBlock
350
1F
  3
ByLayer
350
20
  3
Global
350
21
  0
DICTIONARY
  5
F
330
A
100
AcDbDictionary
281
1
  3
Standard
350
2C
  0
DICTIONARY
  5
10
330
A
100
AcDbDictionary
281
1
  3
Standard
350
22
  0
DICTIONARY
  5
11
330
A
100
AcDbDictionary
281
1
  0
ACDBDICTIONARYWDFLT
  5
12
330
A
100
AcDbDictionary
281
1
  3
Normal
350
13
100
AcDbDictionaryWithDefault
340
13
  0
ACDBPLACEHOLDER
  5
13
330
12
  0
DICTIONARY
  5
14
330
A
100
AcDbDictionary
281
1
  0
DICTIONARY
  5
15
330
A
100
AcDbDictionary
281
1
  0
DICTIONARY
  5
16
330
A
100
AcDbDictionary
281
1
  3
2dWireframe
350
5A
  3
Basic
350
5B
  3
Brighten
350
5C
  3
ColorChange
350
5D
  3
Conceptual
350
5E
  3
Dim
350
5F
  3
EdgeColorOff
350
60
  3
Facepattern
350
61
  3
Flat
350
62
  3
FlatWithEdges
350
63
  3
Gouraud
350
64
  3
GouraudWithEdges
350
65
  3
Hidden
350
66
  3
JitterOff
350
67
  3
Linepattern
350
68
  3
Modeling
350
69
  3
OverhangOff
350
6A
  3
Realistic
350
6B
  3
Shaded
350
6C
  3
Shaded with edges
350
6D
  3
Shades of Gray
350
6E
  3
Sketchy
350
6F
  3
Thicken
350
70
  3
Wireframe
350
71
  3
X-Ray
350
72
  0
LAYOUT
  5
1A
330
D
100
AcDbPlotSettings
  1

  4
A3
  6

 40
7.5
 41
20.0
 42
7.5
 43
20.0
 44
420.0
 45
297.0
 46
0.0
 47
0.0
 48
0.0
 49
0.0
140
0.0
141
0.0
142
1.0
143
1.0
 70
1024
 72
1
 73
0
 74
5
  7

 75
16
 76
0
 77
2
 78
300
147
1.0
148
0.0
149
0.0
100
AcDbLayout
  1
Model
 70
1
 71
0
 10
0.0
 20
0.0
 11
420.0
 21
297.0
 12
0.0
 22
0.0
 32
0.0
 14
1e+20
 24
1e+20
 34
1e+20
 15
-1e+20
 25
-1e+20
 35
-1e+20
146
0.0
 13
0.0
 23
0.0
 33
0.0
 16
1.0
 26
0.0
 36
0.0
 17
0.0
 27
1.0
 37
0.0
 76
1
330
17
  0
LAYOUT
  5
1E
330
D
100
AcDbPlotSettings
  1

  4
A3
  6

 40
7.5
 41
20.0
 42
7.5
 43
20.0
 44
420.0
 45
297.0
 46
0.0
 47
0.0
 48
0.0
 49
0.0
140
0.0
141
0.0
142
1.0
143
1.0
 70
0
 72
1
 73
0
 74
5
  7

 75
16
 76
0
 77
2
 78
300
147
1.0
148
0.0
149
0.0
100
AcDbLayout
  1
Layout1
 70
1
 71
1
 10
0.0
 20
0.0
 11
420.0
 21
297.0
 12
0.0
 22
0.0
 32
0.0
 14
1e+20
 24
1e+20
 34
1e+20
 15
-1e+20
 25
-1e+20
 35
-1e+20
146
0.0
 13
0.0
 23
0.0
 33
0.0
 16
1.0
 26
0.0
 36
0.0
 17
0.0
 27
1.0
 37
0.0
 76
1
330
1B
  0
MATERIAL
  5
1F
102
{ACAD_REACTORS
330
E
102
}
330
E
100
AcDbMaterial
  1
ByBlock
  2

 70
0
 40
1.0
 71
1
 41
1.0
 91
-1023410177
 42
1.0
 72
1
  3

 73
1
 74
1
 75
1
 44
0.5
 73
0
 45
1.0
 46
1.0
 77
1
  4

 78
1
 79
1
170
1
 48
1.0
171
1
  6

172
1
173
1
174
1
140
1.0
141
1.0
175
1
  7

176
1
177
1
178
1
143
1.0
179
1
  8

270
1
271
1
272
1
145
1.0
146
1.0
273
1
  9

274
1
275
1
276
1
 42
1.0
 72
1
  3

 73
1
 74
1
 75
1
 94
63
  0
MATERIAL
  5
20
102
{ACAD_REACTORS
330
E
102
}
330
E
100
AcDbMaterial
  1
ByLayer
  2

 70
0
 40
1.0
 71
1
 41
1.0
 91
-1023410177
 42
1.0
 72
1
  3

 73
1
 74
1
 75
1
 44
0.5
 73
0
 45
1.0
 46
1.0
 77
1
  4

 78
1
 79
1
170
1
 48
1.0
171
1
  6

172
1
173
1
174
1
140
1.0
141
1.0
175
1
  7

176
1
177
1
178
1
143
1.0
179
1
  8

270
1
271
1
272
1
145
1.0
146
1.0
273
1
  9

274
1
275
1
276
1
 42
1.0
 72
1
  3

 73
1
 74
1
 75
1
 94
63
  0
MATERIAL
  5
21
102
{ACAD_REACTORS
330
E
102
}
330
E
100
AcDbMaterial
  1
Global
  2

 70
0
 40
1.0
 71
1
 41
1.0
 91
-1023410177
 42
1.0
 72
1
  3

 73
1
 74
1
 75
1
 44
0.5
 73
0
 45
1.0
 46
1.0
 77
1
  4

 78
1
 79
1
170
1
 48
1.0
171
1
  6

172
1
173
1
174
1
140
1.0
141
1.0
175
1
  7

176
1
177
1
178
1
143
1.0
179
1
  8

270
1
271
1
272
1
145
1.0
146
1.0
273
1
  9

274
1
275
1
276
1
 42
1.0
 72
1
  3

 73
1
 74
1
 75
1
 94
63
  0
MLINESTYLE
  5
22
102
{ACAD_REACTORS
330
10
102
}
330
10
100
AcDbMlineStyle
  2
Standard
 70
0
  3

 62
256
 51
90.0
 52
90.0
 71
2
 49
0.5
 62
256
  6
BYLAYER
 49
-0.5
 62
256
  6
BYLAYER
  0
MLEADERSTYLE
  5
2C
102
{ACAD_REACTORS
330
F
102
}
330
F
100
AcDbMLeaderStyle
179
2
170
2
171
1
172
0
 90
2
 40
0.0
 41
0.0
173
1
 91
-1056964608
 92
-2
290
1
 42
2.0
291
1
 43
8.0
  3
Standard
 44
4.0
300

342
29
174
1
175
1
176
0
178
1
 93
-1056964608
 45
4.0
292
0
297
0
 46
4.0
 94
-1056964608
 47
1.0
 49
1.0
140
1.0
294
1
141
0.0
177
0
142
1.0
295
0
296
0
143
3.75
271
0
272
9
273
9
  0
DICTIONARY
  5
2D
330
A
100
AcDbDictionary
280
1
281
1
  3
CREATED_BY_EZDXF
350
2E
  3
WRITTEN_BY_EZDXF
350
9B
  0
DICTIONARYVAR
  5
2E
330
2D
100
DictionaryVariables
280
0
  1
1.4.2 @ 2026-09-06T09:28:59.646755+00:00
  0
VISUALSTYLE
  5
5A
102
{ACAD_REACTORS
330
16
102
}
330
16
100
AcDbVisualStyle
  2
2dWireframe
 70
4
 90
0
 40
0.6
 62
7
290
0
291
0
  0
VISUALSTYLE
  5
5B
102
{ACAD_REACTORS
330
16
102
}
330
16
100
AcDbVisualStyle
  2
Basic
 70
7
 90
1
 40
0.6
 62
7
290
0
291
1
  0
VISUALSTYLE
  5
5C
102
{ACAD_REACTORS
330
16
102
}
330
16
100
AcDbVisualStyle
  2
Brighten
 70
12
 90
2
 40
0.6
 62
7
290
0
291
1
  0
VISUALSTYLE
  5
5D
102
{ACAD_REACTORS
330
16
102
}
330
16
100
AcDbVisualStyle
  2
ColorChange
 70
16
 90
2
 40
0.6
 62
8
290
0
291
1
  0
VISUALSTYLE
  5
5E
102
{ACAD_REACTORS
330
16
102
}
330
16
100
AcDbVisualStyle
  2
Conceptual
 70
9
 90
3
 40
0.6
 62
7
290
0
291
0
  0
VISUALSTYLE
  5
5F
102
{ACAD_REACTORS
330
16
102
}
330
16
100
AcDbVisualStyle
  2
Dim
 70
11
 90
2
 40
0.6
 62
7
290
0
291
1
  0
VISUALSTYLE
  5
60
102
{ACAD_REACTORS
330
16
102
}
330
16
100
AcDbVisualStyle
  2
EdgeColorOff
 70
22
 90
2
 40
0.6
 62
7
290
0
291
1
  0
VISUALSTYLE
  5
61
102
{ACAD_REACTORS
330
16
102
}
330
16
100
AcDbVisualStyle
  2
Facepattern
 70
15
 90
2
 40
0.6
 62
7
290
0
291
1
  0
VISUALSTYLE
  5
62
102
{ACAD_REACTORS
330
16
102
}
330
16
100
AcDbVisualStyle
  2
Flat
 70
0
 90
2
 40
0.6
 62
7
290
0
291
1
  0
VISUALSTYLE
  5
63
102
{ACAD_REACTORS
330
16
102
}
330
16
100
AcDbVisualStyle
  2
FlatWithEdges
 70
1
 90
2
 40
0.6
 62
7
290
0
291
1
  0
VISUALSTYLE
  5
64
102
{ACAD_REACTORS
330
16
102
}
330
16
100
AcDbVisualStyle
  2
Gouraud
 70
2
 90
2
 40
0.6
 62
7
290
0
291
1
  0
VISUALSTYLE
  5
65
102
{ACAD_REACTORS
330
16
102
}
330
16
100
AcDbVisualStyle
  2
GouraudWithEdges
 70
3
 90
2
 40
0.6
 62
7
290
0
291
1
  0
VISUALSTYLE
  5
66
102
{ACAD_REACTORS
330
16
102
}
330
16
100
AcDbVisualStyle
  2
Hidden
 70
6
 90
1
 40
0.6
 62
7
290
0
291
0
  0
VISUALSTYLE
  5
67
102
{ACAD_REACTORS
330
16
102
}
330
16
100
AcDbVisualStyle
  2
JitterOff
 70
20
 90
2
 40
0.6
 62
7
290
0
291
1
  0
VISUALSTYLE
  5
68
102
{ACAD_REACTORS
330
16
102
}
330
16
100
AcDbVisualStyle
  2
Linepattern
 70
14
 90
2
 40
0.6
 62
7
290
0
291
1
  0
VISUALSTYLE
  5
69
102
{ACAD_REACTORS
330
16
102
}
330
16
100
AcDbVisualStyle
  2
Modeling
 70
10
 90
2
 40
0.6
 62
7
290
0
291
0
  0
VISUALSTYLE
  5
6A
102
{ACAD_REACTORS
330
16
102
}
330
16
100
AcDbVisualStyle
  2
OverhangOff
 70
21
 90
2
 40
0.6
 62
7
290
0
291
1
  0
VISUALSTYLE
  5
6B
102
{ACAD_REACTORS
330
16
102
}
330
16
100
AcDbVisualStyle
  2
Realistic
 70
8
 90
2
 40
0.6
 62
7
290
0
291
0
  0
VISUALSTYLE
  5
6C
102
{ACAD_REACTORS
330
16
102
}
330
16
100
AcDbVisualStyle
  2
Shaded
 70
27
 90
2
 40
0.6
 62
7
290
0
291
0
  0
VISUALSTYLE
  5
6D
102
{ACAD_REACTORS
330
16
102
}
330
16
100
AcDbVisualStyle
  2
Shaded with edges
 70
26
 90
2
 40
0.6
 62
7
290
0
291
0
  0
VISUALSTYLE
  5
6E
102
{ACAD_REACTORS
330
16
102
}
330
16
100
AcDbVisualStyle
  2
Shades of Gray
 70
23
 90
2
 40
0.6
 62
7
290
0
291
0
  0
VISUALSTYLE
  5
6F
102
{ACAD_REACTORS
330
16
102
}
330
16
100
AcDbVisualStyle
  2
Sketchy
 70
24
 90
1
 40
0.6
 62
7
290
0
291
0
  0
VISUALSTYLE
  5
70
102
{ACAD_REACTORS
330
16
102
}
330
16
100
AcDbVisualStyle
  2
Thicken
 70
13
 90
2
 40
0.6
 62
7
290
0
291
1
  0
VISUALSTYLE
  5
71
102
{ACAD_REACTORS
330
16
102
}
330
16
100
AcDbVisualStyle
  2
Wireframe
 70
5
 90
0
 40
0.6
 62
7
290
0
291
0
  0
VISUALSTYLE
  5
72
102
{ACAD_REACTORS
330
16
102
}
330
16
100
AcDbVisualStyle
  2
X-Ray
 70
25
 90
2
 40
0.5
 62
7
290
0
291
0
  0
DICTIONARYVAR
  5
9B
330
2D
100
DictionaryVariables
280
0
  1
1.4.2 @ 2026-09-06T09:28:59.654163+00:00
  0
ENDSEC
  0
EOF
