  0
SECTION
  2
HEADER
  9
$ACADVER
  1
AC1024
  9
$ACADMAINTVER
 70
6
  9
$DWGCODEPAGE
  3
ANSI_1252
  9
$LASTSAVEDBY
  1
ezdxf
  9
$INSBASE
 10
0.0
 20
0.0
 30
0.0
  9
$EXTMIN
 10
1e+20
 20
1e+20
 30
1e+20
  9
$EXTMAX
 10
-1e+20
 20
-1e+20
 30
-1e+20
  9
$LIMMIN
 10
0.0
 20
0.0
  9
$LIMMAX
 10
420.0
 20
297.0
  9
$ORTHOMODE
 70
0
  9
$REGENMODE
 70
1
  9
$FILLMODE
 70
1
  9
$QTEXTMODE
 70
0
  9
$MIRRTEXT
 70
1
  9
$LTSCALE
 40
1.0
  9
$ATTMODE
 70
1
  9
$TEXTSIZE
 40
2.5
  9
$TRACEWID
 40
1.0
  9
$TEXTSTYLE
  7
OpenSans
  9
$CLAYER
  8
0
  9
$CELTYPE
  6
ByLayer
  9
$CECOLOR
 62
256
  9
$CELTSCALE
 40
1.0
  9
$DISPSILH
 70
0
  9
$DIMSCALE
 40
1.0
  9
$DIMASZ
 40
0.175
  9
$DIMEXO
 40
0.125
  9
$DIMDLI
 40
3.75
  9
$DIMRND
 40
0.0
  9
$DIMDLE
 40
0.0
  9
$DIMEXE
 40
0.375
  9
$DIMTP
 40
0.0
  9
$DIMTM
 40
0.0
  9
$DIMTXT
 40
0.25
  9
$DIMCEN
 40
2.5
  9
$DIMTSZ
 40
0.0
  9
$DIMTOL
 70
0
  9
$DIMLIM
 70
0
  9
$DIMTIH
 70
0
  9
$DIMTOH
 70
0
  9
$DIMSE1
 70
0
  9
$DIMSE2
 70
0
  9
$DIMTAD
 70
1
  9
$DIMZIN
 70
12
  9
$DIMBLK
  1
ARCHTICK
  9
$DIMASO
 70
1
  9
$DIMSHO
 70
1
  9
$DIMPOST
  1

  9
$DIMAPOST
  1

  9
$DIMALT
 70
0
  9
$DIMALTD
 70
3
  9
$DIMALTF
 40
0.03937007874
  9
$DIMLFAC
 40
100.0
  9
$DIMTOFL
 70
1
  9
$DIMTVP
 40
0.0
  9
$DIMTIX
 70
0
  9
$DIMSOXD
 70
0
  9
$DIMSAH
 70
0
  9
$DIMBLK1
  1

  9
$DIMBLK2
  1

  9
$DIMSTYLE
  2
EZDXF
  9
$DIMCLRD
 70
0
  9
$DIMCLRE
 70
0
  9
$DIMCLRT
 70
0
  9
$DIMTFAC
 40
0.5
  9
$DIMGAP
 40
0.1
  9
$DIMJUST
 70
0
  9
$DIMSD1
 70
0
  9
$DIMSD2
 70
0
  9
$DIMTOLJ
 70
0
  9
$DIMTZIN
 70
8
  9
$DIMALTZ
 70
0
  9
$DIMALTTZ
 70
0
  9
$DIMUPT
 70
1
  9
$DIMDEC
 70
2
  9
$DIMTDEC
 70
2
  9
$DIMALTU
 70
2
  9
$DIMALTTD
 70
3
  9
$DIMTXSTY
  7
OpenSansCondensed-Light
  9
$DIMAUNIT
 70
0
  9
$DIMADEC
 70
2
  9
$DIMALTRND
 40
0.0
  9
$DIMAZIN
 70
3
  9
$DIMDSEP
 70
46
  9
$DIMATFIT
 70
3
  9
$DIMFRAC
 70
0
  9
$DIMLDRBLK
  1

  9
$DIMLUNIT
 70
2
  9
$DIMLWD
 70
-2
  9
$DIMLWE
 70
-2
  9
$DIMTMOVE
 70
2
  9
$DIMFXL
 40
1.0
  9
$DIMFXLON
 70
0
  9
$DIMJOGANG
 40
0.785398163397
  9
$DIMTFILL
 70
0
  9
$DIMTFILLCLR
 70
0
  9
$DIMARCSYM
 70
0
  9
$DIMLTYPE
  6

  9
$DIMLTEX1
  6

  9
$DIMLTEX2
  6

  9
$DIMTXTDIRECTION
 70
0
  9
$LUNITS
 70
2
  9
$LUPREC
 70
4
  9
$SKETCHINC
 40
1.0
  9
$FILLETRAD
 40
10.0
  9
$AUNITS
 70
0
  9
$AUPREC
 70
2
  9
$MENU
  1
.
  9
$ELEVATION
 40
0.0
  9
$PELEVATION
 40
0.0
  9
$THICKNESS
 40
0.0
  9
$LIMCHECK
 70
0
  9
$CHAMFERA
 40
0.0
  9
$CHAMFERB
 40
0.0
  9
$CHAMFERC
 40
0.0
  9
$CHAMFERD
 40
0.0
  9
$SKPOLY
 70
0
  9
$TDCREATE
 40
2461290.4379861113
  9
$TDUCREATE
 40
2458532.153996898
  9
$TDUPDATE
 40
2461290.4379861113
  9
$TDUUPDATE
 40
2458532.1544311
  9
$TDINDWG
 40
0.0
  9
$TDUSRTIMER
 40
0.0
  9
$USRTIMER
 70
1
  9
$ANGBASE
 50
0.0
  9
$ANGDIR
 70
0
  9
$PDMODE
 70
0
  9
$PDSIZE
 40
0.0
  9
$PLINEWID
 40
0.0
  9
$SPLFRAME
 70
0
  9
$SPLINETYPE
 70
6
  9
$SPLINESEGS
 70
8
  9
$HANDSEED
  5
98
  9
$SURFTAB1
 70
6
  9
$SURFTAB2
 70
6
  9
$SURFTYPE
 70
6
  9
$SURFU
 70
6
  9
$SURFV
 70
6
  9
$UCSBASE
  2

  9
$UCSNAME
  2

  9
$UCSORG
 10
0.0
 20
0.0
 30
0.0
  9
$UCSXDIR
 10
1.0
 20
0.0
 30
0.0
  9
$UCSYDIR
 10
0.0
 20
1.0
 30
0.0
  9
$UCSORTHOREF
  2

  9
$UCSORTHOVIEW
 70
0
  9
$UCSORGTOP
 10
0.0
 20
0.0
 30
0.0
  9
$UCSORGBOTTOM
 10
0.0
 20
0.0
 30
0.0
  9
$UCSORGLEFT
 10
0.0
 20
0.0
 30
0.0
  9
$UCSORGRIGHT
 10
0.0
 20
0.0
 30
0.0
  9
$UCSORGFRONT
 10
0.0
 20
0.0
 30
0.0
  9
$UCSORGBACK
 10
0.0
 20
0.0
 30
0.0
  9
$PUCSBASE
  2

  9
$PUCSNAME
  2

  9
$PUCSORG
 10
0.0
 20
0.0
 30
0.0
  9
$PUCSXDIR
 10
1.0
 20
0.0
 30
0.0
  9
$PUCSYDIR
 10
0.0
 20
1.0
 30
0.0
  9
$PUCSORTHOREF
  2

  9
$PUCSORTHOVIEW
 70
0
  9
$PUCSORGTOP
 10
0.0
 20
0.0
 30
0.0
  9
$PUCSORGBOTTOM
 10
0.0
 20
0.0
 30
0.0
  9
$PUCSORGLEFT
 10
0.0
 20
0.0
 30
0.0
  9
$PUCSORGRIGHT
 10
0.0
 20
0.0
 30
0.0
  9
$PUCSORGFRONT
 10
0.0
 20
0.0
 30
0.0
  9
$PUCSORGBACK
 10
0.0
 20
0.0
 30
0.0
  9
$USERI1
 70
0
  9
$USERI2
 70
0
  9
$USERI3
 70
0
  9
$USERI4
 70
0
  9
$USERI5
 70
0
  9
$USERR1
 40
0.0
  9
$USERR2
 40
0.0
  9
$USERR3
 40
0.0
  9
$USERR4
 40
0.0
  9
$USERR5
 40
0.0
  9
$WORLDVIEW
 70
1
  9
$SHADEDGE
 70
3
  9
$SHADEDIF
 70
70
  9
$TILEMODE
 70
1
  9
$MAXACTVP
 70
64
  9
$PINSBASE
 10
0.0
 20
0.0
 30
0.0
  9
$PLIMCHECK
 70
0
  9
$PEXTMIN
 10
1e+20
 20
1e+20
 30
1e+20
  9
$PEXTMAX
 10
-1e+20
 20
-1e+20
 30
-1e+20
  9
$PLIMMIN
 10
0.0
 20
0.0
  9
$PLIMMAX
 10
420.0
 20
297.0
  9
$UNITMODE
 70
0
  9
$VISRETAIN
 70
1
  9
$PLINEGEN
 70
0
  9
$PSLTSCALE
 70
1
  9
$TREEDEPTH
 70
3020
  9
$CMLSTYLE
  2
Standard
  9
$CMLJUST
 70
0
  9
$CMLSCALE
 40
20.0
  9
$PROXYGRAPHICS
 70
1
  9
$MEASUREMENT
 70
1
  9
$CELWEIGHT
370
-1
  9
$ENDCAPS
280
0
  9
$JOINSTYLE
280
0
  9
$LWDISPLAY
290
0
  9
$INSUNITS
 70
4
  9
$HYPERLINKBASE
  1

  9
$STYLESHEET
  1

  9
$XEDIT
290
1
  9
$CEPSNTYPE
380
0
  9
$PSTYLEMODE
290
1
  9
$FINGERPRINTGUID
  2
{0BA7172F-B624-4BEE-8374-DA6F9EB3DC69}
  9
$VERSIONGUID
  2
{F29DFE7E-F8BB-47F5-8D2E-BE7CBE35C244}
  9
$EXTNAMES
290
1
  9
$PSVPSCALE
 40
0.0
  9
$OLESTARTUP
290
0
  9
$SORTENTS
280
127
  9
$INDEXCTL
280
0
  9
$HIDETEXT
280
1
  9
$XCLIPFRAME
280
1
  9
$HALOGAP
280
0
  9
$OBSCOLOR
 70
257
  9
$OBSLTYPE
280
0
  9
$INTERSECTIONDISPLAY
280
0
  9
$INTERSECTIONCOLOR
 70
257
  9
$DIMASSOC
280
2
  9
$PROJECTNAME
  1

  9
$CAMERADISPLAY
290
0
  9
$LENSLENGTH
 40
50.0
  9
$CAMERAHEIGHT
 40
0.0
  9
$STEPSPERSEC
 40
24.0
  9
$STEPSIZE
 40
100.0
  9
$3DDWFPREC
 40
2.0
  9
$PSOLWIDTH
 40
0.005
  9
$PSOLHEIGHT
 40
0.08
  9
$LOFTANG1
 40
1.570796326795
  9
$LOFTANG2
 40
1.570796326795
  9
$LOFTMAG1
 40
0.0
  9
$LOFTMAG2
 40
0.0
  9
$LOFTPARAM
 70
7
  9
$LOFTNORMALS
280
1
  9
$LATITUDE
 40
37.795
  9
$LONGITUDE
 40
-122.394
  9
$NORTHDIRECTION
 40
0.0
  9
$TIMEZONE
 70
-8000
  9
$LIGHTGLYPHDISPLAY
280
1
  9
$TILEMODELIGHTSYNCH
280
1
  9
$CMATERIAL
347
20
  9
$SOLIDHIST
280
0
  9
$SHOWHIST
280
1
  9
$DWFFRAME
280
2
  9
$DGNFRAME
280
2
  9
$REALWORLDSCALE
290
1
  9
$INTERFERECOLOR
 62
256
  9
$CSHADOW
280
0
  9
$SHADOWPLANELOCATION
 40
0.0
  0
ENDSEC
  0
SECTION
  2
CLASSES
  0
CLASS
  1
ACDBDICTIONARYWDFLT
  2
AcDbDictionaryWithDefault
  3
ObjectDBX Classes
 90
0
 91
0
280
0
281
0
  0
CLASS
  1
SUN
  2
AcDbSun
  3
SCENEOE
 90
1153
 91
0
280
0
281
0
  0
CLASS
  1
VISUALSTYLE
  2
AcDbVisualStyle
  3
ObjectDBX Classes
 90
4095
 91
0
280
0
281
0
  0
CLASS
  1
MATERIAL
  2
AcDbMaterial
  3
ObjectDBX Classes
 90
1153
 91
0
280
0
281
0
  0
CLASS
  1
SCALE
  2
AcDbScale
  3
ObjectDBX Classes
 90
1153
 91
0
280
0
281
0
  0
CLASS
  1
TABLESTYLE
  2
AcDbTableStyle
  3
ObjectDBX Classes
 90
4095
 91
0
280
0
281
0
  0
CLASS
  1
MLEADERSTYLE
  2
AcDbMLeaderStyle
  3
ACDB_MLEADERSTYLE_CLASS
 90
4095
 91
0
280
0
281
0
  0
CLASS
  1
DICTIONARYVAR
  2
AcDbDictionaryVar
  3
ObjectDBX Classes
 90
0
 91
0
280
0
281
0
  0
CLASS
  1
CELLSTYLEMAP
  2
AcDbCellStyleMap
  3
ObjectDBX Classes
 90
1152
 91
0
280
0
281
0
  0
CLASS
  1
MENTALRAYRENDERSETTINGS
  2
AcDbMentalRayRenderSettings
  3
SCENEOE
 90
1024
 91
0
280
0
281
0
  0
CLASS
  1
ACDBDETAILVIEWSTYLE
  2
AcDbDetailViewStyle
  3
ObjectDBX Classes
 90
1025
 91
0
280
0
281
0
  0
CLASS
  1
ACDBSECTIONVIEWSTYLE
  2
AcDbSectionViewStyle
  3
ObjectDBX Classes
 90
1025
 91
0
280
0
281
0
  0
CLASS
  1
RASTERVARIABLES
  2
AcDbRasterVariables
  3
ISM
 90
0
 91
0
280
0
281
0
  0
CLASS
  1
LAYOUT
  2
AcDbLayout
  3
ObjectDBX Classes
 90
0
 91
0
280
0
281
0
  0
CLASS
  1
ACDBPLACEHOLDER
  2
AcDbPlaceHolder
  3
ObjectDBX Classes
 90
0
 91
0
280
0
281
0
  0
ENDSEC
  0
SECTION
  2
TABLES
  0
TABLE
  2
VPORT
  5
8
330
0
100
AcDbSymbolTable
 70
1
  0
VPORT
  5
23
330
8
100
AcDbSymbolTableRecord
100
AcDbViewportTableRecord
  2
*Active
 70
0
 10
0.0
 20
0.0
 11
1.0
 21
1.0
 12
0.0
 22
0.0
 13
0.0
 23
0.0
 14
0.5
 24
0.5
 15
0.5
 25
0.5
 16
0.0
 26
0.0
 36
1.0
 17
0.0
 27
0.0
 37
0.0
 40
1000.0
 41
1.34
 42
50.0
 43
0.0
 44
0.0
 50
0.0
 51
0.0
 71
0
 72
1000
 73
1
 74
3
 75
0
 76
0
 77
0
 78
0
281
0
 65
0
146
0.0
  0
ENDTAB
  0
TABLE
  2
LTYPE
  5
2
330
0
100
AcDbSymbolTable
 70
21
  0
LTYPE
  5
24
330
2
100
AcDbSymbolTableRecord
100
AcDbLinetypeTableRecord
  2
ByBlock
 70
0
  3

 72
65
 73
0
 40
0.0
  0
LTYPE
  5
25
330
2
100
AcDbSymbolTableRecord
100
AcDbLinetypeTableRecord
  2
ByLayer
 70
0
  3

 72
65
 73
0
 40
0.0
  0
LTYPE
  5
26
330
2
100
AcDbSymbolTableRecord
100
AcDbLinetypeTableRecord
  2
Continuous
 70
0
  3

 72
65
 73
0
 40
0.0
  0
LTYPE
  5
2F
330
2
100
AcDbSymbolTableRecord
100
AcDbLinetypeTableRecord
  2
CENTER
 70
0
  3
Center ____ _ ____ _ ____ _ ____ _ ____ _ ____
 72
65
 73
4
 40
5.08
 49
3.175
 74
0
 49
-0.635
 74
0
 49
0.635
 74
0
 49
-0.635
 74
0
  0
LTYPE
  5
30
330
2
100
AcDbSymbolTableRecord
100
AcDbLinetypeTableRecord
  2
CENTERX2
 70
0
  3
Center (2x) ________  __  ________  __  ________
 72
65
 73
4
 40
8.89
 49
6.35
 74
0
 49
-0.635
 74
0
 49
1.27
 74
0
 49
-0.635
 74
0
  0
LTYPE
  5
31
330
2
100
AcDbSymbolTableRecord
100
AcDbLinetypeTableRecord
  2
CENTER2
 70
0
  3
Center (.5x) ____ _ ____ _ ____ _ ____ _ ____
 72
65
 73
4
 40
2.54
 49
1.587
 74
0
 49
-0.318
 74
0
 49
0.318
 74
0
 49
-0.318
 74
0
  0
LTYPE
  5
32
330
2
100
AcDbSymbolTableRecord
100
AcDbLinetypeTableRecord
  2
DASHED
 70
0
  3
Dashed __ __ __ __ __ __ __ __ __ __ __ __ __ _
 72
65
 73
2
 40
1.524
 49
1.27
 74
0
 49
-0.254
 74
0
  0
LTYPE
  5
33
330
2
100
AcDbSymbolTableRecord
100
AcDbLinetypeTableRecord
  2
DASHEDX2
 70
0
  3
Dashed (2x) ____  ____  ____  ____  ____  ____
 72
65
 73
2
 40
3.048
 49
2.54
 74
0
 49
-0.508
 74
0
  0
LTYPE
  5
34
330
2
100
AcDbSymbolTableRecord
100
AcDbLinetypeTableRecord
  2
DASHED2
 70
0
  3
Dashed (.5x) _ _ _ _ _ _ _ _ _ _ _ _ _ _
 72
65
 73
2
 40
0.762
 49
0.635
 74
0
 49
-0.127
 74
0
  0
LTYPE
  5
35
330
2
100
AcDbSymbolTableRecord
100
AcDbLinetypeTableRecord
  2
PHANTOM
 70
0
  3
Phantom ______  __  __  ______  __  __  ______
 72
65
 73
6
 40
6.35
 49
3.175
 74
0
 49
-0.635
 74
0
 49
0.635
 74
0
 49
-0.635
 74
0
 49
0.635
 74
0
 49
-0.635
 74
0
  0
LTYPE
  5
36
330
2
100
AcDbSymbolTableRecord
100
AcDbLinetypeTableRecord
  2
PHANTOMX2
 70
0
  3
Phantom (2x)____________    ____    ____    ____________
 72
65
 73
6
 40
10.795
 49
6.35
 74
0
 49
-0.635
 74
0
 49
1.27
 74
0
 49
-0.635
 74
0
 49
1.27
 74
0
 49
-0.635
 74
0
  0
LTYPE
  5
37
330
2
100
AcDbSymbolTableRecord
100
AcDbLinetypeTableRecord
  2
PHANTOM2
 70
0
  3
Phantom (.5x) ___ _ _ ___ _ _ ___ _ _ ___ _ _ ___
 72
65
 73
6
 40
3.175
 49
1.587
 74
0
 49
-0.318
 74
0
 49
0.318
 74
0
 49
-0.318
 74
0
 49
0.318
 74
0
 49
-0.318
 74
0
  0
LTYPE
  5
38
330
2
100
AcDbSymbolTableRecord
100
AcDbLinetypeTableRecord
  2
DASHDOT
 70
0
  3
Dash dot __ . __ . __ . __ . __ . __ . __ . __
 72
65
 73
4
 40
3.556
 49
2.54
 74
0
 49
-0.508
 74
0
 49
0.0
 74
0
 49
-0.508
 74
0
  0
LTYPE
  5
39
330
2
100
AcDbSymbolTableRecord
100
AcDbLinetypeTableRecord
  2
DASHDOTX2
 70
0
  3
Dash dot (2x) ____  .  ____  .  ____  .  ____
 72
65
 73
4
 40
6.096
 49
5.08
 74
0
 49
-0.508
 74
0
 49
0.0
 74
0
 49
-0.508
 74
0
  0
LTYPE
  5
3A
330
2
100
AcDbSymbolTableRecord
100
AcDbLinetypeTableRecord
  2
DASHDOT2
 70
0
  3
Dash dot (.5x) _ . _ . _ . _ . _ . _ . _ . _
 72
65
 73
4
 40
1.778
 49
1.27
 74
0
 49
-0.254
 74
0
 49
0.0
 74
0
 49
-0.254
 74
0
  0
LTYPE
  5
3B
330
2
100
AcDbSymbolTableRecord
100
AcDbLinetypeTableRecord
  2
DOT
 70
0
  3
Dot .  .  .  .  .  .  .  .  .  .  .  .  .  .  .  .
 72
65
 73
2
 40
0.508
 49
0.0
 74
0
 49
-0.508
 74
0
  0
LTYPE
  5
3C
330
2
100
AcDbSymbolTableRecord
100
AcDbLinetypeTableRecord
  2
DOTX2
 70
0
  3
Dot (2x) .    .    .    .    .    .    .    . 
 72
65
 73
2
 40
1.016
 49
0.0
 74
0
 49
-1.016
 74
0
  0
LTYPE
  5
3D
330
2
100
AcDbSymbolTableRecord
100
AcDbLinetypeTableRecord
  2
DOT2
 70
0
  3
Dot (.5) . . . . . . . . . . . . . . . . . . . 
 72
65
 73
2
 40
0.254
 49
0.0
 74
0
 49
-0.254
 74
0
  0
LTYPE
  5
3E
330
2
100
AcDbSymbolTableRecord
100
AcDbLinetypeTableRecord
  2
DIVIDE
 70
0
  3
Divide __ . . __ . . __ . . __ . . __ . . __
 72
65
 73
6
 40
4.064
 49
2.54
 74
0
 49
-0.508
 74
0
 49
0.0
 74
0
 49
-0.508
 74
0
 49
0.0
 74
0
 49
-0.508
 74
0
  0
LTYPE
  5
3F
330
2
100
AcDbSymbolTableRecord
100
AcDbLinetypeTableRecord
  2
DIVIDEX2
 70
0
  3
Divide (2x) ____  . .  ____  . .  ____  . .  ____
 72
65
 73
6
 40
6.604
 49
5.08
 74
0
 49
-0.508
 74
0
 49
0.0
 74
0
 49
-0.508
 74
0
 49
0.0
 74
0
 49
-0.508
 74
0
  0
LTYPE
  5
40
330
2
100
AcDbSymbolTableRecord
100
AcDbLinetypeTableRecord
  2
DIVIDE2
 70
0
  3
Divide(.5x) _ . _ . _ . _ . _ . _ . _ . _
 72
65
 73
6
 40
2.032
 49
1.27
 74
0
 49
-0.254
 74
0
 49
0.0
 74
0
 49
-0.254
 74
0
 49
0.0
 74
0
 49
-0.254
 74
0
  0
ENDTAB
  0
TABLE
  2
LAYER
  5
1
330
0
100
AcDbSymbolTable
 70
5
  0
LAYER
  5
27
330
1
100
AcDbSymbolTableRecord
100
AcDbLayerTableRecord
  2
0
 70
0
 62
7
  6
Continuous
370
-3
390
13
347
21
  0
LAYER
  5
28
330
1
100
AcDbSymbolTableRecord
100
AcDbLayerTableRecord
  2
Defpoints
 70
0
 62
7
  6
Continuous
290
0
370
-3
390
13
347
21
  0
LAYER
  5
8A
330
1
100
AcDbSymbolTableRecord
100
AcDbLayerTableRecord
  2
CORTE
 70
0
 62
1
  6
Continuous
370
-3
390
13
347
21
  0
LAYER
  5
8B
330
1
100
AcDbSymbolTableRecord
100
AcDbLayerTableRecord
  2
GRABADO
 70
0
 62
5
  6
Continuous
370
-3
390
13
347
21
  0
LAYER
  5
8C
330
1
100
AcDbSymbolTableRecord
100
AcDbLayerTableRecord
  2
HOJA
 70
0
 62
8
  6
Continuous
370
-3
390
13
347
21
  0
ENDTAB
  0
TABLE
  2
STYLE
  5
5
330
0
100
AcDbSymbolTable
 70
26
  0
STYLE
  5
29
330
5
100
AcDbSymbolTableRecord
100
AcDbTextStyleTableRecord
  2
Standard
 70
0
 40
0.0
 41
1.0
 50
0.0
 71
0
 42
2.5
  3
txt
  4

  0
STYLE
  5
41
330
5
100
AcDbSymbolTableRecord
100
AcDbTextStyleTableRecord
  2
OpenSans-Light
 70
0
 40
0.0
 41
1.0
 50
0.0
 71
0
 42
2.5
  3
OpenSans-Light.ttf
  4

  0
STYLE
  5
42
330
5
100
AcDbSymbolTableRecord
100
AcDbTextStyleTableRecord
  2
OpenSans-Light-Italic
 70
0
 40
0.0
 41
1.0
 50
0.0
 71
0
 42
2.5
  3
OpenSans-LightItalic.ttf
  4

  0
STYLE
  5
43
330
5
100
AcDbSymbolTableRecord
100
AcDbTextStyleTableRecord
  2
OpenSans
 70
0
 40
0.0
 41
1.0
 50
0.0
 71
0
 42
2.5
  3
OpenSans-Regular.ttf
  4

  0
STYLE
  5
44
330
5
100
AcDbSymbolTableRecord
100
AcDbTextStyleTableRecord
  2
OpenSans-Italic
 70
0
 40
0.0
 41
1.0
 50
0.0
 71
0
 42
2.5
  3
OpenSans-Italic.ttf
  4

  0
STYLE
  5
45
330
5
100
AcDbSymbolTableRecord
100
AcDbTextStyleTableRecord
  2
OpenSans-SemiBold
 70
0
 40
0.0
 41
1.0
 50
0.0
 71
0
 42
2.5
  3
OpenSans-SemiBold.ttf
  4

  0
STYLE
  5
46
330
5
100
AcDbSymbolTableRecord
100
AcDbTextStyleTableRecord
  2
OpenSans-SemiBoldItalic
 70
0
 40
0.0
 41
1.0
 50
0.0
 71
0
 42
2.5
  3
OpenSans-SemiBoldItalic.ttf
  4

  0
STYLE
  5
47
330
5
100
AcDbSymbolTableRecord
100
AcDbTextStyleTableRecord
  2
OpenSans-Bold
 70
0
 40
0.0
 41
1.0
 50
0.0
 71
0
 42
2.5
  3
OpenSans-Bold.ttf
  4

  0
STYLE
  5
48
330
5
100
AcDbSymbolTableRecord
100
AcDbTextStyleTableRecord
  2
OpenSans-BoldItalic
 70
0
 40
0.0
 41
1.0
 50
0.0
 71
0
 42
2.5
  3
OpenSans-BoldItalic.ttf
  4

  0
STYLE
  5
49
330
5
100
AcDbSymbolTableRecord
100
AcDbTextStyleTableRecord
  2
OpenSans-ExtraBold
 70
0
 40
0.0
 41
1.0
 50
0.0
 71
0
 42
2.5
  3
OpenSans-ExtraBold.ttf
  4

  0
STYLE
  5
4A
330
5
100
AcDbSymbolTableRecord
100
AcDbTextStyleTableRecord
  2
OpenSans-ExtraBoldItalic
 70
0
 40
0.0
 41
1.0
 50
0.0
 71
0
 42
2.5
  3
OpenSans-ExtraBoldItalic.ttf
  4

  0
STYLE
  5
4B
330
5
100
AcDbSymbolTableRecord
100
AcDbTextStyleTableRecord
  2
OpenSansCondensed-Bold
 70
0
 40
0.0
 41
1.0
 50
0.0
 71
0
 42
2.5
  3
OpenSansCondensed-Bold.ttf
  4

  0
STYLE
  5
4C
330
5
100
AcDbSymbolTableRecord
100
AcDbTextStyleTableRecord
  2
OpenSansCondensed-Light
 70
0
 40
0.0
 41
1.0
 50
0.0
 71
0
 42
2.5
  3
OpenSansCondensed-Light.ttf
  4

  0
STYLE
  5
4D
330
5
100
AcDbSymbolTableRecord
100
AcDbTextStyleTableRecord
  2
OpenSansCondensed-Italic
 70
0
 40
0.0
 41
1.0
 50
0.0
 71
0
 42
2.5
  3
OpenSansCondensed-LightItalic.ttf
  4

  0
STYLE
  5
4E
330
5
100
AcDbSymbolTableRecord
100
AcDbTextStyleTableRecord
  2
LiberationSans
 70
0
 40
0.0
 41
1.0
 50
0.0
 71
0
 42
2.5
  3
LiberationSans-Regular.ttf
  4

  0
STYLE
  5
4F
330
5
100
AcDbSymbolTableRecord
100
AcDbTextStyleTableRecord
  2
LiberationSans-Bold
 70
0
 40
0.0
 41
1.0
 50
0.0
 71
0
 42
2.5
  3
LiberationSans-Bold.ttf
  4

  0
STYLE
  5
50
330
5
100
AcDbSymbolTableRecord
100
AcDbTextStyleTableRecord
  2
LiberationSans-BoldItalic
 70
0
 40
0.0
 41
1.0
 50
0.0
 71
0
 42
2.5
  3
LiberationSans-BoldItalic.ttf
  4

  0
STYLE
  5
51
330
5
100
AcDbSymbolTableRecord
100
AcDbTextStyleTableRecord
  2
LiberationSans-Italic
 70
0
 40
0.0
 41
1.0
 50
0.0
 71
0
 42
2.5
  3
LiberationSans-Italic.ttf
  4

  0
STYLE
  5
52
330
5
100
AcDbSymbolTableRecord
100
AcDbTextStyleTableRecord
  2
LiberationSerif
 70
0
 40
0.0
 41
1.0
 50
0.0
 71
0
 42
2.5
  3
LiberationSerif-Regular.ttf
  4

  0
STYLE
  5
53
330
5
100
AcDbSymbolTableRecord
100
AcDbTextStyleTableRecord
  2
LiberationSerif-Bold
 70
0
 40
0.0
 41
1.0
 50
0.0
 71
0
 42
2.5
  3
LiberationSerif-Bold.ttf
  4

  0
STYLE
  5
54
330
5
100
AcDbSymbolTableRecord
100
AcDbTextStyleTableRecord
  2
LiberationSerif-BoldItalic
 70
0
 40
0.0
 41
1.0
 50
0.0
 71
0
 42
2.5
  3
LiberationSerif-BoldItalic.ttf
  4

  0
STYLE
  5
55
330
5
100
AcDbSymbolTableRecord
100
AcDbTextStyleTableRecord
  2
LiberationSerif-Italic
 70
0
 40
0.0
 41
1.0
 50
0.0
 71
0
 42
2.5
  3
LiberationSerif-Italic.ttf
  4

  0
STYLE
  5
56
330
5
100
AcDbSymbolTableRecord
100
AcDbTextStyleTableRecord
  2
LiberationMono
 70
0
 40
0.0
 41
1.0
 50
0.0
 71
0
 42
2.5
  3
LiberationMono-Regular.ttf
  4

  0
STYLE
  5
57
330
5
100
AcDbSymbolTableRecord
100
AcDbTextStyleTableRecord
  2
LiberationMono-Bold
 70
0
 40
0.0
 41
1.0
 50
0.0
 71
0
 42
2.5
  3
LiberationMono-Bold.ttf
  4

  0
STYLE
  5
58
330
5
100
AcDbSymbolTableRecord
100
AcDbTextStyleTableRecord
  2
LiberationMono-BoldItalic
 70
0
 40
0.0
 41
1.0
 50
0.0
 71
0
 42
2.5
  3
LiberationMono-BoldItalic.ttf
  4

  0
STYLE
  5
59
330
5
100
AcDbSymbolTableRecord
100
AcDbTextStyleTableRecord
  2
LiberationMono-Italic
 70
0
 40
0.0
 41
1.0
 50
0.0
 71
0
 42
2.5
  3
LiberationMono-Italic.ttf
  4

  0
ENDTAB
  0
TABLE
  2
VIEW
  5
7
330
0
100
AcDbSymbolTable
 70
0
  0
ENDTAB
  0
TABLE
  2
UCS
  5
6
330
0
100
AcDbSymbolTable
 70
0
  0
ENDTAB
  0
TABLE
  2
APPID
  5
3
330
0
100
AcDbSymbolTable
 70
3
  0
APPID
  5
2A
330
3
100
AcDbSymbolTableRecord
100
AcDbRegAppTableRecord
  2
ACAD
 70
0
  0
APPID
  5
95
330
3
100
AcDbSymbolTableRecord
100
AcDbRegAppTableRecord
  2
HATCHBACKGROUNDCOLOR
 70
0
  0
APPID
  5
96
330
3
100
AcDbSymbolTableRecord
100
AcDbRegAppTableRecord
  2
EZDXF
 70
0
  0
ENDTAB
  0
TABLE
  2
DIMSTYLE
  5
4
330
0
100
AcDbSymbolTable
 70
12
100
AcDbDimStyleTable
  0
DIMSTYLE
105
2B
330
4
100
AcDbSymbolTableRecord
100
AcDbDimStyleTableRecord
  2
Standard
 70
0
 40
1.0
 41
2.5
 42
0.625
 43
3.75
 44
1.25
 45
0.0
 46
0.0
 47
0.0
 48
0.0
 49
2.5
140
2.5
141
2.5
142
0.0
143
0.03937007874
144
1.0
145
0.0
146
1.0
147
0.625
148
0.0
 69
0
 70
0
 71
0
 72
0
 73
0
 74
0
 75
0
 76
0
 77
1
 78
8
 79
3
170
0
171
3
172
1
173
0
174
0
175
0
176
0
177
0
178
0
179
2
271
2
272
2
273
2
274
3
275
0
276
0
277
2
278
44
279
0
280
0
281
0
282
0
283
0
284
8
285
0
286
0
288
0
289
3
290
0
371
-2
372
-2
  0
DIMSTYLE
105
73
330
4
100
AcDbSymbolTableRecord
100
AcDbDimStyleTableRecord
  2
EZDXF
 70
0
 40
1.0
 41
0.175
 42
0.125
 43
3.75
 44
0.375
 45
0.0
 46
0.0
 47
0.0
 48
0.0
 49
2.5
140
0.25
141
2.5
142
0.0
143
0.03937007874
144
100.0
145
0.0
146
0.5
147
0.1
148
0.0
 69
0
 70
0
 71
0
 72
0
 73
0
 74
0
 75
0
 76
0
 77
1
 78
12
 79
3
170
0
171
3
172
1
173
0
174
0
175
0
176
0
177
0
178
0
179
2
271
2
272
2
273
2
274
3
275
0
276
0
277
2
278
46
279
2
280
0
281
0
282
0
283
0
284
8
285
0
286
0
288
1
289
3
290
0
340
4C
342
74
371
-2
372
-2
  0
DIMSTYLE
105
7C
330
4
100
AcDbSymbolTableRecord
100
AcDbDimStyleTableRecord
  2
EZ_M_100_H25_CM
 70
0
 40
1.0
 41
0.25
 42
0.125
 43
3.75
 44
0.375
 45
0.0
 46
0.0
 47
0.0
 48
0.0
 49
2.5
140
0.25
141
2.5
142
0.125
143
0.03937007874
144
100.0
145
0.0
146
0.5
147
0.1
148
0.0
 69
0
 70
0
 71
0
 72
0
 73
0
 74
0
 75
0
 76
0
 77
1
 78
12
 79
3
170
0
171
3
172
1
173
0
174
0
175
0
176
0
177
0
178
0
179
2
271
2
272
2
273
2
274
3
275
0
276
0
277
2
278
46
279
2
280
0
281
0
282
0
283
0
284
8
285
0
286
0
288
1
289
3
290
0
340
4C
371
-2
372
-2
  0
DIMSTYLE
105
7D
330
4
100
AcDbSymbolTableRecord
100
AcDbDimStyleTableRecord
  2
EZ_M_50_H25_CM
 70
0
 40
1.0
 41
0.125
 42
0.0625
 43
3.75
 44
0.1875
 45
0.0
 46
0.0
 47
0.0
 48
0.0
 49
2.5
140
0.125
141
2.5
142
0.0625
143
0.03937007874
144
100.0
145
0.0
146
0.5
147
0.05
148
0.0
 69
0
 70
0
 71
0
 72
0
 73
0
 74
0
 75
0
 76
0
 77
1
 78
12
 79
3
170
0
171
3
172
1
173
0
174
0
175
0
176
0
177
0
178
0
179
2
271
2
272
2
273
2
274
3
275
0
276
0
277
2
278
46
279
2
280
0
281
0
282
0
283
0
284
8
285
0
286
0
288
1
289
3
290
0
340
4C
371
-2
372
-2
  0
DIMSTYLE
105
7E
330
4
100
AcDbSymbolTableRecord
100
AcDbDimStyleTableRecord
  2
EZ_M_25_H25_CM
 70
0
 40
1.0
 41
0.0625
 42
0.03125
 43
3.75
 44
0.09375
 45
0.0
 46
0.0
 47
0.0
 48
0.0
 49
2.5
140
0.0625
141
2.5
142
0.03125
143
0.03937007874
144
100.0
145
0.0
146
0.5
147
0.025
148
0.0
 69
0
 70
0
 71
0
 72
0
 73
0
 74
0
 75
0
 76
0
 77
1
 78
12
 79
3
170
0
171
3
172
1
173
0
174
0
175
0
176
0
177
0
178
0
179
2
271
2
272
2
273
2
274
3
275
0
276
0
277
2
278
46
279
2
280
0
281
0
282
0
283
0
284
8
285
0
286
0
288
1
289
3
290
0
340
4C
371
-2
372
-2
  0
DIMSTYLE
105
7F
330
4
100
AcDbSymbolTableRecord
100
AcDbDimStyleTableRecord
  2
EZ_M_20_H25_CM
 70
0
 40
1.0
 41
0.05
 42
0.025
 43
3.75
 44
0.07500000000000001
 45
0.0
 46
0.0
 47
0.0
 48
0.0
 49
2.5
140
0.05
141
2.5
142
0.025
143
0.03937007874
144
100.0
145
0.0
146
0.5
147
0.020000000000000004
148
0.0
 69
0
 70
0
 71
0
 72
0
 73
0
 74
0
 75
0
 76
0
 77
1
 78
12
 79
3
170
0
171
3
172
1
173
0
174
0
175
0
176
0
177
0
178
0
179
2
271
2
272
2
273
2
274
3
275
0
276
0
277
2
278
46
279
2
280
0
281
0
282
0
283
0
284
8
285
0
286
0
288
1
289
3
290
0
340
4C
371
-2
372
-2
  0
DIMSTYLE
105
80
330
4
100
AcDbSymbolTableRecord
100
AcDbDimStyleTableRecord
  2
EZ_M_10_H25_CM
 70
0
 40
1.0
 41
0.025
 42
0.0125
 43
3.75
 44
0.037500000000000006
 45
0.0
 46
0.0
 47
0.0
 48
0.0
 49
2.5
140
0.025
141
2.5
142
0.0125
143
0.03937007874
144
100.0
145
0.0
146
0.5
147
0.010000000000000002
148
0.0
 69
0
 70
0
 71
0
 72
0
 73
0
 74
0
 75
0
 76
0
 77
1
 78
12
 79
3
170
0
171
3
172
1
173
0
174
0
175
0
176
0
177
0
178
0
179
2
271
2
272
2
273
2
274
3
275
0
276
0
277
2
278
46
279
2
280
0
281
0
282
0
283
0
284
8
285
0
286
0
288
1
289
3
290
0
340
4C
371
-2
372
-2
  0
DIMSTYLE
105
81
330
4
100
AcDbSymbolTableRecord
100
AcDbDimStyleTableRecord
  2
EZ_M_5_H25_CM
 70
0
 40
1.0
 41
0.0125
 42
0.00625
 43
3.75
 44
0.018750000000000003
 45
0.0
 46
0.0
 47
0.0
 48
0.0
 49
2.5
140
0.0125
141
2.5
142
0.00625
143
0.03937007874
144
100.0
145
0.0
146
0.5
147
0.005000000000000001
148
0.0
 69
0
 70
0
 71
0
 72
0
 73
0
 74
0
 75
0
 76
0
 77
1
 78
12
 79
3
170
0
171
3
172
1
173
0
174
0
175
0
176
0
177
0
178
0
179
2
271
2
272
2
273
2
274
3
275
0
276
0
277
2
278
46
279
2
280
0
281
0
282
0
283
0
284
8
285
0
286
0
288
1
289
3
290
0
340
4C
371
-2
372
-2
  0
DIMSTYLE
105
82
330
4
100
AcDbSymbolTableRecord
100
AcDbDimStyleTableRecord
  2
EZ_M_1_H25_CM
 70
0
 40
1.0
 41
0.0025
 42
0.00125
 43
3.75
 44
0.00375
 45
0.0
 46
0.0
 47
0.0
 48
0.0
 49
2.5
140
0.0025
141
2.5
142
0.00125
143
0.03937007874
144
100.0
145
0.0
146
0.5
147
0.001
148
0.0
 69
0
 70
0
 71
0
 72
0
 73
0
 74
0
 75
0
 76
0
 77
1
 78
12
 79
3
170
0
171
3
172
1
173
0
174
0
175
0
176
0
177
0
178
0
179
2
271
2
272
2
273
2
274
3
275
0
276
0
277
2
278
46
279
2
280
0
281
0
282
0
283
0
284
8
285
0
286
0
288
1
289
3
290
0
340
4C
371
-2
372
-2
  0
DIMSTYLE
105
83
330
4
100
AcDbSymbolTableRecord
100
AcDbDimStyleTableRecord
  2
EZ_RADIUS
 70
0
 40
1.0
 41
0.25
 42
0.125
 43
3.75
 44
0.375
 45
0.0
 46
0.0
 47
0.0
 48
0.0
 49
2.5
140
0.25
141
0.0
142
0.0
143
0.03937007874
144
100.0
145
0.0
146
0.5
147
0.1
148
0.0
 69
0
 70
0
 71
0
 72
0
 73
0
 74
0
 75
0
 76
0
 77
1
 78
12
 79
3
170
0
171
3
172
0
173
0
174
0
175
0
176
0
177
0
178
0
179
2
271
2
272
2
273
2
274
3
275
0
276
0
277
2
278
46
279
1
280
0
281
0
282
0
283
0
284
8
285
0
286
0
288
1
289
3
290
0
340
4C
342
84
371
-2
372
-2
  0
DIMSTYLE
105
88
330
4
100
AcDbSymbolTableRecord
100
AcDbDimStyleTableRecord
  2
EZ_RADIUS_INSIDE
 70
0
 40
1.0
 41
0.25
 42
0.125
 43
3.75
 44
0.375
 45
0.0
 46
0.0
 47
0.0
 48
0.0
 49
2.5
140
0.25
141
0.0
142
0.0
143
0.03937007874
144
100.0
145
0.0
146
0.5
147
0.1
148
0.0
 69
0
 70
0
 71
0
 72
0
 73
0
 74
0
 75
0
 76
0
 77
0
 78
12
 79
3
170
0
171
3
172
0
173
0
174
1
175
0
176
0
177
0
178
0
179
2
271
2
272
2
273
2
274
3
275
0
276
0
277
2
278
46
279
0
280
0
281
0
282
0
283
0
284
8
285
0
286
0
288
1
289
0
290
0
340
4C
342
84
371
-2
372
-2
  0
DIMSTYLE
105
89
330
4
100
AcDbSymbolTableRecord
100
AcDbDimStyleTableRecord
  2
EZ_CURVED
 70
0
 40
1.0
 41
0.25
 42
0.125
 43
3.75
 44
0.375
 45
0.0
 46
0.0
 47
0.0
 48
0.0
 49
2.5
140
0.25
141
2.5
142
0.0
143
0.03937007874
144
100.0
145
0.0
146
0.5
147
0.1
148
0.0
 69
0
 70
0
 71
0
 72
0
 73
0
 74
0
 75
0
 76
0
 77
1
 78
12
 79
2
 90
2
170
0
171
3
172
1
173
0
174
0
175
0
176
0
177
0
178
0
179
2
271
2
272
2
273
2
274
3
275
0
276
0
277
2
278
46
279
2
280
0
281
0
282
0
283
0
284
8
285
0
286
0
288
1
289
3
290
0
340
4C
371
-2
372
-2
  0
ENDTAB
  0
TABLE
  2
BLOCK_RECORD
  5
9
330
0
100
AcDbSymbolTable
 70
5
  0
BLOCK_RECORD
  5
17
330
9
100
AcDbSymbolTableRecord
100
AcDbBlockTableRecord
  2
*Model_Space
340
1A
 70
0
280
1
281
0
  0
BLOCK_RECORD
  5
1B
330
9
100
AcDbSymbolTableRecord
100
AcDbBlockTableRecord
  2
*Paper_Space
340
1E
 70
0
280
1
281
0
  0
BLOCK_RECORD
  5
74
330
9
100
AcDbSymbolTableRecord
100
AcDbBlockTableRecord
  2
_ARCHTICK
340
0
 70
0
280
1
281
0
  0
BLOCK_RECORD
  5
78
330
9
100
AcDbSymbolTableRecord
100
AcDbBlockTableRecord
  2
_CLOSEDFILLED
340
0
 70
0
280
1
281
0
  0
BLOCK_RECORD
  5
84
330
9
100
AcDbSymbolTableRecord
100
AcDbBlockTableRecord
  2
_CLOSEDBLANK
340
0
 70
0
280
1
281
0
  0
ENDTAB
  0
ENDSEC
  0
SECTION
  2
BLOCKS
  0
BLOCK
  5
18
330
17
100
AcDbEntity
  8
0
100
AcDbBlockBegin
  2
*Model_Space
 70
0
 10
0.0
 20
0.0
 30
0.0
  3
*Model_Space
  1

  0
ENDBLK
  5
19
330
17
100
AcDbEntity
  8
0
100
AcDbBlockEnd
  0
BLOCK
  5
1C
330
1B
100
AcDbEntity
  8
0
100
AcDbBlockBegin
  2
*Paper_Space
 70
0
 10
0.0
 20
0.0
 30
0.0
  3
*Paper_Space
  1

  0
ENDBLK
  5
1D
330
1B
100
AcDbEntity
  8
0
100
AcDbBlockEnd
  0
BLOCK
  5
75
330
74
100
AcDbEntity
  8
0
100
AcDbBlockBegin
  2
_ARCHTICK
 70
0
 10
0.0
 20
0.0
 30
0.0
  3
_ARCHTICK
  1

  0
LWPOLYLINE
  5
77
330
74
100
AcDbEntity
  8
0
  6
BYBLOCK
 62
0
100
AcDbPolyline
 90
2
 70
0
 43
0.15
 10
-0.5
 20
-0.5
 10
0.5
 20
0.5
  0
ENDBLK
  5
76
330
74
100
AcDbEntity
  8
0
100
AcDbBlockEnd
  0
BLOCK
  5
79
330
78
100
AcDbEntity
  8
0
100
AcDbBlockBegin
  2
_CLOSEDFILLED
 70
0
 10
0.0
 20
0.0
 30
0.0
  3
_CLOSEDFILLED
  1

  0
SOLID
  5
7B
330
78
100
AcDbEntity
  8
0
  6
BYBLOCK
 62
0
100
AcDbTrace
 10
-1.0
 20
0.16439898372402537
 30
0.0
 11
0.0
 21
0.0
 31
0.0
 12
-1.0
 22
-0.16439898372402537
 32
0.0
 13
-1.0
 23
-0.16439898372402537
 33
0.0
  0
ENDBLK
  5
7A
330
78
100
AcDbEntity
  8
0
100
AcDbBlockEnd
  0
BLOCK
  5
85
330
84
100
AcDbEntity
  8
0
100
AcDbBlockBegin
  2
_CLOSEDBLANK
 70
0
 10
0.0
 20
0.0
 30
0.0
  3
_CLOSEDBLANK
  1

  0
LWPOLYLINE
  5
87
330
84
100
AcDbEntity
  8
0
  6
BYBLOCK
 62
0
100
AcDbPolyline
 90
3
 70
1
 10
-1.0
 20
0.16439898372402537
 10
0.0
 20
0.0
 10
-1.0
 20
-0.16439898372402537
  0
ENDBLK
  5
86
330
84
100
AcDbEntity
  8
0
100
AcDbBlockEnd
  0
ENDSEC
  0
SECTION
  2
ENTITIES
  0
LWPOLYLINE
  5
8D
330
17
100
AcDbEntity
  8
HOJA
100
AcDbPolyline
 90
4
 70
1
 10
0.0
 20
0.0
 10
600.0
 20
0.0
 10
600.0
 20
900.0
 10
0.0
 20
900.0
  0
LWPOLYLINE
  5
8E
330
17
100
AcDbEntity
  8
CORTE
100
AcDbPolyline
 90
633
 70
1
 10
13.732752704806899
 20
296.15440146936135
 10
13.732752704806899
 20
296.17652948382056
 10
14.797778678541363
 20
300.11685030949275
 10
13.032484960094735
 20
305.40481697752966
 10
13.030625221239461
 20
305.4113260635245
 10
13.028436024913844
 20
305.42665043780335
 10
13.029966403292747
 20
305.4381282756449
 10
13.03113480378488
 20
305.4451386785986
 10
13.033434732896694
 20
305.45203846593404
 10
13.035304432560679
 20
305.45702433170527
 10
13.040118696438185
 20
305.4666528594598
 10
18.800845285991272
 20
313.1198443368503
 10
19.07869968665773
 20
314.6830780610785
 10
19.00213200092776
 20
314.9345382692304
 10
18.802517525540225
 20
315.5854520520538
 10
16.027637658755793
 20
320.22140342467765
 10
16.02538170822072
 20
320.22591532574825
 10
16.02328465092205
 20
320.23080845944514
 10
16.020159580876225
 20
320.2401836695831
 10
16.018449396219694
 20
320.2521549621774
 10
16.018449396219694
 20
320.2592593563045
 10
16.193169267447047
 20
323.94989669163124
 10
16.193169267447047
 20
323.95242810004856
 10
16.982430014374586
 20
330.80372187109106
 10
17.03473117742533
 20
333.2122966353181
 10
17.035418731708887
 20
333.2219223952843
 10
17.037867958461447
 20
333.23049468891804
 10
18.799365545122328
 20
338.76180420217133
 10
18.799933003602746
 20
338.7640740360939
 10
20.250525422689407
 20
342.4979130697302
 10
22.231190243157016
 20
347.05270522068804
 10
22.231604361508744
 20
347.0539475757423
 10
24.476507441800095
 20
351.7610848862314
 10
25.77202198033592
 20
354.72783804154324
 10
25.77429478995782
 20
354.7346564704085
 10
30.089718063306464
 20
361.02088683453803
 10
31.899835824664024
 20
369.1447223858322
 10
31.844695800648424
 20
370.243621229597
 10
30.857913613398523
 20
377.00294532640055
 10
30.52310648092225
 20
379.47906801768113
 10
27.96528103884839
 20
382.3596933625777
 10
27.96199944219825
 20
382.3637042029277
 10
27.953470778270912
 20
382.3764971988189
 10
27.948847047979598
 20
382.3926802548385
 10
27.948029507044794
 20
382.3984030413808
 10
27.947368752276816
 20
382.4036890795246
 10
27.947368752276816
 20
382.4105059474191
 10
28.312639439404393
 20
388.78358432805726
 10
28.314742242118882
 20
388.7919955389161
 10
29.963908190928123
 20
394.36122681935103
 10
30.385354349863974
 20
398.03319068541396
 10
29.81367624176437
 20
403.38762728811434
 10
28.17022551319178
 20
407.2647995976963
 10
28.16831794456084
 20
407.2695685192725
 10
27.53333182556753
 20
409.617883882368
 10
27.5309187315479
 20
409.627536258447
 10
27.5309187315479
 20
409.64257162509784
 10
28.605955905993596
 20
416.548728893526
 10
27.791188857280304
 20
419.2206946575593
 10
26.2984620860193
 20
425.7906355895234
 10
26.1092552311261
 20
426.20884870534064
 10
25.78690051754711
 20
426.52274430316766
 10
25.782222110666225
 20
426.52835839142426
 10
22.725729177106587
 20
430.9581693665491
 10
18.82092349161212
 20
434.1804456726891
 10
18.813998884211742
 20
434.18737028008945
 10
18.50779016461638
 20
434.61612658065815
 10
18.05156466616245
 20
435.0183929725449
 10
18.049754608116473
 20
435.01990135424967
 10
18.042097674185243
 20
435.0275582881809
 10
18.034735099796308
 20
435.0386021497643
 10
18.030544312018264
 20
435.04768218995014
 10
18.026188118494247
 20
435.06075077052174
 10
18.025174868048452
 20
435.0759495272073
 10
18.793964975741346
 20
444.3421821655829
 10
18.795014849726613
 20
444.3474315355088
 10
18.796628400928512
 20
444.35446833584
 10
18.798002912427364
 20
444.3592791260867
 10
18.80117927870242
 20
444.36774943615274
 10
18.80485623257664
 20
444.3741841054334
 10
18.80948827259408
 20
444.3816375437723
 10
25.77394334987548
 20
453.634291975236
 10
29.937604150220068
 20
462.88710403565983
 10
29.940706449111076
 20
462.8943427330714
 10
32.753616532378146
 20
466.7371432268733
 10
32.7573040702473
 20
466.7415682723167
 10
32.76111201490721
 20
466.74537621697664
 10
38.79149254691356
 20
472.16956323089835
 10
39.722119425689016
 20
473.30165453779045
 10
44.63166365233337
 20
481.39816543968936
 10
44.48477990893252
 20
487.7214408549353
 10
44.402882767713436
 20
490.64031850366746
 10
44.40370346456166
 20
490.6518082595403
 10
44.40704501245
 20
490.6635036771495
 10
44.410158304723154
 20
490.6709755786055
 10
44.41618970190939
 20
490.68217674480866
 10
44.42463090673073
 20
490.6915558612768
 10
46.70778567202797
 20
492.7829209372644
 10
46.71724934165786
 20
492.78923005035085
 10
49.1498179710984
 20
493.931047168503
 10
53.68990465310071
 20
495.9767406397409
 10
60.240606069462956
 20
499.9567619896711
 10
60.63564040212805
 20
500.4357454455203
 10
66.69684240474817
 20
509.19141772518424
 10
67.59331960548616
 20
512.7642363174846
 10
68.90666795493007
 20
518.4398787330488
 10
68.90989566353528
 20
518.4503687860156
 10
68.918008137568
 20
518.4645656155726
 10
68.9296926314114
 20
518.4775483865096
 10
68.93888304870734
 20
518.4836753313739
 10
74.59891223365321
 20
521.9131226638174
 10
74.60762582908546
 20
521.9181018612071
 10
74.62554650916263
 20
521.923222055515
 10
77.26529425862282
 20
521.988378305085
 10
77.26799472535595
 20
521.988378305085
 10
81.59788745706601
 20
521.7833146918842
 10
84.82997968994005
 20
522.8012929561164
 10
84.8350804481961
 20
522.8026840720045
 10
88.54699499327853
 20
523.4178299292626
 10
93.98928845093587
 20
527.7353190646413
 10
95.48942599561497
 20
529.4881643058984
 10
100.6300161242475
 20
536.9756385367687
 10
102.44946614640321
 20
542.2757557167829
 10
102.45306047330223
 20
542.2847415340307
 10
102.45858334685181
 20
542.2930258443553
 10
105.43452171834451
 20
546.2465220530594
 10
109.43062452029608
 20
551.8955028343967
 10
109.43460347495011
 20
551.9004765277145
 10
109.44047795596816
 20
551.9063510087326
 10
109.4473304273356
 20
551.9118329858265
 10
109.45358483288283
 20
551.9156818507786
 10
116.34421432480576
 20
555.4950857568379
 10
113.5798721392971
 20
560.958682237972
 10
113.5776146047906
 20
560.9654548414919
 10
113.57502681243659
 20
560.9745121147312
 10
113.57409011434538
 20
560.9876258880095
 10
113.57502681243659
 20
561.0007396612878
 10
113.5776146047906
 20
561.009796934527
 10
113.57898949118862
 20
561.0139215937211
 10
115.13503199339584
 20
564.7546322526291
 10
115.13761778227354
 20
564.759803830384
 10
116.39688645382694
 20
566.8215351714443
 10
120.59390137456603
 20
574.0246163775714
 10
120.59785026230884
 20
574.0301448204109
 10
120.60086096428586
 20
574.0336573060508
 10
123.3757550848809
 20
577.0510661944973
 10
128.64900290133392
 20
583.2891044333264
 10
130.34143153342347
 20
585.9706373473873
 10
130.34582573711623
 20
585.9761301020035
 10
136.4692414678716
 20
592.5435134644026
 10
137.30425171890738
 20
595.2552609053
 10
141.15915029033476
 20
601.7994169890367
 10
144.27498665661324
 20
609.2662823547653
 10
144.27784053194773
 20
609.272941397212
 10
144.2836946076468
 20
609.281722510761
 10
144.29055043438393
 20
609.2901018545508
 10
144.29662619612463
 20
609.2951649893348
 10
144.30654196844807
 20
609.3030976071936
 10
144.31984658253987
 20
609.3080868374782
 10
144.3282649177172
 20
609.3106770944555
 10
144.33939458662962
 20
609.3120683030697
 10
144.34873324888486
 20
609.3120683030697
 10
144.35910620839695
 20
609.310771683131
 10
144.366234964275
 20
609.308734895737
 10
144.37074050638512
 20
609.3072330483669
 10
144.37785909463173
 20
609.3041822248329
 10
144.3902356991639
 20
609.2969625388555
 10
144.40003416687796
 20
609.2871640711414
 10
144.40466229129652
 20
609.2813789156185
 10
144.4124952771731
 20
609.2696294368034
 10
146.03683143868875
 20
604.0229542031575
 10
151.31159664386678
 20
604.4725793287553
 10
151.3209945775866
 20
604.4725793287553
 10
151.33130721216867
 20
604.4708605563251
 10
151.34209378942296
 20
604.4677786771094
 10
151.35611410320462
 20
604.4607685202186
 10
151.3686204882415
 20
604.450346532688
 10
151.37516977908854
 20
604.4421599191287
 10
152.29300191081575
 20
603.0924942394113
 10
158.27334129998508
 20
603.476305799391
 10
159.80409472593874
 20
603.8839955282147
 10
165.2309590496784
 20
605.742914555045
 10
169.30423993811837
 20
607.2473474225917
 10
169.30692628079714
 20
607.2482428701514
 10
169.31257750295572
 20
607.249857505054
 10
169.3228901375378
 20
607.2515762774842
 10
169.33256535480814
 20
607.2515762774842
 10
172.18308396265093
 20
606.9873933588078
 10
174.253926091214
 20
611.0545029575214
 10
175.74054607352264
 20
615.805396077652
 10
175.74054607352264
 20
615.8075568235372
 10
177.43366551893723
 20
620.315130022906
 10
177.43520714050692
 20
620.318727139902
 10
177.4374809256833
 20
620.3232747102547
 10
177.44078898249109
 20
620.3287881382676
 10
179.13658191512013
 20
622.6303591189699
 10
183.96900589061988
 20
629.5681482132222
 10
183.48616007428427
 20
635.3415116680221
 10
183.48616007428427
 20
635.3491363265248
 10
183.90336166320276
 20
638.8180578842689
 10
183.9042039279434
 20
638.8239537374516
 10
183.90594816534622
 20
638.8300585683614
 10
186.09863044857502
 20
645.651880903059
 10
186.10328373049924
 20
645.661187466907
 10
186.10767920795706
 20
645.6677806830935
 10
186.11491821282516
 20
645.6768294391791
 10
186.12396696891074
 20
645.6840684440472
 10
186.1305601850945
 20
645.6884639215032
 10
186.13634625806026
 20
645.691356957986
 10
191.67885591497588
 20
648.137726393224
 10
191.68435841206247
 20
648.1399273920588
 10
193.1203449283139
 20
648.518528881475
 10
193.12976812962006
 20
648.5208846818014
 10
193.14339765537397
 20
648.5208846818014
 10
193.1539031044963
 20
648.5196487466105
 10
193.37912056018513
 20
648.454503090547
 10
200.10364480008366
 20
649.1337183457372
 10
200.8870625407917
 20
649.1793663885678
 10
200.89081670825817
 20
649.1793663885678
 10
207.0721353019635
 20
648.9203006816169
 10
207.79466615936235
 20
649.1110689257148
 10
207.8042627328423
 20
649.1124398647835
 10
207.81492290463257
 20
649.1124398647835
 10
207.8252709745475
 20
649.1109615690812
 10
207.83176386525474
 20
649.1091064574507
 10
207.83626940736485
 20
649.1076046100807
 10
207.84199909061363
 20
649.1051490315454
 10
209.66969376681618
 20
648.13523292725
 10
212.87426214095012
 20
646.527720370213
 10
212.8755478096
 20
646.5270775358881
 10
214.09000167087152
 20
645.8584399403044
 10
214.09598033951852
 20
645.8544541612064
 10
214.1031917911455
 20
645.8484446181842
 10
214.108286505259
 20
645.8427838247244
 10
216.8144857595148
 20
642.4495553032784
 10
216.81880623162533
 20
642.4443707367459
 10
216.82456548552636
 20
642.4336749795007
 10
218.2281758724589
 20
638.8322472631962
 10
218.23054545124342
 20
638.8239537374502
 10
218.23136299217822
 20
638.818230950908
 10
218.2326903747471
 20
638.807611890355
 10
218.23072280160204
 20
638.7938388783391
 10
218.22778765874818
 20
638.7820983069241
 10
218.22262890438196
 20
638.7717807981908
 10
218.215403842235
 20
638.7600400722022
 10
214.099669988585
 20
634.991534067979
 10
207.17383660262976
 20
629.5237918053504
 10
209.62743671343105
 20
623.6195497656186
 10
211.9468473884731
 20
620.3295733046434
 10
211.94997971558496
 20
620.3248748139758
 10
211.95305355262235
 20
620.3187271399011
 10
211.95515060992102
 20
620.3138340062042
 10
211.95827567996685
 20
620.3044587960662
 10
211.95971985689403
 20
620.2943495575764
 10
212.0932415279558
 20
617.6253445732391
 10
214.0953598989936
 20
615.9582827339818
 10
216.56568322056137
 20
614.3853752428681
 10
221.05576715364214
 20
612.3387075669452
 10
221.06397659006143
 20
612.3340897589592
 10
221.6555191536345
 20
611.8572710764579
 10
221.66076404625392
 20
611.8520261838385
 10
221.66342209272534
 20
611.8488365280728
 10
221.66733255816052
 20
611.8439484462788
 10
221.67315564353794
 20
611.8339660142033
 10
221.67834423108343
 20
611.8204756865853
 10
221.78993201129833
 20
611.0504987516488
 10
224.446792879432
 20
606.275099005009
 10
228.0320054035028
 20
601.8407005342251
 10
228.03580724416133
 20
601.8403191184202
 10
228.04245362785377
 20
601.8394883204587
 10
228.0486801863949
 20
601.8377093037325
 10
233.65344329166692
 20
600.1239799734581
 10
234.92364041778455
 20
600.9704363301612
 10
234.9311100420855
 20
600.9747046869043
 10
234.93958035215155
 20
600.9778810531793
 10
234.94332668160632
 20
600.9789514330237
 10
238.2434236054719
 20
601.8389053529481
 10
238.2461741285556
 20
601.8394554575648
 10
241.9209268696104
 20
602.5086491148504
 10
241.92760383898394
 20
602.5097619430794
 10
241.94001821853726
 20
602.5097619430794
 10
241.95033085311934
 20
602.5080431706492
 10
241.95898577001935
 20
602.5055703372491
 10
241.97309900042592
 20
602.499521809932
 10
241.98160899866343
 20
602.4925590841012
 10
242.26313952434975
 20
602.2572316732735
 10
248.89156263580253
 20
603.6394957444959
 10
248.89920441291633
 20
603.6405874269408
 10
248.91026999024052
 20
603.6405874269408
 10
248.92222132312418
 20
603.6387487603433
 10
248.93272115315267
 20
603.6352488170005
 10
249.92831237591827
 20
603.1577306193412
 10
253.82902542604643
 20
601.8351639956727
 10
253.83463561925737
 20
601.8323588990675
 10
253.84162181970214
 20
601.8285970988281
 10
253.84776263299227
 20
601.8236844481958
 10
255.09359985817946
 20
600.7675950704652
 10
255.86617127612863
 20
600.7873662977363
 10
260.65577118291185
 20
601.8393932770359
 10
262.8341246903328
 20
602.2181349694665
 10
262.83795130209364
 20
602.2186816282892
 10
263.1436514756115
 20
602.2398394052093
 10
263.1515738687035
 20
602.2398394052093
 10
263.16192193861843
 20
602.238361109507
 10
263.1735501844214
 20
602.2350387535635
 10
263.1872644226928
 20
602.228181634428
 10
263.1939980838674
 20
602.2226722752848
 10
263.2000768832395
 20
602.2176066091415
 10
263.2067476236866
 20
602.209268183582
 10
263.46826204339413
 20
601.8203996009697
 10
267.74529089870884
 20
599.0530482124727
 10
269.8266646778261
 20
598.8481289575116
 10
274.0027080357613
 20
598.1249089923558
 10
274.0063578410627
 20
598.1243875915984
 10
276.81050335097416
 20
597.349444477285
 10
276.8173213348118
 20
597.3468877333457
 10
276.8221777807771
 20
597.3444595103633
 10
279.3644686340249
 20
595.9441550643814
 10
279.36920422608955
 20
595.9413137091428
 10
283.77717649454826
 20
592.5860815184042
 10
290.7028756243817
 20
593.9202817343412
 10
292.42305666218044
 20
594.8712654218525
 10
297.6624806138875
 20
598.1753821868915
 10
297.66803330142966
 20
598.1781585306626
 10
303.8387509309928
 20
600.7666878785999
 10
303.84298207939537
 20
600.7680982614006
 10
303.8494749701026
 20
600.7699533730311
 10
303.85982304001755
 20
600.7714316687334
 10
303.8656635713728
 20
600.7714316687334
 10
304.6504113490596
 20
600.7607492823463
 10
306.49784973358237
 20
601.8295107549134
 10
306.5007236261072
 20
601.8314266832631
 10
311.6118617772031
 20
604.1919372907378
 10
311.61728420957434
 20
604.1939707028769
 10
311.62511326031836
 20
604.1962075745178
 10
311.6354613302333
 20
604.1976858702201
 10
311.6461215020249
 20
604.1976858702201
 10
311.6612178646642
 20
604.1955292469861
 10
311.6731287967814
 20
604.190424561793
 10
312.94370096056764
 20
603.5194065040309
 10
316.5522254628927
 20
601.8310421120159
 10
316.56189148472777
 20
601.8243502507457
 10
317.78256108574215
 20
600.686086190954
 10
318.6304882798072
 20
600.5098099836996
 10
318.6398291618607
 20
600.5068602314723
 10
322.9634535572336
 20
598.3336242869618
 10
325.5848017623425
 20
598.1542259162675
 10
325.5909977015617
 20
598.1542259162675
 10
329.1580511410698
 20
597.3095023069418
 10
329.16136234593296
 20
597.3089504394648
 10
329.16993048532186
 20
597.3060943930018
 10
332.584428892676
 20
595.839787228259
 10
332.5882376437762
 20
595.8378828527088
 10
332.5951213658618
 20
595.8339492972314
 10
332.60293043781303
 20
595.8277020396704
 10
332.60827330953725
 20
595.8223591679462
 10
332.6109313560087
 20
595.8191695121805
 10
332.61484182144386
 20
595.8142814303865
 10
332.62082477317426
 20
595.8040249417054
 10
332.6256167985848
 20
595.7912462072782
 10
332.6269575658621
 20
595.7832016036141
 10
332.6278346697436
 20
595.7770618764434
 10
332.6278346697436
 20
13.375024310055778
 10
332.6278333532355
 20
13.000005265751952
 10
332.4778346696776
 20
13.000005529037935
 10
332.4778346696776
 20
276.2129316184487
 10
331.19504185757023
 20
275.7354740079818
 10
325.6202777312815
 20
273.5269713009952
 10
319.11212494374195
 20
268.3308923467848
 10
318.6705905918393
 20
267.7899663008243
 10
318.6687949502766
 20
267.78757211207403
 10
316.7435149550329
 20
265.77904865605933
 10
311.6915554924335
 20
260.4919633980571
 10
311.684013324897
 20
260.48592966402794
 10
309.3637367975439
 20
259.0603937715532
 10
304.7088810750315
 20
256.08753174699405
 10
304.7052814210365
 20
256.08547480185416
 10
301.1517167451916
 20
254.33444867685603
 10
297.74133866344073
 20
251.9985023323993
 10
297.73879768917186
 20
251.99680834955325
 10
297.7286750207518
 20
251.99102396759872
 10
297.71713476888954
 20
251.98772675278133
 10
291.43704541205716
 20
250.71271351550195
 10
290.745796900987
 20
250.60296367995443
 10
288.1236464708809
 20
249.7918346600286
 10
283.7837558621245
 20
248.35582210050006
 10
283.78109251932756
 20
248.35475676338137
 10
282.443107713495
 20
248.02271623519619
 10
282.43935716340366
 20
248.02209114351444
 10
282.433217436233
 20
248.02121403963292
 10
282.42007029289425
 20
248.02121403963292
 10
276.7807018703934
 20
249.20967853813227
 10
276.33719791180147
 20
249.19513980946385
 10
276.32982693404665
 20
249.1961226064982
 10
276.3206241025832
 20
249.19765641174217
 10
276.3058460786665
 20
249.2035676213086
 10
276.29029793423524
 20
249.21393305092943
 10
276.2810482472232
 20
249.22503267534375
 10
275.88664454182845
 20
249.80204906439303
 10
271.2057145925937
 20
251.6650867886724
 10
269.81559158102255
 20
251.9458260417141
 10
263.67065436334406
 20
250.86929943009454
 10
263.66420717805977
 20
250.86837840362523
 10
263.64837297131317
 20
250.86837840362523
 10
263.6367060456437
 20
250.87171181095937
 10
263.62563157100203
 20
250.87540330250658
 10
263.61600156104623
 20
250.88182330914378
 10
263.60722104624756
 20
250.8882091380883
 10
262.81866946014634
 20
251.83483794200765
 10
256.1252346499732
 20
250.0967953941913
 10
256.116008990934
 20
250.09415949160848
 10
256.09500074922835
 20
250.09415949160848
 10
256.08333382356204
 20
250.0974928989417
 10
256.07162332370535
 20
250.10139639889394
 10
256.0556151487772
 20
250.1124789815367
 10
256.0461186552143
 20
250.12303064105072
 10
256.0429549268056
 20
250.127776233664
 10
255.8416932286359
 20
250.43431419058152
 10
253.23543277034514
 20
249.79129484689793
 10
248.931515507531
 20
248.289724485016
 10
247.27399014996672
 20
247.58910094890462
 10
247.26471624566238
 20
247.58512641848802
 10
247.24959573104888
 20
247.5831103498731
 10
247.23606611857713
 20
247.5831103498731
 10
241.98688478787335
 20
248.79592089308926
 10
239.70702051475337
 20
240.57881100227496
 10
239.70485778084185
 20
240.5734041674964
 10
236.2210644971201
 20
232.89252454453026
 10
235.6211021664176
 20
231.31107568175003
 10
235.61687938923524
 20
231.30315797453295
 10
235.02726986807966
 20
230.4442857413319
 10
230.5355581979593
 20
222.0431451392924
 10
230.53238380544826
 20
222.03838355052585
 10
230.53109576939278
 20
222.0366661691187
 10
228.05357704238304
 20
218.74520887455265
 10
228.04830881620683
 20
218.7373065352881
 10
228.03762017185136
 20
218.7287556198039
 10
228.0349728541314
 20
218.7268646785751
 10
228.02947291324153
 20
218.7231980513152
 10
224.16742196216546
 20
216.88501806366685
 10
221.06406915264006
 20
214.7604699476624
 10
218.1244740166976
 20
212.75725762142247
 10
218.1208013532214
 20
212.75515895657918
 10
214.0907195304253
 20
210.62922347455424
 10
210.58251153431047
 20
208.09094795441433
 10
210.57835835971218
 20
208.08679477981605
 10
207.12217078573212
 20
206.32259659456622
 10
203.82191925473808
 20
203.52572292297964
 10
203.82191925473808
 20
199.1392062133973
 10
204.75674729543698
 20
194.31222754079363
 10
204.75776313061397
 20
194.30511669455427
 10
204.75776313061397
 20
194.29511727753106
 10
204.75699420128922
 20
194.28896584293307
 10
204.75604435818332
 20
194.28326678429676
 10
204.75229077435006
 20
194.2701292408815
 10
204.74485232591542
 20
194.25737761499295
 10
200.16679353157042
 20
188.48385651036278
 10
200.16109287185418
 20
188.47758578467483
 10
200.15024507972612
 20
188.4689075509723
 10
200.1420904836168
 20
188.46483025291764
 10
200.13298788697284
 20
188.4606290544666
 10
200.11702382854583
 20
188.4574362427811
 10
200.1047956874063
 20
188.4574362427811
 10
196.15248882974993
 20
188.96559118978848
 10
193.15013777780723
 20
188.49284313837006
 10
193.14433113744053
 20
188.49201361831774
 10
193.12976812962143
 20
188.49201361831774
 10
193.11878745759986
 20
188.49475878632302
 10
189.6158103783132
 20
189.58059419394522
 10
189.6081234335943
 20
189.5834767982151
 10
189.597814254063
 20
189.589367757947
 10
189.59145459828414
 20
189.59445548257008
 10
186.13936051328074
 20
192.7212630570234
 10
185.06408477950754
 20
192.7212630570234
 10
179.24585268049168
 20
187.7744822658983
 10
179.24249014583347
 20
187.77168015368306
 10
179.23527150783957
 20
187.76686772835365
 10
179.22757422381028
 20
187.76301908633877
 10
179.22106131799683
 20
187.7605767466589
 10
179.2106678847208
 20
187.75760719429445
 10
179.19773225821154
 20
187.75668322097226
 10
179.18764551905906
 20
187.75735567024913
 10
174.95153806083044
 20
188.6066303289922
 10
172.20489476446255
 20
189.2350223895828
 10
172.19546433701134
 20
189.23864947706443
 10
172.18711595658488
 20
189.2431447588324
 10
169.74285767764468
 20
190.9869559592612
 10
169.7419258140353
 20
190.98742189106588
 10
165.440833959678
 20
194.23861595564176
 10
165.43782640606423
 20
194.24062099138428
 10
165.31001329506262
 20
194.3581158451525
 10
165.23269186745392
 20
194.38529670302523
 10
159.6648779235361
 20
196.0884075146514
 10
158.27003981971757
 20
196.48034981559476
 10
153.51426039469243
 20
197.1538318167095
 10
153.51026828275462
 20
197.1538318167095
 10
151.30551113509182
 20
197.70768806036813
 10
151.3047354942987
 20
197.70768806036813
 10
147.68257735985026
 20
198.6963687765783
 10
147.6714201387158
 20
198.70101761871774
 10
147.66266465369472
 20
198.70685460873165
 10
147.652783039714
 20
198.71475989991632
 10
144.32033438496
 20
203.128618542426
 10
143.9840215298409
 20
202.97654442603243
 10
143.97470689004695
 20
202.97367838301898
 10
143.9693591560963
 20
202.97278709402735
 10
137.39811653837023
 20
201.95190674967807
 10
135.42070871147962
 20
200.85027558151933
 10
130.44431500863993
 20
197.51063019037747
 10
130.43653723698435
 20
197.5054450092739
 10
130.42240798810508
 20
197.50039884895978
 10
125.15730694522108
 20
196.49082138286985
 10
123.45958510059427
 20
195.78248614674794
 10
119.29926331172283
 20
194.2294184315756
 10
116.5025788615626
 20
193.21069449955894
 10
113.39664831252958
 20
190.10499176147732
 10
113.39463271366685
 20
190.1029761625432
 10
109.53596711224509
 20
186.79071124547136
 10
109.52644681824813
 20
186.78436438280733
 10
109.51574846532867
 20
186.779779374413
 10
109.50561601471236
 20
186.77688438852238
 10
109.49524305520026
 20
186.7755877685836
 10
109.48436653429553
 20
186.7755877685836
 10
109.47626362478377
 20
186.77693825350207
 10
109.47090575700031
 20
186.77812889078768
 10
104.98689084911166
 20
188.22156099107724
 10
102.56035209573747
 20
186.72470617869476
 10
102.5530957751821
 20
186.71986863165785
 10
102.54202130054045
 20
186.71617714011063
 10
102.53296402729802
 20
186.71358934775571
 10
102.51964477533693
 20
186.71263797261554
 10
102.50577361155547
 20
186.713704985214
 10
102.49461904120426
 20
186.7171371607069
 10
98.16943503944276
 20
188.4799703712406
 10
95.52970837989187
 20
189.14113789703833
 10
95.52280190568717
 20
189.14311117538227
 10
95.51325610073263
 20
189.14756588436103
 10
92.91345041938439
 20
190.77289869842707
 10
88.56243380179012
 20
192.23654494725542
 10
87.17836086293255
 20
192.38307682145887
 10
87.1697880996453
 20
192.38522001228057
 10
81.97298196043721
 20
194.22831660719612
 10
81.97154849745448
 20
194.22872616804852
 10
81.96074897461904
 20
194.23304597718243
 10
81.70191637337348
 20
194.40546499819357
 10
81.5802812862471
 20
194.45586294247641
 10
76.27582860866187
 20
196.44439172497232
 10
76.27220919850652
 20
196.44594290075338
 10
76.26313120612622
 20
196.45048189694353
 10
76.25228341399816
 20
196.45916013064607
 10
76.24594646543164
 20
196.46613077406892
 10
74.57759062661353
 20
198.68257504047915
 10
72.72275967847918
 20
201.0516253515093
 10
72.7170182681848
 20
201.05951979066413
 10
72.7124680011043
 20
201.07013708051818
 10
72.70993351209518
 20
201.07774054754555
 10
72.23492326060887
 20
203.52915773052018
 10
69.92426878885863
 20
206.59122350600228
 10
67.61509547179412
 20
209.33559300209527
 10
65.94206474151542
 20
210.5275608933598
 10
65.93091941483544
 20
210.53566658549062
 10
65.92248797499678
 20
210.54831374524838
 10
65.92044333620106
 20
210.55172147657458
 10
64.75666079480061
 20
212.77597766702138
 10
64.75525119706754
 20
212.77738726475445
 10
63.190564023749175
 20
216.1861902134783
 10
60.633194823783924
 20
220.0374669938824
 10
60.629222390858104
 20
220.0434256432709
 10
60.08821812639371
 20
221.33815822586348
 10
59.79865653633669
 20
222.0461084505373
 10
56.895445394307444
 20
226.33159084914178
 10
53.66919032504666
 20
230.69494488293958
 10
53.40917308389771
 20
230.9299577020438
 10
53.40003741872988
 20
230.93726623417797
 10
53.39196971792353
 20
230.9510965784175
 10
53.21281416467673
 20
231.30091900366506
 10
49.8297704352085
 20
235.45410180016643
 10
46.70012091487888
 20
238.84866095438747
 10
45.97226086152568
 20
239.58149836744633
 10
45.97100684939505
 20
239.58275237957696
 10
45.09612446710298
 20
240.5511476908182
 10
45.09371861352702
 20
240.55355354439416
 10
42.41106994648226
 20
244.12518917212765
 10
39.735501996331095
 20
247.35986094796635
 10
38.423079546848385
 20
248.04194998208231
 10
38.413505190786964
 20
248.04833288612326
 10
38.405316647557356
 20
248.05652142935287
 10
38.39743817653516
 20
248.06636951813107
 10
37.54675260124441
 20
249.82675775911048
 10
35.363183104873315
 20
253.2721343955959
 10
32.77485271836076
 20
255.09007548066666
 10
30.582377483838627
 20
256.1406005118761
 10
30.577779086452665
 20
256.1432281675252
 10
30.571103449010025
 20
256.14767859248695
 10
30.564125888863146
 20
256.15395839661915
 10
30.55389197682507
 20
256.16532940999514
 10
30.54670878140132
 20
256.18089300008023
 10
30.5449817815429
 20
256.1869374995845
 10
29.75177633521207
 20
259.10887827284387
 10
29.750368459439414
 20
259.1187334032534
 10
29.750368459439414
 20
259.1326050907551
 10
29.753090376623277
 20
259.14440006521954
 10
29.75492491447858
 20
259.1499036787841
 10
32.74205888380402
 20
266.5981796231881
 10
33.28526027776388
 20
268.3828453215674
 10
33.11854795901854
 20
268.8575417595457
 10
33.1175353381027
 20
268.860073311836
 10
32.74165092381554
 20
270.2442987472082
 10
30.813616361499044
 20
275.02900905655497
 10
27.99803671922109
 20
277.5842554354181
 10
26.468357849640597
 20
278.4630044427795
 10
25.813119897517026
 20
278.8562998949051
 10
20.767975654248403
 20
280.1180505770717
 10
20.757843984217743
 20
280.1209453399374
 10
20.744275034739985
 20
280.12880104753003
 10
20.733867810288302
 20
280.1374737345732
 10
20.72777902439384
 20
280.1449155839996
 10
20.722930928118785
 20
280.1517029187844
 10
20.717915567430282
 20
280.16173364016186
 10
20.715714700961144
 20
280.16833623956927
 10
20.7147821868939
 20
280.1716000388046
 10
19.13420656485323
 20
286.88428887344935
 10
19.025461416248618
 20
287.18369887408926
 10
19.024454384310502
 20
287.18772700184127
 10
18.804868407503363
 20
288.09384529308136
 10
15.000951307139985
 20
291.0281909276473
 10
14.997252117434073
 20
291.03127358573556
 10
14.992440855004133
 20
291.0360848481655
 10
14.987698069166527
 20
291.0417761911708
 10
14.979411266682291
 20
291.0542063948974
 10
14.975544595371503
 20
291.0667730766572
 10
13.73562485567254
 20
296.1457850167644
 10
13.732752704806899
 20
296.15440146936135
  0
LWPOLYLINE
  5
8F
330
17
100
AcDbEntity
  8
CORTE
100
AcDbPolyline
 90
13
 70
1
 10
227.9697946771389
 20
572.880225552422
 10
231.70165338597326
 20
574.0467414696009
 10
234.89523608239688
 20
579.5414861148133
 10
236.32575146723184
 20
583.2606637112631
 10
236.44221092290127
 20
585.2846728935783
 10
234.90172545030237
 20
587.0064584123911
 10
233.1590248541752
 20
590.1069747786814
 10
228.02931983060125
 20
591.2091684471852
 10
223.28966119632787
 20
583.2283360328079
 10
223.94878936992927
 20
577.7942002448676
 10
225.47982824199698
 20
574.0245374550032
 10
226.85178446441478
 20
572.5241129445944
 10
227.9697946771389
 20
572.880225552422
  0
LWPOLYLINE
  5
90
330
17
100
AcDbEntity
  8
CORTE
100
AcDbPolyline
 90
234
 70
1
 10
28.92454461995294
 20
321.26860490044464
 10
30.798636442500538
 20
315.1137953969014
 10
29.86355311979878
 20
309.850975409835
 10
29.103571258205648
 20
304.4226161847091
 10
28.08571011750746
 20
297.77775006185084
 10
27.412444896495344
 20
295.81460793812766
 10
28.21621292711552
 20
292.4987343468629
 10
29.378800894274264
 20
289.2977596968826
 10
32.306247221795275
 20
287.5406737858393
 10
36.86283105713892
 20
284.92306978941133
 10
39.21859880361626
 20
282.8537072842282
 10
40.52660752198426
 20
280.02027378831826
 10
42.147310280550755
 20
274.0519018731411
 10
44.080343772696324
 20
268.5477848401497
 10
42.379618649458735
 20
262.9090162587222
 10
43.488369586192675
 20
262.1302733704488
 10
45.51697926457109
 20
258.9294023186917
 10
47.71769665680995
 20
255.8942261178222
 10
48.77239055530163
 20
253.5536884817825
 10
50.326553767010864
 20
251.6747573652401
 10
51.75171319930223
 20
249.77977869550205
 10
54.47913166643275
 20
247.63438394893183
 10
55.83667595754787
 20
244.39389627811897
 10
57.24672330801195
 20
242.86449526681963
 10
58.943061404124364
 20
240.78199123754712
 10
61.168026100684074
 20
238.40628861578898
 10
63.2651224499582
 20
235.36913509323267
 10
64.80008556925395
 20
233.2931716698431
 10
65.85840499790538
 20
231.73468742047362
 10
67.64691217814152
 20
230.28516409506665
 10
71.42853262352173
 20
226.48001105044932
 10
72.8684603622628
 20
224.31154813717558
 10
74.01213160790712
 20
221.81996388889775
 10
75.57895744075404
 20
218.0537853169767
 10
76.29520715668468
 20
216.76142119807992
 10
78.12928559886814
 20
214.58168488596584
 10
80.0572388131418
 20
212.0267725759113
 10
80.96931829595223
 20
210.93953584485416
 10
84.3423283875677
 20
208.66391883232473
 10
84.91534392550511
 20
207.91182359115692
 10
89.16741778162441
 20
206.15003111538545
 10
90.56104372177924
 20
205.22903410901745
 10
95.57878926571084
 20
205.4178568540442
 10
98.62810255760087
 20
200.00551156073288
 10
101.39802137809102
 20
199.31173504164644
 10
105.39187134322083
 20
208.89660739528108
 10
112.38033165021307
 20
207.1428577103984
 10
113.43715047187698
 20
207.81105119692893
 10
118.95903317364719
 20
209.72481759545053
 10
125.0410807282583
 20
217.45518982543172
 10
129.62587854592584
 20
221.94459620146245
 10
132.1503805507673
 20
220.18703045680604
 10
137.3131922314301
 20
221.02172218468786
 10
141.09427822697808
 20
220.47686752866366
 10
145.2226823873243
 20
217.0714844939189
 10
145.69304115172872
 20
215.94467027541805
 10
146.24276207873982
 20
215.98478237935296
 10
151.3514583286278
 20
212.51423453460575
 10
154.63511076756868
 20
209.42237066274902
 10
158.23702167735928
 20
208.51818271284947
 10
159.71400337938576
 20
208.30902234114274
 10
164.71942637692746
 20
206.90252433862997
 10
167.41812022896966
 20
206.07703434866653
 10
171.98085356111005
 20
204.47309337075967
 10
175.7053388194845
 20
201.06434371308023
 10
175.93735567364047
 20
200.99386078233465
 10
176.46619567807102
 20
200.87289867287427
 10
180.67193343246618
 20
207.63149758342706
 10
182.42693892933312
 20
209.45827494815967
 10
190.29663744925438
 20
212.52648370064844
 10
195.07891069429024
 20
214.97947548382217
 10
197.86494132488542
 20
214.663030172891
 10
200.90134281385144
 20
217.34150452436825
 10
202.82225040392905
 20
220.45109143316222
 10
205.86709688828068
 20
220.98523017455636
 10
210.61731861742828
 20
223.69729486868982
 10
216.04252756581536
 20
226.79521744971953
 10
219.9620760781604
 20
233.95566453816537
 10
221.56524523191047
 20
239.81277853501297
 10
223.56931708367074
 20
243.14594184871066
 10
224.2629917552781
 20
246.62987395886967
 10
227.48138267438435
 20
253.49804573458687
 10
231.02670480368806
 20
258.0717421080544
 10
234.0767439850315
 20
258.74194186536033
 10
239.00293071769374
 20
261.86962442659933
 10
246.67220943903567
 20
264.24291688470066
 10
247.53074410046338
 20
264.1854849928782
 10
250.81206428808537
 20
265.7991385664668
 10
257.17653326619575
 20
266.81073115951176
 10
258.9498723826823
 20
265.80870027295305
 10
261.57413092483694
 20
264.93164470904185
 10
262.84353909917627
 20
263.00024105300054
 10
265.3092014157569
 20
263.64048423700115
 10
267.9623991959015
 20
260.5185669966045
 10
269.9076342422077
 20
260.8593511607096
 10
274.37467683005616
 20
259.9572193428903
 10
277.9652691006613
 20
258.53337524021526
 10
278.42019622967837
 20
258.5550191700845
 10
283.25599461944876
 20
257.8749667519028
 10
289.15370213968436
 20
259.69934786511885
 10
292.1353016143785
 20
260.1735374467062
 10
294.95319144040513
 20
260.74943148914053
 10
300.99011691038504
 20
264.88443753401816
 10
301.2741150562997
 20
265.02437819032
 10
307.25689102650904
 20
268.7019050625545
 10
311.6863811474632
 20
273.3375503190814
 10
314.40308903967025
 20
275.82156557001053
 10
317.30861908498036
 20
277.64075277501206
 10
322.06953798960694
 20
281.44184831327266
 10
325.627468935465
 20
282.85194692931145
 10
325.6269651072653
 20
588.5143456878513
 10
325.4249529465451
 20
588.6010279081179
 10
324.53460669230617
 20
588.8112331589987
 10
319.3642052763348
 20
589.1650822157749
 10
316.30882234328556
 20
590.6988080290876
 10
312.41342988443466
 20
591.5086240288792
 10
310.6479839820795
 20
593.1379504644565
 10
306.48950727934607
 20
590.7322303486012
 10
302.9696817646477
 20
590.7753048257669
 10
300.9051219851276
 20
589.9088912685024
 10
295.74795155287575
 20
586.6559102821411
 10
291.77181942503694
 20
584.0547313224565
 10
289.5725742729687
 20
584.7504540528266
 10
284.8354434613252
 20
584.1337598541045
 10
280.9774934129691
 20
583.4153385157892
 10
275.6894067880212
 20
586.8328944917644
 10
274.1103677510573
 20
588.0341620161553
 10
270.7257592044871
 20
588.9691574133781
 10
268.8852183042259
 20
589.2879079175427
 10
263.5639981977688
 20
589.8118025061267
 10
262.3283005020721
 20
590.596896890288
 10
261.28709210491206
 20
590.1027364130559
 10
256.71426259759346
 20
589.0983226609551
 10
248.99150802919303
 20
588.9006861289945
 10
245.79907304847939
 20
591.6048763548279
 10
245.68683197846076
 20
591.5738625204008
 10
246.1010397673831
 20
591.110906533193
 10
245.5634362392134
 20
581.7676164482223
 10
241.6908219598672
 20
571.6992589736192
 10
240.61463092258236
 20
569.5373854855243
 10
237.83424740095825
 20
567.3033654023193
 10
236.4169669723933
 20
567.0946121815186
 10
230.07627308290512
 20
565.112618508892
 10
223.62713068313815
 20
563.0584146276628
 10
217.07200222612255
 20
570.2273572258823
 10
215.55666922926275
 20
573.9583496368086
 10
214.24777599315757
 20
584.7494277029305
 10
216.3859883961436
 20
588.3564270333163
 10
216.9247119727388
 20
590.4413447376924
 10
216.09544421360124
 20
588.6075403379523
 10
211.40597949529683
 20
583.600419587804
 10
195.2543066289595
 20
574.5096469071891
 10
195.80439639679798
 20
588.844028405847
 10
195.50192878082726
 20
589.009808666905
 10
195.1545770589005
 20
588.5963456071045
 10
190.10900807796406
 20
579.1866407397315
 10
180.3676991403836
 20
580.0576325913103
 10
178.09295746187036
 20
580.9161095013219
 10
172.32886239201434
 20
580.6204471938763
 10
168.27222659164772
 20
585.8810749091131
 10
166.9992316415396
 20
586.1394495381069
 10
161.03396620438616
 20
582.6578584010599
 10
154.67173816855484
 20
580.818969580755
 10
150.2108003980511
 20
582.5314122887362
 10
148.77335163558382
 20
581.9631533740744
 10
146.4932823430645
 20
578.7871358756875
 10
141.31215035627702
 20
573.4581347861595
 10
136.13035913091971
 20
571.3854610818394
 10
134.8766680641461
 20
570.6982911594582
 10
134.63748843416852
 20
570.4105324801535
 10
133.23638926429066
 20
566.8197986815462
 10
132.55379589809536
 20
564.3489930971577
 10
133.31179154116262
 20
559.8468929828014
 10
133.1389326909325
 20
553.7928436869788
 10
129.4191092087849
 20
546.0461927359929
 10
126.23443654010362
 20
541.5638597075981
 10
121.02773357952856
 20
536.8888948631293
 10
114.73768489956547
 20
531.5005577592033
 10
113.59442364616234
 20
530.6711531478672
 10
112.46570745858844
 20
529.809928345549
 10
107.59053938937996
 20
526.0943950420665
 10
106.06559943257389
 20
523.8789670532365
 10
100.36571184933018
 20
514.7726529808697
 10
94.894129161828
 20
512.1080497008529
 10
90.68743960797565
 20
510.34810448122744
 10
88.79233555485871
 20
509.92387315953965
 10
85.79517536176218
 20
509.24185034341235
 10
82.92716944899848
 20
505.00024671578194
 10
79.25011224136551
 20
500.56632893404003
 10
73.25753058047621
 20
496.8367283468874
 10
72.23598128302456
 20
496.3602382643785
 10
72.12616755167073
 20
496.20625326716345
 10
68.60641876033515
 20
489.80349541097166
 10
67.46998659085921
 20
487.3626196719765
 10
66.24079876596852
 20
485.3493376288825
 10
60.80147394583946
 20
479.5088382989006
 10
59.772026908861335
 20
478.9177455748895
 10
58.31000147248278
 20
476.11617078155814
 10
53.8179044421463
 20
467.35599028179377
 10
50.532803820864046
 20
465.16427052515246
 10
48.83345132930481
 20
464.08486322558747
 10
44.171428971632395
 20
461.05356825737044
 10
42.0926833578942
 20
458.9639756986817
 10
39.21759104625016
 20
451.7742761658674
 10
38.87232146663882
 20
450.95748035047154
 10
38.69115566883693
 20
450.5064343095037
 10
36.66137541285116
 20
442.004772951811
 10
34.05229669084065
 20
436.57802880219833
 10
35.56087150589428
 20
435.1090414615728
 10
38.76295226222874
 20
428.0313265925197
 10
39.01248157317332
 20
426.9330728027044
 10
39.452524613379865
 20
425.4899855546473
 10
41.00744005513343
 20
420.0874475714513
 10
41.46704576845332
 20
417.66280430669667
 10
42.210195346392084
 20
412.1559680491455
 10
43.2321799507331
 20
408.54210340841973
 10
43.56155024101918
 20
404.69437055735534
 10
45.986206310525176
 20
397.76264851135284
 10
43.72869743201545
 20
392.5569055988158
 10
49.39959478557421
 20
390.8183506673413
 10
53.632421378504205
 20
379.18684057519386
 10
51.62030837287011
 20
374.8652231573278
 10
49.29665881434812
 20
367.5009739794923
 10
46.05955043500262
 20
361.66880042225876
 10
44.67579975379249
 20
358.15589083021086
 10
41.68585491411113
 20
352.22881840874106
 10
40.32604849647396
 20
349.2000487096652
 10
39.07793543184289
 20
345.49365678093454
 10
34.25684614688407
 20
338.33540029290134
 10
32.02719011748877
 20
335.60679789616006
 10
30.6971305732809
 20
331.4873143302834
 10
30.012713515922314
 20
327.88768212668447
 10
28.21470358916713
 20
323.58329329994376
 10
28.92454461995294
 20
321.26860490044464
  0
LWPOLYLINE
  5
91
330
17
100
AcDbEntity
  8
GRABADO
100
AcDbPolyline
 90
639
 70
1
 10
20.784506171304656
 20
323.94017685681183
 10
20.784506171304656
 20
323.95666398500543
 10
20.787857612771404
 20
323.971186898028
 10
23.272250232285387
 20
329.91225832324244
 10
23.901770930924613
 20
333.2231678853145
 10
23.902687483524915
 20
333.22775064831603
 10
25.771407843915313
 20
339.0138398674535
 10
25.775130349908068
 20
339.02351838303457
 10
25.781784510510533
 20
339.0334996239385
 10
28.63163282192454
 20
342.5141182186094
 10
32.74501717096882
 20
348.6215886394916
 10
33.80071404229102
 20
351.7565821540511
 10
33.80215035281299
 20
351.75993354526827
 10
35.36475602212022
 20
355.2402566647361
 10
35.3652945088229
 20
355.2418721248441
 10
38.2809137289355
 20
361.02105826727166
 10
39.71549414845322
 20
364.66300864512414
 10
42.83355595711464
 20
370.28070057855666
 10
45.08194727093951
 20
377.4064368254708
 10
45.08313934626494
 20
377.4112051267739
 10
46.06380277251492
 20
379.5152666106542
 10
44.014046670246444
 20
385.14785237020305
 10
39.773837631566494
 20
386.44779413868764
 10
38.03457693641985
 20
386.3716268377898
 10
38.028266157491544
 20
386.3716268377898
 10
38.02211472289355
 20
386.37239576711454
 10
38.0140085961425
 20
386.3737467882397
 10
37.999015229288034
 20
386.3791015621164
 10
37.99005995750076
 20
386.3850717433079
 10
37.98406352166148
 20
386.3894327875546
 10
37.9793158331222
 20
386.3941804760939
 10
35.75733759232935
 20
388.71671304806705
 10
35.75213886162419
 20
388.7208720326312
 10
35.742436703457315
 20
388.7354252698815
 10
35.73824591567927
 20
388.7445053100673
 10
35.73545576964216
 20
388.75287574817867
 10
35.73308358914392
 20
388.7647366506699
 10
35.73308358914392
 20
388.77955707119463
 10
36.813151685533285
 20
394.20410856432636
 10
36.81612124814001
 20
394.2115324708425
 10
38.47478344123601
 20
398.0357779844735
 10
36.662408126265746
 20
403.2170826999795
 10
36.65941080921266
 20
403.2260746511388
 10
36.314636960118605
 20
407.27977620969205
 10
35.33940361020814
 20
410.7283226014165
 10
35.33825169759666
 20
410.7335062081679
 10
34.554833583703385
 20
416.54208983859417
 10
34.19051198191664
 20
418.4640631569778
 10
32.7408317147042
 20
423.5009625900889
 10
32.24274609704935
 20
425.134395999105
 10
32.093668865769814
 20
425.79052987615614
 10
29.72889185887243
 20
431.0175115350671
 10
25.789338759747807
 20
434.85368430726703
 10
25.78658060019461
 20
434.8564424668202
 10
25.782222110666225
 20
434.8616726542541
 10
25.725647091025166
 20
434.9436674922508
 10
25.63662343438409
 20
435.0171305125864
 10
25.62919507946981
 20
435.023073196518
 10
25.622365067514238
 20
435.0324644629568
 10
25.615022187988416
 20
435.0434787822451
 10
25.610398457697556
 20
435.0596618382647
 10
25.60892016199523
 20
435.0700099081796
 10
25.60892016199523
 20
435.08067007997033
 10
25.61039845769801
 20
435.09101814988844
 10
25.612743834674802
 20
435.0992269693088
 10
25.771431772756387
 20
435.50923163068046
 10
25.772369417564278
 20
435.51204456510413
 10
30.027170424887117
 20
444.3609403345613
 10
32.00268051866078
 20
452.63529307616545
 10
32.00414387206183
 20
452.6406587053011
 10
32.40018089472278
 20
453.62494439601323
 10
32.74337612157069
 20
454.4368329657177
 10
36.12319521173458
 20
462.88869506250467
 10
36.127879744592974
 20
462.89739490924103
 10
36.13440952214705
 20
462.90610127931313
 10
39.73278817604387
 20
466.5171229703101
 10
39.737599238168514
 20
466.5211321887473
 10
39.74121233892129
 20
466.5237129749994
 10
45.04886122943981
 20
469.9736884393524
 10
45.049143631996685
 20
469.97397084190925
 10
46.713267422153876
 20
471.0308982900342
 10
48.41935130553429
 20
472.1691458461264
 10
52.092621829745895
 20
479.3325068775662
 10
53.17375980432007
 20
481.40421426535477
 10
53.65198802068153
 20
483.47556000617215
 10
53.65245551805356
 20
483.4774299956607
 10
53.65529209844817
 20
483.4873580270428
 10
53.66269561354875
 20
483.5003141784682
 10
53.67285027723619
 20
483.51300750807786
 10
53.68230435475107
 20
483.5197604205882
 10
53.68563073351288
 20
483.52197800642944
 10
56.39927864722904
 20
485.0530122128089
 10
60.63545214849455
 20
489.6016224381565
 10
61.29028791633846
 20
490.6741754409436
 10
62.35936318557742
 20
492.9703792601731
 10
62.36029728346921
 20
492.97271450490234
 10
66.1892042556442
 20
499.93722446790434
 10
66.19152897962203
 20
499.9409440262684
 10
67.60681170939552
 20
501.9250476401676
 10
67.61557984764022
 20
501.93556940606095
 10
67.62576462822562
 20
501.94235925978455
 10
67.63071551257008
 20
501.94540595784247
 10
69.91658694282205
 20
503.00241609834984
 10
74.58699439688462
 20
505.90913566741256
 10
77.32025375329249
 20
509.20499063462194
 10
81.54541219694056
 20
515.4537390427513
 10
81.54939553253416
 20
515.4597140461419
 10
81.5559088109294
 20
515.4662273245372
 10
81.5630706442812
 20
515.4727380821296
 10
81.57735869427279
 20
515.4810727779582
 10
81.58843028306228
 20
515.4844794206624
 10
87.25116180445912
 20
516.752118563606
 10
88.55556176559412
 20
517.0441169468145
 10
92.00854699717183
 20
518.4887362309228
 10
95.49683306900988
 20
520.1874948972018
 10
100.21303065059647
 20
527.7222358509562
 10
102.45831380948948
 20
530.9841761856301
 10
102.46230094285102
 20
530.9897581723362
 10
102.47026632337383
 20
530.997723552859
 10
108.22259607324622
 20
535.3773340045232
 10
109.41544656747737
 20
536.287495537194
 10
109.41544656747737
 20
536.2886671667984
 10
110.3983497758336
 20
537.0005647950566
 10
116.41178420470624
 20
542.1519417563095
 10
120.97879021699282
 20
546.2525391427139
 10
123.36717854994595
 20
549.6141254101849
 10
126.18427602646443
 20
555.4808206849002
 10
126.29506717049253
 20
559.361067756965
 10
125.39329059178999
 20
564.7171518917903
 10
125.39329059178999
 20
564.733628452444
 10
126.584739191283
 20
569.0298774454368
 10
126.58607658684332
 20
569.0334438335972
 10
128.52885958711067
 20
574.0122648195347
 10
128.53365608148124
 20
574.0234566397321
 10
130.34451920355013
 20
576.1966975546402
 10
130.34977749171912
 20
576.2032704148514
 10
130.36163031013575
 20
576.2123343348171
 10
133.1373136842717
 20
577.7274768809089
 10
137.33068185661887
 20
579.4047895253907
 10
141.11094713922103
 20
583.2929432842725
 10
144.2867055779593
 20
587.7166090058258
 10
144.29628221186294
 20
587.7261856397295
 10
144.3046107046098
 20
587.7317379682272
 10
144.30866094369276
 20
587.7340523905605
 10
144.31350582226696
 20
587.7364748298478
 10
149.04182464561973
 20
589.5964247398051
 10
149.0491839860233
 20
589.6006300771787
 10
149.06859071630424
 20
589.6036157279914
 10
151.3201174737046
 20
589.6036157279914
 10
151.32625720087526
 20
589.6027386241099
 10
151.33430180453934
 20
589.6013978568326
 10
151.34142167118898
 20
589.598727906839
 10
154.98607264611246
 20
588.1963470042974
 10
158.25574419344593
 20
589.1413873927586
 10
164.12206602293554
 20
592.5652306908969
 10
165.2065790630936
 20
593.6085938925348
 10
165.213820475185
 20
593.6143870222077
 10
165.21928901525598
 20
593.6175119022482
 10
165.23179043859773
 20
593.6244571374382
 10
165.24615180206683
 20
593.6265087607908
 10
165.25143784021066
 20
593.6271695155588
 10
165.2607765024659
 20
593.6271695155588
 10
165.26785627321806
 20
593.6262845442147
 10
165.9591759076784
 20
593.4932734643071
 10
170.46969315911156
 20
592.5777920467967
 10
170.47480074316536
 20
592.5762597715802
 10
171.85574038218647
 20
592.084083756542
 10
172.21217810259304
 20
592.1667591713508
 10
172.22062345161203
 20
592.1681667295206
 10
172.2360635633163
 20
592.1681667295206
 10
172.24623315473264
 20
592.1656243316665
 10
172.24900168790964
 20
592.1648333221874
 10
172.25560428731706
 20
592.1626324557183
 10
172.2622336154568
 20
592.1593177916484
 10
172.27276157111874
 20
592.1533018169844
 10
172.28280089051168
 20
592.1432624975914
 10
172.28581438964557
 20
592.1394956236741
 10
175.6327086493293
 20
587.7991166420702
 10
179.1956318577022
 20
587.9818724926022
 10
179.20738238700278
 20
587.9818724926022
 10
179.22058369173328
 20
587.9783521446739
 10
181.94411772658623
 20
586.944606732618
 10
186.12559818981708
 20
586.5707313700414
 10
189.32829498472074
 20
592.5435823475204
 10
189.33251180608931
 20
592.5499075795728
 10
189.3351757657315
 20
592.5531043311439
 10
193.08252296052115
 20
597.0123512871214
 10
193.08971628140716
 20
597.0202639400964
 10
193.09954783839885
 20
597.026818311424
 10
193.10359807748182
 20
597.0291327337573
 10
193.11282377682892
 20
597.033745583431
 10
193.12371666532
 20
597.0364688055538
 10
193.12868725294766
 20
597.037297236825
 10
193.13484716618132
 20
597.0379816716286
 10
193.1441724409724
 20
597.0379816716286
 10
196.18807179639543
 20
596.6162113863552
 10
196.19329968583725
 20
596.615464545006
 10
196.1997925765445
 20
596.6136094333756
 10
196.2063951759519
 20
596.6114085669064
 10
196.21246479409547
 20
596.6083737578347
 10
200.11098120129054
 20
594.4660937839635
 10
202.36540315512093
 20
595.6108096482185
 10
202.3721341271248
 20
595.6133337627198
 10
202.37912150932016
 20
595.6153301576328
 10
202.38482056795647
 20
595.6162800007387
 10
202.39097200255446
 20
595.6170489300634
 10
202.4018485234592
 20
595.6170489300634
 10
202.41092571990657
 20
595.6155360639891
 10
202.41966162935614
 20
595.6133520866265
 10
202.42721105600458
 20
595.6101166180629
 10
202.43335873007936
 20
595.6070427810255
 10
202.44629438980064
 20
595.598419007878
 10
202.45373801997812
 20
595.5894866516651
 10
202.45623970721954
 20
595.5863595426131
 10
202.4636164348335
 20
595.5752944511923
 10
202.46875116381852
 20
595.5598902642378
 10
202.95046809203814
 20
592.5161374252525
 10
202.95130177692045
 20
592.5103016310763
 10
202.95130177692045
 20
592.5035244134383
 10
202.7291653108755
 20
586.7493722945969
 10
207.0334725463158
 20
589.1719992849235
 10
210.19453076920763
 20
592.5471819914887
 10
213.9833088715759
 20
600.9255107968784
 10
213.9860504541325
 20
600.9309939619916
 10
213.9893113668527
 20
600.9358853310719
 10
213.99120230808148
 20
600.9385326487918
 10
213.99975322356386
 20
600.949221293145
 10
214.0105760295928
 20
600.9564364971643
 10
214.01911201203302
 20
600.9616894094352
 10
214.0295032847671
 20
600.9651531670133
 10
214.04121602956775
 20
600.9682765656266
 10
214.05519819049232
 20
600.9682765656266
 10
214.06135810372598
 20
600.967592130823
 10
214.06717114310595
 20
600.9666232909262
 10
219.282341498787
 20
599.536152249002
 10
220.99800442866444
 20
600.1105199941917
 10
221.00446639669144
 20
600.112673983534
 10
221.0164376892826
 20
600.1143841681901
 10
221.02674574832236
 20
600.1143841681901
 10
221.0371072752805
 20
600.1130026312626
 10
221.04907417679215
 20
600.1095835165447
 10
221.05826255862758
 20
600.1049893256272
 10
221.06857435702614
 20
600.0986436035355
 10
221.07949916206326
 20
600.0877187984984
 10
223.80839435062035
 20
596.1722081588173
 10
223.8088792794424
 20
596.1716019977898
 10
223.81717887994137
 20
596.1591525970416
 10
223.82082877528046
 20
596.1463779633546
 10
224.69277086583452
 20
592.5240581233261
 10
224.69522299648906
 20
592.5154756660345
 10
224.69522299648906
 20
592.4953870567747
 10
222.91460408056673
 20
585.64236299617
 10
222.91248925179434
 20
585.6360185098524
 10
222.90912061311792
 20
585.6287197927204
 10
221.48358014032465
 20
583.2283360328006
 10
222.39335913257855
 20
575.7277272302522
 10
223.08510529072237
 20
574.0245374550209
 10
225.7705240886794
 20
571.0876593540083
 10
227.96979467712845
 20
571.7881788802679
 10
234.85315166975943
 20
573.9397998611266
 10
234.85889888837073
 20
573.9417156006634
 10
234.866000876395
 20
573.9427301703813
 10
234.9324788501758
 20
573.9514840727161
 10
235.03269870332633
 20
574.0320100731519
 10
235.27651846282834
 20
574.521799948443
 10
238.63776667819502
 20
583.260663711269
 10
238.94557873344775
 20
588.610288803332
 10
235.50486106918606
 20
592.4559452240023
 10
235.50145249686284
 20
592.4600355107905
 10
235.49664007153342
 20
592.4672541487844
 10
235.49356623449603
 20
592.4734018228592
 10
235.49082552832488
 20
592.4797968039252
 10
235.486633922495
 20
592.4944674243297
 10
235.486633922495
 20
592.5147998207426
 10
235.49199857601116
 20
592.5349172714291
 10
235.49956593070692
 20
592.5472142228095
 10
235.50707213746273
 20
592.5572224984835
 10
241.88339559703263
 20
597.7852271469551
 10
241.88856161310923
 20
597.7903931630317
 10
241.9057439412727
 20
597.799645185889
 10
246.8763800450397
 20
599.1648611164323
 10
246.88635856155543
 20
599.166191585301
 10
246.89666662059426
 20
599.166191585301
 10
246.90776859473863
 20
599.1646055889946
 10
246.9172098766344
 20
599.1617005791804
 10
246.9233577864843
 20
599.1590657606735
 10
248.94167963944847
 20
598.1166708425117
 10
248.94624551200923
 20
598.1138171721614
 10
248.95065864764592
 20
598.1106649324211
 10
251.47987866030735
 20
595.9666590098846
 10
255.86617127612863
 20
596.0789106233569
 10
259.00631648741364
 20
596.7686378543331
 10
262.81929360158847
 20
598.5782876761696
 10
262.8353501614879
 20
598.5828752647121
 10
262.85052361346743
 20
598.5828752647121
 10
262.8566750480654
 20
598.5821063353874
 10
262.8601643816314
 20
598.5815247797932
 10
262.87113712559676
 20
598.5790863922452
 10
262.8831098855676
 20
598.57310001226
 10
265.9099048089065
 20
596.614683219399
 10
269.8266646778261
 20
596.2290631437286
 10
272.2586556272304
 20
595.8078835105366
 10
272.2623054325318
 20
595.8073621097792
 10
276.81050335097416
 20
594.5504392265079
 10
276.8187247586602
 20
594.547356198626
 10
277.87510837701393
 20
593.9654956787904
 10
277.8798439690763
 20
593.9626543235531
 10
279.71419256864056
 20
592.5663965670483
 10
282.4361034338722
 20
590.8072947589089
 10
283.7420496419295
 20
591.0504859902107
 10
283.744043317668
 20
591.0509844091457
 10
290.206002800051
 20
591.8919832111924
 10
290.2161928713672
 20
591.8919832111924
 10
290.2279535874077
 20
591.8903031089008
 10
290.71783060446296
 20
591.7300684572915
 10
291.9643358816911
 20
592.5455301160127
 10
291.9643358816911
 20
592.5463425247049
 10
297.6613463608328
 20
596.139025233384
 10
297.66679657294844
 20
596.1419980763558
 10
301.60154968193365
 20
597.7925717228795
 10
301.61081271877265
 20
597.7950418660366
 10
301.6205011272805
 20
597.796425924395
 10
301.62634165863574
 20
597.796425924395
 10
304.6504113490596
 20
597.7552607477437
 10
311.5331644616035
 20
601.7370018512656
 10
311.5412984133718
 20
601.7414385522302
 10
311.55313051018993
 20
601.7448191513213
 10
311.62905969962685
 20
601.7580251342915
 10
311.6354613302351
 20
601.7589396529497
 10
311.6529622406483
 20
601.7589396529497
 10
311.66956506205406
 20
601.7534053791478
 10
311.678508812528
 20
601.7489335039108
 10
311.68340018160825
 20
601.7456725911907
 10
311.6883638602367
 20
601.7421271064563
 10
315.7362528796989
 20
597.9675048949648
 10
318.6304882798072
 20
597.3658201715562
 10
318.6398291618607
 20
597.3628704193288
 10
321.2465258305897
 20
596.0526347515452
 10
325.5848017623425
 20
595.7557342359019
 10
325.5909977015617
 20
595.7557342359019
 10
327.62582760154555
 20
595.273860642857
 10
327.6275241715084
 20
595.2735778811966
 10
327.6362055108789
 20
595.2710974985193
 10
332.584428892676
 20
593.1461542325187
 10
332.5882376437762
 20
593.1442498569686
 10
332.5951213658618
 20
593.1403163014911
 10
332.6043301765417
 20
593.1329492529471
 10
332.6099217620531
 20
593.1267985088843
 10
332.6156468281747
 20
593.1196421762329
 10
332.6204542389446
 20
593.1107141276598
 10
332.6253290866862
 20
593.0993394829297
 10
332.6269575658621
 20
593.0895686078738
 10
332.6278346697436
 20
593.0834288807032
 10
332.6278346697436
 20
60.96834829704267
 10
332.6278333532355
 20
60.59332925273884
 10
332.4778346696776
 20
60.59332951602482
 10
332.4778346696776
 20
278.3305785634966
 10
331.3255235067718
 20
277.5805152516846
 10
331.3189196242415
 20
277.57695931493754
 10
325.6202777312815
 20
275.3193810996727
 10
321.36298456599934
 20
271.92037801228616
 10
321.3594133153333
 20
271.9179971785088
 10
318.657092419468
 20
270.2261864898037
 10
316.5842308755696
 20
268.3308705808395
 10
311.6930642174666
 20
263.21206166641014
 10
311.6858798939602
 20
263.20559577525455
 10
304.93893303621826
 20
259.0603937715532
 10
304.70694004497227
 20
258.91222953301394
 10
304.5329974726005
 20
258.8265189814251
 10
297.74133866344073
 20
254.17455659257757
 10
297.73521757020126
 20
254.17047586375156
 10
297.724519217285
 20
254.1658908553586
 10
297.71713476888954
 20
254.16378101296004
 10
293.38644174661613
 20
253.28454337536414
 10
293.38504726801284
 20
253.28361372296195
 10
290.745796900987
 20
252.86457876070108
 10
284.6803025885897
 20
250.98829492873983
 10
283.7785567401952
 20
250.73260077013492
 10
283.7730669831358
 20
250.73103226811781
 10
283.7626940236237
 20
250.72973564817903
 10
283.7533553613712
 20
250.72973564817903
 10
283.74810871031605
 20
250.7303914795607
 10
278.0962907189314
 20
251.5316908969453
 10
276.78908434008963
 20
251.46949833601911
 10
276.776797101591
 20
251.46949833601911
 10
276.76307082994344
 20
251.47342012791842
 10
272.375812216344
 20
253.21957492876936
 10
269.81559158102255
 20
253.73661868878253
 10
265.2233796104715
 20
252.93211276506418
 10
265.2119561208233
 20
252.93048083797157
 10
265.19463628052245
 20
252.93279015001144
 10
265.1839445351666
 20
252.93635406513022
 10
265.17118944425556
 20
252.94224103016631
 10
265.1594548532744
 20
252.9520198559835
 10
265.15489517652804
 20
252.95708616347974
 10
262.81866946014634
 20
255.7616440320653
 10
259.79781049860867
 20
254.9772363915922
 10
259.7885231153623
 20
254.9749145457804
 10
259.76801262139224
 20
254.9749145457804
 10
259.74317868008075
 20
254.9825557584918
 10
259.72890223906734
 20
254.99423648295715
 10
259.7238515536069
 20
254.9992871684176
 10
259.7189395571977
 20
255.00518156410817
 10
257.05599582115065
 20
259.0610617423008
 10
256.09243769142677
 20
259.3830932819724
 10
256.08607259226255
 20
259.386520643061
 10
255.8611407832468
 20
259.51378833279887
 10
252.95364528986102
 20
259.0516600836809
 10
248.93587635203448
 20
257.07584338989
 10
248.92970924006977
 20
257.07320034190525
 10
248.9239370121545
 20
257.07155113392946
 10
248.91376742073817
 20
257.0690087360754
 10
248.90178563044856
 20
257.0690087360754
 10
247.50085589030687
 20
257.17183944412454
 10
241.96555341481417
 20
255.45891543970174
 10
236.7857397478806
 20
252.17020273843127
 10
236.77845672983267
 20
252.16656122940685
 10
236.7719191639626
 20
252.16418393272716
 10
236.7670762129569
 20
252.16280023243962
 10
235.0056728571226
 20
251.779060091651
 10
233.4901232588104
 20
249.82390243635155
 10
230.962251192469
 20
244.4293248306294
 10
230.1965370667558
 20
240.58357964349125
 10
230.19380544004252
 20
240.57538476335094
 10
230.19038382079816
 20
240.5678572010138
 10
228.06196488373735
 20
237.03336876426147
 10
226.49683246102586
 20
231.31522043378754
 10
226.49290240633763
 20
231.3073603244111
 10
222.31815531285838
 20
223.68138288211276
 10
221.61120234265218
 20
222.04897719713517
 10
221.60541857231146
 20
222.03823590935872
 10
221.59675683533942
 20
222.0286117571677
 10
221.59012408927856
 20
222.02264228571312
 10
221.06406915264006
 20
221.66250629952447
 10
220.51422777737298
 20
221.28781217687356
 10
220.51189469471774
 20
221.28594571074927
 10
214.08823075793543
 20
217.61841594503585
 10
208.27828616077204
 20
214.3013190777142
 10
208.27141796863407
 20
214.298571800859
 10
208.26778105609765
 20
214.2973594966802
 10
208.26235364512695
 20
214.2958088078317
 10
207.12638156618868
 20
214.09924752057032
 10
206.31086543575293
 20
212.77908079510553
 10
206.3043410760033
 20
212.77010980044906
 10
200.16408785572912
 20
207.3568775218696
 10
200.1592269913681
 20
207.35080144141875
 10
200.14500033908962
 20
207.34267192583093
 10
200.13837101094714
 20
207.3393572617597
 10
200.12656342379432
 20
207.33542139937526
 10
200.11457533816565
 20
207.33382298795823
 10
200.10505425024803
 20
207.33382298795823
 10
196.39114354306776
 20
207.78541930566553
 10
193.17288733827263
 20
206.1346654440572
 10
193.16945588594672
 20
206.13294971789446
 10
186.4064610071955
 20
203.49659634401132
 10
186.22780477447122
 20
203.31063387119184
 10
180.5952595637932
 20
194.25916272686163
 10
180.59280174326977
 20
194.25547599607626
 10
180.5899746545856
 20
194.25194213522082
 10
180.5852947357921
 20
194.24648222996166
 10
179.2484440563867
 20
193.1098642420675
 10
179.24198104750394
 20
193.10340123318474
 10
179.2244527002149
 20
193.09463705954022
 10
179.20759796772063
 20
193.0900403143146
 10
179.19011000127057
 20
193.0900403143146
 10
178.4479411262214
 20
193.23883380558073
 10
178.44691520416063
 20
193.23883380558073
 10
174.13740713291872
 20
194.2247866086268
 10
174.13471835915698
 20
194.2247866086268
 10
172.5663210285902
 20
194.7020569064657
 10
172.21346950031239
 20
194.77102487073807
 10
172.20869618212646
 20
194.771820423769
 10
172.199172837265
 20
194.77499487205614
 10
172.18710958533666
 20
194.78056252679244
 10
172.17796836684784
 20
194.78787550158313
 10
168.30997909260623
 20
198.34360488326593
 10
165.23269186746347
 20
199.42536590717418
 10
162.74858158557208
 20
200.18521800010967
 10
158.27003981971757
 20
201.443665098574
 10
156.89037855677543
 20
201.6390435939138
 10
156.88638644483717
 20
201.6390435939138
 10
151.30551113509182
 20
203.04101325694683
 10
151.3047354942987
 20
203.04101325694683
 10
151.0163461543084
 20
203.11973013473744
 10
151.00474842696985
 20
203.12329866622667
 10
150.99437872651833
 20
203.13021179986072
 10
150.98498746007954
 20
203.1370418118163
 10
150.9780319617198
 20
203.14573618476606
 10
150.70284910821374
 20
203.51021838450924
 10
146.95776706051356
 20
207.03656110674865
 10
144.32350039975972
 20
208.8261269832028
 10
141.23139185821992
 20
208.60050162840616
 10
141.22334992411243
 20
208.59935278067633
 10
141.20767176830213
 20
208.60159251722098
 10
141.20117887759488
 20
208.60344762885143
 10
141.19349186536465
 20
208.60600996626135
 10
141.17810050846174
 20
208.61429761997852
 10
141.16791128428486
 20
208.6244868441554
 10
141.16316849844725
 20
208.6301781871607
 10
141.1571265383036
 20
208.6392411273764
 10
141.15427413681255
 20
208.64589673085493
 10
139.4308177493358
 20
212.77487000503652
 10
138.15372992164475
 20
213.82829720193513
 10
137.37399187243045
 20
213.9406574886607
 10
130.47358962552516
 20
212.82504277504995
 10
130.4729093501769
 20
212.82492939582517
 10
130.46210322839852
 20
212.82338566414273
 10
130.45061877139142
 20
212.8248212212684
 10
130.4449197127551
 20
212.8257710643743
 10
130.43926849059653
 20
212.82738569927687
 10
130.43067709274783
 20
212.83024949855962
 10
130.42198632396912
 20
212.83521565214778
 10
130.41531068652603
 20
212.83966607710954
 10
130.40980116884202
 20
212.84462464302533
 10
130.40014223322214
 20
212.8542835786452
 10
130.38252143212412
 20
212.88844472000483
 10
130.262289114753
 20
212.77071395985422
 10
123.48587879881143
 20
204.1577964094813
 10
123.47919456962109
 20
204.15232749468896
 10
123.47493358989232
 20
204.14891871090595
 10
123.47031279795692
 20
204.1461462357447
 10
122.36536064037364
 20
203.4968881087152
 10
122.35994813569368
 20
203.49327977226176
 10
122.35097017194039
 20
203.48991303585444
 10
116.49403984772698
 20
201.46201394445507
 10
113.58588132879458
 20
199.62327627219247
 10
113.57689494269107
 20
199.61728534812346
 10
113.56443624420172
 20
199.61372571998345
 10
113.5603181170818
 20
199.61269618820324
 10
113.55124092063443
 20
199.6111833221289
 10
113.5397036449649
 20
199.6111833221289
 10
113.53034764571566
 20
199.6125198934501
 10
109.53481622403342
 20
200.6398884927421
 10
106.8826680363236
 20
194.27497692519046
 10
106.87951637284186
 20
194.2639461030044
 10
106.86500704225364
 20
194.24653490629862
 10
106.85567127611284
 20
194.2387551011816
 10
102.55429474769426
 20
191.58537231572927
 10
102.5404137578289
 20
191.57952768841733
 10
102.525585745449
 20
191.57724645574353
 10
102.51061733209508
 20
191.57724645574353
 10
102.49648391053688
 20
191.5807798111332
 10
100.9714309887645
 20
192.2023519655727
 10
95.52509120486502
 20
193.56648676587247
 10
95.51755706164477
 20
193.5697156843953
 10
95.51239436873175
 20
193.5722970308516
 10
95.1780004289376
 20
193.7813516717706
 10
93.84825243675914
 20
194.22866797315373
 10
93.84329370893602
 20
194.23032088242826
 10
93.83434995846392
 20
194.2347927576643
 10
93.82775674227969
 20
194.2391882351203
 10
93.81971069441852
 20
194.24562507340943
 10
93.81353318913534
 20
194.25283216290654
 10
93.80903309003907
 20
194.2588322950346
 10
91.57572648907535
 20
198.26226306145963
 10
88.57744322419921
 20
198.14943468634874
 10
88.56558946932228
 20
198.15022493667402
 10
88.5550232639348
 20
198.1532438524987
 10
88.54412485925923
 20
198.15733075425214
 10
85.86792600565559
 20
199.9400566711147
 10
81.58028128625392
 20
201.71658747961737
 10
80.53737437207155
 20
202.10755155119386
 10
80.53379863985992
 20
202.1092018891377
 10
80.52186482239267
 20
202.11516879787132
 10
80.50953609290946
 20
202.12749752735454
 10
79.47241940485901
 20
203.50532789384124
 10
76.23879001334808
 20
205.68691106604365
 10
76.23608834620518
 20
205.68907239975806
 10
76.23030101349832
 20
205.69380749015454
 10
74.5783630934352
 20
207.66620911033624
 10
72.65353295295245
 20
210.2169827412904
 10
70.50181299817086
 20
212.7742245751533
 10
70.49744701442341
 20
212.78004588681688
 10
69.26644853759308
 20
215.00325261816943
 10
69.26480096413889
 20
215.00709695622982
 10
67.59763313034819
 20
219.0145834856453
 10
66.73466459724705
 20
220.8946332044984
 10
65.97803385934321
 20
222.0340832269153
 10
62.94709122639779
 20
225.08388707539598
 10
60.6480159547973
 20
226.94720821264218
 10
60.64046305474494
 20
226.953502296019
 10
60.63424543277051
 20
226.9620515262336
 10
59.08803364156165
 20
229.24444267574881
 10
57.56924083160084
 20
231.2985365373861
 10
55.703296492844856
 20
234.00092044230723
 10
53.66852741259072
 20
236.17354198821567
 10
51.954864924770845
 20
238.2773142514675
 10
49.85591382007124
 20
240.55393137438796
 10
49.84768672915334
 20
240.5642152380351
 10
48.72433651913252
 20
243.25503093796215
 10
46.70617517399205
 20
244.84252211314333
 10
46.70284224553734
 20
244.8454847162143
 10
46.69753357710215
 20
244.85079338464948
 10
44.82944376434307
 20
247.33793835186816
 10
42.77768424188571
 20
249.8184466931816
 10
42.772093452480476
 20
249.82683287728923
 10
41.63006423233264
 20
252.36520251311458
 10
39.72149890424316
 20
254.9974496530931
 10
38.322933309586915
 20
257.20419655646856
 10
35.6726324951901
 20
259.0656632237051
 10
35.66248182785603
 20
259.0752167929609
 10
35.65390542192927
 20
259.08808140185147
 10
35.6503775915653
 20
259.0963130060336
 10
34.702281136941565
 20
261.69596853494113
 10
34.699150501443455
 20
261.70222980593735
 10
34.696276024307735
 20
261.71947666875303
 10
34.696276024307735
 20
261.73491678045457
 10
34.69897458929836
 20
261.74571104041706
 10
36.71912917437794
 20
268.3828453215674
 10
35.45855254654043
 20
271.972209560141
 10
33.92508014848863
 20
277.6193484601363
 10
33.48468837986957
 20
278.57333352996466
 10
32.76900747106538
 20
279.20200468847315
 10
28.761289874213617
 20
281.5043035108283
 10
28.76064657104189
 20
281.5046251624144
 10
25.813119897517026
 20
283.2738279870641
 10
23.56637444951639
 20
283.8357212580945
 10
23.557370307848032
 20
283.8382938699997
 10
23.549390356266485
 20
283.8425907670053
 10
23.54158620571252
 20
283.8470502816076
 10
23.52894429158914
 20
283.85842800431874
 10
23.517950536213903
 20
283.8744958006364
 10
23.513554888159433
 20
283.88768274479935
 10
22.80797137126092
 20
286.88428887344617
 10
21.50448564342878
 20
290.47319989718426
 10
21.503173123872784
 20
290.4771374558518
 10
20.12794117132671
 20
296.15201180355325
 10
20.12658347918841
 20
296.16083680245265
 10
20.12658347918841
 20
296.17230778530757
 10
20.128173022329975
 20
296.18263981572863
 10
20.130035894037064
 20
296.189159866703
 10
21.261203170040517
 20
299.4564367128719
 10
22.177441462838033
 20
305.4378820680804
 10
22.948995926513362
 20
310.9489014781989
 10
22.948995926513362
 20
310.95029042225633
 10
23.61247411031127
 20
314.6830780610785
 10
22.230125729720385
 20
319.2229254942213
 10
20.786850835625046
 20
323.9292350899823
 10
20.784506171304656
 20
323.94017685681183
  0
LWPOLYLINE
  5
92
330
17
100
AcDbEntity
  8
GRABADO
100
AcDbPolyline
 90
27
 70
1
 10
207.11486299452872
 20
641.7782598684907
 10
208.70171735554595
 20
640.9822436773202
 10
212.65974714194
 20
638.8030851238182
 10
207.12262682001165
 20
636.1938920215962
 10
200.91090260153214
 20
630.4908086754135
 10
200.14508354629834
 20
629.9470173413165
 10
198.93857178750068
 20
629.4937866409077
 10
198.77183376041876
 20
627.6772178087422
 10
200.18400570766653
 20
623.1209191536186
 10
200.32035248200373
 20
620.5159968940698
 10
200.6741207738437
 20
620.3201789298587
 10
200.1414701549079
 20
619.0517567637312
 10
199.56465796806424
 20
619.4855235266518
 10
193.1777126441848
 20
616.2559068203027
 10
186.80333516628934
 20
611.7686653996261
 10
186.15902007080558
 20
611.930186408671
 10
179.80373702092447
 20
611.930186408671
 10
184.7158930269161
 20
620.3259330934134
 10
186.10546106726315
 20
622.5561063067544
 10
190.89650842901483
 20
629.566942917319
 10
190.29925406921438
 20
635.1209334754731
 10
189.38538908903138
 20
638.8428877009151
 10
193.1114967966987
 20
641.1922357668846
 10
195.12220967901158
 20
641.5447943087624
 10
200.09523905275773
 20
643.797907296821
 10
203.69184506801275
 20
643.6137786651657
 10
207.11486299452872
 20
641.7782598684907
  0
TEXT
  5
93
330
17
100
AcDbEntity
  8
GRABADO
100
AcDbText
 10
23.81099751276402
 20
331.14551810068724
 30
0.0
 40
6.0
  1
72e
 72
1
 11
23.81099751276402
 21
331.14551810068724
 31
0.0
100
AcDbText
 73
2
  0
TEXT
  5
94
330
17
100
AcDbEntity
  8
HOJA
100
AcDbText
 10
10.0
 20
891.0
 30
0.0
 40
6.0
  1
gale_crater  hoja 35/39  1:30  lamina 3.0mm
 11
10.0
 21
891.0
 31
0.0
100
AcDbText
  0
ENDSEC
  0
SECTION
  2
OBJECTS
  0
DICTIONARY
  5
A
330
0
100
AcDbDictionary
281
1
  3
ACAD_COLOR
350
B
  3
ACAD_GROUP
350
C
  3
ACAD_LAYOUT
350
D
  3
ACAD_MATERIAL
350
E
  3
ACAD_MLEADERSTYLE
350
F
  3
ACAD_MLINESTYLE
350
10
  3
ACAD_PLOTSETTINGS
350
11
  3
ACAD_PLOTSTYLENAME
350
12
  3
ACAD_SCALELIST
350
14
  3
ACAD_TABLESTYLE
350
15
  3
ACAD_VISUALSTYLE
350
16
  3
EZDXF_META
350
2D
  0
DICTIONARY
  5
B
330
A
100
AcDbDictionary
281
1
  0
DICTIONARY
  5
C
330
A
100
AcDbDictionary
281
1
  0
DICTIONARY
  5
D
330
A
100
AcDbDictionary
281
1
  3
Model
350
1A
  3
Layout1
350
1E
  0
DICTIONARY
  5
E
330
A
100
AcDbDictionary
281
1
  3
ByBlock
350
1F
  3
ByLayer
350
20
  3
Global
350
21
  0
DICTIONARY
  5
F
330
A
100
AcDbDictionary
281
1
  3
Standard
350
2C
  0
DICTIONARY
  5
10
330
A
100
AcDbDictionary
281
1
  3
Standard
350
22
  0
DICTIONARY
  5
11
330
A
100
AcDbDictionary
281
1
  0
ACDBDICTIONARYWDFLT
  5
12
330
A
100
AcDbDictionary
281
1
  3
Normal
350
13
100
AcDbDictionaryWithDefault
340
13
  0
ACDBPLACEHOLDER
  5
13
330
12
  0
DICTIONARY
  5
14
330
A
100
AcDbDictionary
281
1
  0
DICTIONARY
  5
15
330
A
100
AcDbDictionary
281
1
  0
DICTIONARY
  5
16
330
A
100
AcDbDictionary
281
1
  3
2dWireframe
350
5A
  3
Basic
350
5B
  3
Brighten
350
5C
  3
ColorChange
350
5D
  3
Conceptual
350
5E
  3
Dim
350
5F
  3
EdgeColorOff
350
60
  3
Facepattern
350
61
  3
Flat
350
62
  3
FlatWithEdges
350
63
  3
Gouraud
350
64
  3
GouraudWithEdges
350
65
  3
Hidden
350
66
  3
JitterOff
350
67
  3
Linepattern
350
68
  3
Modeling
350
69
  3
OverhangOff
350
6A
  3
Realistic
350
6B
  3
Shaded
350
6C
  3
Shaded with edges
350
6D
  3
Shades of Gray
350
6E
  3
Sketchy
350
6F
  3
Thicken
350
70
  3
Wireframe
350
71
  3
X-Ray
350
72
  0
LAYOUT
  5
1A
330
D
100
AcDbPlotSettings
  1

  4
A3
  6

 40
7.5
 41
20.0
 42
7.5
 43
20.0
 44
420.0
 45
297.0
 46
0.0
 47
0.0
 48
0.0
 49
0.0
140
0.0
141
0.0
142
1.0
143
1.0
 70
1024
 72
1
 73
0
 74
5
  7

 75
16
 76
0
 77
2
 78
300
147
1.0
148
0.0
149
0.0
100
AcDbLayout
  1
Model
 70
1
 71
0
 10
0.0
 20
0.0
 11
420.0
 21
297.0
 12
0.0
 22
0.0
 32
0.0
 14
1e+20
 24
1e+20
 34
1e+20
 15
-1e+20
 25
-1e+20
 35
-1e+20
146
0.0
 13
0.0
 23
0.0
 33
0.0
 16
1.0
 26
0.0
 36
0.0
 17
0.0
 27
1.0
 37
0.0
 76
1
330
17
  0
LAYOUT
  5
1E
330
D
100
AcDbPlotSettings
  1

  4
A3
  6

 40
7.5
 41
20.0
 42
7.5
 43
20.0
 44
420.0
 45
297.0
 46
0.0
 47
0.0
 48
0.0
 49
0.0
140
0.0
141
0.0
142
1.0
143
1.0
 70
0
 72
1
 73
0
 74
5
  7

 75
16
 76
0
 77
2
 78
300
147
1.0
148
0.0
149
0.0
100
AcDbLayout
  1
Layout1
 70
1
 71
1
 10
0.0
 20
0.0
 11
420.0
 21
297.0
 12
0.0
 22
0.0
 32
0.0
 14
1e+20
 24
1e+20
 34
1e+20
 15
-1e+20
 25
-1e+20
 35
-1e+20
146
0.0
 13
0.0
 23
0.0
 33
0.0
 16
1.0
 26
0.0
 36
0.0
 17
0.0
 27
1.0
 37
0.0
 76
1
330
1B
  0
MATERIAL
  5
1F
102
{ACAD_REACTORS
330
E
102
}
330
E
100
AcDbMaterial
  1
ByBlock
  2

 70
0
 40
1.0
 71
1
 41
1.0
 91
-1023410177
 42
1.0
 72
1
  3

 73
1
 74
1
 75
1
 44
0.5
 73
0
 45
1.0
 46
1.0
 77
1
  4

 78
1
 79
1
170
1
 48
1.0
171
1
  6

172
1
173
1
174
1
140
1.0
141
1.0
175
1
  7

176
1
177
1
178
1
143
1.0
179
1
  8

270
1
271
1
272
1
145
1.0
146
1.0
273
1
  9

274
1
275
1
276
1
 42
1.0
 72
1
  3

 73
1
 74
1
 75
1
 94
63
  0
MATERIAL
  5
20
102
{ACAD_REACTORS
330
E
102
}
330
E
100
AcDbMaterial
  1
ByLayer
  2

 70
0
 40
1.0
 71
1
 41
1.0
 91
-1023410177
 42
1.0
 72
1
  3

 73
1
 74
1
 75
1
 44
0.5
 73
0
 45
1.0
 46
1.0
 77
1
  4

 78
1
 79
1
170
1
 48
1.0
171
1
  6

172
1
173
1
174
1
140
1.0
141
1.0
175
1
  7

176
1
177
1
178
1
143
1.0
179
1
  8

270
1
271
1
272
1
145
1.0
146
1.0
273
1
  9

274
1
275
1
276
1
 42
1.0
 72
1
  3

 73
1
 74
1
 75
1
 94
63
  0
MATERIAL
  5
21
102
{ACAD_REACTORS
330
E
102
}
330
E
100
AcDbMaterial
  1
Global
  2

 70
0
 40
1.0
 71
1
 41
1.0
 91
-1023410177
 42
1.0
 72
1
  3

 73
1
 74
1
 75
1
 44
0.5
 73
0
 45
1.0
 46
1.0
 77
1
  4

 78
1
 79
1
170
1
 48
1.0
171
1
  6

172
1
173
1
174
1
140
1.0
141
1.0
175
1
  7

176
1
177
1
178
1
143
1.0
179
1
  8

270
1
271
1
272
1
145
1.0
146
1.0
273
1
  9

274
1
275
1
276
1
 42
1.0
 72
1
  3

 73
1
 74
1
 75
1
 94
63
  0
MLINESTYLE
  5
22
102
{ACAD_REACTORS
330
10
102
}
330
10
100
AcDbMlineStyle
  2
Standard
 70
0
  3

 62
256
 51
90.0
 52
90.0
 71
2
 49
0.5
 62
256
  6
BYLAYER
 49
-0.5
 62
256
  6
BYLAYER
  0
MLEADERSTYLE
  5
2C
102
{ACAD_REACTORS
330
F
102
}
330
F
100
AcDbMLeaderStyle
179
2
170
2
171
1
172
0
 90
2
 40
0.0
 41
0.0
173
1
 91
-1056964608
 92
-2
290
1
 42
2.0
291
1
 43
8.0
  3
Standard
 44
4.0
300

342
29
174
1
175
1
176
0
178
1
 93
-1056964608
 45
4.0
292
0
297
0
 46
4.0
 94
-1056964608
 47
1.0
 49
1.0
140
1.0
294
1
141
0.0
177
0
142
1.0
295
0
296
0
143
3.75
271
0
272
9
273
9
  0
DICTIONARY
  5
2D
330
A
100
AcDbDictionary
280
1
281
1
  3
CREATED_BY_EZDXF
350
2E
  3
WRITTEN_BY_EZDXF
350
97
  0
DICTIONARYVAR
  5
2E
330
2D
100
DictionaryVariables
280
0
  1
1.4.2 @ 2026-09-06T16:30:42.794823+00:00
  0
VISUALSTYLE
  5
5A
102
{ACAD_REACTORS
330
16
102
}
330
16
100
AcDbVisualStyle
  2
2dWireframe
 70
4
 90
0
 40
0.6
 62
7
290
0
291
0
  0
VISUALSTYLE
  5
5B
102
{ACAD_REACTORS
330
16
102
}
330
16
100
AcDbVisualStyle
  2
Basic
 70
7
 90
1
 40
0.6
 62
7
290
0
291
1
  0
VISUALSTYLE
  5
5C
102
{ACAD_REACTORS
330
16
102
}
330
16
100
AcDbVisualStyle
  2
Brighten
 70
12
 90
2
 40
0.6
 62
7
290
0
291
1
  0
VISUALSTYLE
  5
5D
102
{ACAD_REACTORS
330
16
102
}
330
16
100
AcDbVisualStyle
  2
ColorChange
 70
16
 90
2
 40
0.6
 62
8
290
0
291
1
  0
VISUALSTYLE
  5
5E
102
{ACAD_REACTORS
330
16
102
}
330
16
100
AcDbVisualStyle
  2
Conceptual
 70
9
 90
3
 40
0.6
 62
7
290
0
291
0
  0
VISUALSTYLE
  5
5F
102
{ACAD_REACTORS
330
16
102
}
330
16
100
AcDbVisualStyle
  2
Dim
 70
11
 90
2
 40
0.6
 62
7
290
0
291
1
  0
VISUALSTYLE
  5
60
102
{ACAD_REACTORS
330
16
102
}
330
16
100
AcDbVisualStyle
  2
EdgeColorOff
 70
22
 90
2
 40
0.6
 62
7
290
0
291
1
  0
VISUALSTYLE
  5
61
102
{ACAD_REACTORS
330
16
102
}
330
16
100
AcDbVisualStyle
  2
Facepattern
 70
15
 90
2
 40
0.6
 62
7
290
0
291
1
  0
VISUALSTYLE
  5
62
102
{ACAD_REACTORS
330
16
102
}
330
16
100
AcDbVisualStyle
  2
Flat
 70
0
 90
2
 40
0.6
 62
7
290
0
291
1
  0
VISUALSTYLE
  5
63
102
{ACAD_REACTORS
330
16
102
}
330
16
100
AcDbVisualStyle
  2
FlatWithEdges
 70
1
 90
2
 40
0.6
 62
7
290
0
291
1
  0
VISUALSTYLE
  5
64
102
{ACAD_REACTORS
330
16
102
}
330
16
100
AcDbVisualStyle
  2
Gouraud
 70
2
 90
2
 40
0.6
 62
7
290
0
291
1
  0
VISUALSTYLE
  5
65
102
{ACAD_REACTORS
330
16
102
}
330
16
100
AcDbVisualStyle
  2
GouraudWithEdges
 70
3
 90
2
 40
0.6
 62
7
290
0
291
1
  0
VISUALSTYLE
  5
66
102
{ACAD_REACTORS
330
16
102
}
330
16
100
AcDbVisualStyle
  2
Hidden
 70
6
 90
1
 40
0.6
 62
7
290
0
291
0
  0
VISUALSTYLE
  5
67
102
{ACAD_REACTORS
330
16
102
}
330
16
100
AcDbVisualStyle
  2
JitterOff
 70
20
 90
2
 40
0.6
 62
7
290
0
291
1
  0
VISUALSTYLE
  5
68
102
{ACAD_REACTORS
330
16
102
}
330
16
100
AcDbVisualStyle
  2
Linepattern
 70
14
 90
2
 40
0.6
 62
7
290
0
291
1
  0
VISUALSTYLE
  5
69
102
{ACAD_REACTORS
330
16
102
}
330
16
100
AcDbVisualStyle
  2
Modeling
 70
10
 90
2
 40
0.6
 62
7
290
0
291
0
  0
VISUALSTYLE
  5
6A
102
{ACAD_REACTORS
330
16
102
}
330
16
100
AcDbVisualStyle
  2
OverhangOff
 70
21
 90
2
 40
0.6
 62
7
290
0
291
1
  0
VISUALSTYLE
  5
6B
102
{ACAD_REACTORS
330
16
102
}
330
16
100
AcDbVisualStyle
  2
Realistic
 70
8
 90
2
 40
0.6
 62
7
290
0
291
0
  0
VISUALSTYLE
  5
6C
102
{ACAD_REACTORS
330
16
102
}
330
16
100
AcDbVisualStyle
  2
Shaded
 70
27
 90
2
 40
0.6
 62
7
290
0
291
0
  0
VISUALSTYLE
  5
6D
102
{ACAD_REACTORS
330
16
102
}
330
16
100
AcDbVisualStyle
  2
Shaded with edges
 70
26
 90
2
 40
0.6
 62
7
290
0
291
0
  0
VISUALSTYLE
  5
6E
102
{ACAD_REACTORS
330
16
102
}
330
16
100
AcDbVisualStyle
  2
Shades of Gray
 70
23
 90
2
 40
0.6
 62
7
290
0
291
0
  0
VISUALSTYLE
  5
6F
102
{ACAD_REACTORS
330
16
102
}
330
16
100
AcDbVisualStyle
  2
Sketchy
 70
24
 90
1
 40
0.6
 62
7
290
0
291
0
  0
VISUALSTYLE
  5
70
102
{ACAD_REACTORS
330
16
102
}
330
16
100
AcDbVisualStyle
  2
Thicken
 70
13
 90
2
 40
0.6
 62
7
290
0
291
1
  0
VISUALSTYLE
  5
71
102
{ACAD_REACTORS
330
16
102
}
330
16
100
AcDbVisualStyle
  2
Wireframe
 70
5
 90
0
 40
0.6
 62
7
290
0
291
0
  0
VISUALSTYLE
  5
72
102
{ACAD_REACTORS
330
16
102
}
330
16
100
AcDbVisualStyle
  2
X-Ray
 70
25
 90
2
 40
0.5
 62
7
290
0
291
0
  0
DICTIONARYVAR
  5
97
330
2D
100
DictionaryVariables
280
0
  1
1.4.2 @ 2026-09-06T16:30:42.802274+00:00
  0
ENDSEC
  0
EOF
