  0
SECTION
  2
HEADER
  9
$ACADVER
  1
AC1024
  9
$ACADMAINTVER
 70
6
  9
$DWGCODEPAGE
  3
ANSI_1252
  9
$LASTSAVEDBY
  1
ezdxf
  9
$INSBASE
 10
0.0
 20
0.0
 30
0.0
  9
$EXTMIN
 10
1e+20
 20
1e+20
 30
1e+20
  9
$EXTMAX
 10
-1e+20
 20
-1e+20
 30
-1e+20
  9
$LIMMIN
 10
0.0
 20
0.0
  9
$LIMMAX
 10
420.0
 20
297.0
  9
$ORTHOMODE
 70
0
  9
$REGENMODE
 70
1
  9
$FILLMODE
 70
1
  9
$QTEXTMODE
 70
0
  9
$MIRRTEXT
 70
1
  9
$LTSCALE
 40
1.0
  9
$ATTMODE
 70
1
  9
$TEXTSIZE
 40
2.5
  9
$TRACEWID
 40
1.0
  9
$TEXTSTYLE
  7
OpenSans
  9
$CLAYER
  8
0
  9
$CELTYPE
  6
ByLayer
  9
$CECOLOR
 62
256
  9
$CELTSCALE
 40
1.0
  9
$DISPSILH
 70
0
  9
$DIMSCALE
 40
1.0
  9
$DIMASZ
 40
0.175
  9
$DIMEXO
 40
0.125
  9
$DIMDLI
 40
3.75
  9
$DIMRND
 40
0.0
  9
$DIMDLE
 40
0.0
  9
$DIMEXE
 40
0.375
  9
$DIMTP
 40
0.0
  9
$DIMTM
 40
0.0
  9
$DIMTXT
 40
0.25
  9
$DIMCEN
 40
2.5
  9
$DIMTSZ
 40
0.0
  9
$DIMTOL
 70
0
  9
$DIMLIM
 70
0
  9
$DIMTIH
 70
0
  9
$DIMTOH
 70
0
  9
$DIMSE1
 70
0
  9
$DIMSE2
 70
0
  9
$DIMTAD
 70
1
  9
$DIMZIN
 70
12
  9
$DIMBLK
  1
ARCHTICK
  9
$DIMASO
 70
1
  9
$DIMSHO
 70
1
  9
$DIMPOST
  1

  9
$DIMAPOST
  1

  9
$DIMALT
 70
0
  9
$DIMALTD
 70
3
  9
$DIMALTF
 40
0.03937007874
  9
$DIMLFAC
 40
100.0
  9
$DIMTOFL
 70
1
  9
$DIMTVP
 40
0.0
  9
$DIMTIX
 70
0
  9
$DIMSOXD
 70
0
  9
$DIMSAH
 70
0
  9
$DIMBLK1
  1

  9
$DIMBLK2
  1

  9
$DIMSTYLE
  2
EZDXF
  9
$DIMCLRD
 70
0
  9
$DIMCLRE
 70
0
  9
$DIMCLRT
 70
0
  9
$DIMTFAC
 40
0.5
  9
$DIMGAP
 40
0.1
  9
$DIMJUST
 70
0
  9
$DIMSD1
 70
0
  9
$DIMSD2
 70
0
  9
$DIMTOLJ
 70
0
  9
$DIMTZIN
 70
8
  9
$DIMALTZ
 70
0
  9
$DIMALTTZ
 70
0
  9
$DIMUPT
 70
1
  9
$DIMDEC
 70
2
  9
$DIMTDEC
 70
2
  9
$DIMALTU
 70
2
  9
$DIMALTTD
 70
3
  9
$DIMTXSTY
  7
OpenSansCondensed-Light
  9
$DIMAUNIT
 70
0
  9
$DIMADEC
 70
2
  9
$DIMALTRND
 40
0.0
  9
$DIMAZIN
 70
3
  9
$DIMDSEP
 70
46
  9
$DIMATFIT
 70
3
  9
$DIMFRAC
 70
0
  9
$DIMLDRBLK
  1

  9
$DIMLUNIT
 70
2
  9
$DIMLWD
 70
-2
  9
$DIMLWE
 70
-2
  9
$DIMTMOVE
 70
2
  9
$DIMFXL
 40
1.0
  9
$DIMFXLON
 70
0
  9
$DIMJOGANG
 40
0.785398163397
  9
$DIMTFILL
 70
0
  9
$DIMTFILLCLR
 70
0
  9
$DIMARCSYM
 70
0
  9
$DIMLTYPE
  6

  9
$DIMLTEX1
  6

  9
$DIMLTEX2
  6

  9
$DIMTXTDIRECTION
 70
0
  9
$LUNITS
 70
2
  9
$LUPREC
 70
4
  9
$SKETCHINC
 40
1.0
  9
$FILLETRAD
 40
10.0
  9
$AUNITS
 70
0
  9
$AUPREC
 70
2
  9
$MENU
  1
.
  9
$ELEVATION
 40
0.0
  9
$PELEVATION
 40
0.0
  9
$THICKNESS
 40
0.0
  9
$LIMCHECK
 70
0
  9
$CHAMFERA
 40
0.0
  9
$CHAMFERB
 40
0.0
  9
$CHAMFERC
 40
0.0
  9
$CHAMFERD
 40
0.0
  9
$SKPOLY
 70
0
  9
$TDCREATE
 40
2461290.4379861113
  9
$TDUCREATE
 40
2458532.153996898
  9
$TDUPDATE
 40
2461290.4379861113
  9
$TDUUPDATE
 40
2458532.1544311
  9
$TDINDWG
 40
0.0
  9
$TDUSRTIMER
 40
0.0
  9
$USRTIMER
 70
1
  9
$ANGBASE
 50
0.0
  9
$ANGDIR
 70
0
  9
$PDMODE
 70
0
  9
$PDSIZE
 40
0.0
  9
$PLINEWID
 40
0.0
  9
$SPLFRAME
 70
0
  9
$SPLINETYPE
 70
6
  9
$SPLINESEGS
 70
8
  9
$HANDSEED
  5
9A
  9
$SURFTAB1
 70
6
  9
$SURFTAB2
 70
6
  9
$SURFTYPE
 70
6
  9
$SURFU
 70
6
  9
$SURFV
 70
6
  9
$UCSBASE
  2

  9
$UCSNAME
  2

  9
$UCSORG
 10
0.0
 20
0.0
 30
0.0
  9
$UCSXDIR
 10
1.0
 20
0.0
 30
0.0
  9
$UCSYDIR
 10
0.0
 20
1.0
 30
0.0
  9
$UCSORTHOREF
  2

  9
$UCSORTHOVIEW
 70
0
  9
$UCSORGTOP
 10
0.0
 20
0.0
 30
0.0
  9
$UCSORGBOTTOM
 10
0.0
 20
0.0
 30
0.0
  9
$UCSORGLEFT
 10
0.0
 20
0.0
 30
0.0
  9
$UCSORGRIGHT
 10
0.0
 20
0.0
 30
0.0
  9
$UCSORGFRONT
 10
0.0
 20
0.0
 30
0.0
  9
$UCSORGBACK
 10
0.0
 20
0.0
 30
0.0
  9
$PUCSBASE
  2

  9
$PUCSNAME
  2

  9
$PUCSORG
 10
0.0
 20
0.0
 30
0.0
  9
$PUCSXDIR
 10
1.0
 20
0.0
 30
0.0
  9
$PUCSYDIR
 10
0.0
 20
1.0
 30
0.0
  9
$PUCSORTHOREF
  2

  9
$PUCSORTHOVIEW
 70
0
  9
$PUCSORGTOP
 10
0.0
 20
0.0
 30
0.0
  9
$PUCSORGBOTTOM
 10
0.0
 20
0.0
 30
0.0
  9
$PUCSORGLEFT
 10
0.0
 20
0.0
 30
0.0
  9
$PUCSORGRIGHT
 10
0.0
 20
0.0
 30
0.0
  9
$PUCSORGFRONT
 10
0.0
 20
0.0
 30
0.0
  9
$PUCSORGBACK
 10
0.0
 20
0.0
 30
0.0
  9
$USERI1
 70
0
  9
$USERI2
 70
0
  9
$USERI3
 70
0
  9
$USERI4
 70
0
  9
$USERI5
 70
0
  9
$USERR1
 40
0.0
  9
$USERR2
 40
0.0
  9
$USERR3
 40
0.0
  9
$USERR4
 40
0.0
  9
$USERR5
 40
0.0
  9
$WORLDVIEW
 70
1
  9
$SHADEDGE
 70
3
  9
$SHADEDIF
 70
70
  9
$TILEMODE
 70
1
  9
$MAXACTVP
 70
64
  9
$PINSBASE
 10
0.0
 20
0.0
 30
0.0
  9
$PLIMCHECK
 70
0
  9
$PEXTMIN
 10
1e+20
 20
1e+20
 30
1e+20
  9
$PEXTMAX
 10
-1e+20
 20
-1e+20
 30
-1e+20
  9
$PLIMMIN
 10
0.0
 20
0.0
  9
$PLIMMAX
 10
420.0
 20
297.0
  9
$UNITMODE
 70
0
  9
$VISRETAIN
 70
1
  9
$PLINEGEN
 70
0
  9
$PSLTSCALE
 70
1
  9
$TREEDEPTH
 70
3020
  9
$CMLSTYLE
  2
Standard
  9
$CMLJUST
 70
0
  9
$CMLSCALE
 40
20.0
  9
$PROXYGRAPHICS
 70
1
  9
$MEASUREMENT
 70
1
  9
$CELWEIGHT
370
-1
  9
$ENDCAPS
280
0
  9
$JOINSTYLE
280
0
  9
$LWDISPLAY
290
0
  9
$INSUNITS
 70
4
  9
$HYPERLINKBASE
  1

  9
$STYLESHEET
  1

  9
$XEDIT
290
1
  9
$CEPSNTYPE
380
0
  9
$PSTYLEMODE
290
1
  9
$FINGERPRINTGUID
  2
{998EFEFE-29B1-417B-84C4-4F03E6D16F3B}
  9
$VERSIONGUID
  2
{69114E3B-55DF-4C29-9122-FB79C4487DB5}
  9
$EXTNAMES
290
1
  9
$PSVPSCALE
 40
0.0
  9
$OLESTARTUP
290
0
  9
$SORTENTS
280
127
  9
$INDEXCTL
280
0
  9
$HIDETEXT
280
1
  9
$XCLIPFRAME
280
1
  9
$HALOGAP
280
0
  9
$OBSCOLOR
 70
257
  9
$OBSLTYPE
280
0
  9
$INTERSECTIONDISPLAY
280
0
  9
$INTERSECTIONCOLOR
 70
257
  9
$DIMASSOC
280
2
  9
$PROJECTNAME
  1

  9
$CAMERADISPLAY
290
0
  9
$LENSLENGTH
 40
50.0
  9
$CAMERAHEIGHT
 40
0.0
  9
$STEPSPERSEC
 40
24.0
  9
$STEPSIZE
 40
100.0
  9
$3DDWFPREC
 40
2.0
  9
$PSOLWIDTH
 40
0.005
  9
$PSOLHEIGHT
 40
0.08
  9
$LOFTANG1
 40
1.570796326795
  9
$LOFTANG2
 40
1.570796326795
  9
$LOFTMAG1
 40
0.0
  9
$LOFTMAG2
 40
0.0
  9
$LOFTPARAM
 70
7
  9
$LOFTNORMALS
280
1
  9
$LATITUDE
 40
37.795
  9
$LONGITUDE
 40
-122.394
  9
$NORTHDIRECTION
 40
0.0
  9
$TIMEZONE
 70
-8000
  9
$LIGHTGLYPHDISPLAY
280
1
  9
$TILEMODELIGHTSYNCH
280
1
  9
$CMATERIAL
347
20
  9
$SOLIDHIST
280
0
  9
$SHOWHIST
280
1
  9
$DWFFRAME
280
2
  9
$DGNFRAME
280
2
  9
$REALWORLDSCALE
290
1
  9
$INTERFERECOLOR
 62
256
  9
$CSHADOW
280
0
  9
$SHADOWPLANELOCATION
 40
0.0
  0
ENDSEC
  0
SECTION
  2
CLASSES
  0
CLASS
  1
ACDBDICTIONARYWDFLT
  2
AcDbDictionaryWithDefault
  3
ObjectDBX Classes
 90
0
 91
0
280
0
281
0
  0
CLASS
  1
SUN
  2
AcDbSun
  3
SCENEOE
 90
1153
 91
0
280
0
281
0
  0
CLASS
  1
VISUALSTYLE
  2
AcDbVisualStyle
  3
ObjectDBX Classes
 90
4095
 91
0
280
0
281
0
  0
CLASS
  1
MATERIAL
  2
AcDbMaterial
  3
ObjectDBX Classes
 90
1153
 91
0
280
0
281
0
  0
CLASS
  1
SCALE
  2
AcDbScale
  3
ObjectDBX Classes
 90
1153
 91
0
280
0
281
0
  0
CLASS
  1
TABLESTYLE
  2
AcDbTableStyle
  3
ObjectDBX Classes
 90
4095
 91
0
280
0
281
0
  0
CLASS
  1
MLEADERSTYLE
  2
AcDbMLeaderStyle
  3
ACDB_MLEADERSTYLE_CLASS
 90
4095
 91
0
280
0
281
0
  0
CLASS
  1
DICTIONARYVAR
  2
AcDbDictionaryVar
  3
ObjectDBX Classes
 90
0
 91
0
280
0
281
0
  0
CLASS
  1
CELLSTYLEMAP
  2
AcDbCellStyleMap
  3
ObjectDBX Classes
 90
1152
 91
0
280
0
281
0
  0
CLASS
  1
MENTALRAYRENDERSETTINGS
  2
AcDbMentalRayRenderSettings
  3
SCENEOE
 90
1024
 91
0
280
0
281
0
  0
CLASS
  1
ACDBDETAILVIEWSTYLE
  2
AcDbDetailViewStyle
  3
ObjectDBX Classes
 90
1025
 91
0
280
0
281
0
  0
CLASS
  1
ACDBSECTIONVIEWSTYLE
  2
AcDbSectionViewStyle
  3
ObjectDBX Classes
 90
1025
 91
0
280
0
281
0
  0
CLASS
  1
RASTERVARIABLES
  2
AcDbRasterVariables
  3
ISM
 90
0
 91
0
280
0
281
0
  0
CLASS
  1
LAYOUT
  2
AcDbLayout
  3
ObjectDBX Classes
 90
0
 91
0
280
0
281
0
  0
CLASS
  1
ACDBPLACEHOLDER
  2
AcDbPlaceHolder
  3
ObjectDBX Classes
 90
0
 91
0
280
0
281
0
  0
ENDSEC
  0
SECTION
  2
TABLES
  0
TABLE
  2
VPORT
  5
8
330
0
100
AcDbSymbolTable
 70
1
  0
VPORT
  5
23
330
8
100
AcDbSymbolTableRecord
100
AcDbViewportTableRecord
  2
*Active
 70
0
 10
0.0
 20
0.0
 11
1.0
 21
1.0
 12
0.0
 22
0.0
 13
0.0
 23
0.0
 14
0.5
 24
0.5
 15
0.5
 25
0.5
 16
0.0
 26
0.0
 36
1.0
 17
0.0
 27
0.0
 37
0.0
 40
1000.0
 41
1.34
 42
50.0
 43
0.0
 44
0.0
 50
0.0
 51
0.0
 71
0
 72
1000
 73
1
 74
3
 75
0
 76
0
 77
0
 78
0
281
0
 65
0
146
0.0
  0
ENDTAB
  0
TABLE
  2
LTYPE
  5
2
330
0
100
AcDbSymbolTable
 70
21
  0
LTYPE
  5
24
330
2
100
AcDbSymbolTableRecord
100
AcDbLinetypeTableRecord
  2
ByBlock
 70
0
  3

 72
65
 73
0
 40
0.0
  0
LTYPE
  5
25
330
2
100
AcDbSymbolTableRecord
100
AcDbLinetypeTableRecord
  2
ByLayer
 70
0
  3

 72
65
 73
0
 40
0.0
  0
LTYPE
  5
26
330
2
100
AcDbSymbolTableRecord
100
AcDbLinetypeTableRecord
  2
Continuous
 70
0
  3

 72
65
 73
0
 40
0.0
  0
LTYPE
  5
2F
330
2
100
AcDbSymbolTableRecord
100
AcDbLinetypeTableRecord
  2
CENTER
 70
0
  3
Center ____ _ ____ _ ____ _ ____ _ ____ _ ____
 72
65
 73
4
 40
5.08
 49
3.175
 74
0
 49
-0.635
 74
0
 49
0.635
 74
0
 49
-0.635
 74
0
  0
LTYPE
  5
30
330
2
100
AcDbSymbolTableRecord
100
AcDbLinetypeTableRecord
  2
CENTERX2
 70
0
  3
Center (2x) ________  __  ________  __  ________
 72
65
 73
4
 40
8.89
 49
6.35
 74
0
 49
-0.635
 74
0
 49
1.27
 74
0
 49
-0.635
 74
0
  0
LTYPE
  5
31
330
2
100
AcDbSymbolTableRecord
100
AcDbLinetypeTableRecord
  2
CENTER2
 70
0
  3
Center (.5x) ____ _ ____ _ ____ _ ____ _ ____
 72
65
 73
4
 40
2.54
 49
1.587
 74
0
 49
-0.318
 74
0
 49
0.318
 74
0
 49
-0.318
 74
0
  0
LTYPE
  5
32
330
2
100
AcDbSymbolTableRecord
100
AcDbLinetypeTableRecord
  2
DASHED
 70
0
  3
Dashed __ __ __ __ __ __ __ __ __ __ __ __ __ _
 72
65
 73
2
 40
1.524
 49
1.27
 74
0
 49
-0.254
 74
0
  0
LTYPE
  5
33
330
2
100
AcDbSymbolTableRecord
100
AcDbLinetypeTableRecord
  2
DASHEDX2
 70
0
  3
Dashed (2x) ____  ____  ____  ____  ____  ____
 72
65
 73
2
 40
3.048
 49
2.54
 74
0
 49
-0.508
 74
0
  0
LTYPE
  5
34
330
2
100
AcDbSymbolTableRecord
100
AcDbLinetypeTableRecord
  2
DASHED2
 70
0
  3
Dashed (.5x) _ _ _ _ _ _ _ _ _ _ _ _ _ _
 72
65
 73
2
 40
0.762
 49
0.635
 74
0
 49
-0.127
 74
0
  0
LTYPE
  5
35
330
2
100
AcDbSymbolTableRecord
100
AcDbLinetypeTableRecord
  2
PHANTOM
 70
0
  3
Phantom ______  __  __  ______  __  __  ______
 72
65
 73
6
 40
6.35
 49
3.175
 74
0
 49
-0.635
 74
0
 49
0.635
 74
0
 49
-0.635
 74
0
 49
0.635
 74
0
 49
-0.635
 74
0
  0
LTYPE
  5
36
330
2
100
AcDbSymbolTableRecord
100
AcDbLinetypeTableRecord
  2
PHANTOMX2
 70
0
  3
Phantom (2x)____________    ____    ____    ____________
 72
65
 73
6
 40
10.795
 49
6.35
 74
0
 49
-0.635
 74
0
 49
1.27
 74
0
 49
-0.635
 74
0
 49
1.27
 74
0
 49
-0.635
 74
0
  0
LTYPE
  5
37
330
2
100
AcDbSymbolTableRecord
100
AcDbLinetypeTableRecord
  2
PHANTOM2
 70
0
  3
Phantom (.5x) ___ _ _ ___ _ _ ___ _ _ ___ _ _ ___
 72
65
 73
6
 40
3.175
 49
1.587
 74
0
 49
-0.318
 74
0
 49
0.318
 74
0
 49
-0.318
 74
0
 49
0.318
 74
0
 49
-0.318
 74
0
  0
LTYPE
  5
38
330
2
100
AcDbSymbolTableRecord
100
AcDbLinetypeTableRecord
  2
DASHDOT
 70
0
  3
Dash dot __ . __ . __ . __ . __ . __ . __ . __
 72
65
 73
4
 40
3.556
 49
2.54
 74
0
 49
-0.508
 74
0
 49
0.0
 74
0
 49
-0.508
 74
0
  0
LTYPE
  5
39
330
2
100
AcDbSymbolTableRecord
100
AcDbLinetypeTableRecord
  2
DASHDOTX2
 70
0
  3
Dash dot (2x) ____  .  ____  .  ____  .  ____
 72
65
 73
4
 40
6.096
 49
5.08
 74
0
 49
-0.508
 74
0
 49
0.0
 74
0
 49
-0.508
 74
0
  0
LTYPE
  5
3A
330
2
100
AcDbSymbolTableRecord
100
AcDbLinetypeTableRecord
  2
DASHDOT2
 70
0
  3
Dash dot (.5x) _ . _ . _ . _ . _ . _ . _ . _
 72
65
 73
4
 40
1.778
 49
1.27
 74
0
 49
-0.254
 74
0
 49
0.0
 74
0
 49
-0.254
 74
0
  0
LTYPE
  5
3B
330
2
100
AcDbSymbolTableRecord
100
AcDbLinetypeTableRecord
  2
DOT
 70
0
  3
Dot .  .  .  .  .  .  .  .  .  .  .  .  .  .  .  .
 72
65
 73
2
 40
0.508
 49
0.0
 74
0
 49
-0.508
 74
0
  0
LTYPE
  5
3C
330
2
100
AcDbSymbolTableRecord
100
AcDbLinetypeTableRecord
  2
DOTX2
 70
0
  3
Dot (2x) .    .    .    .    .    .    .    . 
 72
65
 73
2
 40
1.016
 49
0.0
 74
0
 49
-1.016
 74
0
  0
LTYPE
  5
3D
330
2
100
AcDbSymbolTableRecord
100
AcDbLinetypeTableRecord
  2
DOT2
 70
0
  3
Dot (.5) . . . . . . . . . . . . . . . . . . . 
 72
65
 73
2
 40
0.254
 49
0.0
 74
0
 49
-0.254
 74
0
  0
LTYPE
  5
3E
330
2
100
AcDbSymbolTableRecord
100
AcDbLinetypeTableRecord
  2
DIVIDE
 70
0
  3
Divide __ . . __ . . __ . . __ . . __ . . __
 72
65
 73
6
 40
4.064
 49
2.54
 74
0
 49
-0.508
 74
0
 49
0.0
 74
0
 49
-0.508
 74
0
 49
0.0
 74
0
 49
-0.508
 74
0
  0
LTYPE
  5
3F
330
2
100
AcDbSymbolTableRecord
100
AcDbLinetypeTableRecord
  2
DIVIDEX2
 70
0
  3
Divide (2x) ____  . .  ____  . .  ____  . .  ____
 72
65
 73
6
 40
6.604
 49
5.08
 74
0
 49
-0.508
 74
0
 49
0.0
 74
0
 49
-0.508
 74
0
 49
0.0
 74
0
 49
-0.508
 74
0
  0
LTYPE
  5
40
330
2
100
AcDbSymbolTableRecord
100
AcDbLinetypeTableRecord
  2
DIVIDE2
 70
0
  3
Divide(.5x) _ . _ . _ . _ . _ . _ . _ . _
 72
65
 73
6
 40
2.032
 49
1.27
 74
0
 49
-0.254
 74
0
 49
0.0
 74
0
 49
-0.254
 74
0
 49
0.0
 74
0
 49
-0.254
 74
0
  0
ENDTAB
  0
TABLE
  2
LAYER
  5
1
330
0
100
AcDbSymbolTable
 70
5
  0
LAYER
  5
27
330
1
100
AcDbSymbolTableRecord
100
AcDbLayerTableRecord
  2
0
 70
0
 62
7
  6
Continuous
370
-3
390
13
347
21
  0
LAYER
  5
28
330
1
100
AcDbSymbolTableRecord
100
AcDbLayerTableRecord
  2
Defpoints
 70
0
 62
7
  6
Continuous
290
0
370
-3
390
13
347
21
  0
LAYER
  5
8A
330
1
100
AcDbSymbolTableRecord
100
AcDbLayerTableRecord
  2
CORTE
 70
0
 62
1
  6
Continuous
370
-3
390
13
347
21
  0
LAYER
  5
8B
330
1
100
AcDbSymbolTableRecord
100
AcDbLayerTableRecord
  2
GRABADO
 70
0
 62
5
  6
Continuous
370
-3
390
13
347
21
  0
LAYER
  5
8C
330
1
100
AcDbSymbolTableRecord
100
AcDbLayerTableRecord
  2
HOJA
 70
0
 62
8
  6
Continuous
370
-3
390
13
347
21
  0
ENDTAB
  0
TABLE
  2
STYLE
  5
5
330
0
100
AcDbSymbolTable
 70
26
  0
STYLE
  5
29
330
5
100
AcDbSymbolTableRecord
100
AcDbTextStyleTableRecord
  2
Standard
 70
0
 40
0.0
 41
1.0
 50
0.0
 71
0
 42
2.5
  3
txt
  4

  0
STYLE
  5
41
330
5
100
AcDbSymbolTableRecord
100
AcDbTextStyleTableRecord
  2
OpenSans-Light
 70
0
 40
0.0
 41
1.0
 50
0.0
 71
0
 42
2.5
  3
OpenSans-Light.ttf
  4

  0
STYLE
  5
42
330
5
100
AcDbSymbolTableRecord
100
AcDbTextStyleTableRecord
  2
OpenSans-Light-Italic
 70
0
 40
0.0
 41
1.0
 50
0.0
 71
0
 42
2.5
  3
OpenSans-LightItalic.ttf
  4

  0
STYLE
  5
43
330
5
100
AcDbSymbolTableRecord
100
AcDbTextStyleTableRecord
  2
OpenSans
 70
0
 40
0.0
 41
1.0
 50
0.0
 71
0
 42
2.5
  3
OpenSans-Regular.ttf
  4

  0
STYLE
  5
44
330
5
100
AcDbSymbolTableRecord
100
AcDbTextStyleTableRecord
  2
OpenSans-Italic
 70
0
 40
0.0
 41
1.0
 50
0.0
 71
0
 42
2.5
  3
OpenSans-Italic.ttf
  4

  0
STYLE
  5
45
330
5
100
AcDbSymbolTableRecord
100
AcDbTextStyleTableRecord
  2
OpenSans-SemiBold
 70
0
 40
0.0
 41
1.0
 50
0.0
 71
0
 42
2.5
  3
OpenSans-SemiBold.ttf
  4

  0
STYLE
  5
46
330
5
100
AcDbSymbolTableRecord
100
AcDbTextStyleTableRecord
  2
OpenSans-SemiBoldItalic
 70
0
 40
0.0
 41
1.0
 50
0.0
 71
0
 42
2.5
  3
OpenSans-SemiBoldItalic.ttf
  4

  0
STYLE
  5
47
330
5
100
AcDbSymbolTableRecord
100
AcDbTextStyleTableRecord
  2
OpenSans-Bold
 70
0
 40
0.0
 41
1.0
 50
0.0
 71
0
 42
2.5
  3
OpenSans-Bold.ttf
  4

  0
STYLE
  5
48
330
5
100
AcDbSymbolTableRecord
100
AcDbTextStyleTableRecord
  2
OpenSans-BoldItalic
 70
0
 40
0.0
 41
1.0
 50
0.0
 71
0
 42
2.5
  3
OpenSans-BoldItalic.ttf
  4

  0
STYLE
  5
49
330
5
100
AcDbSymbolTableRecord
100
AcDbTextStyleTableRecord
  2
OpenSans-ExtraBold
 70
0
 40
0.0
 41
1.0
 50
0.0
 71
0
 42
2.5
  3
OpenSans-ExtraBold.ttf
  4

  0
STYLE
  5
4A
330
5
100
AcDbSymbolTableRecord
100
AcDbTextStyleTableRecord
  2
OpenSans-ExtraBoldItalic
 70
0
 40
0.0
 41
1.0
 50
0.0
 71
0
 42
2.5
  3
OpenSans-ExtraBoldItalic.ttf
  4

  0
STYLE
  5
4B
330
5
100
AcDbSymbolTableRecord
100
AcDbTextStyleTableRecord
  2
OpenSansCondensed-Bold
 70
0
 40
0.0
 41
1.0
 50
0.0
 71
0
 42
2.5
  3
OpenSansCondensed-Bold.ttf
  4

  0
STYLE
  5
4C
330
5
100
AcDbSymbolTableRecord
100
AcDbTextStyleTableRecord
  2
OpenSansCondensed-Light
 70
0
 40
0.0
 41
1.0
 50
0.0
 71
0
 42
2.5
  3
OpenSansCondensed-Light.ttf
  4

  0
STYLE
  5
4D
330
5
100
AcDbSymbolTableRecord
100
AcDbTextStyleTableRecord
  2
OpenSansCondensed-Italic
 70
0
 40
0.0
 41
1.0
 50
0.0
 71
0
 42
2.5
  3
OpenSansCondensed-LightItalic.ttf
  4

  0
STYLE
  5
4E
330
5
100
AcDbSymbolTableRecord
100
AcDbTextStyleTableRecord
  2
LiberationSans
 70
0
 40
0.0
 41
1.0
 50
0.0
 71
0
 42
2.5
  3
LiberationSans-Regular.ttf
  4

  0
STYLE
  5
4F
330
5
100
AcDbSymbolTableRecord
100
AcDbTextStyleTableRecord
  2
LiberationSans-Bold
 70
0
 40
0.0
 41
1.0
 50
0.0
 71
0
 42
2.5
  3
LiberationSans-Bold.ttf
  4

  0
STYLE
  5
50
330
5
100
AcDbSymbolTableRecord
100
AcDbTextStyleTableRecord
  2
LiberationSans-BoldItalic
 70
0
 40
0.0
 41
1.0
 50
0.0
 71
0
 42
2.5
  3
LiberationSans-BoldItalic.ttf
  4

  0
STYLE
  5
51
330
5
100
AcDbSymbolTableRecord
100
AcDbTextStyleTableRecord
  2
LiberationSans-Italic
 70
0
 40
0.0
 41
1.0
 50
0.0
 71
0
 42
2.5
  3
LiberationSans-Italic.ttf
  4

  0
STYLE
  5
52
330
5
100
AcDbSymbolTableRecord
100
AcDbTextStyleTableRecord
  2
LiberationSerif
 70
0
 40
0.0
 41
1.0
 50
0.0
 71
0
 42
2.5
  3
LiberationSerif-Regular.ttf
  4

  0
STYLE
  5
53
330
5
100
AcDbSymbolTableRecord
100
AcDbTextStyleTableRecord
  2
LiberationSerif-Bold
 70
0
 40
0.0
 41
1.0
 50
0.0
 71
0
 42
2.5
  3
LiberationSerif-Bold.ttf
  4

  0
STYLE
  5
54
330
5
100
AcDbSymbolTableRecord
100
AcDbTextStyleTableRecord
  2
LiberationSerif-BoldItalic
 70
0
 40
0.0
 41
1.0
 50
0.0
 71
0
 42
2.5
  3
LiberationSerif-BoldItalic.ttf
  4

  0
STYLE
  5
55
330
5
100
AcDbSymbolTableRecord
100
AcDbTextStyleTableRecord
  2
LiberationSerif-Italic
 70
0
 40
0.0
 41
1.0
 50
0.0
 71
0
 42
2.5
  3
LiberationSerif-Italic.ttf
  4

  0
STYLE
  5
56
330
5
100
AcDbSymbolTableRecord
100
AcDbTextStyleTableRecord
  2
LiberationMono
 70
0
 40
0.0
 41
1.0
 50
0.0
 71
0
 42
2.5
  3
LiberationMono-Regular.ttf
  4

  0
STYLE
  5
57
330
5
100
AcDbSymbolTableRecord
100
AcDbTextStyleTableRecord
  2
LiberationMono-Bold
 70
0
 40
0.0
 41
1.0
 50
0.0
 71
0
 42
2.5
  3
LiberationMono-Bold.ttf
  4

  0
STYLE
  5
58
330
5
100
AcDbSymbolTableRecord
100
AcDbTextStyleTableRecord
  2
LiberationMono-BoldItalic
 70
0
 40
0.0
 41
1.0
 50
0.0
 71
0
 42
2.5
  3
LiberationMono-BoldItalic.ttf
  4

  0
STYLE
  5
59
330
5
100
AcDbSymbolTableRecord
100
AcDbTextStyleTableRecord
  2
LiberationMono-Italic
 70
0
 40
0.0
 41
1.0
 50
0.0
 71
0
 42
2.5
  3
LiberationMono-Italic.ttf
  4

  0
ENDTAB
  0
TABLE
  2
VIEW
  5
7
330
0
100
AcDbSymbolTable
 70
0
  0
ENDTAB
  0
TABLE
  2
UCS
  5
6
330
0
100
AcDbSymbolTable
 70
0
  0
ENDTAB
  0
TABLE
  2
APPID
  5
3
330
0
100
AcDbSymbolTable
 70
3
  0
APPID
  5
2A
330
3
100
AcDbSymbolTableRecord
100
AcDbRegAppTableRecord
  2
ACAD
 70
0
  0
APPID
  5
97
330
3
100
AcDbSymbolTableRecord
100
AcDbRegAppTableRecord
  2
HATCHBACKGROUNDCOLOR
 70
0
  0
APPID
  5
98
330
3
100
AcDbSymbolTableRecord
100
AcDbRegAppTableRecord
  2
EZDXF
 70
0
  0
ENDTAB
  0
TABLE
  2
DIMSTYLE
  5
4
330
0
100
AcDbSymbolTable
 70
12
100
AcDbDimStyleTable
  0
DIMSTYLE
105
2B
330
4
100
AcDbSymbolTableRecord
100
AcDbDimStyleTableRecord
  2
Standard
 70
0
 40
1.0
 41
2.5
 42
0.625
 43
3.75
 44
1.25
 45
0.0
 46
0.0
 47
0.0
 48
0.0
 49
2.5
140
2.5
141
2.5
142
0.0
143
0.03937007874
144
1.0
145
0.0
146
1.0
147
0.625
148
0.0
 69
0
 70
0
 71
0
 72
0
 73
0
 74
0
 75
0
 76
0
 77
1
 78
8
 79
3
170
0
171
3
172
1
173
0
174
0
175
0
176
0
177
0
178
0
179
2
271
2
272
2
273
2
274
3
275
0
276
0
277
2
278
44
279
0
280
0
281
0
282
0
283
0
284
8
285
0
286
0
288
0
289
3
290
0
371
-2
372
-2
  0
DIMSTYLE
105
73
330
4
100
AcDbSymbolTableRecord
100
AcDbDimStyleTableRecord
  2
EZDXF
 70
0
 40
1.0
 41
0.175
 42
0.125
 43
3.75
 44
0.375
 45
0.0
 46
0.0
 47
0.0
 48
0.0
 49
2.5
140
0.25
141
2.5
142
0.0
143
0.03937007874
144
100.0
145
0.0
146
0.5
147
0.1
148
0.0
 69
0
 70
0
 71
0
 72
0
 73
0
 74
0
 75
0
 76
0
 77
1
 78
12
 79
3
170
0
171
3
172
1
173
0
174
0
175
0
176
0
177
0
178
0
179
2
271
2
272
2
273
2
274
3
275
0
276
0
277
2
278
46
279
2
280
0
281
0
282
0
283
0
284
8
285
0
286
0
288
1
289
3
290
0
340
4C
342
74
371
-2
372
-2
  0
DIMSTYLE
105
7C
330
4
100
AcDbSymbolTableRecord
100
AcDbDimStyleTableRecord
  2
EZ_M_100_H25_CM
 70
0
 40
1.0
 41
0.25
 42
0.125
 43
3.75
 44
0.375
 45
0.0
 46
0.0
 47
0.0
 48
0.0
 49
2.5
140
0.25
141
2.5
142
0.125
143
0.03937007874
144
100.0
145
0.0
146
0.5
147
0.1
148
0.0
 69
0
 70
0
 71
0
 72
0
 73
0
 74
0
 75
0
 76
0
 77
1
 78
12
 79
3
170
0
171
3
172
1
173
0
174
0
175
0
176
0
177
0
178
0
179
2
271
2
272
2
273
2
274
3
275
0
276
0
277
2
278
46
279
2
280
0
281
0
282
0
283
0
284
8
285
0
286
0
288
1
289
3
290
0
340
4C
371
-2
372
-2
  0
DIMSTYLE
105
7D
330
4
100
AcDbSymbolTableRecord
100
AcDbDimStyleTableRecord
  2
EZ_M_50_H25_CM
 70
0
 40
1.0
 41
0.125
 42
0.0625
 43
3.75
 44
0.1875
 45
0.0
 46
0.0
 47
0.0
 48
0.0
 49
2.5
140
0.125
141
2.5
142
0.0625
143
0.03937007874
144
100.0
145
0.0
146
0.5
147
0.05
148
0.0
 69
0
 70
0
 71
0
 72
0
 73
0
 74
0
 75
0
 76
0
 77
1
 78
12
 79
3
170
0
171
3
172
1
173
0
174
0
175
0
176
0
177
0
178
0
179
2
271
2
272
2
273
2
274
3
275
0
276
0
277
2
278
46
279
2
280
0
281
0
282
0
283
0
284
8
285
0
286
0
288
1
289
3
290
0
340
4C
371
-2
372
-2
  0
DIMSTYLE
105
7E
330
4
100
AcDbSymbolTableRecord
100
AcDbDimStyleTableRecord
  2
EZ_M_25_H25_CM
 70
0
 40
1.0
 41
0.0625
 42
0.03125
 43
3.75
 44
0.09375
 45
0.0
 46
0.0
 47
0.0
 48
0.0
 49
2.5
140
0.0625
141
2.5
142
0.03125
143
0.03937007874
144
100.0
145
0.0
146
0.5
147
0.025
148
0.0
 69
0
 70
0
 71
0
 72
0
 73
0
 74
0
 75
0
 76
0
 77
1
 78
12
 79
3
170
0
171
3
172
1
173
0
174
0
175
0
176
0
177
0
178
0
179
2
271
2
272
2
273
2
274
3
275
0
276
0
277
2
278
46
279
2
280
0
281
0
282
0
283
0
284
8
285
0
286
0
288
1
289
3
290
0
340
4C
371
-2
372
-2
  0
DIMSTYLE
105
7F
330
4
100
AcDbSymbolTableRecord
100
AcDbDimStyleTableRecord
  2
EZ_M_20_H25_CM
 70
0
 40
1.0
 41
0.05
 42
0.025
 43
3.75
 44
0.07500000000000001
 45
0.0
 46
0.0
 47
0.0
 48
0.0
 49
2.5
140
0.05
141
2.5
142
0.025
143
0.03937007874
144
100.0
145
0.0
146
0.5
147
0.020000000000000004
148
0.0
 69
0
 70
0
 71
0
 72
0
 73
0
 74
0
 75
0
 76
0
 77
1
 78
12
 79
3
170
0
171
3
172
1
173
0
174
0
175
0
176
0
177
0
178
0
179
2
271
2
272
2
273
2
274
3
275
0
276
0
277
2
278
46
279
2
280
0
281
0
282
0
283
0
284
8
285
0
286
0
288
1
289
3
290
0
340
4C
371
-2
372
-2
  0
DIMSTYLE
105
80
330
4
100
AcDbSymbolTableRecord
100
AcDbDimStyleTableRecord
  2
EZ_M_10_H25_CM
 70
0
 40
1.0
 41
0.025
 42
0.0125
 43
3.75
 44
0.037500000000000006
 45
0.0
 46
0.0
 47
0.0
 48
0.0
 49
2.5
140
0.025
141
2.5
142
0.0125
143
0.03937007874
144
100.0
145
0.0
146
0.5
147
0.010000000000000002
148
0.0
 69
0
 70
0
 71
0
 72
0
 73
0
 74
0
 75
0
 76
0
 77
1
 78
12
 79
3
170
0
171
3
172
1
173
0
174
0
175
0
176
0
177
0
178
0
179
2
271
2
272
2
273
2
274
3
275
0
276
0
277
2
278
46
279
2
280
0
281
0
282
0
283
0
284
8
285
0
286
0
288
1
289
3
290
0
340
4C
371
-2
372
-2
  0
DIMSTYLE
105
81
330
4
100
AcDbSymbolTableRecord
100
AcDbDimStyleTableRecord
  2
EZ_M_5_H25_CM
 70
0
 40
1.0
 41
0.0125
 42
0.00625
 43
3.75
 44
0.018750000000000003
 45
0.0
 46
0.0
 47
0.0
 48
0.0
 49
2.5
140
0.0125
141
2.5
142
0.00625
143
0.03937007874
144
100.0
145
0.0
146
0.5
147
0.005000000000000001
148
0.0
 69
0
 70
0
 71
0
 72
0
 73
0
 74
0
 75
0
 76
0
 77
1
 78
12
 79
3
170
0
171
3
172
1
173
0
174
0
175
0
176
0
177
0
178
0
179
2
271
2
272
2
273
2
274
3
275
0
276
0
277
2
278
46
279
2
280
0
281
0
282
0
283
0
284
8
285
0
286
0
288
1
289
3
290
0
340
4C
371
-2
372
-2
  0
DIMSTYLE
105
82
330
4
100
AcDbSymbolTableRecord
100
AcDbDimStyleTableRecord
  2
EZ_M_1_H25_CM
 70
0
 40
1.0
 41
0.0025
 42
0.00125
 43
3.75
 44
0.00375
 45
0.0
 46
0.0
 47
0.0
 48
0.0
 49
2.5
140
0.0025
141
2.5
142
0.00125
143
0.03937007874
144
100.0
145
0.0
146
0.5
147
0.001
148
0.0
 69
0
 70
0
 71
0
 72
0
 73
0
 74
0
 75
0
 76
0
 77
1
 78
12
 79
3
170
0
171
3
172
1
173
0
174
0
175
0
176
0
177
0
178
0
179
2
271
2
272
2
273
2
274
3
275
0
276
0
277
2
278
46
279
2
280
0
281
0
282
0
283
0
284
8
285
0
286
0
288
1
289
3
290
0
340
4C
371
-2
372
-2
  0
DIMSTYLE
105
83
330
4
100
AcDbSymbolTableRecord
100
AcDbDimStyleTableRecord
  2
EZ_RADIUS
 70
0
 40
1.0
 41
0.25
 42
0.125
 43
3.75
 44
0.375
 45
0.0
 46
0.0
 47
0.0
 48
0.0
 49
2.5
140
0.25
141
0.0
142
0.0
143
0.03937007874
144
100.0
145
0.0
146
0.5
147
0.1
148
0.0
 69
0
 70
0
 71
0
 72
0
 73
0
 74
0
 75
0
 76
0
 77
1
 78
12
 79
3
170
0
171
3
172
0
173
0
174
0
175
0
176
0
177
0
178
0
179
2
271
2
272
2
273
2
274
3
275
0
276
0
277
2
278
46
279
1
280
0
281
0
282
0
283
0
284
8
285
0
286
0
288
1
289
3
290
0
340
4C
342
84
371
-2
372
-2
  0
DIMSTYLE
105
88
330
4
100
AcDbSymbolTableRecord
100
AcDbDimStyleTableRecord
  2
EZ_RADIUS_INSIDE
 70
0
 40
1.0
 41
0.25
 42
0.125
 43
3.75
 44
0.375
 45
0.0
 46
0.0
 47
0.0
 48
0.0
 49
2.5
140
0.25
141
0.0
142
0.0
143
0.03937007874
144
100.0
145
0.0
146
0.5
147
0.1
148
0.0
 69
0
 70
0
 71
0
 72
0
 73
0
 74
0
 75
0
 76
0
 77
0
 78
12
 79
3
170
0
171
3
172
0
173
0
174
1
175
0
176
0
177
0
178
0
179
2
271
2
272
2
273
2
274
3
275
0
276
0
277
2
278
46
279
0
280
0
281
0
282
0
283
0
284
8
285
0
286
0
288
1
289
0
290
0
340
4C
342
84
371
-2
372
-2
  0
DIMSTYLE
105
89
330
4
100
AcDbSymbolTableRecord
100
AcDbDimStyleTableRecord
  2
EZ_CURVED
 70
0
 40
1.0
 41
0.25
 42
0.125
 43
3.75
 44
0.375
 45
0.0
 46
0.0
 47
0.0
 48
0.0
 49
2.5
140
0.25
141
2.5
142
0.0
143
0.03937007874
144
100.0
145
0.0
146
0.5
147
0.1
148
0.0
 69
0
 70
0
 71
0
 72
0
 73
0
 74
0
 75
0
 76
0
 77
1
 78
12
 79
2
 90
2
170
0
171
3
172
1
173
0
174
0
175
0
176
0
177
0
178
0
179
2
271
2
272
2
273
2
274
3
275
0
276
0
277
2
278
46
279
2
280
0
281
0
282
0
283
0
284
8
285
0
286
0
288
1
289
3
290
0
340
4C
371
-2
372
-2
  0
ENDTAB
  0
TABLE
  2
BLOCK_RECORD
  5
9
330
0
100
AcDbSymbolTable
 70
5
  0
BLOCK_RECORD
  5
17
330
9
100
AcDbSymbolTableRecord
100
AcDbBlockTableRecord
  2
*Model_Space
340
1A
 70
0
280
1
281
0
  0
BLOCK_RECORD
  5
1B
330
9
100
AcDbSymbolTableRecord
100
AcDbBlockTableRecord
  2
*Paper_Space
340
1E
 70
0
280
1
281
0
  0
BLOCK_RECORD
  5
74
330
9
100
AcDbSymbolTableRecord
100
AcDbBlockTableRecord
  2
_ARCHTICK
340
0
 70
0
280
1
281
0
  0
BLOCK_RECORD
  5
78
330
9
100
AcDbSymbolTableRecord
100
AcDbBlockTableRecord
  2
_CLOSEDFILLED
340
0
 70
0
280
1
281
0
  0
BLOCK_RECORD
  5
84
330
9
100
AcDbSymbolTableRecord
100
AcDbBlockTableRecord
  2
_CLOSEDBLANK
340
0
 70
0
280
1
281
0
  0
ENDTAB
  0
ENDSEC
  0
SECTION
  2
BLOCKS
  0
BLOCK
  5
18
330
17
100
AcDbEntity
  8
0
100
AcDbBlockBegin
  2
*Model_Space
 70
0
 10
0.0
 20
0.0
 30
0.0
  3
*Model_Space
  1

  0
ENDBLK
  5
19
330
17
100
AcDbEntity
  8
0
100
AcDbBlockEnd
  0
BLOCK
  5
1C
330
1B
100
AcDbEntity
  8
0
100
AcDbBlockBegin
  2
*Paper_Space
 70
0
 10
0.0
 20
0.0
 30
0.0
  3
*Paper_Space
  1

  0
ENDBLK
  5
1D
330
1B
100
AcDbEntity
  8
0
100
AcDbBlockEnd
  0
BLOCK
  5
75
330
74
100
AcDbEntity
  8
0
100
AcDbBlockBegin
  2
_ARCHTICK
 70
0
 10
0.0
 20
0.0
 30
0.0
  3
_ARCHTICK
  1

  0
LWPOLYLINE
  5
77
330
74
100
AcDbEntity
  8
0
  6
BYBLOCK
 62
0
100
AcDbPolyline
 90
2
 70
0
 43
0.15
 10
-0.5
 20
-0.5
 10
0.5
 20
0.5
  0
ENDBLK
  5
76
330
74
100
AcDbEntity
  8
0
100
AcDbBlockEnd
  0
BLOCK
  5
79
330
78
100
AcDbEntity
  8
0
100
AcDbBlockBegin
  2
_CLOSEDFILLED
 70
0
 10
0.0
 20
0.0
 30
0.0
  3
_CLOSEDFILLED
  1

  0
SOLID
  5
7B
330
78
100
AcDbEntity
  8
0
  6
BYBLOCK
 62
0
100
AcDbTrace
 10
-1.0
 20
0.16439898372402537
 30
0.0
 11
0.0
 21
0.0
 31
0.0
 12
-1.0
 22
-0.16439898372402537
 32
0.0
 13
-1.0
 23
-0.16439898372402537
 33
0.0
  0
ENDBLK
  5
7A
330
78
100
AcDbEntity
  8
0
100
AcDbBlockEnd
  0
BLOCK
  5
85
330
84
100
AcDbEntity
  8
0
100
AcDbBlockBegin
  2
_CLOSEDBLANK
 70
0
 10
0.0
 20
0.0
 30
0.0
  3
_CLOSEDBLANK
  1

  0
LWPOLYLINE
  5
87
330
84
100
AcDbEntity
  8
0
  6
BYBLOCK
 62
0
100
AcDbPolyline
 90
3
 70
1
 10
-1.0
 20
0.16439898372402537
 10
0.0
 20
0.0
 10
-1.0
 20
-0.16439898372402537
  0
ENDBLK
  5
86
330
84
100
AcDbEntity
  8
0
100
AcDbBlockEnd
  0
ENDSEC
  0
SECTION
  2
ENTITIES
  0
LWPOLYLINE
  5
8D
330
17
100
AcDbEntity
  8
HOJA
100
AcDbPolyline
 90
4
 70
1
 10
0.0
 20
0.0
 10
600.0
 20
0.0
 10
600.0
 20
900.0
 10
0.0
 20
900.0
  0
LWPOLYLINE
  5
8E
330
17
100
AcDbEntity
  8
CORTE
100
AcDbPolyline
 90
509
 70
1
 10
41.230483659009906
 20
419.29347604747863
 10
40.32387540063519
 20
421.31379750455244
 10
38.26723096968385
 20
424.62992725357935
 10
37.67230680072248
 20
427.3672476839224
 10
36.51468809333369
 20
431.5669092674857
 10
34.401348308094384
 20
436.61505602149555
 10
33.989827155610556
 20
437.47057702973416
 10
33.347180598524346
 20
439.7886895955817
 10
32.148173825040885
 20
444.29717043518485
 10
31.82036862089467
 20
445.8854210680065
 10
29.99686078357945
 20
450.6917817291169
 10
28.79294879179929
 20
455.1490142684879
 10
28.232272482983717
 20
457.6124506992569
 10
26.37791856846934
 20
463.2661078935421
 10
26.100210939511953
 20
464.0413892398424
 10
26.031902981133044
 20
464.4098396140348
 10
24.121935151863227
 20
470.6664046277733
 10
22.944220607776288
 20
473.6691807663333
 10
22.397666758889955
 20
477.65062853471545
 10
21.091060075899122
 20
482.9295114989395
 10
20.627649283022492
 20
484.5565698666828
 10
19.404138014266664
 20
491.7343824685804
 10
19.34507197713515
 20
492.1163118816562
 10
19.326689211788334
 20
492.1963521961361
 10
18.358398223203267
 20
500.0695508021213
 10
18.10594020112353
 20
501.4577480427415
 10
17.178525051815313
 20
507.7638753236729
 10
16.798466706306954
 20
510.72029184260964
 10
16.090957319883728
 20
515.5799284230379
 10
15.54495619492559
 20
519.985348550189
 10
15.418860683998673
 20
523.9579373505517
 10
15.494191410129588
 20
529.2538550092577
 10
15.678262558941242
 20
533.5659846515628
 10
15.758546106303129
 20
538.5107494907916
 10
15.511165329029609
 20
542.598971421231
 10
15.357067518637677
 20
547.7663995631465
 10
14.881260358708687
 20
551.018935173724
 10
14.640402757968559
 20
557.0280951319496
 10
14.369914508646843
 20
559.5990842592737
 10
13.675509938027744
 20
566.2902041096859
 10
13.675511355722165
 20
567.9421695875626
 10
13.005889234132837
 20
575.5530249146937
 10
13.042333733404575
 20
576.3685402259644
 10
13.52904201734873
 20
584.8200266128556
 10
13.643562373143595
 20
586.4262977929106
 10
13.52527069032044
 20
594.0788966702526
 10
13.685190915530256
 20
595.7477022783182
 10
14.619741614748136
 20
603.3466862771452
 10
15.176145005935723
 20
606.9923081349407
 10
16.173304537676586
 20
612.6090962225903
 10
17.097106466416108
 20
618.8039593074359
 10
17.547266718320316
 20
621.8696725405807
 10
19.11715616974402
 20
630.7504495034805
 10
19.193777686537487
 20
631.1339116398071
 10
19.40506555754405
 20
632.0639246677983
 10
21.33600346735261
 20
640.4086270281337
 10
26.387665637948658
 20
648.1687884695366
 10
27.557072060199516
 20
649.6824268799019
 10
33.357038084031274
 20
658.8601340563046
 10
33.41521128845625
 20
658.9438908716488
 10
40.331218939732935
 20
668.1318022580958
 10
40.397055150012875
 20
668.212505086462
 10
47.31097340524252
 20
674.3789797359727
 10
50.76658739347931
 20
677.4771505192766
 10
54.28295651247231
 20
680.5646727851858
 10
60.47465068882343
 20
685.7039173340872
 10
61.255713781601344
 20
686.4054427360265
 10
61.74344257983239
 20
686.7443396337917
 10
68.23966200326413
 20
690.7627111395855
 10
72.48401739090741
 20
692.3812303136447
 10
75.22070298566496
 20
693.397087967016
 10
81.56366032447386
 20
695.1433096317473
 10
82.24654706824685
 20
694.7221763444768
 10
87.01988740519187
 20
693.1093494164134
 10
89.2039347328348
 20
692.5508343490924
 10
92.83665618915211
 20
691.5992137793537
 10
96.16067419764249
 20
691.8445446867022
 10
99.48431727279967
 20
691.1658440428478
 10
103.13165784770445
 20
690.9968188679468
 10
106.12658000858346
 20
690.7258476689826
 10
110.11378315592628
 20
689.8188681466722
 10
112.08917686226118
 20
689.3743099420662
 10
117.09396663088569
 20
687.7826804473702
 10
117.69638932840508
 20
687.5277475278863
 10
118.60699318271418
 20
686.7416962958578
 10
122.28256510251163
 20
684.3491130508669
 10
124.08388301285709
 20
682.8114037282276
 10
126.76136299710879
 20
681.0329046157426
 10
130.29518616704945
 20
677.4759840656379
 10
130.75809292780355
 20
677.0775538510115
 10
131.06087726306714
 20
676.8033316223323
 10
134.77602360885248
 20
673.1346160030762
 10
137.99175183294938
 20
668.2010762257078
 10
138.0122131658768
 20
668.1688673970816
 10
138.04070191044275
 20
668.1369259220023
 10
141.11353882106118
 20
663.0139527734614
 10
143.37633615566892
 20
658.9297338138886
 10
143.86387516545324
 20
657.3924201834257
 10
145.01761231067485
 20
655.1605509324963
 10
146.65903214231184
 20
651.857736909953
 10
147.98295385778874
 20
649.6775101608782
 10
149.71619527044868
 20
646.6580850023875
 10
151.98805745523555
 20
642.25036794165
 10
152.5503884112709
 20
641.1615605654933
 10
152.95546236851237
 20
640.4185631120063
 10
155.86472212498416
 20
636.3083647341218
 10
158.28278400150884
 20
631.1526361104798
 10
158.56728181578706
 20
630.6478301938255
 10
158.9443701619823
 20
630.2062413562653
 10
162.85518183855675
 20
627.1177668696782
 10
165.90813165046393
 20
624.5472440206377
 10
167.21523659729405
 20
623.6608724304383
 10
169.8137141176071
 20
621.9185375141928
 10
171.7523668349013
 20
620.4138119251124
 10
172.888177921958
 20
619.3522129018493
 10
175.5350236474285
 20
616.1667448952512
 10
179.5219200775266
 20
612.6537979182449
 10
179.71488743053737
 20
612.4908006146361
 10
179.83643455966285
 20
612.4406258860886
 10
184.6623374903122
 20
609.831628722839
 10
186.78975350756332
 20
609.5455117059178
 10
190.63425721145063
 20
608.5051308474744
 10
193.7646406958031
 20
607.3704554517822
 10
196.42110086608636
 20
606.932767606555
 10
200.74495894685992
 20
604.8513893488307
 10
201.6036102635435
 20
604.553574294971
 10
204.9327863717242
 20
603.4077089859379
 10
207.17747223790934
 20
602.705045428253
 10
207.70230825978365
 20
602.5763500064718
 10
213.31434102656203
 20
601.6110129936305
 10
214.67264333497064
 20
601.4320134632144
 10
219.21201947862028
 20
600.1790246563382
 10
221.64630750679726
 20
599.8112612374416
 10
225.03524539596583
 20
598.648126558393
 10
228.6112192668495
 20
597.9155987204194
 10
231.20302257218282
 20
597.5954815257601
 10
235.5787346827235
 20
596.892489014594
 10
237.53231397678678
 20
596.7355651519947
 10
242.55853731750926
 20
594.8958079535632
 10
243.0602148639839
 20
594.8286942740497
 10
249.13614571968947
 20
594.1504688204209
 10
249.49615800948663
 20
594.1139535709417
 10
249.53227600901482
 20
594.1057167247704
 10
254.99370946082263
 20
592.1387172221439
 10
256.50250843650747
 20
591.6792150306223
 10
260.75396700401893
 20
590.5406558289042
 10
263.461769863741
 20
589.9692862871284
 10
267.19251702540714
 20
589.83066953963
 10
270.4624238974841
 20
588.0199274726283
 10
272.041191711279
 20
586.9583598299059
 10
274.0741246963016
 20
584.8701447758244
 10
276.1083426910925
 20
583.1524937591826
 10
277.3929308380518
 20
583.2725126173705
 10
282.8899387428464
 20
582.9137137541061
 10
284.3714391249491
 20
582.5056720630223
 10
289.92021837870675
 20
583.0123616786282
 10
291.3397927593726
 20
582.9400962625573
 10
296.5759213146446
 20
582.5875405508814
 10
298.30913867480376
 20
582.5601324121781
 10
303.28352504258555
 20
582.229719531766
 10
305.29107897971016
 20
581.8732010377544
 10
309.34407184598354
 20
581.0150178850727
 10
312.2640187652387
 20
580.6218921645418
 10
315.2958855730617
 20
579.6530560137144
 10
319.22955467401766
 20
578.9265897711352
 10
321.500897972084
 20
578.6458030060508
 10
326.2048116112619
 20
577.7352345981585
 10
327.55106220461835
 20
577.4094824841641
 10
333.06537830402294
 20
575.6255645343599
 10
333.16200719813605
 20
575.5901948309815
 10
333.18994056616793
 20
575.5778249083437
 10
338.39311447294654
 20
573.2636216402761
 10
340.1785674731059
 20
572.0322449210471
 10
342.61305411501553
 20
569.5783082130429
 10
346.2283962203717
 20
566.3485307758265
 10
346.7506302153961
 20
565.8229422408649
 10
347.1461944687296
 20
565.5561708725149
 10
351.04601833599054
 20
562.2764348198698
 10
354.11364926545934
 20
560.3483649829459
 10
355.69848000302363
 20
559.1983675695164
 10
358.7413056029102
 20
557.0921703373424
 10
360.1283444779317
 20
555.8079926165469
 10
361.09280121971256
 20
554.9538033804406
 10
364.24239651884477
 20
552.0151281192952
 10
368.0608429497952
 20
548.8907857058466
 10
368.5534235081127
 20
548.4788866782942
 10
369.2061470507574
 20
547.824974994161
 10
372.42662161322005
 20
544.3519203248147
 10
375.03712259947633
 20
541.3593122643601
 10
376.29180305513546
 20
540.2436006071271
 10
378.40972459752857
 20
538.5684255071155
 10
380.4525613984556
 20
536.5079574686079
 10
381.9990788995574
 20
535.3364896350395
 10
384.92791590298475
 20
533.21178556023
 10
388.965422034345
 20
530.966946174955
 10
389.7746782388149
 20
530.3828819979885
 10
391.26282706183974
 20
529.308836090504
 10
393.9146039162729
 20
526.6142726383368
 10
395.93912851101686
 20
525.2759434640006
 10
398.43739883438957
 20
523.3850993811702
 10
402.89937483740005
 20
521.678104621059
 10
403.73592488525765
 20
521.1783242126185
 10
408.3560602102607
 20
520.0632348922054
 10
409.5525568419371
 20
519.6512558056315
 10
409.8648711999367
 20
519.5425201055491
 10
414.7933962165548
 20
517.344989967954
 10
416.83851866766736
 20
516.5225896388652
 10
419.97437891338495
 20
514.9813213929096
 10
423.802527056112
 20
514.5181459550831
 10
425.7772790060808
 20
513.3984907326058
 10
429.854036366904
 20
510.78591817140796
 10
430.3158706515824
 20
510.14526857196415
 10
430.8005985527325
 20
509.8862701625576
 10
433.82852988123204
 20
505.5312057187575
 10
437.71465423281006
 20
501.5103344509721
 10
437.73962545844097
 20
501.4399450516212
 10
437.78593087474565
 20
501.3700635393875
 10
440.3480801472974
 20
495.63737218973756
 10
441.6487499135196
 20
492.2318625925641
 10
442.41770036497564
 20
489.136764513481
 10
444.75053991059895
 20
486.69436257909683
 10
446.0054531986284
 20
484.63525641965134
 10
446.5320196871926
 20
482.961994196894
 10
446.83003792214413
 20
476.4633713109979
 10
449.39506103983604
 20
473.70307309587906
 10
446.0074538209583
 20
466.0556073318621
 10
445.2813185227524
 20
464.3789029746049
 10
444.7430191246831
 20
463.9912457642504
 10
438.94553381457035
 20
456.67065444689933
 10
437.78602379311997
 20
455.34422475388874
 10
437.71223911499146
 20
455.1325217089593
 10
436.61350970472085
 20
453.5724979831234
 10
431.23011708360673
 20
445.8724202532321
 10
430.8213119303832
 20
444.6416942036599
 10
428.7528368643684
 20
436.61953648041754
 10
424.7823099454654
 20
428.59635855404713
 10
424.20541322050076
 20
427.3475290360452
 10
423.84021922086913
 20
426.830136520633
 10
417.8720402840504
 20
418.0849326372586
 10
416.86758503307465
 20
416.3128319678349
 10
412.2478311824043
 20
411.9431041912394
 10
409.89116445119635
 20
409.4526913153841
 10
409.26046897731067
 20
408.81000062073736
 10
402.91974235143516
 20
403.0519936122437
 10
399.7755426468725
 20
399.5517029359157
 10
395.9472720998019
 20
395.7771885528
 10
389.8446291912742
 20
390.2874434280179
 10
388.97382021752446
 20
389.484281044975
 10
387.48884067320387
 20
388.3142101335102
 10
382.0009082809829
 20
383.9832460642733
 10
378.26672098718973
 20
381.02490776611467
 10
375.03074624293754
 20
378.1216858092639
 10
370.27674040568354
 20
374.70951769479643
 10
368.0608917607299
 20
373.0212762483475
 10
366.66717725644276
 20
371.76759102290134
 10
361.09327635894147
 20
366.0512359677982
 10
356.82846254094966
 20
362.5023118733325
 10
354.11796845491745
 20
360.4650572687342
 10
350.1062949274201
 20
357.17210303886804
 10
347.14374455755933
 20
354.7785787186481
 10
344.52215212729334
 20
353.2365768223217
 10
340.17734707462364
 20
350.46214704765
 10
333.6404462389562
 20
343.98492286632745
 10
333.2055993797021
 20
343.6081679606623
 10
332.61727091358534
 20
343.2003773579095
 10
326.2334049869803
 20
338.3938692656543
 10
321.15603118425133
 20
334.7186370441286
 10
319.26448080594014
 20
333.3434423769454
 10
316.4082435068401
 20
330.9249572127569
 10
312.29671102222574
 20
327.5394075874692
 10
310.03714364811776
 20
325.4644210257661
 10
305.330709214001
 20
320.83293169096805
 10
301.08557842188816
 20
316.2097770204841
 10
298.36498268480864
 20
312.69086172780635
 10
293.7581263030472
 20
306.9475479054763
 10
291.3901591522181
 20
304.5676841665809
 10
285.33974371576005
 20
297.6888249940671
 10
284.4236867695929
 20
296.53856980420824
 10
278.15946005394267
 20
288.4338442807839
 10
277.4600469288732
 20
287.28623278566965
 10
273.60584512199284
 20
279.1819142279255
 10
270.48732722330215
 20
273.40839449864416
 10
268.0824962370741
 20
269.9155364383473
 10
263.5191967965786
 20
261.82517986655967
 10
262.9676201769191
 20
260.66212660463225
 10
261.94087283155204
 20
258.56432042060214
 10
258.7364426735294
 20
251.40714268586635
 10
256.55377921569584
 20
244.64122377006288
 10
255.87491899014321
 20
242.15425343121387
 10
255.52010412261006
 20
240.77942848313387
 10
253.07923040981655
 20
232.89767375348947
 10
252.4966488486757
 20
227.5119242004589
 10
252.13844161856264
 20
223.64245375377095
 10
250.82004648981547
 20
216.0218729153603
 10
250.67070897117628
 20
214.39356443070074
 10
251.6019244235656
 20
207.83087701945715
 10
252.65232912868623
 20
205.15033848124904
 10
253.2702273728762
 20
200.78955245499856
 10
255.5627218481036
 20
195.89690964171086
 10
255.83738534906934
 20
194.93030970403606
 10
256.5563845714332
 20
187.89456594041621
 10
256.695035837437
 20
186.82531818482175
 10
256.8038870144783
 20
186.66883985019467
 10
261.7247280382528
 20
184.26293428340932
 10
261.8230270065212
 20
177.3549096196125
 10
262.0794600492434
 20
175.45793795200598
 10
263.5158032289362
 20
173.4233521799497
 10
265.253124782427
 20
170.4121749414444
 10
265.6748791472089
 20
168.10509471063096
 10
266.92514608700344
 20
163.35954488551988
 10
267.65681685431855
 20
158.8476575049267
 10
268.6101590102228
 20
156.32273176440412
 10
267.2819538293943
 20
149.57919062973542
 10
268.59722105210517
 20
147.09562266214652
 10
270.47274407046643
 20
144.40437990655346
 10
272.77962266081886
 20
143.38973447063972
 10
272.88612653217297
 20
140.33259135338994
 10
275.12500792391415
 20
137.2555092558341
 10
277.4491875542551
 20
133.97622601224612
 10
278.79722342698824
 20
132.8863105412911
 10
279.9566684880924
 20
131.08843257913304
 10
282.123899668263
 20
128.02950053154564
 10
284.41948814231023
 20
124.53396581934066
 10
285.7477861943887
 20
123.60237939872604
 10
286.8614555816341
 20
121.83128921880052
 10
289.3323851739674
 20
119.09576180759268
 10
291.39612173751766
 20
116.35409661086805
 10
292.7646014280026
 20
114.38893368133404
 10
294.21834515162277
 20
112.56369302125631
 10
295.69517784449954
 20
108.97784286880642
 10
296.30666308182504
 20
103.27747817284171
 10
296.8073543227272
 20
101.19249789077048
 10
298.2488966892997
 20
94.01221555011989
 10
298.2520439206128
 20
93.83298076285018
 10
298.14956061816224
 20
84.73423691910011
 10
298.0405373925562
 20
84.27786408155953
 10
296.474267812079
 20
75.46776896858455
 10
295.61044656826357
 20
71.79422547902232
 10
295.7811651317304
 20
66.20244789313574
 10
291.39894579471706
 20
58.957382170402525
 10
290.0760443038157
 20
56.91438980200883
 10
284.4193722869427
 20
51.23386260475809
 10
281.24897776196235
 20
47.652672019321926
 10
277.45352651202506
 20
42.95600664251151
 10
274.13957741884064
 20
38.39514515601877
 10
270.4812748412462
 20
33.79928186793222
 10
266.54208207367606
 20
29.129619269128852
 10
263.49367862922713
 20
25.98096680689332
 10
260.3369044734493
 20
24.931580749138902
 10
256.5177826488814
 20
22.811959329170804
 10
250.9950574367772
 20
19.85377058600534
 10
249.53864900289773
 20
19.019835092389712
 10
248.78226457332994
 20
18.849881315171388
 10
242.5644926902005
 20
16.4228397279403
 10
239.2759663803629
 20
15.480735445927166
 10
235.58721608483506
 20
14.187460122790071
 10
230.85935208412957
 20
13.57051205937887
 10
228.5982258282827
 20
13.077820128523399
 10
224.2686051767705
 20
14.122185734148843
 10
221.59929012555995
 20
15.040347766556351
 10
218.9565420479007
 20
16.36181633218939
 10
214.7964832726309
 20
19.86102920060648
 10
214.68026352622724
 20
19.951160538248132
 10
214.61269755806256
 20
20.00365058555326
 10
210.16514414083645
 20
23.220659775309286
 10
207.63593354400905
 20
25.87337502494529
 10
206.11781734174315
 20
27.114270649449736
 10
204.5440501739838
 20
29.131483546209893
 10
202.40935868388647
 20
31.45849499226233
 10
200.65667878909562
 20
33.83850934446946
 10
198.89878077368166
 20
36.062482231836384
 10
197.34267037589507
 20
38.39468123383813
 10
195.36827510173907
 20
40.62485591162749
 10
193.6910051934376
 20
42.767137408167855
 10
191.46184941555657
 20
44.70040116137079
 10
189.97069848758292
 20
47.667444981789686
 10
188.66501592715827
 20
50.268389024284716
 10
186.70945370044797
 20
54.31301609707134
 10
185.79363689882484
 20
55.7182701418983
 10
185.4446137027296
 20
56.934753885516784
 10
183.2012002384388
 20
61.53216048120885
 10
181.0137457279875
 20
66.19532265422868
 10
180.64349510399234
 20
67.41180220763636
 10
179.73292920216954
 20
70.6338497606539
 10
178.51463566316306
 20
73.83722930632985
 10
177.9376873291144
 20
75.44865055051696
 10
175.48418952352927
 20
79.05602099256839
 10
173.06852941073794
 20
84.71133107499054
 10
172.94706804848897
 20
84.9436135276178
 10
172.77193858526903
 20
85.22439625644711
 10
169.42609671531386
 20
89.52213087883001
 10
167.23122204177957
 20
93.96737612080688
 10
166.57505666223233
 20
95.00588414107096
 10
165.79469953049852
 20
97.02590093982963
 10
163.81613864124574
 20
100.60538770548646
 10
162.85010132630964
 20
103.24643248577695
 10
162.2226604163609
 20
107.77312553412412
 10
161.05669710905363
 20
112.49686383221479
 10
160.09550691876757
 20
114.1478960186646
 10
158.85542214185875
 20
115.04078021615896
 10
155.03053136977678
 20
116.61630965656923
 10
151.91050238139292
 20
117.43899008612425
 10
148.78160046788867
 20
117.54014224971525
 10
144.95672518454853
 20
117.45848618785612
 10
141.3868743462058
 20
116.95963694707689
 10
137.9935192033979
 20
116.20063834847542
 10
133.35037429048816
 20
115.5389790235904
 10
131.03093674368802
 20
114.75857653670755
 10
124.47660260459634
 20
113.01809391291499
 10
124.04632043831225
 20
113.00656556394233
 10
120.96673150472247
 20
112.45176926666227
 10
117.08018722577344
 20
111.57548046880811
 10
116.31996588062998
 20
111.49461421587148
 10
115.48701982613488
 20
112.472979011181
 10
112.26334405646776
 20
115.39484336752776
 10
110.06342781158696
 20
116.39147297886575
 10
107.24285357609529
 20
117.96510675635318
 10
103.09176071998877
 20
119.33713892783953
 10
101.93422516606029
 20
120.18536315027814
 10
98.25569116446422
 20
121.71726196014833
 10
96.68771351248711
 20
122.45448873697842
 10
96.1323147957653
 20
122.58794143966361
 10
91.34207290319114
 20
124.61373399008517
 10
89.16058114627117
 20
125.23889944839175
 10
85.85701359039422
 20
126.58578612926203
 10
82.18522742817481
 20
127.58204380183952
 10
80.40018367722905
 20
128.62359508832787
 10
76.6222096961526
 20
130.99456720536864
 10
76.05450815130416
 20
132.19983777149082
 10
75.1692762789387
 20
139.93737546640386
 10
75.13214091500936
 20
140.23678551628245
 10
75.1019663448701
 20
140.31020483119846
 10
75.17441917115411
 20
140.4539351901035
 10
78.27689355081111
 20
149.58837651802787
 10
79.70913775224244
 20
155.60866719827254
 10
79.75147425791874
 20
158.8186247103181
 10
78.5329372266749
 20
163.27200441152672
 10
76.9866095972427
 20
168.07020274528622
 10
76.62425150327863
 20
169.97826763955527
 10
75.19102378665116
 20
171.41344949602353
 10
72.63242400032323
 20
173.91002897285307
 10
70.437151155626
 20
177.3099090949181
 10
69.44820420898827
 20
178.98485550173382
 10
68.84432609683859
 20
186.61686623120386
 10
69.1980322288523
 20
187.95076221285944
 10
70.03217494945852
 20
195.88727715395316
 10
71.67126539087894
 20
200.5036324982243
 10
73.1978634276395
 20
205.1607099701996
 10
75.17742260868454
 20
208.86639361510106
 10
78.07585841911123
 20
214.42346903119778
 10
81.63581827894518
 20
223.00409201131652
 10
81.90205364786311
 20
223.68165958353075
 10
82.14458663059736
 20
224.21162800101956
 10
85.06116576718364
 20
232.92292029364307
 10
84.8424459466546
 20
236.49752508807705
 10
84.27258530976724
 20
242.17069396794432
 10
84.34710313561368
 20
245.1029698287589
 10
83.5845396164641
 20
251.4256128031925
 10
83.4060346634401
 20
253.10833068003922
 10
82.61436802125377
 20
260.68963892563124
 10
82.59585592555118
 20
261.29747099888573
 10
82.13960937078241
 20
268.6744812625111
 10
82.05827992605464
 20
269.84980731743735
 10
82.07221222766566
 20
269.9652410625258
 10
82.14013488194837
 20
270.4283917847424
 10
83.25118543648932
 20
279.2192465125818
 10
83.20109646336368
 20
280.61865952210565
 10
82.14044242334626
 20
287.2207741258899
 10
81.97146039407266
 20
288.2327870018089
 10
81.90175187018986
 20
288.44722026328236
 10
79.13879594912396
 20
293.72092651393723
 10
78.36081162238042
 20
297.7243920398728
 10
77.84056295006144
 20
301.2796885327016
 10
77.66552978667823
 20
307.00008439805924
 10
78.03458354456143
 20
310.80882223867366
 10
78.0911964997972
 20
316.25626068927204
 10
77.87195457008556
 20
319.83936873311086
 10
76.7757859637843
 20
325.51265529444345
 10
76.83849245670899
 20
327.7381002986317
 10
76.83849849077592
 20
334.7692843055638
 10
76.39707215520457
 20
336.3849651703672
 10
75.17350184133716
 20
340.00670920696575
 10
74.10027973320393
 20
342.59561152498327
 10
73.84162114661035
 20
344.01684525122164
 10
71.67554686585913
 20
348.6228828338403
 10
69.93670410097047
 20
353.2678567433668
 10
69.17833597973322
 20
354.5351316264987
 10
68.2197744689247
 20
355.468852175105
 10
65.25673290734653
 20
358.5651493779169
 10
61.25915175555019
 20
361.68341160519594
 10
60.83402463518337
 20
361.95198533044004
 10
60.41377762947627
 20
362.51844958866104
 10
57.580589721811066
 20
366.91571676400827
 10
54.27010367099297
 20
371.2363634255944
 10
54.08016822191894
 20
371.535828710666
 10
53.93940178269622
 20
371.7982739471231
 10
52.93718482385816
 20
379.30856175702274
 10
52.27638155003547
 20
381.0643151424706
 10
51.587571114193
 20
386.7805013232287
 10
50.579454124589574
 20
390.3272213066798
 10
50.05345383309509
 20
394.00305922663165
 10
48.62567306850519
 20
399.57898236505207
 10
48.13557766319332
 20
400.70030101359407
 10
47.289327035621
 20
403.51096125918957
 10
46.09527107024769
 20
407.2502168900537
 10
45.43055956312742
 20
408.8349291788031
 10
43.58839199862882
 20
413.1798564652713
 10
41.98461279991125
 20
418.0925717474556
 10
41.230483659009906
 20
419.29347604747863
  0
LWPOLYLINE
  5
8F
330
17
100
AcDbEntity
  8
CORTE
100
AcDbPolyline
 90
468
 70
1
 10
61.77889267831233
 20
401.99824116483205
 10
63.0275801008263
 20
393.9765042964159
 10
63.47662699833654
 20
391.51121444050295
 10
64.25694977792841
 20
386.64032972311406
 10
65.23056373074655
 20
382.75995341970156
 10
66.17523091403496
 20
378.9584854166228
 10
65.90637021101406
 20
373.96901955269414
 10
66.68512577351794
 20
372.76034706635755
 10
69.18905509405158
 20
370.3534476587365
 10
71.17429989854782
 20
367.31213478871723
 10
72.08990361556721
 20
366.5979297788567
 10
73.19217069825345
 20
365.4460908950796
 10
76.908986080246
 20
361.8255961658315
 10
80.20540693961084
 20
356.3170954228299
 10
80.75987665158482
 20
354.8359394507397
 10
81.60011058391524
 20
353.0492283001122
 10
83.06913074802537
 20
349.3574695338075
 10
84.53301419495392
 20
347.0383415189458
 10
86.0950111336274
 20
342.41486133663875
 10
87.92733055346457
 20
335.7083212272705
 10
87.92732829058127
 20
333.07150046623974
 10
87.7304660383138
 20
326.08488559771877
 10
87.96297670257604
 20
324.8815126682766
 10
88.4798678782472
 20
316.4338725121693
 10
88.46492538758434
 20
314.99606913578145
 10
87.66771504183703
 20
306.7686357445268
 10
87.6999565690005
 20
305.71492514984175
 10
88.60448262988803
 20
299.5335382418989
 10
91.04733529621308
 20
294.3722734944663
 10
92.54898359135382
 20
290.2179603636555
 10
93.31299735608923
 20
285.4623037184688
 10
93.54775475850988
 20
278.9035235613119
 10
93.05207437380182
 20
274.9816009848805
 10
93.46569011722613
 20
270.4864162767576
 10
93.67808809013286
 20
267.05217220471013
 10
93.85752972548562
 20
261.16032813710854
 10
94.1035526202129
 20
258.80431703216937
 10
94.8026666310268
 20
252.2139584789852
 10
95.03162791520822
 20
250.31557176300248
 10
94.8312986463859
 20
242.43261661087172
 10
94.95290489747072
 20
241.22198237050816
 10
95.51768931566016
 20
231.99153821507525
 10
94.73111605617419
 20
229.6421867138638
 10
93.3728929126928
 20
221.6169655343083
 10
89.28351239546964
 20
212.55580737116043
 10
88.97299227301505
 20
211.85756189581616
 10
88.68015214170055
 20
211.00280407908576
 10
84.88051713573532
 20
202.16915249160866
 10
81.61184065187808
 20
195.84654202581805
 10
81.07290007584493
 20
194.32866287434263
 10
80.94512537644414
 20
193.11294068935285
 10
79.0531051376222
 20
185.9777570853621
 10
79.13674968575424
 20
184.92062970160487
 10
80.8034148856807
 20
182.09785452901178
 10
81.095231640669
 20
181.79178272360014
 10
81.22468154523949
 20
181.5589522927312
 10
85.79538293992323
 20
176.98201895765442
 10
87.15865444610108
 20
169.80345569212932
 10
87.60745379243303
 20
168.41084766083304
 10
88.64074074306973
 20
164.63450027581302
 10
90.2877095438223
 20
161.90171185055124
 10
89.99049692829772
 20
157.33477503620634
 10
88.84610109179653
 20
154.33807771384636
 10
87.25461925223226
 20
147.64844805646499
 10
85.82978868379882
 20
143.45339931893795
 10
84.56876366533879
 20
139.592994046061
 10
84.88723960224297
 20
136.80929449383666
 10
85.26725062491937
 20
136.00250419250642
 10
89.35565853155072
 20
134.8932054573247
 10
91.45284163723431
 20
134.0381698194533
 10
95.02439548784378
 20
133.0146444759348
 10
98.3280666320702
 20
131.6175224634976
 10
100.52178865348878
 20
131.09040901529443
 10
105.24162780519305
 20
128.87124995994736
 10
106.73898579562797
 20
128.33271723518283
 10
111.77685595163621
 20
126.66758466180636
 10
113.2184870211056
 20
125.86328058888239
 10
117.95675046584142
 20
123.71670175146846
 10
120.400009183468
 20
121.50218916693984
 10
123.32792333608654
 20
122.02966084113268
 10
125.03806752308651
 20
122.07547993503522
 10
129.01439151765408
 20
123.13138014888546
 10
133.40597603859283
 20
124.608981253612
 10
136.73383462267975
 20
125.08320911110104
 10
141.93887625867683
 20
126.24743128683167
 10
144.39570591448273
 20
126.59074748238754
 10
150.45918574162215
 20
126.72019480999097
 10
152.92884884229898
 20
126.64035473418107
 10
158.66679375490776
 20
125.12738962935646
 10
162.2799507859056
 20
123.63907646843882
 10
166.58545367299484
 20
120.5390339860769
 10
169.72274166928582
 20
115.15012811460065
 10
170.69583089413914
 20
111.20779235661394
 10
171.54761972220354
 20
105.06253388601908
 10
172.15221628792915
 20
103.96873615791719
 10
173.87291428611547
 20
99.51457187777032
 10
175.2115872788088
 20
97.39586418188082
 10
176.51434302101393
 20
94.75741341550065
 10
178.51886310732016
 20
92.18260692104514
 10
180.0316162472509
 20
89.75723002063387
 10
181.1007739356005
 20
87.71257511559679
 10
182.74060096191693
 20
83.87357050304763
 10
185.61145864350874
 20
79.65255709095709
 10
186.16171985727283
 20
78.76624033991811
 10
186.58242265152808
 20
77.68153833167207
 10
188.49990140165755
 20
70.89651848582525
 10
189.16426214657122
 20
68.71372334681018
 10
190.50144074745413
 20
65.86315861944513
 10
192.98863596552223
 20
60.766172316059965
 10
193.22390477444515
 20
60.29184400109261
 10
193.3810312181613
 20
59.96347349673124
 10
195.93582326898127
 20
54.67947846300149
 10
197.87862511352705
 20
50.80938090046402
 10
198.0854766655957
 20
50.39779438175856
 10
198.78686710065267
 20
49.78950458954523
 10
201.5846799779929
 20
46.21601726455174
 10
204.7176845117151
 20
42.677137553905595
 10
205.52852088105647
 20
41.461907725703895
 10
206.2223788131514
 20
40.58408590945919
 10
208.75248911252675
 20
37.14837648923003
 10
211.9547625871744
 20
33.65760179721292
 10
212.1680581874814
 20
33.38420516995075
 10
212.40241332745745
 20
33.192645217331574
 10
215.70280435786822
 20
29.731091787532023
 10
218.81242618550596
 20
27.481836734757962
 10
219.8637894782612
 20
26.665062503107038
 10
221.6144524271781
 20
25.30737933627688
 10
223.7659188377736
 20
23.497684003442828
 10
224.31493606716208
 20
23.2231557512946
 10
227.25718641690582
 20
22.211112395923465
 10
228.67776306716337
 20
21.86844925910418
 10
231.10795548185934
 20
22.397980146666214
 10
233.95888626361693
 20
22.77000358567875
 10
238.927160469088
 20
24.51187980763416
 10
240.32305341284382
 20
24.91177830186598
 10
243.982997482545
 20
26.340398815945264
 10
246.48124174288523
 20
27.384698032527922
 10
247.7805484556293
 20
28.108483611911197
 10
253.16654449100497
 20
30.993434832671937
 10
259.2812691610427
 20
34.38712112579924
 10
265.06654583270165
 20
41.24519883140965
 10
266.17227062203824
 20
42.6343020721215
 10
271.89616543492207
 20
50.51187975082166
 10
273.2400272887453
 20
52.17483601726599
 10
279.3142957691173
 20
59.036162872304885
 10
281.602824149076
 20
61.33434237878191
 10
285.4648987694666
 20
67.29864813389122
 10
285.9228822956384
 20
68.05582628766751
 10
285.8962621857711
 20
68.92775099618893
 10
287.766824573574
 20
76.88262861783733
 10
288.76346581692655
 20
82.48862662539295
 10
289.50617115566297
 20
85.5976021763513
 10
289.5735761428891
 20
91.58199863799291
 10
289.5441873473335
 20
93.25569020864077
 10
288.6147656730966
 20
97.88511365764361
 10
287.60692782053343
 20
102.08195570012231
 10
287.27696017855556
 20
105.15796764992592
 10
285.6610155999542
 20
109.08159091576863
 10
282.70403980083506
 20
113.00992061597844
 10
279.0540702106598
 20
117.05074472322076
 10
278.43386114208465
 20
117.84873673586162
 10
278.2250671536731
 20
118.23632011210293
 10
275.2962405380629
 20
122.69609816755201
 10
272.50070445165693
 20
126.64184931912905
 10
272.296795869285
 20
126.8067137141229
 10
268.58727950236494
 20
132.04062709373238
 10
264.2897386030527
 20
137.94709726833253
 10
264.2803849597258
 20
138.215589164025
 10
261.5860168867623
 20
142.08181660366472
 10
258.1888198315619
 20
148.4966117420181
 10
258.99242787534376
 20
152.576677064465
 10
257.3098616965283
 20
157.03295189581604
 10
257.14911800282835
 20
158.02418658157058
 10
256.7640956516698
 20
159.4855886974301
 10
255.87588441457547
 20
162.7365364762063
 10
254.98451701102817
 20
163.65757352758055
 10
251.83380432661556
 20
168.12057045629126
 10
250.8725560980472
 20
175.23143509281863
 10
248.66588311602072
 20
178.0886421350333
 10
245.85075273677217
 20
180.46145178407914
 10
243.94596832821685
 20
181.4220503151946
 10
238.82704169561316
 20
191.1166518553532
 10
240.76129915156503
 20
196.66031985077507
 10
240.23903451956812
 20
201.26762552213495
 10
239.9640741262474
 20
204.33747178585827
 10
239.22689007999224
 20
209.5566365666682
 10
239.37991357993883
 20
215.0354587766633
 10
240.3815899129945
 20
221.32734619479606
 10
240.44007872940915
 20
224.15723095291423
 10
241.5009837708228
 20
232.59421723329024
 10
241.96216040034642
 20
234.47397424295877
 10
242.7726184711903
 20
238.20099733908592
 10
244.2564828672439
 20
243.9506261679012
 10
245.08943042719648
 20
247.00208771690131
 10
246.97685009160477
 20
253.8637754827737
 10
250.2473826498965
 20
260.71077313447813
 10
251.71073523760128
 20
263.70063244286166
 10
254.19025235502613
 20
268.92893684997443
 10
256.2188064506738
 20
273.2176877502393
 10
257.6230117918219
 20
275.57073696325006
 10
262.3867153625515
 20
282.4746061236042
 10
263.97553725167177
 20
286.588935649233
 10
266.0311528640357
 20
291.75958044823255
 10
271.8008968202305
 20
300.1439847477245
 10
273.3758733874813
 20
302.17497825114833
 10
279.20018283722425
 20
308.6753903659237
 10
281.65096751436204
 20
311.4271861398115
 10
285.8972750566338
 20
316.9039288178019
 10
289.03645321655586
 20
320.81900196160495
 10
293.2454443010947
 20
325.24289453701795
 10
297.93017591131115
 20
330.35030504283714
 10
300.49596013650535
 20
332.83607828634786
 10
306.4988659349103
 20
338.47763411322103
 10
307.701213737055
 20
339.58176385085653
 10
308.42858385599993
 20
340.1807005351352
 10
315.0535211408617
 20
345.3613315210491
 10
320.8442093271094
 20
349.55291691271805
 10
321.714340946304
 20
350.24818461263567
 10
323.7237306934169
 20
352.04719003437685
 10
328.40456241253673
 20
356.1349982620168
 10
330.54161727454016
 20
358.3111421167796
 10
335.85600527988504
 20
363.0704423574239
 10
343.04942340155003
 20
367.955327291756
 10
343.147901731872
 20
368.01325154052574
 10
343.2365703064256
 20
368.0848892725935
 10
349.69956642966395
 20
372.66544091195874
 10
354.2117744849245
 20
376.84017684458786
 10
356.29177354387184
 20
378.8735250251543
 10
361.1892120527705
 20
383.3235268499716
 10
363.59164729362533
 20
385.48458462563894
 10
365.10847999022303
 20
386.6402501227203
 10
370.7989406486388
 20
390.7669733272237
 10
376.9060680362088
 20
395.60521531854556
 10
377.41428751038825
 20
396.0758451633669
 10
378.49233098902664
 20
396.9512798702135
 10
384.4299652324703
 20
402.00829587184535
 10
387.6371397402504
 20
404.7503587393767
 10
390.9494464965733
 20
407.89350866458653
 10
396.0621665321246
 20
413.49153211911334
 10
397.7964800521122
 20
415.4551849021791
 10
403.96792146348116
 20
421.74399208210843
 10
404.85047685081645
 20
422.64333282329926
 10
404.8941022014428
 20
422.68943401082606
 10
411.24710026082084
 20
430.5404708580859
 10
411.5545521576487
 20
430.99098154563717
 10
413.04039726916426
 20
433.74459954478516
 10
415.9115092269217
 20
439.37897148368756
 10
417.1643133975199
 20
442.94023823778343
 10
418.7181338806263
 20
448.6169054378047
 10
423.8363159359569
 20
457.35589644893616
 10
423.90127321495083
 20
457.861804849721
 10
425.29101596884857
 20
465.75346871570264
 10
425.6057578668165
 20
467.22367420372075
 10
424.5312668524457
 20
475.91849390069046
 10
430.54463895773097
 20
482.78069333037547
 10
427.42703313218453
 20
485.34605289003366
 10
428.0577859829441
 20
490.5132518899095
 10
426.8959975166158
 20
492.26655725678665
 10
425.2812900613362
 20
496.8181275155539
 10
421.2483164642995
 20
498.9730142970484
 10
418.84924983517567
 20
502.3009635766425
 10
415.2141072705281
 20
502.96127420762923
 10
413.4802642720779
 20
503.4676399316236
 10
411.6887129833717
 20
504.4717225191853
 10
408.26100673678
 20
505.85009805052823
 10
407.28415435566285
 20
506.28565687193077
 10
403.24046957454993
 20
507.6935104794393
 10
400.896198746173
 20
508.50069248813725
 10
397.3225610580216
 20
509.3935961099428
 10
393.1763639845399
 20
511.5554455300353
 10
390.81727107065035
 20
512.3473787568023
 10
388.64127831176893
 20
514.6578396525706
 10
385.89701655954696
 20
516.4719571864102
 10
384.3093731805384
 20
518.0852172980212
 10
381.8198357126139
 20
520.0246736177055
 10
377.6783488160263
 20
523.2757874387166
 10
376.9088260979752
 20
523.8798693133108
 10
376.65969223384104
 20
524.1667102582096
 10
372.7468862202411
 20
527.1306123030695
 10
369.77563829769383
 20
530.1275043583287
 10
367.8897305955072
 20
532.5468064122065
 10
366.7291608176188
 20
534.3207720164341
 10
364.8318904600344
 20
536.4957516831187
 10
363.0930970097786
 20
538.3709177787705
 10
361.25894548734254
 20
540.100472748144
 10
358.65628289529013
 20
542.5779730784866
 10
357.32142082936684
 20
543.6701885237162
 10
356.38375068312166
 20
544.5450653888952
 10
353.0679370070004
 20
547.4817780773751
 10
349.6380684068663
 20
550.6572916991386
 10
349.2028165213162
 20
550.9815622359861
 10
348.65057638851044
 20
551.4683008861807
 10
344.843731303509
 20
553.8609821933487
 10
342.9246602539506
 20
555.4749131612739
 10
340.0289524219156
 20
557.4277992832745
 10
336.21429206128846
 20
561.2669628946428
 10
335.70330571129966
 20
561.7234541853218
 10
335.6680289784126
 20
561.7590127578269
 10
332.53587287851883
 20
563.919172729587
 10
330.3504187757392
 20
564.8911919466032
 10
328.11790036798425
 20
565.8798332002989
 10
323.9163321468184
 20
567.4177605777236
 10
323.4146852930114
 20
567.5827384747577
 10
317.860479987949
 20
568.772617095965
 10
311.4148661284728
 20
569.9629868910429
 10
310.7197987991285
 20
570.1850963696611
 10
305.70250894078504
 20
570.8605968993684
 10
303.95371512384713
 20
571.230887556354
 10
299.93367429925684
 20
571.9448005796335
 10
298.02164639358125
 20
572.0718029073641
 10
293.68765144421354
 20
572.1403383013921
 10
290.92669569936015
 20
572.3262372355484
 10
287.4327248218524
 20
572.504102701876
 10
283.740124393295
 20
572.1669110050789
 10
279.69299818722266
 20
573.2815892333847
 10
277.49116599883564
 20
573.4253064882946
 10
271.5477903338949
 20
572.8700178825434
 10
265.88752032010166
 20
577.6494311846363
 10
265.80218012239243
 20
577.7253358961634
 10
263.782322805833
 20
578.5803139934951
 10
262.4986762524393
 20
579.2911454955301
 10
256.70374517764367
 20
580.5139254704231
 10
254.57686343402884
 20
581.0835137050726
 10
250.42013633624765
 20
582.349437954605
 10
247.5608276317423
 20
583.3792516196886
 10
245.79307185772723
 20
583.782394998836
 10
241.60548172195308
 20
584.2071329948972
 10
238.73307690014485
 20
584.6990679284777
 10
233.47504496754527
 20
586.650997035963
 10
230.22828964052565
 20
587.2515291510954
 10
227.9280682300439
 20
587.6210777833503
 10
227.47803557269367
 20
587.6766619364689
 10
221.02013091089975
 20
588.9995449078074
 10
219.97366453289283
 20
589.358707977337
 10
215.3021460175628
 20
590.0644640755263
 10
213.27743284697817
 20
590.6233388767319
 10
209.57067441725462
 20
591.1118221946044
 10
206.27367410297074
 20
591.6789458317958
 10
202.72907533677153
 20
592.5481194674626
 10
198.13180649854166
 20
593.9872220724933
 10
196.24890270779701
 20
594.9180652125497
 10
191.35429451179698
 20
596.969125252891
 10
186.25901146272463
 20
598.8160211168552
 10
185.40306571832616
 20
599.0476529832617
 10
179.98467928191008
 20
599.7763739062698
 10
176.82829168968897
 20
601.4827916259305
 10
173.37618956774486
 20
602.9078214734673
 10
168.6504454506412
 20
606.8996031744377
 10
168.55773688922977
 20
606.9621543855342
 10
168.01109165861476
 20
607.427123354912
 10
164.1572096758107
 20
611.0291989072093
 10
161.5438662325637
 20
613.0575997223891
 10
159.50920924968113
 20
614.7255713472191
 10
157.56717066292822
 20
616.8533237423198
 10
155.86620757051264
 20
618.2855007395883
 10
154.06708359440177
 20
619.7063179401985
 10
150.62953057698178
 20
623.7318601144161
 10
148.255899220301
 20
627.9435731493622
 10
147.45005403113555
 20
629.6617752964371
 10
146.37541597374297
 20
631.1800225380184
 10
144.2591094821164
 20
633.8561890102042
 10
142.37633918293955
 20
637.017640576219
 10
140.9348886798159
 20
639.814247702026
 10
138.9417357136092
 20
643.2864623427499
 10
137.9207242839591
 20
645.0688715975734
 10
137.20193425246043
 20
646.4593421253203
 10
134.74315245368712
 20
651.2157803783093
 10
133.1789331171094
 20
656.1480948370427
 10
132.89673461613438
 20
656.657446890104
 10
132.37729800559418
 20
657.5234413719368
 10
129.7774096947801
 20
660.4384265338094
 10
127.25248302271666
 20
664.4129931351599
 10
126.72174084828043
 20
665.2272527512205
 10
126.24988356177892
 20
665.6932129142733
 10
123.42870646215624
 20
668.2482640898338
 10
119.94556268278575
 20
671.2462538390628
 10
119.36469456237273
 20
671.6018182685093
 10
118.61849707249462
 20
672.3831581505974
 10
115.38392168147425
 20
675.1443790905473
 10
113.66273717619742
 20
676.2647699572531
 10
112.24546525543747
 20
676.9472612696954
 10
108.40335056733124
 20
677.9615532294929
 10
107.34868440482933
 20
678.2152776209282
 10
102.57437498306285
 20
679.142521906921
 10
96.22945656709294
 20
679.4365542840351
 10
89.65854816033038
 20
679.0008149064461
 10
88.04886366443839
 20
678.8869593639806
 10
83.31213848314155
 20
679.9465175953164
 10
80.68316327547245
 20
680.61881175603
 10
79.25065520869657
 20
681.102830791272
 10
76.81931010118547
 20
682.6022307532003
 10
71.458266073922
 20
680.6122112874682
 10
65.60847552940277
 20
676.5475018110046
 10
60.88166475548883
 20
672.3020345002042
 10
59.0704566578172
 20
670.6280000714573
 10
54.394121855501226
 20
666.172847318106
 10
51.977056510054354
 20
664.0057993607552
 10
51.25043223697162
 20
663.3577283257391
 10
45.841690532037546
 20
656.7276268719543
 10
44.421516388615146
 20
654.8409265036171
 10
39.19314080910726
 20
647.3131980194421
 10
38.15085955850054
 20
645.6639207522617
 10
32.09991112931675
 20
637.8317866137127
 10
31.965901302479097
 20
637.625926075958
 10
31.757097456367774
 20
636.7235635822485
 10
29.499346757380863
 20
629.5694416810024
 10
28.692686025820876
 20
624.0036851781629
 10
28.251788884830376
 20
620.9416983484434
 10
27.277668063728015
 20
613.0166486952771
 10
27.141907690910102
 20
611.792924628588
 10
26.339149527621885
 20
605.2596084378488
 10
25.90136579691989
 20
602.3911968449083
 10
25.8395162784077
 20
601.8882883329325
 10
25.064255367051146
 20
593.7982562254474
 10
25.089993837448674
 20
592.1331671425314
 10
24.536503938709757
 20
584.3698759212725
 10
24.388313533326027
 20
581.7966113291473
 10
24.116049577554577
 20
575.7041850624719
 10
24.343231109443195
 20
573.1220634203491
 10
24.343225557315918
 20
566.6524584018739
 10
24.55532228901734
 20
564.6087439568082
 10
25.29953504330365
 20
557.535006356432
 10
25.34897823548158
 20
556.3014473998905
 10
26.331445179608863
 20
549.5854729650655
 10
26.469924670516093
 20
548.6227760923325
 10
26.498817039130017
 20
548.1779740262541
 10
26.94073946597041
 20
539.7147564057746
 10
27.0283737961895
 20
538.6632445213008
 10
26.669218357796353
 20
529.6132612934944
 10
26.673680984871453
 20
529.512669552425
 10
26.934951836766913
 20
521.0996165085144
 10
26.96099299284515
 20
520.781610566135
 10
28.018494757624694
 20
513.6375390889561
 10
28.155571896922083
 20
511.3969769588907
 10
28.867627224037733
 20
506.01608161297645
 10
29.566029427199965
 20
502.60480899249296
 10
30.146199008247777
 20
498.0638775736429
 10
30.684994667513138
 20
493.1710110125382
 10
31.07194888636559
 20
490.9009176023983
 10
32.829601623257304
 20
484.72971132687144
 10
33.02434022948228
 20
483.94293874697996
 10
33.313355072724335
 20
481.8375697975198
 10
34.031744167853276
 20
476.2687607979783
 10
34.12433094581229
 20
475.98263493150307
 10
36.17710646349906
 20
470.5657786298634
 10
37.18180117013094
 20
466.304849048669
 10
38.07338699156185
 20
463.5865326829521
 10
39.60910238796578
 20
456.8390793033268
 10
39.62416945158361
 20
456.7832966492051
 10
39.81781645687374
 20
456.27288625813253
 10
42.01234619852039
 20
451.4215649287662
 10
43.2561682791013
 20
448.02578325546074
 10
44.17055088506686
 20
444.7274822134509
 10
46.69193046181408
 20
439.48572687565274
 10
46.93802145261225
 20
438.8978879275196
 10
47.06573055396689
 20
438.4345797501087
 10
48.90705337781833
 20
431.77020164355554
 10
49.49413930811306
 20
429.80380265961685
 10
50.742790934078585
 20
427.0212583257835
 10
53.12335735849456
 20
423.2303526300352
 10
54.08052085600252
 20
421.8787671144969
 10
54.606548440085135
 20
420.26176510956293
 10
56.37678466236616
 20
414.79108807020793
 10
57.98039368275363
 20
411.3303847383909
 10
58.81396206750992
 20
408.56184614629274
 10
60.790772965289534
 20
404.0389820257651
 10
61.100933590632394
 20
403.13371898014566
 10
61.77889267831233
 20
401.99824116483205
  0
LWPOLYLINE
  5
90
330
17
100
AcDbEntity
  8
GRABADO
100
AcDbPolyline
 90
503
 70
1
 10
249.53228972725287
 20
590.1093749211877
 10
252.6271892693676
 20
588.9947104445928
 10
256.50250843650747
 20
587.8144885072475
 10
258.3329474948939
 20
587.3242889204439
 10
263.461769863741
 20
586.2420635744538
 10
264.46325964618495
 20
586.2048529969793
 10
266.8506805624429
 20
584.8827959311875
 10
269.59271023893325
 20
583.7221321078505
 10
270.4723834207973
 20
582.9397184165318
 10
273.8202831453377
 20
580.112822095588
 10
277.3929308380516
 20
580.4466139788487
 10
280.86241866295813
 20
580.2201547287896
 10
284.3714391249491
 20
579.2536840746766
 10
287.2916776601944
 20
579.5203471501441
 10
291.3397927593719
 20
579.3142721984327
 10
293.97831107641855
 20
579.1366171440895
 10
298.30913867480376
 20
579.0681318367947
 10
300.78015912191404
 20
578.903999635731
 10
305.29107897971016
 20
578.1029121408601
 10
306.8962040183435
 20
577.7630419975972
 10
312.26401876523823
 20
577.0403487095332
 10
313.1226932795996
 20
576.7659583869904
 10
319.22955467401334
 20
575.6381490727617
 10
319.23631055082706
 20
575.6373139014354
 10
319.28373076736875
 20
575.6281344490917
 10
325.2465035761529
 20
574.3491367892175
 10
326.21346909471595
 20
574.0311283405522
 10
330.7410076397664
 20
572.373883922694
 10
333.189955287213
 20
571.2893998422956
 10
335.97474279328753
 20
570.0508165347037
 10
340.1785674731059
 20
567.1515568835171
 10
340.5241554882193
 20
566.8032078305655
 10
341.0331110222435
 20
566.3485307758265
 10
344.5112968684464
 20
562.848003003513
 10
347.1461944687296
 20
561.0710091716214
 10
348.97864843952675
 20
559.5299228155704
 10
352.85461134095954
 20
557.0937995233267
 10
353.6155475112637
 20
556.4231183786292
 10
354.1196404804075
 20
556.04755998784
 10
357.76687663742314
 20
552.6707985288326
 10
361.09280121971256
 20
549.7251309263147
 10
361.93039185151497
 20
548.9436315161129
 10
363.29236797114936
 20
547.8292307163047
 10
366.07333997519845
 20
545.1819958884998
 10
368.0663233557166
 20
543.3026667995514
 10
370.0370504259481
 20
541.1773766534802
 10
372.32214570106703
 20
538.5578049409128
 10
373.5887718365532
 20
536.621729023223
 10
375.04012260601485
 20
534.7598903481999
 10
377.36878702813465
 20
532.4111277784195
 10
381.46698417383186
 20
529.3067942494504
 10
381.75611762996095
 20
528.9738996666679
 10
382.00070122824536
 20
528.7818994630602
 10
386.13199682637924
 20
525.5387859260254
 10
388.9751038013883
 20
523.3238838161901
 10
390.3705261208361
 20
521.905946263852
 10
393.1796902510978
 20
520.0489244618998
 10
394.70937224475347
 20
518.4247138964565
 10
395.9252258132369
 20
518.0165592052631
 10
399.823750953884
 20
515.9838472610027
 10
402.8878361646066
 20
515.2182596382713
 10
405.53075557824604
 20
514.3082466076503
 10
409.8648711999367
 20
512.7992762888316
 10
410.9930825277652
 20
512.296229558598
 10
414.71818956316883
 20
510.798260940564
 10
416.20749985756083
 20
509.96357061185154
 10
416.8252059034344
 20
509.7831706740176
 10
422.29953741494546
 20
508.788777956177
 10
423.8351523818369
 20
507.3549673310754
 10
425.97800166994375
 20
504.3824389077031
 10
430.8005985527325
 20
501.8056428972277
 10
430.9079644449448
 20
501.6512188601796
 10
431.0441275541111
 20
501.51033445097255
 10
433.20585655292007
 20
495.41680872510597
 10
435.3190294675087
 20
492.2277278212505
 10
434.8408816117094
 20
488.31068627430705
 10
437.7867945037842
 20
485.88660631600123
 10
438.32885512314397
 20
483.7047612068018
 10
439.03766362630586
 20
482.9626633362136
 10
437.7828872282239
 20
480.41947798748333
 10
431.86311081387066
 20
473.6640859007821
 10
432.6975666518674
 20
466.91163943131323
 10
432.16272643720004
 20
464.41332248052277
 10
430.8234941470291
 20
456.80848263310963
 10
430.6097323145841
 20
455.1436360065827
 10
430.0502324769204
 20
454.11471343369067
 10
425.22568185358296
 20
445.87708060345904
 10
423.850238940669
 20
440.85209106693856
 10
422.36011560656243
 20
436.6162122170772
 10
419.2399092508108
 20
430.4930085966357
 10
417.5418664169433
 20
427.346138660851
 10
416.86816306729406
 20
426.358958024181
 10
410.1650048662809
 20
418.0751931721702
 10
409.8911644511836
 20
417.7858116967773
 10
408.9640715585515
 20
416.8410863898134
 10
402.92140712519085
 20
410.68350521203274
 10
401.27020616799473
 20
408.81395549242825
 10
395.9493844669346
 20
402.9880771981407
 10
392.32392950624353
 20
399.5477712944694
 10
388.9737977503646
 20
396.68348315958656
 10
382.96867766183505
 20
391.5689902261511
 10
382.0035611493845
 20
390.78525885734143
 10
381.46431584384436
 20
390.28589795646894
 10
375.0290209686318
 20
385.1876722415177
 10
369.28495330996816
 20
381.0220732297421
 10
368.0608917607299
 20
380.089468268146
 10
365.8836527241135
 20
378.1309807844659
 10
361.0937330951492
 20
373.77867476757774
 10
359.036270158236
 20
371.767357261755
 10
354.11897443684074
 20
367.2178305360226
 10
347.46415348609025
 20
362.5013259250982
 10
347.14374455755933
 20
362.24245891285864
 10
346.7940919360208
 20
362.0367957444564
 10
340.1765316286851
 20
357.54296261803484
 10
335.3787451206763
 20
353.2463048544014
 10
333.2110466393269
 20
351.0389568760975
 10
328.3607427539573
 20
346.8031472339394
 10
326.2373173748697
 20
344.9020457800625
 10
325.0836850814187
 20
343.98025044068527
 10
319.26323754743566
 20
339.7671237670097
 10
312.81011102736034
 20
334.72084698453864
 10
312.29671102222574
 20
334.29809921311517
 10
311.26328359255604
 20
333.34909098541993
 10
305.32852758968306
 20
327.77158261972545
 10
302.9492080886996
 20
325.4664594159767
 10
298.3608664952985
 20
320.46413569537845
 10
294.3122140765572
 20
316.2087683125651
 10
291.39426301903995
 20
312.5696018689182
 10
287.0369055513345
 20
306.9496307836689
 10
284.42060816707703
 20
304.011993645493
 10
278.7551896561099
 20
297.688916988639
 10
277.45455830207834
 20
296.01170230156686
 10
272.24467216881
 20
288.4408651851745
 10
270.49310763570975
 20
284.03502296996976
 10
268.6184740529575
 20
279.18057052815266
 10
263.5157041967234
 20
271.7853044458334
 10
262.40254865946713
 20
269.91997201606364
 10
260.51657195929124
 20
265.9326569683103
 10
258.017029232431
 20
260.66212660464726
 10
256.5493981200889
 20
257.66352559804227
 10
253.56126580500995
 20
251.40774474900127
 10
251.84056648375372
 20
245.15216645655482
 10
251.02223589059076
 20
242.15425343121387
 10
249.58416570810596
 20
236.5820665109918
 10
248.7826213791352
 20
232.89603470488828
 10
248.39580004800564
 20
231.319350063623
 10
247.4310250036351
 20
223.64685017413603
 10
247.37015609223613
 20
220.70180845213827
 10
246.36446831500484
 20
214.38472371796297
 10
246.24064016861007
 20
209.95120599730308
 10
246.92023962351573
 20
205.13973244721774
 10
247.20377202549344
 20
201.97418240437946
 10
247.89662031894977
 20
195.86202455132116
 10
246.44064832475442
 20
191.6891439859055
 10
249.09285128977558
 20
186.66620601571822
 10
249.39982886334155
 20
186.5113946864526
 10
249.5395687454038
 20
186.5071036598324
 10
253.748951446624
 20
182.95911030094294
 10
256.5305389672874
 20
179.3575021255092
 10
257.628313911463
 20
178.82077622103225
 10
257.64917272155026
 20
177.3549096196125
 10
258.5410564368108
 20
170.75717119757428
 10
260.39096767185947
 20
168.1367646459853
 10
262.15503125981263
 20
166.31398324404108
 10
263.5249980289593
 20
161.2997588803364
 10
264.00455436524726
 20
159.4795408010059
 10
264.1070237970164
 20
158.8476575049267
 10
266.2461645946569
 20
153.18214525508893
 10
265.5365280840879
 20
149.57919062973542
 10
267.57264379494586
 20
145.7344724838913
 10
270.47274407046643
 20
141.57303389818526
 10
271.1784796826746
 20
141.2626268308677
 10
271.21087999075576
 20
140.33259135338994
 10
274.2731660476452
 20
136.12383530315537
 10
277.4491875542551
 20
131.64265236361916
 10
277.705252728269
 20
131.43561826283894
 10
277.9291515327102
 20
131.08843257913304
 10
281.0794511840015
 20
126.64195144181485
 10
284.2433048934711
 20
121.82429331588219
 10
284.31940864838384
 20
121.68302224530134
 10
284.42218963131086
 20
121.55077909120564
 10
288.10845239873174
 20
117.46977537645716
 10
291.39612173751766
 20
113.102120723393
 10
291.58827505066074
 20
112.82618490176446
 10
291.7973411382927
 20
112.56369302125677
 10
294.13036132271804
 20
106.89896144784188
 10
294.5188423547213
 20
103.27747817284171
 10
295.45194853586804
 20
99.39183402763092
 10
296.53198238181085
 20
94.01221555011989
 10
296.5742683248902
 20
91.60403157555311
 10
296.4968906939073
 20
84.73423691910011
 10
295.61951788343094
 20
81.06154133637074
 10
294.62505012940255
 20
75.46776896858455
 10
292.92108912828326
 20
68.22139144899484
 10
292.9827280504833
 20
66.20244789313574
 10
291.39894579471706
 20
63.58400147339444
 10
287.0801635220521
 20
56.91438980200883
 10
284.4193722869427
 20
54.242377542474514
 10
278.58556763080355
 20
47.652672019321926
 10
277.45352651202506
 20
46.25183244121399
 10
271.74481078335975
 20
38.39514515601877
 10
270.4812748412462
 20
36.80778644897691
 10
264.00419432780564
 20
29.129619269128852
 10
263.49366963083776
 20
28.602305587251976
 10
262.9685735370749
 20
28.427751281943983
 10
256.5177826488814
 20
24.84754746273302
 10
251.1366249382811
 20
21.965187838935435
 10
249.54400011310395
 20
21.078007875555613
 10
246.60589565097848
 20
19.849841264009683
 10
242.5644926902005
 20
18.27232230047548
 10
241.05086216732298
 20
17.838694084479812
 10
235.58721608483506
 20
15.92314055368115
 10
232.308147171982
 20
15.495248546788389
 10
228.5982258282827
 20
14.686868959215644
 10
225.2936581951153
 20
15.483977310114824
 10
221.59929012555995
 20
16.754725959159714
 10
219.89410658378756
 20
17.60737872169011
 10
217.21484161656394
 20
19.86102920060648
 10
215.5716494259675
 20
21.13536609019411
 10
214.61269755806597
 20
21.880348514911475
 10
211.07979433601372
 20
24.435771927667247
 10
207.63593354401087
 20
28.047800934674342
 10
207.1311104824515
 20
28.46043912884079
 10
206.60756768058695
 20
29.13150236714091
 10
203.33941865792872
 20
32.69408750809043
 10
200.65667878909562
 20
36.337057002997426
 10
199.86211810726172
 20
37.342281082137106
 10
199.1599263915084
 20
38.39468123383813
 10
196.20336100150803
 20
41.73426442283562
 10
193.6910051934376
 20
44.94315366225737
 10
192.4528580972967
 20
46.01695250837383
 10
191.6233680282894
 20
47.667444981789686
 10
189.65647044507318
 20
51.58554170582511
 10
187.07281365647646
 20
56.92923675741531
 10
186.93092786554462
 20
57.22575660237635
 10
186.70759931716884
 20
57.67601201243269
 10
184.1868988231313
 20
62.84166036995339
 10
182.6137209197948
 20
66.19532265422868
 10
181.78279618261308
 20
68.92537329477773
 10
179.93632939671033
 20
75.45911651680944
 10
179.87099406471816
 20
75.6275712235265
 10
179.74131000781654
 20
75.83645592973426
 10
176.57025154841403
 20
80.49885364226702
 10
174.77089597604822
 20
84.71133107499054
 10
173.95160255356063
 20
86.27814608573044
 10
172.77193858526903
 20
88.16948556698435
 10
170.5531841856091
 20
91.01947608435194
 10
169.09763544129532
 20
93.96737612080688
 10
167.58974709725385
 20
96.35389968294658
 10
165.7946927085336
 20
101.00054142227918
 10
165.0828963267361
 20
102.28827825278313
 10
164.73242413881917
 20
103.2464324857765
 10
163.8122681604732
 20
109.88492800707763
 10
163.1675623912347
 20
112.49686383221479
 10
161.28578782526756
 20
115.7291797749408
 10
158.85542214185875
 20
117.47908845316624
 10
156.43152444719863
 20
118.47752799197724
 10
151.91049855280153
 20
119.66961932788399
 10
150.42077140999754
 20
119.71777971380243
 10
144.95672518454853
 20
119.60112950600933
 10
143.18929341931903
 20
119.35414944041577
 10
137.9935192033979
 20
118.1920001272515
 10
135.02943582496414
 20
117.76961111207675
 10
131.03093674368802
 20
116.42426830207933
 10
126.04364961563738
 20
115.09991003745199
 10
124.04632043831225
 20
115.04639653033018
 10
118.21101477313232
 20
113.99515039120206
 10
117.01701635342397
 20
115.12099954224823
 10
114.06871333593949
 20
117.79327247352603
 10
110.0634278115881
 20
119.60778980559326
 10
108.94784541187869
 20
120.23018723221003
 10
104.45569729111935
 20
121.71494605462385
 10
103.39634428699674
 20
122.09594796828924
 10
103.10441580915563
 20
122.14098685362387
 10
98.19075518077216
 20
124.45127627830516
 10
96.13231479576575
 20
124.94588388978354
 10
92.68839334918334
 20
126.40231773324695
 10
89.16058114627117
 20
127.41330772468655
 10
87.1094042884231
 20
128.24958630631545
 10
82.18522742817481
 20
129.5856523955199
 10
81.44810400608299
 20
130.01575493400014
 10
79.88843686912674
 20
130.99456720536864
 10
78.06357485014018
 20
134.8688784498554
 10
77.44052722762467
 20
140.31474479903773
 10
79.18850363955812
 20
145.66586571948756
 10
80.52076784921428
 20
149.58837651802787
 10
82.1426205440348
 20
156.40566693093388
 10
83.07393348474443
 20
158.84438866225037
 10
83.16002714075717
 20
160.1672944427878
 10
82.14484254261902
 20
161.85177366184053
 10
80.89691889948062
 20
166.4125524305723
 10
80.36270369967428
 20
168.07020274528622
 10
79.32018079349655
 20
173.5598037556806
 10
75.58134144070755
 20
177.3037408433629
 10
75.41180414319797
 20
177.60867302665383
 10
75.18353631926266
 20
177.84809157886139
 10
72.28621012368467
 20
182.75519616839892
 10
71.9806578767168
 20
186.61686623120386
 10
74.04010010805064
 20
194.38343137721358
 10
74.19815714150832
 20
195.88727715395316
 10
75.17478127770642
 20
198.6378538985632
 10
78.54827675515503
 20
205.16321604968152
 10
82.14442373772386
 20
213.5237847494377
 10
82.4511730254087
 20
214.4191413737094
 10
82.89528392787156
 20
215.41778334816308
 10
86.62155065584807
 20
223.67436207397895
 10
87.92022041246037
 20
231.34770506333507
 10
88.44760942915559
 20
232.92292029364307
 10
87.97430960541578
 20
240.65820379493516
 10
87.82238241418827
 20
242.17069396794432
 10
88.02093265133612
 20
249.9836442376877
 10
87.84701920592079
 20
251.4256128031925
 10
87.14200426851016
 20
258.0715977942241
 10
86.86861928474946
 20
260.68963892563124
 10
86.68466981355937
 20
266.7294947173964
 10
86.48551863299713
 20
269.94955257354013
 10
86.01150141052267
 20
275.10118184232397
 10
86.53197162384936
 20
279.2192465125818
 10
86.33296012212463
 20
284.77933822896284
 10
85.74204001030125
 20
288.4575614315777
 10
84.57757387470178
 20
291.67905941693107
 10
82.1473101676304
 20
296.8137261822185
 10
81.86805643997309
 20
297.34674305658746
 10
81.79466877418508
 20
297.72439203987733
 10
80.71552361714771
 20
305.09909801455615
 10
80.6573570727187
 20
307.00008439805924
 10
81.46844069636722
 20
315.37069389140333
 10
81.47764402265352
 20
316.25626068927204
 10
81.00381822884651
 20
324.00007600507206
 10
80.71156401012786
 20
325.51265529444345
 10
80.92732837519839
 20
333.17010360531094
 10
80.92732974759338
 20
334.7692843055638
 10
79.39702769201222
 20
340.37039948455094
 10
78.16829284069627
 20
344.00743045030595
 10
76.80436887583892
 20
346.1681996588645
 10
75.17490831815326
 20
350.2631572674468
 10
74.3040853297041
 20
352.11491436010465
 10
73.87248214731471
 20
353.2678567433659
 10
71.37095672444161
 20
357.44804344840577
 10
68.2197744689247
 20
360.51756333962066
 10
67.38386784235263
 20
361.39106284878335
 10
65.94979241628448
 20
362.50969510723417
 10
63.763201337627834
 20
365.859462135425
 10
61.244058313124015
 20
368.2809856998756
 10
60.02844462272856
 20
370.16768660108164
 10
58.77923238454309
 20
371.7980830454935
 10
59.128946715504526
 20
378.28801518080763
 10
58.43908836781475
 20
381.0640981037586
 10
57.39326948252142
 20
385.2322499758716
 10
56.57656453413733
 20
390.33023731616095
 10
56.12474000889597
 20
392.81077648680593
 10
55.07139961556686
 20
399.5775776219921
 10
54.715848325496154
 20
400.17307167084846
 10
54.26170452902943
 20
401.49857711140476
 10
52.23200921474108
 20
406.1424386577519
 10
51.420605530146304
 20
408.8373614207212
 10
49.84729282999001
 20
412.2326831195883
 10
47.948228658533935
 20
418.10148561514416
 10
47.753030943524436
 20
418.7015208720013
 10
47.29855056125757
 20
419.3432807211466
 10
44.555730144023755
 20
423.71105363244396
 10
42.918735773287835
 20
427.35899619391375
 10
42.17902174890946
 20
429.8366111917935
 10
40.31796808199874
 20
436.57240197884175
 10
40.30844674385298
 20
436.60694386956084
 10
40.30505069887613
 20
436.6150560214951
 10
37.5917629892017
 20
442.25577369301527
 10
36.58605916581473
 20
445.88348264875185
 10
35.52816491335943
 20
448.77165931876607
 10
33.35025806533076
 20
453.58623336836945
 10
32.956594116313
 20
454.62384388999044
 10
32.81474400846764
 20
455.1490142684879
 10
31.320342925254636
 20
461.71494547100974
 10
30.43725569750154
 20
464.40735085236065
 10
29.469058301961923
 20
468.5134946350031
 10
27.517450013789357
 20
473.66339123257785
 10
27.172198794808082
 20
474.73033952001424
 10
26.374523645784848
 20
480.9137581975956
 10
26.1399847238863
 20
482.6222896974523
 10
26.063942488871135
 20
482.9295114989395
 10
24.235432334874076
 20
489.349501694026
 10
23.74972390772359
 20
492.19894342641965
 10
23.194924073378388
 20
497.2371457780773
 10
22.65569672642937
 20
501.45762627490285
 10
21.960450608961082
 20
504.8534833244348
 10
21.18370172431014
 20
510.7232581848989
 10
21.049919372769637
 20
512.9099661368532
 10
20.002991865681224
 20
519.9826020332316
 10
19.94383001752908
 20
520.705066858452
 10
19.67849786671627
 20
529.2488957733426
 10
19.663058969442773
 20
529.5969027949532
 10
20.016812721065662
 20
538.5107745527735
 10
19.955917644652345
 20
539.2414459277284
 10
19.51065765678709
 20
547.7685808865449
 10
19.50235016175202
 20
547.8964759374808
 10
19.40395275186529
 20
548.5805258149207
 10
18.36935389247151
 20
555.6528650234018
 10
18.314232273690777
 20
557.0280951319496
 10
17.59322681341814
 20
563.8812475470795
 10
17.34322524643153
 20
566.2902041096859
 10
17.343230845683593
 20
572.8147212855538
 10
17.102308031244547
 20
575.5530249146941
 10
17.397303297369717
 20
582.1541076867138
 10
17.55082952533462
 20
584.8200266128556
 10
18.086140652467293
 20
592.3283410073518
 10
18.059081064141765
 20
594.0788966702526
 10
18.880396800670724
 20
602.6495218385917
 10
18.966136619786084
 20
603.3466862771452
 10
19.40386198780743
 20
606.2147154707914
 10
20.189133672645767
 20
612.6057164562785
 10
20.324911235521768
 20
613.8295954716268
 10
21.312917907548126
 20
621.8676147438241
 10
21.76460365168282
 20
625.0045273502546
 10
22.653114256409708
 20
631.1350274262131
 10
24.999111889776486
 20
638.5687768905241
 10
25.42484743140153
 20
640.4086270281337
 10
26.387665637948658
 20
641.8876698598215
 10
32.409737261362125
 20
649.6824268799019
 10
33.357031494242165
 20
651.1813992951788
 10
38.74846152255668
 20
658.9438908716543
 10
40.33122502016681
 20
661.046591084697
 10
46.17707491937017
 20
668.2125050864615
 10
47.31097340524252
 20
669.2238211029562
 10
49.64239227794178
 20
671.3140817222356
 10
54.28033611359638
 20
675.7326593311509
 10
56.1670589244427
 20
677.4764892902372
 10
61.25571378160066
 20
682.0469531580175
 10
68.01603137602069
 20
686.7443396337931
 10
68.23966200326436
 20
686.8826710049743
 10
68.38761134815195
 20
686.9390891956355
 10
75.22070298566405
 20
689.4755327130979
 10
77.8402471274353
 20
690.1966954906079
 10
82.24654085264024
 20
687.4793532986637
 10
82.67349240015392
 20
687.3350939531733
 10
84.94367875506305
 20
686.7545510002824
 10
88.5770320776794
 20
685.9418060609032
 10
89.18001392759265
 20
685.9844559253916
 10
95.9054112341521
 20
686.4304399895404
 10
96.15501439411855
 20
686.4475163446532
 10
102.6668621816334
 20
686.1457482274227
 10
103.13221843883571
 20
686.1649767878766
 10
108.8353472290737
 20
685.0573415016256
 10
110.1155773038588
 20
684.7493524827578
 10
114.6794286368472
 20
683.5445269924908
 10
117.10481100807851
 20
682.3765772338947
 10
119.58334244968364
 20
680.7631976214798
 10
123.43451843318076
 20
677.475610694743
 10
123.79709697395651
 20
677.095956409999
 10
124.0829525031495
 20
676.9209768327596
 10
128.0621605639601
 20
673.4960177348853
 10
131.06087726306714
 20
670.7801745401243
 10
132.17535311796314
 20
669.6796270527348
 10
133.13908663178904
 20
668.2010762257041
 10
135.38055463017054
 20
664.6727108506088
 10
138.0407019104432
 20
661.6901635549666
 10
138.96151883960988
 20
660.1549957149346
 10
139.64035594196116
 20
658.9297338138886
 10
141.23533969840287
 20
653.9004126315067
 10
143.42022839844026
 20
649.6738122082538
 10
144.06974255170735
 20
648.4173530924122
 10
145.0157763870825
 20
646.7658343977323
 10
147.08453147079285
 20
643.1619214627626
 10
148.5002617809496
 20
640.4152149577349
 10
150.03667615106156
 20
637.8353465486348
 10
151.9814795756297
 20
635.3760535585061
 10
153.5232943899871
 20
633.1977796058718
 10
154.4824766664849
 20
631.1526361104798
 10
156.394078245969
 20
627.7607373359392
 10
158.9443701619823
 20
624.774221168057
 10
160.29075926765722
 20
623.7109410242438
 10
162.42744628946298
 20
621.9118931691569
 10
164.33834933693265
 20
619.8182537513853
 10
165.9095865881468
 20
618.530184473394
 10
168.702688335826
 20
616.3622605150977
 10
172.6712486778256
 20
612.6529995025608
 10
172.7960956196364
 20
612.5468063984913
 10
172.8788167548346
 20
612.4909937840885
 10
177.05788876542465
 20
608.9609797237554
 10
179.83643455966285
 20
607.8139943363976
 10
182.1870420180644
 20
606.5432003981409
 10
186.78975350756332
 20
605.924179919567
 10
188.36966715812673
 20
605.496631386221
 10
193.76464069580334
 20
603.5411062040148
 10
193.85667829518684
 20
603.5259417611205
 10
194.108193047834
 20
603.4048699479672
 10
199.15550505999
 20
601.289820169779
 10
200.74429728128212
 20
600.504375715615
 10
204.6100671635029
 20
599.2942573380055
 10
207.70230132505094
 20
598.5360083553123
 10
210.62169155396805
 20
598.0338381863162
 10
214.67264333497042
 20
597.4999964472217
 10
216.76144086093268
 20
596.9234326558462
 10
221.64630750679726
 20
596.1854446947909
 10
222.86632437183653
 20
595.7667164763457
 10
228.6112192668495
 20
594.5898914801974
 10
228.91260744473402
 20
594.5526666113929
 10
231.42021447030857
 20
594.149799851562
 10
235.07788715472066
 20
593.4732629116352
 10
235.5928115124525
 20
593.3315959661659
 10
240.55767710727582
 20
591.4884984358519
 10
242.55059271835034
 20
591.1471869322218
 10
246.92876464344522
 20
590.7031186472218
 10
249.53228972725287
 20
590.1093749211877
  0
TEXT
  5
91
330
17
100
AcDbEntity
  8
GRABADO
100
AcDbText
 10
335.7498171572107
 20
353.90149418493274
 30
0.0
 40
6.0
  1
82e
 72
1
 11
335.7498171572107
 21
353.90149418493274
 31
0.0
100
AcDbText
 73
2
  0
LWPOLYLINE
  5
92
330
17
100
AcDbEntity
  8
CORTE
100
AcDbPolyline
 90
377
 70
1
 10
476.68505113513766
 20
505.84385631819123
 10
477.31752151978344
 20
507.81247524252876
 10
479.4213108513941
 20
512.8147724093928
 10
479.55077686456025
 20
513.1226110828543
 10
479.9490787121904
 20
513.5438860051622
 10
482.88380707262695
 20
517.5860551715036
 10
484.27074963796804
 20
519.8006493570497
 10
486.1911093570134
 20
522.0880212174284
 10
489.21625555912306
 20
524.3390616024185
 10
490.48542893878766
 20
525.7930421220221
 10
490.6927238100707
 20
526.742644800483
 10
491.73350575823406
 20
531.7948424706815
 10
491.827590158774
 20
533.6994382777525
 10
491.7985997488804
 20
538.7142622734877
 10
492.20620433663316
 20
540.6787946815671
 10
492.51787017677816
 20
545.1588699435638
 10
493.90354775657397
 20
547.6612381851623
 10
494.15341258287935
 20
550.8966050384556
 10
495.94346139474055
 20
554.5829048329829
 10
489.2205474123839
 20
558.9199964271852
 10
486.5039945527469
 20
561.5606350895509
 10
487.0923701709871
 20
563.1748600643282
 10
487.11917682382955
 20
568.5488858008471
 10
487.0051355212663
 20
570.1949936882661
 10
486.9772496699961
 20
575.514829223785
 10
486.61280946314764
 20
577.4520801905796
 10
485.8597072370676
 20
582.4765355719705
 10
484.912454579553
 20
585.7211735148317
 10
487.3178778454967
 20
589.4782361643734
 10
486.9818222864724
 20
591.1295809185499
 10
488.63706362776065
 20
596.439828264985
 10
488.5658292652961
 20
596.904341624027
 10
489.19301592952706
 20
601.7153355311762
 10
489.3681996006908
 20
603.2789082583336
 10
489.37565112910124
 20
603.4152704659505
 10
490.7152950441914
 20
609.2699535525958
 10
491.7689692267322
 20
610.4212581310971
 10
493.9274065796144
 20
613.8087039799843
 10
494.27129736766346
 20
617.3801301367425
 10
496.0709537611274
 20
619.1823052356526
 10
497.27694021878415
 20
624.3186485414349
 10
497.0826390324328
 20
625.3583607572295
 10
498.45767064275697
 20
627.8461096235064
 10
499.18653123095373
 20
630.7479150231779
 10
499.22542602223166
 20
631.2790121819139
 10
498.470549802626
 20
633.7422195919139
 10
494.4855295108955
 20
634.2408631268713
 10
489.2353607686673
 20
636.9165946894686
 10
486.31535478248315
 20
638.196906048855
 10
481.76882918488536
 20
643.8104703712493
 10
480.33513026748005
 20
645.2157625618461
 10
483.01320545749695
 20
649.9356278269902
 10
485.1512258313214
 20
652.2439697317054
 10
486.33820504307096
 20
654.3835776651335
 10
487.9852923942817
 20
659.1917148631969
 10
488.1814957521028
 20
659.9662356200147
 10
489.2119486341726
 20
661.5324766377976
 10
492.23557252690625
 20
663.8709966856536
 10
491.6133920924294
 20
666.1118120467995
 10
489.2036307372937
 20
670.2904786716622
 10
487.42358752898963
 20
673.0695073997099
 10
485.304656593451
 20
676.0076492570292
 10
483.3729707226357
 20
680.0347531463863
 10
479.9820469302431
 20
682.778956557639
 10
476.5286544860037
 20
682.6301590797107
 10
470.7669704084674
 20
682.0189485716587
 10
469.11378536214033
 20
681.2478070944449
 10
461.4745206706066
 20
681.4590685037215
 10
458.3548930730758
 20
682.351444762036
 10
452.196165018966
 20
684.2119497981307
 10
447.17981815584517
 20
686.9873830303263
 10
442.9377250352218
 20
689.3112979264965
 10
438.4182336524773
 20
690.3905260458973
 10
433.6883118483329
 20
691.2502402995865
 10
425.06859334182536
 20
693.4657938524001
 10
424.4200216679401
 20
693.6750239983744
 10
423.6160833078702
 20
693.9535790042623
 10
415.15455701923656
 20
697.3363638102805
 10
406.6058126280868
 20
700.92697277664
 10
405.8873701296952
 20
701.3301450115036
 10
404.3144164790874
 20
702.1124139307381
 10
396.62240984952587
 20
706.1469015424423
 10
394.1738761568695
 20
707.9040244308276
 10
387.3493955395543
 20
712.6625757626857
 10
385.578894063975
 20
714.8956257705072
 10
384.5522048729754
 20
716.9973161973953
 10
382.3178472066629
 20
721.8721062151576
 10
378.42513354983566
 20
728.5777331067816
 10
378.2962643003957
 20
728.8380070432981
 10
378.0801877181375
 20
729.1304824183803
 10
373.16407621548933
 20
735.7981171840834
 10
368.8320856968512
 20
739.892161924035
 10
364.927902692456
 20
742.755418674004
 10
359.5865507393992
 20
745.7251519783999
 10
350.653607885195
 20
749.4767936669537
 10
350.3310778039395
 20
749.6089694372381
 10
350.0503957982328
 20
749.7199532442305
 10
341.06152514998666
 20
753.4979174300947
 10
336.56866751697817
 20
756.7013497898402
 10
331.7816749213398
 20
760.9624421514904
 10
329.8553437889095
 20
763.6897269750939
 10
328.25550640278925
 20
766.3411986913629
 10
325.93878777583086
 20
770.6579444793056
 10
322.5316005075665
 20
774.4300557579686
 10
315.9483757636681
 20
777.6048437141812
 10
313.29033233824794
 20
778.9326673974952
 10
310.6336300826533
 20
779.605245047836
 10
304.0475262643786
 20
781.2352762572059
 10
299.32396443133257
 20
781.1546481356049
 10
294.78390584734825
 20
781.9396976972062
 10
287.7042829315842
 20
782.9272252365249
 10
285.52310106661844
 20
783.2893946290892
 10
277.16738681683273
 20
784.5688595134102
 10
276.259547600991
 20
784.7348621262804
 10
275.959734282339
 20
784.798709904881
 10
267.007945615891
 20
784.7150987856053
 10
266.76255443362606
 20
784.7542816626224
 10
264.7624069954081
 20
784.5679337570532
 10
258.1794439925916
 20
784.2538757262469
 10
257.7742797678047
 20
784.1750899573976
 10
252.07447304524248
 20
781.8919863940259
 10
248.51975207158193
 20
781.0393631489837
 10
245.91748729603387
 20
779.6063940706313
 10
245.305731278243
 20
777.6349445627216
 10
242.92900454948267
 20
774.8810512522518
 10
239.27657414837995
 20
770.9707202982277
 10
238.99756166027964
 20
770.8428611589547
 10
238.73897419575678
 20
770.6400026270189
 10
233.98338998599593
 20
767.6399784366217
 10
229.99408020096052
 20
766.0524868417529
 10
227.5907961000339
 20
765.4730843059247
 10
224.39709848366692
 20
763.6643002380738
 10
222.1687168501512
 20
762.5813953027277
 10
220.7109572203999
 20
762.2314251545226
 10
214.53121037726578
 20
763.6802913668885
 10
216.32860248408997
 20
766.9535132256065
 10
213.30813817455874
 20
770.6824228878663
 10
214.37141326707933
 20
775.4286970274375
 10
214.5583700455536
 20
777.6894509852696
 10
215.95954940431693
 20
781.2303752577914
 10
217.96684175009614
 20
784.6850224114091
 10
218.97063977600556
 20
785.9607336971198
 10
220.66422911217342
 20
787.6177048169898
 10
223.61556173882582
 20
789.4444352459891
 10
225.27523698483492
 20
791.6638066722512
 10
227.3631227534679
 20
793.6064595877338
 10
229.9531323870042
 20
794.9034215700226
 10
234.87802935060336
 20
794.9660915722284
 10
239.23345826062268
 20
794.8580439423199
 10
244.38819128307568
 20
794.7675934857548
 10
248.47713387771273
 20
796.423408051654
 10
251.37536132484638
 20
796.4786353839258
 10
257.53235138226046
 20
798.6571060211631
 10
257.70431110544996
 20
798.6849735413302
 10
257.7438196828798
 20
798.6923639459696
 10
266.2761581003633
 20
799.2024445573293
 10
266.9864877056525
 20
799.4454842523596
 10
272.2061297860264
 20
801.701635567792
 10
276.25641949883084
 20
802.4827537952483
 10
279.25654216693783
 20
803.3619908994419
 10
284.68712815403524
 20
805.6240595132936
 10
285.22142891742806
 20
805.8515236373746
 10
285.52293401000134
 20
805.8720946414101
 10
292.1846369572304
 20
807.5839093214249
 10
294.78458367203166
 20
807.8769753887523
 10
299.84597488957115
 20
808.7936382760458
 10
304.0536625567065
 20
808.8275921727268
 10
308.71835282904067
 20
809.0856936241266
 10
313.305128142576
 20
809.6848897333825
 10
316.43080809330786
 20
810.2441887163855
 10
322.57374505031567
 20
811.5760399543346
 10
324.1923248877474
 20
811.3857152906762
 10
331.8342550144289
 20
812.2406105331488
 10
332.3223497335821
 20
812.2345113403003
 10
337.7082644456368
 20
812.600489044084
 10
340.80920663745565
 20
812.8111989072509
 10
341.0757167768206
 20
812.8562180539479
 10
346.57125984229515
 20
815.4293218843145
 10
350.3459890511158
 20
816.3220283751348
 10
354.0657198808003
 20
816.7641375471726
 10
359.584559440691
 20
819.2239312067954
 10
359.8377631256053
 20
819.3773218025158
 10
360.44365139364436
 20
819.5683921632649
 10
366.6795806330392
 20
821.2095469806568
 10
368.8570926342136
 20
821.8703132763726
 10
373.11014428388717
 20
823.3357747964278
 10
378.1181681916705
 20
825.016528593133
 10
379.56958935635976
 20
825.435535791637
 10
381.1557187155586
 20
826.5300446470915
 10
384.60973742135866
 20
828.6211956671373
 10
387.3887025638005
 20
829.0061299441663
 10
392.0993636592766
 20
829.9628861196547
 10
396.65789316882547
 20
830.9943682650896
 10
400.6326256361026
 20
830.5247324866691
 10
405.9231076159149
 20
831.0717691097921
 10
409.7962883259506
 20
830.6021433835481
 10
415.1815392941562
 20
830.1587778286334
 10
418.99907588834776
 20
830.6227288225814
 10
424.43643440545384
 20
833.1436460774735
 10
425.2085012722355
 20
832.9478208396645
 10
433.74009869093425
 20
831.2392950631688
 10
438.7832448979543
 20
826.504253276395
 10
439.4838552802121
 20
822.1882509035663
 10
440.25315142627915
 20
819.51067565105
 10
440.8054618010392
 20
814.2125709119605
 10
440.85758782550056
 20
812.5304991703056
 10
441.42401375823465
 20
806.7715035017804
 10
441.30143430230055
 20
805.5475222298332
 10
440.78256679797596
 20
800.2842692417767
 10
440.97350249402007
 20
798.5984933532595
 10
442.8594851483449
 20
791.7609939622785
 10
442.8660057018469
 20
791.6310118818969
 10
443.03114964627366
 20
791.2530179643704
 10
447.31942542984325
 20
784.6895690022088
 10
452.2777240578662
 20
779.4758402753209
 10
454.2323651844072
 20
777.7312347469956
 10
461.52832329284684
 20
772.6933724538553
 10
464.39405765356514
 20
770.7613010248201
 10
470.7637698348235
 20
765.348000048391
 10
475.85085256276307
 20
766.9252791949125
 10
480.0153881874767
 20
766.9813500213281
 10
487.3523055772948
 20
765.2524580032746
 10
489.27377708853055
 20
765.420635524722
 10
495.74962020891326
 20
763.7910272622134
 10
496.43117849153623
 20
758.4268234853521
 10
498.0281447188072
 20
756.8065934265383
 10
498.5876261569374
 20
755.8941371568076
 10
504.6251440653368
 20
749.8348718380489
 10
507.8487275716843
 20
743.9927343443828
 10
509.11959159335584
 20
742.8410863857976
 10
508.8582020288841
 20
742.0786467679804
 10
511.69073391306756
 20
735.8901729004551
 10
517.1101329772928
 20
730.0413562917233
 10
517.7713803085198
 20
728.9229241236349
 10
519.5027569780768
 20
727.1225229133038
 10
523.3908186563967
 20
721.9630346062654
 10
526.3519790035034
 20
720.1337358115247
 10
533.4456996427189
 20
714.9965955052107
 10
535.6214868364304
 20
713.4209558393154
 10
540.403102118501
 20
708.0096937591202
 10
544.3033993718545
 20
701.4788136632119
 10
544.567535788683
 20
701.0377626099157
 10
544.8883865025518
 20
700.6468736023558
 10
550.7227897777011
 20
694.0756855451878
 10
554.1476171946715
 20
690.7267975856425
 10
557.0494418001836
 20
687.0956232876456
 10
559.3008997319603
 20
683.2187402224458
 10
561.1109172852748
 20
680.1249666310637
 10
563.4119911274975
 20
677.2288606484831
 10
566.4185837804798
 20
673.1609932433889
 10
572.6880145336836
 20
666.9539138992127
 10
572.6880145336836
 20
554.2152630813439
 10
572.6877720703305
 20
513.8592097313917
 10
572.6877758866804
 20
467.25388926743153
 10
572.6877786392306
 20
431.9672762370078
 10
572.6877820310247
 20
390.17330395852196
 10
572.6877857260815
 20
345.4148585667276
 10
572.6877888254203
 20
307.03123220195494
 10
572.687792316814
 20
264.76614575283884
 10
572.6877971941676
 20
208.40862904271808
 10
572.6878004891914
 20
168.58275997429655
 10
572.6878034959582
 20
131.89259001358778
 10
572.6878044683308
 20
116.1665996919487
 10
572.6878056579826
 20
98.27845068856595
 10
572.6878069524473
 20
79.38971396941588
 10
572.6878071043384
 20
71.8612080036878
 10
572.6878043103106
 20
71.86120800368735
 10
572.6878043338329
 20
71.44923536015949
 10
572.6878048842582
 20
60.19600422078429
 10
572.6878043338329
 20
59.92613192364888
 10
572.6878059897354
 20
37.734045095037345
 10
572.6878077045367
 20
15.05000785176253
 10
572.6878072091367
 20
13.000000280608674
 10
572.5378074571918
 20
13.000000267246378
 10
572.5378065381483
 20
15.189123540787932
 10
572.537804683222
 20
27.689884870710102
 10
572.5378022197128
 20
46.04419579340038
 10
572.5378002796333
 20
59.15580952164191
 10
572.5377991196419
 20
64.57042130417858
 10
572.5377987080083
 20
66.51682922388636
 10
572.5377945962937
 20
66.51682922388636
 10
572.537792075862
 20
84.32968910490263
 10
572.5377872155013
 20
124.32693181152126
 10
572.5377796183748
 20
189.93770220764463
 10
572.5377707468069
 20
267.14879715463985
 10
572.5377602333101
 20
359.7039069354573
 10
572.3067136562258
 20
359.60766311252564
 10
571.3619289652715
 20
359.35820454465966
 10
565.6806503285106
 20
357.6228431109953
 10
563.3662693778488
 20
356.88846480047187
 10
557.8707689528937
 20
356.5175979417386
 10
554.0963407943236
 20
355.89901418296495
 10
549.1761473159804
 20
356.0845452408198
 10
544.8234490545938
 20
355.9387606616324
 10
537.8847243167729
 20
357.60413688676863
 10
535.56314095177
 20
357.92388901483855
 10
527.5579551048368
 20
358.40624995074404
 10
526.2884916285166
 20
358.80967429585735
 10
524.3286948327723
 20
359.35830741542895
 10
517.0340819040175
 20
361.53968168249366
 10
513.5902986515985
 20
361.9529426623808
 10
507.7789482430826
 20
362.65031650628
 10
502.34585521377267
 20
363.44521795075116
 10
498.5277662302042
 20
363.96162085050446
 10
493.3010074083377
 20
363.29223186782065
 10
489.2727920080106
 20
363.4480083831345
 10
484.90420859043115
 20
362.6542618606304
 10
480.02484375388576
 20
361.2851521310663
 10
478.02795392000553
 20
360.8617044311609
 10
473.2462832128258
 20
359.3594064686172
 10
471.58834150780604
 20
358.7386184149832
 10
470.75923175807384
 20
358.59701824822105
 10
464.08438326005125
 20
357.4106030260059
 10
461.4894637715088
 20
356.9309708609512
 10
454.6594288173883
 20
357.5186520720831
 10
452.20815897444663
 20
357.7156120035447
 10
448.0204770498485
 20
359.36034074091503
 10
442.94048380885306
 20
361.2691539268758
 10
438.66419917962503
 20
362.57880743520536
 10
433.66599719956685
 20
364.25126946396495
 10
431.28061738733595
 20
366.3449360267491
 10
424.40267714124093
 20
372.49462755518516
 10
422.5140879857845
 20
373.3078935469398
 10
415.12822284355116
 20
380.09757862009565
 10
414.95205613158214
 20
380.31050364268094
 10
414.92830544595563
 20
380.46184708343344
 10
412.8008936591359
 20
387.3251144024275
 10
413.58222259531703
 20
388.4950774031927
 10
414.8681594613272
 20
394.31110482743
 10
414.94846171952486
 20
394.4521169838931
 10
415.12081186145406
 20
394.7037512273887
 10
418.08706267239177
 20
399.0599922683109
 10
419.34384350156233
 20
401.29470650479243
 10
421.0974331404959
 20
403.7745346861434
 10
424.38772805188364
 20
407.65649031180465
 10
424.7283227569533
 20
408.0148182644093
 10
424.9042933752071
 20
408.26435718020866
 10
427.37043811822514
 20
412.991196821687
 10
429.5890475141314
 20
415.2521126764009
 10
431.5948812775159
 20
416.806632691349
 10
433.6594563057124
 20
418.5350974851758
 10
436.2821128347123
 20
420.23872223065837
 10
437.5127802315328
 20
422.2087891575261
 10
439.42849692056006
 20
424.8187309719119
 10
441.53349196494764
 20
429.1678161304785
 10
441.8510981325753
 20
429.9496446562075
 10
442.89518277116895
 20
432.85209053985045
 10
444.01093026422586
 20
435.28435582127577
 10
444.07962868608047
 20
436.1173547409885
 10
444.9872186448756
 20
441.5315276222259
 10
446.08970761513046
 20
443.1315949322002
 10
449.1673459145595
 20
445.4047977268506
 10
452.1834856762198
 20
447.9006744689482
 10
453.9151517116161
 20
448.80706188632894
 10
455.3631112464045
 20
450.1048402641568
 10
458.0699801516903
 20
452.6201306823664
 10
460.2501729892756
 20
457.044584950841
 10
460.4017684775263
 20
457.7932899121147
 10
461.2939307951701
 20
463.9855547729653
 10
461.26086261984983
 20
464.10031392534484
 10
461.4123310986488
 20
464.70541677319534
 10
462.3514106050716
 20
470.2666991376632
 10
462.46720655023546
 20
470.96188503510666
 10
461.41193235563696
 20
477.6650795987275
 10
461.36097955369587
 20
477.923905365225
 10
461.35982435760343
 20
477.9672221585365
 10
460.9145485623412
 20
484.90908753270696
 10
460.9914886994957
 20
485.2426423944303
 10
461.4163721116656
 20
486.3665766988647
 10
463.2560469816335
 20
490.5258178269146
 10
464.1072293682637
 20
491.91975903075354
 10
466.8841914703544
 20
494.7915962575312
 10
470.68867960215084
 20
498.8498993139078
 10
470.70728626786604
 20
498.87500271750787
 10
470.7248247270618
 20
498.89669453625675
 10
475.0173600588969
 20
502.60218430899613
 10
476.68505113513766
 20
505.84385631819123
  0
LWPOLYLINE
  5
93
330
17
100
AcDbEntity
  8
CORTE
100
AcDbPolyline
 90
274
 70
1
 10
429.00271159179647
 20
822.0971736073757
 10
425.12528131272666
 20
823.0806359720486
 10
423.13307469931715
 20
822.1569911523707
 10
415.31801303899374
 20
821.2072148933589
 10
411.9464948020377
 20
821.4847906391983
 10
405.86102367366857
 20
822.2226580438341
 10
402.69004888654035
 20
821.8947787794909
 10
397.030309965402
 20
822.5635070312096
 10
394.93548009305596
 20
822.0894989971443
 10
388.5667281732831
 20
820.7959772162526
 10
388.46609274556613
 20
820.7820374855878
 10
388.24812406293495
 20
820.6500736857802
 10
384.17955321137833
 20
817.8425556228608
 10
380.203484982545
 20
816.6947142862787
 10
376.86895412463855
 20
815.5756051320773
 10
371.0143496923456
 20
813.5583012718403
 10
370.1509697216725
 20
813.2963085091337
 10
368.4239486421866
 20
812.8417958205623
 10
364.52739113750613
 20
811.6129939318812
 10
362.83566434399745
 20
810.5881471539165
 10
357.96603273807614
 20
808.4177109926618
 10
351.56855188612917
 20
807.6573374355189
 10
350.66524318323627
 20
807.443708987576
 10
348.12564409797506
 20
806.2546268382207
 10
345.24204056871713
 20
804.9031355790007
 10
342.4511082198269
 20
803.9715051487633
 10
334.8740919176016
 20
803.4566401395537
 10
332.180965960928
 20
803.490293227635
 10
326.1912187834305
 20
802.8202260743415
 10
322.9158716576876
 20
803.205365766345
 10
319.11187623899787
 20
802.3806208531237
 10
314.375582588631
 20
801.5331239041047
 10
310.7607960400119
 20
801.0609041227403
 10
304.27539069423074
 20
800.702060890942
 10
301.98419970191935
 20
800.6835721464381
 10
295.8014933896429
 20
799.5638291398404
 10
295.05241213135923
 20
799.4793926791913
 10
293.8660345540866
 20
799.1745369134946
 10
290.3413514762542
 20
796.6251204095583
 10
286.8655041225047
 20
796.6815337819448
 10
283.5324676536211
 20
795.2931832055988
 10
278.0315082999541
 20
793.6810332679247
 10
285.6439511562339
 20
792.2890627709262
 10
286.6757327589112
 20
792.112098034982
 10
290.4993070953342
 20
791.4906524612047
 10
295.86407920217425
 20
790.7423272663868
 10
296.6133897392492
 20
790.6127593549268
 10
304.8419750193898
 20
790.7532159421412
 10
307.3785867495699
 20
790.1254158952038
 10
315.7417285215861
 20
788.0081811803834
 10
323.98800175606357
 20
783.8887613112051
 10
326.807217771684
 20
782.5291824724823
 10
333.8624848332156
 20
774.7182667929533
 10
337.3953709143716
 20
768.135434103368
 10
344.08425109179916
 20
762.1813960173263
 10
344.4914685397762
 20
761.8910477230206
 10
346.66331627061754
 20
760.9782341710911
 10
353.14499219301706
 20
758.2302344039749
 10
357.7506312604346
 20
756.1347984440122
 10
362.6518010965174
 20
754.0764137235642
 10
372.39388430202416
 20
748.6599219432296
 10
373.323323575627
 20
747.9782880979869
 10
381.28298007993544
 20
740.4558363051933
 10
383.71233578313513
 20
737.1609443276843
 10
387.1563542419008
 20
732.4992147686894
 10
389.157396779633
 20
728.4577601882388
 10
391.10948798849495
 20
725.0950686421779
 10
393.1226524113972
 20
720.7028650210482
 10
393.4838548221742
 20
720.3674836328323
 10
400.3218917467875
 20
715.7178591239012
 10
403.20802529378943
 20
714.0824725900161
 10
409.1607849013617
 20
711.1220173834204
 10
416.10252374805987
 20
707.2264845176337
 10
417.80937642302524
 20
706.5095791759172
 10
420.27261323323
 20
705.5248159345169
 10
426.5978391416029
 20
703.0208798130247
 10
435.39638162918254
 20
700.732645414822
 10
445.4771418099954
 20
698.3254188198985
 10
454.9302065288257
 20
693.1468154064682
 10
462.55070678875745
 20
690.9669547353337
 10
464.15759540576164
 20
690.9225167471918
 10
468.86669531579355
 20
693.1191143204846
 10
471.04501632053507
 20
693.3501947945429
 10
482.3268107948106
 20
693.8362972550608
 10
493.8830691764106
 20
684.4840600436996
 10
495.7029503306512
 20
680.6900422972626
 10
497.3139788757944
 20
675.8225797699665
 10
498.0580728384093
 20
674.400292328784
 10
501.26468432591173
 20
668.839841135898
 10
504.2134586249467
 20
658.219676341791
 10
501.7130510975712
 20
656.2858203669689
 10
502.9243107336597
 20
649.8520948124619
 10
493.8531645505809
 20
647.4709149416381
 10
492.7084651569194
 20
646.2350251386029
 10
496.3517468161508
 20
646.0003822647946
 10
501.1288116949436
 20
648.0586589467443
 10
507.46468409032514
 20
638.3994153642839
 10
506.5722405295528
 20
636.9308900960391
 10
508.0600906405998
 20
632.0759439163717
 10
507.7892368109933
 20
628.3775129797937
 10
506.498412893161
 20
623.2383685735144
 10
506.45957513764006
 20
622.6452714614347
 10
505.3022844125753
 20
616.6098131591066
 10
505.07258863205425
 20
615.6315298814166
 10
504.405273763251
 20
608.7012314841936
 10
502.7766436015527
 20
606.1452636340041
 10
500.3430736649025
 20
603.4862061600766
 10
500.1028922912137
 20
602.4365348179949
 10
499.9682104791118
 20
599.9718714350252
 10
499.57868059914927
 20
596.4951872630404
 10
500.10836795407886
 20
592.4151410059526
 10
496.4435163087628
 20
585.2308604922214
 10
494.1717640802308
 20
583.1117880621309
 10
495.0142920679091
 20
577.4907128148811
 10
495.2597912677584
 20
576.1857153055039
 10
495.2949224004615
 20
569.4836840014664
 10
495.3441142002721
 20
568.7736341524637
 10
495.32440638182015
 20
564.8227371794433
 10
507.29008401028204
 20
557.1034297485371
 10
502.7447349785716
 20
547.7430597459838
 10
502.57946961354446
 20
545.6031263591426
 10
500.6736627927967
 20
542.1614668184297
 10
500.50385088164785
 20
539.7204866263778
 10
499.96814182352773
 20
537.138528921289
 10
499.9889049936646
 20
533.5468707070308
 10
499.8170858696567
 20
530.0686534756774
 10
498.8326441901536
 20
525.2899445747348
 10
498.0508440158019
 20
521.7085750261826
 10
493.9966591569819
 20
517.0640513527092
 10
492.43374491306076
 20
515.9010718316244
 10
492.2419322360938
 20
515.6726006158383
 10
490.25024096870584
 20
512.4923767115592
 10
487.92724492878915
 20
509.29278144657155
 10
487.7867225166974
 20
508.98085166085593
 10
486.40197335154517
 20
505.60682045183285
 10
485.7252977338203
 20
503.99785111513893
 10
485.4542026323934
 20
503.1540441007396
 10
482.2644544491677
 20
496.95378462267445
 10
478.851739625542
 20
494.00779142782676
 10
478.1566713194088
 20
493.14812094338185
 10
476.07181053804834
 20
490.33530630774067
 10
474.16447404325845
 20
488.30072261127634
 10
473.49719497092065
 20
487.61064589789703
 10
472.0876385123456
 20
485.3022818414879
 10
470.9428372888615
 20
482.7140504045715
 10
470.89869270175404
 20
482.519983005473
 10
471.2231083255783
 20
477.6501736893438
 10
470.99000171974967
 20
476.08158154704006
 10
471.8009592674025
 20
470.930307828246
 10
471.2477156403311
 20
467.60888610794836
 10
470.5028359041471
 20
463.1976658522058
 10
470.4102292733278
 20
461.7052674182637
 10
469.32136718381025
 20
454.79781010812667
 10
468.46430251510355
 20
453.1823167601283
 10
467.67172763755843
 20
451.64016161313566
 10
465.44306326869173
 20
447.11733986552144
 10
463.0935759480117
 20
444.93413737135097
 10
459.57289831983326
 20
441.77862149444036
 10
456.0803543868369
 20
439.9505566073253
 10
454.8033082529673
 20
438.8937920022404
 10
453.85894318958344
 20
438.19626581742205
 10
453.39128988414814
 20
437.51754994214525
 10
453.01109497199377
 20
435.2495202410414
 10
452.7497551718925
 20
432.0806589297158
 10
450.00490709564474
 20
426.0970481932468
 10
449.55348155133015
 20
425.2271006661663
 10
449.01885969284467
 20
424.39182720702456
 10
446.9310563932877
 20
420.0782615440944
 10
445.6096231562724
 20
418.2779620113074
 10
442.96031651302746
 20
414.0369205971351
 10
437.8280376177818
 20
410.7030958168102
 10
437.3662767538135
 20
410.31650904440676
 10
436.97108186264177
 20
410.01023323065374
 10
434.65892227448603
 20
407.65398328366837
 10
433.07189110710715
 20
404.6121335076282
 10
431.57684146500924
 20
402.492046242754
 10
429.5987653977745
 20
400.4109805752082
 10
427.96421844616725
 20
398.4825094487319
 10
427.3035925305421
 20
397.5482893059311
 10
425.4718099454658
 20
394.2911496949514
 10
423.41831448027733
 20
391.2753827241281
 10
422.62325735177365
 20
387.68221988297546
 10
423.62940947520747
 20
384.28439768791804
 10
428.90599169558936
 20
379.79930739979727
 10
430.4136203698399
 20
378.53984347729556
 10
435.56378336088346
 20
373.6262550576098
 10
437.21909129454343
 20
372.1462141133229
 10
445.1986791508798
 20
369.70238819031283
 10
453.7294639168922
 20
366.4969361994422
 10
455.6433206940228
 20
366.32942253092233
 10
461.1554389426201
 20
365.8551396978187
 10
463.44889639804205
 20
366.26278832646085
 10
468.10542123305004
 20
366.9775459689713
 10
468.6473809759591
 20
367.15203125197013
 10
474.46780976615355
 20
368.98068463446134
 10
478.3515015178209
 20
369.804235494144
 10
481.6666506256188
 20
370.73443912729863
 10
488.7764603763344
 20
372.02625073437184
 10
490.8134749225055
 20
371.94747663812586
 10
498.55268818344575
 20
372.93863469000416
 10
500.2175891643383
 20
372.71345405696
 10
508.70279921118527
 20
371.47200545917394
 10
511.44939492795856
 20
371.1424083985944
 10
518.4643055078495
 20
370.30060489135167
 10
525.1134282410821
 20
368.3122574121239
 10
527.1502578548707
 20
367.9141111817821
 10
534.8115326629377
 20
367.53367976844083
 10
536.8817679822432
 20
367.1222394781403
 10
541.787614051781
 20
366.2051344975339
 10
545.5359482400527
 20
365.30548983992276
 10
546.2159669585735
 20
365.32826565316964
 10
553.6577919279835
 20
365.04764870893405
 10
554.7466031923586
 20
365.2260918892557
 10
562.064819227774
 20
365.7199657101478
 10
563.2828891048712
 20
366.09202834311645
 10
565.6877835527011
 20
366.7270106100491
 10
565.687782918626
 20
374.57968778043096
 10
565.6877791782317
 20
419.88731656106984
 10
565.687775744821
 20
462.19409833741565
 10
565.6877729584967
 20
497.9136759177286
 10
565.6877690954461
 20
545.0908834381876
 10
565.6880145336836
 20
585.9420820417495
 10
565.6880145336836
 20
656.2120049736172
 10
564.5558989141273
 20
656.7262942643042
 10
559.6530204541386
 20
659.2630227879022
 10
555.1054054813312
 20
662.6861602186877
 10
555.1054054813312
 20
666.4811436342002
 10
554.401816083996
 20
670.1666426057941
 10
551.9275823265898
 20
673.3309138375266
 10
549.6795341825373
 20
676.1602822652817
 10
548.237703034396
 20
678.6247330222272
 10
545.5603996794616
 20
682.5408799377569
 10
539.4738923044197
 20
688.33284493575
 10
538.6408845425276
 20
689.6083010143025
 10
536.270958222507
 20
691.9348221256728
 10
532.1158962192139
 20
696.996889911768
 10
529.6535457737764
 20
701.1084859975385
 10
528.3749834751152
 20
703.1799193211396
 10
522.4537035669146
 20
707.5242817634339
 10
519.8967003492571
 20
709.0817278869631
 10
513.583355875594
 20
713.2223369164835
 10
507.08755918140014
 20
716.4901684468527
 10
501.7619642101481
 20
723.9545755594831
 10
501.3009300698259
 20
724.9693190373941
 10
500.3068172338517
 20
726.026896163035
 10
496.0626857246152
 20
731.3286577966333
 10
493.2384439876505
 20
734.3851343405154
 10
489.7763039300917
 20
738.8526195770933
 10
486.17271893860834
 20
744.61868876576
 10
485.37530718591734
 20
748.9141281066736
 10
485.128510749214
 20
752.4594770285371
 10
481.74835800361507
 20
753.9486287398399
 10
479.6366317998527
 20
754.963538993416
 10
475.80383864047144
 20
753.5672765984223
 10
468.5872935831967
 20
754.2404340952812
 10
462.01628320689633
 20
758.054385477833
 10
457.3332114570103
 20
762.0423327368248
 10
452.9118328179593
 20
764.9250124599589
 10
447.842705199846
 20
768.3244660587147
 10
443.19901528227547
 20
772.8549239044992
 10
437.71610036524726
 20
778.8590984253274
 10
435.07276651436223
 20
782.1133943901527
 10
435.0303798211107
 20
783.9035433621207
 10
432.366129301261
 20
790.00168092789
 10
432.19382155350195
 20
793.4364996919626
 10
431.1375842100733
 20
797.2658149700551
 10
430.52728025678425
 20
802.6542033669407
 10
430.8807467305087
 20
806.2396726023449
 10
431.1768297281924
 20
809.1961226970693
 10
430.8932851342852
 20
812.0789922723684
 10
430.77074039421586
 20
816.0334285925751
 10
430.54791026979
 20
818.1709537816391
 10
429.44533192042945
 20
822.0085350789082
 10
429.00271159179647
 20
822.0971736073757
  0
LWPOLYLINE
  5
94
330
17
100
AcDbEntity
  8
GRABADO
100
AcDbPolyline
 90
371
 70
1
 10
228.85209773890165
 20
792.4856699983734
 10
229.9531323870042
 20
793.0370193297754
 10
237.3163341861382
 20
793.1307171018111
 10
239.23345826062268
 20
793.0831579022993
 10
246.80241580858637
 20
792.9503448811488
 10
248.47713387771273
 20
793.6285208419145
 10
254.99670811698434
 20
793.7527549468464
 10
257.7326702219343
 20
794.7207950207544
 10
261.82743723470776
 20
795.5822856361387
 10
266.99646521093655
 20
796.173546340558
 10
269.212918618352
 20
796.9641209326169
 10
271.0194470319093
 20
798.647880402335
 10
274.35033968863445
 20
800.0876338822313
 10
276.25641949883084
 20
800.4552307180888
 10
281.1953106598412
 20
801.9026569878529
 10
285.520509393451
 20
803.7042850860385
 10
288.12610809138187
 20
803.6619959419318
 10
290.8387222457468
 20
805.6240399445383
 10
293.78315611525704
 20
806.3806520543981
 10
294.78458367203166
 20
806.4935329969599
 10
301.32742824410616
 20
807.6785002399115
 10
304.0536625567065
 20
807.7004995624625
 10
310.11316006341804
 20
808.0357769356483
 10
313.305128142576
 20
808.452761575872
 10
317.7533327480205
 20
809.2487088101475
 10
322.57374505031567
 20
810.2938232459887
 10
326.2111027447063
 20
809.8661156570392
 10
331.8342550144289
 20
810.495172196866
 10
334.68023061083386
 20
810.4596091118242
 10
341.0836229151855
 20
810.8947253246247
 10
342.6397303776939
 20
811.4141635924029
 10
345.1561717916902
 20
812.5935728075906
 10
348.35121185878415
 20
814.0895432276088
 10
350.3459890511149
 20
814.5612990672521
 10
356.08582822406424
 20
815.2435085228749
 10
359.584559440691
 20
816.8029227384882
 10
361.6198765356021
 20
818.0359162542622
 10
366.4793909609716
 20
819.5683921632649
 10
368.2432055462659
 20
820.0325880661562
 10
368.8570926342136
 20
820.2188721816378
 10
374.6151207641087
 20
822.2028990289032
 10
378.1181681916705
 20
823.3785643955885
 10
381.1424386474655
 20
824.2516335791083
 10
384.444243533957
 20
826.5300446470915
 10
386.0756840527565
 20
827.5177603474444
 10
387.3887025638005
 20
827.6996359037644
 10
393.4662224144213
 20
828.9340071588563
 10
396.65789316882547
 20
829.656203075408
 10
402.7413766284217
 20
828.9374071530196
 10
405.9231076159149
 20
829.2663986100792
 10
412.6552313555403
 20
828.4501241480598
 10
415.1815392941562
 20
828.242134227497
 10
421.19142164261484
 20
828.972524315524
 10
424.43643440545384
 20
830.4770064350037
 10
430.55145343891854
 20
828.9260072820002
 10
433.74009869093425
 20
828.2874536398381
 10
435.6393301136377
 20
826.504253276395
 10
435.9023118252044
 20
824.8841949388766
 10
437.44618166604505
 20
819.51067565105
 10
437.75947589585485
 20
816.5053624801653
 10
437.88265365158986
 20
812.5304991703056
 10
438.2112204636851
 20
809.1898773196413
 10
437.8464453519591
 20
805.5475222298405
 10
437.566249971248
 20
802.7052953367024
 10
438.03139785986696
 20
798.5984933532595
 10
439.14647037592204
 20
794.5558752348229
 10
439.29319620091155
 20
791.6310118818969
 10
441.9958438333297
 20
785.4449881084206
 10
442.0141884559407
 20
784.6702259179942
 10
443.02177963571285
 20
783.4297470017841
 10
448.23186146175885
 20
777.724343758297
 10
452.2729591608522
 20
773.7817844786255
 10
456.7729444021634
 20
770.7640086056595
 10
461.53102784026305
 20
767.661801858008
 10
466.0750491239269
 20
763.7922653249766
 10
470.7699964200119
 20
761.0672200571303
 10
474.8867591990838
 20
760.6832094668093
 10
480.01118244282316
 20
762.5500045621179
 10
484.6763526870982
 20
760.3078914003086
 10
489.3110822896615
 20
758.2660264200726
 10
490.74956023232244
 20
756.8065934265383
 10
491.9828565198077
 20
754.795214936998
 10
492.3306577228759
 20
749.7988842087548
 10
492.8127070097735
 20
747.2022163464985
 10
495.52541361812746
 20
742.861634945119
 10
498.5855782889421
 20
738.9128517471331
 10
501.3723119881179
 20
735.8969674925752
 10
505.5977210920437
 20
730.6185938548365
 10
507.1947990280678
 20
728.9195582606039
 10
507.85437680873474
 20
727.4678170714592
 10
511.780231384495
 20
721.9653000800922
 10
517.0872012418495
 20
719.2955300353974
 10
523.6378987186181
 20
714.999252961476
 10
526.351986440025
 20
713.346128174056
 10
533.6153716731969
 20
708.0170813294367
 10
535.6348637553629
 20
704.7452476455187
 10
537.8552003931136
 20
701.0377626099166
 10
541.4430804790709
 20
696.6666865130733
 10
544.0864877127278
 20
694.0716932919345
 10
544.8893601574446
 20
692.8423787683937
 10
550.9216635377434
 20
687.1019946888086
 10
554.1552991855242
 20
682.3720890377858
 10
555.4699820090982
 20
680.1249666310637
 10
557.4251664208941
 20
677.664193244243
 10
560.959899254146
 20
673.1436610258793
 10
562.1054054813312
 20
667.1433403299802
 10
562.1054054813312
 20
666.178522677385
 10
563.3925215346571
 20
665.2096686371347
 10
567.6138409478499
 20
663.0255758740673
 10
572.6880145336836
 20
660.7205170185903
 10
572.6880145336836
 20
585.9420610265656
 10
572.6877690953197
 20
545.0908413814618
 10
572.6877729584967
 20
497.9136764909349
 10
572.687775744821
 20
462.19409888345353
 10
572.6877791782317
 20
419.8873171291557
 10
572.687782918626
 20
374.57968835831934
 10
572.6877860559935
 20
335.7250972528768
 10
572.6877895902262
 20
292.9414207859777
 10
572.6877945274246
 20
235.89240080333775
 10
572.687797862879
 20
195.5778707647546
 10
572.6878009065376
 20
158.43751466955973
 10
572.6878018908419
 20
142.51856741147685
 10
572.6878030950902
 20
124.41093191725076
 10
572.6878044054383
 20
105.29043155737281
 10
572.6878045591002
 20
97.67415251229886
 10
572.687801730619
 20
97.6741525122984
 10
572.6878017546933
 20
97.25252376273738
 10
572.6878023118725
 20
85.8612161676715
 10
572.6878017546933
 20
85.58803255586054
 10
572.6878034309148
 20
63.12365018146238
 10
572.6878051667545
 20
40.16128119287032
 10
572.6878046663878
 20
38.09072138156762
 10
572.5378049144438
 20
38.09072136820532
 10
572.5378039860561
 20
40.30210382332143
 10
572.5378021083698
 20
52.95624872759436
 10
572.5377996146326
 20
71.5357659192614
 10
572.5377976507498
 20
84.80825834356801
 10
572.5377964765257
 20
90.28930708055259
 10
572.5377960588676
 20
92.26419853285688
 10
572.5377918970244
 20
92.26419853285688
 10
572.5377893463183
 20
110.29101988489992
 10
572.5377844263203
 20
150.7790263056918
 10
572.5377767359787
 20
217.19483682936925
 10
572.5377677555562
 20
295.3533071744864
 10
572.5377602333101
 20
361.57507497905635
 10
570.7064514430322
 20
360.8122324337651
 10
565.19955183402
 20
359.35820454465966
 10
563.901824988774
 20
358.9618104822216
 10
563.3662693778488
 20
358.7918728474392
 10
555.5501371849941
 20
358.2643968817115
 10
554.0963407943236
 20
358.0261369922523
 10
546.2012232689021
 20
358.3238467292417
 10
544.8234490545938
 20
358.27770104626825
 10
540.326677414354
 20
359.35697956825743
 10
535.5563226928871
 20
360.2487556273313
 10
533.9510865733619
 20
360.5677815896747
 10
526.3008641636843
 20
360.94766418057543
 10
523.4352296225143
 20
361.50781981773935
 10
517.0340819040175
 20
363.42201307914775
 10
510.6153644776887
 20
364.1922721979131
 10
507.7789482430826
 20
364.53264790293497
 10
499.2417694603673
 20
365.7816999087586
 10
498.5277662302042
 20
365.87827003587654
 10
491.12498031805353
 20
364.93019810456235
 10
489.2727920080106
 20
365.0018247213061
 10
483.2413533883482
 20
363.90594695672235
 10
480.02484375388576
 20
363.003420750279
 10
476.2469698644454
 20
362.2023089503823
 10
470.7690885865841
 20
360.48127661947956
 10
469.7192513434784
 20
360.1432789160276
 10
464.59257650716063
 20
359.3563551585571
 10
462.09031115332164
 20
358.9115921490752
 10
461.4894637715088
 20
358.80053447199543
 10
455.038099300893
 20
359.3556334884729
 10
452.2091552379261
 20
359.60324177540906
 10
451.57859283409107
 20
359.8272773669819
 10
442.94048380885306
 20
363.07305656922154
 10
434.6238575284651
 20
365.62010376788794
 10
433.66599719956685
 20
365.94061603116324
 10
433.20534278005925
 20
366.3449360267364
 10
430.8136281845973
 20
368.4834115673616
 10
425.74861272723047
 20
373.3157637356567
 10
424.39523101616214
 20
374.4463706732781
 10
417.5088753147211
 20
380.29976701718033
 10
415.5341225070033
 20
386.9685984627781
 10
415.3702089141434
 20
387.30378762288865
 10
416.6606609795681
 20
393.1358269110565
 10
417.02045048366017
 20
394.31662104539146
 10
419.5172717395808
 20
397.98345703470886
 10
421.37948516564757
 20
401.29470650479243
 10
422.4259477278438
 20
402.77455520761714
 10
424.38772805188364
 20
405.089102799951
 10
426.1508627138819
 20
406.9440360217427
 10
427.08193083929564
 20
408.2643571802096
 10
428.934018693697
 20
411.81423896004844
 10
432.30756261092847
 20
415.2521126764009
 10
432.97395024311845
 20
415.7685627087335
 10
433.65945630571423
 20
416.3424692410558
 10
437.84569341018414
 20
419.0617643690207
 10
439.81158642192986
 20
422.2087891575261
 10
440.9092035438189
 20
423.70416519043056
 10
442.8991100123676
 20
427.815468308399
 10
443.48649806815047
 20
428.73318172663267
 10
443.713303058551
 20
429.1702603169192
 10
445.8745140447418
 20
433.88157580743655
 10
446.0589014199404
 20
436.1173547409894
 10
446.7447270635348
 20
440.20860604320796
 10
448.7587442178137
 20
443.1315949322002
 10
450.48923514453327
 20
444.40976878760875
 10
452.1834856762198
 20
445.81177294904546
 10
455.55202718571763
 20
447.57493257493434
 10
458.3747001654274
 20
450.1048402641568
 10
459.73378191251686
 20
451.36773308077727
 10
461.4188012835057
 20
454.7872889200148
 10
462.2592645839022
 20
456.42262312159755
 10
462.5890456627476
 20
457.04423215370707
 10
463.4441399288098
 20
462.4687273178174
 10
463.53912239245074
 20
463.9994133900277
 10
464.3441300340264
 20
468.76671452878554
 10
464.70977589150243
 20
470.96188503510666
 10
463.90859321675
 20
476.0510679009053
 10
464.1886009200398
 20
477.9352611077097
 10
463.8461859048084
 20
483.0752596426096
 10
464.2673192873599
 20
484.9266363476704
 10
465.8727080093913
 20
488.55619008468375
 10
467.9266042822228
 20
491.91975903075354
 10
469.0946506927421
 20
493.12771183709765
 10
470.68867960215084
 20
494.8280857562436
 10
472.6207095649588
 20
497.43470688148545
 10
473.8027686226733
 20
498.89669453625675
 10
476.66157422124616
 20
501.3645309287035
 10
478.9659810083722
 20
505.84385631819123
 10
479.1542662503143
 20
506.4299104631132
 10
479.9376545282312
 20
508.2926164405076
 10
481.355838047356
 20
511.74811262282356
 10
481.8403051196992
 20
512.82352620143
 10
484.44489351831453
 20
516.4109747223279
 10
486.5677583141478
 20
519.8006493570488
 10
487.59863355966536
 20
521.0285417174105
 10
489.21625555912306
 20
522.232229805571
 10
491.5952586995154
 20
524.9576448494313
 10
491.9849178100958
 20
526.742644800483
 10
492.85222331192927
 20
530.9527474482506
 10
492.9879060427238
 20
533.6994382777525
 10
492.963986818404
 20
537.8370375913423
 10
493.55359950307775
 20
540.6787946815671
 10
493.7982199107264
 20
544.1951179218108
 10
495.7175717702821
 20
547.6612381851623
 10
495.8677756425159
 20
549.6061483057533
 10
498.2844638135957
 20
554.5829048329829
 10
489.2205474123839
 20
560.4302257621835
 10
488.0576405995025
 20
561.5606350895509
 10
488.31152173838836
 20
562.2571650991372
 10
488.34290602661076
 20
568.5488858008471
 10
488.29619179047586
 20
569.2231737195993
 10
488.2632117916646
 20
575.514829223785
 10
488.11090927407076
 20
576.324422111476
 10
487.188785383918
 20
582.4765355719705
 10
486.6158675022698
 20
584.4389593056899
 10
489.2167118729476
 20
588.5012527825561
 10
490.0898267720995
 20
588.8768039510901
 10
490.7678304935898
 20
589.5092404358725
 10
492.88744570665494
 20
593.6643636838476
 10
492.52795891513324
 20
596.4333985202843
 10
492.98952388419366
 20
600.553019901909
 10
493.14593189322204
 20
603.4152704659505
 10
493.93161187091846
 20
606.8489495392655
 10
497.2009894149396
 20
610.4212581310971
 10
497.5986044691508
 20
611.0452741411259
 10
498.20858449530624
 20
617.3801301367425
 10
498.31867372717716
 20
617.4903734437744
 10
498.45466591003424
 20
618.0695694485244
 10
499.5029440251492
 20
623.5365093591167
 10
499.5548106060096
 20
624.3285715910638
 10
500.8522639772509
 20
629.4941097741644
 10
500.9829809382818
 20
631.2790121819139
 10
498.9592816239965
 20
637.8824671816715
 10
499.1867359096541
 20
638.2567456016645
 10
498.49990799361694
 20
639.3038371032349
 10
497.57857692632115
 20
638.906866515586
 10
489.23490850983944
 20
639.4442343390124
 10
483.3467139975337
 20
645.2157625618461
 10
485.1234814916752
 20
648.3471545448242
 10
488.73276928632913
 20
652.2439697317054
 10
488.8647143743501
 20
652.4818094127309
 10
489.2098038030181
 20
653.4891860509028
 10
494.83842235656175
 20
654.9667009018099
 10
494.04113766991577
 20
659.2015575005621
 10
496.21021300935627
 20
660.8791557556838
 10
494.757323841809
 20
666.1118120467995
 10
491.9222885725376
 20
671.0279284227104
 10
490.84748748670063
 20
673.0823411218566
 10
489.19803293876885
 20
678.0659016098093
 10
488.2536315030402
 20
680.0347531463863
 10
479.9820469302431
 20
686.7287728268225
 10
471.5654073532842
 20
686.3661222558535
 10
470.7669704084674
 20
686.2814225319321
 10
465.61761482933525
 20
683.879464156606
 10
461.4745206706066
 20
683.9940400936998
 10
452.922889766397
 20
686.4402527104971
 10
452.1961650189669
 20
686.6597907450664
 10
451.6040713186294
 20
686.9873830303154
 10
442.9377250352218
 20
691.7350042283183
 10
433.70234875223923
 20
693.9403580909016
 10
433.68831184833016
 20
693.9429094494367
 10
433.65582344995437
 20
693.9512600453868
 10
424.42048182793224
 20
696.3542905354766
 10
417.6850840589441
 20
699.0205993773575
 10
415.15455701923656
 20
700.0322641916168
 10
413.02437936146544
 20
700.92697277664
 10
405.8873701296934
 20
704.9320865730219
 10
399.92161829837005
 20
707.8990031351873
 10
396.6222442686658
 20
709.7685465123582
 10
389.1093878109923
 20
714.8770245599021
 10
387.3393604240355
 20
716.5205192446188
 10
384.8864631031256
 20
721.8721062151576
 10
382.98711857393846
 20
725.1439358112143
 10
381.1580757069041
 20
728.8380070432991
 10
378.0801877181375
 20
733.0041523727446
 10
376.0201704564797
 20
735.7981171840834
 10
368.8320856968512
 20
742.5913778050103
 10
368.6084083850765
 20
742.755418674004
 10
359.5865507393992
 20
747.771472915209
 10
354.94533634927575
 20
749.7206820029292
 10
350.32891569039475
 20
751.8210232831148
 10
343.94102577122976
 20
754.5292611247455
 10
341.06152514998666
 20
755.7394966088154
 10
339.7125129278147
 20
756.7013497898402
 10
332.3738874085184
 20
763.2337520278911
 10
331.8539685327396
 20
763.68120007079
 10
331.7731808715771
 20
763.8084744069843
 10
328.09719537674846
 20
770.6579444793056
 10
322.5316005075665
 20
776.8196378426414
 10
320.90340146124527
 20
777.6048437141812
 10
313.29033233824794
 20
781.4079469244393
 10
305.6787404560828
 20
783.3349173151478
 10
304.0475262643786
 20
783.7386355247313
 10
296.0719824934331
 20
783.6024981911419
 10
294.78390584734825
 20
783.8252274770343
 10
289.45415811757994
 20
784.5686671663211
 10
285.5225646789804
 20
785.2076690858171
 10
284.42270246789667
 20
785.396310582481
 10
276.259547600991
 20
786.8889813258534
 10
271.96890381829144
 20
787.8027101606053
 10
267.007945615891
 20
787.756374027857
 10
261.6344239325117
 20
788.614391978313
 10
257.75536749709227
 20
788.2529915992641
 10
252.72279506332234
 20
788.4018335012693
 10
252.24694820816057
 20
784.5895909403584
 10
249.79531284949098
 20
783.6075686199688
 10
248.51975207158193
 20
783.3016169636317
 10
244.18181533425286
 20
780.912878789542
 10
243.16464701158748
 20
777.6349445627216
 10
241.63109457519204
 20
775.8580302272435
 10
239.27657414837995
 20
773.3372555386809
 10
237.04334379599004
 20
772.3138643901352
 10
234.90964172708118
 20
770.6400026270198
 10
232.23739318655862
 20
768.9542349251528
 10
229.99408020096052
 20
768.0615390200478
 10
225.56923739651666
 20
766.9947632940534
 10
220.69244891762628
 20
764.2327431022582
 10
215.4681381745586
 20
770.6824080584051
 10
216.2197302026243
 20
774.0373834842462
 10
216.52174172060677
 20
777.6894240262468
 10
217.47232934968724
 20
780.0916566797009
 10
220.1412554364706
 20
784.6850074829904
 10
220.33622665416078
 20
784.932793368574
 10
220.66422911217342
 20
785.2537038682844
 10
225.3389920501504
 20
788.1471532985674
 10
227.96879185924718
 20
791.6638066722512
 10
228.85209773890165
 20
792.4856699983734
  0
TEXT
  5
95
330
17
100
AcDbEntity
  8
GRABADO
100
AcDbText
 10
443.40225914947655
 20
423.30030818227533
 30
0.0
 40
6.0
  1
82c
 72
1
 11
443.40225914947655
 21
423.30030818227533
 31
0.0
100
AcDbText
 73
2
  0
TEXT
  5
96
330
17
100
AcDbEntity
  8
HOJA
100
AcDbText
 10
10.0
 20
891.0
 30
0.0
 40
6.0
  1
gale_crater  hoja 31/39  1:30  lamina 3.0mm
 11
10.0
 21
891.0
 31
0.0
100
AcDbText
  0
ENDSEC
  0
SECTION
  2
OBJECTS
  0
DICTIONARY
  5
A
330
0
100
AcDbDictionary
281
1
  3
ACAD_COLOR
350
B
  3
ACAD_GROUP
350
C
  3
ACAD_LAYOUT
350
D
  3
ACAD_MATERIAL
350
E
  3
ACAD_MLEADERSTYLE
350
F
  3
ACAD_MLINESTYLE
350
10
  3
ACAD_PLOTSETTINGS
350
11
  3
ACAD_PLOTSTYLENAME
350
12
  3
ACAD_SCALELIST
350
14
  3
ACAD_TABLESTYLE
350
15
  3
ACAD_VISUALSTYLE
350
16
  3
EZDXF_META
350
2D
  0
DICTIONARY
  5
B
330
A
100
AcDbDictionary
281
1
  0
DICTIONARY
  5
C
330
A
100
AcDbDictionary
281
1
  0
DICTIONARY
  5
D
330
A
100
AcDbDictionary
281
1
  3
Model
350
1A
  3
Layout1
350
1E
  0
DICTIONARY
  5
E
330
A
100
AcDbDictionary
281
1
  3
ByBlock
350
1F
  3
ByLayer
350
20
  3
Global
350
21
  0
DICTIONARY
  5
F
330
A
100
AcDbDictionary
281
1
  3
Standard
350
2C
  0
DICTIONARY
  5
10
330
A
100
AcDbDictionary
281
1
  3
Standard
350
22
  0
DICTIONARY
  5
11
330
A
100
AcDbDictionary
281
1
  0
ACDBDICTIONARYWDFLT
  5
12
330
A
100
AcDbDictionary
281
1
  3
Normal
350
13
100
AcDbDictionaryWithDefault
340
13
  0
ACDBPLACEHOLDER
  5
13
330
12
  0
DICTIONARY
  5
14
330
A
100
AcDbDictionary
281
1
  0
DICTIONARY
  5
15
330
A
100
AcDbDictionary
281
1
  0
DICTIONARY
  5
16
330
A
100
AcDbDictionary
281
1
  3
2dWireframe
350
5A
  3
Basic
350
5B
  3
Brighten
350
5C
  3
ColorChange
350
5D
  3
Conceptual
350
5E
  3
Dim
350
5F
  3
EdgeColorOff
350
60
  3
Facepattern
350
61
  3
Flat
350
62
  3
FlatWithEdges
350
63
  3
Gouraud
350
64
  3
GouraudWithEdges
350
65
  3
Hidden
350
66
  3
JitterOff
350
67
  3
Linepattern
350
68
  3
Modeling
350
69
  3
OverhangOff
350
6A
  3
Realistic
350
6B
  3
Shaded
350
6C
  3
Shaded with edges
350
6D
  3
Shades of Gray
350
6E
  3
Sketchy
350
6F
  3
Thicken
350
70
  3
Wireframe
350
71
  3
X-Ray
350
72
  0
LAYOUT
  5
1A
330
D
100
AcDbPlotSettings
  1

  4
A3
  6

 40
7.5
 41
20.0
 42
7.5
 43
20.0
 44
420.0
 45
297.0
 46
0.0
 47
0.0
 48
0.0
 49
0.0
140
0.0
141
0.0
142
1.0
143
1.0
 70
1024
 72
1
 73
0
 74
5
  7

 75
16
 76
0
 77
2
 78
300
147
1.0
148
0.0
149
0.0
100
AcDbLayout
  1
Model
 70
1
 71
0
 10
0.0
 20
0.0
 11
420.0
 21
297.0
 12
0.0
 22
0.0
 32
0.0
 14
1e+20
 24
1e+20
 34
1e+20
 15
-1e+20
 25
-1e+20
 35
-1e+20
146
0.0
 13
0.0
 23
0.0
 33
0.0
 16
1.0
 26
0.0
 36
0.0
 17
0.0
 27
1.0
 37
0.0
 76
1
330
17
  0
LAYOUT
  5
1E
330
D
100
AcDbPlotSettings
  1

  4
A3
  6

 40
7.5
 41
20.0
 42
7.5
 43
20.0
 44
420.0
 45
297.0
 46
0.0
 47
0.0
 48
0.0
 49
0.0
140
0.0
141
0.0
142
1.0
143
1.0
 70
0
 72
1
 73
0
 74
5
  7

 75
16
 76
0
 77
2
 78
300
147
1.0
148
0.0
149
0.0
100
AcDbLayout
  1
Layout1
 70
1
 71
1
 10
0.0
 20
0.0
 11
420.0
 21
297.0
 12
0.0
 22
0.0
 32
0.0
 14
1e+20
 24
1e+20
 34
1e+20
 15
-1e+20
 25
-1e+20
 35
-1e+20
146
0.0
 13
0.0
 23
0.0
 33
0.0
 16
1.0
 26
0.0
 36
0.0
 17
0.0
 27
1.0
 37
0.0
 76
1
330
1B
  0
MATERIAL
  5
1F
102
{ACAD_REACTORS
330
E
102
}
330
E
100
AcDbMaterial
  1
ByBlock
  2

 70
0
 40
1.0
 71
1
 41
1.0
 91
-1023410177
 42
1.0
 72
1
  3

 73
1
 74
1
 75
1
 44
0.5
 73
0
 45
1.0
 46
1.0
 77
1
  4

 78
1
 79
1
170
1
 48
1.0
171
1
  6

172
1
173
1
174
1
140
1.0
141
1.0
175
1
  7

176
1
177
1
178
1
143
1.0
179
1
  8

270
1
271
1
272
1
145
1.0
146
1.0
273
1
  9

274
1
275
1
276
1
 42
1.0
 72
1
  3

 73
1
 74
1
 75
1
 94
63
  0
MATERIAL
  5
20
102
{ACAD_REACTORS
330
E
102
}
330
E
100
AcDbMaterial
  1
ByLayer
  2

 70
0
 40
1.0
 71
1
 41
1.0
 91
-1023410177
 42
1.0
 72
1
  3

 73
1
 74
1
 75
1
 44
0.5
 73
0
 45
1.0
 46
1.0
 77
1
  4

 78
1
 79
1
170
1
 48
1.0
171
1
  6

172
1
173
1
174
1
140
1.0
141
1.0
175
1
  7

176
1
177
1
178
1
143
1.0
179
1
  8

270
1
271
1
272
1
145
1.0
146
1.0
273
1
  9

274
1
275
1
276
1
 42
1.0
 72
1
  3

 73
1
 74
1
 75
1
 94
63
  0
MATERIAL
  5
21
102
{ACAD_REACTORS
330
E
102
}
330
E
100
AcDbMaterial
  1
Global
  2

 70
0
 40
1.0
 71
1
 41
1.0
 91
-1023410177
 42
1.0
 72
1
  3

 73
1
 74
1
 75
1
 44
0.5
 73
0
 45
1.0
 46
1.0
 77
1
  4

 78
1
 79
1
170
1
 48
1.0
171
1
  6

172
1
173
1
174
1
140
1.0
141
1.0
175
1
  7

176
1
177
1
178
1
143
1.0
179
1
  8

270
1
271
1
272
1
145
1.0
146
1.0
273
1
  9

274
1
275
1
276
1
 42
1.0
 72
1
  3

 73
1
 74
1
 75
1
 94
63
  0
MLINESTYLE
  5
22
102
{ACAD_REACTORS
330
10
102
}
330
10
100
AcDbMlineStyle
  2
Standard
 70
0
  3

 62
256
 51
90.0
 52
90.0
 71
2
 49
0.5
 62
256
  6
BYLAYER
 49
-0.5
 62
256
  6
BYLAYER
  0
MLEADERSTYLE
  5
2C
102
{ACAD_REACTORS
330
F
102
}
330
F
100
AcDbMLeaderStyle
179
2
170
2
171
1
172
0
 90
2
 40
0.0
 41
0.0
173
1
 91
-1056964608
 92
-2
290
1
 42
2.0
291
1
 43
8.0
  3
Standard
 44
4.0
300

342
29
174
1
175
1
176
0
178
1
 93
-1056964608
 45
4.0
292
0
297
0
 46
4.0
 94
-1056964608
 47
1.0
 49
1.0
140
1.0
294
1
141
0.0
177
0
142
1.0
295
0
296
0
143
3.75
271
0
272
9
273
9
  0
DICTIONARY
  5
2D
330
A
100
AcDbDictionary
280
1
281
1
  3
CREATED_BY_EZDXF
350
2E
  3
WRITTEN_BY_EZDXF
350
99
  0
DICTIONARYVAR
  5
2E
330
2D
100
DictionaryVariables
280
0
  1
1.4.2 @ 2026-09-06T16:30:42.682360+00:00
  0
VISUALSTYLE
  5
5A
102
{ACAD_REACTORS
330
16
102
}
330
16
100
AcDbVisualStyle
  2
2dWireframe
 70
4
 90
0
 40
0.6
 62
7
290
0
291
0
  0
VISUALSTYLE
  5
5B
102
{ACAD_REACTORS
330
16
102
}
330
16
100
AcDbVisualStyle
  2
Basic
 70
7
 90
1
 40
0.6
 62
7
290
0
291
1
  0
VISUALSTYLE
  5
5C
102
{ACAD_REACTORS
330
16
102
}
330
16
100
AcDbVisualStyle
  2
Brighten
 70
12
 90
2
 40
0.6
 62
7
290
0
291
1
  0
VISUALSTYLE
  5
5D
102
{ACAD_REACTORS
330
16
102
}
330
16
100
AcDbVisualStyle
  2
ColorChange
 70
16
 90
2
 40
0.6
 62
8
290
0
291
1
  0
VISUALSTYLE
  5
5E
102
{ACAD_REACTORS
330
16
102
}
330
16
100
AcDbVisualStyle
  2
Conceptual
 70
9
 90
3
 40
0.6
 62
7
290
0
291
0
  0
VISUALSTYLE
  5
5F
102
{ACAD_REACTORS
330
16
102
}
330
16
100
AcDbVisualStyle
  2
Dim
 70
11
 90
2
 40
0.6
 62
7
290
0
291
1
  0
VISUALSTYLE
  5
60
102
{ACAD_REACTORS
330
16
102
}
330
16
100
AcDbVisualStyle
  2
EdgeColorOff
 70
22
 90
2
 40
0.6
 62
7
290
0
291
1
  0
VISUALSTYLE
  5
61
102
{ACAD_REACTORS
330
16
102
}
330
16
100
AcDbVisualStyle
  2
Facepattern
 70
15
 90
2
 40
0.6
 62
7
290
0
291
1
  0
VISUALSTYLE
  5
62
102
{ACAD_REACTORS
330
16
102
}
330
16
100
AcDbVisualStyle
  2
Flat
 70
0
 90
2
 40
0.6
 62
7
290
0
291
1
  0
VISUALSTYLE
  5
63
102
{ACAD_REACTORS
330
16
102
}
330
16
100
AcDbVisualStyle
  2
FlatWithEdges
 70
1
 90
2
 40
0.6
 62
7
290
0
291
1
  0
VISUALSTYLE
  5
64
102
{ACAD_REACTORS
330
16
102
}
330
16
100
AcDbVisualStyle
  2
Gouraud
 70
2
 90
2
 40
0.6
 62
7
290
0
291
1
  0
VISUALSTYLE
  5
65
102
{ACAD_REACTORS
330
16
102
}
330
16
100
AcDbVisualStyle
  2
GouraudWithEdges
 70
3
 90
2
 40
0.6
 62
7
290
0
291
1
  0
VISUALSTYLE
  5
66
102
{ACAD_REACTORS
330
16
102
}
330
16
100
AcDbVisualStyle
  2
Hidden
 70
6
 90
1
 40
0.6
 62
7
290
0
291
0
  0
VISUALSTYLE
  5
67
102
{ACAD_REACTORS
330
16
102
}
330
16
100
AcDbVisualStyle
  2
JitterOff
 70
20
 90
2
 40
0.6
 62
7
290
0
291
1
  0
VISUALSTYLE
  5
68
102
{ACAD_REACTORS
330
16
102
}
330
16
100
AcDbVisualStyle
  2
Linepattern
 70
14
 90
2
 40
0.6
 62
7
290
0
291
1
  0
VISUALSTYLE
  5
69
102
{ACAD_REACTORS
330
16
102
}
330
16
100
AcDbVisualStyle
  2
Modeling
 70
10
 90
2
 40
0.6
 62
7
290
0
291
0
  0
VISUALSTYLE
  5
6A
102
{ACAD_REACTORS
330
16
102
}
330
16
100
AcDbVisualStyle
  2
OverhangOff
 70
21
 90
2
 40
0.6
 62
7
290
0
291
1
  0
VISUALSTYLE
  5
6B
102
{ACAD_REACTORS
330
16
102
}
330
16
100
AcDbVisualStyle
  2
Realistic
 70
8
 90
2
 40
0.6
 62
7
290
0
291
0
  0
VISUALSTYLE
  5
6C
102
{ACAD_REACTORS
330
16
102
}
330
16
100
AcDbVisualStyle
  2
Shaded
 70
27
 90
2
 40
0.6
 62
7
290
0
291
0
  0
VISUALSTYLE
  5
6D
102
{ACAD_REACTORS
330
16
102
}
330
16
100
AcDbVisualStyle
  2
Shaded with edges
 70
26
 90
2
 40
0.6
 62
7
290
0
291
0
  0
VISUALSTYLE
  5
6E
102
{ACAD_REACTORS
330
16
102
}
330
16
100
AcDbVisualStyle
  2
Shades of Gray
 70
23
 90
2
 40
0.6
 62
7
290
0
291
0
  0
VISUALSTYLE
  5
6F
102
{ACAD_REACTORS
330
16
102
}
330
16
100
AcDbVisualStyle
  2
Sketchy
 70
24
 90
1
 40
0.6
 62
7
290
0
291
0
  0
VISUALSTYLE
  5
70
102
{ACAD_REACTORS
330
16
102
}
330
16
100
AcDbVisualStyle
  2
Thicken
 70
13
 90
2
 40
0.6
 62
7
290
0
291
1
  0
VISUALSTYLE
  5
71
102
{ACAD_REACTORS
330
16
102
}
330
16
100
AcDbVisualStyle
  2
Wireframe
 70
5
 90
0
 40
0.6
 62
7
290
0
291
0
  0
VISUALSTYLE
  5
72
102
{ACAD_REACTORS
330
16
102
}
330
16
100
AcDbVisualStyle
  2
X-Ray
 70
25
 90
2
 40
0.5
 62
7
290
0
291
0
  0
DICTIONARYVAR
  5
99
330
2D
100
DictionaryVariables
280
0
  1
1.4.2 @ 2026-09-06T16:30:42.692499+00:00
  0
ENDSEC
  0
EOF
