  0
SECTION
  2
HEADER
  9
$ACADVER
  1
AC1024
  9
$ACADMAINTVER
 70
6
  9
$DWGCODEPAGE
  3
ANSI_1252
  9
$LASTSAVEDBY
  1
ezdxf
  9
$INSBASE
 10
0.0
 20
0.0
 30
0.0
  9
$EXTMIN
 10
1e+20
 20
1e+20
 30
1e+20
  9
$EXTMAX
 10
-1e+20
 20
-1e+20
 30
-1e+20
  9
$LIMMIN
 10
0.0
 20
0.0
  9
$LIMMAX
 10
420.0
 20
297.0
  9
$ORTHOMODE
 70
0
  9
$REGENMODE
 70
1
  9
$FILLMODE
 70
1
  9
$QTEXTMODE
 70
0
  9
$MIRRTEXT
 70
1
  9
$LTSCALE
 40
1.0
  9
$ATTMODE
 70
1
  9
$TEXTSIZE
 40
2.5
  9
$TRACEWID
 40
1.0
  9
$TEXTSTYLE
  7
OpenSans
  9
$CLAYER
  8
0
  9
$CELTYPE
  6
ByLayer
  9
$CECOLOR
 62
256
  9
$CELTSCALE
 40
1.0
  9
$DISPSILH
 70
0
  9
$DIMSCALE
 40
1.0
  9
$DIMASZ
 40
0.175
  9
$DIMEXO
 40
0.125
  9
$DIMDLI
 40
3.75
  9
$DIMRND
 40
0.0
  9
$DIMDLE
 40
0.0
  9
$DIMEXE
 40
0.375
  9
$DIMTP
 40
0.0
  9
$DIMTM
 40
0.0
  9
$DIMTXT
 40
0.25
  9
$DIMCEN
 40
2.5
  9
$DIMTSZ
 40
0.0
  9
$DIMTOL
 70
0
  9
$DIMLIM
 70
0
  9
$DIMTIH
 70
0
  9
$DIMTOH
 70
0
  9
$DIMSE1
 70
0
  9
$DIMSE2
 70
0
  9
$DIMTAD
 70
1
  9
$DIMZIN
 70
12
  9
$DIMBLK
  1
ARCHTICK
  9
$DIMASO
 70
1
  9
$DIMSHO
 70
1
  9
$DIMPOST
  1

  9
$DIMAPOST
  1

  9
$DIMALT
 70
0
  9
$DIMALTD
 70
3
  9
$DIMALTF
 40
0.03937007874
  9
$DIMLFAC
 40
100.0
  9
$DIMTOFL
 70
1
  9
$DIMTVP
 40
0.0
  9
$DIMTIX
 70
0
  9
$DIMSOXD
 70
0
  9
$DIMSAH
 70
0
  9
$DIMBLK1
  1

  9
$DIMBLK2
  1

  9
$DIMSTYLE
  2
EZDXF
  9
$DIMCLRD
 70
0
  9
$DIMCLRE
 70
0
  9
$DIMCLRT
 70
0
  9
$DIMTFAC
 40
0.5
  9
$DIMGAP
 40
0.1
  9
$DIMJUST
 70
0
  9
$DIMSD1
 70
0
  9
$DIMSD2
 70
0
  9
$DIMTOLJ
 70
0
  9
$DIMTZIN
 70
8
  9
$DIMALTZ
 70
0
  9
$DIMALTTZ
 70
0
  9
$DIMUPT
 70
1
  9
$DIMDEC
 70
2
  9
$DIMTDEC
 70
2
  9
$DIMALTU
 70
2
  9
$DIMALTTD
 70
3
  9
$DIMTXSTY
  7
OpenSansCondensed-Light
  9
$DIMAUNIT
 70
0
  9
$DIMADEC
 70
2
  9
$DIMALTRND
 40
0.0
  9
$DIMAZIN
 70
3
  9
$DIMDSEP
 70
46
  9
$DIMATFIT
 70
3
  9
$DIMFRAC
 70
0
  9
$DIMLDRBLK
  1

  9
$DIMLUNIT
 70
2
  9
$DIMLWD
 70
-2
  9
$DIMLWE
 70
-2
  9
$DIMTMOVE
 70
2
  9
$DIMFXL
 40
1.0
  9
$DIMFXLON
 70
0
  9
$DIMJOGANG
 40
0.785398163397
  9
$DIMTFILL
 70
0
  9
$DIMTFILLCLR
 70
0
  9
$DIMARCSYM
 70
0
  9
$DIMLTYPE
  6

  9
$DIMLTEX1
  6

  9
$DIMLTEX2
  6

  9
$DIMTXTDIRECTION
 70
0
  9
$LUNITS
 70
2
  9
$LUPREC
 70
4
  9
$SKETCHINC
 40
1.0
  9
$FILLETRAD
 40
10.0
  9
$AUNITS
 70
0
  9
$AUPREC
 70
2
  9
$MENU
  1
.
  9
$ELEVATION
 40
0.0
  9
$PELEVATION
 40
0.0
  9
$THICKNESS
 40
0.0
  9
$LIMCHECK
 70
0
  9
$CHAMFERA
 40
0.0
  9
$CHAMFERB
 40
0.0
  9
$CHAMFERC
 40
0.0
  9
$CHAMFERD
 40
0.0
  9
$SKPOLY
 70
0
  9
$TDCREATE
 40
2461290.4379861113
  9
$TDUCREATE
 40
2458532.153996898
  9
$TDUPDATE
 40
2461290.4379861113
  9
$TDUUPDATE
 40
2458532.1544311
  9
$TDINDWG
 40
0.0
  9
$TDUSRTIMER
 40
0.0
  9
$USRTIMER
 70
1
  9
$ANGBASE
 50
0.0
  9
$ANGDIR
 70
0
  9
$PDMODE
 70
0
  9
$PDSIZE
 40
0.0
  9
$PLINEWID
 40
0.0
  9
$SPLFRAME
 70
0
  9
$SPLINETYPE
 70
6
  9
$SPLINESEGS
 70
8
  9
$HANDSEED
  5
96
  9
$SURFTAB1
 70
6
  9
$SURFTAB2
 70
6
  9
$SURFTYPE
 70
6
  9
$SURFU
 70
6
  9
$SURFV
 70
6
  9
$UCSBASE
  2

  9
$UCSNAME
  2

  9
$UCSORG
 10
0.0
 20
0.0
 30
0.0
  9
$UCSXDIR
 10
1.0
 20
0.0
 30
0.0
  9
$UCSYDIR
 10
0.0
 20
1.0
 30
0.0
  9
$UCSORTHOREF
  2

  9
$UCSORTHOVIEW
 70
0
  9
$UCSORGTOP
 10
0.0
 20
0.0
 30
0.0
  9
$UCSORGBOTTOM
 10
0.0
 20
0.0
 30
0.0
  9
$UCSORGLEFT
 10
0.0
 20
0.0
 30
0.0
  9
$UCSORGRIGHT
 10
0.0
 20
0.0
 30
0.0
  9
$UCSORGFRONT
 10
0.0
 20
0.0
 30
0.0
  9
$UCSORGBACK
 10
0.0
 20
0.0
 30
0.0
  9
$PUCSBASE
  2

  9
$PUCSNAME
  2

  9
$PUCSORG
 10
0.0
 20
0.0
 30
0.0
  9
$PUCSXDIR
 10
1.0
 20
0.0
 30
0.0
  9
$PUCSYDIR
 10
0.0
 20
1.0
 30
0.0
  9
$PUCSORTHOREF
  2

  9
$PUCSORTHOVIEW
 70
0
  9
$PUCSORGTOP
 10
0.0
 20
0.0
 30
0.0
  9
$PUCSORGBOTTOM
 10
0.0
 20
0.0
 30
0.0
  9
$PUCSORGLEFT
 10
0.0
 20
0.0
 30
0.0
  9
$PUCSORGRIGHT
 10
0.0
 20
0.0
 30
0.0
  9
$PUCSORGFRONT
 10
0.0
 20
0.0
 30
0.0
  9
$PUCSORGBACK
 10
0.0
 20
0.0
 30
0.0
  9
$USERI1
 70
0
  9
$USERI2
 70
0
  9
$USERI3
 70
0
  9
$USERI4
 70
0
  9
$USERI5
 70
0
  9
$USERR1
 40
0.0
  9
$USERR2
 40
0.0
  9
$USERR3
 40
0.0
  9
$USERR4
 40
0.0
  9
$USERR5
 40
0.0
  9
$WORLDVIEW
 70
1
  9
$SHADEDGE
 70
3
  9
$SHADEDIF
 70
70
  9
$TILEMODE
 70
1
  9
$MAXACTVP
 70
64
  9
$PINSBASE
 10
0.0
 20
0.0
 30
0.0
  9
$PLIMCHECK
 70
0
  9
$PEXTMIN
 10
1e+20
 20
1e+20
 30
1e+20
  9
$PEXTMAX
 10
-1e+20
 20
-1e+20
 30
-1e+20
  9
$PLIMMIN
 10
0.0
 20
0.0
  9
$PLIMMAX
 10
420.0
 20
297.0
  9
$UNITMODE
 70
0
  9
$VISRETAIN
 70
1
  9
$PLINEGEN
 70
0
  9
$PSLTSCALE
 70
1
  9
$TREEDEPTH
 70
3020
  9
$CMLSTYLE
  2
Standard
  9
$CMLJUST
 70
0
  9
$CMLSCALE
 40
20.0
  9
$PROXYGRAPHICS
 70
1
  9
$MEASUREMENT
 70
1
  9
$CELWEIGHT
370
-1
  9
$ENDCAPS
280
0
  9
$JOINSTYLE
280
0
  9
$LWDISPLAY
290
0
  9
$INSUNITS
 70
4
  9
$HYPERLINKBASE
  1

  9
$STYLESHEET
  1

  9
$XEDIT
290
1
  9
$CEPSNTYPE
380
0
  9
$PSTYLEMODE
290
1
  9
$FINGERPRINTGUID
  2
{31088A1E-F74E-43A2-ACE0-E198E828AE83}
  9
$VERSIONGUID
  2
{CC3DC498-E2C4-41BA-A2B4-997C9C58C08C}
  9
$EXTNAMES
290
1
  9
$PSVPSCALE
 40
0.0
  9
$OLESTARTUP
290
0
  9
$SORTENTS
280
127
  9
$INDEXCTL
280
0
  9
$HIDETEXT
280
1
  9
$XCLIPFRAME
280
1
  9
$HALOGAP
280
0
  9
$OBSCOLOR
 70
257
  9
$OBSLTYPE
280
0
  9
$INTERSECTIONDISPLAY
280
0
  9
$INTERSECTIONCOLOR
 70
257
  9
$DIMASSOC
280
2
  9
$PROJECTNAME
  1

  9
$CAMERADISPLAY
290
0
  9
$LENSLENGTH
 40
50.0
  9
$CAMERAHEIGHT
 40
0.0
  9
$STEPSPERSEC
 40
24.0
  9
$STEPSIZE
 40
100.0
  9
$3DDWFPREC
 40
2.0
  9
$PSOLWIDTH
 40
0.005
  9
$PSOLHEIGHT
 40
0.08
  9
$LOFTANG1
 40
1.570796326795
  9
$LOFTANG2
 40
1.570796326795
  9
$LOFTMAG1
 40
0.0
  9
$LOFTMAG2
 40
0.0
  9
$LOFTPARAM
 70
7
  9
$LOFTNORMALS
280
1
  9
$LATITUDE
 40
37.795
  9
$LONGITUDE
 40
-122.394
  9
$NORTHDIRECTION
 40
0.0
  9
$TIMEZONE
 70
-8000
  9
$LIGHTGLYPHDISPLAY
280
1
  9
$TILEMODELIGHTSYNCH
280
1
  9
$CMATERIAL
347
20
  9
$SOLIDHIST
280
0
  9
$SHOWHIST
280
1
  9
$DWFFRAME
280
2
  9
$DGNFRAME
280
2
  9
$REALWORLDSCALE
290
1
  9
$INTERFERECOLOR
 62
256
  9
$CSHADOW
280
0
  9
$SHADOWPLANELOCATION
 40
0.0
  0
ENDSEC
  0
SECTION
  2
CLASSES
  0
CLASS
  1
ACDBDICTIONARYWDFLT
  2
AcDbDictionaryWithDefault
  3
ObjectDBX Classes
 90
0
 91
0
280
0
281
0
  0
CLASS
  1
SUN
  2
AcDbSun
  3
SCENEOE
 90
1153
 91
0
280
0
281
0
  0
CLASS
  1
VISUALSTYLE
  2
AcDbVisualStyle
  3
ObjectDBX Classes
 90
4095
 91
0
280
0
281
0
  0
CLASS
  1
MATERIAL
  2
AcDbMaterial
  3
ObjectDBX Classes
 90
1153
 91
0
280
0
281
0
  0
CLASS
  1
SCALE
  2
AcDbScale
  3
ObjectDBX Classes
 90
1153
 91
0
280
0
281
0
  0
CLASS
  1
TABLESTYLE
  2
AcDbTableStyle
  3
ObjectDBX Classes
 90
4095
 91
0
280
0
281
0
  0
CLASS
  1
MLEADERSTYLE
  2
AcDbMLeaderStyle
  3
ACDB_MLEADERSTYLE_CLASS
 90
4095
 91
0
280
0
281
0
  0
CLASS
  1
DICTIONARYVAR
  2
AcDbDictionaryVar
  3
ObjectDBX Classes
 90
0
 91
0
280
0
281
0
  0
CLASS
  1
CELLSTYLEMAP
  2
AcDbCellStyleMap
  3
ObjectDBX Classes
 90
1152
 91
0
280
0
281
0
  0
CLASS
  1
MENTALRAYRENDERSETTINGS
  2
AcDbMentalRayRenderSettings
  3
SCENEOE
 90
1024
 91
0
280
0
281
0
  0
CLASS
  1
ACDBDETAILVIEWSTYLE
  2
AcDbDetailViewStyle
  3
ObjectDBX Classes
 90
1025
 91
0
280
0
281
0
  0
CLASS
  1
ACDBSECTIONVIEWSTYLE
  2
AcDbSectionViewStyle
  3
ObjectDBX Classes
 90
1025
 91
0
280
0
281
0
  0
CLASS
  1
RASTERVARIABLES
  2
AcDbRasterVariables
  3
ISM
 90
0
 91
0
280
0
281
0
  0
CLASS
  1
LAYOUT
  2
AcDbLayout
  3
ObjectDBX Classes
 90
0
 91
0
280
0
281
0
  0
CLASS
  1
ACDBPLACEHOLDER
  2
AcDbPlaceHolder
  3
ObjectDBX Classes
 90
0
 91
0
280
0
281
0
  0
ENDSEC
  0
SECTION
  2
TABLES
  0
TABLE
  2
VPORT
  5
8
330
0
100
AcDbSymbolTable
 70
1
  0
VPORT
  5
23
330
8
100
AcDbSymbolTableRecord
100
AcDbViewportTableRecord
  2
*Active
 70
0
 10
0.0
 20
0.0
 11
1.0
 21
1.0
 12
0.0
 22
0.0
 13
0.0
 23
0.0
 14
0.5
 24
0.5
 15
0.5
 25
0.5
 16
0.0
 26
0.0
 36
1.0
 17
0.0
 27
0.0
 37
0.0
 40
1000.0
 41
1.34
 42
50.0
 43
0.0
 44
0.0
 50
0.0
 51
0.0
 71
0
 72
1000
 73
1
 74
3
 75
0
 76
0
 77
0
 78
0
281
0
 65
0
146
0.0
  0
ENDTAB
  0
TABLE
  2
LTYPE
  5
2
330
0
100
AcDbSymbolTable
 70
21
  0
LTYPE
  5
24
330
2
100
AcDbSymbolTableRecord
100
AcDbLinetypeTableRecord
  2
ByBlock
 70
0
  3

 72
65
 73
0
 40
0.0
  0
LTYPE
  5
25
330
2
100
AcDbSymbolTableRecord
100
AcDbLinetypeTableRecord
  2
ByLayer
 70
0
  3

 72
65
 73
0
 40
0.0
  0
LTYPE
  5
26
330
2
100
AcDbSymbolTableRecord
100
AcDbLinetypeTableRecord
  2
Continuous
 70
0
  3

 72
65
 73
0
 40
0.0
  0
LTYPE
  5
2F
330
2
100
AcDbSymbolTableRecord
100
AcDbLinetypeTableRecord
  2
CENTER
 70
0
  3
Center ____ _ ____ _ ____ _ ____ _ ____ _ ____
 72
65
 73
4
 40
5.08
 49
3.175
 74
0
 49
-0.635
 74
0
 49
0.635
 74
0
 49
-0.635
 74
0
  0
LTYPE
  5
30
330
2
100
AcDbSymbolTableRecord
100
AcDbLinetypeTableRecord
  2
CENTERX2
 70
0
  3
Center (2x) ________  __  ________  __  ________
 72
65
 73
4
 40
8.89
 49
6.35
 74
0
 49
-0.635
 74
0
 49
1.27
 74
0
 49
-0.635
 74
0
  0
LTYPE
  5
31
330
2
100
AcDbSymbolTableRecord
100
AcDbLinetypeTableRecord
  2
CENTER2
 70
0
  3
Center (.5x) ____ _ ____ _ ____ _ ____ _ ____
 72
65
 73
4
 40
2.54
 49
1.587
 74
0
 49
-0.318
 74
0
 49
0.318
 74
0
 49
-0.318
 74
0
  0
LTYPE
  5
32
330
2
100
AcDbSymbolTableRecord
100
AcDbLinetypeTableRecord
  2
DASHED
 70
0
  3
Dashed __ __ __ __ __ __ __ __ __ __ __ __ __ _
 72
65
 73
2
 40
1.524
 49
1.27
 74
0
 49
-0.254
 74
0
  0
LTYPE
  5
33
330
2
100
AcDbSymbolTableRecord
100
AcDbLinetypeTableRecord
  2
DASHEDX2
 70
0
  3
Dashed (2x) ____  ____  ____  ____  ____  ____
 72
65
 73
2
 40
3.048
 49
2.54
 74
0
 49
-0.508
 74
0
  0
LTYPE
  5
34
330
2
100
AcDbSymbolTableRecord
100
AcDbLinetypeTableRecord
  2
DASHED2
 70
0
  3
Dashed (.5x) _ _ _ _ _ _ _ _ _ _ _ _ _ _
 72
65
 73
2
 40
0.762
 49
0.635
 74
0
 49
-0.127
 74
0
  0
LTYPE
  5
35
330
2
100
AcDbSymbolTableRecord
100
AcDbLinetypeTableRecord
  2
PHANTOM
 70
0
  3
Phantom ______  __  __  ______  __  __  ______
 72
65
 73
6
 40
6.35
 49
3.175
 74
0
 49
-0.635
 74
0
 49
0.635
 74
0
 49
-0.635
 74
0
 49
0.635
 74
0
 49
-0.635
 74
0
  0
LTYPE
  5
36
330
2
100
AcDbSymbolTableRecord
100
AcDbLinetypeTableRecord
  2
PHANTOMX2
 70
0
  3
Phantom (2x)____________    ____    ____    ____________
 72
65
 73
6
 40
10.795
 49
6.35
 74
0
 49
-0.635
 74
0
 49
1.27
 74
0
 49
-0.635
 74
0
 49
1.27
 74
0
 49
-0.635
 74
0
  0
LTYPE
  5
37
330
2
100
AcDbSymbolTableRecord
100
AcDbLinetypeTableRecord
  2
PHANTOM2
 70
0
  3
Phantom (.5x) ___ _ _ ___ _ _ ___ _ _ ___ _ _ ___
 72
65
 73
6
 40
3.175
 49
1.587
 74
0
 49
-0.318
 74
0
 49
0.318
 74
0
 49
-0.318
 74
0
 49
0.318
 74
0
 49
-0.318
 74
0
  0
LTYPE
  5
38
330
2
100
AcDbSymbolTableRecord
100
AcDbLinetypeTableRecord
  2
DASHDOT
 70
0
  3
Dash dot __ . __ . __ . __ . __ . __ . __ . __
 72
65
 73
4
 40
3.556
 49
2.54
 74
0
 49
-0.508
 74
0
 49
0.0
 74
0
 49
-0.508
 74
0
  0
LTYPE
  5
39
330
2
100
AcDbSymbolTableRecord
100
AcDbLinetypeTableRecord
  2
DASHDOTX2
 70
0
  3
Dash dot (2x) ____  .  ____  .  ____  .  ____
 72
65
 73
4
 40
6.096
 49
5.08
 74
0
 49
-0.508
 74
0
 49
0.0
 74
0
 49
-0.508
 74
0
  0
LTYPE
  5
3A
330
2
100
AcDbSymbolTableRecord
100
AcDbLinetypeTableRecord
  2
DASHDOT2
 70
0
  3
Dash dot (.5x) _ . _ . _ . _ . _ . _ . _ . _
 72
65
 73
4
 40
1.778
 49
1.27
 74
0
 49
-0.254
 74
0
 49
0.0
 74
0
 49
-0.254
 74
0
  0
LTYPE
  5
3B
330
2
100
AcDbSymbolTableRecord
100
AcDbLinetypeTableRecord
  2
DOT
 70
0
  3
Dot .  .  .  .  .  .  .  .  .  .  .  .  .  .  .  .
 72
65
 73
2
 40
0.508
 49
0.0
 74
0
 49
-0.508
 74
0
  0
LTYPE
  5
3C
330
2
100
AcDbSymbolTableRecord
100
AcDbLinetypeTableRecord
  2
DOTX2
 70
0
  3
Dot (2x) .    .    .    .    .    .    .    . 
 72
65
 73
2
 40
1.016
 49
0.0
 74
0
 49
-1.016
 74
0
  0
LTYPE
  5
3D
330
2
100
AcDbSymbolTableRecord
100
AcDbLinetypeTableRecord
  2
DOT2
 70
0
  3
Dot (.5) . . . . . . . . . . . . . . . . . . . 
 72
65
 73
2
 40
0.254
 49
0.0
 74
0
 49
-0.254
 74
0
  0
LTYPE
  5
3E
330
2
100
AcDbSymbolTableRecord
100
AcDbLinetypeTableRecord
  2
DIVIDE
 70
0
  3
Divide __ . . __ . . __ . . __ . . __ . . __
 72
65
 73
6
 40
4.064
 49
2.54
 74
0
 49
-0.508
 74
0
 49
0.0
 74
0
 49
-0.508
 74
0
 49
0.0
 74
0
 49
-0.508
 74
0
  0
LTYPE
  5
3F
330
2
100
AcDbSymbolTableRecord
100
AcDbLinetypeTableRecord
  2
DIVIDEX2
 70
0
  3
Divide (2x) ____  . .  ____  . .  ____  . .  ____
 72
65
 73
6
 40
6.604
 49
5.08
 74
0
 49
-0.508
 74
0
 49
0.0
 74
0
 49
-0.508
 74
0
 49
0.0
 74
0
 49
-0.508
 74
0
  0
LTYPE
  5
40
330
2
100
AcDbSymbolTableRecord
100
AcDbLinetypeTableRecord
  2
DIVIDE2
 70
0
  3
Divide(.5x) _ . _ . _ . _ . _ . _ . _ . _
 72
65
 73
6
 40
2.032
 49
1.27
 74
0
 49
-0.254
 74
0
 49
0.0
 74
0
 49
-0.254
 74
0
 49
0.0
 74
0
 49
-0.254
 74
0
  0
ENDTAB
  0
TABLE
  2
LAYER
  5
1
330
0
100
AcDbSymbolTable
 70
5
  0
LAYER
  5
27
330
1
100
AcDbSymbolTableRecord
100
AcDbLayerTableRecord
  2
0
 70
0
 62
7
  6
Continuous
370
-3
390
13
347
21
  0
LAYER
  5
28
330
1
100
AcDbSymbolTableRecord
100
AcDbLayerTableRecord
  2
Defpoints
 70
0
 62
7
  6
Continuous
290
0
370
-3
390
13
347
21
  0
LAYER
  5
8A
330
1
100
AcDbSymbolTableRecord
100
AcDbLayerTableRecord
  2
CORTE
 70
0
 62
1
  6
Continuous
370
-3
390
13
347
21
  0
LAYER
  5
8B
330
1
100
AcDbSymbolTableRecord
100
AcDbLayerTableRecord
  2
GRABADO
 70
0
 62
5
  6
Continuous
370
-3
390
13
347
21
  0
LAYER
  5
8C
330
1
100
AcDbSymbolTableRecord
100
AcDbLayerTableRecord
  2
HOJA
 70
0
 62
8
  6
Continuous
370
-3
390
13
347
21
  0
ENDTAB
  0
TABLE
  2
STYLE
  5
5
330
0
100
AcDbSymbolTable
 70
26
  0
STYLE
  5
29
330
5
100
AcDbSymbolTableRecord
100
AcDbTextStyleTableRecord
  2
Standard
 70
0
 40
0.0
 41
1.0
 50
0.0
 71
0
 42
2.5
  3
txt
  4

  0
STYLE
  5
41
330
5
100
AcDbSymbolTableRecord
100
AcDbTextStyleTableRecord
  2
OpenSans-Light
 70
0
 40
0.0
 41
1.0
 50
0.0
 71
0
 42
2.5
  3
OpenSans-Light.ttf
  4

  0
STYLE
  5
42
330
5
100
AcDbSymbolTableRecord
100
AcDbTextStyleTableRecord
  2
OpenSans-Light-Italic
 70
0
 40
0.0
 41
1.0
 50
0.0
 71
0
 42
2.5
  3
OpenSans-LightItalic.ttf
  4

  0
STYLE
  5
43
330
5
100
AcDbSymbolTableRecord
100
AcDbTextStyleTableRecord
  2
OpenSans
 70
0
 40
0.0
 41
1.0
 50
0.0
 71
0
 42
2.5
  3
OpenSans-Regular.ttf
  4

  0
STYLE
  5
44
330
5
100
AcDbSymbolTableRecord
100
AcDbTextStyleTableRecord
  2
OpenSans-Italic
 70
0
 40
0.0
 41
1.0
 50
0.0
 71
0
 42
2.5
  3
OpenSans-Italic.ttf
  4

  0
STYLE
  5
45
330
5
100
AcDbSymbolTableRecord
100
AcDbTextStyleTableRecord
  2
OpenSans-SemiBold
 70
0
 40
0.0
 41
1.0
 50
0.0
 71
0
 42
2.5
  3
OpenSans-SemiBold.ttf
  4

  0
STYLE
  5
46
330
5
100
AcDbSymbolTableRecord
100
AcDbTextStyleTableRecord
  2
OpenSans-SemiBoldItalic
 70
0
 40
0.0
 41
1.0
 50
0.0
 71
0
 42
2.5
  3
OpenSans-SemiBoldItalic.ttf
  4

  0
STYLE
  5
47
330
5
100
AcDbSymbolTableRecord
100
AcDbTextStyleTableRecord
  2
OpenSans-Bold
 70
0
 40
0.0
 41
1.0
 50
0.0
 71
0
 42
2.5
  3
OpenSans-Bold.ttf
  4

  0
STYLE
  5
48
330
5
100
AcDbSymbolTableRecord
100
AcDbTextStyleTableRecord
  2
OpenSans-BoldItalic
 70
0
 40
0.0
 41
1.0
 50
0.0
 71
0
 42
2.5
  3
OpenSans-BoldItalic.ttf
  4

  0
STYLE
  5
49
330
5
100
AcDbSymbolTableRecord
100
AcDbTextStyleTableRecord
  2
OpenSans-ExtraBold
 70
0
 40
0.0
 41
1.0
 50
0.0
 71
0
 42
2.5
  3
OpenSans-ExtraBold.ttf
  4

  0
STYLE
  5
4A
330
5
100
AcDbSymbolTableRecord
100
AcDbTextStyleTableRecord
  2
OpenSans-ExtraBoldItalic
 70
0
 40
0.0
 41
1.0
 50
0.0
 71
0
 42
2.5
  3
OpenSans-ExtraBoldItalic.ttf
  4

  0
STYLE
  5
4B
330
5
100
AcDbSymbolTableRecord
100
AcDbTextStyleTableRecord
  2
OpenSansCondensed-Bold
 70
0
 40
0.0
 41
1.0
 50
0.0
 71
0
 42
2.5
  3
OpenSansCondensed-Bold.ttf
  4

  0
STYLE
  5
4C
330
5
100
AcDbSymbolTableRecord
100
AcDbTextStyleTableRecord
  2
OpenSansCondensed-Light
 70
0
 40
0.0
 41
1.0
 50
0.0
 71
0
 42
2.5
  3
OpenSansCondensed-Light.ttf
  4

  0
STYLE
  5
4D
330
5
100
AcDbSymbolTableRecord
100
AcDbTextStyleTableRecord
  2
OpenSansCondensed-Italic
 70
0
 40
0.0
 41
1.0
 50
0.0
 71
0
 42
2.5
  3
OpenSansCondensed-LightItalic.ttf
  4

  0
STYLE
  5
4E
330
5
100
AcDbSymbolTableRecord
100
AcDbTextStyleTableRecord
  2
LiberationSans
 70
0
 40
0.0
 41
1.0
 50
0.0
 71
0
 42
2.5
  3
LiberationSans-Regular.ttf
  4

  0
STYLE
  5
4F
330
5
100
AcDbSymbolTableRecord
100
AcDbTextStyleTableRecord
  2
LiberationSans-Bold
 70
0
 40
0.0
 41
1.0
 50
0.0
 71
0
 42
2.5
  3
LiberationSans-Bold.ttf
  4

  0
STYLE
  5
50
330
5
100
AcDbSymbolTableRecord
100
AcDbTextStyleTableRecord
  2
LiberationSans-BoldItalic
 70
0
 40
0.0
 41
1.0
 50
0.0
 71
0
 42
2.5
  3
LiberationSans-BoldItalic.ttf
  4

  0
STYLE
  5
51
330
5
100
AcDbSymbolTableRecord
100
AcDbTextStyleTableRecord
  2
LiberationSans-Italic
 70
0
 40
0.0
 41
1.0
 50
0.0
 71
0
 42
2.5
  3
LiberationSans-Italic.ttf
  4

  0
STYLE
  5
52
330
5
100
AcDbSymbolTableRecord
100
AcDbTextStyleTableRecord
  2
LiberationSerif
 70
0
 40
0.0
 41
1.0
 50
0.0
 71
0
 42
2.5
  3
LiberationSerif-Regular.ttf
  4

  0
STYLE
  5
53
330
5
100
AcDbSymbolTableRecord
100
AcDbTextStyleTableRecord
  2
LiberationSerif-Bold
 70
0
 40
0.0
 41
1.0
 50
0.0
 71
0
 42
2.5
  3
LiberationSerif-Bold.ttf
  4

  0
STYLE
  5
54
330
5
100
AcDbSymbolTableRecord
100
AcDbTextStyleTableRecord
  2
LiberationSerif-BoldItalic
 70
0
 40
0.0
 41
1.0
 50
0.0
 71
0
 42
2.5
  3
LiberationSerif-BoldItalic.ttf
  4

  0
STYLE
  5
55
330
5
100
AcDbSymbolTableRecord
100
AcDbTextStyleTableRecord
  2
LiberationSerif-Italic
 70
0
 40
0.0
 41
1.0
 50
0.0
 71
0
 42
2.5
  3
LiberationSerif-Italic.ttf
  4

  0
STYLE
  5
56
330
5
100
AcDbSymbolTableRecord
100
AcDbTextStyleTableRecord
  2
LiberationMono
 70
0
 40
0.0
 41
1.0
 50
0.0
 71
0
 42
2.5
  3
LiberationMono-Regular.ttf
  4

  0
STYLE
  5
57
330
5
100
AcDbSymbolTableRecord
100
AcDbTextStyleTableRecord
  2
LiberationMono-Bold
 70
0
 40
0.0
 41
1.0
 50
0.0
 71
0
 42
2.5
  3
LiberationMono-Bold.ttf
  4

  0
STYLE
  5
58
330
5
100
AcDbSymbolTableRecord
100
AcDbTextStyleTableRecord
  2
LiberationMono-BoldItalic
 70
0
 40
0.0
 41
1.0
 50
0.0
 71
0
 42
2.5
  3
LiberationMono-BoldItalic.ttf
  4

  0
STYLE
  5
59
330
5
100
AcDbSymbolTableRecord
100
AcDbTextStyleTableRecord
  2
LiberationMono-Italic
 70
0
 40
0.0
 41
1.0
 50
0.0
 71
0
 42
2.5
  3
LiberationMono-Italic.ttf
  4

  0
ENDTAB
  0
TABLE
  2
VIEW
  5
7
330
0
100
AcDbSymbolTable
 70
0
  0
ENDTAB
  0
TABLE
  2
UCS
  5
6
330
0
100
AcDbSymbolTable
 70
0
  0
ENDTAB
  0
TABLE
  2
APPID
  5
3
330
0
100
AcDbSymbolTable
 70
3
  0
APPID
  5
2A
330
3
100
AcDbSymbolTableRecord
100
AcDbRegAppTableRecord
  2
ACAD
 70
0
  0
APPID
  5
93
330
3
100
AcDbSymbolTableRecord
100
AcDbRegAppTableRecord
  2
HATCHBACKGROUNDCOLOR
 70
0
  0
APPID
  5
94
330
3
100
AcDbSymbolTableRecord
100
AcDbRegAppTableRecord
  2
EZDXF
 70
0
  0
ENDTAB
  0
TABLE
  2
DIMSTYLE
  5
4
330
0
100
AcDbSymbolTable
 70
12
100
AcDbDimStyleTable
  0
DIMSTYLE
105
2B
330
4
100
AcDbSymbolTableRecord
100
AcDbDimStyleTableRecord
  2
Standard
 70
0
 40
1.0
 41
2.5
 42
0.625
 43
3.75
 44
1.25
 45
0.0
 46
0.0
 47
0.0
 48
0.0
 49
2.5
140
2.5
141
2.5
142
0.0
143
0.03937007874
144
1.0
145
0.0
146
1.0
147
0.625
148
0.0
 69
0
 70
0
 71
0
 72
0
 73
0
 74
0
 75
0
 76
0
 77
1
 78
8
 79
3
170
0
171
3
172
1
173
0
174
0
175
0
176
0
177
0
178
0
179
2
271
2
272
2
273
2
274
3
275
0
276
0
277
2
278
44
279
0
280
0
281
0
282
0
283
0
284
8
285
0
286
0
288
0
289
3
290
0
371
-2
372
-2
  0
DIMSTYLE
105
73
330
4
100
AcDbSymbolTableRecord
100
AcDbDimStyleTableRecord
  2
EZDXF
 70
0
 40
1.0
 41
0.175
 42
0.125
 43
3.75
 44
0.375
 45
0.0
 46
0.0
 47
0.0
 48
0.0
 49
2.5
140
0.25
141
2.5
142
0.0
143
0.03937007874
144
100.0
145
0.0
146
0.5
147
0.1
148
0.0
 69
0
 70
0
 71
0
 72
0
 73
0
 74
0
 75
0
 76
0
 77
1
 78
12
 79
3
170
0
171
3
172
1
173
0
174
0
175
0
176
0
177
0
178
0
179
2
271
2
272
2
273
2
274
3
275
0
276
0
277
2
278
46
279
2
280
0
281
0
282
0
283
0
284
8
285
0
286
0
288
1
289
3
290
0
340
4C
342
74
371
-2
372
-2
  0
DIMSTYLE
105
7C
330
4
100
AcDbSymbolTableRecord
100
AcDbDimStyleTableRecord
  2
EZ_M_100_H25_CM
 70
0
 40
1.0
 41
0.25
 42
0.125
 43
3.75
 44
0.375
 45
0.0
 46
0.0
 47
0.0
 48
0.0
 49
2.5
140
0.25
141
2.5
142
0.125
143
0.03937007874
144
100.0
145
0.0
146
0.5
147
0.1
148
0.0
 69
0
 70
0
 71
0
 72
0
 73
0
 74
0
 75
0
 76
0
 77
1
 78
12
 79
3
170
0
171
3
172
1
173
0
174
0
175
0
176
0
177
0
178
0
179
2
271
2
272
2
273
2
274
3
275
0
276
0
277
2
278
46
279
2
280
0
281
0
282
0
283
0
284
8
285
0
286
0
288
1
289
3
290
0
340
4C
371
-2
372
-2
  0
DIMSTYLE
105
7D
330
4
100
AcDbSymbolTableRecord
100
AcDbDimStyleTableRecord
  2
EZ_M_50_H25_CM
 70
0
 40
1.0
 41
0.125
 42
0.0625
 43
3.75
 44
0.1875
 45
0.0
 46
0.0
 47
0.0
 48
0.0
 49
2.5
140
0.125
141
2.5
142
0.0625
143
0.03937007874
144
100.0
145
0.0
146
0.5
147
0.05
148
0.0
 69
0
 70
0
 71
0
 72
0
 73
0
 74
0
 75
0
 76
0
 77
1
 78
12
 79
3
170
0
171
3
172
1
173
0
174
0
175
0
176
0
177
0
178
0
179
2
271
2
272
2
273
2
274
3
275
0
276
0
277
2
278
46
279
2
280
0
281
0
282
0
283
0
284
8
285
0
286
0
288
1
289
3
290
0
340
4C
371
-2
372
-2
  0
DIMSTYLE
105
7E
330
4
100
AcDbSymbolTableRecord
100
AcDbDimStyleTableRecord
  2
EZ_M_25_H25_CM
 70
0
 40
1.0
 41
0.0625
 42
0.03125
 43
3.75
 44
0.09375
 45
0.0
 46
0.0
 47
0.0
 48
0.0
 49
2.5
140
0.0625
141
2.5
142
0.03125
143
0.03937007874
144
100.0
145
0.0
146
0.5
147
0.025
148
0.0
 69
0
 70
0
 71
0
 72
0
 73
0
 74
0
 75
0
 76
0
 77
1
 78
12
 79
3
170
0
171
3
172
1
173
0
174
0
175
0
176
0
177
0
178
0
179
2
271
2
272
2
273
2
274
3
275
0
276
0
277
2
278
46
279
2
280
0
281
0
282
0
283
0
284
8
285
0
286
0
288
1
289
3
290
0
340
4C
371
-2
372
-2
  0
DIMSTYLE
105
7F
330
4
100
AcDbSymbolTableRecord
100
AcDbDimStyleTableRecord
  2
EZ_M_20_H25_CM
 70
0
 40
1.0
 41
0.05
 42
0.025
 43
3.75
 44
0.07500000000000001
 45
0.0
 46
0.0
 47
0.0
 48
0.0
 49
2.5
140
0.05
141
2.5
142
0.025
143
0.03937007874
144
100.0
145
0.0
146
0.5
147
0.020000000000000004
148
0.0
 69
0
 70
0
 71
0
 72
0
 73
0
 74
0
 75
0
 76
0
 77
1
 78
12
 79
3
170
0
171
3
172
1
173
0
174
0
175
0
176
0
177
0
178
0
179
2
271
2
272
2
273
2
274
3
275
0
276
0
277
2
278
46
279
2
280
0
281
0
282
0
283
0
284
8
285
0
286
0
288
1
289
3
290
0
340
4C
371
-2
372
-2
  0
DIMSTYLE
105
80
330
4
100
AcDbSymbolTableRecord
100
AcDbDimStyleTableRecord
  2
EZ_M_10_H25_CM
 70
0
 40
1.0
 41
0.025
 42
0.0125
 43
3.75
 44
0.037500000000000006
 45
0.0
 46
0.0
 47
0.0
 48
0.0
 49
2.5
140
0.025
141
2.5
142
0.0125
143
0.03937007874
144
100.0
145
0.0
146
0.5
147
0.010000000000000002
148
0.0
 69
0
 70
0
 71
0
 72
0
 73
0
 74
0
 75
0
 76
0
 77
1
 78
12
 79
3
170
0
171
3
172
1
173
0
174
0
175
0
176
0
177
0
178
0
179
2
271
2
272
2
273
2
274
3
275
0
276
0
277
2
278
46
279
2
280
0
281
0
282
0
283
0
284
8
285
0
286
0
288
1
289
3
290
0
340
4C
371
-2
372
-2
  0
DIMSTYLE
105
81
330
4
100
AcDbSymbolTableRecord
100
AcDbDimStyleTableRecord
  2
EZ_M_5_H25_CM
 70
0
 40
1.0
 41
0.0125
 42
0.00625
 43
3.75
 44
0.018750000000000003
 45
0.0
 46
0.0
 47
0.0
 48
0.0
 49
2.5
140
0.0125
141
2.5
142
0.00625
143
0.03937007874
144
100.0
145
0.0
146
0.5
147
0.005000000000000001
148
0.0
 69
0
 70
0
 71
0
 72
0
 73
0
 74
0
 75
0
 76
0
 77
1
 78
12
 79
3
170
0
171
3
172
1
173
0
174
0
175
0
176
0
177
0
178
0
179
2
271
2
272
2
273
2
274
3
275
0
276
0
277
2
278
46
279
2
280
0
281
0
282
0
283
0
284
8
285
0
286
0
288
1
289
3
290
0
340
4C
371
-2
372
-2
  0
DIMSTYLE
105
82
330
4
100
AcDbSymbolTableRecord
100
AcDbDimStyleTableRecord
  2
EZ_M_1_H25_CM
 70
0
 40
1.0
 41
0.0025
 42
0.00125
 43
3.75
 44
0.00375
 45
0.0
 46
0.0
 47
0.0
 48
0.0
 49
2.5
140
0.0025
141
2.5
142
0.00125
143
0.03937007874
144
100.0
145
0.0
146
0.5
147
0.001
148
0.0
 69
0
 70
0
 71
0
 72
0
 73
0
 74
0
 75
0
 76
0
 77
1
 78
12
 79
3
170
0
171
3
172
1
173
0
174
0
175
0
176
0
177
0
178
0
179
2
271
2
272
2
273
2
274
3
275
0
276
0
277
2
278
46
279
2
280
0
281
0
282
0
283
0
284
8
285
0
286
0
288
1
289
3
290
0
340
4C
371
-2
372
-2
  0
DIMSTYLE
105
83
330
4
100
AcDbSymbolTableRecord
100
AcDbDimStyleTableRecord
  2
EZ_RADIUS
 70
0
 40
1.0
 41
0.25
 42
0.125
 43
3.75
 44
0.375
 45
0.0
 46
0.0
 47
0.0
 48
0.0
 49
2.5
140
0.25
141
0.0
142
0.0
143
0.03937007874
144
100.0
145
0.0
146
0.5
147
0.1
148
0.0
 69
0
 70
0
 71
0
 72
0
 73
0
 74
0
 75
0
 76
0
 77
1
 78
12
 79
3
170
0
171
3
172
0
173
0
174
0
175
0
176
0
177
0
178
0
179
2
271
2
272
2
273
2
274
3
275
0
276
0
277
2
278
46
279
1
280
0
281
0
282
0
283
0
284
8
285
0
286
0
288
1
289
3
290
0
340
4C
342
84
371
-2
372
-2
  0
DIMSTYLE
105
88
330
4
100
AcDbSymbolTableRecord
100
AcDbDimStyleTableRecord
  2
EZ_RADIUS_INSIDE
 70
0
 40
1.0
 41
0.25
 42
0.125
 43
3.75
 44
0.375
 45
0.0
 46
0.0
 47
0.0
 48
0.0
 49
2.5
140
0.25
141
0.0
142
0.0
143
0.03937007874
144
100.0
145
0.0
146
0.5
147
0.1
148
0.0
 69
0
 70
0
 71
0
 72
0
 73
0
 74
0
 75
0
 76
0
 77
0
 78
12
 79
3
170
0
171
3
172
0
173
0
174
1
175
0
176
0
177
0
178
0
179
2
271
2
272
2
273
2
274
3
275
0
276
0
277
2
278
46
279
0
280
0
281
0
282
0
283
0
284
8
285
0
286
0
288
1
289
0
290
0
340
4C
342
84
371
-2
372
-2
  0
DIMSTYLE
105
89
330
4
100
AcDbSymbolTableRecord
100
AcDbDimStyleTableRecord
  2
EZ_CURVED
 70
0
 40
1.0
 41
0.25
 42
0.125
 43
3.75
 44
0.375
 45
0.0
 46
0.0
 47
0.0
 48
0.0
 49
2.5
140
0.25
141
2.5
142
0.0
143
0.03937007874
144
100.0
145
0.0
146
0.5
147
0.1
148
0.0
 69
0
 70
0
 71
0
 72
0
 73
0
 74
0
 75
0
 76
0
 77
1
 78
12
 79
2
 90
2
170
0
171
3
172
1
173
0
174
0
175
0
176
0
177
0
178
0
179
2
271
2
272
2
273
2
274
3
275
0
276
0
277
2
278
46
279
2
280
0
281
0
282
0
283
0
284
8
285
0
286
0
288
1
289
3
290
0
340
4C
371
-2
372
-2
  0
ENDTAB
  0
TABLE
  2
BLOCK_RECORD
  5
9
330
0
100
AcDbSymbolTable
 70
5
  0
BLOCK_RECORD
  5
17
330
9
100
AcDbSymbolTableRecord
100
AcDbBlockTableRecord
  2
*Model_Space
340
1A
 70
0
280
1
281
0
  0
BLOCK_RECORD
  5
1B
330
9
100
AcDbSymbolTableRecord
100
AcDbBlockTableRecord
  2
*Paper_Space
340
1E
 70
0
280
1
281
0
  0
BLOCK_RECORD
  5
74
330
9
100
AcDbSymbolTableRecord
100
AcDbBlockTableRecord
  2
_ARCHTICK
340
0
 70
0
280
1
281
0
  0
BLOCK_RECORD
  5
78
330
9
100
AcDbSymbolTableRecord
100
AcDbBlockTableRecord
  2
_CLOSEDFILLED
340
0
 70
0
280
1
281
0
  0
BLOCK_RECORD
  5
84
330
9
100
AcDbSymbolTableRecord
100
AcDbBlockTableRecord
  2
_CLOSEDBLANK
340
0
 70
0
280
1
281
0
  0
ENDTAB
  0
ENDSEC
  0
SECTION
  2
BLOCKS
  0
BLOCK
  5
18
330
17
100
AcDbEntity
  8
0
100
AcDbBlockBegin
  2
*Model_Space
 70
0
 10
0.0
 20
0.0
 30
0.0
  3
*Model_Space
  1

  0
ENDBLK
  5
19
330
17
100
AcDbEntity
  8
0
100
AcDbBlockEnd
  0
BLOCK
  5
1C
330
1B
100
AcDbEntity
  8
0
100
AcDbBlockBegin
  2
*Paper_Space
 70
0
 10
0.0
 20
0.0
 30
0.0
  3
*Paper_Space
  1

  0
ENDBLK
  5
1D
330
1B
100
AcDbEntity
  8
0
100
AcDbBlockEnd
  0
BLOCK
  5
75
330
74
100
AcDbEntity
  8
0
100
AcDbBlockBegin
  2
_ARCHTICK
 70
0
 10
0.0
 20
0.0
 30
0.0
  3
_ARCHTICK
  1

  0
LWPOLYLINE
  5
77
330
74
100
AcDbEntity
  8
0
  6
BYBLOCK
 62
0
100
AcDbPolyline
 90
2
 70
0
 43
0.15
 10
-0.5
 20
-0.5
 10
0.5
 20
0.5
  0
ENDBLK
  5
76
330
74
100
AcDbEntity
  8
0
100
AcDbBlockEnd
  0
BLOCK
  5
79
330
78
100
AcDbEntity
  8
0
100
AcDbBlockBegin
  2
_CLOSEDFILLED
 70
0
 10
0.0
 20
0.0
 30
0.0
  3
_CLOSEDFILLED
  1

  0
SOLID
  5
7B
330
78
100
AcDbEntity
  8
0
  6
BYBLOCK
 62
0
100
AcDbTrace
 10
-1.0
 20
0.16439898372402537
 30
0.0
 11
0.0
 21
0.0
 31
0.0
 12
-1.0
 22
-0.16439898372402537
 32
0.0
 13
-1.0
 23
-0.16439898372402537
 33
0.0
  0
ENDBLK
  5
7A
330
78
100
AcDbEntity
  8
0
100
AcDbBlockEnd
  0
BLOCK
  5
85
330
84
100
AcDbEntity
  8
0
100
AcDbBlockBegin
  2
_CLOSEDBLANK
 70
0
 10
0.0
 20
0.0
 30
0.0
  3
_CLOSEDBLANK
  1

  0
LWPOLYLINE
  5
87
330
84
100
AcDbEntity
  8
0
  6
BYBLOCK
 62
0
100
AcDbPolyline
 90
3
 70
1
 10
-1.0
 20
0.16439898372402537
 10
0.0
 20
0.0
 10
-1.0
 20
-0.16439898372402537
  0
ENDBLK
  5
86
330
84
100
AcDbEntity
  8
0
100
AcDbBlockEnd
  0
ENDSEC
  0
SECTION
  2
ENTITIES
  0
LWPOLYLINE
  5
8D
330
17
100
AcDbEntity
  8
HOJA
100
AcDbPolyline
 90
4
 70
1
 10
0.0
 20
0.0
 10
600.0
 20
0.0
 10
600.0
 20
900.0
 10
0.0
 20
900.0
  0
LWPOLYLINE
  5
8E
330
17
100
AcDbEntity
  8
CORTE
100
AcDbPolyline
 90
392
 70
1
 10
243.70261652081592
 20
32.3025786964281
 10
243.72702258095762
 20
31.24289188332841
 10
243.3322451762598
 20
30.858718305004004
 10
240.3463545614478
 20
24.735815472982722
 10
238.7583845822079
 20
23.30122588010272
 10
234.8521766250866
 20
20.336386744524134
 10
233.64432661741205
 20
19.622761249269388
 10
228.9042189460298
 20
16.425594090142113
 10
228.50200508342152
 20
16.16328002726641
 10
227.05796894012667
 20
15.590724143768966
 10
223.18446423538091
 20
13.913642356586934
 10
221.86835133166835
 20
13.564886692218352
 10
217.65893495588182
 20
13.062762782143182
 10
212.44741476365618
 20
13.119719394671847
 10
212.0378403735764
 20
13.034818705659745
 10
211.44395580008097
 20
13.101853557040158
 10
206.36139715802358
 20
13.284993963507077
 10
200.45270902860068
 20
15.250589821373069
 10
200.4181302659755
 20
15.284299602730243
 10
194.05203795154569
 20
21.97428145802951
 10
193.82536876057986
 20
22.209047484646362
 10
193.20293890866753
 20
22.47267072863906
 10
187.69176480297585
 20
25.868448560469915
 10
185.78434937655277
 20
26.77426680217104
 10
181.49679063983524
 20
29.865956271454706
 10
178.09546399330077
 20
32.1953116675686
 10
175.17957392381743
 20
34.78223246797643
 10
170.10067771319575
 20
37.27163185778136
 10
169.15758383694686
 20
37.64548515264414
 10
166.10192429655729
 20
39.7130967395542
 10
162.9587585637629
 20
41.679602778094704
 10
162.03576824158938
 20
42.31046561065796
 10
156.9577040166779
 20
44.35589483246076
 10
153.75982703111742
 20
47.14527493751302
 10
150.68040735372654
 20
48.96563097060425
 10
146.11927067724775
 20
52.602669145635446
 10
144.36667916604176
 20
53.817782886739224
 10
139.25538790603025
 20
58.84724344383176
 10
137.8561470388396
 20
60.09976020854083
 10
131.95887024026717
 20
64.63427388143282
 10
131.5582001174222
 20
64.9133181300158
 10
130.12004615030912
 20
65.83897405932476
 10
125.53854097388205
 20
67.7423036201144
 10
123.49048128543257
 20
69.26478451669391
 10
119.21924582517124
 20
72.61498730532185
 10
116.08638912231265
 20
74.9600283662403
 10
112.86688696586373
 20
77.7698372049208
 10
108.74878050393193
 20
80.69772722673042
 10
106.73922748969483
 20
81.42558118410943
 10
101.33888631639968
 20
84.76015437331989
 10
100.56815227985555
 20
85.27254818523397
 10
100.33798067907412
 20
85.3815298181762
 10
94.50538692578004
 20
88.3789618798628
 10
91.88638670077273
 20
90.03489054537295
 10
88.35759030218344
 20
92.0932694221001
 10
83.46830577841695
 20
94.7060510201245
 10
82.28642660589651
 20
95.28217887328174
 10
79.65862758208971
 20
96.58935299927452
 10
76.37065455970753
 20
97.35273749915177
 10
74.44910010155365
 20
98.77892343622352
 10
70.40406791746148
 20
99.77309384472392
 10
65.80652317833949
 20
103.25192251507724
 10
64.1246911942959
 20
104.36591096124994
 10
58.416792922548325
 20
107.96733950855014
 10
57.973407099608835
 20
108.19210020695391
 10
57.73117768323084
 20
108.25548910921498
 10
51.671499055831305
 20
112.85202933405344
 10
50.40460616612802
 20
114.06424863018037
 10
44.94971500503755
 20
120.59342485613888
 10
44.39319034519497
 20
121.12276382697746
 10
38.964318778750226
 20
123.31023431297126
 10
35.228601842448484
 20
125.06745014259468
 10
32.545467164263414
 20
128.74885241178254
 10
29.68496582296632
 20
132.66857886902653
 10
28.489996924649063
 20
137.91276734934763
 10
28.423934021112586
 20
144.54661411502093
 10
28.882042495548944
 20
147.42353737933627
 10
29.772506210604774
 20
148.5082905261006
 10
33.20353589169065
 20
152.9780282317597
 10
34.45204207829886
 20
155.1766212171915
 10
37.3091748749672
 20
158.7362983608018
 10
39.19404482740822
 20
161.45005641471653
 10
41.55478325135266
 20
164.3584816051225
 10
44.06501046265487
 20
166.86870881642426
 10
46.7067733259488
 20
169.0467868904725
 10
48.45701260730732
 20
175.42917256895726
 10
48.97344627829091
 20
176.60770563182996
 10
49.16883260897214
 20
178.3859706680705
 10
49.06442731192021
 20
186.35041579727294
 10
48.73322819266525
 20
191.03443195228465
 10
47.75222021958882
 20
197.51206511553028
 10
46.84452768346375
 20
202.2076011017507
 10
44.33975623599201
 20
204.64090057862177
 10
40.854194465226215
 20
209.2869843298722
 10
37.65836782408735
 20
212.20149942667922
 10
33.35288640321244
 20
214.85913670143054
 10
31.447010569023973
 20
216.4012595110671
 10
26.87883026596012
 20
218.37131216323542
 10
25.424431466492138
 20
219.2065747297911
 10
24.95418343606582
 20
219.57239704770836
 10
20.897023107555583
 20
224.34861305338018
 10
19.131378393511227
 20
226.87203849466277
 10
18.554052141559282
 20
227.8893530592759
 10
14.904694687480173
 20
235.762397329956
 10
13.073493333736792
 20
242.04946842736172
 10
13.001506411748892
 20
246.98867368289757
 10
13.32561186318992
 20
251.68762324028467
 10
14.786416287343513
 20
254.63441937435528
 10
16.053840553412215
 20
258.8513434196884
 10
19.469243724944704
 20
261.45720744402934
 10
21.19849347141019
 20
263.6112048874129
 10
24.709106569839264
 20
264.3262224630107
 10
27.663725667234417
 20
266.94875949543894
 10
29.01877777232778
 20
273.4478867267517
 10
30.875959420961067
 20
273.6657041945
 10
34.23806030030403
 20
276.29188536226866
 10
35.23917522635668
 20
279.0561669323215
 10
35.22398357215263
 20
282.30365107624857
 10
34.919814192992476
 20
289.21383671882904
 10
34.194163455289186
 20
294.35770611722455
 10
32.67908188269496
 20
301.31062356172333
 10
32.57480556880557
 20
305.85475416529516
 10
33.36705948031533
 20
310.5064575574961
 10
34.43454925121671
 20
314.6813970506373
 10
35.66088856906856
 20
318.07836322045296
 10
36.938319614352736
 20
323.3288644080458
 10
37.91613369540357
 20
325.6992257570155
 10
38.40337139634232
 20
326.46295459259
 10
40.87404216839752
 20
332.5817563126393
 10
42.256523100029085
 20
338.9635019188054
 10
42.75883569750215
 20
340.54786342110856
 10
43.0294910298295
 20
342.5276904527791
 10
175.802738037965
 20
475.3009374609137
 10
203.63867337358954
 20
503.1365383161774
 10
235.78489873706496
 20
535.2827689443402
 10
260.1239958204993
 20
559.6218698249431
 10
288.9515725762268
 20
588.4494512596793
 10
319.8239076965789
 20
619.3217914773977
 10
346.29918332420186
 20
645.7970713805862
 10
375.4517131151448
 20
674.9496059879366
 10
414.32455868110367
 20
713.8224582822495
 10
441.7946275218711
 20
741.2925316685323
 10
467.10183409306194
 20
766.5997423875815
 10
477.9489055031969
 20
777.4468151391156
 10
490.28733537368646
 20
789.7852466507411
 10
503.3159250190007
 20
802.8138380817818
 10
508.51525265544944
 20
808.0131659280287
 10
508.5152545824045
 20
808.0131640010732
 10
508.79290742034084
 20
808.2908168707163
 10
516.5548734933114
 20
816.0527837030058
 10
516.7410194982059
 20
816.2389289485818
 10
532.0481093874047
 20
831.5460211221161
 10
547.6945242349544
 20
847.1924383352489
 10
549.1150335765229
 20
848.6129469902608
 10
549.2210994277472
 20
848.5068811579349
 10
547.7046353892894
 20
846.9904158461832
 10
539.0821806934415
 20
838.3679585914506
 10
526.4222144351376
 20
825.7079889347115
 10
517.3784216276487
 20
816.6641934508662
 10
513.6436697608575
 20
812.9294399838545
 10
512.3076336025293
 20
811.5934032604255
 10
512.3076364390578
 20
811.5934004238989
 10
500.01463137841495
 20
799.300391884457
 10
472.42635788476275
 20
771.7121116858907
 10
427.1710411255823
 20
726.4567844464091
 10
373.9143495616105
 20
673.2000806440283
 10
306.07740288252865
 20
605.3631185535105
 10
271.23329269851877
 20
570.5190004502892
 10
274.2790050272057
 20
568.8985727958097
 10
279.7486819543293
 20
566.063942952911
 10
280.3934823990186
 20
565.5006700034737
 10
283.5999896510276
 20
563.1971847991172
 10
286.6801435435142
 20
560.8160933668623
 10
287.1693829033835
 20
560.3720536811124
 10
293.1739198906731
 20
554.6219006024203
 10
294.0804896486726
 20
554.1960672286459
 10
299.88352480822425
 20
547.0069364798564
 10
299.9542607129648
 20
546.9375481904153
 10
300.01268695654255
 20
546.778582745088
 10
304.4083392429926
 20
538.287704085813
 10
307.5276493049761
 20
532.7429392886897
 10
309.19254309948576
 20
529.98675750658
 10
314.4854881038615
 20
523.2474686905261
 10
314.99305131424455
 20
522.7000471502743
 10
317.12249575942417
 20
519.8167094291148
 10
320.6136764021595
 20
515.2334468853714
 10
321.31139826890796
 20
514.694149585328
 10
327.0079871595741
 20
508.5392475783465
 10
327.87939518771566
 20
507.9358104470866
 10
330.43227624258236
 20
506.50165821272094
 10
333.87539135564896
 20
505.262500640536
 10
335.6458802468484
 20
504.1028026112508
 10
339.9428167224879
 20
502.14707120494677
 10
343.95575648204033
 20
499.3048889075417
 10
346.193219279604
 20
497.7427780677899
 10
351.70854246029705
 20
493.9482432791465
 10
352.4979371185474
 20
493.01021481130374
 10
357.73917052026593
 20
486.8531242185909
 10
359.6024649288162
 20
482.5795503952904
 10
361.84078583634766
 20
477.8444920139791
 10
363.82478481151486
 20
473.10889425308324
 10
365.9516061793562
 20
468.84298321993083
 10
366.49075452353384
 20
460.5647495738158
 10
366.7174967458724
 20
456.5085609273592
 10
370.1073150409612
 20
447.9913092602819
 10
370.4639956581028
 20
447.1648085945817
 10
370.5482657501881
 20
446.64916330996857
 10
370.4763918146624
 20
445.3798278724871
 10
369.73828996017494
 20
437.56691900848455
 10
366.5546398658231
 20
433.19803120283177
 10
365.73777636114266
 20
431.6472749363147
 10
361.235819180382
 20
430.7506310848148
 10
358.4998898617838
 20
429.00547903002735
 10
355.9445989150596
 20
428.30452399438764
 10
350.6499038107555
 20
427.314428229447
 10
350.46516599301833
 20
427.2793604182498
 10
350.37496787298426
 20
427.25409681248766
 10
344.9672761817952
 20
426.32641277600123
 10
341.69906322828786
 20
426.05680797058085
 10
339.38689595614653
 20
426.0594761652419
 10
334.18899549645005
 20
423.7393613039403
 10
334.092569228496
 20
423.70417240049755
 10
333.9238196036091
 20
423.70185918676
 10
328.3470011262631
 20
424.4087818714288
 10
323.17492246990116
 20
424.8670920002287
 10
322.6924246376162
 20
424.7429448875928
 10
321.888228800051
 20
424.75320299118175
 10
317.1779453158307
 20
424.0306568379892
 10
314.95336646961334
 20
423.25716855770315
 10
311.8600021241069
 20
421.95103468761954
 10
308.155771115648
 20
420.2067686012324
 10
306.6106580223774
 20
419.3667468569856
 10
302.3110300618479
 20
416.2001857089308
 10
301.4557902493776
 20
415.8010123463537
 10
300.1072256537328
 20
416.0885029713827
 10
295.6794406628193
 20
416.75416793724435
 10
291.4596216178753
 20
417.15246424075303
 10
290.08046289879724
 20
416.68945821423586
 10
287.9018748145078
 20
416.97135881468967
 10
284.401879847415
 20
417.0997585242785
 10
282.3756019208073
 20
416.41122856561196
 10
279.2054165165888
 20
414.3086552112327
 10
276.6065000284567
 20
412.3643167994933
 10
274.42574464617894
 20
408.41803959558274
 10
272.0799158048154
 20
407.01149860086844
 10
269.37310578419385
 20
404.385087036595
 10
267.56637303829996
 20
401.69263934496576
 10
264.5714135067225
 20
398.5335605304481
 10
262.8286143346537
 20
396.55185869171146
 10
259.49817199465826
 20
394.4698831594487
 10
256.41240137813713
 20
393.07713649877223
 10
254.15999224849622
 20
392.27871666090505
 10
250.02449009519262
 20
392.18251801452607
 10
248.54072212856647
 20
392.15759720168717
 10
247.47402952221375
 20
392.12316381830533
 10
242.87124039386447
 20
392.37352664354694
 10
238.4198509808822
 20
393.6901017971959
 10
237.06877396496577
 20
393.7892692481382
 10
236.248088225586
 20
393.52615085920297
 10
231.82542582180542
 20
391.25428195721815
 10
229.57821133227355
 20
390.3376636741723
 10
226.49142357833273
 20
389.07859062904754
 10
221.12057887563935
 20
388.9280436382578
 10
220.89443719007443
 20
388.77391656590044
 10
220.59084323913942
 20
388.95936665748013
 10
215.3064184168071
 20
388.49844180208856
 10
211.064110269636
 20
389.12086016439025
 10
209.78925991086555
 20
388.00826619378495
 10
205.6614880880012
 20
387.085262495616
 10
204.42258700213426
 20
386.2696111057903
 10
204.25903779825478
 20
386.1214594915273
 10
199.5001097565165
 20
381.30718934010656
 10
199.3207369627254
 20
381.18945984414677
 10
194.47469659585352
 20
376.9738146551954
 10
193.84311361423318
 20
376.7924168913505
 10
189.4127593736522
 20
372.9973086226637
 10
188.25157943150282
 20
372.59523622650704
 10
188.76372005842734
 20
370.22109546150386
 10
188.87880000470898
 20
362.1000148898802
 10
185.55046289400127
 20
360.5498598167487
 10
183.03578810736565
 20
358.0601478540457
 10
180.67330730656806
 20
355.34595859557885
 10
178.29849056647174
 20
352.94611373149746
 10
175.8916040606374
 20
349.4238149479952
 10
174.22701789919358
 20
347.17224686391273
 10
171.31858577739115
 20
341.8654185530604
 10
169.93533865559004
 20
341.5620261700642
 10
166.4777776774555
 20
336.3376558975924
 10
165.7148582410042
 20
335.9373286202572
 10
161.68684482014544
 20
330.45013242824916
 10
161.49630760837647
 20
330.30354462076866
 10
158.87808398714571
 20
327.19986062488715
 10
157.05379090299596
 20
324.9041088833892
 10
156.8801575796125
 20
324.6715176349335
 10
152.01028168633104
 20
320.07434951419236
 10
151.91131040370658
 20
319.97537823156745
 10
150.61852695419213
 20
318.9409254369657
 10
146.7108018326436
 20
316.3135392231379
 10
143.24920219425633
 20
324.7481827121246
 10
139.95808043279442
 20
324.74588128122195
 10
138.42793475818019
 20
323.7976463651612
 10
135.16593221612186
 20
319.0362288835595
 10
133.7782629538948
 20
318.63649518318744
 10
134.60693724578834
 20
316.08526189822624
 10
136.17872790142985
 20
312.0588904955257
 10
141.6132543673349
 20
309.99098337060605
 10
139.3327803396138
 20
303.20409525958803
 10
137.65679540398207
 20
301.5282326106444
 10
135.85172472232955
 20
296.7997546678016
 10
132.7973195029473
 20
295.7801357667613
 10
128.31857929050568
 20
294.4372097233063
 10
127.43960568774185
 20
293.94660369814665
 10
124.71071397076923
 20
293.04461820251163
 10
122.0466287426317
 20
292.2817089521104
 10
121.09292611718331
 20
291.8146916523865
 10
116.84550721366725
 20
289.2842546150305
 10
114.31285172366154
 20
288.7616798273484
 10
112.30277581782013
 20
281.9893746445814
 10
112.12111706536837
 20
281.16033828326545
 10
111.99334859265002
 20
280.3716104355408
 10
112.59104538592385
 20
279.90247383067253
 10
117.18731079895554
 20
272.5047312289844
 10
119.6262741145639
 20
269.9076116670476
 10
123.01918261829098
 20
265.2307486445161
 10
126.92050520661917
 20
258.10560422558956
 10
127.76603380800373
 20
256.8738043533167
 10
128.57176615115225
 20
254.88861235838795
 10
131.24310947025754
 20
247.25007975628068
 10
134.88890718935465
 20
241.49392400656325
 10
136.20146904586875
 20
239.112478796289
 10
137.46843223901863
 20
236.13704953207707
 10
140.46694524519683
 20
230.28253829157438
 10
142.76555331453267
 20
225.5465146505794
 10
144.67200878772076
 20
221.38993950493023
 10
147.1539657138079
 20
216.59336492476814
 10
148.88267819501482
 20
212.4967037107981
 10
151.05530806264562
 20
206.66436838362551
 10
152.51677348937176
 20
203.0250607691214
 10
152.8955331381527
 20
200.98086675606828
 10
154.40570204448852
 20
191.79881823240612
 10
154.3434985369023
 20
189.65430349833787
 10
153.82480117254056
 20
187.02477265947527
 10
153.12890365108672
 20
181.00148783614168
 10
151.24412985206675
 20
175.51657513062128
 10
150.69275765190753
 20
173.57423428166294
 10
150.2936479646911
 20
172.16819478898833
 10
148.6954325003145
 20
165.72208774506908
 10
147.85560102424427
 20
159.0452865469142
 10
147.78325969822674
 20
156.79562883375547
 10
149.22250438343974
 20
147.34200744365808
 10
150.29268561164656
 20
144.44583149820028
 10
152.98252245144943
 20
138.02052626345903
 10
156.14382728089788
 20
130.7241905650826
 10
156.92601027278135
 20
128.85996672939473
 10
157.25705217731604
 20
127.61541627899533
 10
158.93726499049046
 20
117.75713974625069
 10
159.09781993602985
 20
115.89138417305912
 10
158.44705471667487
 20
114.37093761284814
 10
157.31742553335164
 20
107.80768626654572
 10
155.74702053952308
 20
101.45920861295963
 10
156.50955001628893
 20
98.79436192243156
 10
159.15138261497225
 20
91.80744253683406
 10
162.42406732043958
 20
86.19518152616183
 10
163.78324882634263
 20
83.35028401250656
 10
167.15464690230704
 20
78.3005869758017
 10
169.0831996930134
 20
75.56563957254093
 10
169.64919502791201
 20
74.81614875840205
 10
174.56173272901617
 20
67.94741688914655
 10
176.6396683906952
 20
65.11805329617528
 10
180.60254055908547
 20
60.90691499238892
 10
183.2176109678909
 20
58.32653006757482
 10
187.25827392890153
 20
54.4712691777504
 10
189.69310082658978
 20
52.25818350344343
 10
194.72304057798613
 20
48.86596531746545
 10
195.8535048387845
 20
48.38212412761459
 10
199.00357309345156
 20
46.450849452085095
 10
202.0235318178744
 20
44.51679107792006
 10
203.02224130466186
 20
44.10247587221329
 10
207.6209620470314
 20
44.44054101236725
 10
210.72233410379442
 20
44.546302060573
 10
213.09955372909064
 20
45.45139172553536
 10
216.83630418029736
 20
44.81531610848833
 10
218.90997042644233
 20
44.345920882813516
 10
222.26375887029792
 20
42.901510450796195
 10
224.89089466056078
 20
41.83508130809423
 10
226.45403687442342
 20
41.324821755753874
 10
230.80580680328387
 20
39.81940960079919
 10
235.32347780944758
 20
37.050949135778865
 10
237.2786939263234
 20
33.89813502787001
 10
241.74568378792094
 20
33.27320676542513
 10
243.06352089604172
 20
32.683083906784304
 10
243.70261652081592
 20
32.3025786964281
  0
LWPOLYLINE
  5
8F
330
17
100
AcDbEntity
  8
CORTE
100
AcDbPolyline
 90
323
 70
1
 10
44.302309012112005
 20
131.13455986867302
 10
47.98887283264878
 20
129.78355782375365
 10
50.70930228192367
 20
127.65271128040877
 10
56.60733459013966
 20
120.6963847591378
 10
56.83574078330423
 20
120.40494716212834
 10
62.60039089354461
 20
115.72071321645672
 10
63.49970978466001
 20
114.58040107182023
 10
67.68657945696543
 20
111.93867354904705
 10
70.7789879499461
 20
109.89036708044114
 10
73.22033482601785
 20
108.04307075410179
 10
78.89672619077112
 20
106.64795198493812
 10
79.4155807411272
 20
106.26285591859232
 10
85.11581527112241
 20
103.4273273936924
 10
87.82037473755611
 20
102.10894216840188
 10
91.49845212183448
 20
100.14341677117045
 10
96.64470730765527
 20
97.14155954501439
 10
97.698577038787
 20
96.47522394075077
 10
100.14814493047209
 20
95.21636490712444
 10
103.72373520534313
 20
93.84546660030173
 10
105.58868490287398
 20
92.37674134500048
 10
109.49102514311392
 20
89.96714559489737
 10
113.56510596744158
 20
88.49152597716966
 10
116.79486249189824
 20
86.19523471121101
 10
121.85966859543589
 20
81.7749435405949
 10
123.09983237981953
 20
80.84664222569882
 10
128.70159148043751
 20
76.45282476123975
 10
129.20108583714193
 20
76.24531601947092
 10
135.22278081121533
 20
72.36950175708989
 10
136.96611353903802
 20
71.15536837571744
 10
142.0863046681976
 20
67.21836872723361
 10
144.8442207065001
 20
64.7496471835475
 10
148.589408657646
 20
61.064418907368236
 10
151.27848900567153
 20
59.200014988415205
 10
154.383342757145
 20
56.72421291911087
 10
159.01735595290813
 20
53.9848805896263
 10
160.32504228965593
 20
52.84423813594731
 10
163.29771201543247
 20
51.64685557941266
 10
165.6083088827146
 20
50.695146878537344
 10
167.20630373397455
 20
49.82150679095321
 10
172.0726516742344
 20
46.528693159649265
 10
174.73187270974324
 20
45.47454725654188
 10
178.70826713719828
 20
43.52553442957651
 10
183.74604628590407
 20
39.056115021747246
 10
185.17130275960892
 20
38.080046210110595
 10
190.66002518342032
 20
34.12221697451605
 10
190.74968738177643
 20
34.07963702379311
 10
191.5420990012841
 20
33.59138284063738
 10
197.44761270952642
 20
31.0901681633095
 10
200.3605406364269
 20
28.073187724527088
 10
204.97221945484
 20
23.226879173877023
 10
205.50759253322906
 20
22.704960283565924
 10
207.35723409297418
 20
22.089654870802406
 10
210.2185411440811
 20
21.986553072421884
 10
212.047845843441
 20
22.25049804118862
 10
213.99102006276428
 20
21.793137396922248
 10
217.04228449724326
 20
21.759790181578865
 10
219.01326399833272
 20
21.994900193375543
 10
220.6199828456439
 20
22.420663285178307
 10
223.8049873871497
 20
23.799650408158413
 10
224.0477960642944
 20
24.005367506309994
 10
228.8009124788506
 20
27.01863454751765
 10
229.50840215276787
 20
27.495831039178483
 10
230.46235356053205
 20
28.219886823771958
 10
228.95312857310785
 20
30.653533821304336
 10
228.12059541327937
 20
31.163715978362234
 10
223.70089181317246
 20
32.69262849664119
 10
222.40550797060462
 20
33.05124942668044
 10
221.65793899510402
 20
33.50838000696058
 10
217.03972907898117
 20
35.49735178969786
 10
214.06509647891073
 20
36.17068981755165
 10
213.68777524885047
 20
36.02703058553743
 10
208.22392773105423
 20
35.840705878233166
 10
204.9018083158436
 20
35.59648735994779
 10
203.07960920645075
 20
34.637356449882645
 10
198.5122174953841
 20
35.960856318419246
 10
193.0284235775722
 20
39.322914363861855
 10
189.50032752070877
 20
40.832947235539905
 10
185.84468355482534
 20
43.29833301656981
 10
180.91667000598738
 20
47.77754925903719
 10
178.84326248518767
 20
49.755820399377626
 10
174.05698066625985
 20
54.47861845861371
 10
171.7760428094026
 20
56.90245257927563
 10
167.61818037009164
 20
62.563890913154864
 10
164.54597727866587
 20
66.85945881854968
 10
162.09500272831804
 20
70.10503841595528
 10
157.85302251429277
 20
76.12073724822767
 10
156.6127150994522
 20
77.31941281336549
 10
153.67911173366394
 20
82.1827155276078
 10
150.9269747785362
 20
86.90229969759821
 10
149.10700204218722
 20
91.71562617377003
 10
146.73530759891685
 20
98.50554951394588
 10
146.94270177069723
 20
102.58569944561259
 10
147.65878413641224
 20
104.96072063721112
 10
149.06398384552824
 20
110.64134378041854
 10
150.03244072209657
 20
116.26816893048544
 10
149.97334738951542
 20
117.28486650740797
 10
148.61471127611514
 20
125.39426046778135
 10
147.43868638038168
 20
128.2755471907385
 10
145.05106279899712
 20
133.78621576304977
 10
142.32172641052432
 20
140.30587492033737
 10
141.02306081627023
 20
143.4851986068843
 10
140.27549203197816
 20
146.10497388380827
 10
138.71251377292413
 20
156.26646338467435
 10
138.62522286004116
 20
159.3575722657206
 10
139.17121851311197
 20
162.9685291199021
 10
139.91618644611538
 20
168.89114922809858
 10
141.17584475495016
 20
173.97174848301438
 10
142.13197968852785
 20
177.5742213609392
 10
142.95576071873313
 20
179.7921842638225
 10
144.50891091869892
 20
184.3120334201485
 10
145.08901377655786
 20
189.3330668798153
 10
144.7603704302179
 20
191.1756693383495
 10
143.44748867008968
 20
199.16155816232822
 10
142.36673819158898
 20
202.6265884739987
 10
140.39143637530344
 20
207.92920478089582
 10
137.41228714579177
 20
214.98912089294208
 10
136.5742405975917
 20
217.0409694825903
 10
135.93345925829465
 20
218.53535811258007
 10
132.550148745098
 20
225.50628925525143
 10
129.7683946709932
 20
230.93758485463877
 10
128.32932769635056
 20
233.37235695913296
 10
123.36760490218296
 20
240.53843895284444
 10
122.54901632090343
 20
241.8308648447437
 10
122.0465544946893
 20
243.26762178025092
 10
119.4227518902627
 20
252.39072792101797
 10
116.92470944906074
 20
257.0513480240825
 10
115.41731521687927
 20
259.80436353546065
 10
114.91814552735616
 20
260.49243050229234
 10
109.5729632162562
 20
266.18422482057395
 10
108.2667086703824
 20
268.2866566939083
 10
100.99925785369408
 20
273.99093224056924
 10
102.77283046320747
 20
284.93937732504855
 10
104.34054201635911
 20
292.0939452392158
 10
105.97254553642927
 20
297.59245694474157
 10
113.8092971111729
 20
299.20945096799187
 10
115.5095433510802
 20
300.22238756685783
 10
119.0824632272753
 20
301.9720056849037
 10
124.93432705043563
 20
303.647793304468
 10
125.94891153156789
 20
303.68665778991
 10
126.96966386845736
 20
303.96837971012064
 10
128.54076426521544
 20
304.4394656717086
 10
128.99268678429382
 20
305.62330056806877
 10
126.44148904755878
 20
312.1585663001515
 10
121.80234439358594
 20
326.44106591520085
 10
130.2740230600781
 20
328.8814280057195
 10
131.61653911921587
 20
330.84104616998866
 10
137.56971291286675
 20
334.53024213750905
 10
142.02534005143718
 20
334.53335788913864
 10
147.04095782165507
 20
335.6448556665073
 10
148.73314438948148
 20
335.2615887468746
 10
151.67736627981787
 20
336.5806618997758
 10
153.4005169611488
 20
338.62331217180326
 10
155.9040758784755
 20
340.54939899328656
 10
158.42709022788915
 20
343.9863971568957
 10
161.1116381550156
 20
345.39506196630646
 10
163.8790041804424
 20
349.5765485366701
 10
166.41198034802812
 20
350.13211497410884
 10
167.3765599726313
 20
351.89212113741087
 10
169.92354134816935
 20
355.3372428792227
 10
171.9674611394472
 20
358.3283669629491
 10
175.3145146927519
 20
361.710695015503
 10
177.06095803015307
 20
363.7171357642692
 10
180.72080860650397
 20
367.34065551722597
 10
180.70639532862117
 20
368.35778660540745
 10
178.44602537654748
 20
378.83622976158676
 10
185.56767030938556
 20
381.30218420910387
 10
189.16361526474486
 20
384.38252489807746
 10
190.82716440684965
 20
384.86031499566616
 10
194.13104094714583
 20
387.7344081083038
 10
194.8375828950244
 20
388.1981396789579
 10
198.59599829895353
 20
392.0002621185231
 10
199.92723263306254
 20
393.20616536281887
 10
205.43863043418662
 20
396.8346869031193
 10
207.0845251993502
 20
397.89075321964265
 10
209.86782474264749
 20
398.0796421503601
 10
215.26704234820875
 20
397.28748560180793
 10
218.320479222764
 20
397.5538163751953
 10
219.27500960505006
 20
397.77317235351256
 10
222.2688299045086
 20
398.2483805319971
 10
224.7035049681341
 20
398.3166254775633
 10
225.22451835770846
 20
398.5291421671618
 10
228.57757683431157
 20
399.89682412101683
 10
231.94934619570415
 20
401.6288618072449
 10
235.9383260987571
 20
402.9077605564471
 10
241.56197010705876
 20
402.49499175441815
 10
243.7118471599971
 20
401.85912855560673
 10
244.88535737175346
 20
401.795296969176
 10
247.9825257233798
 20
401.8952751490324
 10
252.31736793397488
 20
401.9680815404945
 10
255.7822855409769
 20
403.5319542408306
 10
256.32314952000445
 20
403.8700671566712
 10
258.90105560221684
 20
406.80135224395235
 10
260.0986900644449
 20
408.0646152754798
 10
263.3948554349014
 20
412.9766604371598
 10
265.4318573001075
 20
414.95315868212765
 10
268.7204045590744
 20
416.9249464149889
 10
269.6565063466502
 20
418.6189085965689
 10
274.8249373009713
 20
422.4855887607064
 10
277.6506329248374
 20
424.35968493136534
 10
283.0793834791717
 20
426.2043762966059
 10
289.96169573618783
 20
425.9518939635127
 10
290.99584505523546
 20
425.8953300283738
 10
291.23153325945907
 20
425.82159822613903
 10
296.2981897750366
 20
425.34337142546065
 10
299.31775688588334
 20
424.8894153183137
 10
302.5646209054049
 20
427.28064394358444
 10
303.6001509314152
 20
427.84362392379444
 10
308.73582707252
 20
430.2619357685853
 10
311.0113504732236
 20
431.22274667019883
 10
315.22485271483004
 20
432.68778559582825
 10
320.1654526729577
 20
433.44566174196007
 10
322.3334287027898
 20
433.9464844580925
 10
324.67225633651026
 20
433.44964738366616
 10
328.8552186895505
 20
433.0789851911213
 10
332.71354891472913
 20
432.58989967180514
 10
332.7168191204015
 20
432.5899305569583
 10
334.2918969452545
 20
433.08496435836605
 10
337.68253342907576
 20
434.5983958210072
 10
339.87613546842715
 20
434.5958644482462
 10
343.85375265878986
 20
434.9239901621768
 10
347.395692364517
 20
435.5316063338896
 10
348.61544204092127
 20
435.8732462144235
 10
351.6002681237052
 20
436.43984009765336
 10
354.1216543604047
 20
436.9113335048387
 10
354.1771966631551
 20
436.926569600304
 10
358.2720377405823
 20
439.5385231590899
 10
359.2305031408183
 20
439.7294183794329
 10
359.9955272430017
 20
441.18176129070343
 10
360.8006416338359
 20
442.28661086274406
 10
361.0495565805687
 20
444.9214095451898
 10
360.92615946489843
 20
447.8554593404624
 10
358.57516337091295
 20
453.76256811670555
 10
358.14247563797755
 20
461.5029133055996
 10
357.8634752678928
 20
465.78676259467466
 10
354.2799899496364
 20
472.9744041086433
 10
354.10425230498606
 20
473.3053045716424
 10
353.86954275959
 20
473.82256929671894
 10
350.40361852744456
 20
481.7718675955148
 10
347.64515431385337
 20
485.0123479859267
 10
345.63970203493875
 20
487.39540354484234
 10
342.554431471253
 20
489.518065463777
 10
338.6172412019779
 20
492.26686093179524
 10
336.790062788874
 20
493.5609681078531
 10
331.6861031863083
 20
495.88401247861293
 10
330.74427875095137
 20
496.3755161040881
 10
330.46854507775436
 20
496.5547683666791
 10
324.4551462406695
 20
499.93296311723134
 10
321.29321328482786
 20
502.1225547786489
 10
316.95016708814876
 20
506.8150162262609
 10
314.2483465593069
 20
508.90336200679485
 10
309.43420356807167
 20
515.223424905249
 10
308.0596650141639
 20
517.0691051366812
 10
302.6482682280822
 20
523.9563657754388
 10
301.9855430021918
 20
524.7998377186395
 10
301.23401695034556
 20
526.1925853910652
 10
297.00184685415945
 20
533.7155270988387
 10
294.7794558109882
 20
538.008417312014
 10
292.55168160039796
 20
540.5218797490124
 10
287.9837196167979
 20
546.5491211546268
 10
287.02082319757085
 20
548.120202221613
 10
282.1757838056043
 20
552.6512103928617
 10
281.16057837448045
 20
553.7459788934702
 10
276.4447660696302
 20
557.1337160844396
 10
274.43287705611385
 20
558.891225198955
 10
271.33556128253906
 20
560.4963919833244
 10
271.0499617261522
 20
560.6483411398222
 10
243.7001544545434
 20
533.2985294290629
 10
219.05490522575212
 20
508.6532763553387
 10
186.5042946795753
 20
476.10266047842924
 10
158.31823667388937
 20
447.916941160227
 10
54.38514941968208
 20
343.98385390602016
 10
54.16550007935405
 20
342.5196708734611
 10
53.19526808088824
 20
335.42248375713643
 10
51.097971808389616
 20
328.80732919047114
 10
50.919097205081584
 20
328.1329182057816
 10
50.762157046554535
 20
326.72715922055795
 10
49.45015392399057
 20
319.72080497859133
 10
48.30137417442404
 20
313.65691647142376
 10
48.11161877107736
 20
311.7051894555716
 10
47.625719660805885
 20
308.45728951063757
 10
46.48199564617664
 20
303.6391841021823
 10
46.557186645911884
 20
299.4245808839023
 10
46.09655122879542
 20
295.074353541806
 10
47.06148916357836
 20
288.2342658023581
 10
47.731485845101474
 20
283.93145234326767
 10
47.688720571511226
 20
274.5906079431388
 10
47.651229822617665
 20
272.67231922782685
 10
47.11848825225263
 20
270.5985206790501
 10
44.41132414597507
 20
261.921566961606
 10
38.80884236881877
 20
257.55792746044426
 10
36.684622854603845
 20
257.2550238900112
 10
36.52933182679055
 20
256.6741821492833
 10
31.125210973977687
 20
254.42788565075625
 10
30.07854521126376
 20
250.2597249816181
 10
29.04805508761376
 20
243.65927462951822
 10
32.67268871004501
 20
233.88501745462963
 10
32.22934238221171
 20
231.38902592833438
 10
33.661414006997006
 20
228.7409658398792
 10
34.25038839495949
 20
228.48696742517313
 10
40.36621928387888
 20
223.53839619902465
 10
41.152864925923154
 20
223.05282476671528
 10
48.4453436258533
 20
216.40226400397114
 10
48.64269085692615
 20
216.13920977514317
 10
56.30224593446894
 20
208.6982149562118
 10
56.81054126702941
 20
206.06877940321647
 10
58.853844539142415
 20
195.56887420563544
 10
59.158488272026375
 20
193.90489650264863
 10
59.59152612666787
 20
186.27802825353865
 10
59.8323436759689
 20
182.87224235089707
 10
59.847423630376966
 20
181.7218843438659
 10
58.76084903504318
 20
171.8326684226904
 10
56.10495669222439
 20
165.7717604817335
 10
55.255070333708886
 20
162.67258279746966
 10
49.32691252462894
 20
157.7849410174822
 10
48.98417012812581
 20
157.44219862097816
 10
45.39033742628146
 20
153.01460365572166
 10
45.00552863709538
 20
152.46057182476034
 10
40.52470915890092
 20
146.8728082563248
 10
37.93030948423586
 20
143.2728947383266
 10
38.051924240921494
 20
139.41325535779106
 10
38.07673205241065
 20
136.92212627935987
 10
41.46029388809495
 20
132.27970101420306
 10
44.302309012112005
 20
131.13455986867302
  0
LWPOLYLINE
  5
90
330
17
100
AcDbEntity
  8
GRABADO
100
AcDbPolyline
 90
382
 70
1
 10
368.0634395336184
 20
444.73844466370247
 10
367.5889802780572
 20
439.7162286906023
 10
365.9520443796911
 20
437.46987966572306
 10
363.8692348465921
 20
433.5158164508666
 10
360.9283703758671
 20
432.9300916338816
 10
357.0494821618778
 20
430.4558867299329
 10
355.6935902268243
 20
430.08394502173905
 10
352.8963415576478
 20
429.5608659763402
 10
350.2150808269631
 20
429.0518963120385
 10
348.9355518482449
 20
428.6935128372279
 10
344.73496677849073
 20
427.97290671993414
 10
340.16033937707573
 20
427.595531821793
 10
339.17001429161166
 20
427.5966746370814
 10
336.77614077729197
 20
426.52815446057593
 10
333.82319226378115
 20
425.6000674131046
 10
332.30458649955983
 20
425.5857250824756
 10
328.10587843301994
 20
426.11795721278395
 10
323.6322492602736
 20
426.51437608004926
 10
322.39691227651804
 20
426.7767986733561
 10
321.48576923461144
 20
426.5663161187731
 10
316.91904464374113
 20
425.8657915544072
 10
313.52489328171725
 20
424.68564174559924
 10
311.58950224539205
 20
423.86844742186076
 10
306.76559629511405
 20
421.5969434217659
 10
306.3294727393278
 20
421.35983892007243
 10
302.8892511485602
 20
418.826207608241
 10
301.2191016029552
 20
417.63561131246024
 10
300.88810031033483
 20
417.57466935360753
 10
295.4483155347426
 20
418.3924764861513
 10
289.8425297288928
 20
418.921590114237
 10
289.7404194295674
 20
418.9535339122767
 10
289.64220572264696
 20
418.9589058190659
 10
284.11097317660926
 20
419.16182286873664
 10
280.7627388352854
 20
418.02409165113386
 10
278.8593418566953
 20
416.7616948952018
 10
275.05516036326037
 20
413.91565646468916
 10
273.9359005502025
 20
411.890253009803
 10
269.7256158401584
 20
409.36579856552544
 10
268.79747951069714
 20
408.4652300105299
 10
265.58344044109947
 20
403.67557194216624
 10
264.0710542996609
 20
402.08030931226585
 10
260.90276344071174
 20
398.47770958565434
 10
259.0924103720382
 20
397.3459948135751
 10
254.30452875137973
 20
395.185009125531
 10
253.77639631436625
 20
394.9978000571664
 10
252.81746582245216
 20
394.9754937417856
 10
248.1542353796782
 20
394.8971718641724
 10
244.80803842692706
 20
394.78915491359294
 10
242.51284206810726
 20
394.9139991827633
 10
240.2986375283814
 20
395.56888834469464
 10
236.78129207900986
 20
395.82705733001967
 10
234.63522724480947
 20
395.1390118399786
 10
231.50427209849215
 20
393.5306775424415
 10
227.86828387834214
 20
392.0475911281046
 10
226.17027944669246
 20
391.35499034670465
 10
222.91829732322424
 20
391.26383594736944
 10
220.60914292820928
 20
390.89730457803853
 10
219.41375482262458
 20
390.6225982593769
 10
215.06031364741796
 20
390.242876849461
 10
209.59362651311505
 20
391.0449323191024
 10
209.35187404843748
 20
391.0285257614032
 10
209.25349001262077
 20
390.96539896344075
 10
204.22698533444884
 20
387.65611497500413
 10
203.4385705683959
 20
386.94192672138524
 10
199.29634817831823
 20
382.7515339610418
 10
198.36798470359474
 20
382.1422121032774
 10
194.25082820665205
 20
378.56063422432453
 10
192.5604049329055
 20
378.0751255726773
 10
189.11301233528968
 20
375.12203707407025
 10
186.5962407463545
 20
374.25057491165535
 10
187.6958266545031
 20
369.1532020575796
 10
187.78020634948382
 20
363.19860854510625
 10
185.33730088634513
 20
362.060838490298
 10
182.17048088974263
 20
358.9254550716687
 10
180.4475731536537
 20
356.9460537283667
 10
177.3891780298901
 20
353.8554262680791
 10
175.62966220003239
 20
351.2805061577874
 10
173.2872177288283
 20
348.11204703427757
 10
171.0207533107947
 20
343.97657574409277
 10
168.1503619599913
 20
343.34700286566294
 10
165.9565565163672
 20
340.03216561022964
 10
163.1124246554574
 20
338.5397622058026
 10
160.9593728223391
 20
335.6067486863576
 10
158.26556012019557
 20
333.53429210894956
 10
155.9975679300229
 20
330.8457780315648
 10
152.59987233868708
 20
329.32353915039675
 10
150.80225048136992
 20
327.615652525672
 10
147.02427479320488
 20
328.4713342406667
 10
145.12939283856906
 20
328.0514144665849
 10
144.503039159457
 20
327.53508879457695
 10
139.56507884593395
 20
327.5316357547654
 10
136.55765381650292
 20
325.6679273068394
 10
134.62775460956857
 20
322.85092894367153
 10
130.69632236219434
 20
321.71843577488835
 10
133.03623616547168
 20
314.51456081791
 10
136.20727206779623
 20
306.3914890664455
 10
135.9904207854412
 20
304.3266825352539
 10
133.87258348003672
 20
298.77889591009443
 10
132.44165570817825
 20
298.30122484243293
 10
128.9063046578832
 20
297.2411689398814
 10
127.02838694763443
 20
296.722874183939
 10
126.04789742862897
 20
296.68531573380824
 10
121.60487008927305
 20
295.41297406050944
 10
118.84575225011179
 20
294.06186551945757
 10
116.37883999629378
 20
292.5921809235242
 10
111.49090199674822
 20
291.5836295542613
 10
111.12373983786631
 20
290.3465945824537
 10
109.65189977860803
 20
283.62955557002533
 10
108.56949435400077
 20
276.94775619689244
 10
113.56054879141232
 20
273.030240895102
 10
115.15175522180118
 20
270.4691756518296
 10
120.32405225912828
 20
264.9614774712845
 10
121.34399665706007
 20
263.55556268328473
 10
123.07959426472337
 20
260.385770048154
 10
125.94422018634816
 20
255.04121187016608
 10
128.71930297349684
 20
245.3920962035172
 10
128.89182121588385
 20
244.898791501907
 10
129.20443248366666
 20
244.4052262289215
 10
134.22754540947483
 20
237.15048012897387
 10
135.90224240679765
 20
234.31704318377706
 10
138.8147879397785
 20
228.63038098615652
 10
142.30242845931355
 20
221.44448958859175
 10
143.03163475012173
 20
219.74388202861428
 10
143.87731398179642
 20
217.6733458006056
 10
146.89888174736973
 20
210.51290726315347
 10
148.99268457046503
 20
204.89217988790733
 10
150.27549261954948
 20
200.7793260307426
 10
151.65995078811977
 20
192.35805813639126
 10
152.16070000895763
 20
189.55051081890997
 10
151.37556379460386
 20
182.75482769262544
 10
149.54779199887037
 20
177.43579749896344
 10
148.8113013721196
 20
175.4528568526548
 10
147.9563210859502
 20
172.2315089195099
 10
146.80989784355882
 20
167.6076224018252
 10
146.10559655481723
 20
162.0083089412983
 10
145.64009600926158
 20
158.92970863350092
 10
145.69741933073567
 20
156.89979942247192
 10
147.12734202408103
 20
147.60335249411855
 10
147.64878653038943
 20
145.77600569390324
 10
148.79047674485503
 20
142.9809807408983
 10
151.49133779232727
 20
136.52934160433688
 10
153.89140706067576
 20
130.98994821269116
 10
155.3898510137907
 20
127.318727745449
 10
156.93961093951305
 20
118.06855865474972
 10
157.06725543101322
 20
115.872442112528
 10
155.91975494954806
 20
109.20535685034883
 10
154.4116543078013
 20
103.10874912105646
 10
153.89045848265107
 20
101.38010561722422
 10
153.79588328538114
 20
99.51948927797639
 10
155.68608712988828
 20
94.10802523465281
 10
157.26806628653242
 20
89.92412620839423
 10
159.69990570637913
 20
85.75381382314663
 10
162.13453258175434
 20
81.71771009172244
 10
163.19285845599427
 20
80.69490772012796
 10
167.74992879956847
 20
74.232368679096
 10
170.18680744317737
 20
71.00545487620639
 10
173.28619432087874
 20
66.67187848100912
 10
177.16576024665267
 20
61.389374893749846
 10
179.0658615515564
 20
59.37023598485939
 10
183.71799877960677
 20
54.779803264193106
 10
185.6875898264094
 20
52.90058507525828
 10
190.17832547734417
 20
48.81882355635207
 10
192.86439751417004
 20
47.00732225365027
 10
196.25201464296208
 20
45.55741467214193
 10
201.36664244431233
 20
42.421688602436916
 10
202.31684744314373
 20
42.146346290983274
 10
202.9329555933533
 20
42.470640363877465
 10
207.84789453292944
 20
42.83195160988271
 10
212.28536085609414
 20
42.98327530827373
 10
213.38850132222672
 20
43.40327900682769
 10
215.12814257254797
 20
43.107154500738034
 10
219.21525692799526
 20
42.181995030743565
 10
224.88455192163985
 20
39.740341668257315
 10
225.21954711308547
 20
39.53549562558328
 10
225.78101466384817
 20
39.38005597238953
 10
231.1287720809329
 20
37.53010086239192
 10
234.02673657628668
 20
35.75420790261887
 10
237.8973359564685
 20
29.51281073604696
 10
240.56197644452698
 20
29.14002969068133
 10
239.04757990717974
 20
26.03459012725034
 10
238.44904670289964
 20
25.493868629310782
 10
233.47217507992866
 20
21.716388289682072
 10
233.35845492709325
 20
21.649199814397434
 10
232.6328236065657
 20
21.159766917833622
 10
228.20399962540762
 20
18.352087035878867
 10
227.53835093013606
 20
17.788123179275317
 10
222.9199629059973
 20
15.788534942831575
 10
220.33081922491294
 20
15.102439910945577
 10
217.42018279100887
 20
14.75524210095682
 10
213.14062550533492
 20
14.80201330726868
 10
211.7349582172152
 20
15.132862126754844
 10
210.59535653000069
 20
14.968432367271816
 10
206.10105076772936
 20
15.130376191643336
 10
201.77245470910168
 20
16.57033550187316
 10
199.9917941162172
 20
18.306247220587466
 10
195.30707190627766
 20
23.229315412761935
 10
193.40324303870204
 20
25.201150829361723
 10
188.32261549507314
 20
27.35299414223391
 10
187.40233622967673
 20
27.920035550941975
 10
187.0821651372131
 20
28.072082562830474
 10
181.14599166469236
 20
32.35256153462069
 10
179.42874704729923
 20
33.52859472156706
 10
174.7738241057433
 20
37.658351569340084
 10
171.89730905181852
 20
39.06826319640459
 10
168.78267001123288
 20
40.302942051772334
 10
163.55775955140746
 20
43.83837696017963
 10
162.58732471020824
 20
44.368923588031976
 10
160.65701276018274
 20
45.1639972351295
 10
156.61391996602117
 20
46.79254303158996
 10
154.90111037725603
 20
48.286558283651175
 10
150.40091499025596
 20
50.94678608012873
 10
147.0975121738653
 20
53.580910642253
 10
144.10765512034834
 20
55.653850267051894
 10
140.05236273377398
 20
59.64421827157457
 10
137.61227259506688
 20
61.828441072522764
 10
132.83011641573432
 20
65.50552005690042
 10
131.32694455802505
 20
66.55239487388553
 10
125.93821230165815
 20
70.02080790797481
 10
125.1721563399675
 20
70.33905636584132
 10
124.82375026812326
 20
70.59805349938506
 10
118.84184954035402
 20
75.29004032285229
 10
117.45471476758132
 20
76.32835401150805
 10
112.45464736306042
 20
80.69214471718806
 10
110.28545189673798
 20
82.23439861953648
 10
106.42797792209524
 20
83.6315638986016
 10
101.57132928708882
 20
86.63042078708713
 10
100.22667284659803
 20
87.68939351780682
 10
97.28694355501113
 20
88.81649970127364
 10
94.22143849758334
 20
90.3918954056644
 10
93.00960421811499
 20
91.15810806271475
 10
88.08417615243036
 20
94.0311548310965
 10
84.63605097523407
 20
95.87379621694163
 10
82.02331166866418
 20
97.14742208543066
 10
76.20757402290894
 20
100.04040655845529
 10
75.98421122343336
 20
100.09226577317713
 10
75.85691915563677
 20
100.18674249030664
 10
70.14773371069907
 20
101.58992124579709
 10
66.73035397388742
 20
104.17575331062562
 10
63.88570338980901
 20
106.05995334613817
 10
58.74775475719946
 20
109.30176915978518
 10
57.58420641889836
 20
110.77711713050485
 10
51.81116408742821
 20
115.46817041938266
 10
51.1809476097402
 20
116.27230262485136
 10
45.83136462608229
 20
122.58177060371054
 10
44.542519158687924
 20
123.59129206358011
 10
41.78929287808353
 20
124.60025719107853
 10
38.60103758330399
 20
125.88490986222496
 10
36.86341078154476
 20
126.7022590816905
 10
31.867034934622666
 20
133.5575502193733
 10
31.321491629802154
 20
134.30510467586282
 10
31.092435990006493
 20
135.3103282839893
 10
31.053022101602096
 20
139.26815759684177
 10
30.858765862986388
 20
145.43319092756883
 10
34.916308480672456
 20
151.06331903076534
 10
35.00400255842544
 20
151.17756156502855
 10
35.01379604174383
 20
151.19480768199264
 10
39.39373603699926
 20
156.6517371987684
 10
39.79040137378763
 20
157.22283959818196
 10
43.77787071350542
 20
162.13539414296974
 10
44.61470781832088
 20
162.9722312477843
 10
49.09084650296984
 20
166.662713713451
 10
49.48896718202161
 20
168.11449219159476
 10
51.91966328968613
 20
173.66148862043337
 10
52.84239597890257
 20
182.0595340380023
 10
52.8355829289809
 20
182.57926018021226
 10
52.60553464708585
 20
185.83274065820842
 10
52.194449248904334
 20
193.0729718238017
 10
51.97530283936942
 20
194.2699593203224
 10
49.93860381622801
 20
204.73592731971803
 10
49.84695540800624
 20
205.21002882629546
 10
43.372085522745806
 20
211.50014264906076
 10
43.24146438583659
 20
211.6742542504835
 10
36.91936465152605
 20
217.4398533233416
 10
36.309842029061315
 20
217.81609232728078
 10
30.595071458150073
 20
222.44014909485486
 10
28.659387281135082
 20
223.27492344562506
 10
24.909992168141457
 20
230.20797301013954
 10
25.447746832110283
 20
233.2354731837695
 10
22.176529859127754
 20
242.05670018197452
 10
21.9702593037797
 20
242.85110293183607
 10
21.97640535001176
 20
243.01576020364791
 10
21.956668815166836
 20
243.61707618446235
 10
23.211573222910943
 20
251.65493511182922
 10
25.079126551763352
 20
259.0921348465963
 10
25.363429069230392
 20
259.44626928959406
 10
25.3965952239638
 20
259.45302434430596
 10
25.765961893400913
 20
259.7808763405237
 10
30.657680099150753
 20
261.81418569400375
 10
31.116921180719714
 20
263.5319049530499
 10
35.97684677847667
 20
264.224907161979
 10
38.3815203260275
 20
266.0978500642268
 10
40.38302387465649
 20
272.51303325038043
 10
40.668498404555635
 20
273.6242975082296
 10
40.689033705240604
 20
274.67502700104615
 10
40.7290052315949
 20
283.4056576451021
 10
40.13712360949205
 20
287.2068051433034
 10
39.04447896906515
 20
294.9521584340655
 10
39.55059065068019
 20
299.73186228162376
 10
39.46736213244242
 20
304.39698419847264
 10
40.746581263430585
 20
309.78588268689873
 10
41.16194449738771
 20
312.56229901732513
 10
41.36483237116511
 20
314.64909990655724
 10
42.571109122234816
 20
321.01648906887203
 10
43.83410052851934
 20
327.76111112410945
 10
44.019926171864086
 20
329.42560586063337
 10
44.374775280718154
 20
330.7634935903152
 10
46.34111272429857
 20
336.9655863943117
 10
47.236189666711766
 20
343.5130189195788
 10
47.54963415995746
 20
345.6024406677807
 10
47.54244672234074
 20
347.04064614529034
 10
153.3685040655629
 20
452.86670348851294
 10
181.5545769499546
 20
481.0524376852427
 10
214.10515735212778
 20
513.6030234183272
 10
238.75040660012985
 20
538.24827651126
 10
267.9405943842345
 20
567.4384690332299
 10
299.20126076396366
 20
598.6991405744393
 10
326.00955872652423
 20
625.5074428663465
 10
355.528787005405
 20
655.0266760222185
 10
394.89059918225814
 20
694.388495012061
 10
422.70620348013983
 20
722.2041039126343
 10
448.3317396937347
 20
747.8296443262625
 10
459.315252253669
 20
758.8131582444676
 10
471.8088824998923
 20
771.3067901524701
 10
485.00135377596655
 20
784.4992632367303
 10
490.2627463507739
 20
789.7606560238419
 10
490.26274830208934
 20
789.7606540725264
 10
490.54722903769164
 20
790.045134840615
 10
498.4068299040292
 20
797.9047364758189
 10
498.59531736675956
 20
798.0932231696825
 10
514.094949268506
 20
813.5928573844958
 10
529.938174365711
 20
829.4360848770393
 10
531.3732163391679
 20
830.8711261569188
 10
531.4792821903935
 20
830.7650603245911
 10
529.9470785403074
 20
829.2328553879979
 10
521.2161652950091
 20
820.5019395516229
 10
508.39695417811765
 20
807.6827249935523
 10
499.23940297052525
 20
798.5251710759385
 10
495.4576730927862
 20
794.7434395778528
 10
494.1014960396666
 20
793.387261951113
 10
494.10149891164167
 20
793.3872590791398
 10
481.65720026533165
 20
780.9429569112144
 10
453.7219044635955
 20
753.0076543202267
 10
407.8973384370089
 20
707.1830776815113
 10
353.9707513816662
 20
653.2564782338177
 10
285.28050977580426
 20
584.5662210226656
 10
269.9022955433185
 20
569.1880032950903
 10
274.59003157949803
 20
566.6939604275522
 10
278.4027692169544
 20
564.7180302155357
 10
280.7992434829122
 20
562.6245621679318
 10
285.8154360462564
 20
559.0210383197882
 10
287.1390812879305
 20
557.5936571492966
 10
292.49403331593805
 20
552.5857863287256
 10
293.7713305759668
 20
550.5017225581323
 10
297.9682961861796
 20
544.9639958882017
 10
300.5955205263341
 20
541.9998581128584
 10
303.1623217690927
 20
537.041686611914
 10
307.36510220068214
 20
529.57098683406
 10
307.86076272649973
 20
528.6524158251777
 10
308.1525052528592
 20
528.2811056260034
 10
313.61979308361344
 20
521.3227106374216
 10
315.0257026616906
 20
519.434906539047
 10
319.25840076602765
 20
513.87817124924
 10
321.69186474713945
 20
511.99724904038703
 10
325.909273090134
 20
507.4405335089068
 10
328.1701363578828
 20
505.8749192382056
 10
334.09421565836294
 20
502.5469022320285
 10
334.2792579922758
 20
502.42660768604765
 10
334.7575083952262
 20
502.1770263435901
 10
340.2941060975837
 20
499.6570686779469
 10
342.6437737596185
 20
497.99290618511986
 10
346.54188160103797
 20
495.2713965715375
 10
350.3865613530685
 20
492.6262621719179
 10
352.98826401330973
 20
489.5346892373127
 10
356.405899626821
 20
485.51985332514596
 10
360.26544007216773
 20
476.66777340609406
 10
360.3886828885858
 20
476.3961646760599
 10
360.5044243610406
 20
476.1782323889847
 10
364.7570577659159
 20
467.6484348064905
 10
365.12976814642855
 20
461.9257359509211
 10
365.5006140609204
 20
455.2916782424072
 10
367.8699788672744
 20
449.33841627079346
 10
368.0634395336184
 20
444.73844466370247
  0
TEXT
  5
91
330
17
100
AcDbEntity
  8
GRABADO
100
AcDbText
 10
336.4366637303397
 20
430.9866888775068
 30
0.0
 40
6.0
  1
80b
 72
1
 11
336.4366637303397
 21
430.9866888775068
 31
0.0
100
AcDbText
 73
2
  0
TEXT
  5
92
330
17
100
AcDbEntity
  8
HOJA
100
AcDbText
 10
10.0
 20
891.0
 30
0.0
 40
6.0
  1
gale_crater  hoja 39/39  1:30  lamina 3.0mm
 11
10.0
 21
891.0
 31
0.0
100
AcDbText
  0
ENDSEC
  0
SECTION
  2
OBJECTS
  0
DICTIONARY
  5
A
330
0
100
AcDbDictionary
281
1
  3
ACAD_COLOR
350
B
  3
ACAD_GROUP
350
C
  3
ACAD_LAYOUT
350
D
  3
ACAD_MATERIAL
350
E
  3
ACAD_MLEADERSTYLE
350
F
  3
ACAD_MLINESTYLE
350
10
  3
ACAD_PLOTSETTINGS
350
11
  3
ACAD_PLOTSTYLENAME
350
12
  3
ACAD_SCALELIST
350
14
  3
ACAD_TABLESTYLE
350
15
  3
ACAD_VISUALSTYLE
350
16
  3
EZDXF_META
350
2D
  0
DICTIONARY
  5
B
330
A
100
AcDbDictionary
281
1
  0
DICTIONARY
  5
C
330
A
100
AcDbDictionary
281
1
  0
DICTIONARY
  5
D
330
A
100
AcDbDictionary
281
1
  3
Model
350
1A
  3
Layout1
350
1E
  0
DICTIONARY
  5
E
330
A
100
AcDbDictionary
281
1
  3
ByBlock
350
1F
  3
ByLayer
350
20
  3
Global
350
21
  0
DICTIONARY
  5
F
330
A
100
AcDbDictionary
281
1
  3
Standard
350
2C
  0
DICTIONARY
  5
10
330
A
100
AcDbDictionary
281
1
  3
Standard
350
22
  0
DICTIONARY
  5
11
330
A
100
AcDbDictionary
281
1
  0
ACDBDICTIONARYWDFLT
  5
12
330
A
100
AcDbDictionary
281
1
  3
Normal
350
13
100
AcDbDictionaryWithDefault
340
13
  0
ACDBPLACEHOLDER
  5
13
330
12
  0
DICTIONARY
  5
14
330
A
100
AcDbDictionary
281
1
  0
DICTIONARY
  5
15
330
A
100
AcDbDictionary
281
1
  0
DICTIONARY
  5
16
330
A
100
AcDbDictionary
281
1
  3
2dWireframe
350
5A
  3
Basic
350
5B
  3
Brighten
350
5C
  3
ColorChange
350
5D
  3
Conceptual
350
5E
  3
Dim
350
5F
  3
EdgeColorOff
350
60
  3
Facepattern
350
61
  3
Flat
350
62
  3
FlatWithEdges
350
63
  3
Gouraud
350
64
  3
GouraudWithEdges
350
65
  3
Hidden
350
66
  3
JitterOff
350
67
  3
Linepattern
350
68
  3
Modeling
350
69
  3
OverhangOff
350
6A
  3
Realistic
350
6B
  3
Shaded
350
6C
  3
Shaded with edges
350
6D
  3
Shades of Gray
350
6E
  3
Sketchy
350
6F
  3
Thicken
350
70
  3
Wireframe
350
71
  3
X-Ray
350
72
  0
LAYOUT
  5
1A
330
D
100
AcDbPlotSettings
  1

  4
A3
  6

 40
7.5
 41
20.0
 42
7.5
 43
20.0
 44
420.0
 45
297.0
 46
0.0
 47
0.0
 48
0.0
 49
0.0
140
0.0
141
0.0
142
1.0
143
1.0
 70
1024
 72
1
 73
0
 74
5
  7

 75
16
 76
0
 77
2
 78
300
147
1.0
148
0.0
149
0.0
100
AcDbLayout
  1
Model
 70
1
 71
0
 10
0.0
 20
0.0
 11
420.0
 21
297.0
 12
0.0
 22
0.0
 32
0.0
 14
1e+20
 24
1e+20
 34
1e+20
 15
-1e+20
 25
-1e+20
 35
-1e+20
146
0.0
 13
0.0
 23
0.0
 33
0.0
 16
1.0
 26
0.0
 36
0.0
 17
0.0
 27
1.0
 37
0.0
 76
1
330
17
  0
LAYOUT
  5
1E
330
D
100
AcDbPlotSettings
  1

  4
A3
  6

 40
7.5
 41
20.0
 42
7.5
 43
20.0
 44
420.0
 45
297.0
 46
0.0
 47
0.0
 48
0.0
 49
0.0
140
0.0
141
0.0
142
1.0
143
1.0
 70
0
 72
1
 73
0
 74
5
  7

 75
16
 76
0
 77
2
 78
300
147
1.0
148
0.0
149
0.0
100
AcDbLayout
  1
Layout1
 70
1
 71
1
 10
0.0
 20
0.0
 11
420.0
 21
297.0
 12
0.0
 22
0.0
 32
0.0
 14
1e+20
 24
1e+20
 34
1e+20
 15
-1e+20
 25
-1e+20
 35
-1e+20
146
0.0
 13
0.0
 23
0.0
 33
0.0
 16
1.0
 26
0.0
 36
0.0
 17
0.0
 27
1.0
 37
0.0
 76
1
330
1B
  0
MATERIAL
  5
1F
102
{ACAD_REACTORS
330
E
102
}
330
E
100
AcDbMaterial
  1
ByBlock
  2

 70
0
 40
1.0
 71
1
 41
1.0
 91
-1023410177
 42
1.0
 72
1
  3

 73
1
 74
1
 75
1
 44
0.5
 73
0
 45
1.0
 46
1.0
 77
1
  4

 78
1
 79
1
170
1
 48
1.0
171
1
  6

172
1
173
1
174
1
140
1.0
141
1.0
175
1
  7

176
1
177
1
178
1
143
1.0
179
1
  8

270
1
271
1
272
1
145
1.0
146
1.0
273
1
  9

274
1
275
1
276
1
 42
1.0
 72
1
  3

 73
1
 74
1
 75
1
 94
63
  0
MATERIAL
  5
20
102
{ACAD_REACTORS
330
E
102
}
330
E
100
AcDbMaterial
  1
ByLayer
  2

 70
0
 40
1.0
 71
1
 41
1.0
 91
-1023410177
 42
1.0
 72
1
  3

 73
1
 74
1
 75
1
 44
0.5
 73
0
 45
1.0
 46
1.0
 77
1
  4

 78
1
 79
1
170
1
 48
1.0
171
1
  6

172
1
173
1
174
1
140
1.0
141
1.0
175
1
  7

176
1
177
1
178
1
143
1.0
179
1
  8

270
1
271
1
272
1
145
1.0
146
1.0
273
1
  9

274
1
275
1
276
1
 42
1.0
 72
1
  3

 73
1
 74
1
 75
1
 94
63
  0
MATERIAL
  5
21
102
{ACAD_REACTORS
330
E
102
}
330
E
100
AcDbMaterial
  1
Global
  2

 70
0
 40
1.0
 71
1
 41
1.0
 91
-1023410177
 42
1.0
 72
1
  3

 73
1
 74
1
 75
1
 44
0.5
 73
0
 45
1.0
 46
1.0
 77
1
  4

 78
1
 79
1
170
1
 48
1.0
171
1
  6

172
1
173
1
174
1
140
1.0
141
1.0
175
1
  7

176
1
177
1
178
1
143
1.0
179
1
  8

270
1
271
1
272
1
145
1.0
146
1.0
273
1
  9

274
1
275
1
276
1
 42
1.0
 72
1
  3

 73
1
 74
1
 75
1
 94
63
  0
MLINESTYLE
  5
22
102
{ACAD_REACTORS
330
10
102
}
330
10
100
AcDbMlineStyle
  2
Standard
 70
0
  3

 62
256
 51
90.0
 52
90.0
 71
2
 49
0.5
 62
256
  6
BYLAYER
 49
-0.5
 62
256
  6
BYLAYER
  0
MLEADERSTYLE
  5
2C
102
{ACAD_REACTORS
330
F
102
}
330
F
100
AcDbMLeaderStyle
179
2
170
2
171
1
172
0
 90
2
 40
0.0
 41
0.0
173
1
 91
-1056964608
 92
-2
290
1
 42
2.0
291
1
 43
8.0
  3
Standard
 44
4.0
300

342
29
174
1
175
1
176
0
178
1
 93
-1056964608
 45
4.0
292
0
297
0
 46
4.0
 94
-1056964608
 47
1.0
 49
1.0
140
1.0
294
1
141
0.0
177
0
142
1.0
295
0
296
0
143
3.75
271
0
272
9
273
9
  0
DICTIONARY
  5
2D
330
A
100
AcDbDictionary
280
1
281
1
  3
CREATED_BY_EZDXF
350
2E
  3
WRITTEN_BY_EZDXF
350
95
  0
DICTIONARYVAR
  5
2E
330
2D
100
DictionaryVariables
280
0
  1
1.4.2 @ 2026-09-06T16:30:42.886538+00:00
  0
VISUALSTYLE
  5
5A
102
{ACAD_REACTORS
330
16
102
}
330
16
100
AcDbVisualStyle
  2
2dWireframe
 70
4
 90
0
 40
0.6
 62
7
290
0
291
0
  0
VISUALSTYLE
  5
5B
102
{ACAD_REACTORS
330
16
102
}
330
16
100
AcDbVisualStyle
  2
Basic
 70
7
 90
1
 40
0.6
 62
7
290
0
291
1
  0
VISUALSTYLE
  5
5C
102
{ACAD_REACTORS
330
16
102
}
330
16
100
AcDbVisualStyle
  2
Brighten
 70
12
 90
2
 40
0.6
 62
7
290
0
291
1
  0
VISUALSTYLE
  5
5D
102
{ACAD_REACTORS
330
16
102
}
330
16
100
AcDbVisualStyle
  2
ColorChange
 70
16
 90
2
 40
0.6
 62
8
290
0
291
1
  0
VISUALSTYLE
  5
5E
102
{ACAD_REACTORS
330
16
102
}
330
16
100
AcDbVisualStyle
  2
Conceptual
 70
9
 90
3
 40
0.6
 62
7
290
0
291
0
  0
VISUALSTYLE
  5
5F
102
{ACAD_REACTORS
330
16
102
}
330
16
100
AcDbVisualStyle
  2
Dim
 70
11
 90
2
 40
0.6
 62
7
290
0
291
1
  0
VISUALSTYLE
  5
60
102
{ACAD_REACTORS
330
16
102
}
330
16
100
AcDbVisualStyle
  2
EdgeColorOff
 70
22
 90
2
 40
0.6
 62
7
290
0
291
1
  0
VISUALSTYLE
  5
61
102
{ACAD_REACTORS
330
16
102
}
330
16
100
AcDbVisualStyle
  2
Facepattern
 70
15
 90
2
 40
0.6
 62
7
290
0
291
1
  0
VISUALSTYLE
  5
62
102
{ACAD_REACTORS
330
16
102
}
330
16
100
AcDbVisualStyle
  2
Flat
 70
0
 90
2
 40
0.6
 62
7
290
0
291
1
  0
VISUALSTYLE
  5
63
102
{ACAD_REACTORS
330
16
102
}
330
16
100
AcDbVisualStyle
  2
FlatWithEdges
 70
1
 90
2
 40
0.6
 62
7
290
0
291
1
  0
VISUALSTYLE
  5
64
102
{ACAD_REACTORS
330
16
102
}
330
16
100
AcDbVisualStyle
  2
Gouraud
 70
2
 90
2
 40
0.6
 62
7
290
0
291
1
  0
VISUALSTYLE
  5
65
102
{ACAD_REACTORS
330
16
102
}
330
16
100
AcDbVisualStyle
  2
GouraudWithEdges
 70
3
 90
2
 40
0.6
 62
7
290
0
291
1
  0
VISUALSTYLE
  5
66
102
{ACAD_REACTORS
330
16
102
}
330
16
100
AcDbVisualStyle
  2
Hidden
 70
6
 90
1
 40
0.6
 62
7
290
0
291
0
  0
VISUALSTYLE
  5
67
102
{ACAD_REACTORS
330
16
102
}
330
16
100
AcDbVisualStyle
  2
JitterOff
 70
20
 90
2
 40
0.6
 62
7
290
0
291
1
  0
VISUALSTYLE
  5
68
102
{ACAD_REACTORS
330
16
102
}
330
16
100
AcDbVisualStyle
  2
Linepattern
 70
14
 90
2
 40
0.6
 62
7
290
0
291
1
  0
VISUALSTYLE
  5
69
102
{ACAD_REACTORS
330
16
102
}
330
16
100
AcDbVisualStyle
  2
Modeling
 70
10
 90
2
 40
0.6
 62
7
290
0
291
0
  0
VISUALSTYLE
  5
6A
102
{ACAD_REACTORS
330
16
102
}
330
16
100
AcDbVisualStyle
  2
OverhangOff
 70
21
 90
2
 40
0.6
 62
7
290
0
291
1
  0
VISUALSTYLE
  5
6B
102
{ACAD_REACTORS
330
16
102
}
330
16
100
AcDbVisualStyle
  2
Realistic
 70
8
 90
2
 40
0.6
 62
7
290
0
291
0
  0
VISUALSTYLE
  5
6C
102
{ACAD_REACTORS
330
16
102
}
330
16
100
AcDbVisualStyle
  2
Shaded
 70
27
 90
2
 40
0.6
 62
7
290
0
291
0
  0
VISUALSTYLE
  5
6D
102
{ACAD_REACTORS
330
16
102
}
330
16
100
AcDbVisualStyle
  2
Shaded with edges
 70
26
 90
2
 40
0.6
 62
7
290
0
291
0
  0
VISUALSTYLE
  5
6E
102
{ACAD_REACTORS
330
16
102
}
330
16
100
AcDbVisualStyle
  2
Shades of Gray
 70
23
 90
2
 40
0.6
 62
7
290
0
291
0
  0
VISUALSTYLE
  5
6F
102
{ACAD_REACTORS
330
16
102
}
330
16
100
AcDbVisualStyle
  2
Sketchy
 70
24
 90
1
 40
0.6
 62
7
290
0
291
0
  0
VISUALSTYLE
  5
70
102
{ACAD_REACTORS
330
16
102
}
330
16
100
AcDbVisualStyle
  2
Thicken
 70
13
 90
2
 40
0.6
 62
7
290
0
291
1
  0
VISUALSTYLE
  5
71
102
{ACAD_REACTORS
330
16
102
}
330
16
100
AcDbVisualStyle
  2
Wireframe
 70
5
 90
0
 40
0.6
 62
7
290
0
291
0
  0
VISUALSTYLE
  5
72
102
{ACAD_REACTORS
330
16
102
}
330
16
100
AcDbVisualStyle
  2
X-Ray
 70
25
 90
2
 40
0.5
 62
7
290
0
291
0
  0
DICTIONARYVAR
  5
95
330
2D
100
DictionaryVariables
280
0
  1
1.4.2 @ 2026-09-06T16:30:42.892820+00:00
  0
ENDSEC
  0
EOF
