  0
SECTION
  2
HEADER
  9
$ACADVER
  1
AC1024
  9
$ACADMAINTVER
 70
6
  9
$DWGCODEPAGE
  3
ANSI_1252
  9
$LASTSAVEDBY
  1
ezdxf
  9
$INSBASE
 10
0.0
 20
0.0
 30
0.0
  9
$EXTMIN
 10
1e+20
 20
1e+20
 30
1e+20
  9
$EXTMAX
 10
-1e+20
 20
-1e+20
 30
-1e+20
  9
$LIMMIN
 10
0.0
 20
0.0
  9
$LIMMAX
 10
420.0
 20
297.0
  9
$ORTHOMODE
 70
0
  9
$REGENMODE
 70
1
  9
$FILLMODE
 70
1
  9
$QTEXTMODE
 70
0
  9
$MIRRTEXT
 70
1
  9
$LTSCALE
 40
1.0
  9
$ATTMODE
 70
1
  9
$TEXTSIZE
 40
2.5
  9
$TRACEWID
 40
1.0
  9
$TEXTSTYLE
  7
OpenSans
  9
$CLAYER
  8
0
  9
$CELTYPE
  6
ByLayer
  9
$CECOLOR
 62
256
  9
$CELTSCALE
 40
1.0
  9
$DISPSILH
 70
0
  9
$DIMSCALE
 40
1.0
  9
$DIMASZ
 40
0.175
  9
$DIMEXO
 40
0.125
  9
$DIMDLI
 40
3.75
  9
$DIMRND
 40
0.0
  9
$DIMDLE
 40
0.0
  9
$DIMEXE
 40
0.375
  9
$DIMTP
 40
0.0
  9
$DIMTM
 40
0.0
  9
$DIMTXT
 40
0.25
  9
$DIMCEN
 40
2.5
  9
$DIMTSZ
 40
0.0
  9
$DIMTOL
 70
0
  9
$DIMLIM
 70
0
  9
$DIMTIH
 70
0
  9
$DIMTOH
 70
0
  9
$DIMSE1
 70
0
  9
$DIMSE2
 70
0
  9
$DIMTAD
 70
1
  9
$DIMZIN
 70
12
  9
$DIMBLK
  1
ARCHTICK
  9
$DIMASO
 70
1
  9
$DIMSHO
 70
1
  9
$DIMPOST
  1

  9
$DIMAPOST
  1

  9
$DIMALT
 70
0
  9
$DIMALTD
 70
3
  9
$DIMALTF
 40
0.03937007874
  9
$DIMLFAC
 40
100.0
  9
$DIMTOFL
 70
1
  9
$DIMTVP
 40
0.0
  9
$DIMTIX
 70
0
  9
$DIMSOXD
 70
0
  9
$DIMSAH
 70
0
  9
$DIMBLK1
  1

  9
$DIMBLK2
  1

  9
$DIMSTYLE
  2
EZDXF
  9
$DIMCLRD
 70
0
  9
$DIMCLRE
 70
0
  9
$DIMCLRT
 70
0
  9
$DIMTFAC
 40
0.5
  9
$DIMGAP
 40
0.1
  9
$DIMJUST
 70
0
  9
$DIMSD1
 70
0
  9
$DIMSD2
 70
0
  9
$DIMTOLJ
 70
0
  9
$DIMTZIN
 70
8
  9
$DIMALTZ
 70
0
  9
$DIMALTTZ
 70
0
  9
$DIMUPT
 70
1
  9
$DIMDEC
 70
2
  9
$DIMTDEC
 70
2
  9
$DIMALTU
 70
2
  9
$DIMALTTD
 70
3
  9
$DIMTXSTY
  7
OpenSansCondensed-Light
  9
$DIMAUNIT
 70
0
  9
$DIMADEC
 70
2
  9
$DIMALTRND
 40
0.0
  9
$DIMAZIN
 70
3
  9
$DIMDSEP
 70
46
  9
$DIMATFIT
 70
3
  9
$DIMFRAC
 70
0
  9
$DIMLDRBLK
  1

  9
$DIMLUNIT
 70
2
  9
$DIMLWD
 70
-2
  9
$DIMLWE
 70
-2
  9
$DIMTMOVE
 70
2
  9
$DIMFXL
 40
1.0
  9
$DIMFXLON
 70
0
  9
$DIMJOGANG
 40
0.785398163397
  9
$DIMTFILL
 70
0
  9
$DIMTFILLCLR
 70
0
  9
$DIMARCSYM
 70
0
  9
$DIMLTYPE
  6

  9
$DIMLTEX1
  6

  9
$DIMLTEX2
  6

  9
$DIMTXTDIRECTION
 70
0
  9
$LUNITS
 70
2
  9
$LUPREC
 70
4
  9
$SKETCHINC
 40
1.0
  9
$FILLETRAD
 40
10.0
  9
$AUNITS
 70
0
  9
$AUPREC
 70
2
  9
$MENU
  1
.
  9
$ELEVATION
 40
0.0
  9
$PELEVATION
 40
0.0
  9
$THICKNESS
 40
0.0
  9
$LIMCHECK
 70
0
  9
$CHAMFERA
 40
0.0
  9
$CHAMFERB
 40
0.0
  9
$CHAMFERC
 40
0.0
  9
$CHAMFERD
 40
0.0
  9
$SKPOLY
 70
0
  9
$TDCREATE
 40
2461290.4379861113
  9
$TDUCREATE
 40
2458532.153996898
  9
$TDUPDATE
 40
2461290.4379861113
  9
$TDUUPDATE
 40
2458532.1544311
  9
$TDINDWG
 40
0.0
  9
$TDUSRTIMER
 40
0.0
  9
$USRTIMER
 70
1
  9
$ANGBASE
 50
0.0
  9
$ANGDIR
 70
0
  9
$PDMODE
 70
0
  9
$PDSIZE
 40
0.0
  9
$PLINEWID
 40
0.0
  9
$SPLFRAME
 70
0
  9
$SPLINETYPE
 70
6
  9
$SPLINESEGS
 70
8
  9
$HANDSEED
  5
96
  9
$SURFTAB1
 70
6
  9
$SURFTAB2
 70
6
  9
$SURFTYPE
 70
6
  9
$SURFU
 70
6
  9
$SURFV
 70
6
  9
$UCSBASE
  2

  9
$UCSNAME
  2

  9
$UCSORG
 10
0.0
 20
0.0
 30
0.0
  9
$UCSXDIR
 10
1.0
 20
0.0
 30
0.0
  9
$UCSYDIR
 10
0.0
 20
1.0
 30
0.0
  9
$UCSORTHOREF
  2

  9
$UCSORTHOVIEW
 70
0
  9
$UCSORGTOP
 10
0.0
 20
0.0
 30
0.0
  9
$UCSORGBOTTOM
 10
0.0
 20
0.0
 30
0.0
  9
$UCSORGLEFT
 10
0.0
 20
0.0
 30
0.0
  9
$UCSORGRIGHT
 10
0.0
 20
0.0
 30
0.0
  9
$UCSORGFRONT
 10
0.0
 20
0.0
 30
0.0
  9
$UCSORGBACK
 10
0.0
 20
0.0
 30
0.0
  9
$PUCSBASE
  2

  9
$PUCSNAME
  2

  9
$PUCSORG
 10
0.0
 20
0.0
 30
0.0
  9
$PUCSXDIR
 10
1.0
 20
0.0
 30
0.0
  9
$PUCSYDIR
 10
0.0
 20
1.0
 30
0.0
  9
$PUCSORTHOREF
  2

  9
$PUCSORTHOVIEW
 70
0
  9
$PUCSORGTOP
 10
0.0
 20
0.0
 30
0.0
  9
$PUCSORGBOTTOM
 10
0.0
 20
0.0
 30
0.0
  9
$PUCSORGLEFT
 10
0.0
 20
0.0
 30
0.0
  9
$PUCSORGRIGHT
 10
0.0
 20
0.0
 30
0.0
  9
$PUCSORGFRONT
 10
0.0
 20
0.0
 30
0.0
  9
$PUCSORGBACK
 10
0.0
 20
0.0
 30
0.0
  9
$USERI1
 70
0
  9
$USERI2
 70
0
  9
$USERI3
 70
0
  9
$USERI4
 70
0
  9
$USERI5
 70
0
  9
$USERR1
 40
0.0
  9
$USERR2
 40
0.0
  9
$USERR3
 40
0.0
  9
$USERR4
 40
0.0
  9
$USERR5
 40
0.0
  9
$WORLDVIEW
 70
1
  9
$SHADEDGE
 70
3
  9
$SHADEDIF
 70
70
  9
$TILEMODE
 70
1
  9
$MAXACTVP
 70
64
  9
$PINSBASE
 10
0.0
 20
0.0
 30
0.0
  9
$PLIMCHECK
 70
0
  9
$PEXTMIN
 10
1e+20
 20
1e+20
 30
1e+20
  9
$PEXTMAX
 10
-1e+20
 20
-1e+20
 30
-1e+20
  9
$PLIMMIN
 10
0.0
 20
0.0
  9
$PLIMMAX
 10
420.0
 20
297.0
  9
$UNITMODE
 70
0
  9
$VISRETAIN
 70
1
  9
$PLINEGEN
 70
0
  9
$PSLTSCALE
 70
1
  9
$TREEDEPTH
 70
3020
  9
$CMLSTYLE
  2
Standard
  9
$CMLJUST
 70
0
  9
$CMLSCALE
 40
20.0
  9
$PROXYGRAPHICS
 70
1
  9
$MEASUREMENT
 70
1
  9
$CELWEIGHT
370
-1
  9
$ENDCAPS
280
0
  9
$JOINSTYLE
280
0
  9
$LWDISPLAY
290
0
  9
$INSUNITS
 70
4
  9
$HYPERLINKBASE
  1

  9
$STYLESHEET
  1

  9
$XEDIT
290
1
  9
$CEPSNTYPE
380
0
  9
$PSTYLEMODE
290
1
  9
$FINGERPRINTGUID
  2
{04F4B235-FCD3-4746-A878-5E524F02F791}
  9
$VERSIONGUID
  2
{8B15B3D1-1630-4416-8909-F7FE38695E08}
  9
$EXTNAMES
290
1
  9
$PSVPSCALE
 40
0.0
  9
$OLESTARTUP
290
0
  9
$SORTENTS
280
127
  9
$INDEXCTL
280
0
  9
$HIDETEXT
280
1
  9
$XCLIPFRAME
280
1
  9
$HALOGAP
280
0
  9
$OBSCOLOR
 70
257
  9
$OBSLTYPE
280
0
  9
$INTERSECTIONDISPLAY
280
0
  9
$INTERSECTIONCOLOR
 70
257
  9
$DIMASSOC
280
2
  9
$PROJECTNAME
  1

  9
$CAMERADISPLAY
290
0
  9
$LENSLENGTH
 40
50.0
  9
$CAMERAHEIGHT
 40
0.0
  9
$STEPSPERSEC
 40
24.0
  9
$STEPSIZE
 40
100.0
  9
$3DDWFPREC
 40
2.0
  9
$PSOLWIDTH
 40
0.005
  9
$PSOLHEIGHT
 40
0.08
  9
$LOFTANG1
 40
1.570796326795
  9
$LOFTANG2
 40
1.570796326795
  9
$LOFTMAG1
 40
0.0
  9
$LOFTMAG2
 40
0.0
  9
$LOFTPARAM
 70
7
  9
$LOFTNORMALS
280
1
  9
$LATITUDE
 40
37.795
  9
$LONGITUDE
 40
-122.394
  9
$NORTHDIRECTION
 40
0.0
  9
$TIMEZONE
 70
-8000
  9
$LIGHTGLYPHDISPLAY
280
1
  9
$TILEMODELIGHTSYNCH
280
1
  9
$CMATERIAL
347
20
  9
$SOLIDHIST
280
0
  9
$SHOWHIST
280
1
  9
$DWFFRAME
280
2
  9
$DGNFRAME
280
2
  9
$REALWORLDSCALE
290
1
  9
$INTERFERECOLOR
 62
256
  9
$CSHADOW
280
0
  9
$SHADOWPLANELOCATION
 40
0.0
  0
ENDSEC
  0
SECTION
  2
CLASSES
  0
CLASS
  1
ACDBDICTIONARYWDFLT
  2
AcDbDictionaryWithDefault
  3
ObjectDBX Classes
 90
0
 91
0
280
0
281
0
  0
CLASS
  1
SUN
  2
AcDbSun
  3
SCENEOE
 90
1153
 91
0
280
0
281
0
  0
CLASS
  1
VISUALSTYLE
  2
AcDbVisualStyle
  3
ObjectDBX Classes
 90
4095
 91
0
280
0
281
0
  0
CLASS
  1
MATERIAL
  2
AcDbMaterial
  3
ObjectDBX Classes
 90
1153
 91
0
280
0
281
0
  0
CLASS
  1
SCALE
  2
AcDbScale
  3
ObjectDBX Classes
 90
1153
 91
0
280
0
281
0
  0
CLASS
  1
TABLESTYLE
  2
AcDbTableStyle
  3
ObjectDBX Classes
 90
4095
 91
0
280
0
281
0
  0
CLASS
  1
MLEADERSTYLE
  2
AcDbMLeaderStyle
  3
ACDB_MLEADERSTYLE_CLASS
 90
4095
 91
0
280
0
281
0
  0
CLASS
  1
DICTIONARYVAR
  2
AcDbDictionaryVar
  3
ObjectDBX Classes
 90
0
 91
0
280
0
281
0
  0
CLASS
  1
CELLSTYLEMAP
  2
AcDbCellStyleMap
  3
ObjectDBX Classes
 90
1152
 91
0
280
0
281
0
  0
CLASS
  1
MENTALRAYRENDERSETTINGS
  2
AcDbMentalRayRenderSettings
  3
SCENEOE
 90
1024
 91
0
280
0
281
0
  0
CLASS
  1
ACDBDETAILVIEWSTYLE
  2
AcDbDetailViewStyle
  3
ObjectDBX Classes
 90
1025
 91
0
280
0
281
0
  0
CLASS
  1
ACDBSECTIONVIEWSTYLE
  2
AcDbSectionViewStyle
  3
ObjectDBX Classes
 90
1025
 91
0
280
0
281
0
  0
CLASS
  1
RASTERVARIABLES
  2
AcDbRasterVariables
  3
ISM
 90
0
 91
0
280
0
281
0
  0
CLASS
  1
LAYOUT
  2
AcDbLayout
  3
ObjectDBX Classes
 90
0
 91
0
280
0
281
0
  0
CLASS
  1
ACDBPLACEHOLDER
  2
AcDbPlaceHolder
  3
ObjectDBX Classes
 90
0
 91
0
280
0
281
0
  0
ENDSEC
  0
SECTION
  2
TABLES
  0
TABLE
  2
VPORT
  5
8
330
0
100
AcDbSymbolTable
 70
1
  0
VPORT
  5
23
330
8
100
AcDbSymbolTableRecord
100
AcDbViewportTableRecord
  2
*Active
 70
0
 10
0.0
 20
0.0
 11
1.0
 21
1.0
 12
0.0
 22
0.0
 13
0.0
 23
0.0
 14
0.5
 24
0.5
 15
0.5
 25
0.5
 16
0.0
 26
0.0
 36
1.0
 17
0.0
 27
0.0
 37
0.0
 40
1000.0
 41
1.34
 42
50.0
 43
0.0
 44
0.0
 50
0.0
 51
0.0
 71
0
 72
1000
 73
1
 74
3
 75
0
 76
0
 77
0
 78
0
281
0
 65
0
146
0.0
  0
ENDTAB
  0
TABLE
  2
LTYPE
  5
2
330
0
100
AcDbSymbolTable
 70
21
  0
LTYPE
  5
24
330
2
100
AcDbSymbolTableRecord
100
AcDbLinetypeTableRecord
  2
ByBlock
 70
0
  3

 72
65
 73
0
 40
0.0
  0
LTYPE
  5
25
330
2
100
AcDbSymbolTableRecord
100
AcDbLinetypeTableRecord
  2
ByLayer
 70
0
  3

 72
65
 73
0
 40
0.0
  0
LTYPE
  5
26
330
2
100
AcDbSymbolTableRecord
100
AcDbLinetypeTableRecord
  2
Continuous
 70
0
  3

 72
65
 73
0
 40
0.0
  0
LTYPE
  5
2F
330
2
100
AcDbSymbolTableRecord
100
AcDbLinetypeTableRecord
  2
CENTER
 70
0
  3
Center ____ _ ____ _ ____ _ ____ _ ____ _ ____
 72
65
 73
4
 40
5.08
 49
3.175
 74
0
 49
-0.635
 74
0
 49
0.635
 74
0
 49
-0.635
 74
0
  0
LTYPE
  5
30
330
2
100
AcDbSymbolTableRecord
100
AcDbLinetypeTableRecord
  2
CENTERX2
 70
0
  3
Center (2x) ________  __  ________  __  ________
 72
65
 73
4
 40
8.89
 49
6.35
 74
0
 49
-0.635
 74
0
 49
1.27
 74
0
 49
-0.635
 74
0
  0
LTYPE
  5
31
330
2
100
AcDbSymbolTableRecord
100
AcDbLinetypeTableRecord
  2
CENTER2
 70
0
  3
Center (.5x) ____ _ ____ _ ____ _ ____ _ ____
 72
65
 73
4
 40
2.54
 49
1.587
 74
0
 49
-0.318
 74
0
 49
0.318
 74
0
 49
-0.318
 74
0
  0
LTYPE
  5
32
330
2
100
AcDbSymbolTableRecord
100
AcDbLinetypeTableRecord
  2
DASHED
 70
0
  3
Dashed __ __ __ __ __ __ __ __ __ __ __ __ __ _
 72
65
 73
2
 40
1.524
 49
1.27
 74
0
 49
-0.254
 74
0
  0
LTYPE
  5
33
330
2
100
AcDbSymbolTableRecord
100
AcDbLinetypeTableRecord
  2
DASHEDX2
 70
0
  3
Dashed (2x) ____  ____  ____  ____  ____  ____
 72
65
 73
2
 40
3.048
 49
2.54
 74
0
 49
-0.508
 74
0
  0
LTYPE
  5
34
330
2
100
AcDbSymbolTableRecord
100
AcDbLinetypeTableRecord
  2
DASHED2
 70
0
  3
Dashed (.5x) _ _ _ _ _ _ _ _ _ _ _ _ _ _
 72
65
 73
2
 40
0.762
 49
0.635
 74
0
 49
-0.127
 74
0
  0
LTYPE
  5
35
330
2
100
AcDbSymbolTableRecord
100
AcDbLinetypeTableRecord
  2
PHANTOM
 70
0
  3
Phantom ______  __  __  ______  __  __  ______
 72
65
 73
6
 40
6.35
 49
3.175
 74
0
 49
-0.635
 74
0
 49
0.635
 74
0
 49
-0.635
 74
0
 49
0.635
 74
0
 49
-0.635
 74
0
  0
LTYPE
  5
36
330
2
100
AcDbSymbolTableRecord
100
AcDbLinetypeTableRecord
  2
PHANTOMX2
 70
0
  3
Phantom (2x)____________    ____    ____    ____________
 72
65
 73
6
 40
10.795
 49
6.35
 74
0
 49
-0.635
 74
0
 49
1.27
 74
0
 49
-0.635
 74
0
 49
1.27
 74
0
 49
-0.635
 74
0
  0
LTYPE
  5
37
330
2
100
AcDbSymbolTableRecord
100
AcDbLinetypeTableRecord
  2
PHANTOM2
 70
0
  3
Phantom (.5x) ___ _ _ ___ _ _ ___ _ _ ___ _ _ ___
 72
65
 73
6
 40
3.175
 49
1.587
 74
0
 49
-0.318
 74
0
 49
0.318
 74
0
 49
-0.318
 74
0
 49
0.318
 74
0
 49
-0.318
 74
0
  0
LTYPE
  5
38
330
2
100
AcDbSymbolTableRecord
100
AcDbLinetypeTableRecord
  2
DASHDOT
 70
0
  3
Dash dot __ . __ . __ . __ . __ . __ . __ . __
 72
65
 73
4
 40
3.556
 49
2.54
 74
0
 49
-0.508
 74
0
 49
0.0
 74
0
 49
-0.508
 74
0
  0
LTYPE
  5
39
330
2
100
AcDbSymbolTableRecord
100
AcDbLinetypeTableRecord
  2
DASHDOTX2
 70
0
  3
Dash dot (2x) ____  .  ____  .  ____  .  ____
 72
65
 73
4
 40
6.096
 49
5.08
 74
0
 49
-0.508
 74
0
 49
0.0
 74
0
 49
-0.508
 74
0
  0
LTYPE
  5
3A
330
2
100
AcDbSymbolTableRecord
100
AcDbLinetypeTableRecord
  2
DASHDOT2
 70
0
  3
Dash dot (.5x) _ . _ . _ . _ . _ . _ . _ . _
 72
65
 73
4
 40
1.778
 49
1.27
 74
0
 49
-0.254
 74
0
 49
0.0
 74
0
 49
-0.254
 74
0
  0
LTYPE
  5
3B
330
2
100
AcDbSymbolTableRecord
100
AcDbLinetypeTableRecord
  2
DOT
 70
0
  3
Dot .  .  .  .  .  .  .  .  .  .  .  .  .  .  .  .
 72
65
 73
2
 40
0.508
 49
0.0
 74
0
 49
-0.508
 74
0
  0
LTYPE
  5
3C
330
2
100
AcDbSymbolTableRecord
100
AcDbLinetypeTableRecord
  2
DOTX2
 70
0
  3
Dot (2x) .    .    .    .    .    .    .    . 
 72
65
 73
2
 40
1.016
 49
0.0
 74
0
 49
-1.016
 74
0
  0
LTYPE
  5
3D
330
2
100
AcDbSymbolTableRecord
100
AcDbLinetypeTableRecord
  2
DOT2
 70
0
  3
Dot (.5) . . . . . . . . . . . . . . . . . . . 
 72
65
 73
2
 40
0.254
 49
0.0
 74
0
 49
-0.254
 74
0
  0
LTYPE
  5
3E
330
2
100
AcDbSymbolTableRecord
100
AcDbLinetypeTableRecord
  2
DIVIDE
 70
0
  3
Divide __ . . __ . . __ . . __ . . __ . . __
 72
65
 73
6
 40
4.064
 49
2.54
 74
0
 49
-0.508
 74
0
 49
0.0
 74
0
 49
-0.508
 74
0
 49
0.0
 74
0
 49
-0.508
 74
0
  0
LTYPE
  5
3F
330
2
100
AcDbSymbolTableRecord
100
AcDbLinetypeTableRecord
  2
DIVIDEX2
 70
0
  3
Divide (2x) ____  . .  ____  . .  ____  . .  ____
 72
65
 73
6
 40
6.604
 49
5.08
 74
0
 49
-0.508
 74
0
 49
0.0
 74
0
 49
-0.508
 74
0
 49
0.0
 74
0
 49
-0.508
 74
0
  0
LTYPE
  5
40
330
2
100
AcDbSymbolTableRecord
100
AcDbLinetypeTableRecord
  2
DIVIDE2
 70
0
  3
Divide(.5x) _ . _ . _ . _ . _ . _ . _ . _
 72
65
 73
6
 40
2.032
 49
1.27
 74
0
 49
-0.254
 74
0
 49
0.0
 74
0
 49
-0.254
 74
0
 49
0.0
 74
0
 49
-0.254
 74
0
  0
ENDTAB
  0
TABLE
  2
LAYER
  5
1
330
0
100
AcDbSymbolTable
 70
5
  0
LAYER
  5
27
330
1
100
AcDbSymbolTableRecord
100
AcDbLayerTableRecord
  2
0
 70
0
 62
7
  6
Continuous
370
-3
390
13
347
21
  0
LAYER
  5
28
330
1
100
AcDbSymbolTableRecord
100
AcDbLayerTableRecord
  2
Defpoints
 70
0
 62
7
  6
Continuous
290
0
370
-3
390
13
347
21
  0
LAYER
  5
8A
330
1
100
AcDbSymbolTableRecord
100
AcDbLayerTableRecord
  2
CORTE
 70
0
 62
1
  6
Continuous
370
-3
390
13
347
21
  0
LAYER
  5
8B
330
1
100
AcDbSymbolTableRecord
100
AcDbLayerTableRecord
  2
GRABADO
 70
0
 62
5
  6
Continuous
370
-3
390
13
347
21
  0
LAYER
  5
8C
330
1
100
AcDbSymbolTableRecord
100
AcDbLayerTableRecord
  2
HOJA
 70
0
 62
8
  6
Continuous
370
-3
390
13
347
21
  0
ENDTAB
  0
TABLE
  2
STYLE
  5
5
330
0
100
AcDbSymbolTable
 70
26
  0
STYLE
  5
29
330
5
100
AcDbSymbolTableRecord
100
AcDbTextStyleTableRecord
  2
Standard
 70
0
 40
0.0
 41
1.0
 50
0.0
 71
0
 42
2.5
  3
txt
  4

  0
STYLE
  5
41
330
5
100
AcDbSymbolTableRecord
100
AcDbTextStyleTableRecord
  2
OpenSans-Light
 70
0
 40
0.0
 41
1.0
 50
0.0
 71
0
 42
2.5
  3
OpenSans-Light.ttf
  4

  0
STYLE
  5
42
330
5
100
AcDbSymbolTableRecord
100
AcDbTextStyleTableRecord
  2
OpenSans-Light-Italic
 70
0
 40
0.0
 41
1.0
 50
0.0
 71
0
 42
2.5
  3
OpenSans-LightItalic.ttf
  4

  0
STYLE
  5
43
330
5
100
AcDbSymbolTableRecord
100
AcDbTextStyleTableRecord
  2
OpenSans
 70
0
 40
0.0
 41
1.0
 50
0.0
 71
0
 42
2.5
  3
OpenSans-Regular.ttf
  4

  0
STYLE
  5
44
330
5
100
AcDbSymbolTableRecord
100
AcDbTextStyleTableRecord
  2
OpenSans-Italic
 70
0
 40
0.0
 41
1.0
 50
0.0
 71
0
 42
2.5
  3
OpenSans-Italic.ttf
  4

  0
STYLE
  5
45
330
5
100
AcDbSymbolTableRecord
100
AcDbTextStyleTableRecord
  2
OpenSans-SemiBold
 70
0
 40
0.0
 41
1.0
 50
0.0
 71
0
 42
2.5
  3
OpenSans-SemiBold.ttf
  4

  0
STYLE
  5
46
330
5
100
AcDbSymbolTableRecord
100
AcDbTextStyleTableRecord
  2
OpenSans-SemiBoldItalic
 70
0
 40
0.0
 41
1.0
 50
0.0
 71
0
 42
2.5
  3
OpenSans-SemiBoldItalic.ttf
  4

  0
STYLE
  5
47
330
5
100
AcDbSymbolTableRecord
100
AcDbTextStyleTableRecord
  2
OpenSans-Bold
 70
0
 40
0.0
 41
1.0
 50
0.0
 71
0
 42
2.5
  3
OpenSans-Bold.ttf
  4

  0
STYLE
  5
48
330
5
100
AcDbSymbolTableRecord
100
AcDbTextStyleTableRecord
  2
OpenSans-BoldItalic
 70
0
 40
0.0
 41
1.0
 50
0.0
 71
0
 42
2.5
  3
OpenSans-BoldItalic.ttf
  4

  0
STYLE
  5
49
330
5
100
AcDbSymbolTableRecord
100
AcDbTextStyleTableRecord
  2
OpenSans-ExtraBold
 70
0
 40
0.0
 41
1.0
 50
0.0
 71
0
 42
2.5
  3
OpenSans-ExtraBold.ttf
  4

  0
STYLE
  5
4A
330
5
100
AcDbSymbolTableRecord
100
AcDbTextStyleTableRecord
  2
OpenSans-ExtraBoldItalic
 70
0
 40
0.0
 41
1.0
 50
0.0
 71
0
 42
2.5
  3
OpenSans-ExtraBoldItalic.ttf
  4

  0
STYLE
  5
4B
330
5
100
AcDbSymbolTableRecord
100
AcDbTextStyleTableRecord
  2
OpenSansCondensed-Bold
 70
0
 40
0.0
 41
1.0
 50
0.0
 71
0
 42
2.5
  3
OpenSansCondensed-Bold.ttf
  4

  0
STYLE
  5
4C
330
5
100
AcDbSymbolTableRecord
100
AcDbTextStyleTableRecord
  2
OpenSansCondensed-Light
 70
0
 40
0.0
 41
1.0
 50
0.0
 71
0
 42
2.5
  3
OpenSansCondensed-Light.ttf
  4

  0
STYLE
  5
4D
330
5
100
AcDbSymbolTableRecord
100
AcDbTextStyleTableRecord
  2
OpenSansCondensed-Italic
 70
0
 40
0.0
 41
1.0
 50
0.0
 71
0
 42
2.5
  3
OpenSansCondensed-LightItalic.ttf
  4

  0
STYLE
  5
4E
330
5
100
AcDbSymbolTableRecord
100
AcDbTextStyleTableRecord
  2
LiberationSans
 70
0
 40
0.0
 41
1.0
 50
0.0
 71
0
 42
2.5
  3
LiberationSans-Regular.ttf
  4

  0
STYLE
  5
4F
330
5
100
AcDbSymbolTableRecord
100
AcDbTextStyleTableRecord
  2
LiberationSans-Bold
 70
0
 40
0.0
 41
1.0
 50
0.0
 71
0
 42
2.5
  3
LiberationSans-Bold.ttf
  4

  0
STYLE
  5
50
330
5
100
AcDbSymbolTableRecord
100
AcDbTextStyleTableRecord
  2
LiberationSans-BoldItalic
 70
0
 40
0.0
 41
1.0
 50
0.0
 71
0
 42
2.5
  3
LiberationSans-BoldItalic.ttf
  4

  0
STYLE
  5
51
330
5
100
AcDbSymbolTableRecord
100
AcDbTextStyleTableRecord
  2
LiberationSans-Italic
 70
0
 40
0.0
 41
1.0
 50
0.0
 71
0
 42
2.5
  3
LiberationSans-Italic.ttf
  4

  0
STYLE
  5
52
330
5
100
AcDbSymbolTableRecord
100
AcDbTextStyleTableRecord
  2
LiberationSerif
 70
0
 40
0.0
 41
1.0
 50
0.0
 71
0
 42
2.5
  3
LiberationSerif-Regular.ttf
  4

  0
STYLE
  5
53
330
5
100
AcDbSymbolTableRecord
100
AcDbTextStyleTableRecord
  2
LiberationSerif-Bold
 70
0
 40
0.0
 41
1.0
 50
0.0
 71
0
 42
2.5
  3
LiberationSerif-Bold.ttf
  4

  0
STYLE
  5
54
330
5
100
AcDbSymbolTableRecord
100
AcDbTextStyleTableRecord
  2
LiberationSerif-BoldItalic
 70
0
 40
0.0
 41
1.0
 50
0.0
 71
0
 42
2.5
  3
LiberationSerif-BoldItalic.ttf
  4

  0
STYLE
  5
55
330
5
100
AcDbSymbolTableRecord
100
AcDbTextStyleTableRecord
  2
LiberationSerif-Italic
 70
0
 40
0.0
 41
1.0
 50
0.0
 71
0
 42
2.5
  3
LiberationSerif-Italic.ttf
  4

  0
STYLE
  5
56
330
5
100
AcDbSymbolTableRecord
100
AcDbTextStyleTableRecord
  2
LiberationMono
 70
0
 40
0.0
 41
1.0
 50
0.0
 71
0
 42
2.5
  3
LiberationMono-Regular.ttf
  4

  0
STYLE
  5
57
330
5
100
AcDbSymbolTableRecord
100
AcDbTextStyleTableRecord
  2
LiberationMono-Bold
 70
0
 40
0.0
 41
1.0
 50
0.0
 71
0
 42
2.5
  3
LiberationMono-Bold.ttf
  4

  0
STYLE
  5
58
330
5
100
AcDbSymbolTableRecord
100
AcDbTextStyleTableRecord
  2
LiberationMono-BoldItalic
 70
0
 40
0.0
 41
1.0
 50
0.0
 71
0
 42
2.5
  3
LiberationMono-BoldItalic.ttf
  4

  0
STYLE
  5
59
330
5
100
AcDbSymbolTableRecord
100
AcDbTextStyleTableRecord
  2
LiberationMono-Italic
 70
0
 40
0.0
 41
1.0
 50
0.0
 71
0
 42
2.5
  3
LiberationMono-Italic.ttf
  4

  0
ENDTAB
  0
TABLE
  2
VIEW
  5
7
330
0
100
AcDbSymbolTable
 70
0
  0
ENDTAB
  0
TABLE
  2
UCS
  5
6
330
0
100
AcDbSymbolTable
 70
0
  0
ENDTAB
  0
TABLE
  2
APPID
  5
3
330
0
100
AcDbSymbolTable
 70
3
  0
APPID
  5
2A
330
3
100
AcDbSymbolTableRecord
100
AcDbRegAppTableRecord
  2
ACAD
 70
0
  0
APPID
  5
93
330
3
100
AcDbSymbolTableRecord
100
AcDbRegAppTableRecord
  2
HATCHBACKGROUNDCOLOR
 70
0
  0
APPID
  5
94
330
3
100
AcDbSymbolTableRecord
100
AcDbRegAppTableRecord
  2
EZDXF
 70
0
  0
ENDTAB
  0
TABLE
  2
DIMSTYLE
  5
4
330
0
100
AcDbSymbolTable
 70
12
100
AcDbDimStyleTable
  0
DIMSTYLE
105
2B
330
4
100
AcDbSymbolTableRecord
100
AcDbDimStyleTableRecord
  2
Standard
 70
0
 40
1.0
 41
2.5
 42
0.625
 43
3.75
 44
1.25
 45
0.0
 46
0.0
 47
0.0
 48
0.0
 49
2.5
140
2.5
141
2.5
142
0.0
143
0.03937007874
144
1.0
145
0.0
146
1.0
147
0.625
148
0.0
 69
0
 70
0
 71
0
 72
0
 73
0
 74
0
 75
0
 76
0
 77
1
 78
8
 79
3
170
0
171
3
172
1
173
0
174
0
175
0
176
0
177
0
178
0
179
2
271
2
272
2
273
2
274
3
275
0
276
0
277
2
278
44
279
0
280
0
281
0
282
0
283
0
284
8
285
0
286
0
288
0
289
3
290
0
371
-2
372
-2
  0
DIMSTYLE
105
73
330
4
100
AcDbSymbolTableRecord
100
AcDbDimStyleTableRecord
  2
EZDXF
 70
0
 40
1.0
 41
0.175
 42
0.125
 43
3.75
 44
0.375
 45
0.0
 46
0.0
 47
0.0
 48
0.0
 49
2.5
140
0.25
141
2.5
142
0.0
143
0.03937007874
144
100.0
145
0.0
146
0.5
147
0.1
148
0.0
 69
0
 70
0
 71
0
 72
0
 73
0
 74
0
 75
0
 76
0
 77
1
 78
12
 79
3
170
0
171
3
172
1
173
0
174
0
175
0
176
0
177
0
178
0
179
2
271
2
272
2
273
2
274
3
275
0
276
0
277
2
278
46
279
2
280
0
281
0
282
0
283
0
284
8
285
0
286
0
288
1
289
3
290
0
340
4C
342
74
371
-2
372
-2
  0
DIMSTYLE
105
7C
330
4
100
AcDbSymbolTableRecord
100
AcDbDimStyleTableRecord
  2
EZ_M_100_H25_CM
 70
0
 40
1.0
 41
0.25
 42
0.125
 43
3.75
 44
0.375
 45
0.0
 46
0.0
 47
0.0
 48
0.0
 49
2.5
140
0.25
141
2.5
142
0.125
143
0.03937007874
144
100.0
145
0.0
146
0.5
147
0.1
148
0.0
 69
0
 70
0
 71
0
 72
0
 73
0
 74
0
 75
0
 76
0
 77
1
 78
12
 79
3
170
0
171
3
172
1
173
0
174
0
175
0
176
0
177
0
178
0
179
2
271
2
272
2
273
2
274
3
275
0
276
0
277
2
278
46
279
2
280
0
281
0
282
0
283
0
284
8
285
0
286
0
288
1
289
3
290
0
340
4C
371
-2
372
-2
  0
DIMSTYLE
105
7D
330
4
100
AcDbSymbolTableRecord
100
AcDbDimStyleTableRecord
  2
EZ_M_50_H25_CM
 70
0
 40
1.0
 41
0.125
 42
0.0625
 43
3.75
 44
0.1875
 45
0.0
 46
0.0
 47
0.0
 48
0.0
 49
2.5
140
0.125
141
2.5
142
0.0625
143
0.03937007874
144
100.0
145
0.0
146
0.5
147
0.05
148
0.0
 69
0
 70
0
 71
0
 72
0
 73
0
 74
0
 75
0
 76
0
 77
1
 78
12
 79
3
170
0
171
3
172
1
173
0
174
0
175
0
176
0
177
0
178
0
179
2
271
2
272
2
273
2
274
3
275
0
276
0
277
2
278
46
279
2
280
0
281
0
282
0
283
0
284
8
285
0
286
0
288
1
289
3
290
0
340
4C
371
-2
372
-2
  0
DIMSTYLE
105
7E
330
4
100
AcDbSymbolTableRecord
100
AcDbDimStyleTableRecord
  2
EZ_M_25_H25_CM
 70
0
 40
1.0
 41
0.0625
 42
0.03125
 43
3.75
 44
0.09375
 45
0.0
 46
0.0
 47
0.0
 48
0.0
 49
2.5
140
0.0625
141
2.5
142
0.03125
143
0.03937007874
144
100.0
145
0.0
146
0.5
147
0.025
148
0.0
 69
0
 70
0
 71
0
 72
0
 73
0
 74
0
 75
0
 76
0
 77
1
 78
12
 79
3
170
0
171
3
172
1
173
0
174
0
175
0
176
0
177
0
178
0
179
2
271
2
272
2
273
2
274
3
275
0
276
0
277
2
278
46
279
2
280
0
281
0
282
0
283
0
284
8
285
0
286
0
288
1
289
3
290
0
340
4C
371
-2
372
-2
  0
DIMSTYLE
105
7F
330
4
100
AcDbSymbolTableRecord
100
AcDbDimStyleTableRecord
  2
EZ_M_20_H25_CM
 70
0
 40
1.0
 41
0.05
 42
0.025
 43
3.75
 44
0.07500000000000001
 45
0.0
 46
0.0
 47
0.0
 48
0.0
 49
2.5
140
0.05
141
2.5
142
0.025
143
0.03937007874
144
100.0
145
0.0
146
0.5
147
0.020000000000000004
148
0.0
 69
0
 70
0
 71
0
 72
0
 73
0
 74
0
 75
0
 76
0
 77
1
 78
12
 79
3
170
0
171
3
172
1
173
0
174
0
175
0
176
0
177
0
178
0
179
2
271
2
272
2
273
2
274
3
275
0
276
0
277
2
278
46
279
2
280
0
281
0
282
0
283
0
284
8
285
0
286
0
288
1
289
3
290
0
340
4C
371
-2
372
-2
  0
DIMSTYLE
105
80
330
4
100
AcDbSymbolTableRecord
100
AcDbDimStyleTableRecord
  2
EZ_M_10_H25_CM
 70
0
 40
1.0
 41
0.025
 42
0.0125
 43
3.75
 44
0.037500000000000006
 45
0.0
 46
0.0
 47
0.0
 48
0.0
 49
2.5
140
0.025
141
2.5
142
0.0125
143
0.03937007874
144
100.0
145
0.0
146
0.5
147
0.010000000000000002
148
0.0
 69
0
 70
0
 71
0
 72
0
 73
0
 74
0
 75
0
 76
0
 77
1
 78
12
 79
3
170
0
171
3
172
1
173
0
174
0
175
0
176
0
177
0
178
0
179
2
271
2
272
2
273
2
274
3
275
0
276
0
277
2
278
46
279
2
280
0
281
0
282
0
283
0
284
8
285
0
286
0
288
1
289
3
290
0
340
4C
371
-2
372
-2
  0
DIMSTYLE
105
81
330
4
100
AcDbSymbolTableRecord
100
AcDbDimStyleTableRecord
  2
EZ_M_5_H25_CM
 70
0
 40
1.0
 41
0.0125
 42
0.00625
 43
3.75
 44
0.018750000000000003
 45
0.0
 46
0.0
 47
0.0
 48
0.0
 49
2.5
140
0.0125
141
2.5
142
0.00625
143
0.03937007874
144
100.0
145
0.0
146
0.5
147
0.005000000000000001
148
0.0
 69
0
 70
0
 71
0
 72
0
 73
0
 74
0
 75
0
 76
0
 77
1
 78
12
 79
3
170
0
171
3
172
1
173
0
174
0
175
0
176
0
177
0
178
0
179
2
271
2
272
2
273
2
274
3
275
0
276
0
277
2
278
46
279
2
280
0
281
0
282
0
283
0
284
8
285
0
286
0
288
1
289
3
290
0
340
4C
371
-2
372
-2
  0
DIMSTYLE
105
82
330
4
100
AcDbSymbolTableRecord
100
AcDbDimStyleTableRecord
  2
EZ_M_1_H25_CM
 70
0
 40
1.0
 41
0.0025
 42
0.00125
 43
3.75
 44
0.00375
 45
0.0
 46
0.0
 47
0.0
 48
0.0
 49
2.5
140
0.0025
141
2.5
142
0.00125
143
0.03937007874
144
100.0
145
0.0
146
0.5
147
0.001
148
0.0
 69
0
 70
0
 71
0
 72
0
 73
0
 74
0
 75
0
 76
0
 77
1
 78
12
 79
3
170
0
171
3
172
1
173
0
174
0
175
0
176
0
177
0
178
0
179
2
271
2
272
2
273
2
274
3
275
0
276
0
277
2
278
46
279
2
280
0
281
0
282
0
283
0
284
8
285
0
286
0
288
1
289
3
290
0
340
4C
371
-2
372
-2
  0
DIMSTYLE
105
83
330
4
100
AcDbSymbolTableRecord
100
AcDbDimStyleTableRecord
  2
EZ_RADIUS
 70
0
 40
1.0
 41
0.25
 42
0.125
 43
3.75
 44
0.375
 45
0.0
 46
0.0
 47
0.0
 48
0.0
 49
2.5
140
0.25
141
0.0
142
0.0
143
0.03937007874
144
100.0
145
0.0
146
0.5
147
0.1
148
0.0
 69
0
 70
0
 71
0
 72
0
 73
0
 74
0
 75
0
 76
0
 77
1
 78
12
 79
3
170
0
171
3
172
0
173
0
174
0
175
0
176
0
177
0
178
0
179
2
271
2
272
2
273
2
274
3
275
0
276
0
277
2
278
46
279
1
280
0
281
0
282
0
283
0
284
8
285
0
286
0
288
1
289
3
290
0
340
4C
342
84
371
-2
372
-2
  0
DIMSTYLE
105
88
330
4
100
AcDbSymbolTableRecord
100
AcDbDimStyleTableRecord
  2
EZ_RADIUS_INSIDE
 70
0
 40
1.0
 41
0.25
 42
0.125
 43
3.75
 44
0.375
 45
0.0
 46
0.0
 47
0.0
 48
0.0
 49
2.5
140
0.25
141
0.0
142
0.0
143
0.03937007874
144
100.0
145
0.0
146
0.5
147
0.1
148
0.0
 69
0
 70
0
 71
0
 72
0
 73
0
 74
0
 75
0
 76
0
 77
0
 78
12
 79
3
170
0
171
3
172
0
173
0
174
1
175
0
176
0
177
0
178
0
179
2
271
2
272
2
273
2
274
3
275
0
276
0
277
2
278
46
279
0
280
0
281
0
282
0
283
0
284
8
285
0
286
0
288
1
289
0
290
0
340
4C
342
84
371
-2
372
-2
  0
DIMSTYLE
105
89
330
4
100
AcDbSymbolTableRecord
100
AcDbDimStyleTableRecord
  2
EZ_CURVED
 70
0
 40
1.0
 41
0.25
 42
0.125
 43
3.75
 44
0.375
 45
0.0
 46
0.0
 47
0.0
 48
0.0
 49
2.5
140
0.25
141
2.5
142
0.0
143
0.03937007874
144
100.0
145
0.0
146
0.5
147
0.1
148
0.0
 69
0
 70
0
 71
0
 72
0
 73
0
 74
0
 75
0
 76
0
 77
1
 78
12
 79
2
 90
2
170
0
171
3
172
1
173
0
174
0
175
0
176
0
177
0
178
0
179
2
271
2
272
2
273
2
274
3
275
0
276
0
277
2
278
46
279
2
280
0
281
0
282
0
283
0
284
8
285
0
286
0
288
1
289
3
290
0
340
4C
371
-2
372
-2
  0
ENDTAB
  0
TABLE
  2
BLOCK_RECORD
  5
9
330
0
100
AcDbSymbolTable
 70
5
  0
BLOCK_RECORD
  5
17
330
9
100
AcDbSymbolTableRecord
100
AcDbBlockTableRecord
  2
*Model_Space
340
1A
 70
0
280
1
281
0
  0
BLOCK_RECORD
  5
1B
330
9
100
AcDbSymbolTableRecord
100
AcDbBlockTableRecord
  2
*Paper_Space
340
1E
 70
0
280
1
281
0
  0
BLOCK_RECORD
  5
74
330
9
100
AcDbSymbolTableRecord
100
AcDbBlockTableRecord
  2
_ARCHTICK
340
0
 70
0
280
1
281
0
  0
BLOCK_RECORD
  5
78
330
9
100
AcDbSymbolTableRecord
100
AcDbBlockTableRecord
  2
_CLOSEDFILLED
340
0
 70
0
280
1
281
0
  0
BLOCK_RECORD
  5
84
330
9
100
AcDbSymbolTableRecord
100
AcDbBlockTableRecord
  2
_CLOSEDBLANK
340
0
 70
0
280
1
281
0
  0
ENDTAB
  0
ENDSEC
  0
SECTION
  2
BLOCKS
  0
BLOCK
  5
18
330
17
100
AcDbEntity
  8
0
100
AcDbBlockBegin
  2
*Model_Space
 70
0
 10
0.0
 20
0.0
 30
0.0
  3
*Model_Space
  1

  0
ENDBLK
  5
19
330
17
100
AcDbEntity
  8
0
100
AcDbBlockEnd
  0
BLOCK
  5
1C
330
1B
100
AcDbEntity
  8
0
100
AcDbBlockBegin
  2
*Paper_Space
 70
0
 10
0.0
 20
0.0
 30
0.0
  3
*Paper_Space
  1

  0
ENDBLK
  5
1D
330
1B
100
AcDbEntity
  8
0
100
AcDbBlockEnd
  0
BLOCK
  5
75
330
74
100
AcDbEntity
  8
0
100
AcDbBlockBegin
  2
_ARCHTICK
 70
0
 10
0.0
 20
0.0
 30
0.0
  3
_ARCHTICK
  1

  0
LWPOLYLINE
  5
77
330
74
100
AcDbEntity
  8
0
  6
BYBLOCK
 62
0
100
AcDbPolyline
 90
2
 70
0
 43
0.15
 10
-0.5
 20
-0.5
 10
0.5
 20
0.5
  0
ENDBLK
  5
76
330
74
100
AcDbEntity
  8
0
100
AcDbBlockEnd
  0
BLOCK
  5
79
330
78
100
AcDbEntity
  8
0
100
AcDbBlockBegin
  2
_CLOSEDFILLED
 70
0
 10
0.0
 20
0.0
 30
0.0
  3
_CLOSEDFILLED
  1

  0
SOLID
  5
7B
330
78
100
AcDbEntity
  8
0
  6
BYBLOCK
 62
0
100
AcDbTrace
 10
-1.0
 20
0.16439898372402537
 30
0.0
 11
0.0
 21
0.0
 31
0.0
 12
-1.0
 22
-0.16439898372402537
 32
0.0
 13
-1.0
 23
-0.16439898372402537
 33
0.0
  0
ENDBLK
  5
7A
330
78
100
AcDbEntity
  8
0
100
AcDbBlockEnd
  0
BLOCK
  5
85
330
84
100
AcDbEntity
  8
0
100
AcDbBlockBegin
  2
_CLOSEDBLANK
 70
0
 10
0.0
 20
0.0
 30
0.0
  3
_CLOSEDBLANK
  1

  0
LWPOLYLINE
  5
87
330
84
100
AcDbEntity
  8
0
  6
BYBLOCK
 62
0
100
AcDbPolyline
 90
3
 70
1
 10
-1.0
 20
0.16439898372402537
 10
0.0
 20
0.0
 10
-1.0
 20
-0.16439898372402537
  0
ENDBLK
  5
86
330
84
100
AcDbEntity
  8
0
100
AcDbBlockEnd
  0
ENDSEC
  0
SECTION
  2
ENTITIES
  0
LWPOLYLINE
  5
8D
330
17
100
AcDbEntity
  8
HOJA
100
AcDbPolyline
 90
4
 70
1
 10
0.0
 20
0.0
 10
600.0
 20
0.0
 10
600.0
 20
900.0
 10
0.0
 20
900.0
  0
LWPOLYLINE
  5
8E
330
17
100
AcDbEntity
  8
CORTE
100
AcDbPolyline
 90
541
 70
1
 10
310.02585254815904
 20
599.0053349242298
 10
315.3076284261358
 20
597.8051912121464
 10
316.2096503558528
 20
597.7428255641071
 10
321.54135106016724
 20
596.8212180299552
 10
323.1849279572016
 20
596.4776186569329
 10
327.7186005833796
 20
595.7591335938541
 10
330.1594178859234
 20
594.8265831683038
 10
333.71216962885796
 20
594.475174599299
 10
337.1297443586491
 20
593.898051571321
 10
339.6901735290312
 20
593.1375112077153
 10
344.10899657398704
 20
591.724592806182
 10
345.2554589625254
 20
591.258678441262
 10
348.75420244691963
 20
589.741068545718
 10
350.60564261895956
 20
589.1117162408063
 10
351.08757255396563
 20
588.9254228575687
 10
355.4464614057488
 20
586.2470897909257
 10
358.0775348040054
 20
583.9537121981894
 10
359.5075489206554
 20
582.3655657461923
 10
361.81667200418383
 20
580.4657868838076
 10
363.63844757568427
 20
578.5970185971323
 10
365.04546152361445
 20
577.5008844687272
 10
367.7317104720946
 20
574.7814083674702
 10
372.0068091887165
 20
572.1292336610145
 10
372.4660576269059
 20
571.8234585194641
 10
373.46272746910927
 20
571.212353474984
 10
377.03373161264267
 20
568.6246900944388
 10
378.98119944917426
 20
567.2564108345305
 10
381.52067201280147
 20
565.3272746380039
 10
385.9423347959189
 20
562.592381121648
 10
386.3013918582012
 20
562.438354167045
 10
387.2613959614623
 20
561.9538495547954
 10
390.96535066631964
 20
559.3456083352935
 10
392.92514553658407
 20
557.6440505549258
 10
395.3294630434332
 20
555.8834965309047
 10
399.2426018240674
 20
552.6876077267666
 10
399.65166328393457
 20
552.3734800451302
 10
399.8866621871646
 20
552.2371005279515
 10
404.50058232838205
 20
549.55945896814
 10
406.8607309082274
 20
548.0174412531474
 10
409.17820833485325
 20
546.503293589657
 10
412.9616206002081
 20
543.4261798023435
 10
413.495524794728
 20
542.9823264653842
 10
413.82417890585816
 20
542.8011020157346
 10
418.6522342894916
 20
540.5882082090752
 10
420.79717009610863
 20
539.3850484504351
 10
423.59591989855767
 20
537.8908646550613
 10
427.76725756816563
 20
535.4873718212548
 10
428.48050519679896
 20
535.133834564373
 10
431.3790479331003
 20
534.1794233313631
 10
434.1564314814566
 20
533.425772208785
 10
434.7220997845691
 20
533.2444904264994
 10
440.1010262735674
 20
532.0535125037795
 10
441.7141872625623
 20
531.1372583064372
 10
444.7318624118641
 20
528.9068827537849
 10
448.6915745450963
 20
525.4994573874546
 10
448.97488233306626
 20
525.2763393870823
 10
449.34783425525234
 20
524.9000772308545
 10
452.9755191813372
 20
521.3151327688588
 10
455.672792147079
 20
517.7233414409438
 10
456.52633499166836
 20
516.7574849910957
 10
457.11279431505295
 20
515.6264446455048
 10
459.87660036175
 20
511.9626372735079
 10
462.63263546978465
 20
509.28621452863126
 10
464.09371799817814
 20
508.31387950454564
 10
465.48157793381756
 20
506.36221171667285
 10
466.9433831496315
 20
502.80329899139315
 10
469.61845231024813
 20
499.009452477032
 10
470.27012324304474
 20
497.9711068053416
 10
470.8558124172689
 20
497.0963664045589
 10
472.328464467869
 20
491.4307249783351
 10
475.14250876154733
 20
487.85739696131077
 10
476.0345946067166
 20
487.1228541843816
 10
476.59291561842497
 20
486.1558635452575
 10
478.8501609508314
 20
481.56887724532316
 10
479.97418009990565
 20
478.549336094512
 10
478.4278077130409
 20
471.69646493515665
 10
477.9819144096275
 20
469.263711607638
 10
476.597253829412
 20
465.48642048415604
 10
474.6402982110701
 20
459.99654868662947
 10
472.4654658097959
 20
454.5081578426448
 10
471.1992761772301
 20
450.73852512024905
 10
469.6265013345294
 20
445.99910969251823
 10
467.8299757684738
 20
441.47311830683793
 10
465.48795043826
 20
435.97505859294733
 10
463.5483836496494
 20
432.1987796616945
 10
462.6420726938702
 20
431.1501951730902
 10
456.5655424094318
 20
424.11977414043713
 10
455.66929774227697
 20
423.2429811354127
 10
455.39800331673337
 20
422.927807788084
 10
448.69840464715776
 20
416.9465125505626
 10
446.0542316137596
 20
413.67093599379905
 10
441.726493005792
 20
408.960962439774
 10
436.8497717379262
 20
404.4038891977011
 10
434.7522705664112
 20
402.54371247314293
 10
430.5416701201441
 20
398.8094917291596
 10
427.78064706119244
 20
396.3979018843229
 10
426.2866696335411
 20
395.14234970147163
 10
420.8134405953808
 20
390.12693969769634
 10
416.70547694489574
 20
385.885927444534
 10
413.83796852197725
 20
382.9255815338156
 10
409.6141196114861
 20
380.27198396416543
 10
406.8675205736756
 20
378.29471569726456
 10
405.0852252255024
 20
376.6211636272956
 10
399.8923117269426
 20
372.3587781988508
 10
394.0529048025662
 20
368.8616294860876
 10
392.9197946279339
 20
368.16633914549266
 10
391.7901617915411
 20
367.35877902513994
 10
385.9612929564428
 20
361.940442381278
 10
382.5476372172368
 20
358.1061358711245
 10
378.9873675535382
 20
354.20939801656505
 10
372.373971884158
 20
349.3171993116507
 10
372.0113344694946
 20
349.0261815514309
 10
371.7391742117859
 20
348.83438730600847
 10
365.0424116129327
 20
344.13895909039456
 10
360.0096991549167
 20
339.5803508167878
 10
358.07264985859524
 20
337.7175987992491
 10
355.1029873284797
 20
335.6339207472629
 10
351.0969622957134
 20
332.5106573060539
 10
347.5175166472543
 20
330.3116522043647
 10
344.1272128471828
 20
328.00102553601073
 10
340.0772997498584
 20
324.93255663414084
 10
337.15928369200105
 20
322.730399733121
 10
335.14120685309877
 20
321.06002027069326
 10
330.19827304087744
 20
315.45831883784786
 10
326.9702823525772
 20
311.8000892014602
 10
323.2193385846988
 20
308.54184435074285
 10
317.1116386907154
 20
303.6823439210366
 10
316.25347156020575
 20
303.0008160015077
 10
315.87798938233004
 20
302.5459587903624
 10
309.2905655098011
 20
294.05118204751625
 10
308.7677602911401
 20
293.29145817894914
 10
306.5351551749079
 20
289.62813712973866
 10
303.20135421492387
 20
284.0345407653813
 10
302.3251401347093
 20
282.4274859478478
 10
298.16359364965115
 20
274.77245055526737
 10
295.35191491251317
 20
270.528310504646
 10
292.307505863208
 20
265.51635266794983
 10
288.467696093104
 20
256.36843405860554
 10
288.4277886766745
 20
256.2657126480585
 10
288.39084574280696
 20
256.1398815795742
 10
286.62125004995255
 20
247.0015756531252
 10
281.4026032196432
 20
238.56785457003252
 10
280.1878688052857
 20
237.73628771255926
 10
280.4870382500758
 20
236.52737647008917
 10
279.1480841781363
 20
228.5119154628983
 10
279.73932276144205
 20
226.31966929507007
 10
281.4022369159959
 20
224.52074636122688
 10
283.5805975164244
 20
222.1642296638447
 10
284.4614958278753
 20
219.26259265660656
 10
284.95609026235
 20
214.68832771112102
 10
285.23211290247696
 20
209.99457612410743
 10
285.74217100755436
 20
206.47835605954924
 10
286.7117094752057
 20
200.74378072044783
 10
287.1985871643544
 20
199.16269154256906
 10
288.3914031121492
 20
194.01247315461114
 10
288.7541918043553
 20
191.9524069854383
 10
288.7541918043553
 20
191.4614293474906
 10
288.39220116804563
 20
188.40786640274018
 10
287.42294119875896
 20
182.20702064744182
 10
287.63107609923145
 20
181.1986001351438
 10
287.2527200596571
 20
172.94849090246498
 10
287.44148017622774
 20
171.68904657503617
 10
287.9348230525652
 20
163.67411785562126
 10
287.57005654866134
 20
162.5819608218576
 10
288.3925125719404
 20
157.37692011882427
 10
288.565782401316
 20
154.65625853417487
 10
288.5700137803617
 20
154.42603063398747
 10
289.00045231647005
 20
145.97959980848418
 10
289.15079397659656
 20
145.20399798938251
 10
292.99703846864054
 20
142.09422809249008
 10
295.33894528566293
 20
138.46278163849456
 10
296.7641257928394
 20
137.87022089236098
 10
298.71342349282395
 20
135.9601233381518
 10
301.0729523076386
 20
134.30529519209676
 10
302.3176913431762
 20
132.32576239029868
 10
304.80912005142
 20
129.9726166183409
 10
305.31137696090786
 20
126.6702260793536
 10
307.2174835055189
 20
123.93302073589439
 10
309.2847227726677
 20
121.3375088150492
 10
311.0503625411184
 20
119.75024135364538
 10
311.621268738093
 20
117.39405284316035
 10
312.2064469578436
 20
111.98755184934225
 10
312.96712160909965
 20
108.13628347891745
 10
313.7482943491534
 20
104.78085001895988
 10
314.90760903206365
 20
98.86669560230803
 10
314.8833149238151
 20
97.00694316870886
 10
314.3321581365112
 20
89.5902801579964
 10
313.7684786437735
 20
86.25500223402014
 10
312.2396641647756
 20
80.32984927994721
 10
312.32491187816663
 20
75.08511355504288
 10
311.72654954879863
 20
71.06356357750747
 10
309.4912795703342
 20
62.05466093836867
 10
309.4779187330362
 20
61.79804607834467
 10
309.29111828175314
 20
61.42456015205471
 10
308.3733749157127
 20
60.55638268502889
 10
302.312551842283
 20
54.52331640664943
 10
300.3430655725849
 20
52.507338059742324
 10
295.34708988452417
 20
46.20164004631988
 10
292.9508563050663
 20
43.249142697889056
 10
288.3762384475913
 20
37.61258027841495
 10
285.4631319404223
 20
33.986413786661615
 10
281.40083272140896
 20
29.7123678352732
 10
276.38724968352153
 20
24.7186156010157
 10
274.41456142777884
 20
23.211237456961953
 10
272.7419299519156
 20
22.49852340500547
 10
267.43272088949016
 20
20.797457199145356
 10
262.98757289206424
 20
18.79337794580988
 10
260.4625519483932
 20
17.34755784612844
 10
253.79196695602923
 20
15.848728584983292
 10
253.48839563569595
 20
15.730232726179565
 10
252.4851782847827
 20
15.442828803255907
 10
246.49961391044235
 20
13.555527820993575
 10
245.22134735804752
 20
13.749976462419454
 10
239.51952063092972
 20
13.040369277502123
 10
237.95518170116952
 20
13.381659844070782
 10
232.53628137303667
 20
14.757442255371643
 10
232.0718117789204
 20
14.842588751484982
 10
231.13070136048964
 20
15.449349567037189
 10
227.06775138573676
 20
17.480969879530676
 10
225.5397675715335
 20
18.766225909368586
 10
222.3116696905529
 20
20.428737825741337
 10
218.56224357299243
 20
24.114758762847487
 10
218.26676532442434
 20
24.33048414637142
 10
217.9293670733357
 20
24.721278496562718
 10
214.00184086511263
 20
27.931605927120927
 10
211.58429667908763
 20
31.030349763213053
 10
210.29282057678665
 20
32.28040131870421
 10
209.37074181715025
 20
33.994446097296986
 10
206.9326717184358
 20
37.078926396777206
 10
204.61112552740747
 20
40.55831173956585
 10
203.46411549773597
 20
41.71709023970516
 10
202.13782270795468
 20
43.24321326581867
 10
199.41272631583092
 20
45.60658783620602
 10
197.632773622659
 20
49.148280055176656
 10
196.53335728862658
 20
51.049318902284995
 10
195.38648296923816
 20
52.51328103529477
 10
193.18856071229925
 20
55.8858323319123
 10
191.49441641298017
 20
61.790594601361136
 10
191.16800742985652
 20
62.45950153082049
 10
190.66182902934497
 20
63.53856029925964
 10
188.15902148280202
 20
67.71024788888326
 10
186.0209730630404
 20
71.04421089160678
 10
185.23555937639276
 20
73.10937668141514
 10
183.68718354735233
 20
77.43400257537223
 10
182.94333490199529
 20
79.33066691408294
 10
182.72068454662417
 20
80.31376655660324
 10
180.37122626178757
 20
85.14829474203816
 10
177.22677321120113
 20
89.55448872874558
 10
176.9687372499236
 20
89.88593597810905
 10
176.71996488677723
 20
90.38977074231889
 10
174.09541836923358
 20
95.33228212522727
 10
171.81935281192318
 20
98.82126873136531
 10
170.93976853027084
 20
100.41255677943855
 10
169.74616890134666
 20
103.67573307810426
 10
168.56033809048608
 20
106.51415043589486
 10
167.85716357847446
 20
108.09578174990929
 10
166.56972102759755
 20
113.10224490143537
 10
162.81735698786497
 20
115.0113030915536
 10
161.41961210683417
 20
115.42880844607225
 10
155.8781198722004
 20
115.63172015362579
 10
154.48796388180676
 20
115.45037691244579
 10
148.915416653409
 20
114.55528369233934
 10
146.5819746535501
 20
114.20650297489374
 10
141.9492033636202
 20
113.4061301548877
 10
138.29174906863068
 20
112.44234185448568
 10
134.9880967379445
 20
111.27726716378493
 10
128.67161494403672
 20
108.92306954976175
 10
128.0040901712689
 20
108.7725645152941
 10
121.17190468502395
 20
108.0458113884929
 10
121.0144598314671
 20
108.03382948187482
 10
120.98230303965283
 20
108.04210217472837
 10
120.94588664187154
 20
108.06768079022822
 10
117.7615924204365
 20
113.06723369581687
 10
113.99924932282738
 20
115.343511762052
 10
113.2519358803363
 20
116.33513812079809
 10
111.81472513601693
 20
117.31993439087955
 10
108.74134181169438
 20
119.5720623464158
 10
107.0432587918342
 20
120.27921670629257
 10
103.9500868762816
 20
122.46301129537005
 10
100.0779855123285
 20
123.83940539388095
 10
98.630013025891
 20
124.64783667793063
 10
93.11126187550872
 20
126.44600892032076
 10
93.03477918504518
 20
126.48044053814783
 10
92.85367266302364
 20
126.57611519927968
 10
88.18032563616202
 20
129.3029562671545
 10
86.12761639659698
 20
130.5911907536224
 10
83.44875514624937
 20
132.292284191627
 10
79.67320734150621
 20
135.86629574810468
 10
79.59369778430278
 20
136.5073547810307
 10
79.12857184447853
 20
137.63907687995743
 10
76.88969026637005
 20
142.1663701128864
 10
76.17451863656811
 20
145.17718888067202
 10
79.13279636547668
 20
149.64112491251535
 10
81.79370692848511
 20
154.4432030679718
 10
81.83263525171105
 20
158.01952348626855
 10
80.99234528459283
 20
163.6673832093611
 10
80.45797053404749
 20
165.3990512176929
 10
79.145481100408
 20
166.36368502929827
 10
76.53998485696707
 20
169.428697077401
 10
72.17487195945819
 20
172.71688342351308
 10
72.10416385302551
 20
172.7979752204851
 10
71.98454715949356
 20
172.89590884766858
 10
69.15303295997342
 20
178.11500702310286
 10
65.22855338548243
 20
178.55514807148393
 10
63.45086364568692
 20
179.77669272325056
 10
58.26424630597785
 20
180.81429913462398
 10
57.4632492956282
 20
181.1136724440962
 10
56.65993097286264
 20
182.1975315123782
 10
58.21790784732434
 20
185.31093157733994
 10
61.36464483111354
 20
191.49384948495435
 10
63.44013246697341
 20
198.4264074296375
 10
63.561971187439894
 20
200.73282931935773
 10
64.56567420484407
 20
209.177814832055
 10
64.65075353963925
 20
209.9908907873487
 10
64.65075353963925
 20
218.50707224264488
 10
63.70601917210706
 20
219.24404884806336
 10
65.20025020295748
 20
220.55948283238286
 10
71.21687336432024
 20
228.5526174217839
 10
72.16634777051513
 20
229.8723033337269
 10
78.42976868134474
 20
237.8087447491307
 10
79.12573188237502
 20
239.25620391429402
 10
80.90974602198366
 20
247.03653918280133
 10
80.83129028369353
 20
249.2911831034935
 10
79.44351917589529
 20
256.2760309941891
 10
79.38236475799863
 20
256.6202337754503
 10
79.1235393592035
 20
257.9180944212485
 10
77.83338646791026
 20
263.8328711132717
 10
77.91650579766292
 20
265.5605221243827
 10
79.12393107383696
 20
271.0009099136996
 10
80.07044845280393
 20
274.82607556809717
 10
80.32407462190827
 20
276.4191662731214
 10
81.66318994006224
 20
284.06549201918597
 10
80.86807889722354
 20
286.3575338020137
 10
79.13075737194822
 20
290.38208628236
 10
78.10175867810563
 20
291.9329317299844
 10
77.60275306037715
 20
293.3109977821009
 10
76.32428257929223
 20
298.8592170080483
 10
75.66764458759098
 20
302.58464692130246
 10
75.4751078329748
 20
307.00623789322344
 10
75.38752272496026
 20
311.8543480824528
 10
75.57956244963498
 20
316.4101812875956
 10
75.66713441307047
 20
321.10221043178444
 10
74.5713777310632
 20
324.3048048911478
 10
73.17197669261782
 20
330.36184203813536
 10
73.03716223885431
 20
331.52885922296855
 10
72.15704216334734
 20
333.4731765796382
 10
70.5945236029088
 20
337.52994012903673
 10
69.63053148829067
 20
339.61019803443287
 10
68.53217841067362
 20
344.05704202028846
 10
66.23495768170619
 20
348.866061332993
 10
65.87680874316766
 20
349.7962116672679
 10
65.18204768543842
 20
353.2968222699815
 10
64.40007516128958
 20
357.09748886514626
 10
64.07970044891681
 20
358.1106989019977
 10
60.32691800376824
 20
360.9105249122099
 10
58.44949241355471
 20
367.38578174698296
 10
58.34689125252203
 20
367.5475497902157
 10
58.223171161464506
 20
367.77821378037834
 10
54.57442170660147
 20
371.78259013729485
 10
51.55203103352619
 20
376.6431582248665
 10
51.442589707814705
 20
376.907160034601
 10
51.24598701000082
 20
377.2909035789721
 10
48.954984365465634
 20
382.862982270653
 10
47.386299950893545
 20
385.90883071467124
 10
46.42680529239533
 20
388.7654349101722
 10
44.27623083431354
 20
392.380272278378
 10
43.53366570479966
 20
394.17649403193036
 10
42.8910249434191
 20
395.16862218272126
 10
41.521504122738634
 20
400.78623591221503
 10
40.373649144318506
 20
404.43685765823557
 10
39.4678724265525
 20
407.31753591200095
 10
37.773967719268285
 20
413.6987897703466
 10
37.631768634455284
 20
414.14065173264817
 10
37.29991907756107
 20
415.6441744794638
 10
35.844359382471566
 20
421.0267080636331
 10
35.328055721476176
 20
422.9555035407384
 10
33.48376114782354
 20
427.13971428558534
 10
31.70810271622304
 20
432.22156967319734
 10
31.429716224778076
 20
433.6900856796947
 10
30.32844885267309
 20
439.4285229506727
 10
30.008079618519787
 20
441.05657351996206
 10
29.876522733899492
 20
441.48085609938016
 10
28.168527065515264
 20
447.8706667221363
 10
27.324877516143488
 20
450.7395400324194
 10
26.08660567098832
 20
454.3565451725567
 10
23.75265027188243
 20
459.997439780544
 10
23.6350180530535
 20
460.3757934372129
 10
23.356890479216872
 20
462.7623089784838
 10
22.68364098149732
 20
468.37791591191217
 10
22.529671274717657
 20
469.2675689489006
 10
20.940288265462186
 20
475.3171630318611
 10
20.450646150138937
 20
478.52998943782404
 10
19.497349488085092
 20
482.666357056361
 10
19.173101021428238
 20
487.79347144793564
 10
18.501100925949913
 20
490.6042182831475
 10
18.246656850409636
 20
497.0584441940546
 10
17.95284112425884
 20
499.1322604774432
 10
16.388039353449358
 20
506.20026763301075
 10
16.364918904289652
 20
506.27770797001585
 10
16.358310361622898
 20
506.31252549557075
 10
15.086966553964885
 20
513.8481394325472
 10
14.835409886686875
 20
515.5771962344966
 10
14.202128057771233
 20
521.9339537168325
 10
13.614930345606354
 20
524.8422097037505
 10
14.064144498684982
 20
531.0286243293867
 10
14.293070239459212
 20
534.1132448208482
 10
14.855016646202557
 20
541.3411587744686
 10
15.06841412209701
 20
543.3714185701692
 10
14.919666691406974
 20
550.6838539570545
 10
15.092706696129653
 20
552.6321320162415
 10
15.092700225273575
 20
560.1722840959578
 10
15.121997847487592
 20
561.8883003098181
 10
14.796667695813994
 20
569.0327638061995
 10
14.559274334043494
 20
571.141024160655
 10
13.8190669660803
 20
576.9934013356997
 10
13.614824182264101
 20
580.4043062669684
 10
13.098400655848764
 20
585.2994529729276
 10
13.048465178791957
 20
589.6711870652466
 10
13.123491929367447
 20
594.5973851866779
 10
13.00113816809926
 20
598.9316801091541
 10
13.133978033348285
 20
603.8728475396629
 10
13.066290236972009
 20
608.1977496349527
 10
14.07050351622729
 20
614.3884969901064
 10
14.63937926048311
 20
617.4674945115194
 10
16.3872478230453
 20
625.6541807180088
 10
16.604263277122755
 20
626.7279340451491
 10
16.67660527707949
 20
627.1103851421822
 10
17.74766902375586
 20
635.9909836834213
 10
18.898342910010797
 20
639.3321087297913
 10
21.274446024470308
 20
645.2606364430685
 10
23.360828675866742
 20
651.4304487830887
 10
24.555836188552348
 20
654.5291531399116
 10
30.33949435779573
 20
663.6285484120112
 10
30.45667139127454
 20
663.7992594981097
 10
35.98807827827977
 20
671.3014707161847
 10
37.28896416796715
 20
673.0660053644024
 10
37.321387853939086
 20
673.0971114061435
 10
37.38550187900205
 20
673.1562152921988
 10
44.29306156877078
 20
679.8682285796076
 10
47.21226415970409
 20
682.3356805067579
 10
51.26582553748926
 20
685.3493790991388
 10
57.85369583300144
 20
691.5921797553074
 10
58.23368167045555
 20
691.94419359627
 10
59.14303652561193
 20
692.8001520651492
 10
65.20768861138026
 20
698.2021187984424
 10
68.6644297048665
 20
700.862057011569
 10
72.19513660130133
 20
702.613343006562
 10
74.11576188239042
 20
703.4138282687481
 10
79.17348076095845
 20
705.1426355536846
 10
83.40123027824347
 20
706.4834701330597
 10
86.14178099870173
 20
707.2163672714596
 10
92.32547345853777
 20
710.1274363648927
 10
93.11046320824357
 20
710.4451157292324
 10
93.45398236160986
 20
710.5812245141615
 10
100.09189718133848
 20
712.4770706785603
 10
102.1535402674856
 20
712.8582161228264
 10
107.07552718468924
 20
712.7758861183625
 10
109.28786173299295
 20
713.0627031652934
 10
114.06092044868342
 20
711.8923345271373
 10
115.34761418940093
 20
711.8428876203052
 10
121.03169824791985
 20
710.4688372389915
 10
121.27242611900647
 20
710.4582102846698
 10
123.60629910236594
 20
710.1329367214285
 10
127.56763444593025
 20
709.5502788418521
 10
128.01245254996093
 20
709.4463910052796
 10
133.16198413240681
 20
707.7005545703128
 10
135.00097818067866
 20
706.8927137253804
 10
137.88377075537164
 20
704.6823374940464
 10
141.9854956989475
 20
701.9784716599434
 10
142.41334519154157
 20
701.4046715771265
 10
142.8897977997508
 20
700.8429112654139
 10
145.69398358862873
 20
696.4966215706945
 10
148.96636402851846
 20
692.4140630848528
 10
149.2353547095272
 20
691.9320813361956
 10
149.47329464000245
 20
691.57885353541
 10
152.47091011409407
 20
686.9718478171367
 10
155.37168709415118
 20
682.3133733839163
 10
155.59736703573594
 20
681.8552750898671
 10
155.94070107950165
 20
681.2424762329911
 10
158.4421489445399
 20
676.3789667939586
 10
160.6257989176845
 20
673.0559036143645
 10
161.6245482559932
 20
671.3508153725388
 10
162.9074029522751
 20
669.4961656538676
 10
164.91735609131456
 20
666.4669210644215
 10
166.69071572432586
 20
663.7942872098783
 10
168.01653707419223
 20
661.3173944056589
 10
169.8785899354857
 20
658.4381262614006
 10
171.265118942061
 20
656.384727600006
 10
172.75372612827982
 20
654.5384137815495
 10
174.58387448638496
 20
651.5268812523068
 10
176.84874626584087
 20
648.3612887704458
 10
177.91696890905996
 20
646.7093175831355
 10
179.52337819454033
 20
645.2894293304321
 10
181.9746825842924
 20
642.8598184569628
 10
183.8036974942679
 20
641.5731456501526
 10
186.32348911417353
 20
639.3853693814685
 10
190.76872702659284
 20
636.7233065564983
 10
191.11192271308278
 20
636.4862846720744
 10
191.71272927367067
 20
636.0301882671056
 10
195.08119238517565
 20
632.494379579663
 10
197.73720022921316
 20
630.9871207212982
 10
199.8895488239507
 20
629.6418474047923
 10
204.7002351519634
 20
627.3527275171973
 10
205.02472377601885
 20
627.2155642479115
 10
206.04328351719028
 20
626.7817687751431
 10
210.15069392603937
 20
624.7725995929072
 10
211.6624412728072
 20
624.4312786864125
 10
215.67055330024277
 20
622.8404986774235
 10
218.6450834284267
 20
621.6782224647468
 10
220.76111361168955
 20
620.325232364898
 10
225.61595072159867
 20
617.8717833764786
 10
225.79572785875098
 20
617.7773601725676
 10
227.3285659142607
 20
617.5268921430425
 10
232.00866451006527
 20
616.7820813614335
 10
232.58064186935871
 20
616.615019384351
 10
237.07821159016066
 20
614.233497549722
 10
239.54530246162153
 20
613.351882409906
 10
242.72693982055557
 20
612.5032535271916
 10
246.49716986955605
 20
612.0206223462951
 10
249.39580443895534
 20
612.1201719000323
 10
253.48044995855594
 20
611.7570186232429
 10
255.55591699426645
 20
611.0224565096555
 10
260.450524932555
 20
610.5091044570104
 10
261.82363605239834
 20
610.0710893105397
 10
265.7780131496179
 20
608.2596619243882
 10
266.96102430746555
 20
607.6319006566241
 10
267.4266206289908
 20
607.4812489804508
 10
272.7766006217664
 20
606.1154305007863
 10
274.38687010582953
 20
605.7167662232973
 10
279.3040975473159
 20
605.5496026289907
 10
281.35279327301487
 20
605.4765457505787
 10
285.854987008903
 20
604.958669135789
 10
288.35443818291515
 20
603.3645928305364
 10
290.7646836809588
 20
602.2050386502406
 10
295.31961207525364
 20
599.8603381149146
 10
295.80181162443455
 20
599.6695677073476
 10
302.2711730789367
 20
599.6695677073476
 10
302.6740568327882
 20
599.5383779728691
 10
309.24215674350694
 20
599.146960715455
 10
309.3340692816921
 20
599.1219784414197
 10
310.02585254815904
 20
599.0053349242298
  0
LWPOLYLINE
  5
8F
330
17
100
AcDbEntity
  8
CORTE
100
AcDbPolyline
 90
494
 70
1
 10
38.952754033428846
 20
455.35005127955765
 10
39.89968527635847
 20
452.6999327496151
 10
40.929591631333096
 20
448.1573445934814
 10
42.23491498512658
 20
443.0060294081363
 10
42.660726424870745
 20
440.78722923469195
 10
43.89226640289667
 20
434.29073523821035
 10
46.53621770659538
 20
428.50080210233637
 10
47.36410905050025
 20
424.41436013797284
 10
48.13216762378329
 20
420.93448948024025
 10
49.82627778628307
 20
415.6703006020721
 10
50.13578240326069
 20
414.5043391859608
 10
50.88255174654773
 20
412.1293585029821
 10
52.09650446204
 20
408.9918497298936
 10
52.99845066687021
 20
407.04233302565217
 10
54.769967357163296
 20
401.8715844238636
 10
55.53250323086422
 20
397.6644794100953
 10
56.318248628121864
 20
396.3437430769595
 10
57.777004308784626
 20
392.0007406843097
 10
58.83133033711215
 20
389.6159788127284
 10
59.15236466777128
 20
388.4924036053467
 10
61.24026109250531
 20
384.4170944503039
 10
63.120121850885425
 20
379.88236646674886
 10
63.98173859861686
 20
378.9367718798858
 10
66.61397212912539
 20
374.02923031572846
 10
68.98373193474185
 20
370.2929041101702
 10
69.34763769035294
 20
369.0377900627659
 10
70.21143273490884
 20
368.3933413454238
 10
72.025166531673
 20
365.94855207663386
 10
77.60706804899837
 20
362.42219016595527
 10
78.24390447481528
 20
359.21343757453724
 10
78.87808626199694
 20
357.5664009987895
 10
79.83963343493656
 20
353.1770246119304
 10
80.78904660093531
 20
351.7710495024844
 10
82.24899799895638
 20
346.02640575537407
 10
83.50684925921928
 20
342.13619260382893
 10
84.60350952850854
 20
339.71350545546466
 10
85.53287902746206
 20
331.6684468874728
 10
85.83252374742301
 20
330.7926680437922
 10
87.42124995173504
 20
324.703767131507
 10
88.06515380569522
 20
321.7513844526161
 10
87.81699285560012
 20
313.94889213021634
 10
87.78861774888969
 20
311.91789683422394
 10
88.00188041030879
 20
305.374299828311
 10
88.09902398696613
 20
303.32657320297176
 10
88.85744744428348
 20
298.75895881086853
 10
89.77525214788398
 20
295.7106707073781
 10
90.77824425199105
 20
293.3872122676903
 10
92.7324172350443
 20
287.7539788113413
 10
93.24832721422467
 20
286.1669668750642
 10
93.57354003482442
 20
284.21930674058194
 10
93.02537374535132
 20
279.79466126567695
 10
92.01250804267102
 20
273.4325932579645
 10
91.53000559691395
 20
271.4826535899924
 10
90.46228558101643
 20
265.61038452957564
 10
90.79534219170569
 20
263.9402970117012
 10
91.9270660895229
 20
257.57047898961673
 10
92.2410205889455
 20
255.9903016745361
 10
92.50157041248735
 20
248.5026775887991
 10
95.24472954353519
 20
242.76784033728927
 10
95.92327823169853
 20
236.45790167989662
 10
91.33641387407783
 20
227.4721120014833
 10
83.76195736791874
 20
223.48786258310292
 10
80.95713798381053
 20
219.34762369452392
 10
80.29699494512238
 20
218.36053706003713
 10
81.75162089954597
 20
214.5099437583076
 10
81.52981629663259
 20
208.80398364643315
 10
78.62771822156947
 20
199.47204246587262
 10
77.09708055889428
 20
196.71071075611553
 10
71.45402620329105
 20
190.31170572134215
 10
71.02582848993552
 20
188.8814368012445
 10
70.8117033146068
 20
188.46070942942015
 10
75.98473750225958
 20
187.8805395884392
 10
78.13327487295146
 20
183.92031665431796
 10
80.60410990405171
 20
180.35422608962654
 10
82.32734454685692
 20
177.76498587986543
 10
83.25988346009399
 20
177.06251568179232
 10
83.94953330385601
 20
176.2512364157319
 10
88.75818479739723
 20
172.71704581578706
 10
91.07064231381946
 20
165.22341199845732
 10
91.53750822548841
 20
162.08545571933792
 10
91.43423630879647
 20
152.59793009027726
 10
87.09641651293032
 20
144.76957615248648
 10
88.57907347215269
 20
141.1620464444818
 10
88.81948104587082
 20
139.22372038486583
 10
89.864339585577
 20
138.56022875934514
 10
92.85357442718578
 20
136.68425171550098
 10
95.8365143355486
 20
134.9437426117738
 10
96.52238938295909
 20
134.75764564200972
 10
100.46904637134435
 20
133.14856708020943
 10
102.49740661012834
 20
132.48766736221842
 10
102.97678008419985
 20
132.22002380074673
 10
108.37822646342988
 20
130.30000202936253
 10
110.44851257467235
 20
128.8383698501616
 10
113.57663038302621
 20
127.53568787259337
 10
117.26176120573064
 20
124.8352807740257
 10
117.58578338978441
 20
124.72818395007926
 10
120.02158517826388
 20
123.36921955148773
 10
124.58999489929101
 20
120.60525821788133
 10
126.14295864033056
 20
118.1670022516073
 10
126.86023602133923
 20
118.2433004698687
 10
128.98479923152217
 20
118.72232008415676
 10
132.60151991610383
 20
120.07029756339807
 10
138.49933991295256
 20
122.1502382232593
 10
140.45871519024558
 20
122.66655990934032
 10
147.5574861352943
 20
123.89296694830091
 10
147.84291165366676
 20
123.93562964018747
 10
149.67373386625604
 20
124.22970638508377
 10
155.31960885997705
 20
125.01865824377273
 10
156.46557586079234
 20
125.04312313357241
 10
163.85276327357064
 20
124.80430772474529
 10
165.38771746813927
 20
124.39957533897586
 10
167.13760864573555
 20
123.67876911675876
 10
174.20091896682447
 20
120.08522907772203
 10
176.53118108347348
 20
111.02356538449294
 10
176.8150262235688
 20
109.87360624719395
 10
178.59467079371825
 20
105.00824449553738
 10
180.0189218171888
 20
102.43157995254614
 10
181.3071506730862
 20
100.45685070565287
 10
182.95081929612775
 20
97.36151563545809
 10
184.05698355562367
 20
95.12121851477968
 10
185.13268074992584
 20
93.73948523064973
 10
187.5873055178174
 20
90.29991951988495
 10
190.05955333403222
 20
85.212724813764
 10
190.4063178327574
 20
84.40091326979746
 10
191.01651881481598
 20
83.50373660170362
 10
193.2037461420632
 20
77.3947934381772
 10
194.41439699028274
 20
74.2115095743361
 10
195.24656748751295
 20
72.91386559954117
 10
196.84781056859993
 20
70.24490853227917
 10
198.46824793888322
 20
66.79049966903312
 10
199.67871561514653
 20
64.30989938410812
 10
200.80281835016763
 20
60.39195719972213
 10
203.57399101782698
 20
56.14586897482377
 10
203.79515000408128
 20
55.76345531473862
 10
206.03635356586983
 20
51.30398105659515
 10
209.6192906808942
 20
48.196633188305896
 10
210.24063236815005
 20
47.456823049920786
 10
213.5624118258106
 20
42.47835189064517
 10
217.21880381864048
 20
37.85253367688347
 10
217.25237228818378
 20
37.790133519256415
 10
220.05208171085087
 20
34.20154044762285
 10
223.32631627295154
 20
31.525208203985585
 10
223.88275671783572
 20
30.941596046298855
 10
225.0740216695765
 20
30.079928981808735
 10
227.56474935943857
 20
27.63132108139871
 10
229.44390325048903
 20
26.663532664890226
 10
231.8771281756101
 20
24.616837550784112
 10
235.18607279780076
 20
22.962246884117576
 10
238.19343163640906
 20
22.236829489011598
 10
239.9171341619783
 20
21.799205714187792
 10
244.61643589758955
 20
22.384046053130533
 10
245.02928790093642
 20
22.437919904811224
 10
251.2469563583411
 20
24.21917130010479
 10
253.71171284544562
 20
25.181262963974405
 10
257.89923053096413
 20
26.122166055053185
 10
262.6811819125842
 20
28.86029836265925
 10
264.9181885213002
 20
29.86884488050282
 10
269.56761077505485
 20
31.358515936895856
 10
270.5816307730654
 20
31.695600060018478
 10
272.4362415175583
 20
33.611201060197345
 10
276.393001408406
 20
37.55231032198162
 10
277.3865180152693
 20
38.59761383171008
 10
282.930038298666
 20
45.49805754996805
 10
284.6849340259221
 20
47.66033199879075
 10
289.8859791705577
 20
54.068752334039345
 10
292.3186320279299
 20
57.1391384303397
 10
297.3395486238626
 20
62.27857976322002
 10
301.20174901232394
 20
66.12309240476498
 10
302.76003364238636
 20
68.70914741419574
 10
303.6819067971487
 20
72.4246115759779
 10
303.8581261015636
 20
73.60896878719905
 10
303.7353538156806
 20
81.16234668068819
 10
304.6491087345744
 20
84.7037427960172
 10
305.6176779243467
 20
90.4347432636805
 10
305.93621082248796
 20
94.72109375007312
 10
305.98207950125243
 20
98.2324136999955
 10
305.3820619957269
 20
101.29335671459148
 10
304.13171634752007
 20
106.66406591806026
 10
303.7028275820676
 20
108.83551429495901
 10
303.04712294513365
 20
114.89361360826933
 10
300.4254001604663
 20
118.18530453582161
 10
296.371351929859
 20
124.00699509705237
 10
296.30253764998906
 20
124.45945602391384
 10
294.43118282693354
 20
127.43550815233584
 10
290.2275014024476
 20
130.38371132519433
 10
289.3534889363457
 20
131.71458615258598
 10
289.1355822906962
 20
132.02214984392504
 10
286.6308275128372
 20
135.90611430829767
 10
283.22069881477887
 20
138.66327537584903
 10
282.0667080766432
 20
140.2914896676466
 10
280.2393811728
 20
142.80293798417551
 10
280.0631257175171
 20
147.8622672380843
 10
276.09608946889284
 20
149.6071077514107
 10
275.0685921072138
 20
156.1097844154774
 10
277.90474329025596
 20
164.6015796604479
 10
277.73747433817925
 20
167.31905829887592
 10
276.94799037730945
 20
172.586649324865
 10
277.10460290936226
 20
176.0016086792757
 10
275.8594153375068
 20
182.03458386155216
 10
276.3859202488966
 20
185.40290180347392
 10
276.4855785834434
 20
190.73829517077957
 10
276.24556657282096
 20
191.77459441939664
 10
274.7288429112489
 20
196.70001084466094
 10
274.2459136195034
 20
198.26829920222417
 10
273.9617108070727
 20
199.3756203871062
 10
273.18237454381847
 20
204.87412783832724
 10
271.4372493420626
 20
206.88649554488347
 10
270.38875912083654
 20
212.6993511557621
 10
269.9214004321391
 20
216.15221773486928
 10
269.08307791003176
 20
217.05910616735218
 10
267.8801973882187
 20
221.5192518492422
 10
265.9105366642507
 20
225.36619173868712
 10
266.223668958424
 20
228.3801881474078
 10
265.31625148798116
 20
234.8096403920763
 10
265.75652216998515
 20
239.76701297303453
 10
269.18886920878026
 20
246.27931106731648
 10
275.32511395386814
 20
249.79232484628892
 10
275.67742801111353
 20
250.0335073549627
 10
275.67742801111353
 20
257.6473952496399
 10
277.58173147794037
 20
262.317965249842
 10
279.5934394126348
 20
268.44920512598173
 10
282.35944063841634
 20
273.05356842193214
 10
285.3203323656105
 20
278.1245282932596
 10
289.13097690524864
 20
285.6478986393836
 10
290.22449246876135
 20
287.7395823805218
 10
296.4971151193149
 20
296.3211030195057
 10
296.97178876112275
 20
297.0999608349325
 10
302.6726419191175
 20
305.3842588119355
 10
303.7776586145842
 20
307.01370160096485
 10
304.07467730259236
 20
307.31288964435134
 10
304.71334481830104
 20
308.0976299120457
 10
311.32374177173733
 20
316.105431347024
 10
312.4914882669468
 20
317.03281689449386
 10
318.1174657690767
 20
322.64479516072834
 10
321.1333031979175
 20
326.08296797446155
 10
325.68920796195175
 20
329.8927227113413
 10
332.7298282544675
 20
335.82769062982516
 10
333.22564416416844
 20
336.18881385808663
 10
333.5331439307424
 20
336.38231958188044
 10
340.3226877985428
 20
340.6652841021323
 10
347.07960125277464
 20
345.1437014651624
 10
347.1063564758506
 20
345.16013833215766
 10
353.53798302926316
 20
350.04825607114117
 10
357.63553124015675
 20
353.9223133798355
 10
360.49676449108915
 20
356.63993585049093
 10
365.2634676017592
 20
360.2793613557983
 10
367.80048854551
 20
362.0672271581948
 10
369.6934412468529
 20
363.58632814742214
 10
374.1437688868525
 20
367.0607104673468
 10
378.5825737496757
 20
372.18598631029226
 10
381.3869987023702
 20
374.88998972935315
 10
385.7106632718469
 20
378.1942692191642
 10
389.0490221916309
 20
380.58081947176606
 10
391.98060365329206
 20
382.37967391557413
 10
395.39299103627013
 20
385.03269529137606
 10
402.1325931059571
 20
391.137392361195
 10
402.2205507698043
 20
391.2125791139115
 10
402.4533210156926
 20
391.42730548612235
 10
409.05339444027254
 20
397.0816159551705
 10
412.2827788978168
 20
400.3828274824864
 10
416.30181066626733
 20
403.49320269280133
 10
423.00635892490277
 20
409.60629160332337
 10
423.2368018591876
 20
409.8110917535141
 10
423.5682691552877
 20
410.0823917517464
 10
430.1281599478691
 20
415.2037100167813
 10
433.0443877608516
 20
418.0735022290969
 10
436.03097259614856
 20
422.89255436261146
 10
439.72269550035094
 20
427.38001972418533
 10
443.3400518995311
 20
431.7770890500856
 10
446.98493013729353
 20
436.03117192531136
 10
449.64867031637664
 20
441.71945571799915
 10
450.8317698766193
 20
443.29120628938017
 10
450.7659236087459
 20
443.6848573364982
 10
450.7659236087459
 20
453.6009064024629
 10
458.19861241230115
 20
461.14377301666036
 10
463.9189541840967
 20
464.80287467904145
 10
466.41511945935986
 20
471.2831094834487
 10
467.62130771764737
 20
476.76876566927376
 10
467.62378224634153
 20
476.82662651885175
 10
467.0566008672629
 20
477.8089629753931
 10
464.84156401488485
 20
479.632822561729
 10
462.56512149824425
 20
482.00340119084103
 10
460.8108923007287
 20
485.3947413810056
 10
459.644304847184
 20
490.42843423038585
 10
458.20668721428706
 20
493.61475580830256
 10
457.3341478429545
 20
494.85221183422755
 10
456.23205021697163
 20
497.5353800314542
 10
454.49298711447705
 20
501.33167228678576
 10
454.0729291064506
 20
502.3989987590712
 10
452.24651873666494
 20
504.17265042298686
 10
450.28442440780304
 20
506.77367797165516
 10
448.4703136313517
 20
508.75536630870965
 10
446.4633001894142
 20
511.4279345364662
 10
445.093473374174
 20
513.2520480534208
 10
443.67853153418105
 20
514.6503194073784
 10
441.62781698718777
 20
516.8443834677464
 10
438.38860261904915
 20
519.5749600762956
 10
437.86381954030435
 20
520.026548250933
 10
434.79268202979097
 20
521.7709139117815
 10
432.8934370569184
 20
522.1914362664102
 10
429.57003468818743
 20
523.2564991333629
 10
425.90661580326446
 20
524.2505785275212
 10
423.28968739015795
 20
524.9705312871183
 10
418.3994733682496
 20
527.3623849132655
 10
417.99125810007286
 20
527.460909405288
 10
416.89783052884036
 20
528.1141562487378
 10
412.60139499885304
 20
530.5241576666485
 10
410.6714938835146
 20
531.4087097039082
 10
406.7998555875595
 20
533.5435849288388
 10
402.5749172357994
 20
537.0559247926672
 10
402.35941230189405
 20
537.2114617851526
 10
401.7394850256744
 20
537.658881665735
 10
398.1309495480766
 20
540.0165407043028
 10
396.37309047330996
 20
541.0366963140309
 10
393.05101985252645
 20
542.9646303642303
 10
388.6212489568493
 20
546.3663530835784
 10
388.0481831924367
 20
546.8196208180057
 10
387.365572758732
 20
547.4266251072636
 10
384.0159572791988
 20
550.3348704378932
 10
381.43017356388236
 20
552.1557209094603
 10
379.3310553292772
 20
554.2586601330481
 10
376.9378308352541
 20
556.2598898307228
 10
375.6677515528015
 20
557.0454611791533
 10
374.85047929358734
 20
557.6663103744745
 10
371.02919638751905
 20
560.3511209005001
 10
367.96343157322144
 20
562.5726717653133
 10
366.5136310847947
 20
563.5762014372222
 10
364.00346172382706
 20
565.3976503806089
 10
361.5606064366093
 20
566.9131426379222
 10
360.3848669969916
 20
568.1034252098912
 10
356.98820742453995
 20
570.7495926380216
 10
353.23301234975224
 20
574.6016529992548
 10
352.8939045371819
 20
574.9045960486005
 10
352.44693735697774
 20
575.3551342244505
 10
349.3675030838572
 20
578.0393259938469
 10
347.9675014251618
 20
578.8995614491064
 10
346.04303837183807
 20
579.6434760870616
 10
341.90317042661377
 20
581.0507240622883
 10
340.96139007900547
 20
581.3553962712417
 10
335.76877277902963
 20
582.6118533313015
 10
334.1078466167394
 20
582.8171794414284
 10
329.7838219981036
 20
583.5473739150716
 10
328.5371448001165
 20
583.6706848249969
 10
323.39872165190855
 20
585.633895544835
 10
321.92012498775375
 20
585.8682198344577
 10
317.8075674613774
 20
586.7279740632571
 10
315.3698996407429
 20
587.1493354925356
 10
311.6839509367205
 20
587.4041813804165
 10
308.19766245522123
 20
588.1963481243761
 10
305.95516338111975
 20
588.3648345001266
 10
302.391892856338
 20
588.6325432278768
 10
299.8983285751642
 20
588.3492494898455
 10
294.93566038859944
 20
588.3492494898455
 10
290.42094575267424
 20
588.8106130137667
 10
283.9349196654957
 20
592.8791296436748
 10
283.6034935809266
 20
593.2195682829274
 10
280.97361114083606
 20
594.8968298061513
 10
280.8272855452435
 20
594.9136612906559
 10
276.43815984155503
 20
595.070178346286
 10
273.4163010971836
 20
595.1729079383595
 10
268.8027918911873
 20
596.3151026656997
 10
265.4814459067977
 20
597.1630227941796
 10
262.0488458757209
 20
598.2736994134048
 10
258.33336310359664
 20
600.2453090300269
 10
251.79535227695646
 20
601.1199544399369
 10
251.78744098511834
 20
601.1228502237336
 10
249.68308812868918
 20
601.2918851738405
 10
246.5418546303622
 20
601.5711625879044
 10
246.17076172055886
 20
601.5584179204811
 10
239.00799053991886
 20
602.4753319200186
 10
237.46196216826615
 20
602.8876995727919
 10
232.00866501161272
 20
604.8364357911605
 10
229.93439996929624
 20
605.9347861883175
 10
227.90378113357565
 20
606.5278851840822
 10
224.48168603780414
 20
607.0724919420059
 10
221.106883535193
 20
607.6212503595752
 10
215.97522675014193
 20
610.0875569714708
 10
215.78220076870116
 20
610.1539943627913
 10
213.47547234082094
 20
610.954061209065
 10
210.06430851043865
 20
612.286948894428
 10
209.58791773014627
 20
612.4760236819011
 10
204.43427290512227
 20
613.6396088055594
 10
201.70430160741398
 20
614.9749937936122
 10
198.39932746783552
 20
616.4905836051207
 10
193.82149112063416
 20
619.1768886232412
 10
192.96086973252795
 20
619.8382922680671
 10
191.46792058346045
 20
620.7220652044653
 10
187.68107460144938
 20
622.8710638094444
 10
185.49566407146904
 20
625.1650457477176
 10
183.57827858821088
 20
627.5865273388686
 10
179.93086954188607
 20
629.9772590074085
 10
179.7732249670987
 20
630.0829630763733
 10
179.488587178138
 20
630.2759811276346
 10
174.6236796269343
 20
633.6983393706646
 10
171.9532292330423
 20
636.3451568533005
 10
169.7415365157949
 20
638.4646594505175
 10
167.8406100173181
 20
641.2830088560577
 10
165.93619415634635
 20
643.9447950933686
 10
163.81370659760546
 20
647.4373755160182
 10
162.5604023420358
 20
649.7362196003783
 10
161.89849902813967
 20
651.0178229030917
 10
159.59196106848617
 20
654.5843925793888
 10
156.82862701676822
 20
659.7468394120988
 10
156.5808813212916
 20
660.1548256139499
 10
156.54508779858725
 20
660.226848229021
 10
153.49635015947115
 20
664.634471649722
 10
150.72698437164763
 20
669.3623977278785
 10
150.27876308478176
 20
670.0444977315474
 10
149.77287319355014
 20
671.0280881934973
 10
147.18309853676055
 20
675.6504406169315
 10
145.57817726084977
 20
678.9082033290956
 10
144.55835211729982
 20
680.5459815486015
 10
143.55084643647
 20
682.0944071131526
 10
141.47467992196653
 20
684.0521601154114
 10
139.11188543805656
 20
687.3536535046296
 10
137.61487783471648
 20
689.221291209551
 10
136.7539909314794
 20
690.5556050380778
 10
134.97369905708933
 20
691.9380277264563
 10
131.3511471607908
 20
694.9721010062494
 10
127.30051003453036
 20
696.7514814896549
 10
126.08810972190804
 20
697.1625193880836
 10
122.71025410630818
 20
697.9514218832314
 10
120.18157880484318
 20
698.323355199022
 10
116.22444237500554
 20
698.7082316419251
 10
112.24294294931155
 20
699.9598511194044
 10
109.76758309163574
 20
700.5214852001136
 10
105.25437677564582
 20
702.3684469561476
 10
100.66809255164299
 20
702.5126462890044
 10
95.17956430487129
 20
700.4477352001372
 10
92.70838575786593
 20
699.8497706084881
 10
88.5559685752578
 20
697.8949558433869
 10
82.80014137934427
 20
696.3556924940485
 10
81.36389126253039
 20
695.9001844717818
 10
77.10826632960402
 20
694.4455454215226
 10
75.89231021228329
 20
693.7691616223301
 10
74.51167506111847
 20
692.8111613955562
 10
69.6758509412009
 20
689.0900283917672
 10
66.72531794510428
 20
686.461900534639
 10
62.97053880620706
 20
682.8272339887017
 10
56.46161214131348
 20
677.1577883819987
 10
55.82809325502694
 20
676.5535411518936
 10
54.842341058397096
 20
675.7950590704954
 10
48.99718531421718
 20
670.8544493127943
 10
46.68321562690153
 20
668.6059858922135
 10
43.08026885519371
 20
662.9883085277093
 10
40.685542553856976
 20
659.7403568060026
 10
36.18075819921569
 20
653.1774954074208
 10
35.02638671133309
 20
651.3613295567238
 10
33.54529910938845
 20
647.5208075882301
 10
31.493314397319637
 20
642.8700459788574
 10
30.03751571024145
 20
637.8024101216693
 10
28.870768460206364
 20
634.4146140602124
 10
28.673953662369513
 20
632.7827474117644
 10
27.2744570803261
 20
625.3840163369523
 10
26.218666551996193
 20
620.1601552189645
 10
25.665703454177674
 20
616.3943224694503
 10
24.38142628070068
 20
608.4920142892029
 10
24.207648654867853
 20
607.4965351588435
 10
23.978071054676775
 20
599.2772650468055
 10
23.899644892840797
 20
598.5215701596189
 10
23.77449621762048
 20
590.1796829815562
 10
23.776210103169205
 20
590.0476352945375
 10
24.539655006212797
 20
582.0982513609188
 10
24.46977428417813
 20
580.5598874994389
 10
25.05746274480248
 20
573.9328893887332
 10
25.219105952839982
 20
571.4957511417679
 10
25.43563845017161
 20
565.0686062905006
 10
25.704185717703922
 20
562.2144369200264
 10
25.70419118741097
 20
555.8408716046501
 10
25.81970753684459
 20
552.8101887785647
 10
25.904825635971974
 20
546.8538871304172
 10
25.995692442211066
 20
543.272098469838
 10
25.65670295132827
 20
536.8955918864654
 10
25.61435305641453
 20
533.8780293760869
 10
25.260527957211025
 20
527.1134162042808
 10
25.233340565213894
 20
525.093668687417
 10
25.71535445661516
 20
519.4116181841005
 10
26.050837257227386
 20
516.4764741700856
 10
26.738417919607173
 20
511.7334598043212
 10
27.214264183793603
 20
507.4606886275287
 10
27.887011431817427
 20
504.42197634357035
 10
28.840944376572452
 20
497.68890694660513
 10
28.902520911878128
 20
496.12695715929067
 10
30.173738468989995
 20
490.8098883827247
 10
30.48750078250805
 20
489.44373732916074
 10
30.569546505877952
 20
488.913217990229
 10
31.766383650540092
 20
481.8608501477738
 10
32.182410550127315
 20
479.8620479351207
 10
32.99154761162572
 20
475.35750722818693
 10
35.015166556623626
 20
471.2836227859525
 10
35.36529433115038
 20
468.2792986773761
 10
37.136398987774555
 20
462.58269676128066
 10
37.254979275650385
 20
461.9430794681198
 10
38.952754033428846
 20
455.35005127955765
  0
LWPOLYLINE
  5
90
330
17
100
AcDbEntity
  8
GRABADO
100
AcDbPolyline
 90
531
 70
1
 10
211.6624412728072
 20
619.1838387668704
 10
212.62927786716955
 20
618.8001108880726
 10
215.89710069078887
 20
617.5232326681653
 10
218.0681963643342
 20
616.7702087545144
 10
218.63945117747744
 20
616.573589215107
 10
223.22806132510618
 20
614.3682742416904
 10
225.59350999616368
 20
613.9836414021192
 10
229.4412652898427
 20
613.3712932711856
 10
232.58064186935894
 20
612.4543505816546
 10
234.83889988958072
 20
611.2585735026446
 10
239.54530246162244
 20
609.5767401297517
 10
240.3604153724018
 20
609.3593274328528
 10
246.49716986955605
 20
608.5737549263104
 10
246.7323943077963
 20
608.5818333809398
 10
250.27329001760882
 20
608.2670232282298
 10
253.29824703053737
 20
608.0240395212941
 10
253.48244026300472
 20
607.956618954725
 10
259.5952062934491
 20
607.1388621641427
 10
260.4575836113131
 20
607.0425993426102
 10
264.7878193719673
 20
604.7447729250043
 10
267.4266206289908
 20
603.890943515104
 10
270.50969801935116
 20
603.1038519596823
 10
274.38687010582953
 20
602.1439567223624
 10
276.68180693907675
 20
602.0659392024659
 10
281.35279327301487
 20
601.8993709432652
 10
283.3768968831789
 20
601.6665431292909
 10
287.5665965633639
 20
598.9944761348452
 10
288.0999165139558
 20
598.6358703931901
 10
288.36535525587897
 20
598.3632135073485
 10
292.7571970061058
 20
595.6083246190592
 10
295.2924001962597
 20
595.3492494898455
 10
299.5019685915461
 20
595.3492494898455
 10
302.2578333126885
 20
595.6623431703474
 10
306.47960711790984
 20
595.3451610517336
 10
309.24114147824093
 20
595.1376778374679
 10
312.70696307593767
 20
594.3501616509097
 10
316.2096503558528
 20
594.1079864277858
 10
319.1203294202437
 20
593.604862958558
 10
323.1849279572016
 20
592.7551348372835
 10
325.2152508422448
 20
592.4333743604229
 10
330.15941788592363
 20
590.5443820643709
 10
330.7122175120776
 20
590.489703736238
 10
335.12054048650157
 20
589.7452738687284
 10
336.9539757600869
 20
589.5186219311277
 10
337.12871455675736
 20
589.4847965593021
 10
342.8645416125771
 20
588.09689909195
 10
344.10703255895305
 20
587.6949450033999
 10
348.43243768346315
 20
586.2246281517419
 10
351.0875725539652
 20
585.1982672182339
 10
353.52816660334133
 20
583.698636471278
 10
357.23767925006837
 20
580.4652362971847
 10
357.71475431410363
 20
579.9843496938424
 10
358.07673468534085
 20
579.6609733710302
 10
361.66706678141895
 20
575.9780286303367
 10
365.04546152361445
 20
573.3460904170788
 10
365.9568163378465
 20
572.4234627363971
 10
367.90923685340226
 20
571.2122251367623
 10
370.5616802596537
 20
569.287538175462
 10
372.00960187699184
 20
568.285309029317
 10
375.09521662373754
 20
566.0493742709996
 10
378.9811994491745
 20
563.3191059684045
 10
379.6351336341643
 20
562.8223382047045
 10
381.0449505796355
 20
561.9503361067291
 10
384.0629225109699
 20
559.4266885881534
 10
385.95612575907785
 20
557.5300391745873
 10
388.336820450711
 20
555.8536077599101
 10
391.98614034545903
 20
552.6851492879678
 10
392.54896096379184
 20
552.184666856786
 10
392.92443061277686
 20
551.887688241572
 10
396.95574259151203
 20
548.791951267855
 10
399.8866621871646
 20
547.0910182258226
 10
401.80466840629265
 20
545.9779228520142
 10
405.70428650497456
 20
543.4300831773326
 10
406.4560143899373
 20
542.8875388928295
 10
406.8657072587464
 20
542.5918500865337
 10
410.76288780252094
 20
539.3519868173494
 10
413.82417890586316
 20
537.6639483092963
 10
415.77724057181854
 20
536.7687808513451
 10
420.4058140088084
 20
534.1724731753206
 10
420.66792429420116
 20
534.015880529339
 10
420.7867010472312
 20
533.9872132545734
 10
425.7774414682224
 20
531.5461911398706
 10
427.75161492560915
 20
531.0030690500762
 10
431.55578313198043
 20
529.9707969172255
 10
434.7220997845691
 20
528.9560758821153
 10
437.3341443993693
 20
528.3777286085933
 10
441.7141872625623
 20
525.8899219449572
 10
442.1939862397769
 20
525.5353006368241
 10
442.92749222081534
 20
524.904101498591
 10
446.45765640563263
 20
521.9282614794142
 10
448.6976667805145
 20
519.5316693912632
 10
450.38095016991906
 20
517.868218019998
 10
452.060733798068
 20
515.6313542153366
 10
453.863350004586
 20
513.2309643131289
 10
455.6723414844612
 20
511.25486816506873
 10
457.51006512129766
 20
508.818711179169
 10
460.0333798584354
 20
506.36828631510525
 10
460.9366556441498
 20
504.07315054945866
 10
462.65414543459633
 20
500.32395181093625
 10
463.5095366103135
 20
498.241415432341
 10
464.312545929811
 20
497.1025685746131
 10
466.3081068753993
 20
492.6796269276301
 10
467.4318644739444
 20
487.83074005588696
 10
468.31659970813485
 20
486.12033746903353
 10
469.60705600607594
 20
484.7765178472596
 10
472.4848045161691
 20
482.40698200790666
 10
474.70442652543375
 20
478.56268157797285
 10
474.5888737605694
 20
475.86076053683564
 10
473.1379061511077
 20
469.2618657228736
 10
469.6164364796466
 20
460.1198627658532
 10
469.3367284398703
 20
459.9588385121174
 10
462.632846927065
 20
455.67060103147287
 10
457.7659236087459
 20
450.73153330216746
 10
457.7659236087459
 20
444.2662658041895
 10
458.23160398929053
 20
441.4822724915166
 10
455.67922690783485
 20
438.0914334861027
 10
452.920346646031
 20
432.1999828099388
 10
448.70133262493596
 20
427.2758031455737
 10
445.12847454761663
 20
422.9328236533852
 10
441.73427365849125
 20
418.80701049908885
 10
438.5523475577295
 20
413.6727623159004
 10
434.7520486341257
 20
409.93297621041256
 10
427.9394835194764
 20
404.6143946582856
 10
427.7805293089216
 20
404.48429350637707
 10
427.6897446553892
 20
404.4036110123093
 10
420.80941941584456
 20
398.13025174929317
 10
416.9489450042763
 20
395.1425859129454
 10
413.841703448564
 20
391.96623395586903
 10
407.105140837328
 20
386.19499263054513
 10
406.8695509623401
 20
385.9776652011187
 10
406.757401051437
 20
385.88179876663844
 10
399.8972769825102
 20
379.66793348658985
 10
395.97153284835326
 20
376.6157937571438
 10
392.919772051255
 20
374.7431957948861
 10
389.8724319201624
 20
372.56469116600283
 10
385.9565856811546
 20
369.57207918029235
 10
383.6678932017926
 20
367.365340760201
 10
378.98882121906513
 20
361.96263995635854
 10
374.0380494903029
 20
358.09755963962107
 10
372.0113344694946
 20
356.4711139334986
 10
369.4051080576794
 20
354.63447829733514
 10
365.04424963739916
 20
351.3049192727176
 10
362.45044835424187
 20
348.84130584685454
 10
358.073428964949
 20
344.7030204423518
 10
351.3271383117956
 20
339.5757539973624
 10
351.0969622957132
 20
339.3962992185743
 10
350.84641721615026
 20
339.24237876209327
 10
344.12414969933275
 20
334.7869243937389
 10
337.264629751488
 20
330.45981772286086
 10
337.1548585845585
 20
330.39074011234743
 10
337.05164940443296
 20
330.3155685989209
 10
330.19026196717846
 20
324.5316869770586
 10
326.03886227737576
 20
321.0601888988367
 10
323.2261119920595
 20
317.8535433846214
 10
317.1548122969193
 20
311.7973510297775
 10
316.25347156020575
 20
311.081536102477
 10
310.12715467226985
 20
303.66014681044
 10
309.28579474704
 20
302.6263553669851
 10
309.2049727760425
 20
302.5449430911194
 10
308.4527023438284
 20
301.4356552077779
 10
302.84825988171315
 20
293.29145817894914
 10
302.32167567085185
 20
292.4274240468926
 10
296.18506496754253
 20
284.0319801731548
 10
295.3552668043858
 20
282.44473680487044
 10
291.4706184236368
 20
274.7752603872086
 10
288.38241820563394
 20
269.4862661169054
 10
285.9992209567481
 20
265.5191290681214
 10
284.1563393340325
 20
259.9024343693877
 10
282.67742801111353
 20
256.2751979660984
 10
282.67742801111353
 20
248.68975742159182
 10
282.3505184930609
 20
247.0015756531252
 10
281.4026032196432
 20
245.46967413030552
 10
279.04715502386375
 20
243.85721248358368
 10
274.432654566715
 20
241.21540069763523
 10
272.60468651197107
 20
237.74714042419373
 10
272.3599556207455
 20
234.99151244471386
 10
273.2747847655853
 20
228.50954522414895
 10
273.08763242156624
 20
226.70814529429936
 10
274.4468279077314
 20
224.05350367523488
 10
275.3929327117239
 20
220.54545347438716
 10
276.56173095504505
 20
219.2810599041063
 10
277.30488307282985
 20
213.79061932228342
 10
277.98490576999006
 20
210.02055674021176
 10
279.8233854719376
 20
207.9005385445912
 10
280.83814277605234
 20
200.74104801279145
 10
280.98483221755646
 20
200.16951135280306
 10
281.41884134172597
 20
198.76008875586103
 10
283.00885704732536
 20
193.59666336009923
 10
283.5005367618726
 20
191.47373910550004
 10
283.37577125617236
 20
184.79418686725148
 10
282.9713688972506
 20
182.20702064744182
 10
284.137446354732
 20
176.55733659934685
 10
283.97194205329833
 20
172.94849090246498
 10
284.7054687969239
 20
168.05425734794335
 10
284.9750795060829
 20
163.67411785562126
 10
282.24962045794905
 20
155.51374885847963
 10
282.4136607093417
 20
154.47559464564984
 10
286.90581156260305
 20
152.49979046602812
 10
287.1605225605024
 20
145.1884320692343
 10
287.75259462193503
 20
144.37469787705368
 10
288.37309049974965
 20
143.49921402534483
 10
291.9050677699215
 20
140.64353581403884
 10
294.93560534435187
 20
135.9442732949774
 10
295.1366995822814
 20
135.66043942685337
 10
295.3433910878057
 20
135.34570647691635
 10
299.6058645850537
 20
132.35627016625494
 10
302.3176913431762
 20
128.04359910249332
 10
302.92519082796025
 20
127.46981794658177
 10
303.04679986703195
 20
126.6702260793536
 10
306.0411571281784
 20
122.37027195632209
 10
309.2847123382662
 20
118.29784243764743
 10
309.68573045907056
 20
117.93733684304061
 10
309.81736856903944
 20
117.39405284315899
 10
310.62932415688283
 20
109.89234046828096
 10
310.9761678222653
 20
108.13628347891745
 10
312.22765145543826
 20
102.760686198028
 10
312.9909626388137
 20
98.8667130835779
 10
312.93281880279505
 20
94.4157104195333
 10
312.5742251014949
 20
89.5902801579964
 10
311.50157213548505
 20
83.24341850396559
 10
310.74980980128566
 20
80.32984927994721
 10
310.86654870896587
 20
73.14766579090428
 10
310.556457261137
 20
71.06356357750747
 10
309.3000327650218
 20
65.99974306902959
 10
306.75188428954766
 20
61.7709571318228
 10
302.312551842283
 20
57.351955527318296
 10
297.57965994442657
 20
52.507338059742324
 10
295.34708988452417
 20
49.68948755954989
 10
290.12013493772133
 20
43.249142697889056
 10
288.3762384475913
 20
41.100420831721294
 10
282.66113002369366
 20
33.9863882302775
 10
281.4008226016074
 20
32.66038747443463
 10
277.4211974390746
 20
28.696503382613173
 10
274.4175995715009
 20
25.59412996202127
 10
271.7396740757092
 20
24.70392447366021
 10
267.43272088949016
 20
23.323980224120533
 10
265.8662700682289
 20
22.61775141147382
 10
260.4625519483932
 20
19.523597166830314
 10
255.76336714362856
 20
18.467726400327592
 10
253.48839563569686
 20
17.57971529871429
 10
246.65007775193772
 20
15.620658884665772
 10
246.51111903033052
 20
15.571939976854082
 10
245.5015753865548
 20
15.440202685792883
 10
239.51952063092972
 20
14.695720392957355
 10
239.02545054675784
 20
14.80351126598589
 10
236.51138493039252
 20
15.441797089014017
 10
233.14240208557612
 20
16.254443298062597
 10
232.5231930710554
 20
16.46743209719307
 10
228.00531592162406
 20
18.726532269031395
 10
225.53976757153418
 20
20.800416072218923
 10
223.41510341963203
 20
21.894645429897082
 10
220.54341478234323
 20
24.71777198580412
 10
219.259746695981
 20
25.646276186434534
 10
218.55983648950632
 20
26.38036392132699
 10
215.01513400582144
 20
29.277774406512435
 10
211.58429667908786
 20
33.675330438912624
 10
211.4446044854967
 20
33.810541956630004
 10
211.34567235488043
 20
33.994446097296986
 10
207.89600905201632
 20
38.35872524707793
 10
204.63206129016294
 20
43.250521949683844
 10
204.62200624769685
 20
43.26187960505604
 10
204.6149081389326
 20
43.270945615833625
 10
200.40373499757084
 20
46.923139183210424
 10
197.63277362265922
 20
52.436708379873835
 10
197.60883865718074
 20
52.47809515735753
 10
197.5812738869588
 20
52.51328103529386
 10
194.36488708963952
 20
57.44859184052211
 10
193.1191164913953
 20
61.790594601361136
 10
192.15370601454924
 20
63.769001419564574
 10
190.66182902934497
 20
66.94934838950758
 10
189.29773388235003
 20
69.22302652494591
 10
188.12982039499207
 20
71.04421089160678
 10
186.6365524538146
 20
74.97060779500134
 10
184.72682512838037
 20
80.30449126636131
 10
184.23596841925496
 20
81.02619640901594
 10
183.68916152410793
 20
82.30632788566072
 10
181.54817770319482
 20
86.71187391879084
 10
179.51956324868615
 20
89.55448872874558
 10
178.09582472021884
 20
91.38328118363097
 10
176.71996488677723
 20
94.16978851909744
 10
175.27237354718454
 20
96.89587343544781
 10
174.0163280497511
 20
98.82126873136531
 10
172.2065262157612
 20
102.09544732673612
 10
170.00935864678627
 20
108.10227320162085
 10
169.96734787363312
 20
108.40536130405917
 10
169.74328905104494
 20
109.31310448486965
 10
168.20889570734425
 20
115.27988236552301
 10
164.21282929852327
 20
117.31292692762781
 10
163.15244816042832
 20
117.74971370159756
 10
162.83441298407115
 20
117.8335723184482
 10
156.42716152916614
 20
118.04070803738432
 10
155.880628130044
 20
118.02904026739452
 10
150.71329842937666
 20
117.30696009800795
 10
148.915416653409
 20
117.01817442742276
 10
148.6708732803463
 20
116.981622409799
 10
141.9492033636202
 20
115.82036458597895
 10
140.5586529341681
 20
115.45393588258776
 10
134.9880967379445
 20
113.48940893250165
 10
130.98605174214572
 20
111.99781834651958
 10
128.0040901712689
 20
111.32548340507992
 10
123.06606680942605
 20
110.80021606190576
 10
120.96066396603987
 20
113.27318776373204
 10
119.56548188974762
 20
115.46371606240382
 10
116.50347502091358
 20
117.31627944999582
 10
114.75677285002553
 20
118.29078652048338
 10
114.01566366548423
 20
118.53574024207455
 10
110.11360391164817
 20
121.39510951965167
 10
107.04325879183443
 20
122.67373248001923
 10
105.12704071238863
 20
124.02659187084191
 10
100.0779855123285
 20
125.82135113130835
 10
99.68042451238398
 20
126.04331719260017
 10
98.06024402019534
 20
126.5712198845913
 10
94.2761351398326
 20
128.114026491
 10
93.10913037367027
 20
128.43066733032356
 10
89.22824596501619
 20
130.6951161128277
 10
86.12761639659698
 20
132.64100200002986
 10
84.49271088938235
 20
133.67917709391304
 10
82.18226199937226
 20
135.86629574810468
 10
81.74781314303664
 20
139.36911193139622
 10
79.36533408865262
 20
145.1660455470428
 10
79.88982088714943
 20
146.20651118041496
 10
84.45390746348767
 20
154.4432030679718
 10
84.53186897997693
 20
161.60547824853938
 10
84.22509824970439
 20
163.6673832093611
 10
82.75076718113792
 20
168.44502650654204
 10
79.145481100408
 20
171.09478563209768
 10
78.42875196019577
 20
171.9379200083249
 10
77.16165615584168
 20
172.89240783508194
 10
74.81299266732708
 20
176.42138397831968
 10
72.1622848678478
 20
180.24708013144027
 10
71.5740507743003
 20
181.33132384983037
 10
65.22855338548243
 20
182.04298862479027
 10
65.18124180595487
 20
182.07549891364715
 10
64.85531651802808
 20
182.14070175130246
 10
63.06142814454961
 20
188.6653507246906
 10
64.50096555884397
 20
191.49384948495435
 10
65.18843039554554
 20
193.79012421722518
 10
71.34365445020535
 20
200.76990984995018
 10
72.15692351684334
 20
202.2370798517304
 10
74.57101346160107
 20
209.99978972106192
 10
74.70177979065897
 20
213.3637751739334
 10
72.475461596169
 20
219.25714308831084
 10
75.15008055969952
 20
223.2563985170932
 10
78.73781523755929
 20
228.55231123052454
 10
79.15224679301537
 20
229.08341395704065
 10
79.67035145073419
 20
229.2449746557777
 10
86.111673353779
 20
232.63318251266355
 10
88.7404260403298
 20
237.7829791746608
 10
88.41296091574372
 20
240.8281325801836
 10
86.11301630126468
 20
245.6363873774494
 10
85.29758169927823
 20
245.9428970477561
 10
85.54835148814436
 20
247.03653918280133
 10
85.26493600329377
 20
255.18127166348359
 10
85.0474258451743
 20
256.2760309941891
 10
83.91613871610934
 20
262.643390698061
 10
83.33651423160018
 20
265.5498744175411
 10
84.68220212307187
 20
272.9509170620636
 10
85.14620035860935
 20
274.82607556809717
 10
86.09338136961378
 20
280.77556126168656
 10
86.50154024274525
 20
284.0701059021085
 10
86.42988181076475
 20
284.4992595591216
 10
86.09655418380339
 20
285.52462240152863
 10
84.24933936989441
 20
290.8495308825154
 10
83.18871128243086
 20
293.30650464242444
 10
82.02542657007962
 20
297.1701010434035
 10
81.12633748178268
 20
302.584875889655
 10
81.00728523137218
 20
305.0944238326106
 10
80.78702441106975
 20
311.85274727592014
 10
80.81854745149121
 20
314.109061145135
 10
81.04112252567415
 20
321.10710135575255
 10
80.61222519021567
 20
323.0736512629196
 10
79.12508907252959
 20
328.7732012792121
 10
78.75313870137029
 20
329.8603095920266
 10
78.63726603807504
 20
330.36184203813536
 10
77.775295976493
 20
337.8234594433675
 10
76.96745590637602
 20
339.60809941858497
 10
75.51973013623888
 20
344.0855460044718
 10
74.30517379819003
 20
348.8646047336483
 10
73.28852255413813
 20
350.3701519446149
 10
72.15421194961868
 20
355.548177862594
 10
71.49504949063021
 20
357.2600918614785
 10
71.3263361978236
 20
358.11016763220005
 10
67.18183731614931
 20
360.72845155387495
 10
65.20188808653847
 20
363.39728787259946
 10
63.2787459655824
 20
364.8320801661275
 10
62.53831900870091
 20
367.3858190403539
 10
60.56595122415274
 20
370.49558966898076
 10
58.223171161464506
 20
374.8634735972355
 10
57.49502008789091
 20
375.66259422180883
 10
56.88528734805459
 20
376.6431582248665
 10
54.88179159618039
 20
381.47612694898953
 10
52.60996480996596
 20
385.9104448542521
 10
52.23355315922254
 20
387.2278329282203
 10
51.24417279613226
 20
389.46569531897603
 10
49.92042838151292
 20
393.4067426349575
 10
48.87020840833702
 20
395.1720265057879
 10
47.97647787365531
 20
400.1029659449632
 10
46.49354813263153
 20
404.43137951677136
 10
45.64917559071182
 20
406.2564533030568
 10
44.272647104435464
 20
409.814145581332
 10
43.41066830657337
 20
412.55553154268955
 10
43.10719025406843
 20
413.6987897703466
 10
41.36773398014657
 20
419.10388477180004
 10
40.5155417743822
 20
422.9649427102745
 10
39.83507560681642
 20
426.323699294629
 10
37.304342026601944
 20
431.8656993283116
 10
37.207142732915145
 20
432.0862185093829
 10
37.159849487255315
 20
432.22156967319734
 10
35.784685788743445
 20
439.4756928612087
 10
35.3990090094494
 20
441.4853610497985
 10
34.12236851369926
 20
446.52348248758017
 10
33.16609693779628
 20
450.74129113956224
 10
32.253511176694246
 20
453.29528907100257
 10
30.526740291722263
 20
460.0009189360062
 10
30.462526548588812
 20
460.1801855892645
 10
30.329129374558534
 20
460.8997245691153
 10
28.48768878673991
 20
466.82255580424817
 10
28.203409136515347
 20
469.2618601636409
 10
26.278299739574095
 20
473.1374283585242
 10
25.309683031601026
 20
478.5298069777932
 10
24.886789006410254
 20
480.56160231147805
 10
23.659631364294
 20
487.7926338110283
 10
23.608439720917886
 20
488.12364627197394
 10
23.35834993733897
 20
489.21256105428483
 10
21.934963125053628
 20
495.16610184219917
 10
21.860361568341887
 20
497.0584441940546
 10
20.994116557331836
 20
503.1725927890616
 10
20.298751549213875
 20
506.3134665692369
 10
19.794233448510568
 20
510.84369105789665
 10
19.108106630727434
 20
515.5766766282277
 10
18.749038671061953
 20
518.71816754971
 10
18.229350152223333
 20
524.8443320912556
 10
18.262989976164818
 20
527.3434298671937
 10
18.616919974561824
 20
534.1100485566071
 10
18.65931185880254
 20
537.1306029379057
 10
18.99097456413756
 20
543.3692902155567
 10
18.906094126418566
 20
546.7151081430266
 10
18.821612898029116
 20
552.6268435442266
 10
18.704191301855417
 20
555.7075123558693
 10
18.70418599969321
 20
561.885846427062
 10
18.44669678334435
 20
564.622488811412
 10
18.226911585657717
 20
571.1461807241908
 10
18.077956016075177
 20
573.3920240239822
 10
17.455695732695176
 20
580.4088671281434
 10
17.524412325865114
 20
581.921603696092
 10
16.780561333108608
 20
589.6669656825957
 10
16.773814727721174
 20
590.1867633069896
 10
16.90507723108476
 20
598.9361726942002
 10
16.98818022956084
 20
599.73693240994
 10
17.224562598220928
 20
608.1998248529399
 10
17.478655482582553
 20
609.6553871691053
 10
18.74775620603282
 20
617.4643128711236
 10
19.320206537384593
 20
621.3628591100664
 10
20.404537681016336
 20
626.7279340451491
 10
21.75237097785157
 20
633.8535363688079
 10
22.010162422705434
 20
635.9909836834213
 10
23.35982527407623
 20
639.9098979915807
 10
24.89684449274023
 20
645.2602625542268
 10
27.07391090306919
 20
650.1945180692228
 10
28.745551975511944
 20
654.5291531399116
 10
30.33948870091922
 20
657.0368843852207
 10
34.98122037231224
 20
663.7992594981097
 10
37.310962451290834
 20
666.9590735412958
 10
41.22647215612301
 20
673.0640958003137
 10
44.29306156877078
 20
676.0438730022688
 10
50.44627779194184
 20
681.2448704510907
 10
51.26527518636112
 20
681.8750438866687
 10
51.74471468469642
 20
682.3323309465227
 10
58.23412278376554
 20
687.9847753711629
 10
61.96098530847553
 20
691.5924183346447
 10
65.20768861138026
 20
694.4843539291569
 10
70.37942765891671
 20
698.4639711318396
 10
72.18655591534889
 20
699.7179079724388
 10
74.25219803382879
 20
700.8669353460155
 10
79.17348298668935
 20
702.549107384838
 10
80.83680355793649
 20
703.0766310068966
 10
86.1417833338628
 20
704.4953256028466
 10
90.37057625234456
 20
706.4860954296905
 10
93.11623990771363
 20
707.1504786845867
 10
99.72985589533096
 20
709.6386737664598
 10
100.12015042313237
 20
709.533333490469
 10
106.48797575222693
 20
709.3331199582594
 10
107.10337618607696
 20
709.1752490807953
 10
111.8820451723725
 20
707.219650722448
 10
114.07001909786322
 20
706.7232215990425
 10
117.62794432760302
 20
705.604756407708
 10
121.03022762886712
 20
705.2738457307687
 10
124.017856496675
 20
704.8344066653767
 10
128.01245254996138
 20
703.9014636529546
 10
129.83674522960314
 20
703.2829769853479
 10
135.00097818067934
 20
701.0144115625576
 10
135.0782260987355
 20
700.9551818547084
 10
135.2250585463271
 20
700.8583895919792
 10
139.36913415425965
 20
697.3875134164527
 10
141.98932673104537
 20
695.3528955438578
 10
143.30183164570553
 20
693.3186057305788
 10
144.6932009197194
 20
691.582760360242
 10
146.7715328236252
 20
688.678741797446
 10
148.96190111422015
 20
686.6133004819212
 10
150.4636755664592
 20
684.305238107403
 10
151.70398619177467
 20
682.3133733839145
 10
153.38053549770802
 20
678.9102159232007
 10
155.94070107950165
 20
674.3407111786964
 10
156.33330837296012
 20
673.5773735516141
 10
156.6759764935855
 20
673.0559036143645
 10
159.40325536606042
 20
668.3998293029558
 10
162.58909779347778
 20
663.7939906379343
 10
162.71773352825244
 20
663.5351538062937
 10
162.9104715097726
 20
663.2177539948393
 10
165.62695175812996
 20
658.1428392028574
 10
167.9615544288015
 20
654.5328734285804
 10
168.74390254742616
 20
653.0180601444481
 10
169.88102343176388
 20
650.9323226975789
 10
171.78187895875203
 20
647.8044406176564
 10
173.58985273466783
 20
645.2774506819101
 10
175.12585333464108
 20
643.0001472820609
 10
176.83907236037408
 20
641.3583404676128
 10
179.13302952465483
 20
639.084684330534
 10
183.46703201736568
 20
636.0358064227571
 10
183.68680913926323
 20
635.8867715671417
 10
183.79885846048546
 20
635.8116400937379
 10
188.3630042757145
 20
632.8200239076405
 10
190.78477646433112
 20
629.761548278248
 10
192.03571416597197
 20
628.448463869574
 10
194.97856480218843
 20
626.7784244906466
 10
196.8908336637703
 20
625.6464291590987
 10
197.7407915889039
 20
624.9932205851528
 10
201.6378315019076
 20
622.7064114726959
 10
204.7016207934937
 20
621.3014238271558
 10
206.77460078868398
 20
620.2874108342594
 10
211.6624412728072
 20
619.1838387668704
  0
TEXT
  5
91
330
17
100
AcDbEntity
  8
GRABADO
100
AcDbText
 10
378.0369184297215
 20
363.0042591566887
 30
0.0
 40
6.0
  1
79e
 72
1
 11
378.0369184297215
 21
363.0042591566887
 31
0.0
100
AcDbText
 73
2
  0
TEXT
  5
92
330
17
100
AcDbEntity
  8
HOJA
100
AcDbText
 10
10.0
 20
891.0
 30
0.0
 40
6.0
  1
gale_crater  hoja 28/39  1:30  lamina 3.0mm
 11
10.0
 21
891.0
 31
0.0
100
AcDbText
  0
ENDSEC
  0
SECTION
  2
OBJECTS
  0
DICTIONARY
  5
A
330
0
100
AcDbDictionary
281
1
  3
ACAD_COLOR
350
B
  3
ACAD_GROUP
350
C
  3
ACAD_LAYOUT
350
D
  3
ACAD_MATERIAL
350
E
  3
ACAD_MLEADERSTYLE
350
F
  3
ACAD_MLINESTYLE
350
10
  3
ACAD_PLOTSETTINGS
350
11
  3
ACAD_PLOTSTYLENAME
350
12
  3
ACAD_SCALELIST
350
14
  3
ACAD_TABLESTYLE
350
15
  3
ACAD_VISUALSTYLE
350
16
  3
EZDXF_META
350
2D
  0
DICTIONARY
  5
B
330
A
100
AcDbDictionary
281
1
  0
DICTIONARY
  5
C
330
A
100
AcDbDictionary
281
1
  0
DICTIONARY
  5
D
330
A
100
AcDbDictionary
281
1
  3
Model
350
1A
  3
Layout1
350
1E
  0
DICTIONARY
  5
E
330
A
100
AcDbDictionary
281
1
  3
ByBlock
350
1F
  3
ByLayer
350
20
  3
Global
350
21
  0
DICTIONARY
  5
F
330
A
100
AcDbDictionary
281
1
  3
Standard
350
2C
  0
DICTIONARY
  5
10
330
A
100
AcDbDictionary
281
1
  3
Standard
350
22
  0
DICTIONARY
  5
11
330
A
100
AcDbDictionary
281
1
  0
ACDBDICTIONARYWDFLT
  5
12
330
A
100
AcDbDictionary
281
1
  3
Normal
350
13
100
AcDbDictionaryWithDefault
340
13
  0
ACDBPLACEHOLDER
  5
13
330
12
  0
DICTIONARY
  5
14
330
A
100
AcDbDictionary
281
1
  0
DICTIONARY
  5
15
330
A
100
AcDbDictionary
281
1
  0
DICTIONARY
  5
16
330
A
100
AcDbDictionary
281
1
  3
2dWireframe
350
5A
  3
Basic
350
5B
  3
Brighten
350
5C
  3
ColorChange
350
5D
  3
Conceptual
350
5E
  3
Dim
350
5F
  3
EdgeColorOff
350
60
  3
Facepattern
350
61
  3
Flat
350
62
  3
FlatWithEdges
350
63
  3
Gouraud
350
64
  3
GouraudWithEdges
350
65
  3
Hidden
350
66
  3
JitterOff
350
67
  3
Linepattern
350
68
  3
Modeling
350
69
  3
OverhangOff
350
6A
  3
Realistic
350
6B
  3
Shaded
350
6C
  3
Shaded with edges
350
6D
  3
Shades of Gray
350
6E
  3
Sketchy
350
6F
  3
Thicken
350
70
  3
Wireframe
350
71
  3
X-Ray
350
72
  0
LAYOUT
  5
1A
330
D
100
AcDbPlotSettings
  1

  4
A3
  6

 40
7.5
 41
20.0
 42
7.5
 43
20.0
 44
420.0
 45
297.0
 46
0.0
 47
0.0
 48
0.0
 49
0.0
140
0.0
141
0.0
142
1.0
143
1.0
 70
1024
 72
1
 73
0
 74
5
  7

 75
16
 76
0
 77
2
 78
300
147
1.0
148
0.0
149
0.0
100
AcDbLayout
  1
Model
 70
1
 71
0
 10
0.0
 20
0.0
 11
420.0
 21
297.0
 12
0.0
 22
0.0
 32
0.0
 14
1e+20
 24
1e+20
 34
1e+20
 15
-1e+20
 25
-1e+20
 35
-1e+20
146
0.0
 13
0.0
 23
0.0
 33
0.0
 16
1.0
 26
0.0
 36
0.0
 17
0.0
 27
1.0
 37
0.0
 76
1
330
17
  0
LAYOUT
  5
1E
330
D
100
AcDbPlotSettings
  1

  4
A3
  6

 40
7.5
 41
20.0
 42
7.5
 43
20.0
 44
420.0
 45
297.0
 46
0.0
 47
0.0
 48
0.0
 49
0.0
140
0.0
141
0.0
142
1.0
143
1.0
 70
0
 72
1
 73
0
 74
5
  7

 75
16
 76
0
 77
2
 78
300
147
1.0
148
0.0
149
0.0
100
AcDbLayout
  1
Layout1
 70
1
 71
1
 10
0.0
 20
0.0
 11
420.0
 21
297.0
 12
0.0
 22
0.0
 32
0.0
 14
1e+20
 24
1e+20
 34
1e+20
 15
-1e+20
 25
-1e+20
 35
-1e+20
146
0.0
 13
0.0
 23
0.0
 33
0.0
 16
1.0
 26
0.0
 36
0.0
 17
0.0
 27
1.0
 37
0.0
 76
1
330
1B
  0
MATERIAL
  5
1F
102
{ACAD_REACTORS
330
E
102
}
330
E
100
AcDbMaterial
  1
ByBlock
  2

 70
0
 40
1.0
 71
1
 41
1.0
 91
-1023410177
 42
1.0
 72
1
  3

 73
1
 74
1
 75
1
 44
0.5
 73
0
 45
1.0
 46
1.0
 77
1
  4

 78
1
 79
1
170
1
 48
1.0
171
1
  6

172
1
173
1
174
1
140
1.0
141
1.0
175
1
  7

176
1
177
1
178
1
143
1.0
179
1
  8

270
1
271
1
272
1
145
1.0
146
1.0
273
1
  9

274
1
275
1
276
1
 42
1.0
 72
1
  3

 73
1
 74
1
 75
1
 94
63
  0
MATERIAL
  5
20
102
{ACAD_REACTORS
330
E
102
}
330
E
100
AcDbMaterial
  1
ByLayer
  2

 70
0
 40
1.0
 71
1
 41
1.0
 91
-1023410177
 42
1.0
 72
1
  3

 73
1
 74
1
 75
1
 44
0.5
 73
0
 45
1.0
 46
1.0
 77
1
  4

 78
1
 79
1
170
1
 48
1.0
171
1
  6

172
1
173
1
174
1
140
1.0
141
1.0
175
1
  7

176
1
177
1
178
1
143
1.0
179
1
  8

270
1
271
1
272
1
145
1.0
146
1.0
273
1
  9

274
1
275
1
276
1
 42
1.0
 72
1
  3

 73
1
 74
1
 75
1
 94
63
  0
MATERIAL
  5
21
102
{ACAD_REACTORS
330
E
102
}
330
E
100
AcDbMaterial
  1
Global
  2

 70
0
 40
1.0
 71
1
 41
1.0
 91
-1023410177
 42
1.0
 72
1
  3

 73
1
 74
1
 75
1
 44
0.5
 73
0
 45
1.0
 46
1.0
 77
1
  4

 78
1
 79
1
170
1
 48
1.0
171
1
  6

172
1
173
1
174
1
140
1.0
141
1.0
175
1
  7

176
1
177
1
178
1
143
1.0
179
1
  8

270
1
271
1
272
1
145
1.0
146
1.0
273
1
  9

274
1
275
1
276
1
 42
1.0
 72
1
  3

 73
1
 74
1
 75
1
 94
63
  0
MLINESTYLE
  5
22
102
{ACAD_REACTORS
330
10
102
}
330
10
100
AcDbMlineStyle
  2
Standard
 70
0
  3

 62
256
 51
90.0
 52
90.0
 71
2
 49
0.5
 62
256
  6
BYLAYER
 49
-0.5
 62
256
  6
BYLAYER
  0
MLEADERSTYLE
  5
2C
102
{ACAD_REACTORS
330
F
102
}
330
F
100
AcDbMLeaderStyle
179
2
170
2
171
1
172
0
 90
2
 40
0.0
 41
0.0
173
1
 91
-1056964608
 92
-2
290
1
 42
2.0
291
1
 43
8.0
  3
Standard
 44
4.0
300

342
29
174
1
175
1
176
0
178
1
 93
-1056964608
 45
4.0
292
0
297
0
 46
4.0
 94
-1056964608
 47
1.0
 49
1.0
140
1.0
294
1
141
0.0
177
0
142
1.0
295
0
296
0
143
3.75
271
0
272
9
273
9
  0
DICTIONARY
  5
2D
330
A
100
AcDbDictionary
280
1
281
1
  3
CREATED_BY_EZDXF
350
2E
  3
WRITTEN_BY_EZDXF
350
95
  0
DICTIONARYVAR
  5
2E
330
2D
100
DictionaryVariables
280
0
  1
1.4.2 @ 2026-09-06T16:30:42.601529+00:00
  0
VISUALSTYLE
  5
5A
102
{ACAD_REACTORS
330
16
102
}
330
16
100
AcDbVisualStyle
  2
2dWireframe
 70
4
 90
0
 40
0.6
 62
7
290
0
291
0
  0
VISUALSTYLE
  5
5B
102
{ACAD_REACTORS
330
16
102
}
330
16
100
AcDbVisualStyle
  2
Basic
 70
7
 90
1
 40
0.6
 62
7
290
0
291
1
  0
VISUALSTYLE
  5
5C
102
{ACAD_REACTORS
330
16
102
}
330
16
100
AcDbVisualStyle
  2
Brighten
 70
12
 90
2
 40
0.6
 62
7
290
0
291
1
  0
VISUALSTYLE
  5
5D
102
{ACAD_REACTORS
330
16
102
}
330
16
100
AcDbVisualStyle
  2
ColorChange
 70
16
 90
2
 40
0.6
 62
8
290
0
291
1
  0
VISUALSTYLE
  5
5E
102
{ACAD_REACTORS
330
16
102
}
330
16
100
AcDbVisualStyle
  2
Conceptual
 70
9
 90
3
 40
0.6
 62
7
290
0
291
0
  0
VISUALSTYLE
  5
5F
102
{ACAD_REACTORS
330
16
102
}
330
16
100
AcDbVisualStyle
  2
Dim
 70
11
 90
2
 40
0.6
 62
7
290
0
291
1
  0
VISUALSTYLE
  5
60
102
{ACAD_REACTORS
330
16
102
}
330
16
100
AcDbVisualStyle
  2
EdgeColorOff
 70
22
 90
2
 40
0.6
 62
7
290
0
291
1
  0
VISUALSTYLE
  5
61
102
{ACAD_REACTORS
330
16
102
}
330
16
100
AcDbVisualStyle
  2
Facepattern
 70
15
 90
2
 40
0.6
 62
7
290
0
291
1
  0
VISUALSTYLE
  5
62
102
{ACAD_REACTORS
330
16
102
}
330
16
100
AcDbVisualStyle
  2
Flat
 70
0
 90
2
 40
0.6
 62
7
290
0
291
1
  0
VISUALSTYLE
  5
63
102
{ACAD_REACTORS
330
16
102
}
330
16
100
AcDbVisualStyle
  2
FlatWithEdges
 70
1
 90
2
 40
0.6
 62
7
290
0
291
1
  0
VISUALSTYLE
  5
64
102
{ACAD_REACTORS
330
16
102
}
330
16
100
AcDbVisualStyle
  2
Gouraud
 70
2
 90
2
 40
0.6
 62
7
290
0
291
1
  0
VISUALSTYLE
  5
65
102
{ACAD_REACTORS
330
16
102
}
330
16
100
AcDbVisualStyle
  2
GouraudWithEdges
 70
3
 90
2
 40
0.6
 62
7
290
0
291
1
  0
VISUALSTYLE
  5
66
102
{ACAD_REACTORS
330
16
102
}
330
16
100
AcDbVisualStyle
  2
Hidden
 70
6
 90
1
 40
0.6
 62
7
290
0
291
0
  0
VISUALSTYLE
  5
67
102
{ACAD_REACTORS
330
16
102
}
330
16
100
AcDbVisualStyle
  2
JitterOff
 70
20
 90
2
 40
0.6
 62
7
290
0
291
1
  0
VISUALSTYLE
  5
68
102
{ACAD_REACTORS
330
16
102
}
330
16
100
AcDbVisualStyle
  2
Linepattern
 70
14
 90
2
 40
0.6
 62
7
290
0
291
1
  0
VISUALSTYLE
  5
69
102
{ACAD_REACTORS
330
16
102
}
330
16
100
AcDbVisualStyle
  2
Modeling
 70
10
 90
2
 40
0.6
 62
7
290
0
291
0
  0
VISUALSTYLE
  5
6A
102
{ACAD_REACTORS
330
16
102
}
330
16
100
AcDbVisualStyle
  2
OverhangOff
 70
21
 90
2
 40
0.6
 62
7
290
0
291
1
  0
VISUALSTYLE
  5
6B
102
{ACAD_REACTORS
330
16
102
}
330
16
100
AcDbVisualStyle
  2
Realistic
 70
8
 90
2
 40
0.6
 62
7
290
0
291
0
  0
VISUALSTYLE
  5
6C
102
{ACAD_REACTORS
330
16
102
}
330
16
100
AcDbVisualStyle
  2
Shaded
 70
27
 90
2
 40
0.6
 62
7
290
0
291
0
  0
VISUALSTYLE
  5
6D
102
{ACAD_REACTORS
330
16
102
}
330
16
100
AcDbVisualStyle
  2
Shaded with edges
 70
26
 90
2
 40
0.6
 62
7
290
0
291
0
  0
VISUALSTYLE
  5
6E
102
{ACAD_REACTORS
330
16
102
}
330
16
100
AcDbVisualStyle
  2
Shades of Gray
 70
23
 90
2
 40
0.6
 62
7
290
0
291
0
  0
VISUALSTYLE
  5
6F
102
{ACAD_REACTORS
330
16
102
}
330
16
100
AcDbVisualStyle
  2
Sketchy
 70
24
 90
1
 40
0.6
 62
7
290
0
291
0
  0
VISUALSTYLE
  5
70
102
{ACAD_REACTORS
330
16
102
}
330
16
100
AcDbVisualStyle
  2
Thicken
 70
13
 90
2
 40
0.6
 62
7
290
0
291
1
  0
VISUALSTYLE
  5
71
102
{ACAD_REACTORS
330
16
102
}
330
16
100
AcDbVisualStyle
  2
Wireframe
 70
5
 90
0
 40
0.6
 62
7
290
0
291
0
  0
VISUALSTYLE
  5
72
102
{ACAD_REACTORS
330
16
102
}
330
16
100
AcDbVisualStyle
  2
X-Ray
 70
25
 90
2
 40
0.5
 62
7
290
0
291
0
  0
DICTIONARYVAR
  5
95
330
2D
100
DictionaryVariables
280
0
  1
1.4.2 @ 2026-09-06T16:30:42.608906+00:00
  0
ENDSEC
  0
EOF
