  0
SECTION
  2
HEADER
  9
$ACADVER
  1
AC1024
  9
$ACADMAINTVER
 70
6
  9
$DWGCODEPAGE
  3
ANSI_1252
  9
$LASTSAVEDBY
  1
ezdxf
  9
$INSBASE
 10
0.0
 20
0.0
 30
0.0
  9
$EXTMIN
 10
1e+20
 20
1e+20
 30
1e+20
  9
$EXTMAX
 10
-1e+20
 20
-1e+20
 30
-1e+20
  9
$LIMMIN
 10
0.0
 20
0.0
  9
$LIMMAX
 10
420.0
 20
297.0
  9
$ORTHOMODE
 70
0
  9
$REGENMODE
 70
1
  9
$FILLMODE
 70
1
  9
$QTEXTMODE
 70
0
  9
$MIRRTEXT
 70
1
  9
$LTSCALE
 40
1.0
  9
$ATTMODE
 70
1
  9
$TEXTSIZE
 40
2.5
  9
$TRACEWID
 40
1.0
  9
$TEXTSTYLE
  7
OpenSans
  9
$CLAYER
  8
0
  9
$CELTYPE
  6
ByLayer
  9
$CECOLOR
 62
256
  9
$CELTSCALE
 40
1.0
  9
$DISPSILH
 70
0
  9
$DIMSCALE
 40
1.0
  9
$DIMASZ
 40
0.175
  9
$DIMEXO
 40
0.125
  9
$DIMDLI
 40
3.75
  9
$DIMRND
 40
0.0
  9
$DIMDLE
 40
0.0
  9
$DIMEXE
 40
0.375
  9
$DIMTP
 40
0.0
  9
$DIMTM
 40
0.0
  9
$DIMTXT
 40
0.25
  9
$DIMCEN
 40
2.5
  9
$DIMTSZ
 40
0.0
  9
$DIMTOL
 70
0
  9
$DIMLIM
 70
0
  9
$DIMTIH
 70
0
  9
$DIMTOH
 70
0
  9
$DIMSE1
 70
0
  9
$DIMSE2
 70
0
  9
$DIMTAD
 70
1
  9
$DIMZIN
 70
12
  9
$DIMBLK
  1
ARCHTICK
  9
$DIMASO
 70
1
  9
$DIMSHO
 70
1
  9
$DIMPOST
  1

  9
$DIMAPOST
  1

  9
$DIMALT
 70
0
  9
$DIMALTD
 70
3
  9
$DIMALTF
 40
0.03937007874
  9
$DIMLFAC
 40
100.0
  9
$DIMTOFL
 70
1
  9
$DIMTVP
 40
0.0
  9
$DIMTIX
 70
0
  9
$DIMSOXD
 70
0
  9
$DIMSAH
 70
0
  9
$DIMBLK1
  1

  9
$DIMBLK2
  1

  9
$DIMSTYLE
  2
EZDXF
  9
$DIMCLRD
 70
0
  9
$DIMCLRE
 70
0
  9
$DIMCLRT
 70
0
  9
$DIMTFAC
 40
0.5
  9
$DIMGAP
 40
0.1
  9
$DIMJUST
 70
0
  9
$DIMSD1
 70
0
  9
$DIMSD2
 70
0
  9
$DIMTOLJ
 70
0
  9
$DIMTZIN
 70
8
  9
$DIMALTZ
 70
0
  9
$DIMALTTZ
 70
0
  9
$DIMUPT
 70
1
  9
$DIMDEC
 70
2
  9
$DIMTDEC
 70
2
  9
$DIMALTU
 70
2
  9
$DIMALTTD
 70
3
  9
$DIMTXSTY
  7
OpenSansCondensed-Light
  9
$DIMAUNIT
 70
0
  9
$DIMADEC
 70
2
  9
$DIMALTRND
 40
0.0
  9
$DIMAZIN
 70
3
  9
$DIMDSEP
 70
46
  9
$DIMATFIT
 70
3
  9
$DIMFRAC
 70
0
  9
$DIMLDRBLK
  1

  9
$DIMLUNIT
 70
2
  9
$DIMLWD
 70
-2
  9
$DIMLWE
 70
-2
  9
$DIMTMOVE
 70
2
  9
$DIMFXL
 40
1.0
  9
$DIMFXLON
 70
0
  9
$DIMJOGANG
 40
0.785398163397
  9
$DIMTFILL
 70
0
  9
$DIMTFILLCLR
 70
0
  9
$DIMARCSYM
 70
0
  9
$DIMLTYPE
  6

  9
$DIMLTEX1
  6

  9
$DIMLTEX2
  6

  9
$DIMTXTDIRECTION
 70
0
  9
$LUNITS
 70
2
  9
$LUPREC
 70
4
  9
$SKETCHINC
 40
1.0
  9
$FILLETRAD
 40
10.0
  9
$AUNITS
 70
0
  9
$AUPREC
 70
2
  9
$MENU
  1
.
  9
$ELEVATION
 40
0.0
  9
$PELEVATION
 40
0.0
  9
$THICKNESS
 40
0.0
  9
$LIMCHECK
 70
0
  9
$CHAMFERA
 40
0.0
  9
$CHAMFERB
 40
0.0
  9
$CHAMFERC
 40
0.0
  9
$CHAMFERD
 40
0.0
  9
$SKPOLY
 70
0
  9
$TDCREATE
 40
2461290.4379861113
  9
$TDUCREATE
 40
2458532.153996898
  9
$TDUPDATE
 40
2461290.4379861113
  9
$TDUUPDATE
 40
2458532.1544311
  9
$TDINDWG
 40
0.0
  9
$TDUSRTIMER
 40
0.0
  9
$USRTIMER
 70
1
  9
$ANGBASE
 50
0.0
  9
$ANGDIR
 70
0
  9
$PDMODE
 70
0
  9
$PDSIZE
 40
0.0
  9
$PLINEWID
 40
0.0
  9
$SPLFRAME
 70
0
  9
$SPLINETYPE
 70
6
  9
$SPLINESEGS
 70
8
  9
$HANDSEED
  5
9B
  9
$SURFTAB1
 70
6
  9
$SURFTAB2
 70
6
  9
$SURFTYPE
 70
6
  9
$SURFU
 70
6
  9
$SURFV
 70
6
  9
$UCSBASE
  2

  9
$UCSNAME
  2

  9
$UCSORG
 10
0.0
 20
0.0
 30
0.0
  9
$UCSXDIR
 10
1.0
 20
0.0
 30
0.0
  9
$UCSYDIR
 10
0.0
 20
1.0
 30
0.0
  9
$UCSORTHOREF
  2

  9
$UCSORTHOVIEW
 70
0
  9
$UCSORGTOP
 10
0.0
 20
0.0
 30
0.0
  9
$UCSORGBOTTOM
 10
0.0
 20
0.0
 30
0.0
  9
$UCSORGLEFT
 10
0.0
 20
0.0
 30
0.0
  9
$UCSORGRIGHT
 10
0.0
 20
0.0
 30
0.0
  9
$UCSORGFRONT
 10
0.0
 20
0.0
 30
0.0
  9
$UCSORGBACK
 10
0.0
 20
0.0
 30
0.0
  9
$PUCSBASE
  2

  9
$PUCSNAME
  2

  9
$PUCSORG
 10
0.0
 20
0.0
 30
0.0
  9
$PUCSXDIR
 10
1.0
 20
0.0
 30
0.0
  9
$PUCSYDIR
 10
0.0
 20
1.0
 30
0.0
  9
$PUCSORTHOREF
  2

  9
$PUCSORTHOVIEW
 70
0
  9
$PUCSORGTOP
 10
0.0
 20
0.0
 30
0.0
  9
$PUCSORGBOTTOM
 10
0.0
 20
0.0
 30
0.0
  9
$PUCSORGLEFT
 10
0.0
 20
0.0
 30
0.0
  9
$PUCSORGRIGHT
 10
0.0
 20
0.0
 30
0.0
  9
$PUCSORGFRONT
 10
0.0
 20
0.0
 30
0.0
  9
$PUCSORGBACK
 10
0.0
 20
0.0
 30
0.0
  9
$USERI1
 70
0
  9
$USERI2
 70
0
  9
$USERI3
 70
0
  9
$USERI4
 70
0
  9
$USERI5
 70
0
  9
$USERR1
 40
0.0
  9
$USERR2
 40
0.0
  9
$USERR3
 40
0.0
  9
$USERR4
 40
0.0
  9
$USERR5
 40
0.0
  9
$WORLDVIEW
 70
1
  9
$SHADEDGE
 70
3
  9
$SHADEDIF
 70
70
  9
$TILEMODE
 70
1
  9
$MAXACTVP
 70
64
  9
$PINSBASE
 10
0.0
 20
0.0
 30
0.0
  9
$PLIMCHECK
 70
0
  9
$PEXTMIN
 10
1e+20
 20
1e+20
 30
1e+20
  9
$PEXTMAX
 10
-1e+20
 20
-1e+20
 30
-1e+20
  9
$PLIMMIN
 10
0.0
 20
0.0
  9
$PLIMMAX
 10
420.0
 20
297.0
  9
$UNITMODE
 70
0
  9
$VISRETAIN
 70
1
  9
$PLINEGEN
 70
0
  9
$PSLTSCALE
 70
1
  9
$TREEDEPTH
 70
3020
  9
$CMLSTYLE
  2
Standard
  9
$CMLJUST
 70
0
  9
$CMLSCALE
 40
20.0
  9
$PROXYGRAPHICS
 70
1
  9
$MEASUREMENT
 70
1
  9
$CELWEIGHT
370
-1
  9
$ENDCAPS
280
0
  9
$JOINSTYLE
280
0
  9
$LWDISPLAY
290
0
  9
$INSUNITS
 70
4
  9
$HYPERLINKBASE
  1

  9
$STYLESHEET
  1

  9
$XEDIT
290
1
  9
$CEPSNTYPE
380
0
  9
$PSTYLEMODE
290
1
  9
$FINGERPRINTGUID
  2
{5F65D8E0-FFE2-459C-B21E-7EA0646E68AE}
  9
$VERSIONGUID
  2
{296D6D71-B904-4385-AFFA-C5F6D317DD7D}
  9
$EXTNAMES
290
1
  9
$PSVPSCALE
 40
0.0
  9
$OLESTARTUP
290
0
  9
$SORTENTS
280
127
  9
$INDEXCTL
280
0
  9
$HIDETEXT
280
1
  9
$XCLIPFRAME
280
1
  9
$HALOGAP
280
0
  9
$OBSCOLOR
 70
257
  9
$OBSLTYPE
280
0
  9
$INTERSECTIONDISPLAY
280
0
  9
$INTERSECTIONCOLOR
 70
257
  9
$DIMASSOC
280
2
  9
$PROJECTNAME
  1

  9
$CAMERADISPLAY
290
0
  9
$LENSLENGTH
 40
50.0
  9
$CAMERAHEIGHT
 40
0.0
  9
$STEPSPERSEC
 40
24.0
  9
$STEPSIZE
 40
100.0
  9
$3DDWFPREC
 40
2.0
  9
$PSOLWIDTH
 40
0.005
  9
$PSOLHEIGHT
 40
0.08
  9
$LOFTANG1
 40
1.570796326795
  9
$LOFTANG2
 40
1.570796326795
  9
$LOFTMAG1
 40
0.0
  9
$LOFTMAG2
 40
0.0
  9
$LOFTPARAM
 70
7
  9
$LOFTNORMALS
280
1
  9
$LATITUDE
 40
37.795
  9
$LONGITUDE
 40
-122.394
  9
$NORTHDIRECTION
 40
0.0
  9
$TIMEZONE
 70
-8000
  9
$LIGHTGLYPHDISPLAY
280
1
  9
$TILEMODELIGHTSYNCH
280
1
  9
$CMATERIAL
347
20
  9
$SOLIDHIST
280
0
  9
$SHOWHIST
280
1
  9
$DWFFRAME
280
2
  9
$DGNFRAME
280
2
  9
$REALWORLDSCALE
290
1
  9
$INTERFERECOLOR
 62
256
  9
$CSHADOW
280
0
  9
$SHADOWPLANELOCATION
 40
0.0
  0
ENDSEC
  0
SECTION
  2
CLASSES
  0
CLASS
  1
ACDBDICTIONARYWDFLT
  2
AcDbDictionaryWithDefault
  3
ObjectDBX Classes
 90
0
 91
0
280
0
281
0
  0
CLASS
  1
SUN
  2
AcDbSun
  3
SCENEOE
 90
1153
 91
0
280
0
281
0
  0
CLASS
  1
VISUALSTYLE
  2
AcDbVisualStyle
  3
ObjectDBX Classes
 90
4095
 91
0
280
0
281
0
  0
CLASS
  1
MATERIAL
  2
AcDbMaterial
  3
ObjectDBX Classes
 90
1153
 91
0
280
0
281
0
  0
CLASS
  1
SCALE
  2
AcDbScale
  3
ObjectDBX Classes
 90
1153
 91
0
280
0
281
0
  0
CLASS
  1
TABLESTYLE
  2
AcDbTableStyle
  3
ObjectDBX Classes
 90
4095
 91
0
280
0
281
0
  0
CLASS
  1
MLEADERSTYLE
  2
AcDbMLeaderStyle
  3
ACDB_MLEADERSTYLE_CLASS
 90
4095
 91
0
280
0
281
0
  0
CLASS
  1
DICTIONARYVAR
  2
AcDbDictionaryVar
  3
ObjectDBX Classes
 90
0
 91
0
280
0
281
0
  0
CLASS
  1
CELLSTYLEMAP
  2
AcDbCellStyleMap
  3
ObjectDBX Classes
 90
1152
 91
0
280
0
281
0
  0
CLASS
  1
MENTALRAYRENDERSETTINGS
  2
AcDbMentalRayRenderSettings
  3
SCENEOE
 90
1024
 91
0
280
0
281
0
  0
CLASS
  1
ACDBDETAILVIEWSTYLE
  2
AcDbDetailViewStyle
  3
ObjectDBX Classes
 90
1025
 91
0
280
0
281
0
  0
CLASS
  1
ACDBSECTIONVIEWSTYLE
  2
AcDbSectionViewStyle
  3
ObjectDBX Classes
 90
1025
 91
0
280
0
281
0
  0
CLASS
  1
RASTERVARIABLES
  2
AcDbRasterVariables
  3
ISM
 90
0
 91
0
280
0
281
0
  0
CLASS
  1
LAYOUT
  2
AcDbLayout
  3
ObjectDBX Classes
 90
0
 91
0
280
0
281
0
  0
CLASS
  1
ACDBPLACEHOLDER
  2
AcDbPlaceHolder
  3
ObjectDBX Classes
 90
0
 91
0
280
0
281
0
  0
ENDSEC
  0
SECTION
  2
TABLES
  0
TABLE
  2
VPORT
  5
8
330
0
100
AcDbSymbolTable
 70
1
  0
VPORT
  5
23
330
8
100
AcDbSymbolTableRecord
100
AcDbViewportTableRecord
  2
*Active
 70
0
 10
0.0
 20
0.0
 11
1.0
 21
1.0
 12
0.0
 22
0.0
 13
0.0
 23
0.0
 14
0.5
 24
0.5
 15
0.5
 25
0.5
 16
0.0
 26
0.0
 36
1.0
 17
0.0
 27
0.0
 37
0.0
 40
1000.0
 41
1.34
 42
50.0
 43
0.0
 44
0.0
 50
0.0
 51
0.0
 71
0
 72
1000
 73
1
 74
3
 75
0
 76
0
 77
0
 78
0
281
0
 65
0
146
0.0
  0
ENDTAB
  0
TABLE
  2
LTYPE
  5
2
330
0
100
AcDbSymbolTable
 70
21
  0
LTYPE
  5
24
330
2
100
AcDbSymbolTableRecord
100
AcDbLinetypeTableRecord
  2
ByBlock
 70
0
  3

 72
65
 73
0
 40
0.0
  0
LTYPE
  5
25
330
2
100
AcDbSymbolTableRecord
100
AcDbLinetypeTableRecord
  2
ByLayer
 70
0
  3

 72
65
 73
0
 40
0.0
  0
LTYPE
  5
26
330
2
100
AcDbSymbolTableRecord
100
AcDbLinetypeTableRecord
  2
Continuous
 70
0
  3

 72
65
 73
0
 40
0.0
  0
LTYPE
  5
2F
330
2
100
AcDbSymbolTableRecord
100
AcDbLinetypeTableRecord
  2
CENTER
 70
0
  3
Center ____ _ ____ _ ____ _ ____ _ ____ _ ____
 72
65
 73
4
 40
5.08
 49
3.175
 74
0
 49
-0.635
 74
0
 49
0.635
 74
0
 49
-0.635
 74
0
  0
LTYPE
  5
30
330
2
100
AcDbSymbolTableRecord
100
AcDbLinetypeTableRecord
  2
CENTERX2
 70
0
  3
Center (2x) ________  __  ________  __  ________
 72
65
 73
4
 40
8.89
 49
6.35
 74
0
 49
-0.635
 74
0
 49
1.27
 74
0
 49
-0.635
 74
0
  0
LTYPE
  5
31
330
2
100
AcDbSymbolTableRecord
100
AcDbLinetypeTableRecord
  2
CENTER2
 70
0
  3
Center (.5x) ____ _ ____ _ ____ _ ____ _ ____
 72
65
 73
4
 40
2.54
 49
1.587
 74
0
 49
-0.318
 74
0
 49
0.318
 74
0
 49
-0.318
 74
0
  0
LTYPE
  5
32
330
2
100
AcDbSymbolTableRecord
100
AcDbLinetypeTableRecord
  2
DASHED
 70
0
  3
Dashed __ __ __ __ __ __ __ __ __ __ __ __ __ _
 72
65
 73
2
 40
1.524
 49
1.27
 74
0
 49
-0.254
 74
0
  0
LTYPE
  5
33
330
2
100
AcDbSymbolTableRecord
100
AcDbLinetypeTableRecord
  2
DASHEDX2
 70
0
  3
Dashed (2x) ____  ____  ____  ____  ____  ____
 72
65
 73
2
 40
3.048
 49
2.54
 74
0
 49
-0.508
 74
0
  0
LTYPE
  5
34
330
2
100
AcDbSymbolTableRecord
100
AcDbLinetypeTableRecord
  2
DASHED2
 70
0
  3
Dashed (.5x) _ _ _ _ _ _ _ _ _ _ _ _ _ _
 72
65
 73
2
 40
0.762
 49
0.635
 74
0
 49
-0.127
 74
0
  0
LTYPE
  5
35
330
2
100
AcDbSymbolTableRecord
100
AcDbLinetypeTableRecord
  2
PHANTOM
 70
0
  3
Phantom ______  __  __  ______  __  __  ______
 72
65
 73
6
 40
6.35
 49
3.175
 74
0
 49
-0.635
 74
0
 49
0.635
 74
0
 49
-0.635
 74
0
 49
0.635
 74
0
 49
-0.635
 74
0
  0
LTYPE
  5
36
330
2
100
AcDbSymbolTableRecord
100
AcDbLinetypeTableRecord
  2
PHANTOMX2
 70
0
  3
Phantom (2x)____________    ____    ____    ____________
 72
65
 73
6
 40
10.795
 49
6.35
 74
0
 49
-0.635
 74
0
 49
1.27
 74
0
 49
-0.635
 74
0
 49
1.27
 74
0
 49
-0.635
 74
0
  0
LTYPE
  5
37
330
2
100
AcDbSymbolTableRecord
100
AcDbLinetypeTableRecord
  2
PHANTOM2
 70
0
  3
Phantom (.5x) ___ _ _ ___ _ _ ___ _ _ ___ _ _ ___
 72
65
 73
6
 40
3.175
 49
1.587
 74
0
 49
-0.318
 74
0
 49
0.318
 74
0
 49
-0.318
 74
0
 49
0.318
 74
0
 49
-0.318
 74
0
  0
LTYPE
  5
38
330
2
100
AcDbSymbolTableRecord
100
AcDbLinetypeTableRecord
  2
DASHDOT
 70
0
  3
Dash dot __ . __ . __ . __ . __ . __ . __ . __
 72
65
 73
4
 40
3.556
 49
2.54
 74
0
 49
-0.508
 74
0
 49
0.0
 74
0
 49
-0.508
 74
0
  0
LTYPE
  5
39
330
2
100
AcDbSymbolTableRecord
100
AcDbLinetypeTableRecord
  2
DASHDOTX2
 70
0
  3
Dash dot (2x) ____  .  ____  .  ____  .  ____
 72
65
 73
4
 40
6.096
 49
5.08
 74
0
 49
-0.508
 74
0
 49
0.0
 74
0
 49
-0.508
 74
0
  0
LTYPE
  5
3A
330
2
100
AcDbSymbolTableRecord
100
AcDbLinetypeTableRecord
  2
DASHDOT2
 70
0
  3
Dash dot (.5x) _ . _ . _ . _ . _ . _ . _ . _
 72
65
 73
4
 40
1.778
 49
1.27
 74
0
 49
-0.254
 74
0
 49
0.0
 74
0
 49
-0.254
 74
0
  0
LTYPE
  5
3B
330
2
100
AcDbSymbolTableRecord
100
AcDbLinetypeTableRecord
  2
DOT
 70
0
  3
Dot .  .  .  .  .  .  .  .  .  .  .  .  .  .  .  .
 72
65
 73
2
 40
0.508
 49
0.0
 74
0
 49
-0.508
 74
0
  0
LTYPE
  5
3C
330
2
100
AcDbSymbolTableRecord
100
AcDbLinetypeTableRecord
  2
DOTX2
 70
0
  3
Dot (2x) .    .    .    .    .    .    .    . 
 72
65
 73
2
 40
1.016
 49
0.0
 74
0
 49
-1.016
 74
0
  0
LTYPE
  5
3D
330
2
100
AcDbSymbolTableRecord
100
AcDbLinetypeTableRecord
  2
DOT2
 70
0
  3
Dot (.5) . . . . . . . . . . . . . . . . . . . 
 72
65
 73
2
 40
0.254
 49
0.0
 74
0
 49
-0.254
 74
0
  0
LTYPE
  5
3E
330
2
100
AcDbSymbolTableRecord
100
AcDbLinetypeTableRecord
  2
DIVIDE
 70
0
  3
Divide __ . . __ . . __ . . __ . . __ . . __
 72
65
 73
6
 40
4.064
 49
2.54
 74
0
 49
-0.508
 74
0
 49
0.0
 74
0
 49
-0.508
 74
0
 49
0.0
 74
0
 49
-0.508
 74
0
  0
LTYPE
  5
3F
330
2
100
AcDbSymbolTableRecord
100
AcDbLinetypeTableRecord
  2
DIVIDEX2
 70
0
  3
Divide (2x) ____  . .  ____  . .  ____  . .  ____
 72
65
 73
6
 40
6.604
 49
5.08
 74
0
 49
-0.508
 74
0
 49
0.0
 74
0
 49
-0.508
 74
0
 49
0.0
 74
0
 49
-0.508
 74
0
  0
LTYPE
  5
40
330
2
100
AcDbSymbolTableRecord
100
AcDbLinetypeTableRecord
  2
DIVIDE2
 70
0
  3
Divide(.5x) _ . _ . _ . _ . _ . _ . _ . _
 72
65
 73
6
 40
2.032
 49
1.27
 74
0
 49
-0.254
 74
0
 49
0.0
 74
0
 49
-0.254
 74
0
 49
0.0
 74
0
 49
-0.254
 74
0
  0
ENDTAB
  0
TABLE
  2
LAYER
  5
1
330
0
100
AcDbSymbolTable
 70
5
  0
LAYER
  5
27
330
1
100
AcDbSymbolTableRecord
100
AcDbLayerTableRecord
  2
0
 70
0
 62
7
  6
Continuous
370
-3
390
13
347
21
  0
LAYER
  5
28
330
1
100
AcDbSymbolTableRecord
100
AcDbLayerTableRecord
  2
Defpoints
 70
0
 62
7
  6
Continuous
290
0
370
-3
390
13
347
21
  0
LAYER
  5
8A
330
1
100
AcDbSymbolTableRecord
100
AcDbLayerTableRecord
  2
CORTE
 70
0
 62
1
  6
Continuous
370
-3
390
13
347
21
  0
LAYER
  5
8B
330
1
100
AcDbSymbolTableRecord
100
AcDbLayerTableRecord
  2
GRABADO
 70
0
 62
5
  6
Continuous
370
-3
390
13
347
21
  0
LAYER
  5
8C
330
1
100
AcDbSymbolTableRecord
100
AcDbLayerTableRecord
  2
HOJA
 70
0
 62
8
  6
Continuous
370
-3
390
13
347
21
  0
ENDTAB
  0
TABLE
  2
STYLE
  5
5
330
0
100
AcDbSymbolTable
 70
26
  0
STYLE
  5
29
330
5
100
AcDbSymbolTableRecord
100
AcDbTextStyleTableRecord
  2
Standard
 70
0
 40
0.0
 41
1.0
 50
0.0
 71
0
 42
2.5
  3
txt
  4

  0
STYLE
  5
41
330
5
100
AcDbSymbolTableRecord
100
AcDbTextStyleTableRecord
  2
OpenSans-Light
 70
0
 40
0.0
 41
1.0
 50
0.0
 71
0
 42
2.5
  3
OpenSans-Light.ttf
  4

  0
STYLE
  5
42
330
5
100
AcDbSymbolTableRecord
100
AcDbTextStyleTableRecord
  2
OpenSans-Light-Italic
 70
0
 40
0.0
 41
1.0
 50
0.0
 71
0
 42
2.5
  3
OpenSans-LightItalic.ttf
  4

  0
STYLE
  5
43
330
5
100
AcDbSymbolTableRecord
100
AcDbTextStyleTableRecord
  2
OpenSans
 70
0
 40
0.0
 41
1.0
 50
0.0
 71
0
 42
2.5
  3
OpenSans-Regular.ttf
  4

  0
STYLE
  5
44
330
5
100
AcDbSymbolTableRecord
100
AcDbTextStyleTableRecord
  2
OpenSans-Italic
 70
0
 40
0.0
 41
1.0
 50
0.0
 71
0
 42
2.5
  3
OpenSans-Italic.ttf
  4

  0
STYLE
  5
45
330
5
100
AcDbSymbolTableRecord
100
AcDbTextStyleTableRecord
  2
OpenSans-SemiBold
 70
0
 40
0.0
 41
1.0
 50
0.0
 71
0
 42
2.5
  3
OpenSans-SemiBold.ttf
  4

  0
STYLE
  5
46
330
5
100
AcDbSymbolTableRecord
100
AcDbTextStyleTableRecord
  2
OpenSans-SemiBoldItalic
 70
0
 40
0.0
 41
1.0
 50
0.0
 71
0
 42
2.5
  3
OpenSans-SemiBoldItalic.ttf
  4

  0
STYLE
  5
47
330
5
100
AcDbSymbolTableRecord
100
AcDbTextStyleTableRecord
  2
OpenSans-Bold
 70
0
 40
0.0
 41
1.0
 50
0.0
 71
0
 42
2.5
  3
OpenSans-Bold.ttf
  4

  0
STYLE
  5
48
330
5
100
AcDbSymbolTableRecord
100
AcDbTextStyleTableRecord
  2
OpenSans-BoldItalic
 70
0
 40
0.0
 41
1.0
 50
0.0
 71
0
 42
2.5
  3
OpenSans-BoldItalic.ttf
  4

  0
STYLE
  5
49
330
5
100
AcDbSymbolTableRecord
100
AcDbTextStyleTableRecord
  2
OpenSans-ExtraBold
 70
0
 40
0.0
 41
1.0
 50
0.0
 71
0
 42
2.5
  3
OpenSans-ExtraBold.ttf
  4

  0
STYLE
  5
4A
330
5
100
AcDbSymbolTableRecord
100
AcDbTextStyleTableRecord
  2
OpenSans-ExtraBoldItalic
 70
0
 40
0.0
 41
1.0
 50
0.0
 71
0
 42
2.5
  3
OpenSans-ExtraBoldItalic.ttf
  4

  0
STYLE
  5
4B
330
5
100
AcDbSymbolTableRecord
100
AcDbTextStyleTableRecord
  2
OpenSansCondensed-Bold
 70
0
 40
0.0
 41
1.0
 50
0.0
 71
0
 42
2.5
  3
OpenSansCondensed-Bold.ttf
  4

  0
STYLE
  5
4C
330
5
100
AcDbSymbolTableRecord
100
AcDbTextStyleTableRecord
  2
OpenSansCondensed-Light
 70
0
 40
0.0
 41
1.0
 50
0.0
 71
0
 42
2.5
  3
OpenSansCondensed-Light.ttf
  4

  0
STYLE
  5
4D
330
5
100
AcDbSymbolTableRecord
100
AcDbTextStyleTableRecord
  2
OpenSansCondensed-Italic
 70
0
 40
0.0
 41
1.0
 50
0.0
 71
0
 42
2.5
  3
OpenSansCondensed-LightItalic.ttf
  4

  0
STYLE
  5
4E
330
5
100
AcDbSymbolTableRecord
100
AcDbTextStyleTableRecord
  2
LiberationSans
 70
0
 40
0.0
 41
1.0
 50
0.0
 71
0
 42
2.5
  3
LiberationSans-Regular.ttf
  4

  0
STYLE
  5
4F
330
5
100
AcDbSymbolTableRecord
100
AcDbTextStyleTableRecord
  2
LiberationSans-Bold
 70
0
 40
0.0
 41
1.0
 50
0.0
 71
0
 42
2.5
  3
LiberationSans-Bold.ttf
  4

  0
STYLE
  5
50
330
5
100
AcDbSymbolTableRecord
100
AcDbTextStyleTableRecord
  2
LiberationSans-BoldItalic
 70
0
 40
0.0
 41
1.0
 50
0.0
 71
0
 42
2.5
  3
LiberationSans-BoldItalic.ttf
  4

  0
STYLE
  5
51
330
5
100
AcDbSymbolTableRecord
100
AcDbTextStyleTableRecord
  2
LiberationSans-Italic
 70
0
 40
0.0
 41
1.0
 50
0.0
 71
0
 42
2.5
  3
LiberationSans-Italic.ttf
  4

  0
STYLE
  5
52
330
5
100
AcDbSymbolTableRecord
100
AcDbTextStyleTableRecord
  2
LiberationSerif
 70
0
 40
0.0
 41
1.0
 50
0.0
 71
0
 42
2.5
  3
LiberationSerif-Regular.ttf
  4

  0
STYLE
  5
53
330
5
100
AcDbSymbolTableRecord
100
AcDbTextStyleTableRecord
  2
LiberationSerif-Bold
 70
0
 40
0.0
 41
1.0
 50
0.0
 71
0
 42
2.5
  3
LiberationSerif-Bold.ttf
  4

  0
STYLE
  5
54
330
5
100
AcDbSymbolTableRecord
100
AcDbTextStyleTableRecord
  2
LiberationSerif-BoldItalic
 70
0
 40
0.0
 41
1.0
 50
0.0
 71
0
 42
2.5
  3
LiberationSerif-BoldItalic.ttf
  4

  0
STYLE
  5
55
330
5
100
AcDbSymbolTableRecord
100
AcDbTextStyleTableRecord
  2
LiberationSerif-Italic
 70
0
 40
0.0
 41
1.0
 50
0.0
 71
0
 42
2.5
  3
LiberationSerif-Italic.ttf
  4

  0
STYLE
  5
56
330
5
100
AcDbSymbolTableRecord
100
AcDbTextStyleTableRecord
  2
LiberationMono
 70
0
 40
0.0
 41
1.0
 50
0.0
 71
0
 42
2.5
  3
LiberationMono-Regular.ttf
  4

  0
STYLE
  5
57
330
5
100
AcDbSymbolTableRecord
100
AcDbTextStyleTableRecord
  2
LiberationMono-Bold
 70
0
 40
0.0
 41
1.0
 50
0.0
 71
0
 42
2.5
  3
LiberationMono-Bold.ttf
  4

  0
STYLE
  5
58
330
5
100
AcDbSymbolTableRecord
100
AcDbTextStyleTableRecord
  2
LiberationMono-BoldItalic
 70
0
 40
0.0
 41
1.0
 50
0.0
 71
0
 42
2.5
  3
LiberationMono-BoldItalic.ttf
  4

  0
STYLE
  5
59
330
5
100
AcDbSymbolTableRecord
100
AcDbTextStyleTableRecord
  2
LiberationMono-Italic
 70
0
 40
0.0
 41
1.0
 50
0.0
 71
0
 42
2.5
  3
LiberationMono-Italic.ttf
  4

  0
ENDTAB
  0
TABLE
  2
VIEW
  5
7
330
0
100
AcDbSymbolTable
 70
0
  0
ENDTAB
  0
TABLE
  2
UCS
  5
6
330
0
100
AcDbSymbolTable
 70
0
  0
ENDTAB
  0
TABLE
  2
APPID
  5
3
330
0
100
AcDbSymbolTable
 70
3
  0
APPID
  5
2A
330
3
100
AcDbSymbolTableRecord
100
AcDbRegAppTableRecord
  2
ACAD
 70
0
  0
APPID
  5
98
330
3
100
AcDbSymbolTableRecord
100
AcDbRegAppTableRecord
  2
HATCHBACKGROUNDCOLOR
 70
0
  0
APPID
  5
99
330
3
100
AcDbSymbolTableRecord
100
AcDbRegAppTableRecord
  2
EZDXF
 70
0
  0
ENDTAB
  0
TABLE
  2
DIMSTYLE
  5
4
330
0
100
AcDbSymbolTable
 70
12
100
AcDbDimStyleTable
  0
DIMSTYLE
105
2B
330
4
100
AcDbSymbolTableRecord
100
AcDbDimStyleTableRecord
  2
Standard
 70
0
 40
1.0
 41
2.5
 42
0.625
 43
3.75
 44
1.25
 45
0.0
 46
0.0
 47
0.0
 48
0.0
 49
2.5
140
2.5
141
2.5
142
0.0
143
0.03937007874
144
1.0
145
0.0
146
1.0
147
0.625
148
0.0
 69
0
 70
0
 71
0
 72
0
 73
0
 74
0
 75
0
 76
0
 77
1
 78
8
 79
3
170
0
171
3
172
1
173
0
174
0
175
0
176
0
177
0
178
0
179
2
271
2
272
2
273
2
274
3
275
0
276
0
277
2
278
44
279
0
280
0
281
0
282
0
283
0
284
8
285
0
286
0
288
0
289
3
290
0
371
-2
372
-2
  0
DIMSTYLE
105
73
330
4
100
AcDbSymbolTableRecord
100
AcDbDimStyleTableRecord
  2
EZDXF
 70
0
 40
1.0
 41
0.175
 42
0.125
 43
3.75
 44
0.375
 45
0.0
 46
0.0
 47
0.0
 48
0.0
 49
2.5
140
0.25
141
2.5
142
0.0
143
0.03937007874
144
100.0
145
0.0
146
0.5
147
0.1
148
0.0
 69
0
 70
0
 71
0
 72
0
 73
0
 74
0
 75
0
 76
0
 77
1
 78
12
 79
3
170
0
171
3
172
1
173
0
174
0
175
0
176
0
177
0
178
0
179
2
271
2
272
2
273
2
274
3
275
0
276
0
277
2
278
46
279
2
280
0
281
0
282
0
283
0
284
8
285
0
286
0
288
1
289
3
290
0
340
4C
342
74
371
-2
372
-2
  0
DIMSTYLE
105
7C
330
4
100
AcDbSymbolTableRecord
100
AcDbDimStyleTableRecord
  2
EZ_M_100_H25_CM
 70
0
 40
1.0
 41
0.25
 42
0.125
 43
3.75
 44
0.375
 45
0.0
 46
0.0
 47
0.0
 48
0.0
 49
2.5
140
0.25
141
2.5
142
0.125
143
0.03937007874
144
100.0
145
0.0
146
0.5
147
0.1
148
0.0
 69
0
 70
0
 71
0
 72
0
 73
0
 74
0
 75
0
 76
0
 77
1
 78
12
 79
3
170
0
171
3
172
1
173
0
174
0
175
0
176
0
177
0
178
0
179
2
271
2
272
2
273
2
274
3
275
0
276
0
277
2
278
46
279
2
280
0
281
0
282
0
283
0
284
8
285
0
286
0
288
1
289
3
290
0
340
4C
371
-2
372
-2
  0
DIMSTYLE
105
7D
330
4
100
AcDbSymbolTableRecord
100
AcDbDimStyleTableRecord
  2
EZ_M_50_H25_CM
 70
0
 40
1.0
 41
0.125
 42
0.0625
 43
3.75
 44
0.1875
 45
0.0
 46
0.0
 47
0.0
 48
0.0
 49
2.5
140
0.125
141
2.5
142
0.0625
143
0.03937007874
144
100.0
145
0.0
146
0.5
147
0.05
148
0.0
 69
0
 70
0
 71
0
 72
0
 73
0
 74
0
 75
0
 76
0
 77
1
 78
12
 79
3
170
0
171
3
172
1
173
0
174
0
175
0
176
0
177
0
178
0
179
2
271
2
272
2
273
2
274
3
275
0
276
0
277
2
278
46
279
2
280
0
281
0
282
0
283
0
284
8
285
0
286
0
288
1
289
3
290
0
340
4C
371
-2
372
-2
  0
DIMSTYLE
105
7E
330
4
100
AcDbSymbolTableRecord
100
AcDbDimStyleTableRecord
  2
EZ_M_25_H25_CM
 70
0
 40
1.0
 41
0.0625
 42
0.03125
 43
3.75
 44
0.09375
 45
0.0
 46
0.0
 47
0.0
 48
0.0
 49
2.5
140
0.0625
141
2.5
142
0.03125
143
0.03937007874
144
100.0
145
0.0
146
0.5
147
0.025
148
0.0
 69
0
 70
0
 71
0
 72
0
 73
0
 74
0
 75
0
 76
0
 77
1
 78
12
 79
3
170
0
171
3
172
1
173
0
174
0
175
0
176
0
177
0
178
0
179
2
271
2
272
2
273
2
274
3
275
0
276
0
277
2
278
46
279
2
280
0
281
0
282
0
283
0
284
8
285
0
286
0
288
1
289
3
290
0
340
4C
371
-2
372
-2
  0
DIMSTYLE
105
7F
330
4
100
AcDbSymbolTableRecord
100
AcDbDimStyleTableRecord
  2
EZ_M_20_H25_CM
 70
0
 40
1.0
 41
0.05
 42
0.025
 43
3.75
 44
0.07500000000000001
 45
0.0
 46
0.0
 47
0.0
 48
0.0
 49
2.5
140
0.05
141
2.5
142
0.025
143
0.03937007874
144
100.0
145
0.0
146
0.5
147
0.020000000000000004
148
0.0
 69
0
 70
0
 71
0
 72
0
 73
0
 74
0
 75
0
 76
0
 77
1
 78
12
 79
3
170
0
171
3
172
1
173
0
174
0
175
0
176
0
177
0
178
0
179
2
271
2
272
2
273
2
274
3
275
0
276
0
277
2
278
46
279
2
280
0
281
0
282
0
283
0
284
8
285
0
286
0
288
1
289
3
290
0
340
4C
371
-2
372
-2
  0
DIMSTYLE
105
80
330
4
100
AcDbSymbolTableRecord
100
AcDbDimStyleTableRecord
  2
EZ_M_10_H25_CM
 70
0
 40
1.0
 41
0.025
 42
0.0125
 43
3.75
 44
0.037500000000000006
 45
0.0
 46
0.0
 47
0.0
 48
0.0
 49
2.5
140
0.025
141
2.5
142
0.0125
143
0.03937007874
144
100.0
145
0.0
146
0.5
147
0.010000000000000002
148
0.0
 69
0
 70
0
 71
0
 72
0
 73
0
 74
0
 75
0
 76
0
 77
1
 78
12
 79
3
170
0
171
3
172
1
173
0
174
0
175
0
176
0
177
0
178
0
179
2
271
2
272
2
273
2
274
3
275
0
276
0
277
2
278
46
279
2
280
0
281
0
282
0
283
0
284
8
285
0
286
0
288
1
289
3
290
0
340
4C
371
-2
372
-2
  0
DIMSTYLE
105
81
330
4
100
AcDbSymbolTableRecord
100
AcDbDimStyleTableRecord
  2
EZ_M_5_H25_CM
 70
0
 40
1.0
 41
0.0125
 42
0.00625
 43
3.75
 44
0.018750000000000003
 45
0.0
 46
0.0
 47
0.0
 48
0.0
 49
2.5
140
0.0125
141
2.5
142
0.00625
143
0.03937007874
144
100.0
145
0.0
146
0.5
147
0.005000000000000001
148
0.0
 69
0
 70
0
 71
0
 72
0
 73
0
 74
0
 75
0
 76
0
 77
1
 78
12
 79
3
170
0
171
3
172
1
173
0
174
0
175
0
176
0
177
0
178
0
179
2
271
2
272
2
273
2
274
3
275
0
276
0
277
2
278
46
279
2
280
0
281
0
282
0
283
0
284
8
285
0
286
0
288
1
289
3
290
0
340
4C
371
-2
372
-2
  0
DIMSTYLE
105
82
330
4
100
AcDbSymbolTableRecord
100
AcDbDimStyleTableRecord
  2
EZ_M_1_H25_CM
 70
0
 40
1.0
 41
0.0025
 42
0.00125
 43
3.75
 44
0.00375
 45
0.0
 46
0.0
 47
0.0
 48
0.0
 49
2.5
140
0.0025
141
2.5
142
0.00125
143
0.03937007874
144
100.0
145
0.0
146
0.5
147
0.001
148
0.0
 69
0
 70
0
 71
0
 72
0
 73
0
 74
0
 75
0
 76
0
 77
1
 78
12
 79
3
170
0
171
3
172
1
173
0
174
0
175
0
176
0
177
0
178
0
179
2
271
2
272
2
273
2
274
3
275
0
276
0
277
2
278
46
279
2
280
0
281
0
282
0
283
0
284
8
285
0
286
0
288
1
289
3
290
0
340
4C
371
-2
372
-2
  0
DIMSTYLE
105
83
330
4
100
AcDbSymbolTableRecord
100
AcDbDimStyleTableRecord
  2
EZ_RADIUS
 70
0
 40
1.0
 41
0.25
 42
0.125
 43
3.75
 44
0.375
 45
0.0
 46
0.0
 47
0.0
 48
0.0
 49
2.5
140
0.25
141
0.0
142
0.0
143
0.03937007874
144
100.0
145
0.0
146
0.5
147
0.1
148
0.0
 69
0
 70
0
 71
0
 72
0
 73
0
 74
0
 75
0
 76
0
 77
1
 78
12
 79
3
170
0
171
3
172
0
173
0
174
0
175
0
176
0
177
0
178
0
179
2
271
2
272
2
273
2
274
3
275
0
276
0
277
2
278
46
279
1
280
0
281
0
282
0
283
0
284
8
285
0
286
0
288
1
289
3
290
0
340
4C
342
84
371
-2
372
-2
  0
DIMSTYLE
105
88
330
4
100
AcDbSymbolTableRecord
100
AcDbDimStyleTableRecord
  2
EZ_RADIUS_INSIDE
 70
0
 40
1.0
 41
0.25
 42
0.125
 43
3.75
 44
0.375
 45
0.0
 46
0.0
 47
0.0
 48
0.0
 49
2.5
140
0.25
141
0.0
142
0.0
143
0.03937007874
144
100.0
145
0.0
146
0.5
147
0.1
148
0.0
 69
0
 70
0
 71
0
 72
0
 73
0
 74
0
 75
0
 76
0
 77
0
 78
12
 79
3
170
0
171
3
172
0
173
0
174
1
175
0
176
0
177
0
178
0
179
2
271
2
272
2
273
2
274
3
275
0
276
0
277
2
278
46
279
0
280
0
281
0
282
0
283
0
284
8
285
0
286
0
288
1
289
0
290
0
340
4C
342
84
371
-2
372
-2
  0
DIMSTYLE
105
89
330
4
100
AcDbSymbolTableRecord
100
AcDbDimStyleTableRecord
  2
EZ_CURVED
 70
0
 40
1.0
 41
0.25
 42
0.125
 43
3.75
 44
0.375
 45
0.0
 46
0.0
 47
0.0
 48
0.0
 49
2.5
140
0.25
141
2.5
142
0.0
143
0.03937007874
144
100.0
145
0.0
146
0.5
147
0.1
148
0.0
 69
0
 70
0
 71
0
 72
0
 73
0
 74
0
 75
0
 76
0
 77
1
 78
12
 79
2
 90
2
170
0
171
3
172
1
173
0
174
0
175
0
176
0
177
0
178
0
179
2
271
2
272
2
273
2
274
3
275
0
276
0
277
2
278
46
279
2
280
0
281
0
282
0
283
0
284
8
285
0
286
0
288
1
289
3
290
0
340
4C
371
-2
372
-2
  0
ENDTAB
  0
TABLE
  2
BLOCK_RECORD
  5
9
330
0
100
AcDbSymbolTable
 70
5
  0
BLOCK_RECORD
  5
17
330
9
100
AcDbSymbolTableRecord
100
AcDbBlockTableRecord
  2
*Model_Space
340
1A
 70
0
280
1
281
0
  0
BLOCK_RECORD
  5
1B
330
9
100
AcDbSymbolTableRecord
100
AcDbBlockTableRecord
  2
*Paper_Space
340
1E
 70
0
280
1
281
0
  0
BLOCK_RECORD
  5
74
330
9
100
AcDbSymbolTableRecord
100
AcDbBlockTableRecord
  2
_ARCHTICK
340
0
 70
0
280
1
281
0
  0
BLOCK_RECORD
  5
78
330
9
100
AcDbSymbolTableRecord
100
AcDbBlockTableRecord
  2
_CLOSEDFILLED
340
0
 70
0
280
1
281
0
  0
BLOCK_RECORD
  5
84
330
9
100
AcDbSymbolTableRecord
100
AcDbBlockTableRecord
  2
_CLOSEDBLANK
340
0
 70
0
280
1
281
0
  0
ENDTAB
  0
ENDSEC
  0
SECTION
  2
BLOCKS
  0
BLOCK
  5
18
330
17
100
AcDbEntity
  8
0
100
AcDbBlockBegin
  2
*Model_Space
 70
0
 10
0.0
 20
0.0
 30
0.0
  3
*Model_Space
  1

  0
ENDBLK
  5
19
330
17
100
AcDbEntity
  8
0
100
AcDbBlockEnd
  0
BLOCK
  5
1C
330
1B
100
AcDbEntity
  8
0
100
AcDbBlockBegin
  2
*Paper_Space
 70
0
 10
0.0
 20
0.0
 30
0.0
  3
*Paper_Space
  1

  0
ENDBLK
  5
1D
330
1B
100
AcDbEntity
  8
0
100
AcDbBlockEnd
  0
BLOCK
  5
75
330
74
100
AcDbEntity
  8
0
100
AcDbBlockBegin
  2
_ARCHTICK
 70
0
 10
0.0
 20
0.0
 30
0.0
  3
_ARCHTICK
  1

  0
LWPOLYLINE
  5
77
330
74
100
AcDbEntity
  8
0
  6
BYBLOCK
 62
0
100
AcDbPolyline
 90
2
 70
0
 43
0.15
 10
-0.5
 20
-0.5
 10
0.5
 20
0.5
  0
ENDBLK
  5
76
330
74
100
AcDbEntity
  8
0
100
AcDbBlockEnd
  0
BLOCK
  5
79
330
78
100
AcDbEntity
  8
0
100
AcDbBlockBegin
  2
_CLOSEDFILLED
 70
0
 10
0.0
 20
0.0
 30
0.0
  3
_CLOSEDFILLED
  1

  0
SOLID
  5
7B
330
78
100
AcDbEntity
  8
0
  6
BYBLOCK
 62
0
100
AcDbTrace
 10
-1.0
 20
0.16439898372402537
 30
0.0
 11
0.0
 21
0.0
 31
0.0
 12
-1.0
 22
-0.16439898372402537
 32
0.0
 13
-1.0
 23
-0.16439898372402537
 33
0.0
  0
ENDBLK
  5
7A
330
78
100
AcDbEntity
  8
0
100
AcDbBlockEnd
  0
BLOCK
  5
85
330
84
100
AcDbEntity
  8
0
100
AcDbBlockBegin
  2
_CLOSEDBLANK
 70
0
 10
0.0
 20
0.0
 30
0.0
  3
_CLOSEDBLANK
  1

  0
LWPOLYLINE
  5
87
330
84
100
AcDbEntity
  8
0
  6
BYBLOCK
 62
0
100
AcDbPolyline
 90
3
 70
1
 10
-1.0
 20
0.16439898372402537
 10
0.0
 20
0.0
 10
-1.0
 20
-0.16439898372402537
  0
ENDBLK
  5
86
330
84
100
AcDbEntity
  8
0
100
AcDbBlockEnd
  0
ENDSEC
  0
SECTION
  2
ENTITIES
  0
LWPOLYLINE
  5
8D
330
17
100
AcDbEntity
  8
HOJA
100
AcDbPolyline
 90
4
 70
1
 10
0.0
 20
0.0
 10
600.0
 20
0.0
 10
600.0
 20
900.0
 10
0.0
 20
900.0
  0
LWPOLYLINE
  5
8E
330
17
100
AcDbEntity
  8
CORTE
100
AcDbPolyline
 90
527
 70
1
 10
57.678174524094175
 20
366.39864988925274
 10
55.26917910338943
 20
370.1968376625946
 10
53.547187254923756
 20
373.40732277781626
 10
53.11724154476474
 20
376.62919604333183
 10
50.84243120484416
 20
382.67336397316376
 10
50.821800923448336
 20
382.84456714211046
 10
50.696909237307864
 20
383.28395646256695
 10
48.907392051581155
 20
389.54701605166747
 10
47.85515918604801
 20
391.9270434344012
 10
46.784033288975934
 20
395.9997734993781
 10
45.86843238463621
 20
401.19454457595566
 10
45.2326201045355
 20
403.1856276721278
 10
43.72969285507793
 20
406.76869680181744
 10
42.676468945059014
 20
409.0451935539427
 10
42.13422979109873
 20
410.4466320786487
 10
40.368859235455375
 20
415.2418739383734
 10
38.396161042777294
 20
419.6985692513408
 10
37.65350660611671
 20
420.89602391758945
 10
36.754229303347984
 20
425.03371114201354
 10
36.12607146161099
 20
428.13427570717795
 10
35.7473004062108
 20
428.96373844406935
 10
33.56500867913087
 20
433.99543256352854
 10
32.86734438041617
 20
438.2391037115226
 10
32.06264014276576
 20
441.26493618989434
 10
30.77690253501669
 20
447.49446989869966
 10
30.445198303947336
 20
448.36876839893694
 10
29.785307493766823
 20
450.8118762105137
 10
28.34545802292223
 20
454.8414948248583
 10
27.852934918008714
 20
456.754127050855
 10
26.227488124403862
 20
461.29191588732465
 10
25.351142577416795
 20
466.01888844472796
 10
24.62095720668026
 20
468.41078854591433
 10
22.81761323153819
 20
473.00870939639617
 10
22.1385569354602
 20
474.3757636468172
 10
21.975590094515837
 20
475.283015092642
 10
20.64687002612891
 20
481.66685377067415
 10
20.158285193323536
 20
484.5458419258771
 10
19.422875229379997
 20
489.3011075495856
 10
18.388379418321847
 20
493.80540102682835
 10
18.03049521185494
 20
496.71536659366257
 10
16.87542194208504
 20
503.06679687343467
 10
16.70615390912235
 20
504.21776552135043
 10
15.841071004621654
 20
510.9471148945281
 10
15.70692141115319
 20
512.1516856970957
 10
15.681088426341603
 20
512.3298847430765
 10
14.782994105479702
 20
520.1873253185308
 10
14.66336419981917
 20
521.5975402061044
 10
14.768923927458445
 20
529.4395574839045
 10
14.843390935915295
 20
530.8632566714559
 10
14.956883899006243
 20
538.9499853708239
 10
15.019217335979192
 20
540.1224983304055
 10
14.818785997917075
 20
548.0231027822247
 10
14.79939461785716
 20
549.3800516590754
 10
14.513594321159644
 20
556.8782980556834
 10
14.51359281010241
 20
558.6390545419108
 10
13.88663841488983
 20
565.302440276369
 10
13.799146414829238
 20
567.8993888390396
 10
13.400126952206392
 20
573.9155129029514
 10
13.112218733120017
 20
577.1620752429922
 10
13.3846743359029
 20
583.1599504934757
 10
13.071568202775325
 20
586.4201737974445
 10
13.000292067099736
 20
591.9117008503686
 10
13.056966490062223
 20
595.689380809049
 10
13.726613156891062
 20
602.1419286642185
 10
13.805131878274324
 20
604.9530329677887
 10
15.296067543853042
 20
613.4938064573557
 10
15.413685083945893
 20
614.2175209859724
 10
15.841335560762673
 20
617.1299398748556
 10
16.773571833488404
 20
623.4787213712739
 10
17.059983082412828
 20
625.0989338130194
 10
18.58737486747259
 20
632.7429604705003
 10
19.77478664742739
 20
637.9695190026441
 10
20.936507752199986
 20
642.0134706690756
 10
22.81981290854742
 20
646.2819251406709
 10
25.959460679469203
 20
651.289412462912
 10
29.794244543859804
 20
656.9398896405041
 10
32.086153081362
 20
660.5488201585886
 10
36.76565685640435
 20
668.1093031225691
 10
38.05543569217866
 20
669.8227734147863
 10
43.749443093966875
 20
674.2039988387551
 10
48.867460638967486
 20
679.0855390613715
 10
50.718290691371294
 20
680.6976605138916
 10
55.19073481391638
 20
685.0270344742362
 10
57.69102736557352
 20
687.2223981187499
 10
59.05006798764566
 20
688.3504322092249
 10
64.67072020093883
 20
692.2505111623118
 10
69.71753261039362
 20
695.0578346361567
 10
71.64773285636534
 20
696.2518001048888
 10
75.24299593793853
 20
697.6227979836844
 10
78.62595357662963
 20
698.5274920490829
 10
79.68238141792563
 20
699.0248218335469
 10
85.60041077335677
 20
700.4568397713756
 10
88.59442942954752
 20
701.5832587393529
 10
92.60431336565898
 20
700.5009932950998
 10
94.71787378982026
 20
700.4345399336789
 10
99.58754409368271
 20
699.1853059690184
 10
100.48578252909238
 20
698.8177154088166
 10
105.74406776406886
 20
697.6246637460881
 10
106.43647657756583
 20
697.4832712147895
 10
106.53972870080588
 20
697.4784863015543
 10
112.9685040985537
 20
696.896830791386
 10
113.52185400902749
 20
696.7709588408165
 10
118.93646366303983
 20
695.5524123107189
 10
120.50203748398712
 20
695.0545265683118
 10
124.33720946096014
 20
693.4315605133474
 10
127.49527925101074
 20
690.7054522967478
 10
128.5822394265217
 20
689.7950673197688
 10
130.44115078053733
 20
688.351595455159
 10
133.12522759478998
 20
686.5687144401504
 10
134.4748709385774
 20
685.210249708336
 10
136.72363015440715
 20
682.0680959003939
 10
139.88814247890514
 20
679.0840705533437
 10
140.78476495284326
 20
678.1986537841108
 10
141.4533828381368
 20
677.172866558612
 10
143.6478718672838
 20
672.7183648713872
 10
145.278935482444
 20
669.8071653063807
 10
146.67362965561392
 20
667.4819586626804
 10
148.42395418467027
 20
664.3227236230937
 10
149.66613038373202
 20
662.2020513482244
 10
150.81078611162798
 20
660.5471987527822
 10
152.63450221563676
 20
656.8775738308918
 10
155.39463941737836
 20
652.3321955898641
 10
155.72153434967368
 20
651.7214921149048
 10
156.00311892597324
 20
651.2860815434292
 10
158.593264859702
 20
646.2709388277417
 10
160.90667953578918
 20
642.0276119426994
 10
161.61422071308266
 20
641.027998693065
 10
162.36561649529585
 20
639.4258921549108
 10
164.72756494430837
 20
635.9240229282327
 10
168.00423357855016
 20
632.7839358689716
 10
168.82767526255748
 20
632.1336415458054
 10
169.31621205691408
 20
631.7223033090636
 10
173.39714224864224
 20
628.9549504715546
 10
176.28302636808098
 20
627.0199032655537
 10
178.05228410213817
 20
625.8602251376287
 10
179.91008414290104
 20
623.5139944823809
 10
181.6689760734796
 20
621.3971752367388
 10
183.25655854714864
 20
619.9983194727611
 10
186.23869579637835
 20
618.2330000075008
 10
190.22495949650965
 20
615.1694817439015
 10
190.68813834277148
 20
614.8976852958353
 10
192.0420162868154
 20
614.2768260904791
 10
196.30691811787574
 20
613.122679139421
 10
197.17271154890454
 20
612.8088535302418
 10
202.3935942900871
 20
611.9486422826822
 10
204.15302979996113
 20
611.1017017153208
 10
207.78202269427766
 20
609.8430199975187
 10
211.12361908508274
 20
608.6928797656446
 10
213.15078808452813
 20
607.7186095608786
 10
218.07767790376943
 20
606.9174746030085
 10
219.35803397722566
 20
606.7137132957864
 10
225.064809776964
 20
605.046889893807
 10
225.08375609660538
 20
605.036857570416
 10
225.14133259077653
 20
605.0162826051619
 10
230.61223727319657
 20
603.1385854711334
 10
232.0192901199507
 20
602.8503547913347
 10
236.90150855273305
 20
602.24734527082
 10
238.98680553582471
 20
601.9123259355351
 10
243.36139988401555
 20
601.5609308094154
 10
245.96660817061047
 20
600.6073419269151
 10
249.27382995907033
 20
600.1649066918671
 10
252.94175151891886
 20
599.7554751458406
 10
255.0987823440746
 20
598.6108533082329
 10
259.91078853659656
 20
597.053846164607
 10
260.7269633245421
 20
596.8454815334271
 10
265.1207014943536
 20
595.757696867397
 10
266.5830573662454
 20
595.366071568058
 10
266.8698407168422
 20
595.3055578304975
 10
273.32984525773077
 20
595.0655349129743
 10
273.8704947505853
 20
594.7661451081531
 10
278.01667349297077
 20
591.9782435843194
 10
280.8495231634847
 20
589.0683595047653
 10
282.1489793321239
 20
588.2532442152365
 10
287.77656810386543
 20
587.6781548914837
 10
288.6558811247471
 20
587.6781548914837
 10
294.74200122029424
 20
588.3695987515798
 10
296.0813189850985
 20
588.2689757277662
 10
301.72530938584623
 20
587.8449240532864
 10
302.5904656333448
 20
587.6483402045224
 10
308.6938182634585
 20
587.2263554063138
 10
309.1834756879259
 20
587.1417160020096
 10
312.2643289266921
 20
586.4976455948845
 10
315.2000105267248
 20
585.8760426032409
 10
315.6720896183399
 20
585.8124844502431
 10
320.87714871962453
 20
584.149202471132
 10
322.63762552711887
 20
583.8240793002033
 10
327.1735562464387
 20
583.2633409413606
 10
329.6128824643631
 20
582.7911440515013
 10
333.1539212889511
 20
581.934319260828
 10
336.5912004665588
 20
580.8223365755975
 10
338.74340065557067
 20
580.0907481775271
 10
343.5717404615709
 20
578.2243196937479
 10
344.0940397085394
 20
577.90339126648
 10
344.87984377920884
 20
577.2184444120335
 10
348.1100235949132
 20
573.9624574262139
 10
350.5609185251392
 20
571.7729425985835
 10
352.17985389475916
 20
570.1122467783898
 10
354.94066515005125
 20
567.961436942096
 10
356.52145908555576
 20
566.6319956548618
 10
357.52172011856055
 20
566.0033107931145
 10
361.07619951169227
 20
563.4240813452602
 10
364.4937697845976
 20
561.0584915954491
 10
365.64086954243794
 20
560.2272665624087
 10
367.8132623986435
 20
558.7009563282882
 10
369.96247203927555
 20
556.6956735531708
 10
371.4689138028964
 20
555.4630675756916
 10
374.2542923898948
 20
553.1339161059946
 10
377.94746205752654
 20
549.434023824851
 10
378.22426365358933
 20
549.135512826846
 10
378.44519345257754
 20
548.882244852336
 10
382.3665013898178
 20
545.3952622047268
 10
385.40859852036715
 20
542.9891082170034
 10
386.743989806693
 20
541.9636306054304
 10
389.80981262442106
 20
540.1844076818729
 10
391.46787215261816
 20
538.9815801323316
 10
392.3734928874462
 20
538.478058149326
 10
396.0614656947298
 20
535.8163389181796
 10
399.34983464648235
 20
533.4430149869413
 10
400.5144187179219
 20
532.4748552841629
 10
403.32722167033603
 20
530.9238365999036
 10
405.2267504148988
 20
529.486156836741
 10
406.307445690499
 20
529.0727209125048
 10
410.1480439700829
 20
526.77823084375
 10
413.27086895483694
 20
526.024523745351
 10
415.66704036441
 20
524.8525318347351
 10
420.2357828332149
 20
523.5956083622286
 10
421.43930269011
 20
523.2690297405147
 10
426.4290356038939
 20
521.6699518519968
 10
426.99612807894505
 20
521.3912271781187
 10
427.2105979092132
 20
521.3652780366979
 10
431.9487855023092
 20
518.6787955730274
 10
434.2019910312308
 20
517.2348384231195
 10
436.4356324954672
 20
515.3519345949203
 10
439.20705482743756
 20
512.3867836705294
 10
440.15716617061867
 20
511.0202414080304
 10
441.18522909439594
 20
509.9565315784648
 10
443.75295401734843
 20
506.5373118053276
 10
446.8806893988874
 20
503.12065345819383
 10
447.36395628508967
 20
502.03936599076087
 10
448.16871018430743
 20
499.9322999250144
 10
449.74087770151186
 20
495.9375754395437
 10
450.69550801761375
 20
493.8536627451026
 10
452.6845941457334
 20
490.58989979259377
 10
454.578695517783
 20
484.57104302758717
 10
454.6103443086315
 20
483.880905537997
 10
455.1314162807105
 20
483.32016437954235
 10
457.57746578857837
 20
478.59137180505286
 10
460.7216555532616
 20
475.3171625915347
 10
459.70042381783037
 20
472.07612473091467
 10
459.23119575715305
 20
465.9980254425077
 10
455.1117660333359
 20
462.77395985865223
 10
450.7999510007928
 20
460.247311762495
 10
448.1510899777843
 20
458.33973007378927
 10
446.88056579212866
 20
456.7354158195085
 10
444.16511048660436
 20
451.42779683529943
 10
442.3399536631348
 20
447.48914313894375
 10
441.1997103292863
 20
443.54813732172624
 10
439.43966593958316
 20
438.22533161123556
 10
435.26637171186417
 20
430.3451088896736
 10
434.6583861036727
 20
428.95443701483646
 10
434.2172054345049
 20
428.42453063490984
 10
428.19492906555774
 20
419.69337859375855
 10
427.2523079367031
 20
418.0842779422219
 10
423.25084409571014
 20
410.424798054401
 10
420.2646509214758
 20
407.98065284784707
 10
414.725387146819
 20
403.0577765769276
 10
413.2911623186885
 20
402.00450216009494
 10
412.2431099413445
 20
401.15266000623706
 10
406.32166657584116
 20
397.0090064292085
 10
400.76498826562715
 20
391.8967789423268
 10
399.3537188699527
 20
390.5949082655602
 10
396.60735103199863
 20
388.2472961250164
 10
392.38189107062567
 20
384.35008032415453
 10
390.20299574616297
 20
382.63324722161724
 10
385.41209149032034
 20
378.56870008713304
 10
379.7491689032429
 20
373.37321407867876
 10
378.44073282758654
 20
372.3732663678784
 10
375.6951472461544
 20
369.7259953855032
 10
371.47141534850493
 20
366.3032848858429
 10
369.2936898082685
 20
364.1143934981501
 10
364.49702100557874
 20
360.2459835632967
 10
357.5924926877583
 20
354.85022090704024
 10
357.5284175450049
 20
354.8012988946184
 10
357.3954384731853
 20
354.6749942972615
 10
350.5547505442114
 20
348.6082770678072
 10
345.9685054996951
 20
345.5863516761169
 10
343.5827701368105
 20
344.01014957446114
 10
340.5174779969093
 20
341.51426929418267
 10
336.61364591107576
 20
338.1319569744978
 10
334.00786997597265
 20
336.3258044586646
 10
329.63902649216584
 20
333.57654637014593
 10
325.05936686424684
 20
330.240990901214
 10
322.6725516590452
 20
328.5057288406065
 10
320.97826211688493
 20
327.0711092020897
 10
315.70706095778223
 20
322.4132411012829
 10
311.14831739325723
 20
317.81545258083634
 10
308.74228581236457
 20
315.19013430147425
 10
303.63766309935954
 20
308.56009683403636
 10
301.7699626546457
 20
306.26522554199664
 10
294.8534052443588
 20
299.29815120596777
 10
294.80370614856724
 20
299.22486558631044
 10
294.0049199233606
 20
298.24025742521826
 10
287.8317839131157
 20
290.4889033601662
 10
287.4870579495748
 20
290.04289311147704
 10
286.0109420006604
 20
287.6208515878393
 10
281.9679092126544
 20
280.78862268153534
 10
280.86932907586765
 20
278.6540832599494
 10
277.50588134196437
 20
271.5284272828385
 10
273.8957399438757
 20
265.7218114570337
 10
271.91890367097926
 20
262.269936043509
 10
269.15777683852275
 20
255.97471449561863
 10
268.1489444745166
 20
253.01825290644047
 10
266.93190641832393
 20
249.6498388666564
 10
265.1770877858894
 20
243.75687928177058
 10
262.8088925203797
 20
238.27746037152656
 10
260.8181423388419
 20
234.50034853904253
 10
260.00212014988574
 20
225.31207825366846
 10
260.00908159661503
 20
225.26275333899775
 10
259.96459261228847
 20
224.83453293029925
 10
259.1545882546377
 20
216.0026132613939
 10
259.2807350832675
 20
215.1136007325622
 10
259.95673884765256
 20
213.38849979425277
 10
262.31871912846486
 20
209.89603241940858
 10
262.6096929049327
 20
206.75628529292544
 10
263.97612350559666
 20
202.85625533550137
 10
266.91841549366904
 20
199.13503300560888
 10
267.5795730436155
 20
198.37262804972397
 10
267.7040699361953
 20
197.49425612764026
 10
269.2793157986555
 20
191.35672673454292
 10
270.2418055959847
 20
188.2310899814497
 10
270.3374748244246
 20
183.47779889476988
 10
270.25150126508356
 20
178.97779886299213
 10
271.8335728447969
 20
176.23570548313
 10
273.0257711816462
 20
169.71414354132412
 10
273.2538086618604
 20
168.84859780072702
 10
273.905435634435
 20
164.83030481192554
 10
274.45362532522586
 20
161.17267623569842
 10
274.4995038672064
 20
160.42732597047006
 10
273.9039891046382
 20
158.6442794744562
 10
272.4354504278019
 20
151.18823946042812
 10
273.0298691623659
 20
150.0658216710949
 10
273.88081492356764
 20
148.8447747456148
 10
277.78883649206455
 20
147.1258909411049
 10
277.96944392669116
 20
141.9416401840831
 10
279.38492065327205
 20
139.9962320392233
 10
280.8572584073554
 20
137.91884849156668
 10
283.29726497880847
 20
135.9460516504355
 10
285.3922562965756
 20
132.6974814098262
 10
286.5764190056259
 20
131.02609845197048
 10
287.82755899541144
 20
129.12096462089949
 10
290.6229447700748
 20
127.16045325526147
 10
292.96216976756386
 20
123.44033804949368
 10
293.96438880230403
 20
122.3307970694218
 10
294.80419259061887
 20
121.21512132903626
 10
297.3489986584441
 20
117.5607312915995
 10
300.0474200180538
 20
114.17274185194947
 10
300.66806521938224
 20
112.66577312046411
 10
301.50255466203
 20
104.88652700353487
 10
301.5708309626875
 20
104.6022105846032
 10
301.78740427536445
 20
103.52346495178108
 10
303.19117646932864
 20
97.49373049194492
 10
303.5584841531693
 20
95.61993867969659
 10
303.46649058938056
 20
88.57768578520609
 10
303.3004599740841
 20
86.3434882728452
 10
301.78802732067356
 20
77.39446084606743
 10
301.7315563478571
 20
77.0768177992777
 10
301.7078748613451
 20
76.9761083397434
 10
301.7891106524023
 20
74.3152818520939
 10
301.8923534473706
 20
67.96342614161449
 10
301.8705328810813
 20
67.81677169235627
 10
301.78420067262755
 20
67.46882336035333
 10
296.3943991375154
 20
58.5241652466716
 10
294.7967197498888
 20
56.93380276283506
 10
289.6010474565403
 20
51.615480415444836
 10
287.8274431400439
 20
49.83439649773345
 10
287.3204587462226
 20
49.26172085001508
 10
280.8615973651263
 20
41.269229674502185
 10
279.942414907423
 20
40.004193986711925
 10
273.8893456943474
 20
32.39982611758069
 10
272.4880406726479
 20
30.738668099822007
 10
266.9017584807175
 20
24.968676857228274
 10
261.11330626292465
 20
23.044459047026976
 10
259.9258535019826
 20
22.385420026301745
 10
258.2034246477956
 20
21.462819416698494
 10
252.94671985599894
 20
18.452844602381447
 10
250.2189352388325
 20
17.83993233052024
 10
245.9725635433017
 20
16.182405986098274
 10
240.90914144650378
 20
14.731825638067221
 10
238.99528693793627
 20
14.060828522593056
 10
232.81862784937857
 20
13.254824402663417
 10
232.0062966813839
 20
13.077820128523854
 10
226.6516230115269
 20
14.369442988876926
 10
225.00736097866115
 20
14.935018404645689
 10
221.42704836511666
 20
16.725302773380918
 10
218.02393547913994
 20
19.587814349918517
 10
217.00270505631693
 20
20.11376114890163
 10
215.6221398691482
 20
21.470980100652923
 10
212.65856479876152
 20
23.61459645364357
 10
211.04400439711026
 20
25.307997945908028
 10
208.51259505413577
 20
27.377151000751383
 10
205.8886035204821
 20
30.740513555971575
 10
204.88736956294497
 20
31.831951307128293
 10
204.06474964219683
 20
32.94901051663419
 10
201.34351429320236
 20
36.39173221222791
 10
198.93348521338294
 20
40.00373006453128
 10
197.94126005507155
 20
41.124496231112516
 10
197.0990760465388
 20
42.20016998477149
 10
193.8789115869174
 20
44.992898645060905
 10
191.72609979997787
 20
49.27649381248284
 10
191.08163226234433
 20
50.56028517343702
 10
190.11752455354917
 20
52.554318442649674
 10
188.02538137458578
 20
55.764559463981186
 10
187.2279844774157
 20
58.54380271620994
 10
185.62357250684727
 20
61.83170942315792
 10
183.14599693695072
 20
67.11334459460477
 10
182.92061418950402
 20
67.48901327585736
 10
182.72283563454948
 20
67.79741900645558
 10
180.52171343884243
 20
73.58504702343635
 10
179.27837560910098
 20
77.05769938121011
 10
177.80619835174548
 20
79.22223717356292
 10
176.17332943171368
 20
83.04495213989094
 10
175.20929705220738
 20
85.02866121039278
 10
174.2965211937767
 20
86.30769684359439
 10
171.7070800981196
 20
89.63383450400124
 10
169.20413279438299
 20
94.70301441072434
 10
168.9334966327424
 20
95.2126728605158
 10
168.6974711951866
 20
95.57447684621138
 10
165.95745180885683
 20
100.53154598888204
 10
164.37584936690132
 20
104.85548131646965
 10
164.0411235253507
 20
107.2703718918624
 10
162.353902679974
 20
114.10591266290749
 10
162.3132968653681
 20
114.17566109308154
 10
162.26349299495996
 20
114.21152080984439
 10
157.03760914545614
 20
116.36414015185437
 10
155.3185770630855
 20
116.8174096750572
 10
150.55050037888077
 20
116.97155361632076
 10
148.36479603764974
 20
116.92489170039653
 10
142.99252612619352
 20
116.17417328443162
 10
141.40159005649912
 20
115.81832540039204
 10
135.07938360911362
 20
114.91739576579675
 10
134.43900759678831
 20
114.70193360202893
 10
132.03146436036445
 20
114.06261813838228
 10
127.47226464555024
 20
112.45475881606808
 10
125.78465644786002
 20
111.82577525812576
 10
120.48825807887465
 20
110.63161040971545
 10
117.63913572538172
 20
110.32854361165892
 10
114.44354866505932
 20
114.08202784187415
 10
113.86604563009723
 20
114.60546309222264
 10
113.47149866468817
 20
114.7842049828314
 10
108.945932593414
 20
117.30907511118949
 10
106.49983157308998
 20
118.11756805772757
 10
103.97003391920771
 20
119.97136480773543
 10
99.52742669943996
 20
121.82145636859423
 10
98.78816245610165
 20
122.34338056116303
 10
96.02674213829164
 20
123.3249671137064
 10
93.40382331030082
 20
124.43419907761654
 10
92.56865199937238
 20
124.67354000279056
 10
88.012693745467
 20
126.53103478290177
 10
85.59329828127602
 20
127.18748403885229
 10
82.7603342014761
 20
128.84048407334876
 10
78.61178430420273
 20
131.44402136128565
 10
78.02083454012109
 20
131.81927811104788
 10
77.17548456484428
 20
132.61950386295348
 10
76.38609640937648
 20
138.98407719661054
 10
75.17976959711473
 20
141.91925366189162
 10
78.58249002425532
 20
148.66949728014788
 10
79.44109010550915
 20
151.19742534872103
 10
79.83642241798339
 20
152.85916392235868
 10
79.93624437800281
 20
160.42767354101125
 10
79.57702640697039
 20
161.7405052231743
 10
78.58029290679269
 20
164.83333298407433
 10
77.52773173583432
 20
168.24420991023908
 10
75.6279433422826
 20
169.64048790863262
 10
73.3146101726968
 20
171.89774601719546
 10
71.61839630253098
 20
174.52471962272193
 10
70.06751114440567
 20
176.8549967146464
 10
68.62945250791927
 20
178.930508543845
 10
68.0262523963504
 20
183.42449268045357
 10
64.66811158416931
 20
187.04316034340218
 10
63.981321634167216
 20
187.2830831944616
 10
63.824152899687306
 20
188.24152584008834
 10
64.6478907274618
 20
189.1960804682558
 10
68.95844367677114
 20
197.50939298444882
 10
71.61007353365335
 20
205.1092926505853
 10
72.15437720487648
 20
206.76975880089276
 10
73.47653903171954
 20
209.2448115826237
 10
74.1541538546885
 20
216.03741606438507
 10
78.58860550357213
 20
219.96489575356463
 10
80.6812671902369
 20
225.2907084142239
 10
83.9372439553465
 20
232.40547208113776
 10
85.02488366151488
 20
234.5361872895096
 10
84.22236772615315
 20
241.99891827999772
 10
83.37989604603877
 20
243.76018612617372
 10
82.56274705017745
 20
249.07051694528036
 10
82.42204736330177
 20
253.03744694962325
 10
81.90893716485539
 20
257.4588113905352
 10
81.14980990259164
 20
262.2953116350395
 10
80.93250915814883
 20
265.43561620188893
 10
81.67341774856754
 20
271.5742898932167
 10
82.42256582883601
 20
276.68257781406146
 10
82.93555879356086
 20
280.8233140169573
 10
82.1467904827723
 20
285.54715175323645
 10
80.68095485784261
 20
290.0562690939755
 10
79.81760631137627
 20
291.70415880197925
 10
78.57891753073795
 20
298.0783846831182
 10
78.30986888157895
 20
298.97197107821285
 10
78.24907814762241
 20
299.3380840045038
 10
77.85501668826578
 20
307.6446562979045
 10
77.82368694672186
 20
308.60595539076894
 10
77.94130447123666
 20
317.02462466495626
 10
77.96788371371235
 20
317.86030947060135
 10
76.5409496840341
 20
324.4029870570621
 10
75.83248872407216
 20
327.1182117280737
 10
75.83249354719669
 20
332.73834779924573
 10
75.42315940682124
 20
336.36946244853425
 10
74.06915261896461
 20
339.6356934412879
 10
72.97896118703375
 20
345.6258940819148
 10
72.45507925511674
 20
346.7399001382669
 10
71.61399495813703
 20
348.9866901839637
 10
69.51500842674068
 20
352.09505535509743
 10
68.90647741705106
 20
354.87294469820336
 10
66.53766882544164
 20
357.3482847377445
 10
64.6672226086514
 20
358.8073024698424
 10
61.95405035601971
 20
360.5213469149285
 10
59.2787282154477
 20
364.1274984193542
 10
58.54080567399478
 20
365.27279575762805
 10
57.678174524094175
 20
366.39864988925274
  0
LWPOLYLINE
  5
8F
330
17
100
AcDbEntity
  8
CORTE
100
AcDbPolyline
 90
477
 70
1
 10
29.72173393770754
 20
494.4665377347246
 10
30.872236687615214
 20
487.71703460574827
 10
31.264790063386727
 20
486.3387601575637
 10
32.69009311758737
 20
480.5803264149363
 10
33.17374225249114
 20
477.05711681213734
 10
34.145773244225666
 20
474.578764581051
 10
36.250535726171165
 20
467.68410221817476
 10
36.28828276889408
 20
467.48049619120593
 10
36.40787030795536
 20
467.14664152314253
 10
38.39338740239191
 20
461.09308674189333
 10
38.99537802439909
 20
458.4481281340177
 10
40.07250697195059
 20
454.460283319027
 10
41.9711620073067
 20
449.45585137515855
 10
42.3718441971248
 20
447.51450409485415
 10
43.51065750711973
 20
443.2323614902043
 10
43.9766859045767
 20
441.5513343808625
 10
44.19629892412672
 20
441.09477570636045
 10
46.552334169464075
 20
435.4669009277022
 10
47.87982655692895
 20
430.65096391275574
 10
48.259554657599665
 20
428.9037874788978
 10
49.92706099734346
 20
426.2151032821075
 10
50.82561530216549
 20
424.2127295715122
 10
51.77941570740336
 20
422.69386105697004
 10
53.55796834420653
 20
417.2457777260611
 10
55.28856095650053
 20
413.16401056881386
 10
56.0777817541034
 20
411.28246062857534
 10
57.38338183745941
 20
407.19389811147494
 10
58.125601369063816
 20
404.7287573328272
 10
58.67454836642423
 20
403.4727885999441
 10
60.337070892437396
 20
396.9801266655295
 10
60.85000342520789
 20
393.39560991749113
 10
61.87948597225113
 20
389.77372241845296
 10
62.53317905226345
 20
384.3489623451642
 10
63.17806115594658
 20
382.6355114867765
 10
64.06014846183234
 20
376.025436210919
 10
66.71858278379841
 20
372.5558081255176
 10
69.29071474735701
 20
368.5637144760217
 10
73.3708395336646
 20
365.3810651386816
 10
76.60024155136102
 20
362.00642856125114
 10
78.12443618863904
 20
360.52173317461757
 10
79.67769974636826
 20
357.92614425352303
 10
81.53940904084106
 20
352.9529567551681
 10
83.97298556309374
 20
347.7780903984212
 10
84.26125876846095
 20
346.1941352425756
 10
85.13804612979834
 20
344.0790867218893
 10
86.50312644992141
 20
340.03847585314634
 10
87.24657014974855
 20
337.3173700579641
 10
87.24656322519309
 20
329.2485459902541
 10
87.20275884507146
 20
327.6939344284133
 10
88.2391838969163
 20
322.3298542270104
 10
88.5014912084921
 20
318.04292134286106
 10
88.43913908887976
 20
312.04324631374493
 10
88.08395860889755
 20
308.37768457522
 10
88.23306675501544
 20
303.50456449868125
 10
88.67148306116155
 20
300.5084973512294
 10
89.22288704643074
 20
297.6710020830037
 10
91.78437385822122
 20
292.78184373367367
 10
92.19797665063447
 20
291.50954314844284
 10
92.45647316560962
 20
289.96143887569997
 10
93.58920455042949
 20
282.9106738423052
 10
93.67503942425105
 20
280.51257239200413
 10
92.49995768467556
 20
271.2150900913789
 10
92.5327495424167
 20
270.74120114597326
 10
92.99734505522588
 20
263.229197316894
 10
93.01134931509114
 20
262.76937696780215
 10
93.77565386824199
 20
255.4500987486981
 10
93.94825789467063
 20
253.82300730968336
 10
94.76586925258698
 20
247.04394618476636
 10
94.68957239506608
 20
244.04166544156578
 10
95.22911209181052
 20
238.6703524943473
 10
95.53931650678919
 20
233.60058704576886
 10
92.07248339530656
 20
223.24578604447697
 10
91.75507801231106
 20
222.5522109825115
 10
91.53483077742385
 20
221.99168296237667
 10
87.83213589588104
 20
213.06702368534297
 10
84.77602861155219
 20
207.2076499508603
 10
83.06764287833789
 20
204.0095959945179
 10
81.70445818295343
 20
199.8510312760095
 10
80.31498873689634
 20
195.93771170503578
 10
79.51112835034701
 20
188.28932035569187
 10
79.32484421084519
 20
187.58680591605525
 10
79.70681462415905
 20
182.75933786563246
 10
79.8017990618232
 20
182.59846589660583
 10
81.49346349652137
 20
179.9785381283432
 10
83.52018651279172
 20
178.00094275970605
 10
86.50752450280606
 20
175.00953167222315
 10
87.19063119677048
 20
171.41250452282247
 10
88.65154297272943
 20
166.87934847247743
 10
90.17195846791356
 20
161.32269542866788
 10
90.10638654129434
 20
156.35102629659286
 10
88.41881580692984
 20
149.25749688715632
 10
85.66755119270829
 20
141.1571027756081
 10
86.13925684677338
 20
137.03406971142203
 10
87.4335829925044
 20
136.2217795216916
 10
88.32068224315549
 20
135.70416791398202
 10
91.51133868662578
 20
134.83845411096354
 10
94.86091249033939
 20
133.47281037385028
 10
97.0861458949571
 20
132.8351095634648
 10
101.73613748517073
 20
130.86862884407128
 10
102.42681783830176
 20
130.7026703046622
 10
104.49995167560724
 20
129.72793078915493
 10
108.80532249053886
 20
127.93499033391345
 10
109.74592911333616
 20
127.2457282904843
 10
113.47993496895538
 20
126.01155301664221
 10
116.62655787420795
 20
124.25601259284713
 10
119.5594520394709
 20
122.92732147616334
 10
122.01251878717085
 20
120.70391912246305
 10
122.98378751353539
 20
120.92290849799383
 10
126.73599418918798
 20
121.59887870543798
 10
126.8790913651469
 20
121.60271264119183
 10
132.42246237075233
 20
123.07473721420638
 10
135.1349853572167
 20
123.98739799581836
 10
140.14190547577914
 20
124.70089616301766
 10
143.54452803866366
 20
125.46196762418595
 10
147.80377676758258
 20
126.05715299492749
 10
152.22808565261312
 20
126.15160617659694
 10
156.33692352399066
 20
126.01877432311449
 10
160.67387153058849
 20
124.87522012464115
 10
165.68802163900682
 20
122.8098170621247
 10
168.80324361959651
 20
120.56679906049294
 10
171.01994724020642
 20
116.75917694529244
 10
172.51429400312804
 20
110.70503871435403
 10
173.08917286286487
 20
106.55755630326121
 10
173.6123540723038
 20
105.12723370498134
 10
175.56029396299573
 20
101.60314450615942
 10
176.26629470419516
 20
99.77560516658787
 10
176.7532447323954
 20
99.00491301257216
 10
178.79532640382104
 20
94.86911704067006
 10
181.9269339604216
 20
90.8465664412006
 10
182.4351525952809
 20
90.03174629321393
 10
182.80647822339324
 20
89.32162394628631
 10
185.06260979013405
 20
84.03978668404125
 10
187.635451868651
 20
80.25694471655243
 10
188.4899002045172
 20
77.87046378018658
 10
189.79335721792881
 20
74.44315549877274
 10
190.76867117613892
 20
70.99199622937249
 10
190.97235780786446
 20
70.32277217750516
 10
192.92381301586897
 20
66.16270756138147
 10
195.41228367958183
 20
61.06310749895738
 10
195.64028462400051
 20
60.26843412046037
 10
196.22548542842628
 20
59.37048619463303
 10
198.35243960280923
 20
54.971374614963224
 10
199.63402642474284
 20
52.41842973350276
 10
200.5025388369561
 20
50.69029186544958
 10
202.19493795375433
 20
49.22253716614841
 10
204.157664931329
 20
46.715657584032215
 10
206.30849934920275
 20
44.28618638459875
 10
207.9732544005767
 20
41.79115770609724
 10
209.63044966625193
 20
39.694587081625286
 10
211.23049999158548
 20
37.52183280409554
 10
213.29931593367155
 20
35.266631806975965
 10
214.56283589987402
 20
33.64708552125285
 10
215.81048418055548
 20
32.627268138296586
 10
218.1962250157917
 20
30.125028465867217
 10
222.2204962227288
 20
27.214188226232636
 10
222.38047363666874
 20
27.0899063983602
 10
222.60416493634784
 20
26.91642816696867
 10
226.23642515498727
 20
23.861170444635718
 10
227.72300692026124
 20
23.1178263893853
 10
229.64020425166382
 20
22.458369650650184
 10
232.08583392026503
 20
21.868449259104636
 10
233.06723124710788
 20
22.08229248994985
 10
237.36695711671814
 20
22.643371985480826
 10
240.5603355352323
 20
23.762969999775578
 10
243.7311242659464
 20
24.67134456002441
 10
250.13868112824775
 20
27.172466709511355
 10
250.38339843856897
 20
27.22745281130574
 10
251.0106934949515
 20
27.586640248234744
 10
256.5746153440939
 20
30.566895529796057
 10
260.9181295503122
 20
32.97755593088914
 10
263.0657806838924
 20
33.69148573558368
 10
264.7542285779193
 20
35.435459496197836
 10
268.4746166858006
 20
39.84574308105539
 10
271.97510811062057
 20
44.24335090281511
 10
275.3042362880194
 20
48.825102782807335
 10
279.3115082730087
 20
53.78388484796278
 10
282.7223666222162
 20
57.63669676527934
 10
288.00677578394084
 20
62.94339120947507
 10
288.87296962256437
 20
64.281077661587
 10
292.1293902299865
 20
69.66487511836067
 10
291.9936904788526
 20
74.10963385690957
 10
293.02411310935213
 20
78.4916774485323
 10
294.56646821175923
 20
87.16725623749744
 10
294.6540186482855
 20
94.94021999173174
 10
293.37824231305626
 20
101.2948263514786
 10
292.8028194007386
 20
103.69100453081546
 10
292.2498475534385
 20
108.84589790158361
 10
291.53210930231376
 20
110.588615156983
 10
290.5569153133906
 20
111.81301509152809
 10
289.1337242368829
 20
113.85674461462077
 10
287.3360434291724
 20
116.24495587780666
 10
284.66735959769176
 20
119.1994139066851
 10
283.98117528936973
 20
120.2906662155001
 10
282.71166931005405
 20
121.18101949831134
 10
279.7487598754292
 20
125.69269608797049
 10
277.5647162875389
 20
128.77535795877247
 10
276.9310540230056
 20
129.75793786624217
 10
275.7048667223878
 20
130.7493361934412
 10
272.847192231731
 20
134.7813498771102
 10
269.3730559975718
 20
139.55614609902477
 10
269.3450076688341
 20
140.36126007338908
 10
269.2622911873027
 20
140.39764165879706
 10
266.0186649970228
 20
145.0520156126131
 10
263.34231642996974
 20
150.10566057271126
 10
264.7644931440111
 20
157.3263124044738
 10
264.26772560693144
 20
158.6420007265101
 10
263.47778057768573
 20
163.51323949677726
 10
262.24542272769395
 20
168.19081305595955
 10
261.99300651900944
 20
169.57157990420365
 10
261.02066786684463
 20
171.2568660918032
 10
258.7802787921494
 20
174.4303860414161
 10
258.2377963333472
 20
178.4434174495259
 10
258.19469622845963
 20
181.47230567511406
 10
255.50387074775813
 20
182.78790842919398
 10
253.3809566763673
 20
185.83969038945406
 10
253.01037116191765
 20
188.69756353408366
 10
252.35282312304707
 20
195.13197871822422
 10
249.8946563326333
 20
200.37819946638456
 10
249.24441713737588
 20
204.96723014103281
 10
248.19426774604017
 20
207.64711714137502
 10
247.03340720396318
 20
215.82821513126555
 10
247.28291103193237
 20
218.54869156437553
 10
248.60181540441113
 20
226.17221593082195
 10
248.93950443635504
 20
229.82004215941242
 10
249.60060647185787
 20
235.93168425334443
 10
252.19203108652005
 20
244.29957854712802
 10
252.5172368198962
 20
245.55967499858843
 10
253.25093234170686
 20
248.2475316910386
 10
255.5997215780485
 20
255.52841480948928
 10
259.0089844453689
 20
263.14309170446086
 10
260.06939703519106
 20
265.3096812735407
 10
260.7085992582088
 20
266.6575016923448
 10
265.54739364035436
 20
275.23628825667083
 10
267.91578007547173
 20
278.6762130152806
 10
270.76954971632813
 20
283.95958667532204
 10
274.70218446594936
 20
292.22882798108003
 10
275.79192258477474
 20
294.01689278427375
 10
282.3243651835121
 20
302.4686389715598
 10
283.3786977920781
 20
303.79252124756295
 10
289.68426961324303
 20
310.9614736964477
 10
291.9400171731538
 20
313.2285540569392
 10
296.2734536559924
 20
318.6309984979266
 10
299.13707904332273
 20
322.3349134275277
 10
303.7025943449687
 20
327.30698246935435
 10
308.62150568632205
 20
332.1475652364593
 10
311.10928459016054
 20
334.4321210559074
 10
315.32958393742615
 20
337.9072323257815
 10
318.34679779187377
 20
340.4620224850114
 10
320.4537252090304
 20
341.99380053408595
 10
325.48365561454875
 20
345.6346910843263
 10
331.92470725835483
 20
350.4842551579645
 10
332.30392069175014
 20
350.7471009719652
 10
339.1887832913935
 20
357.56911030583296
 10
344.2708435313791
 20
360.81432362969144
 10
346.555972584973
 20
362.15842017700834
 10
349.09409068783884
 20
364.2090342251622
 10
353.2005229467193
 20
367.57977049865303
 10
355.8922270391672
 20
369.60290221652485
 10
359.7438475022525
 20
372.8079914062373
 10
365.223453593361
 20
378.4276417292135
 10
366.9997181467236
 20
380.0254414365313
 10
369.52198887943314
 20
381.94714398594624
 10
374.04771117415794
 20
385.1954625277499
 10
377.15984358413584
 20
387.9875767620538
 10
381.06730655088177
 20
391.08318939036917
 10
386.56460712786225
 20
395.42154402404094
 10
387.8359616105165
 20
396.4232917612426
 10
388.5388365167794
 20
397.07156560971316
 10
394.5547616847027
 20
402.48330218953333
 10
398.1178784077199
 20
405.99638601012157
 10
401.3582650154683
 20
409.6037570732069
 10
407.81349827703184
 20
415.46574743403744
 10
408.2585477039195
 20
415.9192612725883
 10
410.7047999463996
 20
418.5043438392436
 10
414.7032378468914
 20
422.2863819567583
 10
415.33400422271893
 20
423.3992055651456
 10
421.49753837744606
 20
432.43066447344063
 10
421.52646911066745
 20
432.47165239999276
 10
421.8749962727868
 20
433.2261219420179
 10
425.56432136543185
 20
440.6810799994978
 10
427.51083540523655
 20
448.23023681283166
 10
428.3166774171925
 20
450.65625993933554
 10
434.29157112888083
 20
459.2023848917297
 10
434.83286760346823
 20
459.9709411305762
 10
435.03069664380314
 20
460.53855233762715
 10
436.9715251909913
 20
462.75877688628
 10
442.9102877429366
 20
470.25776157499376
 10
443.00357670960125
 20
470.47317324452297
 10
444.5338437284897
 20
473.92772505074754
 10
443.3630434325562
 20
475.18765832184954
 10
442.98944778256896
 20
483.33433176776407
 10
442.5745656679085
 20
484.0150850324635
 10
439.48032476419144
 20
487.2546477288638
 10
438.36584757694504
 20
491.74052350264947
 10
437.28615585758575
 20
494.56745206496
 10
435.25008560044694
 20
499.1230657738961
 10
431.81122751937005
 20
502.68116232491866
 10
429.4233706081643
 20
506.1156096761497
 10
428.9942562990375
 20
506.34489279200443
 10
428.36310215109756
 20
507.2204203686256
 10
425.5679676317484
 20
509.0116703999088
 10
424.9777815913592
 20
509.34629717790267
 10
421.36155591456986
 20
509.78383168510527
 10
417.39296622602683
 20
511.73438457614384
 10
415.4693912786704
 20
512.5079072905769
 10
410.69222520876497
 20
514.637949519341
 10
410.6703416912544
 20
514.6455685081442
 10
409.79909038849814
 20
514.9455587516463
 10
404.4673295442292
 20
516.232401919262
 10
403.23886547790903
 20
516.9663236665529
 10
398.4146576023634
 20
518.8118955745344
 10
395.300752408755
 20
521.1686898552593
 10
392.8491652080836
 20
522.7893323915891
 10
390.0956959135649
 20
525.5872290981956
 10
389.0861471126293
 20
526.3158536425117
 10
388.6113938573692
 20
526.6584971313896
 10
384.5664058802006
 20
528.907496396947
 10
381.2381495971333
 20
531.3219563612151
 10
379.2387314436619
 20
532.8364908239523
 10
377.144111862272
 20
534.9491885677603
 10
375.19909613688424
 20
536.4876033990377
 10
373.46192790711916
 20
538.0323623340973
 10
370.6295325004064
 20
541.2793441851477
 10
367.5689496498792
 20
544.5799669206417
 10
367.22962717952646
 20
544.9199070538771
 10
367.00719200906633
 20
545.1059087724975
 10
363.0414963497974
 20
548.3507339575922
 10
359.7918215362147
 20
551.382786673722
 10
358.837475700597
 20
552.2280209957944
 10
357.7576394329558
 20
553.2277778894072
 10
355.05850168126744
 20
555.0960796619684
 10
353.599328107118
 20
556.1548967307208
 10
350.3191720530747
 20
558.2165430283408
 10
346.3327311070543
 20
561.5691236928587
 10
345.67635662196744
 20
562.0117873513186
 10
344.81764811251674
 20
562.8760117253373
 10
341.2002751911971
 20
566.1076033984923
 10
339.0760998315143
 20
568.2487496260496
 10
338.3623404260361
 20
568.7410094138786
 10
334.02957987472246
 20
570.6680363339674
 10
329.0559815241468
 20
572.2770284941494
 10
328.1237773054788
 20
572.5025938505578
 10
323.81311744928803
 20
573.337037461411
 10
321.57164397349607
 20
573.614131675582
 10
316.99612927503176
 20
574.4591333484609
 10
314.1278696522263
 20
575.3756886553638
 10
311.55844762152515
 20
575.721621617537
 10
307.361785976942
 20
576.6102252839428
 10
305.8451110730307
 20
576.8795693063616
 10
301.4297172466813
 20
577.1728523134407
 10
299.69333253553964
 20
577.2003105388771
 10
294.3347665524525
 20
577.5611101303666
 10
293.46933639346616
 20
577.6051660610538
 10
287.14819524639665
 20
577.0279478241182
 10
285.1285891202126
 20
577.5841970893944
 10
280.8992368519366
 20
577.8602539575095
 10
277.2439207327502
 20
577.5187383768316
 10
272.70495281272133
 20
581.3513477049896
 10
270.9403888873858
 20
583.1638958705821
 10
270.21518715919024
 20
583.651523425674
 10
268.6710953328484
 20
584.5065789776063
 10
266.01101939009027
 20
584.6054146958431
 10
262.5328355398733
 20
585.3393412095757
 10
257.9849342871353
 20
586.5572890591393
 10
256.1973019816428
 20
587.1017094724921
 10
251.32564742725435
 20
588.8520649243319
 10
245.61581800512158
 20
589.4894243252097
 10
244.27952018456722
 20
589.668192269467
 10
239.429578784471
 20
591.4434246851274
 10
238.15007324491012
 20
591.5462026742753
 10
233.6265542105873
 20
592.272941528412
 10
230.8861064257926
 20
592.6114180073846
 10
226.59712278813117
 20
593.4900038205474
 10
223.38173538599563
 20
594.5935733506808
 10
221.16079548835387
 20
594.929104906711
 10
216.68550370008143
 20
596.1644047234172
 10
215.67139474295004
 20
596.2980458326119
 10
209.68175189081057
 20
597.328336313647
 10
208.70455126427805
 20
597.5679563884037
 10
206.15575932124648
 20
598.3658155639209
 10
202.7256855211033
 20
599.5464087339092
 10
201.47924843276974
 20
599.9787235995391
 10
197.69903600263183
 20
601.7984068117735
 10
195.3959265686144
 20
602.1778753303588
 10
191.93167236914928
 20
603.4335694088013
 10
188.81113657142623
 20
604.2780336003057
 10
185.8680456072591
 20
604.673851061661
 10
180.23636254278517
 20
607.7184720063174
 10
179.44125908595538
 20
608.0466911950443
 10
178.35711906203392
 20
608.9624518036467
 10
173.90699283376648
 20
612.8835613069864
 10
171.19416853945154
 20
616.1484342513759
 10
170.61495902799152
 20
616.6897991479136
 10
169.12162929700753
 20
617.8488780479665
 10
166.7097232781673
 20
619.4661127704057
 10
165.0861551546011
 20
620.5670837849921
 10
161.83870099451065
 20
623.3013754157182
 10
157.47515444750366
 20
626.7473869590995
 10
156.2108049999024
 20
628.2280018029933
 10
155.4642774084257
 20
629.5526219800558
 10
153.1995526192336
 20
634.3814092553807
 10
150.4134982932619
 20
638.317543162239
 10
149.77495905898218
 20
639.4887688521158
 10
149.17400772758856
 20
640.6523596355537
 10
146.97462333256817
 20
644.9194600723526
 10
145.3630410849064
 20
647.7269466394428
 10
143.9302507884504
 20
650.0864575483056
 10
142.18186545522963
 20
653.6045042320793
 10
140.7797587738387
 20
656.3168367609219
 10
140.32298418391883
 20
657.7571436677349
 10
138.45934223559357
 20
661.1209101274144
 10
135.46699144917602
 20
666.0929639544956
 10
132.73048219227007
 20
670.2912905322564
 10
129.65795441488285
 20
673.3254188271721
 10
129.5327096790934
 20
673.4388490366596
 10
128.9298572619607
 20
673.9577324021889
 10
125.7044122485222
 20
677.2042592089401
 10
123.26771647269493
 20
678.8228189368165
 10
121.49121518740208
 20
680.3393433506285
 10
117.79942439878141
 20
682.7424841345946
 10
117.49994346942026
 20
683.0010019877523
 10
113.66464331180669
 20
684.2207089353128
 10
111.97708107559924
 20
684.6004912721114
 10
108.4380736036594
 20
685.4055185525726
 10
106.06209432062451
 20
685.6204897339435
 10
102.02489420479037
 20
685.8075817923009
 10
99.11761937861388
 20
686.4012584452294
 10
95.59798394605673
 20
686.1414898904263
 10
90.85793132965773
 20
687.3831847535334
 10
88.43762913361525
 20
688.0021160499623
 10
84.45189568874571
 20
689.3488245966405
 10
80.77980713664624
 20
688.33789542875
 10
78.35720540090983
 20
687.4386256993253
 10
74.76395921382823
 20
686.0683969319984
 10
69.01001941897789
 20
682.5091779138907
 10
68.45858068718849
 20
682.0138936256681
 10
62.23657734735934
 20
676.8494917936791
 10
58.82049984226296
 20
673.8500298480922
 10
55.385127363045285
 20
670.7700068243662
 10
48.965804199193144
 20
665.0446580285557
 10
42.555244068059665
 20
656.528233323405
 10
36.70626521043914
 20
647.2729695829553
 10
35.50798198241864
 20
645.7219540541219
 10
31.285128191531157
 20
639.2349749066502
 10
29.63609077536171
 20
632.1085280389966
 10
29.448203221927315
 20
631.2815147719361
 10
29.404796322661696
 20
631.0642794179485
 10
27.866238538079642
 20
622.3607439447874
 10
27.429774326380084
 20
619.3883044547588
 10
26.49053315638048
 20
613.089908369207
 10
25.491280549420026
 20
607.4613304329059
 10
24.963041644982468
 20
604.000245675596
 10
24.052381246367986
 20
596.5955176033476
 10
23.93851584633103
 20
595.4073050561419
 10
24.055486411226184
 20
587.8401727587852
 10
23.922787283825983
 20
585.9789247519816
 10
23.441414822462093
 20
577.6200926990891
 10
23.427701633544075
 20
577.3132338931646
 10
24.083582472582975
 20
569.8585605530507
 10
24.08358110201334
 20
568.2615072325661
 10
24.74008083734043
 20
561.935629499762
 10
25.03377638068264
 20
559.144055187126
 10
25.268955554820195
 20
553.2765663809059
 10
25.749970431541215
 20
549.9884317173023
 10
25.912930495607952
 20
544.5238218119134
 10
26.170053024632125
 20
540.2746074083034
 10
26.083909363324892
 20
534.9689107674412
 10
25.900138493968598
 20
530.6638156003828
 10
25.82851148468785
 20
525.6282774770561
 10
25.93932746074347
 20
522.1370643312143
 10
26.436723005073645
 20
518.1238192260585
 10
27.141941488951034
 20
513.2799180606344
 10
27.521354568848892
 20
510.32852096551096
 10
28.422265400594142
 20
504.2026145923046
 10
28.6895405151231
 20
502.7329422348207
 10
29.64582083885739
 20
494.95740264959977
 10
29.72173393770754
 20
494.4665377347246
  0
LWPOLYLINE
  5
90
330
17
100
AcDbEntity
  8
GRABADO
100
AcDbPolyline
 90
509
 70
1
 10
37.80941916119559
 20
438.2241048521887
 10
37.39789800871176
 20
439.0796258604273
 10
36.755251451625554
 20
441.3977384262748
 10
35.55624467814209
 20
445.906219265878
 10
35.22843947399588
 20
447.49446989869966
 10
33.40493163668066
 20
452.30083055981004
 10
32.2010196449005
 20
456.7580630991811
 10
31.640343336084925
 20
459.22149952995005
 10
29.785989421570548
 20
464.87515672423524
 10
29.50828179261316
 20
465.65043807053553
 10
29.43997383423425
 20
466.01888844472796
 10
27.530006004964434
 20
472.2754534584665
 10
26.352291460877495
 20
475.27822959702644
 10
25.805737611991162
 20
479.2596773654086
 10
24.49913092900033
 20
484.5385603296327
 10
24.0357201361237
 20
486.165618697376
 10
22.812208867367872
 20
493.34343129927356
 10
22.753142830236357
 20
493.72536071234936
 10
22.734760064889542
 20
493.80540102682926
 10
21.766469076304475
 20
501.67859963281444
 10
21.51401105422474
 20
503.06679687343467
 10
20.58659590491652
 20
509.37292415436605
 10
20.20653755940816
 20
512.3293406733028
 10
19.499028172984936
 20
517.1889772537311
 10
18.953027048026797
 20
521.5943973808821
 10
18.82693153709988
 20
525.5669861812448
 10
18.902262263230796
 20
530.8629038399508
 10
19.08633341204245
 20
535.1750334822559
 10
19.166616959404337
 20
540.1197983214847
 10
18.919236182130817
 20
544.2080202519242
 10
18.765138371738885
 20
549.3754483938396
 10
18.289331211809895
 20
552.6279840044172
 10
18.048473611069767
 20
558.6371439626428
 10
17.77798536174805
 20
561.2081330899669
 10
17.083580791128952
 20
567.899252940379
 10
17.083582208823373
 20
569.5512184182558
 10
16.413960087234045
 20
577.1620737453868
 10
16.450404586505783
 20
577.9775890566575
 10
16.937112870449937
 20
586.4290754435488
 10
17.051633226244803
 20
588.0353466236038
 10
16.933341543421648
 20
595.6879455009457
 10
17.093261768631464
 20
597.3567511090114
 10
18.027812467849344
 20
604.9557351078383
 10
18.58421585903693
 20
608.6013569656338
 10
19.581375390777794
 20
614.2181450532835
 10
20.505177319517315
 20
620.413008138129
 10
20.955337571421524
 20
623.4787213712739
 10
22.52522702284523
 20
632.3594983341736
 10
22.601848539638695
 20
632.7429604705003
 10
22.813136410645257
 20
633.6729734984915
 10
24.74407432045382
 20
642.0176758588268
 10
29.795736491049865
 20
649.7778373002297
 10
30.965142913300724
 20
651.291475710595
 10
36.76510893713248
 20
660.4691828869977
 10
36.823282141557456
 20
660.552939702342
 10
43.73928979283414
 20
669.740851088789
 10
43.80512600311408
 20
669.8215539171551
 10
50.71904425834373
 20
675.9880285666659
 10
54.17465824658052
 20
679.0861993499698
 10
57.69102736557352
 20
682.173721615879
 10
63.88272154192464
 20
687.3129661647804
 10
64.66378463470255
 20
688.0144915667197
 10
65.1515134329336
 20
688.3533884644849
 10
71.64773285636534
 20
692.3717599702786
 10
75.89208824400862
 20
693.9902791443378
 10
78.62877383876616
 20
695.0061367977091
 10
84.97173117757507
 20
696.7523584624405
 10
85.65461792134806
 20
696.33122517517
 10
90.42795825829307
 20
694.7183982471065
 10
92.612005585936
 20
694.1598831797855
 10
96.24472704225332
 20
693.2082626100469
 10
99.5687450507437
 20
693.4535935173953
 10
102.89238812590088
 20
692.7748928735409
 10
106.53972870080565
 20
692.6058676986399
 10
109.53465086168467
 20
692.3348964996758
 10
113.52185400902749
 20
691.4279169773654
 10
115.49724771536239
 20
690.9833587727594
 10
120.5020374839869
 20
689.3917292780634
 10
121.10446018150628
 20
689.1367963585794
 10
122.01506403581539
 20
688.3507451265509
 10
125.69063595561283
 20
685.95816188156
 10
127.4919538659583
 20
684.4204525589207
 10
130.16943385021
 20
682.6419534464358
 10
133.70325702015066
 20
679.0850328963311
 10
134.16616378090475
 20
678.6866026817047
 10
134.46894811616835
 20
678.4123804530254
 10
138.1840944619537
 20
674.7436648337693
 10
141.39982268605058
 20
669.8101250564009
 10
141.420284018978
 20
669.7779162277748
 10
141.44877276354396
 20
669.7459747526955
 10
144.5216096741624
 20
664.6230016041545
 10
146.78440700877013
 20
660.5387826445817
 10
147.27194601855444
 20
659.0014690141188
 10
148.42568316377606
 20
656.7695997631895
 10
150.06710299541305
 20
653.4667857406462
 10
151.39102471088995
 20
651.2865589915714
 10
153.1242661235499
 20
648.2671338330806
 10
155.39612830833676
 20
643.8594167723431
 10
155.9584592643721
 20
642.7706093961865
 10
156.36353322161358
 20
642.0276119426994
 10
159.27279297808536
 20
637.917413564815
 10
161.69085485461005
 20
632.7616849411729
 10
161.97535266888826
 20
632.2568790245186
 10
162.3524410150835
 20
631.8152901869585
 10
166.26325269165795
 20
628.7268157003714
 10
169.31620250356514
 20
626.1562928513308
 10
170.62330745039526
 20
625.2699212611315
 10
173.2217849707083
 20
623.527586344886
 10
175.1604376880025
 20
622.0228607558056
 10
176.2962487750592
 20
620.9612617325424
 10
178.9430945005297
 20
617.7757937259444
 10
182.9299909306278
 20
614.262846748938
 10
183.12295828363858
 20
614.0998494453293
 10
183.24450541276406
 20
614.0496747167817
 10
188.07040834341342
 20
611.4406775535322
 10
190.19782436066453
 20
611.1545605366109
 10
194.04232806455184
 20
610.1141796781676
 10
197.17271154890432
 20
608.9795042824753
 10
199.82917171918757
 20
608.5418164372481
 10
204.15302979996113
 20
606.4604381795239
 10
205.0116811166447
 20
606.1626231256641
 10
208.3408572248254
 20
605.0167578166311
 10
210.58554309101055
 20
604.3140942589462
 10
211.11037911288486
 20
604.1853988371649
 10
216.72241187966324
 20
603.2200618243237
 10
218.08071418807185
 20
603.0410622939075
 10
222.62009033172149
 20
601.7880734870314
 10
225.05437835989846
 20
601.4203100681348
 10
228.44331624906704
 20
600.2571753890861
 10
232.0192901199507
 20
599.5246475511126
 10
234.61109342528403
 20
599.2045303564532
 10
238.98680553582471
 20
598.5015378452872
 10
240.940384829888
 20
598.3446139826879
 10
245.96660817061047
 20
596.5048567842564
 10
246.4682857170851
 20
596.4377431047428
 10
252.54421657279067
 20
595.759517651114
 10
252.90422886258784
 20
595.7230024016349
 10
252.94034686211603
 20
595.7147655554636
 10
258.40178031392384
 20
593.747766052837
 10
259.9105792896087
 20
593.2882638613155
 10
264.16203785712014
 20
592.1497046595973
 10
266.8698407168422
 20
591.5783351178216
 10
270.60058787850835
 20
591.4397183703231
 10
273.8704947505853
 20
589.6289763033215
 10
275.4492625643802
 20
588.5674086605991
 10
277.48219554940283
 20
586.4791936065176
 10
279.5164135441937
 20
584.7615425898757
 10
280.80100169115303
 20
584.8815614480636
 10
286.29800959594763
 20
584.5227625847992
 10
287.7795099780503
 20
584.1147208937155
 10
293.32828923180796
 20
584.6214105093213
 10
294.7478636124738
 20
584.5491450932504
 10
299.9839921677458
 20
584.1965893815745
 10
301.71720952790497
 20
584.1691812428712
 10
306.69159589568676
 20
583.8387683624592
 10
308.6991498328114
 20
583.4822498684475
 10
312.75214269908474
 20
582.6240667157658
 10
315.6720896183399
 20
582.230940995235
 10
318.7039564261629
 20
581.2621048444075
 10
322.63762552711887
 20
580.5356386018284
 10
324.9089688251852
 20
580.2548518367439
 10
329.6128824643631
 20
579.3442834288517
 10
330.95913305771955
 20
579.0185313148572
 10
336.47344915712415
 20
577.2346133650531
 10
336.57007805123726
 20
577.1992436616747
 10
336.59801141926914
 20
577.1868737390369
 10
341.80118532604774
 20
574.8726704709693
 10
343.5866383262071
 20
573.6412937517402
 10
346.02112496811674
 20
571.187357043736
 10
349.6364670734729
 20
567.9575796065196
 10
350.1587010684973
 20
567.4319910715581
 10
350.5542653218308
 20
567.1652197032081
 10
354.45408918909175
 20
563.885483650563
 10
357.52172011856055
 20
561.957413813639
 10
359.10655085612484
 20
560.8074164002096
 10
362.1493764560114
 20
558.7012191680355
 10
363.5364153310329
 20
557.4170414472401
 10
364.50087207281376
 20
556.5628522111338
 10
367.650467371946
 20
553.6241769499884
 10
371.4689138028964
 20
550.4998345365398
 10
371.9614943612139
 20
550.0879355089874
 10
372.6142179038586
 20
549.4340238248542
 10
375.83469246632126
 20
545.9609691555079
 10
378.44519345257754
 20
542.9683610950533
 10
379.69987390823667
 20
541.8526494378202
 10
381.8177954506298
 20
540.1774743378087
 10
383.8606322515568
 20
538.117006299301
 10
385.4071497526586
 20
536.9455384657326
 10
388.33598675608596
 20
534.8208343909232
 10
392.3734928874462
 20
532.5759950056481
 10
393.1827490919161
 20
531.9919308286817
 10
394.67089791494095
 20
530.9178849211971
 10
397.3226747693741
 20
528.22332146903
 10
399.34719936411807
 20
526.8849922946938
 10
401.8454696874908
 20
524.9941482118634
 10
406.30744569050125
 20
523.2871534517521
 10
407.14399573835885
 20
522.7873730433116
 10
411.7641310633619
 20
521.6722837228986
 10
412.9606276950383
 20
521.2603046363247
 10
413.2729420530379
 20
521.1515689362423
 10
418.201467069656
 20
518.9540387986472
 10
420.24658952076857
 20
518.1316384695583
 10
423.38244976648616
 20
516.5903702236028
 10
427.2105979092132
 20
516.1271947857763
 10
429.185349859182
 20
515.0075395632989
 10
433.2621072200052
 20
512.3949670021011
 10
433.7239415046836
 20
511.7543174026573
 10
434.2086694058337
 20
511.49531899325075
 10
437.23660073433325
 20
507.1402545494507
 10
441.12272508591127
 20
503.11938328166525
 10
441.1476963115422
 20
503.04899388231433
 10
441.19400172784685
 20
502.97911237008066
 10
443.75615100039863
 20
497.2464210204307
 10
445.05682076662083
 20
493.84091142325724
 10
445.82577121807685
 20
490.74581334417417
 10
448.15861076370015
 20
488.30341140979
 10
449.4135240517296
 20
486.2443052503445
 10
449.9400905402938
 20
484.57104302758717
 10
450.23810877524534
 20
478.07242014169105
 10
452.80313189293724
 20
475.3121219265722
 10
449.4155246740595
 20
467.6646561625553
 10
448.6893893758536
 20
465.98795180529805
 10
448.1510899777843
 20
465.60029459494353
 10
442.35360466767156
 20
458.2797032775925
 10
441.1940946462212
 20
456.9532735845819
 10
441.12030996809267
 20
456.74157053965246
 10
440.02158055782206
 20
455.18154681381657
 10
434.63818793670794
 20
447.4814690839253
 10
434.2293827834844
 20
446.25074303435304
 10
432.1609077174696
 20
438.2285853111107
 10
428.1903807985666
 20
430.2054073847403
 10
427.61348407360197
 20
428.95657786673837
 10
427.24829007397034
 20
428.43918535132616
 10
421.2801111371516
 20
419.69398146795174
 10
420.27565588617585
 20
417.92188079852804
 10
415.6559020355055
 20
413.55215302193255
 10
413.29923530429755
 20
411.0617401460772
 10
412.6685398304119
 20
410.4190494514305
 10
406.32781320453637
 20
404.66104244293683
 10
403.1836134999737
 20
401.1607517666089
 10
399.35534295290313
 20
397.38623738349315
 10
393.2527000443754
 20
391.8964922587111
 10
392.38189107062567
 20
391.09332987566813
 10
390.8969115263051
 20
389.92325896420334
 10
385.4089791340841
 20
385.59229489496647
 10
381.67479184029094
 20
382.6339565968078
 10
378.43881709603875
 20
379.73073463995706
 10
373.68481125878475
 20
376.3185665254896
 10
371.4689626138311
 20
374.63032507904063
 10
370.07524810954396
 20
373.3766398535945
 10
364.5013472120427
 20
367.6602847984914
 10
360.23653339405087
 20
364.1113607040256
 10
357.52603930801865
 20
362.07410609942735
 10
353.5143657805213
 20
358.7811518695612
 10
350.55181541066054
 20
356.38762754934123
 10
347.93022298039455
 20
354.84562565301485
 10
343.58541792772485
 20
352.07119587834313
 10
337.0485170920574
 20
345.5939716970206
 10
336.6136702328033
 20
345.21721679135544
 10
336.02534176668655
 20
344.80942618860263
 10
329.6414758400815
 20
340.00291809634746
 10
324.56410203735254
 20
336.3276858748218
 10
322.67255165904135
 20
334.95249120763856
 10
319.8163143599413
 20
332.53400604345006
 10
315.70478187532694
 20
329.14845641816237
 10
313.44521450121897
 20
327.07346985645927
 10
308.7387800671022
 20
322.4419805216612
 10
304.49364927498937
 20
317.8188258511773
 10
301.77305353790985
 20
314.2999105584995
 10
297.1661971561484
 20
308.55659673616947
 10
294.7982300053193
 20
306.17673299727403
 10
288.74781456886126
 20
299.29787382476025
 10
287.8317576226941
 20
298.1476186349014
 10
281.5675309070439
 20
290.04289311147704
 10
280.86811778197443
 20
288.8952816163628
 10
277.01391597509405
 20
280.7909630586187
 10
273.89539807640335
 20
275.0174433293373
 10
271.4905670901753
 20
271.5245852690405
 10
266.92726764967983
 20
263.4342286972528
 10
266.37569103002033
 20
262.2711754353254
 10
265.34894368465325
 20
260.1733692512953
 10
262.1445135266306
 20
253.0161915165595
 10
259.96185006879705
 20
246.25027260075603
 10
259.2829898432444
 20
243.76330226190703
 10
258.9281749757113
 20
242.38847731382702
 10
256.48730126291775
 20
234.50672258418263
 10
255.9047197017769
 20
229.12097303115206
 10
255.54651247166385
 20
225.2515025844641
 10
254.22811734291668
 20
217.63092174605345
 10
254.0787798242775
 20
216.0026132613939
 10
255.0099952766668
 20
209.4399258501503
 10
256.06039998178744
 20
206.7593873119422
 10
256.6782982259774
 20
202.3986012856917
 10
258.9707927012048
 20
197.50595847240402
 10
259.24545620217054
 20
196.53935853472922
 10
259.96445542453444
 20
189.50361477110937
 10
260.1031066905382
 20
188.4343670155149
 10
260.2119578675795
 20
188.27788868088783
 10
265.132798891354
 20
185.87198311410248
 10
265.2310978596224
 20
178.96395845030565
 10
265.4875309023446
 20
177.06698678269913
 10
266.9238740820374
 20
175.03240101064284
 10
268.6611956355282
 20
172.02122377213755
 10
269.0829500003101
 20
169.71414354132412
 10
270.33321694010465
 20
164.96859371621304
 10
271.06488770741976
 20
160.45670633561986
 10
272.018229863324
 20
157.93178059509728
 10
270.6900246824955
 20
151.18823946042858
 10
272.0052919052064
 20
148.70467149283968
 10
273.88081492356764
 20
146.0134287372466
 10
276.18769351392007
 20
144.99878330133288
 10
276.2941973852742
 20
141.9416401840831
 10
278.53307877701536
 20
138.86455808652727
 10
280.8572584073563
 20
135.58527484293927
 10
282.20529428008945
 20
134.49535937198425
 10
283.3647393411936
 20
132.6974814098262
 10
285.5319705213642
 20
129.6385493622388
 10
287.82755899541144
 20
126.14301465003382
 10
289.1558570474899
 20
125.2114282294192
 10
290.2695264347353
 20
123.44033804949368
 10
292.7404560270686
 20
120.70481063828584
 10
294.80419259061887
 20
117.96314544156121
 10
296.1726722811038
 20
115.99798251202719
 10
297.626416004724
 20
114.17274185194947
 10
299.10324869760075
 20
110.58689169949957
 10
299.71473393492624
 20
104.88652700353487
 10
300.2154251758284
 20
102.80154672146364
 10
301.65696754240093
 20
95.62126438081305
 10
301.660114773714
 20
95.44202959354334
 10
301.55763147126345
 20
86.34328574979327
 10
301.4486082456574
 20
85.88691291225268
 10
299.8823386651802
 20
77.0768177992777
 10
299.0185174213648
 20
73.40327430971547
 10
299.1892359848316
 20
67.8114967238289
 10
294.8070166478183
 20
60.56643100109568
 10
293.4841151569169
 20
58.52343863270198
 10
287.8274431400439
 20
52.84291143545124
 10
284.65704861506356
 20
49.26172085001508
 10
280.8615973651263
 20
44.565055473204666
 10
277.54764827194185
 20
40.004193986711925
 10
273.8893456943474
 20
35.40833069862538
 10
269.95015292677726
 20
30.738668099822007
 10
266.90174948232834
 20
27.590015637586475
 10
263.7449753265505
 20
26.540629579832057
 10
259.9258535019826
 20
24.42100815986396
 10
254.4031282898784
 20
21.462819416698494
 10
252.94671985599894
 20
20.628883923082867
 10
252.19033542643115
 20
20.458930145864542
 10
245.9725635433017
 20
18.031888558633455
 10
242.6840372334641
 20
17.08978427662032
 10
238.99528693793627
 20
15.796508953483226
 10
234.26742293723078
 20
15.179560890072025
 10
232.0062966813839
 20
14.686868959216554
 10
227.67667602987171
 20
15.731234564841998
 10
225.00736097866115
 20
16.649396597249506
 10
222.36461290100192
 20
17.970865162882546
 10
218.2045541257321
 20
21.470078031299636
 10
218.08833437932844
 20
21.560209368941287
 10
218.02076841116377
 20
21.612699416246414
 10
213.57321499393765
 20
24.82970860600244
 10
211.04400439711026
 20
27.482423855638444
 10
209.52588819484436
 20
28.72331948014289
 10
207.952121027085
 20
30.740532376903047
 10
205.81742953698767
 20
33.067543822955486
 10
204.06474964219683
 20
35.44755817516261
 10
202.30685162678287
 20
37.67153106252954
 10
200.75074122899628
 20
40.00373006453128
 10
198.77634595484028
 20
42.23390474232065
 10
197.0990760465388
 20
44.37618623886101
 10
194.86992026865778
 20
46.309449992063946
 10
193.37876934068413
 20
49.27649381248284
 10
192.07308678025947
 20
51.87743785497787
 10
190.11752455354917
 20
55.922064927764495
 10
189.20170775192605
 20
57.327318972591456
 10
188.85268455583082
 20
58.54380271620994
 10
186.60927109154
 20
63.141209311902
 10
184.4218165810887
 20
67.80437148492183
 10
184.05156595709354
 20
69.02085103832951
 10
183.14100005527075
 20
72.24289859134706
 10
181.92270651626427
 20
75.446278137023
 10
181.3457581822156
 20
77.05769938121011
 10
178.89226037663047
 20
80.66506982326155
 10
176.47660026383915
 20
86.3203799056837
 10
176.35513890159018
 20
86.55266235831095
 10
176.18000943837023
 20
86.83344508714026
 10
172.83416756841507
 20
91.13117970952317
 10
170.63929289488078
 20
95.57642495150003
 10
169.98312751533354
 20
96.61493297176412
 10
169.20277038359973
 20
98.63494977052278
 10
167.22420949434695
 20
102.21443653617962
 10
166.25817217941085
 20
104.8554813164701
 10
165.6307312694621
 20
109.38217436481727
 10
164.46476796215484
 20
114.10591266290794
 10
163.50357777186878
 20
115.75694484935775
 10
162.26349299495996
 20
116.64982904685212
 10
158.438602222878
 20
118.22535848726238
 10
155.31857323449412
 20
119.0480389168174
 10
152.18967132098987
 20
119.1491910804084
 10
148.36479603764974
 20
119.06753501854928
 10
144.794945199307
 20
118.56868577777004
 10
141.40159005649912
 20
117.80968717916858
 10
136.75844514358937
 20
117.14802785428355
 10
134.43900759678922
 20
116.3676253674007
 10
127.88467345769755
 20
114.62714274360815
 10
127.45439129141346
 20
114.61561439463549
 10
124.37480235782368
 20
114.06081809735542
 10
120.48825807887465
 20
113.18452929950126
 10
119.72803673373119
 20
113.10366304656463
 10
118.89509067923609
 20
114.08202784187415
 10
115.67141490956897
 20
117.00389219822091
 10
113.47149866468817
 20
118.0005218095589
 10
110.6509244291965
 20
119.57415558704633
 10
106.49983157308998
 20
120.94618775853269
 10
105.3422960191615
 20
121.79441198097129
 10
101.66376201756543
 20
123.32631079084149
 10
100.09578436558832
 20
124.06353756767157
 10
99.5403856488665
 20
124.19699027035676
 10
94.75014375629235
 20
126.22278282077832
 10
92.56865199937238
 20
126.8479482790849
 10
89.26508444349543
 20
128.1948349599552
 10
85.59329828127602
 20
129.19109263253267
 10
83.80825453033026
 20
130.23264391902103
 10
80.0302805492538
 20
132.6036160360618
 10
79.46257900440537
 20
133.80888660218397
 10
78.5773471320399
 20
141.54642429709702
 10
78.54021176811057
 20
141.8458343469756
 10
78.51003719797131
 20
141.91925366189162
 10
78.58249002425532
 20
142.06298402079665
 10
81.68496440391232
 20
151.19742534872103
 10
83.11720860534365
 20
157.2177160289657
 10
83.15954511101995
 20
160.42767354101125
 10
81.94100807977611
 20
164.88105324221988
 10
80.39468045034391
 20
169.67925157597938
 10
80.03232235637984
 20
171.58731647024842
 10
78.59909463975237
 20
173.0224983267167
 10
76.04049485342443
 20
175.51907780354622
 10
73.8452220087272
 20
178.91895792561127
 10
72.85627506208948
 20
180.59390433242697
 10
72.2523969499398
 20
188.225915061897
 10
72.6061030819535
 20
189.5598110435526
 10
73.44024580255973
 20
197.49632598464632
 10
75.07933624398015
 20
202.11268132891746
 10
76.60593428074071
 20
206.76975880089276
 10
78.58549346178575
 20
210.47544244579422
 10
81.48392927221244
 20
216.03251786189094
 10
85.04388913204639
 20
224.61314084200967
 10
85.31012450096432
 20
225.2907084142239
 10
85.55265748369857
 20
225.82067683171272
 10
88.46923662028485
 20
234.53196912433623
 10
88.25051679975581
 20
238.1065739187702
 10
87.68065616286844
 20
243.77974279863747
 10
87.75517398871489
 20
246.71201865945204
 10
86.9926104695653
 20
253.03466163388566
 10
86.8141055165413
 20
254.71737951073237
 10
86.02243887435498
 20
262.2986877563244
 10
86.00392677865239
 20
262.9065198295789
 10
85.54768022388362
 20
270.28353009320426
 10
85.46635077915585
 20
271.4588561481305
 10
85.48028308076687
 20
271.574289893219
 10
85.54820573504958
 20
272.03744061543557
 10
86.65925628959053
 20
280.82829534327493
 10
86.60916731646489
 20
282.2277083527988
 10
85.54851327644747
 20
288.82982295658303
 10
85.37953124717387
 20
289.84183583250206
 10
85.30982272329106
 20
290.0562690939755
 10
82.54686680222517
 20
295.3299753446304
 10
81.76888247548163
 20
299.33344087056594
 10
81.24863380316265
 20
302.88873736339474
 10
81.07360063977944
 20
308.6091332287524
 10
81.44265439766264
 20
312.4178710693668
 10
81.49926735289841
 20
317.8653095199652
 10
81.28002542318677
 20
321.448417563804
 10
80.18385681688551
 20
327.1217041251366
 10
80.2465633098102
 20
329.34714912932486
 10
80.24656934387713
 20
336.37833313625697
 10
79.80514300830578
 20
337.99401400106035
 10
78.58157269443836
 20
341.6157580376589
 10
77.50835058630514
 20
344.2046603556764
 10
77.24969199971156
 20
345.6258940819148
 10
75.08361771896034
 20
350.2319316645335
 10
73.34477495407168
 20
354.87690557405995
 10
72.58640683283443
 20
356.14418045719185
 10
71.6278453220259
 20
357.07790100579814
 10
68.66480376044774
 20
360.17419820861005
 10
64.6672226086514
 20
363.2924604358891
 10
64.24209548828458
 20
363.5610341611332
 10
63.82184848257748
 20
364.1274984193542
 10
60.988660574912274
 20
368.5247655947014
 10
57.678174524094175
 20
372.84541225628755
 10
57.48823907502015
 20
373.14487754135916
 10
57.34747263579743
 20
373.40732277781626
 10
56.34525567695937
 20
380.9176105877159
 10
55.684452403136675
 20
382.67336397316376
 10
54.995641967294205
 20
388.38955015392185
 10
53.98752497769078
 20
391.93627013737296
 10
53.4615246861963
 20
395.6121080573248
 10
52.0337439216064
 20
401.1880311957452
 10
51.543648516294525
 20
402.3093498442872
 10
50.69739788872221
 20
405.1200100898827
 10
49.5033419233489
 20
408.85926572074686
 10
48.838630416228625
 20
410.4439780094963
 10
46.99646285173003
 20
414.78890529596447
 10
45.392683653012455
 20
419.7016205781488
 10
44.638554512111114
 20
420.9025248781718
 10
43.731946253736396
 20
422.9228463352456
 10
41.67530182278506
 20
426.2389760842725
 10
41.08037765382369
 20
428.97629651461557
 10
39.9227589464349
 20
433.17595809817885
 10
37.80941916119559
 20
438.2241048521887
  0
TEXT
  5
91
330
17
100
AcDbEntity
  8
GRABADO
100
AcDbText
 10
348.4610842689538
 20
356.11061471797393
 30
0.0
 40
6.0
  1
81a
 72
1
 11
348.4610842689538
 21
356.11061471797393
 31
0.0
100
AcDbText
 73
2
  0
LWPOLYLINE
  5
92
330
17
100
AcDbEntity
  8
CORTE
100
AcDbPolyline
 90
371
 70
1
 10
225.91783796805703
 20
759.5942863820314
 10
226.1128091857472
 20
759.8420722676151
 10
226.44081164375984
 20
760.1629827673255
 10
231.11557458173684
 20
763.0564321976085
 10
233.7453743908336
 20
766.5730855712923
 10
234.62868027048808
 20
767.3949488974145
 10
235.72971491859062
 20
767.9462982288164
 10
243.09291671772462
 20
768.0399960008522
 10
245.0100407922091
 20
767.9924368013403
 10
252.5789983401728
 20
767.8596237801898
 10
254.25371640929916
 20
768.5377997409555
 10
260.77329064857076
 20
768.6620338458874
 10
263.50925275352074
 20
769.6300739197954
 10
267.6040197662942
 20
770.4915645351798
 10
272.773047742523
 20
771.0828252395991
 10
274.9895011499384
 20
771.8733998316579
 10
276.7960295634957
 20
773.557159301376
 10
280.1269222202209
 20
774.9969127812724
 10
282.03300203041726
 20
775.3645096171299
 10
286.9718931914276
 20
776.8119358868939
 10
291.2970919250374
 20
778.6135639850795
 10
293.9026906229683
 20
778.5712748409728
 10
296.6153047773332
 20
780.5333188435793
 10
299.55973864684347
 20
781.2899309534391
 10
300.5611662036181
 20
781.4028118960009
 10
307.1040107756926
 20
782.5877791389526
 10
309.83024508829294
 20
782.6097784615035
 10
315.88974259500446
 20
782.9450558346894
 10
319.0817106741624
 20
783.3620404749131
 10
323.52991527960694
 20
784.1579877091885
 10
328.3503275819021
 20
785.2031021450298
 10
331.9876852762927
 20
784.7753945560803
 10
337.6108375460153
 20
785.404451095907
 10
340.4568131424203
 20
785.3688880108652
 10
346.86020544677194
 20
785.8040042236657
 10
348.41631290928035
 20
786.323442491444
 10
350.93275432327664
 20
787.5028517066316
 10
354.1277943903706
 20
788.9988221266499
 10
356.1225715827013
 20
789.4705779662931
 10
361.86241075565067
 20
790.152787421916
 10
365.36114197227744
 20
791.7122016375292
 10
367.3964590671885
 20
792.9451951533033
 10
372.25597349255804
 20
794.477671062306
 10
374.01978807785235
 20
794.9418669651973
 10
374.6336751658
 20
795.1281510806789
 10
380.39170329569515
 20
797.1121779279442
 10
383.89475072325695
 20
798.2878432946295
 10
386.9190211790519
 20
799.1609124781494
 10
390.2208260655434
 20
801.4393235461325
 10
391.85226658434294
 20
802.4270392464855
 10
393.16528509538693
 20
802.6089148028054
 10
399.2428049460077
 20
803.8432860578973
 10
402.4344757004119
 20
804.5654819744491
 10
408.5179591600081
 20
803.8466860520607
 10
411.6996901475013
 20
804.1756775091203
 10
418.43181388712674
 20
803.3594030471008
 10
420.95812182574264
 20
803.151413126538
 10
426.96800417420127
 20
803.881803214565
 10
430.21301693704027
 20
805.3862853340447
 10
436.32803597050497
 20
803.8352861810413
 10
439.5166812225207
 20
803.1967325388791
 10
441.4159126452241
 20
801.4135321754361
 10
441.6788943567908
 20
799.7934738379176
 10
443.2227641976315
 20
794.419954550091
 10
443.5360584274413
 20
791.4146413792064
 10
443.6592361831763
 20
787.4397780693466
 10
443.9878029952715
 20
784.0991562186823
 10
443.62302788354555
 20
780.4568011288816
 10
443.3428325028344
 20
777.6145742357435
 10
443.8079803914534
 20
773.5077722523006
 10
444.92305290750846
 20
769.465154133864
 10
445.069778732498
 20
766.540290780938
 10
447.7724263649161
 20
760.3542670074617
 10
447.79077098752714
 20
759.5795048170353
 10
448.7983621672993
 20
758.3390259008252
 10
454.0084439933453
 20
752.633622657338
 10
458.04954169243865
 20
748.6910633776665
 10
462.5495269337498
 20
745.6732875047005
 10
467.3076103718495
 20
742.571080757049
 10
471.8516316555133
 20
738.7015442240177
 10
476.54657895159835
 20
735.9764989561713
 10
480.66334173067025
 20
735.5924883658504
 10
485.7877649744096
 20
737.459283461159
 10
490.4529352186846
 20
735.2171702993496
 10
495.0876648212479
 20
733.1753053191137
 10
496.52614276390887
 20
731.7158723255793
 10
497.7594390513941
 20
729.7044938360391
 10
498.10724025446234
 20
724.7081631077958
 10
498.5892895413599
 20
722.1114952455396
 10
501.3019961497139
 20
717.7709138441601
 10
504.3621608205285
 20
713.8221306461742
 10
507.1488945197043
 20
710.8062463916162
 10
511.3743036236301
 20
705.5278727538775
 10
512.9713815596542
 20
703.828837159645
 10
513.6309593403212
 20
702.3770959705002
 10
517.5568139160814
 20
696.8745789791333
 10
522.8637837734359
 20
694.2048089344385
 10
529.4144812502045
 20
689.9085318605171
 10
532.1285689716115
 20
688.2554070730971
 10
539.3919542047834
 20
682.9263602284777
 10
541.4114462869493
 20
679.6545265445598
 10
543.6317829247
 20
675.9470415089577
 10
547.2196630106573
 20
671.5759654121143
 10
549.8630702443143
 20
668.9809721909755
 10
550.665942689031
 20
667.7516576674348
 10
556.6982460693298
 20
662.0112735878497
 10
559.9318817171106
 20
657.2813679368269
 10
561.2465645406846
 20
655.0342455301047
 10
563.2017489524806
 20
652.5734721432841
 10
566.7364817857324
 20
648.0529399249203
 10
567.8819880129176
 20
642.0526192290213
 10
567.8819880129176
 20
641.087801576426
 10
569.1691040662436
 20
640.1189475361757
 10
573.3904234794363
 20
637.9348547731083
 10
578.46459706527
 20
635.6297959176313
 10
578.46459706527
 20
560.8513399256067
 10
578.4643516269061
 20
520.0001202805029
 10
578.4643554900831
 20
472.82295538997596
 10
578.4643582764074
 20
437.1033777824946
 10
578.4643617098181
 20
394.79659602819675
 10
578.4643654502124
 20
349.4889672573604
 10
578.4643685875799
 20
310.6343761519179
 10
578.4643721218126
 20
267.85069968501875
 10
578.464377059011
 20
210.8016797023788
 10
578.4643803944655
 20
170.48714966379566
 10
578.4643834381241
 20
133.3467935686008
 10
578.4643844224283
 20
117.42784631051791
 10
578.4643856266766
 20
99.32021081629182
 10
578.4643869370248
 20
80.19971045641387
 10
578.4643870906866
 20
72.58343141133992
 10
578.4643842622054
 20
72.58343141133946
 10
578.4643842862797
 20
72.16180266177844
 10
578.4643848434589
 20
60.770495066712556
 10
578.4643842862797
 20
60.49731145490159
 10
578.4643859625012
 20
38.032929080503436
 10
578.4643876983409
 20
15.070560091911375
 10
578.4643871979742
 20
13.000000280608674
 10
578.3143874460302
 20
13.000000267246378
 10
578.3143865176426
 20
15.211382722362487
 10
578.3143846399562
 20
27.865527626635412
 10
578.314382146219
 20
46.44504481830245
 10
578.3143801823362
 20
59.71753724260907
 10
578.3143790081122
 20
65.19858597959364
 10
578.314378590454
 20
67.17347743189794
 10
578.3143744286108
 20
67.17347743189794
 10
578.3143718779047
 20
85.20029878394098
 10
578.3143669579067
 20
125.68830520473284
 10
578.3143592675651
 20
192.1041157284103
 10
578.3143502871426
 20
270.2625860735275
 10
578.3143427648965
 20
336.4843538780974
 10
576.4830339746186
 20
335.72151133280613
 10
570.9761343656064
 20
334.2674834437007
 10
569.6784075203605
 20
333.87108938126266
 10
569.1428519094352
 20
333.70115174648026
 10
561.3267197165806
 20
333.17367578075255
 10
559.87292332591
 20
332.93541589129336
 10
551.9778058004886
 20
333.2331256282828
 10
550.6000315861802
 20
333.1869799453093
 10
546.1032599459404
 20
334.2662584672985
 10
541.3329052244735
 20
335.1580345263724
 10
539.7276691049483
 20
335.4770604887158
 10
532.0774466952707
 20
335.8569430796165
 10
529.2118121541007
 20
336.4170987167804
 10
522.8106644356039
 20
338.3312919781888
 10
516.3919470092751
 20
339.10155109695415
 10
513.555530774669
 20
339.441926801976
 10
505.01835199195375
 20
340.69097880779964
 10
504.3043487617906
 20
340.7875489349176
 10
496.90156284963996
 20
339.8394770036034
 10
495.049374539597
 20
339.91110362034715
 10
489.01793591993464
 20
338.8152258557634
 10
485.8014262854722
 20
337.9126996493201
 10
482.02355239603185
 20
337.11158784942336
 10
476.5456711181705
 20
335.3905555185206
 10
475.4958338750648
 20
335.05255781506867
 10
470.36915903874706
 20
334.26563405759816
 10
467.86689368490806
 20
333.82087104811626
 10
467.2660463030952
 20
333.7098133710365
 10
460.81468183247944
 20
334.26491238751396
 10
457.9857377695125
 20
334.5125206744501
 10
457.3551753656775
 20
334.73655626602294
 10
448.7170663404395
 20
337.9823354682626
 10
440.40044006005155
 20
340.529382666929
 10
439.4425797311533
 20
340.8498949302043
 10
438.9819253116457
 20
341.25421492577743
 10
436.5902107161837
 20
343.39269046640266
 10
431.5251952588169
 20
348.22504263469773
 10
430.17181354774857
 20
349.3556495723192
 10
423.2854578463075
 20
355.2090459162214
 10
421.31070503858973
 20
361.8778773618192
 10
421.14679144572983
 20
362.2130665219297
 10
422.4372435111545
 20
368.04510581009754
 10
422.7970330152466
 20
369.2258999444325
 10
425.2938542711672
 20
372.8927359337499
 10
427.156067697234
 20
376.2039854038335
 10
428.2025302594302
 20
377.6838341066582
 10
430.16431058347007
 20
379.99838169899203
 10
431.92744524546833
 20
381.85331492078376
 10
432.85851337088206
 20
383.1736360792506
 10
434.7106012252834
 20
386.7235178590895
 10
438.0841451425149
 20
390.16139157544194
 10
438.7505327747049
 20
390.67784160777455
 10
439.43603883730066
 20
391.2517481400969
 10
443.62227594177057
 20
393.97104326806175
 10
445.5881689535163
 20
397.11806805656715
 10
446.6857860754053
 20
398.6134440894716
 10
448.675692543954
 20
402.72474720744003
 10
449.2630805997369
 20
403.6424606256737
 10
449.4898855901374
 20
404.07953921596027
 10
451.6510965763282
 20
408.7908547064776
 10
451.83548395152684
 20
411.02663364003047
 10
452.52130959512124
 20
415.117884942249
 10
454.53532674940016
 20
418.04087383124124
 10
456.2658176761197
 20
419.3190476866498
 10
457.9600682078062
 20
420.7210518480865
 10
461.32860971730406
 20
422.4842114739754
 10
464.1512826970138
 20
425.01411916319785
 10
465.5103644441033
 20
426.2770119798183
 10
467.1953838150921
 20
429.6965678190559
 10
468.03584711548865
 20
431.3319020206386
 10
468.365628194334
 20
431.9535110527481
 10
469.22072246039625
 20
437.37800621685847
 10
469.31570492403716
 20
438.90869228906877
 10
470.12071256561285
 20
443.6759934278266
 10
470.48635842308886
 20
445.8711639341477
 10
469.6851757483364
 20
450.96034679994636
 10
469.9651834516262
 20
452.8445400067508
 10
469.62276843639484
 20
457.98453854165064
 10
470.0439018189463
 20
459.83591524671147
 10
471.64929054097774
 20
463.4654689837248
 10
473.7031868138092
 20
466.8290379297946
 10
474.87123322432853
 20
468.0369907361387
 10
476.46526213373727
 20
469.73736465528464
 10
478.39729209654524
 20
472.3439857805265
 10
479.5793511542597
 20
473.8059734352978
 10
482.4381567528326
 20
476.27380982774457
 10
484.7425635399586
 20
480.7531352172323
 10
484.93084878190075
 20
481.33918936215423
 10
485.7142370598176
 20
483.2018953395486
 10
487.1324205789424
 20
486.6573915218646
 10
487.61688765128565
 20
487.73280510047107
 10
490.22147604990096
 20
491.3202536213689
 10
492.3443408457342
 20
494.7099282560898
 10
493.3752160912518
 20
495.9378206164515
 10
494.9928380907095
 20
497.1415087046121
 10
497.3718412311018
 20
499.86692374847235
 10
497.7615003416822
 20
501.6519236995241
 10
498.6288058435157
 20
505.8620263472917
 10
498.76448857431023
 20
508.60871717679356
 10
498.74056934999044
 20
512.7463164903834
 10
499.3301820346642
 20
515.5880735806081
 10
499.57480244231283
 20
519.1043968208519
 10
501.49415430186855
 20
522.5705170842034
 10
501.6443581741023
 20
524.5154272047944
 10
504.06104634518215
 20
529.4921837320239
 10
494.9971299439703
 20
535.3395046612245
 10
493.83422313108895
 20
536.469913988592
 10
494.0881042699748
 20
537.1664439981782
 10
494.1194885581972
 20
543.4581646998881
 10
494.0727743220623
 20
544.1324526186404
 10
494.03979432325104
 20
550.424108122826
 10
493.8874918056572
 20
551.233701010517
 10
492.96536791550443
 20
557.3858144710116
 10
492.3924500338562
 20
559.3482382047309
 10
494.993294404534
 20
563.4105316815971
 10
495.86640930368594
 20
563.7860828501312
 10
496.54441302517625
 20
564.4185193349135
 10
498.6640282382414
 20
568.5736425828886
 10
498.30454144671967
 20
571.3426774193254
 10
498.7661064157801
 20
575.4622988009501
 10
498.92251442480847
 20
578.3245493649915
 10
499.7081944025049
 20
581.7582284383066
 10
502.97757194652604
 20
585.3305370301382
 10
503.37518700073724
 20
585.954553040167
 10
503.98516702689267
 20
592.2894090357836
 10
504.0952562587636
 20
592.3996523428154
 10
504.23124844162066
 20
592.9788483475654
 10
505.2795265567356
 20
598.4457882581578
 10
505.331393137596
 20
599.2378504901048
 10
506.62884650883734
 20
604.4033886732054
 10
506.7595634698682
 20
606.188291080955
 10
504.73586415558293
 20
612.7917460807125
 10
504.9633184412405
 20
613.1660245007056
 10
504.27649052520337
 20
614.2131160022759
 10
503.3551594579076
 20
613.816145414627
 10
495.01149104142587
 20
614.3535132380534
 10
489.1232965291201
 20
620.1250414608871
 10
490.9000640232616
 20
623.2564334438653
 10
494.50935181791556
 20
627.1532486307465
 10
494.64129690593654
 20
627.3910883117719
 10
494.9863863346045
 20
628.3984649499439
 10
500.6150048881482
 20
629.8759798008509
 10
499.8177202015022
 20
634.1108363996032
 10
501.9867955409427
 20
635.7884346547248
 10
500.53390637339544
 20
641.0210909458406
 10
497.698871104124
 20
645.9372073217514
 10
496.62407001828706
 20
647.9916200208977
 10
494.9746154703553
 20
652.9751805088504
 10
494.0302140346266
 20
654.9440320454273
 10
485.7586294618295
 20
661.6380517258635
 10
477.3419898848706
 20
661.2754011548946
 10
476.5435529400538
 20
661.1907014309731
 10
471.3941973609217
 20
658.788743055647
 10
467.251103202193
 20
658.9033189927409
 10
458.69947229798345
 20
661.3495316095382
 10
457.9727475505533
 20
661.5690696441075
 10
457.3806538502158
 20
661.8966619293565
 10
448.7143075668082
 20
666.6442831273594
 10
439.47893128382566
 20
668.8496369899426
 10
439.4648943799166
 20
668.8521883484777
 10
439.4324059815408
 20
668.8605389444278
 10
430.19706435951866
 20
671.2635694345176
 10
423.4616665905305
 20
673.9298782763985
 10
420.931139550823
 20
674.9415430906579
 10
418.80096189305186
 20
675.8362516756811
 10
411.66395266127984
 20
679.841365472063
 10
405.6982008299565
 20
682.8082820342283
 10
402.3988268002522
 20
684.6778254113992
 10
394.88597034257873
 20
689.7863034589432
 10
393.1159429556219
 20
691.4297981436598
 10
390.66304563471203
 20
696.7813851141987
 10
388.7637011055249
 20
700.0532147102554
 10
386.93465823849056
 20
703.7472859423401
 10
383.8567702497239
 20
707.9134312717856
 10
381.79675298806615
 20
710.7073960831244
 10
374.60866822843764
 20
717.5006567040514
 10
374.3849909166629
 20
717.664697573045
 10
365.3631332709856
 20
722.68075181425
 10
360.7219188808622
 20
724.6299609019702
 10
356.1054982219812
 20
726.7303021821558
 10
349.7176083028162
 20
729.4385400237866
 10
346.8381076815731
 20
730.6487755078565
 10
345.48909545940114
 20
731.6106286888812
 10
338.1504699401048
 20
738.1430309269322
 10
337.630551064326
 20
738.5904789698311
 10
337.5497634031635
 20
738.7177533060253
 10
333.8737779083349
 20
745.5672233783466
 10
328.30818303915294
 20
751.7289167416825
 10
326.6799839928317
 20
752.5141226132223
 10
319.06691486983436
 20
756.3172258234804
 10
311.4553229876692
 20
758.2441962141888
 10
309.824108795965
 20
758.6479144237724
 10
301.8485650250195
 20
758.5117770901829
 10
300.5604883789347
 20
758.7345063760754
 10
295.23074064916636
 20
759.4779460653622
 10
291.29914721056684
 20
760.1169479848581
 10
290.1992849994831
 20
760.305589481522
 10
282.03613013257745
 20
761.7982602248944
 10
277.74548634987786
 20
762.7119890596464
 10
272.78452814747743
 20
762.665652926898
 10
267.41100646409814
 20
763.5236708773541
 10
263.5319500286787
 20
763.1622704983051
 10
258.49937759490876
 20
763.3111124003103
 10
258.023530739747
 20
759.4988698393995
 10
255.5718953810774
 20
758.5168475190098
 10
254.29633460316836
 20
758.2108958626727
 10
249.9583978658393
 20
755.822157688583
 10
248.9412295431739
 20
752.5442234617626
 10
247.40767710677846
 20
750.7673091262845
 10
245.05315667996638
 20
748.246534437722
 10
242.81992632757647
 20
747.2231432891763
 10
240.6862242586676
 20
745.5492815260609
 10
238.01397571814505
 20
743.8635138241939
 10
235.77066273254695
 20
742.9708179190889
 10
231.34581992810308
 20
741.9040421930945
 10
226.4690314492127
 20
739.1420220012992
 10
221.24472070614502
 20
745.5916869574462
 10
221.99631273421073
 20
748.9466623832873
 10
222.2983242521932
 20
752.5987029252879
 10
223.24891188127367
 20
755.000935578742
 10
225.91783796805703
 20
759.5942863820314
  0
LWPOLYLINE
  5
93
330
17
100
AcDbEntity
  8
CORTE
100
AcDbPolyline
 90
274
 70
1
 10
424.00837389242406
 20
794.5539660759991
 10
423.02620869393013
 20
794.3079786352887
 10
420.86188226323975
 20
793.8078034213818
 10
417.9800148213553
 20
794.5575451979735
 10
411.637606205255
 20
795.3265664431624
 10
410.57538241044676
 20
795.2167323448834
 10
402.80689249698844
 20
796.1346207405682
 10
402.0789213797916
 20
795.9698989353878
 10
396.1685732281294
 20
794.7694809943
 10
391.5289850340714
 20
791.5679323093741
 10
385.9800675141287
 20
789.9660289877743
 10
384.15051313644653
 20
789.3520082635937
 10
380.0079496960934
 20
787.9246173414326
 10
378.20511021990933
 20
787.1824060225631
 10
376.90255786098896
 20
786.69976913038
 10
372.08608707909025
 20
785.1808672826678
 10
368.6122468755875
 20
783.0764175846521
 10
365.7627236129256
 20
781.8063608674051
 10
357.927405863833
 20
780.8750929877356
 10
352.7996542504188
 20
778.4718113248214
 10
348.2276907514133
 20
776.9456617127375
 10
343.0085553264407
 20
776.5910168101186
 10
337.9575484925135
 20
776.6541337903932
 10
333.9865791719758
 20
776.2099053397455
 10
328.69245418927403
 20
776.8324279570402
 10
326.2109834252997
 20
776.2944198459259
 10
320.1521651202156
 20
775.2102746456344
 10
317.93218580597295
 20
774.9202663333031
 10
310.05197322581716
 20
774.4842471797178
 10
309.24223558803806
 20
774.4777130093457
 10
305.383344604842
 20
773.7788335909449
 10
305.0232794499134
 20
773.4325124293396
 10
299.1958779034503
 20
769.2175310112775
 10
292.64208665409114
 20
769.3238997405874
 10
292.4072752171214
 20
769.2260908516387
 10
292.45231529050307
 20
769.2183658595736
 10
299.1195785541486
 20
768.1347354970271
 10
300.7575470157917
 20
768.0185281762892
 10
307.50847231910393
 20
768.1353522336826
 10
310.6577257455574
 20
768.1898450575432
 10
318.09175682140904
 20
766.2602149845793
 10
321.5183110531725
 20
765.3927396063687
 10
324.928801123463
 20
763.6890317422572
 10
331.98071157733375
 20
760.1100407448926
 10
335.6084815967097
 20
757.4712475157271
 10
338.32378894384146
 20
753.4732780189811
 10
341.7974749657169
 20
749.627545691997
 10
343.5967276822457
 20
746.2749950217781
 10
345.5367242377688
 20
743.2186895133468
 10
350.56426169607494
 20
738.8919341268561
 10
352.56957197554766
 20
738.0493614261327
 10
358.9215747246162
 20
735.3563384666181
 10
367.9720720955984
 20
731.2386172624388
 10
368.01245783922786
 20
731.219348738668
 10
368.2937213025134
 20
731.1235291314656
 10
378.47911486215526
 20
726.2682930903188
 10
382.4704675325538
 20
722.8183807685095
 10
388.72968230598053
 20
716.6457830206296
 10
390.29741146850574
 20
715.1611092404514
 10
391.4487630817421
 20
713.2911006972977
 10
395.79474817999835
 20
707.4084936677314
 10
398.8345889520069
 20
701.2690047861993
 10
399.36603617256696
 20
700.7827675277408
 10
405.29594864872706
 20
695.2767625318734
 10
406.0984742783721
 20
694.7310733409872
 10
411.0784070339032
 20
691.9092652592003
 10
415.33202423822604
 20
689.7641738931839
 10
416.7242844589391
 20
688.7421903391637
 10
424.349371822429
 20
684.6334493270892
 10
428.60320130394666
 20
682.1488918338396
 10
432.3748185022596
 20
680.6558402533742
 10
435.6627165576474
 20
679.800331101816
 10
441.2312200347578
 20
678.4279898193477
 10
449.74705788004667
 20
676.0771037274058
 10
450.90994423167285
 20
675.8800193516495
 10
452.3563094553965
 20
675.1598505720608
 10
460.69565781326946
 20
671.1922624210024
 10
467.2989671902933
 20
668.7512347378811
 10
470.74224689950734
 20
669.9856460664346
 10
474.0718865998151
 20
672.4769423023868
 10
479.89115243895503
 20
672.757834007461
 10
486.0404351634852
 20
673.7406571741235
 10
489.77286782278316
 20
672.8618799199935
 10
499.4842729941156
 20
676.1815157689712
 10
503.41537344714834
 20
663.9162194684282
 10
503.98535309845374
 20
661.7883915598372
 10
504.8779101891014
 20
656.2721147776742
 10
505.34509039658496
 20
654.0951760587564
 10
506.4582782826492
 20
650.7318586690103
 10
509.39012192986684
 20
645.1278293280225
 10
510.1851986068805
 20
643.7491200349373
 10
510.9298383798068
 20
641.0672609644357
 10
513.0672933031692
 20
634.6646653756784
 10
512.751476908722
 20
632.681156057462
 10
513.1105844480117
 20
627.9789948035345
 10
513.7823759273106
 20
624.1885639493171
 10
511.76646387787514
 20
620.6331234736576
 10
516.5708409959698
 20
613.3086942633231
 10
514.6333692547387
 20
610.1205641298716
 10
515.5942280882364
 20
606.9852228154127
 10
515.2315520888806
 20
602.0329866298293
 10
514.2556525389518
 20
598.1476474725519
 10
514.1237745302597
 20
596.1337188855018
 10
513.266847179706
 20
591.6647041596648
 10
513.2880062091872
 20
590.5833275837426
 10
512.9606590418953
 20
584.7242821893055
 10
512.6835007170212
 20
582.1236692769385
 10
510.09113493928453
 20
576.7996140763621
 10
509.5899856360684
 20
576.252029731158
 10
509.3661172942011
 20
572.1552619776417
 10
509.28199765909903
 20
571.4044661620824
 10
510.23697215773154
 20
564.0485417804844
 10
508.24321441130996
 20
560.1401393912597
 10
503.08407193324183
 20
555.3277322762265
 10
502.0594862513799
 20
554.8870292823135
 10
503.40616032208345
 20
552.9044804721902
 10
503.78301332485535
 20
549.5349095913502
 10
504.0074278166785
 20
540.994999188471
 10
503.3914242054525
 20
540.2699801902004
 10
508.82612221790805
 20
537.0829281402844
 10
513.8835824496509
 20
531.1111823005344
 10
512.3102118676625
 20
525.9572758369436
 10
510.5843353168675
 20
522.0798768150185
 10
510.23568056979184
 20
521.3618819123153
 10
510.1700761588345
 20
520.5124052581782
 10
507.73059505833226
 20
516.1069936957169
 10
507.62782857967795
 20
514.6297655254189
 10
506.91011142463776
 20
511.1705831381855
 10
506.92580340920085
 20
508.4561496060692
 10
506.7123859549374
 20
504.1358373522885
 10
505.9014207217697
 20
500.1992234737895
 10
504.93725630811514
 20
495.7824566526301
 10
500.1068567829161
 20
490.24869198023
 10
497.58790994598075
 20
486.22657516142635
 10
496.11805532050494
 20
484.2020603456099
 10
495.3661809904106
 20
482.5330596845811
 10
493.4026916284838
 20
477.7488904267543
 10
492.8502839116218
 20
476.73144784235274
 10
491.9245166749006
 20
474.9781134082309
 10
489.68525114310523
 20
470.6254101414229
 10
487.7062660527399
 20
468.91707032686963
 10
485.8466771480753
 20
466.6171040063832
 10
483.31250338577684
 20
463.19809343667066
 10
482.62003016510516
 20
461.74511482555545
 10
480.4808820716935
 20
458.2419329983036
 10
480.207267333677
 20
457.623329303608
 10
479.65322520420705
 20
455.18766228070535
 10
479.82831055797124
 20
452.55945258838574
 10
479.31062351508353
 20
449.0758969647427
 10
479.8201111402568
 20
445.8395867272852
 10
479.01701760090236
 20
441.0181803982937
 10
478.52542563427687
 20
438.10694475124774
 10
478.332593218729
 20
434.9993617150262
 10
477.49834193634706
 20
429.7070890071677
 10
475.95648849032295
 20
426.800827581877
 10
472.8391000813326
 20
420.7330123734323
 10
471.8817473985782
 20
419.8434162703538
 10
466.9863563255203
 20
415.4557710820868
 10
462.19645306277926
 20
412.94864328776794
 10
460.92538083439376
 20
411.10390726216656
 10
460.76695023744014
 20
410.15879914008156
 10
460.38992148399575
 20
405.58715781491674
 10
458.288567477126
 20
401.0063270922906
 10
457.1329418846417
 20
398.7793072900881
 10
454.7954422244329
 20
395.12728409660895
 10
454.18834554813384
 20
393.8729746616559
 10
453.68501187825314
 20
393.18724091034574
 10
450.30047962008484
 20
387.7692416345376
 10
445.20505438749024
 20
384.4593562496152
 10
444.73665469555453
 20
384.09460235273446
 10
444.2200997503951
 20
383.64967100893637
 10
441.9990853815443
 20
381.38630432107175
 10
441.0261111027821
 20
379.5214124066738
 10
438.77596395352157
 20
376.330542899123
 10
435.3753479293573
 20
372.75287196238924
 10
435.09760473588085
 20
372.4251849977122
 10
432.67860154424034
 20
368.1238933603913
 10
431.34584291898864
 20
366.1666017518878
 10
430.97258057573254
 20
364.9415910707189
 10
430.5628722089368
 20
363.08996453156806
 10
431.10480591619853
 20
361.98175684113676
 10
431.93040322736215
 20
359.19367658696
 10
434.6825742271976
 20
356.8543336359621
 10
438.75874826058225
 20
353.44912237633935
 10
443.3294707619016
 20
349.08835764109926
 10
446.34614282342227
 20
347.83328213390587
 10
450.9752616824662
 20
346.41556973169963
 10
454.9731063649815
 20
344.91337508627703
 10
459.4867807208366
 20
343.3096897121827
 10
466.20918079811963
 20
342.72129986417394
 10
467.3946840380322
 20
342.49335084948734
 10
472.11390292290525
 20
343.2177317739229
 10
474.4239635075455
 20
343.961461506859
 10
478.46340824217896
 20
345.2305680527238
 10
484.1280840494037
 20
346.43178301239686
 10
485.78037795512046
 20
346.8954031224316
 10
492.4262176454504
 20
348.10291403365636
 10
493.40402848395024
 20
348.31488413323905
 10
494.00874515918076
 20
348.42554513871846
 10
502.02541553904393
 20
349.3840010841536
 10
504.47001235477273
 20
349.59323476211785
 10
514.2853300894703
 20
348.28133961516005
 10
514.3461009564389
 20
348.27442675538396
 10
515.1027225112275
 20
348.1888135975055
 10
524.2408880394341
 20
347.0922151870477
 10
526.7411044503451
 20
346.3445527964427
 10
532.9268403864553
 20
345.13540529182
 10
537.2996868698256
 20
344.9182654280671
 10
542.6583505138224
 20
343.8532801557435
 10
550.1882856229222
 20
342.445624698496
 10
551.4032659949817
 20
342.2018905391783
 10
559.3191148149153
 20
341.9524240902042
 10
559.9309744617876
 20
341.905186592719
 10
567.3414407187429
 20
342.34268354816095
 10
568.0925301059733
 20
342.37309695977046
 10
571.4643655004038
 20
343.26338787645045
 10
571.4643626427569
 20
378.65379647106465
 10
571.4643588570243
 20
424.5106086307446
 10
571.4643553819969
 20
467.3301998829015
 10
571.4643525618985
 20
503.482742040273
 10
571.4643486520217
 20
551.2317939872987
 10
571.46459706527
 20
592.5781588860123
 10
571.46459706527
 20
625.4787286336882
 10
567.404509306416
 20
628.0746851012286
 10
565.4296029857242
 20
629.0964932565835
 10
554.1388107716502
 20
637.5954391177297
 10
554.1388107716502
 20
645.4153536608142
 10
554.1208581551618
 20
645.4383130710635
 10
550.9575734876216
 20
650.8774157624052
 10
545.3485837271974
 20
657.0522219466498
 10
544.7455136724038
 20
657.7977829436609
 10
544.1852355775254
 20
658.6004627553516
 10
540.3207320454048
 20
664.5175799133417
 10
536.4604008789693
 20
668.3072091012696
 10
533.6735781353655
 20
671.1232211201445
 10
527.5753971624354
 20
677.7567509710848
 10
526.766863725371
 20
678.2492209291217
 10
520.010198369333
 20
682.4500896284903
 10
516.9712546389264
 20
683.2989114551942
 10
509.69053951396654
 20
686.4180587270716
 10
502.9235368379241
 20
692.8710753160108
 10
500.47998020027444
 20
699.1727241985113
 10
500.15927659485897
 20
699.8785979364352
 10
499.0226910234542
 20
701.0877432750226
 10
495.03706838713697
 20
706.2779187815636
 10
490.2696586037582
 20
711.3945412012258
 10
487.96141046874527
 20
713.3277392116102
 10
486.4053793641233
 20
716.3881350509387
 10
483.8396126523003
 20
721.0785487024991
 10
481.5489734857074
 20
724.4400005831826
 10
480.0090962418262
 20
724.8228146005554
 10
474.3638761147813
 20
725.3493993055331
 10
470.6781912129318
 20
727.4886476436218
 10
463.56613468276373
 20
731.1588997977492
 10
461.1317498210865
 20
732.9913403167416
 10
453.63627576457475
 20
738.0051941796751
 10
450.972714634564
 20
740.5787482328974
 10
443.8763033192645
 20
747.1456882046446
 10
443.1946178823964
 20
747.8622058389478
 10
441.96740653183133
 20
749.2090228396451
 10
435.62069223308845
 20
757.0226732891911
 10
435.48342407249584
 20
762.8200223561903
 10
434.5699023319139
 20
764.910959826932
 10
434.2573893126655
 20
771.1406598635454
 10
433.97206210750574
 20
772.1750938690943
 10
433.08754596164454
 20
779.9845083609039
 10
433.202340311831
 20
781.1489515021635
 10
433.74061896522835
 20
786.5237754139748
 10
433.6949334919618
 20
786.9882711714085
 10
433.5047734326208
 20
793.124608356326
 10
433.35679569456624
 20
793.6396525709174
 10
431.78644193296714
 20
795.0989129071354
 10
430.71936723354975
 20
795.3695632429612
 10
424.00837389242406
 20
794.5539660759991
  0
LWPOLYLINE
  5
94
330
17
100
AcDbEntity
  8
GRABADO
100
AcDbPolyline
 90
23
 70
1
 10
235.70863103962256
 20
765.5965071602473
 10
236.97178869543495
 20
765.6740594939943
 10
245.03490397221867
 20
765.862833746593
 10
252.60038350169543
 20
759.5392533614481
 10
248.2227259040592
 20
757.1286424074938
 10
246.80014527651838
 20
752.5442234617626
 10
246.1097671324851
 20
751.7442881012762
 10
245.05315667996638
 20
750.6130696781743
 10
240.86570846328596
 20
748.6941465203568
 10
236.8568917899911
 20
745.5492815260609
 10
236.26797891870774
 20
745.177770312725
 10
235.77066273254695
 20
744.9798700973838
 10
229.32426122458583
 20
743.4257211812233
 10
226.4690314492127
 20
741.8086319172676
 10
223.40472070614487
 20
745.591672127985
 10
223.8446296697557
 20
747.555348840096
 10
224.26169592724727
 20
752.598675966266
 10
224.76169182664307
 20
753.8622170006515
 10
226.43208126161517
 20
756.7370379598874
 10
228.5400445283267
 20
758.0171655858426
 10
229.358490632354
 20
759.6048822929974
 10
232.83900489306234
 20
761.7591502501868
 10
235.70863103962256
 20
765.5965071602473
  0
LWPOLYLINE
  5
95
330
17
100
AcDbEntity
  8
GRABADO
100
AcDbPolyline
 90
348
 70
1
 10
549.9869944088059
 20
662.5185288984417
 10
550.3437205567889
 20
662.0074668385364
 10
550.6648801378615
 20
661.610424976549
 10
556.636594545932
 20
655.0363036761905
 10
559.9307275013425
 20
649.3722141912099
 10
560.9623056076061
 20
648.0529399249203
 10
561.1388107716502
 20
647.1283813641562
 10
561.1388107716502
 20
641.087801576426
 10
569.1691040662436
 20
635.043139105816
 10
570.9055762423932
 20
634.1446957657213
 10
578.46459706527
 20
629.3115763459177
 10
578.46459706527
 20
592.5781378708275
 10
578.4643486518953
 20
551.231751930573
 10
578.4643525618985
 20
503.48274261347933
 10
578.4643553819969
 20
467.3302004289403
 10
578.4643588570243
 20
424.51060919882957
 10
578.4643626427569
 20
378.65379704895304
 10
578.464365818153
 20
339.32824120283885
 10
578.4643693952257
 20
296.0259747181585
 10
578.4643743922697
 20
238.28545146299848
 10
578.4643777681522
 20
197.4822604542528
 10
578.4643808487035
 20
159.89171822457183
 10
578.4643818449395
 20
143.77981403004515
 10
578.4643830637851
 20
125.45269204497663
 10
578.4643843900158
 20
106.1004280443708
 10
578.4643845454484
 20
98.39637591995188
 10
578.4643816825146
 20
98.39637591995188
 10
578.4643817071401
 20
97.96509106435542
 10
578.4643822710732
 20
86.43570701359977
 10
578.4643817071401
 20
86.15921208711234
 10
578.4643834036797
 20
63.42253416692938
 10
578.4643851605606
 20
40.18183343301962
 10
578.4643846552271
 20
38.090721381567164
 10
578.3143849032822
 20
38.09072136820487
 10
578.3143839655495
 20
40.32436300489644
 10
578.3143820651039
 20
53.13189148351921
 10
578.3143795411406
 20
71.93661494416347
 10
578.3143775534518
 20
85.36998606453426
 10
578.3143763649941
 20
90.91747175596765
 10
578.3143759413124
 20
92.92084674086755
 10
578.3143717293415
 20
92.92084674086755
 10
578.3143691483601
 20
111.16162956393737
 10
578.3143641687266
 20
152.14039969890246
 10
578.3143563851681
 20
219.36125035013492
 10
578.3143472958927
 20
298.46709609337313
 10
578.3143427648965
 20
338.35552192169644
 10
574.8827717614258
 20
336.9260806540465
 10
569.1400066328761
 20
335.4097754278123
 10
567.6893506562892
 20
335.3510348863124
 10
559.8675449865341
 20
334.8892533940402
 10
558.9392613984737
 20
334.96091981930704
 10
550.5990488942316
 20
335.22376000795293
 10
548.8566642901915
 20
335.5732954049349
 10
541.3329052244735
 20
336.97979630493364
 10
536.4392407802497
 20
337.952367249301
 10
532.0774466952707
 20
338.1689582906133
 10
525.0629058317782
 20
339.5401152020572
 10
522.8106644356039
 20
340.2136233748438
 10
514.2921775983541
 20
341.2358590846693
 10
513.5569965972036
 20
341.3190462034113
 10
513.4259842305091
 20
341.3339492345026
 10
504.30282448410344
 20
342.55333197072514
 10
502.7395853507169
 20
342.41953392627465
 10
495.0552694610651
 20
341.5008135720568
 10
494.77592362041923
 20
341.4496942745923
 10
493.79380071908963
 20
341.23678940485615
 10
487.3550807178517
 20
340.06691095185533
 10
485.8014262854722
 20
339.6309682685337
 10
480.2425683404708
 20
338.4521923686448
 10
476.5456711181705
 20
337.2907068743684
 10
473.7277330333336
 20
336.3834647209792
 10
467.26094655296765
 20
335.3908392710796
 10
465.24057886141964
 20
335.77931634063816
 10
457.9857377695125
 20
336.41430902157344
 10
452.5700508557238
 20
338.3384748362937
 10
448.7170663404395
 20
339.78623811060834
 10
443.97118678148945
 20
341.23970960593533
 10
439.4390187945637
 20
343.1253017150125
 10
434.09374061797644
 20
348.22504263469773
 10
430.17181354774857
 20
351.5013969094621
 10
425.8098690668767
 20
355.2090459162214
 10
424.559168080983
 20
359.43272091551853
 10
423.1995285342091
 20
362.2130665219297
 10
424.1969075086736
 20
366.720598045275
 10
424.9602762464474
 20
369.2258999444325
 10
426.7240633383544
 20
371.8162007001479
 10
429.1917093613192
 20
376.2039854038335
 10
429.53104484677715
 20
376.68385462813103
 10
430.16431058347007
 20
377.43099418713655
 10
433.3499852023988
 20
380.78253267811715
 10
435.0361508349688
 20
383.1736360792506
 10
436.2741818007553
 20
385.5465599974518
 10
439.4293729932406
 20
388.76191724100363
 10
440.2993426277935
 20
389.51126009831614
 10
441.14061045408835
 20
390.16637521313123
 10
445.1858565172424
 20
392.7940854064241
 10
447.8869751439124
 20
397.11806805656715
 10
448.1664926986641
 20
397.49887830799025
 10
448.675692543954
 20
398.5509251979797
 10
451.06595840146656
 20
402.28538835055997
 10
451.9969634400313
 20
404.07953921596027
 10
453.514680356845
 20
407.3880746926384
 10
453.8147566853877
 20
411.02663364003047
 10
454.27881801378044
 20
413.794963363232
 10
457.20436335208524
 20
418.04087383124124
 10
457.58770690609254
 20
418.3240187474071
 10
457.9600682078062
 20
418.6321503281838
 10
462.9654851914047
 20
421.2520821625817
 10
467.16287161604123
 20
425.0141191632024
 10
467.17416620493077
 20
425.0246143782292
 10
467.19538381509483
 20
425.0676731133285
 10
469.75121461670824
 20
430.04068921214684
 10
470.7660204152844
 20
431.9535110527481
 10
471.36650387421105
 20
435.76282161458084
 10
471.5617121225805
 20
438.90869228906877
 10
472.1134319945677
 20
442.17600881894987
 10
472.72892776435674
 20
445.8711639341477
 10
472.22921501208384
 20
449.04538331860795
 10
472.7938031524318
 20
452.8445400067508
 10
472.6007184072605
 20
455.7429389178401
 10
473.53174933217633
 20
459.83591524671147
 10
474.26595156873645
 20
461.49584124149305
 10
476.4569050532855
 20
465.08386231168834
 10
477.0637215286406
 20
466.3571120681304
 10
477.2851356298361
 20
466.82169314308385
 10
480.31071539363256
 20
470.9036899444977
 10
482.6572950498694
 20
473.8059734352978
 10
484.08237091518276
 20
475.03615644745196
 10
485.7169883870065
 20
478.21353970484734
 10
486.6791348947836
 20
480.0357737782092
 10
487.0704662326534
 20
480.75654062415606
 10
488.935296521061
 20
485.3003206465296
 10
490.03111551141683
 20
487.73280510047107
 10
491.78256249558854
 20
490.14517317219406
 10
494.641349521914
 20
494.7099282560889
 10
494.7827402939065
 20
494.8783411164336
 10
494.9928380907095
 20
495.0346769077655
 10
498.48167099182956
 20
499.0315264758824
 10
499.05369434170916
 20
501.6519236995259
 10
499.74752339721
 20
505.01993132486086
 10
499.92480445826004
 20
508.60871717679356
 10
499.90595641951404
 20
511.86909180823795
 10
500.67757720110785
 20
515.5880735806081
 10
500.855152176262
 20
518.1406447990989
 10
503.3081783155758
 20
522.5705170842034
 10
503.35872123373883
 20
523.2249704720912
 10
504.2366043798211
 20
525.0328208723599
 10
505.7405615957023
 20
528.4116501606945
 10
506.0734046262023
 20
529.5019475552767
 10
504.255646398944
 20
531.6483193770796
 10
496.07222373075547
 20
536.4472969707208
 10
496.17177706503753
 20
542.583665546987
 10
496.9395184712894
 20
543.4872756803484
 10
496.7932584764849
 20
549.0530804597342
 10
496.6421144289907
 20
550.4045107986271
 10
494.9724174189114
 20
552.8626080417639
 10
494.2944460623539
 20
557.3858144710107
 10
494.095862956573
 20
558.0660239955891
 10
494.993294404534
 20
559.4677341317606
 10
499.19968288288874
 20
561.2770196105553
 10
502.5675285961388
 20
564.4185193349135
 10
503.0160499103067
 20
565.2977644583793
 10
502.231275975083
 20
571.3426774193254
 10
502.38743069928296
 20
572.7364104445255
 10
502.69279518892927
 20
578.3245493649915
 10
502.92451122923285
 20
579.3372244249772
 10
504.2419459001567
 20
580.7767287742749
 10
505.85291285506264
 20
584.0852422054745
 10
505.9813934584172
 20
585.2907925573331
 10
506.28418230430634
 20
590.7102791765969
 10
506.2538232130746
 20
592.2618442024664
 10
507.1671434177697
 20
597.0249567831902
 10
507.31205025180134
 20
599.2378504901048
 10
508.29457925513634
 20
603.1495834241919
 10
508.51711838591837
 20
606.188291080955
 10
507.0204103491824
 20
611.0721412155049
 10
508.2928928152978
 20
613.1660245007056
 10
504.27667570610265
 20
619.2888781374118
 10
499.0668626818151
 20
617.0441448257848
 10
495.01159873332017
 20
617.3053211157153
 10
492.1348802591747
 20
620.1250414608871
 10
493.01034005743804
 20
621.6679601616984
 10
495.0219840642294
 20
623.839858154392
 10
502.9512955500386
 20
621.2370498765154
 10
504.25525265919623
 20
621.5779122301815
 10
506.44995086399376
 20
625.4486757545033
 10
506.15736705440304
 20
627.0995134526461
 10
505.70911759014143
 20
632.9689008431465
 10
505.8849547708678
 20
634.0732598713389
 10
504.23311953683697
 20
639.0212159040789
 10
503.67783812277685
 20
641.0210909458406
 10
503.254337663996
 20
641.755465421948
 10
499.9917868935572
 20
647.9916200208977
 10
498.580483347122
 20
652.2556457252354
 10
497.9962898796357
 20
654.9778359172428
 10
497.131910103255
 20
660.319968248476
 10
496.6976313963323
 20
661.9412021830199
 10
494.99622478300444
 20
667.249704595893
 10
490.13018093846676
 20
665.5863517335588
 10
485.78097196900853
 20
666.6103450014066
 10
480.61447912679705
 20
665.7845984740165
 10
476.5497412929153
 20
665.588396552263
 10
474.0941193698118
 20
663.7510561176846
 10
468.9110454528691
 20
661.8929308127076
 10
467.8980268281157
 20
661.4204001178091
 10
467.251103202193
 20
661.4382905827192
 10
465.6683730143468
 20
661.8910339948075
 10
457.9729023052687
 20
664.7357980309857
 10
449.2923644521052
 20
668.8657129419639
 10
448.7180308170955
 20
669.1516830041714
 10
448.2269395207959
 20
669.2349124800653
 10
439.4620005991237
 20
671.6545655291288
 10
433.9437875094818
 20
673.0145128937124
 10
430.19706435951866
 20
673.9894080666004
 10
425.5320876485639
 20
675.8361094906581
 10
420.9228715414338
 20
678.5282395975978
 10
412.9748634520929
 20
682.8109848625686
 10
411.65967839985206
 20
683.7763916693461
 10
407.7750122316611
 20
685.7354217035431
 10
402.3988268002522
 20
688.7817607294442
 10
400.9214816375461
 20
689.7863034589432
 10
394.6218739326223
 20
695.6355755409108
 10
393.39072594296704
 20
696.7619903570717
 10
393.1159700678927
 20
697.04297559614
 10
389.7964696450017
 20
703.7472859423401
 10
385.6429544823668
 20
709.369370910586
 10
384.8177810888401
 20
710.7096055337356
 10
383.86497150167816
 20
711.6119370367637
 10
377.71902982400024
 20
717.6728291983959
 10
374.6153915993218
 20
720.3554485101808
 10
365.65005475449107
 20
724.6291004132868
 10
365.3676378824157
 20
724.7253129587539
 10
365.015251548637
 20
724.8934407147058
 10
356.1054982219812
 20
728.9471273457634
 10
349.847617771572
 20
731.6002458025091
 10
346.83489962426574
 20
732.8661018108673
 10
340.1833748623112
 20
738.5904789698311
 10
337.5497634031635
 20
742.7395178878364
 10
336.0321855092516
 20
745.5672233783466
 10
332.80487831848404
 20
749.1401886706849
 10
330.50363877678774
 20
752.5284922091882
 10
328.31471468600466
 20
754.1206874252753
 10
321.7806532228269
 20
757.4368593060603
 10
319.06691486983436
 20
758.7925053504246
 10
316.3534260338356
 20
759.4794592391031
 10
309.82368459169084
 20
761.1743654517463
 10
307.62957806184386
 20
761.136399926439
 10
300.57005279826353
 20
761.0142355789508
 10
298.3087513102373
 20
761.1746658884817
 10
291.29914721056684
 20
762.3139369104097
 10
286.4191811932542
 20
763.1509182012455
 10
282.03613013257745
 20
763.9523794244674
 10
273.7546558858303
 20
765.7159893153707
 10
272.78452814747743
 20
765.7069281691497
 10
267.7760791335659
 20
766.5066530816162
 10
267.7757395323006
 20
766.5205043898209
 10
271.76467866487747
 20
767.3597300691658
 10
272.773047742523
 20
767.4750726469015
 10
278.24147703741437
 20
769.4255766568426
 10
282.009142540669
 20
772.9371973001848
 10
282.52559696732715
 20
773.1580936357936
 10
282.786014668216
 20
773.5576697333986
 10
288.9106616843328
 20
775.3526019753049
 10
291.2970919250365
 20
776.346651044681
 10
296.980634518578
 20
776.2544065436509
 10
300.5238535300259
 20
778.8172301579666
 10
301.5248604655244
 20
779.7800278070376
 10
303.4174485174117
 20
780.5366675908713
 10
308.58546413022486
 20
781.4726411028191
 10
309.83024508829294
 20
781.4826858512374
 10
317.28454982938
 20
781.895139146211
 10
319.0817106741624
 20
782.1299123174017
 10
324.8524399343196
 20
783.1625078029497
 10
328.3503275819021
 20
783.9208854366839
 10
334.0064631332516
 20
783.2557949224442
 10
337.6108375460153
 20
783.6590127596241
 10
342.81469401967297
 20
783.5939857823892
 10
346.86020544677194
 20
783.8688818885989
 10
350.1973440593929
 20
784.9828393382227
 10
355.5741576419787
 20
787.5028517066316
 10
355.9077464068605
 20
787.6590434699433
 10
356.1225715827013
 20
787.7098486584105
 10
363.8825190989137
 20
788.6321583976173
 10
365.36114197227744
 20
789.291193169222
 10
369.1785724771853
 20
791.6037896050489
 10
374.63246622388306
 20
793.3237064620585
 10
375.65581439987
 20
793.7028893639185
 10
377.53320230494774
 20
794.4757915393279
 10
381.8966797759167
 20
795.9793021604196
 10
383.89475072325695
 20
796.649879097085
 10
388.4918704701586
 20
797.9770102656216
 10
393.1451443047845
 20
801.1880027293341
 10
393.3986879323502
 20
801.263127036194
 10
393.88499241573754
 20
801.4485965133931
 10
400.6096637011524
 20
802.8144070970989
 10
402.4344757004119
 20
803.2273167847666
 10
410.6267101523281
 20
802.2593607184122
 10
411.6996901475013
 20
802.3703070094075
 10
419.28837911988194
 20
801.4501734456267
 10
420.9606421864719
 20
801.0151203046485
 10
421.38766727311486
 20
801.113805679011
 10
422.7308528643498
 20
801.4502122086801
 10
429.16034992846926
 20
802.2315987075085
 10
430.21301693704027
 20
802.7196456915749
 10
435.24119534621786
 20
801.4443102574401
 10
439.5472831732068
 20
797.4428531820627
 10
440.4157944373974
 20
794.419954550091
 10
440.4900725222569
 20
793.7074329474112
 10
440.6843020092665
 20
787.4397780693466
 10
440.77500970072197
 20
786.5175300365431
 10
440.1680389332032
 20
780.4568011288743
 10
440.1265156761074
 20
780.0356003306683
 10
440.86587575729845
 20
773.5077722523006
 10
441.2100381350856
 20
772.2600354064084
 10
441.4969692315635
 20
766.540290780938
 10
442.4488880847148
 20
764.3614671024884
 10
442.56211417466784
 20
759.5795048170344
 10
447.2754846112057
 20
753.776718162902
 10
448.31803333639164
 20
752.632561252612
 10
448.7942074334733
 20
752.1320560061963
 10
455.78243853952335
 20
745.6652247948791
 10
458.049357706519
 20
743.4749093766163
 10
465.1857606274634
 20
738.7012444845946
 10
467.30266805386236
 20
737.1077795382112
 10
474.0422989083436
 20
733.6297216014159
 10
476.54657895159835
 20
732.1761852673812
 10
481.1852243107587
 20
731.7434936020477
 10
485.82961595829784
 20
730.588896226242
 10
489.8167449235698
 20
724.7378908150436
 10
492.59728603744406
 20
719.6548534760882
 10
493.5527676901838
 20
717.7756159300566
 10
495.09602205076953
 20
716.4831135278469
 10
500.38584296839053
 20
710.8058133726422
 10
504.3620778114546
 20
705.6278628806208
 10
506.0531455531009
 20
703.828837159645
 10
506.9349259899982
 20
701.8880243888821
 10
508.88514314017357
 20
696.85864077007
 10
513.6076525593953
 20
692.3552538079889
 10
519.3012958815161
 20
689.9160274778228
 10
522.8567412467692
 20
688.9229391229833
 10
530.4356328436079
 20
684.2108619654814
 10
532.1285689716115
 20
683.1797108148944
 10
532.4738807997583
 20
682.9263602284777
 10
532.7649848730771
 20
682.4547346543945
 10
538.7396893527821
 20
675.9555210868407
 10
541.400288100238
 20
673.2670551384995
 10
545.7663352156023
 20
668.9809721909755
 10
549.9869944088059
 20
662.5185288984417
  0
TEXT
  5
96
330
17
100
AcDbEntity
  8
GRABADO
100
AcDbText
 10
456.2090234068842
 20
409.4748269232796
 30
0.0
 40
6.0
  1
83a
 72
1
 11
456.2090234068842
 21
409.4748269232796
 31
0.0
100
AcDbText
 73
2
  0
TEXT
  5
97
330
17
100
AcDbEntity
  8
HOJA
100
AcDbText
 10
10.0
 20
891.0
 30
0.0
 40
6.0
  1
gale_crater  hoja 30/39  1:30  lamina 3.0mm
 11
10.0
 21
891.0
 31
0.0
100
AcDbText
  0
ENDSEC
  0
SECTION
  2
OBJECTS
  0
DICTIONARY
  5
A
330
0
100
AcDbDictionary
281
1
  3
ACAD_COLOR
350
B
  3
ACAD_GROUP
350
C
  3
ACAD_LAYOUT
350
D
  3
ACAD_MATERIAL
350
E
  3
ACAD_MLEADERSTYLE
350
F
  3
ACAD_MLINESTYLE
350
10
  3
ACAD_PLOTSETTINGS
350
11
  3
ACAD_PLOTSTYLENAME
350
12
  3
ACAD_SCALELIST
350
14
  3
ACAD_TABLESTYLE
350
15
  3
ACAD_VISUALSTYLE
350
16
  3
EZDXF_META
350
2D
  0
DICTIONARY
  5
B
330
A
100
AcDbDictionary
281
1
  0
DICTIONARY
  5
C
330
A
100
AcDbDictionary
281
1
  0
DICTIONARY
  5
D
330
A
100
AcDbDictionary
281
1
  3
Model
350
1A
  3
Layout1
350
1E
  0
DICTIONARY
  5
E
330
A
100
AcDbDictionary
281
1
  3
ByBlock
350
1F
  3
ByLayer
350
20
  3
Global
350
21
  0
DICTIONARY
  5
F
330
A
100
AcDbDictionary
281
1
  3
Standard
350
2C
  0
DICTIONARY
  5
10
330
A
100
AcDbDictionary
281
1
  3
Standard
350
22
  0
DICTIONARY
  5
11
330
A
100
AcDbDictionary
281
1
  0
ACDBDICTIONARYWDFLT
  5
12
330
A
100
AcDbDictionary
281
1
  3
Normal
350
13
100
AcDbDictionaryWithDefault
340
13
  0
ACDBPLACEHOLDER
  5
13
330
12
  0
DICTIONARY
  5
14
330
A
100
AcDbDictionary
281
1
  0
DICTIONARY
  5
15
330
A
100
AcDbDictionary
281
1
  0
DICTIONARY
  5
16
330
A
100
AcDbDictionary
281
1
  3
2dWireframe
350
5A
  3
Basic
350
5B
  3
Brighten
350
5C
  3
ColorChange
350
5D
  3
Conceptual
350
5E
  3
Dim
350
5F
  3
EdgeColorOff
350
60
  3
Facepattern
350
61
  3
Flat
350
62
  3
FlatWithEdges
350
63
  3
Gouraud
350
64
  3
GouraudWithEdges
350
65
  3
Hidden
350
66
  3
JitterOff
350
67
  3
Linepattern
350
68
  3
Modeling
350
69
  3
OverhangOff
350
6A
  3
Realistic
350
6B
  3
Shaded
350
6C
  3
Shaded with edges
350
6D
  3
Shades of Gray
350
6E
  3
Sketchy
350
6F
  3
Thicken
350
70
  3
Wireframe
350
71
  3
X-Ray
350
72
  0
LAYOUT
  5
1A
330
D
100
AcDbPlotSettings
  1

  4
A3
  6

 40
7.5
 41
20.0
 42
7.5
 43
20.0
 44
420.0
 45
297.0
 46
0.0
 47
0.0
 48
0.0
 49
0.0
140
0.0
141
0.0
142
1.0
143
1.0
 70
1024
 72
1
 73
0
 74
5
  7

 75
16
 76
0
 77
2
 78
300
147
1.0
148
0.0
149
0.0
100
AcDbLayout
  1
Model
 70
1
 71
0
 10
0.0
 20
0.0
 11
420.0
 21
297.0
 12
0.0
 22
0.0
 32
0.0
 14
1e+20
 24
1e+20
 34
1e+20
 15
-1e+20
 25
-1e+20
 35
-1e+20
146
0.0
 13
0.0
 23
0.0
 33
0.0
 16
1.0
 26
0.0
 36
0.0
 17
0.0
 27
1.0
 37
0.0
 76
1
330
17
  0
LAYOUT
  5
1E
330
D
100
AcDbPlotSettings
  1

  4
A3
  6

 40
7.5
 41
20.0
 42
7.5
 43
20.0
 44
420.0
 45
297.0
 46
0.0
 47
0.0
 48
0.0
 49
0.0
140
0.0
141
0.0
142
1.0
143
1.0
 70
0
 72
1
 73
0
 74
5
  7

 75
16
 76
0
 77
2
 78
300
147
1.0
148
0.0
149
0.0
100
AcDbLayout
  1
Layout1
 70
1
 71
1
 10
0.0
 20
0.0
 11
420.0
 21
297.0
 12
0.0
 22
0.0
 32
0.0
 14
1e+20
 24
1e+20
 34
1e+20
 15
-1e+20
 25
-1e+20
 35
-1e+20
146
0.0
 13
0.0
 23
0.0
 33
0.0
 16
1.0
 26
0.0
 36
0.0
 17
0.0
 27
1.0
 37
0.0
 76
1
330
1B
  0
MATERIAL
  5
1F
102
{ACAD_REACTORS
330
E
102
}
330
E
100
AcDbMaterial
  1
ByBlock
  2

 70
0
 40
1.0
 71
1
 41
1.0
 91
-1023410177
 42
1.0
 72
1
  3

 73
1
 74
1
 75
1
 44
0.5
 73
0
 45
1.0
 46
1.0
 77
1
  4

 78
1
 79
1
170
1
 48
1.0
171
1
  6

172
1
173
1
174
1
140
1.0
141
1.0
175
1
  7

176
1
177
1
178
1
143
1.0
179
1
  8

270
1
271
1
272
1
145
1.0
146
1.0
273
1
  9

274
1
275
1
276
1
 42
1.0
 72
1
  3

 73
1
 74
1
 75
1
 94
63
  0
MATERIAL
  5
20
102
{ACAD_REACTORS
330
E
102
}
330
E
100
AcDbMaterial
  1
ByLayer
  2

 70
0
 40
1.0
 71
1
 41
1.0
 91
-1023410177
 42
1.0
 72
1
  3

 73
1
 74
1
 75
1
 44
0.5
 73
0
 45
1.0
 46
1.0
 77
1
  4

 78
1
 79
1
170
1
 48
1.0
171
1
  6

172
1
173
1
174
1
140
1.0
141
1.0
175
1
  7

176
1
177
1
178
1
143
1.0
179
1
  8

270
1
271
1
272
1
145
1.0
146
1.0
273
1
  9

274
1
275
1
276
1
 42
1.0
 72
1
  3

 73
1
 74
1
 75
1
 94
63
  0
MATERIAL
  5
21
102
{ACAD_REACTORS
330
E
102
}
330
E
100
AcDbMaterial
  1
Global
  2

 70
0
 40
1.0
 71
1
 41
1.0
 91
-1023410177
 42
1.0
 72
1
  3

 73
1
 74
1
 75
1
 44
0.5
 73
0
 45
1.0
 46
1.0
 77
1
  4

 78
1
 79
1
170
1
 48
1.0
171
1
  6

172
1
173
1
174
1
140
1.0
141
1.0
175
1
  7

176
1
177
1
178
1
143
1.0
179
1
  8

270
1
271
1
272
1
145
1.0
146
1.0
273
1
  9

274
1
275
1
276
1
 42
1.0
 72
1
  3

 73
1
 74
1
 75
1
 94
63
  0
MLINESTYLE
  5
22
102
{ACAD_REACTORS
330
10
102
}
330
10
100
AcDbMlineStyle
  2
Standard
 70
0
  3

 62
256
 51
90.0
 52
90.0
 71
2
 49
0.5
 62
256
  6
BYLAYER
 49
-0.5
 62
256
  6
BYLAYER
  0
MLEADERSTYLE
  5
2C
102
{ACAD_REACTORS
330
F
102
}
330
F
100
AcDbMLeaderStyle
179
2
170
2
171
1
172
0
 90
2
 40
0.0
 41
0.0
173
1
 91
-1056964608
 92
-2
290
1
 42
2.0
291
1
 43
8.0
  3
Standard
 44
4.0
300

342
29
174
1
175
1
176
0
178
1
 93
-1056964608
 45
4.0
292
0
297
0
 46
4.0
 94
-1056964608
 47
1.0
 49
1.0
140
1.0
294
1
141
0.0
177
0
142
1.0
295
0
296
0
143
3.75
271
0
272
9
273
9
  0
DICTIONARY
  5
2D
330
A
100
AcDbDictionary
280
1
281
1
  3
CREATED_BY_EZDXF
350
2E
  3
WRITTEN_BY_EZDXF
350
9A
  0
DICTIONARYVAR
  5
2E
330
2D
100
DictionaryVariables
280
0
  1
1.4.2 @ 2026-09-06T16:30:42.654462+00:00
  0
VISUALSTYLE
  5
5A
102
{ACAD_REACTORS
330
16
102
}
330
16
100
AcDbVisualStyle
  2
2dWireframe
 70
4
 90
0
 40
0.6
 62
7
290
0
291
0
  0
VISUALSTYLE
  5
5B
102
{ACAD_REACTORS
330
16
102
}
330
16
100
AcDbVisualStyle
  2
Basic
 70
7
 90
1
 40
0.6
 62
7
290
0
291
1
  0
VISUALSTYLE
  5
5C
102
{ACAD_REACTORS
330
16
102
}
330
16
100
AcDbVisualStyle
  2
Brighten
 70
12
 90
2
 40
0.6
 62
7
290
0
291
1
  0
VISUALSTYLE
  5
5D
102
{ACAD_REACTORS
330
16
102
}
330
16
100
AcDbVisualStyle
  2
ColorChange
 70
16
 90
2
 40
0.6
 62
8
290
0
291
1
  0
VISUALSTYLE
  5
5E
102
{ACAD_REACTORS
330
16
102
}
330
16
100
AcDbVisualStyle
  2
Conceptual
 70
9
 90
3
 40
0.6
 62
7
290
0
291
0
  0
VISUALSTYLE
  5
5F
102
{ACAD_REACTORS
330
16
102
}
330
16
100
AcDbVisualStyle
  2
Dim
 70
11
 90
2
 40
0.6
 62
7
290
0
291
1
  0
VISUALSTYLE
  5
60
102
{ACAD_REACTORS
330
16
102
}
330
16
100
AcDbVisualStyle
  2
EdgeColorOff
 70
22
 90
2
 40
0.6
 62
7
290
0
291
1
  0
VISUALSTYLE
  5
61
102
{ACAD_REACTORS
330
16
102
}
330
16
100
AcDbVisualStyle
  2
Facepattern
 70
15
 90
2
 40
0.6
 62
7
290
0
291
1
  0
VISUALSTYLE
  5
62
102
{ACAD_REACTORS
330
16
102
}
330
16
100
AcDbVisualStyle
  2
Flat
 70
0
 90
2
 40
0.6
 62
7
290
0
291
1
  0
VISUALSTYLE
  5
63
102
{ACAD_REACTORS
330
16
102
}
330
16
100
AcDbVisualStyle
  2
FlatWithEdges
 70
1
 90
2
 40
0.6
 62
7
290
0
291
1
  0
VISUALSTYLE
  5
64
102
{ACAD_REACTORS
330
16
102
}
330
16
100
AcDbVisualStyle
  2
Gouraud
 70
2
 90
2
 40
0.6
 62
7
290
0
291
1
  0
VISUALSTYLE
  5
65
102
{ACAD_REACTORS
330
16
102
}
330
16
100
AcDbVisualStyle
  2
GouraudWithEdges
 70
3
 90
2
 40
0.6
 62
7
290
0
291
1
  0
VISUALSTYLE
  5
66
102
{ACAD_REACTORS
330
16
102
}
330
16
100
AcDbVisualStyle
  2
Hidden
 70
6
 90
1
 40
0.6
 62
7
290
0
291
0
  0
VISUALSTYLE
  5
67
102
{ACAD_REACTORS
330
16
102
}
330
16
100
AcDbVisualStyle
  2
JitterOff
 70
20
 90
2
 40
0.6
 62
7
290
0
291
1
  0
VISUALSTYLE
  5
68
102
{ACAD_REACTORS
330
16
102
}
330
16
100
AcDbVisualStyle
  2
Linepattern
 70
14
 90
2
 40
0.6
 62
7
290
0
291
1
  0
VISUALSTYLE
  5
69
102
{ACAD_REACTORS
330
16
102
}
330
16
100
AcDbVisualStyle
  2
Modeling
 70
10
 90
2
 40
0.6
 62
7
290
0
291
0
  0
VISUALSTYLE
  5
6A
102
{ACAD_REACTORS
330
16
102
}
330
16
100
AcDbVisualStyle
  2
OverhangOff
 70
21
 90
2
 40
0.6
 62
7
290
0
291
1
  0
VISUALSTYLE
  5
6B
102
{ACAD_REACTORS
330
16
102
}
330
16
100
AcDbVisualStyle
  2
Realistic
 70
8
 90
2
 40
0.6
 62
7
290
0
291
0
  0
VISUALSTYLE
  5
6C
102
{ACAD_REACTORS
330
16
102
}
330
16
100
AcDbVisualStyle
  2
Shaded
 70
27
 90
2
 40
0.6
 62
7
290
0
291
0
  0
VISUALSTYLE
  5
6D
102
{ACAD_REACTORS
330
16
102
}
330
16
100
AcDbVisualStyle
  2
Shaded with edges
 70
26
 90
2
 40
0.6
 62
7
290
0
291
0
  0
VISUALSTYLE
  5
6E
102
{ACAD_REACTORS
330
16
102
}
330
16
100
AcDbVisualStyle
  2
Shades of Gray
 70
23
 90
2
 40
0.6
 62
7
290
0
291
0
  0
VISUALSTYLE
  5
6F
102
{ACAD_REACTORS
330
16
102
}
330
16
100
AcDbVisualStyle
  2
Sketchy
 70
24
 90
1
 40
0.6
 62
7
290
0
291
0
  0
VISUALSTYLE
  5
70
102
{ACAD_REACTORS
330
16
102
}
330
16
100
AcDbVisualStyle
  2
Thicken
 70
13
 90
2
 40
0.6
 62
7
290
0
291
1
  0
VISUALSTYLE
  5
71
102
{ACAD_REACTORS
330
16
102
}
330
16
100
AcDbVisualStyle
  2
Wireframe
 70
5
 90
0
 40
0.6
 62
7
290
0
291
0
  0
VISUALSTYLE
  5
72
102
{ACAD_REACTORS
330
16
102
}
330
16
100
AcDbVisualStyle
  2
X-Ray
 70
25
 90
2
 40
0.5
 62
7
290
0
291
0
  0
DICTIONARYVAR
  5
9A
330
2D
100
DictionaryVariables
280
0
  1
1.4.2 @ 2026-09-06T16:30:42.664924+00:00
  0
ENDSEC
  0
EOF
