  0
SECTION
  2
HEADER
  9
$ACADVER
  1
AC1024
  9
$ACADMAINTVER
 70
6
  9
$DWGCODEPAGE
  3
ANSI_1252
  9
$LASTSAVEDBY
  1
ezdxf
  9
$INSBASE
 10
0.0
 20
0.0
 30
0.0
  9
$EXTMIN
 10
1e+20
 20
1e+20
 30
1e+20
  9
$EXTMAX
 10
-1e+20
 20
-1e+20
 30
-1e+20
  9
$LIMMIN
 10
0.0
 20
0.0
  9
$LIMMAX
 10
420.0
 20
297.0
  9
$ORTHOMODE
 70
0
  9
$REGENMODE
 70
1
  9
$FILLMODE
 70
1
  9
$QTEXTMODE
 70
0
  9
$MIRRTEXT
 70
1
  9
$LTSCALE
 40
1.0
  9
$ATTMODE
 70
1
  9
$TEXTSIZE
 40
2.5
  9
$TRACEWID
 40
1.0
  9
$TEXTSTYLE
  7
OpenSans
  9
$CLAYER
  8
0
  9
$CELTYPE
  6
ByLayer
  9
$CECOLOR
 62
256
  9
$CELTSCALE
 40
1.0
  9
$DISPSILH
 70
0
  9
$DIMSCALE
 40
1.0
  9
$DIMASZ
 40
0.175
  9
$DIMEXO
 40
0.125
  9
$DIMDLI
 40
3.75
  9
$DIMRND
 40
0.0
  9
$DIMDLE
 40
0.0
  9
$DIMEXE
 40
0.375
  9
$DIMTP
 40
0.0
  9
$DIMTM
 40
0.0
  9
$DIMTXT
 40
0.25
  9
$DIMCEN
 40
2.5
  9
$DIMTSZ
 40
0.0
  9
$DIMTOL
 70
0
  9
$DIMLIM
 70
0
  9
$DIMTIH
 70
0
  9
$DIMTOH
 70
0
  9
$DIMSE1
 70
0
  9
$DIMSE2
 70
0
  9
$DIMTAD
 70
1
  9
$DIMZIN
 70
12
  9
$DIMBLK
  1
ARCHTICK
  9
$DIMASO
 70
1
  9
$DIMSHO
 70
1
  9
$DIMPOST
  1

  9
$DIMAPOST
  1

  9
$DIMALT
 70
0
  9
$DIMALTD
 70
3
  9
$DIMALTF
 40
0.03937007874
  9
$DIMLFAC
 40
100.0
  9
$DIMTOFL
 70
1
  9
$DIMTVP
 40
0.0
  9
$DIMTIX
 70
0
  9
$DIMSOXD
 70
0
  9
$DIMSAH
 70
0
  9
$DIMBLK1
  1

  9
$DIMBLK2
  1

  9
$DIMSTYLE
  2
EZDXF
  9
$DIMCLRD
 70
0
  9
$DIMCLRE
 70
0
  9
$DIMCLRT
 70
0
  9
$DIMTFAC
 40
0.5
  9
$DIMGAP
 40
0.1
  9
$DIMJUST
 70
0
  9
$DIMSD1
 70
0
  9
$DIMSD2
 70
0
  9
$DIMTOLJ
 70
0
  9
$DIMTZIN
 70
8
  9
$DIMALTZ
 70
0
  9
$DIMALTTZ
 70
0
  9
$DIMUPT
 70
1
  9
$DIMDEC
 70
2
  9
$DIMTDEC
 70
2
  9
$DIMALTU
 70
2
  9
$DIMALTTD
 70
3
  9
$DIMTXSTY
  7
OpenSansCondensed-Light
  9
$DIMAUNIT
 70
0
  9
$DIMADEC
 70
2
  9
$DIMALTRND
 40
0.0
  9
$DIMAZIN
 70
3
  9
$DIMDSEP
 70
46
  9
$DIMATFIT
 70
3
  9
$DIMFRAC
 70
0
  9
$DIMLDRBLK
  1

  9
$DIMLUNIT
 70
2
  9
$DIMLWD
 70
-2
  9
$DIMLWE
 70
-2
  9
$DIMTMOVE
 70
2
  9
$DIMFXL
 40
1.0
  9
$DIMFXLON
 70
0
  9
$DIMJOGANG
 40
0.785398163397
  9
$DIMTFILL
 70
0
  9
$DIMTFILLCLR
 70
0
  9
$DIMARCSYM
 70
0
  9
$DIMLTYPE
  6

  9
$DIMLTEX1
  6

  9
$DIMLTEX2
  6

  9
$DIMTXTDIRECTION
 70
0
  9
$LUNITS
 70
2
  9
$LUPREC
 70
4
  9
$SKETCHINC
 40
1.0
  9
$FILLETRAD
 40
10.0
  9
$AUNITS
 70
0
  9
$AUPREC
 70
2
  9
$MENU
  1
.
  9
$ELEVATION
 40
0.0
  9
$PELEVATION
 40
0.0
  9
$THICKNESS
 40
0.0
  9
$LIMCHECK
 70
0
  9
$CHAMFERA
 40
0.0
  9
$CHAMFERB
 40
0.0
  9
$CHAMFERC
 40
0.0
  9
$CHAMFERD
 40
0.0
  9
$SKPOLY
 70
0
  9
$TDCREATE
 40
2461290.4379861113
  9
$TDUCREATE
 40
2458532.153996898
  9
$TDUPDATE
 40
2461290.4379861113
  9
$TDUUPDATE
 40
2458532.1544311
  9
$TDINDWG
 40
0.0
  9
$TDUSRTIMER
 40
0.0
  9
$USRTIMER
 70
1
  9
$ANGBASE
 50
0.0
  9
$ANGDIR
 70
0
  9
$PDMODE
 70
0
  9
$PDSIZE
 40
0.0
  9
$PLINEWID
 40
0.0
  9
$SPLFRAME
 70
0
  9
$SPLINETYPE
 70
6
  9
$SPLINESEGS
 70
8
  9
$HANDSEED
  5
9A
  9
$SURFTAB1
 70
6
  9
$SURFTAB2
 70
6
  9
$SURFTYPE
 70
6
  9
$SURFU
 70
6
  9
$SURFV
 70
6
  9
$UCSBASE
  2

  9
$UCSNAME
  2

  9
$UCSORG
 10
0.0
 20
0.0
 30
0.0
  9
$UCSXDIR
 10
1.0
 20
0.0
 30
0.0
  9
$UCSYDIR
 10
0.0
 20
1.0
 30
0.0
  9
$UCSORTHOREF
  2

  9
$UCSORTHOVIEW
 70
0
  9
$UCSORGTOP
 10
0.0
 20
0.0
 30
0.0
  9
$UCSORGBOTTOM
 10
0.0
 20
0.0
 30
0.0
  9
$UCSORGLEFT
 10
0.0
 20
0.0
 30
0.0
  9
$UCSORGRIGHT
 10
0.0
 20
0.0
 30
0.0
  9
$UCSORGFRONT
 10
0.0
 20
0.0
 30
0.0
  9
$UCSORGBACK
 10
0.0
 20
0.0
 30
0.0
  9
$PUCSBASE
  2

  9
$PUCSNAME
  2

  9
$PUCSORG
 10
0.0
 20
0.0
 30
0.0
  9
$PUCSXDIR
 10
1.0
 20
0.0
 30
0.0
  9
$PUCSYDIR
 10
0.0
 20
1.0
 30
0.0
  9
$PUCSORTHOREF
  2

  9
$PUCSORTHOVIEW
 70
0
  9
$PUCSORGTOP
 10
0.0
 20
0.0
 30
0.0
  9
$PUCSORGBOTTOM
 10
0.0
 20
0.0
 30
0.0
  9
$PUCSORGLEFT
 10
0.0
 20
0.0
 30
0.0
  9
$PUCSORGRIGHT
 10
0.0
 20
0.0
 30
0.0
  9
$PUCSORGFRONT
 10
0.0
 20
0.0
 30
0.0
  9
$PUCSORGBACK
 10
0.0
 20
0.0
 30
0.0
  9
$USERI1
 70
0
  9
$USERI2
 70
0
  9
$USERI3
 70
0
  9
$USERI4
 70
0
  9
$USERI5
 70
0
  9
$USERR1
 40
0.0
  9
$USERR2
 40
0.0
  9
$USERR3
 40
0.0
  9
$USERR4
 40
0.0
  9
$USERR5
 40
0.0
  9
$WORLDVIEW
 70
1
  9
$SHADEDGE
 70
3
  9
$SHADEDIF
 70
70
  9
$TILEMODE
 70
1
  9
$MAXACTVP
 70
64
  9
$PINSBASE
 10
0.0
 20
0.0
 30
0.0
  9
$PLIMCHECK
 70
0
  9
$PEXTMIN
 10
1e+20
 20
1e+20
 30
1e+20
  9
$PEXTMAX
 10
-1e+20
 20
-1e+20
 30
-1e+20
  9
$PLIMMIN
 10
0.0
 20
0.0
  9
$PLIMMAX
 10
420.0
 20
297.0
  9
$UNITMODE
 70
0
  9
$VISRETAIN
 70
1
  9
$PLINEGEN
 70
0
  9
$PSLTSCALE
 70
1
  9
$TREEDEPTH
 70
3020
  9
$CMLSTYLE
  2
Standard
  9
$CMLJUST
 70
0
  9
$CMLSCALE
 40
20.0
  9
$PROXYGRAPHICS
 70
1
  9
$MEASUREMENT
 70
1
  9
$CELWEIGHT
370
-1
  9
$ENDCAPS
280
0
  9
$JOINSTYLE
280
0
  9
$LWDISPLAY
290
0
  9
$INSUNITS
 70
4
  9
$HYPERLINKBASE
  1

  9
$STYLESHEET
  1

  9
$XEDIT
290
1
  9
$CEPSNTYPE
380
0
  9
$PSTYLEMODE
290
1
  9
$FINGERPRINTGUID
  2
{FCE22FA8-ABA0-40AD-8647-161D78ED22CC}
  9
$VERSIONGUID
  2
{AA5B9164-4A11-4FEA-81B4-72D1470F10A6}
  9
$EXTNAMES
290
1
  9
$PSVPSCALE
 40
0.0
  9
$OLESTARTUP
290
0
  9
$SORTENTS
280
127
  9
$INDEXCTL
280
0
  9
$HIDETEXT
280
1
  9
$XCLIPFRAME
280
1
  9
$HALOGAP
280
0
  9
$OBSCOLOR
 70
257
  9
$OBSLTYPE
280
0
  9
$INTERSECTIONDISPLAY
280
0
  9
$INTERSECTIONCOLOR
 70
257
  9
$DIMASSOC
280
2
  9
$PROJECTNAME
  1

  9
$CAMERADISPLAY
290
0
  9
$LENSLENGTH
 40
50.0
  9
$CAMERAHEIGHT
 40
0.0
  9
$STEPSPERSEC
 40
24.0
  9
$STEPSIZE
 40
100.0
  9
$3DDWFPREC
 40
2.0
  9
$PSOLWIDTH
 40
0.005
  9
$PSOLHEIGHT
 40
0.08
  9
$LOFTANG1
 40
1.570796326795
  9
$LOFTANG2
 40
1.570796326795
  9
$LOFTMAG1
 40
0.0
  9
$LOFTMAG2
 40
0.0
  9
$LOFTPARAM
 70
7
  9
$LOFTNORMALS
280
1
  9
$LATITUDE
 40
37.795
  9
$LONGITUDE
 40
-122.394
  9
$NORTHDIRECTION
 40
0.0
  9
$TIMEZONE
 70
-8000
  9
$LIGHTGLYPHDISPLAY
280
1
  9
$TILEMODELIGHTSYNCH
280
1
  9
$CMATERIAL
347
20
  9
$SOLIDHIST
280
0
  9
$SHOWHIST
280
1
  9
$DWFFRAME
280
2
  9
$DGNFRAME
280
2
  9
$REALWORLDSCALE
290
1
  9
$INTERFERECOLOR
 62
256
  9
$CSHADOW
280
0
  9
$SHADOWPLANELOCATION
 40
0.0
  0
ENDSEC
  0
SECTION
  2
CLASSES
  0
CLASS
  1
ACDBDICTIONARYWDFLT
  2
AcDbDictionaryWithDefault
  3
ObjectDBX Classes
 90
0
 91
0
280
0
281
0
  0
CLASS
  1
SUN
  2
AcDbSun
  3
SCENEOE
 90
1153
 91
0
280
0
281
0
  0
CLASS
  1
VISUALSTYLE
  2
AcDbVisualStyle
  3
ObjectDBX Classes
 90
4095
 91
0
280
0
281
0
  0
CLASS
  1
MATERIAL
  2
AcDbMaterial
  3
ObjectDBX Classes
 90
1153
 91
0
280
0
281
0
  0
CLASS
  1
SCALE
  2
AcDbScale
  3
ObjectDBX Classes
 90
1153
 91
0
280
0
281
0
  0
CLASS
  1
TABLESTYLE
  2
AcDbTableStyle
  3
ObjectDBX Classes
 90
4095
 91
0
280
0
281
0
  0
CLASS
  1
MLEADERSTYLE
  2
AcDbMLeaderStyle
  3
ACDB_MLEADERSTYLE_CLASS
 90
4095
 91
0
280
0
281
0
  0
CLASS
  1
DICTIONARYVAR
  2
AcDbDictionaryVar
  3
ObjectDBX Classes
 90
0
 91
0
280
0
281
0
  0
CLASS
  1
CELLSTYLEMAP
  2
AcDbCellStyleMap
  3
ObjectDBX Classes
 90
1152
 91
0
280
0
281
0
  0
CLASS
  1
MENTALRAYRENDERSETTINGS
  2
AcDbMentalRayRenderSettings
  3
SCENEOE
 90
1024
 91
0
280
0
281
0
  0
CLASS
  1
ACDBDETAILVIEWSTYLE
  2
AcDbDetailViewStyle
  3
ObjectDBX Classes
 90
1025
 91
0
280
0
281
0
  0
CLASS
  1
ACDBSECTIONVIEWSTYLE
  2
AcDbSectionViewStyle
  3
ObjectDBX Classes
 90
1025
 91
0
280
0
281
0
  0
CLASS
  1
RASTERVARIABLES
  2
AcDbRasterVariables
  3
ISM
 90
0
 91
0
280
0
281
0
  0
CLASS
  1
LAYOUT
  2
AcDbLayout
  3
ObjectDBX Classes
 90
0
 91
0
280
0
281
0
  0
CLASS
  1
ACDBPLACEHOLDER
  2
AcDbPlaceHolder
  3
ObjectDBX Classes
 90
0
 91
0
280
0
281
0
  0
ENDSEC
  0
SECTION
  2
TABLES
  0
TABLE
  2
VPORT
  5
8
330
0
100
AcDbSymbolTable
 70
1
  0
VPORT
  5
23
330
8
100
AcDbSymbolTableRecord
100
AcDbViewportTableRecord
  2
*Active
 70
0
 10
0.0
 20
0.0
 11
1.0
 21
1.0
 12
0.0
 22
0.0
 13
0.0
 23
0.0
 14
0.5
 24
0.5
 15
0.5
 25
0.5
 16
0.0
 26
0.0
 36
1.0
 17
0.0
 27
0.0
 37
0.0
 40
1000.0
 41
1.34
 42
50.0
 43
0.0
 44
0.0
 50
0.0
 51
0.0
 71
0
 72
1000
 73
1
 74
3
 75
0
 76
0
 77
0
 78
0
281
0
 65
0
146
0.0
  0
ENDTAB
  0
TABLE
  2
LTYPE
  5
2
330
0
100
AcDbSymbolTable
 70
21
  0
LTYPE
  5
24
330
2
100
AcDbSymbolTableRecord
100
AcDbLinetypeTableRecord
  2
ByBlock
 70
0
  3

 72
65
 73
0
 40
0.0
  0
LTYPE
  5
25
330
2
100
AcDbSymbolTableRecord
100
AcDbLinetypeTableRecord
  2
ByLayer
 70
0
  3

 72
65
 73
0
 40
0.0
  0
LTYPE
  5
26
330
2
100
AcDbSymbolTableRecord
100
AcDbLinetypeTableRecord
  2
Continuous
 70
0
  3

 72
65
 73
0
 40
0.0
  0
LTYPE
  5
2F
330
2
100
AcDbSymbolTableRecord
100
AcDbLinetypeTableRecord
  2
CENTER
 70
0
  3
Center ____ _ ____ _ ____ _ ____ _ ____ _ ____
 72
65
 73
4
 40
5.08
 49
3.175
 74
0
 49
-0.635
 74
0
 49
0.635
 74
0
 49
-0.635
 74
0
  0
LTYPE
  5
30
330
2
100
AcDbSymbolTableRecord
100
AcDbLinetypeTableRecord
  2
CENTERX2
 70
0
  3
Center (2x) ________  __  ________  __  ________
 72
65
 73
4
 40
8.89
 49
6.35
 74
0
 49
-0.635
 74
0
 49
1.27
 74
0
 49
-0.635
 74
0
  0
LTYPE
  5
31
330
2
100
AcDbSymbolTableRecord
100
AcDbLinetypeTableRecord
  2
CENTER2
 70
0
  3
Center (.5x) ____ _ ____ _ ____ _ ____ _ ____
 72
65
 73
4
 40
2.54
 49
1.587
 74
0
 49
-0.318
 74
0
 49
0.318
 74
0
 49
-0.318
 74
0
  0
LTYPE
  5
32
330
2
100
AcDbSymbolTableRecord
100
AcDbLinetypeTableRecord
  2
DASHED
 70
0
  3
Dashed __ __ __ __ __ __ __ __ __ __ __ __ __ _
 72
65
 73
2
 40
1.524
 49
1.27
 74
0
 49
-0.254
 74
0
  0
LTYPE
  5
33
330
2
100
AcDbSymbolTableRecord
100
AcDbLinetypeTableRecord
  2
DASHEDX2
 70
0
  3
Dashed (2x) ____  ____  ____  ____  ____  ____
 72
65
 73
2
 40
3.048
 49
2.54
 74
0
 49
-0.508
 74
0
  0
LTYPE
  5
34
330
2
100
AcDbSymbolTableRecord
100
AcDbLinetypeTableRecord
  2
DASHED2
 70
0
  3
Dashed (.5x) _ _ _ _ _ _ _ _ _ _ _ _ _ _
 72
65
 73
2
 40
0.762
 49
0.635
 74
0
 49
-0.127
 74
0
  0
LTYPE
  5
35
330
2
100
AcDbSymbolTableRecord
100
AcDbLinetypeTableRecord
  2
PHANTOM
 70
0
  3
Phantom ______  __  __  ______  __  __  ______
 72
65
 73
6
 40
6.35
 49
3.175
 74
0
 49
-0.635
 74
0
 49
0.635
 74
0
 49
-0.635
 74
0
 49
0.635
 74
0
 49
-0.635
 74
0
  0
LTYPE
  5
36
330
2
100
AcDbSymbolTableRecord
100
AcDbLinetypeTableRecord
  2
PHANTOMX2
 70
0
  3
Phantom (2x)____________    ____    ____    ____________
 72
65
 73
6
 40
10.795
 49
6.35
 74
0
 49
-0.635
 74
0
 49
1.27
 74
0
 49
-0.635
 74
0
 49
1.27
 74
0
 49
-0.635
 74
0
  0
LTYPE
  5
37
330
2
100
AcDbSymbolTableRecord
100
AcDbLinetypeTableRecord
  2
PHANTOM2
 70
0
  3
Phantom (.5x) ___ _ _ ___ _ _ ___ _ _ ___ _ _ ___
 72
65
 73
6
 40
3.175
 49
1.587
 74
0
 49
-0.318
 74
0
 49
0.318
 74
0
 49
-0.318
 74
0
 49
0.318
 74
0
 49
-0.318
 74
0
  0
LTYPE
  5
38
330
2
100
AcDbSymbolTableRecord
100
AcDbLinetypeTableRecord
  2
DASHDOT
 70
0
  3
Dash dot __ . __ . __ . __ . __ . __ . __ . __
 72
65
 73
4
 40
3.556
 49
2.54
 74
0
 49
-0.508
 74
0
 49
0.0
 74
0
 49
-0.508
 74
0
  0
LTYPE
  5
39
330
2
100
AcDbSymbolTableRecord
100
AcDbLinetypeTableRecord
  2
DASHDOTX2
 70
0
  3
Dash dot (2x) ____  .  ____  .  ____  .  ____
 72
65
 73
4
 40
6.096
 49
5.08
 74
0
 49
-0.508
 74
0
 49
0.0
 74
0
 49
-0.508
 74
0
  0
LTYPE
  5
3A
330
2
100
AcDbSymbolTableRecord
100
AcDbLinetypeTableRecord
  2
DASHDOT2
 70
0
  3
Dash dot (.5x) _ . _ . _ . _ . _ . _ . _ . _
 72
65
 73
4
 40
1.778
 49
1.27
 74
0
 49
-0.254
 74
0
 49
0.0
 74
0
 49
-0.254
 74
0
  0
LTYPE
  5
3B
330
2
100
AcDbSymbolTableRecord
100
AcDbLinetypeTableRecord
  2
DOT
 70
0
  3
Dot .  .  .  .  .  .  .  .  .  .  .  .  .  .  .  .
 72
65
 73
2
 40
0.508
 49
0.0
 74
0
 49
-0.508
 74
0
  0
LTYPE
  5
3C
330
2
100
AcDbSymbolTableRecord
100
AcDbLinetypeTableRecord
  2
DOTX2
 70
0
  3
Dot (2x) .    .    .    .    .    .    .    . 
 72
65
 73
2
 40
1.016
 49
0.0
 74
0
 49
-1.016
 74
0
  0
LTYPE
  5
3D
330
2
100
AcDbSymbolTableRecord
100
AcDbLinetypeTableRecord
  2
DOT2
 70
0
  3
Dot (.5) . . . . . . . . . . . . . . . . . . . 
 72
65
 73
2
 40
0.254
 49
0.0
 74
0
 49
-0.254
 74
0
  0
LTYPE
  5
3E
330
2
100
AcDbSymbolTableRecord
100
AcDbLinetypeTableRecord
  2
DIVIDE
 70
0
  3
Divide __ . . __ . . __ . . __ . . __ . . __
 72
65
 73
6
 40
4.064
 49
2.54
 74
0
 49
-0.508
 74
0
 49
0.0
 74
0
 49
-0.508
 74
0
 49
0.0
 74
0
 49
-0.508
 74
0
  0
LTYPE
  5
3F
330
2
100
AcDbSymbolTableRecord
100
AcDbLinetypeTableRecord
  2
DIVIDEX2
 70
0
  3
Divide (2x) ____  . .  ____  . .  ____  . .  ____
 72
65
 73
6
 40
6.604
 49
5.08
 74
0
 49
-0.508
 74
0
 49
0.0
 74
0
 49
-0.508
 74
0
 49
0.0
 74
0
 49
-0.508
 74
0
  0
LTYPE
  5
40
330
2
100
AcDbSymbolTableRecord
100
AcDbLinetypeTableRecord
  2
DIVIDE2
 70
0
  3
Divide(.5x) _ . _ . _ . _ . _ . _ . _ . _
 72
65
 73
6
 40
2.032
 49
1.27
 74
0
 49
-0.254
 74
0
 49
0.0
 74
0
 49
-0.254
 74
0
 49
0.0
 74
0
 49
-0.254
 74
0
  0
ENDTAB
  0
TABLE
  2
LAYER
  5
1
330
0
100
AcDbSymbolTable
 70
5
  0
LAYER
  5
27
330
1
100
AcDbSymbolTableRecord
100
AcDbLayerTableRecord
  2
0
 70
0
 62
7
  6
Continuous
370
-3
390
13
347
21
  0
LAYER
  5
28
330
1
100
AcDbSymbolTableRecord
100
AcDbLayerTableRecord
  2
Defpoints
 70
0
 62
7
  6
Continuous
290
0
370
-3
390
13
347
21
  0
LAYER
  5
8A
330
1
100
AcDbSymbolTableRecord
100
AcDbLayerTableRecord
  2
CORTE
 70
0
 62
1
  6
Continuous
370
-3
390
13
347
21
  0
LAYER
  5
8B
330
1
100
AcDbSymbolTableRecord
100
AcDbLayerTableRecord
  2
GRABADO
 70
0
 62
5
  6
Continuous
370
-3
390
13
347
21
  0
LAYER
  5
8C
330
1
100
AcDbSymbolTableRecord
100
AcDbLayerTableRecord
  2
HOJA
 70
0
 62
8
  6
Continuous
370
-3
390
13
347
21
  0
ENDTAB
  0
TABLE
  2
STYLE
  5
5
330
0
100
AcDbSymbolTable
 70
26
  0
STYLE
  5
29
330
5
100
AcDbSymbolTableRecord
100
AcDbTextStyleTableRecord
  2
Standard
 70
0
 40
0.0
 41
1.0
 50
0.0
 71
0
 42
2.5
  3
txt
  4

  0
STYLE
  5
41
330
5
100
AcDbSymbolTableRecord
100
AcDbTextStyleTableRecord
  2
OpenSans-Light
 70
0
 40
0.0
 41
1.0
 50
0.0
 71
0
 42
2.5
  3
OpenSans-Light.ttf
  4

  0
STYLE
  5
42
330
5
100
AcDbSymbolTableRecord
100
AcDbTextStyleTableRecord
  2
OpenSans-Light-Italic
 70
0
 40
0.0
 41
1.0
 50
0.0
 71
0
 42
2.5
  3
OpenSans-LightItalic.ttf
  4

  0
STYLE
  5
43
330
5
100
AcDbSymbolTableRecord
100
AcDbTextStyleTableRecord
  2
OpenSans
 70
0
 40
0.0
 41
1.0
 50
0.0
 71
0
 42
2.5
  3
OpenSans-Regular.ttf
  4

  0
STYLE
  5
44
330
5
100
AcDbSymbolTableRecord
100
AcDbTextStyleTableRecord
  2
OpenSans-Italic
 70
0
 40
0.0
 41
1.0
 50
0.0
 71
0
 42
2.5
  3
OpenSans-Italic.ttf
  4

  0
STYLE
  5
45
330
5
100
AcDbSymbolTableRecord
100
AcDbTextStyleTableRecord
  2
OpenSans-SemiBold
 70
0
 40
0.0
 41
1.0
 50
0.0
 71
0
 42
2.5
  3
OpenSans-SemiBold.ttf
  4

  0
STYLE
  5
46
330
5
100
AcDbSymbolTableRecord
100
AcDbTextStyleTableRecord
  2
OpenSans-SemiBoldItalic
 70
0
 40
0.0
 41
1.0
 50
0.0
 71
0
 42
2.5
  3
OpenSans-SemiBoldItalic.ttf
  4

  0
STYLE
  5
47
330
5
100
AcDbSymbolTableRecord
100
AcDbTextStyleTableRecord
  2
OpenSans-Bold
 70
0
 40
0.0
 41
1.0
 50
0.0
 71
0
 42
2.5
  3
OpenSans-Bold.ttf
  4

  0
STYLE
  5
48
330
5
100
AcDbSymbolTableRecord
100
AcDbTextStyleTableRecord
  2
OpenSans-BoldItalic
 70
0
 40
0.0
 41
1.0
 50
0.0
 71
0
 42
2.5
  3
OpenSans-BoldItalic.ttf
  4

  0
STYLE
  5
49
330
5
100
AcDbSymbolTableRecord
100
AcDbTextStyleTableRecord
  2
OpenSans-ExtraBold
 70
0
 40
0.0
 41
1.0
 50
0.0
 71
0
 42
2.5
  3
OpenSans-ExtraBold.ttf
  4

  0
STYLE
  5
4A
330
5
100
AcDbSymbolTableRecord
100
AcDbTextStyleTableRecord
  2
OpenSans-ExtraBoldItalic
 70
0
 40
0.0
 41
1.0
 50
0.0
 71
0
 42
2.5
  3
OpenSans-ExtraBoldItalic.ttf
  4

  0
STYLE
  5
4B
330
5
100
AcDbSymbolTableRecord
100
AcDbTextStyleTableRecord
  2
OpenSansCondensed-Bold
 70
0
 40
0.0
 41
1.0
 50
0.0
 71
0
 42
2.5
  3
OpenSansCondensed-Bold.ttf
  4

  0
STYLE
  5
4C
330
5
100
AcDbSymbolTableRecord
100
AcDbTextStyleTableRecord
  2
OpenSansCondensed-Light
 70
0
 40
0.0
 41
1.0
 50
0.0
 71
0
 42
2.5
  3
OpenSansCondensed-Light.ttf
  4

  0
STYLE
  5
4D
330
5
100
AcDbSymbolTableRecord
100
AcDbTextStyleTableRecord
  2
OpenSansCondensed-Italic
 70
0
 40
0.0
 41
1.0
 50
0.0
 71
0
 42
2.5
  3
OpenSansCondensed-LightItalic.ttf
  4

  0
STYLE
  5
4E
330
5
100
AcDbSymbolTableRecord
100
AcDbTextStyleTableRecord
  2
LiberationSans
 70
0
 40
0.0
 41
1.0
 50
0.0
 71
0
 42
2.5
  3
LiberationSans-Regular.ttf
  4

  0
STYLE
  5
4F
330
5
100
AcDbSymbolTableRecord
100
AcDbTextStyleTableRecord
  2
LiberationSans-Bold
 70
0
 40
0.0
 41
1.0
 50
0.0
 71
0
 42
2.5
  3
LiberationSans-Bold.ttf
  4

  0
STYLE
  5
50
330
5
100
AcDbSymbolTableRecord
100
AcDbTextStyleTableRecord
  2
LiberationSans-BoldItalic
 70
0
 40
0.0
 41
1.0
 50
0.0
 71
0
 42
2.5
  3
LiberationSans-BoldItalic.ttf
  4

  0
STYLE
  5
51
330
5
100
AcDbSymbolTableRecord
100
AcDbTextStyleTableRecord
  2
LiberationSans-Italic
 70
0
 40
0.0
 41
1.0
 50
0.0
 71
0
 42
2.5
  3
LiberationSans-Italic.ttf
  4

  0
STYLE
  5
52
330
5
100
AcDbSymbolTableRecord
100
AcDbTextStyleTableRecord
  2
LiberationSerif
 70
0
 40
0.0
 41
1.0
 50
0.0
 71
0
 42
2.5
  3
LiberationSerif-Regular.ttf
  4

  0
STYLE
  5
53
330
5
100
AcDbSymbolTableRecord
100
AcDbTextStyleTableRecord
  2
LiberationSerif-Bold
 70
0
 40
0.0
 41
1.0
 50
0.0
 71
0
 42
2.5
  3
LiberationSerif-Bold.ttf
  4

  0
STYLE
  5
54
330
5
100
AcDbSymbolTableRecord
100
AcDbTextStyleTableRecord
  2
LiberationSerif-BoldItalic
 70
0
 40
0.0
 41
1.0
 50
0.0
 71
0
 42
2.5
  3
LiberationSerif-BoldItalic.ttf
  4

  0
STYLE
  5
55
330
5
100
AcDbSymbolTableRecord
100
AcDbTextStyleTableRecord
  2
LiberationSerif-Italic
 70
0
 40
0.0
 41
1.0
 50
0.0
 71
0
 42
2.5
  3
LiberationSerif-Italic.ttf
  4

  0
STYLE
  5
56
330
5
100
AcDbSymbolTableRecord
100
AcDbTextStyleTableRecord
  2
LiberationMono
 70
0
 40
0.0
 41
1.0
 50
0.0
 71
0
 42
2.5
  3
LiberationMono-Regular.ttf
  4

  0
STYLE
  5
57
330
5
100
AcDbSymbolTableRecord
100
AcDbTextStyleTableRecord
  2
LiberationMono-Bold
 70
0
 40
0.0
 41
1.0
 50
0.0
 71
0
 42
2.5
  3
LiberationMono-Bold.ttf
  4

  0
STYLE
  5
58
330
5
100
AcDbSymbolTableRecord
100
AcDbTextStyleTableRecord
  2
LiberationMono-BoldItalic
 70
0
 40
0.0
 41
1.0
 50
0.0
 71
0
 42
2.5
  3
LiberationMono-BoldItalic.ttf
  4

  0
STYLE
  5
59
330
5
100
AcDbSymbolTableRecord
100
AcDbTextStyleTableRecord
  2
LiberationMono-Italic
 70
0
 40
0.0
 41
1.0
 50
0.0
 71
0
 42
2.5
  3
LiberationMono-Italic.ttf
  4

  0
ENDTAB
  0
TABLE
  2
VIEW
  5
7
330
0
100
AcDbSymbolTable
 70
0
  0
ENDTAB
  0
TABLE
  2
UCS
  5
6
330
0
100
AcDbSymbolTable
 70
0
  0
ENDTAB
  0
TABLE
  2
APPID
  5
3
330
0
100
AcDbSymbolTable
 70
3
  0
APPID
  5
2A
330
3
100
AcDbSymbolTableRecord
100
AcDbRegAppTableRecord
  2
ACAD
 70
0
  0
APPID
  5
97
330
3
100
AcDbSymbolTableRecord
100
AcDbRegAppTableRecord
  2
HATCHBACKGROUNDCOLOR
 70
0
  0
APPID
  5
98
330
3
100
AcDbSymbolTableRecord
100
AcDbRegAppTableRecord
  2
EZDXF
 70
0
  0
ENDTAB
  0
TABLE
  2
DIMSTYLE
  5
4
330
0
100
AcDbSymbolTable
 70
12
100
AcDbDimStyleTable
  0
DIMSTYLE
105
2B
330
4
100
AcDbSymbolTableRecord
100
AcDbDimStyleTableRecord
  2
Standard
 70
0
 40
1.0
 41
2.5
 42
0.625
 43
3.75
 44
1.25
 45
0.0
 46
0.0
 47
0.0
 48
0.0
 49
2.5
140
2.5
141
2.5
142
0.0
143
0.03937007874
144
1.0
145
0.0
146
1.0
147
0.625
148
0.0
 69
0
 70
0
 71
0
 72
0
 73
0
 74
0
 75
0
 76
0
 77
1
 78
8
 79
3
170
0
171
3
172
1
173
0
174
0
175
0
176
0
177
0
178
0
179
2
271
2
272
2
273
2
274
3
275
0
276
0
277
2
278
44
279
0
280
0
281
0
282
0
283
0
284
8
285
0
286
0
288
0
289
3
290
0
371
-2
372
-2
  0
DIMSTYLE
105
73
330
4
100
AcDbSymbolTableRecord
100
AcDbDimStyleTableRecord
  2
EZDXF
 70
0
 40
1.0
 41
0.175
 42
0.125
 43
3.75
 44
0.375
 45
0.0
 46
0.0
 47
0.0
 48
0.0
 49
2.5
140
0.25
141
2.5
142
0.0
143
0.03937007874
144
100.0
145
0.0
146
0.5
147
0.1
148
0.0
 69
0
 70
0
 71
0
 72
0
 73
0
 74
0
 75
0
 76
0
 77
1
 78
12
 79
3
170
0
171
3
172
1
173
0
174
0
175
0
176
0
177
0
178
0
179
2
271
2
272
2
273
2
274
3
275
0
276
0
277
2
278
46
279
2
280
0
281
0
282
0
283
0
284
8
285
0
286
0
288
1
289
3
290
0
340
4C
342
74
371
-2
372
-2
  0
DIMSTYLE
105
7C
330
4
100
AcDbSymbolTableRecord
100
AcDbDimStyleTableRecord
  2
EZ_M_100_H25_CM
 70
0
 40
1.0
 41
0.25
 42
0.125
 43
3.75
 44
0.375
 45
0.0
 46
0.0
 47
0.0
 48
0.0
 49
2.5
140
0.25
141
2.5
142
0.125
143
0.03937007874
144
100.0
145
0.0
146
0.5
147
0.1
148
0.0
 69
0
 70
0
 71
0
 72
0
 73
0
 74
0
 75
0
 76
0
 77
1
 78
12
 79
3
170
0
171
3
172
1
173
0
174
0
175
0
176
0
177
0
178
0
179
2
271
2
272
2
273
2
274
3
275
0
276
0
277
2
278
46
279
2
280
0
281
0
282
0
283
0
284
8
285
0
286
0
288
1
289
3
290
0
340
4C
371
-2
372
-2
  0
DIMSTYLE
105
7D
330
4
100
AcDbSymbolTableRecord
100
AcDbDimStyleTableRecord
  2
EZ_M_50_H25_CM
 70
0
 40
1.0
 41
0.125
 42
0.0625
 43
3.75
 44
0.1875
 45
0.0
 46
0.0
 47
0.0
 48
0.0
 49
2.5
140
0.125
141
2.5
142
0.0625
143
0.03937007874
144
100.0
145
0.0
146
0.5
147
0.05
148
0.0
 69
0
 70
0
 71
0
 72
0
 73
0
 74
0
 75
0
 76
0
 77
1
 78
12
 79
3
170
0
171
3
172
1
173
0
174
0
175
0
176
0
177
0
178
0
179
2
271
2
272
2
273
2
274
3
275
0
276
0
277
2
278
46
279
2
280
0
281
0
282
0
283
0
284
8
285
0
286
0
288
1
289
3
290
0
340
4C
371
-2
372
-2
  0
DIMSTYLE
105
7E
330
4
100
AcDbSymbolTableRecord
100
AcDbDimStyleTableRecord
  2
EZ_M_25_H25_CM
 70
0
 40
1.0
 41
0.0625
 42
0.03125
 43
3.75
 44
0.09375
 45
0.0
 46
0.0
 47
0.0
 48
0.0
 49
2.5
140
0.0625
141
2.5
142
0.03125
143
0.03937007874
144
100.0
145
0.0
146
0.5
147
0.025
148
0.0
 69
0
 70
0
 71
0
 72
0
 73
0
 74
0
 75
0
 76
0
 77
1
 78
12
 79
3
170
0
171
3
172
1
173
0
174
0
175
0
176
0
177
0
178
0
179
2
271
2
272
2
273
2
274
3
275
0
276
0
277
2
278
46
279
2
280
0
281
0
282
0
283
0
284
8
285
0
286
0
288
1
289
3
290
0
340
4C
371
-2
372
-2
  0
DIMSTYLE
105
7F
330
4
100
AcDbSymbolTableRecord
100
AcDbDimStyleTableRecord
  2
EZ_M_20_H25_CM
 70
0
 40
1.0
 41
0.05
 42
0.025
 43
3.75
 44
0.07500000000000001
 45
0.0
 46
0.0
 47
0.0
 48
0.0
 49
2.5
140
0.05
141
2.5
142
0.025
143
0.03937007874
144
100.0
145
0.0
146
0.5
147
0.020000000000000004
148
0.0
 69
0
 70
0
 71
0
 72
0
 73
0
 74
0
 75
0
 76
0
 77
1
 78
12
 79
3
170
0
171
3
172
1
173
0
174
0
175
0
176
0
177
0
178
0
179
2
271
2
272
2
273
2
274
3
275
0
276
0
277
2
278
46
279
2
280
0
281
0
282
0
283
0
284
8
285
0
286
0
288
1
289
3
290
0
340
4C
371
-2
372
-2
  0
DIMSTYLE
105
80
330
4
100
AcDbSymbolTableRecord
100
AcDbDimStyleTableRecord
  2
EZ_M_10_H25_CM
 70
0
 40
1.0
 41
0.025
 42
0.0125
 43
3.75
 44
0.037500000000000006
 45
0.0
 46
0.0
 47
0.0
 48
0.0
 49
2.5
140
0.025
141
2.5
142
0.0125
143
0.03937007874
144
100.0
145
0.0
146
0.5
147
0.010000000000000002
148
0.0
 69
0
 70
0
 71
0
 72
0
 73
0
 74
0
 75
0
 76
0
 77
1
 78
12
 79
3
170
0
171
3
172
1
173
0
174
0
175
0
176
0
177
0
178
0
179
2
271
2
272
2
273
2
274
3
275
0
276
0
277
2
278
46
279
2
280
0
281
0
282
0
283
0
284
8
285
0
286
0
288
1
289
3
290
0
340
4C
371
-2
372
-2
  0
DIMSTYLE
105
81
330
4
100
AcDbSymbolTableRecord
100
AcDbDimStyleTableRecord
  2
EZ_M_5_H25_CM
 70
0
 40
1.0
 41
0.0125
 42
0.00625
 43
3.75
 44
0.018750000000000003
 45
0.0
 46
0.0
 47
0.0
 48
0.0
 49
2.5
140
0.0125
141
2.5
142
0.00625
143
0.03937007874
144
100.0
145
0.0
146
0.5
147
0.005000000000000001
148
0.0
 69
0
 70
0
 71
0
 72
0
 73
0
 74
0
 75
0
 76
0
 77
1
 78
12
 79
3
170
0
171
3
172
1
173
0
174
0
175
0
176
0
177
0
178
0
179
2
271
2
272
2
273
2
274
3
275
0
276
0
277
2
278
46
279
2
280
0
281
0
282
0
283
0
284
8
285
0
286
0
288
1
289
3
290
0
340
4C
371
-2
372
-2
  0
DIMSTYLE
105
82
330
4
100
AcDbSymbolTableRecord
100
AcDbDimStyleTableRecord
  2
EZ_M_1_H25_CM
 70
0
 40
1.0
 41
0.0025
 42
0.00125
 43
3.75
 44
0.00375
 45
0.0
 46
0.0
 47
0.0
 48
0.0
 49
2.5
140
0.0025
141
2.5
142
0.00125
143
0.03937007874
144
100.0
145
0.0
146
0.5
147
0.001
148
0.0
 69
0
 70
0
 71
0
 72
0
 73
0
 74
0
 75
0
 76
0
 77
1
 78
12
 79
3
170
0
171
3
172
1
173
0
174
0
175
0
176
0
177
0
178
0
179
2
271
2
272
2
273
2
274
3
275
0
276
0
277
2
278
46
279
2
280
0
281
0
282
0
283
0
284
8
285
0
286
0
288
1
289
3
290
0
340
4C
371
-2
372
-2
  0
DIMSTYLE
105
83
330
4
100
AcDbSymbolTableRecord
100
AcDbDimStyleTableRecord
  2
EZ_RADIUS
 70
0
 40
1.0
 41
0.25
 42
0.125
 43
3.75
 44
0.375
 45
0.0
 46
0.0
 47
0.0
 48
0.0
 49
2.5
140
0.25
141
0.0
142
0.0
143
0.03937007874
144
100.0
145
0.0
146
0.5
147
0.1
148
0.0
 69
0
 70
0
 71
0
 72
0
 73
0
 74
0
 75
0
 76
0
 77
1
 78
12
 79
3
170
0
171
3
172
0
173
0
174
0
175
0
176
0
177
0
178
0
179
2
271
2
272
2
273
2
274
3
275
0
276
0
277
2
278
46
279
1
280
0
281
0
282
0
283
0
284
8
285
0
286
0
288
1
289
3
290
0
340
4C
342
84
371
-2
372
-2
  0
DIMSTYLE
105
88
330
4
100
AcDbSymbolTableRecord
100
AcDbDimStyleTableRecord
  2
EZ_RADIUS_INSIDE
 70
0
 40
1.0
 41
0.25
 42
0.125
 43
3.75
 44
0.375
 45
0.0
 46
0.0
 47
0.0
 48
0.0
 49
2.5
140
0.25
141
0.0
142
0.0
143
0.03937007874
144
100.0
145
0.0
146
0.5
147
0.1
148
0.0
 69
0
 70
0
 71
0
 72
0
 73
0
 74
0
 75
0
 76
0
 77
0
 78
12
 79
3
170
0
171
3
172
0
173
0
174
1
175
0
176
0
177
0
178
0
179
2
271
2
272
2
273
2
274
3
275
0
276
0
277
2
278
46
279
0
280
0
281
0
282
0
283
0
284
8
285
0
286
0
288
1
289
0
290
0
340
4C
342
84
371
-2
372
-2
  0
DIMSTYLE
105
89
330
4
100
AcDbSymbolTableRecord
100
AcDbDimStyleTableRecord
  2
EZ_CURVED
 70
0
 40
1.0
 41
0.25
 42
0.125
 43
3.75
 44
0.375
 45
0.0
 46
0.0
 47
0.0
 48
0.0
 49
2.5
140
0.25
141
2.5
142
0.0
143
0.03937007874
144
100.0
145
0.0
146
0.5
147
0.1
148
0.0
 69
0
 70
0
 71
0
 72
0
 73
0
 74
0
 75
0
 76
0
 77
1
 78
12
 79
2
 90
2
170
0
171
3
172
1
173
0
174
0
175
0
176
0
177
0
178
0
179
2
271
2
272
2
273
2
274
3
275
0
276
0
277
2
278
46
279
2
280
0
281
0
282
0
283
0
284
8
285
0
286
0
288
1
289
3
290
0
340
4C
371
-2
372
-2
  0
ENDTAB
  0
TABLE
  2
BLOCK_RECORD
  5
9
330
0
100
AcDbSymbolTable
 70
5
  0
BLOCK_RECORD
  5
17
330
9
100
AcDbSymbolTableRecord
100
AcDbBlockTableRecord
  2
*Model_Space
340
1A
 70
0
280
1
281
0
  0
BLOCK_RECORD
  5
1B
330
9
100
AcDbSymbolTableRecord
100
AcDbBlockTableRecord
  2
*Paper_Space
340
1E
 70
0
280
1
281
0
  0
BLOCK_RECORD
  5
74
330
9
100
AcDbSymbolTableRecord
100
AcDbBlockTableRecord
  2
_ARCHTICK
340
0
 70
0
280
1
281
0
  0
BLOCK_RECORD
  5
78
330
9
100
AcDbSymbolTableRecord
100
AcDbBlockTableRecord
  2
_CLOSEDFILLED
340
0
 70
0
280
1
281
0
  0
BLOCK_RECORD
  5
84
330
9
100
AcDbSymbolTableRecord
100
AcDbBlockTableRecord
  2
_CLOSEDBLANK
340
0
 70
0
280
1
281
0
  0
ENDTAB
  0
ENDSEC
  0
SECTION
  2
BLOCKS
  0
BLOCK
  5
18
330
17
100
AcDbEntity
  8
0
100
AcDbBlockBegin
  2
*Model_Space
 70
0
 10
0.0
 20
0.0
 30
0.0
  3
*Model_Space
  1

  0
ENDBLK
  5
19
330
17
100
AcDbEntity
  8
0
100
AcDbBlockEnd
  0
BLOCK
  5
1C
330
1B
100
AcDbEntity
  8
0
100
AcDbBlockBegin
  2
*Paper_Space
 70
0
 10
0.0
 20
0.0
 30
0.0
  3
*Paper_Space
  1

  0
ENDBLK
  5
1D
330
1B
100
AcDbEntity
  8
0
100
AcDbBlockEnd
  0
BLOCK
  5
75
330
74
100
AcDbEntity
  8
0
100
AcDbBlockBegin
  2
_ARCHTICK
 70
0
 10
0.0
 20
0.0
 30
0.0
  3
_ARCHTICK
  1

  0
LWPOLYLINE
  5
77
330
74
100
AcDbEntity
  8
0
  6
BYBLOCK
 62
0
100
AcDbPolyline
 90
2
 70
0
 43
0.15
 10
-0.5
 20
-0.5
 10
0.5
 20
0.5
  0
ENDBLK
  5
76
330
74
100
AcDbEntity
  8
0
100
AcDbBlockEnd
  0
BLOCK
  5
79
330
78
100
AcDbEntity
  8
0
100
AcDbBlockBegin
  2
_CLOSEDFILLED
 70
0
 10
0.0
 20
0.0
 30
0.0
  3
_CLOSEDFILLED
  1

  0
SOLID
  5
7B
330
78
100
AcDbEntity
  8
0
  6
BYBLOCK
 62
0
100
AcDbTrace
 10
-1.0
 20
0.16439898372402537
 30
0.0
 11
0.0
 21
0.0
 31
0.0
 12
-1.0
 22
-0.16439898372402537
 32
0.0
 13
-1.0
 23
-0.16439898372402537
 33
0.0
  0
ENDBLK
  5
7A
330
78
100
AcDbEntity
  8
0
100
AcDbBlockEnd
  0
BLOCK
  5
85
330
84
100
AcDbEntity
  8
0
100
AcDbBlockBegin
  2
_CLOSEDBLANK
 70
0
 10
0.0
 20
0.0
 30
0.0
  3
_CLOSEDBLANK
  1

  0
LWPOLYLINE
  5
87
330
84
100
AcDbEntity
  8
0
  6
BYBLOCK
 62
0
100
AcDbPolyline
 90
3
 70
1
 10
-1.0
 20
0.16439898372402537
 10
0.0
 20
0.0
 10
-1.0
 20
-0.16439898372402537
  0
ENDBLK
  5
86
330
84
100
AcDbEntity
  8
0
100
AcDbBlockEnd
  0
ENDSEC
  0
SECTION
  2
ENTITIES
  0
LWPOLYLINE
  5
8D
330
17
100
AcDbEntity
  8
HOJA
100
AcDbPolyline
 90
4
 70
1
 10
0.0
 20
0.0
 10
600.0
 20
0.0
 10
600.0
 20
900.0
 10
0.0
 20
900.0
  0
LWPOLYLINE
  5
8E
330
17
100
AcDbEntity
  8
CORTE
100
AcDbPolyline
 90
495
 70
1
 10
170.87700512044967
 20
70.63197002473271
 10
169.74593239004184
 20
73.5482255830475
 10
167.54789885581886
 20
77.08864219246107
 10
166.54896444618612
 20
78.557372449588
 10
165.9822179546709
 20
79.8841845829138
 10
163.76726041170605
 20
84.1200647098799
 10
160.6360621293402
 20
89.1402730863797
 10
160.61289785444023
 20
89.18662656149763
 10
160.57820091634062
 20
89.23337135413794
 10
157.42571681529853
 20
94.22278427462106
 10
155.80200169213708
 20
98.4259006322527
 10
156.01097034939176
 20
101.64533536703038
 10
155.1170661526353
 20
107.6820641907666
 10
154.69781795640574
 20
109.1176341150126
 10
153.60796612548575
 20
110.39727315627897
 10
151.47293848627055
 20
114.06460079541648
 10
147.5230185458945
 20
116.90861691576583
 10
147.17257145868007
 20
117.60804315403584
 10
146.66578708964403
 20
117.87699904447845
 10
142.028276950625
 20
119.94914849591032
 10
139.73568070586816
 20
119.53106311545389
 10
134.6677250708458
 20
119.40783684334792
 10
132.77505634818385
 20
118.90905430929388
 10
126.22441716713229
 20
117.44286235904838
 10
125.81036817330687
 20
117.32273372662075
 10
124.66153909567015
 20
116.88806429865554
 10
118.83752559169034
 20
114.9285053407466
 10
116.98433248572178
 20
114.43639579444925
 10
111.85290928631457
 20
114.29891197103007
 10
109.570243513989
 20
113.88768354226067
 10
106.3736517683808
 20
116.90182497128808
 10
105.40954244896557
 20
117.65974031785527
 10
104.84327505098508
 20
117.94643313712595
 10
100.12693730557748
 20
119.88536103962588
 10
97.87408546096117
 20
121.02535235140431
 10
94.84943927129461
 20
122.11318235890803
 10
90.91100465715795
 20
122.72080620669476
 10
89.00342736534458
 20
123.6177048688819
 10
83.93890364376807
 20
124.83462229794532
 10
83.18762308916916
 20
125.15233872749377
 10
79.71396473218897
 20
126.1478094698673
 10
77.52766487685881
 20
126.92466079052929
 10
76.94451107215355
 20
127.58395799257232
 10
72.7265936338656
 20
129.8329117935209
 10
69.9537248396141
 20
135.240905582928
 10
69.88829709581432
 20
135.37981331450874
 10
69.87597052100386
 20
135.4875560881519
 10
69.95062217823829
 20
135.71608894594465
 10
73.6827824914933
 20
144.77019106828857
 10
76.92365664788394
 20
151.93975606802496
 10
77.90408847164963
 20
154.0140081559707
 10
77.78134609183121
 20
155.14759081144348
 10
78.14982899814254
 20
163.27586536367107
 10
79.1903570051154
 20
166.28689490899978
 10
76.92207874480619
 20
171.9667201906941
 10
76.78440228218597
 20
172.31146734383037
 10
76.69889523320285
 20
172.5255776515378
 10
76.9240119057149
 20
172.97708537018343
 10
80.9278345455698
 20
181.78204710512227
 10
79.37554302547483
 20
185.02270392646096
 10
78.35060594912602
 20
191.03770321204138
 10
78.3829346426271
 20
192.9924398269818
 10
78.49211514359195
 20
200.310842717613
 10
78.9494993695937
 20
203.01533907824432
 10
79.99049799414229
 20
209.5769696420425
 10
80.93770545893085
 20
214.92212282853507
 10
82.24139638498946
 20
218.84149410074087
 10
83.20843455759996
 20
227.19206025666608
 10
83.32241948534306
 20
228.08909308345073
 10
83.00926299405864
 20
236.17564802124798
 10
82.9318105063744
 20
237.34246121878778
 10
82.64571364981884
 20
244.9568417858086
 10
82.68567226326786
 20
246.60505397920087
 10
82.17029768012367
 20
253.5800442906302
 10
81.97512503543294
 20
255.86385482795185
 10
81.89002462431381
 20
262.4731569314122
 10
81.82380515875298
 20
265.1249953919987
 10
81.46468546824894
 20
271.1649025271854
 10
81.22729377260362
 20
274.38082365952323
 10
80.55947314740479
 20
279.22143549088105
 10
80.40820734967087
 20
283.6422628541127
 10
79.81717778276743
 20
287.48094614971205
 10
77.81784258150401
 20
292.8978817013958
 10
77.86818955286412
 20
294.16644283747655
 10
76.91851408521188
 20
297.9050326396746
 10
76.26289172402221
 20
301.2865871213253
 10
76.1099145619205
 20
302.1629229886071
 10
75.88909611277973
 20
310.06900297241964
 10
76.0393240770502
 20
311.4429330918465
 10
76.91961370851914
 20
315.5772161142718
 10
78.89541992612658
 20
320.6992838957499
 10
78.52718178651389
 20
322.82699987698015
 10
78.88679646018977
 20
329.9330184282567
 10
78.01292121820529
 20
331.3758580087392
 10
76.91900073606189
 20
337.0154980039115
 10
76.42431411497978
 20
338.5277715031143
 10
76.1773315830967
 20
339.1722849826183
 10
72.74178116397661
 20
342.8561592527799
 10
69.95903950637444
 20
346.6398401489805
 10
69.3389434501396
 20
347.6222148994684
 10
69.01092516530889
 20
348.44654965546306
 10
67.03265928543215
 20
353.8170752466758
 10
64.21668376663592
 20
357.7091191626205
 10
64.18766825643615
 20
359.33502219186266
 10
62.977037928165146
 20
364.487282240656
 10
62.588872681553084
 20
366.4313071008719
 10
61.958709265789594
 20
366.9491989765588
 10
59.94011378939831
 20
372.2104659000879
 10
60.05276235223232
 20
376.2390488784249
 10
58.47644737361247
 20
379.52260054582666
 10
58.55182537533847
 20
385.5082230033954
 10
57.99163851846242
 20
388.108102430067
 10
56.03251487876855
 20
389.9524946618353
 10
53.63934305657699
 20
391.58535160323663
 10
53.26447196654772
 20
394.76546397799893
 10
52.465111105368806
 20
399.30455543323296
 10
49.81860769951095
 20
404.00070934510904
 10
49.491098581996994
 20
404.60788593771304
 10
49.03739734544661
 20
406.08556631306556
 10
47.41807907463385
 20
411.11674257600043
 10
46.420654527742045
 20
413.2636548203577
 10
44.58773546495695
 20
416.61508418468884
 10
42.82567983693343
 20
422.5296531318604
 10
42.517333970197114
 20
423.11750487629115
 10
42.07340624776066
 20
424.06112810053037
 10
39.21481109459705
 20
427.99355522052474
 10
38.20258772351144
 20
431.79139006460537
 10
36.939699854941864
 20
434.2269802143587
 10
35.10157758295986
 20
437.79077771746506
 10
34.04739809970056
 20
439.65083478587894
 10
33.54779337279365
 20
441.05606574736066
 10
32.01706230007767
 20
446.22682143118254
 10
30.638655151527473
 20
450.31768488675834
 10
29.948947218653984
 20
452.7428626487217
 10
28.125203597577638
 20
459.107690513104
 10
28.016170261041225
 20
459.4334060111337
 10
27.97479220695368
 20
459.5774571740185
 10
25.768089664085437
 20
465.70852842209433
 10
25.01228810855241
 20
468.8430887127183
 10
24.040666571480187
 20
472.67607907411184
 10
22.393380912317753
 20
478.1061788457928
 10
22.22198415808066
 20
479.5339553155691
 10
21.16167146251587
 20
487.3672626427874
 10
21.159957380094056
 20
487.37355591753385
 10
21.152905854974733
 20
487.4069631733505
 10
19.52755810832673
 20
494.47213544414035
 10
19.294113928330034
 20
496.63030074379867
 10
18.09948814323957
 20
501.8317478379877
 10
17.331706021589298
 20
505.89630860043826
 10
17.331709618217474
 20
510.08733025105175
 10
16.994809645913847
 20
515.1568082051376
 10
16.58931974806319
 20
518.3561564546349
 10
16.130374833058795
 20
524.4178871123786
 10
15.894820778077701
 20
526.6965525479795
 10
15.612107449423547
 20
533.6826329186479
 10
15.557864638787805
 20
535.5104673612727
 10
14.87632993702914
 20
542.9407561024909
 10
14.838148233131278
 20
543.814853957922
 10
14.189179887071987
 20
552.1998604404221
 10
14.18847448542806
 20
552.2071234033906
 10
14.181176648624614
 20
552.2558072739885
 10
13.161878072516174
 20
560.1038919637872
 10
13.00497884567244
 20
561.4637051254122
 10
13.236029837932165
 20
569.4739099171693
 10
13.236030913744344
 20
570.7274980599918
 10
13.236030913744344
 20
578.7350026428444
 10
13.290317137084912
 20
579.9948384054887
 10
14.181174192525305
 20
586.4179806481393
 10
14.58140410842202
 20
589.2572052847195
 10
14.633071244629718
 20
589.8564386412331
 10
15.461844213911718
 20
598.509705390521
 10
15.332239594392831
 20
600.0347290567493
 10
15.046964327007345
 20
607.7714794827002
 10
15.150618083183872
 20
609.0654814722461
 10
16.048609707622518
 20
617.044381049509
 10
17.05668101456149
 20
620.8654644812382
 10
18.014147036583836
 20
626.3153727905542
 10
21.158661352693798
 20
632.396970107141
 10
22.610740011926737
 20
635.5890119594201
 10
28.134110996346635
 20
643.4800785668026
 10
28.975987772680128
 20
644.8515129390744
 10
32.77601416800121
 20
651.0196906401238
 10
34.608919626429724
 20
654.1154097574095
 10
35.11130810216787
 20
654.7479909049976
 10
37.11800504861799
 20
656.7876447242243
 10
42.086312793607476
 20
661.9280505478814
 10
43.73219875251516
 20
663.3891043172762
 10
49.060515118516605
 20
668.2459088368087
 10
54.700376269794106
 20
672.6539952835024
 10
56.04340135181087
 20
673.6129383032817
 10
57.08316653964721
 20
674.0289246601001
 10
63.05697061519436
 20
675.4412924541525
 10
64.66948238086388
 20
674.7586929594363
 10
67.32315404553083
 20
672.6521409913148
 10
69.00080307144754
 20
671.2603576741608
 10
70.02814451011864
 20
670.9930009992263
 10
76.03116783604219
 20
671.3961394442576
 10
76.98916423481751
 20
671.3961394442576
 10
83.33988560404714
 20
671.8313409118932
 10
83.97133286083522
 20
671.6419204361814
 10
90.44397630565118
 20
672.0117482582054
 10
90.95483964412097
 20
671.9018851242554
 10
95.89916526812749
 20
669.9639516896914
 10
97.9394431091041
 20
669.1550409478018
 10
100.79213873350386
 20
667.1807567525511
 10
104.92123884328862
 20
664.8163270940299
 10
105.5211490160359
 20
664.1881639736816
 10
106.81624359130501
 20
663.3954030223549
 10
110.05562749022351
 20
660.9499715382572
 10
111.89924745003395
 20
659.2714255527117
 10
113.95647187365284
 20
656.8517996377468
 10
116.39774910351593
 20
654.1237787633136
 10
117.78863734470087
 20
652.6751416242405
 10
118.87922729454908
 20
650.9164464492815
 10
120.99930167879779
 20
647.6587653516044
 10
122.12796812941679
 20
644.8465460196308
 10
123.82890980863749
 20
642.1613437830861
 10
125.85350938844772
 20
638.087540556693
 10
126.6192709684899
 20
636.6062054495728
 10
127.20198488594701
 20
635.588944869301
 10
129.62955145249725
 20
631.351091124177
 10
132.8207877716577
 20
626.5520511758073
 10
132.89267405456985
 20
626.4313434071605
 10
132.96930442645908
 20
626.3344407927175
 10
136.07034669410928
 20
621.397542059472
 10
139.7892525911352
 20
617.2747525927193
 10
139.85425995433502
 20
617.1594051280908
 10
139.92607837449486
 20
617.0753022567242
 10
143.06582381613907
 20
612.1607378740914
 10
145.86154179398932
 20
607.8045958934545
 10
146.17510365778185
 20
607.0376603322752
 10
146.74628581189563
 20
606.5713416668414
 10
150.46183293968488
 20
603.5053271340098
 10
153.71652737448085
 20
601.0146938882403
 10
154.83777238680568
 20
600.0609781900075
 10
157.04015254173805
 20
598.5750146081446
 10
159.74745292197804
 20
597.3492114235255
 10
160.66888690893484
 20
596.9055643173815
 10
165.18270102017732
 20
595.3198784839401
 10
167.6298075097891
 20
594.3929380091777
 10
171.06406486934975
 20
593.882545073714
 10
174.61106839615627
 20
592.4204072936241
 10
176.35228079058902
 20
591.6431534255507
 10
181.57399413210442
 20
590.6398641679198
 10
182.33807402966727
 20
590.319680471337
 10
184.37368038080626
 20
589.3133464158609
 10
187.09576367598515
 20
587.3821563979818
 10
188.54067058102328
 20
587.0771765005052
 10
192.90981772862347
 20
585.8656193617303
 10
195.50666310186693
 20
585.3257708598112
 10
199.07803573274873
 20
584.8025187501985
 10
202.4819598918857
 20
583.828722344746
 10
204.9406564531016
 20
583.3384979955977
 10
209.44799661486627
 20
582.9687662374172
 10
211.26431075373284
 20
582.4745375035486
 10
216.41602695444385
 20
581.9889329805533
 10
217.69537187742822
 20
581.7523005166931
 10
223.3994003604539
 20
580.1829976085542
 10
223.46856173503556
 20
580.1573229641458
 10
224.02579809871395
 20
580.0618893290698
 10
229.58006757319959
 20
579.0278370443461
 10
230.35982331208902
 20
578.9289887658197
 10
235.61345094784247
 20
577.7794468982138
 10
237.33393345373293
 20
577.5162609267263
 10
241.48977295556438
 20
576.3139917387416
 10
244.30685553469766
 20
575.4761036895402
 10
247.34854295225364
 20
574.8407516408461
 10
251.2848689846594
 20
573.6296539165351
 10
252.91612028440454
 20
572.9391674544008
 10
255.33806048685574
 20
570.7850047346305
 10
257.164479823424
 20
569.3371813824574
 10
258.234371822045
 20
569.091089614436
 10
264.4190640854181
 20
569.7567850979231
 10
265.2236957933799
 20
569.5279445760243
 10
269.93193039369885
 20
567.8128749673324
 10
272.1712185496858
 20
567.9185307517205
 10
276.8148931235121
 20
567.7062768456353
 10
279.14427895136123
 20
567.5962468751482
 10
283.66127334468865
 20
567.529579632338
 10
286.1309644837015
 20
566.7484093932117
 10
289.5626110451351
 20
566.1033380555391
 10
293.09742733973667
 20
565.2966221397705
 10
295.6267796619111
 20
564.9070971841402
 10
300.06644410056606
 20
564.4109124656784
 10
301.9173392540781
 20
563.997203171537
 10
307.03857860008407
 20
563.1733420529458
 10
308.1025014796603
 20
562.9451336477455
 10
312.38260596941814
 20
561.5375246246867
 10
313.6537454303916
 20
561.0385240874148
 10
314.0317272667439
 20
560.8296014475368
 10
318.5805509538916
 20
558.3152912591631
 10
321.006999911011
 20
556.9824296707161
 10
323.27249497173284
 20
555.2720026654674
 10
327.50871068946276
 20
552.2624804967509
 10
327.7676793221958
 20
551.9684285159283
 10
327.9873398854147
 20
551.8002642811148
 10
331.65570307370103
 20
547.8826836752046
 10
334.95171242855326
 20
545.9516226178807
 10
336.2873613355564
 20
544.7743957060561
 10
338.6659903071611
 20
543.0022740468771
 10
340.4983095034804
 20
541.0980227838286
 10
341.9317466127204
 20
539.8404470992668
 10
344.3706229582467
 20
536.9824729924039
 10
348.64365216229317
 20
533.7418539832238
 10
348.7916164610617
 20
533.5930143675114
 10
348.90408143138643
 20
533.4859091319445
 10
352.43429007885356
 20
529.1548663257627
 10
355.8734023598922
 20
524.4630776148874
 10
355.8811177812065
 20
524.4466946979114
 10
355.8882511530205
 20
524.4304727572203
 10
358.4449308235669
 20
518.601462626752
 10
360.830344800783
 20
515.2000710551865
 10
361.536748909007
 20
513.4533312636077
 10
362.84495866820885
 20
512.005020310603
 10
365.4175056385991
 20
509.37217919562045
 10
368.4877742432309
 20
505.9521560053872
 10
369.1856251841091
 20
505.09939125366645
 10
369.8241838092363
 20
503.9883813949182
 10
372.4945460520926
 20
500.24268179969295
 10
375.6090957585643
 20
496.69341215584063
 10
376.26495401570173
 20
496.0059306044741
 10
376.76931368580154
 20
495.5350098518302
 10
381.79461625287286
 20
494.1675916680174
 10
383.71101071446947
 20
494.0888647169477
 10
388.0902472711068
 20
493.24921605487316
 10
390.7084826451378
 20
491.8402527881385
 10
393.0618852356288
 20
490.5870220653742
 10
397.66883008798277
 20
489.1816282850482
 10
398.68907672559726
 20
488.7699967663739
 10
399.7162173000438
 20
487.42085650663466
 10
401.5758270631022
 20
483.30340463667153
 10
404.6770117795677
 20
479.98093246301914
 10
405.2240116299813
 20
478.8604175813748
 10
405.37470637092156
 20
478.1102581243249
 10
404.68155329196725
 20
476.7965468597895
 10
400.87897711459254
 20
468.8482551010984
 10
401.3866399235317
 20
464.48365869291956
 10
402.0812787814548
 20
459.6058481909663
 10
402.0812787814548
 20
456.1395485621497
 10
402.71198114314575
 20
450.33399057758515
 10
401.59064713440785
 20
446.2053547628643
 10
399.81386122660797
 20
441.04827891012155
 10
397.70947879330015
 20
437.34590117139305
 10
394.7298523544755
 20
431.7826773833117
 10
390.73670295780494
 20
424.6309247157201
 10
389.252365562018
 20
422.5129157191741
 10
383.7602742125878
 20
415.7094015884941
 10
381.69534080931817
 20
413.24839139499136
 10
376.7838651479865
 20
407.7485143662825
 10
372.2239857463401
 20
403.9784066085276
 10
369.80789753978115
 20
402.09997578036337
 10
366.0646365316129
 20
399.0060255052772
 10
362.8365014218273
 20
396.6842922525352
 10
360.5188442855681
 20
394.7200994452696
 10
355.87432278852134
 20
390.46074208959226
 10
351.8085550216956
 20
385.4624325381096
 10
348.8985081001031
 20
383.0950978704368
 10
342.57641443182
 20
377.0602782118076
 10
341.92979715733577
 20
376.5161285789868
 10
341.63083249344913
 20
376.19940982611115
 10
334.95355537250293
 20
371.0230877651379
 10
329.7219048674276
 20
366.934685405799
 10
327.97828610548504
 20
365.6647327074443
 10
326.2382823096716
 20
364.6204528500998
 10
321.0112175226525
 20
360.8384998078427
 10
316.96852557987427
 20
357.6786628893333
 10
314.03627385528534
 20
354.5012913207429
 10
310.99071954910187
 20
353.632799107409
 10
307.05779006638295
 20
351.2687096553659
 10
300.26223809197995
 20
348.6461411801374
 10
300.0907023262498
 20
348.59186260344813
 10
299.8893417319455
 20
348.42448020233815
 10
299.21877529622475
 20
347.24025785564936
 10
294.92846993988064
 20
339.16810131398597
 10
293.1388516607183
 20
337.33065709841503
 10
286.82953946560406
 20
329.9007029586992
 10
286.1661853296855
 20
329.2655569143558
 10
283.5827884217085
 20
326.4673609676529
 10
279.19785236815846
 20
321.95790798267717
 10
278.1125328693679
 20
320.6431664575748
 10
272.2292911099321
 20
313.8706987445207
 10
270.30635042973336
 20
311.3829229655039
 10
265.2585118454185
 20
305.77698821069
 10
262.50951847671195
 20
302.12496907431296
 10
258.29043726156647
 20
296.66707757799486
 10
255.67165044225658
 20
292.8682676878029
 10
251.32077326170133
 20
286.0975993041925
 10
249.44740195209988
 20
283.6088268137005
 10
244.88367377761506
 20
275.05652914200755
 10
244.5358508919303
 20
274.3537023514009
 10
244.3550665328728
 20
274.0316957420532
 10
240.08139925224577
 20
265.09488766240565
 10
237.38414812213796
 20
259.8253026039879
 10
235.23834008170297
 20
255.8401928921553
 10
234.16077917879056
 20
251.5561254037807
 10
232.3672461891358
 20
246.58889371439864
 10
231.25155883015714
 20
238.43682113594969
 10
231.0155276169844
 20
237.32899803530518
 10
230.41894380449935
 20
235.0590132914749
 10
228.04042451088753
 20
228.06433945969047
 10
226.80408528501243
 20
223.26325816109966
 10
225.56483343332957
 20
218.81072836794465
 10
224.68627995868428
 20
211.2001501013665
 10
224.65063406387617
 20
209.562305882112
 10
224.34298630948592
 20
201.4857959778792
 10
224.3000933202229
 20
200.3062344478676
 10
224.99443374649672
 20
193.10096889492252
 10
225.18810171064592
 20
191.04757066207412
 10
225.2993820508841
 20
184.22954655665762
 10
224.7165274930569
 20
181.7886575328239
 10
226.69211557860194
 20
176.86458981953365
 10
228.60113293529548
 20
172.5610704666692
 10
229.5175517037053
 20
171.38863290273503
 10
230.3837078131155
 20
170.30916651295502
 10
235.56537213442698
 20
170.18894718064348
 10
237.23595389808906
 20
163.28894119677398
 10
237.29971077485334
 20
163.17256867395736
 10
237.38930326522336
 20
162.83615019205217
 10
239.56866790280833
 20
156.9530678924316
 10
243.16825882818125
 20
154.06537119182212
 10
244.03940518695208
 20
153.66574483762588
 10
244.3496149141506
 20
153.25023089245678
 10
247.37185941328926
 20
148.77982438275558
 10
248.691427879804
 20
144.77361769796607
 10
249.91719943089288
 20
142.93937175489555
 10
251.3167326147286
 20
141.98674770339176
 10
253.33007812862957
 20
138.1850256353041
 10
255.18896517636335
 20
135.51765431983495
 10
256.38207136762117
 20
133.0018158336602
 10
258.28106507107145
 20
131.91268310862552
 10
260.37607114310936
 20
129.03334090572025
 10
262.3441186376481
 20
126.25653954012205
 10
263.42873175533055
 20
123.81541261842631
 10
265.2618534461842
 20
121.20668676560172
 10
266.7971430634809
 20
119.03970677027564
 10
268.13853356785626
 20
116.99714682380545
 10
269.8462103167235
 20
113.82719387215047
 10
272.2287580134764
 20
110.76168882219326
 10
273.467175696263
 20
109.3906560221094
 10
274.711142181221
 20
107.73805186810114
 10
276.53297185257816
 20
104.17087331695893
 10
278.64266786635676
 20
98.46989709539412
 10
278.89523902832366
 20
98.04311064152171
 10
279.2151418259332
 20
96.51251087150376
 10
280.5477258101521
 20
90.96335980927506
 10
280.90474261483587
 20
89.18506905804315
 10
281.0253059814479
 20
82.31898670888086
 10
280.99813969340016
 20
79.90709042702338
 10
279.2150571400173
 20
72.44308044260833
 10
278.81600783787303
 20
70.63136591289413
 10
278.14181399440554
 20
69.20674447886495
 10
275.72429721182584
 20
61.36261434237895
 10
272.2317625523576
 20
56.13132343063853
 10
268.9686200178719
 20
52.0859588423682
 10
265.25908345851644
 20
47.95726385368107
 10
261.57174992091996
 20
42.83002806439663
 10
258.2892727850151
 20
38.31592650412267
 10
254.4108528856757
 20
33.56546264324834
 10
251.31237585348686
 20
29.906974249268387
 10
244.68333020512796
 20
24.290800148655762
 10
244.32437149689645
 20
24.091577237786623
 10
244.07801222673447
 20
23.959617527358205
 10
237.35058896110627
 20
20.21207131805113
 10
232.87584446405344
 20
18.341568802798065
 10
230.37699172468479
 20
17.054144383479525
 10
224.68924188762708
 20
15.021534933438943
 10
223.3938049328376
 20
14.56735492338521
 10
223.0123261956885
 20
14.51757502952978
 10
216.404814676285
 20
13.077820128523854
 10
215.15035307980747
 20
13.38041396996914
 10
210.3791710932012
 20
15.021553388044595
 10
209.61709857188703
 20
15.300471471630317
 10
209.3969843894463
 20
15.391526034940853
 10
205.16101007345037
 20
18.676630702009334
 10
202.4192864060683
 20
20.80659788155708
 10
200.71568357436672
 20
22.038849740309615
 10
198.55828383969583
 20
24.3015981183612
 10
196.84439457429926
 20
26.16980569451198
 10
195.43845463231833
 20
27.686664133518207
 10
193.00612745401554
 20
30.33812604766854
 10
190.62725923811263
 20
33.568459500278095
 10
189.5432189185317
 20
34.99199890036698
 10
188.46935025012272
 20
35.97536673712193
 10
185.68012164904826
 20
39.12593495317515
 10
182.77826877341022
 20
42.83230665303881
 10
182.2250802356457
 20
43.82135037376065
 10
181.48500579745405
 20
45.33089983594118
 10
179.44596832890556
 20
49.39270057682916
 10
178.13598843782097
 20
52.102090265338575
 10
176.72847198625846
 20
55.04358678346807
 10
174.51418816517116
 20
59.50783140018075
 10
173.9648848405186
 20
60.63351365536482
 10
173.62026015141214
 20
61.36817616215194
 10
171.86798718785712
 20
67.12536897698419
 10
170.87700512044967
 20
70.63197002473271
  0
LWPOLYLINE
  5
8F
330
17
100
AcDbEntity
  8
CORTE
100
AcDbPolyline
 90
459
 70
1
 10
29.973910079664847
 20
500.8947740616404
 10
30.598779655824274
 20
498.1181458241922
 10
31.522689392573966
 20
493.74103755252963
 10
32.87867197727883
 20
488.76253077431284
 10
33.269820855126
 20
485.87282721451265
 10
34.028791208269695
 20
479.55042037373414
 10
34.17789154033994
 20
479.05892718636323
 10
34.90133079819998
 20
476.20500145846427
 10
35.945811683545344
 20
472.2453500261554
 10
36.32231553190263
 20
471.05505422416536
 10
38.10819868502608
 20
465.97909806591315
 10
39.28701026392878
 20
461.421648830737
 10
39.97062408187344
 20
459.03585061510694
 10
41.81777958486464
 20
452.5408108522938
 10
41.93872266625044
 20
452.13301122490975
 10
41.955498297411395
 20
452.05524040848195
 10
43.751034713390936
 20
445.9900074342836
 10
44.546966083215466
 20
443.91517661372654
 10
45.9630231515348
 20
441.16968969957725
 10
48.31300221277047
 20
436.63754872639856
 10
48.87463376294909
 20
435.50789427366726
 10
49.222661667284456
 20
434.7705011435128
 10
51.52621702787951
 20
429.8740096050951
 10
53.98864235065139
 20
425.17947279536565
 10
54.41507368446241
 20
423.7481005475511
 10
55.35324407785629
 20
422.0326883021298
 10
56.91722920260804
 20
418.32399221204605
 10
58.17053543971565
 20
415.95875560901686
 10
59.41919556615312
 20
411.89193714858766
 10
61.852423580708546
 20
407.3809204595873
 10
62.52743569564859
 20
406.1831283928441
 10
62.873651970818855
 20
404.2171735749298
 10
63.93765621736907
 20
399.40648986747965
 10
64.01206360857873
 20
399.2969523158822
 10
67.56650534877076
 20
395.9506679869828
 10
69.52342867130369
 20
386.8684044112174
 10
71.83323016077588
 20
380.86524779999945
 10
72.43524802290722
 20
377.39254183045614
 10
73.04977703193686
 20
373.54380186372873
 10
75.12370184767906
 20
369.3530586448319
 10
75.82152895968238
 20
366.3832117261027
 10
75.94088053524001
 20
359.69526838452066
 10
76.42530057391332
 20
358.3801821561956
 10
78.21853939252082
 20
354.4840206473232
 10
79.52725642957148
 20
352.3304820409903
 10
80.70068708930444
 20
350.73497382767164
 10
82.19639952278771
 20
349.1311503126376
 10
85.43302977507278
 20
345.21886534788837
 10
86.56423496412367
 20
340.71702217564143
 10
87.21750107375146
 20
337.3491487886017
 10
90.6249340262707
 20
331.7231979714452
 10
90.53057685882573
 20
329.8586917891407
 10
90.83494492973091
 20
328.10002331084934
 10
91.19443980196957
 20
324.0491569354281
 10
92.54303818758217
 20
322.342038911454
 10
90.6427994561725
 20
314.46088242854194
 10
89.43310513511847
 20
310.5542662678936
 10
89.50190702661052
 20
309.18774442287304
 10
88.45256035424154
 20
302.499515969173
 10
88.9994150414152
 20
300.346711746688
 10
88.74806348499465
 20
294.0135638461684
 10
89.2320700459154
 20
292.70221178002066
 10
90.52621523950052
 20
284.29685642237746
 10
90.54299489090477
 20
283.80646174504363
 10
90.82454547988345
 20
281.7656785456161
 10
91.59780430972569
 20
275.9716013009902
 10
91.65298300010727
 20
274.7236833236798
 10
92.03694095166315
 20
267.4294727157694
 10
92.31134491993157
 20
265.7282518307661
 10
92.41421144186074
 20
257.90064187035387
 10
92.39319894396067
 20
256.08342897545253
 10
92.86460597840187
 20
249.71325865444987
 10
93.02898932517633
 20
246.92888910468582
 10
93.23442661576473
 20
240.8971781020491
 10
93.50632254252491
 20
237.78186316113533
 10
93.71801492260147
 20
232.3241935018441
 10
94.12844094417596
 20
227.9919762900763
 10
93.49086453096902
 20
222.76571625192082
 10
94.6489898767552
 20
219.1115990994076
 10
92.69395064720516
 20
210.65176895174773
 10
92.10126340035572
 20
208.03484247836332
 10
90.75859302436811
 20
202.10670764382485
 10
90.34671439461545
 20
199.67128422547785
 10
90.34377069834181
 20
199.47396734994345
 10
90.22182412721531
 20
192.10053521171722
 10
90.39319452222617
 20
191.74277210319133
 10
92.05584393660752
 20
186.77539037504312
 10
94.33637219524758
 20
182.43985201050236
 10
91.24458901183357
 20
172.75459742464136
 10
91.2960927787633
 20
172.6256307089484
 10
87.605832639553
 20
161.9469346674682
 10
87.46834102168577
 20
158.91404060504783
 10
88.12968361262801
 20
152.8062358555485
 10
83.27773137797271
 20
142.54119568713213
 10
83.03033550304508
 20
141.9938986554157
 10
82.77348801178482
 20
141.37079481727642
 10
81.33385486305087
 20
137.1137874068054
 10
81.3516042943379
 20
137.10432357742957
 10
83.17501973131061
 20
135.04282164422057
 10
86.13011813821913
 20
133.99279545751233
 10
86.600730053696
 20
133.84970954218852
 10
90.01866978268094
 20
132.93094188212172
 10
92.83750250634489
 20
132.25362514719882
 10
92.97596054185192
 20
132.18852538565898
 10
98.40683542635247
 20
131.35064703614353
 10
100.64938987553569
 20
130.54410046166595
 10
104.72028507401046
 20
128.48414025233615
 10
107.75951636119089
 20
127.2346855561359
 10
110.78107987472526
 20
125.70491258070206
 10
113.72401024842361
 20
123.39138645955927
 10
117.37690520564024
 20
123.4892567668312
 10
123.59307221464906
 20
125.84119737360834
 10
126.28691562876065
 20
126.62276605301213
 10
131.11808761913176
 20
127.70409953616627
 10
135.54846509108484
 20
128.8716545740972
 10
139.01832881122414
 20
128.95602357843381
 10
145.034084052131
 20
130.05307646089477
 10
149.7378797538729
 20
127.95130904889402
 10
154.46235846891454
 20
125.44397761304754
 10
156.39668091001954
 20
121.58343512905367
 10
157.96288524049783
 20
120.45573876282879
 10
159.34272248936554
 20
118.08559835464939
 10
162.4463155919898
 20
114.44154437442057
 10
163.98204976920897
 20
109.18295574772901
 10
164.72481643304036
 20
104.16689144785096
 10
164.4225841789048
 20
99.5106093540794
 10
164.72357443918145
 20
98.73147201132042
 10
166.3556003518595
 20
96.14847685122186
 10
167.7038866920709
 20
94.33202361803615
 10
168.587070787323
 20
92.56470510015606
 10
170.85180861046638
 20
88.93368120289915
 10
173.58321456007752
 20
83.71014623385054
 10
173.73331111185826
 20
83.48307758645979
 10
173.83830443648094
 20
83.26749345795952
 10
177.07083292125753
 20
78.0607951252382
 10
179.09014181313546
 20
72.8543918395967
 10
179.72439348552098
 20
70.61008525517855
 10
181.19998377562706
 20
65.76194915279893
 10
181.69748775914786
 20
64.16408955243605
 10
181.74810326629176
 20
64.00636477395756
 10
184.01692653151736
 20
59.43216251876356
 10
186.07249896620579
 20
55.13632700459493
 10
186.7167756734027
 20
53.803790010014836
 10
187.7557704772189
 20
51.734092945093835
 10
189.40433695872207
 20
48.37146816426457
 10
190.3271548086475
 20
46.72156557675362
 10
191.8965265253048
 20
44.717096306095755
 10
193.46733972505444
 20
42.94278704418002
 10
195.64736617308267
 20
40.94648344083271
 10
198.0704002631751
 20
37.764605024781304
 10
199.34925788265673
 20
36.02800754463533
 10
200.58459198503715
 20
34.6813789525072
 10
202.92486492713033
 20
32.15647539454267
 10
205.7442036577413
 20
29.08328386309131
 10
206.25334379139827
 20
28.54928175253235
 10
206.61901507903713
 20
28.28478399783262
 10
210.3445360700723
 20
25.390532632288796
 10
212.94279151515798
 20
23.37552015767278
 10
213.2355650530842
 20
23.254408622064602
 10
216.8153547604361
 20
21.9442077463068
 10
221.2854813492952
 20
22.958277748735327
 10
222.24710032146004
 20
23.351534255614297
 10
227.5839350426411
 20
25.258738510081002
 10
232.09363212410517
 20
27.582162397746288
 10
234.2878305908871
 20
28.499366442308656
 10
237.26215968083125
 20
30.156231971076522
 10
239.84903404565307
 20
32.139675643989904
 10
245.56028606684185
 20
37.31550738412125
 10
246.34528796405516
 20
37.980566512980204
 10
246.39673742271157
 20
38.04131482430057
 10
252.74302817102966
 20
45.814538361963514
 10
253.55556979905418
 20
46.93195526358704
 10
259.79803318936183
 20
55.6120980772871
 10
260.70881638435844
 20
56.62579505878193
 10
266.58522040922094
 20
63.91085738668153
 10
266.91186261377766
 20
64.40011821375947
 10
267.4960089871811
 20
66.29550119713804
 10
270.62636340116296
 20
72.91017149927256
 10
272.3362144571722
 20
80.67302682861191
 10
272.2179455204314
 20
87.40844142285641
 10
272.2016816547059
 20
88.40836437867529
 10
271.0626726351202
 20
93.85804145700513
 10
270.12157977781567
 20
95.44826925738425
 10
268.6551160619283
 20
99.41105570598256
 10
266.2996361180799
 20
104.00248324685663
 10
262.8207692205947
 20
108.47856742217255
 10
260.1646157412513
 20
113.40917362002438
 10
259.9694839332808
 20
113.7063044062811
 10
259.5422709958618
 20
114.30929284488093
 10
256.26886667568624
 20
118.96769305878797
 10
254.57616994664204
 20
122.77742713647058
 10
253.8383427215565
 20
123.81845874362352
 10
253.5008737586163
 20
124.28227058652647
 10
249.78650932271876
 20
126.4125756278172
 10
247.14024466168985
 20
131.99261077272104
 10
246.31887396328852
 20
133.17121957681866
 10
245.94301367615776
 20
133.88094194599853
 10
243.21293824122063
 20
135.73922980353473
 10
239.24456601567408
 20
141.67750651491497
 10
238.8735879716662
 20
142.80379496263822
 10
238.642324478305
 20
143.14587245718667
 10
237.2312168245553
 20
145.03599664369267
 10
233.37932588932654
 20
146.80299838307792
 10
231.5305794350072
 20
148.56363112771396
 10
229.75674252832164
 20
150.90131445543602
 10
228.11873595056568
 20
157.05200503188735
 10
227.20211423753972
 20
158.72507288946326
 10
226.9634418234009
 20
158.73061030688177
 10
222.2215757430131
 20
164.64026677989614
 10
218.86712645576472
 20
168.93184448023703
 10
217.92307752464512
 20
171.06002463055347
 10
217.08714010185463
 20
173.14356244089504
 10
215.8397145765582
 20
175.49170637979887
 10
212.6888799447329
 20
179.1666800552507
 10
212.5710803569052
 20
185.6710692971369
 10
212.35967791529606
 20
190.51250452629392
 10
212.0379943550256
 20
193.43137490477375
 10
210.9970276234542
 20
199.91046313971356
 10
211.12677232348415
 20
202.71744631109414
 10
211.28051367845524
 20
210.20767166969745
 10
211.89002276100405
 20
213.8681250499808
 10
213.25005255746942
 20
220.61477228259082
 10
216.30172239746116
 20
229.73669320260706
 10
216.54353579966664
 20
230.32005502083848
 10
216.70487598933732
 20
230.92020704192873
 10
219.00523069447172
 20
238.9052606598052
 10
219.70552728087614
 20
242.91364260982664
 10
221.02554792625665
 20
248.1859415629924
 10
222.79369336935474
 20
256.2943004023923
 10
223.15455180655067
 20
257.9578685172164
 10
224.07254222731785
 20
260.1473926808653
 10
228.38729503428385
 20
268.4247506726656
 10
231.17618337570093
 20
273.39140485640655
 10
233.16641401371476
 20
277.5042884718887
 10
237.85678937580042
 20
286.4589827242635
 10
238.22808987963322
 20
287.1839668059988
 10
238.6527632159914
 20
287.81032332654104
 10
245.72875323852986
 20
297.21077118267704
 10
251.7418990700255
 20
306.01165104976326
 10
252.55388034435214
 20
307.26054023937877
 10
258.7440938515938
 20
315.4841971037599
 10
259.6105963246632
 20
316.7373998615826
 10
265.86572759301
 20
324.81722876209415
 10
266.67953443156694
 20
325.9636993225181
 10
273.9681896155894
 20
334.7105514603377
 10
274.53400788116346
 20
335.24188359896107
 10
274.89454833532
 20
335.5464818692012
 10
281.1598313036518
 20
340.92321872655657
 10
282.86195846802457
 20
342.97136106206426
 10
286.9358172179477
 20
351.535175586745
 10
287.7587760986528
 20
352.98852345061823
 10
296.6709758126126
 20
360.39685174070974
 10
303.4227545557121
 20
362.5332979724126
 10
303.97146437157835
 20
362.7450584107937
 10
305.1693850481861
 20
363.46513021691044
 10
309.98705374749875
 20
367.1697940572303
 10
315.55762365204305
 20
370.8034167050623
 10
316.8027111368608
 20
371.77659830212406
 10
317.5520863133895
 20
372.31879585355
 10
323.416329050842
 20
377.97265030722474
 10
328.529281418221
 20
381.88003275724304
 10
330.279268941169
 20
383.06243078451143
 10
336.09497606746663
 20
389.74408557345805
 10
336.5217660636524
 20
390.3752861405351
 10
338.3532814320138
 20
392.19008939924606
 10
343.8021543620405
 20
397.1245210083016
 10
346.07335773195655
 20
399.93302057210894
 10
351.3001861321636
 20
403.47069281495396
 10
356.0582615540484
 20
408.53476129088176
 10
357.9093705364037
 20
410.9316253933557
 10
362.13011166576666
 20
414.0195035832289
 10
365.712789988919
 20
416.1423784581161
 10
368.3642221165094
 20
418.41393872935123
 10
371.65234164701405
 20
421.61261694882205
 10
376.2551077009007
 20
427.09621381985016
 10
378.2829782591916
 20
429.3589007471969
 10
382.57217880901726
 20
435.4014016556366
 10
384.50914177528784
 20
439.244853843722
 10
386.7226277608511
 20
443.4993689905309
 10
387.65907781552824
 20
447.5278354958614
 10
388.3512058470492
 20
451.0196761780776
 10
388.3512058470492
 20
455.9387247201912
 10
387.95602366797084
 20
458.5733831548441
 10
387.3240469664356
 20
462.78700481236274
 10
385.97317350958565
 20
467.97415790976675
 10
385.97317350958565
 20
471.2752467384621
 10
385.4538712016929
 20
474.57328109425725
 10
383.2360774015033
 20
475.97860668576186
 10
380.6498594863783
 20
477.2620296780228
 10
379.84308702789895
 20
477.65404840562087
 10
376.06363124141853
 20
477.78615865822076
 10
371.40360583213396
 20
478.52833651361107
 10
367.8208637814853
 20
482.53297116193335
 10
366.1323574273256
 20
484.1095299755834
 10
364.88556308462034
 20
485.41644057651
 10
361.1783000552243
 20
488.8867879685772
 10
359.1921772613666
 20
493.5495317752152
 10
358.55097444016224
 20
494.6651421949673
 10
357.670756273865
 20
495.7407573185901
 10
354.9802745720276
 20
498.3799495727071
 10
352.8946162980285
 20
501.7138163249497
 10
351.0512409210073
 20
503.7546058315702
 10
349.3718502648617
 20
507.9072692299619
 10
347.993082449899
 20
511.5389167957833
 10
347.6570380458918
 20
512.9502109696427
 10
345.95418981322223
 20
516.8226437766521
 10
344.0483319372345
 20
520.8695402555941
 10
343.9664718579422
 20
520.9812173875134
 10
343.75695846091867
 20
521.2382592741533
 10
340.6140112477135
 20
524.2314232848789
 10
337.62654445130215
 20
527.236563130316
 10
336.6613362354922
 20
527.7889791588523
 10
335.7897924219426
 20
528.9986906267068
 10
332.52310564837785
 20
531.8646034937819
 10
330.1805366666133
 20
534.299135616387
 10
328.99233588728544
 20
535.2902161731904
 10
326.4485268902556
 20
537.1468824954
 10
324.27681473161783
 20
538.419241984031
 10
323.2730020554088
 20
539.491250634876
 10
319.5761917997502
 20
542.321395740511
 10
316.186469844836
 20
546.1703346824975
 10
316.02494407760287
 20
546.2974983742124
 10
315.76839839107606
 20
546.5305294980935
 10
312.35700358722397
 20
548.4044271886833
 10
310.6454379785355
 20
549.3504754736837
 10
307.8235703647406
 20
550.9102118804622
 10
304.75586856803307
 20
552.1144737980139
 10
303.6462393233837
 20
552.4491714600117
 10
298.6778193125235
 20
553.4053152258357
 10
298.0887549668573
 20
553.5308667479899
 10
292.2542344625115
 20
554.2344995629396
 10
291.5364010777946
 20
554.3210689947864
 10
289.93950431604935
 20
554.7405908926771
 10
285.50509152930067
 20
555.7526127557712
 10
284.4226677575359
 20
555.9560837536969
 10
280.10389600530584
 20
557.322123380728
 10
278.92742978639626
 20
557.339487085937
 10
274.1208915456343
 20
557.5665268723269
 10
272.1763851840781
 20
557.6554067160987
 10
266.3164533153695
 20
557.3789189865529
 10
263.06549426991705
 20
558.563146522195
 10
261.1474959128975
 20
559.1086330356857
 10
257.8127768730028
 20
558.7496972456706
 10
251.96591410603946
 20
560.0945664451365
 10
247.70566389623468
 20
563.4717151734494
 10
245.65024322090107
 20
564.1127005958374
 10
243.1999637035774
 20
564.866583257723
 10
242.59044051398655
 20
564.9939013394551
 10
237.25005477753098
 20
566.5822982930431
 10
235.8256891050787
 20
566.9943620793515
 10
231.85670416384187
 20
567.6015063856735
 10
229.16915180540082
 20
568.1895674687212
 10
225.86359053182628
 20
568.6086077208938
 10
222.41054316484656
 20
569.2514702135195
 10
219.31285587176944
 20
569.5482232453278
 10
215.02190042644042
 20
570.844586962286
 10
214.0365306483368
 20
570.9506146582607
 10
208.46900526631566
 20
571.5621882079918
 10
207.52776133530506
 20
571.7241026540833
 10
201.3704569454244
 20
572.2151202104028
 10
200.19989710634854
 20
572.4974497621351
 10
197.08439920939236
 20
573.3068545166861
 10
194.63775459919157
 20
574.006791887628
 10
194.28584090851132
 20
574.0583517779228
 10
188.41511439468286
 20
575.2787952230046
 10
186.8809797342883
 20
575.7042081781774
 10
181.26182882732974
 20
576.8902555709446
 10
178.67096101668153
 20
578.7283543765284
 10
177.16529754869998
 20
579.0706890045367
 10
172.15807676982627
 20
580.5792722178335
 10
170.14944495157647
 20
581.4783679867019
 10
167.5453155321236
 20
583.0457537704938
 10
166.4788580977022
 20
583.4853664446682
 10
165.8551484415243
 20
583.5780610126535
 10
160.43859311938127
 20
585.6298002333197
 10
157.98226036872393
 20
586.4927006428056
 10
154.60973628279748
 20
588.1164854958715
 10
150.248179538062
 20
590.0912978168899
 10
149.1907689365637
 20
590.8205862761424
 10
145.19152698411222
 20
592.4428396764933
 10
143.10575649073007
 20
594.0389616590442
 10
142.30516439442545
 20
594.6995984152786
 10
137.35713023173753
 20
598.739221625925
 10
134.9761920398621
 20
604.5627173349853
 10
134.66174059842524
 20
605.0526791751163
 10
134.4104726919229
 20
605.4459824943651
 10
131.243057713579
 20
608.2582338300595
 10
128.3092838601208
 20
612.8074284503791
 10
127.69888644547586
 20
613.4841167294894
 10
126.89318373538936
 20
614.7668056919879
 10
124.1627842507869
 20
619.1136630817068
 10
122.08982380618318
 20
622.6029766051497
 10
121.04294855859644
 20
624.1772868823191
 10
119.67838832512552
 20
626.5594282314146
 10
117.9597053786556
 20
630.0063461853129
 10
116.65504277063883
 20
632.2908627936954
 10
115.15421084040213
 20
635.3107656034372
 10
112.91605935687994
 20
638.844037462608
 10
112.44404859616589
 20
639.6354520945124
 10
111.54521717187458
 20
640.6256121922156
 10
109.22432709655504
 20
644.3683004295717
 10
106.97088225924404
 20
646.7153070297563
 10
106.28515084099035
 20
647.3609696509161
 10
104.46536917183357
 20
648.7509387548444
 10
102.08750823420587
 20
650.9158908697309
 10
100.65071823597032
 20
652.0005327668828
 10
98.38749900176595
 20
653.7761725544569
 10
95.10802077455855
 20
655.4123046874129
 10
94.70909319600992
 20
655.5658422143924
 10
90.7442522407066
 20
656.7988651994015
 10
88.92733172418366
 20
657.5192212673137
 10
84.9362494328168
 20
658.3775189280841
 10
83.14035777099002
 20
658.2749069570173
 10
78.67453668505664
 20
659.6145563821224
 10
77.22873507494819
 20
659.5154786638532
 10
72.59212982216309
 20
659.5154786638532
 10
69.36415155748955
 20
659.2987008724699
 10
62.81354619753188
 20
661.003438948755
 10
60.629041185927235
 20
662.8157117092801
 10
59.082396411196896
 20
662.463187964695
 10
53.75776739512571
 20
658.4061406749911
 10
53.58011123452843
 20
658.2672855342889
 10
53.48953742175695
 20
658.1847267534276
 10
46.93356901592074
 20
652.3649903983401
 10
44.11478129320267
 20
649.4485621959757
 10
40.80776368197394
 20
645.4638703585597
 10
38.17145734530777
 20
641.1846353566707
 10
33.989604367187894
 20
634.3723118965108
 10
32.40145876035763
 20
632.1033781600172
 10
29.895993092999333
 20
626.5957211065884
 10
28.75566844559512
 20
623.9300621515417
 10
27.893339132630445
 20
621.0450266659664
 10
26.497277529674648
 20
615.7532701959562
 10
26.29313874769764
 20
613.9394416513574
 10
25.7869682980413
 20
607.6204659280666
 10
25.876814361231254
 20
605.183813869066
 10
26.44721210452758
 20
598.4720927829076
 10
26.138157116771026
 20
595.2452316902104
 10
25.5537603450216
 20
588.4674215622649
 10
24.918748610422426
 20
583.9626584504108
 10
24.07427554432479
 20
579.3582662527201
 10
24.07427554432479
 20
574.6213641608333
 10
24.130508218831665
 20
570.6825778492962
 10
23.99200103597218
 20
565.6003137677985
 10
24.453513036939285
 20
562.488152545568
 10
25.08089327654534
 20
558.3028988568881
 10
25.61454228729258
 20
552.8083369474671
 10
25.862835013144377
 20
549.6002665870824
 10
26.133082731537115
 20
543.4134564930373
 10
26.355209447592642
 20
540.9917666903439
 10
26.56483428146771
 20
533.9279828100971
 10
26.635284496360327
 20
532.1870996840184
 10
27.373886380840304
 20
525.0421299870632
 10
27.436428612191776
 20
524.2160740731829
 10
28.097395890852795
 20
519.0009885256309
 10
28.435586762614776
 20
516.2723645058977
 10
28.499676190021773
 20
515.4257544582015
 10
28.49966887059759
 20
506.8966927577944
 10
29.973910079664847
 20
500.8947740616404
  0
LWPOLYLINE
  5
90
330
17
100
AcDbEntity
  8
GRABADO
100
AcDbPolyline
 90
485
 70
1
 10
83.89007897976762
 20
316.3184333771833
 10
84.9402003387197
 20
320.6737654831709
 10
84.40652695079825
 20
321.34931386670405
 10
83.88799798185869
 20
327.1922110181408
 10
83.50010179195692
 20
329.43351313633184
 10
83.52538028387994
 20
329.9330184282567
 10
80.58330988068587
 20
334.7906175709618
 10
79.72870777681487
 20
339.1964663356789
 10
79.03001729744824
 20
341.97703611602947
 10
76.93536506142732
 20
344.50895227901356
 10
75.30322729895306
 20
346.2590620358301
 10
73.70540984196236
 20
348.43160700460794
 10
72.0277801062
 20
351.19220406326485
 10
69.9516780053923
 20
355.7029412889606
 10
69.45899017769739
 20
357.04047261578125
 10
68.97521035730188
 20
357.7091191626205
 10
68.83599200936419
 20
365.51031004565175
 10
68.49323806489883
 20
366.96901912751946
 10
66.3048307002025
 20
371.391095209628
 10
65.5301576593663
 20
376.24280285825625
 10
65.05344361784887
 20
378.9927008295249
 10
62.98142269041273
 20
384.3778675574081
 10
62.65030641719477
 20
385.0676011485839
 10
62.65585524610424
 20
385.50822300339587
 10
61.18233470395671
 20
392.3469692097451
 10
58.65382007846074
 20
394.72740740092877
 10
57.39279358524345
 20
396.5838057011647
 10
56.00605762279497
 20
402.853656712301
 10
55.84121387107166
 20
403.78970562491804
 10
55.72230335948802
 20
404.0007093451104
 10
52.93030161844672
 20
409.1768647954891
 10
51.67397194694513
 20
413.26866254915376
 10
50.58731046836601
 20
415.31940755315964
 10
49.04131151371416
 20
418.98545282919804
 10
47.9180161283432
 20
421.0393597451048
 10
47.47403113586188
 20
422.5296531318604
 10
45.25674630810272
 20
426.7568372601704
 10
42.89044766816869
 20
431.7866973911691
 10
42.5747666744212
 20
432.4555546672955
 10
42.07137308389929
 20
433.46807045425385
 10
39.745250079484094
 20
437.9542029270342
 10
38.14924590537703
 20
441.04857579728787
 10
37.116988233970005
 20
443.7394611079949
 10
35.168525510266136
 20
450.321271566213
 10
35.15211490210413
 20
450.39735015798624
 10
35.09552411885443
 20
450.5881647135452
 10
33.23950905181482
 20
457.11435681880266
 10
32.53278438013945
 20
459.5808114403517
 10
31.40594467785354
 20
463.93733018453395
 10
29.681967703030978
 20
468.8373324756867
 10
29.220585926001604
 20
470.2959650891621
 10
28.12423670286603
 20
474.4522506015237
 10
27.432308340209147
 20
477.181867683531
 10
27.151907502983704
 20
478.1061788457928
 10
26.326005906026467
 20
484.986139156209
 10
26.00369818119725
 20
487.36726264278605
 10
24.715462340382146
 20
492.09703641553415
 10
23.759332117059557
 20
496.62679223780196
 10
23.159695618207024
 20
499.2912964774732
 10
21.538565209574926
 20
505.8912292758714
 10
21.499668412815254
 20
506.36325861689556
 10
21.499675962969377
 20
515.1611816380787
 10
21.468177771927003
 20
515.5772671938353
 10
21.15173641054821
 20
518.1304097283942
 10
20.469752895683314
 20
523.5113150876509
 10
20.401114639659227
 20
524.4178871123786
 10
19.64986608667573
 20
531.6851961441266
 10
19.569033635667665
 20
533.6826329186479
 10
19.364707941026154
 20
540.5678502922237
 10
19.147055880651806
 20
542.9407561024914
 10
18.874634450131225
 20
549.1773292221542
 10
18.64070176448263
 20
552.199860440418
 10
18.131265870271818
 20
557.4451190340815
 10
17.53004271056284
 20
561.4558788381714
 10
16.977921388560162
 20
565.1790551904701
 10
17.129146620777647
 20
570.7279844954119
 10
17.07427554432479
 20
574.5713984309341
 10
17.07427554432479
 20
579.9948779169185
 10
18.007480860395845
 20
585.0830724948901
 10
18.595885452935136
 20
589.2572052847195
 10
19.16688161845127
 20
595.8795957234402
 10
19.418782300757584
 20
598.509705390521
 10
18.88775010952895
 20
604.7582223196036
 10
18.776643030254718
 20
607.7714794827002
 10
19.324472368154602
 20
614.6105201438954
 10
19.59839318732611
 20
617.044381049509
 10
21.15394095955594
 20
622.9406681264395
 10
22.16302109560911
 20
626.3166776816447
 10
23.491393068686875
 20
629.421922011607
 10
26.296838647789855
 20
635.5890119594201
 10
28.134110996346635
 20
638.2138652454405
 10
32.20873648024599
 20
644.8515129390744
 10
35.10647479538329
 20
649.5551025985869
 10
38.897401222315466
 20
654.1228658721634
 10
42.086312793607476
 20
657.4222387076584
 10
48.808023199668696
 20
663.3891043172762
 10
49.060515118516605
 20
663.6192527935245
 10
49.48104738386769
 20
663.9479386475855
 10
56.0471181523219
 20
668.9508899395455
 10
61.11659962996009
 20
670.106367023101
 10
63.081120635945354
 20
669.8767233942176
 10
66.08406380076894
 20
667.3854715682414
 10
70.02814451011864
 20
666.3590588641164
 10
72.35734857891748
 20
666.5154786638532
 10
76.98916842333438
 20
666.5154786638532
 10
79.46625724064847
 20
666.68522830741
 10
83.97133286083522
 20
665.333803373785
 10
85.48227118508521
 20
665.4201339486785
 10
90.95483964412097
 20
664.2432369658832
 10
91.4476283291483
 20
664.0500879418273
 10
93.07693916519656
 20
663.4041136481865
 10
97.00811688140948
 20
662.1815595692487
 10
97.93410028876951
 20
661.825171066585
 10
102.14883050952062
 20
659.7224415870292
 10
104.92026564439834
 20
657.5480740225448
 10
106.56201367800122
 20
656.3087080024593
 10
108.95452050565495
 20
654.1304213606941
 10
110.82098687537928
 20
652.7047939728545
 10
111.89800275120751
 20
651.6907105067817
 10
114.78458910373297
 20
648.6842747115911
 10
117.15758054540561
 20
644.8575673416299
 10
118.09747941528144
 20
643.8221670077337
 10
118.87981715495994
 20
642.5104309504118
 10
121.2615105884147
 20
638.7505556928377
 10
122.83374438254009
 20
635.5869814399225
 10
124.13613195511402
 20
633.3064485099421
 10
125.85276547174999
 20
629.863640805991
 10
127.00102648830875
 20
627.8590975253023
 10
128.01713791451402
 20
626.3310504492906
 10
130.13656115794834
 20
622.7635283557233
 10
132.82081333535598
 20
618.490138516971
 10
133.30346531016085
 20
617.721750434077
 10
133.88569815769574
 20
617.0762854727468
 10
136.60678512807658
 20
612.8568892870157
 10
139.7855975077464
 20
610.0345185456481
 10
140.5567720188426
 20
608.8274185257674
 10
141.21320691789333
 20
607.8045958934545
 10
143.16287779527488
 20
603.0359294798304
 10
146.74628581189563
 20
600.110400325987
 10
147.46188082301364
 20
599.5199019072484
 10
148.69664850412596
 20
598.5750041606266
 10
152.53323485259511
 20
597.0187304158667
 10
153.7064629805534
 20
596.2095634446086
 10
157.57211996892624
 20
594.4592830983347
 10
160.66888690893484
 20
592.9682683205174
 10
162.8387871750101
 20
592.2059905600472
 10
167.6298075097891
 20
590.3911979948002
 10
168.35490993977237
 20
590.2834346215277
 10
170.70199697056478
 20
589.3159237084578
 10
173.39613074613544
 20
587.6943656753128
 10
174.60773128477035
 20
587.1520338711725
 10
178.9530579366549
 20
585.842867143198
 10
181.58340430334079
 20
585.2448193960608
 10
184.12806241507337
 20
583.4395041975895
 10
188.54067842311474
 20
582.5081229625457
 10
190.06450847256815
 20
582.085567458616
 10
195.50667060498085
 20
580.9542166648203
 10
196.11433207743767
 20
580.8651864290382
 10
198.9274203190621
 20
580.06041667218
 10
201.90074898854436
 20
579.2879474099559
 10
202.47612999614307
 20
579.149170171469
 10
208.401146485563
 20
578.6766765389357
 10
209.4454369481016
 20
578.4970358461997
 10
214.79314114685508
 20
577.9096088987976
 10
216.4206535010744
 20
577.7344854183307
 10
220.6721034925704
 20
576.4500569073248
 10
223.38681863623242
 20
576.1899919384759
 10
226.94526197786968
 20
575.5275076127909
 10
230.35982331208902
 20
575.0946496125507
 10
233.1353758075686
 20
574.487333293142
 10
237.33393345373315
 20
573.8450707480893
 10
239.22054397743636
 20
573.2992812147404
 10
244.30685553469766
 20
571.7864538308677
 10
244.94858454238283
 20
571.6524085514661
 10
247.72147684426454
 20
570.7992669344035
 10
250.61043893508213
 20
569.8983406139337
 10
251.2996028647142
 20
569.5553494619703
 10
255.0755907228413
 20
566.5620809999796
 10
258.23438299762256
 20
565.8355097416515
 10
261.7524420085856
 20
566.214179511222
 10
265.2236957933799
 20
565.2269408529728
 10
267.3911215751393
 20
564.4374122073227
 10
272.17122972526363
 20
564.6629508789356
 10
274.4458440253645
 20
564.558982402601
 10
279.14427895136123
 20
564.3370489426902
 10
281.23493626951836
 20
564.3061925043312
 10
286.1309781832699
 20
562.7575607049457
 10
286.930964510844
 20
562.6071815090668
 10
291.6080036588828
 20
561.53978744812
 10
292.8509175021675
 20
561.2132606575719
 10
293.09234929380773
 20
561.1841444121073
 10
299.2397327774654
 20
560.4427808772703
 10
300.06896755910407
 20
560.266040102134
 10
305.3228139737057
 20
559.2549676716758
 10
307.04931711901077
 20
558.7342022277658
 10
310.8084167106688
 20
557.2585240874146
 10
314.0317272667439
 20
555.47689733778
 10
315.7352413633346
 20
554.535299433865
 10
319.8630875014792
 20
552.2678511348163
 10
320.5488633848388
 20
551.644932359633
 10
321.0179027950803
 20
551.2756737330506
 10
324.37602393377324
 20
547.4626166757057
 10
327.9873398854147
 20
544.6979229374224
 10
328.69198590271185
 20
543.9454054167445
 10
330.2909185519411
 20
543.0086251349576
 10
333.3021205877899
 20
540.8108196331068
 10
334.9587477113382
 20
539.4290237610735
 10
337.3620030786278
 20
536.9314228639246
 10
341.00425768451237
 20
533.7360187545864
 10
341.45447277732274
 20
533.1111157350174
 10
341.9242594309783
 20
532.8422435132306
 10
345.51083167404045
 20
529.2344540746626
 10
348.90403005800476
 20
526.0029650946817
 10
349.50592961759344
 20
525.2645235412424
 10
350.093394803637
 20
524.4630776148883
 10
352.32560066003884
 20
519.7232141999084
 10
354.31990101535916
 20
515.1879925783865
 10
354.69790338069265
 20
513.6004864942547
 10
355.889427026171
 20
510.4620364232851
 10
357.0762171062818
 20
507.52743647823036
 10
358.5022322564307
 20
505.9487039037458
 10
360.4745584946759
 20
502.7959952590777
 10
362.84575274340295
 20
500.4700037870025
 10
364.33298211304214
 20
498.65262888663074
 10
365.4689034968035
 20
496.67627181233865
 10
367.0398499297726
 20
492.98822151980903
 10
369.8138136825178
 20
490.3915301605243
 10
371.0575193127693
 20
489.0878571994481
 10
372.8280301302939
 20
487.4347307974331
 10
374.9616234343812
 20
485.0498921598237
 10
376.7389381091775
 20
484.76682855440504
 10
381.5690989128557
 20
484.5979910815199
 10
383.7354221703995
 20
483.5453531560888
 10
386.67461146707774
 20
482.08676642992623
 10
390.7058179924493
 20
479.53235506207966
 10
391.5323408773934
 20
479.247516118005
 10
391.9782283049881
 20
478.14176837460354
 10
392.97317350958565
 20
471.82297599292906
 10
392.97317350958565
 20
468.87069958378333
 10
394.1915928241924
 20
464.1921506866597
 10
394.87859417591244
 20
459.6116594006353
 10
395.3512058470492
 20
456.46078268950214
 10
395.3512058470492
 20
450.33261423814065
 10
394.50322047854297
 20
446.0544609589456
 10
393.34060828306747
 20
441.05307912894796
 10
390.7398435593909
 20
436.0541801152049
 10
388.5857407938611
 20
431.7798645336957
 10
383.76105626311346
 20
424.98298937681693
 10
381.54371691353026
 20
422.50889420378917
 10
376.7867138087545
 20
416.84154395495534
 10
373.0865936860919
 20
413.2420721182457
 10
369.80482241294203
 20
410.4304816702779
 10
365.9898967376114
 20
408.1699912954132
 10
362.84314944436255
 20
405.8678429195588
 10
361.39150266254137
 20
403.9882128740105
 10
355.8685425221911
 20
398.1100697466627
 10
350.8605595572403
 20
394.720518575049
 10
348.90352997235595
 20
392.3005165583604
 10
343.1685893143781
 20
387.10702557000604
 10
341.9362245398693
 20
385.8859058091052
 10
341.65497345080803
 20
385.4699498389723
 10
334.9576141418645
 20
377.77536654444066
 10
332.6174390213971
 20
376.1942018734826
 10
327.9857876074857
 20
372.6546356602739
 10
322.0552857505836
 20
366.9368992299537
 10
321.01119918160043
 20
366.1814683070861
 10
319.63261436065113
 20
365.1039429170264
 10
314.0388579490102
 20
361.4551959607743
 10
309.11897679377967
 20
357.6719333597048
 10
307.05779006638295
 20
356.43295111445013
 10
305.74101496703975
 20
355.9247756376808
 10
300.0907023262496
 20
354.13686320620536
 10
293.2187203919191
 20
348.4244802023377
 10
293.1499185867892
 20
348.3029760070972
 10
288.8062819786903
 20
339.1720511130825
 10
286.16628785425814
 20
335.9953884964948
 10
279.43271968769545
 20
330.21677892280604
 10
279.1918611380613
 20
330.0132924714376
 10
279.0719229591823
 20
329.9006644193514
 10
272.23074110085327
 20
321.6908088764644
 10
271.4897777411504
 20
320.6469583728749
 10
265.2611134606602
 20
312.60131720148047
 10
264.4215805631786
 20
311.38711992552817
 10
258.2913213174347
 20
303.24311189289347
 10
257.5668740777778
 20
302.1288567312772
 10
251.31903501597185
 20
292.9844783056228
 10
251.21769012163986
 20
292.8632062014999
 10
244.34950185922594
 20
283.7388228401187
 10
244.26283351397274
 20
283.6109945106091
 10
244.07256504299812
 20
283.2394851501617
 10
239.418951185163
 20
274.3549746262538
 10
237.38425697802177
 20
270.15020543657874
 10
234.54421605004995
 20
265.09245502490785
 10
230.41502124975932
 20
257.17106876966136
 10
229.85900391181963
 20
255.84489654685194
 10
229.63378683356677
 20
254.80663912600085
 10
227.84198819095423
 20
246.58981147815985
 10
226.55747452539595
 20
241.4593310739706
 10
225.83595461462005
 20
237.329470321994
 10
223.44862893228606
 20
229.04252069017366
 10
223.18492504077017
 20
228.06159694274402
 10
222.86220014165656
 20
227.2830404929432
 10
220.02619996245812
 20
218.80579009554413
 10
218.7754505892292
 20
212.60124603370468
 10
218.2686446389573
 20
209.5575841639543
 10
218.12345465309454
 20
202.48397853501365
 10
218.0228879855058
 20
200.30825233226142
 10
218.9768697462339
 20
194.37056785607228
 10
219.34291390154863
 20
191.04918133179535
 10
219.56831460711442
 20
185.88716471411817
 10
219.6421334081224
 20
181.81120635145226
 10
221.65812149413796
 20
179.45986011725154
 10
223.4444728210301
 20
176.0972465135269
 10
224.3728224667957
 20
173.7833752410661
 10
224.91503009691587
 20
172.5610704666692
 10
227.70922006552632
 20
168.98627104865773
 10
230.38369982163977
 20
165.65314094023233
 10
232.12078689424243
 20
165.6128389378091
 10
232.68343295511022
 20
163.28894119677307
 10
234.66491118739395
 20
159.6722392424008
 10
236.166275309743
 20
154.03463907366086
 10
236.76622086792668
 20
153.24398987495442
 10
237.36039622877752
 20
152.67813370039585
 10
241.77249224655407
 20
150.65414562055594
 10
244.3496149141506
 20
147.2021893699657
 10
245.21775003731727
 20
145.91807191785074
 10
245.59471154199014
 20
144.77361769796607
 10
248.2768124729564
 20
140.7601188146209
 10
251.3167326147286
 20
138.6909281193589
 10
252.30550087147003
 20
136.82387545704887
 10
253.21580441239894
 20
135.51765431983495
 10
255.17156495430368
 20
131.39364785911994
 10
258.28106507107145
 20
129.61025156374717
 10
259.5242292668404
 20
127.90166695304151
 10
260.69020711578014
 20
126.25653954012205
 10
262.3887063333302
 20
122.4337458648065
 10
265.2618534461842
 20
118.34495394789838
 10
265.7526945792192
 20
117.65215768054395
 10
266.1828534810477
 20
116.99714682380545
 10
268.7063167268923
 20
112.31285293161363
 10
272.2287477805571
 20
107.78071693372658
 10
272.24324292102597
 20
107.7646695909757
 10
272.26327890791504
 20
107.73805186810023
 10
275.0746020326576
 20
102.23342555282034
 10
276.46732858961786
 20
98.46989709539412
 10
277.6773832904671
 20
96.42518640575872
 10
279.1899212837261
 20
89.18833095489936
 10
279.19365495278817
 20
89.15028618798806
 10
279.21694612249667
 20
87.52680981840876
 10
279.3475303857256
 20
80.09003752158287
 10
279.34546976914544
 20
79.90709042702338
 10
279.2150571400173
 20
79.36118122946118
 10
277.29222291156225
 20
70.63136591289413
 10
274.0377969254498
 20
63.754523206304384
 10
273.3006240687623
 20
61.36261434237804
 10
272.23176255235944
 20
59.76162077127401
 10
266.0402862653598
 20
52.0859588423682
 10
265.25908345851644
 20
51.21648416213384
 10
259.22782956233414
 20
42.83002806439663
 10
258.2892727850151
 20
41.53931363212905
 10
251.77918382204984
 20
33.56546264324834
 10
251.31237585348822
 20
33.014284913848314
 10
250.17432863972704
 20
32.05012330956288
 10
244.33654585746058
 20
26.75962285461037
 10
241.1155050780435
 20
24.28994243989473
 10
237.35058896110627
 20
22.192676285336802
 10
235.05117878060605
 20
21.231492349794735
 10
230.37699172468479
 20
18.82332220777289
 10
224.75102756292245
 20
16.8127928686863
 10
223.39900342123997
 20
16.259879181909582
 10
217.92918440074322
 20
15.019024079232622
 10
216.40481467628524
 20
14.686868959217009
 10
216.17540609815205
 20
14.742205545934212
 10
215.3632755883409
 20
15.021553388044595
 10
210.69362889608192
 20
16.730641263545294
 10
209.3969843894463
 20
17.267023781067564
 10
206.05239597319064
 20
19.860836253954858
 10
202.4192864060683
 20
22.683295810918025
 10
201.63033376954422
 20
23.253961892667576
 10
200.63149123700737
 20
24.30157920906231
 10
197.7787849678632
 20
27.411142686790754
 10
195.43845463231833
 20
29.936108166135
 10
193.93618742805802
 20
31.57371856349664
 10
192.46722891863942
 20
33.568459500278095
 10
190.45786847784757
 20
36.20711020798626
 10
188.46935025012272
 20
38.02804504431333
 10
186.515207548817
 20
40.23534346438328
 10
184.48195084733652
 20
42.83230665303881
 10
183.20249173255957
 20
45.119846826059984
 10
181.48500579745405
 20
48.62304844450182
 10
180.43742284682048
 20
50.70985325837
 10
179.7642814044923
 20
52.102090265338575
 10
177.72394962261387
 20
56.366075120052756
 10
175.24353027374673
 20
61.36687882006572
 10
175.02299308469583
 20
62.05410258313759
 10
174.50980449409167
 20
63.702337257542695
 10
173.0072882664781
 20
68.63894006412647
 10
172.44404855831817
 20
70.63197002473271
 10
170.78010712870287
 20
74.92212600884659
 10
167.70202984740922
 20
79.88004669662223
 10
167.64083041206254
 20
80.00570827540696
 10
167.54611004280082
 20
80.14900288060244
 10
164.77179491677794
 20
85.45459726799254
 10
162.4729696636441
 20
89.1402730863797
 10
161.7168799715398
 20
90.6532660413227
 10
160.57820091634062
 20
92.18732983006748
 10
158.44040725032005
 20
95.57079981649667
 10
157.3374469755522
 20
98.4259006322527
 10
157.69131380600174
 20
103.8776807240697
 10
157.1279699079655
 20
107.6820641907666
 10
156.1466178304304
 20
111.04236374667744
 10
153.60796612548575
 20
114.02309722040354
 10
152.66321939277077
 20
115.64588455169269
 10
150.9094699296354
 20
116.90861691576583
 10
149.2056919521881
 20
120.30903616617297
 10
146.66578708964403
 20
121.65699086975565
 10
144.15746597710722
 20
122.77776819671544
 10
139.73568070586816
 20
121.97139691278244
 10
136.53888192003797
 20
121.89366742471657
 10
132.77505634818385
 20
120.90177146638553
 10
128.02831158299705
 20
119.83933484421323
 10
125.81036817330687
 20
119.19583972024884
 10
119.71092952312347
 20
116.88806429865554
 10
118.83752559168943
 20
116.59419710611883
 10
118.55137949676327
 20
116.51821191898625
 10
111.85290928631457
 20
116.33874293741792
 10
111.34656346041606
 20
116.24752336382926
 10
110.65265603543571
 20
116.90182497128808
 10
107.00029589846667
 20
119.77305517646573
 10
104.84327505098645
 20
120.86512297022318
 10
101.80472460506371
 20
122.1142977665977
 10
97.87408546096117
 20
124.10328540674118
 10
96.67269233944239
 20
124.53537280025557
 10
90.91100465715795
 20
125.42428912926835
 10
90.50646903362963
 20
125.61449241020864
 10
88.2920721235862
 20
126.14657367645168
 10
84.67351715324617
 20
127.11926820781764
 10
83.9389527846588
 20
127.34260682629929
 10
79.12880237863851
 20
129.0517830339404
 10
76.94451107215355
 20
131.5212810209082
 10
74.84150212854888
 20
132.6425855571747
 10
73.38981474846446
 20
135.4738469395852
 10
76.21517963916813
 20
143.82847484433069
 10
76.60336124678747
 20
144.77019106828857
 10
76.92365110317132
 20
145.4787464867618
 10
80.95799302973342
 20
154.0140081559707
 10
80.45119870623626
 20
158.69448816507747
 10
80.6588884409025
 20
163.27586536367107
 10
83.82896247127633
 20
172.44927204025225
 10
83.79947532277833
 20
172.52310859481213
 10
83.89205100999311
 20
172.7404343382177
 10
86.77635909985906
 20
181.77575683569103
 10
85.59733334801012
 20
184.01721618203146
 10
83.89278228230114
 20
189.10978455228405
 10
83.33248562362633
 20
190.27949344098397
 10
83.2032890486787
 20
191.03770321204274
 10
83.34463410635931
 20
199.5840541365087
 10
83.35547679192405
 20
200.310842717613
 10
83.88882489780121
 20
203.46451074832612
 10
85.27418223033305
 20
209.58111628914912
 10
85.87024632371163
 20
212.21295275059083
 10
87.39759181068484
 20
218.82206994951366
 10
86.3580149095842
 20
222.102143043061
 10
87.0881131001886
 20
228.08681079181451
 10
86.730831098512
 20
231.85807078936477
 10
86.51813423845215
 20
237.34163708190727
 10
86.24480034804992
 20
240.47342784749344
 10
86.03601545055108
 20
246.60342576471885
 10
85.87984649409054
 20
249.24865775153194
 10
85.39020757603112
 20
255.86519733611476
 10
85.4136796177429
 20
257.89511767549266
 10
85.31871203840637
 20
265.1216589834894
 10
85.06638453261371
 20
266.68601253647876
 10
84.6611149328819
 20
274.3850894834436
 10
84.61832650476572
 20
275.3527900268564
 10
83.88811061127717
 20
280.82434383114924
 10
83.55941500349536
 20
283.206851630262
 10
83.54451670037065
 20
283.6422628541127
 10
82.42090840829178
 20
290.9399965431385
 10
81.69827313238966
 20
292.8978817013958
 10
81.96460834997606
 20
299.6085635372774
 10
81.31474193306235
 20
302.166894295332
 10
82.47439077868603
 20
309.55815650621844
 10
82.37961756626305
 20
311.44051267826626
 10
83.89007897976762
 20
316.3184333771833
  0
TEXT
  5
91
330
17
100
AcDbEntity
  8
GRABADO
100
AcDbText
 10
290.4718414933635
 20
344.0951132049763
 30
0.0
 40
6.0
  1
85z
 72
1
 11
290.4718414933635
 21
344.0951132049763
 31
0.0
100
AcDbText
 73
2
  0
LWPOLYLINE
  5
92
330
17
100
AcDbEntity
  8
CORTE
100
AcDbPolyline
 90
348
 70
1
 10
469.75842032154276
 20
657.8356391275192
 10
470.0495243948616
 20
657.364013553436
 10
476.0242288745666
 20
650.8647999858822
 10
478.68482762202245
 20
648.176334037541
 10
483.05087473738683
 20
643.890251090018
 10
487.2715339305904
 20
637.4278077974832
 10
487.62826007857336
 20
636.9167457375779
 10
487.94941965964597
 20
636.5197038755905
 10
493.9211340677165
 20
629.945582575232
 10
497.215267023127
 20
624.2814930902514
 10
498.24684512939064
 20
622.9622188239618
 10
498.42335029343474
 20
622.0376602631977
 10
498.42335029343474
 20
615.9970804754676
 10
506.45364358802806
 20
609.9524180048575
 10
508.1901157641777
 20
609.0539746647619
 10
515.7491365870545
 20
604.2208552449592
 10
515.7491365870545
 20
567.4874167698699
 10
515.7488881736798
 20
526.1410308296145
 10
515.748892083683
 20
478.39202151252084
 10
515.7488949037814
 20
442.23947932798274
 10
515.7488983788088
 20
399.419888097872
 10
515.7489021645414
 20
353.56307594799455
 10
515.7489053399376
 20
314.23752010188036
 10
515.7489089170102
 20
270.93525361720003
 10
515.7489139140542
 20
213.19473036203908
 10
515.7489172899367
 20
172.39153935329432
 10
515.748920370488
 20
134.80099712361334
 10
515.748921366724
 20
118.68909292908666
 10
515.7489225855696
 20
100.36197094401814
 10
515.7489239118003
 20
81.00970694341231
 10
515.7489240672329
 20
73.30565481899339
 10
515.7489212042991
 20
73.30565481899339
 10
515.7489212289246
 20
72.87436996339693
 10
515.7489217928577
 20
61.34498591264128
 10
515.7489212289246
 20
61.06849098615385
 10
515.7489229254642
 20
38.33181306597089
 10
515.7489246823451
 20
15.09111233206113
 10
515.7489241770116
 20
13.000000280608674
 10
515.5989244250667
 20
13.000000267246378
 10
515.598923487334
 20
15.23364190393795
 10
515.5989215868884
 20
28.041170382560722
 10
515.5989190629251
 20
46.845893843204976
 10
515.5989170752363
 20
60.27926496357668
 10
515.5989158867786
 20
65.82675065500916
 10
515.5989154630969
 20
67.83012563990906
 10
515.598911251126
 20
67.83012563990906
 10
515.5989086701446
 20
86.07090846297888
 10
515.5989036905111
 20
127.04967859794397
 10
515.5988959069526
 20
194.27052924917643
 10
515.5988868176772
 20
273.37637499241555
 10
515.598882286681
 20
313.26480082073795
 10
512.1673112832103
 20
311.8353595530871
 10
506.42454615466056
 20
310.3190543268529
 10
504.9738901780737
 20
310.2603137853539
 10
497.1520845083186
 20
309.79853229308173
 10
496.2238009202582
 20
309.87019871834855
 10
487.8835884160161
 20
310.13303890699444
 10
486.14120381197597
 20
310.48257430397734
 10
478.617444746258
 20
311.88907520397515
 10
473.72378030203424
 20
312.8616461483425
 10
469.36198621705523
 20
313.0782371896548
 10
462.34744535356265
 20
314.44939410109873
 10
460.09520395738843
 20
315.1229022738853
 10
451.5767171201386
 20
316.1451379837117
 10
450.8415361189881
 20
316.2283251024528
 10
450.7105237522936
 20
316.2432281335441
 10
441.58736400588793
 20
317.46261086976756
 10
440.0241248725014
 20
317.32881282531616
 10
432.3398089828496
 20
316.4100924710983
 10
432.06046314220373
 20
316.3589731736347
 10
431.0783402408741
 20
316.14606830389766
 10
424.6396202396362
 20
314.97618985089684
 10
423.0859658072567
 20
314.5402471675743
 10
417.5271078622553
 20
313.3614712676863
 10
413.830210639955
 20
312.19998577340994
 10
411.0122725551181
 20
311.2927436200207
 10
404.54548607475215
 20
310.3001181701211
 10
402.52511838320413
 20
310.68859523967967
 10
395.270277291297
 20
311.32358792061495
 10
389.8545903775083
 20
313.2477537353361
 10
386.001605862224
 20
314.69551700964985
 10
381.25572630327395
 20
316.14898850497684
 10
376.7235583163482
 20
318.0345806140531
 10
371.37828013976093
 20
323.13432153373924
 10
367.45635306953307
 20
326.4106758085036
 10
363.09440858866117
 20
330.1183248152638
 10
361.8437076027675
 20
334.34199981456095
 10
360.4840680559936
 20
337.1223454209712
 10
361.48144703045807
 20
341.6298769443174
 10
362.2448157682319
 20
344.135178843474
 10
364.0086028601389
 20
346.7254795991894
 10
366.4762488831037
 20
351.113264302875
 10
366.81558436856164
 20
351.59313352717345
 10
367.44885010525456
 20
352.34027308617806
 10
370.6345247241833
 20
355.69181157715866
 10
372.3206903567533
 20
358.08291497829214
 10
373.5587213225398
 20
360.45583889649333
 10
376.7139125150251
 20
363.67119614004605
 10
377.583882149578
 20
364.42053899735765
 10
378.42514997587284
 20
365.07565411217274
 10
382.4703960390269
 20
367.7033643054647
 10
385.1715146656969
 20
372.0273469556096
 10
385.4510322204486
 20
372.40815720703176
 10
385.9602320657385
 20
373.46020409702123
 10
388.35049792325105
 20
377.19466724960057
 10
389.2815029618158
 20
378.9888181150018
 10
390.7992198786295
 20
382.2973535916799
 10
391.0992962071722
 20
385.935912539072
 10
391.56335753556493
 20
388.7042422622735
 10
394.48890287386973
 20
392.95015273028275
 10
394.87224642787703
 20
393.2332976464486
 10
395.2446077295907
 20
393.5414292272262
 10
400.2500247131892
 20
396.1613610616232
 10
404.4474111378257
 20
399.9233980622439
 10
404.45870572671527
 20
399.9338932772707
 10
404.4799233368793
 20
399.97695201237
 10
407.03575413849273
 20
404.94996811118835
 10
408.0505599370689
 20
406.86278995178964
 10
408.65104339599554
 20
410.67210051362326
 10
408.846251644365
 20
413.8179711881103
 10
409.3979715163522
 20
417.08528771799047
 10
410.01346728614124
 20
420.7804428331892
 10
409.51375453386834
 20
423.95466221764946
 10
410.0783426742163
 20
427.7538189057923
 10
409.885257929045
 20
430.6522178168816
 10
410.8162888539608
 20
434.745194145753
 10
411.55049109052095
 20
436.4051201405355
 10
413.74144457507
 20
439.99314121072985
 10
414.3482610504251
 20
441.2663909671728
 10
414.5696751516206
 20
441.73097204212536
 10
417.59525491541706
 20
445.81296884353924
 10
419.9418345716539
 20
448.7152523343393
 10
421.36691043696726
 20
449.94543534649256
 10
423.001527908791
 20
453.12281860388885
 10
423.9636744165681
 20
454.9450526772507
 10
424.3550057544379
 20
455.66581952319757
 10
426.2198360428455
 20
460.2095995455702
 10
427.3156550332013
 20
462.6420839995126
 10
429.06710201737303
 20
465.05445207123466
 10
431.9258890436985
 20
469.61920715513133
 10
432.067279815691
 20
469.7876200154751
 10
432.277377612494
 20
469.943955806807
 10
435.76621051361406
 20
473.9408053749239
 10
436.33823386349366
 20
476.56120259856743
 10
437.0320629189945
 20
479.9292102239024
 10
437.20934398004454
 20
483.5179960758351
 10
437.19049594129854
 20
486.77837070727946
 10
437.96211672289235
 20
490.49735247964963
 10
438.1396916980465
 20
493.04992369814045
 10
440.5927178373603
 20
497.4797959832449
 10
440.64326075552333
 20
498.1342493711336
 10
441.52114390160557
 20
499.94209977140144
 10
443.02510111748677
 20
503.32092905973605
 10
443.3579441479868
 20
504.41122645431915
 10
441.5401859207285
 20
506.5575982761211
 10
433.35676325253996
 20
511.3565758697623
 10
433.456316586822
 20
517.4929444460276
 10
434.22405799307387
 20
518.3965545793899
 10
434.0777979982694
 20
523.9623593587758
 10
433.9266539507752
 20
525.3137896976687
 10
432.2569569406959
 20
527.7718869408054
 10
431.5789855841384
 20
532.2950933700522
 10
431.3804024783575
 20
532.9753028946316
 10
432.2778339263185
 20
534.377013030803
 10
436.48422240467323
 20
536.1862985095968
 10
439.8520681179233
 20
539.327798233955
 10
440.3005894320912
 20
540.2070433574199
 10
439.5158154968675
 20
546.2519563183669
 10
439.67197022106745
 20
547.645689343567
 10
439.97733471071376
 20
553.233828264033
 10
440.20905075101734
 20
554.2465033240187
 10
441.5264854219412
 20
555.6860076733165
 10
443.13745237684714
 20
558.994521104516
 10
443.2659329802017
 20
560.2000714563756
 10
443.56872182609084
 20
565.6195580756385
 10
443.5383627348591
 20
567.1711231015079
 10
444.4516829395542
 20
571.9342356822317
 10
444.59658977358583
 20
574.1471293891464
 10
445.57911877692084
 20
578.0588623232334
 10
445.80165790770286
 20
581.0975699799965
 10
444.3049498709669
 20
585.9814201145464
 10
445.5774323370823
 20
588.0753033997471
 10
441.56121522788715
 20
594.1981570364533
 10
436.3514022035996
 20
591.9534237248272
 10
432.29613825510467
 20
592.2146000147568
 10
429.4194197809592
 20
595.0343203599286
 10
430.29487957922254
 20
596.5772390607399
 10
432.3065235860139
 20
598.7491370534335
 10
440.2358350718231
 20
596.1463287755569
 10
441.5397921809807
 20
596.487191129223
 10
443.73449038577826
 20
600.3579546535448
 10
443.44190657618753
 20
602.0087923516876
 10
442.9936571119259
 20
607.878179742188
 10
443.1694942926523
 20
608.9825387703804
 10
441.51765905862146
 20
613.9304948031195
 10
440.96237764456134
 20
615.9303698448821
 10
440.5388771857805
 20
616.6647443209895
 10
437.2763264153417
 20
622.9008989199392
 10
435.8650228689065
 20
627.1649246242769
 10
435.2808294014202
 20
629.8871148162843
 10
434.4164496250395
 20
635.2292471475175
 10
433.9821709181168
 20
636.8504810820623
 10
432.28076430478893
 20
642.1589834949345
 10
427.41472046025126
 20
640.4956306326003
 10
423.065511490793
 20
641.5196239004481
 10
417.89901864858155
 20
640.6938773730581
 10
413.8342808146998
 20
640.4976754513045
 10
411.3786588915963
 20
638.6603350167261
 10
406.19558497465357
 20
636.8022097117491
 10
405.1825663499002
 20
636.3296790168506
 10
404.5356427239775
 20
636.3475694817616
 10
402.9529125361313
 20
636.8003128938499
 10
395.2574418270532
 20
639.6450769300272
 10
386.57690397388967
 20
643.7749918410054
 10
386.00257033888
 20
644.060961903212
 10
385.5114790425804
 20
644.1441913791068
 10
376.7465401209082
 20
646.5638444281694
 10
371.2283270312663
 20
647.923791792754
 10
367.48160388130316
 20
648.8986869656419
 10
362.8166271703484
 20
650.7453883896997
 10
358.2074110632183
 20
653.4375184966384
 10
350.2594029738774
 20
657.7202637616092
 10
348.94421792163655
 20
658.6856705683876
 10
345.0595517534456
 20
660.6447006025846
 10
339.6833663220367
 20
663.6910396284857
 10
338.2060211593306
 20
664.6955823579847
 10
331.9064134544068
 20
670.5448544399524
 10
330.67526546475153
 20
671.6712692561132
 10
330.4005095896772
 20
671.9522544951815
 10
327.0810091667862
 20
678.6565648413816
 10
322.9274940041513
 20
684.2786498096275
 10
322.1023206106246
 20
685.6188844327771
 10
321.14951102346265
 20
686.5212159358052
 10
315.00356934578474
 20
692.5821080974374
 10
311.8999311211063
 20
695.2647274092224
 10
302.93459427627556
 20
699.5383793123283
 10
302.6521774042002
 20
699.6345918577954
 10
302.2997910704215
 20
699.8027196137473
 10
293.3900377437657
 20
703.8564062448049
 10
287.1321572933565
 20
706.5095247015506
 10
284.11943914605024
 20
707.7753807099089
 10
277.4679143840957
 20
713.4997578688726
 10
274.834302924948
 20
717.6487967868779
 10
273.31672503103607
 20
720.4765022773881
 10
270.08941784026854
 20
724.0494675697264
 10
267.78817829857223
 20
727.4377711082298
 10
265.59925420778916
 20
729.0299663243168
 10
259.0651927446114
 20
732.3461382051019
 10
256.35145439161886
 20
733.7017842494661
 10
253.6379655556201
 20
734.3887381381455
 10
247.10822411347533
 20
736.0836443507878
 10
244.91411758362835
 20
736.0456788254805
 10
237.85459232004803
 20
735.9235144779932
 10
235.5932908320218
 20
736.0839447875233
 10
228.58368673235134
 20
737.2232158094512
 10
223.70372071503868
 20
738.060197100287
 10
219.32066965436195
 20
738.8616583235089
 10
211.03919540761478
 20
740.6252682144122
 10
210.06906766926193
 20
740.6162070681912
 10
205.06061865535037
 20
741.4159319806577
 10
205.06027905408507
 20
741.4297832888624
 10
209.04921818666196
 20
742.2690089682073
 10
210.05758726430747
 20
742.3843515459421
 10
215.52601655919887
 20
744.3348555558841
 10
219.2936820624535
 20
747.8464761992263
 10
219.81013648911164
 20
748.0673725348352
 10
220.0705541900005
 20
748.4669486324401
 10
226.1952012061173
 20
750.2618808743464
 10
228.581631446821
 20
751.2559299437225
 10
234.26517404036247
 20
751.1636854426924
 10
237.8083930518104
 20
753.7265090570081
 10
238.8093999873089
 20
754.6893067060792
 10
240.70198803919618
 20
755.4459464899128
 10
245.87000365200936
 20
756.3819200018606
 10
247.11478461007744
 20
756.3919647502789
 10
254.5690893511645
 20
756.8044180452516
 10
256.3662501959469
 20
757.0391912164432
 10
262.1369794561041
 20
758.0717867019912
 10
265.6348671036866
 20
758.8301643357254
 10
271.2910026550361
 20
758.1650738214857
 10
274.8953770677998
 20
758.5682916586657
 10
280.09923354145747
 20
758.5032646814307
 10
284.14474496855644
 20
758.7781607876414
 10
287.4818835811774
 20
759.8921182372642
 10
292.85869716376317
 20
762.4121306056732
 10
293.192285928645
 20
762.5683223689848
 10
293.4071111044858
 20
762.619127557452
 10
301.1670586206982
 20
763.5414372966588
 10
302.64568149406193
 20
764.2004720682635
 10
306.4631119989698
 20
766.5130685040904
 10
311.91700574566755
 20
768.2329853611
 10
312.9403539216545
 20
768.61216826296
 10
314.81774182673223
 20
769.3850704383694
 10
319.1812192977012
 20
770.8885810594611
 10
321.17929024504144
 20
771.5591579961265
 10
325.77640999194307
 20
772.8862891646631
 10
330.429683826569
 20
776.0972816283756
 10
330.6832274541347
 20
776.1724059352355
 10
331.16953193752204
 20
776.3578754124346
 10
337.8942032229369
 20
777.7236859961404
 10
339.7190152221964
 20
778.1365956838081
 10
347.9112496741126
 20
777.1686396174546
 10
348.9842296692858
 20
777.2795859084499
 10
356.57291864166643
 20
776.3594523446673
 10
358.2451817082564
 20
775.92439920369
 10
358.67220679489935
 20
776.0230845780525
 10
360.0153923861343
 20
776.3594911077216
 10
366.44488945025375
 20
777.14087760655
 10
367.49755645882476
 20
777.6289245906164
 10
372.52573486800236
 20
776.3535891564816
 10
376.8318226949913
 20
772.3521320811042
 10
377.7003339591819
 20
769.3292334491334
 10
377.7746120440414
 20
768.6167118464527
 10
377.968841531051
 20
762.3490569683881
 10
378.05954922250646
 20
761.4268089355846
 10
377.4525784549877
 20
755.3660800279158
 10
377.41105519789187
 20
754.9448792297098
 10
378.15041527908295
 20
748.4170511513421
 10
378.4945776568701
 20
747.1693143054499
 10
378.781508753348
 20
741.4495696799795
 10
379.7334276064993
 20
739.2707460015299
 10
379.84665369645234
 20
734.4887837160759
 10
384.5600241329902
 20
728.6859970619435
 10
385.60257285817613
 20
727.5418401516536
 10
386.07874695525777
 20
727.0413349052378
 10
393.06697806130785
 20
720.5745036939206
 10
395.3338972283035
 20
718.3841882756578
 10
402.4703001492479
 20
713.6105233836361
 10
404.58720757564686
 20
712.0170584372527
 10
411.3268384301281
 20
708.5390005004583
 10
413.83111847338284
 20
707.0854641664237
 10
418.4697638325432
 20
706.6527725010892
 10
423.11415548008233
 20
705.4981751252835
 10
427.1012844453543
 20
699.6471697140851
 10
429.88182555922856
 20
694.5641323751297
 10
430.8373072119683
 20
692.6848948290981
 10
432.38056157255403
 20
691.3923924268884
 10
437.67038249017503
 20
685.7150922716837
 10
441.6466173332391
 20
680.5371417796623
 10
443.33768507488537
 20
678.7381160586865
 10
444.2194655117827
 20
676.7973032879236
 10
446.16968266195806
 20
671.7679196691115
 10
450.8921920811798
 20
667.2645327070304
 10
456.5858354033006
 20
664.8253063768643
 10
460.14128076855366
 20
663.8322180220248
 10
467.7201723653924
 20
659.1201408645229
 10
469.41310849339595
 20
658.0889897139359
 10
469.75842032154276
 20
657.8356391275192
  0
LWPOLYLINE
  5
93
330
17
100
AcDbEntity
  8
CORTE
100
AcDbPolyline
 90
276
 70
1
 10
339.5591420634772
 20
769.6124275064876
 10
335.091212437398
 20
767.9084239444828
 10
333.4875165587754
 20
767.4332530934025
 10
330.38637384696165
 20
765.2933089958879
 10
323.2646070359168
 20
763.2373436892722
 10
322.9400291384517
 20
763.1284113951097
 10
322.0852894218932
 20
762.8338962404741
 10
317.1841593847929
 20
760.8161491050032
 10
314.18709738277346
 20
759.7056427361567
 10
311.15274001087244
 20
758.7487406334549
 10
306.94305309487925
 20
756.1985155683606
 10
306.3299677577205
 20
755.9242437016537
 10
305.09168366750407
 20
755.1522801465499
 10
296.5892289348484
 20
753.9756299434421
 10
295.57816670181444
 20
753.7806737190731
 10
291.86522492231404
 20
752.0404870706416
 10
285.5122302731978
 20
749.9198182767132
 10
282.6509757254761
 20
749.725393480684
 10
275.24208801429893
 20
749.8179743531518
 10
273.2898965507201
 20
749.599584605151
 10
265.9769937110585
 20
750.4594901477358
 10
264.81804760179773
 20
750.2082188387294
 10
257.4367046419992
 20
748.8874253871645
 10
256.6115325621339
 20
748.7796285438653
 10
251.11315938671567
 20
748.4753986777732
 10
249.0214575180297
 20
748.1794111298068
 10
245.32669586966483
 20
746.7022784531264
 10
244.15095930550603
 20
745.5714207539886
 10
247.9422652673419
 20
745.6370232762392
 10
254.34615408705747
 20
743.9747842669649
 10
258.9218201653056
 20
742.8704866883372
 10
263.0401517817671
 20
740.5760235738189
 10
269.2652510991219
 20
737.416656398037
 10
276.18884070252614
 20
732.3805264147704
 10
280.9395157994612
 20
725.385718203991
 10
281.57525038086976
 20
724.0236839256559
 10
282.09047900219036
 20
723.3010244606949
 10
285.37408755753756
 20
718.1279684123883
 10
287.84880121785943
 20
715.9982019514491
 10
295.0829118993523
 20
712.9586403251869
 10
296.2061142463971
 20
712.4824425292691
 10
297.8119665088742
 20
711.7518250128014
 10
305.2969973610142
 20
708.1806268142072
 10
311.6015833142345
 20
706.0328080305071
 10
315.76365438393975
 20
704.0488063966859
 10
323.07686223499775
 20
697.7276596675501
 10
326.01422182775775
 20
694.830948200809
 10
331.0410963760395
 20
690.0703881394929
 10
335.1802420113271
 20
683.3476480048876
 10
335.94109910829127
 20
682.3177725667756
 10
336.18127109838304
 20
681.8327033235437
 10
341.1958725592557
 20
676.7044090152367
 10
343.63385017664393
 20
674.4738289933657
 10
350.98844074558554
 20
670.9732619655479
 10
352.6165637600096
 20
670.1522025111371
 10
361.47258918797695
 20
663.6514692382052
 10
361.633911344219
 20
663.5645415837525
 10
363.3208095057788
 20
662.5792657315187
 10
370.3617652132124
 20
658.3141559017322
 10
373.0376422123526
 20
657.489285408551
 10
378.5157595565378
 20
656.1392195223516
 10
381.15327546951073
 20
655.411105672636
 10
388.1944837534619
 20
654.2177713994561
 10
396.5264908896878
 20
650.0691294711078
 10
397.9801973350558
 20
649.3775036725156
 10
399.9124427188252
 20
648.6632156991473
 10
404.58351687870606
 20
646.9364633204577
 10
405.0787717543516
 20
647.1140115537255
 10
407.3692793428962
 20
648.8278104771452
 10
407.8789176065701
 20
649.4839342422802
 10
410.8627967039437
 20
651.8472264570564
 10
416.14612636197205
 20
652.8128770372314
 10
419.1394347650429
 20
656.0315114327177
 10
422.6793811752285
 20
657.3094139157065
 10
436.351440219294
 20
656.6145921118996
 10
442.7901872135325
 20
645.9708941867657
 10
443.0219532125192
 20
642.2472550005141
 10
444.11864657570175
 20
638.8254983674833
 10
445.5520454170718
 20
633.4743844253981
 10
445.92306109165645
 20
631.1813936767148
 10
447.11305873185927
 20
625.6363130057462
 10
447.7553224339398
 20
624.4086675156732
 10
450.45220418648194
 20
619.0112262955254
 10
452.1723397511395
 20
615.44377862901
 10
454.1319366311817
 20
609.573944274719
 10
453.4115718873562
 20
605.0496377250493
 10
453.5766368593348
 20
602.8882737025797
 10
454.73819873474974
 20
596.3344246179668
 10
453.47568388262323
 20
594.1077419570702
 10
453.5837434249105
 20
593.7081371966187
 10
457.18495489181157
 20
588.2179731623637
 10
454.20245497012263
 20
583.3102381637036
 10
454.6363225260701
 20
581.8945017144542
 10
454.18182435696224
 20
575.6884602798518
 10
453.52084917494074
 20
573.0569263715943
 10
453.29593091308004
 20
569.6221663095812
 10
452.711446019336
 20
566.5739830587072
 10
452.76489423501505
 20
563.8423999059396
 10
452.5297447572792
 20
559.6335610883398
 10
452.08293203318215
 20
555.4410586974409
 10
449.83489539006484
 20
550.8241673298498
 10
449.66109581564876
 20
545.7469353664355
 10
449.61040839546774
 20
545.2956439114332
 10
449.96625037197816
 20
540.0854196722439
 10
450.54682740076066
 20
536.579521710114
 10
446.9988297487679
 20
530.8033117717487
 10
445.58131562310507
 20
529.4810658572396
 10
446.7138569260768
 20
527.8137593712336
 10
447.644384748868
 20
519.4935935972117
 10
447.73870592767423
 20
515.9042780875106
 10
446.2540568078065
 20
514.1568876533438
 10
453.1447809482323
 20
506.02046119957504
 10
451.2020710979467
 20
499.6567062337235
 10
449.056590567381
 20
494.8366140278549
 10
448.4888530554034
 20
493.3153221792536
 10
447.3312542869279
 20
491.92299745989567
 10
446.2954843140659
 20
490.0525205730064
 10
446.25976326790703
 20
489.53904442445946
 10
445.36003801594586
 20
485.2026373550789
 10
445.37065881493334
 20
483.3654285051116
 10
445.1156430304162
 20
478.2030212288946
 10
444.47815424358566
 20
475.1085023728674
 10
443.3316255906283
 20
469.8563382790844
 10
440.1872241714317
 20
466.2540736219644
 10
440.0827303320074
 20
465.85067805208837
 10
438.2148418764581
 20
462.80506574488754
 10
436.4335359134519
 20
459.9607736112921
 10
435.8168227024197
 20
459.1113392446514
 10
434.4535964543137
 20
456.08526770828666
 10
433.04706778576826
 20
452.6581693257913
 10
431.8100267870931
 20
450.3797467906188
 10
428.8788160738794
 20
444.82825125989893
 10
425.0446399669571
 20
440.0860870694096
 10
423.5780147960294
 20
438.10737233571217
 10
422.8612303445715
 20
436.6033828013051
 10
420.91246131063497
 20
432.51438753074854
 10
420.5871597144495
 20
430.8071324036928
 10
419.9157146968563
 20
427.8553415559336
 10
419.9414697805586
 20
427.46873148742634
 10
419.13920230061365
 20
422.07021238244397
 10
419.3472200033092
 20
420.7488656263258
 10
418.29427655160623
 20
414.42747468823836
 10
418.0559723546038
 20
413.0162236502829
 10
417.7629141543283
 20
408.29345601179375
 10
417.18327367908284
 20
404.61636790620923
 10
414.95615957092457
 20
400.418448941251
 10
412.825895661137
 20
396.27348100698055
 10
411.37739504025365
 20
394.2178422965171
 10
409.28862035437294
 20
392.1631108568654
 10
405.90777132140545
 20
389.13292066973463
 10
402.18838845883954
 20
387.18612390976705
 10
401.6825620652352
 20
386.71970952974425
 10
400.6401883858333
 20
385.66665590225693
 10
400.0039784830459
 20
384.7433100047483
 10
399.53804478629615
 20
379.0936567001163
 10
398.08018484880347
 20
375.91560599133027
 10
396.2203592081577
 20
372.331513914015
 10
393.43635988103404
 20
367.9818961209703
 10
392.70378946556946
 20
367.04172920465317
 10
391.80544814547727
 20
365.7546770645804
 10
389.1485997173421
 20
361.50156267194143
 10
385.8650501506553
 20
359.3686351486558
 10
383.7375656523908
 20
357.7119127496935
 10
381.5046392721787
 20
355.7885956964783
 10
380.8472054788025
 20
355.1186253584765
 10
380.48828808865426
 20
354.43069130571257
 10
377.48304343223924
 20
350.1690395555024
 10
374.04178106378447
 20
346.54860600057964
 10
373.99660366489377
 20
346.4906259678719
 10
373.46226853947417
 20
345.635433924449
 10
371.3933501332102
 20
341.9566370258299
 10
370.79362567197757
 20
341.07588065093387
 10
370.0167840950352
 20
338.5263622049306
 10
369.9001488192015
 20
337.99924343060957
 10
371.637808480379
 20
334.4458792938767
 10
371.739353969714
 20
334.1029554860015
 10
371.96711374892845
 20
333.9093598721902
 10
378.6118331415199
 20
328.3584012753863
 10
380.61401028368516
 20
326.44819485337393
 10
387.1874019278147
 20
323.7133590198837
 10
388.82412001793443
 20
323.08171640420824
 10
389.78141472426694
 20
322.60423457820434
 10
396.771320242622
 20
320.12075695834665
 10
400.6347726140183
 20
319.7826015187029
 10
404.6792235598167
 20
319.0049329497733
 10
407.63034160296036
 20
319.4579175788749
 10
411.7085030293755
 20
320.77089176176287
 10
413.96696370840334
 20
321.48045147098674
 10
421.12125465446104
 20
322.99754469974687
 10
421.22851057410014
 20
323.019735877755
 10
421.3107765868816
 20
323.04510842374384
 10
428.77639230899956
 20
324.66350663100184
 10
431.29328468096344
 20
325.1240890028357
 10
437.2587124895043
 20
325.83730277853556
 10
441.7545518765563
 20
326.2221028422664
 10
448.79206921013144
 20
325.281482774114
 10
451.63064081104847
 20
324.9585868680215
 10
459.7859428907467
 20
324.03579903561695
 10
461.1387487410219
 20
323.81716157199753
 10
466.65077945975634
 20
323.05270246304735
 10
470.2113799082398
 20
322.35669940185744
 10
471.29579806691333
 20
322.30285108769476
 10
479.9428900356214
 20
320.58432083334355
 10
484.25297704867705
 20
319.77858779351845
 10
488.68780551676616
 20
318.8889279988043
 10
494.13871391280634
 20
318.7171436719209
 10
497.2155139835721
 20
318.4796049874394
 10
502.57473526192723
 20
318.7960011373607
 10
505.3770696277569
 20
318.9094743803398
 10
508.3172187298668
 20
319.6857839367367
 10
508.7489044759076
 20
319.8656051962771
 10
508.74890257051163
 20
342.93138458757767
 10
508.74889935708677
 20
382.7279051616979
 10
508.74889552601496
 20
429.1339007004199
 10
508.74889200937093
 20
472.4663014283906
 10
508.74888915549843
 20
509.0518081628179
 10
508.7488851987963
 20
557.3727045364112
 10
508.7490893345047
 20
591.3494328313063
 10
507.2839226992627
 20
592.893469640705
 10
504.28214708354324
 20
596.8408770932056
 10
503.214910884284
 20
597.5200766091839
 10
498.92419610075547
 20
599.2809061656853
 10
493.3652343483344
 20
601.4991335083505
 10
488.9660516780176
 20
605.6383334440716
 10
488.5944497938634
 20
608.4695948053259
 10
485.9986344146463
 20
614.3313879094012
 10
485.75893513102335
 20
619.1515463904134
 10
485.75893513102335
 20
621.647055272003
 10
484.60247777931625
 20
624.6603247646553
 10
483.9474183776764
 20
625.7866651762579
 10
482.6331232489873
 20
627.2335420712407
 10
478.2056976168486
 20
632.707061842706
 10
473.51508175898005
 20
639.4270508765794
 10
466.97810117121196
 20
646.0325000191806
 10
464.9832232236703
 20
648.202504889935
 10
458.7129507292301
 20
651.8488354662468
 10
457.2947378911166
 20
652.7305908302824
 10
455.39556837927364
 20
653.2610568991777
 10
448.8427230440574
 20
655.0913523813233
 10
436.13427219589164
 20
659.2424262611985
 10
433.04230443834047
 20
668.3645658437263
 10
429.81430552784957
 20
672.4365481876894
 10
428.11391758316574
 20
675.8979415279036
 10
425.8591339856438
 20
681.6353456326706
 10
423.2169050487172
 20
683.8705971183927
 10
418.0033764510662
 20
688.237018110648
 10
417.0057335515602
 20
690.1991782305277
 10
414.4918606698674
 20
694.3865071289547
 10
410.7763679421122
 20
696.3482272885713
 10
401.8456717028938
 20
700.3349279733438
 10
400.85067420455096
 20
700.8484069784872
 10
391.48185784521763
 20
707.9006192157949
 10
390.92081528635106
 20
708.2759104088336
 10
383.4564631214033
 20
715.4880271319489
 10
381.16084284105716
 20
717.6123685644197
 10
376.25252768691905
 20
722.7714847380348
 10
371.2666233805593
 20
728.2433219081813
 10
368.29200267271233
 20
732.820255621612
 10
368.66683545928834
 20
735.7407650187342
 10
368.60267339013797
 20
740.9430061401981
 10
368.48116393167845
 20
741.8811585708527
 10
368.2192073789073
 20
748.2606542372696
 10
368.2192073789073
 20
749.264761120874
 10
367.63549663475794
 20
754.888756500236
 10
367.54865634950045
 20
757.2594620316222
 10
367.8574910256083
 20
760.8699290091599
 10
366.83643333489806
 20
762.7562641422974
 10
366.67870364879934
 20
765.9154811526669
 10
365.7975884641727
 20
766.6416076571495
 10
364.24813459956556
 20
766.2535403633392
 10
358.14642178502424
 20
764.8434362917296
 10
350.8691788629984
 20
766.7366715452836
 10
346.9172267179164
 20
768.0651705950113
 10
342.0425002039882
 20
769.4752053681686
 10
340.04535245660816
 20
769.711178995246
 10
339.5591420634772
 20
769.6124275064876
  0
LWPOLYLINE
  5
94
330
17
100
AcDbEntity
  8
GRABADO
100
AcDbPolyline
 90
331
 70
1
 10
478.68482762202245
 20
644.1546307248818
 10
478.9541397086749
 20
643.890251090018
 10
479.2131478466134
 20
643.4936719474908
 10
483.8039045012364
 20
636.916745737577
 10
487.94941965964597
 20
631.7917451011454
 10
489.62643943598675
 20
629.9455530900432
 10
490.9362298418472
 20
627.693436929042
 10
492.75893513102335
 20
622.9441893810335
 10
492.75893513102335
 20
619.3254886939449
 10
492.92543718656714
 20
615.977267193216
 10
495.40359095355313
 20
610.381174043272
 10
495.5815599412689
 20
609.0252155836761
 10
497.19404135520915
 20
607.5080285366439
 10
501.55021832697173
 20
605.7697559421185
 10
506.44822010380346
 20
603.7597070967477
 10
509.0964435555833
 20
602.0743518886893
 10
512.6246243045551
 20
597.4347089689018
 10
514.8392374333997
 20
595.1008828311351
 10
515.749106814499
 20
594.2588146333446
 10
515.7488851986699
 20
557.3726624796845
 10
515.7488891554984
 20
509.0518087360242
 10
515.7488920093709
 20
472.46630197442937
 10
515.748895526015
 20
429.1339012685048
 10
515.7488993570868
 20
382.7279057395863
 10
515.7489025705116
 20
342.93138515280225
 10
515.7489061904224
 20
299.1105286503398
 10
515.7489112473112
 20
240.67850212265876
 10
515.7489146636243
 20
199.38665014375147
 10
515.7489177810684
 20
161.3459217795844
 10
515.7489187892351
 20
145.0410606486148
 10
515.7489200226781
 20
126.49445217270204
 10
515.7489213647913
 20
106.91042453136924
 10
515.7489215219947
 20
99.1185993276049
 10
515.7489186246092
 20
99.11859932760399
 10
515.7489186497859
 20
98.67765836597482
 10
515.748919220472
 20
87.0101978595294
 10
515.7489186497859
 20
86.7303916183655
 10
515.7489203666436
 20
63.72141815239502
 10
515.7489221445647
 20
40.202385673169374
 10
515.7489216342645
 20
38.09072138156807
 10
515.5989218823196
 20
38.09072136820578
 10
515.5989209352418
 20
40.346622186471905
 10
515.5989190120353
 20
53.307534239444976
 10
515.5989164578458
 20
72.33746396906554
 10
515.5989144463528
 20
85.93171378550232
 10
515.5989132436615
 20
91.54563643138226
 10
515.5989128139562
 20
93.57749494887958
 10
515.5989085518557
 20
93.57749494887958
 10
515.598905940601
 20
112.03223924297527
 10
515.5989009013309
 20
153.50177309211358
 10
515.5988930245575
 20
221.52766387090105
 10
515.5988838264265
 20
301.5808850122612
 10
515.598882286681
 20
315.1359688643379
 10
510.56704907001756
 20
313.0399288743274
 10
506.42454615466056
 20
311.94615284838164
 10
502.92264519947355
 20
311.80435247551213
 10
497.1520845083186
 20
311.4636717887606
 10
493.7588604963647
 20
311.7256394010237
 10
487.8835884160161
 20
311.91079746757805
 10
482.9213557159336
 20
312.90625849996013
 10
478.617444746258
 20
313.7108369825355
 10
470.4353519773375
 20
315.33695290892865
 10
469.36198621705523
 20
315.39025240065075
 10
465.49764071785546
 20
316.1456295725211
 10
460.0993918146395
 20
316.89430837295276
 10
458.8334677517331
 20
317.0989041959183
 10
450.8415361189881
 20
318.0032063537092
 10
447.932723019352
 20
318.33409243780716
 10
441.58736400588793
 20
319.1822000508737
 10
437.9728823011709
 20
318.8728356206557
 10
432.3398089828496
 20
318.19935743617407
 10
430.1482874454622
 20
317.79831677235416
 10
423.08706884318497
 20
316.26758388275175
 10
422.9731103714165
 20
316.2324367245501
 10
422.5564353867293
 20
316.14622694901755
 10
415.7461238066943
 20
314.7020757869077
 10
413.830210639955
 20
314.10013712925775
 10
409.2441717133869
 20
312.6236505259312
 10
404.54548607475215
 20
311.90242137136556
 10
399.6661706773174
 20
312.8406179951671
 10
395.270277291297
 20
313.2253762677383
 10
387.0373683786037
 20
316.1504866254254
 10
385.9954941061177
 20
316.6701552570421
 10
384.58237998425636
 20
317.21550457869216
 10
376.7235583163482
 20
320.48513892728624
 10
373.9468254989205
 20
323.13432153373924
 10
367.45635306953307
 20
328.55642314564557
 10
365.6188198092285
 20
330.1183248152638
 10
365.0921706451635
 20
331.8968433682594
 10
362.53680514447376
 20
337.1223454209712
 10
363.24111102797804
 20
340.30536917949485
 10
364.4080589994336
 20
344.135178843474
 10
365.4388119273261
 20
345.64894436558734
 10
367.4401600573691
 20
349.20759282246854
 10
368.25215904071126
 20
350.5071799856296
 10
368.7313182530569
 20
351.1221261198825
 10
372.0570646811128
 20
354.62102933449205
 10
374.49832782084184
 20
358.08291497829214
 10
375.12230189801164
 20
359.27888103485475
 10
376.7139125150251
 20
360.90084192854647
 10
379.3002535846307
 20
363.1285704952761
 10
381.8006062172552
 20
365.07565411217274
 10
384.0339766144988
 20
366.526406443827
 10
385.9632053538297
 20
369.61473863133506
 10
387.06903237643735
 20
371.1990551980625
 10
387.7153978759642
 20
372.0285883674014
 10
390.15337572498254
 20
375.83759497448773
 10
391.7885808117097
 20
378.9888181150018
 10
392.6628036591454
 20
380.8945735778407
 10
393.07856894103395
 20
385.93591253907107
 10
393.32086595422504
 20
387.3813206832556
 10
395.22837619227164
 20
390.1497336630564
 10
396.81997766446136
 20
391.75764235926
 10
398.12298863981493
 20
392.9591278173493
 10
401.8869001872898
 20
394.9292317502286
 10
404.4955648098256
 20
397.2673278508364
 10
406.0187059290764
 20
398.76564452707044
 10
406.8229080609598
 20
399.906927457504
 10
408.7511216397114
 20
403.6587553026957
 10
410.4509521580202
 20
406.86278995178964
 10
410.79682480981035
 20
409.05691591134564
 10
411.09225884290834
 20
413.8179711881103
 10
411.39069094530794
 20
415.58530310911374
 10
412.2560366274091
 20
420.7804428331892
 10
412.05779379761486
 20
422.03969873631013
 10
412.90696237502004
 20
427.7538189057923
 10
412.86320789991066
 20
428.41061819307106
 10
413.73405190328674
 20
432.2390021882402
 10
414.15024968506975
 20
434.42330071351716
 10
414.2217083936065
 20
434.74604250743323
 10
416.54218389098503
 20
439.61496908056233
 10
417.5506470400886
 20
441.73097204212627
 10
419.50867821250347
 20
444.37267300750955
 10
423.006933298171
 20
448.69936524433706
 10
425.63887777028583
 20
453.6840727265326
 10
426.7148423899397
 20
455.66581952319757
 10
428.0227119849641
 20
458.8525286702352
 10
429.7298828933316
 20
462.64208399951167
 10
430.6281884630588
 20
463.8793716220598
 10
432.2648462695405
 20
466.492697474574
 10
433.5686948314832
 20
468.618636641434
 10
433.8257379660407
 20
469.6109445355505
 10
436.8760402743418
 20
473.10540810233306
 10
437.63042786351696
 20
476.5612025985656
 10
438.1507804726897
 20
479.08711520147244
 10
438.3696598639925
 20
483.5179960758351
 10
438.35588301082214
 20
485.90114602513404
 10
439.30951188933693
 20
490.49735247964963
 10
439.4200414319947
 20
492.0861716763875
 10
441.5269665068589
 20
495.8910267679594
 10
442.3462791118735
 20
496.87647114118136
 10
442.5738012757382
 20
497.48613248284255
 10
444.6324208259856
 20
502.1110805574717
 10
445.3346031247819
 20
504.41122645431915
 10
441.5401859207285
 20
508.89159686046696
 10
437.3367978640716
 20
511.3565758697623
 10
437.38833360281376
 20
514.5331875830534
 10
440.6707965822851
 20
518.3965545793899
 10
440.6546299004975
 20
519.0117644656011
 10
439.94981103298403
 20
525.3137896976687
 10
438.3152206910353
 20
527.7202035493692
 10
436.7381572374842
 20
532.3527254424553
 10
439.8174959838751
 20
533.67723527002
 10
441.530566772616
 20
535.275174091701
 10
443.21371710653864
 20
538.0153759295199
 10
443.0054119334362
 20
539.2732567027451
 10
442.5836245345389
 20
545.4490512255479
 10
442.6744934040852
 20
546.2580950515221
 10
442.8782511811331
 20
552.2105002970357
 10
443.23129377463636
 20
553.2519118598939
 10
445.2523441712236
 20
557.4026316259797
 10
445.55047917380114
 20
560.2000714563756
 10
445.7610703301342
 20
563.9693514987939
 10
445.6984220527037
 20
567.1711231015079
 10
446.3392998005892
 20
570.5134042072632
 10
446.57724688778933
 20
574.1471293891464
 10
447.244851523218
 20
576.8050570742198
 10
447.5592128237521
 20
581.0975699799965
 10
446.5894960645654
 20
584.2618152493378
 10
448.9070067111396
 20
588.0753033997471
 10
447.11799645222607
 20
590.8027077387242
 10
445.9673864326195
 20
595.0576696932849
 10
447.40577367143294
 20
597.5945364231502
 10
446.6234194657262
 20
602.0087923516876
 10
446.36921256877565
 20
605.3373825107337
 10
446.9495980988803
 20
608.9825387703804
 10
445.6736033181859
 20
612.8046912119871
 10
444.16832042691465
 20
615.926548609882
 10
441.5226307784877
 20
621.2215358115564
 10
440.64404329060824
 20
622.9008989199438
 10
440.3501615514441
 20
623.7888151254974
 10
439.04144078218985
 20
629.8871148162852
 10
438.6986024218721
 20
632.0059611140414
 10
437.4009045248903
 20
636.8504810820623
 10
436.08967274786744
 20
640.9416119132429
 10
435.910555470149
 20
643.8193770606913
 10
432.28528458236894
 20
649.8122027239515
 10
423.7310973819075
 20
650.246931374666
 10
423.110842248051
 20
650.0230224552088
 10
419.68996679026156
 20
646.3446352232677
 10
413.8396269816784
 20
645.2753504358243
 10
412.8882068679703
 20
644.5218065842364
 10
412.31856761827737
 20
643.7884357290286
 10
408.430644224656
 20
640.8794216049764
 10
404.54677967664963
 20
639.4870611807564
 10
397.48529089860483
 20
642.0974762859814
 10
395.2574418270532
 20
642.9210392824998
 10
393.4625458864092
 20
643.7749918410054
 10
386.00257033888
 20
647.489435051978
 10
379.63315711026087
 20
648.5689144252956
 10
376.7465401209082
 20
649.365795232131
 10
371.16755665210155
 20
650.7407192776891
 10
367.4739965832249
 20
651.8793025222058
 10
359.7419664979815
 20
656.563035653201
 10
358.2074110632183
 20
657.4593318542638
 10
357.72316818113075
 20
657.7202637616092
 10
348.94421792163655
 20
664.1644202872994
 10
347.9078544186949
 20
664.6870565038244
 10
339.6806496825792
 20
668.6029619999072
 10
336.32705360418083
 20
671.6712692561132
 10
330.4005095896772
 20
677.7321820075367
 10
329.94282057329644
 20
678.6565648413816
 10
329.37443341195
 20
679.4259182181786
 10
325.56146599637293
 20
685.6188844327771
 10
321.14951102346265
 20
689.797102216935
 10
318.32542452644236
 20
692.5821080974374
 10
311.8999311211063
 20
698.1359618165479
 10
308.9579167662131
 20
699.5383793123283
 10
302.6521774042002
 20
701.6865910342931
 10
294.85514596189284
 20
705.4066484650775
 10
293.3900377437657
 20
706.0732314084134
 10
292.3609576954067
 20
706.5095247015506
 10
284.11943914605024
 20
709.9723696354604
 10
280.0207381820809
 20
713.4997578688726
 10
276.28145736787053
 20
719.3906881993971
 10
275.5033510944412
 20
720.4820597575172
 10
274.8336720737369
 20
721.9168185520757
 10
271.0839978826051
 20
727.4377711082298
 10
265.59925420778916
 20
731.4273030784216
 10
259.75148849429377
 20
734.3951656144254
 10
256.35016591230203
 20
736.2901585221762
 10
252.64556432321012
 20
737.1842321924687
 10
247.10822411347533
 20
738.6215436704424
 10
241.61829799959548
 20
738.5265492269282
 10
237.85459232004803
 20
738.4614186931731
 10
231.87085812503108
 20
738.8859407368454
 10
228.58368673235134
 20
739.4202047350027
 10
219.9236169088116
 20
740.9055258200106
 10
219.32066965436195
 20
741.0157775230819
 10
217.45139451822604
 20
741.413855452287
 10
218.777992446673
 20
741.8870323810679
 10
219.2936820624535
 20
742.3676765090486
 10
224.45152748312546
 20
744.5737746548903
 10
226.98884496149628
 20
748.4669486324401
 10
228.13396969902158
 20
748.8025469627573
 10
228.58163144682192
 20
748.989017003325
 10
237.34311793597215
 20
748.8468171453706
 10
237.8083930518104
 20
749.183352383574
 10
241.45914825794887
 20
752.694755157273
 10
247.0958856836586
 20
754.9482723889105
 10
247.6298319159631
 20
755.0522243664482
 10
250.42816756941636
 20
755.448204558872
 10
255.96389658554187
 20
755.7545013567733
 10
256.3662501959469
 20
755.8070630589318
 10
263.45950411081765
 20
757.0763067957523
 10
265.6348671036866
 20
757.5479476273804
 10
273.3097805119959
 20
756.6454741878488
 10
274.8953770677998
 20
756.8228533223828
 10
282.45711441870924
 20
756.7283624529555
 10
284.14474496855644
 20
756.8430384525745
 10
289.262914731289
 20
758.5515150840429
 10
293.39683861969377
 20
760.4890082049833
 10
295.4459624937316
 20
760.8841267651414
 10
302.6544010182123
 20
761.8816987511882
 10
303.03369516497685
 20
762.1181560070627
 10
303.68780195117495
 20
762.4107793637195
 10
308.2452254089684
 20
765.1716629558359
 10
311.91700574566755
 20
766.3295800678352
 10
314.6348635647536
 20
767.3366324463577
 10
319.61054203074843
 20
769.3850704383694
 10
320.6861957779237
 20
769.7557052919365
 10
321.17929024504144
 20
769.921193798582
 10
327.3492592830479
 20
771.7023869521354
 10
330.429683826569
 20
773.8280344738168
 10
332.84641395724054
 20
774.5441052253418
 10
337.60215375409814
 20
776.3578754124346
 10
339.26106197808156
 20
776.6948070353419
 10
339.7190152221964
 20
776.7984304941265
 10
343.43504704353825
 20
776.3593615727777
 10
349.0059435935708
 20
774.7479567420114
 10
352.86807347341426
 20
773.4496525908125
 10
358.2451817082564
 20
772.0507531749963
 10
362.60959317875756
 20
773.0593674070633
 10
367.52342810036305
 20
774.2900582096818
 10
373.51586332424165
 20
769.3516958725322
 10
373.7485244925846
 20
764.6916528656357
 10
375.01052809119017
 20
762.3601864383681
 10
374.5596079120995
 20
757.0886526953627
 10
374.6222427689944
 20
755.3787458098959
 10
375.2192073789073
 20
749.6270507426962
 10
375.2192073789073
 20
748.4043116408466
 10
375.4626593078
 20
742.47546386467
 10
375.5971080284161
 20
741.4374097440841
 10
375.6723551156846
 20
735.3363987130497
 10
375.5623332087424
 20
734.479163101274
 10
376.8250506210114
 20
732.5362687082161
 10
381.3759431409352
 20
727.5418401516763
 10
386.07874695526414
 20
722.5987363659733
 10
388.26618702636904
 20
720.5745036939234
 10
395.3338972283017
 20
713.7456256057676
 10
395.53586865160275
 20
713.6105233836415
 10
404.58720757564686
 20
706.797286718951
 10
404.87989241019557
 20
706.6462436078737
 10
413.8405630332471
 20
702.6461622310071
 10
419.48779957083195
 20
699.6645125350888
 10
423.13395092545295
 20
693.5911605185902
 10
423.594733672502
 20
692.6848948290981
 10
427.72471149917044
 20
689.2259664771864
 10
431.8806732771162
 20
685.7101395142272
 10
432.3994358202443
 20
684.1311933966981
 10
434.5236247256106
 20
678.7260936974008
 10
435.7661399269217
 20
676.1967686357993
 10
439.282054935932
 20
671.7615924673582
 10
441.63886155989337
 20
664.8083766906757
 10
450.8719648897521
 20
661.792486357489
 10
457.2786883056814
 20
660.0030046402089
 10
460.14128076855366
 20
659.2034403247753
 10
462.3212222111978
 20
657.8480901201538
 10
469.4188659200744
 20
653.7206211308239
 10
472.0442123886231
 20
650.8647999858822
 10
478.68482762202245
 20
644.1546307248818
  0
TEXT
  5
95
330
17
100
AcDbEntity
  8
GRABADO
100
AcDbText
 10
405.22780372121883
 20
395.18960167907017
 30
0.0
 40
6.0
  1
84x
 72
1
 11
405.22780372121883
 21
395.18960167907017
 31
0.0
100
AcDbText
 73
2
  0
TEXT
  5
96
330
17
100
AcDbEntity
  8
HOJA
100
AcDbText
 10
10.0
 20
891.0
 30
0.0
 40
6.0
  1
gale_crater  hoja 34/39  1:30  lamina 3.0mm
 11
10.0
 21
891.0
 31
0.0
100
AcDbText
  0
ENDSEC
  0
SECTION
  2
OBJECTS
  0
DICTIONARY
  5
A
330
0
100
AcDbDictionary
281
1
  3
ACAD_COLOR
350
B
  3
ACAD_GROUP
350
C
  3
ACAD_LAYOUT
350
D
  3
ACAD_MATERIAL
350
E
  3
ACAD_MLEADERSTYLE
350
F
  3
ACAD_MLINESTYLE
350
10
  3
ACAD_PLOTSETTINGS
350
11
  3
ACAD_PLOTSTYLENAME
350
12
  3
ACAD_SCALELIST
350
14
  3
ACAD_TABLESTYLE
350
15
  3
ACAD_VISUALSTYLE
350
16
  3
EZDXF_META
350
2D
  0
DICTIONARY
  5
B
330
A
100
AcDbDictionary
281
1
  0
DICTIONARY
  5
C
330
A
100
AcDbDictionary
281
1
  0
DICTIONARY
  5
D
330
A
100
AcDbDictionary
281
1
  3
Model
350
1A
  3
Layout1
350
1E
  0
DICTIONARY
  5
E
330
A
100
AcDbDictionary
281
1
  3
ByBlock
350
1F
  3
ByLayer
350
20
  3
Global
350
21
  0
DICTIONARY
  5
F
330
A
100
AcDbDictionary
281
1
  3
Standard
350
2C
  0
DICTIONARY
  5
10
330
A
100
AcDbDictionary
281
1
  3
Standard
350
22
  0
DICTIONARY
  5
11
330
A
100
AcDbDictionary
281
1
  0
ACDBDICTIONARYWDFLT
  5
12
330
A
100
AcDbDictionary
281
1
  3
Normal
350
13
100
AcDbDictionaryWithDefault
340
13
  0
ACDBPLACEHOLDER
  5
13
330
12
  0
DICTIONARY
  5
14
330
A
100
AcDbDictionary
281
1
  0
DICTIONARY
  5
15
330
A
100
AcDbDictionary
281
1
  0
DICTIONARY
  5
16
330
A
100
AcDbDictionary
281
1
  3
2dWireframe
350
5A
  3
Basic
350
5B
  3
Brighten
350
5C
  3
ColorChange
350
5D
  3
Conceptual
350
5E
  3
Dim
350
5F
  3
EdgeColorOff
350
60
  3
Facepattern
350
61
  3
Flat
350
62
  3
FlatWithEdges
350
63
  3
Gouraud
350
64
  3
GouraudWithEdges
350
65
  3
Hidden
350
66
  3
JitterOff
350
67
  3
Linepattern
350
68
  3
Modeling
350
69
  3
OverhangOff
350
6A
  3
Realistic
350
6B
  3
Shaded
350
6C
  3
Shaded with edges
350
6D
  3
Shades of Gray
350
6E
  3
Sketchy
350
6F
  3
Thicken
350
70
  3
Wireframe
350
71
  3
X-Ray
350
72
  0
LAYOUT
  5
1A
330
D
100
AcDbPlotSettings
  1

  4
A3
  6

 40
7.5
 41
20.0
 42
7.5
 43
20.0
 44
420.0
 45
297.0
 46
0.0
 47
0.0
 48
0.0
 49
0.0
140
0.0
141
0.0
142
1.0
143
1.0
 70
1024
 72
1
 73
0
 74
5
  7

 75
16
 76
0
 77
2
 78
300
147
1.0
148
0.0
149
0.0
100
AcDbLayout
  1
Model
 70
1
 71
0
 10
0.0
 20
0.0
 11
420.0
 21
297.0
 12
0.0
 22
0.0
 32
0.0
 14
1e+20
 24
1e+20
 34
1e+20
 15
-1e+20
 25
-1e+20
 35
-1e+20
146
0.0
 13
0.0
 23
0.0
 33
0.0
 16
1.0
 26
0.0
 36
0.0
 17
0.0
 27
1.0
 37
0.0
 76
1
330
17
  0
LAYOUT
  5
1E
330
D
100
AcDbPlotSettings
  1

  4
A3
  6

 40
7.5
 41
20.0
 42
7.5
 43
20.0
 44
420.0
 45
297.0
 46
0.0
 47
0.0
 48
0.0
 49
0.0
140
0.0
141
0.0
142
1.0
143
1.0
 70
0
 72
1
 73
0
 74
5
  7

 75
16
 76
0
 77
2
 78
300
147
1.0
148
0.0
149
0.0
100
AcDbLayout
  1
Layout1
 70
1
 71
1
 10
0.0
 20
0.0
 11
420.0
 21
297.0
 12
0.0
 22
0.0
 32
0.0
 14
1e+20
 24
1e+20
 34
1e+20
 15
-1e+20
 25
-1e+20
 35
-1e+20
146
0.0
 13
0.0
 23
0.0
 33
0.0
 16
1.0
 26
0.0
 36
0.0
 17
0.0
 27
1.0
 37
0.0
 76
1
330
1B
  0
MATERIAL
  5
1F
102
{ACAD_REACTORS
330
E
102
}
330
E
100
AcDbMaterial
  1
ByBlock
  2

 70
0
 40
1.0
 71
1
 41
1.0
 91
-1023410177
 42
1.0
 72
1
  3

 73
1
 74
1
 75
1
 44
0.5
 73
0
 45
1.0
 46
1.0
 77
1
  4

 78
1
 79
1
170
1
 48
1.0
171
1
  6

172
1
173
1
174
1
140
1.0
141
1.0
175
1
  7

176
1
177
1
178
1
143
1.0
179
1
  8

270
1
271
1
272
1
145
1.0
146
1.0
273
1
  9

274
1
275
1
276
1
 42
1.0
 72
1
  3

 73
1
 74
1
 75
1
 94
63
  0
MATERIAL
  5
20
102
{ACAD_REACTORS
330
E
102
}
330
E
100
AcDbMaterial
  1
ByLayer
  2

 70
0
 40
1.0
 71
1
 41
1.0
 91
-1023410177
 42
1.0
 72
1
  3

 73
1
 74
1
 75
1
 44
0.5
 73
0
 45
1.0
 46
1.0
 77
1
  4

 78
1
 79
1
170
1
 48
1.0
171
1
  6

172
1
173
1
174
1
140
1.0
141
1.0
175
1
  7

176
1
177
1
178
1
143
1.0
179
1
  8

270
1
271
1
272
1
145
1.0
146
1.0
273
1
  9

274
1
275
1
276
1
 42
1.0
 72
1
  3

 73
1
 74
1
 75
1
 94
63
  0
MATERIAL
  5
21
102
{ACAD_REACTORS
330
E
102
}
330
E
100
AcDbMaterial
  1
Global
  2

 70
0
 40
1.0
 71
1
 41
1.0
 91
-1023410177
 42
1.0
 72
1
  3

 73
1
 74
1
 75
1
 44
0.5
 73
0
 45
1.0
 46
1.0
 77
1
  4

 78
1
 79
1
170
1
 48
1.0
171
1
  6

172
1
173
1
174
1
140
1.0
141
1.0
175
1
  7

176
1
177
1
178
1
143
1.0
179
1
  8

270
1
271
1
272
1
145
1.0
146
1.0
273
1
  9

274
1
275
1
276
1
 42
1.0
 72
1
  3

 73
1
 74
1
 75
1
 94
63
  0
MLINESTYLE
  5
22
102
{ACAD_REACTORS
330
10
102
}
330
10
100
AcDbMlineStyle
  2
Standard
 70
0
  3

 62
256
 51
90.0
 52
90.0
 71
2
 49
0.5
 62
256
  6
BYLAYER
 49
-0.5
 62
256
  6
BYLAYER
  0
MLEADERSTYLE
  5
2C
102
{ACAD_REACTORS
330
F
102
}
330
F
100
AcDbMLeaderStyle
179
2
170
2
171
1
172
0
 90
2
 40
0.0
 41
0.0
173
1
 91
-1056964608
 92
-2
290
1
 42
2.0
291
1
 43
8.0
  3
Standard
 44
4.0
300

342
29
174
1
175
1
176
0
178
1
 93
-1056964608
 45
4.0
292
0
297
0
 46
4.0
 94
-1056964608
 47
1.0
 49
1.0
140
1.0
294
1
141
0.0
177
0
142
1.0
295
0
296
0
143
3.75
271
0
272
9
273
9
  0
DICTIONARY
  5
2D
330
A
100
AcDbDictionary
280
1
281
1
  3
CREATED_BY_EZDXF
350
2E
  3
WRITTEN_BY_EZDXF
350
99
  0
DICTIONARYVAR
  5
2E
330
2D
100
DictionaryVariables
280
0
  1
1.4.2 @ 2026-09-06T16:30:42.768310+00:00
  0
VISUALSTYLE
  5
5A
102
{ACAD_REACTORS
330
16
102
}
330
16
100
AcDbVisualStyle
  2
2dWireframe
 70
4
 90
0
 40
0.6
 62
7
290
0
291
0
  0
VISUALSTYLE
  5
5B
102
{ACAD_REACTORS
330
16
102
}
330
16
100
AcDbVisualStyle
  2
Basic
 70
7
 90
1
 40
0.6
 62
7
290
0
291
1
  0
VISUALSTYLE
  5
5C
102
{ACAD_REACTORS
330
16
102
}
330
16
100
AcDbVisualStyle
  2
Brighten
 70
12
 90
2
 40
0.6
 62
7
290
0
291
1
  0
VISUALSTYLE
  5
5D
102
{ACAD_REACTORS
330
16
102
}
330
16
100
AcDbVisualStyle
  2
ColorChange
 70
16
 90
2
 40
0.6
 62
8
290
0
291
1
  0
VISUALSTYLE
  5
5E
102
{ACAD_REACTORS
330
16
102
}
330
16
100
AcDbVisualStyle
  2
Conceptual
 70
9
 90
3
 40
0.6
 62
7
290
0
291
0
  0
VISUALSTYLE
  5
5F
102
{ACAD_REACTORS
330
16
102
}
330
16
100
AcDbVisualStyle
  2
Dim
 70
11
 90
2
 40
0.6
 62
7
290
0
291
1
  0
VISUALSTYLE
  5
60
102
{ACAD_REACTORS
330
16
102
}
330
16
100
AcDbVisualStyle
  2
EdgeColorOff
 70
22
 90
2
 40
0.6
 62
7
290
0
291
1
  0
VISUALSTYLE
  5
61
102
{ACAD_REACTORS
330
16
102
}
330
16
100
AcDbVisualStyle
  2
Facepattern
 70
15
 90
2
 40
0.6
 62
7
290
0
291
1
  0
VISUALSTYLE
  5
62
102
{ACAD_REACTORS
330
16
102
}
330
16
100
AcDbVisualStyle
  2
Flat
 70
0
 90
2
 40
0.6
 62
7
290
0
291
1
  0
VISUALSTYLE
  5
63
102
{ACAD_REACTORS
330
16
102
}
330
16
100
AcDbVisualStyle
  2
FlatWithEdges
 70
1
 90
2
 40
0.6
 62
7
290
0
291
1
  0
VISUALSTYLE
  5
64
102
{ACAD_REACTORS
330
16
102
}
330
16
100
AcDbVisualStyle
  2
Gouraud
 70
2
 90
2
 40
0.6
 62
7
290
0
291
1
  0
VISUALSTYLE
  5
65
102
{ACAD_REACTORS
330
16
102
}
330
16
100
AcDbVisualStyle
  2
GouraudWithEdges
 70
3
 90
2
 40
0.6
 62
7
290
0
291
1
  0
VISUALSTYLE
  5
66
102
{ACAD_REACTORS
330
16
102
}
330
16
100
AcDbVisualStyle
  2
Hidden
 70
6
 90
1
 40
0.6
 62
7
290
0
291
0
  0
VISUALSTYLE
  5
67
102
{ACAD_REACTORS
330
16
102
}
330
16
100
AcDbVisualStyle
  2
JitterOff
 70
20
 90
2
 40
0.6
 62
7
290
0
291
1
  0
VISUALSTYLE
  5
68
102
{ACAD_REACTORS
330
16
102
}
330
16
100
AcDbVisualStyle
  2
Linepattern
 70
14
 90
2
 40
0.6
 62
7
290
0
291
1
  0
VISUALSTYLE
  5
69
102
{ACAD_REACTORS
330
16
102
}
330
16
100
AcDbVisualStyle
  2
Modeling
 70
10
 90
2
 40
0.6
 62
7
290
0
291
0
  0
VISUALSTYLE
  5
6A
102
{ACAD_REACTORS
330
16
102
}
330
16
100
AcDbVisualStyle
  2
OverhangOff
 70
21
 90
2
 40
0.6
 62
7
290
0
291
1
  0
VISUALSTYLE
  5
6B
102
{ACAD_REACTORS
330
16
102
}
330
16
100
AcDbVisualStyle
  2
Realistic
 70
8
 90
2
 40
0.6
 62
7
290
0
291
0
  0
VISUALSTYLE
  5
6C
102
{ACAD_REACTORS
330
16
102
}
330
16
100
AcDbVisualStyle
  2
Shaded
 70
27
 90
2
 40
0.6
 62
7
290
0
291
0
  0
VISUALSTYLE
  5
6D
102
{ACAD_REACTORS
330
16
102
}
330
16
100
AcDbVisualStyle
  2
Shaded with edges
 70
26
 90
2
 40
0.6
 62
7
290
0
291
0
  0
VISUALSTYLE
  5
6E
102
{ACAD_REACTORS
330
16
102
}
330
16
100
AcDbVisualStyle
  2
Shades of Gray
 70
23
 90
2
 40
0.6
 62
7
290
0
291
0
  0
VISUALSTYLE
  5
6F
102
{ACAD_REACTORS
330
16
102
}
330
16
100
AcDbVisualStyle
  2
Sketchy
 70
24
 90
1
 40
0.6
 62
7
290
0
291
0
  0
VISUALSTYLE
  5
70
102
{ACAD_REACTORS
330
16
102
}
330
16
100
AcDbVisualStyle
  2
Thicken
 70
13
 90
2
 40
0.6
 62
7
290
0
291
1
  0
VISUALSTYLE
  5
71
102
{ACAD_REACTORS
330
16
102
}
330
16
100
AcDbVisualStyle
  2
Wireframe
 70
5
 90
0
 40
0.6
 62
7
290
0
291
0
  0
VISUALSTYLE
  5
72
102
{ACAD_REACTORS
330
16
102
}
330
16
100
AcDbVisualStyle
  2
X-Ray
 70
25
 90
2
 40
0.5
 62
7
290
0
291
0
  0
DICTIONARYVAR
  5
99
330
2D
100
DictionaryVariables
280
0
  1
1.4.2 @ 2026-09-06T16:30:42.778156+00:00
  0
ENDSEC
  0
EOF
