  0
SECTION
  2
HEADER
  9
$ACADVER
  1
AC1024
  9
$ACADMAINTVER
 70
6
  9
$DWGCODEPAGE
  3
ANSI_1252
  9
$LASTSAVEDBY
  1
ezdxf
  9
$INSBASE
 10
0.0
 20
0.0
 30
0.0
  9
$EXTMIN
 10
1e+20
 20
1e+20
 30
1e+20
  9
$EXTMAX
 10
-1e+20
 20
-1e+20
 30
-1e+20
  9
$LIMMIN
 10
0.0
 20
0.0
  9
$LIMMAX
 10
420.0
 20
297.0
  9
$ORTHOMODE
 70
0
  9
$REGENMODE
 70
1
  9
$FILLMODE
 70
1
  9
$QTEXTMODE
 70
0
  9
$MIRRTEXT
 70
1
  9
$LTSCALE
 40
1.0
  9
$ATTMODE
 70
1
  9
$TEXTSIZE
 40
2.5
  9
$TRACEWID
 40
1.0
  9
$TEXTSTYLE
  7
OpenSans
  9
$CLAYER
  8
0
  9
$CELTYPE
  6
ByLayer
  9
$CECOLOR
 62
256
  9
$CELTSCALE
 40
1.0
  9
$DISPSILH
 70
0
  9
$DIMSCALE
 40
1.0
  9
$DIMASZ
 40
0.175
  9
$DIMEXO
 40
0.125
  9
$DIMDLI
 40
3.75
  9
$DIMRND
 40
0.0
  9
$DIMDLE
 40
0.0
  9
$DIMEXE
 40
0.375
  9
$DIMTP
 40
0.0
  9
$DIMTM
 40
0.0
  9
$DIMTXT
 40
0.25
  9
$DIMCEN
 40
2.5
  9
$DIMTSZ
 40
0.0
  9
$DIMTOL
 70
0
  9
$DIMLIM
 70
0
  9
$DIMTIH
 70
0
  9
$DIMTOH
 70
0
  9
$DIMSE1
 70
0
  9
$DIMSE2
 70
0
  9
$DIMTAD
 70
1
  9
$DIMZIN
 70
12
  9
$DIMBLK
  1
ARCHTICK
  9
$DIMASO
 70
1
  9
$DIMSHO
 70
1
  9
$DIMPOST
  1

  9
$DIMAPOST
  1

  9
$DIMALT
 70
0
  9
$DIMALTD
 70
3
  9
$DIMALTF
 40
0.03937007874
  9
$DIMLFAC
 40
100.0
  9
$DIMTOFL
 70
1
  9
$DIMTVP
 40
0.0
  9
$DIMTIX
 70
0
  9
$DIMSOXD
 70
0
  9
$DIMSAH
 70
0
  9
$DIMBLK1
  1

  9
$DIMBLK2
  1

  9
$DIMSTYLE
  2
EZDXF
  9
$DIMCLRD
 70
0
  9
$DIMCLRE
 70
0
  9
$DIMCLRT
 70
0
  9
$DIMTFAC
 40
0.5
  9
$DIMGAP
 40
0.1
  9
$DIMJUST
 70
0
  9
$DIMSD1
 70
0
  9
$DIMSD2
 70
0
  9
$DIMTOLJ
 70
0
  9
$DIMTZIN
 70
8
  9
$DIMALTZ
 70
0
  9
$DIMALTTZ
 70
0
  9
$DIMUPT
 70
1
  9
$DIMDEC
 70
2
  9
$DIMTDEC
 70
2
  9
$DIMALTU
 70
2
  9
$DIMALTTD
 70
3
  9
$DIMTXSTY
  7
OpenSansCondensed-Light
  9
$DIMAUNIT
 70
0
  9
$DIMADEC
 70
2
  9
$DIMALTRND
 40
0.0
  9
$DIMAZIN
 70
3
  9
$DIMDSEP
 70
46
  9
$DIMATFIT
 70
3
  9
$DIMFRAC
 70
0
  9
$DIMLDRBLK
  1

  9
$DIMLUNIT
 70
2
  9
$DIMLWD
 70
-2
  9
$DIMLWE
 70
-2
  9
$DIMTMOVE
 70
2
  9
$DIMFXL
 40
1.0
  9
$DIMFXLON
 70
0
  9
$DIMJOGANG
 40
0.785398163397
  9
$DIMTFILL
 70
0
  9
$DIMTFILLCLR
 70
0
  9
$DIMARCSYM
 70
0
  9
$DIMLTYPE
  6

  9
$DIMLTEX1
  6

  9
$DIMLTEX2
  6

  9
$DIMTXTDIRECTION
 70
0
  9
$LUNITS
 70
2
  9
$LUPREC
 70
4
  9
$SKETCHINC
 40
1.0
  9
$FILLETRAD
 40
10.0
  9
$AUNITS
 70
0
  9
$AUPREC
 70
2
  9
$MENU
  1
.
  9
$ELEVATION
 40
0.0
  9
$PELEVATION
 40
0.0
  9
$THICKNESS
 40
0.0
  9
$LIMCHECK
 70
0
  9
$CHAMFERA
 40
0.0
  9
$CHAMFERB
 40
0.0
  9
$CHAMFERC
 40
0.0
  9
$CHAMFERD
 40
0.0
  9
$SKPOLY
 70
0
  9
$TDCREATE
 40
2461290.4379861113
  9
$TDUCREATE
 40
2458532.153996898
  9
$TDUPDATE
 40
2461290.4379861113
  9
$TDUUPDATE
 40
2458532.1544311
  9
$TDINDWG
 40
0.0
  9
$TDUSRTIMER
 40
0.0
  9
$USRTIMER
 70
1
  9
$ANGBASE
 50
0.0
  9
$ANGDIR
 70
0
  9
$PDMODE
 70
0
  9
$PDSIZE
 40
0.0
  9
$PLINEWID
 40
0.0
  9
$SPLFRAME
 70
0
  9
$SPLINETYPE
 70
6
  9
$SPLINESEGS
 70
8
  9
$HANDSEED
  5
9C
  9
$SURFTAB1
 70
6
  9
$SURFTAB2
 70
6
  9
$SURFTYPE
 70
6
  9
$SURFU
 70
6
  9
$SURFV
 70
6
  9
$UCSBASE
  2

  9
$UCSNAME
  2

  9
$UCSORG
 10
0.0
 20
0.0
 30
0.0
  9
$UCSXDIR
 10
1.0
 20
0.0
 30
0.0
  9
$UCSYDIR
 10
0.0
 20
1.0
 30
0.0
  9
$UCSORTHOREF
  2

  9
$UCSORTHOVIEW
 70
0
  9
$UCSORGTOP
 10
0.0
 20
0.0
 30
0.0
  9
$UCSORGBOTTOM
 10
0.0
 20
0.0
 30
0.0
  9
$UCSORGLEFT
 10
0.0
 20
0.0
 30
0.0
  9
$UCSORGRIGHT
 10
0.0
 20
0.0
 30
0.0
  9
$UCSORGFRONT
 10
0.0
 20
0.0
 30
0.0
  9
$UCSORGBACK
 10
0.0
 20
0.0
 30
0.0
  9
$PUCSBASE
  2

  9
$PUCSNAME
  2

  9
$PUCSORG
 10
0.0
 20
0.0
 30
0.0
  9
$PUCSXDIR
 10
1.0
 20
0.0
 30
0.0
  9
$PUCSYDIR
 10
0.0
 20
1.0
 30
0.0
  9
$PUCSORTHOREF
  2

  9
$PUCSORTHOVIEW
 70
0
  9
$PUCSORGTOP
 10
0.0
 20
0.0
 30
0.0
  9
$PUCSORGBOTTOM
 10
0.0
 20
0.0
 30
0.0
  9
$PUCSORGLEFT
 10
0.0
 20
0.0
 30
0.0
  9
$PUCSORGRIGHT
 10
0.0
 20
0.0
 30
0.0
  9
$PUCSORGFRONT
 10
0.0
 20
0.0
 30
0.0
  9
$PUCSORGBACK
 10
0.0
 20
0.0
 30
0.0
  9
$USERI1
 70
0
  9
$USERI2
 70
0
  9
$USERI3
 70
0
  9
$USERI4
 70
0
  9
$USERI5
 70
0
  9
$USERR1
 40
0.0
  9
$USERR2
 40
0.0
  9
$USERR3
 40
0.0
  9
$USERR4
 40
0.0
  9
$USERR5
 40
0.0
  9
$WORLDVIEW
 70
1
  9
$SHADEDGE
 70
3
  9
$SHADEDIF
 70
70
  9
$TILEMODE
 70
1
  9
$MAXACTVP
 70
64
  9
$PINSBASE
 10
0.0
 20
0.0
 30
0.0
  9
$PLIMCHECK
 70
0
  9
$PEXTMIN
 10
1e+20
 20
1e+20
 30
1e+20
  9
$PEXTMAX
 10
-1e+20
 20
-1e+20
 30
-1e+20
  9
$PLIMMIN
 10
0.0
 20
0.0
  9
$PLIMMAX
 10
420.0
 20
297.0
  9
$UNITMODE
 70
0
  9
$VISRETAIN
 70
1
  9
$PLINEGEN
 70
0
  9
$PSLTSCALE
 70
1
  9
$TREEDEPTH
 70
3020
  9
$CMLSTYLE
  2
Standard
  9
$CMLJUST
 70
0
  9
$CMLSCALE
 40
20.0
  9
$PROXYGRAPHICS
 70
1
  9
$MEASUREMENT
 70
1
  9
$CELWEIGHT
370
-1
  9
$ENDCAPS
280
0
  9
$JOINSTYLE
280
0
  9
$LWDISPLAY
290
0
  9
$INSUNITS
 70
4
  9
$HYPERLINKBASE
  1

  9
$STYLESHEET
  1

  9
$XEDIT
290
1
  9
$CEPSNTYPE
380
0
  9
$PSTYLEMODE
290
1
  9
$FINGERPRINTGUID
  2
{D855FF9C-3F1E-428D-B53C-D987BD199E5F}
  9
$VERSIONGUID
  2
{E271F3C3-4565-4B7F-B74E-5740DCA4145F}
  9
$EXTNAMES
290
1
  9
$PSVPSCALE
 40
0.0
  9
$OLESTARTUP
290
0
  9
$SORTENTS
280
127
  9
$INDEXCTL
280
0
  9
$HIDETEXT
280
1
  9
$XCLIPFRAME
280
1
  9
$HALOGAP
280
0
  9
$OBSCOLOR
 70
257
  9
$OBSLTYPE
280
0
  9
$INTERSECTIONDISPLAY
280
0
  9
$INTERSECTIONCOLOR
 70
257
  9
$DIMASSOC
280
2
  9
$PROJECTNAME
  1

  9
$CAMERADISPLAY
290
0
  9
$LENSLENGTH
 40
50.0
  9
$CAMERAHEIGHT
 40
0.0
  9
$STEPSPERSEC
 40
24.0
  9
$STEPSIZE
 40
100.0
  9
$3DDWFPREC
 40
2.0
  9
$PSOLWIDTH
 40
0.005
  9
$PSOLHEIGHT
 40
0.08
  9
$LOFTANG1
 40
1.570796326795
  9
$LOFTANG2
 40
1.570796326795
  9
$LOFTMAG1
 40
0.0
  9
$LOFTMAG2
 40
0.0
  9
$LOFTPARAM
 70
7
  9
$LOFTNORMALS
280
1
  9
$LATITUDE
 40
37.795
  9
$LONGITUDE
 40
-122.394
  9
$NORTHDIRECTION
 40
0.0
  9
$TIMEZONE
 70
-8000
  9
$LIGHTGLYPHDISPLAY
280
1
  9
$TILEMODELIGHTSYNCH
280
1
  9
$CMATERIAL
347
20
  9
$SOLIDHIST
280
0
  9
$SHOWHIST
280
1
  9
$DWFFRAME
280
2
  9
$DGNFRAME
280
2
  9
$REALWORLDSCALE
290
1
  9
$INTERFERECOLOR
 62
256
  9
$CSHADOW
280
0
  9
$SHADOWPLANELOCATION
 40
0.0
  0
ENDSEC
  0
SECTION
  2
CLASSES
  0
CLASS
  1
ACDBDICTIONARYWDFLT
  2
AcDbDictionaryWithDefault
  3
ObjectDBX Classes
 90
0
 91
0
280
0
281
0
  0
CLASS
  1
SUN
  2
AcDbSun
  3
SCENEOE
 90
1153
 91
0
280
0
281
0
  0
CLASS
  1
VISUALSTYLE
  2
AcDbVisualStyle
  3
ObjectDBX Classes
 90
4095
 91
0
280
0
281
0
  0
CLASS
  1
MATERIAL
  2
AcDbMaterial
  3
ObjectDBX Classes
 90
1153
 91
0
280
0
281
0
  0
CLASS
  1
SCALE
  2
AcDbScale
  3
ObjectDBX Classes
 90
1153
 91
0
280
0
281
0
  0
CLASS
  1
TABLESTYLE
  2
AcDbTableStyle
  3
ObjectDBX Classes
 90
4095
 91
0
280
0
281
0
  0
CLASS
  1
MLEADERSTYLE
  2
AcDbMLeaderStyle
  3
ACDB_MLEADERSTYLE_CLASS
 90
4095
 91
0
280
0
281
0
  0
CLASS
  1
DICTIONARYVAR
  2
AcDbDictionaryVar
  3
ObjectDBX Classes
 90
0
 91
0
280
0
281
0
  0
CLASS
  1
CELLSTYLEMAP
  2
AcDbCellStyleMap
  3
ObjectDBX Classes
 90
1152
 91
0
280
0
281
0
  0
CLASS
  1
MENTALRAYRENDERSETTINGS
  2
AcDbMentalRayRenderSettings
  3
SCENEOE
 90
1024
 91
0
280
0
281
0
  0
CLASS
  1
ACDBDETAILVIEWSTYLE
  2
AcDbDetailViewStyle
  3
ObjectDBX Classes
 90
1025
 91
0
280
0
281
0
  0
CLASS
  1
ACDBSECTIONVIEWSTYLE
  2
AcDbSectionViewStyle
  3
ObjectDBX Classes
 90
1025
 91
0
280
0
281
0
  0
CLASS
  1
RASTERVARIABLES
  2
AcDbRasterVariables
  3
ISM
 90
0
 91
0
280
0
281
0
  0
CLASS
  1
LAYOUT
  2
AcDbLayout
  3
ObjectDBX Classes
 90
0
 91
0
280
0
281
0
  0
CLASS
  1
ACDBPLACEHOLDER
  2
AcDbPlaceHolder
  3
ObjectDBX Classes
 90
0
 91
0
280
0
281
0
  0
ENDSEC
  0
SECTION
  2
TABLES
  0
TABLE
  2
VPORT
  5
8
330
0
100
AcDbSymbolTable
 70
1
  0
VPORT
  5
23
330
8
100
AcDbSymbolTableRecord
100
AcDbViewportTableRecord
  2
*Active
 70
0
 10
0.0
 20
0.0
 11
1.0
 21
1.0
 12
0.0
 22
0.0
 13
0.0
 23
0.0
 14
0.5
 24
0.5
 15
0.5
 25
0.5
 16
0.0
 26
0.0
 36
1.0
 17
0.0
 27
0.0
 37
0.0
 40
1000.0
 41
1.34
 42
50.0
 43
0.0
 44
0.0
 50
0.0
 51
0.0
 71
0
 72
1000
 73
1
 74
3
 75
0
 76
0
 77
0
 78
0
281
0
 65
0
146
0.0
  0
ENDTAB
  0
TABLE
  2
LTYPE
  5
2
330
0
100
AcDbSymbolTable
 70
21
  0
LTYPE
  5
24
330
2
100
AcDbSymbolTableRecord
100
AcDbLinetypeTableRecord
  2
ByBlock
 70
0
  3

 72
65
 73
0
 40
0.0
  0
LTYPE
  5
25
330
2
100
AcDbSymbolTableRecord
100
AcDbLinetypeTableRecord
  2
ByLayer
 70
0
  3

 72
65
 73
0
 40
0.0
  0
LTYPE
  5
26
330
2
100
AcDbSymbolTableRecord
100
AcDbLinetypeTableRecord
  2
Continuous
 70
0
  3

 72
65
 73
0
 40
0.0
  0
LTYPE
  5
2F
330
2
100
AcDbSymbolTableRecord
100
AcDbLinetypeTableRecord
  2
CENTER
 70
0
  3
Center ____ _ ____ _ ____ _ ____ _ ____ _ ____
 72
65
 73
4
 40
5.08
 49
3.175
 74
0
 49
-0.635
 74
0
 49
0.635
 74
0
 49
-0.635
 74
0
  0
LTYPE
  5
30
330
2
100
AcDbSymbolTableRecord
100
AcDbLinetypeTableRecord
  2
CENTERX2
 70
0
  3
Center (2x) ________  __  ________  __  ________
 72
65
 73
4
 40
8.89
 49
6.35
 74
0
 49
-0.635
 74
0
 49
1.27
 74
0
 49
-0.635
 74
0
  0
LTYPE
  5
31
330
2
100
AcDbSymbolTableRecord
100
AcDbLinetypeTableRecord
  2
CENTER2
 70
0
  3
Center (.5x) ____ _ ____ _ ____ _ ____ _ ____
 72
65
 73
4
 40
2.54
 49
1.587
 74
0
 49
-0.318
 74
0
 49
0.318
 74
0
 49
-0.318
 74
0
  0
LTYPE
  5
32
330
2
100
AcDbSymbolTableRecord
100
AcDbLinetypeTableRecord
  2
DASHED
 70
0
  3
Dashed __ __ __ __ __ __ __ __ __ __ __ __ __ _
 72
65
 73
2
 40
1.524
 49
1.27
 74
0
 49
-0.254
 74
0
  0
LTYPE
  5
33
330
2
100
AcDbSymbolTableRecord
100
AcDbLinetypeTableRecord
  2
DASHEDX2
 70
0
  3
Dashed (2x) ____  ____  ____  ____  ____  ____
 72
65
 73
2
 40
3.048
 49
2.54
 74
0
 49
-0.508
 74
0
  0
LTYPE
  5
34
330
2
100
AcDbSymbolTableRecord
100
AcDbLinetypeTableRecord
  2
DASHED2
 70
0
  3
Dashed (.5x) _ _ _ _ _ _ _ _ _ _ _ _ _ _
 72
65
 73
2
 40
0.762
 49
0.635
 74
0
 49
-0.127
 74
0
  0
LTYPE
  5
35
330
2
100
AcDbSymbolTableRecord
100
AcDbLinetypeTableRecord
  2
PHANTOM
 70
0
  3
Phantom ______  __  __  ______  __  __  ______
 72
65
 73
6
 40
6.35
 49
3.175
 74
0
 49
-0.635
 74
0
 49
0.635
 74
0
 49
-0.635
 74
0
 49
0.635
 74
0
 49
-0.635
 74
0
  0
LTYPE
  5
36
330
2
100
AcDbSymbolTableRecord
100
AcDbLinetypeTableRecord
  2
PHANTOMX2
 70
0
  3
Phantom (2x)____________    ____    ____    ____________
 72
65
 73
6
 40
10.795
 49
6.35
 74
0
 49
-0.635
 74
0
 49
1.27
 74
0
 49
-0.635
 74
0
 49
1.27
 74
0
 49
-0.635
 74
0
  0
LTYPE
  5
37
330
2
100
AcDbSymbolTableRecord
100
AcDbLinetypeTableRecord
  2
PHANTOM2
 70
0
  3
Phantom (.5x) ___ _ _ ___ _ _ ___ _ _ ___ _ _ ___
 72
65
 73
6
 40
3.175
 49
1.587
 74
0
 49
-0.318
 74
0
 49
0.318
 74
0
 49
-0.318
 74
0
 49
0.318
 74
0
 49
-0.318
 74
0
  0
LTYPE
  5
38
330
2
100
AcDbSymbolTableRecord
100
AcDbLinetypeTableRecord
  2
DASHDOT
 70
0
  3
Dash dot __ . __ . __ . __ . __ . __ . __ . __
 72
65
 73
4
 40
3.556
 49
2.54
 74
0
 49
-0.508
 74
0
 49
0.0
 74
0
 49
-0.508
 74
0
  0
LTYPE
  5
39
330
2
100
AcDbSymbolTableRecord
100
AcDbLinetypeTableRecord
  2
DASHDOTX2
 70
0
  3
Dash dot (2x) ____  .  ____  .  ____  .  ____
 72
65
 73
4
 40
6.096
 49
5.08
 74
0
 49
-0.508
 74
0
 49
0.0
 74
0
 49
-0.508
 74
0
  0
LTYPE
  5
3A
330
2
100
AcDbSymbolTableRecord
100
AcDbLinetypeTableRecord
  2
DASHDOT2
 70
0
  3
Dash dot (.5x) _ . _ . _ . _ . _ . _ . _ . _
 72
65
 73
4
 40
1.778
 49
1.27
 74
0
 49
-0.254
 74
0
 49
0.0
 74
0
 49
-0.254
 74
0
  0
LTYPE
  5
3B
330
2
100
AcDbSymbolTableRecord
100
AcDbLinetypeTableRecord
  2
DOT
 70
0
  3
Dot .  .  .  .  .  .  .  .  .  .  .  .  .  .  .  .
 72
65
 73
2
 40
0.508
 49
0.0
 74
0
 49
-0.508
 74
0
  0
LTYPE
  5
3C
330
2
100
AcDbSymbolTableRecord
100
AcDbLinetypeTableRecord
  2
DOTX2
 70
0
  3
Dot (2x) .    .    .    .    .    .    .    . 
 72
65
 73
2
 40
1.016
 49
0.0
 74
0
 49
-1.016
 74
0
  0
LTYPE
  5
3D
330
2
100
AcDbSymbolTableRecord
100
AcDbLinetypeTableRecord
  2
DOT2
 70
0
  3
Dot (.5) . . . . . . . . . . . . . . . . . . . 
 72
65
 73
2
 40
0.254
 49
0.0
 74
0
 49
-0.254
 74
0
  0
LTYPE
  5
3E
330
2
100
AcDbSymbolTableRecord
100
AcDbLinetypeTableRecord
  2
DIVIDE
 70
0
  3
Divide __ . . __ . . __ . . __ . . __ . . __
 72
65
 73
6
 40
4.064
 49
2.54
 74
0
 49
-0.508
 74
0
 49
0.0
 74
0
 49
-0.508
 74
0
 49
0.0
 74
0
 49
-0.508
 74
0
  0
LTYPE
  5
3F
330
2
100
AcDbSymbolTableRecord
100
AcDbLinetypeTableRecord
  2
DIVIDEX2
 70
0
  3
Divide (2x) ____  . .  ____  . .  ____  . .  ____
 72
65
 73
6
 40
6.604
 49
5.08
 74
0
 49
-0.508
 74
0
 49
0.0
 74
0
 49
-0.508
 74
0
 49
0.0
 74
0
 49
-0.508
 74
0
  0
LTYPE
  5
40
330
2
100
AcDbSymbolTableRecord
100
AcDbLinetypeTableRecord
  2
DIVIDE2
 70
0
  3
Divide(.5x) _ . _ . _ . _ . _ . _ . _ . _
 72
65
 73
6
 40
2.032
 49
1.27
 74
0
 49
-0.254
 74
0
 49
0.0
 74
0
 49
-0.254
 74
0
 49
0.0
 74
0
 49
-0.254
 74
0
  0
ENDTAB
  0
TABLE
  2
LAYER
  5
1
330
0
100
AcDbSymbolTable
 70
5
  0
LAYER
  5
27
330
1
100
AcDbSymbolTableRecord
100
AcDbLayerTableRecord
  2
0
 70
0
 62
7
  6
Continuous
370
-3
390
13
347
21
  0
LAYER
  5
28
330
1
100
AcDbSymbolTableRecord
100
AcDbLayerTableRecord
  2
Defpoints
 70
0
 62
7
  6
Continuous
290
0
370
-3
390
13
347
21
  0
LAYER
  5
8A
330
1
100
AcDbSymbolTableRecord
100
AcDbLayerTableRecord
  2
CORTE
 70
0
 62
1
  6
Continuous
370
-3
390
13
347
21
  0
LAYER
  5
8B
330
1
100
AcDbSymbolTableRecord
100
AcDbLayerTableRecord
  2
GRABADO
 70
0
 62
5
  6
Continuous
370
-3
390
13
347
21
  0
LAYER
  5
8C
330
1
100
AcDbSymbolTableRecord
100
AcDbLayerTableRecord
  2
HOJA
 70
0
 62
8
  6
Continuous
370
-3
390
13
347
21
  0
ENDTAB
  0
TABLE
  2
STYLE
  5
5
330
0
100
AcDbSymbolTable
 70
26
  0
STYLE
  5
29
330
5
100
AcDbSymbolTableRecord
100
AcDbTextStyleTableRecord
  2
Standard
 70
0
 40
0.0
 41
1.0
 50
0.0
 71
0
 42
2.5
  3
txt
  4

  0
STYLE
  5
41
330
5
100
AcDbSymbolTableRecord
100
AcDbTextStyleTableRecord
  2
OpenSans-Light
 70
0
 40
0.0
 41
1.0
 50
0.0
 71
0
 42
2.5
  3
OpenSans-Light.ttf
  4

  0
STYLE
  5
42
330
5
100
AcDbSymbolTableRecord
100
AcDbTextStyleTableRecord
  2
OpenSans-Light-Italic
 70
0
 40
0.0
 41
1.0
 50
0.0
 71
0
 42
2.5
  3
OpenSans-LightItalic.ttf
  4

  0
STYLE
  5
43
330
5
100
AcDbSymbolTableRecord
100
AcDbTextStyleTableRecord
  2
OpenSans
 70
0
 40
0.0
 41
1.0
 50
0.0
 71
0
 42
2.5
  3
OpenSans-Regular.ttf
  4

  0
STYLE
  5
44
330
5
100
AcDbSymbolTableRecord
100
AcDbTextStyleTableRecord
  2
OpenSans-Italic
 70
0
 40
0.0
 41
1.0
 50
0.0
 71
0
 42
2.5
  3
OpenSans-Italic.ttf
  4

  0
STYLE
  5
45
330
5
100
AcDbSymbolTableRecord
100
AcDbTextStyleTableRecord
  2
OpenSans-SemiBold
 70
0
 40
0.0
 41
1.0
 50
0.0
 71
0
 42
2.5
  3
OpenSans-SemiBold.ttf
  4

  0
STYLE
  5
46
330
5
100
AcDbSymbolTableRecord
100
AcDbTextStyleTableRecord
  2
OpenSans-SemiBoldItalic
 70
0
 40
0.0
 41
1.0
 50
0.0
 71
0
 42
2.5
  3
OpenSans-SemiBoldItalic.ttf
  4

  0
STYLE
  5
47
330
5
100
AcDbSymbolTableRecord
100
AcDbTextStyleTableRecord
  2
OpenSans-Bold
 70
0
 40
0.0
 41
1.0
 50
0.0
 71
0
 42
2.5
  3
OpenSans-Bold.ttf
  4

  0
STYLE
  5
48
330
5
100
AcDbSymbolTableRecord
100
AcDbTextStyleTableRecord
  2
OpenSans-BoldItalic
 70
0
 40
0.0
 41
1.0
 50
0.0
 71
0
 42
2.5
  3
OpenSans-BoldItalic.ttf
  4

  0
STYLE
  5
49
330
5
100
AcDbSymbolTableRecord
100
AcDbTextStyleTableRecord
  2
OpenSans-ExtraBold
 70
0
 40
0.0
 41
1.0
 50
0.0
 71
0
 42
2.5
  3
OpenSans-ExtraBold.ttf
  4

  0
STYLE
  5
4A
330
5
100
AcDbSymbolTableRecord
100
AcDbTextStyleTableRecord
  2
OpenSans-ExtraBoldItalic
 70
0
 40
0.0
 41
1.0
 50
0.0
 71
0
 42
2.5
  3
OpenSans-ExtraBoldItalic.ttf
  4

  0
STYLE
  5
4B
330
5
100
AcDbSymbolTableRecord
100
AcDbTextStyleTableRecord
  2
OpenSansCondensed-Bold
 70
0
 40
0.0
 41
1.0
 50
0.0
 71
0
 42
2.5
  3
OpenSansCondensed-Bold.ttf
  4

  0
STYLE
  5
4C
330
5
100
AcDbSymbolTableRecord
100
AcDbTextStyleTableRecord
  2
OpenSansCondensed-Light
 70
0
 40
0.0
 41
1.0
 50
0.0
 71
0
 42
2.5
  3
OpenSansCondensed-Light.ttf
  4

  0
STYLE
  5
4D
330
5
100
AcDbSymbolTableRecord
100
AcDbTextStyleTableRecord
  2
OpenSansCondensed-Italic
 70
0
 40
0.0
 41
1.0
 50
0.0
 71
0
 42
2.5
  3
OpenSansCondensed-LightItalic.ttf
  4

  0
STYLE
  5
4E
330
5
100
AcDbSymbolTableRecord
100
AcDbTextStyleTableRecord
  2
LiberationSans
 70
0
 40
0.0
 41
1.0
 50
0.0
 71
0
 42
2.5
  3
LiberationSans-Regular.ttf
  4

  0
STYLE
  5
4F
330
5
100
AcDbSymbolTableRecord
100
AcDbTextStyleTableRecord
  2
LiberationSans-Bold
 70
0
 40
0.0
 41
1.0
 50
0.0
 71
0
 42
2.5
  3
LiberationSans-Bold.ttf
  4

  0
STYLE
  5
50
330
5
100
AcDbSymbolTableRecord
100
AcDbTextStyleTableRecord
  2
LiberationSans-BoldItalic
 70
0
 40
0.0
 41
1.0
 50
0.0
 71
0
 42
2.5
  3
LiberationSans-BoldItalic.ttf
  4

  0
STYLE
  5
51
330
5
100
AcDbSymbolTableRecord
100
AcDbTextStyleTableRecord
  2
LiberationSans-Italic
 70
0
 40
0.0
 41
1.0
 50
0.0
 71
0
 42
2.5
  3
LiberationSans-Italic.ttf
  4

  0
STYLE
  5
52
330
5
100
AcDbSymbolTableRecord
100
AcDbTextStyleTableRecord
  2
LiberationSerif
 70
0
 40
0.0
 41
1.0
 50
0.0
 71
0
 42
2.5
  3
LiberationSerif-Regular.ttf
  4

  0
STYLE
  5
53
330
5
100
AcDbSymbolTableRecord
100
AcDbTextStyleTableRecord
  2
LiberationSerif-Bold
 70
0
 40
0.0
 41
1.0
 50
0.0
 71
0
 42
2.5
  3
LiberationSerif-Bold.ttf
  4

  0
STYLE
  5
54
330
5
100
AcDbSymbolTableRecord
100
AcDbTextStyleTableRecord
  2
LiberationSerif-BoldItalic
 70
0
 40
0.0
 41
1.0
 50
0.0
 71
0
 42
2.5
  3
LiberationSerif-BoldItalic.ttf
  4

  0
STYLE
  5
55
330
5
100
AcDbSymbolTableRecord
100
AcDbTextStyleTableRecord
  2
LiberationSerif-Italic
 70
0
 40
0.0
 41
1.0
 50
0.0
 71
0
 42
2.5
  3
LiberationSerif-Italic.ttf
  4

  0
STYLE
  5
56
330
5
100
AcDbSymbolTableRecord
100
AcDbTextStyleTableRecord
  2
LiberationMono
 70
0
 40
0.0
 41
1.0
 50
0.0
 71
0
 42
2.5
  3
LiberationMono-Regular.ttf
  4

  0
STYLE
  5
57
330
5
100
AcDbSymbolTableRecord
100
AcDbTextStyleTableRecord
  2
LiberationMono-Bold
 70
0
 40
0.0
 41
1.0
 50
0.0
 71
0
 42
2.5
  3
LiberationMono-Bold.ttf
  4

  0
STYLE
  5
58
330
5
100
AcDbSymbolTableRecord
100
AcDbTextStyleTableRecord
  2
LiberationMono-BoldItalic
 70
0
 40
0.0
 41
1.0
 50
0.0
 71
0
 42
2.5
  3
LiberationMono-BoldItalic.ttf
  4

  0
STYLE
  5
59
330
5
100
AcDbSymbolTableRecord
100
AcDbTextStyleTableRecord
  2
LiberationMono-Italic
 70
0
 40
0.0
 41
1.0
 50
0.0
 71
0
 42
2.5
  3
LiberationMono-Italic.ttf
  4

  0
ENDTAB
  0
TABLE
  2
VIEW
  5
7
330
0
100
AcDbSymbolTable
 70
0
  0
ENDTAB
  0
TABLE
  2
UCS
  5
6
330
0
100
AcDbSymbolTable
 70
0
  0
ENDTAB
  0
TABLE
  2
APPID
  5
3
330
0
100
AcDbSymbolTable
 70
3
  0
APPID
  5
2A
330
3
100
AcDbSymbolTableRecord
100
AcDbRegAppTableRecord
  2
ACAD
 70
0
  0
APPID
  5
99
330
3
100
AcDbSymbolTableRecord
100
AcDbRegAppTableRecord
  2
HATCHBACKGROUNDCOLOR
 70
0
  0
APPID
  5
9A
330
3
100
AcDbSymbolTableRecord
100
AcDbRegAppTableRecord
  2
EZDXF
 70
0
  0
ENDTAB
  0
TABLE
  2
DIMSTYLE
  5
4
330
0
100
AcDbSymbolTable
 70
12
100
AcDbDimStyleTable
  0
DIMSTYLE
105
2B
330
4
100
AcDbSymbolTableRecord
100
AcDbDimStyleTableRecord
  2
Standard
 70
0
 40
1.0
 41
2.5
 42
0.625
 43
3.75
 44
1.25
 45
0.0
 46
0.0
 47
0.0
 48
0.0
 49
2.5
140
2.5
141
2.5
142
0.0
143
0.03937007874
144
1.0
145
0.0
146
1.0
147
0.625
148
0.0
 69
0
 70
0
 71
0
 72
0
 73
0
 74
0
 75
0
 76
0
 77
1
 78
8
 79
3
170
0
171
3
172
1
173
0
174
0
175
0
176
0
177
0
178
0
179
2
271
2
272
2
273
2
274
3
275
0
276
0
277
2
278
44
279
0
280
0
281
0
282
0
283
0
284
8
285
0
286
0
288
0
289
3
290
0
371
-2
372
-2
  0
DIMSTYLE
105
73
330
4
100
AcDbSymbolTableRecord
100
AcDbDimStyleTableRecord
  2
EZDXF
 70
0
 40
1.0
 41
0.175
 42
0.125
 43
3.75
 44
0.375
 45
0.0
 46
0.0
 47
0.0
 48
0.0
 49
2.5
140
0.25
141
2.5
142
0.0
143
0.03937007874
144
100.0
145
0.0
146
0.5
147
0.1
148
0.0
 69
0
 70
0
 71
0
 72
0
 73
0
 74
0
 75
0
 76
0
 77
1
 78
12
 79
3
170
0
171
3
172
1
173
0
174
0
175
0
176
0
177
0
178
0
179
2
271
2
272
2
273
2
274
3
275
0
276
0
277
2
278
46
279
2
280
0
281
0
282
0
283
0
284
8
285
0
286
0
288
1
289
3
290
0
340
4C
342
74
371
-2
372
-2
  0
DIMSTYLE
105
7C
330
4
100
AcDbSymbolTableRecord
100
AcDbDimStyleTableRecord
  2
EZ_M_100_H25_CM
 70
0
 40
1.0
 41
0.25
 42
0.125
 43
3.75
 44
0.375
 45
0.0
 46
0.0
 47
0.0
 48
0.0
 49
2.5
140
0.25
141
2.5
142
0.125
143
0.03937007874
144
100.0
145
0.0
146
0.5
147
0.1
148
0.0
 69
0
 70
0
 71
0
 72
0
 73
0
 74
0
 75
0
 76
0
 77
1
 78
12
 79
3
170
0
171
3
172
1
173
0
174
0
175
0
176
0
177
0
178
0
179
2
271
2
272
2
273
2
274
3
275
0
276
0
277
2
278
46
279
2
280
0
281
0
282
0
283
0
284
8
285
0
286
0
288
1
289
3
290
0
340
4C
371
-2
372
-2
  0
DIMSTYLE
105
7D
330
4
100
AcDbSymbolTableRecord
100
AcDbDimStyleTableRecord
  2
EZ_M_50_H25_CM
 70
0
 40
1.0
 41
0.125
 42
0.0625
 43
3.75
 44
0.1875
 45
0.0
 46
0.0
 47
0.0
 48
0.0
 49
2.5
140
0.125
141
2.5
142
0.0625
143
0.03937007874
144
100.0
145
0.0
146
0.5
147
0.05
148
0.0
 69
0
 70
0
 71
0
 72
0
 73
0
 74
0
 75
0
 76
0
 77
1
 78
12
 79
3
170
0
171
3
172
1
173
0
174
0
175
0
176
0
177
0
178
0
179
2
271
2
272
2
273
2
274
3
275
0
276
0
277
2
278
46
279
2
280
0
281
0
282
0
283
0
284
8
285
0
286
0
288
1
289
3
290
0
340
4C
371
-2
372
-2
  0
DIMSTYLE
105
7E
330
4
100
AcDbSymbolTableRecord
100
AcDbDimStyleTableRecord
  2
EZ_M_25_H25_CM
 70
0
 40
1.0
 41
0.0625
 42
0.03125
 43
3.75
 44
0.09375
 45
0.0
 46
0.0
 47
0.0
 48
0.0
 49
2.5
140
0.0625
141
2.5
142
0.03125
143
0.03937007874
144
100.0
145
0.0
146
0.5
147
0.025
148
0.0
 69
0
 70
0
 71
0
 72
0
 73
0
 74
0
 75
0
 76
0
 77
1
 78
12
 79
3
170
0
171
3
172
1
173
0
174
0
175
0
176
0
177
0
178
0
179
2
271
2
272
2
273
2
274
3
275
0
276
0
277
2
278
46
279
2
280
0
281
0
282
0
283
0
284
8
285
0
286
0
288
1
289
3
290
0
340
4C
371
-2
372
-2
  0
DIMSTYLE
105
7F
330
4
100
AcDbSymbolTableRecord
100
AcDbDimStyleTableRecord
  2
EZ_M_20_H25_CM
 70
0
 40
1.0
 41
0.05
 42
0.025
 43
3.75
 44
0.07500000000000001
 45
0.0
 46
0.0
 47
0.0
 48
0.0
 49
2.5
140
0.05
141
2.5
142
0.025
143
0.03937007874
144
100.0
145
0.0
146
0.5
147
0.020000000000000004
148
0.0
 69
0
 70
0
 71
0
 72
0
 73
0
 74
0
 75
0
 76
0
 77
1
 78
12
 79
3
170
0
171
3
172
1
173
0
174
0
175
0
176
0
177
0
178
0
179
2
271
2
272
2
273
2
274
3
275
0
276
0
277
2
278
46
279
2
280
0
281
0
282
0
283
0
284
8
285
0
286
0
288
1
289
3
290
0
340
4C
371
-2
372
-2
  0
DIMSTYLE
105
80
330
4
100
AcDbSymbolTableRecord
100
AcDbDimStyleTableRecord
  2
EZ_M_10_H25_CM
 70
0
 40
1.0
 41
0.025
 42
0.0125
 43
3.75
 44
0.037500000000000006
 45
0.0
 46
0.0
 47
0.0
 48
0.0
 49
2.5
140
0.025
141
2.5
142
0.0125
143
0.03937007874
144
100.0
145
0.0
146
0.5
147
0.010000000000000002
148
0.0
 69
0
 70
0
 71
0
 72
0
 73
0
 74
0
 75
0
 76
0
 77
1
 78
12
 79
3
170
0
171
3
172
1
173
0
174
0
175
0
176
0
177
0
178
0
179
2
271
2
272
2
273
2
274
3
275
0
276
0
277
2
278
46
279
2
280
0
281
0
282
0
283
0
284
8
285
0
286
0
288
1
289
3
290
0
340
4C
371
-2
372
-2
  0
DIMSTYLE
105
81
330
4
100
AcDbSymbolTableRecord
100
AcDbDimStyleTableRecord
  2
EZ_M_5_H25_CM
 70
0
 40
1.0
 41
0.0125
 42
0.00625
 43
3.75
 44
0.018750000000000003
 45
0.0
 46
0.0
 47
0.0
 48
0.0
 49
2.5
140
0.0125
141
2.5
142
0.00625
143
0.03937007874
144
100.0
145
0.0
146
0.5
147
0.005000000000000001
148
0.0
 69
0
 70
0
 71
0
 72
0
 73
0
 74
0
 75
0
 76
0
 77
1
 78
12
 79
3
170
0
171
3
172
1
173
0
174
0
175
0
176
0
177
0
178
0
179
2
271
2
272
2
273
2
274
3
275
0
276
0
277
2
278
46
279
2
280
0
281
0
282
0
283
0
284
8
285
0
286
0
288
1
289
3
290
0
340
4C
371
-2
372
-2
  0
DIMSTYLE
105
82
330
4
100
AcDbSymbolTableRecord
100
AcDbDimStyleTableRecord
  2
EZ_M_1_H25_CM
 70
0
 40
1.0
 41
0.0025
 42
0.00125
 43
3.75
 44
0.00375
 45
0.0
 46
0.0
 47
0.0
 48
0.0
 49
2.5
140
0.0025
141
2.5
142
0.00125
143
0.03937007874
144
100.0
145
0.0
146
0.5
147
0.001
148
0.0
 69
0
 70
0
 71
0
 72
0
 73
0
 74
0
 75
0
 76
0
 77
1
 78
12
 79
3
170
0
171
3
172
1
173
0
174
0
175
0
176
0
177
0
178
0
179
2
271
2
272
2
273
2
274
3
275
0
276
0
277
2
278
46
279
2
280
0
281
0
282
0
283
0
284
8
285
0
286
0
288
1
289
3
290
0
340
4C
371
-2
372
-2
  0
DIMSTYLE
105
83
330
4
100
AcDbSymbolTableRecord
100
AcDbDimStyleTableRecord
  2
EZ_RADIUS
 70
0
 40
1.0
 41
0.25
 42
0.125
 43
3.75
 44
0.375
 45
0.0
 46
0.0
 47
0.0
 48
0.0
 49
2.5
140
0.25
141
0.0
142
0.0
143
0.03937007874
144
100.0
145
0.0
146
0.5
147
0.1
148
0.0
 69
0
 70
0
 71
0
 72
0
 73
0
 74
0
 75
0
 76
0
 77
1
 78
12
 79
3
170
0
171
3
172
0
173
0
174
0
175
0
176
0
177
0
178
0
179
2
271
2
272
2
273
2
274
3
275
0
276
0
277
2
278
46
279
1
280
0
281
0
282
0
283
0
284
8
285
0
286
0
288
1
289
3
290
0
340
4C
342
84
371
-2
372
-2
  0
DIMSTYLE
105
88
330
4
100
AcDbSymbolTableRecord
100
AcDbDimStyleTableRecord
  2
EZ_RADIUS_INSIDE
 70
0
 40
1.0
 41
0.25
 42
0.125
 43
3.75
 44
0.375
 45
0.0
 46
0.0
 47
0.0
 48
0.0
 49
2.5
140
0.25
141
0.0
142
0.0
143
0.03937007874
144
100.0
145
0.0
146
0.5
147
0.1
148
0.0
 69
0
 70
0
 71
0
 72
0
 73
0
 74
0
 75
0
 76
0
 77
0
 78
12
 79
3
170
0
171
3
172
0
173
0
174
1
175
0
176
0
177
0
178
0
179
2
271
2
272
2
273
2
274
3
275
0
276
0
277
2
278
46
279
0
280
0
281
0
282
0
283
0
284
8
285
0
286
0
288
1
289
0
290
0
340
4C
342
84
371
-2
372
-2
  0
DIMSTYLE
105
89
330
4
100
AcDbSymbolTableRecord
100
AcDbDimStyleTableRecord
  2
EZ_CURVED
 70
0
 40
1.0
 41
0.25
 42
0.125
 43
3.75
 44
0.375
 45
0.0
 46
0.0
 47
0.0
 48
0.0
 49
2.5
140
0.25
141
2.5
142
0.0
143
0.03937007874
144
100.0
145
0.0
146
0.5
147
0.1
148
0.0
 69
0
 70
0
 71
0
 72
0
 73
0
 74
0
 75
0
 76
0
 77
1
 78
12
 79
2
 90
2
170
0
171
3
172
1
173
0
174
0
175
0
176
0
177
0
178
0
179
2
271
2
272
2
273
2
274
3
275
0
276
0
277
2
278
46
279
2
280
0
281
0
282
0
283
0
284
8
285
0
286
0
288
1
289
3
290
0
340
4C
371
-2
372
-2
  0
ENDTAB
  0
TABLE
  2
BLOCK_RECORD
  5
9
330
0
100
AcDbSymbolTable
 70
5
  0
BLOCK_RECORD
  5
17
330
9
100
AcDbSymbolTableRecord
100
AcDbBlockTableRecord
  2
*Model_Space
340
1A
 70
0
280
1
281
0
  0
BLOCK_RECORD
  5
1B
330
9
100
AcDbSymbolTableRecord
100
AcDbBlockTableRecord
  2
*Paper_Space
340
1E
 70
0
280
1
281
0
  0
BLOCK_RECORD
  5
74
330
9
100
AcDbSymbolTableRecord
100
AcDbBlockTableRecord
  2
_ARCHTICK
340
0
 70
0
280
1
281
0
  0
BLOCK_RECORD
  5
78
330
9
100
AcDbSymbolTableRecord
100
AcDbBlockTableRecord
  2
_CLOSEDFILLED
340
0
 70
0
280
1
281
0
  0
BLOCK_RECORD
  5
84
330
9
100
AcDbSymbolTableRecord
100
AcDbBlockTableRecord
  2
_CLOSEDBLANK
340
0
 70
0
280
1
281
0
  0
ENDTAB
  0
ENDSEC
  0
SECTION
  2
BLOCKS
  0
BLOCK
  5
18
330
17
100
AcDbEntity
  8
0
100
AcDbBlockBegin
  2
*Model_Space
 70
0
 10
0.0
 20
0.0
 30
0.0
  3
*Model_Space
  1

  0
ENDBLK
  5
19
330
17
100
AcDbEntity
  8
0
100
AcDbBlockEnd
  0
BLOCK
  5
1C
330
1B
100
AcDbEntity
  8
0
100
AcDbBlockBegin
  2
*Paper_Space
 70
0
 10
0.0
 20
0.0
 30
0.0
  3
*Paper_Space
  1

  0
ENDBLK
  5
1D
330
1B
100
AcDbEntity
  8
0
100
AcDbBlockEnd
  0
BLOCK
  5
75
330
74
100
AcDbEntity
  8
0
100
AcDbBlockBegin
  2
_ARCHTICK
 70
0
 10
0.0
 20
0.0
 30
0.0
  3
_ARCHTICK
  1

  0
LWPOLYLINE
  5
77
330
74
100
AcDbEntity
  8
0
  6
BYBLOCK
 62
0
100
AcDbPolyline
 90
2
 70
0
 43
0.15
 10
-0.5
 20
-0.5
 10
0.5
 20
0.5
  0
ENDBLK
  5
76
330
74
100
AcDbEntity
  8
0
100
AcDbBlockEnd
  0
BLOCK
  5
79
330
78
100
AcDbEntity
  8
0
100
AcDbBlockBegin
  2
_CLOSEDFILLED
 70
0
 10
0.0
 20
0.0
 30
0.0
  3
_CLOSEDFILLED
  1

  0
SOLID
  5
7B
330
78
100
AcDbEntity
  8
0
  6
BYBLOCK
 62
0
100
AcDbTrace
 10
-1.0
 20
0.16439898372402537
 30
0.0
 11
0.0
 21
0.0
 31
0.0
 12
-1.0
 22
-0.16439898372402537
 32
0.0
 13
-1.0
 23
-0.16439898372402537
 33
0.0
  0
ENDBLK
  5
7A
330
78
100
AcDbEntity
  8
0
100
AcDbBlockEnd
  0
BLOCK
  5
85
330
84
100
AcDbEntity
  8
0
100
AcDbBlockBegin
  2
_CLOSEDBLANK
 70
0
 10
0.0
 20
0.0
 30
0.0
  3
_CLOSEDBLANK
  1

  0
LWPOLYLINE
  5
87
330
84
100
AcDbEntity
  8
0
  6
BYBLOCK
 62
0
100
AcDbPolyline
 90
3
 70
1
 10
-1.0
 20
0.16439898372402537
 10
0.0
 20
0.0
 10
-1.0
 20
-0.16439898372402537
  0
ENDBLK
  5
86
330
84
100
AcDbEntity
  8
0
100
AcDbBlockEnd
  0
ENDSEC
  0
SECTION
  2
ENTITIES
  0
LWPOLYLINE
  5
8D
330
17
100
AcDbEntity
  8
HOJA
100
AcDbPolyline
 90
4
 70
1
 10
0.0
 20
0.0
 10
600.0
 20
0.0
 10
600.0
 20
900.0
 10
0.0
 20
900.0
  0
LWPOLYLINE
  5
8E
330
17
100
AcDbEntity
  8
CORTE
100
AcDbPolyline
 90
531
 70
1
 10
193.96726892828246
 20
623.3378694696976
 10
197.86430884128617
 20
621.0510603572407
 10
200.92809813287226
 20
619.6460727117005
 10
203.00107812806255
 20
618.6320597188042
 10
207.88891861218576
 20
617.5284876514152
 10
208.8557552065481
 20
617.1447597726174
 10
212.12357803016744
 20
615.8678815527101
 10
214.29467370371276
 20
615.1148576390592
 10
214.865928516856
 20
614.9182380996517
 10
219.45453866448474
 20
612.7129231262352
 10
221.81998733554224
 20
612.328290286664
 10
225.66774262922127
 20
611.7159421557303
 10
228.8071192087375
 20
610.7989994661993
 10
231.06537722895928
 20
609.6032223871894
 10
235.771779801001
 20
607.9213890142964
 10
236.58689271178037
 20
607.7039763173975
 10
242.7236472089346
 20
606.9184038108551
 10
242.95887164717487
 20
606.9264822654845
 10
246.49976735698738
 20
606.6116721127746
 10
249.52472436991593
 20
606.3686884058388
 10
249.70891760238328
 20
606.3012678392697
 10
255.82168363282767
 20
605.4835110486874
 10
256.6840609506917
 20
605.3872482271549
 10
261.0142967113459
 20
603.0894218095491
 10
263.65309796836937
 20
602.2355923996488
 10
266.7361753587297
 20
601.448500844227
 10
270.6133474452081
 20
600.4886056069072
 10
272.9082842784553
 20
600.4105880870106
 10
277.57927061239343
 20
600.24401982781
 10
279.6033742225575
 20
600.0111920138356
 10
283.79307390274244
 20
597.3391250193899
 10
284.32639385333437
 20
596.9805192777349
 10
284.59183259525753
 20
596.7078623918933
 10
288.98367434548436
 20
593.952973503604
 10
291.51887753563824
 20
593.6938983743903
 10
295.72844593092464
 20
593.6938983743903
 10
298.48431065206705
 20
594.0069920548922
 10
302.7060844572884
 20
593.6898099362784
 10
305.4676188176195
 20
593.4823267220127
 10
308.9334404153162
 20
592.6948105354545
 10
312.43612769523133
 20
592.4526353123306
 10
315.34680675962227
 20
591.9495118431028
 10
319.41140529658014
 20
591.0997837218283
 10
321.4417281816234
 20
590.7780232449677
 10
326.3858952253022
 20
588.8890309489157
 10
326.93869485145615
 20
588.8343526207827
 10
331.34701782588013
 20
588.0899227532732
 10
333.18045309946547
 20
587.8632708156724
 10
333.3551918961359
 20
587.8294454438469
 10
339.0910189519557
 20
586.4415479764948
 10
340.3335098983316
 20
586.0395938879446
 10
344.6589150228417
 20
584.5692770362866
 10
347.31404989334374
 20
583.5429161027787
 10
349.7546439427199
 20
582.0432853558227
 10
353.46415658944693
 20
578.8098851817294
 10
353.9412316534822
 20
578.3289985783872
 10
354.3032120247194
 20
578.005622255575
 10
357.8935441207975
 20
574.3226775148814
 10
361.271938862993
 20
571.6907393016236
 10
362.18329367722504
 20
570.7681116209419
 10
364.1357141927808
 20
569.5568740213071
 10
366.7881575990323
 20
567.6321870600068
 10
368.2360792163704
 20
566.6299579138617
 10
371.3216939631161
 20
564.3940231555443
 10
375.20767678855304
 20
561.6637548529493
 10
375.86161097354284
 20
561.1669870892492
 10
377.27142791901406
 20
560.2949849912739
 10
380.28939985034845
 20
557.7713374726982
 10
382.1826030984564
 20
555.874688059132
 10
384.56329779008956
 20
554.1982566444549
 10
388.2126176848376
 20
551.0297981725125
 10
388.7754383031704
 20
550.5293157413307
 10
389.1509079521554
 20
550.2323371261168
 10
393.1822199308906
 20
547.1366001523998
 10
396.11313952654314
 20
545.4356671103674
 10
398.0311457456712
 20
544.322571736559
 10
401.9307638443531
 20
541.7747320618773
 10
402.68249172931587
 20
541.2321877773743
 10
403.09218459812496
 20
540.9364989710784
 10
406.9893651418995
 20
537.6966357018941
 10
410.0506562452417
 20
536.0085971938411
 10
412.0037179111971
 20
535.1134297358899
 10
416.632291348187
 20
532.5171220598654
 10
416.8944016335797
 20
532.3605294138838
 10
417.01317838660975
 20
532.3318621391181
 10
422.00391880760094
 20
529.8908400244154
 10
423.9780922649877
 20
529.347717934621
 10
427.782260471359
 20
528.3154458017702
 10
430.94857712394764
 20
527.3007247666601
 10
433.56062173874784
 20
526.7223774931381
 10
437.94066460194085
 20
524.234570829502
 10
438.42046357915547
 20
523.8799495213689
 10
439.1539695601939
 20
523.2487503831358
 10
442.6841337450112
 20
520.272910363959
 10
444.92414411989307
 20
517.876318275808
 10
446.6074275092976
 20
516.2128669045428
 10
448.28721113744655
 20
513.9760030998814
 10
450.08982734396454
 20
511.57561319767365
 10
451.89881882383975
 20
509.5995170496135
 10
453.7365424606762
 20
507.16336006371375
 10
456.259857197814
 20
504.71293519965
 10
457.1631329835284
 20
502.4177994340034
 10
458.8806227739749
 20
498.668600695481
 10
459.73601394969205
 20
496.58606431688577
 10
460.53902326918956
 20
495.44721745915786
 10
462.53458421477785
 20
491.0242758121749
 10
463.658341813323
 20
486.17538894043173
 10
464.5430770475134
 20
484.4649863535783
 10
465.8335333454545
 20
483.12116673180435
 10
468.71128185554767
 20
480.75163089245143
 10
470.9309038648123
 20
476.9073304625176
 10
470.815351099948
 20
474.2054094213804
 10
469.36438349048626
 20
467.6065146074184
 10
465.84291381902517
 20
458.464511650398
 10
465.56320577924885
 20
458.30348739666215
 10
458.85932426644354
 20
454.01524991601764
 10
453.99240094812444
 20
449.07618218671223
 10
453.99240094812444
 20
442.6109146887343
 10
454.4580813286691
 20
439.82692137606136
 10
451.9057042472134
 20
436.43608237064745
 10
449.1468239854096
 20
430.54463169448354
 10
444.9278099643145
 20
425.6204520301185
 10
441.3549518869952
 20
421.27747253792995
 10
437.9607509978698
 20
417.1516593836336
 10
434.77882489710805
 20
412.01741120044517
 10
430.97852597350425
 20
408.27762509495733
 10
424.165960858855
 20
402.9590435428304
 10
424.00700664830015
 20
402.82894239092184
 10
423.91622199476774
 20
402.74825989685405
 10
417.0358967552231
 20
396.47490063383793
 10
413.1754223436549
 20
393.48723479749015
 10
410.06818078794254
 20
390.3108828404138
 10
403.33161817670657
 20
384.5396415150899
 10
403.09602830171866
 20
384.3223140856635
 10
402.98387839081556
 20
384.2264476511832
 10
396.1237543218888
 20
378.0125823711346
 10
392.1980101877318
 20
374.9604426416886
 10
389.14624939063356
 20
373.0878446794309
 10
386.09890925954096
 20
370.9093400505476
 10
382.18306302053315
 20
367.9167280648371
 10
379.89437054117116
 20
365.70998964474575
 10
375.2152985584437
 20
360.3072888409033
 10
370.2645268296815
 20
356.44220852416584
 10
368.2378118088732
 20
354.81576281804337
 10
365.63158539705796
 20
352.9791271818799
 10
361.2707269767777
 20
349.64956815726237
 10
358.67692569362043
 20
347.1859547313993
 10
354.2999063043276
 20
343.04766932689654
 10
347.55361565117414
 20
337.9204028819072
 10
347.32343963509175
 20
337.7409481031191
 10
347.0728945555288
 20
337.58702764663803
 10
340.3506270387113
 20
333.13157327828367
 10
333.49110709086654
 20
328.80446660740563
 10
333.38133592393706
 20
328.7353889968922
 10
333.2781267438115
 20
328.66021748346566
 10
326.416739306557
 20
322.87633586160337
 10
322.2653396167543
 20
319.4048377833815
 10
319.45258933143805
 20
316.19819226916616
 10
313.3812896362979
 20
310.14199991432224
 10
312.4799488995843
 20
309.42618498702177
 10
306.3536320116484
 20
302.00479569498475
 10
305.51227208641853
 20
300.97100425152985
 10
305.43145011542106
 20
300.8895919756642
 10
304.67917968320694
 20
299.7803040923227
 10
299.0747372210917
 20
291.6361070634939
 10
298.5481530102304
 20
290.7720729314374
 10
292.4115423069211
 20
282.3766290576996
 10
291.58174414376435
 20
280.7893856894152
 10
287.69709576301534
 20
273.1199092717534
 10
284.6088955450125
 20
267.8309150014502
 10
282.22569829612667
 20
263.86377795266617
 10
280.38281667341107
 20
258.2470832539325
 10
278.9039053504921
 20
254.61984685064317
 10
278.9039053504921
 20
247.0344063061366
 10
278.5769958324395
 20
245.34622453766997
 10
277.62908055902176
 20
243.8143230148503
 10
275.2736323632423
 20
242.20186136812845
 10
270.65913190609353
 20
239.56004958218
 10
268.83116385134963
 20
236.0917893087385
 10
268.58643296012406
 20
233.33616132925863
 10
269.50126210496387
 20
226.85419410869372
 10
269.3141097609448
 20
225.05279417884412
 10
270.67330524710997
 20
222.39815255977965
 10
271.6194100511025
 20
218.89010235893193
 10
272.7882082944236
 20
217.62570878865108
 10
273.5313604122084
 20
212.1352682068282
 10
274.2113831093686
 20
208.36520562475653
 10
276.0498628113162
 20
206.24518742913597
 10
277.0646201154309
 20
199.08569689733622
 10
277.211309556935
 20
198.51416023734782
 10
277.6453186811045
 20
197.1047376404058
 10
279.2353343867039
 20
191.941312244644
 10
279.72701410125114
 20
189.8183879900448
 10
279.6022485955509
 20
183.13883575179625
 10
279.1978462366292
 20
180.5516695319866
 10
280.36392369411055
 20
174.90198548389162
 10
280.1984193926769
 20
171.29313978700975
 10
280.9319461363025
 20
166.39890623248812
 10
281.2015568454615
 20
162.01876674016603
 10
278.4760977973276
 20
153.8583977430244
 10
278.64013804872025
 20
152.8202435301946
 10
283.1322889019816
 20
150.84443935057288
 10
283.38699989988095
 20
143.53308095377906
 10
283.9790719613136
 20
142.71934676159844
 10
284.5995678391282
 20
141.8438629098896
 10
288.1315451093001
 20
138.9881846985836
 10
291.16208268373043
 20
134.28892217952216
 10
291.36317692165994
 20
134.00508831139814
 10
291.56986842718425
 20
133.69035536146112
 10
295.8323419244323
 20
130.7009190507997
 10
298.54416868255475
 20
126.38824798703808
 10
299.1516681673388
 20
125.81446683112654
 10
299.2732772064105
 20
125.01487496389836
 10
302.26763446755695
 20
120.71492084086685
 10
305.5111896776448
 20
116.6424913221922
 10
305.9122077984491
 20
116.28198572758538
 10
306.043845908418
 20
115.73870172770376
 10
306.8558014962614
 20
108.23698935282573
 10
307.2026451616439
 20
106.48093236346222
 10
308.4541287948168
 20
101.10533508257276
 10
309.21743997819226
 20
97.21136196812267
 10
309.1592961421736
 20
92.76035930407807
 10
308.80070244087347
 20
87.93492904254117
 10
307.7280494748636
 20
81.58806738851035
 10
306.9762871406642
 20
78.67449816449198
 10
307.0930260483444
 20
71.49231467544905
 10
306.78293460051555
 20
69.40821246205223
 10
305.52651010440036
 20
64.34439195357436
 10
302.9783616289262
 20
60.115606016367565
 10
298.5390291816616
 20
55.69660441186306
 10
293.8061372838051
 20
50.85198694428709
 10
291.5735672239027
 20
48.034136444094656
 10
286.3466122770999
 20
41.59379158243382
 10
284.60271578696984
 20
39.44506971626606
 10
278.8876073630722
 20
32.331037114822266
 10
277.62729994098595
 20
31.005036358979396
 10
273.64767477845317
 20
27.04115226715794
 10
270.64407691087945
 20
23.938778846566038
 10
267.9661514150878
 20
23.048573358204976
 10
263.6591982288687
 20
21.6686291086653
 10
262.0927474076075
 20
20.962400296018586
 10
256.68902928777175
 20
17.86824605137508
 10
251.98984448300712
 20
16.81237528487236
 10
249.71487297507542
 20
15.924364183259058
 10
242.87655509131628
 20
13.96530776921054
 10
242.73759636970908
 20
13.91658886139885
 10
241.72805272593337
 20
13.78485157033765
 10
235.74599797030828
 20
13.040369277502123
 10
235.2519278861364
 20
13.148160150530657
 10
232.73786226977109
 20
13.786445973558784
 10
229.36887942495468
 20
14.599092182607365
 10
228.74967041043396
 20
14.812080981737836
 10
224.23179326100262
 20
17.071181153576163
 10
221.76624491091275
 20
19.14506495676369
 10
219.6415807590106
 20
20.23929431444185
 10
216.7698921217218
 20
23.062420870348888
 10
215.48622403535956
 20
23.9909250709793
 10
214.7863138288849
 20
24.725012805871756
 10
211.2416113452
 20
27.622423291057203
 10
207.81077401846642
 20
32.01997932345739
 10
207.67108182487527
 20
32.15519084117477
 10
207.572149694259
 20
32.339094981841754
 10
204.1224863913949
 20
36.703374131622695
 10
200.8585386295415
 20
41.59517083422861
 10
200.8484835870754
 20
41.606528489600805
 10
200.84138547831117
 20
41.61559450037839
 10
196.6302123369494
 20
45.26778806775519
 10
193.85925096203778
 20
50.7813572644186
 10
193.8353159965593
 20
50.8227440419023
 10
193.80775122633736
 20
50.857929919838625
 10
190.59136442901809
 20
55.79324072506688
 10
189.34559383077385
 20
60.1352434859059
 10
188.3801833539278
 20
62.11365030410934
 10
186.88830636872353
 20
65.29399727405234
 10
185.5242112217286
 20
67.56767540949068
 10
184.35629773437063
 20
69.38885977615155
 10
182.86302979319316
 20
73.31525667954611
 10
180.95330246775893
 20
78.64914015090608
 10
180.46244575863352
 20
79.3708452935607
 10
179.9156388634865
 20
80.65097677020549
 10
177.7746550425734
 20
85.05652280333561
 10
175.74604058806472
 20
87.89913761329035
 10
174.3223020595974
 20
89.72793006817574
 10
172.9464422261558
 20
92.5144374036422
 10
171.4988508865631
 20
95.24052231999258
 10
170.24280538912967
 20
97.16591761591008
 10
168.43300355513975
 20
100.44009621128089
 10
166.23583598616483
 20
106.44692208616561
 10
166.19382521301168
 20
106.75001018860394
 10
165.9697663904235
 20
107.65775336941442
 10
164.43537304672282
 20
113.62453125006778
 10
160.43930663790184
 20
115.65757581217258
 10
159.37892549980688
 20
116.09436258614232
 10
159.0608903234497
 20
116.17822120299297
 10
152.6536388685447
 20
116.38535692192909
 10
152.10710546942255
 20
116.37368915193929
 10
146.93977576875523
 20
115.65160898255272
 10
145.14189399278757
 20
115.36282331196753
 10
144.89735061972488
 20
115.32627129434377
 10
138.17568070299876
 20
114.16501347052372
 10
136.78513027354666
 20
113.79858476713252
 10
131.21457407732305
 20
111.83405781704641
 10
127.21252908152428
 20
110.34246723106435
 10
124.23056751064746
 20
109.67013228962469
 10
119.29254414880461
 20
109.14486494645053
 10
117.18714130541844
 20
111.6178366482768
 10
115.79195922912618
 20
113.80836494694859
 10
112.72995236029215
 20
115.66092833454059
 10
110.98325018940409
 20
116.63543540502815
 10
110.24214100486279
 20
116.88038912661932
 10
106.34008125102673
 20
119.73975840419644
 10
103.269736131213
 20
121.018381364564
 10
101.3535180517672
 20
122.37124075538668
 10
96.30446285170706
 20
124.16600001585311
 10
95.90690185176254
 20
124.38796607714494
 10
94.2867213595739
 20
124.91586876913607
 10
90.50261247921117
 20
126.45867537554477
 10
89.33560771304883
 20
126.77531621486833
 10
85.45472330439475
 20
129.03976499737246
 10
82.35409373597554
 20
130.98565088457462
 10
80.71918822876091
 20
132.0238259784578
 10
78.40873933875082
 20
134.21094463264944
 10
77.9742904824152
 20
137.713760815941
 10
75.59181142803118
 20
143.51069443158758
 10
76.11629822652799
 20
144.55116006495973
 10
80.68038480286623
 20
152.78785195251658
 10
80.7583463193555
 20
159.95012713308415
 10
80.45157558908295
 20
162.01203209390587
 10
78.97724452051648
 20
166.7896753910868
 10
75.37195843978657
 20
169.43943451664245
 10
74.65522929957433
 20
170.28256889286968
 10
73.38813349522025
 20
171.2370567196267
 10
71.03947000670564
 20
174.76603286286445
 10
68.38876220722636
 20
178.59172901598504
 10
67.80052811367887
 20
179.67597273437514
 10
61.45503072486099
 20
180.38763750933504
 10
61.40771914533343
 20
180.42014779819192
 10
61.08179385740664
 20
180.48535063584723
 10
59.28790548392817
 20
187.00999960923536
 10
60.727442898222534
 20
189.83849836949912
 10
61.4149077349241
 20
192.13477310176995
 10
67.57013178958391
 20
199.11455873449495
 10
68.3834008562219
 20
200.58172873627518
 10
70.79749080097963
 20
208.34443860560668
 10
70.92825713003754
 20
211.70842405847816
 10
68.70193893554756
 20
217.6017919728556
 10
71.37655789907808
 20
221.60104740163797
 10
74.96429257693785
 20
226.8969601150693
 10
75.37872413239393
 20
227.42806284158542
 10
75.89682879011275
 20
227.58962354032246
 10
82.33815069315756
 20
230.97783139720832
 10
84.96690337970836
 20
236.12762805920556
 10
84.63943825512229
 20
239.17278146472836
 10
82.33949364064324
 20
243.98103626199418
 10
81.52405903865679
 20
244.28754593230087
 10
81.77482882752292
 20
245.3811880673461
 10
81.49141334267233
 20
253.52592054802835
 10
81.27390318455286
 20
254.62067987873388
 10
80.1426160554879
 20
260.9880395826058
 10
79.56299157097874
 20
263.8945233020859
 10
80.90867946245044
 20
271.29556594660835
 10
81.37267769798791
 20
273.17072445264193
 10
82.31985870899234
 20
279.12021014623133
 10
82.72801758212381
 20
282.41475478665325
 10
82.65635915014332
 20
282.84390844366635
 10
82.32303152318195
 20
283.8692712860734
 10
80.47581670927298
 20
289.1941797670602
 10
79.41518862180942
 20
291.6511535269692
 10
78.25190390945818
 20
295.5147499279483
 10
77.35281482116125
 20
300.92952477419976
 10
77.23376257075074
 20
303.43907271715534
 10
77.01350175044831
 20
310.1973961604649
 10
77.04502479086977
 20
312.45371002967977
 10
77.26759986505272
 20
319.4517502402973
 10
76.83870252959423
 20
321.4183001474644
 10
75.35156641190815
 20
327.1178501637569
 10
74.97961604074885
 20
328.2049584765714
 10
74.8637433774536
 20
328.70649092268013
 10
74.00177331587156
 20
336.16810832791225
 10
73.19393324575458
 20
337.95274830312974
 10
71.74620747561744
 20
342.43019488901655
 10
70.53165113756859
 20
347.2092536181931
 10
69.51499989351669
 20
348.7148008291597
 10
68.38068928899725
 20
353.89282674713877
 10
67.72152683000877
 20
355.60474074602325
 10
67.55281353720216
 20
356.4548165167448
 10
63.408314655527874
 20
359.0731004384197
 10
61.428365425917036
 20
361.74193675714423
 10
59.505223304960964
 20
363.1767290506723
 10
58.76479634807947
 20
365.7304679248987
 10
56.7924285635313
 20
368.8402385535255
 10
54.44964850084307
 20
373.20812248178026
 10
53.72149742726947
 20
374.0072431063536
 10
53.11176468743315
 20
374.9878071094113
 10
51.108268935558954
 20
379.8207758335343
 10
48.83644214934452
 20
384.25509373879686
 10
48.4600304986011
 20
385.5724818127651
 10
47.47065013551082
 20
387.8103442035208
 10
46.14690572089148
 20
391.75139151950225
 10
45.09668574771558
 20
393.5166753903327
 10
44.202955213033874
 20
398.447614829508
 10
42.72002547201009
 20
402.7760284013161
 10
41.87565293009038
 20
404.60110218760155
 10
40.499124443814026
 20
408.1587944658768
 10
39.63714564595193
 20
410.9001804272343
 10
39.33366759344699
 20
412.04343865489136
 10
37.59421131952513
 20
417.4485336563448
 10
36.74201911376076
 20
421.30959159481927
 10
36.06155294619498
 20
424.6683481791738
 10
33.530819365980506
 20
430.2103482128564
 10
33.43362007229371
 20
430.43086739392766
 10
33.386326826633876
 20
430.5662185577421
 10
32.01116312812201
 20
437.82034174575347
 10
31.625486348827963
 20
439.83000993434325
 10
30.34884585307782
 20
444.86813137212494
 10
29.392574277174845
 20
449.085940024107
 10
28.479988516072808
 20
451.63993795554734
 10
26.753217631100824
 20
458.34556782055097
 10
26.689003887967374
 20
458.5248344738093
 10
26.555606713937095
 20
459.24437345366005
 10
24.71416612611847
 20
465.16720468879294
 10
24.42988647589391
 20
467.60650904818567
 10
22.504777078952657
 20
471.48207724306894
 10
21.536160370979587
 20
476.874455862338
 10
21.113266345788816
 20
478.9062511960228
 10
19.886108703672562
 20
486.13728269557305
 10
19.834917060296448
 20
486.4682951565187
 10
19.584827276717533
 20
487.5572099388296
 10
18.16144046443219
 20
493.51075072674394
 10
18.08683890772045
 20
495.40309307859934
 10
17.220593896710398
 20
501.51724167360635
 10
16.525228888592437
 20
504.65811545378165
 10
16.02071078788913
 20
509.1883399424414
 10
15.334583970105996
 20
513.9213255127725
 10
14.975516010440515
 20
517.0628164342547
 10
14.455827491601895
 20
523.1889809758004
 10
14.48946731554338
 20
525.6880787517384
 10
14.843397313940386
 20
532.4546974411519
 10
14.8857891981811
 20
535.4752518224504
 10
15.217451903516121
 20
541.7139391001015
 10
15.132571465797128
 20
545.0597570275713
 10
15.048090237407678
 20
550.9714924287714
 10
14.930668641233979
 20
554.0521612404141
 10
14.93066333907177
 20
560.2304953116068
 10
14.673174122722912
 20
562.9671376959568
 10
14.453388925036279
 20
569.4908296087356
 10
14.304433355453739
 20
571.736672908527
 10
13.682173072073738
 20
578.7535160126881
 10
13.750889665243676
 20
580.2662525806368
 10
13.00703867248717
 20
588.0116145671404
 10
13.000292067099736
 20
588.5314121915344
 10
13.131554570463322
 20
597.280821578745
 10
13.214657568939401
 20
598.0815812944847
 10
13.45103993759949
 20
606.5444737374846
 10
13.705132821961115
 20
608.0000360536501
 10
14.97423354541138
 20
615.8089617556684
 10
15.546683876763154
 20
619.7075079946112
 10
16.631015020394898
 20
625.0725829296939
 10
17.97884831723013
 20
632.1981852533527
 10
18.236639762083996
 20
634.3356325679661
 10
19.58630261345479
 20
638.2545468761255
 10
21.12332183211879
 20
643.6049114387715
 10
23.300388242447752
 20
648.5391669537676
 10
24.972029314890506
 20
652.8738020244564
 10
26.56596604029778
 20
655.3815332697654
 10
31.2076977116908
 20
662.1439083826544
 10
33.537439790669396
 20
665.3037224258405
 10
37.45294949550157
 20
671.4087446848584
 10
40.51953890814934
 20
674.3885218868136
 10
46.6727551313204
 20
679.5895193356355
 10
47.491752525739685
 20
680.2196927712134
 10
47.97119202407498
 20
680.6769798310675
 10
54.460600123144104
 20
686.3294242557076
 10
58.18746264785409
 20
689.9370672191894
 10
61.434165950758825
 20
692.8290028137017
 10
66.60590499829527
 20
696.8086200163843
 10
68.41303325472745
 20
698.0625568569835
 10
70.47867537320735
 20
699.2115842305602
 10
75.39996032606791
 20
700.8937562693827
 10
77.06328089731505
 20
701.4212798914414
 10
82.36826067324137
 20
702.8399744873914
 10
86.59705359172312
 20
704.8307443142353
 10
89.3427172470922
 20
705.4951275691315
 10
95.95633323470952
 20
707.9833226510045
 10
96.34662776251093
 20
707.8779823750137
 10
102.71445309160549
 20
707.6777688428042
 10
103.32985352545552
 20
707.5198979653401
 10
108.10852251175106
 20
705.5642996069928
 10
110.29649643724179
 20
705.0678704835873
 10
113.85442166698158
 20
703.9494052922528
 10
117.25670496824569
 20
703.6184946153135
 10
120.24433383605356
 20
703.1790555499215
 10
124.23892988933994
 20
702.2461125374994
 10
126.0632225689817
 20
701.6276258698927
 10
131.2274555200579
 20
699.3590604471024
 10
131.30470343811407
 20
699.2998307392531
 10
131.45153588570565
 20
699.203038476524
 10
135.59561149363822
 20
695.7321623009975
 10
138.21580407042393
 20
693.6975444284026
 10
139.5283089850841
 20
691.6632546151236
 10
140.91967825909796
 20
689.9274092447868
 10
142.99801016300376
 20
687.0233906819908
 10
145.18837845359872
 20
684.957949366466
 10
146.69015290583775
 20
682.6498869919478
 10
147.93046353115324
 20
680.6580222684593
 10
149.6070128370866
 20
677.2548648077454
 10
152.1671784188802
 20
672.6853600632412
 10
152.55978571233868
 20
671.9220224361588
 10
152.90245383296406
 20
671.4005524989093
 10
155.62973270543898
 20
666.7444781875006
 10
158.81557513285634
 20
662.138639522479
 10
158.944210867631
 20
661.8798026908385
 10
159.13694884915117
 20
661.5624028793841
 10
161.85342909750852
 20
656.4874880874022
 10
164.18803176818005
 20
652.8775223131252
 10
164.97037988680472
 20
651.3627090289929
 10
166.10750077114244
 20
649.2769715821237
 10
168.0083562981306
 20
646.1490895022012
 10
169.8163300740464
 20
643.6220995664548
 10
171.35233067401964
 20
641.3447961666056
 10
173.06554969975264
 20
639.7029893521576
 10
175.3595068640334
 20
637.4293332150787
 10
179.69350935674424
 20
634.3804553073019
 10
179.9132864786418
 20
634.2314204516865
 10
180.02533579986402
 20
634.1562889782826
 10
184.58948161509306
 20
631.1646727921852
 10
187.01125380370968
 20
628.1061971627928
 10
188.26219150535053
 20
626.7931127541187
 10
191.205042141567
 20
625.1230733751913
 10
193.11731100314887
 20
623.9910780436435
 10
193.96726892828246
 20
623.3378694696976
  0
LWPOLYLINE
  5
8F
330
17
100
AcDbEntity
  8
CORTE
100
AcDbPolyline
 90
504
 70
1
 10
32.96504041100184
 20
477.4405466716021
 10
34.97903387771248
 20
472.30554043819984
 10
35.904013901126746
 20
469.2755429878698
 10
36.74979853245782
 20
464.71341477768965
 10
38.29380033897087
 20
460.40299736590487
 10
38.78701031142987
 20
458.4876978031084
 10
40.21296967129797
 20
454.496952592463
 10
40.85508307099053
 20
452.1196619278485
 10
41.2619345001001
 20
451.04729214485496
 10
42.62054909352037
 20
444.4646617885701
 10
43.461822731108214
 20
441.30132179766406
 10
44.07405157797416
 20
437.5773274665776
 10
45.884958234449186
 20
433.40193319586433
 10
46.569522993162536
 20
431.90281928458126
 10
47.34734529690172
 20
428.06351630573226
 10
47.98006887270412
 20
425.1522760819107
 10
48.343028273961636
 20
424.56704100185243
 10
50.60277868564799
 20
419.4618408725987
 10
52.4256568199105
 20
414.5103922905155
 10
52.866107248160006
 20
413.37203075047546
 10
53.87817598522406
 20
411.184489078722
 10
55.549369367062354
 20
407.2002633496536
 10
56.42256525374842
 20
404.46579969734375
 10
57.36980361916471
 20
399.0915297070387
 10
58.22532229761828
 20
395.8386005673251
 10
59.24747866124335
 20
393.5266027058724
 10
61.17118795221518
 20
386.79388953744865
 10
61.353047052197326
 20
386.1540795642677
 10
63.69235645552476
 20
379.9385377120889
 10
64.05966782340738
 20
377.18602582898757
 10
65.05950944013489
 20
375.32191907903825
 10
67.16563247579643
 20
372.0012607272415
 10
68.01303731465305
 20
370.89527905814066
 10
68.78039679208428
 20
369.70429393757377
 10
70.53968900331688
 20
367.33288820738244
 10
72.44141621953372
 20
366.13147352836086
 10
74.98601403042994
 20
364.14659243751294
 10
79.06582109999613
 20
359.88330589394354
 10
79.8084287393117
 20
356.4933687921093
 10
81.6214012485434
 20
353.8085585183767
 10
82.65318000877028
 20
351.05236599859745
 10
83.44456418218897
 20
349.36953116811674
 10
84.56437023289322
 20
343.216609097884
 10
86.01061671213415
 20
339.7278709940406
 10
86.57480331650117
 20
334.72309362030273
 10
86.57479892665992
 20
329.6078398603199
 10
87.09228387732696
 20
327.62454369534316
 10
88.73422442550645
 20
320.0960333371604
 10
88.6820593071186
 20
318.455896419739
 10
88.56758971631461
 20
310.2625457187669
 10
88.59192129897497
 20
309.51597306330314
 10
88.95192410950881
 20
301.9273360613288
 10
89.12551567646074
 20
301.35078954077835
 10
90.23593598735442
 20
295.636626310049
 10
90.89781542454466
 20
294.3732845033719
 10
92.70754531800571
 20
288.80629983887275
 10
93.74986801741261
 20
282.5639556251249
 10
93.10214595970524
 20
277.3357237424484
 10
92.35459633938717
 20
272.2383353938926
 10
91.7039699571194
 20
266.84767977542697
 10
91.85448342486029
 20
264.67254626941485
 10
92.58837627551725
 20
259.99681780057017
 10
93.15001761072244
 20
255.1572705930862
 10
93.28609759179517
 20
251.32058998707544
 10
93.88341799515933
 20
247.43883896868056
 10
94.7964457857172
 20
245.53006680680028
 10
95.95004528465643
 20
234.80255056444093
 10
93.98235105286335
 20
230.94778505585418
 10
90.8685301333569
 20
224.14365175220837
 10
88.23099285146623
 20
217.4311336522369
 10
84.58977090211988
 20
214.20619709137645
 10
84.04660191448806
 20
208.76131605471892
 10
82.35839523424625
 20
205.6010367642134
 10
81.98347944231705
 20
204.45730943951003
 10
79.14526415910768
 20
196.32263282644453
 10
76.1630621302063
 20
190.57117176234715
 10
78.41079651940731
 20
188.1490566087491
 10
79.08535984378614
 20
183.12339958257235
 10
79.60093781289947
 20
182.37927959565513
 10
81.21501045043738
 20
179.95406037664907
 10
82.50988824756632
 20
177.94864711168884
 10
83.90933393001364
 20
176.58312391091158
 10
87.27745878386645
 20
174.10766998918007
 10
88.99852262088734
 20
168.5304768605315
 10
90.02987073169584
 20
165.330241223131
 10
90.69096716666922
 20
162.9141361983634
 10
90.56790978570689
 20
153.58391495968044
 10
89.91725094030016
 20
150.8489376568541
 10
88.79565544176126
 20
147.54668693006442
 10
86.61190466015705
 20
143.21460908440577
 10
86.95966617026534
 20
142.3684524793921
 10
87.49214589407484
 20
138.07524611773533
 10
90.12797209542327
 20
136.42106044571483
 10
92.06299167492921
 20
135.29200008999715
 10
94.00125742037108
 20
134.76609470360563
 10
98.6032219221106
 20
132.88984286725236
 10
99.48213488073361
 20
132.63796659000036
 10
102.30674893223386
 20
131.44343774747676
 10
105.78165763891502
 20
130.20823148938007
 10
106.6749899140516
 20
129.5775345084321
 10
111.17536982235947
 20
127.70338393037264
 10
113.4882385451092
 20
126.00854935937514
 10
115.51725256494501
 20
125.33791331048178
 10
120.36886730597985
 20
122.63113653581559
 10
121.49639219177357
 20
122.12033313985967
 10
123.22233066366152
 20
120.55598285695896
 10
124.21124990767885
 20
119.39441450744835
 10
127.52571336900678
 20
120.141717765458
 10
128.82799725547784
 20
120.6270882166591
 10
133.7081777988867
 20
122.34814547936276
 10
136.1647718025274
 20
123.00048621853102
 10
137.1982332545167
 20
123.34820667702797
 10
143.88421490755604
 20
124.30097515393754
 10
145.4844183973271
 20
124.65889590054394
 10
151.5460861993554
 20
125.5059504464707
 10
154.3312241422775
 20
125.56540948220481
 10
160.0792367843551
 20
125.37958585105025
 10
163.01518788494081
 20
124.60544255892864
 10
169.43033107079282
 20
121.96294959480747
 10
171.35527214487252
 20
120.57695607390269
 10
172.65139138979703
 20
118.3506177149934
 10
174.66699569078924
 20
110.18467701109557
 10
174.94915948212793
 20
108.14899707295763
 10
176.08790581858602
 20
105.03578392738109
 10
178.44237439439758
 20
100.77622883708773
 10
178.71058319041754
 20
100.36509090041636
 10
179.17729663550563
 20
99.48618229678232
 10
181.41054836529725
 20
94.96321260484638
 10
183.65194812679056
 20
92.08413411519314
 10
184.99073429860232
 20
90.20814758118377
 10
186.28603067341078
 20
87.54278983769018
 10
187.71885719702095
 20
84.18839480403994
 10
189.31037872730917
 20
81.84838548624884
 10
190.83121655886384
 20
77.60067343630772
 10
192.76512262411688
 20
72.51566318685582
 10
193.07428790797917
 20
72.00034550707142
 10
195.68042386294883
 20
66.44464844233335
 10
197.5298930329393
 20
62.6545482686538
 10
198.2062676784326
 20
60.29711538154652
 10
199.96779486019932
 20
57.594180479214174
 10
201.10329451252483
 20
55.24566271168533
 10
201.7236663117137
 20
54.009870511348254
 10
203.25383958698876
 20
50.96518128814205
 10
205.9372473855276
 20
48.637961681754405
 10
207.06488846333286
 20
47.197689842520504
 10
208.2335527653629
 20
45.877627154293805
 10
210.75222649876946
 20
42.102799625491116
 10
213.37275909802884
 20
38.787480192787825
 10
214.04274944931808
 20
37.87768105796113
 10
214.9781078588437
 20
36.85805375573773
 10
217.29185219093802
 20
33.89235781155776
 10
219.55279361232715
 20
32.0442829982635
 10
221.02388425238883
 20
30.501357083203857
 10
223.89505618815542
 20
28.424577866353047
 10
224.89466042789786
 20
27.441877570098313
 10
225.6703805898685
 20
27.042371712284876
 10
229.04117005087414
 20
24.207048824830963
 10
231.46531635203792
 20
22.994888966475628
 10
232.3574606650884
 20
22.68801884438244
 10
235.93804953991526
 20
21.824330274472686
 10
241.10926654849345
 20
22.499132324287075
 10
242.52774918004548
 20
22.996452130918897
 10
247.47343369772057
 20
24.413302757185647
 10
251.90959037242078
 20
26.144909663862563
 10
254.12570787034065
 20
26.642854260299373
 10
258.5532992846447
 20
29.178081017932527
 10
260.3169247758815
 20
30.122748165937537
 10
262.0287699184596
 20
31.072826167780022
 10
266.8080991140548
 20
32.661587724921446
 10
271.0344257555623
 20
37.02690026589289
 10
272.21692611757067
 20
38.42867926970348
 10
278.1121841778747
 20
45.83479167251153
 10
279.04654571979245
 20
47.12071775380082
 10
285.71722783594055
 20
55.375325617658746
 10
286.46467605399084
 20
56.21962259725933
 10
288.3595934380437
 20
58.12253118106082
 10
293.5660259632332
 20
63.45186776842456
 10
294.58657329206403
 20
64.46774128930883
 10
298.60795038510173
 20
71.14142732562868
 10
298.5331561825317
 20
75.74302671908617
 10
298.4253573506055
 20
79.27390865663847
 10
298.6156402238016
 20
80.08311821822872
 10
298.63318381212366
 20
80.18179898408607
 10
300.0862222287087
 20
88.77939214822527
 10
300.2121920408463
 20
90.47450988544188
 10
300.2919104473808
 20
96.5770800658106
 10
300.08789644139074
 20
97.61784177820255
 10
298.6877446756032
 20
103.6320251246666
 10
298.47595753168775
 20
104.68693098431686
 10
298.33294955961514
 20
105.28244530051143
 10
297.57709779279276
 20
112.32861823155554
 10
295.4755511225046
 20
114.96720464079499
 10
292.87603366865505
 20
118.7001612717927
 10
292.30228563618107
 20
119.4623830786386
 10
291.1023123622931
 20
120.79085467638106
 10
289.19057244372766
 20
123.83113201103833
 10
286.4539787418264
 20
125.75041023887297
 10
284.5355177914571
 20
128.6716859474077
 10
283.33454267468846
 20
130.36679872847662
 10
281.76533415349695
 20
132.80007091438983
 10
279.44717615415834
 20
134.67435061176593
 10
277.44134353975915
 20
137.50446459950354
 10
274.7906119707616
 20
141.14758686872074
 10
274.6884600787512
 20
144.07980848285706
 10
273.0046006190753
 20
144.82042843686122
 10
270.7855516859547
 20
148.00460656056475
 10
268.83005160704874
 20
151.69710134240677
 10
270.8648512336008
 20
162.02815198166263
 10
271.11555332789885
 20
162.7787857507633
 10
270.7312883158388
 20
165.34267688656246
 10
270.1406817312143
 20
168.98468435098675
 10
269.93055334080236
 20
169.78225382565688
 10
268.9076931600507
 20
175.37750238489207
 10
266.95790861494424
 20
178.75692678126643
 10
267.07843853083295
 20
185.06566436857247
 10
267.0052818205911
 20
188.70042911366454
 10
266.2827066323764
 20
191.0469553536559
 10
264.78912638891916
 20
196.86629623473755
 10
261.5000047122089
 20
201.02616652589995
 10
259.46126242161745
 20
206.84509066658438
 10
259.2566044712912
 20
209.05344847548758
 10
257.4651778590978
 20
211.70228472883764
 10
256.2073169844141
 20
214.91223279348105
 10
255.8515250660962
 20
217.4196559009606
 10
256.7319907036749
 20
227.019853367648
 10
256.7687289219691
 20
227.48735444708745
 10
257.71228742862877
 20
238.11166185757884
 10
260.2327732964827
 20
242.89385757624268
 10
262.3290702435304
 20
247.7441709352929
 10
264.0225957185305
 20
253.43129836583785
 10
265.28653462651255
 20
256.92952057952516
 10
266.37073043175224
 20
260.1068405860028
 10
269.40094124411394
 20
267.0155592208721
 10
271.6265237438781
 20
270.9017857217905
 10
275.090298659215
 20
276.4729830857136
 10
278.3326510947097
 20
283.34209176220565
 10
279.58073783026225
 20
285.7671222623817
 10
283.75218509571164
 20
292.81635586560014
 10
285.45375905907895
 20
295.6083335539706
 10
286.0667009057104
 20
296.40136446652514
 10
292.29123831277616
 20
304.21726116040236
 10
292.92094848521447
 20
304.9934610438504
 10
293.16840051467693
 20
305.35835048551553
 10
300.3011546419773
 20
312.5432005890666
 10
301.891123638964
 20
314.4968191239582
 10
307.12120663091605
 20
321.2898081740809
 10
309.8229774548929
 20
324.2378194916223
 10
314.64115874225945
 20
329.09726778015374
 10
320.1407743867944
 20
333.956973092887
 10
322.089107198276
 20
335.60670086618984
 10
324.6829649869553
 20
337.49248699722193
 10
329.4521215035463
 20
340.9660608855802
 10
333.89031287554894
 20
343.75895872527144
 10
336.05776268091154
 20
345.2612923933975
 10
339.7569524353437
 20
348.4663009091764
 10
343.17557208411563
 20
351.249874212378
 10
345.8557581220764
 20
353.02061330254855
 10
350.0272713522604
 20
355.7692675130638
 10
356.4036994286341
 20
361.42425228578895
 10
356.72324183047976
 20
361.7277562420986
 10
357.0555400789035
 20
361.9814692786763
 10
363.88674585450485
 20
367.31993170862415
 10
368.3436329132144
 20
370.9143149953675
 10
370.51555841020104
 20
373.0973766012612
 10
374.7959440502816
 20
376.5659965865998
 10
377.6134552805738
 20
379.28261768663424
 10
378.9910200655977
 20
380.33539571598703
 10
384.5222417518203
 20
385.41005185661743
 10
389.51342872769897
 20
389.64451650820047
 10
391.5782710422834
 20
391.27148297941994
 10
395.7008968345574
 20
395.07385302328885
 10
398.4470281091815
 20
397.4212629480412
 10
399.7644228454144
 20
398.63653593708614
 10
405.66811316330063
 20
404.0680196819085
 10
411.7657466699163
 20
408.3349659873129
 10
412.75165128319964
 20
409.13629531725155
 10
414.0614164692431
 20
410.09816833427067
 10
419.4632329035164
 20
414.89889186468145
 10
421.451680747665
 20
416.5264005297913
 10
424.86886515158926
 20
423.06747056188715
 10
426.02808255865625
 20
425.0463117186209
 10
432.3771840795059
 20
434.2512978911391
 10
432.38506618297083
 20
434.26076516204466
 10
432.69989340903953
 20
434.9808831431742
 10
436.72058064924863
 20
442.5729457243715
 10
438.25449133915185
 20
447.2118676898426
 10
439.5064893845008
 20
451.53912962893355
 10
441.61353717896077
 20
456.08609867692576
 10
444.7060268894795
 20
462.13066772677485
 10
447.0112943326683
 20
465.0415713213638
 10
450.71894351753485
 20
467.7116410727631
 10
454.9097290749203
 20
470.1673680160702
 10
456.23155551597915
 20
471.2018935261931
 10
456.5252443805218
 20
475.0061631941526
 10
456.5402369422434
 20
475.0537444222732
 10
455.5682970104606
 20
476.0658762965563
 10
453.0953562341108
 20
480.8466560570396
 10
451.4775883977138
 20
482.5875844878524
 10
451.3701240655121
 20
484.9309651497274
 10
450.00571368259375
 20
489.2666310146369
 10
448.2456582928269
 20
492.15459222168374
 10
447.03951860361235
 20
494.7875379465663
 10
445.3843619297261
 20
498.99312979356
 10
444.6800530903863
 20
500.8372031886938
 10
442.1022270758838
 20
503.6531545706084
 10
439.5915920273885
 20
506.99635263836535
 10
438.4741023874301
 20
508.15258995319255
 10
437.49039352894465
 20
509.5674554200268
 10
435.3481025087942
 20
511.85949735294935
 10
433.7823166282567
 20
513.1794156459296
 10
432.07371270664567
 20
514.2743671793351
 10
428.7200910231297
 20
516.1758211985211
 10
428.7175436588029
 20
516.1761294093176
 10
427.54525033980804
 20
516.7523089345295
 10
423.1958636780853
 20
518.1461727263495
 10
422.13309314264484
 20
518.4345586093691
 10
416.9215957181193
 20
519.8683127516788
 10
414.6259507076263
 20
520.9911361737404
 10
411.2136872077251
 20
521.8147004893967
 10
406.98117490968
 20
524.343331897001
 10
405.53824776154556
 20
524.8953449691071
 10
403.2474890671108
 20
526.6291315341718
 10
400.2936959347346
 20
528.2578941653474
 10
398.80135405531496
 20
529.4985304627653
 10
395.70717302989783
 20
531.7317025863777
 10
392.3537032891452
 20
534.1520010447612
 10
391.4406007085065
 20
534.6596829080504
 10
389.73024194352706
 20
535.900450568759
 10
386.58157649947793
 20
537.727750471503
 10
384.84772629622034
 20
539.0592138286993
 10
381.60803305024
 20
541.6216569356388
 10
377.20423733889606
 20
545.537686861072
 10
376.76141311944934
 20
546.0453286261795
 10
376.64450323532355
 20
546.1714076903304
 10
373.26473463997695
 20
549.557328420583
 10
370.7495014408528
 20
551.660582581334
 10
369.0958104489009
 20
553.0136713304696
 10
367.13466129663584
 20
554.8434875290031
 10
365.3171587380018
 20
556.1204539615978
 10
364.1899089125927
 20
556.9372951011469
 10
360.770459768602
 20
559.304185376719
 10
357.3416375388956
 20
561.792234479889
 10
356.1288513813138
 20
562.5544958023338
 10
354.27771755163917
 20
564.1112918439253
 10
351.2433039696514
 20
566.4752515557716
 10
349.4595056213243
 20
568.3050629965032
 10
347.0314832497679
 20
570.4741445506647
 10
343.8999230898321
 20
573.630723969708
 10
340.09631077570816
 20
575.1010368825464
 10
338.129647766046
 20
575.7695564041637
 10
334.99307918714794
 20
576.784257209817
 10
331.86608673725095
 20
577.5408952429034
 10
329.8200143023121
 20
577.9369673357241
 10
325.31395340527365
 20
578.4940131436524
 10
322.91163100026574
 20
578.9376717448813
 10
317.87017908399844
 20
580.5486728800679
 10
317.74862488094163
 20
580.5650382747076
 10
314.5654063551194
 20
581.2390548842354
 10
311.6130231608249
 20
581.8562678764065
 10
311.596376980126
 20
581.8591452407591
 10
305.30976292590503
 20
582.2938007037251
 10
304.4241397946039
 20
582.4950351098905
 10
299.2991846958537
 20
582.8800899446701
 10
298.6183701957175
 20
582.9312395788047
 10
292.7945505401408
 20
582.2695956611797
 10
291.1621377279773
 20
582.2695956611797
 10
283.5550375104658
 20
583.0469733796399
 10
280.16139700487633
 20
585.1757164107858
 10
277.25010924775097
 20
588.1661715639966
 10
274.9213125863348
 20
589.7320605824052
 10
269.7533288218651
 20
589.924078178215
 10
268.6961644807734
 20
590.1471488877319
 10
267.11632204069383
 20
590.570237603958
 10
262.7623666281404
 20
591.6481730091432
 10
261.7079232461738
 20
591.917366213379
 10
256.1021182796019
 20
593.7312205663288
 10
254.58148400734058
 20
594.5381405114431
 10
252.16367167887097
 20
594.8080286820309
 10
248.02182961633684
 20
595.362118181823
 10
245.59290327037138
 20
596.2511822815504
 10
241.89238267668134
 20
596.5484315342192
 10
239.65927876980822
 20
596.9071972124748
 10
234.6284158575652
 20
597.5285660173026
 10
232.50835324403374
 20
597.9628546722906
 10
226.6035697784896
 20
599.9894655591406
 10
221.56285925272982
 20
601.4617459783794
 10
220.70816337712836
 20
601.5977659125997
 10
214.77191972638866
 20
602.5630264484589
 10
212.20170408952072
 20
603.798288291704
 10
209.2383365305477
 20
604.8182463754465
 10
205.22155786454346
 20
606.2114279050315
 10
204.00576800530348
 20
606.7966734269039
 10
199.13823600038768
 20
607.5986653478208
 10
197.93857185424713
 20
608.0335096397507
 10
193.39476181401506
 20
609.2631333712816
 10
191.19194374047493
 20
610.2732981979552
 10
190.04796846001136
 20
610.9445905516864
 10
186.05104129690767
 20
614.0163038861656
 10
182.86576589978222
 20
615.9018739289972
 10
180.37518383848942
 20
618.0963835874763
 10
178.21571060788824
 20
620.6953007895595
 10
177.0098678464069
 20
622.2181693385528
 10
176.1573468812844
 20
622.7769629489007
 10
173.22586750819073
 20
624.7425827505222
 10
168.8284741397249
 20
627.7245350124194
 10
168.14543299718207
 20
628.2996420308491
 10
167.14519094885054
 20
629.0895604166376
 10
163.0855575572357
 20
632.9799758663844
 10
160.0009278731161
 20
637.5533058944093
 10
159.28328978600393
 20
639.0834351533258
 10
158.698954039211
 20
639.9089839319336
 10
156.15207408607898
 20
644.5805390533778
 10
153.68237295708286
 20
649.3624717876387
 10
153.428853091802
 20
649.7544862611335
 10
153.05510435614542
 20
650.4527217768223
 10
150.23995944044577
 20
655.0886864082495
 10
148.50908554850844
 20
658.5714971135676
 10
147.50153460891693
 20
660.0281344646842
 10
146.08381729161715
 20
662.4484946444004
 10
144.35115486390896
 20
665.5758506075495
 10
142.9650326071071
 20
667.8867663211868
 10
141.19274433810756
 20
671.0500303348167
 10
139.1020147364752
 20
675.2939150908151
 10
139.07346211493268
 20
675.3377202522938
 10
138.76935219035386
 20
675.6380295070121
 10
135.16908668452152
 20
679.0329549880557
 10
132.85338991097387
 20
682.2686395308124
 10
132.4025154248743
 20
682.7224609723517
 10
130.09470227939278
 20
684.2554112297425
 10
127.92911376112147
 20
685.9370223994706
 10
126.70298201747482
 20
686.9639707130905
 10
124.33827027648476
 20
689.0052365924298
 10
121.81441495524746
 20
690.0732803564651
 10
120.84616869125443
 20
690.3812032429691
 10
115.7193905073866
 20
691.5349739052554
 10
115.6142362723026
 20
691.5588936139789
 10
109.80440375239073
 20
692.0845491065547
 10
109.31129208822426
 20
692.1074009032468
 10
108.01151038982948
 20
692.3728213035783
 10
102.11362988013207
 20
693.7109906561773
 10
101.12415051242374
 20
694.1159201946443
 10
97.46857014863303
 20
695.0536993184942
 10
95.31071937863953
 20
695.1215452317083
 10
92.69044140722099
 20
695.8287567989228
 10
91.40604460228678
 20
695.3455370566221
 10
85.76250035522048
 20
693.9799377820405
 10
84.78244824979834
 20
693.5185630593191
 10
81.14231523431954
 20
692.5450933656111
 10
78.50626864560058
 20
691.5398778363042
 10
77.00434744085919
 20
690.610833267504
 10
72.11878392964127
 20
687.8932055818964
 10
67.03091693023521
 20
684.3628176042234
 10
65.97888677913738
 20
683.4896090662501
 10
63.67946488357211
 20
681.4706184367028
 10
59.19701614558585
 20
677.1315599011268
 10
57.32666752736327
 20
675.5024372665489
 10
52.054570594405504
 20
670.4739368736759
 10
46.81921352265158
 20
666.4456176447407
 10
46.29233760597458
 20
665.7456633534539
 10
41.75927989557499
 20
658.4217873098014
 10
39.38850044564401
 20
654.6886635099186
 10
35.565071032401875
 20
649.0549168885577
 10
32.761936900491946
 20
644.5841419315443
 10
31.27528708855243
 20
641.2146948634036
 10
30.299449717884727
 20
637.8178045555096
 10
29.176038981534703
 20
632.8729555416353
 10
27.681861814001422
 20
625.3951556664856
 10
27.42678223191956
 20
623.9521847144852
 10
26.509380013186274
 20
617.7044271432878
 10
26.073941763864923
 20
614.7389713540051
 10
25.941147773741704
 20
613.9218743471365
 10
24.53052736669406
 20
605.8411840433882
 10
24.458813413779808
 20
603.2737020707809
 10
23.79384358359107
 20
596.8662190441642
 10
23.743282988771853
 20
593.4960612946302
 10
23.809526404608732
 20
588.3922841790836
 10
24.14222644802362
 20
584.9280389279988
 10
23.86860671637578
 20
578.9045363839841
 10
24.12194311270605
 20
576.0478190374033
 10
24.533650213784313
 20
569.8404000263113
 10
24.6178895134899
 20
567.3399985251549
 10
25.255901959885932
 20
560.5590858045725
 10
25.255903638488007
 20
558.6030980741607
 10
25.539798688445444
 20
551.1548376631104
 10
25.559826939243294
 20
549.7533225393108
 10
25.76624464582551
 20
541.6167473543824
 10
25.696584423304785
 20
540.3064150890787
 10
25.58313344954081
 20
532.2226782606303
 10
25.508771340277463
 20
530.8009845906859
 10
25.40966404458254
 20
523.4383175719595
 10
25.491619322805263
 20
522.4722167226228
 10
26.36612848461391
 20
514.8211230546344
 10
26.393415314021013
 20
514.6328952132276
 10
26.53380739826207
 20
513.3722711500764
 10
27.383222004828895
 20
506.76480310218176
 10
27.5259857202268
 20
505.79405536200284
 10
28.695876082446375
 20
499.36114996536526
 10
29.034135071106903
 20
496.61075754265494
 10
30.044245722741607
 20
492.2126393764747
 10
30.810509766679843
 20
487.2578668747756
 10
31.268774102031784
 20
484.55754237666406
 10
32.59062704481539
 20
478.20669681966365
 10
32.594114239284636
 20
478.18728328617635
 10
32.96504041100184
 20
477.4405466716021
  0
LWPOLYLINE
  5
90
330
17
100
AcDbEntity
  8
GRABADO
100
AcDbPolyline
 90
527
 70
1
 10
54.58474063661697
 20
384.2648047428597
 10
54.564110355221146
 20
384.4360079118064
 10
54.439218669080674
 20
384.8753972322629
 10
52.649701483353965
 20
391.13845682136343
 10
51.59746861782082
 20
393.51848420409715
 10
50.526342720748744
 20
397.59121426907404
 10
49.61074181640902
 20
402.7859853456516
 10
48.97492953630831
 20
404.77706844182376
 10
47.47200228685074
 20
408.3601375715134
 10
46.418778376831824
 20
410.63663432363865
 10
45.87653922287154
 20
412.03807284834465
 10
44.111168667228185
 20
416.83331470806934
 10
42.138470474550104
 20
421.2900100210368
 10
41.39581603788952
 20
422.4874646872854
 10
40.496538735120794
 20
426.6251519117095
 10
39.8683808933838
 20
429.7257164768739
 10
39.48960983798361
 20
430.5551792137653
 10
37.30731811090368
 20
435.5868733332245
 10
36.60965381218898
 20
439.83054448121857
 10
35.80494957453857
 20
442.8563769595903
 10
34.5192119667895
 20
449.0859106683956
 10
34.187507735720146
 20
449.9602091686329
 10
33.52761692553963
 20
452.40331698020964
 10
32.08776745469504
 20
456.43293559455424
 10
31.595244349781524
 20
458.34556782055097
 10
29.969797556176673
 20
462.8833566570206
 10
29.093452009189605
 20
467.6103292144239
 10
28.36326663845307
 20
470.0022293156103
 10
26.559922663311
 20
474.60015016609213
 10
25.88086636723301
 20
475.96720441651314
 10
25.717899526288647
 20
476.874455862338
 10
24.38917945790172
 20
483.2582945403701
 10
23.900594625096346
 20
486.13728269557305
 10
23.165184661152807
 20
490.89254831928156
 10
22.130688850094657
 20
495.3968417965243
 10
21.77280464362775
 20
498.30680736335853
 10
20.61773137385785
 20
504.65823764313063
 10
20.44846334089516
 20
505.8092062910464
 10
19.583380436394464
 20
512.5385556642241
 10
19.449230842926
 20
513.7431264667916
 10
19.423397858114413
 20
513.9213255127725
 10
18.525303537252512
 20
521.7787660882268
 10
18.40567363159198
 20
523.1889809758004
 10
18.511233359231255
 20
531.0309982536005
 10
18.585700367688105
 20
532.4546974411519
 10
18.699193330779053
 20
540.5414261405199
 10
18.761526767752002
 20
541.7139391001015
 10
18.561095429689885
 20
549.6145435519206
 10
18.54170404962997
 20
550.9714924287714
 10
18.255903752932454
 20
558.4697388253794
 10
18.25590224187522
 20
560.2304953116068
 10
17.62894784666264
 20
566.893881046065
 10
17.541455846602048
 20
569.4908296087356
 10
17.142436383979202
 20
575.5069536726473
 10
16.854528164892827
 20
578.7535160126881
 10
17.12698376767571
 20
584.7513912631716
 10
16.813877634548135
 20
588.0116145671404
 10
16.742601498872546
 20
593.5031416200645
 10
16.799275921835033
 20
597.280821578745
 10
17.468922588663872
 20
603.7333694339145
 10
17.547441310047134
 20
606.5444737374846
 10
19.03837697562585
 20
615.0852472270517
 10
19.155994515718703
 20
615.8089617556684
 10
19.583644992535483
 20
618.7213806445516
 10
20.515881265261214
 20
625.0701621409698
 10
20.802292514185638
 20
626.6903745827153
 10
22.3296842992454
 20
634.3344012401963
 10
23.5170960792002
 20
639.5609597723401
 10
24.678817183972797
 20
643.6049114387715
 10
26.56212234032023
 20
647.8733659103668
 10
29.701770111242013
 20
652.8808532326079
 10
33.536553975632614
 20
658.5313304102001
 10
35.82846251313481
 20
662.1402609282845
 10
40.50796628817716
 20
669.7007438922651
 10
41.79774512395147
 20
671.4142141844823
 10
47.491752525739685
 20
675.795439608451
 10
52.609770070740296
 20
680.6769798310675
 10
54.460600123144104
 20
682.2891012835876
 10
58.93304424568919
 20
686.6184752439322
 10
61.43333679734633
 20
688.8138388884458
 10
62.79237741941847
 20
689.9418729789209
 10
68.41302963271164
 20
693.8419519320078
 10
73.45984204216643
 20
696.6492754058527
 10
75.39004228813815
 20
697.8432408745848
 10
78.98530536971134
 20
699.2142387533804
 10
82.36826300840244
 20
700.1189328187788
 10
83.42469084969844
 20
700.6162626032428
 10
89.34272020512958
 20
702.0482805410716
 10
92.33673886132033
 20
703.1746995090489
 10
96.34662279743179
 20
702.0924340647957
 10
98.46018322159307
 20
702.0259807033749
 10
103.32985352545552
 20
700.7767467387143
 10
104.22809196086519
 20
700.4091561785126
 10
109.48637719584167
 20
699.2161045157841
 10
110.17878600933864
 20
699.0747119844855
 10
110.28203813257869
 20
699.0699270712503
 10
116.7108135303265
 20
698.488271561082
 10
117.2641634408003
 20
698.3623996105125
 10
122.67877309481264
 20
697.1438530804148
 10
124.24434691575993
 20
696.6459673380077
 10
128.07951889273295
 20
695.0230012830434
 10
131.23758868278355
 20
692.2968930664438
 10
132.32454885829452
 20
691.3865080894648
 10
134.18346021231014
 20
689.943036224855
 10
136.8675370265628
 20
688.1601552098464
 10
138.2171803703502
 20
686.801690478032
 10
140.46593958617996
 20
683.6595366700899
 10
143.63045191067795
 20
680.6755113230397
 10
144.52707438461607
 20
679.7900945538067
 10
145.1956922699096
 20
678.764307328308
 10
147.39018129905662
 20
674.3098056410831
 10
149.02124491421682
 20
671.3986060760767
 10
150.41593908738673
 20
669.0733994323764
 10
152.16626361644308
 20
665.9141643927896
 10
153.40843981550483
 20
663.7934921179203
 10
154.5530955434008
 20
662.1386395224781
 10
156.37681164740957
 20
658.4690146005878
 10
159.13694884915117
 20
653.9236363595601
 10
159.46384378144649
 20
653.3129328846007
 10
159.74542835774605
 20
652.8775223131252
 10
162.3355742914748
 20
647.8623795974377
 10
164.648988967562
 20
643.6190527123954
 10
165.35653014485547
 20
642.619439462761
 10
166.10792592706866
 20
641.0173329246068
 10
168.46987437608118
 20
637.5154636979287
 10
171.74654301032297
 20
634.3753766386676
 10
172.5699846943303
 20
633.7250823155014
 10
173.0585214886869
 20
633.3137440787596
 10
177.13945168041505
 20
630.5463912412506
 10
180.0253357998538
 20
628.6113440352497
 10
181.79459353391098
 20
627.4516659073247
 10
183.65239357467385
 20
625.1054352520769
 10
185.4112855052524
 20
622.9886160064348
 10
186.99886797892145
 20
621.589760242457
 10
189.98100522815116
 20
619.8244407771967
 10
193.96726892828246
 20
616.7609225135975
 10
194.4304477745443
 20
616.4891260655313
 10
195.7843257185882
 20
615.868266860175
 10
200.04922754964855
 20
614.714119909117
 10
200.91502098067735
 20
614.4002942999377
 10
206.1359037218599
 20
613.5400830523781
 10
207.89533923173394
 20
612.6931424850168
 10
211.52433212605047
 20
611.4344607672147
 10
214.86592851685555
 20
610.2843205353406
 10
216.89309751630094
 20
609.3100503305745
 10
221.81998733554224
 20
608.5089153727045
 10
223.10034340899847
 20
608.3051540654824
 10
228.80711920873682
 20
606.638330663503
 10
228.8260655283782
 20
606.628298340112
 10
228.88364202254934
 20
606.6077233748579
 10
234.35454670496938
 20
604.7300262408294
 10
235.76159955172352
 20
604.4417955610306
 10
240.64381798450586
 20
603.838786040516
 10
242.72911496759752
 20
603.5037667052311
 10
247.10370931578836
 20
603.1523715791113
 10
249.70891760238328
 20
602.198782696611
 10
253.01613939084314
 20
601.7563474615631
 10
256.6840609506917
 20
601.3469159155366
 10
258.8410917758474
 20
600.2022940779289
 10
263.65309796836937
 20
598.6452869343029
 10
264.4692727563149
 20
598.4369223031231
 10
268.86301092612644
 20
597.349137637093
 10
270.3253667980182
 20
596.957512337754
 10
270.612150148615
 20
596.8969986001935
 10
277.0721546895036
 20
596.6569756826702
 10
277.6128041823581
 20
596.357585877849
 10
281.7589829247436
 20
593.5696843540154
 10
284.59183259525753
 20
590.6598002744613
 10
285.8912887638967
 20
589.8446849849324
 10
291.51887753563824
 20
589.2695956611797
 10
292.3981905565199
 20
589.2695956611797
 10
298.48431065206705
 20
589.9610395212758
 10
299.8236284168713
 20
589.8604164974622
 10
305.46761881761904
 20
589.4363648229823
 10
306.33277506511763
 20
589.2397809742183
 10
312.43612769523133
 20
588.8177961760098
 10
312.92578511969873
 20
588.7331567717056
 10
316.0066383584649
 20
588.0890863645805
 10
318.9423199584976
 20
587.4674833729368
 10
319.4143990501127
 20
587.4039252199391
 10
324.61945815139734
 20
585.7406432408279
 10
326.3799349588917
 20
585.4155200698992
 10
330.9158656782115
 20
584.8547817110566
 10
333.3551918961359
 20
584.3825848211973
 10
336.8962307207239
 20
583.525760030524
 10
340.3335098983316
 20
582.4137773452935
 10
342.4857100873435
 20
581.682188947223
 10
347.31404989334374
 20
579.8157604634439
 10
347.8363491403122
 20
579.4948320361759
 10
348.62215321098165
 20
578.8098851817294
 10
351.852333026686
 20
575.5538981959098
 10
354.303227956912
 20
573.3643833682795
 10
355.922163326532
 20
571.7036875480858
 10
358.68297458182406
 20
569.552877711792
 10
360.2637685173286
 20
568.2234364245578
 10
361.26402955033336
 20
567.5947515628104
 10
364.8185089434651
 20
565.0155221149562
 10
368.2360792163704
 20
562.6499323651451
 10
369.38317897421075
 20
561.8187073321046
 10
371.5555718304163
 20
560.2923970979841
 10
373.70478147104836
 20
558.2871143228667
 10
375.2112232346692
 20
557.0545083453876
 10
377.9966018216676
 20
554.7253568756905
 10
381.68977148929935
 20
551.025464594547
 10
381.96657308536214
 20
550.726953596542
 10
382.18750288435035
 20
550.473685622032
 10
386.1088108215906
 20
546.9867029744228
 10
389.15090795213996
 20
544.5805489866993
 10
390.4862992384658
 20
543.5550713751263
 10
393.55212205619387
 20
541.7758484515689
 10
395.21018158439097
 20
540.5730209020276
 10
396.11580231921903
 20
540.069498919022
 10
399.8037751265026
 20
537.4077796878755
 10
403.09214407825516
 20
535.0344557566373
 10
404.2567281496947
 20
534.0662960538589
 10
407.06953110210884
 20
532.5152773695995
 10
408.9690598466716
 20
531.0775976064369
 10
410.0497551222718
 20
530.6641616822008
 10
413.8903534018557
 20
528.3696716134459
 10
417.01317838660975
 20
527.6159645150469
 10
419.4093497961828
 20
526.4439726044311
 10
423.9780922649877
 20
525.1870491319246
 10
425.18161212188284
 20
524.8604705102107
 10
430.1713450356667
 20
523.2613926216927
 10
430.73843751071786
 20
522.9826679478147
 10
430.95290734098603
 20
522.9567188063938
 10
435.691094934082
 20
520.2702363427234
 10
437.94430046300363
 20
518.8262791928155
 10
440.17794192724
 20
516.9433753646163
 10
442.94936425921037
 20
513.9782244402254
 10
443.8994756023915
 20
512.6116821777264
 10
444.92753852616875
 20
511.5479723481608
 10
447.49526344912124
 20
508.12875257502355
 10
450.6229988306602
 20
504.7120942278898
 10
451.1062657168625
 20
503.63080676045684
 10
451.91101961608024
 20
501.52374069471034
 10
453.4831871332847
 20
497.52901620923967
 10
454.43781744938656
 20
495.4451035147986
 10
456.4269035775062
 20
492.18134056228973
 10
458.3210049495558
 20
486.16248379728313
 10
458.3526537404043
 20
485.472346307693
 10
458.8737257124833
 20
484.9116051492383
 10
461.3197752203512
 20
480.1828125747488
 10
464.4639649850344
 20
476.9086033612307
 10
463.4427332496032
 20
473.66756550061064
 10
462.97350518892586
 20
467.58946621220366
 10
458.85407546510874
 20
464.3654006283482
 10
454.5422604325656
 20
461.83875253219094
 10
451.8933994095571
 20
459.93117084348523
 10
450.6228752239015
 20
458.32685658920445
 10
447.9074199183772
 20
453.0192376049954
 10
446.0822630949076
 20
449.0805839086397
 10
444.9420197610591
 20
445.1395780914222
 10
443.181975371356
 20
439.8167723809315
 10
439.008681143637
 20
431.9365496593696
 10
438.4006955354455
 20
430.5458777845324
 10
437.9595148662777
 20
430.0159714046058
 10
431.93723849733055
 20
421.2848193634545
 10
430.99461736847593
 20
419.67571871191785
 10
426.99315352748295
 20
412.01623882409694
 10
424.0069603532486
 20
409.57209361754303
 10
418.4676965785918
 20
404.6492173466236
 10
417.03347175046133
 20
403.5959429297909
 10
415.98541937311734
 20
402.744100775933
 10
410.063976007614
 20
398.6004471989045
 10
404.50729769739996
 20
393.4882197120228
 10
403.0960283017255
 20
392.18634903525617
 10
400.34966046377144
 20
389.8387368947124
 10
396.1242005023985
 20
385.9415210938505
 10
393.9453051779358
 20
384.2246879913132
 10
389.15440092209315
 20
380.160140856829
 10
383.4914783350157
 20
374.9646548483747
 10
382.18304225935935
 20
373.96470713757435
 10
379.43745667792723
 20
371.3174361551992
 10
375.21372478027774
 20
367.8947256555389
 10
373.0359992400413
 20
365.70583426784606
 10
368.23933043735155
 20
361.83742433299267
 10
361.3348021195311
 20
356.4416616767362
 10
361.2707269767777
 20
356.3927396643144
 10
361.13774790495813
 20
356.26643506695746
 10
354.2970599759842
 20
350.19971783750316
 10
349.7108149314679
 20
347.1777924458129
 10
347.3250795685833
 20
345.6015903441571
 10
344.2597874286821
 20
343.10571006387863
 10
340.3559553428486
 20
339.7233977441938
 10
337.75017940774546
 20
337.91724522836057
 10
333.38133592393865
 20
335.1679871398419
 10
328.80167629601965
 20
331.83243167090995
 10
326.414861090818
 20
330.09716961030244
 10
324.72057154865774
 20
328.66254997178567
 10
319.44937038955504
 20
324.00468187097886
 10
314.89062682503004
 20
319.4068933505323
 10
312.4845952441374
 20
316.7815750711702
 10
307.37997253113235
 20
310.1515376037323
 10
305.51227208641853
 20
307.8566663116926
 10
298.5957146761316
 20
300.88959197566373
 10
298.54601558034005
 20
300.8163063560064
 10
297.7472293551334
 20
299.8316981949142
 10
291.5740933448885
 20
292.08034412986217
 10
291.22936738134763
 20
291.634333881173
 10
289.7532514324332
 20
289.21229235753526
 10
285.7102186444272
 20
282.3800634512313
 10
284.61163850764046
 20
280.24552402964537
 10
281.2481907737372
 20
273.11986805253446
 10
277.6380493756485
 20
267.3132522267297
 10
275.6612131027521
 20
263.86137681320497
 10
272.90008627029556
 20
257.5661552653146
 10
271.8912539062894
 20
254.60969367613643
 10
270.67421585009674
 20
251.24127963635237
 10
268.9193972176622
 20
245.34832005146654
 10
266.5512019521525
 20
239.86890114122252
 10
264.5604517706147
 20
236.0917893087385
 10
263.74442958165855
 20
226.90351902336442
 10
263.75139102838784
 20
226.85419410869372
 10
263.7069020440613
 20
226.4259736999952
 10
262.8968976864105
 20
217.59405403108985
 10
263.0230445150403
 20
216.70504150225815
 10
263.69904827942537
 20
214.97994056394873
 10
266.0610285602377
 20
211.48747318910455
 10
266.3520023367055
 20
208.3477260626214
 10
267.71843293736947
 20
204.44769610519734
 10
270.66072492544185
 20
200.72647377530484
 10
271.3218824753883
 20
199.96406881941994
 10
271.4463793679681
 20
199.08569689733622
 10
273.0216252304283
 20
192.94816750423888
 10
273.9841150277575
 20
189.82253075114568
 10
274.0797842561974
 20
185.06923966446584
 10
273.99381069685637
 20
180.5692396326881
 10
275.5758822765697
 20
177.82714625282597
 10
276.768080613419
 20
171.30558431102008
 10
276.9961180936332
 20
170.44003857042298
 10
277.6477450662078
 20
166.4217455816215
 10
278.19593475699867
 20
162.76411700539438
 10
278.2418132989792
 20
162.01876674016603
 10
277.646298536411
 20
160.23572024415216
 10
276.17775985957473
 20
152.7796802301241
 10
276.7721785941387
 20
151.65726244079087
 10
277.62312435534045
 20
150.43621551531078
 10
281.53114592383736
 20
148.71733171080086
 10
281.71175335846397
 20
143.53308095377906
 10
283.12723008504486
 20
141.58767280891925
 10
284.5995678391282
 20
139.51028926126264
 10
287.0395744105813
 20
137.53749242013146
 10
289.13456572834843
 20
134.28892217952216
 10
290.3187284373987
 20
132.61753922166645
 10
291.56986842718425
 20
130.71240539059545
 10
294.3652542018476
 20
128.75189402495744
 10
296.7044791993367
 20
125.03177881918964
 10
297.70669823407684
 20
123.92223783911777
 10
298.5465020223917
 20
122.80656209873223
 10
301.0913080902169
 20
119.15217206129546
 10
303.7897294498266
 20
115.76418262164543
 10
304.41037465115505
 20
114.25721389016007
 10
305.2448640938028
 20
106.47796777323083
 10
305.31314039446033
 20
106.19365135429916
 10
305.52971370713726
 20
105.11490572147704
 10
306.93348590110145
 20
99.08517126164088
 10
307.3007935849421
 20
97.21137944939255
 10
307.20880002115337
 20
90.16912655490205
 10
307.0427694058569
 20
87.93492904254117
 10
305.5303367524464
 20
78.9859016157634
 10
305.47386577962993
 20
78.66825856897367
 10
305.4501842931179
 20
78.56754910943937
 10
305.5314200841751
 20
75.90672262178987
 10
305.63466287914343
 20
69.55486691131046
 10
305.6128423128541
 20
69.40821246205223
 10
305.52651010440036
 20
69.06026413004929
 10
300.1367085692882
 20
60.115606016367565
 10
298.5390291816616
 20
58.52524353253102
 10
293.3433568883131
 20
53.2069211851408
 10
291.5697525718167
 20
51.425837267429415
 10
291.0627681779954
 20
50.853161619711045
 10
284.6039067968991
 20
42.86067044419815
 10
283.6847243391958
 20
41.59563475640789
 10
277.6316551261202
 20
33.99126688727665
 10
276.2303501044207
 20
32.33010886951797
 10
270.6440679124903
 20
26.56011762692424
 10
264.85561569469746
 20
24.63589981672294
 10
263.6681629337554
 20
23.97686079599771
 10
261.9457340795684
 20
23.05426018639446
 10
256.68902928777175
 20
20.04428537207741
 10
253.9612446706053
 20
19.431373100216206
 10
249.7148729750745
 20
17.77384675579424
 10
244.6514508782766
 20
16.323266407763185
 10
242.73759636970908
 20
15.65226929228902
 10
236.56093728115138
 20
14.84626517235938
 10
235.7486061131567
 20
14.669260898219818
 10
230.39393244329972
 20
15.96088375857289
 10
228.74967041043396
 20
16.526459174341653
 10
225.16935779688947
 20
18.316743543076882
 10
221.76624491091275
 20
21.17925511961448
 10
220.74501448808974
 20
21.705201918597595
 10
219.36444930092102
 20
23.062420870348888
 10
216.40087423053433
 20
25.206037223339536
 10
214.78631382888307
 20
26.899438715603992
 10
212.25490448590858
 20
28.968591770447347
 10
209.6309129522549
 20
32.33195432566754
 10
208.62967899471778
 20
33.42339207682426
 10
207.80705907396964
 20
34.54045128633015
 10
205.08582372497517
 20
37.98317298192387
 10
202.67579464515575
 20
41.59517083422725
 10
201.68356948684436
 20
42.71593700080848
 10
200.84138547831162
 20
43.791610754467456
 10
197.62122101869022
 20
46.58433941475687
 10
195.46840923175068
 20
50.867934582178805
 10
194.82394169411714
 20
52.15172594313299
 10
193.85983398532198
 20
54.14575921234564
 10
191.7676908063586
 20
57.35600023367715
 10
190.9702939091885
 20
60.1352434859059
 10
189.36588193862008
 20
63.42315019285388
 10
186.88830636872353
 20
68.70478536430073
 10
186.66292362127683
 20
69.08045404555332
 10
186.4651450663223
 20
69.38885977615155
 10
184.26402287061524
 20
75.17648779313231
 10
183.0206850408738
 20
78.64914015090608
 10
181.5485077835183
 20
80.81367794325888
 10
179.9156388634865
 20
84.6363929095869
 10
178.95160648398019
 20
86.62010198008875
 10
178.0388306255495
 20
87.89913761329035
 10
175.44938952989241
 20
91.2252752736972
 10
172.9464422261558
 20
96.2944551804203
 10
172.6758060645152
 20
96.80411363021176
 10
172.43978062695942
 20
97.16591761590735
 10
169.69976124062964
 20
102.12298675857801
 10
168.11815879867413
 20
106.44692208616561
 10
167.78343295712352
 20
108.86181266155836
 10
166.0962121117468
 20
115.69735343260345
 10
166.0556062971409
 20
115.76710186277751
 10
166.00580242673277
 20
115.80296157954035
 10
160.77991857722895
 20
117.95558092155034
 10
159.06088649485832
 20
118.40885044475317
 10
154.29280981065358
 20
118.56299438601673
 10
152.10710546942255
 20
118.5163324700925
 10
146.73483555796633
 20
117.76561405412758
 10
145.14389948827193
 20
117.409766170088
 10
138.82169304088643
 20
116.50883653549272
 10
138.18131702856112
 20
116.2933743717249
 10
135.77377379213726
 20
115.65405890807824
 10
131.21457407732305
 20
114.04619958576404
 10
129.52696587963283
 20
113.41721602782172
 10
124.23056751064746
 20
112.22305117941141
 10
121.38144515715453
 20
111.91998438135488
 10
118.18585809683213
 20
115.67346861157012
 10
117.60835506187004
 20
116.1969038619186
 10
117.21380809646098
 20
116.37564575252736
 10
112.68824202518681
 20
118.90051588088545
 10
110.24214100486279
 20
119.70900882742353
 10
107.71234335098052
 20
121.56280557743139
 10
103.26973613121277
 20
123.41289713829019
 10
102.53047188787446
 20
123.934821330859
 10
99.76905157006445
 20
124.91640788340237
 10
97.14613274207363
 20
126.0256398473125
 10
96.31096143114519
 20
126.26498077248652
 10
91.75500317723981
 20
128.12247555259773
 10
89.33560771304883
 20
128.77892480854825
 10
86.50264363324891
 20
130.43192484304473
 10
82.35409373597554
 20
133.0354621309816
 10
81.7631439718939
 20
133.41071888074384
 10
80.91779399661709
 20
134.21094463264944
 10
80.12840584114929
 20
140.5755179663065
 10
78.92207902888754
 20
143.51069443158758
 10
82.32479945602813
 20
150.26093804984384
 10
83.18339953728196
 20
152.788866118417
 10
83.5787318497562
 20
154.45060469205464
 10
83.67855380977562
 20
162.0191143107072
 10
83.3193358387432
 20
163.33194599287026
 10
82.3226023385655
 20
166.4247737537703
 10
81.27004116760713
 20
169.83565067993504
 10
79.37025277405542
 20
171.2319286783286
 10
77.05691960446961
 20
173.48918678689142
 10
75.36070573430379
 20
176.1161603924179
 10
73.80982057617848
 20
178.44643748434237
 10
72.37176193969208
 20
180.52194931354097
 10
71.76856182812321
 20
185.01593345014953
 10
68.41042101594212
 20
188.63460111309814
 10
67.72363106594003
 20
188.87452396415756
 10
67.56646233146012
 20
189.8329666097843
 10
68.39020015923461
 20
190.78752123795175
 10
72.70075310854395
 20
199.1008337541448
 10
75.35238296542616
 20
206.70073342028127
 10
75.89668663664929
 20
208.36119957058872
 10
77.21884846349235
 20
210.83625235231966
 10
77.89646328646131
 20
217.62885683408103
 10
82.33091493534494
 20
221.5563365232606
 10
84.4235766220097
 20
226.88214918391986
 10
87.67955338711931
 20
233.99691285083372
 10
88.76719309328769
 20
236.12762805920556
 10
87.96467715792596
 20
243.5903590496937
 10
87.12220547781158
 20
245.35162689586969
 10
86.30505648195026
 20
250.66195771497632
 10
86.16435679507458
 20
254.6288877193192
 10
85.6512465966282
 20
259.05025216023114
 10
84.89211933436445
 20
263.8867524047355
 10
84.67481858992164
 20
267.0270569715849
 10
85.41572718034035
 20
273.16573066291267
 10
86.16487526060882
 20
278.2740185837574
 10
86.67786822533367
 20
282.41475478665325
 10
85.88909991454511
 20
287.1385925229324
 10
84.42326428961542
 20
291.6477098636715
 10
83.55991574314908
 20
293.2955995716752
 10
82.32122696251076
 20
299.66982545281417
 10
82.05217831335176
 20
300.5634118479088
 10
81.99138757939522
 20
300.92952477419976
 10
81.59732612003859
 20
309.23609706760044
 10
81.56599637849467
 20
310.1973961604649
 10
81.68361390300947
 20
318.6160654346522
 10
81.71019314548516
 20
319.4517502402973
 10
80.28325911580691
 20
325.99442782675806
 10
79.57479815584497
 20
328.70965249776964
 10
79.5748029789695
 20
334.3297885689417
 10
79.16546883859405
 20
337.9609032182302
 10
77.81146205073742
 20
341.2271342109839
 10
76.72127061880656
 20
347.21733485161076
 10
76.19738868688955
 20
348.33134090796284
 10
75.35630438990984
 20
350.57813095365964
 10
73.25731785851349
 20
353.6864961247934
 10
72.64878684882387
 20
356.4643854678993
 10
70.27997825721445
 20
358.93972550744047
 10
68.40953204042421
 20
360.39874323953836
 10
65.69635978779252
 20
362.11278768462444
 10
63.02103764722051
 20
365.71893918905016
 10
62.28311510576759
 20
366.864236527324
 10
61.420483955866985
 20
367.9900906589487
 10
59.01148853516224
 20
371.78827843229055
 10
57.289496686696566
 20
374.9987635475122
 10
56.85955097653755
 20
378.2206368130278
 10
54.58474063661697
 20
384.2648047428597
  0
TEXT
  5
91
330
17
100
AcDbEntity
  8
GRABADO
100
AcDbText
 10
365.7364733552711
 20
360.86577056334613
 30
0.0
 40
6.0
  1
80c
 72
1
 11
365.7364733552711
 21
360.86577056334613
 31
0.0
100
AcDbText
 73
2
  0
LWPOLYLINE
  5
92
330
17
100
AcDbEntity
  8
CORTE
100
AcDbPolyline
 90
600
 70
1
 10
505.713288683482
 20
594.118453586133
 10
503.2292323192937
 20
593.2166056836772
 10
499.4802184432788
 20
591.8464257646647
 10
495.07419797440025
 20
589.0217053838583
 10
495.0696851730331
 20
589.0191982719875
 10
494.4042497494056
 20
588.7120107777782
 10
493.99775076729884
 20
588.249251261926
 10
493.99363071668404
 20
588.2451312113112
 10
493.99044106091833
 20
588.2424731648398
 10
493.98190528622354
 20
588.2356445450841
 10
493.96967992791315
 20
588.2304051058081
 10
493.9608112929359
 20
588.2274488941489
 10
487.19285981809935
 20
587.1627889969418
 10
484.7458209674178
 20
583.0350476272502
 10
484.7417033155466
 20
583.0288711494431
 10
484.7344645866988
 20
583.02082811739
 10
484.7272531350718
 20
583.0148185743678
 10
484.7200344970779
 20
583.0100061490384
 10
484.7138868230031
 20
583.006932312001
 10
484.7074918419371
 20
583.0041916058299
 10
484.69838462252847
 20
583.0015895431416
 10
484.6880525921074
 20
583.0
 10
484.6769870147855
 20
583.0
 10
484.6666389448674
 20
583.0014782957028
 10
484.6550106990676
 20
583.0048006516454
 10
484.6445997042815
 20
583.0100061490384
 10
484.63970833520125
 20
583.0132670617586
 10
484.63186890385396
 20
583.0188666555778
 10
479.29529898093324
 20
589.020237735509
 10
475.4025291584462
 20
590.1664484054022
 10
473.1789314513617
 20
590.6918075256403
 10
466.1535457005334
 20
591.0541510957237
 10
466.14513141476846
 20
591.055445601226
 10
466.1360241953598
 20
591.0580476639143
 10
466.1296292142938
 20
591.0607883700854
 10
466.125492341901
 20
591.0628568062821
 10
457.6797604545718
 20
595.9908437235244
 10
457.67672588050345
 20
595.9923610105584
 10
456.87336859833385
 20
596.5639185003733
 10
456.00922053193335
 20
596.6505331829812
 10
447.6408672267362
 20
596.4750118458714
 10
447.629576651701
 20
596.4750118458714
 10
447.61167099147315
 20
596.4801277487936
 10
447.6000639310073
 20
596.4863777044293
 10
447.58921531353826
 20
596.4942676080432
 10
441.9002295130995
 20
602.9772555095606
 10
438.33965843170745
 20
606.7981385006515
 10
430.7376251165124
 20
608.699992674638
 10
429.1295564569582
 20
608.5033853578861
 10
429.1264637146601
 20
608.5028699008362
 10
422.0990244745144
 20
608.2342042843316
 10
422.0929552083303
 20
608.2348786472407
 10
422.0879515928232
 20
608.2355040991793
 10
422.08153195724753
 20
608.2371090080733
 10
419.835309872406
 20
608.9335544913088
 10
419.8315997812574
 20
608.9347911883583
 10
419.8258796026503
 20
608.9372426934756
 10
417.94842663468717
 20
609.9329021182266
 10
417.9412991680106
 20
609.9372882515663
 10
410.56989618620173
 20
616.2786961246616
 10
402.1458003895791
 20
616.2786961246616
 10
402.13757923647927
 20
616.2805230475728
 10
401.33690423536336
 20
616.4626853735235
 10
394.6822631451455
 20
614.9486193249086
 10
394.67413194497476
 20
614.9462961248596
 10
394.6588462694381
 20
614.9462961248596
 10
392.1039877469657
 20
615.2733908469099
 10
389.1094814993162
 20
612.211053134326
 10
389.10253538317147
 20
612.2060916227938
 10
385.564089719634
 20
609.9408703869917
 10
384.51482165510015
 20
608.7120481199477
 10
382.86735505951174
 20
606.8906888492147
 10
382.86185396770634
 20
606.8862879757698
 10
380.2666771731215
 20
604.9217120322605
 10
380.2628956301769
 20
604.9186867979051
 10
380.25137137839556
 20
604.9121015111728
 10
380.2429645106304
 20
604.909299221918
 10
373.57206605645797
 20
602.9658615723288
 10
373.56682361622006
 20
602.9649878322889
 10
373.56517250467596
 20
602.9647519592113
 10
373.5538803072027
 20
602.9633826328136
 10
373.50955652600487
 20
602.9545240395969
 10
366.87627423171216
 20
601.0257715080074
 10
366.8664730533137
 20
601.023509697608
 10
364.309331139219
 20
600.9837769261708
 10
359.964198680123
 20
599.2733853268423
 10
355.06520109046005
 20
596.4139429575544
 10
355.05140986100287
 20
596.4093458810689
 10
355.0441294584084
 20
596.4083058235551
 10
354.55755586125906
 20
596.3466106469223
 10
350.0005740627553
 20
595.9818983000241
 10
346.1003250018857
 20
595.7438678675599
 10
345.7866702678698
 20
595.6760237842823
 10
345.7787523298048
 20
595.6748926502728
 10
345.7694104922266
 20
595.6748926502728
 10
342.90341319945446
 20
595.9823769374384
 10
342.9002034618902
 20
595.9829118936991
 10
336.49609306793855
 20
597.2386958130719
 10
336.48304459220526
 20
597.2421754066004
 10
336.4714143941137
 20
597.2493324515799
 10
328.5111521638505
 20
602.9642486510743
 10
328.50104888017586
 20
602.9700219560314
 10
328.49048684360514
 20
602.9841046714591
 10
328.4842106049073
 20
602.9935190295059
 10
328.48028860966997
 20
603.0045006161699
 10
328.47845465301043
 20
603.0109194644783
 10
328.47750480990453
 20
603.0166185231146
 10
328.4761891807475
 20
603.0271435563704
 10
329.1211470992489
 20
608.5369581678592
 10
329.0405496348094
 20
609.959998737278
 10
327.2058926297618
 20
611.4024808780423
 10
320.2306001884008
 20
616.9080770348055
 10
317.9458654126238
 20
618.4387620670991
 10
311.77324898406596
 20
623.8833639457471
 10
308.6815706876464
 20
626.6387822601569
 10
303.8077785610935
 20
630.8552580981759
 10
303.80209471553417
 20
630.8609419437353
 10
303.797647627016
 20
630.8668713950929
 10
303.79318067621125
 20
630.8735718213002
 10
301.2330691616726
 20
636.4689579989554
 10
300.38653079554524
 20
637.8417144513851
 10
299.4151624154574
 20
639.4337944088852
 10
291.4514123244344
 20
644.7835932430726
 10
291.44585344254165
 20
644.7854462037035
 10
290.15802976757504
 20
645.9686489559772
 10
290.1539703460244
 20
645.9727083775279
 10
290.1477230884616
 20
645.9805174494813
 10
290.1437895329841
 20
645.987401171567
 10
290.1414085523047
 20
645.9921631329253
 10
287.8488922938045
 20
651.778192114411
 10
280.90903864650136
 20
657.9977406944513
 10
279.1295273958667
 20
658.7216818568781
 10
271.67003950195385
 20
660.6883178747194
 10
271.6660935360878
 20
660.6893043661858
 10
266.3388752078931
 20
662.7316261975193
 10
262.4096551176631
 20
663.6225016465337
 10
262.39575330266143
 20
663.626473593677
 10
262.38434851430384
 20
663.6343692163864
 10
259.63683506786765
 20
665.702483389774
 10
259.6324423102901
 20
665.7054118948254
 10
259.6242537670646
 20
665.7136004380509
 10
259.61800650950363
 20
665.7214095100021
 10
259.61407295402614
 20
665.7282932320877
 10
259.6075380389125
 20
665.741363062315
 10
259.605224016153
 20
665.7587182330117
 10
259.605224016153
 20
665.768596893548
 10
259.852297650687
 20
667.6511291208526
 10
259.852297650687
 20
672.7375392696172
 10
259.8530618167515
 20
672.7467092623888
 10
259.8559020744874
 20
672.7580702933342
 10
259.86023486020895
 20
672.7684689790658
 10
260.6375896479408
 20
674.0512249461931
 10
261.1442001525975
 20
679.6984954083664
 10
260.84434333126046
 20
680.8216155703308
 10
260.84121639952946
 20
680.8309963655238
 10
260.84121639952946
 20
680.8453633241129
 10
261.1817481191024
 20
686.6551134936485
 10
260.0240405063846
 20
688.3979777737895
 10
260.0206619937576
 20
688.4038901708868
 10
260.01699476963313
 20
688.4124470271777
 10
258.5688183842599
 20
693.6204770928357
 10
256.54048092555786
 20
697.9972371441527
 10
256.5390028090169
 20
698.0011787882622
 10
256.53631341307437
 20
698.0092469760893
 10
256.5340041010345
 20
698.0265668163902
 10
256.5355988214592
 20
698.0377298593635
 10
256.9631315291954
 20
700.5830476970036
 10
253.12996916365273
 20
703.282218490237
 10
243.9427292387104
 20
707.5207774783366
 10
243.93099991445752
 20
707.5270932683188
 10
243.91796501878116
 20
707.5401281639952
 10
243.9127687725845
 20
707.5479225332897
 10
243.8473440595426
 20
707.6580017844167
 10
243.84646017511432
 20
707.658885668845
 10
240.07074336794813
 20
714.5131564671451
 10
234.59321439922905
 20
720.0256584681797
 10
234.59089314997846
 20
720.0279797174303
 10
234.58599006959048
 20
720.0338634138957
 10
233.62909278464258
 20
721.4901205696947
 10
233.62425061553859
 20
721.4985943656266
 10
233.621542581634
 20
721.5067184673412
 10
233.34374327148998
 20
722.4328048621105
 10
231.1826725957535
 20
728.4792435789536
 10
231.1816078083407
 20
728.4840351223111
 10
230.52624545370327
 20
731.5210482005609
 10
228.30863591343223
 20
735.4296315466459
 10
228.30690683943067
 20
735.4319369786481
 10
225.31899918307317
 20
741.7824734591645
 10
224.9820200417039
 20
742.3991976718203
 10
224.4200557881145
 20
743.0759799382599
 10
217.90277436204315
 20
749.3557173671416
 10
217.89638050588746
 20
749.360832452066
 10
217.88848859360996
 20
749.3726703204825
 10
217.8835224400218
 20
749.3813610892612
 10
217.88065864073815
 20
749.3899524871126
 10
217.87732523340583
 20
749.4016194127757
 10
217.87732523340583
 20
749.4171015067709
 10
217.87858508075942
 20
749.4265503619231
 10
219.08874805698406
 20
754.0908301156578
 10
218.34528248501238
 20
756.3527786486165
 10
216.05729546808698
 20
760.5045488433166
 10
216.0551663122128
 20
760.5098717330025
 10
215.02252796174662
 20
763.3304098441745
 10
214.7425711638739
 20
764.3170814205546
 10
212.46461725724294
 20
770.2998961061326
 10
212.46132751573077
 20
770.3105877660469
 10
212.4602686628964
 20
770.3264705585602
 10
212.46124100720817
 20
770.334249313054
 10
212.46205854814298
 20
770.3399720995963
 10
212.46477185827007
 20
770.3494686850418
 10
212.46705086630664
 20
770.3547863704603
 10
212.47308875577755
 20
770.3678684643141
 10
212.48373261180313
 20
770.3785123203397
 10
214.0703364992737
 20
771.8292691300467
 10
212.33659621769766
 20
777.2723208457337
 10
211.19302140740183
 20
780.9307875260079
 10
211.19110566786367
 20
780.9365347446214
 10
211.19009109814533
 20
780.9436367326507
 10
210.7566796253468
 20
784.2350050187811
 10
206.81662500825678
 20
789.1386596520006
 10
202.7395574517409
 20
791.1682435230609
 10
202.7351934452513
 20
791.1701138115568
 10
202.72675592684573
 20
791.175738823827
 10
202.7182993354636
 20
791.1825040969325
 10
202.71088511376274
 20
791.1914011629738
 10
202.70607268843332
 20
791.1986198009677
 10
202.70299885139593
 20
791.2047674750424
 10
202.70025814522478
 20
791.2111624561085
 10
202.6975448350977
 20
791.220659041554
 10
202.69606653939536
 20
791.2310071114689
 10
202.69606653939536
 20
791.2410065284921
 10
202.6968354687201
 20
791.2471579630901
 10
202.69770060082737
 20
791.2523487557346
 10
203.38646857863387
 20
793.7943899461598
 10
202.0330681022706
 20
798.1822280884844
 10
200.02771113378412
 20
803.2730919750252
 10
199.26192200942887
 20
805.1496881839171
 10
199.26086507254058
 20
805.1523305261367
 10
197.53764203027276
 20
810.5027142152817
 10
196.0626761946328
 20
812.10186854212
 10
196.05841329006944
 20
812.1082628989648
 10
196.05487624189755
 20
812.1141579792511
 10
196.04931262036598
 20
812.1271397628248
 10
196.04768414119008
 20
812.1369106378806
 10
196.04680703730855
 20
812.1430503650513
 10
196.04680703730855
 20
812.153710536842
 10
196.04794414912703
 20
812.1616703195705
 10
196.2530740758716
 20
813.10488100569
 10
194.57818308822107
 20
819.1036505272032
 10
194.57673690137835
 20
819.1137738351031
 10
194.57673690137835
 20
819.1237732521254
 10
194.57739765614633
 20
819.1290592902692
 10
194.57844708603443
 20
819.1364052994873
 10
194.58115617033855
 20
819.1445325523987
 10
195.24121418228742
 20
820.8470633487432
 10
194.33342530365417
 20
826.0781095981897
 10
194.33251277408772
 20
826.0844973051553
 10
194.33251277408772
 20
826.0960345808271
 10
194.3342315465179
 20
826.1063472154092
 10
194.3358461814205
 20
826.1119984375678
 10
194.33804704788963
 20
826.1186010369752
 10
194.3422791065086
 20
826.1270651542127
 10
195.37442412971268
 20
827.7241340334308
 10
194.38365990155262
 20
833.0445758105348
 10
194.38316148261765
 20
833.0465694862733
 10
194.0401857279835
 20
835.6818829070462
 10
194.0401857279835
 20
835.6929500822444
 10
194.04213870353215
 20
835.7046679355358
 10
195.45376422026993
 20
840.0203567730682
 10
193.46497229086935
 20
843.0604011562605
 10
193.46025428472967
 20
843.0698371685398
 10
193.4566982600145
 20
843.0813942488644
 10
193.4556724589952
 20
843.0885748559999
 10
193.04210759299758
 20
846.9979145973043
 10
193.04210759299758
 20
847.002520977534
 10
193.0999303888584
 20
850.3364931655842
 10
193.0999303888584
 20
850.3450757546066
 10
193.1021923649987
 20
850.3541236591673
 10
194.0171700072865
 20
853.975656808796
 10
193.50760397955673
 20
856.988800272517
 10
193.5067142484604
 20
856.9950283901921
 10
193.5067142484604
 20
857.0021723244317
 10
193.69754399272097
 20
860.9451314330813
 10
193.69754399272097
 20
860.9531458602946
 10
193.70084005213948
 20
860.9655060831146
 10
194.49833836182916
 20
863.2228882014947
 10
193.02194714595134
 20
867.8936245483851
 10
193.02066411590658
 20
867.8987566685628
 10
193.01915124983225
 20
867.9078338650102
 10
193.01915124983225
 20
867.9174752344616
 10
193.31028009865759
 20
871.0898317175856
 10
193.0
 20
874.8817011040614
 10
193.0
 20
874.8889184102063
 10
193.00133615652567
 20
874.900943818936
 10
193.0048352547019
 20
874.9114411134651
 10
193.00633041046558
 20
874.914929810247
 10
194.14874227853534
 20
877.4531892712125
 10
194.89474802641053
 20
881.8669156147007
 10
194.8953370806148
 20
881.8710389941284
 10
194.8980503907419
 20
881.8805355795739
 10
194.9020947895633
 20
881.8899725101578
 10
194.9074065587297
 20
881.8986041350527
 10
194.91624162601602
 20
881.9096479691607
 10
194.92552416756644
 20
881.9166098753235
 10
194.93756401391738
 20
881.9246364395576
 10
194.9538402905414
 20
881.9289767799905
 10
194.96352869904922
 20
881.9303608383489
 10
577.1003148234054
 20
881.9303608383489
 10
577.4753338677092
 20
881.9303595218407
 10
577.4753336044232
 20
881.7803608382828
 10
493.66907912106444
 20
881.7803608382828
 10
494.0110655771905
 20
880.9593466719593
 10
497.1194616893008
 20
874.9283179618883
 10
503.2600831697264
 20
868.3364415781375
 10
503.26461404056045
 20
868.330903847118
 10
503.49706029473055
 20
867.9596185880732
 10
504.006949546304
 20
867.401964945092
 10
504.0122329879364
 20
867.3966815034596
 10
507.8755692158584
 20
860.9898813338291
 10
507.8762497573348
 20
860.9892007923527
 10
511.3353070404255
 20
854.9109316169888
 10
512.0142022757582
 20
854.0185291423813
 10
512.5203200085648
 20
853.3769986308498
 10
518.8146705035488
 20
847.0568904681732
 10
518.8202807420548
 20
847.0520816923108
 10
518.8286098429089
 20
847.0395880410301
 10
518.8316836799463
 20
847.0334403669553
 10
518.8345625613019
 20
847.0267229771257
 10
520.4820040902541
 20
841.0505172545049
 10
521.1472559984213
 20
840.0731775191803
 10
521.1480681167127
 20
840.0719593417434
 10
521.1540781446897
 20
840.0623432969801
 10
521.7967234978751
 20
837.8872991966077
 10
523.1595481030236
 20
833.0810829087977
 10
523.1617169734595
 20
833.0734918622716
 10
523.1627248145228
 20
833.0583742463264
 10
523.1617573935973
 20
833.0506348789213
 10
523.031259352877
 20
832.1301909619797
 10
523.3185550613634
 20
826.0916105086949
 10
523.3185550613634
 20
826.0828568761444
 10
523.3159294747343
 20
826.0688537474566
 10
522.9655957323471
 20
825.188631256201
 10
521.7986224343822
 20
819.4101858916401
 10
521.798125945736
 20
819.4067104711157
 10
521.7223964637046
 20
819.1553426071418
 10
521.721878141268
 20
819.1532693173949
 10
521.700420439156
 20
819.0943987145401
 10
521.6990642926662
 20
819.0903302750712
 10
521.6949503422688
 20
819.0821023742765
 10
521.6901142623265
 20
819.0745028200818
 10
518.1211410183623
 20
814.8676778279678
 10
516.8168061701122
 20
812.1203087560039
 10
515.956376346277
 20
809.5457964810344
 10
515.9542909717034
 20
809.5409306070292
 10
515.9524456558634
 20
809.5372399753492
 10
513.4778533025778
 20
805.1636669518521
 10
513.6010764344956
 20
804.3884044540159
 10
513.6018103578645
 20
804.3825330670647
 10
513.6018103578645
 20
804.3725336500447
 10
513.6003320621617
 20
804.3621855801266
 10
513.5976187520346
 20
804.3526889946811
 10
513.5951973347733
 20
804.3470390210709
 10
512.5349129190286
 20
802.106758960063
 10
511.68138758799887
 20
798.8397887235492
 10
511.6335060651877
 20
798.1996078106322
 10
511.63308579798695
 20
798.1962456730239
 10
510.70250829891074
 20
792.6074376179436
 10
510.5310959344024
 20
791.2320373754533
 10
510.5833938903611
 20
785.7381103584225
 10
510.5833938903611
 20
785.7321045427889
 10
510.3609864997943
 20
784.2640250973341
 10
510.99129363442216
 20
778.4689178426233
 10
510.99227996232594
 20
778.4620135472978
 10
510.9911346633894
 20
778.447124661126
 10
510.6915774826084
 20
777.2977960628805
 10
512.5347625522681
 20
771.902332714963
 10
513.1074949926337
 20
770.3647136799486
 10
514.5166600613197
 20
768.8713274432953
 10
514.5186206894487
 20
768.8689746895407
 10
514.5227415098343
 20
768.8638236640586
 10
514.5284751695067
 20
768.853789759632
 10
514.5335704263034
 20
768.8405420919598
 10
514.5361906309845
 20
768.8222006591923
 10
514.5348632484156
 20
768.8115815986393
 10
514.5340457074808
 20
768.8058588120971
 10
514.5313323973537
 20
768.7963622266516
 10
514.5291519037505
 20
768.7912744082441
 10
512.5372634517862
 20
764.3987727830718
 10
512.4252413894728
 20
763.4367767316571
 10
512.4289222834254
 20
763.3552629886813
 10
512.4289222834254
 20
763.3513328126892
 10
512.0352539406877
 20
756.7598868154068
 10
512.0352539406877
 20
756.751620355597
 10
512.0310623348578
 20
756.7369497351924
 10
512.0264773264648
 20
756.7262513822761
 10
512.0208523141928
 20
756.7178138638678
 10
512.017046135371
 20
756.7130561403401
 10
511.70119833952094
 20
756.3742807234007
 10
512.5109214552367
 20
755.1101283524567
 10
515.0725543432509
 20
754.5030901347309
 10
521.7329545439125
 20
753.7638060113504
 10
521.7408598794768
 20
753.7629276412122
 10
521.7497148319776
 20
753.7599759903787
 10
521.7526345511428
 20
753.7588810956918
 10
521.7605536795568
 20
753.7554871835141
 10
521.7696166197725
 20
753.7494452233705
 10
521.7743634197614
 20
753.7454895567134
 10
526.3448410122446
 20
749.4649101007212
 10
526.3553952938628
 20
749.4533963389558
 10
526.3605513591892
 20
749.4413655198609
 10
528.4606291190298
 20
744.4201424337266
 10
528.4632518392687
 20
744.4109629128907
 10
528.4640693802035
 20
744.4052401263484
 10
528.4647301349714
 20
744.3999540882046
 10
528.4647301349714
 20
742.4660570892556
 10
531.0326794773409
 20
738.9602515194692
 10
540.110668207959
 20
735.5435561852355
 10
540.2123698620971
 20
735.5264317241054
 10
543.1921302160308
 20
740.2151365538884
 10
543.1946174711766
 20
740.2192819791308
 10
543.2031789505913
 20
740.2295557544289
 10
543.2116355419757
 20
740.2363210275362
 10
543.2155106614314
 20
740.2389044405068
 10
546.8776687281147
 20
742.4872406337631
 10
547.1368666873091
 20
744.1845395146997
 10
547.1384157176353
 20
744.1907356360039
 10
547.140640141577
 20
744.197408907829
 10
547.1448309293551
 20
744.2064889480148
 10
547.1542991989345
 20
744.2206913523837
 10
547.1658236073495
 20
744.2301204138143
 10
547.1786166032434
 20
744.238649077744
 10
547.1999736942221
 20
744.2447511037376
 10
547.2196810689275
 20
744.2447511037376
 10
549.5144076950332
 20
743.6729693085495
 10
556.8901856030666
 20
743.9282208709483
 10
556.8994284937557
 20
743.9282208709483
 10
556.9085096084395
 20
743.926274917802
 10
558.7879688042954
 20
743.4526328047182
 10
558.7935935021328
 20
743.4507579054389
 10
558.7994639336866
 20
743.4482420062018
 10
560.5565915426987
 20
742.5065751022485
 10
560.5659977686169
 20
742.5007866555293
 10
560.5751614358919
 20
742.4916229882542
 10
560.5814086934529
 20
742.483813916303
 10
560.5853422489304
 20
742.4769301942174
 10
560.5873015710354
 20
742.4730115500079
 10
561.4105800659736
 20
740.538452438796
 10
565.1267312735163
 20
735.5156079168923
 10
565.1297004873759
 20
735.5116489650795
 10
568.0908165217193
 20
730.1580889534348
 10
569.3059213970346
 20
728.5434660489473
 10
569.3097003120356
 20
728.5377976764457
 10
569.3151097158493
 20
728.5269788688183
 10
569.3197064610749
 20
728.5101241363241
 10
569.3197064610749
 20
728.4943071605408
 10
569.1927598563275
 20
727.6745958999904
 10
569.3108741887982
 20
721.530077595291
 10
569.3108741887982
 20
721.5252029246294
 10
569.3098583814863
 20
721.5160606588206
 10
569.3079725491361
 20
721.508517329421
 10
569.0711135418346
 20
720.7883956671976
 10
569.0711135418346
 20
720.7873672124556
 10
568.0978682883342
 20
718.0744941827975
 10
568.0970018607836
 20
718.0723281139217
 10
566.9436468415042
 20
715.3942199048333
 10
566.9425552760072
 20
715.3920367738388
 10
566.5001523501601
 20
714.5248212893875
 10
566.4990651371845
 20
714.5226468634364
 10
564.1261023684006
 20
710.532566237242
 10
564.123225929709
 20
710.5282515792046
 10
564.115986924839
 20
710.5192028231168
 10
564.1093792501188
 20
710.5139166833405
 10
560.363641828299
 20
707.538338711996
 10
559.9104930021513
 20
706.7417334338961
 10
559.9076515080956
 20
706.7360504457847
 10
559.8995213938529
 20
706.7261136394882
 10
558.8173555708058
 20
705.6854813175905
 10
558.8140416128936
 20
705.6826407822373
 10
555.4546569240897
 20
703.1316036048192
 10
555.5333130135855
 20
700.6184869525582
 10
555.5333130135855
 20
700.6127434485925
 10
555.0306664442924
 20
696.5035935158894
 10
555.0298107791768
 20
696.4988873577545
 10
554.2991307023776
 20
693.628090760687
 10
553.5401274851088
 20
690.6460143054951
 10
553.5369229199309
 20
690.6339971860784
 10
550.9283811940481
 20
686.6367332835184
 10
550.9281984052718
 20
686.6364134031596
 10
550.9188238725387
 20
686.6223516040604
 10
550.9062265767143
 20
686.6136303992589
 10
550.1929932471999
 20
686.1476073353101
 10
549.5712588874217
 20
685.1048556532373
 10
549.5703216278762
 20
685.1032154490326
 10
549.5631646862566
 20
685.0924800366033
 10
546.2082461295063
 20
682.2127288197098
 10
546.3392936648956
 20
679.7071031063906
 10
546.3392936648956
 20
679.6994076548308
 10
546.3377041217541
 20
679.6890756244097
 10
546.3351020590658
 20
679.6799684050011
 10
546.3323613528946
 20
679.6735734239351
 10
546.3301661078922
 20
679.6691829339306
 10
544.4682280837878
 20
676.532798052865
 10
544.45990536103
 20
676.5213543090726
 10
540.29220965892
 20
673.2889643916342
 10
540.2872244878172
 20
673.2849762547521
 10
540.2755140419322
 20
673.2787306836135
 10
540.2631001279315
 20
673.2745927122801
 10
540.255754118713
 20
673.2735432823915
 10
540.2504680805691
 20
673.2728825276236
 10
540.2402921845342
 20
673.2728825276236
 10
539.2615310906494
 20
673.4173844561592
 10
538.617251922904
 20
672.6857477967137
 10
538.6135413676607
 20
672.6812951304219
 10
538.6077273869341
 20
672.6764501464831
 10
538.603976017429
 20
672.6734490508793
 10
534.5320843725967
 20
670.082213308604
 10
534.6914921870916
 20
665.7947765344511
 10
540.2860884248303
 20
659.8627338768765
 10
543.8426855286161
 20
658.8648228780253
 10
543.8487190273959
 20
658.8628117117655
 10
549.542554283074
 20
656.1614719701824
 10
549.5469549227
 20
656.1587215704158
 10
556.0411493574711
 20
651.8924082546473
 10
558.781575187621
 20
651.2563215595419
 10
558.7867452227915
 20
651.2554598870133
 10
558.8049626887155
 20
651.2484531693503
 10
558.8198966998193
 20
651.2363192853286
 10
564.0928630968392
 20
644.8960761201201
 10
564.0996754276721
 20
644.8854791610461
 10
564.1025377602059
 20
644.8778462742898
 10
566.1379823386569
 20
639.3830089375824
 10
566.7217759709138
 20
637.9067246622271
 10
566.7236497655404
 20
637.9011032783469
 10
566.7249245521989
 20
637.8953667383848
 10
566.7253979332363
 20
637.8925264521595
 10
566.7269859377407
 20
637.8814104206281
 10
566.7248935001899
 20
637.8657171389978
 10
566.7229416297846
 20
637.8588855925786
 10
566.7214068311828
 20
637.8542811967732
 10
564.7866646726789
 20
633.3742443425526
 10
564.7838459289619
 20
633.3667276926403
 10
564.7764895867458
 20
633.3564288135381
 10
564.77107833522
 20
633.3499353117068
 10
561.9601791693481
 20
630.8572878824807
 10
560.7075212107038
 20
629.4351882953151
 10
560.7000003578796
 20
629.4289209179615
 10
560.6945175366345
 20
629.4252657037978
 10
560.6904672975511
 20
629.4229512814645
 10
560.6838786613403
 20
629.4196569633591
 10
558.7962454453727
 20
628.7879130223446
 10
554.930381352207
 20
626.7849819682583
 10
554.9242354219359
 20
626.7821453850561
 10
549.5277898616064
 20
625.12621498407
 10
549.5214962204554
 20
625.1244168008843
 10
548.1127769576306
 20
624.9495518106396
 10
547.3481047524529
 20
623.8961607081683
 10
544.9332603730636
 20
620.4248718440831
 10
543.4880213221022
 20
616.9405903224483
 10
543.4861413369304
 20
616.9358903595198
 10
542.5144126216369
 20
615.2694373368308
 10
542.5100400995193
 20
615.2628785536544
 10
542.5027611864107
 20
615.254871749235
 10
542.4967112747863
 20
615.2498301562146
 10
540.2911420678652
 20
613.6644864826994
 10
540.2864464641439
 20
613.6607299997222
 10
540.2773684717654
 20
613.656191003533
 10
540.2724753380685
 20
613.6540939462343
 10
540.2639332087047
 20
613.6512465697797
 10
540.2561125480406
 20
613.6499431263355
 10
540.2475866115174
 20
613.6489958000552
 10
534.8381861386165
 20
613.9910888300378
 10
531.0169123389687
 20
614.114271347712
 10
528.740441850262
 20
611.6815361829458
 10
527.3639876533784
 20
609.9628745893074
 10
526.3644068103304
 20
606.5406844188428
 10
526.3640648273413
 20
606.539316486886
 10
526.359977831055
 20
606.527055498027
 10
526.3532517669114
 20
606.5169664018117
 10
526.3462898607486
 20
606.5076838602613
 10
526.3363133424846
 20
606.4997026456504
 10
526.3287405742126
 20
606.4946541334689
 10
526.3224951565753
 20
606.491771633021
 10
526.3156000352933
 20
606.488816581043
 10
521.7655859389783
 20
605.410056586581
 10
520.497381570719
 20
603.941658705925
 10
520.4912833279072
 20
603.9355604631132
 10
520.4845920271259
 20
603.9306940625452
 10
518.9815415704093
 20
602.9776305663913
 10
517.5606497842332
 20
599.219317703667
 10
517.5579445520953
 20
599.2112020072527
 10
517.5501508766079
 20
599.1995114940219
 10
517.543221153303
 20
599.1911958260557
 10
517.5374071725764
 20
599.186350842117
 10
517.5342800635244
 20
599.1838491548756
 10
517.5262637733063
 20
599.1785049613964
 10
512.4938413810764
 20
596.941494742704
 10
511.69276130450453
 20
596.6060541700576
 10
511.6923168158032
 20
596.6056096813563
 10
510.1466600402182
 20
595.9874634057032
 10
505.713288683482
 20
594.118453586133
  0
LWPOLYLINE
  5
93
330
17
100
AcDbEntity
  8
CORTE
100
AcDbPolyline
 90
219
 70
1
 10
477.1972227761339
 20
600.417761891993
 10
482.41847359815347
 20
598.8803852488081
 10
485.2452013941911
 20
598.0985739019561
 10
489.01558645124896
 20
598.531450940874
 10
491.0013311693383
 20
599.1503915800395
 10
493.1776449528552
 20
600.5456365505866
 10
498.7412509352289
 20
602.5790089110137
 10
500.1077603701083
 20
603.055164589025
 10
500.62874583278654
 20
603.2641501897178
 10
505.9519427151977
 20
605.3930279453807
 10
509.03460012879714
 20
606.6841199155647
 10
509.3945734963363
 20
607.6362631756101
 10
514.1072171463516
 20
610.6282087147156
 10
517.8676434549011
 20
614.9822404149991
 10
518.3622839004411
 20
615.1162928057784
 10
520.8484625380815
 20
618.2205731727586
 10
523.5385125814755
 20
621.0974905697617
 10
524.8533108555876
 20
623.4325898444044
 10
529.7822315772319
 20
625.4452492856194
 10
534.9134574330387
 20
625.2051883978647
 10
535.3846861753764
 20
626.3412590003695
 10
536.5048002685712
 20
627.9513998489465
 10
540.9114163034092
 20
634.0218311941398
 10
548.0553092812488
 20
634.909631010727
 10
549.5219089166503
 20
635.360190621906
 10
552.4820859164538
 20
636.8938788984751
 10
553.4782414136348
 20
637.5488677734338
 10
554.3774055781969
 20
638.2275162862247
 10
555.0141704084417
 20
638.79355770138
 10
554.3945270981917
 20
640.3604978403359
 10
553.630984900266
 20
640.5377254185864
 10
547.9526249843261
 20
642.762595002765
 10
543.870844729166
 20
643.0479528651417
 10
540.4690656188445
 20
641.4141299657267
 10
538.2584287928648
 20
639.5191514317153
 10
532.6729867250579
 20
626.176253995015
 10
518.2185055095915
 20
645.669635897948
 10
525.2918945098431
 20
652.3378995909661
 10
527.9049219134758
 20
653.3055588345965
 10
527.8334431892308
 20
653.4485166404584
 10
527.1353346729084
 20
654.9245398399771
 10
525.5917478623687
 20
656.6430145698491
 10
521.2041009524164
 20
662.6933032714701
 10
519.7099364361889
 20
667.9660177305768
 10
519.5348185189127
 20
672.1962671600304
 10
518.8117565569105
 20
678.4113554027613
 10
523.2090013009829
 20
684.3177978865228
 10
523.4872737995015
 20
684.5819345597142
 10
524.2437428589992
 20
687.0039097468916
 10
523.5010018823914
 20
693.2353409273155
 10
523.5010018823914
 20
696.5897713168306
 10
529.1518919795394
 20
703.3185195820811
 10
537.1629643982969
 20
699.4346394343388
 10
538.2848385402272
 20
698.4044619839965
 10
538.5251514628094
 20
699.9980417660204
 10
540.7435479020487
 20
702.561746351249
 10
539.9622646401876
 20
708.0673233489415
 10
542.5689144657131
 20
717.2535778310644
 10
538.2089403769783
 20
716.4756859683375
 10
528.6474711890523
 20
716.8436745633308
 10
520.1467406611641
 20
722.9152071833273
 10
517.068181406315
 20
725.2325068627242
 10
511.0619665883369
 20
731.7027872773388
 10
508.5104025976252
 20
738.0782562346976
 10
508.19470132760625
 20
738.9483129106598
 10
506.5221631466752
 20
740.9504035978957
 10
504.0238811758636
 20
746.6180381138706
 10
503.1929659959096
 20
748.5016532220075
 10
497.65092681662054
 20
757.1539713198677
 10
502.1184764657196
 20
761.9864095391963
 10
502.2031816448107
 20
763.4059861287069
 10
502.0774208281259
 20
766.1909712491147
 10
502.5849632523723
 20
770.5556917289477
 10
502.5470244180683
 20
771.3079466827585
 10
500.59484525398375
 20
777.0224629848735
 10
501.55891747698433
 20
780.7387635708983
 10
501.15948124808256
 20
784.4112204744183
 10
501.6536582271242
 20
787.6799285788488
 10
501.6160246596469
 20
791.6333540869828
 10
502.0268987556856
 20
794.9301777026285
 10
502.71090836146413
 20
799.0414277506684
 10
502.8869571659138
 20
801.3952184768868
 10
504.1362716696076
 20
806.1813295380357
 10
504.21369976271035
 20
808.5797310083371
 10
506.6304163495324
 20
811.9053368618124
 10
507.69439064482094
 20
813.7868712907039
 10
508.0130480575258
 20
814.7403336159186
 10
510.4953720484177
 20
819.9689450942692
 10
512.7747304099848
 20
822.6614063380221
 10
512.8993737757496
 20
823.003563830935
 10
514.0891841566304
 20
826.9618268986501
 10
513.7739228724517
 20
832.1085125276086
 10
513.7320411293526
 20
832.3000412869937
 10
512.3293281699598
 20
837.0379170907131
 10
509.0934130017481
 20
841.7918883837001
 10
508.64266927142853
 20
843.4079253485074
 10
507.27512619054005
 20
844.7810646732437
 10
503.3698067467344
 20
849.731259890842
 10
498.20416690639604
 20
856.5214530407247
 10
497.675435452335
 20
857.4497449200312
 10
497.21918782021476
 20
858.2063674955493
 10
494.03576526893403
 20
863.8661432810927
 10
488.35688502232506
 20
870.2276750386504
 10
487.5396867652257
 20
871.5693181306697
 10
487.130309394121
 20
872.4165174880277
 10
486.08350105452837
 20
874.9296125560736
 10
203.19765002932672
 20
874.9247378171899
 10
203.01404277665324
 20
873.8384296080517
 10
202.94472311508525
 20
873.6813537353992
 10
203.3433984540975
 20
868.8092242637272
 10
203.33196501926386
 20
868.6769233950176
 10
204.30178619225717
 20
865.6087806466935
 10
205.05717007929206
 20
862.1553570146784
 10
205.2417187522842
 20
860.8091485669315
 10
205.09858191429566
 20
854.4973645516925
 10
205.28260508172343
 20
853.4589294126067
 10
204.37198544066905
 20
848.5779199209996
 10
203.92927081487824
 20
846.8197278506368
 10
204.49737305512508
 20
841.449579543756
 10
204.68167348421366
 20
839.3277237189372
 10
204.07669608388915
 20
837.2752382114868
 10
203.97324989761773
 20
837.0919643067482
 10
202.8947085350037
 20
833.7845196538024
 10
204.5044228873585
 20
825.140292050452
 10
204.30406968964826
 20
824.7901856377403
 10
204.43924887036792
 20
824.0112285884175
 10
205.0246956830165
 20
820.1667731066859
 10
205.09799202449994
 20
819.6902371593005
 10
206.1373911693836
 20
813.3315904487049
 10
206.31787579163074
 20
812.3473485890868
 10
207.86360442440218
 20
807.5486211991297
 10
209.4408433546455
 20
803.6835354948894
 10
210.6949044862249
 20
800.4999354542997
 10
212.40258141844697
 20
794.9635032534538
 10
218.72677244581882
 20
787.0926355507004
 10
219.48207631307696
 20
781.3690763110726
 10
220.10420326125313
 20
779.3787992515286
 10
223.2521843998593
 20
769.4957594908874
 10
224.9408692234615
 20
766.8703777598935
 10
226.9870660710876
 20
763.0603586362267
 10
229.1369671856005
 20
759.1591584533762
 10
231.23757597011218
 20
752.768184698069
 10
236.5630261943693
 20
746.9846588357022
 10
238.23686573823898
 20
744.9407451658444
 10
239.27458260098592
 20
744.8284619506248
 10
243.48602117233168
 20
747.6170180765102
 10
255.36105820793637
 20
741.4338663937406
 10
257.32672512125964
 20
740.1122696881612
 10
267.37141378358365
 20
731.7440283226265
 10
267.37141378358365
 20
724.8564767707444
 10
272.36034226266383
 20
716.9860820806666
 10
272.96315415681283
 20
712.5171435076841
 10
273.1082934984388
 20
710.3924625102572
 10
277.4513811034735
 20
705.4885542447478
 10
278.81638021612207
 20
702.8286898182719
 10
279.19151984121436
 20
700.6178125283636
 10
278.81433495140027
 20
692.9523822290898
 10
278.73761731297145
 20
692.4494181797527
 10
278.5011029882812
 20
690.8987267795678
 10
277.8030032919546
 20
687.7075852971802
 10
278.10561710971615
 20
686.6915908421975
 10
276.1956304969249
 20
680.1745688446385
 10
276.06460970283797
 20
678.6624009030511
 10
275.04710676846844
 20
674.0075975663781
 10
274.8112556747137
 20
672.5940451347933
 10
275.0436261537611
 20
670.7741052065844
 10
276.09641920692866
 20
670.496544499048
 10
283.23922787252786
 20
668.493502134837
 10
292.2826622478001
 20
664.6782878564677
 10
295.5490229416487
 20
661.5548195471201
 10
298.8784181823589
 20
656.5567765702563
 10
304.22879078470805
 20
652.2920685103436
 10
306.7135937454982
 20
649.543458965185
 10
312.3494208268353
 20
643.5449655595626
 10
313.5960177278612
 20
641.5017840211394
 10
314.48552957671745
 20
640.0593412697062
 10
317.74263570136145
 20
635.5875513393239
 10
321.7675802931949
 20
632.0095432020039
 10
326.25054763949447
 20
630.0895738248901
 10
331.76851407168033
 20
626.6106768468417
 10
335.85016684279753
 20
622.041735633089
 10
341.4119792725951
 20
617.6919489848929
 10
344.1969343970645
 20
614.2203137736492
 10
348.21200435928904
 20
608.7709324486927
 10
348.22976192411124
 20
608.5050529760015
 10
352.9804155835045
 20
609.1112896065792
 10
353.7159376839627
 20
609.4009771153701
 10
359.1069632234794
 20
611.8814430875877
 10
362.88486415230955
 20
612.6974150314645
 10
367.4814036336511
 20
613.6160837995567
 10
372.15609263428405
 20
614.1832077035228
 10
372.90901056761004
 20
614.403998743946
 10
374.7351924300915
 20
615.7864374906976
 10
378.3960918297548
 20
617.8843235591885
 10
380.07099788048754
 20
618.2860018692359
 10
382.1159086514176
 20
619.5958397022405
 10
384.30832833156137
 20
621.8379220066554
 10
385.9813897476088
 20
623.5111630326442
 10
389.52279858478687
 20
625.9994429683388
 10
394.75777331737163
 20
626.6246379683562
 10
399.06943974170326
 20
629.7872593708539
 10
402.6111106086364
 20
629.7872593708539
 10
412.1333071837453
 20
630.2190154459236
 10
416.484785432478
 20
627.9695738140863
 10
422.89103452088284
 20
625.5469006916192
 10
426.6453643765858
 20
623.2905738771656
 10
431.00092655665094
 20
621.8266865092723
 10
434.5412575229975
 20
621.0143838082722
 10
441.1999892825256
 20
618.6189716507156
 10
447.1832026443376
 20
615.4175580983338
 10
451.5013983162371
 20
609.9133569245664
 10
451.63144555228564
 20
609.8893611089161
 10
457.4157628104467
 20
609.3095914804235
 10
464.205907560317
 20
611.0631782617993
 10
469.6768340854892
 20
610.5866889148115
 10
472.37044322386737
 20
607.2856781924897
 10
475.742256760735
 20
602.7539923100026
 10
475.00206572053503
 20
600.9364014713738
 10
477.1972227761339
 20
600.417761891993
  0
LWPOLYLINE
  5
94
330
17
100
AcDbEntity
  8
GRABADO
100
AcDbPolyline
 90
615
 70
1
 10
466.43578022473594
 20
595.7675963739352
 10
466.1535457005334
 20
595.7821529931343
 10
466.14513141476846
 20
595.7834474986366
 10
466.13153733055333
 20
595.7873315226984
 10
465.780264676775
 20
595.9922950552018
 10
465.77736336599446
 20
595.9940358416702
 10
456.87336859833385
 20
602.3288821319561
 10
450.64561994229734
 20
602.9530974651589
 10
450.6425528691925
 20
602.9535356184592
 10
447.6279664750987
 20
603.5099032727708
 10
447.6227793940652
 20
603.5106442843467
 10
447.60683525139166
 20
603.5159589985715
 10
447.5951447381635
 20
603.523752674057
 10
447.5894533951582
 20
603.5284954598947
 10
447.5837928128494
 20
603.5341560422034
 10
442.58376148242814
 20
609.939514423108
 10
438.34884657636803
 20
612.205473056637
 10
432.5667120089606
 20
614.2855381410395
 10
429.09854380118986
 20
615.0812836319201
 10
429.0950299277265
 20
615.0824549230747
 10
423.6928009033195
 20
616.8981326206658
 10
423.6859449512722
 20
616.9007036026837
 10
423.6799849004824
 20
616.9041093459919
 10
419.82541886048693
 20
619.2224030338589
 10
413.62999618153117
 20
621.5653472121921
 10
410.5810863503457
 20
623.1414425788607
 10
402.7697263603368
 20
622.7872593708539
 10
401.36146126615813
 20
622.7872593708539
 10
397.41454652975153
 20
619.8921845225886
 10
397.41099737893364
 20
619.8898184220434
 10
397.40230661015494
 20
619.8848522684552
 10
397.3879585816544
 20
619.8800695922887
 10
392.1040740367007
 20
619.2579730850966
 10
390.50228458157517
 20
618.1325168766652
 10
389.28592274201264
 20
616.9160244557165
 10
386.5631460013169
 20
614.1315714586581
 10
386.55663548649454
 20
614.1260625615005
 10
382.85202189963957
 20
611.7544649264546
 10
382.8409695577252
 20
611.7493071668946
 10
382.833577948702
 20
611.7474592646386
 10
381.005143851658
 20
611.3115440516672
 10
378.60361921557796
 20
609.9353453291255
 10
376.11055652606774
 20
608.0480708298728
 10
376.10284555469343
 20
608.0424628506917
 10
376.0908513043578
 20
608.0374652463852
 10
373.57206605645797
 20
607.3036657266316
 10
373.56682361622006
 20
607.3027919865917
 10
373.5651725046805
 20
607.3025561135146
 10
368.59049687396464
 20
606.699311733827
 10
364.3098076598576
 20
605.8437691016202
 10
361.33532687963316
 20
605.2013242863677
 10
356.4636447718326
 20
602.9598135372007
 10
356.4617571307426
 20
602.9588697166555
 10
355.5466594230302
 20
602.5986562026669
 10
355.0716180014042
 20
602.3213844662964
 10
355.06343902724257
 20
602.316710766775
 10
355.0492148661642
 20
602.312646720753
 10
347.8451282987294
 20
601.3992034187281
 10
345.7817252294544
 20
601.2340615311223
 10
345.77608391331114
 20
601.2332556288161
 10
345.7586616936783
 20
601.2345000730757
 10
345.74708508397407
 20
601.2383589429769
 10
341.62574423165097
 20
602.9583626870235
 10
341.6214734736236
 20
602.9601930118924
 10
341.6126731256677
 20
602.9652217821531
 10
341.60752210018563
 20
602.9693426025387
 10
341.5996894018872
 20
602.9758698511205
 10
341.5905978180722
 20
602.9884581979413
 10
341.58549409558736
 20
602.9986656429114
 10
341.5819477000332
 20
603.0093048295739
 10
341.5807287511102
 20
603.0166185231119
 10
341.5802703796862
 20
603.0202854945046
 10
341.3638021118413
 20
606.2646055663195
 10
338.64672686902304
 20
609.9523069578322
 10
336.4599326763255
 20
612.6782940491171
 10
331.0459120558553
 20
616.9124955626039
 10
331.0411873305079
 20
616.9172202879513
 10
327.20338992534244
 20
621.213757505092
 10
322.98569636460024
 20
623.8728750555747
 10
317.96657914248226
 20
626.0224671944884
 10
317.9586896133551
 20
626.0247213456678
 10
317.945878055858
 20
626.0338724581657
 10
317.9427895720737
 20
626.0364461946524
 10
312.5283530340889
 20
630.8568237488366
 10
312.52294975734367
 20
630.8627673532569
 10
308.6687333282498
 20
636.1558247255275
 10
307.62909491935943
 20
637.8417144513851
 10
306.75143166038833
 20
639.2802110224952
 10
301.5660064186418
 20
644.7993191620913
 10
301.5654966928878
 20
644.7998288878453
 10
299.41909403383715
 20
647.17416496138
 10
293.65942538207446
 20
651.765117245865
 10
293.6537831628498
 20
651.7702465360694
 10
293.6478746341918
 20
651.777336770459
 10
290.1521041226474
 20
657.0302603487144
 10
288.37540703951845
 20
658.7292328611238
 10
280.9245817330366
 20
661.8725624763251
 10
274.2590059076665
 20
663.7417754687408
 10
271.67003950195385
 20
664.4243363435448
 10
271.6660935360878
 20
664.4253228350112
 10
268.3532477378071
 20
665.6953847849518
 10
268.34818847005545
 20
665.698109006049
 10
268.33864727298896
 20
665.7035611186584
 10
268.32563203513064
 20
665.7165763565167
 10
268.31542019959625
 20
665.7327450961134
 10
268.31212060053986
 20
665.7442936928101
 10
268.310879148029
 20
665.7492595028539
 10
268.3095782026853
 20
665.7583661202589
 10
268.3095782026853
 20
668.246077892115
 10
267.7371142330121
 20
672.7296510212818
 10
267.7371142330121
 20
672.739089007333
 10
267.73788720073935
 20
672.7452727491509
 10
268.1712920035916
 20
675.3318566484504
 10
268.1712920035916
 20
675.3337216102286
 10
269.12969885040957
 20
679.7163112163603
 10
269.2819781805729
 20
681.473833164262
 10
269.2839023522952
 20
681.4810488082203
 10
270.80648523912623
 20
686.6755691185817
 10
270.5788717941259
 20
687.4397576137089
 10
270.57799464427217
 20
687.4458976626843
 10
270.5773338895042
 20
687.4511837008281
 10
270.5773338895042
 20
687.4640133084613
 10
271.61492261430703
 20
692.1757355371196
 10
271.8176486975708
 20
693.5048964423713
 10
271.84038857781934
 20
693.6539800492897
 10
272.1624622781278
 20
700.1993999948281
 10
272.0956366998371
 20
700.5932350992684
 10
271.62628351460035
 20
701.5078260534283
 10
266.28707519825866
 20
707.5364835834839
 10
266.28627628924596
 20
707.5372824924966
 10
266.27852573757855
 20
707.5465831544975
 10
266.27364724104336
 20
707.5563401475679
 10
266.2715501837447
 20
707.5612332812648
 10
266.26842511369887
 20
707.5706084914032
 10
266.26705643656214
 20
707.5801892313584
 10
265.99514865617857
 20
711.8099684267513
 10
265.62794681747846
 20
714.532214747645
 10
262.37931653853775
 20
719.6571634424627
 10
256.89101707851796
 20
721.4589978304148
 10
256.87940265421776
 20
721.4639754408295
 10
256.86469766663686
 20
721.4752204313322
 10
256.8560849263563
 20
721.485986356683
 10
256.84912430873055
 20
721.4972973603249
 10
256.8454750551323
 20
721.5082451211197
 10
256.8446111134931
 20
721.5117008876764
 10
256.84082628841725
 20
721.528101796338
 10
256.8447377859784
 20
721.5476592841442
 10
256.8470281586592
 20
721.5551029953558
 10
256.8494694645401
 20
721.5607993757449
 10
256.8540084607289
 20
721.5698773681224
 10
256.8594404662731
 20
721.5766673750527
 10
256.8655288300174
 20
721.5839734115461
 10
256.8742025351935
 20
721.590478690428
 10
256.8798197561746
 20
721.5942235044154
 10
256.886133298799
 20
721.5973802757276
 10
260.37141378358365
 20
723.0707326557163
 10
260.37141378358365
 20
728.4648187350176
 10
253.12253218612204
 20
734.5038701060439
 10
251.78061729342744
 20
735.4060933104602
 10
243.91157756115354
 20
739.5033829539793
 10
241.03296631690182
 20
737.5973432758001
 10
241.02266108453614
 20
737.5921906596172
 10
241.01039697355918
 20
737.5886866279093
 10
240.99589547001779
 20
737.5868739399671
 10
234.63604110570395
 20
738.289504457734
 10
234.62981196544797
 20
738.2905426477764
 10
234.62115704854796
 20
738.2930154811766
 10
234.61045869563168
 20
738.2976004895695
 10
234.59963438695104
 20
738.3048166953563
 10
234.59138292848638
 20
738.3125180565899
 10
231.27599780740002
 20
742.3924296478281
 10
225.33224568341575
 20
748.8474414648535
 10
224.8017532302938
 20
749.3585983561738
 10
224.79600975873473
 20
749.3643418277329
 10
224.78807068425522
 20
749.3762504394526
 10
224.78412932473475
 20
749.3854469449998
 10
224.781004254688
 20
749.3948221551404
 10
224.77995482479946
 20
749.402168164359
 10
224.77893456089305
 20
749.4103302756098
 10
224.7799999101585
 20
749.4241798160615
 10
224.7816141227272
 20
749.4306366663354
 10
224.8630225958077
 20
749.7444058860469
 10
222.69095830515835
 20
756.3527786486165
 10
220.83808339284542
 20
759.7149965189728
 10
220.83778953919864
 20
759.7152903726196
 10
218.9044173537095
 20
763.3154832445975
 10
216.06246845625446
 20
767.7338333188768
 10
216.0589902399347
 20
767.7390506433567
 10
216.05567068293112
 20
767.7467962763644
 10
215.08330919404943
 20
770.300605016058
 10
215.08149919335892
 20
770.3069400184736
 10
215.07812691786876
 20
770.3246444647975
 10
215.08159387792375
 20
770.3419792650725
 10
215.08373371220068
 20
770.3494686850418
 10
215.08647441837184
 20
770.3558636661078
 10
215.0883910442435
 20
770.3596969178511
 10
215.092324599721
 20
770.3665806399367
 10
215.09962358753955
 20
770.37570437471
 10
215.506790089898
 20
770.7480087543008
 10
213.42864288988312
 20
777.2723208457337
 10
212.62108346977448
 20
779.8558240885568
 10
212.620790952913
 20
779.8567016391416
 10
212.61882226616308
 20
779.8635920427655
 10
212.04318916423108
 20
784.2350050187811
 10
206.81662500825678
 20
790.7398045786899
 10
205.95596852347308
 20
791.1682435230609
 10
205.95160451698348
 20
791.1701138115568
 10
205.9431669985779
 20
791.175738823827
 10
205.93471040719578
 20
791.1825040969325
 10
205.9286306996746
 20
791.1897997459582
 10
205.92341996366213
 20
791.1967473939749
 10
205.91940992312811
 20
791.2047674750424
 10
205.91666921695696
 20
791.2111624561085
 10
205.91395590682987
 20
791.220659041554
 10
205.91247761112754
 20
791.2310071114689
 10
205.91247761112754
 20
791.2410065284921
 10
205.9132465404523
 20
791.2471579630901
 10
205.91411167255956
 20
791.2523487557346
 10
206.05802210920365
 20
791.783480093819
 10
204.0843694120872
 20
798.1822280884899
 10
202.9435742888013
 20
801.0782873868297
 10
201.28214364297037
 20
805.1496881839166
 10
201.28108670608208
 20
805.1523305261367
 10
199.51502636587475
 20
810.6357184605631
 10
199.51396544833233
 20
810.6404925895022
 10
199.23999212839544
 20
812.1355703924614
 10
198.18436267288007
 20
818.5935079402857
 10
198.1840730172753
 20
818.5937975958905
 10
198.10526291498581
 20
819.1077747823019
 10
197.52993999569935
 20
822.885749660687
 10
196.97594205538962
 20
826.0781095981897
 10
196.97502952582317
 20
826.0844973051553
 10
196.97502952582317
 20
826.0960345808271
 10
196.97674829825337
 20
826.1063472154092
 10
196.97836293315595
 20
826.1119984375678
 10
196.98133369556035
 20
826.120910724781
 10
196.98610934010048
 20
826.1290975439929
 10
197.15211873211683
 20
826.3859688437487
 10
195.91216350500417
 20
833.0445758105348
 10
195.9116650860692
 20
833.0465694862733
 10
195.7346970139056
 20
834.4063342198433
 10
195.7346970139056
 20
834.417401395041
 10
195.73664998945424
 20
834.4291192483324
 10
197.5344076976794
 20
839.9253098328613
 10
197.53779115342377
 20
839.9320767443496
 10
197.58811323493637
 20
840.0204590488347
 10
197.59354700612812
 20
840.0388940128778
 10
197.52931049189556
 20
840.7784507386241
 10
196.87136006867877
 20
846.9979145973043
 10
196.87136006867877
 20
847.002520977534
 10
196.8798347571642
 20
847.4911582924547
 10
196.8798347571642
 20
847.498740876706
 10
196.88185504153353
 20
847.5078321563683
 10
197.5306740298547
 20
850.0758943315714
 10
198.16783372161171
 20
853.4911320037286
 10
198.08461284202212
 20
853.9607439926936
 10
198.08368140829452
 20
853.9672640287881
 10
198.08368140829452
 20
853.9734515218124
 10
198.2308814801636
 20
860.4106283489737
 10
198.15965583769002
 20
860.9301908039042
 10
197.53142876117045
 20
863.802285734127
 10
196.2381815645972
 20
867.8936245483851
 10
196.2368985345529
 20
867.8987566685628
 10
196.2353856684781
 20
867.9078338650102
 10
196.2353856684781
 20
867.9174752344616
 10
196.31869176241798
 20
868.8252403984502
 10
195.8231052762494
 20
874.8817011040614
 10
195.8231052762494
 20
874.8889184102063
 10
195.82444143277507
 20
874.900943818936
 10
195.82815474968493
 20
874.912083769666
 10
196.25744044856083
 20
875.8658890627335
 10
197.27173085818822
 20
881.8669156147007
 10
197.2723199123925
 20
881.8710389941284
 10
197.2750332225196
 20
881.8805355795739
 10
197.279077621341
 20
881.8899725101578
 10
197.28658218134433
 20
881.9021674201626
 10
197.29521423932374
 20
881.910799478142
 10
197.29840389508945
 20
881.9134575246135
 10
197.301531004141
 20
881.9159592118549
 10
197.31454684569508
 20
881.9246364395576
 10
197.3308231223191
 20
881.9289767799905
 10
197.34051153082692
 20
881.9303608383489
 10
529.5069908364185
 20
881.9303608383489
 10
529.8820098807223
 20
881.9303595218407
 10
529.8820096174363
 20
881.7803608382828
 10
490.81287656046015
 20
881.7803608382828
 10
493.51749986768345
 20
875.2873140815582
 10
493.694665981699
 20
874.920671886523
 10
494.0035028156699
 20
874.4136360463722
 10
499.76412550532496
 20
867.9605356828929
 10
499.7687516761225
 20
867.953853436185
 10
503.26837721633365
 20
861.730360875456
 10
503.7148905090007
 20
860.9898813338291
 10
503.71557105047714
 20
860.9892007923527
 10
504.05669224393523
 20
860.3897812784307
 10
508.9036226832118
 20
854.0185291423977
 10
512.5203200085648
 20
849.4341774495142
 10
514.8937119402708
 20
847.051073151023
 10
514.8981128570317
 20
847.0452052620085
 10
514.9030872058333
 20
847.0377437388056
 10
514.906481118011
 20
847.0298246103916
 10
514.9082715091722
 20
847.0250502339613
 10
515.527114463684
 20
844.7801555040646
 10
518.731042404981
 20
840.0731775191803
 10
518.7368141828897
 20
840.0645198523175
 10
518.7403990291205
 20
840.0537653136257
 10
520.5161791845117
 20
834.0436072514854
 10
520.727784698604
 20
833.0759173084662
 10
520.7289204827639
 20
833.0702383876669
 10
521.1237032289446
 20
826.6124905808451
 10
521.1241489802737
 20
826.6111533268572
 10
521.1367438277971
 20
826.0907348100427
 10
521.1367438277971
 20
826.0856735056841
 10
521.1360593929935
 20
826.0795135924504
 10
521.1349364435237
 20
826.0727758956327
 10
519.5452744047157
 20
820.7962318018253
 10
519.5448542870108
 20
820.7941312133007
 10
518.9243819547273
 20
819.0918249707579
 10
518.9195028745285
 20
819.0801151782798
 10
518.9121217729926
 20
819.0710938319585
 10
516.427561781536
 20
816.1424899024823
 10
514.5179999797169
 20
812.1203087560057
 10
514.1196335458799
 20
810.9283471974477
 10
514.1175481713062
 20
810.9234813234425
 10
514.1157028554662
 20
810.9197906917625
 10
512.5274499475731
 20
808.112726302661
 10
512.5249730727646
 20
808.1092586779296
 10
511.1406629170642
 20
806.204390384692
 10
511.1073311512296
 20
805.1719104025301
 10
511.1063408040063
 20
805.1639876247464
 10
511.1051462687142
 20
805.1592094835778
 10
509.82016528875283
 20
800.2407911737705
 10
509.66784549789827
 20
798.2042598138801
 10
509.66784549789827
 20
798.2008593312607
 10
508.95546614393425
 20
793.922492966653
 10
508.6201620337233
 20
791.2320373754533
 10
508.6586684976519
 20
787.1869136487549
 10
508.6586684976519
 20
787.1809078331212
 10
508.21677396676387
 20
784.2640250973341
 10
508.65645349707256
 20
780.2215672290099
 10
508.65645349707256
 20
780.2078872223592
 10
507.89797702230226
 20
777.2977960628805
 10
509.4886681510384
 20
772.641445583361
 10
509.4908949136634
 20
772.6347652954851
 10
509.49234345496734
 20
772.6246255063593
 10
509.6054371690466
 20
770.3261379609703
 10
509.6054371690466
 20
770.3199418653699
 10
509.0957521072892
 20
765.9429914080083
 10
509.21260545669793
 20
763.3552629886817
 10
509.21260545669793
 20
763.3513328126969
 10
508.95701359169425
 20
759.0717914002553
 10
508.9557116336605
 20
759.0620267150007
 10
508.95247479037516
 20
759.0523161851452
 10
508.9503777330765
 20
759.0474230514483
 10
508.9473038960391
 20
759.0412753773735
 10
508.9424914707097
 20
759.0340567393796
 10
508.93859031015427
 20
759.0293753467131
 10
506.4631870116418
 20
756.3742807234007
 10
509.3791982912785
 20
751.8217583842134
 10
509.3821826216604
 20
751.8167845002436
 10
510.4288108104456
 20
749.442374728108
 10
512.5284748429813
 20
744.6790499786266
 10
514.3553711011627
 20
742.49218690623
 10
514.3582490813483
 20
742.4893089260445
 10
514.3667002774832
 20
742.476632131842
 10
514.3700912211125
 20
742.4681547727691
 10
515.0516741051047
 20
740.5732111699726
 10
517.0774062906698
 20
735.5116125927834
 10
521.7751119844543
 20
730.450942259592
 10
524.286498210744
 20
728.560566270286
 10
531.0106869933297
 20
723.7579047340159
 10
537.7232004464136
 20
723.4995628049751
 10
540.208578124722
 20
723.9429955026039
 10
542.7582914159461
 20
726.6014822853836
 10
543.5105155696338
 20
728.5327856930594
 10
543.5158964707125
 20
728.5420100949082
 10
543.5240321551732
 20
728.5525864847077
 10
546.3461209529169
 20
730.8725157880917
 10
547.6576818688491
 20
735.4913493048439
 10
547.6590044935674
 20
735.4959784913581
 10
547.6617451997386
 20
735.5023734724241
 10
547.6644509975995
 20
735.5077850681455
 10
548.2424966038025
 20
736.4173499001158
 10
548.2459977281442
 20
736.4222514741946
 10
548.252380295683
 20
736.4294318626753
 10
548.2581691125083
 20
736.4342558766962
 10
548.262495462523
 20
736.4375006392074
 10
549.4660494949317
 20
737.1764076012582
 10
549.4746237762174
 20
737.1821237887821
 10
549.4863106120192
 20
737.1854628847259
 10
554.6837187811902
 20
738.6036655756125
 10
554.6921650213048
 20
738.6055425178602
 10
558.768236320856
 20
738.7530475467452
 10
558.7800306867825
 20
738.7522050920361
 10
558.7890879600218
 20
738.7496172996821
 10
558.7967749722548
 20
738.7470549622712
 10
558.8091266116508
 20
738.7404040795195
 10
558.820750013936
 20
738.7307179109484
 10
558.8263669252751
 20
738.7236967717745
 10
561.2017657843649
 20
735.5130472367141
 10
561.2043852479205
 20
735.5088560950244
 10
562.8986503408569
 20
732.4457036398458
 10
562.9040320996805
 20
732.434940122198
 10
563.642287924567
 20
728.5143745086634
 10
563.6434869057293
 20
728.5083796028503
 10
563.7302446827775
 20
724.8224217128623
 10
563.8161597159456
 20
721.5303352974806
 10
563.8161597159456
 20
721.5252029246294
 10
563.8150051276752
 20
721.5148116301957
 10
563.8119681101161
 20
721.5041820687393
 10
563.810069543676
 20
721.4997520803795
 10
562.5927066076597
 20
718.6730164977635
 10
562.5917994663978
 20
718.6707486446085
 10
560.4767883472773
 20
714.5248212894107
 10
560.4757011342904
 20
714.5226468634364
 10
559.9676740908308
 20
713.6684114365876
 10
559.963453861053
 20
713.6599709770321
 10
559.9518193128947
 20
713.6483364288738
 10
558.8142558156255
 20
712.7446668700409
 10
558.805803026235
 20
712.7376228788817
 10
558.791209492334
 20
712.7317854653215
 10
558.786325511282
 20
712.7303900421639
 10
553.6002648301478
 20
711.4329452773113
 10
549.5531332827663
 20
708.3732100044567
 10
549.5478117034436
 20
708.3687753550212
 10
549.5380547103732
 20
708.363896858486
 10
549.5331615766763
 20
708.3617998011873
 10
549.5237863665379
 20
708.3586747311415
 10
549.5071486793331
 20
708.3562979186836
 10
549.4965296187802
 20
708.3576253012525
 10
549.4891836095621
 20
708.3586747311406
 10
549.4825536879498
 20
708.3608847050114
 10
547.512048251936
 20
709.0309302042169
 10
547.101146515583
 20
707.5828461998667
 10
547.9086074042957
 20
701.8927996924763
 10
548.3379310595756
 20
700.6405089513637
 10
548.3415980820077
 20
700.6285911284585
 10
548.3415980820077
 20
700.6068094355619
 10
548.3367974303615
 20
700.5900071547999
 10
548.3301267738184
 20
700.5766658417137
 10
548.3240831457015
 20
700.5691113065673
 10
545.1446817536635
 20
696.9502091733166
 10
544.6442739029617
 20
693.6318697969919
 10
544.6427078422298
 20
693.6256055540634
 10
544.6413579374635
 20
693.6215558397644
 10
544.6402630427765
 20
693.6186361205991
 10
544.6338919776704
 20
693.6037703020183
 10
544.6212031916798
 20
693.5910815160278
 10
542.572978744628
 20
691.8933413273253
 10
540.3112115227209
 20
687.1335800969578
 10
540.3075316877189
 20
687.1280603444543
 10
540.3056407464901
 20
687.1254130267343
 10
540.3017689985641
 20
687.1205733418265
 10
540.2935804553363
 20
687.1123847985987
 10
540.2844642104651
 20
687.1063073020177
 10
540.2742085305235
 20
687.1007850128185
 10
540.2611382495429
 20
687.0970506468243
 10
540.2507767225848
 20
687.0956691098963
 10
540.2383722859208
 20
687.0956691098963
 10
540.2265113834296
 20
687.0980412903946
 10
540.2148332869838
 20
687.10193398921
 10
540.2026924905217
 20
687.1089628713721
 10
540.1963297617194
 20
687.1142651453738
 10
533.1849760815999
 20
693.5839445918809
 10
531.0052239522752
 20
694.6407189635943
 10
530.5010018823914
 20
694.0403209166134
 10
530.5010018823914
 20
693.6510440483776
 10
531.0543956378474
 20
689.008193833557
 10
537.2124074160133
 20
686.747222553031
 10
537.2184796182937
 20
686.7454876380939
 10
537.2304709119089
 20
686.7386354703135
 10
540.2923867362247
 20
684.4338003749644
 10
540.297946235462
 20
684.4291674589335
 10
540.3030030787008
 20
684.4235487442234
 10
540.3080162561273
 20
684.4172822724404
 10
540.3154197712261
 20
684.4043261210177
 10
540.3202517473042
 20
684.3874142047443
 10
540.5650382016565
 20
679.7071031063906
 10
540.5650382016565
 20
679.6994076548308
 10
540.563448658515
 20
679.6890756244097
 10
540.5599222987344
 20
679.6767333651778
 10
540.5553302497988
 20
679.6682052742981
 10
540.4790085676632
 20
679.5396434388081
 10
540.476109840859
 20
679.5348122274677
 10
540.4672781082259
 20
679.5240178875829
 10
540.2954935837502
 20
679.3907848963631
 10
540.2902256855036
 20
679.3855169981166
 10
540.2737878898092
 20
679.3772981002694
 10
540.2671311869744
 20
679.3752498840126
 10
540.2608410400812
 20
679.3734526991857
 10
540.2504680805691
 20
679.3721560792469
 10
540.2402921845346
 20
679.3721560792469
 10
538.4831752080404
 20
679.6315725940149
 10
538.47682289245
 20
679.633266544839
 10
538.465118391649
 20
679.6371680451061
 10
538.4549745524428
 20
679.6439306045772
 10
531.0252443645827
 20
685.2366065200822
 10
529.6263658052308
 20
680.7578388585553
 10
529.6227522209415
 20
680.747720822545
 10
529.6135112565676
 20
680.7338593759841
 10
529.6074206838739
 20
680.7277688032905
 10
528.4645222837216
 20
679.6550152443856
 10
526.08597617432
 20
676.4601178466241
 10
526.5180462356898
 20
672.7462541674727
 10
526.5185966196041
 20
672.7435022479021
 10
526.6698038785598
 20
669.0803090023369
 10
527.6001950767554
 20
665.797078092975
 10
531.0437814698062
 20
661.0485893757827
 10
533.0261452411405
 20
658.8416243880083
 10
533.0295163473393
 20
658.8374105052603
 10
533.0343892332676
 20
658.8301011763674
 10
534.1286531554429
 20
656.5105723794532
 10
536.4478805637204
 20
651.8721059674622
 10
540.2539137697167
 20
649.0762965754752
 10
542.5105712646109
 20
650.1601349352641
 10
542.517401824724
 20
650.1635502153208
 10
542.5291423961389
 20
650.1664853581742
 10
542.5336237301713
 20
650.1671255487504
 10
542.5389097683151
 20
650.1677863035184
 10
542.5462519730149
 20
650.1677863035184
 10
549.5091578616239
 20
649.6708627093872
 10
549.5157179099765
 20
649.6708627093872
 10
549.5258875013928
 20
649.6683203115331
 10
549.5305446672942
 20
649.6669896927042
 10
555.7101456050373
 20
647.2412194274498
 10
558.781575187621
 20
646.5283026716152
 10
558.7867452227915
 20
646.5274409990866
 10
558.8016010163597
 20
646.5217272323293
 10
558.8112275260864
 20
646.5153095591781
 10
558.8197132460341
 20
646.50852098322
 10
560.1607292541948
 20
644.8960761201201
 10
560.1654006559702
 20
644.8888094951358
 10
560.1690363782809
 20
644.8815380505148
 10
560.6856147549024
 20
643.4869954620067
 10
562.8923215616915
 20
637.9067246622271
 10
562.894195356318
 20
637.9011032783469
 10
562.8961909153804
 20
637.8921232625662
 10
562.8970126846507
 20
637.8814402620519
 10
562.8961243763756
 20
637.8681156379262
 10
562.8926003296424
 20
637.8557814743585
 10
561.8939484894881
 20
635.5433301594571
 10
561.8884001341239
 20
635.5340829005172
 10
561.8810658685775
 20
635.5252817818609
 10
558.8183601670057
 20
632.8093375081617
 10
558.8162551587643
 20
632.8072324999202
 10
557.5138665908758
 20
631.8247646567543
 10
556.02457326578
 20
630.8455294246555
 10
552.1813238670579
 20
628.8543152009311
 10
552.1751779367869
 20
628.8514786177288
 10
549.5259425057548
 20
628.0385454674597
 10
549.5195715396762
 20
628.0370752445183
 10
544.7907849362073
 20
627.4500887205859
 10
542.2109359476212
 20
623.8961607081683
 10
541.561618953418
 20
622.9627809548078
 10
540.3145951611909
 20
619.9563703866706
 10
540.3106426973718
 20
619.9476749662686
 10
538.8493343761238
 20
618.0133945751904
 10
538.843253000292
 20
618.0073131993586
 10
538.8400633445262
 20
618.0046551528872
 10
538.8315275698315
 20
617.9978265331315
 10
538.8193022115211
 20
617.9925870938555
 10
538.8099270013827
 20
617.9894620238097
 10
538.8025809921646
 20
617.9884125939211
 10
538.7972949540208
 20
617.9877518391531
 10
538.790735817222
 20
617.9877518391531
 10
530.9982633784598
 20
618.3807015553325
 10
529.7566924391858
 20
617.8737225199638
 10
529.2256547709485
 20
616.9305925369658
 10
529.2220346849126
 20
616.9248003993084
 10
529.217380831531
 20
616.9192157752504
 10
526.1445862585192
 20
613.6354941329291
 10
523.2032320075773
 20
609.9628745893074
 10
522.9535519188385
 20
609.1080635438716
 10
522.9532099358494
 20
609.1066956119143
 10
522.949122939563
 20
609.0944346230553
 10
522.941517148522
 20
609.0830259364939
 10
522.9368259012663
 20
609.0772921898474
 10
522.9312436065138
 20
609.0717098950954
 10
522.9254584509927
 20
609.0670817706787
 10
522.9178856827207
 20
609.0620332584972
 10
522.9073196456834
 20
609.0571566260187
 10
522.900110729604
 20
609.05509693571
 10
521.7655859389783
 20
608.7861131631448
 10
518.7303442843113
 20
605.2717407760579
 10
518.7242460414991
 20
605.2656425332457
 10
518.7175547407178
 20
605.2607761326776
 10
515.1168681127988
 20
602.9776305663913
 10
514.550262144046
 20
601.4789362103688
 10
514.5464586623389
 20
601.4713292469551
 10
514.5431977496187
 20
601.4664378778748
 10
514.5364448371083
 20
601.4569838003599
 10
514.5250507578048
 20
601.4478685369177
 10
514.516907937103
 20
601.4427257027901
 10
512.5073091879394
 20
600.549419738591
 10
512.5067117725971
 20
600.5488223232487
 10
508.6038595156069
 20
598.9145599887747
 10
503.23144852130235
 20
596.7660002956618
 10
502.56376778557797
 20
596.4981700592689
 10
502.5622981950155
 20
596.4971903322271
 10
501.0944814225886
 20
595.9862021017088
 10
496.3056805376468
 20
594.2360035093066
 10
493.98506546395174
 20
592.748246305051
 10
493.9792451985186
 20
592.7440889725985
 10
493.9688112983381
 20
592.7399154125264
 10
493.9659921969851
 20
592.7389757120754
 10
490.4690840434191
 20
591.65234320739
 10
490.46365604761013
 20
591.6496292094853
 10
490.4505676963836
 20
591.6477594450243
 10
484.6912302223909
 20
590.9889891426201
 10
484.6816534093955
 20
590.9877920409958
 10
484.6713113373162
 20
590.9892694798641
 10
484.66651636720326
 20
590.9900071675738
 10
480.49674930768106
 20
592.1490912146592
 10
475.4025291584462
 20
593.6490641789242
 10
466.43578022473594
 20
595.7675963739352
  0
LWPOLYLINE
  5
95
330
17
100
AcDbEntity
  8
GRABADO
100
AcDbPolyline
 90
7
 70
1
 10
529.0577852449178
 20
646.2679222495854
 10
527.5460743358826
 20
644.8427939315047
 10
530.9670893521343
 20
640.2291968598847
 10
532.4423488826828
 20
643.7534007401969
 10
533.7201064960391
 20
644.8487065002946
 10
530.9723625644665
 20
646.9769306734279
 10
529.0577852449178
 20
646.2679222495854
  0
LWPOLYLINE
  5
96
330
17
100
AcDbEntity
  8
GRABADO
100
AcDbPolyline
 90
7
 70
1
 10
466.1231234656907
 20
603.8696995745922
 10
464.794202780628
 20
603.9854416790622
 10
460.9302234403913
 20
602.9875508616865
 10
466.13462105160943
 20
597.7214413235392
 10
467.7713078233983
 20
601.7404400962132
 10
466.84793115313596
 20
602.9814497116895
 10
466.1231234656907
 20
603.8696995745922
  0
TEXT
  5
97
330
17
100
AcDbEntity
  8
GRABADO
100
AcDbText
 10
538.2511414794172
 20
733.5868299346362
 30
0.0
 40
6.0
  1
76f
 72
1
 11
538.2511414794172
 21
733.5868299346362
 31
0.0
100
AcDbText
 73
2
  0
TEXT
  5
98
330
17
100
AcDbEntity
  8
HOJA
100
AcDbText
 10
10.0
 20
891.0
 30
0.0
 40
6.0
  1
gale_crater  hoja 29/39  1:30  lamina 3.0mm
 11
10.0
 21
891.0
 31
0.0
100
AcDbText
  0
ENDSEC
  0
SECTION
  2
OBJECTS
  0
DICTIONARY
  5
A
330
0
100
AcDbDictionary
281
1
  3
ACAD_COLOR
350
B
  3
ACAD_GROUP
350
C
  3
ACAD_LAYOUT
350
D
  3
ACAD_MATERIAL
350
E
  3
ACAD_MLEADERSTYLE
350
F
  3
ACAD_MLINESTYLE
350
10
  3
ACAD_PLOTSETTINGS
350
11
  3
ACAD_PLOTSTYLENAME
350
12
  3
ACAD_SCALELIST
350
14
  3
ACAD_TABLESTYLE
350
15
  3
ACAD_VISUALSTYLE
350
16
  3
EZDXF_META
350
2D
  0
DICTIONARY
  5
B
330
A
100
AcDbDictionary
281
1
  0
DICTIONARY
  5
C
330
A
100
AcDbDictionary
281
1
  0
DICTIONARY
  5
D
330
A
100
AcDbDictionary
281
1
  3
Model
350
1A
  3
Layout1
350
1E
  0
DICTIONARY
  5
E
330
A
100
AcDbDictionary
281
1
  3
ByBlock
350
1F
  3
ByLayer
350
20
  3
Global
350
21
  0
DICTIONARY
  5
F
330
A
100
AcDbDictionary
281
1
  3
Standard
350
2C
  0
DICTIONARY
  5
10
330
A
100
AcDbDictionary
281
1
  3
Standard
350
22
  0
DICTIONARY
  5
11
330
A
100
AcDbDictionary
281
1
  0
ACDBDICTIONARYWDFLT
  5
12
330
A
100
AcDbDictionary
281
1
  3
Normal
350
13
100
AcDbDictionaryWithDefault
340
13
  0
ACDBPLACEHOLDER
  5
13
330
12
  0
DICTIONARY
  5
14
330
A
100
AcDbDictionary
281
1
  0
DICTIONARY
  5
15
330
A
100
AcDbDictionary
281
1
  0
DICTIONARY
  5
16
330
A
100
AcDbDictionary
281
1
  3
2dWireframe
350
5A
  3
Basic
350
5B
  3
Brighten
350
5C
  3
ColorChange
350
5D
  3
Conceptual
350
5E
  3
Dim
350
5F
  3
EdgeColorOff
350
60
  3
Facepattern
350
61
  3
Flat
350
62
  3
FlatWithEdges
350
63
  3
Gouraud
350
64
  3
GouraudWithEdges
350
65
  3
Hidden
350
66
  3
JitterOff
350
67
  3
Linepattern
350
68
  3
Modeling
350
69
  3
OverhangOff
350
6A
  3
Realistic
350
6B
  3
Shaded
350
6C
  3
Shaded with edges
350
6D
  3
Shades of Gray
350
6E
  3
Sketchy
350
6F
  3
Thicken
350
70
  3
Wireframe
350
71
  3
X-Ray
350
72
  0
LAYOUT
  5
1A
330
D
100
AcDbPlotSettings
  1

  4
A3
  6

 40
7.5
 41
20.0
 42
7.5
 43
20.0
 44
420.0
 45
297.0
 46
0.0
 47
0.0
 48
0.0
 49
0.0
140
0.0
141
0.0
142
1.0
143
1.0
 70
1024
 72
1
 73
0
 74
5
  7

 75
16
 76
0
 77
2
 78
300
147
1.0
148
0.0
149
0.0
100
AcDbLayout
  1
Model
 70
1
 71
0
 10
0.0
 20
0.0
 11
420.0
 21
297.0
 12
0.0
 22
0.0
 32
0.0
 14
1e+20
 24
1e+20
 34
1e+20
 15
-1e+20
 25
-1e+20
 35
-1e+20
146
0.0
 13
0.0
 23
0.0
 33
0.0
 16
1.0
 26
0.0
 36
0.0
 17
0.0
 27
1.0
 37
0.0
 76
1
330
17
  0
LAYOUT
  5
1E
330
D
100
AcDbPlotSettings
  1

  4
A3
  6

 40
7.5
 41
20.0
 42
7.5
 43
20.0
 44
420.0
 45
297.0
 46
0.0
 47
0.0
 48
0.0
 49
0.0
140
0.0
141
0.0
142
1.0
143
1.0
 70
0
 72
1
 73
0
 74
5
  7

 75
16
 76
0
 77
2
 78
300
147
1.0
148
0.0
149
0.0
100
AcDbLayout
  1
Layout1
 70
1
 71
1
 10
0.0
 20
0.0
 11
420.0
 21
297.0
 12
0.0
 22
0.0
 32
0.0
 14
1e+20
 24
1e+20
 34
1e+20
 15
-1e+20
 25
-1e+20
 35
-1e+20
146
0.0
 13
0.0
 23
0.0
 33
0.0
 16
1.0
 26
0.0
 36
0.0
 17
0.0
 27
1.0
 37
0.0
 76
1
330
1B
  0
MATERIAL
  5
1F
102
{ACAD_REACTORS
330
E
102
}
330
E
100
AcDbMaterial
  1
ByBlock
  2

 70
0
 40
1.0
 71
1
 41
1.0
 91
-1023410177
 42
1.0
 72
1
  3

 73
1
 74
1
 75
1
 44
0.5
 73
0
 45
1.0
 46
1.0
 77
1
  4

 78
1
 79
1
170
1
 48
1.0
171
1
  6

172
1
173
1
174
1
140
1.0
141
1.0
175
1
  7

176
1
177
1
178
1
143
1.0
179
1
  8

270
1
271
1
272
1
145
1.0
146
1.0
273
1
  9

274
1
275
1
276
1
 42
1.0
 72
1
  3

 73
1
 74
1
 75
1
 94
63
  0
MATERIAL
  5
20
102
{ACAD_REACTORS
330
E
102
}
330
E
100
AcDbMaterial
  1
ByLayer
  2

 70
0
 40
1.0
 71
1
 41
1.0
 91
-1023410177
 42
1.0
 72
1
  3

 73
1
 74
1
 75
1
 44
0.5
 73
0
 45
1.0
 46
1.0
 77
1
  4

 78
1
 79
1
170
1
 48
1.0
171
1
  6

172
1
173
1
174
1
140
1.0
141
1.0
175
1
  7

176
1
177
1
178
1
143
1.0
179
1
  8

270
1
271
1
272
1
145
1.0
146
1.0
273
1
  9

274
1
275
1
276
1
 42
1.0
 72
1
  3

 73
1
 74
1
 75
1
 94
63
  0
MATERIAL
  5
21
102
{ACAD_REACTORS
330
E
102
}
330
E
100
AcDbMaterial
  1
Global
  2

 70
0
 40
1.0
 71
1
 41
1.0
 91
-1023410177
 42
1.0
 72
1
  3

 73
1
 74
1
 75
1
 44
0.5
 73
0
 45
1.0
 46
1.0
 77
1
  4

 78
1
 79
1
170
1
 48
1.0
171
1
  6

172
1
173
1
174
1
140
1.0
141
1.0
175
1
  7

176
1
177
1
178
1
143
1.0
179
1
  8

270
1
271
1
272
1
145
1.0
146
1.0
273
1
  9

274
1
275
1
276
1
 42
1.0
 72
1
  3

 73
1
 74
1
 75
1
 94
63
  0
MLINESTYLE
  5
22
102
{ACAD_REACTORS
330
10
102
}
330
10
100
AcDbMlineStyle
  2
Standard
 70
0
  3

 62
256
 51
90.0
 52
90.0
 71
2
 49
0.5
 62
256
  6
BYLAYER
 49
-0.5
 62
256
  6
BYLAYER
  0
MLEADERSTYLE
  5
2C
102
{ACAD_REACTORS
330
F
102
}
330
F
100
AcDbMLeaderStyle
179
2
170
2
171
1
172
0
 90
2
 40
0.0
 41
0.0
173
1
 91
-1056964608
 92
-2
290
1
 42
2.0
291
1
 43
8.0
  3
Standard
 44
4.0
300

342
29
174
1
175
1
176
0
178
1
 93
-1056964608
 45
4.0
292
0
297
0
 46
4.0
 94
-1056964608
 47
1.0
 49
1.0
140
1.0
294
1
141
0.0
177
0
142
1.0
295
0
296
0
143
3.75
271
0
272
9
273
9
  0
DICTIONARY
  5
2D
330
A
100
AcDbDictionary
280
1
281
1
  3
CREATED_BY_EZDXF
350
2E
  3
WRITTEN_BY_EZDXF
350
9B
  0
DICTIONARYVAR
  5
2E
330
2D
100
DictionaryVariables
280
0
  1
1.4.2 @ 2026-09-06T16:30:42.622886+00:00
  0
VISUALSTYLE
  5
5A
102
{ACAD_REACTORS
330
16
102
}
330
16
100
AcDbVisualStyle
  2
2dWireframe
 70
4
 90
0
 40
0.6
 62
7
290
0
291
0
  0
VISUALSTYLE
  5
5B
102
{ACAD_REACTORS
330
16
102
}
330
16
100
AcDbVisualStyle
  2
Basic
 70
7
 90
1
 40
0.6
 62
7
290
0
291
1
  0
VISUALSTYLE
  5
5C
102
{ACAD_REACTORS
330
16
102
}
330
16
100
AcDbVisualStyle
  2
Brighten
 70
12
 90
2
 40
0.6
 62
7
290
0
291
1
  0
VISUALSTYLE
  5
5D
102
{ACAD_REACTORS
330
16
102
}
330
16
100
AcDbVisualStyle
  2
ColorChange
 70
16
 90
2
 40
0.6
 62
8
290
0
291
1
  0
VISUALSTYLE
  5
5E
102
{ACAD_REACTORS
330
16
102
}
330
16
100
AcDbVisualStyle
  2
Conceptual
 70
9
 90
3
 40
0.6
 62
7
290
0
291
0
  0
VISUALSTYLE
  5
5F
102
{ACAD_REACTORS
330
16
102
}
330
16
100
AcDbVisualStyle
  2
Dim
 70
11
 90
2
 40
0.6
 62
7
290
0
291
1
  0
VISUALSTYLE
  5
60
102
{ACAD_REACTORS
330
16
102
}
330
16
100
AcDbVisualStyle
  2
EdgeColorOff
 70
22
 90
2
 40
0.6
 62
7
290
0
291
1
  0
VISUALSTYLE
  5
61
102
{ACAD_REACTORS
330
16
102
}
330
16
100
AcDbVisualStyle
  2
Facepattern
 70
15
 90
2
 40
0.6
 62
7
290
0
291
1
  0
VISUALSTYLE
  5
62
102
{ACAD_REACTORS
330
16
102
}
330
16
100
AcDbVisualStyle
  2
Flat
 70
0
 90
2
 40
0.6
 62
7
290
0
291
1
  0
VISUALSTYLE
  5
63
102
{ACAD_REACTORS
330
16
102
}
330
16
100
AcDbVisualStyle
  2
FlatWithEdges
 70
1
 90
2
 40
0.6
 62
7
290
0
291
1
  0
VISUALSTYLE
  5
64
102
{ACAD_REACTORS
330
16
102
}
330
16
100
AcDbVisualStyle
  2
Gouraud
 70
2
 90
2
 40
0.6
 62
7
290
0
291
1
  0
VISUALSTYLE
  5
65
102
{ACAD_REACTORS
330
16
102
}
330
16
100
AcDbVisualStyle
  2
GouraudWithEdges
 70
3
 90
2
 40
0.6
 62
7
290
0
291
1
  0
VISUALSTYLE
  5
66
102
{ACAD_REACTORS
330
16
102
}
330
16
100
AcDbVisualStyle
  2
Hidden
 70
6
 90
1
 40
0.6
 62
7
290
0
291
0
  0
VISUALSTYLE
  5
67
102
{ACAD_REACTORS
330
16
102
}
330
16
100
AcDbVisualStyle
  2
JitterOff
 70
20
 90
2
 40
0.6
 62
7
290
0
291
1
  0
VISUALSTYLE
  5
68
102
{ACAD_REACTORS
330
16
102
}
330
16
100
AcDbVisualStyle
  2
Linepattern
 70
14
 90
2
 40
0.6
 62
7
290
0
291
1
  0
VISUALSTYLE
  5
69
102
{ACAD_REACTORS
330
16
102
}
330
16
100
AcDbVisualStyle
  2
Modeling
 70
10
 90
2
 40
0.6
 62
7
290
0
291
0
  0
VISUALSTYLE
  5
6A
102
{ACAD_REACTORS
330
16
102
}
330
16
100
AcDbVisualStyle
  2
OverhangOff
 70
21
 90
2
 40
0.6
 62
7
290
0
291
1
  0
VISUALSTYLE
  5
6B
102
{ACAD_REACTORS
330
16
102
}
330
16
100
AcDbVisualStyle
  2
Realistic
 70
8
 90
2
 40
0.6
 62
7
290
0
291
0
  0
VISUALSTYLE
  5
6C
102
{ACAD_REACTORS
330
16
102
}
330
16
100
AcDbVisualStyle
  2
Shaded
 70
27
 90
2
 40
0.6
 62
7
290
0
291
0
  0
VISUALSTYLE
  5
6D
102
{ACAD_REACTORS
330
16
102
}
330
16
100
AcDbVisualStyle
  2
Shaded with edges
 70
26
 90
2
 40
0.6
 62
7
290
0
291
0
  0
VISUALSTYLE
  5
6E
102
{ACAD_REACTORS
330
16
102
}
330
16
100
AcDbVisualStyle
  2
Shades of Gray
 70
23
 90
2
 40
0.6
 62
7
290
0
291
0
  0
VISUALSTYLE
  5
6F
102
{ACAD_REACTORS
330
16
102
}
330
16
100
AcDbVisualStyle
  2
Sketchy
 70
24
 90
1
 40
0.6
 62
7
290
0
291
0
  0
VISUALSTYLE
  5
70
102
{ACAD_REACTORS
330
16
102
}
330
16
100
AcDbVisualStyle
  2
Thicken
 70
13
 90
2
 40
0.6
 62
7
290
0
291
1
  0
VISUALSTYLE
  5
71
102
{ACAD_REACTORS
330
16
102
}
330
16
100
AcDbVisualStyle
  2
Wireframe
 70
5
 90
0
 40
0.6
 62
7
290
0
291
0
  0
VISUALSTYLE
  5
72
102
{ACAD_REACTORS
330
16
102
}
330
16
100
AcDbVisualStyle
  2
X-Ray
 70
25
 90
2
 40
0.5
 62
7
290
0
291
0
  0
DICTIONARYVAR
  5
9B
330
2D
100
DictionaryVariables
280
0
  1
1.4.2 @ 2026-09-06T16:30:42.635134+00:00
  0
ENDSEC
  0
EOF
