  0
SECTION
  2
HEADER
  9
$ACADVER
  1
AC1024
  9
$ACADMAINTVER
 70
6
  9
$DWGCODEPAGE
  3
ANSI_1252
  9
$LASTSAVEDBY
  1
ezdxf
  9
$INSBASE
 10
0.0
 20
0.0
 30
0.0
  9
$EXTMIN
 10
1e+20
 20
1e+20
 30
1e+20
  9
$EXTMAX
 10
-1e+20
 20
-1e+20
 30
-1e+20
  9
$LIMMIN
 10
0.0
 20
0.0
  9
$LIMMAX
 10
420.0
 20
297.0
  9
$ORTHOMODE
 70
0
  9
$REGENMODE
 70
1
  9
$FILLMODE
 70
1
  9
$QTEXTMODE
 70
0
  9
$MIRRTEXT
 70
1
  9
$LTSCALE
 40
1.0
  9
$ATTMODE
 70
1
  9
$TEXTSIZE
 40
2.5
  9
$TRACEWID
 40
1.0
  9
$TEXTSTYLE
  7
OpenSans
  9
$CLAYER
  8
0
  9
$CELTYPE
  6
ByLayer
  9
$CECOLOR
 62
256
  9
$CELTSCALE
 40
1.0
  9
$DISPSILH
 70
0
  9
$DIMSCALE
 40
1.0
  9
$DIMASZ
 40
0.175
  9
$DIMEXO
 40
0.125
  9
$DIMDLI
 40
3.75
  9
$DIMRND
 40
0.0
  9
$DIMDLE
 40
0.0
  9
$DIMEXE
 40
0.375
  9
$DIMTP
 40
0.0
  9
$DIMTM
 40
0.0
  9
$DIMTXT
 40
0.25
  9
$DIMCEN
 40
2.5
  9
$DIMTSZ
 40
0.0
  9
$DIMTOL
 70
0
  9
$DIMLIM
 70
0
  9
$DIMTIH
 70
0
  9
$DIMTOH
 70
0
  9
$DIMSE1
 70
0
  9
$DIMSE2
 70
0
  9
$DIMTAD
 70
1
  9
$DIMZIN
 70
12
  9
$DIMBLK
  1
ARCHTICK
  9
$DIMASO
 70
1
  9
$DIMSHO
 70
1
  9
$DIMPOST
  1

  9
$DIMAPOST
  1

  9
$DIMALT
 70
0
  9
$DIMALTD
 70
3
  9
$DIMALTF
 40
0.03937007874
  9
$DIMLFAC
 40
100.0
  9
$DIMTOFL
 70
1
  9
$DIMTVP
 40
0.0
  9
$DIMTIX
 70
0
  9
$DIMSOXD
 70
0
  9
$DIMSAH
 70
0
  9
$DIMBLK1
  1

  9
$DIMBLK2
  1

  9
$DIMSTYLE
  2
EZDXF
  9
$DIMCLRD
 70
0
  9
$DIMCLRE
 70
0
  9
$DIMCLRT
 70
0
  9
$DIMTFAC
 40
0.5
  9
$DIMGAP
 40
0.1
  9
$DIMJUST
 70
0
  9
$DIMSD1
 70
0
  9
$DIMSD2
 70
0
  9
$DIMTOLJ
 70
0
  9
$DIMTZIN
 70
8
  9
$DIMALTZ
 70
0
  9
$DIMALTTZ
 70
0
  9
$DIMUPT
 70
1
  9
$DIMDEC
 70
2
  9
$DIMTDEC
 70
2
  9
$DIMALTU
 70
2
  9
$DIMALTTD
 70
3
  9
$DIMTXSTY
  7
OpenSansCondensed-Light
  9
$DIMAUNIT
 70
0
  9
$DIMADEC
 70
2
  9
$DIMALTRND
 40
0.0
  9
$DIMAZIN
 70
3
  9
$DIMDSEP
 70
46
  9
$DIMATFIT
 70
3
  9
$DIMFRAC
 70
0
  9
$DIMLDRBLK
  1

  9
$DIMLUNIT
 70
2
  9
$DIMLWD
 70
-2
  9
$DIMLWE
 70
-2
  9
$DIMTMOVE
 70
2
  9
$DIMFXL
 40
1.0
  9
$DIMFXLON
 70
0
  9
$DIMJOGANG
 40
0.785398163397
  9
$DIMTFILL
 70
0
  9
$DIMTFILLCLR
 70
0
  9
$DIMARCSYM
 70
0
  9
$DIMLTYPE
  6

  9
$DIMLTEX1
  6

  9
$DIMLTEX2
  6

  9
$DIMTXTDIRECTION
 70
0
  9
$LUNITS
 70
2
  9
$LUPREC
 70
4
  9
$SKETCHINC
 40
1.0
  9
$FILLETRAD
 40
10.0
  9
$AUNITS
 70
0
  9
$AUPREC
 70
2
  9
$MENU
  1
.
  9
$ELEVATION
 40
0.0
  9
$PELEVATION
 40
0.0
  9
$THICKNESS
 40
0.0
  9
$LIMCHECK
 70
0
  9
$CHAMFERA
 40
0.0
  9
$CHAMFERB
 40
0.0
  9
$CHAMFERC
 40
0.0
  9
$CHAMFERD
 40
0.0
  9
$SKPOLY
 70
0
  9
$TDCREATE
 40
2461290.4379861113
  9
$TDUCREATE
 40
2458532.153996898
  9
$TDUPDATE
 40
2461290.4379861113
  9
$TDUUPDATE
 40
2458532.1544311
  9
$TDINDWG
 40
0.0
  9
$TDUSRTIMER
 40
0.0
  9
$USRTIMER
 70
1
  9
$ANGBASE
 50
0.0
  9
$ANGDIR
 70
0
  9
$PDMODE
 70
0
  9
$PDSIZE
 40
0.0
  9
$PLINEWID
 40
0.0
  9
$SPLFRAME
 70
0
  9
$SPLINETYPE
 70
6
  9
$SPLINESEGS
 70
8
  9
$HANDSEED
  5
9D
  9
$SURFTAB1
 70
6
  9
$SURFTAB2
 70
6
  9
$SURFTYPE
 70
6
  9
$SURFU
 70
6
  9
$SURFV
 70
6
  9
$UCSBASE
  2

  9
$UCSNAME
  2

  9
$UCSORG
 10
0.0
 20
0.0
 30
0.0
  9
$UCSXDIR
 10
1.0
 20
0.0
 30
0.0
  9
$UCSYDIR
 10
0.0
 20
1.0
 30
0.0
  9
$UCSORTHOREF
  2

  9
$UCSORTHOVIEW
 70
0
  9
$UCSORGTOP
 10
0.0
 20
0.0
 30
0.0
  9
$UCSORGBOTTOM
 10
0.0
 20
0.0
 30
0.0
  9
$UCSORGLEFT
 10
0.0
 20
0.0
 30
0.0
  9
$UCSORGRIGHT
 10
0.0
 20
0.0
 30
0.0
  9
$UCSORGFRONT
 10
0.0
 20
0.0
 30
0.0
  9
$UCSORGBACK
 10
0.0
 20
0.0
 30
0.0
  9
$PUCSBASE
  2

  9
$PUCSNAME
  2

  9
$PUCSORG
 10
0.0
 20
0.0
 30
0.0
  9
$PUCSXDIR
 10
1.0
 20
0.0
 30
0.0
  9
$PUCSYDIR
 10
0.0
 20
1.0
 30
0.0
  9
$PUCSORTHOREF
  2

  9
$PUCSORTHOVIEW
 70
0
  9
$PUCSORGTOP
 10
0.0
 20
0.0
 30
0.0
  9
$PUCSORGBOTTOM
 10
0.0
 20
0.0
 30
0.0
  9
$PUCSORGLEFT
 10
0.0
 20
0.0
 30
0.0
  9
$PUCSORGRIGHT
 10
0.0
 20
0.0
 30
0.0
  9
$PUCSORGFRONT
 10
0.0
 20
0.0
 30
0.0
  9
$PUCSORGBACK
 10
0.0
 20
0.0
 30
0.0
  9
$USERI1
 70
0
  9
$USERI2
 70
0
  9
$USERI3
 70
0
  9
$USERI4
 70
0
  9
$USERI5
 70
0
  9
$USERR1
 40
0.0
  9
$USERR2
 40
0.0
  9
$USERR3
 40
0.0
  9
$USERR4
 40
0.0
  9
$USERR5
 40
0.0
  9
$WORLDVIEW
 70
1
  9
$SHADEDGE
 70
3
  9
$SHADEDIF
 70
70
  9
$TILEMODE
 70
1
  9
$MAXACTVP
 70
64
  9
$PINSBASE
 10
0.0
 20
0.0
 30
0.0
  9
$PLIMCHECK
 70
0
  9
$PEXTMIN
 10
1e+20
 20
1e+20
 30
1e+20
  9
$PEXTMAX
 10
-1e+20
 20
-1e+20
 30
-1e+20
  9
$PLIMMIN
 10
0.0
 20
0.0
  9
$PLIMMAX
 10
420.0
 20
297.0
  9
$UNITMODE
 70
0
  9
$VISRETAIN
 70
1
  9
$PLINEGEN
 70
0
  9
$PSLTSCALE
 70
1
  9
$TREEDEPTH
 70
3020
  9
$CMLSTYLE
  2
Standard
  9
$CMLJUST
 70
0
  9
$CMLSCALE
 40
20.0
  9
$PROXYGRAPHICS
 70
1
  9
$MEASUREMENT
 70
1
  9
$CELWEIGHT
370
-1
  9
$ENDCAPS
280
0
  9
$JOINSTYLE
280
0
  9
$LWDISPLAY
290
0
  9
$INSUNITS
 70
4
  9
$HYPERLINKBASE
  1

  9
$STYLESHEET
  1

  9
$XEDIT
290
1
  9
$CEPSNTYPE
380
0
  9
$PSTYLEMODE
290
1
  9
$FINGERPRINTGUID
  2
{133AB726-65C8-4AD0-A3AC-0F77AB970F1C}
  9
$VERSIONGUID
  2
{459E26FB-B245-4EAB-AB61-771025781B61}
  9
$EXTNAMES
290
1
  9
$PSVPSCALE
 40
0.0
  9
$OLESTARTUP
290
0
  9
$SORTENTS
280
127
  9
$INDEXCTL
280
0
  9
$HIDETEXT
280
1
  9
$XCLIPFRAME
280
1
  9
$HALOGAP
280
0
  9
$OBSCOLOR
 70
257
  9
$OBSLTYPE
280
0
  9
$INTERSECTIONDISPLAY
280
0
  9
$INTERSECTIONCOLOR
 70
257
  9
$DIMASSOC
280
2
  9
$PROJECTNAME
  1

  9
$CAMERADISPLAY
290
0
  9
$LENSLENGTH
 40
50.0
  9
$CAMERAHEIGHT
 40
0.0
  9
$STEPSPERSEC
 40
24.0
  9
$STEPSIZE
 40
100.0
  9
$3DDWFPREC
 40
2.0
  9
$PSOLWIDTH
 40
0.005
  9
$PSOLHEIGHT
 40
0.08
  9
$LOFTANG1
 40
1.570796326795
  9
$LOFTANG2
 40
1.570796326795
  9
$LOFTMAG1
 40
0.0
  9
$LOFTMAG2
 40
0.0
  9
$LOFTPARAM
 70
7
  9
$LOFTNORMALS
280
1
  9
$LATITUDE
 40
37.795
  9
$LONGITUDE
 40
-122.394
  9
$NORTHDIRECTION
 40
0.0
  9
$TIMEZONE
 70
-8000
  9
$LIGHTGLYPHDISPLAY
280
1
  9
$TILEMODELIGHTSYNCH
280
1
  9
$CMATERIAL
347
20
  9
$SOLIDHIST
280
0
  9
$SHOWHIST
280
1
  9
$DWFFRAME
280
2
  9
$DGNFRAME
280
2
  9
$REALWORLDSCALE
290
1
  9
$INTERFERECOLOR
 62
256
  9
$CSHADOW
280
0
  9
$SHADOWPLANELOCATION
 40
0.0
  0
ENDSEC
  0
SECTION
  2
CLASSES
  0
CLASS
  1
ACDBDICTIONARYWDFLT
  2
AcDbDictionaryWithDefault
  3
ObjectDBX Classes
 90
0
 91
0
280
0
281
0
  0
CLASS
  1
SUN
  2
AcDbSun
  3
SCENEOE
 90
1153
 91
0
280
0
281
0
  0
CLASS
  1
VISUALSTYLE
  2
AcDbVisualStyle
  3
ObjectDBX Classes
 90
4095
 91
0
280
0
281
0
  0
CLASS
  1
MATERIAL
  2
AcDbMaterial
  3
ObjectDBX Classes
 90
1153
 91
0
280
0
281
0
  0
CLASS
  1
SCALE
  2
AcDbScale
  3
ObjectDBX Classes
 90
1153
 91
0
280
0
281
0
  0
CLASS
  1
TABLESTYLE
  2
AcDbTableStyle
  3
ObjectDBX Classes
 90
4095
 91
0
280
0
281
0
  0
CLASS
  1
MLEADERSTYLE
  2
AcDbMLeaderStyle
  3
ACDB_MLEADERSTYLE_CLASS
 90
4095
 91
0
280
0
281
0
  0
CLASS
  1
DICTIONARYVAR
  2
AcDbDictionaryVar
  3
ObjectDBX Classes
 90
0
 91
0
280
0
281
0
  0
CLASS
  1
CELLSTYLEMAP
  2
AcDbCellStyleMap
  3
ObjectDBX Classes
 90
1152
 91
0
280
0
281
0
  0
CLASS
  1
MENTALRAYRENDERSETTINGS
  2
AcDbMentalRayRenderSettings
  3
SCENEOE
 90
1024
 91
0
280
0
281
0
  0
CLASS
  1
ACDBDETAILVIEWSTYLE
  2
AcDbDetailViewStyle
  3
ObjectDBX Classes
 90
1025
 91
0
280
0
281
0
  0
CLASS
  1
ACDBSECTIONVIEWSTYLE
  2
AcDbSectionViewStyle
  3
ObjectDBX Classes
 90
1025
 91
0
280
0
281
0
  0
CLASS
  1
RASTERVARIABLES
  2
AcDbRasterVariables
  3
ISM
 90
0
 91
0
280
0
281
0
  0
CLASS
  1
LAYOUT
  2
AcDbLayout
  3
ObjectDBX Classes
 90
0
 91
0
280
0
281
0
  0
CLASS
  1
ACDBPLACEHOLDER
  2
AcDbPlaceHolder
  3
ObjectDBX Classes
 90
0
 91
0
280
0
281
0
  0
ENDSEC
  0
SECTION
  2
TABLES
  0
TABLE
  2
VPORT
  5
8
330
0
100
AcDbSymbolTable
 70
1
  0
VPORT
  5
23
330
8
100
AcDbSymbolTableRecord
100
AcDbViewportTableRecord
  2
*Active
 70
0
 10
0.0
 20
0.0
 11
1.0
 21
1.0
 12
0.0
 22
0.0
 13
0.0
 23
0.0
 14
0.5
 24
0.5
 15
0.5
 25
0.5
 16
0.0
 26
0.0
 36
1.0
 17
0.0
 27
0.0
 37
0.0
 40
1000.0
 41
1.34
 42
50.0
 43
0.0
 44
0.0
 50
0.0
 51
0.0
 71
0
 72
1000
 73
1
 74
3
 75
0
 76
0
 77
0
 78
0
281
0
 65
0
146
0.0
  0
ENDTAB
  0
TABLE
  2
LTYPE
  5
2
330
0
100
AcDbSymbolTable
 70
21
  0
LTYPE
  5
24
330
2
100
AcDbSymbolTableRecord
100
AcDbLinetypeTableRecord
  2
ByBlock
 70
0
  3

 72
65
 73
0
 40
0.0
  0
LTYPE
  5
25
330
2
100
AcDbSymbolTableRecord
100
AcDbLinetypeTableRecord
  2
ByLayer
 70
0
  3

 72
65
 73
0
 40
0.0
  0
LTYPE
  5
26
330
2
100
AcDbSymbolTableRecord
100
AcDbLinetypeTableRecord
  2
Continuous
 70
0
  3

 72
65
 73
0
 40
0.0
  0
LTYPE
  5
2F
330
2
100
AcDbSymbolTableRecord
100
AcDbLinetypeTableRecord
  2
CENTER
 70
0
  3
Center ____ _ ____ _ ____ _ ____ _ ____ _ ____
 72
65
 73
4
 40
5.08
 49
3.175
 74
0
 49
-0.635
 74
0
 49
0.635
 74
0
 49
-0.635
 74
0
  0
LTYPE
  5
30
330
2
100
AcDbSymbolTableRecord
100
AcDbLinetypeTableRecord
  2
CENTERX2
 70
0
  3
Center (2x) ________  __  ________  __  ________
 72
65
 73
4
 40
8.89
 49
6.35
 74
0
 49
-0.635
 74
0
 49
1.27
 74
0
 49
-0.635
 74
0
  0
LTYPE
  5
31
330
2
100
AcDbSymbolTableRecord
100
AcDbLinetypeTableRecord
  2
CENTER2
 70
0
  3
Center (.5x) ____ _ ____ _ ____ _ ____ _ ____
 72
65
 73
4
 40
2.54
 49
1.587
 74
0
 49
-0.318
 74
0
 49
0.318
 74
0
 49
-0.318
 74
0
  0
LTYPE
  5
32
330
2
100
AcDbSymbolTableRecord
100
AcDbLinetypeTableRecord
  2
DASHED
 70
0
  3
Dashed __ __ __ __ __ __ __ __ __ __ __ __ __ _
 72
65
 73
2
 40
1.524
 49
1.27
 74
0
 49
-0.254
 74
0
  0
LTYPE
  5
33
330
2
100
AcDbSymbolTableRecord
100
AcDbLinetypeTableRecord
  2
DASHEDX2
 70
0
  3
Dashed (2x) ____  ____  ____  ____  ____  ____
 72
65
 73
2
 40
3.048
 49
2.54
 74
0
 49
-0.508
 74
0
  0
LTYPE
  5
34
330
2
100
AcDbSymbolTableRecord
100
AcDbLinetypeTableRecord
  2
DASHED2
 70
0
  3
Dashed (.5x) _ _ _ _ _ _ _ _ _ _ _ _ _ _
 72
65
 73
2
 40
0.762
 49
0.635
 74
0
 49
-0.127
 74
0
  0
LTYPE
  5
35
330
2
100
AcDbSymbolTableRecord
100
AcDbLinetypeTableRecord
  2
PHANTOM
 70
0
  3
Phantom ______  __  __  ______  __  __  ______
 72
65
 73
6
 40
6.35
 49
3.175
 74
0
 49
-0.635
 74
0
 49
0.635
 74
0
 49
-0.635
 74
0
 49
0.635
 74
0
 49
-0.635
 74
0
  0
LTYPE
  5
36
330
2
100
AcDbSymbolTableRecord
100
AcDbLinetypeTableRecord
  2
PHANTOMX2
 70
0
  3
Phantom (2x)____________    ____    ____    ____________
 72
65
 73
6
 40
10.795
 49
6.35
 74
0
 49
-0.635
 74
0
 49
1.27
 74
0
 49
-0.635
 74
0
 49
1.27
 74
0
 49
-0.635
 74
0
  0
LTYPE
  5
37
330
2
100
AcDbSymbolTableRecord
100
AcDbLinetypeTableRecord
  2
PHANTOM2
 70
0
  3
Phantom (.5x) ___ _ _ ___ _ _ ___ _ _ ___ _ _ ___
 72
65
 73
6
 40
3.175
 49
1.587
 74
0
 49
-0.318
 74
0
 49
0.318
 74
0
 49
-0.318
 74
0
 49
0.318
 74
0
 49
-0.318
 74
0
  0
LTYPE
  5
38
330
2
100
AcDbSymbolTableRecord
100
AcDbLinetypeTableRecord
  2
DASHDOT
 70
0
  3
Dash dot __ . __ . __ . __ . __ . __ . __ . __
 72
65
 73
4
 40
3.556
 49
2.54
 74
0
 49
-0.508
 74
0
 49
0.0
 74
0
 49
-0.508
 74
0
  0
LTYPE
  5
39
330
2
100
AcDbSymbolTableRecord
100
AcDbLinetypeTableRecord
  2
DASHDOTX2
 70
0
  3
Dash dot (2x) ____  .  ____  .  ____  .  ____
 72
65
 73
4
 40
6.096
 49
5.08
 74
0
 49
-0.508
 74
0
 49
0.0
 74
0
 49
-0.508
 74
0
  0
LTYPE
  5
3A
330
2
100
AcDbSymbolTableRecord
100
AcDbLinetypeTableRecord
  2
DASHDOT2
 70
0
  3
Dash dot (.5x) _ . _ . _ . _ . _ . _ . _ . _
 72
65
 73
4
 40
1.778
 49
1.27
 74
0
 49
-0.254
 74
0
 49
0.0
 74
0
 49
-0.254
 74
0
  0
LTYPE
  5
3B
330
2
100
AcDbSymbolTableRecord
100
AcDbLinetypeTableRecord
  2
DOT
 70
0
  3
Dot .  .  .  .  .  .  .  .  .  .  .  .  .  .  .  .
 72
65
 73
2
 40
0.508
 49
0.0
 74
0
 49
-0.508
 74
0
  0
LTYPE
  5
3C
330
2
100
AcDbSymbolTableRecord
100
AcDbLinetypeTableRecord
  2
DOTX2
 70
0
  3
Dot (2x) .    .    .    .    .    .    .    . 
 72
65
 73
2
 40
1.016
 49
0.0
 74
0
 49
-1.016
 74
0
  0
LTYPE
  5
3D
330
2
100
AcDbSymbolTableRecord
100
AcDbLinetypeTableRecord
  2
DOT2
 70
0
  3
Dot (.5) . . . . . . . . . . . . . . . . . . . 
 72
65
 73
2
 40
0.254
 49
0.0
 74
0
 49
-0.254
 74
0
  0
LTYPE
  5
3E
330
2
100
AcDbSymbolTableRecord
100
AcDbLinetypeTableRecord
  2
DIVIDE
 70
0
  3
Divide __ . . __ . . __ . . __ . . __ . . __
 72
65
 73
6
 40
4.064
 49
2.54
 74
0
 49
-0.508
 74
0
 49
0.0
 74
0
 49
-0.508
 74
0
 49
0.0
 74
0
 49
-0.508
 74
0
  0
LTYPE
  5
3F
330
2
100
AcDbSymbolTableRecord
100
AcDbLinetypeTableRecord
  2
DIVIDEX2
 70
0
  3
Divide (2x) ____  . .  ____  . .  ____  . .  ____
 72
65
 73
6
 40
6.604
 49
5.08
 74
0
 49
-0.508
 74
0
 49
0.0
 74
0
 49
-0.508
 74
0
 49
0.0
 74
0
 49
-0.508
 74
0
  0
LTYPE
  5
40
330
2
100
AcDbSymbolTableRecord
100
AcDbLinetypeTableRecord
  2
DIVIDE2
 70
0
  3
Divide(.5x) _ . _ . _ . _ . _ . _ . _ . _
 72
65
 73
6
 40
2.032
 49
1.27
 74
0
 49
-0.254
 74
0
 49
0.0
 74
0
 49
-0.254
 74
0
 49
0.0
 74
0
 49
-0.254
 74
0
  0
ENDTAB
  0
TABLE
  2
LAYER
  5
1
330
0
100
AcDbSymbolTable
 70
5
  0
LAYER
  5
27
330
1
100
AcDbSymbolTableRecord
100
AcDbLayerTableRecord
  2
0
 70
0
 62
7
  6
Continuous
370
-3
390
13
347
21
  0
LAYER
  5
28
330
1
100
AcDbSymbolTableRecord
100
AcDbLayerTableRecord
  2
Defpoints
 70
0
 62
7
  6
Continuous
290
0
370
-3
390
13
347
21
  0
LAYER
  5
8A
330
1
100
AcDbSymbolTableRecord
100
AcDbLayerTableRecord
  2
CORTE
 70
0
 62
1
  6
Continuous
370
-3
390
13
347
21
  0
LAYER
  5
8B
330
1
100
AcDbSymbolTableRecord
100
AcDbLayerTableRecord
  2
GRABADO
 70
0
 62
5
  6
Continuous
370
-3
390
13
347
21
  0
LAYER
  5
8C
330
1
100
AcDbSymbolTableRecord
100
AcDbLayerTableRecord
  2
HOJA
 70
0
 62
8
  6
Continuous
370
-3
390
13
347
21
  0
ENDTAB
  0
TABLE
  2
STYLE
  5
5
330
0
100
AcDbSymbolTable
 70
26
  0
STYLE
  5
29
330
5
100
AcDbSymbolTableRecord
100
AcDbTextStyleTableRecord
  2
Standard
 70
0
 40
0.0
 41
1.0
 50
0.0
 71
0
 42
2.5
  3
txt
  4

  0
STYLE
  5
41
330
5
100
AcDbSymbolTableRecord
100
AcDbTextStyleTableRecord
  2
OpenSans-Light
 70
0
 40
0.0
 41
1.0
 50
0.0
 71
0
 42
2.5
  3
OpenSans-Light.ttf
  4

  0
STYLE
  5
42
330
5
100
AcDbSymbolTableRecord
100
AcDbTextStyleTableRecord
  2
OpenSans-Light-Italic
 70
0
 40
0.0
 41
1.0
 50
0.0
 71
0
 42
2.5
  3
OpenSans-LightItalic.ttf
  4

  0
STYLE
  5
43
330
5
100
AcDbSymbolTableRecord
100
AcDbTextStyleTableRecord
  2
OpenSans
 70
0
 40
0.0
 41
1.0
 50
0.0
 71
0
 42
2.5
  3
OpenSans-Regular.ttf
  4

  0
STYLE
  5
44
330
5
100
AcDbSymbolTableRecord
100
AcDbTextStyleTableRecord
  2
OpenSans-Italic
 70
0
 40
0.0
 41
1.0
 50
0.0
 71
0
 42
2.5
  3
OpenSans-Italic.ttf
  4

  0
STYLE
  5
45
330
5
100
AcDbSymbolTableRecord
100
AcDbTextStyleTableRecord
  2
OpenSans-SemiBold
 70
0
 40
0.0
 41
1.0
 50
0.0
 71
0
 42
2.5
  3
OpenSans-SemiBold.ttf
  4

  0
STYLE
  5
46
330
5
100
AcDbSymbolTableRecord
100
AcDbTextStyleTableRecord
  2
OpenSans-SemiBoldItalic
 70
0
 40
0.0
 41
1.0
 50
0.0
 71
0
 42
2.5
  3
OpenSans-SemiBoldItalic.ttf
  4

  0
STYLE
  5
47
330
5
100
AcDbSymbolTableRecord
100
AcDbTextStyleTableRecord
  2
OpenSans-Bold
 70
0
 40
0.0
 41
1.0
 50
0.0
 71
0
 42
2.5
  3
OpenSans-Bold.ttf
  4

  0
STYLE
  5
48
330
5
100
AcDbSymbolTableRecord
100
AcDbTextStyleTableRecord
  2
OpenSans-BoldItalic
 70
0
 40
0.0
 41
1.0
 50
0.0
 71
0
 42
2.5
  3
OpenSans-BoldItalic.ttf
  4

  0
STYLE
  5
49
330
5
100
AcDbSymbolTableRecord
100
AcDbTextStyleTableRecord
  2
OpenSans-ExtraBold
 70
0
 40
0.0
 41
1.0
 50
0.0
 71
0
 42
2.5
  3
OpenSans-ExtraBold.ttf
  4

  0
STYLE
  5
4A
330
5
100
AcDbSymbolTableRecord
100
AcDbTextStyleTableRecord
  2
OpenSans-ExtraBoldItalic
 70
0
 40
0.0
 41
1.0
 50
0.0
 71
0
 42
2.5
  3
OpenSans-ExtraBoldItalic.ttf
  4

  0
STYLE
  5
4B
330
5
100
AcDbSymbolTableRecord
100
AcDbTextStyleTableRecord
  2
OpenSansCondensed-Bold
 70
0
 40
0.0
 41
1.0
 50
0.0
 71
0
 42
2.5
  3
OpenSansCondensed-Bold.ttf
  4

  0
STYLE
  5
4C
330
5
100
AcDbSymbolTableRecord
100
AcDbTextStyleTableRecord
  2
OpenSansCondensed-Light
 70
0
 40
0.0
 41
1.0
 50
0.0
 71
0
 42
2.5
  3
OpenSansCondensed-Light.ttf
  4

  0
STYLE
  5
4D
330
5
100
AcDbSymbolTableRecord
100
AcDbTextStyleTableRecord
  2
OpenSansCondensed-Italic
 70
0
 40
0.0
 41
1.0
 50
0.0
 71
0
 42
2.5
  3
OpenSansCondensed-LightItalic.ttf
  4

  0
STYLE
  5
4E
330
5
100
AcDbSymbolTableRecord
100
AcDbTextStyleTableRecord
  2
LiberationSans
 70
0
 40
0.0
 41
1.0
 50
0.0
 71
0
 42
2.5
  3
LiberationSans-Regular.ttf
  4

  0
STYLE
  5
4F
330
5
100
AcDbSymbolTableRecord
100
AcDbTextStyleTableRecord
  2
LiberationSans-Bold
 70
0
 40
0.0
 41
1.0
 50
0.0
 71
0
 42
2.5
  3
LiberationSans-Bold.ttf
  4

  0
STYLE
  5
50
330
5
100
AcDbSymbolTableRecord
100
AcDbTextStyleTableRecord
  2
LiberationSans-BoldItalic
 70
0
 40
0.0
 41
1.0
 50
0.0
 71
0
 42
2.5
  3
LiberationSans-BoldItalic.ttf
  4

  0
STYLE
  5
51
330
5
100
AcDbSymbolTableRecord
100
AcDbTextStyleTableRecord
  2
LiberationSans-Italic
 70
0
 40
0.0
 41
1.0
 50
0.0
 71
0
 42
2.5
  3
LiberationSans-Italic.ttf
  4

  0
STYLE
  5
52
330
5
100
AcDbSymbolTableRecord
100
AcDbTextStyleTableRecord
  2
LiberationSerif
 70
0
 40
0.0
 41
1.0
 50
0.0
 71
0
 42
2.5
  3
LiberationSerif-Regular.ttf
  4

  0
STYLE
  5
53
330
5
100
AcDbSymbolTableRecord
100
AcDbTextStyleTableRecord
  2
LiberationSerif-Bold
 70
0
 40
0.0
 41
1.0
 50
0.0
 71
0
 42
2.5
  3
LiberationSerif-Bold.ttf
  4

  0
STYLE
  5
54
330
5
100
AcDbSymbolTableRecord
100
AcDbTextStyleTableRecord
  2
LiberationSerif-BoldItalic
 70
0
 40
0.0
 41
1.0
 50
0.0
 71
0
 42
2.5
  3
LiberationSerif-BoldItalic.ttf
  4

  0
STYLE
  5
55
330
5
100
AcDbSymbolTableRecord
100
AcDbTextStyleTableRecord
  2
LiberationSerif-Italic
 70
0
 40
0.0
 41
1.0
 50
0.0
 71
0
 42
2.5
  3
LiberationSerif-Italic.ttf
  4

  0
STYLE
  5
56
330
5
100
AcDbSymbolTableRecord
100
AcDbTextStyleTableRecord
  2
LiberationMono
 70
0
 40
0.0
 41
1.0
 50
0.0
 71
0
 42
2.5
  3
LiberationMono-Regular.ttf
  4

  0
STYLE
  5
57
330
5
100
AcDbSymbolTableRecord
100
AcDbTextStyleTableRecord
  2
LiberationMono-Bold
 70
0
 40
0.0
 41
1.0
 50
0.0
 71
0
 42
2.5
  3
LiberationMono-Bold.ttf
  4

  0
STYLE
  5
58
330
5
100
AcDbSymbolTableRecord
100
AcDbTextStyleTableRecord
  2
LiberationMono-BoldItalic
 70
0
 40
0.0
 41
1.0
 50
0.0
 71
0
 42
2.5
  3
LiberationMono-BoldItalic.ttf
  4

  0
STYLE
  5
59
330
5
100
AcDbSymbolTableRecord
100
AcDbTextStyleTableRecord
  2
LiberationMono-Italic
 70
0
 40
0.0
 41
1.0
 50
0.0
 71
0
 42
2.5
  3
LiberationMono-Italic.ttf
  4

  0
ENDTAB
  0
TABLE
  2
VIEW
  5
7
330
0
100
AcDbSymbolTable
 70
0
  0
ENDTAB
  0
TABLE
  2
UCS
  5
6
330
0
100
AcDbSymbolTable
 70
0
  0
ENDTAB
  0
TABLE
  2
APPID
  5
3
330
0
100
AcDbSymbolTable
 70
3
  0
APPID
  5
2A
330
3
100
AcDbSymbolTableRecord
100
AcDbRegAppTableRecord
  2
ACAD
 70
0
  0
APPID
  5
9A
330
3
100
AcDbSymbolTableRecord
100
AcDbRegAppTableRecord
  2
HATCHBACKGROUNDCOLOR
 70
0
  0
APPID
  5
9B
330
3
100
AcDbSymbolTableRecord
100
AcDbRegAppTableRecord
  2
EZDXF
 70
0
  0
ENDTAB
  0
TABLE
  2
DIMSTYLE
  5
4
330
0
100
AcDbSymbolTable
 70
12
100
AcDbDimStyleTable
  0
DIMSTYLE
105
2B
330
4
100
AcDbSymbolTableRecord
100
AcDbDimStyleTableRecord
  2
Standard
 70
0
 40
1.0
 41
2.5
 42
0.625
 43
3.75
 44
1.25
 45
0.0
 46
0.0
 47
0.0
 48
0.0
 49
2.5
140
2.5
141
2.5
142
0.0
143
0.03937007874
144
1.0
145
0.0
146
1.0
147
0.625
148
0.0
 69
0
 70
0
 71
0
 72
0
 73
0
 74
0
 75
0
 76
0
 77
1
 78
8
 79
3
170
0
171
3
172
1
173
0
174
0
175
0
176
0
177
0
178
0
179
2
271
2
272
2
273
2
274
3
275
0
276
0
277
2
278
44
279
0
280
0
281
0
282
0
283
0
284
8
285
0
286
0
288
0
289
3
290
0
371
-2
372
-2
  0
DIMSTYLE
105
73
330
4
100
AcDbSymbolTableRecord
100
AcDbDimStyleTableRecord
  2
EZDXF
 70
0
 40
1.0
 41
0.175
 42
0.125
 43
3.75
 44
0.375
 45
0.0
 46
0.0
 47
0.0
 48
0.0
 49
2.5
140
0.25
141
2.5
142
0.0
143
0.03937007874
144
100.0
145
0.0
146
0.5
147
0.1
148
0.0
 69
0
 70
0
 71
0
 72
0
 73
0
 74
0
 75
0
 76
0
 77
1
 78
12
 79
3
170
0
171
3
172
1
173
0
174
0
175
0
176
0
177
0
178
0
179
2
271
2
272
2
273
2
274
3
275
0
276
0
277
2
278
46
279
2
280
0
281
0
282
0
283
0
284
8
285
0
286
0
288
1
289
3
290
0
340
4C
342
74
371
-2
372
-2
  0
DIMSTYLE
105
7C
330
4
100
AcDbSymbolTableRecord
100
AcDbDimStyleTableRecord
  2
EZ_M_100_H25_CM
 70
0
 40
1.0
 41
0.25
 42
0.125
 43
3.75
 44
0.375
 45
0.0
 46
0.0
 47
0.0
 48
0.0
 49
2.5
140
0.25
141
2.5
142
0.125
143
0.03937007874
144
100.0
145
0.0
146
0.5
147
0.1
148
0.0
 69
0
 70
0
 71
0
 72
0
 73
0
 74
0
 75
0
 76
0
 77
1
 78
12
 79
3
170
0
171
3
172
1
173
0
174
0
175
0
176
0
177
0
178
0
179
2
271
2
272
2
273
2
274
3
275
0
276
0
277
2
278
46
279
2
280
0
281
0
282
0
283
0
284
8
285
0
286
0
288
1
289
3
290
0
340
4C
371
-2
372
-2
  0
DIMSTYLE
105
7D
330
4
100
AcDbSymbolTableRecord
100
AcDbDimStyleTableRecord
  2
EZ_M_50_H25_CM
 70
0
 40
1.0
 41
0.125
 42
0.0625
 43
3.75
 44
0.1875
 45
0.0
 46
0.0
 47
0.0
 48
0.0
 49
2.5
140
0.125
141
2.5
142
0.0625
143
0.03937007874
144
100.0
145
0.0
146
0.5
147
0.05
148
0.0
 69
0
 70
0
 71
0
 72
0
 73
0
 74
0
 75
0
 76
0
 77
1
 78
12
 79
3
170
0
171
3
172
1
173
0
174
0
175
0
176
0
177
0
178
0
179
2
271
2
272
2
273
2
274
3
275
0
276
0
277
2
278
46
279
2
280
0
281
0
282
0
283
0
284
8
285
0
286
0
288
1
289
3
290
0
340
4C
371
-2
372
-2
  0
DIMSTYLE
105
7E
330
4
100
AcDbSymbolTableRecord
100
AcDbDimStyleTableRecord
  2
EZ_M_25_H25_CM
 70
0
 40
1.0
 41
0.0625
 42
0.03125
 43
3.75
 44
0.09375
 45
0.0
 46
0.0
 47
0.0
 48
0.0
 49
2.5
140
0.0625
141
2.5
142
0.03125
143
0.03937007874
144
100.0
145
0.0
146
0.5
147
0.025
148
0.0
 69
0
 70
0
 71
0
 72
0
 73
0
 74
0
 75
0
 76
0
 77
1
 78
12
 79
3
170
0
171
3
172
1
173
0
174
0
175
0
176
0
177
0
178
0
179
2
271
2
272
2
273
2
274
3
275
0
276
0
277
2
278
46
279
2
280
0
281
0
282
0
283
0
284
8
285
0
286
0
288
1
289
3
290
0
340
4C
371
-2
372
-2
  0
DIMSTYLE
105
7F
330
4
100
AcDbSymbolTableRecord
100
AcDbDimStyleTableRecord
  2
EZ_M_20_H25_CM
 70
0
 40
1.0
 41
0.05
 42
0.025
 43
3.75
 44
0.07500000000000001
 45
0.0
 46
0.0
 47
0.0
 48
0.0
 49
2.5
140
0.05
141
2.5
142
0.025
143
0.03937007874
144
100.0
145
0.0
146
0.5
147
0.020000000000000004
148
0.0
 69
0
 70
0
 71
0
 72
0
 73
0
 74
0
 75
0
 76
0
 77
1
 78
12
 79
3
170
0
171
3
172
1
173
0
174
0
175
0
176
0
177
0
178
0
179
2
271
2
272
2
273
2
274
3
275
0
276
0
277
2
278
46
279
2
280
0
281
0
282
0
283
0
284
8
285
0
286
0
288
1
289
3
290
0
340
4C
371
-2
372
-2
  0
DIMSTYLE
105
80
330
4
100
AcDbSymbolTableRecord
100
AcDbDimStyleTableRecord
  2
EZ_M_10_H25_CM
 70
0
 40
1.0
 41
0.025
 42
0.0125
 43
3.75
 44
0.037500000000000006
 45
0.0
 46
0.0
 47
0.0
 48
0.0
 49
2.5
140
0.025
141
2.5
142
0.0125
143
0.03937007874
144
100.0
145
0.0
146
0.5
147
0.010000000000000002
148
0.0
 69
0
 70
0
 71
0
 72
0
 73
0
 74
0
 75
0
 76
0
 77
1
 78
12
 79
3
170
0
171
3
172
1
173
0
174
0
175
0
176
0
177
0
178
0
179
2
271
2
272
2
273
2
274
3
275
0
276
0
277
2
278
46
279
2
280
0
281
0
282
0
283
0
284
8
285
0
286
0
288
1
289
3
290
0
340
4C
371
-2
372
-2
  0
DIMSTYLE
105
81
330
4
100
AcDbSymbolTableRecord
100
AcDbDimStyleTableRecord
  2
EZ_M_5_H25_CM
 70
0
 40
1.0
 41
0.0125
 42
0.00625
 43
3.75
 44
0.018750000000000003
 45
0.0
 46
0.0
 47
0.0
 48
0.0
 49
2.5
140
0.0125
141
2.5
142
0.00625
143
0.03937007874
144
100.0
145
0.0
146
0.5
147
0.005000000000000001
148
0.0
 69
0
 70
0
 71
0
 72
0
 73
0
 74
0
 75
0
 76
0
 77
1
 78
12
 79
3
170
0
171
3
172
1
173
0
174
0
175
0
176
0
177
0
178
0
179
2
271
2
272
2
273
2
274
3
275
0
276
0
277
2
278
46
279
2
280
0
281
0
282
0
283
0
284
8
285
0
286
0
288
1
289
3
290
0
340
4C
371
-2
372
-2
  0
DIMSTYLE
105
82
330
4
100
AcDbSymbolTableRecord
100
AcDbDimStyleTableRecord
  2
EZ_M_1_H25_CM
 70
0
 40
1.0
 41
0.0025
 42
0.00125
 43
3.75
 44
0.00375
 45
0.0
 46
0.0
 47
0.0
 48
0.0
 49
2.5
140
0.0025
141
2.5
142
0.00125
143
0.03937007874
144
100.0
145
0.0
146
0.5
147
0.001
148
0.0
 69
0
 70
0
 71
0
 72
0
 73
0
 74
0
 75
0
 76
0
 77
1
 78
12
 79
3
170
0
171
3
172
1
173
0
174
0
175
0
176
0
177
0
178
0
179
2
271
2
272
2
273
2
274
3
275
0
276
0
277
2
278
46
279
2
280
0
281
0
282
0
283
0
284
8
285
0
286
0
288
1
289
3
290
0
340
4C
371
-2
372
-2
  0
DIMSTYLE
105
83
330
4
100
AcDbSymbolTableRecord
100
AcDbDimStyleTableRecord
  2
EZ_RADIUS
 70
0
 40
1.0
 41
0.25
 42
0.125
 43
3.75
 44
0.375
 45
0.0
 46
0.0
 47
0.0
 48
0.0
 49
2.5
140
0.25
141
0.0
142
0.0
143
0.03937007874
144
100.0
145
0.0
146
0.5
147
0.1
148
0.0
 69
0
 70
0
 71
0
 72
0
 73
0
 74
0
 75
0
 76
0
 77
1
 78
12
 79
3
170
0
171
3
172
0
173
0
174
0
175
0
176
0
177
0
178
0
179
2
271
2
272
2
273
2
274
3
275
0
276
0
277
2
278
46
279
1
280
0
281
0
282
0
283
0
284
8
285
0
286
0
288
1
289
3
290
0
340
4C
342
84
371
-2
372
-2
  0
DIMSTYLE
105
88
330
4
100
AcDbSymbolTableRecord
100
AcDbDimStyleTableRecord
  2
EZ_RADIUS_INSIDE
 70
0
 40
1.0
 41
0.25
 42
0.125
 43
3.75
 44
0.375
 45
0.0
 46
0.0
 47
0.0
 48
0.0
 49
2.5
140
0.25
141
0.0
142
0.0
143
0.03937007874
144
100.0
145
0.0
146
0.5
147
0.1
148
0.0
 69
0
 70
0
 71
0
 72
0
 73
0
 74
0
 75
0
 76
0
 77
0
 78
12
 79
3
170
0
171
3
172
0
173
0
174
1
175
0
176
0
177
0
178
0
179
2
271
2
272
2
273
2
274
3
275
0
276
0
277
2
278
46
279
0
280
0
281
0
282
0
283
0
284
8
285
0
286
0
288
1
289
0
290
0
340
4C
342
84
371
-2
372
-2
  0
DIMSTYLE
105
89
330
4
100
AcDbSymbolTableRecord
100
AcDbDimStyleTableRecord
  2
EZ_CURVED
 70
0
 40
1.0
 41
0.25
 42
0.125
 43
3.75
 44
0.375
 45
0.0
 46
0.0
 47
0.0
 48
0.0
 49
2.5
140
0.25
141
2.5
142
0.0
143
0.03937007874
144
100.0
145
0.0
146
0.5
147
0.1
148
0.0
 69
0
 70
0
 71
0
 72
0
 73
0
 74
0
 75
0
 76
0
 77
1
 78
12
 79
2
 90
2
170
0
171
3
172
1
173
0
174
0
175
0
176
0
177
0
178
0
179
2
271
2
272
2
273
2
274
3
275
0
276
0
277
2
278
46
279
2
280
0
281
0
282
0
283
0
284
8
285
0
286
0
288
1
289
3
290
0
340
4C
371
-2
372
-2
  0
ENDTAB
  0
TABLE
  2
BLOCK_RECORD
  5
9
330
0
100
AcDbSymbolTable
 70
5
  0
BLOCK_RECORD
  5
17
330
9
100
AcDbSymbolTableRecord
100
AcDbBlockTableRecord
  2
*Model_Space
340
1A
 70
0
280
1
281
0
  0
BLOCK_RECORD
  5
1B
330
9
100
AcDbSymbolTableRecord
100
AcDbBlockTableRecord
  2
*Paper_Space
340
1E
 70
0
280
1
281
0
  0
BLOCK_RECORD
  5
74
330
9
100
AcDbSymbolTableRecord
100
AcDbBlockTableRecord
  2
_ARCHTICK
340
0
 70
0
280
1
281
0
  0
BLOCK_RECORD
  5
78
330
9
100
AcDbSymbolTableRecord
100
AcDbBlockTableRecord
  2
_CLOSEDFILLED
340
0
 70
0
280
1
281
0
  0
BLOCK_RECORD
  5
84
330
9
100
AcDbSymbolTableRecord
100
AcDbBlockTableRecord
  2
_CLOSEDBLANK
340
0
 70
0
280
1
281
0
  0
ENDTAB
  0
ENDSEC
  0
SECTION
  2
BLOCKS
  0
BLOCK
  5
18
330
17
100
AcDbEntity
  8
0
100
AcDbBlockBegin
  2
*Model_Space
 70
0
 10
0.0
 20
0.0
 30
0.0
  3
*Model_Space
  1

  0
ENDBLK
  5
19
330
17
100
AcDbEntity
  8
0
100
AcDbBlockEnd
  0
BLOCK
  5
1C
330
1B
100
AcDbEntity
  8
0
100
AcDbBlockBegin
  2
*Paper_Space
 70
0
 10
0.0
 20
0.0
 30
0.0
  3
*Paper_Space
  1

  0
ENDBLK
  5
1D
330
1B
100
AcDbEntity
  8
0
100
AcDbBlockEnd
  0
BLOCK
  5
75
330
74
100
AcDbEntity
  8
0
100
AcDbBlockBegin
  2
_ARCHTICK
 70
0
 10
0.0
 20
0.0
 30
0.0
  3
_ARCHTICK
  1

  0
LWPOLYLINE
  5
77
330
74
100
AcDbEntity
  8
0
  6
BYBLOCK
 62
0
100
AcDbPolyline
 90
2
 70
0
 43
0.15
 10
-0.5
 20
-0.5
 10
0.5
 20
0.5
  0
ENDBLK
  5
76
330
74
100
AcDbEntity
  8
0
100
AcDbBlockEnd
  0
BLOCK
  5
79
330
78
100
AcDbEntity
  8
0
100
AcDbBlockBegin
  2
_CLOSEDFILLED
 70
0
 10
0.0
 20
0.0
 30
0.0
  3
_CLOSEDFILLED
  1

  0
SOLID
  5
7B
330
78
100
AcDbEntity
  8
0
  6
BYBLOCK
 62
0
100
AcDbTrace
 10
-1.0
 20
0.16439898372402537
 30
0.0
 11
0.0
 21
0.0
 31
0.0
 12
-1.0
 22
-0.16439898372402537
 32
0.0
 13
-1.0
 23
-0.16439898372402537
 33
0.0
  0
ENDBLK
  5
7A
330
78
100
AcDbEntity
  8
0
100
AcDbBlockEnd
  0
BLOCK
  5
85
330
84
100
AcDbEntity
  8
0
100
AcDbBlockBegin
  2
_CLOSEDBLANK
 70
0
 10
0.0
 20
0.0
 30
0.0
  3
_CLOSEDBLANK
  1

  0
LWPOLYLINE
  5
87
330
84
100
AcDbEntity
  8
0
  6
BYBLOCK
 62
0
100
AcDbPolyline
 90
3
 70
1
 10
-1.0
 20
0.16439898372402537
 10
0.0
 20
0.0
 10
-1.0
 20
-0.16439898372402537
  0
ENDBLK
  5
86
330
84
100
AcDbEntity
  8
0
100
AcDbBlockEnd
  0
ENDSEC
  0
SECTION
  2
ENTITIES
  0
LWPOLYLINE
  5
8D
330
17
100
AcDbEntity
  8
HOJA
100
AcDbPolyline
 90
4
 70
1
 10
0.0
 20
0.0
 10
600.0
 20
0.0
 10
600.0
 20
900.0
 10
0.0
 20
900.0
  0
LWPOLYLINE
  5
8E
330
17
100
AcDbEntity
  8
CORTE
100
AcDbPolyline
 90
639
 70
1
 10
15.82241244732495
 20
263.355577491212
 10
15.82241244732495
 20
263.35696643526944
 10
16.485890631122857
 20
267.0897540740916
 10
15.103542250531973
 20
271.6296015072344
 10
13.660267356436634
 20
276.3359111029954
 10
13.657922692116244
 20
276.34685286982494
 10
13.657922692116244
 20
276.36333999801855
 10
13.661274133582992
 20
276.3778629110411
 10
16.145666753096975
 20
282.31893433625555
 10
16.7751874517362
 20
285.62984389832764
 10
16.776104004336503
 20
285.63442666132914
 10
18.6448243647269
 20
291.4205158804666
 10
18.648546870719656
 20
291.4301943960477
 10
18.65520103132212
 20
291.4401756369516
 10
21.50504934273613
 20
294.9207942316225
 10
25.61843369178041
 20
301.02826465250473
 10
26.674130563102608
 20
304.1632581670642
 10
26.675566873624575
 20
304.1666095582814
 10
28.238172542931807
 20
307.6469326777492
 10
28.238711029634487
 20
307.64854813785723
 10
31.15433024974709
 20
313.42773428028477
 10
32.588910669264806
 20
317.06968465813725
 10
35.70697247792623
 20
322.6873765915698
 10
37.9553637917511
 20
329.8131128384839
 10
37.95655586707653
 20
329.817881139787
 10
38.93721929332651
 20
331.9219426236673
 10
36.88746319105803
 20
337.55452838321617
 10
32.64725415237808
 20
338.85447015170075
 10
30.90799345723144
 20
338.7783028508029
 10
30.901682678303132
 20
338.7783028508029
 10
30.895531243705136
 20
338.77907178012765
 10
30.88742511695409
 20
338.7804228012528
 10
30.872431750099622
 20
338.7857775751295
 10
30.86347647831235
 20
338.791747756321
 10
30.85748004247307
 20
338.7961088005677
 10
30.85273235393379
 20
338.800856489107
 10
28.630754113140938
 20
341.12338906108016
 10
28.625555382435778
 20
341.1275480456443
 10
28.615853224268903
 20
341.1421012828946
 10
28.61166243649086
 20
341.15118132308044
 10
28.608872290453746
 20
341.1595517611918
 10
28.606500109955505
 20
341.171412663683
 10
28.606500109955505
 20
341.18623308420774
 10
29.686568206344873
 20
346.6107845773395
 10
29.689537768951595
 20
346.6182084838556
 10
31.3481999620476
 20
350.4424539974866
 10
29.535824647077334
 20
355.62375871299264
 10
29.532827330024247
 20
355.6327506641519
 10
29.188053480930193
 20
359.68645222270516
 10
28.212820131019726
 20
363.1349986144296
 10
28.21166821840825
 20
363.140182221181
 10
27.428250104514973
 20
368.9487658516073
 10
27.06392850272823
 20
370.8707391699909
 10
25.614248235515788
 20
375.907638603102
 10
25.116162617860937
 20
377.5410720121181
 10
24.967085386581402
 20
378.19720588916925
 10
22.60230837968402
 20
383.4241875480802
 10
18.662755280559395
 20
387.26036032028014
 10
18.6599971210062
 20
387.26311847983334
 10
18.655638631477814
 20
387.2683486672672
 10
18.599063611836755
 20
387.35034350526394
 10
18.51003995519568
 20
387.4238065255995
 10
18.502611600281398
 20
387.4297492095311
 10
18.495781588325826
 20
387.4391404759699
 10
18.488438708800004
 20
387.4501547952582
 10
18.483814978509145
 20
387.4663378512778
 10
18.482336682806817
 20
387.4766859211927
 10
18.482336682806817
 20
387.48734609298344
 10
18.4838149785096
 20
387.49769416290155
 10
18.48616035548639
 20
387.5059029823219
 10
18.644848293567975
 20
387.9159076436936
 10
18.645785938375866
 20
387.91872057811725
 10
22.900586945698706
 20
396.7676163475744
 10
24.87609703947237
 20
405.04196908917856
 10
24.87756039287342
 20
405.04733471831423
 10
25.27359741553437
 20
406.03162040902635
 10
25.61679264238228
 20
406.8435089787308
 10
28.99661173254617
 20
415.2953710755178
 10
29.001296265404562
 20
415.30407092225414
 10
29.00782604295864
 20
415.31277729232625
 10
32.60620469685546
 20
418.9237989833232
 10
32.6110157589801
 20
418.9278082017604
 10
32.614628859732875
 20
418.9303889880125
 10
37.922277750251396
 20
422.3803644523655
 10
37.92256015280827
 20
422.38064685492236
 10
39.586683942965465
 20
423.4375743030473
 10
41.29276782634588
 20
424.5758218591395
 10
44.96603835055748
 20
431.7391828905793
 10
46.04717632513166
 20
433.8108902783679
 10
46.52540454149312
 20
435.88223601918526
 10
46.525872038865145
 20
435.8841060086738
 10
46.52870861925976
 20
435.8940340400559
 10
46.53611213436034
 20
435.9069901914813
 10
46.54626679804778
 20
435.919683521091
 10
46.555720875562656
 20
435.92643643360134
 10
46.55904725432447
 20
435.92865401944255
 10
49.27269516804063
 20
437.459688225822
 10
53.50886866930614
 20
442.0082984511696
 10
54.163704437150045
 20
443.0808514539567
 10
55.23277970638901
 20
445.3770552731862
 10
55.2337138042808
 20
445.37939051791545
 10
59.06262077645579
 20
452.34390048091745
 10
59.06494550043362
 20
452.34762003928154
 10
60.4802282302071
 20
454.3317236531807
 10
60.48899636845181
 20
454.34224541907406
 10
60.49918114903721
 20
454.34903527279766
 10
60.504132033381666
 20
454.3520819708556
 10
62.79000346363364
 20
455.40909211136295
 10
67.46041091769621
 20
458.31581168042567
 10
70.19367027410408
 20
461.61166664763505
 10
74.41882871775215
 20
467.8604150557644
 10
74.42281205334575
 20
467.86639005915504
 10
74.42932533174098
 20
467.87290333755027
 10
74.43648716509279
 20
467.8794140951427
 10
74.45077521508438
 20
467.8877487909713
 10
74.46184680387387
 20
467.8911554336755
 10
80.1245783252707
 20
469.15879457661913
 10
81.42897828640571
 20
469.4507929598276
 10
84.88196351798342
 20
470.8954122439359
 10
88.37024958982147
 20
472.59417091021487
 10
93.08644717140805
 20
480.1289118639693
 10
95.33173033030107
 20
483.3908521986432
 10
95.3357174636626
 20
483.39643418534934
 10
95.34368284418542
 20
483.40439956587215
 10
101.09601259405781
 20
487.7840100175363
 10
102.28886308828896
 20
488.6941715502071
 10
102.28886308828896
 20
488.6953431798115
 10
103.27176629664518
 20
489.4072408080697
 10
109.28520072551783
 20
494.5586177693226
 10
113.85220673780441
 20
498.659215155727
 10
116.24059507075754
 20
502.020801423198
 10
119.05769254727602
 20
507.8874966979133
 10
119.16848369130412
 20
511.7677437699781
 10
118.26670711260158
 20
517.1238279048034
 10
118.26670711260158
 20
517.1403044654571
 10
119.4581557120946
 20
521.4365534584499
 10
119.45949310765491
 20
521.4401198466103
 10
121.40227610792226
 20
526.4189408325478
 10
121.40707260229283
 20
526.4301326527452
 10
123.21793572436172
 20
528.6033735676533
 10
123.22319401253071
 20
528.6099464278645
 10
123.23504683094734
 20
528.6190103478302
 10
126.01073020508329
 20
530.134152893922
 10
130.20409837743046
 20
531.8114655384038
 10
133.9843636600326
 20
535.6996192972856
 10
137.1601220987709
 20
540.1232850188389
 10
137.16969873267453
 20
540.1328616527426
 10
137.17802722542137
 20
540.1384139812403
 10
137.18207746450435
 20
540.1407284035736
 10
137.18692234307855
 20
540.1431508428609
 10
141.91524116643131
 20
542.0031007528182
 10
141.9226005068349
 20
542.0073060901918
 10
141.94200723711583
 20
542.0102917410045
 10
144.1935339945162
 20
542.0102917410045
 10
144.19967372168685
 20
542.009414637123
 10
144.20771832535092
 20
542.0080738698457
 10
144.21483819200057
 20
542.0054039198521
 10
147.85948916692405
 20
540.6030230173105
 10
151.12916071425752
 20
541.5480634057717
 10
156.99548254374713
 20
544.97190670391
 10
158.0799955839052
 20
546.0152699055479
 10
158.0872369959966
 20
546.0210630352208
 10
158.09270553606757
 20
546.0241879152613
 10
158.10520695940932
 20
546.0311331504513
 10
158.11956832287842
 20
546.0331847738039
 10
158.12485436102224
 20
546.0338455285719
 10
158.13419302327748
 20
546.0338455285719
 10
158.14127279402965
 20
546.0329605572279
 10
158.83259242849
 20
545.8999494773202
 10
163.34310967992315
 20
544.9844680598098
 10
163.34821726397695
 20
544.9829357845933
 10
164.72915690299806
 20
544.4907597695551
 10
165.08559462340463
 20
544.5734351843639
 10
165.09403997242362
 20
544.5748427425337
 10
165.10948008412788
 20
544.5748427425337
 10
165.11964967554422
 20
544.5723003446797
 10
165.12241820872123
 20
544.5715093352005
 10
165.12902080812864
 20
544.5693084687314
 10
165.1356501362684
 20
544.5659938046615
 10
165.14617809193032
 20
544.5599778299975
 10
165.15621741132327
 20
544.5499385106045
 10
165.15923091045715
 20
544.5461716366872
 10
168.50612517014088
 20
540.2057926550833
 10
172.0690483785138
 20
540.3885485056153
 10
172.08079890781437
 20
540.3885485056153
 10
172.09400021254487
 20
540.385028157687
 10
174.81753424739782
 20
539.3512827456311
 10
178.99901471062867
 20
538.9774073830545
 10
182.20171150553233
 20
544.9502583605336
 10
182.2059283269009
 20
544.956583592586
 10
182.20859228654308
 20
544.959780344157
 10
185.95593948133273
 20
549.4190273001345
 10
185.96313280221875
 20
549.4269399531095
 10
185.97296435921044
 20
549.4334943244371
 10
185.9770145982934
 20
549.4358087467704
 10
185.9862402976405
 20
549.4404215964441
 10
185.99713318613158
 20
549.4431448185669
 10
186.00210377375925
 20
549.4439732498381
 10
186.0082636869929
 20
549.4446576846417
 10
186.01758896178399
 20
549.4446576846417
 10
189.06148831720702
 20
549.0228873993683
 10
189.06671620664883
 20
549.0221405580191
 10
189.07320909735608
 20
549.0202854463887
 10
189.0798116967635
 20
549.0180845799196
 10
189.08588131490706
 20
549.0150497708478
 10
192.98439772210213
 20
546.8727697969766
 10
195.23881967593252
 20
548.0174856612316
 10
195.2455506479364
 20
548.0200097757329
 10
195.25253803013175
 20
548.0220061706459
 10
195.25823708876806
 20
548.0229560137518
 10
195.26438852336605
 20
548.0237249430766
 10
195.27526504427078
 20
548.0237249430766
 10
195.28434224071816
 20
548.0222120770022
 10
195.29307815016773
 20
548.0200280996396
 10
195.30062757681617
 20
548.016792631076
 10
195.30677525089095
 20
548.0137187940386
 10
195.31971091061223
 20
548.0050950208911
 10
195.3271545407897
 20
547.9961626646782
 10
195.32965622803113
 20
547.9930355556262
 10
195.3370329556451
 20
547.9819704642055
 10
195.3421676846301
 20
547.9665662772509
 10
195.82388461284972
 20
544.9228134382656
 10
195.82471829773203
 20
544.9169776440895
 10
195.82471829773203
 20
544.9102004264514
 10
195.60258183168708
 20
539.15604830761
 10
199.9068890671274
 20
541.5786752979366
 10
203.06794729001922
 20
544.9538580045019
 10
206.8567253923875
 20
553.3321868098915
 10
206.8594669749441
 20
553.3376699750047
 10
206.86272788766428
 20
553.342561344085
 10
206.86461882889307
 20
553.3452086618049
 10
206.87316974437545
 20
553.3558973061581
 10
206.8839925504044
 20
553.3631125101774
 10
206.8925285328446
 20
553.3683654224483
 10
206.90291980557868
 20
553.3718291800265
 10
206.91463255037934
 20
553.3749525786397
 10
206.9286147113039
 20
553.3749525786397
 10
206.93477462453757
 20
553.3742681438362
 10
206.94058766391754
 20
553.3732993039393
 10
212.15575801959858
 20
551.9428282620152
 10
213.87142094947603
 20
552.5171960072048
 10
213.87788291750303
 20
552.5193499965471
 10
213.8898542100942
 20
552.5210601812032
 10
213.90016226913394
 20
552.5210601812032
 10
213.9105237960921
 20
552.5196786442757
 10
213.92249069760373
 20
552.5162595295578
 10
213.93167907943916
 20
552.5116653386403
 10
213.94199087783772
 20
552.5053196165486
 10
213.95291568287485
 20
552.4943948115115
 10
216.68181087143194
 20
548.5788841718304
 10
216.682295800254
 20
548.5782780108029
 10
216.69059540075295
 20
548.5658286100547
 10
216.69424529609205
 20
548.5530539763677
 10
217.5661873866461
 20
544.9307341363392
 10
217.56863951730065
 20
544.9221516790476
 10
217.56863951730065
 20
544.9020630697878
 10
215.78802060137832
 20
538.0490390091832
 10
215.78590577260593
 20
538.0426945228655
 10
215.7825371339295
 20
538.0353958057335
 10
214.35699666113624
 20
535.6350120458137
 10
215.26677565339014
 20
528.1344032432653
 10
215.95852181153396
 20
526.431213468034
 10
218.64394060949098
 20
523.4943353670214
 10
220.84321119794004
 20
524.194854893281
 10
227.72656819057102
 20
526.3464758741397
 10
227.73231540918232
 20
526.3483916136765
 10
227.73941739720658
 20
526.3494061833944
 10
227.8058953709874
 20
526.3581600857292
 10
227.90611522413792
 20
526.438686086165
 10
228.14993498363992
 20
526.9284759614561
 10
231.5111831990066
 20
535.6673397242821
 10
231.81899525425933
 20
541.0169648163451
 10
228.37827758999765
 20
544.8626212370154
 10
228.37486901767443
 20
544.8667115238036
 10
228.370056592345
 20
544.8739301617975
 10
228.36698275530762
 20
544.8800778358723
 10
228.36424204913646
 20
544.8864728169383
 10
228.3600504433066
 20
544.9011434373429
 10
228.3600504433066
 20
544.9214758337557
 10
228.36541509682274
 20
544.9415932844422
 10
228.3729824515185
 20
544.9538902358227
 10
228.38048865827432
 20
544.9638985114966
 10
234.75681211784422
 20
550.1919031599682
 10
234.76197813392082
 20
550.1970691760448
 10
234.7791604620843
 20
550.2063211989021
 10
239.74979656585128
 20
551.5715371294455
 10
239.759775082367
 20
551.5728675983141
 10
239.77008314140585
 20
551.5728675983141
 10
239.78118511555022
 20
551.5712816020077
 10
239.79062639744598
 20
551.5683765921935
 10
239.7967743072959
 20
551.5657417736866
 10
241.81509616026005
 20
550.5233468555248
 10
241.81966203282082
 20
550.5204931851745
 10
241.8240751684575
 20
550.5173409454342
 10
244.35329518111894
 20
548.3733350228977
 10
248.7395877969402
 20
548.48558663637
 10
251.87973300822523
 20
549.1753138673462
 10
255.69271012240006
 20
550.9849636891827
 10
255.70876668229948
 20
550.9895512777252
 10
255.72394013427902
 20
550.9895512777252
 10
255.73009156887701
 20
550.9887823484005
 10
255.733580902443
 20
550.9882007928063
 10
255.74455364640835
 20
550.9857624052584
 10
255.75652640637918
 20
550.9797760252732
 10
258.7833213297181
 20
549.0213592324121
 10
262.7000811986377
 20
548.6357391567417
 10
265.13207214804197
 20
548.2145595235497
 10
265.13572195334336
 20
548.2140381227923
 10
269.68391987178575
 20
546.957115239521
 10
269.6921412794718
 20
546.9540322116391
 10
270.7485248978255
 20
546.3721716918035
 10
270.7532604898879
 20
546.3693303365662
 10
272.58760908945214
 20
544.9730725800614
 10
275.30951995468376
 20
543.213970771922
 10
276.6154661627411
 20
543.4571620032239
 10
276.6174598384796
 20
543.4576604221588
 10
283.0794193208626
 20
544.2986592242055
 10
283.0896093921788
 20
544.2986592242055
 10
283.10137010821927
 20
544.2969791219139
 10
283.59124712527455
 20
544.1367444703046
 10
284.8377524025027
 20
544.9522061290259
 10
284.8377524025027
 20
544.953018537718
 10
290.5347628816444
 20
548.5457012463971
 10
290.54021309376003
 20
548.5486740893689
 10
294.47496620274524
 20
550.1992477358926
 10
294.48422923958424
 20
550.2017178790497
 10
294.49391764809207
 20
550.2031019374081
 10
294.4997581794473
 20
550.2031019374081
 10
297.5238278698712
 20
550.1619367607568
 10
304.4065809824151
 20
554.1436778642787
 10
304.4147149341834
 20
554.1481145652433
 10
304.4265470310015
 20
554.1514951643344
 10
304.50247622043844
 20
554.1647011473046
 10
304.5088778510467
 20
554.1656156659628
 10
304.5263787614599
 20
554.1656156659628
 10
304.54298158286565
 20
554.1600813921609
 10
304.55192533333957
 20
554.155609516924
 10
304.55681670241984
 20
554.1523486042038
 10
304.56178038104827
 20
554.1488031194694
 10
308.6096694005105
 20
550.3741809079779
 10
311.5039048006188
 20
549.7724961845693
 10
311.5132456826723
 20
549.7695464323419
 10
314.1199423514013
 20
548.4593107645583
 10
318.4582182831541
 20
548.162410248915
 10
318.4644142223733
 20
548.162410248915
 10
320.49924412235714
 20
547.6805366558701
 10
320.50094069232
 20
547.6802538942097
 10
320.50962203169047
 20
547.6777735115325
 10
325.4578454134876
 20
545.5528302455318
 10
325.4616541645878
 20
545.5509258699817
 10
325.4685378866734
 20
545.5469923145042
 10
325.47774669735327
 20
545.5396252659602
 10
325.4833382828647
 20
545.5334745218975
 10
325.4890633489863
 20
545.526318189246
 10
325.4938707597562
 20
545.5173901406729
 10
325.49874560749777
 20
545.5060154959428
 10
325.5003740866737
 20
545.496244620887
 10
325.5012511905552
 20
545.4901048937163
 10
325.5012511905552
 20
13.375024310055778
 10
325.50124987404706
 20
13.000005265751952
 10
325.35125119048917
 20
13.000005529037935
 10
325.35125119048917
 20
230.7372545765097
 10
324.1989400275834
 20
229.98719126469769
 10
324.1923361450531
 20
229.98363532795065
 10
318.49369425209306
 20
227.7260571126858
 10
314.23640108681093
 20
224.32705402529928
 10
314.2328298361449
 20
224.32467319152192
 10
311.53050894027956
 20
222.6328625028168
 10
309.45764739638116
 20
220.73754659385258
 10
304.5664807382782
 20
215.61873767942325
 10
304.5592964147718
 20
215.61227178826766
 10
297.81234955702985
 20
211.46706978456632
 10
297.58035656578386
 20
211.31890554602705
 10
297.4064139934121
 20
211.23319499443824
 10
290.6147551842523
 20
206.58123260559069
 10
290.60863409101285
 20
206.57715187676467
 10
290.59793573809657
 20
206.57256686837172
 10
290.5905512897011
 20
206.57045702597316
 10
286.2598582674277
 20
205.69121938837725
 10
286.25846378882443
 20
205.69028973597506
 10
283.6192134217986
 20
205.2712547737142
 10
277.5537191094013
 20
203.39497094175294
 10
276.6519732610068
 20
203.13927678314803
 10
276.64648350394737
 20
203.13770828113093
 10
276.63611054443527
 20
203.13641166119214
 10
276.62677188218277
 20
203.13641166119214
 10
276.62152523112763
 20
203.1370674925738
 10
270.969707239743
 20
203.9383669099584
 10
269.6625008609012
 20
203.87617434903223
 10
269.6502136224026
 20
203.87617434903223
 10
269.63648735075503
 20
203.88009614093153
 10
265.2492287371556
 20
205.62625094178247
 10
262.68900810183413
 20
206.14329470179564
 10
258.0967961312831
 20
205.3387887780773
 10
258.0853726416349
 20
205.33715685098468
 10
258.06805280133403
 20
205.33946616302455
 10
258.05736105597816
 20
205.34303007814333
 10
258.04460596506715
 20
205.34891704317943
 10
258.03287137408597
 20
205.35869586899662
 10
258.02831169733963
 20
205.36376217649286
 10
255.69208598095793
 20
208.16832004507842
 10
252.67122701942026
 20
207.38391240460533
 10
252.66193963617388
 20
207.3815905587935
 10
252.64142914220383
 20
207.3815905587935
 10
252.61659520089233
 20
207.3892317715049
 10
252.60231875987893
 20
207.40091249597026
 10
252.59726807441848
 20
207.4059631814307
 10
252.5923560780093
 20
207.41185757712128
 10
249.92941234196223
 20
211.46773775531392
 10
248.96585421223836
 20
211.7897692949855
 10
248.95948911307414
 20
211.7931966560741
 10
248.7345573040584
 20
211.92046434581198
 10
245.8270618106726
 20
211.45833609669398
 10
241.80929287284607
 20
209.4825194029031
 10
241.80312576088136
 20
209.47987635491836
 10
241.7973535329661
 20
209.47822714694257
 10
241.78718394154976
 20
209.4756847490885
 10
241.77520215126015
 20
209.4756847490885
 10
240.37427241111845
 20
209.57851545713766
 10
234.83896993562576
 20
207.86559145271485
 10
229.6591562686922
 20
204.57687875144438
 10
229.65187325064426
 20
204.57323724241996
 10
229.64533568477418
 20
204.57085994574027
 10
229.6404927337685
 20
204.56947624545273
 10
227.87908937793418
 20
204.1857361046641
 10
226.363539779622
 20
202.23057844936466
 10
223.8356677132806
 20
196.83600084364252
 10
223.0699535875674
 20
192.99025565650436
 10
223.0672219608541
 20
192.98206077636405
 10
223.06380034160975
 20
192.9745332140269
 10
220.93538140454893
 20
189.44004477727458
 10
219.37024898183745
 20
183.72189644680066
 10
219.36631892714922
 20
183.7140363374242
 10
215.19157183366997
 20
176.08805889512587
 10
214.48461886346377
 20
174.45565321014828
 10
214.47883509312305
 20
174.44491192237183
 10
214.470173356151
 20
174.43528777018082
 10
214.46354061009015
 20
174.42931829872623
 10
213.93748567345165
 20
174.06918231253758
 10
213.38764429818457
 20
173.69448818988667
 10
213.38531121552933
 20
173.6926217237624
 10
206.96164727874702
 20
170.02509195804896
 10
201.15170268158363
 20
166.7079950907273
 10
201.14483448944566
 20
166.70524781387212
 10
201.14119757690924
 20
166.7040355096933
 10
201.13577016593854
 20
166.7024848208448
 10
199.99979808700027
 20
166.50592353358343
 10
199.18428195656452
 20
165.18575680811864
 10
199.1777575968149
 20
165.17678581346217
 10
193.0375043765407
 20
159.7635535348827
 10
193.03264351217967
 20
159.75747745443186
 10
193.0184168599012
 20
159.74934793884404
 10
193.01178753175873
 20
159.7460332747728
 10
192.9999799446059
 20
159.74209741238838
 10
192.98799185897724
 20
159.74049900097134
 10
192.97847077105962
 20
159.74049900097134
 10
189.26456006387934
 20
160.19209531867864
 10
186.04630385908422
 20
158.5413414570703
 10
186.0428724067583
 20
158.53962573090757
 10
179.2798775280071
 20
155.90327235702443
 10
179.1012212952828
 20
155.71730988420495
 10
173.4686760846048
 20
146.66583873987474
 10
173.46621826408136
 20
146.66215200908937
 10
173.4633911753972
 20
146.65861814823393
 10
173.4587112566037
 20
146.65315824297477
 10
172.12186057719828
 20
145.5165402550806
 10
172.11539756831553
 20
145.51007724619785
 10
172.09786922102649
 20
145.50131307255333
 10
172.08101448853222
 20
145.4967163273277
 10
172.06352652208216
 20
145.4967163273277
 10
171.32135764703298
 20
145.64550981859384
 10
171.32033172497222
 20
145.64550981859384
 10
167.0108236537303
 20
146.6314626216399
 10
167.00813487996857
 20
146.6314626216399
 10
165.4397375494018
 20
147.10873291947883
 10
165.08688602112397
 20
147.17770088375119
 10
165.08211270293805
 20
147.1784964367821
 10
165.07258935807658
 20
147.18167088506925
 10
165.06052610614825
 20
147.18723853980555
 10
165.05138488765942
 20
147.19455151459624
 10
161.18339561341782
 20
150.75028089627904
 10
158.10610838827506
 20
151.8320419201873
 10
155.62199810638367
 20
152.59189401312278
 10
151.14345634052916
 20
153.8503411115871
 10
149.76379507758702
 20
154.04571960692692
 10
149.75980296564876
 20
154.04571960692692
 10
144.1789276559034
 20
155.44768926995994
 10
144.1781520151103
 20
155.44768926995994
 10
143.88976267511998
 20
155.52640614775055
 10
143.87816494778144
 20
155.52997467923979
 10
143.86779524732992
 20
155.53688781287383
 10
143.85840398089113
 20
155.5437178248294
 10
143.8514484825314
 20
155.55241219777918
 10
143.57626562902533
 20
155.91689439752236
 10
139.83118358132515
 20
159.44323711976176
 10
137.1969169205713
 20
161.23280299621592
 10
134.1048083790315
 20
161.00717764141928
 10
134.09676644492401
 20
161.00602879368944
 10
134.08108828911372
 20
161.0082685302341
 10
134.07459539840647
 20
161.01012364186454
 10
134.06690838617624
 20
161.01268597927447
 10
134.05151702927333
 20
161.02097363299163
 10
134.04132780509644
 20
161.0311628571685
 10
134.03658501925884
 20
161.03685420017382
 10
134.0305430591152
 20
161.04591714038952
 10
134.02769065762413
 20
161.05257274386804
 10
132.3042342701474
 20
165.18154601804963
 10
131.02714644245634
 20
166.23497321494824
 10
130.24740839324204
 20
166.3473335016738
 10
123.34700614633675
 20
165.23171878806306
 10
123.3463258709885
 20
165.23160540883828
 10
123.3355197492101
 20
165.23006167715585
 10
123.324035292203
 20
165.2314972342815
 10
123.3183362335667
 20
165.2324470773874
 10
123.31268501140812
 20
165.23406171228999
 10
123.30409361355942
 20
165.23692551157274
 10
123.29540284478071
 20
165.2418916651609
 10
123.28872720733762
 20
165.24634209012265
 10
123.28321768965361
 20
165.25130065603844
 10
123.27355875403373
 20
165.26095959165832
 10
123.25593795293571
 20
165.29512073301794
 10
123.13570563556459
 20
165.17738997286733
 10
116.35929531962302
 20
156.56447242249442
 10
116.35261109043267
 20
156.55900350770207
 10
116.3483501107039
 20
156.55559472391906
 10
116.34372931876851
 20
156.55282224875782
 10
115.23877716118523
 20
155.90356412172832
 10
115.23336465650527
 20
155.89995578527487
 10
115.22438669275198
 20
155.89658904886755
 10
109.36745636853857
 20
153.86868995746818
 10
106.45929784960617
 20
152.02995228520558
 10
106.45031146350266
 20
152.02396136113657
 10
106.4378527650133
 20
152.02040173299656
 10
106.4337346378934
 20
152.01937220121636
 10
106.42465744144602
 20
152.01785933514202
 10
106.41312016577649
 20
152.01785933514202
 10
106.40376416652725
 20
152.0191959064632
 10
102.40823274484501
 20
153.0465645057552
 10
99.75608455713518
 20
146.68165293820357
 10
99.75293289365345
 20
146.6706221160175
 10
99.73842356306523
 20
146.65321091931173
 10
99.72908779692443
 20
146.6454311141947
 10
95.42771126850585
 20
143.99204832874238
 10
95.41383027864049
 20
143.98620370143044
 10
95.3990022662606
 20
143.98392246875665
 10
95.38403385290667
 20
143.98392246875665
 10
95.36990043134847
 20
143.9874558241463
 10
93.84484750957608
 20
144.6090279785858
 10
88.39850772567661
 20
145.97316277888558
 10
88.39097358245635
 20
145.97639169740842
 10
88.38581088954334
 20
145.9789730438647
 10
88.05141694974918
 20
146.18802768478372
 10
86.72166895757073
 20
146.63534398616684
 10
86.7167102297476
 20
146.63699689544137
 10
86.7077664792755
 20
146.64146877067742
 10
86.70117326309128
 20
146.64586424813342
 10
86.6931272152301
 20
146.65230108642254
 10
86.68694970994693
 20
146.65950817591965
 10
86.68244961085065
 20
146.66550830804772
 10
84.44914300988694
 20
150.66893907447275
 10
81.4508597450108
 20
150.55611069936185
 10
81.43900599013386
 20
150.55690094968713
 10
81.42843978474639
 20
150.5599198655118
 10
81.41754138007082
 20
150.56400676726525
 10
78.74134252646718
 20
152.3467326841278
 10
74.45369780706551
 20
154.12326349263049
 10
73.41079089288314
 20
154.51422756420698
 10
73.40721516067151
 20
154.5158779021508
 10
73.39528134320426
 20
154.52184481088443
 10
73.38295261372105
 20
154.53417354036765
 10
72.3458359256706
 20
155.91200390685435
 10
69.11220653415967
 20
158.09358707905676
 10
69.10950486701677
 20
158.09574841277117
 10
69.10371753430991
 20
158.10048350316765
 10
67.45177961424679
 20
160.07288512334935
 10
65.52694947376403
 20
162.6236587543035
 10
63.37522951898245
 20
165.18090058816642
 10
63.370863535235
 20
165.18672189983
 10
62.139865058404666
 20
167.40992863118254
 10
62.138217484950474
 20
167.41377296924293
 10
60.471049651159774
 20
171.4212594986584
 10
59.608081118058635
 20
173.30130921751152
 10
58.8514503801548
 20
174.4407592399284
 10
55.820507747209376
 20
177.4905630884091
 10
53.52143247560889
 20
179.3538842256553
 10
53.51387957555653
 20
179.3601783090321
 10
53.5076619535821
 20
179.36872753924672
 10
51.96145016237324
 20
181.65111868876193
 10
50.442657352412425
 20
183.7052125503992
 10
48.576713013656445
 20
186.40759645532034
 10
46.54194393340231
 20
188.5802180012288
 10
44.828281445582434
 20
190.6839902644806
 10
42.729330340882825
 20
192.96060738740107
 10
42.721103249964926
 20
192.97089125104822
 10
41.59775303994411
 20
195.66170695097526
 10
39.57959169480364
 20
197.24919812615644
 10
39.57625876634893
 20
197.2521607292274
 10
39.57095009791374
 20
197.2574693976626
 10
37.70286028515466
 20
199.74461436488127
 10
35.6511007626973
 20
202.22512270619472
 10
35.645509973292064
 20
202.23350889030235
 10
34.50348075314423
 20
204.7718785261277
 10
32.59491542505475
 20
207.4041256661062
 10
31.196349830398503
 20
209.61087256948167
 10
28.54604901600169
 20
211.4723392367182
 10
28.535898348667615
 20
211.48189280597398
 10
28.527321942740855
 20
211.49475741486458
 10
28.52379411237689
 20
211.5029890190467
 10
27.575697657753153
 20
214.10264454795424
 10
27.572567022255043
 20
214.10890581895046
 10
27.569692545119324
 20
214.12615268176614
 10
27.569692545119324
 20
214.14159279346768
 10
27.572391110109947
 20
214.15238705343018
 10
29.59254569518953
 20
220.7895213345805
 10
28.33196906735202
 20
224.3788855731541
 10
26.79849666930022
 20
230.0260244731494
 10
26.358104900681155
 20
230.98000954297777
 10
25.642423991876967
 20
231.60868070148626
 10
21.634706395025205
 20
233.91097952384143
 10
21.634063091853477
 20
233.91130117542752
 10
18.686536418328615
 20
235.68050400007724
 10
16.439790970327977
 20
236.24239727110762
 10
16.43078682865962
 20
236.2449698830128
 10
16.422806877078074
 20
236.2492667800184
 10
16.415002726524108
 20
236.25372629462072
 10
16.40236081240073
 20
236.26510401733185
 10
16.39136705702549
 20
236.2811718136495
 10
16.38697140897102
 20
236.29435875781246
 10
15.681387892072507
 20
239.29096488645928
 10
14.377902164240368
 20
242.87987591019737
 10
14.376589644684373
 20
242.8838134688649
 10
13.0013576921383
 20
248.55868781656636
 10
13.0
 20
248.56751281546576
 10
13.0
 20
248.57898379832068
 10
13.001589543141563
 20
248.58931582874175
 10
13.003452414848653
 20
248.5958358797161
 10
14.134619690852105
 20
251.863112725885
 10
15.050857983649621
 20
257.8445580810935
 10
15.82241244732495
 20
263.355577491212
  0
LWPOLYLINE
  5
8F
330
17
100
AcDbEntity
  8
CORTE
100
AcDbPolyline
 90
241
 70
1
 10
28.46858248640683
 20
272.07136585674925
 10
27.783713502174123
 20
266.2725299895569
 10
26.891041673010477
 20
258.8899071731371
 10
26.710150842172425
 20
256.0472008156694
 10
25.13169547996722
 20
252.76654172680355
 10
23.564093456449427
 20
248.21110404977208
 10
23.566549570276038
 20
248.20096947523962
 10
24.89978863223132
 20
244.53280494981118
 10
27.46763963919466
 20
242.99149599555994
 10
29.736247577950508
 20
241.68825711717955
 10
34.0669474008605
 20
237.88406723125354
 10
36.58583449954449
 20
232.42760583494191
 10
37.364396063441745
 20
229.5628108972178
 10
39.178720273470844
 20
224.39670651859797
 10
39.41901035684896
 20
223.7348497806247
 10
39.85023762778974
 20
222.71196022102595
 10
40.84610098098801
 20
216.50057948222138
 10
41.480824036899776
 20
215.6759811597408
 10
43.76823678329038
 20
212.52123682323418
 10
45.49794987279529
 20
208.681790680826
 10
46.313257019732646
 20
207.78196291691256
 10
46.83412814727353
 20
206.88138405857535
 10
50.391964345754786
 20
204.08278047743534
 10
52.3121229207718
 20
199.50745231768633
 10
54.62263440705601
 20
197.67051401836488
 10
54.58281607968047
 20
195.6669918475559
 10
56.30831811578173
 20
193.82458971085998
 10
59.02780323589786
 20
189.88605163893953
 10
59.75266459286149
 20
189.46337630061453
 10
63.39528357919335
 20
186.51115936539372
 10
65.32780427745729
 20
184.56662184038987
 10
68.32913768053868
 20
181.8385771500225
 10
70.70179975569499
 20
177.48282046900204
 10
71.78299683796149
 20
174.8838723277263
 10
73.869410372321
 20
171.11576968480813
 10
74.20115926139988
 20
170.1373033018749
 10
74.26857536757689
 20
170.0779197518723
 10
76.71482704077016
 20
167.16000653310857
 10
78.30366542380716
 20
166.0881580860455
 10
79.51407248064788
 20
165.30458636636922
 10
80.9031798904357
 20
164.9419727198533
 10
81.76197065258702
 20
165.31686444428078
 10
86.854954116312
 20
165.47657347269524
 10
88.4841704015671
 20
166.20327208764547
 10
94.69720985301001
 20
169.22604405931907
 10
100.1845990502934
 20
167.74106477140595
 10
102.82464354020021
 20
167.60157716837512
 10
106.22914297521174
 20
167.32746940821107
 10
106.60316454914346
 20
167.3020598656608
 10
107.61173229307497
 20
168.35203679385768
 10
108.18209491073685
 20
173.41345659001126
 10
108.31294318895516
 20
176.50096648693807
 10
114.875138098339
 20
187.71376301754162
 10
120.10771055710666
 20
182.44423762359702
 10
125.25888111880067
 20
182.32301797469972
 10
128.6933992351801
 20
180.27520739914144
 10
130.17569469429236
 20
178.0066018141065
 10
130.57363833104318
 20
177.25272924242927
 10
136.5930632468553
 20
176.38532985087386
 10
140.042287499974
 20
173.55480292201582
 10
141.9660851698536
 20
173.34222769533244
 10
144.37226890625243
 20
170.37616996993484
 10
146.986726741025
 20
168.60006104510876
 10
148.0739438146902
 20
167.5798809271232
 10
149.7480569897757
 20
166.84202103001098
 10
153.77787329290732
 20
165.76719108911584
 10
155.56573988417495
 20
164.7700415676054
 10
160.20814206720615
 20
163.5082870167853
 10
160.9425400303544
 20
163.2453036419156
 10
163.13697936587778
 20
162.52351904653096
 10
167.8375363082796
 20
160.8711288343311
 10
168.3373885012552
 20
160.41809246496814
 10
168.96553621898647
 20
160.29531541603274
 10
169.12906689453484
 20
160.54520859265813
 10
175.61757842271936
 20
166.2550916814239
 10
180.7467770032913
 20
167.7632746000495
 10
183.15744731567156
 20
168.70330322386098
 10
185.63463798770408
 20
169.98584841434786
 10
186.46167716246873
 20
173.18610157899138
 10
189.08041813537648
 20
178.4216631513682
 10
196.48187592447948
 20
186.65988382940395
 10
203.52590409249933
 20
187.67147760238913
 10
204.10771976535761
 20
187.7956832908826
 10
206.32895659785345
 20
189.36158756144596
 10
208.06376354172198
 20
190.65209412025115
 10
209.68075354905204
 20
195.2931594255192
 10
211.33737793104774
 20
200.02355828381496
 10
204.40073721356657
 20
203.85406978399624
 10
204.15580888992235
 20
214.45199962168817
 10
210.16309532514515
 20
220.12049849648383
 10
218.2534517740196
 20
223.13399500431706
 10
222.6887409560386
 20
218.8938539021865
 10
226.62112209240013
 20
220.15906165296929
 10
228.509737189308
 20
220.23131716283342
 10
236.11595183830468
 20
221.44675896880608
 10
237.38214860011476
 20
220.72659556753024
 10
242.60367814794836
 20
221.83342558789946
 10
244.4943600219667
 20
220.9533786936663
 10
250.04861966456065
 20
221.83619357321322
 10
253.21237530493954
 20
220.0499347897976
 10
258.31122396813
 20
218.34584446570534
 10
259.71877996105604
 20
217.67759630378714
 10
261.1808978719055
 20
216.43716920897805
 10
262.4009911565586
 20
214.99023748384116
 10
262.7810507630179
 20
215.05681982078977
 10
268.4166195142602
 20
213.91870085684104
 10
270.83702300181903
 20
212.96016604595252
 10
272.8692113724578
 20
213.05685085494633
 10
276.1622368795952
 20
212.59520970709855
 10
277.7833835143306
 20
213.05489324817745
 10
282.0279978347985
 20
214.36791092031126
 10
286.9260098881691
 20
215.14557048667393
 10
287.82030850291676
 20
215.3286066437072
 10
290.0282291772887
 20
216.84236510181518
 10
293.459389739548
 20
220.43420109346516
 10
297.89359173594994
 20
222.45123853715813
 10
300.12860110499105
 20
223.82531453783122
 10
301.9621755838998
 20
225.74422633208815
 10
307.27651115625576
 20
230.60337613179718
 10
313.56426840761924
 20
234.54019754469482
 10
314.9419259553074
 20
235.64011293134035
 10
316.44143114714916
 20
236.23504335283678
 10
318.5007441564221
 20
237.57549303823043
 10
318.49988103597843
 20
538.212542669994
 10
317.7040206619422
 20
538.5707410144137
 10
317.06917345950706
 20
538.842607502645
 10
310.52274736728396
 20
539.2906281709888
 10
309.18594526746983
 20
539.9607237030373
 10
303.25959478344066
 20
541.1927570586072
 10
302.4586443683979
 20
541.9243229532053
 10
299.3611904839413
 20
540.1324150863484
 10
293.660025434599
 20
540.2052168552973
 10
291.87663190651256
 20
539.0804418949701
 10
284.62024067541915
 20
534.3333229394843
 10
281.1451300187987
 20
535.4593093753451
 10
277.70889075462037
 20
535.0119379940693
 10
272.5275921465377
 20
534.0470847861284
 10
267.91338397390746
 20
537.0048068376072
 10
264.4938825828781
 20
538.3299723489163
 10
261.8552526025878
 20
539.0587855544582
 10
261.7586348250388
 20
539.075518116772
 10
255.8025989031703
 20
539.6619127643262
 10
254.5265411632804
 20
539.0558810146813
 10
253.77683590223614
 20
538.4073411365571
 10
247.06630567117918
 20
529.8942687047652
 10
244.07082580650103
 20
528.7143105376499
 10
241.51312354824177
 20
527.9254037132796
 10
238.47633691504416
 20
528.7482233419523
 10
235.0891923700833
 20
521.9440614985319
 10
230.66580986458712
 20
518.3899024136176
 10
228.16746980229527
 20
518.0582376938883
 10
222.9496896038163
 20
516.427247849751
 10
215.45769243822588
 20
514.0408701421866
 10
211.69391590377336
 20
518.0899705159018
 10
209.05400137482866
 20
517.3406143175503
 10
203.99551953079254
 20
515.4886335460087
 10
197.70383650359372
 20
518.539297383671
 10
196.06931219859462
 20
518.8736737181857
 10
191.33402063488074
 20
522.77265549611
 10
191.25235267799462
 20
523.3798444737026
 10
187.9796342449722
 20
524.1443589941373
 10
187.93727887652813
 20
524.1523912283014
 10
185.11867167560104
 20
521.7722876021271
 10
182.56732948820854
 20
517.776087432971
 10
178.98786013086783
 20
518.1634323849835
 10
172.85297281380826
 20
515.9645909337464
 10
168.30214479490678
 20
516.53189142781
 10
165.11812654795904
 20
517.5176345607792
 10
162.9562750910759
 20
516.8234345599822
 10
157.16927099752093
 20
519.6775482921885
 10
156.62808776688553
 20
519.6081742884367
 10
150.85179997264459
 20
523.0715392418274
 10
149.02729654879295
 20
523.5233027194918
 10
147.17854468798214
 20
524.2650294756845
 10
146.4357321348075
 20
524.1408293514569
 10
141.1212493353255
 20
521.3064076257856
 10
138.08137275450417
 20
516.0901761689593
 10
136.78328931355418
 20
513.9565286587203
 10
136.69131427974708
 20
513.7407276546946
 10
133.86675590275354
 20
505.9635560344086
 10
132.76046272971325
 20
500.71756627260675
 10
131.86559643394867
 20
496.9413597032535
 10
128.84135210520753
 20
485.27735545500764
 10
120.17952421255404
 20
483.8998190140064
 10
119.60906688801197
 20
483.41702164154685
 10
113.15724503544834
 20
480.5678612197262
 10
107.60742784081549
 20
475.5091738082738
 10
102.15496111965513
 20
467.58306245012136
 10
101.51833659775411
 20
465.9050815332489
 10
94.3108270969692
 20
456.33008528345545
 10
90.22591187671469
 20
453.8657120152461
 10
87.56333599434765
 20
453.9682357567799
 10
83.37790999737672
 20
454.22610464293984
 10
78.53046566193416
 20
451.97863454928665
 10
74.31200111804583
 20
447.68658449931945
 10
73.2190560545514
 20
446.3336620390255
 10
69.957116480904
 20
440.75715924716997
 10
69.17411726475575
 20
434.54926873975137
 10
67.46462383764947
 20
430.1838439954913
 10
65.53497168433296
 20
427.91070157627655
 10
62.07191680225014
 20
424.7462286164741
 10
58.368219958887494
 20
422.66836458722264
 10
56.41613305708506
 20
419.7957468779987
 10
50.31846438765251
 20
414.82468176780367
 10
45.58126145935921
 20
412.5893580317238
 10
43.41121415812222
 20
411.1415681186363
 10
41.75578567197363
 20
410.086071920251
 10
38.691502781231065
 20
406.0124023271992
 10
37.878823832849775
 20
404.11017556696606
 10
37.718019142047524
 20
402.9737736136922
 10
37.53787619832838
 20
395.29181545968095
 10
34.68608488564678
 20
388.3810624146213
 10
34.68384380482121
 20
388.3744816927165
 10
36.05806052251637
 20
386.2219242867809
 10
37.617290912315184
 20
380.0241606030304
 10
38.15160199578804
 20
378.1677021450414
 10
39.47843071571606
 20
371.168036505504
 10
39.4965168757426
 20
371.05580218990144
 10
41.730367224448855
 20
363.64752634734214
 10
41.778798552323224
 20
360.45461803241915
 10
42.53357903464075
 20
356.79876401074534
 10
44.68817388727848
 20
351.7040693143381
 10
45.77775652689752
 20
349.78405899711834
 10
49.72565535743388
 20
349.1449460730905
 10
51.8229440323521
 20
347.2478941905997
 10
55.47928682539214
 20
344.1258123170728
 10
54.43477153090498
 20
332.3308620949151
 10
54.14249023530101
 20
330.5390956925571
 10
53.26709543559946
 20
326.9469083485974
 10
50.904206775039256
 20
319.60534519404155
 10
45.437467638472754
 20
311.4736199580857
 10
44.78354391714356
 20
310.429111522948
 10
44.100863231933545
 20
308.35505322454355
 10
41.83559124847261
 20
302.3675748262831
 10
40.75083990072471
 20
295.2229863429079
 10
40.34603974339916
 20
293.6347745462467
 10
39.49772353949129
 20
285.9092996272584
 10
38.4138499446608
 20
281.1249651166031
 10
29.39027681477728
 20
275.93623595214376
 10
27.11044933311632
 20
274.3519088236403
 10
28.46858248640683
 20
272.07136585674925
  0
LWPOLYLINE
  5
90
330
17
100
AcDbEntity
  8
GRABADO
100
AcDbPolyline
 90
636
 70
1
 10
18.645205715615248
 20
255.43022473491465
 10
19.81090238742854
 20
257.85300682480647
 10
19.91779546118005
 20
259.53283558624935
 10
19.91779546118005
 20
259.5349708822405
 10
20.83316662331299
 20
267.1031876532402
 10
21.238111194317298
 20
270.5318830046522
 10
18.64925611442368
 20
274.8790232172655
 10
18.64539390255959
 20
274.88723041747653
 10
18.331535979304135
 20
275.91798873228936
 10
18.204112028869986
 20
276.3334997088282
 10
18.20177348192601
 20
276.341684623133
 10
18.200849508603824
 20
276.35462024964227
 10
18.20177513023782
 20
276.36850457414994
 10
18.205421369609212
 20
276.38035485210685
 10
18.64734719437456
 20
277.43715757682776
 10
18.650569066414846
 20
277.4436013209079
 10
18.654964543872666
 20
277.45019453709483
 10
18.661943108184005
 20
277.4589177424841
 10
18.67090870968559
 20
277.4662532346215
 10
18.684268146382692
 20
277.47515952575304
 10
18.698127558655415
 20
277.4788553690255
 10
19.626259022539216
 20
277.6751966596689
 10
25.641409350471804
 20
281.8553225346436
 10
25.643921966448033
 20
281.8573326274245
 10
32.2647371393241
 20
285.66386418096545
 10
32.58292270569109
 20
287.06836946019985
 10
33.4415105279395
 20
294.88738630318085
 10
33.44254321243898
 20
294.8925497256764
 10
33.88214811983471
 20
296.6162043602776
 10
35.026179300897184
 20
304.1512325654144
 10
35.02734069850567
 20
304.15587815584786
 10
35.02854497009639
 20
304.1600931064145
 10
37.49962376087433
 20
310.6889443199134
 10
38.39989194922282
 20
313.4240571585883
 10
38.40211185167027
 20
313.4290519390952
 10
38.40448995952556
 20
313.43380815480623
 10
39.56469585093873
 20
315.28459143948476
 10
44.543589328425696
 20
322.69065065076165
 10
46.52610474070798
 20
328.85038316253394
 10
47.27740444235815
 20
331.93334559355117
 10
47.484722556422184
 20
333.2042638389794
 10
48.18809376544732
 20
341.1469224500447
 10
47.2013805442416
 20
341.98945818497623
 10
46.56445968742037
 20
342.56556958293504
 10
41.346154845751244
 20
343.4103445401938
 10
41.329450907614955
 20
343.4151170939472
 10
41.31725020888007
 20
343.42383187875794
 10
41.314661818635614
 20
343.4259025909532
 10
41.30834475682332
 20
343.43131721536383
 10
41.30028878538997
 20
343.4413871796555
 10
41.29720326210918
 20
343.4467868453967
 10
39.574181594140555
 20
346.53283089526167
 10
37.433668793619745
 20
347.4999216557221
 10
37.430188937815274
 20
347.50166158362435
 10
37.4164133330778
 20
347.50969735305443
 10
37.405522337052844
 20
347.52300857041837
 10
37.40133250632971
 20
347.5292933165033
 10
37.393897656734225
 20
347.54341953073435
 10
37.39089164712868
 20
347.5614555883676
 10
37.39089164712868
 20
347.57076848749875
 10
37.627874636410525
 20
350.4273215043522
 10
35.81766909087037
 20
354.70768288226145
 10
35.81606945286876
 20
354.71328161526753
 10
35.81538896089842
 20
354.716003583148
 10
34.7896358953999
 20
359.6870634838019
 10
34.78863450373228
 20
359.69407322547704
 10
34.7460088949565
 20
362.5632392688667
 10
32.82660987662439
 20
368.92867793308915
 10
32.72378954750593
 20
369.0850557439362
 10
32.71982676150947
 20
369.0898110871317
 10
32.714117905912644
 20
369.10265601222545
 10
32.710931208319835
 20
369.112216105003
 10
32.582934085436136
 20
369.95913937259274
 10
31.3346739225708
 20
376.5443177305683
 10
30.857666271767357
 20
378.2016759910489
 10
29.54671129966755
 20
383.41257309148295
 10
26.972468079311966
 20
387.4448383356071
 10
26.96995142913738
 20
387.44987163595624
 10
26.965384409423223
 20
387.46014743031355
 10
26.963672474900704
 20
387.47041903744775
 10
26.962795371019183
 20
387.4765587646184
 10
26.962795371019183
 20
387.4940596750316
 10
26.96680515878279
 20
387.5060890383229
 10
28.131055171175376
 20
390.8469197632985
 10
28.13156714451543
 20
390.84896765665917
 10
30.570334758254376
 20
396.75803210843924
 10
30.72956441673614
 20
403.5481708065281
 10
31.077679128466116
 20
406.00828709045027
 10
31.077679128466116
 20
406.01517783909685
 10
31.082513171757455
 20
406.0296799689713
 10
32.58758516469334
 20
409.54250398295017
 10
32.59014719347306
 20
409.548909054899
 10
32.59567002190488
 20
409.55719329754675
 10
36.92370251332795
 20
415.3069552509455
 10
36.92663088103291
 20
415.31134780250295
 10
36.9377273993432
 20
415.32244432081325
 10
39.586683942965465
 20
417.00486416025296
 10
42.12645003117814
 20
418.69931926361414
 10
42.1312887110671
 20
418.7020074191082
 10
46.55804160406569
 20
420.79043547320725
 10
51.20087906901563
 20
424.5754635856756
 10
53.50525449356701
 20
427.9664958430785
 10
53.508790867024345
 20
427.9726844966285
 10
53.52005398756137
 20
427.98394761716554
 10
53.52605042340065
 20
427.98830866141225
 10
53.52977568626284
 20
427.9907921699869
 10
57.944517515650205
 20
430.45703039276896
 10
60.4855484614468
 20
432.77897560928795
 10
61.37239168933229
 20
433.82368253070626
 10
62.338222341044
 20
436.29006289748213
 10
63.191445651931645
 20
443.0547144873299
 10
63.19275396626199
 20
443.0651810019699
 10
63.19779363181715
 20
443.0769402215992
 10
63.199892383769566
 20
443.08113772550405
 10
67.44282299188762
 20
450.32272699039095
 10
67.44494182226026
 20
450.32802406632254
 10
69.08086612993657
 20
452.3504092833241
 10
69.08288780842531
 20
452.3534418010572
 10
74.43074920858862
 20
457.793613960323
 10
74.43678575209151
 20
457.7984431951254
 10
74.44097881269272
 20
457.8012385688594
 10
74.4459450278232
 20
457.8042182979375
 10
80.71477016214885
 20
460.70713873414115
 10
81.39939050643898
 20
461.3612766751917
 10
81.40082354875994
 20
461.36270971751264
 10
81.41092539616466
 20
461.3713684438594
 10
81.42564802745483
 20
461.37816350445473
 10
81.43677754408645
 20
461.38134336634994
 10
81.44715050360219
 20
461.3826399862892
 10
81.45427129387281
 20
461.3826399862892
 10
87.91328270793474
 20
460.9599483210932
 10
88.40288370348253
 20
460.9410960035857
 10
89.53374508209254
 20
461.6233291470494
 10
95.3268017448022
 20
469.3192601498795
 10
95.90951116416136
 20
470.8551345187261
 10
95.91164677795541
 20
470.86011761757845
 10
95.91525264279335
 20
470.86660817428674
 10
102.16064664056012
 20
479.9422502105185
 10
102.27766990547025
 20
480.12786631761855
 10
102.28337619737158
 20
480.13683334774987
 10
102.28886308828896
 20
480.14171058412103
 10
102.28886308828896
 20
480.14344087826066
 10
102.34528993834283
 20
480.18430974549256
 10
109.2852935143319
 20
486.5101593174827
 10
109.29249282184492
 20
486.51615874041
 10
109.30176112988784
 20
486.5211018380328
 10
115.85763612537085
 20
489.4125423767073
 10
116.25586660929048
 20
489.74957833539884
 10
117.07603989707695
 20
490.49422547191625
 10
117.08034027712165
 20
490.4978091219532
 10
117.09277048084823
 20
490.50609592443743
 10
117.10394387398219
 20
490.50953389155575
 10
117.1090920847032
 20
490.51100480890454
 10
123.21568432807317
 20
491.4706456967583
 10
125.07119508830874
 20
498.6270401667316
 10
125.92905170415179
 20
502.2470712301897
 10
127.11906382265079
 20
507.8900522610784
 10
130.17696031890273
 20
516.3096997507982
 10
130.54126521159105
 20
517.164468250026
 10
132.0667665380547
 20
519.6719203940061
 10
136.00443589534143
 20
526.4287061456535
 10
136.0076654395093
 20
526.4340887192666
 10
136.0136473158832
 20
526.4412669709154
 10
137.16454864556772
 20
527.5834155137209
 10
137.16738467046707
 20
527.5862515386202
 10
137.17683272386648
 20
527.5938099813397
 10
137.18591071624405
 20
527.5983489775285
 10
137.1916070966331
 20
527.6007902834094
 10
137.2016814385288
 20
527.6038900809158
 10
137.2128111074412
 20
527.60528128953
 10
138.05663495275076
 20
527.60528128953
 10
144.15194376949148
 20
530.8561480975904
 10
144.15622639200137
 20
530.858595310453
 10
144.1687103400027
 20
530.8632767909535
 10
147.96177126684825
 20
531.4931608223155
 10
147.96788915570414
 20
531.4940348064379
 10
147.97854932749397
 20
531.4940348064379
 10
147.9888973974089
 20
531.4925565107355
 10
147.99539028811614
 20
531.4907013991051
 10
147.99917276093765
 20
531.4894405748314
 10
151.18212642105755
 20
530.2011412533552
 10
153.5521061786103
 20
529.6143129233724
 10
153.56196431479657
 20
529.6110268779771
 10
153.56910976286645
 20
529.6069437647939
 10
158.14580385731733
 20
526.8600091016742
 10
158.45112617428777
 20
526.8991482145734
 10
158.46641781348035
 20
526.8991482145734
 10
158.47724613015862
 20
526.8960544098081
 10
158.4839028329934
 20
526.8940061935514
 10
158.49133117304746
 20
526.8902920235246
 10
159.24922552264889
 20
526.4567749497546
 10
163.51257705370972
 20
524.354117002169
 10
165.07966469767598
 20
524.8573302272157
 10
165.08581045890105
 20
524.8588666675219
 10
165.09491707630605
 20
524.8601676128656
 10
165.10557724809723
 20
524.8601676128656
 10
165.11468386550223
 20
524.8588666675219
 10
165.12053864490508
 20
524.857402972671
 10
169.78165257456794
 20
523.4016374825546
 10
172.0625012945443
 20
523.1173097513479
 10
178.14099755893312
 20
525.2959397500049
 10
178.14790944797596
 20
525.2979145754457
 10
178.15824147839703
 20
525.2995041185873
 10
178.16831309374356
 20
525.2995041185873
 10
179.00372856546483
 20
525.2025810794971
 10
179.79048843376086
 20
526.4348932069361
 10
179.7957080709234
 20
526.441156771531
 10
179.80035285106806
 20
526.4458015516757
 10
185.9672854224964
 20
531.6507377226935
 10
185.97296435921226
 20
531.6545236805041
 10
185.98308702763234
 20
531.6603080624586
 10
185.99673941654737
 20
531.6642087450055
 10
186.0070874864623
 20
531.6656870407078
 10
186.0170869034855
 20
531.6656870407078
 10
186.02432965009666
 20
531.6647816973814
 10
189.42856277615965
 20
530.994344183141
 10
189.4298945874839
 20
530.994344183141
 10
192.97587096525785
 20
530.1656848668804
 10
197.09190454801274
 20
531.957676389442
 10
197.0949693474172
 20
531.9589898749009
 10
197.10497421548826
 20
531.9623248309244
 10
197.11697660491427
 20
531.9638251296028
 10
197.12579982140824
 20
531.9638251296028
 10
197.1319597346419
 20
531.9631406947992
 10
197.1439209800269
 20
531.9611471539015
 10
197.15603046069236
 20
531.9555581628251
 10
197.16243005062324
 20
531.9519012542933
 10
197.17391273359954
 20
531.9435502121287
 10
197.18094298264214
 20
531.9347624008255
 10
197.18289497305204
 20
531.9321597469457
 10
197.1905439100824
 20
531.9206863414006
 10
197.19516764037326
 20
531.904503285381
 10
197.19596079192797
 20
531.8989512245007
 10
197.90519170613288
 20
526.4295800477857
 10
199.17616986534176
 20
525.3830720099559
 10
199.96742267108993
 20
525.2212046017739
 10
199.9702571802486
 20
525.2207321835808
 10
199.98062104760993
 20
525.2177710786204
 10
204.37750884033403
 20
523.0828752645634
 10
206.8919842714422
 20
524.0034597981257
 10
206.8944107537127
 20
524.0049156874879
 10
213.41480823355096
 20
525.8550040482028
 10
213.87149536826428
 20
526.0288874621647
 10
213.8786644716297
 20
526.0309357774122
 10
213.88487049739206
 20
526.0319701150393
 10
213.89103041062572
 20
526.0326545498428
 10
213.90568841684353
 20
526.0326545498428
 10
213.92359407707454
 20
526.0275386469198
 10
213.94194645818834
 20
526.0176565955508
 10
217.5626802337447
 20
522.0578817763972
 10
220.84321119794004
 20
523.1028082210955
 10
226.65160475311768
 20
524.9184138117657
 10
226.65248230370253
 20
524.9187063286272
 10
226.65937270732638
 20
524.9206750153771
 10
227.8058953709874
 20
525.0716505468445
 10
229.50726015082773
 20
526.438686086165
 10
232.87793688105012
 20
533.2097670630324
 10
233.823198410003
 20
535.6673397242821
 10
234.32236306484037
 20
544.3425807261106
 10
233.85934895248784
 20
544.8600870628043
 10
233.8555701629898
 20
544.8638658523023
 10
233.84683842763116
 20
544.8769634553405
 10
233.84265636685677
 20
544.8878368133533
 10
233.84033276999116
 20
544.8959694023838
 10
233.83951522905636
 20
544.9016921889261
 10
233.8385206336202
 20
544.9096489524159
 10
233.83955233887218
 20
544.9240928259433
 10
233.84305099286075
 20
544.9372127784013
 10
233.85066105022315
 20
544.9537012360197
 10
233.8596691185503
 20
544.9635282196491
 10
233.86343904259365
 20
544.9672981436925
 10
234.75944346911274
 20
545.7019401888442
 10
234.7633427525593
 20
545.7051895917166
 10
234.77703910265654
 20
545.713618114853
 10
235.4869719542653
 20
545.9086055608054
 10
235.49693775101287
 20
545.9100292460553
 10
235.50693716803562
 20
545.9100292460553
 10
235.51893955746164
 20
545.9085289473769
 10
235.53150960030825
 20
545.904338933095
 10
237.32827919547253
 20
544.9763682566854
 10
237.33480627804147
 20
544.9720168683061
 10
237.34054002468793
 20
544.9673256210499
 10
237.3484363816483
 20
544.9594292640895
 10
237.35727216689202
 20
544.9461755862235
 10
238.86459545946855
 20
540.9686004223099
 10
238.8659024318331
 20
540.9633725328513
 10
238.86684807424626
 20
540.959117141992
 10
239.54659144808966
 20
535.7106367580445
 10
241.387100003044
 20
535.2119495769298
 10
241.7531184406962
 20
535.3248456117894
 10
242.74026092372014
 20
535.713693772208
 10
248.6925127369036
 20
543.26480360603
 10
248.6975627504653
 20
543.2698536195917
 10
250.66537609501165
 20
544.971448374723
 10
250.6707654911288
 20
544.975041305468
 10
250.6754269563753
 20
544.9778381846158
 10
255.69271012240006
 20
547.359055096133
 10
255.70876668229948
 20
547.3636426846756
 10
255.72394013427902
 20
547.3636426846756
 10
255.73009156887701
 20
547.3628737553508
 10
255.733580902443
 20
547.3622921997567
 10
255.74455364640835
 20
547.3598538122087
 10
255.75652640637918
 20
547.3538674322235
 10
256.9479352399162
 20
546.5829942393384
 10
262.7000811986377
 20
546.0166733429583
 10
263.38801973951104
 20
545.897534041731
 10
263.39166954481243
 20
545.8970126409736
 10
266.69596052398174
 20
544.9838512044703
 10
266.69957665329775
 20
544.9828180246654
 10
268.9940648342813
 20
544.0932627165143
 10
269.64899995038104
 20
544.2069192942367
 10
269.65538765736164
 20
544.2078318238055
 10
269.66692493303344
 20
544.2078318238055
 10
269.6772375676155
 20
544.2061130513753
 10
269.6828887897741
 20
544.2044984164727
 10
269.6894913891815
 20
544.2022975500035
 10
269.69795550642175
 20
544.1980654913832
 10
273.9713547650017
 20
541.4362761695179
 10
276.6154661627411
 20
541.9286583997723
 10
276.6174598384796
 20
541.9291568187073
 10
281.80387063365924
 20
542.604147938283
 10
281.8140607049754
 20
542.604147938283
 10
281.8258214210159
 20
542.6024678359913
 10
283.59124712527455
 20
542.0250119382536
 10
288.0931732319632
 20
544.9701644357765
 10
288.0936208193143
 20
544.9706120231276
 10
290.5358971346991
 20
546.5107748717346
 10
290.54144982224125
 20
546.5135512155057
 10
292.2350297992393
 20
547.2239842213103
 10
292.2448835306104
 20
547.2267995731308
 10
292.2552564901225
 20
547.2280961930696
 10
292.26043626671026
 20
547.2280961930696
 10
297.5238278698712
 20
547.1564482261542
 10
300.4005280288079
 20
548.8206478680781
 10
300.4048790687357
 20
548.8228233880423
 10
300.41500046967985
 20
548.8270406384358
 10
304.50247622044117
 20
549.5379547882549
 10
304.5088778510467
 20
549.5388693069126
 10
304.52403621250096
 20
549.5388693069126
 10
304.540915118419
 20
549.5343682653347
 10
304.5542103143807
 20
549.5277206673536
 10
304.5627556385057
 20
549.5211473411036
 10
306.5633611944677
 20
547.6555996119891
 10
311.50564129760187
 20
546.6281453707929
 10
311.5148316101586
 20
546.6247594661668
 10
312.40301462475645
 20
546.178321229142
 10
318.4582182831541
 20
545.7639185685489
 10
318.4644142223733
 20
545.7639185685489
 10
318.966170778619
 20
545.6450962362287
 10
318.97265134638656
 20
545.644170440833
 10
320.5185514308341
 20
544.9803059139322
 10
324.19868004037517
 20
543.3239651559375
 10
325.43780596690704
 20
543.1145287315662
 10
325.44192934633475
 20
543.1139396773619
 10
325.45142593178025
 20
543.1112263672348
 10
325.46086286236414
 20
543.1071819684134
 10
325.469494487259
 20
543.1018701992471
 10
325.480538321367
 20
543.0930351319603
 10
325.48750022752984
 20
543.0837525904103
 10
325.49552679176395
 20
543.0717127440594
 10
325.49986713219687
 20
543.0554364674354
 10
325.5012511905552
 20
543.0457480589275
 10
325.5012511905552
 20
60.96834829704176
 10
325.50124987404706
 20
60.593329252738386
 10
325.35125119048917
 20
60.59332951602437
 10
325.35125119048917
 20
233.68231374317202
 10
319.67353482169847
 20
229.98657002377195
 10
319.6668264348241
 20
229.9832158303343
 10
318.49369425209306
 20
229.51846691136325
 10
317.61862799252685
 20
228.81981807454122
 10
317.61513606043036
 20
228.8173238373297
 10
311.53050894027956
 20
225.0079919351083
 10
306.86002531201257
 20
220.73754659385258
 10
304.5649720132451
 20
218.33567806104338
 10
304.55742984570634
 20
218.32964432701237
 10
301.1885742957238
 20
216.2598804663494
 10
297.58771653976873
 20
214.62191608649755
 10
294.5869828701457
 20
211.48066314880043
 10
294.5842459183791
 20
211.47737880668046
 10
294.57629278709555
 20
211.47075119727742
 10
290.6109012258821
 20
208.75464708808158
 10
290.6043307191626
 20
208.7513618347216
 10
290.59793573809657
 20
208.74862112855044
 10
290.5905512897011
 20
208.74651128615187
 10
288.17724635764444
 20
208.25655078413774
 10
283.6192134217986
 20
207.53286985445993
 10
279.7727854580826
 20
206.34302608783173
 10
276.6519732610068
 20
205.45810551923205
 10
276.6467807134063
 20
205.4566219342032
 10
276.63112752163534
 20
205.45453484196742
 10
272.546831931224
 20
206.03359518715342
 10
269.6625008609012
 20
205.89636824370746
 10
269.65374722835077
 20
205.89636824370746
 10
269.63974409966295
 20
205.89899383033662
 10
266.41932636090587
 20
207.1807390818799
 10
262.68900810183413
 20
207.93408734886316
 10
259.64426405382073
 20
207.4006810865776
 10
259.62618337166214
 20
207.4006810865776
 10
259.61161572174024
 20
207.4052813970793
 10
259.6004502287492
 20
207.41006660836138
 10
259.5922375934292
 20
207.41603943404834
 10
259.5876483391271
 20
207.41971083749013
 10
259.5823004016943
 20
207.42505877492295
 10
256.2064588654798
 20
211.47763934412978
 10
255.88894403114364
 20
211.74701160240784
 10
255.69119910821018
 20
211.84089254351647
 10
250.35608972076807
 20
213.623943754812
 10
250.35098284711648
 20
213.62540286156946
 10
250.34302889472792
 20
213.62937983776374
 10
248.7345573040584
 20
214.53946216115583
 10
243.48014347607977
 20
213.70430590107298
 10
243.47426414803522
 20
213.70365264240127
 10
243.46544093154444
 20
213.70365264240127
 10
243.4601548934006
 20
213.70431339716924
 10
243.45443210685835
 20
213.70513093810405
 10
243.44493552141284
 20
213.70784424823114
 10
243.43928554780268
 20
213.71026566549244
 10
241.7687438301782
 20
214.50090313081546
 10
236.232627183746
 20
213.32738873347216
 10
236.22503121603813
 20
213.3252184569842
 10
236.20831990541046
 20
213.3252184569842
 10
236.19800727082566
 20
213.32693722941485
 10
236.18935235392883
 20
213.32941006281408
 10
236.18066539577694
 20
213.3331330448791
 10
234.79251147780224
 20
214.14647045623724
 10
229.19830762634183
 20
213.25253969751293
 10
229.19381283037546
 20
213.25209021791625
 10
227.84965948162653
 20
213.2009424930411
 10
222.4571662788312
 20
211.4659570072413
 10
220.93447955843658
 20
209.62154687188877
 10
219.10945755261218
 20
202.25258320748935
 10
218.3133693370396
 20
198.76471514443438
 10
218.31234533712586
 20
198.76061914478032
 10
216.28918786406894
 20
192.98477743931062
 10
213.96671165695443
 20
186.31883411357012
 10
213.96446480619443
 20
186.31097013590988
 10
213.9554884419481
 20
186.2963835440096
 10
213.9458556695131
 20
186.2856804635262
 10
210.43527710741728
 20
183.69183318745763
 10
210.43468150068702
 20
183.69123758072737
 10
206.9701480234512
 20
181.24902278955096
 10
206.96740310714813
 20
181.24673535929878
 10
206.95522327030585
 20
181.23977545253138
 10
206.9454453582398
 20
181.2365161485095
 10
206.94127237206885
 20
181.23547290196666
 10
204.75555611551363
 20
180.77625293220672
 10
199.99133874324752
 20
180.09206307492968
 10
194.9185673263355
 20
174.4457955999901
 10
193.05364208142646
 20
170.71731269594784
 10
191.62965696485935
 20
165.20715910860872
 10
191.62732851463124
 20
165.19959164536795
 10
191.61910961678313
 20
165.18315384967173
 10
191.6052522415148
 20
165.16929647440338
 10
191.5955102620046
 20
165.16280182139644
 10
186.04630385908422
 20
162.31642374719786
 10
186.0428724067624
 20
162.3147080210374
 10
183.0098329735397
 20
161.13236737369743
 10
183.00684329545265
 20
161.13117150246262
 10
179.07877617176064
 20
159.97648451452187
 10
174.46636418941216
 20
155.91756698589688
 10
172.13176945194527
 20
152.35004491015889
 10
172.1290673185522
 20
152.34666724341787
 10
172.12422233461348
 20
152.34085326269133
 10
172.11840835388693
 20
152.33600827875262
 10
172.11528124483493
 20
152.3335065915112
 10
172.1022654032813
 20
152.32482936380848
 10
172.08341590000282
 20
152.31980282960103
 10
172.07114877902313
 20
152.3189266066738
 10
172.05738191598903
 20
152.31984439754297
 10
169.86454131072742
 20
152.98713556693474
 10
165.08111589470036
 20
153.92209853791155
 10
165.0694847178329
 20
153.92597559686737
 10
165.05605327898775
 20
153.9336507047792
 10
165.0497808676423
 20
153.93929587498997
 10
164.18336141096188
 20
154.73576993439247
 10
160.88245139569972
 20
155.89614124090076
 10
158.6686285799592
 20
156.62430135881596
 10
158.6676001252158
 20
156.62430135881596
 10
158.10699025225676
 20
156.82542057521778
 10
152.90372143367404
 20
158.23961259308817
 10
152.90168857114077
 20
158.24019341095482
 10
152.89508597173335
 20
158.24239427742395
 10
152.8887703281025
 20
158.24555209923938
 10
151.1305246510974
 20
159.22858030014504
 10
147.4206248546966
 20
160.21808232181138
 10
147.4151205974008
 20
160.2199170742433
 10
144.15628536284612
 20
161.65682925806504
 10
144.15048651222287
 20
161.65972868337667
 10
144.14326787422897
 20
161.6645411087061
 10
144.13844413870765
 20
161.66856088830718
 10
142.59806545552328
 20
163.11897054282372
 10
139.58575304485248
 20
165.16535847297064
 10
139.5833171360132
 20
165.16698241219683
 10
139.5744206378754
 20
165.17409961070734
 10
138.34060385330213
 20
166.70023061220218
 10
137.20805615177323
 20
166.82537453359873
 10
137.2018022827583
 20
166.82626794345833
 10
137.19230569730962
 20
166.82898125358633
 10
137.18160734439334
 20
166.83356626197929
 10
137.17316982598777
 20
166.83919127424952
 10
137.1701896554746
 20
166.84157541065997
 10
133.66195804565632
 20
169.7353987724291
 10
130.24740839324204
 20
170.22743552550173
 10
126.67180589883492
 20
169.64935404415428
 10
126.6611897900566
 20
169.64772079665
 10
126.6501631601609
 20
169.64909912538678
 10
126.64281715094285
 20
169.65014855527534
 10
126.62935608506314
 20
169.65463557723479
 10
126.61885399431048
 20
169.66063677195098
 10
126.61085446069683
 20
169.666636422161
 10
126.598821225537
 20
169.67866965732082
 10
124.13739594002436
 20
174.4505921514692
 10
123.71857977322361
 20
175.09157684130696
 10
123.25455861447972
 20
175.3682466400851
 10
117.12602710330839
 20
175.5124659838525
 10
117.11657146895686
 20
175.5139206968297
 10
117.10746424954823
 20
175.516522759518
 10
117.09884381393249
 20
175.52021723192456
 10
117.08973134330608
 20
175.52553283979023
 10
117.08168177102289
 20
175.53211885347673
 10
116.32009311150068
 20
176.32409155982668
 10
115.23301025126557
 20
174.46659736892843
 10
115.16545990483064
 20
172.8726722061465
 10
115.16545990483064
 20
172.8700468243369
 10
114.3022465492927
 20
165.2124837037245
 10
114.29998388970625
 20
165.2049415051024
 10
114.29595462953193
 20
165.19285372457898
 10
114.28607782026211
 20
165.17927311183303
 10
109.38823744232377
 20
160.09671808628264
 10
109.38534109233296
 20
160.09382173629183
 10
109.37859851194935
 20
160.08820291930533
 10
109.36664600802942
 20
160.08084753227786
 10
109.35569824723734
 20
160.0771982786805
 10
109.34954252565785
 20
160.07565934828563
 10
109.33764176249406
 20
160.073828461645
 10
105.71100551103518
 20
160.34653464163193
 10
102.35900122004523
 20
160.61641584026393
 10
99.07327890564966
 20
160.79001803962547
 10
99.06710259940564
 20
160.79079007790597
 10
99.06196657181454
 20
160.7919314173705
 10
95.40079394115537
 20
161.78385388967718
 10
91.44195181825853
 20
159.85779545999912
 10
91.44103885441609
 20
159.8568824961567
 10
88.44973767558713
 20
158.52314278509448
 10
88.44352783707836
 20
158.52107283892474
 10
88.43290160282277
 20
158.51841628036073
 10
83.32786247368722
 20
158.36252775110052
 10
81.48137499425002
 20
157.55647241631095
 10
81.47468080028239
 20
157.5536831688246
 10
81.46017990845758
 20
157.55046074841903
 10
81.4472776601765
 20
157.55046074841903
 10
81.4411262255785
 20
157.55122967774378
 10
81.43616091098374
 20
157.55205723017616
 10
76.65586763267811
 20
158.81612649945873
 10
76.64480778591815
 20
158.82055043816263
 10
74.44393050626468
 20
160.24805088238736
 10
74.44332057236625
 20
160.2483558493368
 10
71.98342840963687
 20
161.90793358626934
 10
71.98046292630488
 20
161.91030597293502
 10
71.97727327053917
 20
161.91296401940645
 10
71.97252761766504
 20
161.91770967228058
 10
69.24440960992206
 20
165.17506233255108
 10
68.17189903841518
 20
166.1197844288463
 10
68.16781531077504
 20
166.12386815648642
 10
68.16307252493743
 20
166.12955949949173
 10
68.15941731077373
 20
166.13504232073683
 10
68.15447383539595
 20
166.14369340264784
 10
67.44155825229791
 20
168.27386521351718
 10
65.46994147857686
 20
171.8346427168899
 10
64.37943704932468
 20
174.4559635712867
 10
62.74690690368698
 20
177.45297868072203
 10
60.48800767902412
 20
179.50619210565856
 10
60.48666132398557
 20
179.5075384606971
 10
58.695468960755534
 20
181.3098772127969
 10
55.7625143501823
 20
183.68693567102673
 10
54.211449268867455
 20
184.59138029579617
 10
54.20243849087865
 20
184.59738748112204
 10
54.19316685572949
 20
184.60723859346763
 10
53.50773907660687
 20
185.56082261973097
 10
50.84358850794206
 20
189.41922153737823
 10
47.52763119723204
 20
192.95982983955582
 10
47.52576054407291
 20
192.96207462334723
 10
47.51893192431726
 20
192.97061039804203
 10
47.51369248504125
 20
192.98283575635242
 10
47.51122941083668
 20
192.99022497896613
 10
47.51007650408519
 20
192.99598951272355
 10
47.50864168015323
 20
193.00459845631576
 10
47.55519356397281
 20
194.346673950919
 10
46.551693529007935
 20
195.14449194859617
 10
46.54568959365315
 20
195.14929509688
 10
46.53827537195457
 20
195.15819216291857
 10
46.53529686604725
 20
195.16265992177932
 10
46.53150676657151
 20
195.1688188334274
 10
44.639028282195795
 20
199.70196510616415
 10
41.44849126794452
 20
202.21165015508677
 10
41.44185897428588
 20
202.2171770664686
 10
41.43585007767115
 20
202.22468818723746
 10
41.43292113081952
 20
202.2287887128291
 10
41.43101117710967
 20
202.23197196901265
 10
40.626289493582135
 20
203.63322546638074
 10
39.56923255715992
 20
204.79986454590153
 10
39.56600038929173
 20
204.8043895809169
 10
39.56273947657155
 20
204.80928094999717
 10
39.55996575910649
 20
204.8148283849273
 10
37.68041581055195
 20
208.99247325972965
 10
35.87262471566646
 20
211.48573501459896
 10
34.21558045644724
 20
213.63847848862588
 10
34.21291825508979
 20
213.64247179066206
 10
34.2070413376141
 20
213.65254650633506
 10
34.20321264453787
 20
213.66594693210027
 10
33.07212375634208
 20
220.77042575817995
 10
32.899810667377096
 20
221.1791597867582
 10
32.58637761471209
 20
222.04248204664236
 10
30.675876398107448
 20
227.48244070778128
 10
30.67465090069618
 20
227.48489170260382
 10
29.984609973348142
 20
230.0260244731494
 10
28.33303697711517
 20
233.60369347699043
 10
25.642423991876967
 20
235.96719201624182
 10
23.922633490441058
 20
236.95515375517925
 10
20.101009371748205
 20
239.24901872551845
 10
20.096478064447183
 20
239.25203959705232
 10
20.089740857049037
 20
239.25755185765092
 10
19.296066628829976
 20
240.10789367742927
 10
19.29136551108968
 20
240.1133783147934
 10
19.287593726610794
 20
240.11941316995944
 10
18.650840330706615
 20
241.2337532981719
 10
18.64815905790374
 20
241.23822208617685
 10
18.64547975231062
 20
241.24492035015965
 10
16.85495844545585
 20
246.17479531480376
 10
16.853951413516825
 20
246.1788234425594
 10
16.27871664308759
 20
248.55252122973843
 10
16.275864558875583
 20
248.56107748237446
 10
16.275864558875583
 20
248.58375242774582
 10
16.279316973724235
 20
248.5958358797161
 10
18.644015332225536
 20
255.42605839305088
 10
18.645205715615248
 20
255.43022473491465
  0
LWPOLYLINE
  5
91
330
17
100
AcDbEntity
  8
GRABADO
100
AcDbPolyline
 90
7
 70
1
 10
213.93560403213723
 20
214.0558549078023
 10
211.22592490647685
 20
211.49899113237052
 10
211.30592779269728
 20
208.0373050261578
 10
213.88828381077064
 20
206.61129136512682
 10
220.2547078109892
 20
211.5366317660778
 10
216.5866365922252
 20
215.04331169199486
 10
213.93560403213723
 20
214.0558549078023
  0
LWPOLYLINE
  5
92
330
17
100
AcDbEntity
  8
GRABADO
100
AcDbPolyline
 90
7
 70
1
 10
211.27194305367402
 20
541.3931574107683
 10
209.8840551748167
 20
535.6178334751953
 10
206.97461523794755
 20
531.9258784253079
 10
201.88892322947413
 20
528.9415119391197
 10
202.6064486890641
 20
535.6838168989962
 10
206.88473355123597
 20
540.3530305653562
 10
211.27194305367402
 20
541.3931574107683
  0
TEXT
  5
93
330
17
100
AcDbEntity
  8
GRABADO
100
AcDbText
 10
27.759901849132277
 20
283.9743891172916
 30
0.0
 40
6.0
  1
73d
 72
1
 11
27.759901849132277
 21
283.9743891172916
 31
0.0
100
AcDbText
 73
2
  0
LWPOLYLINE
  5
94
330
17
100
AcDbEntity
  8
CORTE
100
AcDbPolyline
 90
636
 70
1
 10
469.8112732525733
 20
853.9299760503004
 10
469.82730686020886
 20
853.9139424426653
 10
469.833409925086
 20
853.9029569258851
 10
472.9910123365212
 20
847.4011660249366
 10
472.9931166569386
 20
847.3973782481849
 10
473.88201028059257
 20
844.859940581639
 10
474.99424377172954
 20
843.5965374558787
 10
474.9957536540046
 20
843.5950275736036
 10
479.7000258982216
 20
837.5962250172929
 10
481.83814057966583
 20
834.8854322315251
 10
486.7426298852756
 20
833.64213689092
 10
486.7511642483987
 20
833.6390645201959
 10
487.7019515084303
 20
833.1321393918902
 10
488.085864477036
 20
832.9284311021588
 10
488.0933056878466
 20
832.9242970961536
 10
488.1031059048719
 20
832.9158035747319
 10
488.1122690915495
 20
832.9053313613863
 10
488.11807022286666
 20
832.8943736688984
 10
488.55285384841955
 20
831.834612548399
 10
488.55513205598754
 20
831.8277779256955
 10
488.5566860919457
 20
831.8200077459028
 10
488.5579197394827
 20
831.8089049180712
 10
488.55676707809744
 20
831.7973783042185
 10
488.55361822867053
 20
831.7816340570821
 10
488.5464315001095
 20
831.7692206168399
 10
488.0289777062053
 20
830.9740983068555
 10
486.73141947187605
 20
823.7649493677095
 10
486.7310641343165
 20
823.7617513296777
 10
484.74106510290267
 20
816.3885037496443
 10
485.50920913840764
 20
815.1703773708327
 10
490.4309756989351
 20
809.0343842675925
 10
490.4338965717834
 20
809.03000295832
 10
491.34185684127124
 20
807.5003474667069
 10
495.8609741755372
 20
801.3633257204042
 10
495.8634378719107
 20
801.3592195597816
 10
495.86556674343046
 20
801.3553875910461
 10
498.7348451400485
 20
794.9914760548177
 10
500.0322762347182
 20
792.420873478412
 10
500.0342383698112
 20
792.4157719271711
 10
500.0359199460022
 20
792.4107271985981
 10
500.5242319037143
 20
790.281636334104
 10
502.2404972531408
 20
781.5241523032041
 10
505.19423579067825
 20
775.7667135820034
 10
506.84297031805363
 20
773.0554808271486
 10
507.59504918341236
 20
772.0102098731545
 10
512.713998396353
 20
765.8965435570276
 10
514.0074727377164
 20
765.9984924352661
 10
514.8652160708693
 20
766.0414912159881
 10
519.1524609115663
 20
769.1340438549764
 10
519.1676470846178
 20
769.1424806177824
 10
519.1824365648645
 20
769.1449455311572
 10
519.185731047794
 20
769.1453115848167
 10
519.1940266026768
 20
769.145949704422
 10
519.2068435747433
 20
769.1445255964159
 10
519.2128435094405
 20
769.1428892505887
 10
522.613366489692
 20
768.179086881441
 10
524.8107740409018
 20
769.0088215631608
 10
524.8144649853571
 20
769.0100518779805
 10
524.8298879559379
 20
769.0141105544485
 10
524.8470015051453
 20
769.0123991995283
 10
524.854408149436
 20
769.0109178706693
 10
524.8696541238774
 20
769.0061863613596
 10
524.884533112312
 20
768.9955585124776
 10
524.8911183264399
 20
768.9889732983506
 10
526.7434340567293
 20
766.8015130105673
 10
531.050115229571
 20
765.0548490709111
 10
531.0552052465237
 20
765.052021283715
 10
531.0576111489568
 20
765.0505777422554
 10
535.2979982628308
 20
762.2608245252554
 10
535.3036629895423
 20
762.2565759802214
 10
537.362610612191
 20
760.257910071608
 10
543.2208755185552
 20
757.1140852885751
 10
543.4041562809957
 20
757.0762144300611
 10
543.4103209292666
 20
757.0756540074913
 10
543.4234404334093
 20
757.0706080443583
 10
543.4324537753187
 20
757.0661013734048
 10
544.1218265945395
 20
756.5577438213109
 10
549.6609040926342
 20
752.7839727749101
 10
551.1701287020364
 20
751.9493388546293
 10
555.7817745284206
 20
749.19166332945
 10
560.4532814636204
 20
748.1606860693232
 10
560.4586200848339
 20
748.1589065289195
 10
560.4691155393152
 20
748.1548698156571
 10
560.4775891828831
 20
748.1488172131089
 10
560.4825508317031
 20
748.1450959764938
 10
560.4949258441329
 20
748.1327209640644
 10
560.5005965403707
 20
748.1213795715889
 10
562.0396715220381
 20
744.9358064324028
 10
562.0407575814997
 20
744.9339963332991
 10
564.4946280084091
 20
739.0311876715646
 10
569.1833887557468
 20
734.1172421816705
 10
570.6767993893204
 20
732.1315230015066
 10
570.6816718844161
 20
732.1266505064109
 10
570.6885082540002
 20
732.1129777672436
 10
572.1082033230205
 20
728.5647894734643
 10
572.1109207649056
 20
728.5584487757319
 10
572.1128733796231
 20
728.5486857021428
 10
573.118187923199
 20
721.4226089108056
 10
573.1192232575299
 20
721.4174322391505
 10
573.1192232575299
 20
721.401739392461
 10
572.4357785997368
 20
718.3389937801262
 10
571.8380534701369
 20
715.3449472625211
 10
571.8365328197542
 20
715.3396249861803
 10
570.1830874695515
 20
710.7326963578303
 10
569.576524659446
 20
704.7732954571097
 10
570.3449070747783
 20
700.7460340635776
 10
570.3467825200173
 20
700.7391574310336
 10
570.3467825200178
 20
700.7232289732151
 10
570.3456261235324
 20
700.7159051288113
 10
570.344748070655
 20
700.7115148644248
 10
568.9669479572581
 20
695.845927208326
 10
568.8120309524247
 20
692.407283787205
 10
568.923657440625
 20
691.0414715784304
 10
569.9847063196544
 20
688.6145318927943
 10
574.1647173422052
 20
683.2278808922533
 10
574.1711931677478
 20
683.2195548308414
 10
574.1759446099995
 20
683.2076762252113
 10
574.177428651737
 20
683.2032240999984
 10
576.2978005224027
 20
675.082442219124
 10
576.3000478813892
 20
675.0771983814889
 10
576.5733170110366
 20
672.4903829089094
 10
576.5740317823215
 20
672.4868090524874
 10
576.6393053460588
 20
664.8585173669476
 10
576.6384516498897
 20
664.8508341014244
 10
576.6374633360283
 20
664.8458925321161
 10
576.6360586782694
 20
664.840273901084
 10
574.2560046414001
 20
658.3548704128448
 10
574.2344503273625
 20
657.40822535091
 10
574.2344503273625
 20
657.4061987230248
 10
574.2334298866763
 20
657.3929329941061
 10
574.2278242476796
 20
657.3777176882581
 10
574.2222029929076
 20
657.3675994296668
 10
574.2157850516446
 20
657.3593477909012
 10
574.210749892557
 20
657.3543126318132
 10
569.3446509791011
 20
653.08599000398
 10
568.985120193523
 20
652.7531204215034
 10
568.6678921262192
 20
651.4710689900126
 10
570.0134274758643
 20
641.9329143403679
 10
570.6874168752361
 20
640.4348493772154
 10
570.6894303512299
 20
640.4298156872305
 10
570.6914701364135
 20
640.4226764390883
 10
572.6927577168522
 20
629.5890679646459
 10
572.7412601807055
 20
629.375069612443
 10
572.7435658708196
 20
629.3646940069307
 10
572.7431347799557
 20
629.3573654622437
 10
572.7443582826754
 20
629.3561419595248
 10
572.7333571275203
 20
629.2873434980515
 10
572.2990846665998
 20
619.9069687788901
 10
572.2982362200723
 20
619.897635867093
 10
572.2951778344541
 20
619.8875868857763
 10
569.7040313808311
 20
613.2073260075654
 10
569.660760317071
 20
612.6874141200155
 10
569.607355263352
 20
611.5809189866509
 10
569.6068484587031
 20
611.5753441355178
 10
569.603918631587
 20
611.5606949999396
 10
569.5984488593963
 20
611.5503632080231
 10
569.5958486203167
 20
611.5456827776784
 10
565.9564044143935
 20
606.5491014131462
 10
569.7046952318306
 20
600.1767221134546
 10
571.6578475145593
 20
597.0103773700289
 10
574.8065720289228
 20
592.1787215782956
 10
578.5979025154375
 20
584.0628723944487
 10
578.9447126575474
 20
583.2008573322605
 10
579.6390567394046
 20
580.3491285851001
 10
581.6324730588112
 20
572.7870068564775
 10
581.6339954805321
 20
572.780917169594
 10
581.6348414456015
 20
572.7716115538283
 10
581.6286522906453
 20
571.1501804393906
 10
581.6286522906453
 20
571.1461696945157
 10
581.6273161341196
 20
571.1341442857852
 10
581.6241065791351
 20
571.1245156208302
 10
581.6218048938772
 20
571.1187614076857
 10
581.6168731462435
 20
571.1094458843786
 10
581.6099870149283
 20
571.1005922869731
 10
581.0133134517828
 20
570.5039187238276
 10
579.0019892187534
 20
563.8951745613708
 10
579.0006913881452
 20
563.8904158491428
 10
578.9951742104658
 20
563.8782780582465
 10
576.7584703775769
 20
560.7507836854825
 10
576.7547623769797
 20
560.7458396846873
 10
576.7472244972182
 20
560.7383018049263
 10
576.7388619938934
 20
560.7320299274329
 10
576.7329590648314
 20
560.7287505223981
 10
576.7293929152556
 20
560.7269674476106
 10
573.5677396115689
 20
559.3872445167503
 10
571.476960562205
 20
558.1263660504333
 10
571.4676662222755
 20
558.121718880468
 10
571.4597264304703
 20
558.1195534827043
 10
566.2811388730997
 20
556.8257181808699
 10
566.092918924463
 20
556.5821471679515
 10
566.0821061026945
 20
556.5713343461825
 10
566.0722616762132
 20
556.5658652203606
 10
566.0661063688935
 20
556.56260652825
 10
566.0582274244562
 20
556.559980213437
 10
565.2157723278069
 20
556.3306108420334
 10
560.7143238563585
 20
554.8027697570919
 10
559.9620510404093
 20
553.3388459735165
 10
559.9587917583308
 20
553.3334138367195
 10
559.9532723146849
 20
553.3260545785238
 10
559.9457344349225
 20
553.3185166987619
 10
559.9383751767273
 20
553.3129972551164
 10
559.9332002339547
 20
553.3098922894519
 10
555.6079133165285
 20
551.0433686717829
 10
553.794059652957
 20
549.6316151418428
 10
551.0364377707369
 20
543.7929451681298
 10
551.032946739585
 20
543.7866613120555
 10
551.0267648675449
 20
543.7782314865476
 10
551.0196431600361
 20
543.7711097790384
 10
550.3603802766797
 20
543.2489167720701
 10
550.6754333004933
 20
541.8212172721819
 10
550.6761714686595
 20
541.81309742235
 10
550.6761714686595
 20
541.8065287112745
 10
549.9959372904523
 20
533.7654032087271
 10
549.9945987522319
 20
533.7587105176249
 10
549.9915311204531
 20
533.7474625344362
 10
549.9846356227522
 20
533.7350506385742
 10
549.9783637452588
 20
533.7266881352502
 10
549.9712930896735
 20
533.719617479665
 10
549.9655315200253
 20
533.715136258827
 10
547.0843042791648
 20
531.7820508433292
 10
547.083362546346
 20
531.7811091105109
 10
543.9900279818735
 20
529.8596757896808
 10
542.3466820813483
 20
525.6820711742917
 10
542.345443715381
 20
525.6789752593745
 10
542.3407273753423
 20
525.6695425792973
 10
542.333301275758
 20
525.6599947369746
 10
542.3270623195435
 20
525.6537557807592
 10
542.3222226346338
 20
525.6498840328318
 10
542.3123551106232
 20
525.642835801395
 10
542.2998404012378
 20
525.6382251189902
 10
542.2927293829798
 20
525.6362857503741
 10
542.2787048214363
 20
525.6340713459208
 10
542.2675197637009
 20
525.6353141301138
 10
542.2642991438374
 20
525.6357742186651
 10
542.2507776057305
 20
525.6384785262858
 10
542.2360649860357
 20
525.646652203895
 10
542.2315782432943
 20
525.6500172609508
 10
537.8626468065522
 20
529.0159447199699
 10
536.2239366013196
 20
528.8572203749695
 10
535.5499788347638
 20
528.4121776923698
 10
535.5476404840083
 20
528.4105074418308
 10
535.5382183057204
 20
528.4052728983374
 10
530.919549824122
 20
526.8058030312327
 10
529.7924987619963
 20
524.3768488364317
 10
529.7918124491689
 20
524.3741035851231
 10
526.4894052007994
 20
518.4552762854423
 10
526.289432772111
 20
518.0093955744574
 10
526.2858118281083
 20
518.0028778752508
 10
526.2821548923575
 20
517.9977581652006
 10
526.2782831444292
 20
517.99291848029
 10
526.2679183688338
 20
517.982553704695
 10
526.2516396654141
 20
517.9735099805725
 10
526.2316749067427
 20
517.9675205529716
 10
520.8714458745803
 20
518.207258773999
 10
519.2906347587927
 20
515.1486985084371
 10
516.4673073132499
 20
509.7577170126474
 10
516.4668936319363
 20
509.756889650022
 10
516.46341345256
 20
509.75062532714355
 10
515.7594553243953
 20
508.83315555479066
 10
515.5230488512743
 20
506.663468881718
 10
517.9274977528526
 20
499.4921632338833
 10
518.9968632097639
 20
497.0859961027368
 10
524.7782222382198
 20
490.598711649553
 10
525.4715548968325
 20
490.5601798281991
 10
525.4768989121903
 20
490.5601798281991
 10
525.492334585399
 20
490.5570926935575
 10
525.5029803741177
 20
490.55236123190525
 10
525.5103740140698
 20
490.54825365415354
 10
525.5149987239802
 20
490.5447851217209
 10
525.5213282905775
 20
490.5398621254785
 10
525.5308121257153
 20
490.5289192387813
 10
525.5376154111068
 20
490.51716810946846
 10
525.5438933881342
 20
490.50012788610957
 10
525.5444724486974
 20
490.48680949314667
 10
525.5444724486974
 20
490.4814780154352
 10
525.430372014604
 20
489.3284368375994
 10
525.429912479643
 20
489.32338195302646
 10
525.4261875634775
 20
489.30773730512965
 10
525.0620661751968
 20
488.66786202629055
 10
525.0560259902313
 20
488.6598084463362
 10
525.0489553346465
 20
488.65273779075187
 10
525.0394074923238
 20
488.64531169116754
 10
525.0275563422747
 20
488.63938611614367
 10
523.1008740192729
 20
488.02505250920376
 10
523.0931817786964
 20
488.0235140610889
 10
523.0858101948143
 20
488.0227769027001
 10
523.0746430597073
 20
488.022776902701
 10
523.0590234505498
 20
488.0259008245325
 10
519.1806145578462
 20
489.7726326739926
 10
519.1759937127367
 20
489.77540518105934
 10
519.1723160268402
 20
489.77774552663004
 10
514.9804288073155
 20
493.0083304479317
 10
513.3263676398183
 20
492.05951945534844
 10
513.1473830723335
 20
491.7208757842277
 10
512.7243250996739
 20
490.74790346939926
 10
513.8548884482216
 20
481.19958487998747
 10
513.8548884482216
 20
481.19244308231873
 10
513.6666434783688
 20
478.5977797320961
 10
513.6653731855217
 20
478.5914282678609
 10
513.6640547240468
 20
478.5861544219629
 10
511.80007439982774
 20
473.3546248465241
 10
511.79196461240826
 20
473.34002722916875
 10
511.78123536161957
 20
473.3292979783805
 10
511.77634192536107
 20
473.3254919724018
 10
511.7734633720306
 20
473.32343586288016
 10
511.76398026999414
 20
473.31740116158335
 10
511.751281240347
 20
473.3131681517011
 10
510.36373831286346
 20
473.01580454846635
 10
505.89590755291874
 20
469.34887248083714
 10
505.3252173378237
 20
468.9466706813496
 10
505.32226784973363
 20
468.9444585652823
 10
502.3400786472803
 20
467.25367465096724
 10
502.336791089273
 20
467.2518482298533
 10
500.08533234651304
 20
466.2584106683612
 10
499.7025906215158
 20
465.7149342696962
 10
499.6987190864397
 20
465.70977222292686
 10
499.6905610005756
 20
465.70161413706364
 10
499.68205351109054
 20
465.6955373588594
 10
499.67691577429105
 20
465.6926830606376
 10
499.67069078387203
 20
465.6895705654283
 10
499.6617132318256
 20
465.6865780480798
 10
494.68708367966656
 20
464.6177084113201
 10
493.16558139406106
 20
462.3998724978169
 10
493.1645240878356
 20
462.39811032077387
 10
489.97446864243784
 20
458.2534732795907
 10
489.9672631739095
 20
458.2462678110628
 10
489.95775908012183
 20
458.2391397407214
 10
488.3010916118333
 20
457.39911823468583
 10
487.2002864360197
 20
452.13323845361856
 10
487.2002864360197
 20
452.1326054695169
 10
486.5623958862616
 20
449.3165957309943
 10
486.5604327147539
 20
449.31070621647314
 10
485.86524282452
 20
447.6108123342724
 10
485.8602659386115
 20
447.60185393963593
 10
485.85384799735084
 20
447.59360230087304
 10
485.8501853422008
 20
447.589939645723
 10
482.07774268430103
 20
443.9188225143512
 10
481.2203753465292
 20
440.707921472474
 10
481.21883702160994
 20
440.7033064977172
 10
481.214662156719
 20
440.69316754012243
 10
478.8270725515981
 20
437.30019350264547
 10
478.8231925775308
 20
437.2950202038887
 10
478.812473997355
 20
437.2843016237134
 10
478.7973560914993
 20
437.2755491519024
 10
478.7832544066664
 20
437.2708485902908
 10
478.77256390646426
 20
437.26945417722027
 10
476.0387807014795
 20
437.1739538720053
 10
471.81754106472135
 20
434.4057539578639
 10
471.8086483362699
 20
434.4016496216559
 10
470.8649285989318
 20
434.08928889388017
 10
466.2902260991659
 20
430.10064025700785
 10
466.28584490852836
 20
430.09625906637075
 10
465.8470293681621
 20
429.82548367988466
 10
465.84179227854565
 20
429.821555862673
 10
464.27925273703477
 20
429.19786253868415
 10
460.50579905965606
 20
427.76682842517266
 10
459.4815107983609
 20
427.0387279956781
 10
459.4781786045842
 20
427.0362288503452
 10
459.4695449046271
 20
427.0314323503685
 10
459.46001216518516
 20
427.0276192545921
 10
459.4501526966915
 20
427.0252717620938
 10
459.43609619071276
 20
427.0237099280971
 10
459.4246096315783
 20
427.02535086511534
 10
459.41042053657975
 20
427.0281886841153
 10
459.39584238685393
 20
427.0366286655358
 10
459.388012970448
 20
427.0425007278395
 10
118.50781454204025
 20
767.9226991562468
 10
118.24263696365142
 20
768.1878785964605
 10
118.34870223613552
 20
768.2939434966015
 10
240.74109673184284
 20
645.9015490008937
 10
242.14256303235334
 20
652.5295861924355
 10
242.1449348052779
 20
652.5367015112101
 10
242.64583741476144
 20
653.6948583450016
 10
242.7705833707032
 20
654.8076429613125
 10
242.7712888475221
 20
654.811875822224
 10
244.38016552532144
 20
661.8079613397244
 10
244.6630353108012
 20
668.1301528441822
 10
244.58750553447635
 20
671.4513781219925
 10
244.58857215803846
 20
671.4609777340534
 10
245.50716870093947
 20
675.3066623996133
 10
246.89514391792818
 20
679.0110690572733
 10
246.7957817905858
 20
683.3541094372663
 10
246.79539472715487
 20
683.3583671350048
 10
246.79633201266552
 20
683.3686772756187
 10
247.67971164163828
 20
688.0932081726337
 10
247.68203466656678
 20
688.1001772474197
 10
247.684618629125
 20
688.1066371538168
 10
247.68834833879373
 20
688.1133506312194
 10
249.04835822783434
 20
690.1662693072344
 10
251.75965453285198
 20
693.9010049978338
 10
253.63814323340557
 20
697.4621868902582
 10
255.21915736589926
 20
700.2946676924889
 10
255.2217799984851
 20
700.2993884311422
 10
255.2313726794605
 20
700.3119327062636
 10
258.5288632846077
 20
702.790508317818
 10
260.4713592413477
 20
704.9270724791018
 10
260.47754899428446
 20
704.9332622320385
 10
260.4893072716477
 20
704.9413073691808
 10
263.67281725209614
 20
706.3121558313901
 10
266.8432482572489
 20
708.4171915001848
 10
268.61903223538684
 20
710.9473258487019
 10
268.63181720834973
 20
710.9601108216643
 10
268.64537100314647
 20
710.9671587949583
 10
268.65664985430294
 20
710.9716703354211
 10
268.6666804899751
 20
710.9732541200015
 10
268.6725216570826
 20
710.9739031385684
 10
268.6800847827312
 20
710.9739031385693
 10
273.93277242699014
 20
710.495376379246
 10
274.3477642699686
 20
710.5294183212404
 10
274.5539748960027
 20
710.6028612471096
 10
279.58727452494486
 20
713.1145456706322
 10
279.59191737421725
 20
713.1171250313387
 10
279.60035381472426
 20
713.1199371781754
 10
281.3812403661409
 20
713.6137729649749
 10
284.5061273602096
 20
717.9197492687531
 10
284.5098227493022
 20
717.9243685051192
 10
284.51606170551486
 20
717.9306074613319
 10
284.5202667231092
 20
717.933878030572
 10
284.52489143301955
 20
717.9373465630047
 10
284.53352513297614
 20
717.9421430629814
 10
284.53923246819477
 20
717.9444259970683
 10
286.27954895817265
 20
718.5666122606658
 10
289.36437459212266
 20
723.3110378709794
 10
289.3682111351768
 20
723.3179436484766
 10
289.38002781624436
 20
723.3297603295437
 10
289.3885353057326
 20
723.3358371077497
 10
289.3964038134259
 20
723.3402085009125
 10
289.40517896630763
 20
723.3437185620646
 10
290.96186841400186
 20
723.7501752118319
 10
294.28546339130435
 20
728.3379791919447
 10
294.28832386194154
 20
728.341475322723
 10
295.2026169066953
 20
729.3281021736798
 10
297.7888654156245
 20
734.367990687148
 10
297.56137260724154
 20
736.7488877067585
 10
293.6412138659607
 20
743.2500173203057
 10
291.7378380823443
 20
746.2792318552297
 10
291.7356658504964
 20
746.2828522416444
 10
289.082117382105
 20
751.7975774472493
 10
286.01082232866383
 20
758.1533498510803
 10
286.00685042014175
 20
758.16049928642
 10
286.0028833901242
 20
758.1771608124959
 10
286.00212656804524
 20
758.1915404319957
 10
286.6503534769208
 20
762.5080213374117
 10
286.6503534769208
 20
762.5088636525275
 10
287.37324195236715
 20
766.6855654078831
 10
287.373565443856
 20
766.6891238142584
 10
287.377256491809
 20
766.7026576567555
 10
287.38186584376126
 20
766.7118763606582
 10
287.3840789038759
 20
766.7155647941822
 10
288.604896135962
 20
768.5858171356163
 10
291.4899112592384
 20
772.4384228342919
 10
291.08438830762316
 20
780.0179279225217
 10
289.766654049718
 20
783.9730647545898
 10
286.8772966149645
 20
788.8762412538103
 10
286.87359207333657
 20
788.8832387213301
 10
286.86778043493405
 20
788.9006736365368
 10
286.8677804349345
 20
788.9202709245806
 10
286.87007664152543
 20
788.9317519575366
 10
288.78126488114776
 20
794.8683266733319
 10
288.7824780827509
 20
794.8719662781409
 10
290.0911197441824
 20
797.8526901183855
 10
290.0923881571721
 20
797.8556497486938
 10
292.05346405796945
 20
801.4496996481334
 10
292.44484373954674
 20
807.5812555472453
 10
291.5730324579449
 20
811.7546823692178
 10
291.5725547837337
 20
811.7589814371208
 10
291.5718695995338
 20
811.7665184633156
 10
291.5725547837337
 20
811.7740554895113
 10
291.5729970237371
 20
811.7780356495409
 10
291.5760648870123
 20
811.7933749659164
 10
291.58583920217825
 20
811.8102578739304
 10
291.59389378343485
 20
811.8195516215351
 10
291.6042774017892
 20
811.8286372875941
 10
293.62669597473405
 20
812.9073636387334
 10
297.6702071806426
 20
815.6286375307704
 10
297.6811731593575
 20
815.6341205201275
 10
297.69609774169703
 20
815.6381908607659
 10
297.7045247444307
 20
815.6386343872241
 10
298.8803680260439
 20
815.688093251953
 10
302.03497030144854
 20
817.201682688305
 10
304.1152663839721
 20
818.2522048564938
 10
304.1159936112949
 20
818.2529320838171
 10
304.65461741580884
 20
818.5071303648415
 10
309.33386884750144
 20
821.1864122650618
 10
309.33571699863614
 20
821.1874390156922
 10
309.3419419890556
 20
821.1905515109015
 10
309.34864074071356
 20
821.1927844281204
 10
311.287014088874
 20
821.7409459623655
 10
314.6099929819493
 20
823.6645576764045
 10
314.6151824454955
 20
823.667152408178
 10
317.9355772877684
 20
824.955446552151
 10
317.9417278976666
 20
824.9574967554504
 10
317.9502351441274
 20
824.9591982047427
 10
317.95648845363985
 20
824.9597666874256
 10
320.0712951683222
 20
825.0233843976935
 10
323.64833648330523
 20
825.7063961479857
 10
323.6512072294022
 20
825.7069702972053
 10
323.66253062289434
 20
825.708228452037
 10
325.61410841814404
 20
825.5015310870153
 10
326.5034306933562
 20
826.2138731313394
 10
326.5084845827155
 20
826.2176635483579
 10
326.51711828267526
 20
826.2224600483364
 10
326.52792525109635
 20
826.2267828357049
 10
326.53786896189786
 20
826.2287715778643
 10
326.5416620996998
 20
826.2291930376209
 10
331.0685985836385
 20
826.6636452762327
 10
333.8309723222492
 20
828.7301739654636
 10
335.950539757333
 20
831.6672720716256
 10
335.9568915994546
 20
831.6759336745176
 10
335.9656632298238
 20
831.6827560536935
 10
335.971599701747
 20
831.6872084076363
 10
335.9842909163672
 20
831.6935540149466
 10
335.9959605014342
 20
831.696736629056
 10
336.0058594192469
 20
831.6981507601727
 10
336.0228769836094
 20
831.6981507601718
 10
341.1376262492886
 20
830.0643825160328
 10
341.88701862172456
 20
829.907285646827
 10
342.41076622055243
 20
830.039763063924
 10
346.8462708867728
 20
834.2713107782315
 10
346.8539856673542
 20
834.2769682839921
 10
346.86226538012806
 20
834.2815681244215
 10
346.87097333509973
 20
834.28505130641
 10
346.88117552724134
 20
834.287736093815
 10
346.89152444932733
 20
834.2887709860238
 10
347.9900582261248
 20
834.2672862204722
 10
347.4452951499097
 20
836.3494166210553
 10
346.36598516663844
 20
837.5242572203974
 10
346.3641287413575
 20
837.5261136456779
 10
341.5597979487202
 20
843.5512124729398
 10
341.5560647508669
 20
843.5581455546676
 10
341.5503665164815
 20
843.5695420234374
 10
341.5477475319276
 20
843.5861289256131
 10
341.4171345520167
 20
850.6433341943434
 10
341.41713455201625
 20
850.6474302517822
 10
341.41792917273506
 20
850.6561710796873
 10
341.4211798252636
 20
850.6698238203066
 10
341.42634064919366
 20
850.6801454681668
 10
341.42960521354735
 20
850.6855864087561
 10
341.43672569152295
 20
850.6952961514494
 10
344.19397716696676
 20
853.0668828486127
 10
346.7550369573596
 20
855.2462729876711
 10
349.20114877936203
 20
857.4468742248796
 10
349.20606200089287
 20
857.4506956194032
 10
349.2105007697064
 20
857.4535202904658
 10
352.5007358705193
 20
859.3409651781208
 10
353.9381310046797
 20
863.5022182654543
 10
353.9381310046797
 20
863.5035093913025
 10
355.1102039587713
 20
866.5617751334535
 10
355.1131313047172
 20
866.5676298253461
 10
355.1187667164427
 20
866.5770221782227
 10
358.61834466672826
 20
870.2970598008055
 10
359.3540412915727
 20
872.1726908121332
 10
359.35680250570977
 20
872.1793966178943
 10
359.3647775893319
 20
872.1919288921576
 10
359.373900856584
 20
872.2010521594098
 10
359.37879429284203
 20
872.2048581653876
 10
359.38289046839964
 20
872.207784005072
 10
363.6569002137494
 20
874.6941298460229
 10
363.6678489034489
 20
874.6988221416091
 10
366.23349939670925
 20
875.2456821463534
 10
366.23414632930326
 20
875.2458977905512
 10
369.1470514302482
 20
875.8118055481132
 10
369.1508258743206
 20
875.8122249307876
 10
369.1549608242267
 20
875.8126008353252
 10
369.16167219088356
 20
875.8126008353252
 10
373.39403908882923
 20
875.4383754236837
 10
374.8204379874628
 20
875.5287355210635
 10
374.8262132504765
 20
875.5287355210635
 10
374.8335912937373
 20
875.5280647898585
 10
374.8400528605416
 20
875.5267724764967
 10
374.84966566418734
 20
875.5241508027761
 10
376.86003203996825
 20
874.5219993134401
 10
380.7720255494987
 20
873.3982929851077
 10
383.3966823781466
 20
872.3158423101363
 10
386.67026522181914
 20
871.3510057394074
 10
389.7193893175904
 20
871.4964475631882
 10
389.72129335114596
 20
871.4964475631882
 10
392.26230357120085
 20
871.4885658760327
 10
396.01704982034016
 20
871.8816438149902
 10
397.75335738478225
 20
872.3388735246667
 10
397.76397668848176
 20
872.3409973854073
 10
397.7774985129099
 20
872.3405876331522
 10
398.9364548749427
 20
872.1509725323817
 10
403.5485938473389
 20
871.306511426395
 10
408.3969178878624
 20
871.1476591869273
 10
408.3998279412376
 20
871.1473946366209
 10
408.4106922087426
 20
871.1461874957863
 10
408.423041685548
 20
871.1412477050649
 10
408.43000831143854
 20
871.1377643921192
 10
408.43489968053063
 20
871.1345034793908
 10
408.44200169665555
 20
871.1294306107307
 10
409.35807522702817
 20
870.1475227749065
 10
410.631799422983
 20
870.2929619382408
 10
410.6394411851088
 20
870.2938110229211
 10
410.6509750072778
 20
870.2927624936333
 10
410.6562403115895
 20
870.2917094327709
 10
410.66327532482137
 20
870.2900344296208
 10
415.20687816393547
 20
868.4228003296089
 10
419.237543839075
 20
868.904235371278
 10
419.2461416954129
 20
868.9050169945808
 10
419.25570179138685
 20
868.9039547616953
 10
419.2606723790195
 20
868.9031263304228
 10
419.2642738222735
 20
868.9022259696098
 10
420.82413383181347
 20
868.4804142788494
 10
422.39652436398455
 20
868.4029280023683
 10
422.4020095347464
 20
868.4020138072406
 10
422.40777406848974
 20
868.4008609004918
 10
422.4136580117756
 20
868.3988995860632
 10
426.6967415463396
 20
866.7739010799028
 10
429.73804518264296
 20
866.2892001279238
 10
432.43197192370235
 20
865.9386878517048
 10
432.43667807528436
 20
865.9377466213887
 10
432.4479575832547
 20
865.9347783298167
 10
432.46014041002127
 20
865.9280100927249
 10
438.2835661877066
 20
861.7041855609755
 10
438.69442854471026
 20
861.5370107113599
 10
439.5265202060109
 20
861.1481803240354
 10
444.72408023040316
 20
858.6524770310957
 10
444.7266799029926
 20
858.651610473566
 10
447.0114647359651
 20
857.342690878641
 10
450.70909721468297
 20
855.9807353304445
 10
454.2828937465224
 20
856.2120401734269
 10
456.19756371746325
 20
856.7295212540562
 10
460.5218675225901
 20
857.8098101078772
 10
460.52720771945724
 20
857.8108781472515
 10
460.53586940134346
 20
857.8117443154392
 10
461.69836429726183
 20
857.771674277174
 10
461.7055667137679
 20
857.7711202451351
 10
461.7125010551613
 20
857.7695200125058
 10
462.95071116055624
 20
857.4318151954863
 10
462.9557670170393
 20
857.4305512313645
 10
462.9623979600774
 20
857.4277093986343
 10
467.7144357359148
 20
855.2078511386685
 10
467.7179961314796
 20
855.2057149013303
 10
469.8032063402261
 20
853.9340095064731
 10
469.8112732525733
 20
853.9299760503004
  0
LWPOLYLINE
  5
95
330
17
100
AcDbEntity
  8
CORTE
100
AcDbPolyline
 90
7
 70
1
 10
303.2495587016456
 20
744.6775301054745
 10
300.4152133200482
 20
743.8598725834368
 10
299.3962133347495
 20
735.8753894038086
 10
304.4695285224793
 20
735.9895102814048
 10
305.6458542346327
 20
738.5623107700217
 10
305.75391100504885
 20
742.2863189687928
 10
303.2495587016456
 20
744.6775301054745
  0
LWPOLYLINE
  5
96
330
17
100
AcDbEntity
  8
CORTE
100
AcDbPolyline
 90
224
 70
1
 10
461.407230877207
 20
845.3934369052763
 10
458.7369483073694
 20
845.4835800504975
 10
455.4642731158183
 20
844.6469903465099
 10
453.72380839748485
 20
845.8798055105676
 10
450.1402861009433
 20
845.6478711923332
 10
444.0870236510709
 20
847.8769947264632
 10
443.0161731241924
 20
848.1111804161005
 10
441.7546636513439
 20
848.6973902161667
 10
436.44416866488746
 20
851.1787105871113
 10
432.2266966529114
 20
852.8947481781474
 10
430.489037427335
 20
854.148303734703
 10
427.7682990585381
 20
854.5023045262274
 10
427.54916436217945
 20
854.5842862202439
 10
425.49525230742756
 20
853.6573374604236
 10
420.80310804296687
 20
853.8885629609144
 10
416.6444115184281
 20
855.0131426037337
 10
415.65560748146345
 20
855.6229361420578
 10
413.98549062428265
 20
854.70790895867
 10
407.8951088670151
 20
854.0124836617501
 10
401.4139053469412
 20
860.9286823788175
 10
398.63425847036797
 20
861.3797824980961
 10
396.0723523218312
 20
860.7049512128856
 10
394.86205426968627
 20
860.204324611545
 10
391.4993186789411
 20
859.6007800906541
 10
386.52090958886583
 20
859.3633122556816
 10
381.31501559255366
 20
860.8976668606633
 10
378.7050700647783
 20
862.2806590519526
 10
377.5963124156842
 20
862.6326122561463
 10
373.95120081748064
 20
864.4421585199821
 10
371.15903957893806
 20
864.2652795545987
 10
370.83036720330074
 20
864.1348669476051
 10
368.04920907002224
 20
863.5404396723029
 10
366.71750174491126
 20
860.1453016865657
 10
366.71107839702836
 20
860.075408208812
 10
363.34806050154884
 20
851.065594999402
 10
359.80830090517384
 20
846.7932335846849
 10
358.41645543829054
 20
846.209110394409
 10
358.559923411196
 20
843.1530589587005
 10
364.9312794213638
 20
833.5992088735343
 10
359.12523394631535
 20
819.9717381516753
 10
353.8810794227925
 20
820.6165514739291
 10
352.1618202597506
 20
820.1781835496845
 10
350.5988615825863
 20
820.1987410651923
 10
349.99415173863144
 20
819.621837476861
 10
342.7314615499108
 20
817.7848029214279
 10
338.4863978380581
 20
818.6747055188357
 10
334.32537639782777
 20
815.5618500559599
 10
333.28858081540557
 20
815.454466525483
 10
328.6584365177778
 20
811.7457474858024
 10
323.1646006315
 20
812.326303058901
 10
321.7387366748253
 20
812.3527244382635
 10
318.3553897665256
 20
811.4224829243399
 10
318.0406068086054
 20
811.2402608264206
 10
312.7640621500036
 20
809.7458809448867
 10
311.28751582530504
 20
808.9004286539898
 10
307.8506004702058
 20
807.2780065426873
 10
305.6314792200933
 20
806.1555135474596
 10
304.280744688675
 20
804.7518316503288
 10
302.53014108497473
 20
803.457233432126
 10
302.15690285914025
 20
800.8136416565162
 10
301.882598174936
 20
796.5162430337718
 10
299.60782579764646
 20
792.3444993814451
 10
299.25037684500694
 20
791.4467212924787
 10
300.85052394430477
 20
786.1543542384793
 10
304.31495253857156
 20
780.3594472608461
 10
304.9884642371899
 20
779.7309923698399
 10
308.7399177569059
 20
773.4896009373429
 10
306.7110571645694
 20
767.7095061091636
 10
306.4568869227419
 20
762.4078420963128
 10
303.8077086158155
 20
757.6630037911423
 10
303.86145589023727
 20
757.5060255758076
 10
304.446761115315
 20
757.6748755766162
 10
315.12389140377945
 20
747.4801147121475
 10
314.7556048659426
 20
734.787693116285
 10
309.80667047183806
 20
723.9636324877288
 10
308.2867955938091
 20
723.8880409569633
 10
306.7359455974647
 20
720.5217475476998
 10
305.5152727328318
 20
719.0031352477586
 10
305.22219801322035
 20
718.7707544374593
 10
300.33754940627887
 20
713.7922158814404
 10
299.8070027174158
 20
713.379255850476
 10
298.2208466458492
 20
712.2459158113274
 10
294.60587662161424
 20
711.2899856680492
 10
293.7196465077468
 20
709.9269741569319
 10
289.426460783302
 20
708.3779455841709
 10
287.4623599791953
 20
705.6714888269285
 10
282.4324444674089
 20
704.2745231596105
 10
278.926534612021
 20
702.5250268404529
 10
276.12933107205936
 20
701.5287890801569
 10
271.75682594467617
 20
701.1701107869935
 10
267.2996260335399
 20
698.2107135376468
 10
266.06658348588417
 20
697.6758307112746
 10
263.63576326674684
 20
695.0021554612881
 10
262.25362813456604
 20
693.9577802867057
 10
260.3031073384145
 20
690.4630598591289
 10
259.3172443246094
 20
688.5940906648307
 10
256.07767305320067
 20
684.130966092926
 10
256.2758510091221
 20
675.4687636219646
 10
253.55999858452878
 20
668.2199375994301
 10
253.40418681567417
 20
667.6520131188095
 10
253.40305292287667
 20
667.647410102913
 10
253.0242462763763
 20
659.1810121867316
 10
251.92942554428146
 20
654.4131260415393
 10
251.783583224827
 20
650.2980748647483
 10
250.49872308643216
 20
646.2801621616368
 10
250.42048067148608
 20
645.9101256962372
 10
458.9230725891607
 20
437.40886943060514
 10
460.221772113106
 20
437.90395014767955
 10
460.4409990498348
 20
438.1622522020821
 10
464.03650144033963
 20
441.1588146061299
 10
465.1888375822791
 20
443.37634495090106
 10
470.90948329765615
 20
446.11463135882013
 10
474.78612084776114
 20
451.56933297752903
 10
476.0573584397257
 20
452.33225860018183
 10
478.8488769484052
 20
455.0286680486147
 10
480.64243807210914
 20
463.60845806499174
 10
485.0944053979615
 20
465.8749406472948
 10
486.420709032735
 20
467.5983370799081
 10
490.1683961247809
 20
473.0611977695994
 10
493.674569244356
 20
473.8343959241688
 10
494.94383672378035
 20
475.6366998633762
 10
498.5396924715801
 20
477.2352974217033
 10
499.39467796779263
 20
478.7526546709437
 10
501.86799481184335
 20
480.3619474659258
 10
501.99613434768435
 20
483.53387045927093
 10
502.1533132889631
 20
485.71312513205385
 10
501.86813626310186
 20
488.12162448841855
 10
505.3836732325435
 20
496.2068524336896
 10
507.5954799035544
 20
500.3916508294883
 10
508.5434608808823
 20
500.95140534555367
 10
507.26566676678704
 20
504.7624458468358
 10
508.1029891512694
 20
512.4472067364027
 10
510.29570495901316
 20
515.3082097813153
 10
512.3086019795269
 20
519.1517209573399
 10
516.4321187805444
 20
527.129919311345
 10
520.0660130370234
 20
527.0097147098609
 10
521.5069154115822
 20
529.5922103469234
 10
525.1225156772116
 20
537.3843394944292
 10
528.572079280239
 20
538.5819643466207
 10
532.9934782894061
 20
541.5016002251919
 10
533.4508863501001
 20
541.5459044557988
 10
534.6290265338553
 20
545.4487050765415
 10
534.6040203819252
 20
545.5475176138102
 10
535.7379645102978
 20
553.9834449458745
 10
539.0000186675284
 20
558.1685222321098
 10
542.1466575145264
 20
560.7923471141235
 10
543.9271614637232
 20
563.4176073089952
 10
546.9413559901514
 20
565.4551030892949
 10
547.3984284660901
 20
566.4862539547908
 10
548.9506346289027
 20
570.3539886485883
 10
551.5144587635095
 20
576.6519904369866
 10
552.6149829182764
 20
584.824825529879
 10
553.4716638249924
 20
587.9144079216344
 10
550.7203902112406
 20
588.8337335369492
 10
546.8353003883321
 20
594.2559586085576
 10
546.1443602745285
 20
598.3312179391946
 10
543.7780876304823
 20
607.3716611097238
 10
545.2401075976595
 20
614.6187698921808
 10
547.1784302915421
 20
616.3500783069526
 10
550.1252874453598
 20
621.4436002652697
 10
554.105293216468
 20
624.7683081054934
 10
559.4348357670788
 20
626.0854307654231
 10
560.6528022420835
 20
627.020784002822
 10
560.7615182743702
 20
627.0957201443039
 10
559.7643710434904
 20
634.1631328910721
 10
559.6670124847228
 20
634.3795301309824
 10
555.7986521764624
 20
641.6195926785572
 10
551.8921013266822
 20
649.2943190408591
 10
550.7515099606767
 20
651.9994129417178
 10
550.5576005396983
 20
655.5419842525466
 10
552.7241971769004
 20
660.552113122349
 10
558.1073963020831
 20
662.1780067804689
 10
558.4631531427908
 20
662.1995382855134
 10
561.6411743421045
 20
665.141891575277
 10
560.3980668620702
 20
668.2842632197685
 10
558.671319335469
 20
672.1086928979553
 10
557.878293569177
 20
675.5197138065573
 10
556.720278409377
 20
685.2404256510895
 10
556.6257766840536
 20
687.424408016363
 10
556.1793619233099
 20
696.6655843563308
 10
556.1299708554293
 20
697.2699115604196
 10
556.0750493048099
 20
697.4906812064823
 10
553.7270072784409
 20
707.7275508746757
 10
553.0214526047434
 20
713.5230153687176
 10
555.8398398037612
 20
715.9116321980569
 10
557.6425104878913
 20
718.6957290421201
 10
558.0339473779741
 20
724.6522211765082
 10
554.7267435282774
 20
731.9484165458384
 10
551.3247777879815
 20
736.9345537869062
 10
550.6404230977641
 20
737.7802246288961
 10
546.3654249175997
 20
740.5347288027901
 10
543.4239145751235
 20
743.1378526346166
 10
541.3218327495883
 20
744.6843135045424
 10
536.1050601100469
 20
745.7622425566465
 10
534.2927119532419
 20
746.7348351488067
 10
530.7780036886288
 20
750.1466400182276
 10
528.160170010236
 20
752.6813698029678
 10
523.6296582568443
 20
754.2316585083049
 10
521.2619853275246
 20
755.1403307470814
 10
515.0480575686502
 20
754.828825770242
 10
509.1841124068437
 20
754.3666421673811
 10
508.30343312175455
 20
754.5563856071826
 10
504.9746827310246
 20
754.519106453738
 10
498.7961665182297
 20
762.5119622683583
 10
496.92720608223317
 20
765.109522375275
 10
496.3810602719436
 20
766.0068118625463
 10
491.1707279886491
 20
773.8294261184533
 10
487.8832701222909
 20
784.5596561037405
 10
487.7834211046943
 20
785.0638121610168
 10
487.4904018235661
 20
785.8887961502592
 10
484.3946306392054
 20
793.8510781971113
 10
482.3469049107789
 20
799.0776421264186
 10
480.98925130845146
 20
801.3645176703053
 10
480.00552294930367
 20
802.5909371587063
 10
475.68444657677037
 20
810.5820715567129
 10
470.06770656951176
 20
823.3663557322839
 10
471.8503141961469
 20
825.9462311993416
 10
472.4352446699195
 20
828.8102987924726
 10
471.2469105392638
 20
830.3169193757462
 10
470.7643728493854
 20
830.9319081163471
 10
464.5074265450394
 20
838.0392696385629
 10
462.4454019908012
 20
843.925529404673
 10
461.88070542252035
 20
845.2645533159362
 10
461.407230877207
 20
845.3934369052763
  0
LWPOLYLINE
  5
97
330
17
100
AcDbEntity
  8
GRABADO
100
AcDbPolyline
 90
666
 70
1
 10
466.9998077774899
 20
851.1217979601065
 10
467.0111884968974
 20
851.1132624205516
 10
467.0208057459763
 20
851.10068601791
 10
467.0242561979758
 20
851.094475204311
 10
467.0260846936244
 20
851.0908182130138
 10
468.97984165289654
 20
846.4451383395212
 10
470.66282958704824
 20
841.6408773314347
 10
476.14928810198626
 20
835.4087247372504
 10
476.1507979842613
 20
835.4072148549753
 10
476.74855345843525
 20
834.6449679269977
 10
479.9439625961609
 20
830.5936922338365
 10
479.9510419799267
 20
830.5827513680165
 10
479.9547112266446
 20
830.5717436278633
 10
479.95679730945903
 20
830.5640946575436
 10
479.95752577446865
 20
830.5575384724566
 10
479.9582794770881
 20
830.5492477436424
 10
479.95705351987135
 20
830.5382141286914
 10
478.4224886248444
 20
823.1439106094781
 10
478.41921971181955
 20
823.1330142327274
 10
478.41467035460664
 20
823.1248253897452
 10
478.41264555561065
 20
823.1214507247519
 10
478.04882819989143
 20
822.6031312764703
 10
481.97805071562834
 20
813.6598123467506
 10
485.8619507706453
 20
806.4771650958596
 10
486.75739782321034
 20
805.3608063918678
 10
486.7603186960587
 20
805.3564250825953
 10
488.6567933916631
 20
802.1614031963732
 10
488.6593692924225
 20
802.1558834090306
 10
490.91556112388616
 20
796.3961809353873
 10
494.05208230259814
 20
788.3290904485334
 10
494.5507561659797
 20
786.9250942624826
 10
494.5518300950398
 20
786.9197246171839
 10
494.6806332356073
 20
786.2693210467846
 10
497.5639255248543
 20
776.8582835107495
 10
502.2862506932938
 20
769.7683464059505
 10
502.2873568696791
 20
769.7672402295652
 10
502.76661766291363
 20
768.9791281720077
 10
504.40798409490617
 20
766.6978878191035
 10
508.38137610911235
 20
761.5576974609808
 10
509.0101845996228
 20
761.5647395775272
 10
509.01400683152724
 20
761.5650335953655
 10
509.0249600313259
 20
761.5640378499288
 10
509.65618107956834
 20
761.425558837977
 10
514.597720692781
 20
761.8150404103822
 10
518.8771390959341
 20
762.0295681909233
 10
520.0387430904912
 20
762.8674772985928
 10
520.0470436579017
 20
762.871409146313
 10
520.0586514592737
 20
762.8760522668622
 10
520.0695157267787
 20
762.8772594076959
 10
520.0824851048524
 20
762.8784384420665
 10
520.0959727891163
 20
762.8752270886703
 10
522.1926319870713
 20
762.2809758179051
 10
526.0176744380806
 20
760.8129901665375
 10
531.8290853883291
 20
758.8243925756601
 10
531.833988496473
 20
758.8231667986242
 10
531.8426532587437
 20
758.8188344174891
 10
531.9395619852376
 20
758.7655865625879
 10
531.9463023568019
 20
758.762216376806
 10
531.9551016674677
 20
758.7547708062425
 10
535.650483254447
 20
755.172469571417
 10
538.4656729981916
 20
752.4397027660602
 10
538.5182680037369
 20
752.4114777737555
 10
544.2371511364577
 20
751.229798850733
 10
544.2429698391261
 20
751.2278592831776
 10
544.2479391961083
 20
751.2259479920299
 10
544.2537538099436
 20
751.2230406851127
 10
544.2592802339241
 20
751.2197248307243
 10
547.8264489551034
 20
748.5892219903967
 10
550.6051193304957
 20
746.1302052837314
 10
555.3756192257433
 20
743.0564351160651
 10
555.3826607968931
 20
743.0525231320921
 10
555.3929250687966
 20
743.0422588601891
 10
556.9460293706029
 20
741.1158477445501
 10
556.948158805118
 20
741.113718310035
 10
560.8515120166935
 20
735.391724119389
 10
560.8535102749174
 20
735.388926557875
 10
560.8570611930991
 20
735.3825349051481
 10
564.5285913174894
 20
727.2795271740492
 10
565.1578330528396
 20
726.6126142869366
 10
565.1610225554423
 20
726.6086274086833
 10
565.1639515022907
 20
726.6045268830962
 10
565.1708155878741
 20
726.5930867404572
 10
565.1742175138584
 20
726.5806130118485
 10
565.1751452240946
 20
726.5759744606662
 10
565.3307939120582
 20
725.4726734988076
 10
565.3318292463887
 20
725.4674968271534
 10
565.3318292463891
 20
725.4559164782681
 10
565.3309369666913
 20
725.4478859609885
 10
565.0026693824061
 20
723.9465059191793
 10
564.508037253559
 20
716.4196926332229
 10
564.5073850898575
 20
716.4125188325056
 10
564.5033946457861
 20
716.3973551450367
 10
564.4982151621366
 20
716.388032074467
 10
564.4968840782553
 20
716.3858136013318
 10
561.1540185354479
 20
711.2396489290481
 10
561.1494478432201
 20
711.2332499599293
 10
561.1427972770712
 20
711.2265993937813
 10
560.426212793237
 20
710.6228248656475
 10
560.6315356358214
 20
708.9362918606607
 10
562.8835107805544
 20
699.1182495114413
 10
563.0865498143262
 20
698.3020880025729
 10
563.0878668496493
 20
698.2972588730559
 10
563.0891584977917
 20
698.2856340397734
 10
563.0824559098514
 20
698.1368588297778
 10
563.1655881937031
 20
697.1196890696342
 10
563.6184722426974
 20
687.7445927996455
 10
563.7023318207553
 20
685.8065558060321
 10
564.7836144140542
 20
676.7299591630385
 10
565.3338968449311
 20
674.3630437901215
 10
566.8462030637497
 20
671.0135623536903
 10
569.1815958471325
 20
665.1100727688231
 10
569.1834387350873
 20
665.1002440330644
 10
569.1843015346694
 20
665.0924788368252
 10
569.1255658812602
 20
662.5128645580794
 10
569.1245560203611
 20
662.5037758099866
 10
569.1215152881337
 20
662.492626458486
 10
569.1154797999261
 20
662.4790466100189
 10
569.1054811493777
 20
662.4661912021716
 10
568.1406003056518
 20
661.619841217987
 10
563.9750505344364
 20
657.7631900805886
 10
563.4116437315643
 20
655.4862273128442
 10
563.4108792447214
 20
655.4778179575701
 10
563.4035247032016
 20
655.4631088745323
 10
563.3974511182669
 20
655.452618136917
 10
563.3830739428859
 20
655.4382409615359
 10
563.3623949252415
 20
655.4267526183999
 10
563.3451863185651
 20
655.4239770366789
 10
559.3475363128528
 20
655.2402549537096
 10
557.8592188079851
 20
654.7907367515841
 10
557.6372908581866
 20
654.277541259075
 10
557.6745178256488
 20
653.5974340922553
 10
558.244492430933
 20
652.2456486287215
 10
562.0054280113923
 20
644.8569949144371
 10
565.9530950534086
 20
637.4685010763192
 10
566.5016979944935
 20
636.2491304964738
 10
566.5037114704878
 20
636.244096806488
 10
566.5057512556714
 20
636.2369575583466
 10
566.6554017766039
 20
635.4268515208009
 10
566.6557145459269
 20
635.4252876741834
 10
568.1569058773002
 20
624.7847428211376
 10
568.1577722532766
 20
624.7795445652796
 10
568.1577722532766
 20
624.7716022102209
 10
568.1255815982254
 20
624.0762774221889
 10
568.1237463559746
 20
624.0671012109347
 10
568.1218603584161
 20
624.0609043618147
 10
567.9134690226902
 20
623.5236485515675
 10
567.909576333032
 20
623.5150846343172
 10
567.90463226574
 20
623.5081629401097
 10
567.8992297263894
 20
623.5010980809589
 10
567.8902065380512
 20
623.4932779843989
 10
564.7736386675042
 20
621.3594160388861
 10
562.7862363434188
 20
619.8331645073399
 10
562.6134554739806
 20
619.6603836379022
 10
562.6064309629028
 20
619.6544398208357
 10
562.5987456437001
 20
619.6498286293149
 10
562.588656137113
 20
619.6447838760218
 10
557.3531015256644
 20
618.3603599831918
 10
555.5638534415416
 20
616.8657070918384
 10
552.6766890409872
 20
611.8753616139661
 10
552.6712481627796
 20
611.8672002966528
 10
552.6644439587699
 20
611.8603960926434
 10
551.6410697074461
 20
610.9503471814774
 10
550.9603691770126
 20
607.5761724758818
 10
552.994320402911
 20
599.8053771215832
 10
552.9956376671284
 20
599.802303505076
 10
553.4666736880604
 20
597.0193728149775
 10
555.0897003007153
 20
594.7541959485047
 10
559.5248884803209
 20
593.272197908806
 10
559.5278104662075
 20
593.2714674123349
 10
561.0001471878627
 20
592.6446104884676
 10
561.6937072392161
 20
592.2107130316112
 10
561.703859823615
 20
592.2030985933129
 10
561.7110846617365
 20
592.1940675456603
 10
561.714013608585
 20
592.1899670200733
 10
561.7163117550517
 20
592.1861367759616
 10
563.0449214250038
 20
589.7609532679785
 10
563.0493862821427
 20
589.7529165251294
 10
563.0533767262136
 20
589.7377528376596
 10
563.0540901506024
 20
589.7299051693867
 10
563.0544498408685
 20
589.7223516737863
 10
563.0534337433796
 20
589.7132067963835
 10
563.0509847136323
 20
589.7009616476466
 10
563.0459928286623
 20
589.6904232238207
 10
563.0423257138732
 20
589.6838224172011
 10
563.0360538363798
 20
589.6754599138762
 10
563.028764937932
 20
589.6681710154285
 10
563.0158108677001
 20
589.6582649617217
 10
563.001375388219
 20
589.6529466271754
 10
562.9950719461822
 20
589.6513707666677
 10
562.9801362891385
 20
589.6486551926587
 10
562.9660434419397
 20
589.6508803790589
 10
562.9612307646839
 20
589.6518429145094
 10
561.3496272850248
 20
590.1282325701236
 10
559.4884513095885
 20
583.4159824469066
 10
558.4621148916126
 20
575.794088590586
 10
559.0541052459225
 20
574.0285978242587
 10
559.0556029238928
 20
574.0241047903478
 10
559.0573043731847
 20
574.015597543887
 10
559.058352902473
 20
574.0040637217176
 10
559.057290669587
 20
573.9945036257436
 10
559.0567558306407
 20
573.9912945920664
 10
559.0545488927905
 20
573.9802599028158
 10
559.0493283353794
 20
573.9698187879917
 10
559.0479300149627
 20
573.9673018112421
 10
559.042536774673
 20
573.9583130774267
 10
559.0322391730888
 20
573.9480154758426
 10
559.0238766697644
 20
573.9417435983491
 10
559.0152429698046
 20
573.9369470983715
 10
559.0024818926231
 20
573.9318426674986
 10
558.9924218920992
 20
573.930405524567
 10
558.9871289897201
 20
573.9298174243027
 10
558.979842215751
 20
573.9298174243027
 10
557.9975583569726
 20
574.0120244905652
 10
555.4405482324842
 20
567.7307612324498
 10
553.8483971106648
 20
563.7634930440058
 10
553.8479739135732
 20
563.7622234527303
 10
552.5264560235851
 20
560.7812073719656
 10
552.522653844253
 20
560.7736030133015
 10
552.5182014903103
 20
560.7676665413787
 10
552.5149309210701
 20
560.7634615237844
 10
552.5078602654853
 20
560.7563908681991
 10
552.5020493317606
 20
560.7520326679046
 10
548.9639265011988
 20
558.3730552751408
 10
547.3866465716037
 20
556.0474382961934
 10
547.3807700699331
 20
556.0386235436877
 10
544.0595072190595
 20
553.2731030630734
 10
542.4232617790644
 20
551.1738694833825
 10
541.7216877265732
 20
545.9545402617791
 10
543.0395989766075
 20
540.7467755935727
 10
543.040445217729
 20
540.7416981468418
 10
543.0415074506154
 20
540.7321380508643
 10
543.0401376195196
 20
540.7170699088078
 10
543.0376401671592
 20
540.7087450676086
 10
543.0350766295287
 20
540.7010544547161
 10
543.0265901961975
 20
540.6857788747197
 10
543.0126339994076
 20
540.6718226779299
 10
543.0022469451769
 20
540.6655904453914
 10
542.9938809042114
 20
540.6614074249087
 10
542.9854439952369
 20
540.6588763522163
 10
540.3064299974781
 20
540.0338520073897
 10
538.8092630771812
 20
535.0742181145347
 10
538.8062535298668
 20
535.0675971104415
 10
538.8021324562505
 20
535.0598128602783
 10
538.7952463249353
 20
535.0509592628728
 10
538.7881756693505
 20
535.0438886072875
 10
538.7798131660256
 20
535.0376167297941
 10
538.769241494148
 20
535.0317435787515
 10
538.7594957434917
 20
535.0284949951988
 10
538.7512707331239
 20
535.0265366593972
 10
535.399437838621
 20
534.701880427298
 10
531.6970044545615
 20
532.2570078148733
 10
531.6910046214666
 20
532.2540078983261
 10
531.6865129192324
 20
532.2520828830825
 10
530.2227586378199
 20
531.7451768612941
 10
527.7468749682544
 20
526.4092979227794
 10
525.8475545973379
 20
523.0051904288371
 10
524.437547085528
 20
519.8612812610404
 10
524.4339261415248
 20
519.8547635618347
 10
524.430269205774
 20
519.8496438517836
 10
524.4263974578462
 20
519.844804166873
 10
524.4160326822507
 20
519.834439391278
 10
524.3997539788306
 20
519.8253956671565
 10
524.3814348714523
 20
519.8198999349429
 10
524.3687508453031
 20
519.8198999349429
 10
520.6202863437079
 20
519.9875513927086
 10
518.5184411515179
 20
515.9208921157119
 10
516.2176288811393
 20
511.5276233170548
 10
516.2149196163036
 20
511.52220478738354
 10
516.2106151615362
 20
511.51646551436033
 10
514.8497557053884
 20
509.74285517379803
 10
514.3908684159496
 20
505.5312884463924
 10
516.9815242742684
 20
497.8046177002784
 10
516.9830216899913
 20
497.80012545310865
 10
516.9845757259491
 20
497.7923552733196
 10
516.9853938704891
 20
497.78499197246083
 10
516.9853938704887
 20
497.7734116235747
 10
516.9830216899909
 20
497.7615507210853
 10
516.9808481589776
 20
497.75503012804484
 10
516.9782641964189
 20
497.7485702216486
 10
516.9734676964426
 20
497.739936521692
 10
516.9671958189492
 20
497.73157401836625
 10
516.9601251633644
 20
497.7245033627819
 10
516.9552317271068
 20
497.72069735680316
 10
516.9509495416482
 20
497.71763865290404
 10
512.8592220149931
 20
495.37052106606325
 10
511.6968940059037
 20
493.171364850657
 10
509.04206676754166
 20
487.06564513726744
 10
509.183123720431
 20
485.87433044696854
 10
509.1837709732122
 20
485.8672106663839
 10
508.9859611275574
 20
483.14071041922534
 10
508.7163390244905
 20
476.4665755191895
 10
508.71483186012847
 20
476.45903969737856
 10
508.7137004159358
 20
476.45451392060613
 10
508.711104044728
 20
476.44672480698364
 10
508.7060886840377
 20
476.4366940856039
 10
508.70216150360466
 20
476.43119603299647
 10
508.69844026698956
 20
476.42623438417695
 10
508.69090238722765
 20
476.41869650441595
 10
508.68446991140627
 20
476.4138721475488
 10
504.6507401579797
 20
473.8212456339784
 10
503.50068184437305
 20
471.7802176552227
 10
503.4945461932325
 20
471.7720367870347
 10
503.48747553764815
 20
471.76496613145036
 10
503.48327052005425
 20
471.7616955622111
 10
503.4773340481306
 20
471.7572432082684
 10
503.4696716006024
 20
471.7534119845045
 10
499.5539222713164
 20
470.02561995739916
 10
497.8340491069557
 20
467.58347578423536
 10
497.8301775718887
 20
467.57831373747877
 10
497.8220194860246
 20
467.57015565161464
 10
497.8135119965391
 20
467.5640788734104
 10
497.80837425974005
 20
467.5612245751895
 10
497.8021492693206
 20
467.5581120799793
 10
497.7931717172746
 20
467.5551195626308
 10
494.3762894514002
 20
466.82095399953005
 10
492.0847661309922
 20
463.48068776088576
 10
492.08370882476675
 20
463.47892558384274
 10
489.67821734782
 20
460.3536228271182
 10
489.67101187929165
 20
460.3464173585894
 10
489.66150778550445
 20
460.3392892882498
 10
486.80787121836784
 20
458.8923386281517
 10
485.29873468673713
 20
451.67313969686666
 10
485.2956759172034
 20
451.6639633882646
 10
485.29256342199324
 20
451.65773839784515
 10
485.2892840169584
 20
451.6518354687828
 10
485.28538884678164
 20
451.6466419085468
 10
484.79376151873157
 20
451.03869142051053
 10
484.790504316034
 20
451.0354342178139
 10
480.3452931176157
 20
446.74178556424476
 10
480.3392243107178
 20
446.73571675734684
 10
480.33122701737966
 20
446.7309183813436
 10
479.64370413078586
 20
446.3207311382216
 10
475.59354375144676
 20
440.6218706975246
 10
475.58976894209627
 20
440.61683761839095
 10
475.5847174177511
 20
440.6117860940453
 10
475.5383815049877
 20
440.56972822774105
 10
475.53271444915754
 20
440.56406117191045
 10
475.52164378581847
 20
440.5576518405037
 10
470.32143285895154
 20
438.0725451685198
 10
469.5990496783097
 20
436.68240685268984
 10
469.5963279605785
 20
436.67787065647144
 10
469.59097917127656
 20
436.67038235144946
 10
469.5841616935577
 20
436.6635648737306
 10
465.38684697115514
 20
433.17187427626277
 10
464.3952680516036
 20
432.003555839467
 10
464.3901646454865
 20
431.99845243334994
 10
464.3807165920871
 20
431.9908939906313
 10
464.37081964789286
 20
431.98594551853284
 10
464.36729553196164
 20
431.98453587216
 10
460.13711502534943
 20
430.38029394186697
 10
457.80073011924696
 20
428.719508674792
 10
457.79739792547025
 20
428.7170095294591
 10
457.7887642255132
 20
428.71221302948334
 10
457.77923148607124
 20
428.7083999337069
 10
457.76937201757755
 20
428.7060524412086
 10
457.7553155115993
 20
428.7044906072101
 10
457.74382895246436
 20
428.7061315442302
 10
457.7296398574658
 20
428.70896936322924
 10
457.71506170773955
 20
428.7174093446497
 10
457.7072322913341
 20
428.72328140695436
 10
152.16137667244766
 20
734.2691370258403
 10
151.89619909405837
 20
734.534316466053
 10
152.00226436654248
 20
734.640381366195
 10
242.82356803958555
 20
643.8190776931519
 10
243.723431492921
 20
648.0748549700261
 10
244.8221663235122
 20
651.5107313749836
 10
244.95747802754568
 20
655.3286532854304
 10
244.95747802754568
 20
655.3335318475733
 10
244.95887398035393
 20
655.341907564422
 10
246.05963565309048
 20
660.1284912119559
 10
246.44093894837988
 20
668.6506896857468
 10
246.4415715609598
 20
668.6563831989738
 10
246.44254363460414
 20
668.6612435671946
 10
246.62933677885076
 20
669.4154870373245
 10
246.62933677885076
 20
669.4164494683105
 10
246.89350096547514
 20
670.3783495321809
 10
246.89457403581355
 20
670.3815687431966
 10
249.24677853422781
 20
676.6594344409737
 10
249.04214175370998
 20
685.6039470514265
 10
249.04214175370998
 20
685.6082069581867
 10
249.0427697595578
 20
685.615115022511
 10
249.2175558098461
 20
686.5499136842304
 10
249.21815472322487
 20
686.5529082511243
 10
249.22122235500365
 20
686.5641562343121
 10
249.22705106239528
 20
686.5746479076174
 10
249.49113101731882
 20
686.9732734439399
 10
249.49164957155836
 20
686.9748291066594
 10
253.35885789288113
 20
692.301801637805
 10
254.150331929206
 20
693.8022541056057
 10
254.15061514540093
 20
693.80310375419
 10
256.85881688959535
 20
698.655008168796
 10
256.8626509470773
 20
698.6619094722641
 10
256.8726280645774
 20
698.6733118922643
 10
256.8787846936484
 20
698.6781003815418
 10
258.89521784342423
 20
700.1937626307558
 10
261.8998520435848
 20
703.4985796768647
 10
261.9085404332495
 20
703.5072680665294
 10
261.9210194986581
 20
703.5142008806456
 10
263.94462239282893
 20
704.3855827618477
 10
268.10952988168947
 20
707.1509098757438
 10
268.9766527554966
 20
708.3863852457284
 10
268.9777569948078
 20
708.3878575648091
 10
268.98457937398416
 20
708.3966291951797
 10
268.9958040550955
 20
708.4048606279944
 10
269.00124499568574
 20
708.4081251923485
 10
269.0085886424372
 20
708.4117970157245
 10
269.02346044360866
 20
708.4167542827822
 10
269.03898858466255
 20
708.4174937180692
 10
271.6197765817833
 20
708.1823805340387
 10
274.6438773701775
 20
708.4304486957758
 10
276.17947634186567
 20
708.9773598012466
 10
279.90989503137416
 20
710.8388890576766
 10
279.9163670957355
 20
710.8421250898577
 10
283.2331514812836
 20
711.7618618498313
 10
285.0255883650202
 20
714.2317722056428
 10
285.0291403073802
 20
714.2365081287885
 10
285.0364292058257
 20
714.2437970272354
 10
285.0460363100192
 20
714.2511436363243
 10
285.0564409320041
 20
714.2563459473172
 10
289.132551570905
 20
715.713609647933
 10
290.207998372734
 20
717.3676342038038
 10
290.2150260102271
 20
717.3757430162955
 10
290.2262600217755
 20
717.3853721690507
 10
290.23523175615355
 20
717.3898580362397
 10
290.24230781542474
 20
717.3932098537903
 10
295.1932520818041
 20
718.68591741513
 10
295.62066197669674
 20
718.9913102801152
 10
295.6686501408558
 20
719.0286626831607
 10
300.5311695243031
 20
723.9846466602844
 10
300.53519087517316
 20
723.9886680111545
 10
300.53970859948913
 20
723.9920563043911
 10
300.55111150601806
 20
724.0004587844955
 10
300.73932089038726
 20
724.2346059457454
 10
303.7035250146523
 20
730.6687426003195
 10
303.70508637506737
 20
730.6718653211487
 10
303.7111599600021
 20
730.6823560587641
 10
303.7250592405894
 20
730.696255339351
 10
303.73554997820384
 20
730.7023289242857
 10
303.74039183840205
 20
730.7047498543848
 10
303.7472707343568
 20
730.7075014127663
 10
303.7539009225543
 20
730.7093096459116
 10
303.7596254226869
 20
730.7104545459383
 10
303.7661484030973
 20
730.7111793215395
 10
305.20963760418863
 20
730.7436496586529
 10
307.7996877701062
 20
736.4084772345218
 10
308.03647209700057
 20
744.5688800607645
 10
302.5220480384578
 20
749.8341744856966
 10
299.4561863866634
 20
748.9497286953579
 10
299.4491870034176
 20
748.9483288187089
 10
299.44180896015723
 20
748.9476580875039
 10
299.4366221807463
 20
748.947658087503
 10
299.42742143986743
 20
748.948096218021
 10
299.41944274969455
 20
748.9500908905643
 10
299.409917214321
 20
748.9526887638481
 10
299.39535495307564
 20
748.9607789089846
 10
299.3853736762185
 20
748.9693342891483
 10
299.3766282666493
 20
748.9794251463431
 10
299.3720536528426
 20
748.9876594511938
 10
299.36906407498464
 20
748.9936386069098
 10
296.4320880389664
 20
757.5949160268106
 10
296.4290237053265
 20
757.6025768609093
 10
296.4274406599561
 20
757.6168242692443
 10
296.4274406599561
 20
757.6229504738917
 10
296.4278302416874
 20
757.6303525267917
 10
296.42919274661153
 20
757.6371650514116
 10
296.9294013209951
 20
759.7027520336237
 10
296.9320854638004
 20
759.7108044620404
 10
296.9352394421667
 20
759.7171124187721
 10
299.54363540958093
 20
764.3850031338129
 10
299.76797927103826
 20
769.0645272521365
 10
299.7695837116489
 20
769.074688709336
 10
299.7717402808926
 20
769.0811584170683
 10
301.04527711492483
 20
772.7034675959844
 10
299.4947868086165
 20
775.2830589098871
 10
298.81509263738917
 20
775.917282676412
 10
298.81087354673036
 20
775.9215017670708
 10
298.8070675407512
 20
775.9263952033284
 10
298.8043960500172
 20
775.9301352903572
 10
294.39973273327587
 20
783.3028007267599
 10
294.39708122528737
 20
783.3081037427369
 10
294.39470921273823
 20
783.3140337741083
 10
291.84182800251983
 20
791.7628796346739
 10
291.8408801068708
 20
791.7663552520548
 10
291.8397352068441
 20
791.7720797521883
 10
291.83891706230406
 20
791.7794430530471
 10
291.83891706230406
 20
791.7877508237748
 10
291.83960149710765
 20
791.7939107370044
 10
291.84128621204036
 20
791.8040190266024
 10
293.2602874087852
 20
795.3255191825906
 10
293.2614455249777
 20
795.3297656086293
 10
294.9954677887704
 20
798.5076959173316
 10
295.1881871169594
 20
801.5269362848107
 10
296.0090438366592
 20
807.3409443979986
 10
296.0107737383637
 20
807.3530537099291
 10
296.0172425020678
 20
807.3659912373373
 10
296.0233160870025
 20
807.3764819749526
 10
296.03434793925226
 20
807.3875138272019
 10
299.6451154842921
 20
810.0298751566993
 10
301.41149522267824
 20
811.8654951135145
 10
301.4192827824281
 20
811.8716431870021
 10
301.4257418574716
 20
811.8755186320273
 10
304.77614208339173
 20
813.567426692231
 10
304.776869310715
 20
813.5681539195543
 10
308.04923337567334
 20
815.112514404977
 10
310.03069872937704
 20
816.247077130573
 10
310.0344756446466
 20
816.2491754168336
 10
310.0424642693947
 20
816.2525991131556
 10
315.2910805469546
 20
817.7368795042844
 10
315.4344917446492
 20
817.8198976240769
 10
315.43851300211827
 20
817.8219082528108
 10
315.44173761815546
 20
817.8232902311124
 10
315.9535441041003
 20
818.0218682105428
 10
315.95703420961445
 20
818.0234546221404
 10
320.8577000202422
 20
819.3702517927172
 10
320.8634388113287
 20
819.3716864904895
 10
320.8691979363075
 20
819.3723263932648
 10
320.87406533584317
 20
819.3727688841323
 10
323.5980709144228
 20
819.3194724889477
 10
323.60129922686383
 20
819.3198311903311
 10
326.53004237850246
 20
819.0096393579865
 10
330.51941265906544
 20
822.2051020832919
 10
330.53848483173715
 20
822.2156977347754
 10
330.55405040864616
 20
822.2172542924659
 10
331.68068008059936
 20
822.3253774757281
 10
336.5746187749928
 20
825.9865275127199
 10
336.72325282340626
 20
826.1924906610843
 10
336.7298807544771
 20
826.2013279025127
 10
336.7437606612061
 20
826.2119419488349
 10
336.7567680182883
 20
826.2184456273758
 10
336.76984921946587
 20
826.2220132276966
 10
336.7817673629729
 20
826.2232461390945
 10
336.7956406134904
 20
826.2225159680142
 10
336.80495370429844
 20
826.2199760341578
 10
337.1750140151926
 20
826.1017702819404
 10
342.5838098080276
 20
824.9679118167655
 10
346.4936558008162
 20
825.9568734836598
 10
347.8341320625909
 20
827.2357108851379
 10
347.83912648644946
 20
827.240705308996
 10
347.8515971514321
 20
827.2487745628082
 10
347.8623025521506
 20
827.2531826689869
 10
347.8692994729786
 20
827.2550909201223
 10
347.8798415518859
 20
827.2571993359038
 10
351.32880533221487
 20
827.1897456264383
 10
353.4279765245915
 20
827.7249815803975
 10
353.4352329874432
 20
827.7264328729684
 10
353.4426350403428
 20
827.7268224547001
 10
353.4493282510002
 20
827.7268224546992
 10
354.75040987635793
 20
827.5623771721589
 10
357.00863513722834
 20
832.862697115936
 10
352.6848937385771
 20
839.3461485293897
 10
351.67400876228794
 20
840.5586760258379
 10
351.6728240653538
 20
840.5601992076104
 10
351.66837171141106
 20
840.566135679534
 10
351.6618748354049
 20
840.5791294315463
 10
351.65893671638696
 20
840.5902942838152
 10
351.6576965882987
 20
840.598148428377
 10
351.1972430976716
 20
850.7143948551761
 10
351.1962705081719
 20
850.7202303921772
 10
351.19777939105415
 20
850.7338103381157
 10
351.199949195563
 20
850.7446593606578
 10
351.20389355851694
 20
850.7538628742191
 10
351.20806167028104
 20
850.7621990977464
 10
351.21826898148174
 20
850.7755471200858
 10
351.2264349712309
 20
850.7818984454466
 10
351.2300564360112
 20
850.7846145440312
 10
351.23584395387206
 20
850.7880870547474
 10
351.24065421873456
 20
850.79049218718
 10
355.51459706736614
 20
852.582730500148
 10
357.2034688202698
 20
854.6211374357213
 10
359.82603098258323
 20
861.6472062664202
 10
359.84045957325816
 20
861.8042060739576
 10
359.8410205344344
 20
861.8081328021913
 10
359.84315198677723
 20
861.8187900639082
 10
359.92204623479483
 20
861.9905242295749
 10
362.62972779500615
 20
868.8936570313604
 10
362.6307959644855
 20
868.8968615397976
 10
362.63636211444873
 20
868.9079938397249
 10
362.6467593542943
 20
868.9215902302917
 10
362.655674036032
 20
868.9284073398562
 10
362.6595200096226
 20
868.931154463849
 10
364.33187006331036
 20
869.9040208933479
 10
364.3368702889188
 20
869.9062937231706
 10
364.3424588391117
 20
869.908529143248
 10
364.34863241954235
 20
869.9102128470008
 10
368.79377824266385
 20
870.8576811293356
 10
369.77603111177086
 20
871.2474253454079
 10
369.7824529463451
 20
871.2495659569327
 10
369.7909601928063
 20
871.2512674062259
 10
369.7983382360667
 20
871.2519381374309
 10
369.8039885655976
 20
871.2519381374309
 10
370.27796239140525
 20
871.2234962277603
 10
375.38223874164123
 20
871.5468440013051
 10
375.39203839188576
 20
871.5468440013051
 10
375.4006573522238
 20
871.5451202092377
 10
375.41036295195363
 20
871.5428093521591
 10
380.22698768330474
 20
869.1417606148511
 10
381.42472219519186
 20
868.7615634639446
 10
381.4311498335592
 20
868.7594209178228
 10
383.9699060276812
 20
867.4128880497387
 10
387.36705640812124
 20
866.411631909345
 10
390.71093644496705
 20
866.5711334566054
 10
392.88324795150584
 20
866.9610204019386
 10
393.83288700797084
 20
867.353828249969
 10
393.83768157207305
 20
867.3554264380032
 10
398.2884870763087
 20
868.5274771450354
 10
398.2961128555962
 20
868.5295569030227
 10
398.3122222898801
 20
868.530324018941
 10
403.380739500059
 20
867.7010715698857
 10
403.3814541736142
 20
867.7010715698857
 10
404.07521133113914
 20
867.5740478743651
 10
404.8020501517626
 20
867.5502334648031
 10
404.8127747700014
 20
867.5485401040282
 10
404.82371999073166
 20
867.5448916971186
 10
404.8393732808677
 20
867.5370650520513
 10
404.8488988413096
 20
867.5275394916084
 10
410.5968857890407
 20
861.3664691876861
 10
411.82666251144474
 20
861.5068902444295
 10
415.82521964699845
 20
863.6976282503551
 10
415.82645138811176
 20
863.6983125509728
 10
415.83455143568335
 20
863.7023625747584
 10
415.8473568131708
 20
863.7058549504368
 10
415.8606963218331
 20
863.7073371180654
 10
415.8689870506473
 20
863.706583415446
 10
415.8729672106765
 20
863.7061411754435
 10
415.8876389701636
 20
863.7032068235462
 10
415.8993653144357
 20
863.6966921878397
 10
419.4532770330293
 20
861.5050017003837
 10
421.9016479239003
 20
860.8429221171059
 10
424.1540914734669
 20
860.7319233161911
 10
427.2995569810123
 20
862.1514998479765
 10
427.3074629538869
 20
862.1546622371256
 10
427.31740666469204
 20
862.156650979287
 10
427.3247699655499
 20
862.157469123827
 10
427.3323259272047
 20
862.157469123827
 10
427.34438295601694
 20
862.1563730302992
 10
427.354254940004
 20
862.1530823689695
 10
429.46839065972836
 20
861.3401054774099
 10
433.1482653967314
 20
860.8613095062324
 10
433.1561317220403
 20
860.8597362411697
 10
433.1682775555032
 20
860.8553984435052
 10
433.1774481203729
 20
860.849896104583
 10
435.6418246983112
 20
859.0624440715806
 10
439.24667524569213
 20
857.5956746343895
 10
439.24848308713536
 20
857.5950720205742
 10
444.71122368399756
 20
855.0423730320786
 10
445.26590226067765
 20
854.7846199001874
 10
446.05353538769623
 20
854.6123713908005
 10
446.0584992159497
 20
854.6109531541565
 10
451.1678340524827
 20
852.7290227653843
 10
455.7463164924229
 20
853.0253533349701
 10
455.7524739552541
 20
853.0259131043172
 10
455.7701459420182
 20
853.024145905642
 10
455.782885362687
 20
853.019050137374
 10
455.7871332285258
 20
853.0169262044551
 10
455.79257091001
 20
853.0139052702966
 10
456.867918296527
 20
852.2308944197343
 10
457.9729024728258
 20
852.5133600879876
 10
457.9820141721061
 20
852.5158450968825
 10
457.9933502322315
 20
852.5158450968825
 10
462.4586829026007
 20
852.3619295385474
 10
462.4674345550334
 20
852.3619295385474
 10
462.4771245041975
 20
852.3592868251385
 10
466.9776373789632
 20
851.1318336891622
 10
466.98480155572634
 20
851.1298798227749
 10
466.9940202596299
 20
851.1252704708227
 10
466.9998077774899
 20
851.1217979601065
  0
TEXT
  5
98
330
17
100
AcDbEntity
  8
GRABADO
100
AcDbText
 10
559.9861032327249
 20
650.8845719273804
 30
0.0
 40
6.0
  1
74e
 72
1
 11
559.9861032327249
 21
650.8845719273804
 31
0.0
100
AcDbText
 73
2
  0
TEXT
  5
99
330
17
100
AcDbEntity
  8
HOJA
100
AcDbText
 10
10.0
 20
891.0
 30
0.0
 40
6.0
  1
gale_crater  hoja 37/39  1:30  lamina 3.0mm
 11
10.0
 21
891.0
 31
0.0
100
AcDbText
  0
ENDSEC
  0
SECTION
  2
OBJECTS
  0
DICTIONARY
  5
A
330
0
100
AcDbDictionary
281
1
  3
ACAD_COLOR
350
B
  3
ACAD_GROUP
350
C
  3
ACAD_LAYOUT
350
D
  3
ACAD_MATERIAL
350
E
  3
ACAD_MLEADERSTYLE
350
F
  3
ACAD_MLINESTYLE
350
10
  3
ACAD_PLOTSETTINGS
350
11
  3
ACAD_PLOTSTYLENAME
350
12
  3
ACAD_SCALELIST
350
14
  3
ACAD_TABLESTYLE
350
15
  3
ACAD_VISUALSTYLE
350
16
  3
EZDXF_META
350
2D
  0
DICTIONARY
  5
B
330
A
100
AcDbDictionary
281
1
  0
DICTIONARY
  5
C
330
A
100
AcDbDictionary
281
1
  0
DICTIONARY
  5
D
330
A
100
AcDbDictionary
281
1
  3
Model
350
1A
  3
Layout1
350
1E
  0
DICTIONARY
  5
E
330
A
100
AcDbDictionary
281
1
  3
ByBlock
350
1F
  3
ByLayer
350
20
  3
Global
350
21
  0
DICTIONARY
  5
F
330
A
100
AcDbDictionary
281
1
  3
Standard
350
2C
  0
DICTIONARY
  5
10
330
A
100
AcDbDictionary
281
1
  3
Standard
350
22
  0
DICTIONARY
  5
11
330
A
100
AcDbDictionary
281
1
  0
ACDBDICTIONARYWDFLT
  5
12
330
A
100
AcDbDictionary
281
1
  3
Normal
350
13
100
AcDbDictionaryWithDefault
340
13
  0
ACDBPLACEHOLDER
  5
13
330
12
  0
DICTIONARY
  5
14
330
A
100
AcDbDictionary
281
1
  0
DICTIONARY
  5
15
330
A
100
AcDbDictionary
281
1
  0
DICTIONARY
  5
16
330
A
100
AcDbDictionary
281
1
  3
2dWireframe
350
5A
  3
Basic
350
5B
  3
Brighten
350
5C
  3
ColorChange
350
5D
  3
Conceptual
350
5E
  3
Dim
350
5F
  3
EdgeColorOff
350
60
  3
Facepattern
350
61
  3
Flat
350
62
  3
FlatWithEdges
350
63
  3
Gouraud
350
64
  3
GouraudWithEdges
350
65
  3
Hidden
350
66
  3
JitterOff
350
67
  3
Linepattern
350
68
  3
Modeling
350
69
  3
OverhangOff
350
6A
  3
Realistic
350
6B
  3
Shaded
350
6C
  3
Shaded with edges
350
6D
  3
Shades of Gray
350
6E
  3
Sketchy
350
6F
  3
Thicken
350
70
  3
Wireframe
350
71
  3
X-Ray
350
72
  0
LAYOUT
  5
1A
330
D
100
AcDbPlotSettings
  1

  4
A3
  6

 40
7.5
 41
20.0
 42
7.5
 43
20.0
 44
420.0
 45
297.0
 46
0.0
 47
0.0
 48
0.0
 49
0.0
140
0.0
141
0.0
142
1.0
143
1.0
 70
1024
 72
1
 73
0
 74
5
  7

 75
16
 76
0
 77
2
 78
300
147
1.0
148
0.0
149
0.0
100
AcDbLayout
  1
Model
 70
1
 71
0
 10
0.0
 20
0.0
 11
420.0
 21
297.0
 12
0.0
 22
0.0
 32
0.0
 14
1e+20
 24
1e+20
 34
1e+20
 15
-1e+20
 25
-1e+20
 35
-1e+20
146
0.0
 13
0.0
 23
0.0
 33
0.0
 16
1.0
 26
0.0
 36
0.0
 17
0.0
 27
1.0
 37
0.0
 76
1
330
17
  0
LAYOUT
  5
1E
330
D
100
AcDbPlotSettings
  1

  4
A3
  6

 40
7.5
 41
20.0
 42
7.5
 43
20.0
 44
420.0
 45
297.0
 46
0.0
 47
0.0
 48
0.0
 49
0.0
140
0.0
141
0.0
142
1.0
143
1.0
 70
0
 72
1
 73
0
 74
5
  7

 75
16
 76
0
 77
2
 78
300
147
1.0
148
0.0
149
0.0
100
AcDbLayout
  1
Layout1
 70
1
 71
1
 10
0.0
 20
0.0
 11
420.0
 21
297.0
 12
0.0
 22
0.0
 32
0.0
 14
1e+20
 24
1e+20
 34
1e+20
 15
-1e+20
 25
-1e+20
 35
-1e+20
146
0.0
 13
0.0
 23
0.0
 33
0.0
 16
1.0
 26
0.0
 36
0.0
 17
0.0
 27
1.0
 37
0.0
 76
1
330
1B
  0
MATERIAL
  5
1F
102
{ACAD_REACTORS
330
E
102
}
330
E
100
AcDbMaterial
  1
ByBlock
  2

 70
0
 40
1.0
 71
1
 41
1.0
 91
-1023410177
 42
1.0
 72
1
  3

 73
1
 74
1
 75
1
 44
0.5
 73
0
 45
1.0
 46
1.0
 77
1
  4

 78
1
 79
1
170
1
 48
1.0
171
1
  6

172
1
173
1
174
1
140
1.0
141
1.0
175
1
  7

176
1
177
1
178
1
143
1.0
179
1
  8

270
1
271
1
272
1
145
1.0
146
1.0
273
1
  9

274
1
275
1
276
1
 42
1.0
 72
1
  3

 73
1
 74
1
 75
1
 94
63
  0
MATERIAL
  5
20
102
{ACAD_REACTORS
330
E
102
}
330
E
100
AcDbMaterial
  1
ByLayer
  2

 70
0
 40
1.0
 71
1
 41
1.0
 91
-1023410177
 42
1.0
 72
1
  3

 73
1
 74
1
 75
1
 44
0.5
 73
0
 45
1.0
 46
1.0
 77
1
  4

 78
1
 79
1
170
1
 48
1.0
171
1
  6

172
1
173
1
174
1
140
1.0
141
1.0
175
1
  7

176
1
177
1
178
1
143
1.0
179
1
  8

270
1
271
1
272
1
145
1.0
146
1.0
273
1
  9

274
1
275
1
276
1
 42
1.0
 72
1
  3

 73
1
 74
1
 75
1
 94
63
  0
MATERIAL
  5
21
102
{ACAD_REACTORS
330
E
102
}
330
E
100
AcDbMaterial
  1
Global
  2

 70
0
 40
1.0
 71
1
 41
1.0
 91
-1023410177
 42
1.0
 72
1
  3

 73
1
 74
1
 75
1
 44
0.5
 73
0
 45
1.0
 46
1.0
 77
1
  4

 78
1
 79
1
170
1
 48
1.0
171
1
  6

172
1
173
1
174
1
140
1.0
141
1.0
175
1
  7

176
1
177
1
178
1
143
1.0
179
1
  8

270
1
271
1
272
1
145
1.0
146
1.0
273
1
  9

274
1
275
1
276
1
 42
1.0
 72
1
  3

 73
1
 74
1
 75
1
 94
63
  0
MLINESTYLE
  5
22
102
{ACAD_REACTORS
330
10
102
}
330
10
100
AcDbMlineStyle
  2
Standard
 70
0
  3

 62
256
 51
90.0
 52
90.0
 71
2
 49
0.5
 62
256
  6
BYLAYER
 49
-0.5
 62
256
  6
BYLAYER
  0
MLEADERSTYLE
  5
2C
102
{ACAD_REACTORS
330
F
102
}
330
F
100
AcDbMLeaderStyle
179
2
170
2
171
1
172
0
 90
2
 40
0.0
 41
0.0
173
1
 91
-1056964608
 92
-2
290
1
 42
2.0
291
1
 43
8.0
  3
Standard
 44
4.0
300

342
29
174
1
175
1
176
0
178
1
 93
-1056964608
 45
4.0
292
0
297
0
 46
4.0
 94
-1056964608
 47
1.0
 49
1.0
140
1.0
294
1
141
0.0
177
0
142
1.0
295
0
296
0
143
3.75
271
0
272
9
273
9
  0
DICTIONARY
  5
2D
330
A
100
AcDbDictionary
280
1
281
1
  3
CREATED_BY_EZDXF
350
2E
  3
WRITTEN_BY_EZDXF
350
9C
  0
DICTIONARYVAR
  5
2E
330
2D
100
DictionaryVariables
280
0
  1
1.4.2 @ 2026-09-06T16:30:42.837530+00:00
  0
VISUALSTYLE
  5
5A
102
{ACAD_REACTORS
330
16
102
}
330
16
100
AcDbVisualStyle
  2
2dWireframe
 70
4
 90
0
 40
0.6
 62
7
290
0
291
0
  0
VISUALSTYLE
  5
5B
102
{ACAD_REACTORS
330
16
102
}
330
16
100
AcDbVisualStyle
  2
Basic
 70
7
 90
1
 40
0.6
 62
7
290
0
291
1
  0
VISUALSTYLE
  5
5C
102
{ACAD_REACTORS
330
16
102
}
330
16
100
AcDbVisualStyle
  2
Brighten
 70
12
 90
2
 40
0.6
 62
7
290
0
291
1
  0
VISUALSTYLE
  5
5D
102
{ACAD_REACTORS
330
16
102
}
330
16
100
AcDbVisualStyle
  2
ColorChange
 70
16
 90
2
 40
0.6
 62
8
290
0
291
1
  0
VISUALSTYLE
  5
5E
102
{ACAD_REACTORS
330
16
102
}
330
16
100
AcDbVisualStyle
  2
Conceptual
 70
9
 90
3
 40
0.6
 62
7
290
0
291
0
  0
VISUALSTYLE
  5
5F
102
{ACAD_REACTORS
330
16
102
}
330
16
100
AcDbVisualStyle
  2
Dim
 70
11
 90
2
 40
0.6
 62
7
290
0
291
1
  0
VISUALSTYLE
  5
60
102
{ACAD_REACTORS
330
16
102
}
330
16
100
AcDbVisualStyle
  2
EdgeColorOff
 70
22
 90
2
 40
0.6
 62
7
290
0
291
1
  0
VISUALSTYLE
  5
61
102
{ACAD_REACTORS
330
16
102
}
330
16
100
AcDbVisualStyle
  2
Facepattern
 70
15
 90
2
 40
0.6
 62
7
290
0
291
1
  0
VISUALSTYLE
  5
62
102
{ACAD_REACTORS
330
16
102
}
330
16
100
AcDbVisualStyle
  2
Flat
 70
0
 90
2
 40
0.6
 62
7
290
0
291
1
  0
VISUALSTYLE
  5
63
102
{ACAD_REACTORS
330
16
102
}
330
16
100
AcDbVisualStyle
  2
FlatWithEdges
 70
1
 90
2
 40
0.6
 62
7
290
0
291
1
  0
VISUALSTYLE
  5
64
102
{ACAD_REACTORS
330
16
102
}
330
16
100
AcDbVisualStyle
  2
Gouraud
 70
2
 90
2
 40
0.6
 62
7
290
0
291
1
  0
VISUALSTYLE
  5
65
102
{ACAD_REACTORS
330
16
102
}
330
16
100
AcDbVisualStyle
  2
GouraudWithEdges
 70
3
 90
2
 40
0.6
 62
7
290
0
291
1
  0
VISUALSTYLE
  5
66
102
{ACAD_REACTORS
330
16
102
}
330
16
100
AcDbVisualStyle
  2
Hidden
 70
6
 90
1
 40
0.6
 62
7
290
0
291
0
  0
VISUALSTYLE
  5
67
102
{ACAD_REACTORS
330
16
102
}
330
16
100
AcDbVisualStyle
  2
JitterOff
 70
20
 90
2
 40
0.6
 62
7
290
0
291
1
  0
VISUALSTYLE
  5
68
102
{ACAD_REACTORS
330
16
102
}
330
16
100
AcDbVisualStyle
  2
Linepattern
 70
14
 90
2
 40
0.6
 62
7
290
0
291
1
  0
VISUALSTYLE
  5
69
102
{ACAD_REACTORS
330
16
102
}
330
16
100
AcDbVisualStyle
  2
Modeling
 70
10
 90
2
 40
0.6
 62
7
290
0
291
0
  0
VISUALSTYLE
  5
6A
102
{ACAD_REACTORS
330
16
102
}
330
16
100
AcDbVisualStyle
  2
OverhangOff
 70
21
 90
2
 40
0.6
 62
7
290
0
291
1
  0
VISUALSTYLE
  5
6B
102
{ACAD_REACTORS
330
16
102
}
330
16
100
AcDbVisualStyle
  2
Realistic
 70
8
 90
2
 40
0.6
 62
7
290
0
291
0
  0
VISUALSTYLE
  5
6C
102
{ACAD_REACTORS
330
16
102
}
330
16
100
AcDbVisualStyle
  2
Shaded
 70
27
 90
2
 40
0.6
 62
7
290
0
291
0
  0
VISUALSTYLE
  5
6D
102
{ACAD_REACTORS
330
16
102
}
330
16
100
AcDbVisualStyle
  2
Shaded with edges
 70
26
 90
2
 40
0.6
 62
7
290
0
291
0
  0
VISUALSTYLE
  5
6E
102
{ACAD_REACTORS
330
16
102
}
330
16
100
AcDbVisualStyle
  2
Shades of Gray
 70
23
 90
2
 40
0.6
 62
7
290
0
291
0
  0
VISUALSTYLE
  5
6F
102
{ACAD_REACTORS
330
16
102
}
330
16
100
AcDbVisualStyle
  2
Sketchy
 70
24
 90
1
 40
0.6
 62
7
290
0
291
0
  0
VISUALSTYLE
  5
70
102
{ACAD_REACTORS
330
16
102
}
330
16
100
AcDbVisualStyle
  2
Thicken
 70
13
 90
2
 40
0.6
 62
7
290
0
291
1
  0
VISUALSTYLE
  5
71
102
{ACAD_REACTORS
330
16
102
}
330
16
100
AcDbVisualStyle
  2
Wireframe
 70
5
 90
0
 40
0.6
 62
7
290
0
291
0
  0
VISUALSTYLE
  5
72
102
{ACAD_REACTORS
330
16
102
}
330
16
100
AcDbVisualStyle
  2
X-Ray
 70
25
 90
2
 40
0.5
 62
7
290
0
291
0
  0
DICTIONARYVAR
  5
9C
330
2D
100
DictionaryVariables
280
0
  1
1.4.2 @ 2026-09-06T16:30:42.849649+00:00
  0
ENDSEC
  0
EOF
