  0
SECTION
  2
HEADER
  9
$ACADVER
  1
AC1024
  9
$ACADMAINTVER
 70
6
  9
$DWGCODEPAGE
  3
ANSI_1252
  9
$LASTSAVEDBY
  1
ezdxf
  9
$INSBASE
 10
0.0
 20
0.0
 30
0.0
  9
$EXTMIN
 10
1e+20
 20
1e+20
 30
1e+20
  9
$EXTMAX
 10
-1e+20
 20
-1e+20
 30
-1e+20
  9
$LIMMIN
 10
0.0
 20
0.0
  9
$LIMMAX
 10
420.0
 20
297.0
  9
$ORTHOMODE
 70
0
  9
$REGENMODE
 70
1
  9
$FILLMODE
 70
1
  9
$QTEXTMODE
 70
0
  9
$MIRRTEXT
 70
1
  9
$LTSCALE
 40
1.0
  9
$ATTMODE
 70
1
  9
$TEXTSIZE
 40
2.5
  9
$TRACEWID
 40
1.0
  9
$TEXTSTYLE
  7
OpenSans
  9
$CLAYER
  8
0
  9
$CELTYPE
  6
ByLayer
  9
$CECOLOR
 62
256
  9
$CELTSCALE
 40
1.0
  9
$DISPSILH
 70
0
  9
$DIMSCALE
 40
1.0
  9
$DIMASZ
 40
0.175
  9
$DIMEXO
 40
0.125
  9
$DIMDLI
 40
3.75
  9
$DIMRND
 40
0.0
  9
$DIMDLE
 40
0.0
  9
$DIMEXE
 40
0.375
  9
$DIMTP
 40
0.0
  9
$DIMTM
 40
0.0
  9
$DIMTXT
 40
0.25
  9
$DIMCEN
 40
2.5
  9
$DIMTSZ
 40
0.0
  9
$DIMTOL
 70
0
  9
$DIMLIM
 70
0
  9
$DIMTIH
 70
0
  9
$DIMTOH
 70
0
  9
$DIMSE1
 70
0
  9
$DIMSE2
 70
0
  9
$DIMTAD
 70
1
  9
$DIMZIN
 70
12
  9
$DIMBLK
  1
ARCHTICK
  9
$DIMASO
 70
1
  9
$DIMSHO
 70
1
  9
$DIMPOST
  1

  9
$DIMAPOST
  1

  9
$DIMALT
 70
0
  9
$DIMALTD
 70
3
  9
$DIMALTF
 40
0.03937007874
  9
$DIMLFAC
 40
100.0
  9
$DIMTOFL
 70
1
  9
$DIMTVP
 40
0.0
  9
$DIMTIX
 70
0
  9
$DIMSOXD
 70
0
  9
$DIMSAH
 70
0
  9
$DIMBLK1
  1

  9
$DIMBLK2
  1

  9
$DIMSTYLE
  2
EZDXF
  9
$DIMCLRD
 70
0
  9
$DIMCLRE
 70
0
  9
$DIMCLRT
 70
0
  9
$DIMTFAC
 40
0.5
  9
$DIMGAP
 40
0.1
  9
$DIMJUST
 70
0
  9
$DIMSD1
 70
0
  9
$DIMSD2
 70
0
  9
$DIMTOLJ
 70
0
  9
$DIMTZIN
 70
8
  9
$DIMALTZ
 70
0
  9
$DIMALTTZ
 70
0
  9
$DIMUPT
 70
1
  9
$DIMDEC
 70
2
  9
$DIMTDEC
 70
2
  9
$DIMALTU
 70
2
  9
$DIMALTTD
 70
3
  9
$DIMTXSTY
  7
OpenSansCondensed-Light
  9
$DIMAUNIT
 70
0
  9
$DIMADEC
 70
2
  9
$DIMALTRND
 40
0.0
  9
$DIMAZIN
 70
3
  9
$DIMDSEP
 70
46
  9
$DIMATFIT
 70
3
  9
$DIMFRAC
 70
0
  9
$DIMLDRBLK
  1

  9
$DIMLUNIT
 70
2
  9
$DIMLWD
 70
-2
  9
$DIMLWE
 70
-2
  9
$DIMTMOVE
 70
2
  9
$DIMFXL
 40
1.0
  9
$DIMFXLON
 70
0
  9
$DIMJOGANG
 40
0.785398163397
  9
$DIMTFILL
 70
0
  9
$DIMTFILLCLR
 70
0
  9
$DIMARCSYM
 70
0
  9
$DIMLTYPE
  6

  9
$DIMLTEX1
  6

  9
$DIMLTEX2
  6

  9
$DIMTXTDIRECTION
 70
0
  9
$LUNITS
 70
2
  9
$LUPREC
 70
4
  9
$SKETCHINC
 40
1.0
  9
$FILLETRAD
 40
10.0
  9
$AUNITS
 70
0
  9
$AUPREC
 70
2
  9
$MENU
  1
.
  9
$ELEVATION
 40
0.0
  9
$PELEVATION
 40
0.0
  9
$THICKNESS
 40
0.0
  9
$LIMCHECK
 70
0
  9
$CHAMFERA
 40
0.0
  9
$CHAMFERB
 40
0.0
  9
$CHAMFERC
 40
0.0
  9
$CHAMFERD
 40
0.0
  9
$SKPOLY
 70
0
  9
$TDCREATE
 40
2461290.4379861113
  9
$TDUCREATE
 40
2458532.153996898
  9
$TDUPDATE
 40
2461290.4379861113
  9
$TDUUPDATE
 40
2458532.1544311
  9
$TDINDWG
 40
0.0
  9
$TDUSRTIMER
 40
0.0
  9
$USRTIMER
 70
1
  9
$ANGBASE
 50
0.0
  9
$ANGDIR
 70
0
  9
$PDMODE
 70
0
  9
$PDSIZE
 40
0.0
  9
$PLINEWID
 40
0.0
  9
$SPLFRAME
 70
0
  9
$SPLINETYPE
 70
6
  9
$SPLINESEGS
 70
8
  9
$HANDSEED
  5
98
  9
$SURFTAB1
 70
6
  9
$SURFTAB2
 70
6
  9
$SURFTYPE
 70
6
  9
$SURFU
 70
6
  9
$SURFV
 70
6
  9
$UCSBASE
  2

  9
$UCSNAME
  2

  9
$UCSORG
 10
0.0
 20
0.0
 30
0.0
  9
$UCSXDIR
 10
1.0
 20
0.0
 30
0.0
  9
$UCSYDIR
 10
0.0
 20
1.0
 30
0.0
  9
$UCSORTHOREF
  2

  9
$UCSORTHOVIEW
 70
0
  9
$UCSORGTOP
 10
0.0
 20
0.0
 30
0.0
  9
$UCSORGBOTTOM
 10
0.0
 20
0.0
 30
0.0
  9
$UCSORGLEFT
 10
0.0
 20
0.0
 30
0.0
  9
$UCSORGRIGHT
 10
0.0
 20
0.0
 30
0.0
  9
$UCSORGFRONT
 10
0.0
 20
0.0
 30
0.0
  9
$UCSORGBACK
 10
0.0
 20
0.0
 30
0.0
  9
$PUCSBASE
  2

  9
$PUCSNAME
  2

  9
$PUCSORG
 10
0.0
 20
0.0
 30
0.0
  9
$PUCSXDIR
 10
1.0
 20
0.0
 30
0.0
  9
$PUCSYDIR
 10
0.0
 20
1.0
 30
0.0
  9
$PUCSORTHOREF
  2

  9
$PUCSORTHOVIEW
 70
0
  9
$PUCSORGTOP
 10
0.0
 20
0.0
 30
0.0
  9
$PUCSORGBOTTOM
 10
0.0
 20
0.0
 30
0.0
  9
$PUCSORGLEFT
 10
0.0
 20
0.0
 30
0.0
  9
$PUCSORGRIGHT
 10
0.0
 20
0.0
 30
0.0
  9
$PUCSORGFRONT
 10
0.0
 20
0.0
 30
0.0
  9
$PUCSORGBACK
 10
0.0
 20
0.0
 30
0.0
  9
$USERI1
 70
0
  9
$USERI2
 70
0
  9
$USERI3
 70
0
  9
$USERI4
 70
0
  9
$USERI5
 70
0
  9
$USERR1
 40
0.0
  9
$USERR2
 40
0.0
  9
$USERR3
 40
0.0
  9
$USERR4
 40
0.0
  9
$USERR5
 40
0.0
  9
$WORLDVIEW
 70
1
  9
$SHADEDGE
 70
3
  9
$SHADEDIF
 70
70
  9
$TILEMODE
 70
1
  9
$MAXACTVP
 70
64
  9
$PINSBASE
 10
0.0
 20
0.0
 30
0.0
  9
$PLIMCHECK
 70
0
  9
$PEXTMIN
 10
1e+20
 20
1e+20
 30
1e+20
  9
$PEXTMAX
 10
-1e+20
 20
-1e+20
 30
-1e+20
  9
$PLIMMIN
 10
0.0
 20
0.0
  9
$PLIMMAX
 10
420.0
 20
297.0
  9
$UNITMODE
 70
0
  9
$VISRETAIN
 70
1
  9
$PLINEGEN
 70
0
  9
$PSLTSCALE
 70
1
  9
$TREEDEPTH
 70
3020
  9
$CMLSTYLE
  2
Standard
  9
$CMLJUST
 70
0
  9
$CMLSCALE
 40
20.0
  9
$PROXYGRAPHICS
 70
1
  9
$MEASUREMENT
 70
1
  9
$CELWEIGHT
370
-1
  9
$ENDCAPS
280
0
  9
$JOINSTYLE
280
0
  9
$LWDISPLAY
290
0
  9
$INSUNITS
 70
4
  9
$HYPERLINKBASE
  1

  9
$STYLESHEET
  1

  9
$XEDIT
290
1
  9
$CEPSNTYPE
380
0
  9
$PSTYLEMODE
290
1
  9
$FINGERPRINTGUID
  2
{ED59218A-52E3-49A4-9CB8-19ED4E33BE52}
  9
$VERSIONGUID
  2
{125503BB-BC19-44C3-B37B-8C3723C704B6}
  9
$EXTNAMES
290
1
  9
$PSVPSCALE
 40
0.0
  9
$OLESTARTUP
290
0
  9
$SORTENTS
280
127
  9
$INDEXCTL
280
0
  9
$HIDETEXT
280
1
  9
$XCLIPFRAME
280
1
  9
$HALOGAP
280
0
  9
$OBSCOLOR
 70
257
  9
$OBSLTYPE
280
0
  9
$INTERSECTIONDISPLAY
280
0
  9
$INTERSECTIONCOLOR
 70
257
  9
$DIMASSOC
280
2
  9
$PROJECTNAME
  1

  9
$CAMERADISPLAY
290
0
  9
$LENSLENGTH
 40
50.0
  9
$CAMERAHEIGHT
 40
0.0
  9
$STEPSPERSEC
 40
24.0
  9
$STEPSIZE
 40
100.0
  9
$3DDWFPREC
 40
2.0
  9
$PSOLWIDTH
 40
0.005
  9
$PSOLHEIGHT
 40
0.08
  9
$LOFTANG1
 40
1.570796326795
  9
$LOFTANG2
 40
1.570796326795
  9
$LOFTMAG1
 40
0.0
  9
$LOFTMAG2
 40
0.0
  9
$LOFTPARAM
 70
7
  9
$LOFTNORMALS
280
1
  9
$LATITUDE
 40
37.795
  9
$LONGITUDE
 40
-122.394
  9
$NORTHDIRECTION
 40
0.0
  9
$TIMEZONE
 70
-8000
  9
$LIGHTGLYPHDISPLAY
280
1
  9
$TILEMODELIGHTSYNCH
280
1
  9
$CMATERIAL
347
20
  9
$SOLIDHIST
280
0
  9
$SHOWHIST
280
1
  9
$DWFFRAME
280
2
  9
$DGNFRAME
280
2
  9
$REALWORLDSCALE
290
1
  9
$INTERFERECOLOR
 62
256
  9
$CSHADOW
280
0
  9
$SHADOWPLANELOCATION
 40
0.0
  0
ENDSEC
  0
SECTION
  2
CLASSES
  0
CLASS
  1
ACDBDICTIONARYWDFLT
  2
AcDbDictionaryWithDefault
  3
ObjectDBX Classes
 90
0
 91
0
280
0
281
0
  0
CLASS
  1
SUN
  2
AcDbSun
  3
SCENEOE
 90
1153
 91
0
280
0
281
0
  0
CLASS
  1
VISUALSTYLE
  2
AcDbVisualStyle
  3
ObjectDBX Classes
 90
4095
 91
0
280
0
281
0
  0
CLASS
  1
MATERIAL
  2
AcDbMaterial
  3
ObjectDBX Classes
 90
1153
 91
0
280
0
281
0
  0
CLASS
  1
SCALE
  2
AcDbScale
  3
ObjectDBX Classes
 90
1153
 91
0
280
0
281
0
  0
CLASS
  1
TABLESTYLE
  2
AcDbTableStyle
  3
ObjectDBX Classes
 90
4095
 91
0
280
0
281
0
  0
CLASS
  1
MLEADERSTYLE
  2
AcDbMLeaderStyle
  3
ACDB_MLEADERSTYLE_CLASS
 90
4095
 91
0
280
0
281
0
  0
CLASS
  1
DICTIONARYVAR
  2
AcDbDictionaryVar
  3
ObjectDBX Classes
 90
0
 91
0
280
0
281
0
  0
CLASS
  1
CELLSTYLEMAP
  2
AcDbCellStyleMap
  3
ObjectDBX Classes
 90
1152
 91
0
280
0
281
0
  0
CLASS
  1
MENTALRAYRENDERSETTINGS
  2
AcDbMentalRayRenderSettings
  3
SCENEOE
 90
1024
 91
0
280
0
281
0
  0
CLASS
  1
ACDBDETAILVIEWSTYLE
  2
AcDbDetailViewStyle
  3
ObjectDBX Classes
 90
1025
 91
0
280
0
281
0
  0
CLASS
  1
ACDBSECTIONVIEWSTYLE
  2
AcDbSectionViewStyle
  3
ObjectDBX Classes
 90
1025
 91
0
280
0
281
0
  0
CLASS
  1
RASTERVARIABLES
  2
AcDbRasterVariables
  3
ISM
 90
0
 91
0
280
0
281
0
  0
CLASS
  1
LAYOUT
  2
AcDbLayout
  3
ObjectDBX Classes
 90
0
 91
0
280
0
281
0
  0
CLASS
  1
ACDBPLACEHOLDER
  2
AcDbPlaceHolder
  3
ObjectDBX Classes
 90
0
 91
0
280
0
281
0
  0
ENDSEC
  0
SECTION
  2
TABLES
  0
TABLE
  2
VPORT
  5
8
330
0
100
AcDbSymbolTable
 70
1
  0
VPORT
  5
23
330
8
100
AcDbSymbolTableRecord
100
AcDbViewportTableRecord
  2
*Active
 70
0
 10
0.0
 20
0.0
 11
1.0
 21
1.0
 12
0.0
 22
0.0
 13
0.0
 23
0.0
 14
0.5
 24
0.5
 15
0.5
 25
0.5
 16
0.0
 26
0.0
 36
1.0
 17
0.0
 27
0.0
 37
0.0
 40
1000.0
 41
1.34
 42
50.0
 43
0.0
 44
0.0
 50
0.0
 51
0.0
 71
0
 72
1000
 73
1
 74
3
 75
0
 76
0
 77
0
 78
0
281
0
 65
0
146
0.0
  0
ENDTAB
  0
TABLE
  2
LTYPE
  5
2
330
0
100
AcDbSymbolTable
 70
21
  0
LTYPE
  5
24
330
2
100
AcDbSymbolTableRecord
100
AcDbLinetypeTableRecord
  2
ByBlock
 70
0
  3

 72
65
 73
0
 40
0.0
  0
LTYPE
  5
25
330
2
100
AcDbSymbolTableRecord
100
AcDbLinetypeTableRecord
  2
ByLayer
 70
0
  3

 72
65
 73
0
 40
0.0
  0
LTYPE
  5
26
330
2
100
AcDbSymbolTableRecord
100
AcDbLinetypeTableRecord
  2
Continuous
 70
0
  3

 72
65
 73
0
 40
0.0
  0
LTYPE
  5
2F
330
2
100
AcDbSymbolTableRecord
100
AcDbLinetypeTableRecord
  2
CENTER
 70
0
  3
Center ____ _ ____ _ ____ _ ____ _ ____ _ ____
 72
65
 73
4
 40
5.08
 49
3.175
 74
0
 49
-0.635
 74
0
 49
0.635
 74
0
 49
-0.635
 74
0
  0
LTYPE
  5
30
330
2
100
AcDbSymbolTableRecord
100
AcDbLinetypeTableRecord
  2
CENTERX2
 70
0
  3
Center (2x) ________  __  ________  __  ________
 72
65
 73
4
 40
8.89
 49
6.35
 74
0
 49
-0.635
 74
0
 49
1.27
 74
0
 49
-0.635
 74
0
  0
LTYPE
  5
31
330
2
100
AcDbSymbolTableRecord
100
AcDbLinetypeTableRecord
  2
CENTER2
 70
0
  3
Center (.5x) ____ _ ____ _ ____ _ ____ _ ____
 72
65
 73
4
 40
2.54
 49
1.587
 74
0
 49
-0.318
 74
0
 49
0.318
 74
0
 49
-0.318
 74
0
  0
LTYPE
  5
32
330
2
100
AcDbSymbolTableRecord
100
AcDbLinetypeTableRecord
  2
DASHED
 70
0
  3
Dashed __ __ __ __ __ __ __ __ __ __ __ __ __ _
 72
65
 73
2
 40
1.524
 49
1.27
 74
0
 49
-0.254
 74
0
  0
LTYPE
  5
33
330
2
100
AcDbSymbolTableRecord
100
AcDbLinetypeTableRecord
  2
DASHEDX2
 70
0
  3
Dashed (2x) ____  ____  ____  ____  ____  ____
 72
65
 73
2
 40
3.048
 49
2.54
 74
0
 49
-0.508
 74
0
  0
LTYPE
  5
34
330
2
100
AcDbSymbolTableRecord
100
AcDbLinetypeTableRecord
  2
DASHED2
 70
0
  3
Dashed (.5x) _ _ _ _ _ _ _ _ _ _ _ _ _ _
 72
65
 73
2
 40
0.762
 49
0.635
 74
0
 49
-0.127
 74
0
  0
LTYPE
  5
35
330
2
100
AcDbSymbolTableRecord
100
AcDbLinetypeTableRecord
  2
PHANTOM
 70
0
  3
Phantom ______  __  __  ______  __  __  ______
 72
65
 73
6
 40
6.35
 49
3.175
 74
0
 49
-0.635
 74
0
 49
0.635
 74
0
 49
-0.635
 74
0
 49
0.635
 74
0
 49
-0.635
 74
0
  0
LTYPE
  5
36
330
2
100
AcDbSymbolTableRecord
100
AcDbLinetypeTableRecord
  2
PHANTOMX2
 70
0
  3
Phantom (2x)____________    ____    ____    ____________
 72
65
 73
6
 40
10.795
 49
6.35
 74
0
 49
-0.635
 74
0
 49
1.27
 74
0
 49
-0.635
 74
0
 49
1.27
 74
0
 49
-0.635
 74
0
  0
LTYPE
  5
37
330
2
100
AcDbSymbolTableRecord
100
AcDbLinetypeTableRecord
  2
PHANTOM2
 70
0
  3
Phantom (.5x) ___ _ _ ___ _ _ ___ _ _ ___ _ _ ___
 72
65
 73
6
 40
3.175
 49
1.587
 74
0
 49
-0.318
 74
0
 49
0.318
 74
0
 49
-0.318
 74
0
 49
0.318
 74
0
 49
-0.318
 74
0
  0
LTYPE
  5
38
330
2
100
AcDbSymbolTableRecord
100
AcDbLinetypeTableRecord
  2
DASHDOT
 70
0
  3
Dash dot __ . __ . __ . __ . __ . __ . __ . __
 72
65
 73
4
 40
3.556
 49
2.54
 74
0
 49
-0.508
 74
0
 49
0.0
 74
0
 49
-0.508
 74
0
  0
LTYPE
  5
39
330
2
100
AcDbSymbolTableRecord
100
AcDbLinetypeTableRecord
  2
DASHDOTX2
 70
0
  3
Dash dot (2x) ____  .  ____  .  ____  .  ____
 72
65
 73
4
 40
6.096
 49
5.08
 74
0
 49
-0.508
 74
0
 49
0.0
 74
0
 49
-0.508
 74
0
  0
LTYPE
  5
3A
330
2
100
AcDbSymbolTableRecord
100
AcDbLinetypeTableRecord
  2
DASHDOT2
 70
0
  3
Dash dot (.5x) _ . _ . _ . _ . _ . _ . _ . _
 72
65
 73
4
 40
1.778
 49
1.27
 74
0
 49
-0.254
 74
0
 49
0.0
 74
0
 49
-0.254
 74
0
  0
LTYPE
  5
3B
330
2
100
AcDbSymbolTableRecord
100
AcDbLinetypeTableRecord
  2
DOT
 70
0
  3
Dot .  .  .  .  .  .  .  .  .  .  .  .  .  .  .  .
 72
65
 73
2
 40
0.508
 49
0.0
 74
0
 49
-0.508
 74
0
  0
LTYPE
  5
3C
330
2
100
AcDbSymbolTableRecord
100
AcDbLinetypeTableRecord
  2
DOTX2
 70
0
  3
Dot (2x) .    .    .    .    .    .    .    . 
 72
65
 73
2
 40
1.016
 49
0.0
 74
0
 49
-1.016
 74
0
  0
LTYPE
  5
3D
330
2
100
AcDbSymbolTableRecord
100
AcDbLinetypeTableRecord
  2
DOT2
 70
0
  3
Dot (.5) . . . . . . . . . . . . . . . . . . . 
 72
65
 73
2
 40
0.254
 49
0.0
 74
0
 49
-0.254
 74
0
  0
LTYPE
  5
3E
330
2
100
AcDbSymbolTableRecord
100
AcDbLinetypeTableRecord
  2
DIVIDE
 70
0
  3
Divide __ . . __ . . __ . . __ . . __ . . __
 72
65
 73
6
 40
4.064
 49
2.54
 74
0
 49
-0.508
 74
0
 49
0.0
 74
0
 49
-0.508
 74
0
 49
0.0
 74
0
 49
-0.508
 74
0
  0
LTYPE
  5
3F
330
2
100
AcDbSymbolTableRecord
100
AcDbLinetypeTableRecord
  2
DIVIDEX2
 70
0
  3
Divide (2x) ____  . .  ____  . .  ____  . .  ____
 72
65
 73
6
 40
6.604
 49
5.08
 74
0
 49
-0.508
 74
0
 49
0.0
 74
0
 49
-0.508
 74
0
 49
0.0
 74
0
 49
-0.508
 74
0
  0
LTYPE
  5
40
330
2
100
AcDbSymbolTableRecord
100
AcDbLinetypeTableRecord
  2
DIVIDE2
 70
0
  3
Divide(.5x) _ . _ . _ . _ . _ . _ . _ . _
 72
65
 73
6
 40
2.032
 49
1.27
 74
0
 49
-0.254
 74
0
 49
0.0
 74
0
 49
-0.254
 74
0
 49
0.0
 74
0
 49
-0.254
 74
0
  0
ENDTAB
  0
TABLE
  2
LAYER
  5
1
330
0
100
AcDbSymbolTable
 70
5
  0
LAYER
  5
27
330
1
100
AcDbSymbolTableRecord
100
AcDbLayerTableRecord
  2
0
 70
0
 62
7
  6
Continuous
370
-3
390
13
347
21
  0
LAYER
  5
28
330
1
100
AcDbSymbolTableRecord
100
AcDbLayerTableRecord
  2
Defpoints
 70
0
 62
7
  6
Continuous
290
0
370
-3
390
13
347
21
  0
LAYER
  5
8A
330
1
100
AcDbSymbolTableRecord
100
AcDbLayerTableRecord
  2
CORTE
 70
0
 62
1
  6
Continuous
370
-3
390
13
347
21
  0
LAYER
  5
8B
330
1
100
AcDbSymbolTableRecord
100
AcDbLayerTableRecord
  2
GRABADO
 70
0
 62
5
  6
Continuous
370
-3
390
13
347
21
  0
LAYER
  5
8C
330
1
100
AcDbSymbolTableRecord
100
AcDbLayerTableRecord
  2
HOJA
 70
0
 62
8
  6
Continuous
370
-3
390
13
347
21
  0
ENDTAB
  0
TABLE
  2
STYLE
  5
5
330
0
100
AcDbSymbolTable
 70
26
  0
STYLE
  5
29
330
5
100
AcDbSymbolTableRecord
100
AcDbTextStyleTableRecord
  2
Standard
 70
0
 40
0.0
 41
1.0
 50
0.0
 71
0
 42
2.5
  3
txt
  4

  0
STYLE
  5
41
330
5
100
AcDbSymbolTableRecord
100
AcDbTextStyleTableRecord
  2
OpenSans-Light
 70
0
 40
0.0
 41
1.0
 50
0.0
 71
0
 42
2.5
  3
OpenSans-Light.ttf
  4

  0
STYLE
  5
42
330
5
100
AcDbSymbolTableRecord
100
AcDbTextStyleTableRecord
  2
OpenSans-Light-Italic
 70
0
 40
0.0
 41
1.0
 50
0.0
 71
0
 42
2.5
  3
OpenSans-LightItalic.ttf
  4

  0
STYLE
  5
43
330
5
100
AcDbSymbolTableRecord
100
AcDbTextStyleTableRecord
  2
OpenSans
 70
0
 40
0.0
 41
1.0
 50
0.0
 71
0
 42
2.5
  3
OpenSans-Regular.ttf
  4

  0
STYLE
  5
44
330
5
100
AcDbSymbolTableRecord
100
AcDbTextStyleTableRecord
  2
OpenSans-Italic
 70
0
 40
0.0
 41
1.0
 50
0.0
 71
0
 42
2.5
  3
OpenSans-Italic.ttf
  4

  0
STYLE
  5
45
330
5
100
AcDbSymbolTableRecord
100
AcDbTextStyleTableRecord
  2
OpenSans-SemiBold
 70
0
 40
0.0
 41
1.0
 50
0.0
 71
0
 42
2.5
  3
OpenSans-SemiBold.ttf
  4

  0
STYLE
  5
46
330
5
100
AcDbSymbolTableRecord
100
AcDbTextStyleTableRecord
  2
OpenSans-SemiBoldItalic
 70
0
 40
0.0
 41
1.0
 50
0.0
 71
0
 42
2.5
  3
OpenSans-SemiBoldItalic.ttf
  4

  0
STYLE
  5
47
330
5
100
AcDbSymbolTableRecord
100
AcDbTextStyleTableRecord
  2
OpenSans-Bold
 70
0
 40
0.0
 41
1.0
 50
0.0
 71
0
 42
2.5
  3
OpenSans-Bold.ttf
  4

  0
STYLE
  5
48
330
5
100
AcDbSymbolTableRecord
100
AcDbTextStyleTableRecord
  2
OpenSans-BoldItalic
 70
0
 40
0.0
 41
1.0
 50
0.0
 71
0
 42
2.5
  3
OpenSans-BoldItalic.ttf
  4

  0
STYLE
  5
49
330
5
100
AcDbSymbolTableRecord
100
AcDbTextStyleTableRecord
  2
OpenSans-ExtraBold
 70
0
 40
0.0
 41
1.0
 50
0.0
 71
0
 42
2.5
  3
OpenSans-ExtraBold.ttf
  4

  0
STYLE
  5
4A
330
5
100
AcDbSymbolTableRecord
100
AcDbTextStyleTableRecord
  2
OpenSans-ExtraBoldItalic
 70
0
 40
0.0
 41
1.0
 50
0.0
 71
0
 42
2.5
  3
OpenSans-ExtraBoldItalic.ttf
  4

  0
STYLE
  5
4B
330
5
100
AcDbSymbolTableRecord
100
AcDbTextStyleTableRecord
  2
OpenSansCondensed-Bold
 70
0
 40
0.0
 41
1.0
 50
0.0
 71
0
 42
2.5
  3
OpenSansCondensed-Bold.ttf
  4

  0
STYLE
  5
4C
330
5
100
AcDbSymbolTableRecord
100
AcDbTextStyleTableRecord
  2
OpenSansCondensed-Light
 70
0
 40
0.0
 41
1.0
 50
0.0
 71
0
 42
2.5
  3
OpenSansCondensed-Light.ttf
  4

  0
STYLE
  5
4D
330
5
100
AcDbSymbolTableRecord
100
AcDbTextStyleTableRecord
  2
OpenSansCondensed-Italic
 70
0
 40
0.0
 41
1.0
 50
0.0
 71
0
 42
2.5
  3
OpenSansCondensed-LightItalic.ttf
  4

  0
STYLE
  5
4E
330
5
100
AcDbSymbolTableRecord
100
AcDbTextStyleTableRecord
  2
LiberationSans
 70
0
 40
0.0
 41
1.0
 50
0.0
 71
0
 42
2.5
  3
LiberationSans-Regular.ttf
  4

  0
STYLE
  5
4F
330
5
100
AcDbSymbolTableRecord
100
AcDbTextStyleTableRecord
  2
LiberationSans-Bold
 70
0
 40
0.0
 41
1.0
 50
0.0
 71
0
 42
2.5
  3
LiberationSans-Bold.ttf
  4

  0
STYLE
  5
50
330
5
100
AcDbSymbolTableRecord
100
AcDbTextStyleTableRecord
  2
LiberationSans-BoldItalic
 70
0
 40
0.0
 41
1.0
 50
0.0
 71
0
 42
2.5
  3
LiberationSans-BoldItalic.ttf
  4

  0
STYLE
  5
51
330
5
100
AcDbSymbolTableRecord
100
AcDbTextStyleTableRecord
  2
LiberationSans-Italic
 70
0
 40
0.0
 41
1.0
 50
0.0
 71
0
 42
2.5
  3
LiberationSans-Italic.ttf
  4

  0
STYLE
  5
52
330
5
100
AcDbSymbolTableRecord
100
AcDbTextStyleTableRecord
  2
LiberationSerif
 70
0
 40
0.0
 41
1.0
 50
0.0
 71
0
 42
2.5
  3
LiberationSerif-Regular.ttf
  4

  0
STYLE
  5
53
330
5
100
AcDbSymbolTableRecord
100
AcDbTextStyleTableRecord
  2
LiberationSerif-Bold
 70
0
 40
0.0
 41
1.0
 50
0.0
 71
0
 42
2.5
  3
LiberationSerif-Bold.ttf
  4

  0
STYLE
  5
54
330
5
100
AcDbSymbolTableRecord
100
AcDbTextStyleTableRecord
  2
LiberationSerif-BoldItalic
 70
0
 40
0.0
 41
1.0
 50
0.0
 71
0
 42
2.5
  3
LiberationSerif-BoldItalic.ttf
  4

  0
STYLE
  5
55
330
5
100
AcDbSymbolTableRecord
100
AcDbTextStyleTableRecord
  2
LiberationSerif-Italic
 70
0
 40
0.0
 41
1.0
 50
0.0
 71
0
 42
2.5
  3
LiberationSerif-Italic.ttf
  4

  0
STYLE
  5
56
330
5
100
AcDbSymbolTableRecord
100
AcDbTextStyleTableRecord
  2
LiberationMono
 70
0
 40
0.0
 41
1.0
 50
0.0
 71
0
 42
2.5
  3
LiberationMono-Regular.ttf
  4

  0
STYLE
  5
57
330
5
100
AcDbSymbolTableRecord
100
AcDbTextStyleTableRecord
  2
LiberationMono-Bold
 70
0
 40
0.0
 41
1.0
 50
0.0
 71
0
 42
2.5
  3
LiberationMono-Bold.ttf
  4

  0
STYLE
  5
58
330
5
100
AcDbSymbolTableRecord
100
AcDbTextStyleTableRecord
  2
LiberationMono-BoldItalic
 70
0
 40
0.0
 41
1.0
 50
0.0
 71
0
 42
2.5
  3
LiberationMono-BoldItalic.ttf
  4

  0
STYLE
  5
59
330
5
100
AcDbSymbolTableRecord
100
AcDbTextStyleTableRecord
  2
LiberationMono-Italic
 70
0
 40
0.0
 41
1.0
 50
0.0
 71
0
 42
2.5
  3
LiberationMono-Italic.ttf
  4

  0
ENDTAB
  0
TABLE
  2
VIEW
  5
7
330
0
100
AcDbSymbolTable
 70
0
  0
ENDTAB
  0
TABLE
  2
UCS
  5
6
330
0
100
AcDbSymbolTable
 70
0
  0
ENDTAB
  0
TABLE
  2
APPID
  5
3
330
0
100
AcDbSymbolTable
 70
3
  0
APPID
  5
2A
330
3
100
AcDbSymbolTableRecord
100
AcDbRegAppTableRecord
  2
ACAD
 70
0
  0
APPID
  5
95
330
3
100
AcDbSymbolTableRecord
100
AcDbRegAppTableRecord
  2
HATCHBACKGROUNDCOLOR
 70
0
  0
APPID
  5
96
330
3
100
AcDbSymbolTableRecord
100
AcDbRegAppTableRecord
  2
EZDXF
 70
0
  0
ENDTAB
  0
TABLE
  2
DIMSTYLE
  5
4
330
0
100
AcDbSymbolTable
 70
12
100
AcDbDimStyleTable
  0
DIMSTYLE
105
2B
330
4
100
AcDbSymbolTableRecord
100
AcDbDimStyleTableRecord
  2
Standard
 70
0
 40
1.0
 41
2.5
 42
0.625
 43
3.75
 44
1.25
 45
0.0
 46
0.0
 47
0.0
 48
0.0
 49
2.5
140
2.5
141
2.5
142
0.0
143
0.03937007874
144
1.0
145
0.0
146
1.0
147
0.625
148
0.0
 69
0
 70
0
 71
0
 72
0
 73
0
 74
0
 75
0
 76
0
 77
1
 78
8
 79
3
170
0
171
3
172
1
173
0
174
0
175
0
176
0
177
0
178
0
179
2
271
2
272
2
273
2
274
3
275
0
276
0
277
2
278
44
279
0
280
0
281
0
282
0
283
0
284
8
285
0
286
0
288
0
289
3
290
0
371
-2
372
-2
  0
DIMSTYLE
105
73
330
4
100
AcDbSymbolTableRecord
100
AcDbDimStyleTableRecord
  2
EZDXF
 70
0
 40
1.0
 41
0.175
 42
0.125
 43
3.75
 44
0.375
 45
0.0
 46
0.0
 47
0.0
 48
0.0
 49
2.5
140
0.25
141
2.5
142
0.0
143
0.03937007874
144
100.0
145
0.0
146
0.5
147
0.1
148
0.0
 69
0
 70
0
 71
0
 72
0
 73
0
 74
0
 75
0
 76
0
 77
1
 78
12
 79
3
170
0
171
3
172
1
173
0
174
0
175
0
176
0
177
0
178
0
179
2
271
2
272
2
273
2
274
3
275
0
276
0
277
2
278
46
279
2
280
0
281
0
282
0
283
0
284
8
285
0
286
0
288
1
289
3
290
0
340
4C
342
74
371
-2
372
-2
  0
DIMSTYLE
105
7C
330
4
100
AcDbSymbolTableRecord
100
AcDbDimStyleTableRecord
  2
EZ_M_100_H25_CM
 70
0
 40
1.0
 41
0.25
 42
0.125
 43
3.75
 44
0.375
 45
0.0
 46
0.0
 47
0.0
 48
0.0
 49
2.5
140
0.25
141
2.5
142
0.125
143
0.03937007874
144
100.0
145
0.0
146
0.5
147
0.1
148
0.0
 69
0
 70
0
 71
0
 72
0
 73
0
 74
0
 75
0
 76
0
 77
1
 78
12
 79
3
170
0
171
3
172
1
173
0
174
0
175
0
176
0
177
0
178
0
179
2
271
2
272
2
273
2
274
3
275
0
276
0
277
2
278
46
279
2
280
0
281
0
282
0
283
0
284
8
285
0
286
0
288
1
289
3
290
0
340
4C
371
-2
372
-2
  0
DIMSTYLE
105
7D
330
4
100
AcDbSymbolTableRecord
100
AcDbDimStyleTableRecord
  2
EZ_M_50_H25_CM
 70
0
 40
1.0
 41
0.125
 42
0.0625
 43
3.75
 44
0.1875
 45
0.0
 46
0.0
 47
0.0
 48
0.0
 49
2.5
140
0.125
141
2.5
142
0.0625
143
0.03937007874
144
100.0
145
0.0
146
0.5
147
0.05
148
0.0
 69
0
 70
0
 71
0
 72
0
 73
0
 74
0
 75
0
 76
0
 77
1
 78
12
 79
3
170
0
171
3
172
1
173
0
174
0
175
0
176
0
177
0
178
0
179
2
271
2
272
2
273
2
274
3
275
0
276
0
277
2
278
46
279
2
280
0
281
0
282
0
283
0
284
8
285
0
286
0
288
1
289
3
290
0
340
4C
371
-2
372
-2
  0
DIMSTYLE
105
7E
330
4
100
AcDbSymbolTableRecord
100
AcDbDimStyleTableRecord
  2
EZ_M_25_H25_CM
 70
0
 40
1.0
 41
0.0625
 42
0.03125
 43
3.75
 44
0.09375
 45
0.0
 46
0.0
 47
0.0
 48
0.0
 49
2.5
140
0.0625
141
2.5
142
0.03125
143
0.03937007874
144
100.0
145
0.0
146
0.5
147
0.025
148
0.0
 69
0
 70
0
 71
0
 72
0
 73
0
 74
0
 75
0
 76
0
 77
1
 78
12
 79
3
170
0
171
3
172
1
173
0
174
0
175
0
176
0
177
0
178
0
179
2
271
2
272
2
273
2
274
3
275
0
276
0
277
2
278
46
279
2
280
0
281
0
282
0
283
0
284
8
285
0
286
0
288
1
289
3
290
0
340
4C
371
-2
372
-2
  0
DIMSTYLE
105
7F
330
4
100
AcDbSymbolTableRecord
100
AcDbDimStyleTableRecord
  2
EZ_M_20_H25_CM
 70
0
 40
1.0
 41
0.05
 42
0.025
 43
3.75
 44
0.07500000000000001
 45
0.0
 46
0.0
 47
0.0
 48
0.0
 49
2.5
140
0.05
141
2.5
142
0.025
143
0.03937007874
144
100.0
145
0.0
146
0.5
147
0.020000000000000004
148
0.0
 69
0
 70
0
 71
0
 72
0
 73
0
 74
0
 75
0
 76
0
 77
1
 78
12
 79
3
170
0
171
3
172
1
173
0
174
0
175
0
176
0
177
0
178
0
179
2
271
2
272
2
273
2
274
3
275
0
276
0
277
2
278
46
279
2
280
0
281
0
282
0
283
0
284
8
285
0
286
0
288
1
289
3
290
0
340
4C
371
-2
372
-2
  0
DIMSTYLE
105
80
330
4
100
AcDbSymbolTableRecord
100
AcDbDimStyleTableRecord
  2
EZ_M_10_H25_CM
 70
0
 40
1.0
 41
0.025
 42
0.0125
 43
3.75
 44
0.037500000000000006
 45
0.0
 46
0.0
 47
0.0
 48
0.0
 49
2.5
140
0.025
141
2.5
142
0.0125
143
0.03937007874
144
100.0
145
0.0
146
0.5
147
0.010000000000000002
148
0.0
 69
0
 70
0
 71
0
 72
0
 73
0
 74
0
 75
0
 76
0
 77
1
 78
12
 79
3
170
0
171
3
172
1
173
0
174
0
175
0
176
0
177
0
178
0
179
2
271
2
272
2
273
2
274
3
275
0
276
0
277
2
278
46
279
2
280
0
281
0
282
0
283
0
284
8
285
0
286
0
288
1
289
3
290
0
340
4C
371
-2
372
-2
  0
DIMSTYLE
105
81
330
4
100
AcDbSymbolTableRecord
100
AcDbDimStyleTableRecord
  2
EZ_M_5_H25_CM
 70
0
 40
1.0
 41
0.0125
 42
0.00625
 43
3.75
 44
0.018750000000000003
 45
0.0
 46
0.0
 47
0.0
 48
0.0
 49
2.5
140
0.0125
141
2.5
142
0.00625
143
0.03937007874
144
100.0
145
0.0
146
0.5
147
0.005000000000000001
148
0.0
 69
0
 70
0
 71
0
 72
0
 73
0
 74
0
 75
0
 76
0
 77
1
 78
12
 79
3
170
0
171
3
172
1
173
0
174
0
175
0
176
0
177
0
178
0
179
2
271
2
272
2
273
2
274
3
275
0
276
0
277
2
278
46
279
2
280
0
281
0
282
0
283
0
284
8
285
0
286
0
288
1
289
3
290
0
340
4C
371
-2
372
-2
  0
DIMSTYLE
105
82
330
4
100
AcDbSymbolTableRecord
100
AcDbDimStyleTableRecord
  2
EZ_M_1_H25_CM
 70
0
 40
1.0
 41
0.0025
 42
0.00125
 43
3.75
 44
0.00375
 45
0.0
 46
0.0
 47
0.0
 48
0.0
 49
2.5
140
0.0025
141
2.5
142
0.00125
143
0.03937007874
144
100.0
145
0.0
146
0.5
147
0.001
148
0.0
 69
0
 70
0
 71
0
 72
0
 73
0
 74
0
 75
0
 76
0
 77
1
 78
12
 79
3
170
0
171
3
172
1
173
0
174
0
175
0
176
0
177
0
178
0
179
2
271
2
272
2
273
2
274
3
275
0
276
0
277
2
278
46
279
2
280
0
281
0
282
0
283
0
284
8
285
0
286
0
288
1
289
3
290
0
340
4C
371
-2
372
-2
  0
DIMSTYLE
105
83
330
4
100
AcDbSymbolTableRecord
100
AcDbDimStyleTableRecord
  2
EZ_RADIUS
 70
0
 40
1.0
 41
0.25
 42
0.125
 43
3.75
 44
0.375
 45
0.0
 46
0.0
 47
0.0
 48
0.0
 49
2.5
140
0.25
141
0.0
142
0.0
143
0.03937007874
144
100.0
145
0.0
146
0.5
147
0.1
148
0.0
 69
0
 70
0
 71
0
 72
0
 73
0
 74
0
 75
0
 76
0
 77
1
 78
12
 79
3
170
0
171
3
172
0
173
0
174
0
175
0
176
0
177
0
178
0
179
2
271
2
272
2
273
2
274
3
275
0
276
0
277
2
278
46
279
1
280
0
281
0
282
0
283
0
284
8
285
0
286
0
288
1
289
3
290
0
340
4C
342
84
371
-2
372
-2
  0
DIMSTYLE
105
88
330
4
100
AcDbSymbolTableRecord
100
AcDbDimStyleTableRecord
  2
EZ_RADIUS_INSIDE
 70
0
 40
1.0
 41
0.25
 42
0.125
 43
3.75
 44
0.375
 45
0.0
 46
0.0
 47
0.0
 48
0.0
 49
2.5
140
0.25
141
0.0
142
0.0
143
0.03937007874
144
100.0
145
0.0
146
0.5
147
0.1
148
0.0
 69
0
 70
0
 71
0
 72
0
 73
0
 74
0
 75
0
 76
0
 77
0
 78
12
 79
3
170
0
171
3
172
0
173
0
174
1
175
0
176
0
177
0
178
0
179
2
271
2
272
2
273
2
274
3
275
0
276
0
277
2
278
46
279
0
280
0
281
0
282
0
283
0
284
8
285
0
286
0
288
1
289
0
290
0
340
4C
342
84
371
-2
372
-2
  0
DIMSTYLE
105
89
330
4
100
AcDbSymbolTableRecord
100
AcDbDimStyleTableRecord
  2
EZ_CURVED
 70
0
 40
1.0
 41
0.25
 42
0.125
 43
3.75
 44
0.375
 45
0.0
 46
0.0
 47
0.0
 48
0.0
 49
2.5
140
0.25
141
2.5
142
0.0
143
0.03937007874
144
100.0
145
0.0
146
0.5
147
0.1
148
0.0
 69
0
 70
0
 71
0
 72
0
 73
0
 74
0
 75
0
 76
0
 77
1
 78
12
 79
2
 90
2
170
0
171
3
172
1
173
0
174
0
175
0
176
0
177
0
178
0
179
2
271
2
272
2
273
2
274
3
275
0
276
0
277
2
278
46
279
2
280
0
281
0
282
0
283
0
284
8
285
0
286
0
288
1
289
3
290
0
340
4C
371
-2
372
-2
  0
ENDTAB
  0
TABLE
  2
BLOCK_RECORD
  5
9
330
0
100
AcDbSymbolTable
 70
5
  0
BLOCK_RECORD
  5
17
330
9
100
AcDbSymbolTableRecord
100
AcDbBlockTableRecord
  2
*Model_Space
340
1A
 70
0
280
1
281
0
  0
BLOCK_RECORD
  5
1B
330
9
100
AcDbSymbolTableRecord
100
AcDbBlockTableRecord
  2
*Paper_Space
340
1E
 70
0
280
1
281
0
  0
BLOCK_RECORD
  5
74
330
9
100
AcDbSymbolTableRecord
100
AcDbBlockTableRecord
  2
_ARCHTICK
340
0
 70
0
280
1
281
0
  0
BLOCK_RECORD
  5
78
330
9
100
AcDbSymbolTableRecord
100
AcDbBlockTableRecord
  2
_CLOSEDFILLED
340
0
 70
0
280
1
281
0
  0
BLOCK_RECORD
  5
84
330
9
100
AcDbSymbolTableRecord
100
AcDbBlockTableRecord
  2
_CLOSEDBLANK
340
0
 70
0
280
1
281
0
  0
ENDTAB
  0
ENDSEC
  0
SECTION
  2
BLOCKS
  0
BLOCK
  5
18
330
17
100
AcDbEntity
  8
0
100
AcDbBlockBegin
  2
*Model_Space
 70
0
 10
0.0
 20
0.0
 30
0.0
  3
*Model_Space
  1

  0
ENDBLK
  5
19
330
17
100
AcDbEntity
  8
0
100
AcDbBlockEnd
  0
BLOCK
  5
1C
330
1B
100
AcDbEntity
  8
0
100
AcDbBlockBegin
  2
*Paper_Space
 70
0
 10
0.0
 20
0.0
 30
0.0
  3
*Paper_Space
  1

  0
ENDBLK
  5
1D
330
1B
100
AcDbEntity
  8
0
100
AcDbBlockEnd
  0
BLOCK
  5
75
330
74
100
AcDbEntity
  8
0
100
AcDbBlockBegin
  2
_ARCHTICK
 70
0
 10
0.0
 20
0.0
 30
0.0
  3
_ARCHTICK
  1

  0
LWPOLYLINE
  5
77
330
74
100
AcDbEntity
  8
0
  6
BYBLOCK
 62
0
100
AcDbPolyline
 90
2
 70
0
 43
0.15
 10
-0.5
 20
-0.5
 10
0.5
 20
0.5
  0
ENDBLK
  5
76
330
74
100
AcDbEntity
  8
0
100
AcDbBlockEnd
  0
BLOCK
  5
79
330
78
100
AcDbEntity
  8
0
100
AcDbBlockBegin
  2
_CLOSEDFILLED
 70
0
 10
0.0
 20
0.0
 30
0.0
  3
_CLOSEDFILLED
  1

  0
SOLID
  5
7B
330
78
100
AcDbEntity
  8
0
  6
BYBLOCK
 62
0
100
AcDbTrace
 10
-1.0
 20
0.16439898372402537
 30
0.0
 11
0.0
 21
0.0
 31
0.0
 12
-1.0
 22
-0.16439898372402537
 32
0.0
 13
-1.0
 23
-0.16439898372402537
 33
0.0
  0
ENDBLK
  5
7A
330
78
100
AcDbEntity
  8
0
100
AcDbBlockEnd
  0
BLOCK
  5
85
330
84
100
AcDbEntity
  8
0
100
AcDbBlockBegin
  2
_CLOSEDBLANK
 70
0
 10
0.0
 20
0.0
 30
0.0
  3
_CLOSEDBLANK
  1

  0
LWPOLYLINE
  5
87
330
84
100
AcDbEntity
  8
0
  6
BYBLOCK
 62
0
100
AcDbPolyline
 90
3
 70
1
 10
-1.0
 20
0.16439898372402537
 10
0.0
 20
0.0
 10
-1.0
 20
-0.16439898372402537
  0
ENDBLK
  5
86
330
84
100
AcDbEntity
  8
0
100
AcDbBlockEnd
  0
ENDSEC
  0
SECTION
  2
ENTITIES
  0
LWPOLYLINE
  5
8D
330
17
100
AcDbEntity
  8
HOJA
100
AcDbPolyline
 90
4
 70
1
 10
0.0
 20
0.0
 10
600.0
 20
0.0
 10
600.0
 20
900.0
 10
0.0
 20
900.0
  0
LWPOLYLINE
  5
8E
330
17
100
AcDbEntity
  8
CORTE
100
AcDbPolyline
 90
706
 70
1
 10
16.26747485441365
 20
348.48093353257855
 10
14.43819336272918
 20
350.5483515874098
 10
14.43521910803156
 20
350.5525155439864
 10
14.43326011369254
 20
350.55545403549513
 10
13.021532107859002
 20
352.98660150077103
 10
13.017866980304007
 20
352.99515346506587
 10
13.015153670176915
 20
353.0046500505114
 10
13.013341828755074
 20
353.017332940462
 10
13.014328386891066
 20
353.0331178706342
 10
13.01847602611906
 20
353.04763460793265
 10
13.023681827494784
 20
353.0580462106841
 10
16.260103800754223
 20
357.91248925677655
 10
16.264222510345007
 20
357.9186673211848
 10
16.27017935975482
 20
357.9246241705946
 10
20.91671509495154
 20
362.33025864505544
 10
23.234312273841624
 20
365.63300027314517
 10
23.238659054033178
 20
365.63789040086067
 10
29.18517752029993
 20
371.57477349491455
 10
29.822408997735238
 20
380.3221042224295
 10
29.823210958526488
 20
380.32851990876
 10
29.824747988231138
 20
380.334668027579
 10
29.972255826849505
 20
380.8232737799408
 10
29.973693151514
 20
380.8283044162663
 10
29.978542437318538
 20
380.8388112021762
 10
30.195446178380735
 20
381.1653893903417
 10
32.9306184727493
 20
390.08446202619507
 10
32.932085224217644
 20
390.0893511977556
 10
37.1596772318012
 20
399.22433387316187
 10
37.1596772318012
 20
399.2247893343192
 10
37.22149469811848
 20
399.3544088732183
 10
37.28906066882246
 20
399.50913624278155
 10
37.1600972865881
 20
400.6838732206279
 10
36.417734357806694
 20
407.58679718253416
 10
36.243018988000586
 20
408.57311662422535
 10
36.242498906740366
 20
408.57779735556596
 10
35.86989117661233
 20
416.0576342908603
 10
30.253155916362175
 20
416.5514471436222
 10
30.242859807011428
 20
416.55350636549247
 10
30.228520354743523
 20
416.5590215394418
 10
30.215575579995402
 20
416.5679833065751
 10
30.208148542349136
 20
416.5754103442214
 10
30.202591240156835
 20
416.5822026024566
 10
30.196525294886214
 20
416.59205976352087
 10
29.87869014894295
 20
417.3930937810146
 10
29.877014636364493
 20
417.39644480617153
 10
29.873692280421892
 20
417.4080730519713
 10
29.872213984719565
 20
417.41842112188624
 10
29.872213984719565
 20
417.4245853565053
 10
29.881675141086816
 20
417.8498686088151
 10
29.88228227964146
 20
417.85472571725404
 10
30.19041649867222
 20
419.8571467977722
 10
30.19216001250288
 20
419.86324909617997
 10
30.19311441253012
 20
419.8661122962617
 10
30.19663353019996
 20
419.87549661004823
 10
30.203228231665435
 20
419.88538866224644
 10
30.207856356082175
 20
419.89117381776714
 10
30.21604489931042
 20
419.8993623609954
 10
30.229906345871314
 20
419.9086033253693
 10
30.240887932535315
 20
419.9125253206066
 10
30.248148449392374
 20
419.914599753994
 10
30.26098702839772
 20
419.9164338367091
 10
30.272850143449432
 20
419.91564296237266
 10
31.59311382164833
 20
419.68317232833033
 10
37.17579387721571
 20
420.33124429175996
 10
39.061801329437
 20
427.1183666430138
 10
39.29066012799876
 20
429.94598135718206
 10
39.291682647426114
 20
429.95109395432064
 10
40.72642572939185
 20
436.3772478130222
 10
41.21852723531538
 20
441.7596470172589
 10
40.997713205851596
 20
445.6131265259569
 10
39.90274127039493
 20
449.23725720100947
 10
37.25132360375301
 20
454.8595720529406
 10
37.249530394108206
 20
454.86539998428543
 10
37.247182204321234
 20
454.8736186485403
 10
37.24602631348853
 20
454.88980112019453
 10
37.247676880734616
 20
454.9005298072939
 10
37.28404727952693
 20
455.0653444571026
 10
39.06373779832529
 20
464.14151056652236
 10
38.45114455796238
 20
465.8257838057848
 10
38.447326736687046
 20
465.833419448335
 10
38.4448701086867
 20
465.8530724723387
 10
38.902638968616884
 20
473.3866894892062
 10
38.088938411895924
 20
474.5659952278352
 10
37.1840506403214
 20
475.3127157207123
 10
37.177126032921024
 20
475.31964032811265
 10
34.50312141082486
 20
479.0638065000926
 10
30.478231179047725
 20
482.6126613465658
 10
30.470942909227688
 20
482.61922078940415
 10
30.462472677662845
 20
482.6319261367512
 10
30.458281889884802
 20
482.641006176937
 10
30.453925696360784
 20
482.6540747575086
 10
30.45291244591499
 20
482.6692735141942
 10
30.48616738369128
 20
483.0700955158354
 10
30.486700204658973
 20
483.0754237255105
 10
32.52100217311636
 20
491.9471451451218
 10
32.52385444492029
 20
491.9578411643852
 10
32.529378403801275
 20
491.9675080924271
 10
37.17261542130018
 20
499.4389635804605
 10
38.518800335275046
 20
501.22744289027605
 10
40.17794057051378
 20
505.2193667430247
 10
41.74254563893601
 20
510.47911265083894
 10
41.74664780530884
 20
510.48673095981667
 10
41.74844042750237
 20
510.48986804865535
 10
44.14019055489098
 20
514.0600006555642
 10
44.14081238095332
 20
514.0612443076884
 10
48.26549047947901
 20
519.7524290575316
 10
51.11013071812613
 20
524.4586480567168
 10
51.111812211288
 20
524.4620110430401
 10
51.11708635748164
 20
524.4690432379653
 10
54.912107409048986
 20
528.9970779543187
 10
54.6912558281233
 20
533.7394558346223
 10
54.6912558281233
 20
533.7458705873569
 10
54.692077878481086
 20
533.7524469902173
 10
55.49395569178523
 20
538.2467466624257
 10
55.49513756957958
 20
538.2520651124996
 10
55.49804657180448
 20
538.2607921191748
 10
55.50505720610954
 20
538.2748133877849
 10
55.51573797820993
 20
538.2865622370955
 10
55.52312778928081
 20
538.2926084461533
 10
58.0994189457615
 20
539.9758571215925
 10
62.89739637005505
 20
544.6664043573733
 10
65.06795318318473
 20
546.6546299404231
 10
65.0723807644963
 20
546.6583195915159
 10
65.08037649036714
 20
546.6636500754298
 10
66.98389486672068
 20
547.5571376591024
 10
72.03548980829737
 20
551.3755587303317
 10
76.42091718269194
 20
556.7999687523666
 10
78.99442818911257
 20
560.0850339841077
 10
81.8163097420761
 20
566.0483924791615
 10
81.82250605607351
 20
566.0592360286569
 10
85.97601427621885
 20
570.3119002339204
 10
85.9830354825558
 20
570.3189214402573
 10
91.74701089272321
 20
573.7251828056419
 10
92.96382071854032
 20
574.4624555430933
 10
92.96851380020144
 20
574.4648020839236
 10
92.97965707398862
 20
574.4695777726897
 10
92.99012815325204
 20
574.4710736411557
 10
92.99449302376661
 20
574.47161924997
 10
99.42871314199783
 20
574.6304335351215
 10
99.43141360873051
 20
574.6304335351215
 10
99.96101460577529
 20
574.605351644937
 10
102.31099308290686
 20
575.345499771528
 10
106.89671346315981
 20
576.9790849363717
 10
113.10808595885601
 20
584.5655224753455
 10
113.83808586840996
 20
590.7070530797541
 10
113.83866781138249
 20
590.7099627946168
 10
114.46138527759877
 20
593.8121118416138
 10
114.46339131696095
 20
593.8201359990644
 10
114.46630330408243
 20
593.8266879700868
 10
115.4714780624322
 20
595.9856191428962
 10
116.73659807285594
 20
603.0759782141954
 10
116.73961118120951
 20
603.0840131698055
 10
116.74300509338718
 20
603.0919322982195
 10
116.74749554092159
 20
603.0986679695216
 10
116.75021508475083
 20
603.1024753308825
 10
120.8213768925034
 20
607.8131521653363
 10
123.38938952391345
 20
612.3473704253533
 10
123.39131685496477
 20
612.3531524185069
 10
123.40226788876362
 20
612.3668412107554
 10
123.407312413211
 20
612.3718857352028
 10
127.79703509300498
 20
616.1143186858553
 10
131.45002004762046
 20
621.6172716705851
 10
134.76213194874572
 20
627.121408775633
 10
134.7666860002655
 20
627.1274808443263
 10
138.20758008073017
 20
630.866238804867
 10
138.06902590867185
 20
635.2467521132503
 10
138.06902590867185
 20
635.2536734206437
 10
138.07035508534636
 20
635.2623130690281
 10
139.22186833996147
 20
640.1198332239605
 10
139.22382377253916
 20
640.1252106635479
 10
141.72592121554362
 20
646.2960868749942
 10
141.72790153594178
 20
646.3007076225899
 10
141.73147599511594
 20
646.3069629261445
 10
143.8274191230339
 20
649.391401104032
 10
145.13383909037066
 20
653.9079333629456
 10
145.804942075697
 20
658.624722449882
 10
145.804942075697
 20
658.6286466181609
 10
145.8089753103436
 20
658.6447795567469
 10
148.69489225347797
 20
664.7497402597928
 10
149.50671519948446
 20
667.9017189461488
 10
149.50798076782257
 20
667.9055156511631
 10
149.51086666420406
 20
667.9132113748474
 10
149.5171894864493
 20
667.9237494119225
 10
149.52301489764022
 20
667.9308693589337
 10
149.5268057570679
 20
667.9346602183614
 10
155.68458039298594
 20
673.5820820481972
 10
155.69053666668606
 20
673.5880383218973
 10
155.7029812482183
 20
673.5951495113445
 10
155.7112928551578
 20
673.5987116286042
 10
155.71790240661767
 20
673.6006000718785
 10
160.84368781026114
 20
674.7563473514665
 10
160.8519487514718
 20
674.7573799691177
 10
160.8612874137275
 20
674.7573799691177
 10
160.86657345187132
 20
674.7567192143497
 10
160.87596974369762
 20
674.7553768869461
 10
162.73285231690807
 20
674.0214848743863
 10
162.73912335956175
 20
674.0193945268352
 10
162.75570581852617
 20
674.0091899367035
 10
162.7643953957231
 20
673.9995348509287
 10
162.76695651126602
 20
673.9963334565
 10
164.99835877343503
 20
670.893840944444
 10
167.68392860544782
 20
667.932218978161
 10
167.68788447315046
 20
667.9282631104584
 10
167.69459401281392
 20
667.9181988009632
 10
167.69865937700934
 20
667.9100680725728
 10
168.35465071133876
 20
666.0897682223758
 10
169.7188472759467
 20
665.2220104141143
 10
169.72052330199813
 20
665.2208930634133
 10
169.73095121461347
 20
665.2134445544025
 10
169.7419721840165
 20
665.1987499285319
 10
169.7466228565081
 20
665.1894485835483
 10
171.40065793554686
 20
660.8835223020478
 10
175.87021499848925
 20
658.6866097843331
 10
175.87461947270367
 20
658.6844075472259
 10
175.88318778456005
 20
658.6786953393216
 10
175.89392522383696
 20
658.6689340308881
 10
176.26010902340568
 20
658.1304633349268
 10
176.63646844869209
 20
658.1546176660995
 10
178.65152812896895
 20
658.6912939986069
 10
178.65543607325026
 20
658.6925966467006
 10
183.582000874997
 20
659.4414052544098
 10
186.60616953780982
 20
662.7115861822508
 10
186.61245683253992
 20
662.7178734769809
 10
186.61930637277328
 20
662.7224398371363
 10
190.52855954976576
 20
665.2089929694912
 10
191.542522003062
 20
667.9084540098929
 10
191.5440636246317
 20
667.9120511268889
 10
191.54792996118658
 20
667.9197837999982
 10
197.4997090638294
 20
675.9976816391872
 10
198.31033177563904
 20
677.1614722002091
 10
198.23004937428686
 20
678.1214048875131
 10
198.22909890147093
 20
678.129008670041
 10
199.22581881109954
 20
686.4164727482716
 10
199.22779304169308
 20
686.4233825553483
 10
200.52150171207632
 20
690.4483390069572
 10
201.03168858501158
 20
695.6737267224721
 10
201.032890935041
 20
695.679137297604
 10
201.03458776893558
 20
695.6859246331824
 10
201.03749346881477
 20
695.6927045995667
 10
204.46554741746195
 20
702.9491610430441
 10
204.4735279966626
 20
702.9617969601118
 10
204.48721084698764
 20
702.9741115254042
 10
204.4950149975416
 20
702.9785710400065
 10
204.50411013465236
 20
702.9834684215275
 10
204.5169680269023
 20
702.9866828945901
 10
204.5260746443073
 20
702.9879838399338
 10
204.5360740613305
 20
702.9879838399338
 10
204.54136009947433
 20
702.9873230851658
 10
204.55183117873776
 20
702.9858272166998
 10
204.56335046937738
 20
702.9808903778539
 10
208.47613282786278
 20
700.970903591699
 10
211.48347207702318
 20
701.7637962171007
 10
211.49289527832934
 20
701.766152017427
 10
211.50652480408326
 20
701.766152017427
 10
211.51703025320467
 20
701.7649160822361
 10
215.23582300105318
 20
700.6892303962363
 10
218.46677194879294
 20
701.0155746453984
 10
222.62629052500688
 20
701.2579407194053
 10
222.63004469247335
 20
701.2579407194053
 10
225.43526245067278
 20
701.1403710276536
 10
230.5041888205492
 20
702.4787085853345
 10
230.51378539402913
 20
702.4800795244032
 10
230.52378481105188
 20
702.4800795244032
 10
230.5357872004779
 20
702.4785792257248
 10
230.54875660987273
 20
702.47425608926
 10
232.43688590795637
 20
701.4722687020626
 10
236.3920110667941
 20
701.0090649138851
 10
236.39803992527504
 20
701.0083113065753
 10
236.4051686811531
 20
701.0062745191813
 10
236.41177128056052
 20
701.0040736527121
 10
236.41840060870027
 20
701.0007589886422
 10
236.42245084778324
 20
700.998444566309
 10
236.43393788331286
 20
700.9907865426226
 10
236.4433669447435
 20
700.9792621342076
 10
236.44683427446444
 20
700.9740611396264
 10
236.4518004280526
 20
700.9653703708473
 10
236.45628745001113
 20
700.9519093049703
 10
236.45752274341294
 20
700.943262251159
 10
236.92790179188478
 20
695.6910454153885
 10
238.21721490631762
 20
694.0744113016635
 10
238.22094690755785
 20
694.0688132998034
 10
238.2247977260863
 20
694.0616617796786
 10
239.44944021350148
 20
690.9194355338482
 10
241.31672578601
 20
688.9489193399008
 10
241.31894990468027
 20
688.9466952212306
 10
241.32519716224124
 20
688.9388861492794
 10
241.3306440151955
 20
688.9293541566094
 10
242.33782013237078
 20
686.4259645505113
 10
242.34030208267723
 20
686.4172777244371
 10
242.34111962361203
 20
686.4115549378948
 10
242.34244700618092
 20
686.4009358773419
 10
242.34047943303585
 20
686.387162865326
 10
242.337544290182
 20
686.375422293911
 10
242.33238553581577
 20
686.3651047851777
 10
242.32722039599867
 20
686.3567114329758
 10
239.4444245268919
 20
683.1090815632961
 10
239.43897819304357
 20
683.1009120625231
 10
239.42261232028704
 20
683.0900014806857
 10
239.41815197156166
 20
683.0877713063232
 10
235.5582764062624
 20
681.198511166107
 10
232.46279713729427
 20
678.3641849861692
 10
230.88317010983383
 20
677.1171157923372
 10
231.43514910232489
 20
675.7888563265142
 10
232.46531419472694
 20
674.3276149252433
 10
235.8662261401787
 20
672.4912601422438
 10
239.3968317210206
 20
671.0220578963717
 10
241.84492592927472
 20
671.2277645680124
 10
241.8534014953143
 20
671.2277645680124
 10
241.86374956522923
 20
671.2262862723101
 10
241.87024245593648
 20
671.2244311606796
 10
241.8747479980466
 20
671.2229293133096
 10
241.87964113174348
 20
671.2208322560109
 10
241.88871912412105
 20
671.2162932598221
 10
241.89816717752046
 20
671.2087348171026
 10
241.90307074320208
 20
671.203831251421
 10
244.72033776407307
 20
667.9346000491996
 10
245.76523010341361
 20
667.0923543355675
 10
245.76836586302215
 20
667.0898457278804
 10
245.7742403440402
 20
667.0839712468623
 10
245.78048760160118
 20
667.0761621749111
 10
245.78442115707867
 20
667.0692784528255
 10
245.78773582114854
 20
667.0626491246858
 10
245.7903321923577
 20
667.0548600110583
 10
245.79195068877334
 20
667.0483860253967
 10
246.4289251412024
 20
662.6531409943782
 10
247.2848053445441
 20
659.7920014378342
 10
247.93434713516444
 20
658.6747427997348
 10
251.72728272436007
 20
656.5376387117835
 10
253.32996743778358
 20
656.3768509946876
 10
258.5456123127219
 20
656.3768509946876
 10
260.2840540183197
 20
656.6934312505368
 10
260.2907309876932
 20
656.6945440787658
 10
260.30314536724654
 20
656.6945440787658
 10
260.3134580018286
 20
656.6928253063356
 10
260.32211291872864
 20
656.6903524729355
 10
260.3328112716449
 20
656.6857674645426
 10
260.34124879005094
 20
656.6801424522723
 10
260.3444199616056
 20
656.6776055150285
 10
263.6717446817206
 20
653.8963415314533
 10
267.2546897845118
 20
654.6435141547872
 10
267.2623315616256
 20
654.6446058372321
 10
267.2733971389498
 20
654.6446058372321
 10
267.28534847183346
 20
654.6427671706347
 10
267.29584830186195
 20
654.6392672272918
 10
270.17779211462357
 20
653.2569924705881
 10
274.23785493965715
 20
651.8803970857493
 10
276.7178480933085
 20
652.7583665500979
 10
276.7237274021545
 20
652.7607182736365
 10
281.1972518390421
 20
653.5385122407702
 10
281.2010784508029
 20
653.5390588995929
 10
284.4665288290339
 20
653.7650635820623
 10
284.4737904673584
 20
653.7650635820623
 10
284.4841634268705
 20
653.7637669621236
 10
284.49129218274857
 20
653.7617301747296
 10
284.4957977248587
 20
653.7602283273595
 10
284.5084091078961
 20
653.754823448915
 10
284.5195090905986
 20
653.745741644886
 10
284.52354878518236
 20
653.7417019503018
 10
284.5284057839426
 20
653.7363052850128
 10
287.4353452866103
 20
649.4137235879566
 10
287.94380413722047
 20
649.0847371925338
 10
288.1897918265354
 20
649.0605187582814
 10
294.1092391715338
 20
648.0353707567747
 10
294.1129003712231
 20
648.0349131068137
 10
295.17557596730603
 20
647.7412360729286
 10
295.1836200504654
 20
647.7377167865461
 10
299.2169560397451
 20
645.5161384369599
 10
299.22146225956067
 20
645.5134347050707
 10
299.2247708352711
 20
645.5109532732877
 10
302.15383383257085
 20
643.2814278001892
 10
304.1154428455875
 20
642.8224273401424
 10
309.066002773091
 20
643.7761271761387
 10
313.7028767110087
 20
646.3395733362313
 10
316.0256077625968
 20
647.8043478379636
 10
316.03116045013894
 20
647.8071241817347
 10
319.8863265160662
 20
649.4243121818822
 10
322.98908350455804
 20
651.8742808756178
 10
322.9937418816394
 20
651.8773864603386
 10
323.00121757816487
 20
651.8816582869244
 10
323.0081608481887
 20
651.8842620131836
 10
323.0122105624878
 20
651.88561191795
 10
323.0239621728606
 20
651.8885498205432
 10
323.0352759812117
 20
651.8885498205432
 10
324.79215820139916
 20
651.790984786132
 10
329.9749889259124
 20
654.18460564714
 10
329.9804113582836
 20
654.1866390592791
 10
329.98824040902764
 20
654.18887593092
 10
329.99858847894257
 20
654.1903542266223
 10
330.0092486507342
 20
654.1903542266223
 10
330.0243450133735
 20
654.1881976033883
 10
330.03625594549067
 20
654.1830929181951
 10
332.5991747899575
 20
652.8295571850567
 10
336.98818481830403
 20
650.776017506088
 10
338.0513414676525
 20
650.8687967567175
 10
338.0592771310494
 20
650.8687967567175
 10
338.0712795204754
 20
650.8672964580392
 10
338.08128438854646
 20
650.8639615020156
 10
338.0879705991638
 20
650.8610959831794
 10
340.6216203435124
 20
649.4252808918013
 10
343.04350843258726
 20
648.2079378093649
 10
343.9479289110518
 20
648.14604158362
 10
343.954124850271
 20
648.14604158362
 10
349.0525520250849
 20
646.9386692024573
 10
349.05587995339147
 20
646.9381937841281
 10
349.0652811735549
 20
646.9350600440735
 10
350.94755604138527
 20
646.1267442109865
 10
350.9513647924855
 20
646.1248398354364
 10
350.9582485145711
 20
646.120906279959
 10
350.9660575865223
 20
646.114659022398
 10
350.9742461297501
 20
646.1064704791702
 10
350.97961254471284
 20
646.0984208567261
 10
350.9830757402174
 20
646.0924839501472
 10
350.9888051952189
 20
646.0791152218103
 10
350.9909618184529
 20
646.064018859171
 10
350.9909618184529
 20
13.375024310055323
 10
350.99096050194476
 20
13.000005265751952
 10
350.84096181838686
 20
13.000005529037935
 10
350.84096181838686
 20
321.96778564421675
 10
347.63571838058897
 20
320.774788725048
 10
343.98340487999076
 20
319.3278854893042
 10
339.7202674069754
 20
315.9242163337717
 10
337.0337177405486
 20
312.6329102732716
 10
337.0319220989859
 20
312.63051608452133
 10
331.31633506840717
 20
306.66780383271
 10
331.3132272937155
 20
306.66391911434494
 10
331.3054417153239
 20
306.6576906516316
 10
330.0505375329917
 20
305.74061980416946
 10
328.09939238458264
 20
304.0661694112946
 10
328.0951645727346
 20
304.06299855240877
 10
323.0720082237408
 20
300.85491829309376
 10
323.06840856974577
 20
300.8528613479539
 10
316.1335631664897
 20
297.4357023592729
 10
316.1015525924968
 20
297.4137766426775
 10
316.0908814058175
 20
297.4080306190808
 10
316.0802619175988
 20
297.40499647958995
 10
315.9742321159815
 20
297.38346981126915
 10
309.10839258623446
 20
295.62330589553403
 10
307.55756862027965
 20
295.32030380701235
 10
302.1468830108338
 20
293.5299793054801
 10
302.14421966803684
 20
293.5289139683614
 10
298.5669091380755
 20
292.6411519603971
 10
298.55789596469504
 20
292.63964976483385
 10
298.5438717174752
 20
292.63964976483385
 10
295.14382901910267
 20
293.3561892312532
 10
292.0450998277156
 20
293.25460821476736
 10
292.03854076534117
 20
293.25460821476736
 10
292.021215747945
 20
293.25708321725233
 10
292.00556245780535
 20
293.2649098623224
 10
291.99215948427263
 20
293.2741888439991
 10
291.98354417011524
 20
293.28495798669564
 10
289.1739828422433
 20
297.3953730513804
 10
288.39874411755227
 20
297.7039226355623
 10
288.1787187297318
 20
297.74835738163347
 10
286.1238112747483
 20
297.38835979641135
 10
281.2708212069256
 20
289.90139151865924
 10
281.2647381381739
 20
289.89302729912606
 10
279.26873889967646
 20
288.1395135855373
 10
279.26534362999064
 20
288.13660335437817
 10
274.2786242556949
 20
284.7127639683322
 10
269.66600488323957
 20
282.0093038440473
 10
269.661664212083
 20
282.00737465686643
 10
267.30860247557166
 20
281.0025560692502
 10
264.95527794408554
 20
278.88106819230643
 10
264.95462293713535
 20
278.88041318535625
 10
260.3533420729359
 20
274.9338014700884
 10
256.74716114993817
 20
269.63137630223446
 10
253.38613661927502
 20
265.1661552776418
 10
249.77539431134483
 20
260.369176760923
 10
249.7668805981807
 20
260.357825143371
 10
249.7537820801922
 20
260.34976451691637
 10
246.39278298795443
 20
258.418040758846
 10
246.38625368173234
 20
258.4143097267188
 10
246.37647576966629
 20
258.4110504226969
 10
246.3685071150785
 20
258.4090582590502
 10
244.79241861994205
 20
258.2461606235024
 10
239.41395500934732
 20
256.87894318554254
 10
234.68873212434664
 20
254.05885336660867
 10
234.6870866295494
 20
254.0577563700772
 10
232.45384667913459
 20
252.8796849910782
 10
230.0207789009787
 20
251.1193000917292
 10
230.38796974463276
 20
248.36730766574829
 10
230.38796974463276
 20
241.88966941401168
 10
230.0960539165212
 20
238.71523706207108
 10
230.97917143154336
 20
232.6380996260441
 10
230.97917143154336
 20
232.6234457482633
 10
230.97623352895016
 20
232.61169413789048
 10
230.974336176841
 20
232.60600208156302
 10
230.97223911954234
 20
232.60110894786612
 10
230.96862179705204
 20
232.59387430288507
 10
230.9615935861052
 20
232.58403480755987
 10
230.95479880890707
 20
232.57724003036174
 10
230.94988987458464
 20
232.5731492517598
 10
225.48589611540183
 20
228.7126137072637
 10
225.48116538018166
 20
228.7094598837839
 10
225.47222162971048
 20
228.7049880085483
 10
225.462705688371
 20
228.7018160281018
 10
222.03919111542837
 20
228.02006963906888
 10
222.03541194647914
 20
228.0195972429501
 10
218.48300570051333
 20
227.68096915694423
 10
214.2296626385214
 20
226.9081048783064
 10
214.2200710668676
 20
226.9073055806689
 10
211.49925803690303
 20
227.11585574554238
 10
211.49162407940184
 20
227.11585574554238
 10
211.47695345900047
 20
227.12004735137134
 10
211.47163577358197
 20
227.1223263594079
 10
211.46606141254279
 20
227.12489914142589
 10
208.70813750102207
 20
228.88641640529522
 10
204.52063781469633
 20
229.62270819371588
 10
202.49258824650587
 20
229.85476960745427
 10
197.55535117425597
 20
229.85476960745427
 10
197.54624455685098
 20
229.85607055279797
 10
197.53660380796555
 20
229.85848074001933
 10
196.0021412237079
 20
230.5189446409213
 10
190.5831399450849
 20
231.5123783137219
 10
190.57604240728824
 20
231.5123783137219
 10
189.95435297971244
 20
231.75129756201113
 10
189.94526079430443
 20
231.75432829048032
 10
189.9345412196426
 20
231.76198512952442
 10
188.9128563008244
 20
232.57273734668206
 10
185.44016241007648
 20
235.05026705560158
 10
183.59584687358029
 20
236.4443846258614
 10
179.41009220710794
 20
236.2236430498292
 10
179.4027858798031
 20
236.2236430498292
 10
179.392437809885
 20
236.225121345532
 10
179.38151422787905
 20
236.22824236896213
 10
176.6185633570144
 20
237.54337722319997
 10
176.61282246857263
 20
237.54567357857695
 10
174.50529207964337
 20
239.0129379866621
 10
169.6747966274297
 20
239.81031307811736
 10
168.07157412379092
 20
239.6800875857184
 10
168.06386377539366
 20
239.6800875857184
 10
168.05273410648124
 20
239.68147879433263
 10
168.04311811641765
 20
239.684437560506
 10
162.8743492568433
 20
241.82200006155063
 10
162.71807374593755
 20
241.86465600817473
 10
162.71104977770392
 20
241.86699733091928
 10
162.69880278374194
 20
241.87312082790004
 10
162.68943546925902
 20
241.88078499429503
 10
162.68385317450702
 20
241.88636728904748
 10
162.68358674150522
 20
241.88670033029985
 10
162.55909397880396
 20
241.8304071300936
 10
162.55847428961533
 20
241.82978744090497
 10
155.77805118654533
 20
238.94630845526672
 10
148.9798945972948
 20
232.57593089245756
 10
148.8100363743788
 20
232.44020788824128
 10
148.80586167834463
 20
232.43742475755198
 10
148.7999665980583
 20
232.4338877093801
 10
148.78976442203566
 20
232.4295153482276
 10
148.77497704828784
 20
232.42581850479064
 10
148.75720252475594
 20
232.42581850479064
 10
148.7482153606161
 20
232.42789246574603
 10
148.73956685164467
 20
232.4300545929891
 10
148.7289585804515
 20
232.43535872858547
 10
148.6767489042786
 20
232.4681137748844
 10
141.79416719620485
 20
232.4681137748844
 10
141.72805133268685
 20
232.4698429856585
 10
141.7273763287899
 20
232.4698429856585
 10
139.73885726472872
 20
232.55767867015675
 10
139.73653884998612
 20
232.55767867015675
 10
135.19790990259116
 20
233.040010796165
 10
134.86570601027188
 20
232.9190017722849
 10
134.5263230618698
 20
232.5796437166332
 10
134.52338776637544
 20
232.57670842106745
 10
134.51620492398843
 20
232.57096214715784
 10
134.51113090012632
 20
232.56791773284067
 10
127.8908463090338
 20
228.80240582838724
 10
127.88369792644062
 20
228.79832103833405
 10
127.87383859533838
 20
228.7952873979948
 10
127.863832508222
 20
228.79278587621593
 10
124.9621610645745
 20
228.72205877738816
 10
120.87758456956726
 20
229.31250994491938
 10
120.87169983068316
 20
229.31250994491938
 10
120.85712373407432
 20
229.316994897722
 10
119.00601560724726
 20
230.10912793135913
 10
113.90908587572812
 20
232.26708724596574
 10
113.64254967512625
 20
232.1783327334938
 10
113.6280870290343
 20
232.17636055448156
 10
113.6125473009879
 20
232.17739653635135
 10
113.60331725564038
 20
232.18003369216467
 10
113.59881171353027
 20
232.1815355395347
 10
113.59391857983337
 20
232.18363259683338
 10
113.584161586763
 20
232.18851109336856
 10
113.57223659979854
 20
232.19844858250553
 10
113.56739161585983
 20
232.20426256323208
 10
113.56488992861841
 20
232.20738967228408
 10
113.55926491634818
 20
232.21582719068965
 10
113.55587100417051
 20
232.2237463191036
 10
113.55433751417831
 20
232.22783562574932
 10
113.4486096907367
 20
232.5841306768575
 10
109.01202755854138
 20
235.35776971207088
 10
106.9255609504994
 20
236.0596399397814
 10
102.91796857326108
 20
236.48392395371866
 10
102.91276172133985
 20
236.48450249282087
 10
102.9043782970407
 20
236.48659834889577
 10
99.97008114473601
 20
237.5272746691221
 10
95.69487435758128
 20
236.11383520437448
 10
95.68313363525567
 20
236.11131933530487
 10
95.6698580227735
 20
236.11131933530487
 10
95.65950995285539
 20
236.11279763100765
 10
95.65107071257171
 20
236.11520884251695
 10
92.98347386061369
 20
237.16727975760887
 10
89.66934207633813
 20
237.39657757292116
 10
89.6627006030385
 20
237.39657757292116
 10
89.65094899266569
 20
237.39951547551436
 10
89.64315987904092
 20
237.40211184672262
 10
89.63312915766073
 20
237.4071272074125
 10
89.62667744176952
 20
237.41173557590673
 10
89.62183775686162
 20
237.41560732383277
 10
89.61596327584357
 20
237.42148180485083
 10
89.61133515142683
 20
237.42726696037153
 10
89.60640765399103
 20
237.4346582065259
 10
87.53582001976338
 20
241.8535786581865
 10
86.73853313229347
 20
242.87189935778315
 10
86.73435617315317
 20
242.87816479649382
 10
86.72988429791621
 20
242.88710854696774
 10
86.72728792670796
 20
242.8948976605925
 10
86.72610189674333
 20
242.89964178045102
 10
85.95585676127484
 20
246.87469738037407
 10
85.30267610796545
 20
250.24561047561974
 10
84.52162749191075
 20
251.09729151250713
 10
80.9376465810883
 20
253.65073544589723
 10
80.92823148075922
 20
253.6584387098028
 10
80.92059737913405
 20
253.6689355995377
 10
80.91776474629933
 20
253.67365665426178
 10
78.99219189375754
 20
257.35386939595537
 10
78.06707489982318
 20
259.1517012899658
 10
78.06449682609991
 20
259.1568574374119
 10
78.06128130395837
 20
259.16650400383696
 10
77.82182660746184
 20
260.39235721474006
 10
75.75216508849098
 20
265.3454756641918
 10
73.99587642921551
 20
269.6394324375242
 10
73.06598429576297
 20
271.0120630095216
 10
72.03231747375594
 20
272.410047421969
 10
69.13874889288809
 20
275.0253574931544
 10
69.12805471027878
 20
275.0341072789256
 10
67.1511524332036
 20
278.89424299065195
 10
66.06780309435544
 20
280.22421333585135
 10
65.06324806358816
 20
281.31379907171686
 10
62.13949179657402
 20
284.2575489990022
 10
62.13823778444339
 20
284.25880301113284
 10
58.62778805339394
 20
288.1444716778051
 10
58.62538219981798
 20
288.14687753138105
 10
58.35582327733027
 20
288.505763979374
 10
58.09862914504038
 20
288.8167030458194
 10
53.46594565350915
 20
291.2243901509505
 10
53.459842390758695
 20
291.228458992784
 10
53.45079363467357
 20
291.2356979976521
 10
53.44451135078043
 20
291.24355085251864
 10
53.44154725010867
 20
291.2476264909428
 10
53.43809818669524
 20
291.2533749299646
 10
51.11057027971992
 20
296.0699051227939
 10
50.65035979348613
 20
296.77418203987554
 10
49.63930521918064
 20
297.3906159185399
 10
45.61731848213867
 20
299.31775182225465
 10
45.610280306968434
 20
299.3226244050652
 10
45.599160653534454
 20
299.3315201278124
 10
45.59145465479196
 20
299.3430791259261
 10
45.58557773731627
 20
299.3531538415991
 10
45.58285486302839
 20
299.3626839016065
 10
44.13326077717102
 20
304.702571674361
 10
43.69522729799155
 20
306.1061984371522
 10
43.42655278912025
 20
306.69143433991667
 10
43.42209726472083
 20
306.7070286753137
 10
43.42209726472083
 20
306.72803691701984
 10
43.42543067205315
 20
306.73970384268296
 10
43.427461781204784
 20
306.74579717013785
 10
44.136388955559596
 20
308.21564885474754
 10
47.12646210856565
 20
315.97729174946426
 10
46.09728540196147
 20
318.5313499051008
 10
44.191322685657724
 20
320.2610840798875
 10
38.662920487457995
 20
317.7611430656566
 10
38.65721857792596
 20
317.7573417926351
 10
38.641254065261364
 20
317.75335066446905
 10
38.6321607459663
 20
317.7519516922698
 10
38.62021806476332
 20
317.7519516922698
 10
38.609905430178515
 20
317.75367046470046
 10
38.599118852927404
 20
317.7567523439152
 10
38.585777539837636
 20
317.7634230004601
 10
38.5789875329051
 20
317.7688550060061
 10
38.57489543867405
 20
317.77226508453214
 10
37.18858713739837
 20
319.2480031572777
 10
34.00107688471326
 20
320.93091859616425
 10
33.995281602636624
 20
320.93500938351235
 10
33.98262314230897
 20
320.9451361517745
 10
33.97437276879509
 20
320.959279649227
 10
33.97278504900396
 20
320.9624550888093
 10
32.014434990412155
 20
325.1942199610867
 10
30.971324917520633
 20
326.18931854855555
 10
30.21307219664459
 20
326.8335885749152
 10
30.209526112827007
 20
326.8371346587328
 10
30.20456754691122
 20
326.8426441764168
 10
30.199765073309663
 20
326.84984788681913
 10
27.78195621164423
 20
331.2520766217053
 10
27.777767842821504
 20
331.2594062671451
 10
27.77493126242689
 20
331.2693342985267
 10
27.77360456422457
 20
331.27464109133643
 10
27.772317984243273
 20
331.28429044119594
 10
27.81801042493953
 20
334.4946550811187
 10
27.133676092922997
 20
339.6465290742426
 10
23.253939536389225
 20
341.8368380738557
 10
23.250055791288105
 20
341.8394272372566
 10
22.35090967042288
 20
342.50660989461085
 10
20.71142422596131
 20
343.70167537980115
 10
20.705620526891835
 20
343.7069514698642
 10
18.290134223504083
 20
346.395496424208
 10
16.26747485441365
 20
348.48093353257855
  0
LWPOLYLINE
  5
8F
330
17
100
AcDbEntity
  8
CORTE
100
AcDbPolyline
 90
11
 70
1
 10
243.86734675602156
 20
627.4539972464777
 10
246.23767834200953
 20
621.61786144199
 10
246.29617198886945
 20
621.5538905222056
 10
246.33292182584773
 20
621.5655962115948
 10
246.5711600670711
 20
621.6400654565878
 10
247.45752978006385
 20
623.1651160649831
 10
251.9369564248591
 20
630.8386961322999
 10
249.55162720058388
 20
635.0825417563224
 10
246.39244697931053
 20
635.7613387673682
 10
243.45886940107448
 20
630.8216600197948
 10
243.86734675602156
 20
627.4539972464777
  0
LWPOLYLINE
  5
90
330
17
100
AcDbEntity
  8
CORTE
100
AcDbPolyline
 90
259
 70
1
 10
40.46644177626831
 20
347.93249263982307
 10
39.32649011526428
 20
343.6705652438709
 10
39.57328003343264
 20
342.672427075649
 10
43.39151887130447
 20
339.72703363777146
 10
44.10034887969323
 20
336.80246636576885
 10
44.21692983965977
 20
336.48148188281857
 10
44.92408856647944
 20
333.4781858534161
 10
46.885386959295374
 20
332.9876806337943
 10
48.37649114708711
 20
332.0926706701566
 10
50.504680637633555
 20
330.8700974624826
 10
55.069563945812206
 20
326.72729099804883
 10
57.75159274379757
 20
320.0714295884559
 10
58.17017924956281
 20
318.53128013756213
 10
59.01284553944606
 20
316.131873247763
 10
57.71577452195652
 20
311.87040010167766
 10
56.07777605859064
 20
307.7679569699003
 10
58.8917465301879
 20
305.7915351965635
 10
62.02586885389519
 20
300.8463150659768
 10
62.055701900615986
 20
300.78555434868167
 10
62.58715424439151
 20
300.5093492167234
 10
66.27245641209402
 20
296.05394269018325
 10
68.86553246347194
 20
292.60233256434003
 10
69.4184399404403
 20
291.9904114475571
 10
70.12153130314073
 20
291.28251210205553
 10
73.48475596715934
 20
287.634606802505
 10
77.43951361964082
 20
282.77956123996955
 10
77.49589135898123
 20
282.6730524057839
 10
80.97293014062689
 20
277.9705255231088
 10
84.3652871628019
 20
272.9630060568693
 10
84.91906427477852
 20
271.6090743051973
 10
85.19557288606939
 20
270.949133562784
 10
87.68712718825373
 20
267.19697089841384
 10
89.40118079681224
 20
263.4645788590119
 10
89.72160800774282
 20
262.8568080499217
 10
90.7629175488396
 20
262.1149163946211
 10
93.76314858348587
 20
258.5492496376619
 10
97.15520949605116
 20
254.05411037919475
 10
97.63033957714106
 20
251.64110856747948
 10
98.4850933274588
 20
250.54938932477353
 10
98.99174343693358
 20
249.8816526272003
 10
102.51247509184077
 20
248.56180368956893
 10
103.347817021428
 20
248.21569043377167
 10
103.46438732140632
 20
248.13950871958605
 10
107.10084249312195
 20
246.85043219171166
 10
108.42791669544704
 20
246.70993477671664
 10
114.28543106001098
 20
244.73951506090043
 10
116.66238492920138
 20
243.25700828633853
 10
118.6919013682973
 20
242.74867900241497
 10
120.24856591442403
 20
242.1264040874962
 10
122.39811607632646
 20
243.4523934209974
 10
126.28998660440675
 20
242.2282587543259
 10
126.99832413270269
 20
242.83634555222443
 10
131.0127503845215
 20
246.85047735758008
 10
135.24037917265196
 20
248.39043894384486
 10
139.25003151852843
 20
249.8872610464291
 10
141.48863030540997
 20
250.82126469685454
 10
146.08652555566277
 20
251.7081508176925
 10
150.12383513220493
 20
254.41757919596148
 10
153.4481164658714
 20
256.2695653563751
 10
160.33041433249718
 20
257.3403159522568
 10
164.8862989877498
 20
259.4003981727037
 10
170.1843856303126
 20
252.4162380580692
 10
171.44155550919186
 20
252.07316261331744
 10
173.22313335329682
 20
251.62642199383208
 10
178.07713052809459
 20
250.9390310451504
 10
179.99884986359348
 20
250.39903784016087
 10
185.78124737767575
 20
248.63028913150265
 10
187.3407110455555
 20
248.0820897303115
 10
188.28460022360605
 20
247.21988150946936
 10
192.24648996122778
 20
244.22530983472643
 10
193.48948399789015
 20
243.34082154192265
 10
194.76149257637962
 20
243.04980446927175
 10
195.63784063485537
 20
242.87998660447965
 10
200.8536639577478
 20
247.3145870440103
 10
207.1962004254542
 20
247.3145870440103
 10
211.5204934371377
 20
243.40796593802907
 10
212.0243658424174
 20
243.25289039500012
 10
214.3857897942139
 20
243.62471852318095
 10
215.46198647401798
 20
243.49557006509076
 10
215.63847208946845
 20
243.719673335253
 10
215.18504640344736
 20
246.06093399576685
 10
215.18504640344736
 20
254.36237317521955
 10
221.5780415161521
 20
259.78026315887155
 10
225.2796310682952
 20
261.6719008309192
 10
228.7507365218721
 20
264.1833317410574
 10
232.8720391566785
 20
266.3575524989874
 10
235.47906774496278
 20
268.13413449800373
 10
239.02151511313195
 20
270.5592857276638
 10
241.8519504517485
 20
271.91413382276505
 10
242.98052482824096
 20
273.41372875535626
 10
247.3984731361047
 20
281.67690494135377
 10
247.73632470933399
 20
282.1700514843251
 10
248.1178171810593
 20
283.17563267616833
 10
251.47041983398321
 20
290.56788439679167
 10
255.39171376008971
 20
304.7010516580631
 10
265.02012785764555
 20
302.5032966734343
 10
269.60284824616656
 20
304.1021371464258
 10
276.760498994558
 20
305.8680803283155
 10
277.0058934859808
 20
305.57597043835585
 10
283.5850877559783
 20
307.2843488562985
 10
284.6881663641893
 20
306.0342505577282
 10
288.2707613909156
 20
306.6618825006276
 10
291.5720593649921
 20
305.99517608716906
 10
298.4267309965967
 20
303.266976354269
 10
300.6015897370162
 20
302.81107908893364
 10
304.35276770550945
 20
304.05229440088533
 10
307.5177084626944
 20
305.0313287327922
 10
308.55131171575795
 20
305.1954343839848
 10
313.317519510666
 20
306.1675237899399
 10
315.97177740928146
 20
307.98556386845576
 10
319.6304227905762
 20
309.7886600098914
 10
324.0092430267923
 20
312.5852296929561
 10
325.6179785599761
 20
313.5745751825507
 10
330.0491450724189
 20
318.2119748523487
 10
331.7870247413416
 20
320.02546510875936
 10
332.52443035300075
 20
320.9288645839415
 10
340.43306321039563
 20
327.2430803204811
 10
343.97101432782347
 20
328.64467766935877
 10
343.94791957204643
 20
638.5546103357374
 10
342.8967074797306
 20
638.8031190678944
 10
339.4434930618045
 20
639.0394482358497
 10
334.67121357593896
 20
641.4362748183476
 10
332.8075600394277
 20
641.8237111210774
 10
330.9521413021962
 20
643.5503722286553
 10
329.9030532238544
 20
644.0412218693932
 10
328.088179612525
 20
643.2028379270014
 10
324.86865812043015
 20
641.3403127355364
 10
323.5862512914159
 20
641.3496955959308
 10
319.2687937056821
 20
639.5382702791603
 10
314.34948701367466
 20
636.4360277686769
 10
311.4807730008574
 20
634.8500899107553
 10
300.3915305224223
 20
632.7138045434667
 10
293.8999868307692
 20
637.6538735062259
 10
292.51855256369345
 20
638.4139914933526
 10
290.83315232053064
 20
638.8794698974166
 10
287.2483454529329
 20
639.5002977183126
 10
283.73200940011975
 20
639.8464945289793
 10
279.7459935958218
 20
642.4255527359142
 10
275.07738974630183
 20
641.4001023223209
 10
270.97501303952913
 20
641.2951165302802
 10
268.68930578615345
 20
643.224738048651
 10
266.5770364160453
 20
643.9409191502091
 10
258.99832661235314
 20
642.3604862038324
 10
258.57054306753025
 20
642.6747710290674
 10
258.1216291321052
 20
642.5930152055407
 10
256.971218663683
 20
642.2920630653466
 10
258.9919827169265
 20
638.6968315990712
 10
261.96079910554545
 20
635.3786146104267
 10
261.61454817695994
 20
629.3609404352032
 10
259.5911676867572
 20
624.1003808718242
 10
254.7497907894999
 20
615.7705105317041
 10
248.43940023162486
 20
613.7979891680329
 10
243.0715182075828
 20
612.0881922052358
 10
237.82985232610736
 20
617.820681212851
 10
235.47522661532275
 20
623.6181466384119
 10
234.4166068453801
 20
632.345862745939
 10
241.52795771376668
 20
644.3202482238348
 10
236.98664525542927
 20
649.9372064614281
 10
234.44440052565687
 20
654.506596971883
 10
231.58110837670165
 20
655.8117412799475
 10
228.32236495561756
 20
657.8866526463621
 10
223.6316002312924
 20
661.7924131558188
 10
223.42901500343805
 20
665.5346175613872
 10
221.823480139381
 20
667.8119942962885
 10
217.03850899818553
 20
679.3263513613947
 10
227.90262453624473
 20
687.9032518386698
 10
227.91640943551374
 20
687.9160758108301
 10
227.8636797939521
 20
687.9820513347049
 10
224.8475088426876
 20
689.4950578030525
 10
224.7700929642433
 20
689.5353479837081
 10
219.30745365969915
 20
689.7641541057856
 10
219.02234467672588
 20
689.7475414272744
 10
212.28479011611853
 20
689.0670100354641
 10
210.16912287425657
 20
688.1245352369924
 10
209.13656407687495
 20
684.9102026118408
 10
208.8843154518181
 20
682.8082115689285
 10
209.51804185984747
 20
675.23077636979
 10
203.1920950084359
 20
666.1487741905412
 10
202.00967952277915
 20
664.5412010048199
 10
200.72581122449037
 20
661.121534151599
 10
199.12193704392666
 20
655.9959237732405
 10
194.6347056273503
 20
647.1830540163987
 10
188.61094966698556
 20
647.7269875632651
 10
185.9412442188168
 20
646.7409537657209
 10
180.20465775632374
 20
644.7759424648971
 10
177.7722938501065
 20
644.1281243613976
 10
167.21193358951496
 20
643.4503721333376
 10
166.28652980178913
 20
644.751706059365
 10
164.83999439954687
 20
644.628402246472
 10
162.11566021904946
 20
640.0035158140304
 10
161.0491014078657
 20
636.5398001013123
 10
154.2731114191406
 20
629.2716662586395
 10
152.6720598235761
 20
626.7349137662673
 10
146.99088463635917
 20
620.0143139968477
 10
144.62361487133785
 20
617.4389006599072
 10
140.7720384905815
 20
610.8286745906357
 10
139.76384051936793
 20
609.1772580487213
 10
139.63309278962197
 20
608.8581192506499
 10
144.0770554190458
 20
600.0748294279597
 10
132.5296654669628
 20
594.0626434514102
 10
129.45381090789215
 20
589.714546279863
 10
127.0736181080797
 20
586.548377605423
 10
125.3040692149034
 20
581.3936240395706
 10
119.41275877445287
 20
572.812695779362
 10
117.23174322616251
 20
570.2642743106185
 10
109.84198348928157
 20
564.401818045576
 10
104.82533358256114
 20
563.5697122035458
 10
100.87507214813013
 20
562.325539702098
 10
95.56159909078451
 20
562.5770288066315
 10
95.01962049293843
 20
562.5617320687475
 10
93.42652683107508
 20
561.589672083041
 10
92.76168792340286
 20
558.7165669350425
 10
91.53978635732255
 20
553.8468026737119
 10
84.58654382940722
 20
543.8025387093808
 10
83.25055145262832
 20
542.1826333171061
 10
75.32048873263284
 20
537.3645509583175
 10
70.44012176314163
 20
535.1655324051453
 10
69.85960186123248
 20
534.8925998450841
 10
70.04038081992803
 20
527.1101515043338
 10
63.8109436527825
 20
516.8369563546162
 10
62.22784688098136
 20
514.9111468447045
 10
56.33824499546745
 20
509.6121325851227
 10
54.38342699397663
 20
506.93951439455213
 10
50.201248143996054
 20
497.6455500786433
 10
43.973795367870025
 20
489.3552414374835
 10
43.66680830348787
 20
485.4997976339755
 10
46.29618337748116
 20
483.3300166811464
 10
49.5230476898837
 20
478.6545139876903
 10
50.304362026856325
 20
477.89370261883505
 10
51.33087263118841
 20
475.624756292872
 10
52.92405148211219
 20
468.61269544815104
 10
54.13148937547976
 20
464.6529959016748
 10
53.04110334419465
 20
457.6073806455215
 10
53.16513146820671
 20
457.14914305400316
 10
55.02699645068651
 20
452.7566953652795
 10
55.791239586041684
 20
445.59866122100675
 10
55.211941313895295
 20
440.55136804276117
 10
53.621167810116276
 20
435.1780659194601
 10
53.473587907456476
 20
432.4487891785943
 10
55.537214070520804
 20
430.1247315122923
 10
56.152960023974174
 20
425.57087832483467
 10
57.182381809365324
 20
418.51947876607073
 10
57.30170276729132
 20
416.14150260369706
 10
54.99084937043517
 20
405.77035804063235
 10
50.283796229619384
 20
398.9098207269467
 10
49.20808377195135
 20
396.4464185550178
 10
46.965077400567225
 20
391.74288464226356
 10
45.08840557204303
 20
387.4272376806189
 10
43.76693578592267
 20
384.0250246905439
 10
42.374315765147
 20
379.6454458471758
 10
42.33684045731752
 20
377.9196318221184
 10
41.538492975630106
 20
370.98689876368644
 10
41.477154292165324
 20
369.6052842786339
 10
43.60868337902866
 20
366.04416968253327
 10
44.0596780398414
 20
364.57354166253253
 10
44.62805827572538
 20
362.70689242190065
 10
43.76369621471531
 20
357.84391411213346
 10
39.19007089025172
 20
351.7558828387346
 10
40.46644177626831
 20
347.93249263982307
  0
LWPOLYLINE
  5
91
330
17
100
AcDbEntity
  8
GRABADO
100
AcDbPolyline
 90
633
 70
1
 10
31.391563173623126
 20
353.01997442479023
 10
31.39309355200203
 20
353.0314522626318
 10
31.394261952494162
 20
353.0384626655855
 10
31.396561881605976
 20
353.0453624529209
 10
31.39843158126996
 20
353.05034831869216
 10
31.403245845147467
 20
353.0599768464467
 10
37.163972434700554
 20
360.7131683238372
 10
37.44182683536701
 20
362.2764020480654
 10
37.36525914963704
 20
362.5278622562173
 10
37.165644674249506
 20
363.1787760390407
 10
34.390764807465075
 20
367.81472741166453
 10
34.38850885693
 20
367.81923931273514
 10
34.38641179963133
 20
367.82413244643203
 10
34.38328672958551
 20
367.83350765656996
 10
34.381576544928976
 20
367.8454789491643
 10
34.381576544928976
 20
367.85258334329137
 10
34.55629641615633
 20
371.5432206786181
 10
34.55629641615633
 20
371.54575208703545
 10
35.34555716308387
 20
378.39704585807795
 10
35.39785832613461
 20
380.805620622305
 10
35.39854588041817
 20
380.8152463822712
 10
35.40099510717073
 20
380.82381867590493
 10
37.16249269383161
 20
386.3551281891582
 10
37.16306015231203
 20
386.3573980230808
 10
38.61365257139869
 20
390.0912370567171
 10
40.5943173918663
 20
394.6460292076749
 10
40.594731510218026
 20
394.6472715627292
 10
42.83963459050938
 20
399.3544088732183
 10
44.1351491290452
 20
402.3211620285301
 10
44.1374219386671
 20
402.32798045739537
 10
48.452845212015745
 20
408.6142108215249
 10
50.262962973373305
 20
416.7380463728191
 10
50.207822949357706
 20
417.8369452165839
 10
49.221040762107805
 20
424.59626931338744
 10
48.88623362963153
 20
427.072392004668
 10
46.32840818755767
 20
429.95301734956456
 10
46.32512659090753
 20
429.9570281899146
 10
46.316597926980194
 20
429.9698211858058
 10
46.31197419668888
 20
429.9860042418254
 10
46.311156655754075
 20
429.9917270283677
 10
46.3104959009861
 20
429.9970130665115
 10
46.3104959009861
 20
430.003829934406
 10
46.675766588113675
 20
436.37690831504415
 10
46.677869390828164
 20
436.385319525903
 10
48.327035339637405
 20
441.9545508063379
 10
48.748481498573256
 20
445.62651467240084
 10
48.17680339047365
 20
450.98095127510123
 10
46.53335266190106
 20
454.8581235846832
 10
46.53144509327012
 20
454.8628925062594
 10
45.89645897427681
 20
457.2112078693549
 10
45.89404588025718
 20
457.22086024543387
 10
45.89404588025718
 20
457.23589561208473
 10
46.96908305470288
 20
464.1420528805129
 10
46.154316005989585
 20
466.8140186445462
 10
44.66158923472858
 20
473.3839595765103
 10
44.47238237983538
 20
473.80217269232753
 10
44.15002766625639
 20
474.11606829015454
 10
44.14534925937551
 20
474.12168237841115
 10
41.08885632581587
 20
478.551493353536
 10
37.1840506403214
 20
481.77376965967596
 10
37.177126032921024
 20
481.78069426707634
 10
36.87091731332566
 20
482.20945056764504
 10
36.41469181487173
 20
482.6117169595318
 10
36.412881756825755
 20
482.61322534123656
 10
36.405224822894525
 20
482.6208822751678
 10
36.39786224850559
 20
482.6319261367512
 10
36.393671460727546
 20
482.641006176937
 10
36.38931526720353
 20
482.6540747575086
 10
36.388302016757734
 20
482.6692735141942
 10
37.15709212445063
 20
491.9355061525698
 10
37.158141998435894
 20
491.9407555224957
 10
37.159755549637794
 20
491.9477923228269
 10
37.161130061136646
 20
491.95260311307356
 10
37.1643064274117
 20
491.9610734231396
 10
37.16798338128592
 20
491.9675080924203
 10
37.17261542130336
 20
491.9749615307592
 10
44.13707049858476
 20
501.2276159622229
 10
48.30073129892935
 20
510.4804280226467
 10
48.30383359782036
 20
510.4876667200583
 10
51.11674368108743
 20
514.3304672138602
 10
51.12043121895658
 20
514.3348922593036
 10
51.124239163616494
 20
514.3387002039635
 10
57.15461969562284
 20
519.7628872178852
 10
58.0852465743983
 20
520.8949785247773
 10
62.994790801042654
 20
528.9914894266763
 10
62.847907057641805
 20
535.3147648419222
 10
62.76600991642272
 20
538.2336424906543
 10
62.76683061327094
 20
538.2451322465272
 10
62.77017216115928
 20
538.2568276641364
 10
62.773285453432436
 20
538.2642995655924
 10
62.77931685061867
 20
538.2755007317955
 10
62.78775805544001
 20
538.2848798482637
 10
65.07091282073725
 20
540.3762449242513
 10
65.08037649036714
 20
540.3825540373377
 10
67.51294511980768
 20
541.5243711554899
 10
72.05303180181
 20
543.5700646267278
 10
78.60373321817224
 20
547.550085976658
 10
78.99876755083733
 20
548.0290694325072
 10
85.05996955345745
 20
556.7847417121711
 10
85.95644675419544
 20
560.3575603044715
 10
87.26979510363935
 20
566.0332027200357
 10
87.27302281224456
 20
566.0436927730025
 10
87.28113528627728
 20
566.0578896025595
 10
87.29281978012068
 20
566.0708723734965
 10
87.30201019741662
 20
566.0769993183608
 10
92.96203938236249
 20
569.5064466508043
 10
92.97075297779475
 20
569.511425848194
 10
92.98867365787191
 20
569.5165460425019
 10
95.6284214073321
 20
569.5817022920719
 10
95.63112187406523
 20
569.5817022920719
 10
99.96101460577529
 20
569.3766386788711
 10
103.19310683864933
 20
570.3946169431033
 10
103.19820759690538
 20
570.3960080589914
 10
106.91012214198781
 20
571.0111539162494
 10
112.35241559964516
 20
575.3286430516282
 10
113.85255314432425
 20
577.0814882928853
 10
118.99314327295679
 20
584.5689625237555
 10
120.81259329511249
 20
589.8690797037698
 10
120.81618762201151
 20
589.8780655210176
 10
120.82171049556109
 20
589.8863498313422
 10
123.7976488670538
 20
593.8398460400463
 10
127.79375166900536
 20
599.4888268213836
 10
127.79773062365939
 20
599.4938005147014
 10
127.80360510467744
 20
599.4996749957195
 10
127.81045757604488
 20
599.5051569728134
 10
127.8167119815921
 20
599.5090058377655
 10
134.70734147351504
 20
603.0884097438247
 10
131.94299928800638
 20
608.5520062249589
 10
131.94074175349988
 20
608.5587788284788
 10
131.93815396114587
 20
608.5678361017181
 10
131.93721726305466
 20
608.5809498749963
 10
131.93815396114587
 20
608.5940636482746
 10
131.94074175349988
 20
608.6031209215139
 10
131.9421166398979
 20
608.607245580708
 10
133.49815914210512
 20
612.347956239616
 10
133.50074493098282
 20
612.3531278173709
 10
134.76001360253622
 20
614.4148591584312
 10
138.9570285232753
 20
621.6179403645583
 10
138.96097741101812
 20
621.6234688073978
 10
138.96398811299514
 20
621.6269812930377
 10
141.73888223359018
 20
624.6443901814841
 10
147.0121300500432
 20
630.8824284203133
 10
148.70455868213276
 20
633.5639613343742
 10
148.7089528858255
 20
633.5694540889904
 10
154.83236861658088
 20
640.1368374513895
 10
155.66737886761666
 20
642.8485848922869
 10
159.52227743904405
 20
649.3927409760236
 10
162.63811380532252
 20
656.8596063417522
 10
162.640967680657
 20
656.8662653841989
 10
162.64682175635608
 20
656.8750464977479
 10
162.6536775830932
 20
656.8834258415377
 10
162.65975334483392
 20
656.8884889763217
 10
162.66966911715735
 20
656.8964215941805
 10
162.68297373124915
 20
656.9014108244651
 10
162.6913920664265
 20
656.9040010814424
 10
162.7025217353389
 20
656.9053922900566
 10
162.71186039759414
 20
656.9053922900566
 10
162.72223335710623
 20
656.9040956701178
 10
162.7293621129843
 20
656.9020588827238
 10
162.7338676550944
 20
656.9005570353538
 10
162.740986243341
 20
656.8975062118197
 10
162.75336284787318
 20
656.8902865258424
 10
162.76316131558724
 20
656.8804880581283
 10
162.7677894400058
 20
656.8747029026053
 10
162.77562242588237
 20
656.8629534237903
 10
164.39995858739803
 20
651.6162781901444
 10
169.67472379257606
 20
652.0659033157422
 10
169.68412172629587
 20
652.0659033157422
 10
169.69443436087795
 20
652.064184543312
 10
169.70522093813224
 20
652.0611026640963
 10
169.7192412519139
 20
652.0540925072055
 10
169.7317476369508
 20
652.0436705196748
 10
169.73829692779782
 20
652.0354839061156
 10
170.65612905952503
 20
650.6858182263982
 10
176.63646844869436
 20
651.0696297863778
 10
178.16722187464802
 20
651.4773195152015
 10
183.59408619838769
 20
653.3362385420319
 10
187.66736708682765
 20
654.8406714095786
 10
187.67005342950642
 20
654.8415668571383
 10
187.675704651665
 20
654.8431814920409
 10
187.68601728624708
 20
654.8449002644711
 10
187.69569250351742
 20
654.8449002644711
 10
190.5462111113602
 20
654.5807173457947
 10
192.61705323992328
 20
658.6478269445083
 10
194.10367322223192
 20
663.3987200646388
 10
194.10367322223192
 20
663.4008808105241
 10
195.7967926676465
 20
667.9084540098929
 10
195.7983342892162
 20
667.9120511268889
 10
195.80060807439258
 20
667.9165986972416
 10
195.80391613120037
 20
667.9221121252544
 10
197.4997090638294
 20
670.2236831059568
 10
202.33213303932916
 20
677.1614722002091
 10
201.84928722299355
 20
682.934835655009
 10
201.84928722299355
 20
682.9424603135117
 10
202.26648881191204
 20
686.4113818712558
 10
202.26733107665268
 20
686.4172777244385
 10
202.2690753140555
 20
686.4233825553483
 10
204.4617575972843
 20
693.2452048900459
 10
204.46641087920852
 20
693.2545114538939
 10
204.47080635666634
 20
693.2611046700804
 10
204.47804536153444
 20
693.270153426166
 10
204.48709411762002
 20
693.2773924310341
 10
204.4936873338038
 20
693.2817879084901
 10
204.49947340676954
 20
693.2846809449729
 10
210.04198306368517
 20
695.731050380211
 10
210.04748556077175
 20
695.7332513790457
 10
211.48347207702318
 20
696.1118528684619
 10
211.49289527832934
 20
696.1142086687883
 10
211.50652480408326
 20
696.1142086687883
 10
211.51703025320558
 20
696.1129727335974
 10
211.7422477088944
 20
696.0478270775338
 10
218.46677194879294
 20
696.7270423327241
 10
219.25018968950098
 20
696.7726903755547
 10
219.25394385696745
 20
696.7726903755547
 10
225.43526245067278
 20
696.5136246686038
 10
226.15779330807163
 20
696.7043929127017
 10
226.16738988155157
 20
696.7057638517704
 10
226.17805005334185
 20
696.7057638517704
 10
226.18839812325677
 20
696.704285556068
 10
226.19489101396402
 20
696.7024304444376
 10
226.19939655607413
 20
696.7009285970676
 10
226.2051262393229
 20
696.6984730185322
 10
228.03282091552546
 20
695.7285569142368
 10
231.2373892896594
 20
694.1210443571999
 10
231.23867495830928
 20
694.120401522875
 10
232.4531288195808
 20
693.4517639272913
 10
232.4591074882278
 20
693.4477781481933
 10
232.46631893985477
 20
693.4417686051711
 10
232.47141365396828
 20
693.4361078117113
 10
235.1776129082241
 20
690.0428792902653
 10
235.1819333803346
 20
690.0376947237328
 10
235.18769263423565
 20
690.0269989664876
 10
236.5913030211682
 20
686.4255712501831
 10
236.5936725999527
 20
686.4172777244371
 10
236.5944901408875
 20
686.4115549378948
 10
236.5958175234564
 20
686.4009358773419
 10
236.59384995031132
 20
686.387162865326
 10
236.59091480745747
 20
686.375422293911
 10
236.58575605309125
 20
686.3651047851777
 10
236.57853099094427
 20
686.3533640591891
 10
232.46279713729427
 20
682.5848580549659
 10
225.53696375133904
 20
677.1171157923372
 10
227.99056386214033
 20
671.2128737526054
 10
230.30997453718237
 20
667.9228972916303
 10
230.31310686429424
 20
667.9181988009627
 10
230.31618070133163
 20
667.912051126888
 10
230.3182777586303
 20
667.907157993191
 10
230.32140282867613
 20
667.8977827830531
 10
230.3228470056033
 20
667.8876735445633
 10
230.45636867666508
 20
665.218668560226
 10
232.45848704770287
 20
663.5516067209687
 10
234.92881036927065
 20
661.978699229855
 10
239.41889430235142
 20
659.9320315539321
 10
239.4271037387707
 20
659.9274137459461
 10
240.01864630234377
 20
659.4505950634448
 10
240.0238911949632
 20
659.4453501708253
 10
240.02654924143462
 20
659.4421605150596
 10
240.0304597068698
 20
659.4372724332657
 10
240.03628279224722
 20
659.4272900011902
 10
240.0414713797927
 20
659.4137996735722
 10
240.15305916000761
 20
658.6438227386357
 10
242.80992002814128
 20
653.8684229919959
 10
246.3951325522121
 20
649.434024521212
 10
246.39893439287061
 20
649.4336431054071
 10
246.40558077656306
 20
649.4328123074456
 10
246.41180733510419
 20
649.4310332907194
 10
252.0165704403762
 20
647.717303960445
 10
253.28676756649384
 20
648.5637603171481
 10
253.29423719079477
 20
648.5680286738911
 10
253.30270750086083
 20
648.5712050401662
 10
253.3064538303156
 20
648.5722754200106
 10
256.60655075418117
 20
649.432229339935
 10
256.6093012772649
 20
649.4327794445517
 10
260.2840540183197
 20
650.1019731018373
 10
260.2907309876932
 20
650.1030859300663
 10
260.30314536724654
 20
650.1030859300663
 10
260.3134580018286
 20
650.1013671576361
 10
260.32211291872864
 20
650.098894324236
 10
260.3362261491352
 20
650.0928457969189
 10
260.3447361473727
 20
650.0858830710881
 10
260.62626667305904
 20
649.8505556602604
 10
267.2546897845118
 20
651.2328197314828
 10
267.2623315616256
 20
651.2339114139277
 10
267.2733971389498
 20
651.2339114139277
 10
267.28534847183346
 20
651.2320727473302
 10
267.29584830186195
 20
651.2285728039874
 10
268.29143952462755
 20
650.7510546063281
 10
272.1921525747557
 20
649.4284879826596
 10
272.19776276796665
 20
649.4256828860543
 10
272.2047489684114
 20
649.421921085815
 10
272.21088978170155
 20
649.4170084351827
 10
273.45672700688874
 20
648.3609190574521
 10
274.2292984248379
 20
648.3806902847232
 10
279.01889833162113
 20
649.4327172640228
 10
281.1972518390421
 20
649.8114589564534
 10
281.2010784508029
 20
649.8120056152761
 10
281.50677862432076
 20
649.8331633921962
 10
281.5147010174128
 20
649.8331633921962
 10
281.5250490873277
 20
649.8316850964939
 10
281.5366773331307
 20
649.8283627405503
 10
281.5503915714021
 20
649.8215056214149
 10
281.5571252325767
 20
649.8159962622717
 10
281.56320403194877
 20
649.8109305961284
 10
281.5698747723959
 20
649.8025921705689
 10
281.8313891921034
 20
649.4137235879566
 10
286.1084180474181
 20
646.6463721994596
 10
288.1897918265354
 20
646.4414529444985
 10
292.3658351844706
 20
645.7182329793427
 10
292.369484989772
 20
645.7177115785853
 10
295.17363049968344
 20
644.9427684642719
 10
295.1804484835211
 20
644.9402117203326
 10
295.1853049294864
 20
644.9377834973502
 10
297.72759578273417
 20
643.5374790513683
 10
297.73233137479883
 20
643.5346376961297
 10
302.14030364325754
 20
640.1794055053911
 10
309.066002773091
 20
641.5136057213281
 10
310.7861838108897
 20
642.4645894088394
 10
316.0256077625968
 20
645.7687061738784
 10
316.03116045013894
 20
645.7714825176495
 10
322.20187807970206
 20
648.3600118655868
 10
322.20610922810465
 20
648.3614222483875
 10
322.2126021188119
 20
648.363277360018
 10
322.2229501887268
 20
648.3647556557203
 10
322.2287907200821
 20
648.3647556557203
 10
323.0135384977689
 20
648.3540732693332
 10
324.86097688229165
 20
649.4228347419003
 10
324.86385077481646
 20
649.42475067025
 10
329.9749889259124
 20
651.7852612777247
 10
329.9804113582836
 20
651.7872946898638
 10
329.98824040902764
 20
651.7895315615046
 10
329.99858847894257
 20
651.791009857207
 10
330.0092486507342
 20
651.791009857207
 10
330.0243450133735
 20
651.788853233973
 10
330.03625594549067
 20
651.7837485487798
 10
331.3068281092769
 20
651.1127304910178
 10
334.915352611602
 20
649.4243660990028
 10
334.92501863343705
 20
649.4176742377326
 10
336.1456882344514
 20
648.2794101779409
 10
336.9936154285165
 20
648.1031339706865
 10
337.00295631056997
 20
648.1001842184592
 10
341.3265807059429
 20
645.9269482739487
 10
343.9479289110518
 20
645.7475499032544
 10
343.954124850271
 20
645.7475499032544
 10
347.5211782897791
 20
644.9028262939287
 10
347.52448949464224
 20
644.9022744264516
 10
347.53305763403114
 20
644.8994183799887
 10
350.94755604138527
 20
643.4331112152458
 10
350.9513647924855
 20
643.4312068396957
 10
350.9582485145711
 20
643.4272732842182
 10
350.9660575865223
 20
643.4210260266573
 10
350.97140045824653
 20
643.415683154933
 10
350.97405850471796
 20
643.4124934991673
 10
350.97796897015314
 20
643.4076054173734
 10
350.98395192188354
 20
643.3973489286923
 10
350.9887439472941
 20
643.384570194265
 10
350.99008471457137
 20
643.376525590601
 10
350.9909618184529
 20
643.3703858634303
 10
350.9909618184529
 20
60.96834829704267
 10
350.99096050194476
 20
60.59332925273884
 10
350.84096181838686
 20
60.59332951602482
 10
350.84096181838686
 20
323.8062556054356
 10
349.5581690062795
 20
323.3287979949687
 10
343.98340487999076
 20
321.1202952879821
 10
337.4752520924512
 20
315.9242163337717
 10
337.0337177405486
 20
315.3832902878112
 10
337.0319220989859
 20
315.3808960990609
 10
335.10664210374216
 20
313.3723726430462
 10
330.0546826411428
 20
308.085287385044
 10
330.0471404736063
 20
308.0792536510148
 10
327.72686394625316
 20
306.6537177585401
 10
323.0720082237408
 20
303.68085573398093
 10
323.06840856974577
 20
303.67879878884105
 10
319.5148438939009
 20
301.9277726638429
 10
316.10446581215
 20
299.5918263193862
 10
316.10192483788114
 20
299.59013233654014
 10
316.09180216946106
 20
299.5843479545856
 10
316.0802619175988
 20
299.5810507397682
 10
309.80017256076644
 20
298.30603750248883
 10
309.10892404969627
 20
298.1962876669413
 10
306.48677361959017
 20
297.3851586470155
 10
302.1468830108338
 20
295.94914608748695
 10
302.14421966803684
 20
295.94808075036826
 10
300.8062348622043
 20
295.6160402221831
 10
300.80248431211294
 20
295.61541513050133
 10
300.7963445849423
 20
295.6145380266198
 10
300.78319744160353
 20
295.6145380266198
 10
295.14382901910267
 20
296.80300252511915
 10
294.70032506051075
 20
296.78846379645074
 10
294.69295408275593
 20
296.7894465934851
 10
294.6837512512925
 20
296.79098039872906
 10
294.6689732273758
 20
296.7968916082955
 10
294.6534250829445
 20
296.8072570379163
 10
294.6441753959325
 20
296.81835666233064
 10
294.2497716905377
 20
297.3953730513799
 10
289.568841741303
 20
299.2584107756593
 10
288.1787187297318
 20
299.539150028701
 10
282.03378151205334
 20
298.46262341708143
 10
282.02733432676905
 20
298.4617023906121
 10
282.01150012002245
 20
298.4617023906121
 10
281.99983319435296
 20
298.46503579794626
 10
281.9887587197113
 20
298.4687272894935
 10
281.9791287097555
 20
298.4751472961307
 10
281.97034819495684
 20
298.4815331250752
 10
281.1817966088556
 20
299.42816192899454
 10
274.4883617986825
 20
297.6901193811782
 10
274.4791361396433
 20
297.68748347859537
 10
274.45812789793763
 20
297.68748347859537
 10
274.4464609722713
 20
297.6908168859286
 10
274.43475047241463
 20
297.6947203858808
 10
274.41874229748646
 20
297.7058029685236
 10
274.40924580392357
 20
297.7163546280376
 10
274.40608207551486
 20
297.7211002206509
 10
274.2048203773452
 20
298.0276381775684
 10
271.5985599190544
 20
297.3846188338848
 10
267.2946426562403
 20
295.8830484720029
 10
265.637117298676
 20
295.1824249358915
 10
265.62784339437167
 20
295.1784504054749
 10
265.61272287975817
 20
295.17643433686
 10
265.5991932672864
 20
295.17643433686
 10
260.35001193658263
 20
296.38924488007615
 10
258.07014766346265
 20
288.17213498926185
 10
258.06798492955113
 20
288.1667281544833
 10
254.58419164582938
 20
280.48584853151715
 10
253.98422931512687
 20
278.9043996687369
 10
253.98000653794452
 20
278.89648196151984
 10
253.39039701678894
 20
278.0376097283188
 10
248.89868534666857
 20
269.6364691262793
 10
248.89551095415754
 20
269.63170753751274
 10
248.89422291810206
 20
269.6299901561056
 10
246.41670419109232
 20
266.33853286153953
 10
246.4114359649161
 20
266.330630522275
 10
246.40074732056064
 20
266.3220796067908
 10
246.3981000028407
 20
266.320188665562
 10
246.39260006195082
 20
266.3165220383021
 10
242.53054911087474
 20
264.47834205065374
 10
239.42719630134934
 20
262.3537939346493
 10
236.4876011654069
 20
260.35058160840936
 10
236.48392850193068
 20
260.34848294356607
 10
232.45384667913459
 20
258.2225474615411
 10
228.94563868301975
 20
255.68427194140122
 10
228.94148550842147
 20
255.68011876680293
 10
225.4852979344414
 20
253.9159205815531
 10
222.18504640344736
 20
251.11904690996653
 10
222.18504640344736
 20
246.7325302003842
 10
223.11987444414626
 20
241.90555152778052
 10
223.12089027932325
 20
241.89844068154116
 10
223.12089027932325
 20
241.88844126451795
 10
223.1201213499985
 20
241.88228982991996
 10
223.1191715068926
 20
241.87659077128365
 10
223.11541792305934
 20
241.86345322786838
 10
223.1079794746247
 20
241.85070160197984
 10
218.5299206802797
 20
236.07718049734967
 10
218.52422002056346
 20
236.07090977166172
 10
218.5133722284354
 20
236.06223153795918
 10
218.5052176323261
 20
236.05815423990452
 10
218.49611503568212
 20
236.0539530414535
 10
218.4801509772551
 20
236.050760229768
 10
218.46792283611558
 20
236.050760229768
 10
214.5156159784592
 20
236.55891517677537
 10
211.5132649265165
 20
236.08616712535695
 10
211.5074582861498
 20
236.08533760530463
 10
211.4928952783307
 20
236.08533760530463
 10
211.48191460630915
 20
236.0880827733099
 10
207.97893752702248
 20
237.1739181809321
 10
207.97125058230358
 20
237.17680078520198
 10
207.96094140277228
 20
237.1826917449339
 10
207.95458174699343
 20
237.18777946955697
 10
204.50248766199002
 20
240.3145870440103
 10
203.42721192821682
 20
240.3145870440103
 10
197.60897982920096
 20
235.3678062528852
 10
197.60561729454275
 20
235.36500414066995
 10
197.59839865654885
 20
235.36019171534053
 10
197.59070137251956
 20
235.35634307332566
 10
197.5841884667061
 20
235.3539007336458
 10
197.5737950334301
 20
235.35093118128134
 10
197.56085940692083
 20
235.35000720795915
 10
197.55077266776834
 20
235.35067965723601
 10
193.31466520953973
 20
236.19995431597908
 10
190.56802191317183
 20
236.8283463765697
 10
190.55859148572063
 20
236.83197346405132
 10
190.55024310529416
 20
236.83646874581927
 10
188.10598482635396
 20
238.58027994624808
 10
188.1050529627446
 20
238.58074587805277
 10
183.80396110838728
 20
241.83193994262865
 10
183.8009535547735
 20
241.83394497837116
 10
183.6731404437719
 20
241.95143983213939
 10
183.5958190161632
 20
241.97862069001212
 10
178.02800507224538
 20
243.6817315016383
 10
176.63316696842685
 20
244.07367380258165
 10
171.8773875434017
 20
244.7471558036964
 10
171.8733954314639
 20
244.7471558036964
 10
169.6686382838011
 20
245.30101204735502
 10
169.667862643008
 20
245.30101204735502
 10
166.04570450855954
 20
246.2896927635652
 10
166.03454728742508
 20
246.29434160570463
 10
166.025791802404
 20
246.30017859571853
 10
166.01591018842328
 20
246.3080838869032
 10
162.6834615336693
 20
250.7219425294129
 10
162.34714867855018
 20
250.56986841301932
 10
162.33783403875623
 20
250.56700237000587
 10
162.33248630480557
 20
250.56611108101424
 10
155.7612436870795
 20
249.54523073666496
 10
153.7838358601889
 20
248.44359956850622
 10
148.80744215734921
 20
245.10395417736436
 10
148.79966438569363
 20
245.0987689962608
 10
148.78553513681436
 20
245.09372283594666
 10
143.52043409393036
 20
244.08414536985674
 10
141.82271224930355
 20
243.37581013373483
 10
137.6623904604321
 20
241.82274241856248
 10
134.86570601027188
 20
240.80401848654583
 10
131.75977546123886
 20
237.6983157484642
 10
131.75775986237613
 20
237.6963001495301
 10
127.89909426095437
 20
234.38403523245825
 10
127.88957396695741
 20
234.3776883697942
 10
127.87887561403795
 20
234.3731033613999
 10
127.86874316342164
 20
234.37020837550926
 10
127.85837020390954
 20
234.36891175557048
 10
127.84749368300481
 20
234.36891175557048
 10
127.83939077349305
 20
234.37026224048896
 10
127.83403290570959
 20
234.37145287777457
 10
123.35001799782094
 20
235.81488497806413
 10
120.92347924444675
 20
234.31803016568165
 10
120.91622292389138
 20
234.31319261864473
 10
120.90514844924974
 20
234.30950112709752
 10
120.8960911760073
 20
234.3069133347426
 10
120.88277192404621
 20
234.30596195960243
 10
120.86890076026475
 20
234.3070289722009
 10
120.85774618991354
 20
234.3104611476938
 10
116.53256218815204
 20
236.07329435822749
 10
113.89283552860115
 20
236.73446188402522
 10
113.88592905439646
 20
236.73643516236916
 10
113.87638324944191
 20
236.74088987134792
 10
111.27657756809367
 20
238.36622268541396
 10
106.9255609504994
 20
239.8298689342423
 10
105.54148801164183
 20
239.97640080844576
 10
105.53291524835458
 20
239.97854399926746
 10
100.33610910914649
 20
241.821640594183
 10
100.33467564616376
 20
241.8220501550354
 10
100.32387612332832
 20
241.82636996416932
 10
100.06504352208276
 20
241.99878898518045
 10
99.94340843495638
 20
242.0491869294633
 10
94.63895575737115
 20
244.0377157119592
 10
94.6353363472158
 20
244.03926688774027
 10
94.6262583548355
 20
244.04380588393042
 10
94.61541056270744
 20
244.05248411763296
 10
94.60907361414093
 20
244.0594547610558
 10
92.94071777532281
 20
246.27589902746604
 10
91.08588682718846
 20
248.6449493384962
 10
91.08014541689408
 20
248.65284377765101
 10
91.07559514981358
 20
248.66346106750507
 10
91.07306066080446
 20
248.67106453453243
 10
90.59805040931815
 20
251.12248171750707
 10
88.28739593756791
 20
254.18454749298917
 10
85.9782226205034
 20
256.92891698908215
 10
84.3051918902247
 20
258.1208848803467
 10
84.29404656354473
 20
258.1289905724775
 10
84.28561512370607
 20
258.14163773223527
 10
84.28357048491034
 20
258.1450454635615
 10
83.11978794350989
 20
260.36930165400827
 10
83.11837834577682
 20
260.37071125174134
 10
81.55369117245846
 20
263.7795142004652
 10
78.9963219724932
 20
267.6307909808693
 10
78.99234953956739
 20
267.6367496302578
 10
78.451345275103
 20
268.93148221285037
 10
78.16178368504598
 20
269.6394324375242
 10
75.25857254301673
 20
273.92491483612866
 10
72.03231747375594
 20
278.28826886992647
 10
71.772300232607
 20
278.5232816890307
 10
71.76316456743916
 20
278.53059022116486
 10
71.75509686663281
 20
278.5444205654044
 10
71.57594131338601
 20
278.89424299065195
 10
68.19289758391778
 20
283.0474257871533
 10
65.06324806358816
 20
286.44198494137436
 10
64.33538801023496
 20
287.1748223544332
 10
64.33413399810433
 20
287.17607636656385
 10
63.45925161581226
 20
288.1444716778051
 10
63.4568457622363
 20
288.14687753138105
 10
60.77419709519154
 20
291.71851315911454
 10
58.09862914504038
 20
294.95318493495324
 10
56.78620669555767
 20
295.6352739690692
 10
56.776632339496246
 20
295.64165687311015
 10
56.76844379626664
 20
295.64984541633976
 10
56.76056532524444
 20
295.65969350511796
 10
55.90987974995369
 20
297.42008174609737
 10
53.7263102535826
 20
300.8654583825828
 10
51.137979867070044
 20
302.68339946765354
 10
48.94550463254791
 20
303.73392449886296
 10
48.94090623516195
 20
303.7365521545121
 10
48.934230597719306
 20
303.74100257947384
 10
48.92725303757243
 20
303.74728238360603
 10
48.91701912553435
 20
303.758653396982
 10
48.9098359301106
 20
303.7742169870671
 10
48.90810893025218
 20
303.78026148657136
 10
48.11490348392135
 20
306.70220225983076
 10
48.113495608148696
 20
306.71205739024026
 10
48.113495608148696
 20
306.72592907774197
 10
48.11621752533256
 20
306.73772405220643
 10
48.11805206318786
 20
306.743227665771
 10
51.1051860325133
 20
314.191503610175
 10
51.648387426473164
 20
315.9761693085543
 10
51.481675107727824
 20
316.4508657465326
 10
51.48066248681198
 20
316.4533972988229
 10
51.10477807252482
 20
317.83762273419507
 10
49.176743510208325
 20
322.62233304354186
 10
46.36116386793037
 20
325.17757942240496
 10
44.83148499834988
 20
326.0563284297664
 10
44.17624704622631
 20
326.44962388189197
 10
39.131102802957685
 20
327.7113745640586
 10
39.120971132927025
 20
327.7142693269243
 10
39.10740218344927
 20
327.7221250345169
 10
39.096994958997584
 20
327.73079772156007
 10
39.09090617310312
 20
327.7382395709865
 10
39.08605807682807
 20
327.7450269057713
 10
39.081042716139564
 20
327.75505762714874
 10
39.078841849670425
 20
327.76166022655616
 10
39.07790933560318
 20
327.7649240257915
 10
37.49733371356251
 20
334.47761286043624
 10
37.3885885649579
 20
334.77702286107615
 10
37.387581533019784
 20
334.78105098882816
 10
37.167995556212645
 20
335.68716928006825
 10
33.36407845584927
 20
338.6215149146342
 10
33.360379266143354
 20
338.62459757272245
 10
33.355568003713415
 20
338.6294088351524
 10
33.35082521787581
 20
338.6351001781577
 10
33.34253841539157
 20
338.6475303818843
 10
33.338671744080784
 20
338.6600970636441
 10
32.09875200438182
 20
343.7391090037513
 10
32.09587985351618
 20
343.74772545634823
 10
32.09587985351618
 20
343.76985347080745
 10
33.160905827250645
 20
347.71017429647964
 10
31.395612108804016
 20
352.99814096451655
 10
31.393752369948743
 20
353.0046500505114
 10
31.391563173623126
 20
353.01997442479023
  0
LWPOLYLINE
  5
92
330
17
100
AcDbEntity
  8
GRABADO
100
AcDbPolyline
 90
13
 70
1
 10
253.26485259901165
 20
634.599782399378
 10
251.52215200288447
 20
637.7002987656683
 10
246.39244697931053
 20
638.8024924341721
 10
241.65278834503715
 20
630.8216600197948
 10
242.31191651863855
 20
625.3875242318545
 10
243.84295539070627
 20
621.61786144199
 10
245.21491161312406
 20
620.1174369315813
 10
246.3329218258482
 20
620.4735495394089
 10
250.06478053468254
 20
621.6400654565878
 10
253.25836323110616
 20
627.1348101018002
 10
254.68887861594112
 20
630.85398769825
 10
254.80533807161055
 20
632.8779968805652
 10
253.26485259901165
 20
634.599782399378
  0
TEXT
  5
93
330
17
100
AcDbEntity
  8
GRABADO
100
AcDbText
 10
31.381512617944313
 20
360.127441407825
 30
0.0
 40
6.0
  1
71e
 72
1
 11
31.381512617944313
 21
360.127441407825
 31
0.0
100
AcDbText
 73
2
  0
TEXT
  5
94
330
17
100
AcDbEntity
  8
HOJA
100
AcDbText
 10
10.0
 20
891.0
 30
0.0
 40
6.0
  1
gale_crater  hoja 36/39  1:30  lamina 3.0mm
 11
10.0
 21
891.0
 31
0.0
100
AcDbText
  0
ENDSEC
  0
SECTION
  2
OBJECTS
  0
DICTIONARY
  5
A
330
0
100
AcDbDictionary
281
1
  3
ACAD_COLOR
350
B
  3
ACAD_GROUP
350
C
  3
ACAD_LAYOUT
350
D
  3
ACAD_MATERIAL
350
E
  3
ACAD_MLEADERSTYLE
350
F
  3
ACAD_MLINESTYLE
350
10
  3
ACAD_PLOTSETTINGS
350
11
  3
ACAD_PLOTSTYLENAME
350
12
  3
ACAD_SCALELIST
350
14
  3
ACAD_TABLESTYLE
350
15
  3
ACAD_VISUALSTYLE
350
16
  3
EZDXF_META
350
2D
  0
DICTIONARY
  5
B
330
A
100
AcDbDictionary
281
1
  0
DICTIONARY
  5
C
330
A
100
AcDbDictionary
281
1
  0
DICTIONARY
  5
D
330
A
100
AcDbDictionary
281
1
  3
Model
350
1A
  3
Layout1
350
1E
  0
DICTIONARY
  5
E
330
A
100
AcDbDictionary
281
1
  3
ByBlock
350
1F
  3
ByLayer
350
20
  3
Global
350
21
  0
DICTIONARY
  5
F
330
A
100
AcDbDictionary
281
1
  3
Standard
350
2C
  0
DICTIONARY
  5
10
330
A
100
AcDbDictionary
281
1
  3
Standard
350
22
  0
DICTIONARY
  5
11
330
A
100
AcDbDictionary
281
1
  0
ACDBDICTIONARYWDFLT
  5
12
330
A
100
AcDbDictionary
281
1
  3
Normal
350
13
100
AcDbDictionaryWithDefault
340
13
  0
ACDBPLACEHOLDER
  5
13
330
12
  0
DICTIONARY
  5
14
330
A
100
AcDbDictionary
281
1
  0
DICTIONARY
  5
15
330
A
100
AcDbDictionary
281
1
  0
DICTIONARY
  5
16
330
A
100
AcDbDictionary
281
1
  3
2dWireframe
350
5A
  3
Basic
350
5B
  3
Brighten
350
5C
  3
ColorChange
350
5D
  3
Conceptual
350
5E
  3
Dim
350
5F
  3
EdgeColorOff
350
60
  3
Facepattern
350
61
  3
Flat
350
62
  3
FlatWithEdges
350
63
  3
Gouraud
350
64
  3
GouraudWithEdges
350
65
  3
Hidden
350
66
  3
JitterOff
350
67
  3
Linepattern
350
68
  3
Modeling
350
69
  3
OverhangOff
350
6A
  3
Realistic
350
6B
  3
Shaded
350
6C
  3
Shaded with edges
350
6D
  3
Shades of Gray
350
6E
  3
Sketchy
350
6F
  3
Thicken
350
70
  3
Wireframe
350
71
  3
X-Ray
350
72
  0
LAYOUT
  5
1A
330
D
100
AcDbPlotSettings
  1

  4
A3
  6

 40
7.5
 41
20.0
 42
7.5
 43
20.0
 44
420.0
 45
297.0
 46
0.0
 47
0.0
 48
0.0
 49
0.0
140
0.0
141
0.0
142
1.0
143
1.0
 70
1024
 72
1
 73
0
 74
5
  7

 75
16
 76
0
 77
2
 78
300
147
1.0
148
0.0
149
0.0
100
AcDbLayout
  1
Model
 70
1
 71
0
 10
0.0
 20
0.0
 11
420.0
 21
297.0
 12
0.0
 22
0.0
 32
0.0
 14
1e+20
 24
1e+20
 34
1e+20
 15
-1e+20
 25
-1e+20
 35
-1e+20
146
0.0
 13
0.0
 23
0.0
 33
0.0
 16
1.0
 26
0.0
 36
0.0
 17
0.0
 27
1.0
 37
0.0
 76
1
330
17
  0
LAYOUT
  5
1E
330
D
100
AcDbPlotSettings
  1

  4
A3
  6

 40
7.5
 41
20.0
 42
7.5
 43
20.0
 44
420.0
 45
297.0
 46
0.0
 47
0.0
 48
0.0
 49
0.0
140
0.0
141
0.0
142
1.0
143
1.0
 70
0
 72
1
 73
0
 74
5
  7

 75
16
 76
0
 77
2
 78
300
147
1.0
148
0.0
149
0.0
100
AcDbLayout
  1
Layout1
 70
1
 71
1
 10
0.0
 20
0.0
 11
420.0
 21
297.0
 12
0.0
 22
0.0
 32
0.0
 14
1e+20
 24
1e+20
 34
1e+20
 15
-1e+20
 25
-1e+20
 35
-1e+20
146
0.0
 13
0.0
 23
0.0
 33
0.0
 16
1.0
 26
0.0
 36
0.0
 17
0.0
 27
1.0
 37
0.0
 76
1
330
1B
  0
MATERIAL
  5
1F
102
{ACAD_REACTORS
330
E
102
}
330
E
100
AcDbMaterial
  1
ByBlock
  2

 70
0
 40
1.0
 71
1
 41
1.0
 91
-1023410177
 42
1.0
 72
1
  3

 73
1
 74
1
 75
1
 44
0.5
 73
0
 45
1.0
 46
1.0
 77
1
  4

 78
1
 79
1
170
1
 48
1.0
171
1
  6

172
1
173
1
174
1
140
1.0
141
1.0
175
1
  7

176
1
177
1
178
1
143
1.0
179
1
  8

270
1
271
1
272
1
145
1.0
146
1.0
273
1
  9

274
1
275
1
276
1
 42
1.0
 72
1
  3

 73
1
 74
1
 75
1
 94
63
  0
MATERIAL
  5
20
102
{ACAD_REACTORS
330
E
102
}
330
E
100
AcDbMaterial
  1
ByLayer
  2

 70
0
 40
1.0
 71
1
 41
1.0
 91
-1023410177
 42
1.0
 72
1
  3

 73
1
 74
1
 75
1
 44
0.5
 73
0
 45
1.0
 46
1.0
 77
1
  4

 78
1
 79
1
170
1
 48
1.0
171
1
  6

172
1
173
1
174
1
140
1.0
141
1.0
175
1
  7

176
1
177
1
178
1
143
1.0
179
1
  8

270
1
271
1
272
1
145
1.0
146
1.0
273
1
  9

274
1
275
1
276
1
 42
1.0
 72
1
  3

 73
1
 74
1
 75
1
 94
63
  0
MATERIAL
  5
21
102
{ACAD_REACTORS
330
E
102
}
330
E
100
AcDbMaterial
  1
Global
  2

 70
0
 40
1.0
 71
1
 41
1.0
 91
-1023410177
 42
1.0
 72
1
  3

 73
1
 74
1
 75
1
 44
0.5
 73
0
 45
1.0
 46
1.0
 77
1
  4

 78
1
 79
1
170
1
 48
1.0
171
1
  6

172
1
173
1
174
1
140
1.0
141
1.0
175
1
  7

176
1
177
1
178
1
143
1.0
179
1
  8

270
1
271
1
272
1
145
1.0
146
1.0
273
1
  9

274
1
275
1
276
1
 42
1.0
 72
1
  3

 73
1
 74
1
 75
1
 94
63
  0
MLINESTYLE
  5
22
102
{ACAD_REACTORS
330
10
102
}
330
10
100
AcDbMlineStyle
  2
Standard
 70
0
  3

 62
256
 51
90.0
 52
90.0
 71
2
 49
0.5
 62
256
  6
BYLAYER
 49
-0.5
 62
256
  6
BYLAYER
  0
MLEADERSTYLE
  5
2C
102
{ACAD_REACTORS
330
F
102
}
330
F
100
AcDbMLeaderStyle
179
2
170
2
171
1
172
0
 90
2
 40
0.0
 41
0.0
173
1
 91
-1056964608
 92
-2
290
1
 42
2.0
291
1
 43
8.0
  3
Standard
 44
4.0
300

342
29
174
1
175
1
176
0
178
1
 93
-1056964608
 45
4.0
292
0
297
0
 46
4.0
 94
-1056964608
 47
1.0
 49
1.0
140
1.0
294
1
141
0.0
177
0
142
1.0
295
0
296
0
143
3.75
271
0
272
9
273
9
  0
DICTIONARY
  5
2D
330
A
100
AcDbDictionary
280
1
281
1
  3
CREATED_BY_EZDXF
350
2E
  3
WRITTEN_BY_EZDXF
350
97
  0
DICTIONARYVAR
  5
2E
330
2D
100
DictionaryVariables
280
0
  1
1.4.2 @ 2026-09-06T16:30:42.816269+00:00
  0
VISUALSTYLE
  5
5A
102
{ACAD_REACTORS
330
16
102
}
330
16
100
AcDbVisualStyle
  2
2dWireframe
 70
4
 90
0
 40
0.6
 62
7
290
0
291
0
  0
VISUALSTYLE
  5
5B
102
{ACAD_REACTORS
330
16
102
}
330
16
100
AcDbVisualStyle
  2
Basic
 70
7
 90
1
 40
0.6
 62
7
290
0
291
1
  0
VISUALSTYLE
  5
5C
102
{ACAD_REACTORS
330
16
102
}
330
16
100
AcDbVisualStyle
  2
Brighten
 70
12
 90
2
 40
0.6
 62
7
290
0
291
1
  0
VISUALSTYLE
  5
5D
102
{ACAD_REACTORS
330
16
102
}
330
16
100
AcDbVisualStyle
  2
ColorChange
 70
16
 90
2
 40
0.6
 62
8
290
0
291
1
  0
VISUALSTYLE
  5
5E
102
{ACAD_REACTORS
330
16
102
}
330
16
100
AcDbVisualStyle
  2
Conceptual
 70
9
 90
3
 40
0.6
 62
7
290
0
291
0
  0
VISUALSTYLE
  5
5F
102
{ACAD_REACTORS
330
16
102
}
330
16
100
AcDbVisualStyle
  2
Dim
 70
11
 90
2
 40
0.6
 62
7
290
0
291
1
  0
VISUALSTYLE
  5
60
102
{ACAD_REACTORS
330
16
102
}
330
16
100
AcDbVisualStyle
  2
EdgeColorOff
 70
22
 90
2
 40
0.6
 62
7
290
0
291
1
  0
VISUALSTYLE
  5
61
102
{ACAD_REACTORS
330
16
102
}
330
16
100
AcDbVisualStyle
  2
Facepattern
 70
15
 90
2
 40
0.6
 62
7
290
0
291
1
  0
VISUALSTYLE
  5
62
102
{ACAD_REACTORS
330
16
102
}
330
16
100
AcDbVisualStyle
  2
Flat
 70
0
 90
2
 40
0.6
 62
7
290
0
291
1
  0
VISUALSTYLE
  5
63
102
{ACAD_REACTORS
330
16
102
}
330
16
100
AcDbVisualStyle
  2
FlatWithEdges
 70
1
 90
2
 40
0.6
 62
7
290
0
291
1
  0
VISUALSTYLE
  5
64
102
{ACAD_REACTORS
330
16
102
}
330
16
100
AcDbVisualStyle
  2
Gouraud
 70
2
 90
2
 40
0.6
 62
7
290
0
291
1
  0
VISUALSTYLE
  5
65
102
{ACAD_REACTORS
330
16
102
}
330
16
100
AcDbVisualStyle
  2
GouraudWithEdges
 70
3
 90
2
 40
0.6
 62
7
290
0
291
1
  0
VISUALSTYLE
  5
66
102
{ACAD_REACTORS
330
16
102
}
330
16
100
AcDbVisualStyle
  2
Hidden
 70
6
 90
1
 40
0.6
 62
7
290
0
291
0
  0
VISUALSTYLE
  5
67
102
{ACAD_REACTORS
330
16
102
}
330
16
100
AcDbVisualStyle
  2
JitterOff
 70
20
 90
2
 40
0.6
 62
7
290
0
291
1
  0
VISUALSTYLE
  5
68
102
{ACAD_REACTORS
330
16
102
}
330
16
100
AcDbVisualStyle
  2
Linepattern
 70
14
 90
2
 40
0.6
 62
7
290
0
291
1
  0
VISUALSTYLE
  5
69
102
{ACAD_REACTORS
330
16
102
}
330
16
100
AcDbVisualStyle
  2
Modeling
 70
10
 90
2
 40
0.6
 62
7
290
0
291
0
  0
VISUALSTYLE
  5
6A
102
{ACAD_REACTORS
330
16
102
}
330
16
100
AcDbVisualStyle
  2
OverhangOff
 70
21
 90
2
 40
0.6
 62
7
290
0
291
1
  0
VISUALSTYLE
  5
6B
102
{ACAD_REACTORS
330
16
102
}
330
16
100
AcDbVisualStyle
  2
Realistic
 70
8
 90
2
 40
0.6
 62
7
290
0
291
0
  0
VISUALSTYLE
  5
6C
102
{ACAD_REACTORS
330
16
102
}
330
16
100
AcDbVisualStyle
  2
Shaded
 70
27
 90
2
 40
0.6
 62
7
290
0
291
0
  0
VISUALSTYLE
  5
6D
102
{ACAD_REACTORS
330
16
102
}
330
16
100
AcDbVisualStyle
  2
Shaded with edges
 70
26
 90
2
 40
0.6
 62
7
290
0
291
0
  0
VISUALSTYLE
  5
6E
102
{ACAD_REACTORS
330
16
102
}
330
16
100
AcDbVisualStyle
  2
Shades of Gray
 70
23
 90
2
 40
0.6
 62
7
290
0
291
0
  0
VISUALSTYLE
  5
6F
102
{ACAD_REACTORS
330
16
102
}
330
16
100
AcDbVisualStyle
  2
Sketchy
 70
24
 90
1
 40
0.6
 62
7
290
0
291
0
  0
VISUALSTYLE
  5
70
102
{ACAD_REACTORS
330
16
102
}
330
16
100
AcDbVisualStyle
  2
Thicken
 70
13
 90
2
 40
0.6
 62
7
290
0
291
1
  0
VISUALSTYLE
  5
71
102
{ACAD_REACTORS
330
16
102
}
330
16
100
AcDbVisualStyle
  2
Wireframe
 70
5
 90
0
 40
0.6
 62
7
290
0
291
0
  0
VISUALSTYLE
  5
72
102
{ACAD_REACTORS
330
16
102
}
330
16
100
AcDbVisualStyle
  2
X-Ray
 70
25
 90
2
 40
0.5
 62
7
290
0
291
0
  0
DICTIONARYVAR
  5
97
330
2D
100
DictionaryVariables
280
0
  1
1.4.2 @ 2026-09-06T16:30:42.823775+00:00
  0
ENDSEC
  0
EOF
