  0
SECTION
  2
HEADER
  9
$ACADVER
  1
AC1024
  9
$ACADMAINTVER
 70
6
  9
$DWGCODEPAGE
  3
ANSI_1252
  9
$LASTSAVEDBY
  1
ezdxf
  9
$INSBASE
 10
0.0
 20
0.0
 30
0.0
  9
$EXTMIN
 10
1e+20
 20
1e+20
 30
1e+20
  9
$EXTMAX
 10
-1e+20
 20
-1e+20
 30
-1e+20
  9
$LIMMIN
 10
0.0
 20
0.0
  9
$LIMMAX
 10
420.0
 20
297.0
  9
$ORTHOMODE
 70
0
  9
$REGENMODE
 70
1
  9
$FILLMODE
 70
1
  9
$QTEXTMODE
 70
0
  9
$MIRRTEXT
 70
1
  9
$LTSCALE
 40
1.0
  9
$ATTMODE
 70
1
  9
$TEXTSIZE
 40
2.5
  9
$TRACEWID
 40
1.0
  9
$TEXTSTYLE
  7
OpenSans
  9
$CLAYER
  8
0
  9
$CELTYPE
  6
ByLayer
  9
$CECOLOR
 62
256
  9
$CELTSCALE
 40
1.0
  9
$DISPSILH
 70
0
  9
$DIMSCALE
 40
1.0
  9
$DIMASZ
 40
0.175
  9
$DIMEXO
 40
0.125
  9
$DIMDLI
 40
3.75
  9
$DIMRND
 40
0.0
  9
$DIMDLE
 40
0.0
  9
$DIMEXE
 40
0.375
  9
$DIMTP
 40
0.0
  9
$DIMTM
 40
0.0
  9
$DIMTXT
 40
0.25
  9
$DIMCEN
 40
2.5
  9
$DIMTSZ
 40
0.0
  9
$DIMTOL
 70
0
  9
$DIMLIM
 70
0
  9
$DIMTIH
 70
0
  9
$DIMTOH
 70
0
  9
$DIMSE1
 70
0
  9
$DIMSE2
 70
0
  9
$DIMTAD
 70
1
  9
$DIMZIN
 70
12
  9
$DIMBLK
  1
ARCHTICK
  9
$DIMASO
 70
1
  9
$DIMSHO
 70
1
  9
$DIMPOST
  1

  9
$DIMAPOST
  1

  9
$DIMALT
 70
0
  9
$DIMALTD
 70
3
  9
$DIMALTF
 40
0.03937007874
  9
$DIMLFAC
 40
100.0
  9
$DIMTOFL
 70
1
  9
$DIMTVP
 40
0.0
  9
$DIMTIX
 70
0
  9
$DIMSOXD
 70
0
  9
$DIMSAH
 70
0
  9
$DIMBLK1
  1

  9
$DIMBLK2
  1

  9
$DIMSTYLE
  2
EZDXF
  9
$DIMCLRD
 70
0
  9
$DIMCLRE
 70
0
  9
$DIMCLRT
 70
0
  9
$DIMTFAC
 40
0.5
  9
$DIMGAP
 40
0.1
  9
$DIMJUST
 70
0
  9
$DIMSD1
 70
0
  9
$DIMSD2
 70
0
  9
$DIMTOLJ
 70
0
  9
$DIMTZIN
 70
8
  9
$DIMALTZ
 70
0
  9
$DIMALTTZ
 70
0
  9
$DIMUPT
 70
1
  9
$DIMDEC
 70
2
  9
$DIMTDEC
 70
2
  9
$DIMALTU
 70
2
  9
$DIMALTTD
 70
3
  9
$DIMTXSTY
  7
OpenSansCondensed-Light
  9
$DIMAUNIT
 70
0
  9
$DIMADEC
 70
2
  9
$DIMALTRND
 40
0.0
  9
$DIMAZIN
 70
3
  9
$DIMDSEP
 70
46
  9
$DIMATFIT
 70
3
  9
$DIMFRAC
 70
0
  9
$DIMLDRBLK
  1

  9
$DIMLUNIT
 70
2
  9
$DIMLWD
 70
-2
  9
$DIMLWE
 70
-2
  9
$DIMTMOVE
 70
2
  9
$DIMFXL
 40
1.0
  9
$DIMFXLON
 70
0
  9
$DIMJOGANG
 40
0.785398163397
  9
$DIMTFILL
 70
0
  9
$DIMTFILLCLR
 70
0
  9
$DIMARCSYM
 70
0
  9
$DIMLTYPE
  6

  9
$DIMLTEX1
  6

  9
$DIMLTEX2
  6

  9
$DIMTXTDIRECTION
 70
0
  9
$LUNITS
 70
2
  9
$LUPREC
 70
4
  9
$SKETCHINC
 40
1.0
  9
$FILLETRAD
 40
10.0
  9
$AUNITS
 70
0
  9
$AUPREC
 70
2
  9
$MENU
  1
.
  9
$ELEVATION
 40
0.0
  9
$PELEVATION
 40
0.0
  9
$THICKNESS
 40
0.0
  9
$LIMCHECK
 70
0
  9
$CHAMFERA
 40
0.0
  9
$CHAMFERB
 40
0.0
  9
$CHAMFERC
 40
0.0
  9
$CHAMFERD
 40
0.0
  9
$SKPOLY
 70
0
  9
$TDCREATE
 40
2461290.4379861113
  9
$TDUCREATE
 40
2458532.153996898
  9
$TDUPDATE
 40
2461290.4379861113
  9
$TDUUPDATE
 40
2458532.1544311
  9
$TDINDWG
 40
0.0
  9
$TDUSRTIMER
 40
0.0
  9
$USRTIMER
 70
1
  9
$ANGBASE
 50
0.0
  9
$ANGDIR
 70
0
  9
$PDMODE
 70
0
  9
$PDSIZE
 40
0.0
  9
$PLINEWID
 40
0.0
  9
$SPLFRAME
 70
0
  9
$SPLINETYPE
 70
6
  9
$SPLINESEGS
 70
8
  9
$HANDSEED
  5
96
  9
$SURFTAB1
 70
6
  9
$SURFTAB2
 70
6
  9
$SURFTYPE
 70
6
  9
$SURFU
 70
6
  9
$SURFV
 70
6
  9
$UCSBASE
  2

  9
$UCSNAME
  2

  9
$UCSORG
 10
0.0
 20
0.0
 30
0.0
  9
$UCSXDIR
 10
1.0
 20
0.0
 30
0.0
  9
$UCSYDIR
 10
0.0
 20
1.0
 30
0.0
  9
$UCSORTHOREF
  2

  9
$UCSORTHOVIEW
 70
0
  9
$UCSORGTOP
 10
0.0
 20
0.0
 30
0.0
  9
$UCSORGBOTTOM
 10
0.0
 20
0.0
 30
0.0
  9
$UCSORGLEFT
 10
0.0
 20
0.0
 30
0.0
  9
$UCSORGRIGHT
 10
0.0
 20
0.0
 30
0.0
  9
$UCSORGFRONT
 10
0.0
 20
0.0
 30
0.0
  9
$UCSORGBACK
 10
0.0
 20
0.0
 30
0.0
  9
$PUCSBASE
  2

  9
$PUCSNAME
  2

  9
$PUCSORG
 10
0.0
 20
0.0
 30
0.0
  9
$PUCSXDIR
 10
1.0
 20
0.0
 30
0.0
  9
$PUCSYDIR
 10
0.0
 20
1.0
 30
0.0
  9
$PUCSORTHOREF
  2

  9
$PUCSORTHOVIEW
 70
0
  9
$PUCSORGTOP
 10
0.0
 20
0.0
 30
0.0
  9
$PUCSORGBOTTOM
 10
0.0
 20
0.0
 30
0.0
  9
$PUCSORGLEFT
 10
0.0
 20
0.0
 30
0.0
  9
$PUCSORGRIGHT
 10
0.0
 20
0.0
 30
0.0
  9
$PUCSORGFRONT
 10
0.0
 20
0.0
 30
0.0
  9
$PUCSORGBACK
 10
0.0
 20
0.0
 30
0.0
  9
$USERI1
 70
0
  9
$USERI2
 70
0
  9
$USERI3
 70
0
  9
$USERI4
 70
0
  9
$USERI5
 70
0
  9
$USERR1
 40
0.0
  9
$USERR2
 40
0.0
  9
$USERR3
 40
0.0
  9
$USERR4
 40
0.0
  9
$USERR5
 40
0.0
  9
$WORLDVIEW
 70
1
  9
$SHADEDGE
 70
3
  9
$SHADEDIF
 70
70
  9
$TILEMODE
 70
1
  9
$MAXACTVP
 70
64
  9
$PINSBASE
 10
0.0
 20
0.0
 30
0.0
  9
$PLIMCHECK
 70
0
  9
$PEXTMIN
 10
1e+20
 20
1e+20
 30
1e+20
  9
$PEXTMAX
 10
-1e+20
 20
-1e+20
 30
-1e+20
  9
$PLIMMIN
 10
0.0
 20
0.0
  9
$PLIMMAX
 10
420.0
 20
297.0
  9
$UNITMODE
 70
0
  9
$VISRETAIN
 70
1
  9
$PLINEGEN
 70
0
  9
$PSLTSCALE
 70
1
  9
$TREEDEPTH
 70
3020
  9
$CMLSTYLE
  2
Standard
  9
$CMLJUST
 70
0
  9
$CMLSCALE
 40
20.0
  9
$PROXYGRAPHICS
 70
1
  9
$MEASUREMENT
 70
1
  9
$CELWEIGHT
370
-1
  9
$ENDCAPS
280
0
  9
$JOINSTYLE
280
0
  9
$LWDISPLAY
290
0
  9
$INSUNITS
 70
4
  9
$HYPERLINKBASE
  1

  9
$STYLESHEET
  1

  9
$XEDIT
290
1
  9
$CEPSNTYPE
380
0
  9
$PSTYLEMODE
290
1
  9
$FINGERPRINTGUID
  2
{EF090240-48F5-41DF-B38A-6C647E6277E4}
  9
$VERSIONGUID
  2
{550996F9-ACCD-4652-90E2-8BE4B92C2DE8}
  9
$EXTNAMES
290
1
  9
$PSVPSCALE
 40
0.0
  9
$OLESTARTUP
290
0
  9
$SORTENTS
280
127
  9
$INDEXCTL
280
0
  9
$HIDETEXT
280
1
  9
$XCLIPFRAME
280
1
  9
$HALOGAP
280
0
  9
$OBSCOLOR
 70
257
  9
$OBSLTYPE
280
0
  9
$INTERSECTIONDISPLAY
280
0
  9
$INTERSECTIONCOLOR
 70
257
  9
$DIMASSOC
280
2
  9
$PROJECTNAME
  1

  9
$CAMERADISPLAY
290
0
  9
$LENSLENGTH
 40
50.0
  9
$CAMERAHEIGHT
 40
0.0
  9
$STEPSPERSEC
 40
24.0
  9
$STEPSIZE
 40
100.0
  9
$3DDWFPREC
 40
2.0
  9
$PSOLWIDTH
 40
0.005
  9
$PSOLHEIGHT
 40
0.08
  9
$LOFTANG1
 40
1.570796326795
  9
$LOFTANG2
 40
1.570796326795
  9
$LOFTMAG1
 40
0.0
  9
$LOFTMAG2
 40
0.0
  9
$LOFTPARAM
 70
7
  9
$LOFTNORMALS
280
1
  9
$LATITUDE
 40
37.795
  9
$LONGITUDE
 40
-122.394
  9
$NORTHDIRECTION
 40
0.0
  9
$TIMEZONE
 70
-8000
  9
$LIGHTGLYPHDISPLAY
280
1
  9
$TILEMODELIGHTSYNCH
280
1
  9
$CMATERIAL
347
20
  9
$SOLIDHIST
280
0
  9
$SHOWHIST
280
1
  9
$DWFFRAME
280
2
  9
$DGNFRAME
280
2
  9
$REALWORLDSCALE
290
1
  9
$INTERFERECOLOR
 62
256
  9
$CSHADOW
280
0
  9
$SHADOWPLANELOCATION
 40
0.0
  0
ENDSEC
  0
SECTION
  2
CLASSES
  0
CLASS
  1
ACDBDICTIONARYWDFLT
  2
AcDbDictionaryWithDefault
  3
ObjectDBX Classes
 90
0
 91
0
280
0
281
0
  0
CLASS
  1
SUN
  2
AcDbSun
  3
SCENEOE
 90
1153
 91
0
280
0
281
0
  0
CLASS
  1
VISUALSTYLE
  2
AcDbVisualStyle
  3
ObjectDBX Classes
 90
4095
 91
0
280
0
281
0
  0
CLASS
  1
MATERIAL
  2
AcDbMaterial
  3
ObjectDBX Classes
 90
1153
 91
0
280
0
281
0
  0
CLASS
  1
SCALE
  2
AcDbScale
  3
ObjectDBX Classes
 90
1153
 91
0
280
0
281
0
  0
CLASS
  1
TABLESTYLE
  2
AcDbTableStyle
  3
ObjectDBX Classes
 90
4095
 91
0
280
0
281
0
  0
CLASS
  1
MLEADERSTYLE
  2
AcDbMLeaderStyle
  3
ACDB_MLEADERSTYLE_CLASS
 90
4095
 91
0
280
0
281
0
  0
CLASS
  1
DICTIONARYVAR
  2
AcDbDictionaryVar
  3
ObjectDBX Classes
 90
0
 91
0
280
0
281
0
  0
CLASS
  1
CELLSTYLEMAP
  2
AcDbCellStyleMap
  3
ObjectDBX Classes
 90
1152
 91
0
280
0
281
0
  0
CLASS
  1
MENTALRAYRENDERSETTINGS
  2
AcDbMentalRayRenderSettings
  3
SCENEOE
 90
1024
 91
0
280
0
281
0
  0
CLASS
  1
ACDBDETAILVIEWSTYLE
  2
AcDbDetailViewStyle
  3
ObjectDBX Classes
 90
1025
 91
0
280
0
281
0
  0
CLASS
  1
ACDBSECTIONVIEWSTYLE
  2
AcDbSectionViewStyle
  3
ObjectDBX Classes
 90
1025
 91
0
280
0
281
0
  0
CLASS
  1
RASTERVARIABLES
  2
AcDbRasterVariables
  3
ISM
 90
0
 91
0
280
0
281
0
  0
CLASS
  1
LAYOUT
  2
AcDbLayout
  3
ObjectDBX Classes
 90
0
 91
0
280
0
281
0
  0
CLASS
  1
ACDBPLACEHOLDER
  2
AcDbPlaceHolder
  3
ObjectDBX Classes
 90
0
 91
0
280
0
281
0
  0
ENDSEC
  0
SECTION
  2
TABLES
  0
TABLE
  2
VPORT
  5
8
330
0
100
AcDbSymbolTable
 70
1
  0
VPORT
  5
23
330
8
100
AcDbSymbolTableRecord
100
AcDbViewportTableRecord
  2
*Active
 70
0
 10
0.0
 20
0.0
 11
1.0
 21
1.0
 12
0.0
 22
0.0
 13
0.0
 23
0.0
 14
0.5
 24
0.5
 15
0.5
 25
0.5
 16
0.0
 26
0.0
 36
1.0
 17
0.0
 27
0.0
 37
0.0
 40
1000.0
 41
1.34
 42
50.0
 43
0.0
 44
0.0
 50
0.0
 51
0.0
 71
0
 72
1000
 73
1
 74
3
 75
0
 76
0
 77
0
 78
0
281
0
 65
0
146
0.0
  0
ENDTAB
  0
TABLE
  2
LTYPE
  5
2
330
0
100
AcDbSymbolTable
 70
21
  0
LTYPE
  5
24
330
2
100
AcDbSymbolTableRecord
100
AcDbLinetypeTableRecord
  2
ByBlock
 70
0
  3

 72
65
 73
0
 40
0.0
  0
LTYPE
  5
25
330
2
100
AcDbSymbolTableRecord
100
AcDbLinetypeTableRecord
  2
ByLayer
 70
0
  3

 72
65
 73
0
 40
0.0
  0
LTYPE
  5
26
330
2
100
AcDbSymbolTableRecord
100
AcDbLinetypeTableRecord
  2
Continuous
 70
0
  3

 72
65
 73
0
 40
0.0
  0
LTYPE
  5
2F
330
2
100
AcDbSymbolTableRecord
100
AcDbLinetypeTableRecord
  2
CENTER
 70
0
  3
Center ____ _ ____ _ ____ _ ____ _ ____ _ ____
 72
65
 73
4
 40
5.08
 49
3.175
 74
0
 49
-0.635
 74
0
 49
0.635
 74
0
 49
-0.635
 74
0
  0
LTYPE
  5
30
330
2
100
AcDbSymbolTableRecord
100
AcDbLinetypeTableRecord
  2
CENTERX2
 70
0
  3
Center (2x) ________  __  ________  __  ________
 72
65
 73
4
 40
8.89
 49
6.35
 74
0
 49
-0.635
 74
0
 49
1.27
 74
0
 49
-0.635
 74
0
  0
LTYPE
  5
31
330
2
100
AcDbSymbolTableRecord
100
AcDbLinetypeTableRecord
  2
CENTER2
 70
0
  3
Center (.5x) ____ _ ____ _ ____ _ ____ _ ____
 72
65
 73
4
 40
2.54
 49
1.587
 74
0
 49
-0.318
 74
0
 49
0.318
 74
0
 49
-0.318
 74
0
  0
LTYPE
  5
32
330
2
100
AcDbSymbolTableRecord
100
AcDbLinetypeTableRecord
  2
DASHED
 70
0
  3
Dashed __ __ __ __ __ __ __ __ __ __ __ __ __ _
 72
65
 73
2
 40
1.524
 49
1.27
 74
0
 49
-0.254
 74
0
  0
LTYPE
  5
33
330
2
100
AcDbSymbolTableRecord
100
AcDbLinetypeTableRecord
  2
DASHEDX2
 70
0
  3
Dashed (2x) ____  ____  ____  ____  ____  ____
 72
65
 73
2
 40
3.048
 49
2.54
 74
0
 49
-0.508
 74
0
  0
LTYPE
  5
34
330
2
100
AcDbSymbolTableRecord
100
AcDbLinetypeTableRecord
  2
DASHED2
 70
0
  3
Dashed (.5x) _ _ _ _ _ _ _ _ _ _ _ _ _ _
 72
65
 73
2
 40
0.762
 49
0.635
 74
0
 49
-0.127
 74
0
  0
LTYPE
  5
35
330
2
100
AcDbSymbolTableRecord
100
AcDbLinetypeTableRecord
  2
PHANTOM
 70
0
  3
Phantom ______  __  __  ______  __  __  ______
 72
65
 73
6
 40
6.35
 49
3.175
 74
0
 49
-0.635
 74
0
 49
0.635
 74
0
 49
-0.635
 74
0
 49
0.635
 74
0
 49
-0.635
 74
0
  0
LTYPE
  5
36
330
2
100
AcDbSymbolTableRecord
100
AcDbLinetypeTableRecord
  2
PHANTOMX2
 70
0
  3
Phantom (2x)____________    ____    ____    ____________
 72
65
 73
6
 40
10.795
 49
6.35
 74
0
 49
-0.635
 74
0
 49
1.27
 74
0
 49
-0.635
 74
0
 49
1.27
 74
0
 49
-0.635
 74
0
  0
LTYPE
  5
37
330
2
100
AcDbSymbolTableRecord
100
AcDbLinetypeTableRecord
  2
PHANTOM2
 70
0
  3
Phantom (.5x) ___ _ _ ___ _ _ ___ _ _ ___ _ _ ___
 72
65
 73
6
 40
3.175
 49
1.587
 74
0
 49
-0.318
 74
0
 49
0.318
 74
0
 49
-0.318
 74
0
 49
0.318
 74
0
 49
-0.318
 74
0
  0
LTYPE
  5
38
330
2
100
AcDbSymbolTableRecord
100
AcDbLinetypeTableRecord
  2
DASHDOT
 70
0
  3
Dash dot __ . __ . __ . __ . __ . __ . __ . __
 72
65
 73
4
 40
3.556
 49
2.54
 74
0
 49
-0.508
 74
0
 49
0.0
 74
0
 49
-0.508
 74
0
  0
LTYPE
  5
39
330
2
100
AcDbSymbolTableRecord
100
AcDbLinetypeTableRecord
  2
DASHDOTX2
 70
0
  3
Dash dot (2x) ____  .  ____  .  ____  .  ____
 72
65
 73
4
 40
6.096
 49
5.08
 74
0
 49
-0.508
 74
0
 49
0.0
 74
0
 49
-0.508
 74
0
  0
LTYPE
  5
3A
330
2
100
AcDbSymbolTableRecord
100
AcDbLinetypeTableRecord
  2
DASHDOT2
 70
0
  3
Dash dot (.5x) _ . _ . _ . _ . _ . _ . _ . _
 72
65
 73
4
 40
1.778
 49
1.27
 74
0
 49
-0.254
 74
0
 49
0.0
 74
0
 49
-0.254
 74
0
  0
LTYPE
  5
3B
330
2
100
AcDbSymbolTableRecord
100
AcDbLinetypeTableRecord
  2
DOT
 70
0
  3
Dot .  .  .  .  .  .  .  .  .  .  .  .  .  .  .  .
 72
65
 73
2
 40
0.508
 49
0.0
 74
0
 49
-0.508
 74
0
  0
LTYPE
  5
3C
330
2
100
AcDbSymbolTableRecord
100
AcDbLinetypeTableRecord
  2
DOTX2
 70
0
  3
Dot (2x) .    .    .    .    .    .    .    . 
 72
65
 73
2
 40
1.016
 49
0.0
 74
0
 49
-1.016
 74
0
  0
LTYPE
  5
3D
330
2
100
AcDbSymbolTableRecord
100
AcDbLinetypeTableRecord
  2
DOT2
 70
0
  3
Dot (.5) . . . . . . . . . . . . . . . . . . . 
 72
65
 73
2
 40
0.254
 49
0.0
 74
0
 49
-0.254
 74
0
  0
LTYPE
  5
3E
330
2
100
AcDbSymbolTableRecord
100
AcDbLinetypeTableRecord
  2
DIVIDE
 70
0
  3
Divide __ . . __ . . __ . . __ . . __ . . __
 72
65
 73
6
 40
4.064
 49
2.54
 74
0
 49
-0.508
 74
0
 49
0.0
 74
0
 49
-0.508
 74
0
 49
0.0
 74
0
 49
-0.508
 74
0
  0
LTYPE
  5
3F
330
2
100
AcDbSymbolTableRecord
100
AcDbLinetypeTableRecord
  2
DIVIDEX2
 70
0
  3
Divide (2x) ____  . .  ____  . .  ____  . .  ____
 72
65
 73
6
 40
6.604
 49
5.08
 74
0
 49
-0.508
 74
0
 49
0.0
 74
0
 49
-0.508
 74
0
 49
0.0
 74
0
 49
-0.508
 74
0
  0
LTYPE
  5
40
330
2
100
AcDbSymbolTableRecord
100
AcDbLinetypeTableRecord
  2
DIVIDE2
 70
0
  3
Divide(.5x) _ . _ . _ . _ . _ . _ . _ . _
 72
65
 73
6
 40
2.032
 49
1.27
 74
0
 49
-0.254
 74
0
 49
0.0
 74
0
 49
-0.254
 74
0
 49
0.0
 74
0
 49
-0.254
 74
0
  0
ENDTAB
  0
TABLE
  2
LAYER
  5
1
330
0
100
AcDbSymbolTable
 70
5
  0
LAYER
  5
27
330
1
100
AcDbSymbolTableRecord
100
AcDbLayerTableRecord
  2
0
 70
0
 62
7
  6
Continuous
370
-3
390
13
347
21
  0
LAYER
  5
28
330
1
100
AcDbSymbolTableRecord
100
AcDbLayerTableRecord
  2
Defpoints
 70
0
 62
7
  6
Continuous
290
0
370
-3
390
13
347
21
  0
LAYER
  5
8A
330
1
100
AcDbSymbolTableRecord
100
AcDbLayerTableRecord
  2
CORTE
 70
0
 62
1
  6
Continuous
370
-3
390
13
347
21
  0
LAYER
  5
8B
330
1
100
AcDbSymbolTableRecord
100
AcDbLayerTableRecord
  2
GRABADO
 70
0
 62
5
  6
Continuous
370
-3
390
13
347
21
  0
LAYER
  5
8C
330
1
100
AcDbSymbolTableRecord
100
AcDbLayerTableRecord
  2
HOJA
 70
0
 62
8
  6
Continuous
370
-3
390
13
347
21
  0
ENDTAB
  0
TABLE
  2
STYLE
  5
5
330
0
100
AcDbSymbolTable
 70
26
  0
STYLE
  5
29
330
5
100
AcDbSymbolTableRecord
100
AcDbTextStyleTableRecord
  2
Standard
 70
0
 40
0.0
 41
1.0
 50
0.0
 71
0
 42
2.5
  3
txt
  4

  0
STYLE
  5
41
330
5
100
AcDbSymbolTableRecord
100
AcDbTextStyleTableRecord
  2
OpenSans-Light
 70
0
 40
0.0
 41
1.0
 50
0.0
 71
0
 42
2.5
  3
OpenSans-Light.ttf
  4

  0
STYLE
  5
42
330
5
100
AcDbSymbolTableRecord
100
AcDbTextStyleTableRecord
  2
OpenSans-Light-Italic
 70
0
 40
0.0
 41
1.0
 50
0.0
 71
0
 42
2.5
  3
OpenSans-LightItalic.ttf
  4

  0
STYLE
  5
43
330
5
100
AcDbSymbolTableRecord
100
AcDbTextStyleTableRecord
  2
OpenSans
 70
0
 40
0.0
 41
1.0
 50
0.0
 71
0
 42
2.5
  3
OpenSans-Regular.ttf
  4

  0
STYLE
  5
44
330
5
100
AcDbSymbolTableRecord
100
AcDbTextStyleTableRecord
  2
OpenSans-Italic
 70
0
 40
0.0
 41
1.0
 50
0.0
 71
0
 42
2.5
  3
OpenSans-Italic.ttf
  4

  0
STYLE
  5
45
330
5
100
AcDbSymbolTableRecord
100
AcDbTextStyleTableRecord
  2
OpenSans-SemiBold
 70
0
 40
0.0
 41
1.0
 50
0.0
 71
0
 42
2.5
  3
OpenSans-SemiBold.ttf
  4

  0
STYLE
  5
46
330
5
100
AcDbSymbolTableRecord
100
AcDbTextStyleTableRecord
  2
OpenSans-SemiBoldItalic
 70
0
 40
0.0
 41
1.0
 50
0.0
 71
0
 42
2.5
  3
OpenSans-SemiBoldItalic.ttf
  4

  0
STYLE
  5
47
330
5
100
AcDbSymbolTableRecord
100
AcDbTextStyleTableRecord
  2
OpenSans-Bold
 70
0
 40
0.0
 41
1.0
 50
0.0
 71
0
 42
2.5
  3
OpenSans-Bold.ttf
  4

  0
STYLE
  5
48
330
5
100
AcDbSymbolTableRecord
100
AcDbTextStyleTableRecord
  2
OpenSans-BoldItalic
 70
0
 40
0.0
 41
1.0
 50
0.0
 71
0
 42
2.5
  3
OpenSans-BoldItalic.ttf
  4

  0
STYLE
  5
49
330
5
100
AcDbSymbolTableRecord
100
AcDbTextStyleTableRecord
  2
OpenSans-ExtraBold
 70
0
 40
0.0
 41
1.0
 50
0.0
 71
0
 42
2.5
  3
OpenSans-ExtraBold.ttf
  4

  0
STYLE
  5
4A
330
5
100
AcDbSymbolTableRecord
100
AcDbTextStyleTableRecord
  2
OpenSans-ExtraBoldItalic
 70
0
 40
0.0
 41
1.0
 50
0.0
 71
0
 42
2.5
  3
OpenSans-ExtraBoldItalic.ttf
  4

  0
STYLE
  5
4B
330
5
100
AcDbSymbolTableRecord
100
AcDbTextStyleTableRecord
  2
OpenSansCondensed-Bold
 70
0
 40
0.0
 41
1.0
 50
0.0
 71
0
 42
2.5
  3
OpenSansCondensed-Bold.ttf
  4

  0
STYLE
  5
4C
330
5
100
AcDbSymbolTableRecord
100
AcDbTextStyleTableRecord
  2
OpenSansCondensed-Light
 70
0
 40
0.0
 41
1.0
 50
0.0
 71
0
 42
2.5
  3
OpenSansCondensed-Light.ttf
  4

  0
STYLE
  5
4D
330
5
100
AcDbSymbolTableRecord
100
AcDbTextStyleTableRecord
  2
OpenSansCondensed-Italic
 70
0
 40
0.0
 41
1.0
 50
0.0
 71
0
 42
2.5
  3
OpenSansCondensed-LightItalic.ttf
  4

  0
STYLE
  5
4E
330
5
100
AcDbSymbolTableRecord
100
AcDbTextStyleTableRecord
  2
LiberationSans
 70
0
 40
0.0
 41
1.0
 50
0.0
 71
0
 42
2.5
  3
LiberationSans-Regular.ttf
  4

  0
STYLE
  5
4F
330
5
100
AcDbSymbolTableRecord
100
AcDbTextStyleTableRecord
  2
LiberationSans-Bold
 70
0
 40
0.0
 41
1.0
 50
0.0
 71
0
 42
2.5
  3
LiberationSans-Bold.ttf
  4

  0
STYLE
  5
50
330
5
100
AcDbSymbolTableRecord
100
AcDbTextStyleTableRecord
  2
LiberationSans-BoldItalic
 70
0
 40
0.0
 41
1.0
 50
0.0
 71
0
 42
2.5
  3
LiberationSans-BoldItalic.ttf
  4

  0
STYLE
  5
51
330
5
100
AcDbSymbolTableRecord
100
AcDbTextStyleTableRecord
  2
LiberationSans-Italic
 70
0
 40
0.0
 41
1.0
 50
0.0
 71
0
 42
2.5
  3
LiberationSans-Italic.ttf
  4

  0
STYLE
  5
52
330
5
100
AcDbSymbolTableRecord
100
AcDbTextStyleTableRecord
  2
LiberationSerif
 70
0
 40
0.0
 41
1.0
 50
0.0
 71
0
 42
2.5
  3
LiberationSerif-Regular.ttf
  4

  0
STYLE
  5
53
330
5
100
AcDbSymbolTableRecord
100
AcDbTextStyleTableRecord
  2
LiberationSerif-Bold
 70
0
 40
0.0
 41
1.0
 50
0.0
 71
0
 42
2.5
  3
LiberationSerif-Bold.ttf
  4

  0
STYLE
  5
54
330
5
100
AcDbSymbolTableRecord
100
AcDbTextStyleTableRecord
  2
LiberationSerif-BoldItalic
 70
0
 40
0.0
 41
1.0
 50
0.0
 71
0
 42
2.5
  3
LiberationSerif-BoldItalic.ttf
  4

  0
STYLE
  5
55
330
5
100
AcDbSymbolTableRecord
100
AcDbTextStyleTableRecord
  2
LiberationSerif-Italic
 70
0
 40
0.0
 41
1.0
 50
0.0
 71
0
 42
2.5
  3
LiberationSerif-Italic.ttf
  4

  0
STYLE
  5
56
330
5
100
AcDbSymbolTableRecord
100
AcDbTextStyleTableRecord
  2
LiberationMono
 70
0
 40
0.0
 41
1.0
 50
0.0
 71
0
 42
2.5
  3
LiberationMono-Regular.ttf
  4

  0
STYLE
  5
57
330
5
100
AcDbSymbolTableRecord
100
AcDbTextStyleTableRecord
  2
LiberationMono-Bold
 70
0
 40
0.0
 41
1.0
 50
0.0
 71
0
 42
2.5
  3
LiberationMono-Bold.ttf
  4

  0
STYLE
  5
58
330
5
100
AcDbSymbolTableRecord
100
AcDbTextStyleTableRecord
  2
LiberationMono-BoldItalic
 70
0
 40
0.0
 41
1.0
 50
0.0
 71
0
 42
2.5
  3
LiberationMono-BoldItalic.ttf
  4

  0
STYLE
  5
59
330
5
100
AcDbSymbolTableRecord
100
AcDbTextStyleTableRecord
  2
LiberationMono-Italic
 70
0
 40
0.0
 41
1.0
 50
0.0
 71
0
 42
2.5
  3
LiberationMono-Italic.ttf
  4

  0
ENDTAB
  0
TABLE
  2
VIEW
  5
7
330
0
100
AcDbSymbolTable
 70
0
  0
ENDTAB
  0
TABLE
  2
UCS
  5
6
330
0
100
AcDbSymbolTable
 70
0
  0
ENDTAB
  0
TABLE
  2
APPID
  5
3
330
0
100
AcDbSymbolTable
 70
3
  0
APPID
  5
2A
330
3
100
AcDbSymbolTableRecord
100
AcDbRegAppTableRecord
  2
ACAD
 70
0
  0
APPID
  5
93
330
3
100
AcDbSymbolTableRecord
100
AcDbRegAppTableRecord
  2
HATCHBACKGROUNDCOLOR
 70
0
  0
APPID
  5
94
330
3
100
AcDbSymbolTableRecord
100
AcDbRegAppTableRecord
  2
EZDXF
 70
0
  0
ENDTAB
  0
TABLE
  2
DIMSTYLE
  5
4
330
0
100
AcDbSymbolTable
 70
12
100
AcDbDimStyleTable
  0
DIMSTYLE
105
2B
330
4
100
AcDbSymbolTableRecord
100
AcDbDimStyleTableRecord
  2
Standard
 70
0
 40
1.0
 41
2.5
 42
0.625
 43
3.75
 44
1.25
 45
0.0
 46
0.0
 47
0.0
 48
0.0
 49
2.5
140
2.5
141
2.5
142
0.0
143
0.03937007874
144
1.0
145
0.0
146
1.0
147
0.625
148
0.0
 69
0
 70
0
 71
0
 72
0
 73
0
 74
0
 75
0
 76
0
 77
1
 78
8
 79
3
170
0
171
3
172
1
173
0
174
0
175
0
176
0
177
0
178
0
179
2
271
2
272
2
273
2
274
3
275
0
276
0
277
2
278
44
279
0
280
0
281
0
282
0
283
0
284
8
285
0
286
0
288
0
289
3
290
0
371
-2
372
-2
  0
DIMSTYLE
105
73
330
4
100
AcDbSymbolTableRecord
100
AcDbDimStyleTableRecord
  2
EZDXF
 70
0
 40
1.0
 41
0.175
 42
0.125
 43
3.75
 44
0.375
 45
0.0
 46
0.0
 47
0.0
 48
0.0
 49
2.5
140
0.25
141
2.5
142
0.0
143
0.03937007874
144
100.0
145
0.0
146
0.5
147
0.1
148
0.0
 69
0
 70
0
 71
0
 72
0
 73
0
 74
0
 75
0
 76
0
 77
1
 78
12
 79
3
170
0
171
3
172
1
173
0
174
0
175
0
176
0
177
0
178
0
179
2
271
2
272
2
273
2
274
3
275
0
276
0
277
2
278
46
279
2
280
0
281
0
282
0
283
0
284
8
285
0
286
0
288
1
289
3
290
0
340
4C
342
74
371
-2
372
-2
  0
DIMSTYLE
105
7C
330
4
100
AcDbSymbolTableRecord
100
AcDbDimStyleTableRecord
  2
EZ_M_100_H25_CM
 70
0
 40
1.0
 41
0.25
 42
0.125
 43
3.75
 44
0.375
 45
0.0
 46
0.0
 47
0.0
 48
0.0
 49
2.5
140
0.25
141
2.5
142
0.125
143
0.03937007874
144
100.0
145
0.0
146
0.5
147
0.1
148
0.0
 69
0
 70
0
 71
0
 72
0
 73
0
 74
0
 75
0
 76
0
 77
1
 78
12
 79
3
170
0
171
3
172
1
173
0
174
0
175
0
176
0
177
0
178
0
179
2
271
2
272
2
273
2
274
3
275
0
276
0
277
2
278
46
279
2
280
0
281
0
282
0
283
0
284
8
285
0
286
0
288
1
289
3
290
0
340
4C
371
-2
372
-2
  0
DIMSTYLE
105
7D
330
4
100
AcDbSymbolTableRecord
100
AcDbDimStyleTableRecord
  2
EZ_M_50_H25_CM
 70
0
 40
1.0
 41
0.125
 42
0.0625
 43
3.75
 44
0.1875
 45
0.0
 46
0.0
 47
0.0
 48
0.0
 49
2.5
140
0.125
141
2.5
142
0.0625
143
0.03937007874
144
100.0
145
0.0
146
0.5
147
0.05
148
0.0
 69
0
 70
0
 71
0
 72
0
 73
0
 74
0
 75
0
 76
0
 77
1
 78
12
 79
3
170
0
171
3
172
1
173
0
174
0
175
0
176
0
177
0
178
0
179
2
271
2
272
2
273
2
274
3
275
0
276
0
277
2
278
46
279
2
280
0
281
0
282
0
283
0
284
8
285
0
286
0
288
1
289
3
290
0
340
4C
371
-2
372
-2
  0
DIMSTYLE
105
7E
330
4
100
AcDbSymbolTableRecord
100
AcDbDimStyleTableRecord
  2
EZ_M_25_H25_CM
 70
0
 40
1.0
 41
0.0625
 42
0.03125
 43
3.75
 44
0.09375
 45
0.0
 46
0.0
 47
0.0
 48
0.0
 49
2.5
140
0.0625
141
2.5
142
0.03125
143
0.03937007874
144
100.0
145
0.0
146
0.5
147
0.025
148
0.0
 69
0
 70
0
 71
0
 72
0
 73
0
 74
0
 75
0
 76
0
 77
1
 78
12
 79
3
170
0
171
3
172
1
173
0
174
0
175
0
176
0
177
0
178
0
179
2
271
2
272
2
273
2
274
3
275
0
276
0
277
2
278
46
279
2
280
0
281
0
282
0
283
0
284
8
285
0
286
0
288
1
289
3
290
0
340
4C
371
-2
372
-2
  0
DIMSTYLE
105
7F
330
4
100
AcDbSymbolTableRecord
100
AcDbDimStyleTableRecord
  2
EZ_M_20_H25_CM
 70
0
 40
1.0
 41
0.05
 42
0.025
 43
3.75
 44
0.07500000000000001
 45
0.0
 46
0.0
 47
0.0
 48
0.0
 49
2.5
140
0.05
141
2.5
142
0.025
143
0.03937007874
144
100.0
145
0.0
146
0.5
147
0.020000000000000004
148
0.0
 69
0
 70
0
 71
0
 72
0
 73
0
 74
0
 75
0
 76
0
 77
1
 78
12
 79
3
170
0
171
3
172
1
173
0
174
0
175
0
176
0
177
0
178
0
179
2
271
2
272
2
273
2
274
3
275
0
276
0
277
2
278
46
279
2
280
0
281
0
282
0
283
0
284
8
285
0
286
0
288
1
289
3
290
0
340
4C
371
-2
372
-2
  0
DIMSTYLE
105
80
330
4
100
AcDbSymbolTableRecord
100
AcDbDimStyleTableRecord
  2
EZ_M_10_H25_CM
 70
0
 40
1.0
 41
0.025
 42
0.0125
 43
3.75
 44
0.037500000000000006
 45
0.0
 46
0.0
 47
0.0
 48
0.0
 49
2.5
140
0.025
141
2.5
142
0.0125
143
0.03937007874
144
100.0
145
0.0
146
0.5
147
0.010000000000000002
148
0.0
 69
0
 70
0
 71
0
 72
0
 73
0
 74
0
 75
0
 76
0
 77
1
 78
12
 79
3
170
0
171
3
172
1
173
0
174
0
175
0
176
0
177
0
178
0
179
2
271
2
272
2
273
2
274
3
275
0
276
0
277
2
278
46
279
2
280
0
281
0
282
0
283
0
284
8
285
0
286
0
288
1
289
3
290
0
340
4C
371
-2
372
-2
  0
DIMSTYLE
105
81
330
4
100
AcDbSymbolTableRecord
100
AcDbDimStyleTableRecord
  2
EZ_M_5_H25_CM
 70
0
 40
1.0
 41
0.0125
 42
0.00625
 43
3.75
 44
0.018750000000000003
 45
0.0
 46
0.0
 47
0.0
 48
0.0
 49
2.5
140
0.0125
141
2.5
142
0.00625
143
0.03937007874
144
100.0
145
0.0
146
0.5
147
0.005000000000000001
148
0.0
 69
0
 70
0
 71
0
 72
0
 73
0
 74
0
 75
0
 76
0
 77
1
 78
12
 79
3
170
0
171
3
172
1
173
0
174
0
175
0
176
0
177
0
178
0
179
2
271
2
272
2
273
2
274
3
275
0
276
0
277
2
278
46
279
2
280
0
281
0
282
0
283
0
284
8
285
0
286
0
288
1
289
3
290
0
340
4C
371
-2
372
-2
  0
DIMSTYLE
105
82
330
4
100
AcDbSymbolTableRecord
100
AcDbDimStyleTableRecord
  2
EZ_M_1_H25_CM
 70
0
 40
1.0
 41
0.0025
 42
0.00125
 43
3.75
 44
0.00375
 45
0.0
 46
0.0
 47
0.0
 48
0.0
 49
2.5
140
0.0025
141
2.5
142
0.00125
143
0.03937007874
144
100.0
145
0.0
146
0.5
147
0.001
148
0.0
 69
0
 70
0
 71
0
 72
0
 73
0
 74
0
 75
0
 76
0
 77
1
 78
12
 79
3
170
0
171
3
172
1
173
0
174
0
175
0
176
0
177
0
178
0
179
2
271
2
272
2
273
2
274
3
275
0
276
0
277
2
278
46
279
2
280
0
281
0
282
0
283
0
284
8
285
0
286
0
288
1
289
3
290
0
340
4C
371
-2
372
-2
  0
DIMSTYLE
105
83
330
4
100
AcDbSymbolTableRecord
100
AcDbDimStyleTableRecord
  2
EZ_RADIUS
 70
0
 40
1.0
 41
0.25
 42
0.125
 43
3.75
 44
0.375
 45
0.0
 46
0.0
 47
0.0
 48
0.0
 49
2.5
140
0.25
141
0.0
142
0.0
143
0.03937007874
144
100.0
145
0.0
146
0.5
147
0.1
148
0.0
 69
0
 70
0
 71
0
 72
0
 73
0
 74
0
 75
0
 76
0
 77
1
 78
12
 79
3
170
0
171
3
172
0
173
0
174
0
175
0
176
0
177
0
178
0
179
2
271
2
272
2
273
2
274
3
275
0
276
0
277
2
278
46
279
1
280
0
281
0
282
0
283
0
284
8
285
0
286
0
288
1
289
3
290
0
340
4C
342
84
371
-2
372
-2
  0
DIMSTYLE
105
88
330
4
100
AcDbSymbolTableRecord
100
AcDbDimStyleTableRecord
  2
EZ_RADIUS_INSIDE
 70
0
 40
1.0
 41
0.25
 42
0.125
 43
3.75
 44
0.375
 45
0.0
 46
0.0
 47
0.0
 48
0.0
 49
2.5
140
0.25
141
0.0
142
0.0
143
0.03937007874
144
100.0
145
0.0
146
0.5
147
0.1
148
0.0
 69
0
 70
0
 71
0
 72
0
 73
0
 74
0
 75
0
 76
0
 77
0
 78
12
 79
3
170
0
171
3
172
0
173
0
174
1
175
0
176
0
177
0
178
0
179
2
271
2
272
2
273
2
274
3
275
0
276
0
277
2
278
46
279
0
280
0
281
0
282
0
283
0
284
8
285
0
286
0
288
1
289
0
290
0
340
4C
342
84
371
-2
372
-2
  0
DIMSTYLE
105
89
330
4
100
AcDbSymbolTableRecord
100
AcDbDimStyleTableRecord
  2
EZ_CURVED
 70
0
 40
1.0
 41
0.25
 42
0.125
 43
3.75
 44
0.375
 45
0.0
 46
0.0
 47
0.0
 48
0.0
 49
2.5
140
0.25
141
2.5
142
0.0
143
0.03937007874
144
100.0
145
0.0
146
0.5
147
0.1
148
0.0
 69
0
 70
0
 71
0
 72
0
 73
0
 74
0
 75
0
 76
0
 77
1
 78
12
 79
2
 90
2
170
0
171
3
172
1
173
0
174
0
175
0
176
0
177
0
178
0
179
2
271
2
272
2
273
2
274
3
275
0
276
0
277
2
278
46
279
2
280
0
281
0
282
0
283
0
284
8
285
0
286
0
288
1
289
3
290
0
340
4C
371
-2
372
-2
  0
ENDTAB
  0
TABLE
  2
BLOCK_RECORD
  5
9
330
0
100
AcDbSymbolTable
 70
5
  0
BLOCK_RECORD
  5
17
330
9
100
AcDbSymbolTableRecord
100
AcDbBlockTableRecord
  2
*Model_Space
340
1A
 70
0
280
1
281
0
  0
BLOCK_RECORD
  5
1B
330
9
100
AcDbSymbolTableRecord
100
AcDbBlockTableRecord
  2
*Paper_Space
340
1E
 70
0
280
1
281
0
  0
BLOCK_RECORD
  5
74
330
9
100
AcDbSymbolTableRecord
100
AcDbBlockTableRecord
  2
_ARCHTICK
340
0
 70
0
280
1
281
0
  0
BLOCK_RECORD
  5
78
330
9
100
AcDbSymbolTableRecord
100
AcDbBlockTableRecord
  2
_CLOSEDFILLED
340
0
 70
0
280
1
281
0
  0
BLOCK_RECORD
  5
84
330
9
100
AcDbSymbolTableRecord
100
AcDbBlockTableRecord
  2
_CLOSEDBLANK
340
0
 70
0
280
1
281
0
  0
ENDTAB
  0
ENDSEC
  0
SECTION
  2
BLOCKS
  0
BLOCK
  5
18
330
17
100
AcDbEntity
  8
0
100
AcDbBlockBegin
  2
*Model_Space
 70
0
 10
0.0
 20
0.0
 30
0.0
  3
*Model_Space
  1

  0
ENDBLK
  5
19
330
17
100
AcDbEntity
  8
0
100
AcDbBlockEnd
  0
BLOCK
  5
1C
330
1B
100
AcDbEntity
  8
0
100
AcDbBlockBegin
  2
*Paper_Space
 70
0
 10
0.0
 20
0.0
 30
0.0
  3
*Paper_Space
  1

  0
ENDBLK
  5
1D
330
1B
100
AcDbEntity
  8
0
100
AcDbBlockEnd
  0
BLOCK
  5
75
330
74
100
AcDbEntity
  8
0
100
AcDbBlockBegin
  2
_ARCHTICK
 70
0
 10
0.0
 20
0.0
 30
0.0
  3
_ARCHTICK
  1

  0
LWPOLYLINE
  5
77
330
74
100
AcDbEntity
  8
0
  6
BYBLOCK
 62
0
100
AcDbPolyline
 90
2
 70
0
 43
0.15
 10
-0.5
 20
-0.5
 10
0.5
 20
0.5
  0
ENDBLK
  5
76
330
74
100
AcDbEntity
  8
0
100
AcDbBlockEnd
  0
BLOCK
  5
79
330
78
100
AcDbEntity
  8
0
100
AcDbBlockBegin
  2
_CLOSEDFILLED
 70
0
 10
0.0
 20
0.0
 30
0.0
  3
_CLOSEDFILLED
  1

  0
SOLID
  5
7B
330
78
100
AcDbEntity
  8
0
  6
BYBLOCK
 62
0
100
AcDbTrace
 10
-1.0
 20
0.16439898372402537
 30
0.0
 11
0.0
 21
0.0
 31
0.0
 12
-1.0
 22
-0.16439898372402537
 32
0.0
 13
-1.0
 23
-0.16439898372402537
 33
0.0
  0
ENDBLK
  5
7A
330
78
100
AcDbEntity
  8
0
100
AcDbBlockEnd
  0
BLOCK
  5
85
330
84
100
AcDbEntity
  8
0
100
AcDbBlockBegin
  2
_CLOSEDBLANK
 70
0
 10
0.0
 20
0.0
 30
0.0
  3
_CLOSEDBLANK
  1

  0
LWPOLYLINE
  5
87
330
84
100
AcDbEntity
  8
0
  6
BYBLOCK
 62
0
100
AcDbPolyline
 90
3
 70
1
 10
-1.0
 20
0.16439898372402537
 10
0.0
 20
0.0
 10
-1.0
 20
-0.16439898372402537
  0
ENDBLK
  5
86
330
84
100
AcDbEntity
  8
0
100
AcDbBlockEnd
  0
ENDSEC
  0
SECTION
  2
ENTITIES
  0
LWPOLYLINE
  5
8D
330
17
100
AcDbEntity
  8
HOJA
100
AcDbPolyline
 90
4
 70
1
 10
0.0
 20
0.0
 10
600.0
 20
0.0
 10
600.0
 20
900.0
 10
0.0
 20
900.0
  0
LWPOLYLINE
  5
8E
330
17
100
AcDbEntity
  8
CORTE
100
AcDbPolyline
 90
539
 70
1
 10
83.62713551966544
 20
156.16017290017862
 10
82.46218232272736
 20
163.77241235693737
 10
81.93800260852709
 20
165.30165140336885
 10
79.15555279796467
 20
168.57482526193235
 10
76.67920700368404
 20
170.44022636843147
 10
75.02003477694166
 20
172.3430528495819
 10
72.32291795249671
 20
174.55125996312427
 10
71.23635018987261
 20
176.5540413118306
 10
69.73288842970874
 20
176.72265863363327
 10
66.22482052964529
 20
179.1332376483092
 10
62.76858362008784
 20
179.82467357691075
 10
60.41377148112565
 20
180.70478660369736
 10
58.08051313415035
 20
183.85288262783342
 10
62.72224818000518
 20
193.1287444395134
 10
62.73265914760873
 20
193.14920060040777
 10
62.73697097448871
 20
193.16360299393546
 10
63.224267213415715
 20
202.38818043481297
 10
63.32008791489807
 20
203.19439942768622
 10
64.20447901131888
 20
211.64624190280392
 10
64.20447901131888
 20
213.58554196135083
 10
62.727562189864784
 20
214.7376680858656
 10
61.0742248522788
 20
218.70071432293207
 10
60.73287701276399
 20
220.9139476820892
 10
62.72639674643324
 20
225.19059382881778
 10
67.48684477105371
 20
230.20320896679004
 10
69.69232521036133
 20
236.68967021516164
 10
71.63827803295862
 20
239.4710124477824
 10
76.66860813730773
 20
245.01635983602455
 10
78.5954986445829
 20
248.69278529167468
 10
78.06048875009014
 20
250.5380585809139
 10
77.71248624388977
 20
257.9354283161679
 10
77.47434743117606
 20
259.02718876441486
 10
77.86831470858056
 20
267.21587323983795
 10
78.37654347368357
 20
269.5058381945282
 10
79.86239555334532
 20
276.4803909997663
 10
80.75313844589391
 20
281.90790217210315
 10
79.66561096828082
 20
285.6952328377929
 10
78.2597081204608
 20
287.8141257425086
 10
76.66080588328691
 20
292.2296930536181
 10
75.91807247778092
 20
293.9639069607442
 10
75.34593871738093
 20
294.9593573856646
 10
73.94198811050796
 20
300.6207270768268
 10
72.92940843287852
 20
304.23687631941675
 10
72.81636855001625
 20
308.40832624001814
 10
72.945348144116
 20
313.51069169631546
 10
73.05840456145506
 20
317.9829620515343
 10
71.93036870505193
 20
322.7443801694626
 10
71.05981164495688
 20
324.5817665355871
 10
71.40349038718023
 20
332.0177134121659
 10
70.8281001083817
 20
333.5115979450011
 10
69.69439615882152
 20
335.95808746258945
 10
67.8021365740517
 20
338.7527103825196
 10
67.24925641559707
 20
341.2688696170726
 10
65.7167686569187
 20
345.24203848339175
 10
63.236867520703754
 20
350.52728048227937
 10
63.12437822294828
 20
351.07401876666927
 10
62.71795392679792
 20
352.35936732938853
 10
60.97134798912134
 20
357.4724770832472
 10
60.46163143169065
 20
359.78472765556216
 10
58.45413405627164
 20
363.37489937610417
 10
56.63568437775916
 20
369.03386888654495
 10
56.15815836953857
 20
369.5579371682361
 10
55.75600619051511
 20
370.2046729013505
 10
52.7985622057829
 20
374.37491413298267
 10
51.37500359024648
 20
378.3058595274115
 10
50.459346771781384
 20
380.5328808969557
 10
48.78067099076134
 20
383.7922949436156
 10
47.67185468072125
 20
386.09306191418636
 10
47.108866464604034
 20
387.5657374241114
 10
45.23245970564221
 20
392.10465597145185
 10
42.175570655952015
 20
396.8239732981765
 10
42.08303596638984
 20
397.2035397382697
 10
41.80488193946417
 20
398.0881768732106
 10
40.306670359288546
 20
404.0955672335772
 10
39.27677047951988
 20
406.0870924984597
 10
38.07240731304728
 20
410.39397779808223
 10
36.41095839977788
 20
415.3535441677095
 10
35.99371541257051
 20
416.8964725676783
 10
34.83334380796123
 20
421.2313624238077
 10
34.29782043266914
 20
423.90061936212896
 10
33.99498866355566
 20
424.60862162225294
 10
32.04471786916065
 20
430.1626408243005
 10
30.647212044374783
 20
433.8757918205133
 10
30.069831318438446
 20
436.8099219408459
 10
28.108246228130156
 20
443.1362072148354
 10
28.044004799014147
 20
443.3765418794869
 10
27.863330337088655
 20
443.99093459984533
 10
26.286195560900524
 20
450.29223188400556
 10
25.141579168097905
 20
452.3847897196374
 10
23.597842699405874
 20
455.98835477068087
 10
22.42612675756982
 20
461.6662497328525
 10
22.215061689900494
 20
463.4267537680166
 10
20.91772162739062
 20
470.92292006435764
 10
20.910786857708672
 20
470.94931555329276
 10
20.89091508098727
 20
471.0797058260782
 10
19.68747216250108
 20
478.5863251890478
 10
19.34199480231041
 20
480.18830475384084
 10
18.79127349216469
 20
486.6659404823431
 10
18.6106609828646
 20
489.4551447755771
 10
18.238873656214764
 20
495.1969685036579
 10
18.315174254262274
 20
498.7103914647432
 10
17.06898618885839
 20
502.8844117483377
 10
16.104118815183938
 20
507.9678766110219
 10
15.704037890434392
 20
510.3392692856887
 10
14.701150041689061
 20
517.2325473499518
 10
14.610036220786014
 20
518.1471298254378
 10
13.920775531571962
 20
521.5608803977339
 10
13.153030005971232
 20
525.470745670099
 10
13.013701877608355
 20
526.499830659684
 10
13.613418834946742
 20
535.358373254403
 10
13.605257888600363
 20
535.7663795430349
 10
13.919764036977085
 20
538.5564094066408
 10
14.599853626785489
 20
545.0267696856245
 10
14.58195719697369
 20
545.9065595821312
 10
15.326324790581566
 20
554.2874831316967
 10
15.326323188764718
 20
556.153997162794
 10
15.452487089271699
 20
563.5436514252733
 10
15.365248240925894
 20
565.459473749971
 10
14.539101833254335
 20
572.7963752761102
 10
14.449773646907943
 20
573.5026398466721
 10
13.93738496475953
 20
582.0596573824237
 10
13.935004124120951
 20
582.0822252237658
 10
13.919336658725342
 20
583.4538751337564
 10
13.827587455528828
 20
591.2018946960065
 10
13.820656761473629
 20
591.3231576505909
 10
13.563335360428027
 20
600.1130473631056
 10
13.563334954098991
 20
600.5865282143732
 10
13.436113440300005
 20
609.2070677381644
 10
13.468769911448817
 20
609.8556852094248
 10
13.92044636442347
 20
612.5803783660945
 10
15.129232960196305
 20
619.1228456269746
 10
15.60709104343141
 20
621.3610426301561
 10
16.325228826300872
 20
628.3777968250174
 10
16.860995255348598
 20
632.2883513466754
 10
17.997017563611507
 20
637.6533033369055
 10
20.896142918010582
 20
643.8998718365624
 10
22.1049762586174
 20
646.9159875585237
 10
23.091864476552473
 20
649.8343952155083
 10
25.40527480891842
 20
656.1788430907504
 10
27.869360982515218
 20
661.651761314019
 10
30.227718336898988
 20
665.4538540132094
 10
34.84649106166398
 20
671.4609771892701
 10
37.25017376545202
 20
674.7213564798576
 10
41.825722898158574
 20
679.1109629679472
 10
47.11945376395897
 20
683.9910194859171
 10
48.80377809251854
 20
685.1482411658358
 10
50.847562030663084
 20
686.7087809963159
 10
55.77016346852952
 20
690.3685842264954
 10
58.80824335041575
 20
693.2475308707626
 10
62.73801389259734
 20
696.8880181897748
 10
68.7129904798494
 20
702.5121502678189
 10
69.7217964762267
 20
703.1990968746713
 10
70.55023608825718
 20
703.61505034845
 10
76.6994695889075
 20
706.6651666071825
 10
81.24862414543827
 20
708.5611799595868
 10
83.6778135794541
 20
709.391514837987
 10
90.46999204277631
 20
711.5456603746788
 10
90.64611370776697
 20
711.5927600555274
 10
91.04976993038167
 20
711.7827874803479
 10
97.61480025988658
 20
714.4396051811282
 10
100.46737492427246
 20
715.569849208819
 10
104.59623222556479
 20
716.7490867390661
 10
108.94592044397677
 20
717.5532336156834
 10
111.57986222891554
 20
717.509175709281
 10
116.35959892453411
 20
718.1288423709966
 10
118.56525549290973
 20
717.5880086147126
 10
122.80771631718449
 20
717.4249732641247
 10
125.53603329214616
 20
716.7654395659606
 10
129.15801294615198
 20
716.6055469363118
 10
132.5184708017946
 20
716.1371974980084
 10
134.91200338755584
 20
714.9589145548193
 10
139.49668909908314
 20
713.7407672233767
 10
140.51296438754525
 20
713.118710526448
 10
142.96057056988866
 20
711.7770543977012
 10
145.19365045624227
 20
710.064844248835
 10
146.48983074317425
 20
709.2103994382041
 10
149.00657886256408
 20
705.8351230750586
 10
151.8367111232999
 20
702.4982623808705
 10
152.59047057577664
 20
701.3299885262663
 10
153.47069907274476
 20
700.2318324940484
 10
155.71461282374867
 20
696.2111524114221
 10
157.71993273797648
 20
693.2342046508652
 10
158.98247970595503
 20
691.2938086423246
 10
160.44290669407337
 20
688.9484501978436
 10
162.10898258045358
 20
686.1839601473716
 10
163.44399149498872
 20
683.968790186464
 10
165.05532456034598
 20
680.835911151758
 10
167.4123225141991
 20
677.249048233637
 10
168.30057699555846
 20
675.8949054902296
 10
169.1367321305911
 20
674.7140955695454
 10
171.59488752609195
 20
671.009355500134
 10
174.38165505888173
 20
666.8094125702114
 10
174.88919234071045
 20
666.1323247105765
 10
175.40136076861495
 20
665.4547512124591
 10
178.21460031292827
 20
661.2884465141224
 10
181.34826972591395
 20
657.4017682868275
 10
181.84103706165
 20
656.8494651726132
 10
182.29912271342255
 20
656.1923844877133
 10
185.0782972526115
 20
651.8944824610257
 10
188.31346156776567
 20
649.0349547876158
 10
189.20146549296828
 20
648.1271240381602
 10
190.67495973551468
 20
646.9476192200709
 10
193.45634912258834
 20
644.5327140957988
 10
195.27306207081733
 20
643.4447624274271
 10
198.12530955460784
 20
641.474909366731
 10
202.2450737829672
 20
638.3474307785509
 10
202.58170511950811
 20
638.147782167573
 10
203.397657773736
 20
637.6940607456427
 10
207.3496709722997
 20
635.2239506921387
 10
209.2045701961897
 20
634.3413143252305
 10
212.5745298846391
 20
632.9168123428417
 10
216.17329590729446
 20
631.3841301200159
 10
217.87295446671192
 20
630.6972761031188
 10
223.15247147210857
 20
628.5637549659823
 10
223.2193718404087
 20
628.513407752871
 10
223.35240091125297
 20
628.432530819463
 10
227.92244195524108
 20
625.5104457105995
 10
230.120285765802
 20
624.3997395114734
 10
232.92858786716465
 20
622.9247528354003
 10
237.0780740109276
 20
622.2467205969447
 10
238.82405751200076
 20
621.4807696514808
 10
243.2349039073024
 20
619.174572738089
 10
243.82185833496646
 20
618.8637727122555
 10
244.04963750584784
 20
618.7823758055156
 10
249.59779931293588
 20
617.3025307369858
 10
251.00150491378236
 20
617.1228408817346
 10
256.56354961434045
 20
617.3138615345802
 10
257.98478500278225
 20
617.1875038651265
 10
262.3041161248723
 20
615.6587795135788
 10
264.95485997678134
 20
615.3807664807532
 10
268.2802010528371
 20
614.3200003581546
 10
271.9293227872197
 20
612.6484048369007
 10
273.8587821898868
 20
612.492965696883
 10
278.8947339419947
 20
611.0638833959028
 10
279.6876260141039
 20
610.9879136618479
 10
285.8575777172123
 20
610.7634038660822
 10
286.4387556793024
 20
610.6899194153111
 10
292.6985679151535
 20
609.9221171824702
 10
292.83741217885427
 20
609.9061462577424
 10
292.85877322714214
 20
609.8925228106082
 10
297.961656547282
 20
607.4375572520244
 10
299.823947119477
 20
606.4789222695231
 10
303.18484384482554
 20
605.1492660324443
 10
306.77550812316304
 20
605.1492660324443
 10
309.4903965443443
 20
604.2652256915067
 10
313.7464917877328
 20
604.0115893050165
 10
315.8438215133699
 20
603.4415249048616
 10
320.7075641713884
 20
602.6214356112382
 10
322.3012450956014
 20
602.7796294015429
 10
327.68090817733764
 20
601.8404317043692
 10
328.59194090789356
 20
601.8722411423332
 10
334.659006201068
 20
600.7645716424208
 10
334.7254228129516
 20
600.7539938645232
 10
335.6990482675094
 20
600.6617326082905
 10
341.2164567898644
 20
600.1159965778152
 10
341.6340794028754
 20
600.0454729913458
 10
346.95790740334746
 20
598.4641029108557
 10
348.61333161821335
 20
597.9347811182133
 10
352.38520482583544
 20
596.4019180015016
 10
355.59706905094504
 20
595.0087444370743
 10
357.3200815160426
 20
593.6656426092604
 10
360.3432734126727
 20
591.388437832376
 10
361.86909125238367
 20
590.4508942260277
 10
362.581869848231
 20
589.8296000951295
 10
365.74226440095094
 20
586.3197260754441
 10
369.5489359355058
 20
583.1878730490826
 10
370.0264261243494
 20
582.7539716185138
 10
370.7262508740239
 20
582.120023354862
 10
374.01093965056907
 20
578.7947051139986
 10
376.51113235887897
 20
577.2436420153936
 10
378.7048416402854
 20
575.7830344002946
 10
383.45954188012365
 20
572.8677045904396
 10
383.4765816457757
 20
572.8553570333329
 10
383.48553449340284
 20
572.8490668161098
 10
387.910545435665
 20
569.4875621867586
 10
390.44666984014475
 20
567.9189147048737
 10
392.89462221267877
 20
566.8688012589519
 10
397.4140082939025
 20
564.5879116320725
 10
397.9730455005474
 20
564.355218881572
 10
399.4299370663539
 20
563.6087498025167
 10
402.6357812588167
 20
561.2612803533507
 10
404.39926059608206
 20
559.8210339971042
 10
407.0539427095764
 20
557.8769725468651
 10
411.366607608752
 20
555.0686955077986
 10
411.7186801363705
 20
554.8118159748647
 10
412.3895321705886
 20
554.3463750498945
 10
416.3784517770273
 20
551.7401734823857
 10
418.34510676498894
 20
550.14065940517
 10
420.50613289202374
 20
547.9705345058974
 10
425.29194498254674
 20
546.1683967772119
 10
425.92372174551974
 20
545.9304937623165
 10
427.88863102314053
 20
545.0912943881617
 10
431.0169945826251
 20
543.4211379016733
 10
432.27159261239194
 20
542.6982481208188
 10
436.0303252992412
 20
540.8351475788586
 10
439.23481471067726
 20
539.7799964327214
 10
441.4194059902261
 20
538.7409599111211
 10
446.1960147787777
 20
537.669227953189
 10
447.35040696624174
 20
537.3420561036464
 10
449.2191161258156
 20
535.8221951090009
 10
451.7740736281771
 20
533.9338159862009
 10
453.19590958932895
 20
532.7102927204237
 10
456.1046334353391
 20
530.4195380157653
 10
459.9347479044691
 20
526.5554283463316
 10
460.0744232369798
 20
526.4173986331771
 10
460.1771271913053
 20
526.2806341391224
 10
463.83622707228415
 20
522.1400508712936
 10
466.35529636626916
 20
517.28179576096
 10
466.74747064642906
 20
516.761914483302
 10
467.1369705140105
 20
516.3836659255521
 10
471.3272979751209
 20
513.595047162652
 10
474.1154361022245
 20
509.67424850633597
 10
474.8890242145699
 20
509.05187118836056
 10
475.42709350612813
 20
508.0184219392263
 10
478.0024950605102
 20
503.9148829868577
 10
481.0941795329022
 20
499.2973803361451
 10
481.27378323123503
 20
499.00542337445677
 10
481.4735217739244
 20
498.76277482477644
 10
484.2570442166125
 20
493.683708302221
 10
485.6181134291983
 20
489.48826605597696
 10
486.58722258873195
 20
487.5189229925086
 10
488.07124722634717
 20
483.53227074927327
 10
488.98987074958086
 20
481.4425212385527
 10
489.31392236408374
 20
480.2027640899796
 10
488.07557116470934
 20
472.9353276640795
 10
487.70601498121914
 20
470.91906272309325
 10
487.35477948830385
 20
469.9609082637289
 10
484.7498089081587
 20
461.655149038168
 10
482.07201278200046
 20
453.68288350223474
 10
481.68710552219727
 20
452.3969978208279
 10
481.1033340574486
 20
450.2579843557619
 10
479.0981034113088
 20
443.1255602131505
 10
474.12520942014635
 20
435.5621960263247
 10
473.24791547804307
 20
433.85413077714975
 10
467.1463664710609
 20
426.7947549587493
 10
465.2414735422044
 20
424.59083287079784
 10
460.1771679325816
 20
416.6920030279416
 10
458.7427721302829
 20
415.32334423603925
 10
453.20360109124886
 20
408.9879492619648
 10
450.40854703550986
 20
406.0616187420442
 10
446.22747263846577
 20
402.0797109353912
 10
439.8880162050509
 20
396.8033012461533
 10
439.266792228178
 20
395.8803899650129
 10
432.7643908808309
 20
388.17061122387304
 10
432.28959132612454
 20
387.5867256348274
 10
432.228695491704
 20
387.53680175195905
 10
425.3162041491355
 20
381.1851057905701
 10
422.1485908568761
 20
378.2745034976324
 10
418.3353412540946
 20
375.561853708748
 10
414.7227203553266
 20
373.4717581743912
 10
411.3646913877965
 20
371.3620940413007
 10
407.8028087921257
 20
369.01038139551974
 10
404.39673433489133
 20
366.6097030443957
 10
400.493946099587
 20
363.82551109932774
 10
397.43109369172726
 20
361.47478707711844
 10
395.5830962296318
 20
359.7612705446991
 10
390.46852301784725
 20
352.9665169175041
 10
387.9537488966057
 20
350.4959433374829
 10
383.47832929824494
 20
346.6203340246434
 10
379.69790382000815
 20
345.4670487906924
 10
376.5126743802259
 20
343.414101885578
 10
373.45411960984916
 20
341.23159570939424
 10
369.54981408390177
 20
337.83117964909206
 10
363.1482873694208
 20
331.97315339513625
 10
362.5720527213007
 20
331.50521005399924
 10
361.9435958036404
 20
331.1358784455001
 10
355.6006675004951
 20
327.03696821071026
 10
349.553586903103
 20
322.7127731448222
 10
348.64267101413
 20
321.7357021489411
 10
344.72691138682376
 20
317.5162162429806
 10
341.67263631139144
 20
314.22504555020487
 10
340.99108026460226
 20
313.4570907797215
 10
334.6959838630653
 20
307.2991107780035
 10
330.7609536678783
 20
304.18933066956106
 10
327.7245989976691
 20
301.78977334445926
 10
321.6819433162618
 20
296.1626676744436
 10
320.7605303504754
 20
295.3046248775008
 10
320.4797165661396
 20
294.9435584046555
 10
317.98951973381963
 20
291.25552114899347
 10
314.1678011289332
 20
285.6880853854077
 10
313.800305785428
 20
284.99791996339263
 10
309.11753588074885
 20
276.42833842055234
 10
306.82655083520285
 20
272.8284539775186
 10
303.09550160961976
 20
267.1709378836572
 10
299.862684556821
 20
259.0937647401338
 10
299.4070885328538
 20
257.92106376351376
 10
299.1162690329836
 20
256.93050550043336
 10
297.0536554480436
 20
248.65696962969741
 10
292.8880611150778
 20
241.1413211790723
 10
291.95226031666357
 20
239.39865665144225
 10
291.62774954038537
 20
237.73131665055143
 10
291.8766018036529
 20
230.1939064038097
 10
292.4313424316474
 20
229.59379659998376
 10
292.89398708659655
 20
228.06986718094367
 10
294.4420385504998
 20
222.97061262764691
 10
294.6153074141055
 20
220.90787882085306
 10
294.9389527160779
 20
214.35797311103215
 10
295.0308679529585
 20
211.6486583549472
 10
295.76963653326993
 20
206.2040862153358
 10
295.877987487376
 20
202.3893785492328
 10
296.63462095101363
 20
198.09289678342884
 10
296.63462095101363
 20
193.11678046294583
 10
296.030043377257
 20
188.0168814841486
 10
295.868368052664
 20
183.8570783954683
 10
295.56462769787345
 20
178.1393094510422
 10
295.32652438940136
 20
174.6003448724514
 10
295.75044640527744
 20
169.1256644511359
 10
295.08998629812163
 20
165.3352951868951
 10
295.46227808729486
 20
159.4896152278725
 10
295.52491831339853
 20
156.08138174944315
 10
295.79996925008527
 20
150.68409847825023
 10
296.54135375461465
 20
146.85934910483775
 10
298.5933442115859
 20
145.20027148639747
 10
299.84328032988924
 20
143.262074777826
 10
303.0708823794223
 20
141.92010422106932
 10
306.8086809506756
 20
138.25747233619404
 10
307.15390517228207
 20
138.06881490366186
 10
307.5154921862554
 20
137.6083007522343
 10
311.1973843191063
 20
134.13076640555437
 10
312.0802890990101
 20
128.32557719480883
 10
312.8981449270839
 20
127.15112063092374
 10
313.78906825129616
 20
126.03252630790575
 10
316.9193296673918
 20
123.21849697970492
 10
317.92950395137336
 20
119.04940395861558
 10
318.28790480303087
 20
115.73811434585878
 10
319.4624104401603
 20
109.79163459437268
 10
319.7732722870951
 20
108.456364955347
 10
320.7782916042577
 20
103.3293364435549
 10
321.28677654107923
 20
101.20144905135703
 10
321.34493326234815
 20
100.51528843679671
 10
320.7797567034345
 20
93.73953827850255
 10
320.59442621575386
 20
91.24563127345164
 10
320.5397201962883
 20
90.92193707952947
 10
318.23385357249185
 20
81.98520039540244
 10
318.28761009159393
 20
78.67791243463762
 10
317.40097688068636
 20
72.7189146929627
 10
315.74104267542157
 20
66.02881202676053
 10
315.6069518493696
 20
63.4533971937999
 10
313.79545332597945
 20
59.83151513016128
 10
307.79886572980286
 20
54.15879395048387
 10
306.81992194086456
 20
53.16089672478847
 10
300.2774260250883
 20
44.904803972977334
 10
299.8511438300327
 20
44.380629066174606
 10
294.29196995468055
 20
37.51912669086505
 10
292.8805734918176
 20
35.7800908405643
 10
292.7694689013774
 20
35.64179045850051
 10
285.90517788543707
 20
28.419699311567
 10
283.85132143487726
 20
26.37396671647093
 10
278.91889647200514
 20
22.60498316594203
 10
274.74005031979095
 20
20.824362379697504
 10
271.93705593371647
 20
19.92628528962541
 10
265.6732314525466
 20
17.10226217576883
 10
264.9721307236762
 20
16.748037573190686
 10
264.55717406633244
 20
16.555413021656477
 10
257.97034383663936
 20
14.343572281622528
 10
256.27198813303244
 20
14.836349793170484
 10
251.00394895466866
 20
13.175290802886593
 10
248.3508593918982
 20
13.578876158456751
 10
244.02385567515603
 20
13.040369277502123
 10
241.38924789980706
 20
13.615159537610907
 10
237.04061641726298
 20
14.719215774972326
 10
235.45592183713188
 20
15.00972174698336
 10
232.20652528405003
 20
17.10470068249242
 10
230.63452189407553
 20
17.8907586054861
 10
230.04410261575913
 20
18.387386861973482
 10
225.71257100570006
 20
20.61818133704037
 10
223.06657423930528
 20
23.219432615140704
 10
221.53206046478454
 20
24.339764057929642
 10
219.77350158255922
 20
26.37662961201795
 10
217.49288276863058
 20
28.24078856318556
 10
216.08863172331394
 20
30.04072020296826
 10
213.6453717123029
 20
32.40561179623273
 10
211.90014632364614
 20
35.64979721275222
 10
210.47366942908184
 20
37.45447866193081
 10
209.11546057163378
 20
39.49007545914901
 10
206.80390994917525
 20
41.82534288837678
 10
204.13309544884396
 20
44.89856438127572
 10
202.92605267831664
 20
45.94538760465957
 10
202.1371086668853
 20
47.5152028459338
 10
199.96221096429895
 20
51.27589376266678
 10
197.69602709574474
 20
54.16863215075
 10
196.5165693791855
 20
55.978423938757714
 10
195.16067789500562
 20
60.704241497786825
 10
194.5436319012697
 20
62.62384443902329
 10
194.1733149554757
 20
63.43800739657536
 10
191.52464412747986
 20
67.85282036827584
 10
188.41646077531504
 20
72.69956200706201
 10
188.33890134319722
 20
72.90349668328372
 10
188.19151859157864
 20
73.3151378701441
 10
185.95882041273398
 20
79.00806887344697
 10
185.28820826034666
 20
81.96911767205847
 10
183.69860986460662
 20
85.24006668074071
 10
181.23383903346803
 20
88.69384965668542
 10
180.13786109422676
 20
89.76870922689068
 10
179.65253509238414
 20
91.22503089281099
 10
177.4227982355094
 20
95.4240419304615
 10
174.25793543576606
 20
100.27546806056625
 10
174.186233057565
 20
100.38100576299894
 10
174.12661237981
 20
100.48155606384125
 10
171.6821035030864
 20
106.33275875095342
 10
170.16232602215905
 20
109.75115292353348
 10
169.43488139207693
 20
112.57995855280296
 10
167.32168686309092
 20
113.65507047695473
 10
164.07317486881857
 20
114.62539858921127
 10
160.3824549164267
 20
114.76054094003212
 10
156.8834482138791
 20
114.3041020794044
 10
153.41975169763532
 20
113.74774407271116
 10
148.99741107097998
 20
113.0867346554437
 10
146.4535384078465
 20
112.64724683925215
 10
140.52918024731935
 20
111.08609894183883
 10
139.4924317821708
 20
110.72047651052299
 10
136.76740915883533
 20
109.70484123010465
 10
132.51002295363355
 20
108.38735770674839
 10
131.45806455748698
 20
108.31472474387692
 10
125.51879487569408
 20
107.86273299503137
 10
124.33485780976457
 20
108.16731399178752
 10
122.11997474126792
 20
109.72303190568391
 10
120.4620379953517
 20
112.3261024446847
 10
118.50358436705369
 20
113.51099837846277
 10
116.44278631688803
 20
116.24551585185827
 10
112.45896306722852
 20
118.97528550633479
 10
111.87341475596736
 20
119.40436628863517
 10
111.54759383606051
 20
119.54005204802161
 10
107.27746808440065
 20
122.55478183535342
 10
104.5823205565548
 20
123.51281077190879
 10
102.08393658362434
 20
124.90770727871632
 10
97.61559691973412
 20
126.36362441182064
 10
96.56213714488763
 20
126.83787975174027
 10
93.92415951764224
 20
128.23146631473492
 10
91.63674035153417
 20
129.56614753693748
 10
90.63195144082329
 20
130.1967306226711
 10
86.90913444734247
 20
132.5607424047962
 10
83.65454864171807
 20
135.6416005696001
 10
82.72704734373133
 20
136.25120576853806
 10
80.51129287464073
 20
137.50366732475686
 10
78.97565976426176
 20
140.60890587638778
 10
77.49733546114294
 20
146.83253999612725
 10
83.6366105614029
 20
156.09648809053397
 10
83.62713551966544
 20
156.16017290017862
  0
LWPOLYLINE
  5
8F
330
17
100
AcDbEntity
  8
CORTE
100
AcDbPolyline
 90
502
 70
1
 10
29.35007104297074
 20
502.0369951474063
 10
29.731574702866737
 20
499.34425806205945
 10
29.972993757000722
 20
493.2204247156942
 10
30.62549682227791
 20
490.49122729736837
 10
30.951561728335264
 20
485.3353908190343
 10
31.835365942674798
 20
481.500551908086
 10
32.30894049741596
 20
478.3931541025281
 10
33.88037863893146
 20
472.41186272890036
 10
34.11651467838874
 20
471.0474440452549
 10
34.81283014576957
 20
465.23944273263214
 10
34.994896530555934
 20
463.67719469356916
 10
37.142759733355206
 20
458.48606295043237
 10
38.501568077059346
 20
454.5169694247502
 10
39.41301081238021
 20
451.4175619288767
 10
41.10775206666949
 20
445.0773376121924
 10
41.3087482785204
 20
444.42910706566136
 10
41.70423896246166
 20
442.41930473604316
 10
42.81009190510872
 20
436.6569731687541
 10
42.99276854552363
 20
435.69333599990296
 10
44.50505774827252
 20
431.3652316213538
 10
46.45503232283704
 20
426.94126124068316
 10
47.10831372719758
 20
424.50074742449533
 10
48.604373015084775
 20
418.96844985667485
 10
48.90053732231809
 20
417.6266075565445
 10
48.99739029570969
 20
417.32565171752594
 10
50.697321567466815
 20
410.9216946707247
 10
51.55566980156277
 20
408.19185513765115
 10
52.77232725322574
 20
404.3224149783964
 10
53.91527850903344
 20
399.63416302208316
 10
54.26192385233708
 20
399.0990015071284
 10
55.05578122594966
 20
397.17870680565966
 10
57.32896058323104
 20
393.35778646762856
 10
58.35710662538963
 20
390.2967936089349
 10
59.819575348009494
 20
387.45717969944553
 10
62.113421560736924
 20
381.8781850027708
 10
62.30064785940044
 20
381.5127430009693
 10
64.68470599907118
 20
377.6787327203565
 10
68.48607364284453
 20
373.5068631784825
 10
68.8992472017203
 20
372.73654155242
 10
69.39924038382082
 20
371.9482179322581
 10
70.90014477276532
 20
366.77158592430305
 10
74.5781602482432
 20
364.0275410603331
 10
75.68784257902621
 20
360.5180840656194
 10
76.54769814766178
 20
356.33887797402895
 10
77.12999877157927
 20
353.404908495781
 10
77.17350897170309
 20
353.2919079453545
 10
79.66091208052103
 20
348.08475939495656
 10
80.76918054114299
 20
343.59777152260267
 10
81.54765423799222
 20
341.91785522717237
 10
83.12134874443223
 20
337.83207559341054
 10
84.3697108350957
 20
335.07425635052186
 10
84.58501749427501
 20
333.21046085785156
 10
85.81513699363882
 20
327.8861261616603
 10
87.19323329914118
 20
323.8583308810644
 10
87.08114592922061
 20
317.85278771713365
 10
86.89452219428881
 20
313.4254401466724
 10
86.97669159966063
 20
308.87710606960763
 10
87.14538543838603
 20
305.00306572954923
 10
87.69074793607274
 20
301.9089563601151
 10
88.83316897244435
 20
296.95115525958045
 10
88.9024413211655
 20
296.759851056318
 10
89.81386759488669
 20
295.3862037466529
 10
91.90131882354717
 20
290.550566302642
 10
93.37561003617134
 20
286.3006730458137
 10
91.73282396465515
 20
276.9203924503927
 10
91.44109118109168
 20
275.08794437341794
 10
90.44365413494188
 20
271.0569968006221
 10
89.38403655578122
 20
266.28259737999906
 10
89.37409767162103
 20
266.0760157903769
 10
90.48043255842708
 20
261.0039628219156
 10
90.765903277819
 20
259.572491204558
 10
90.82749446446951
 20
259.22583010507515
 10
92.31170991357158
 20
251.75556423000126
 10
92.44169574552575
 20
248.02005969994661
 10
90.27800408546113
 20
238.58389764314325
 10
88.90783567254448
 20
235.73423141918556
 10
82.26198615706357
 20
227.3132110077986
 10
81.35928779384699
 20
226.0585396813276
 10
76.15508858386556
 20
219.1447171599889
 10
76.15508858386556
 20
211.28100297460242
 10
76.02688535788616
 20
210.05580580203605
 10
75.04445809671392
 20
201.7898308632175
 10
74.8905483670294
 20
198.87630084397688
 10
72.3938428064323
 20
190.53678791670154
 10
71.0132216217753
 20
187.82405167906154
 10
72.25367184336505
 20
186.9716727177365
 10
78.06805473215877
 20
186.3195738771674
 10
81.9487738627522
 20
179.16656219978086
 10
85.87545140109182
 20
176.2086438663232
 10
88.45386834808278
 20
173.17548692838727
 10
90.96972319453357
 20
171.3264216423927
 10
92.34222439293399
 20
166.878763113913
 10
93.34260954144884
 20
160.15485207252186
 10
93.27837081802022
 20
154.2532812057325
 10
89.62544778319148
 20
147.6609431719121
 10
88.29638673083059
 20
145.65543724453528
 10
90.01515631235156
 20
142.17987427976323
 10
90.38200413826075
 20
141.28727776777032
 10
92.27520482530736
 20
139.4951348830382
 10
94.36867462982377
 20
138.1657686283802
 10
96.30998914255247
 20
136.94744298528622
 10
100.41803184899345
 20
134.55045010285767
 10
105.9513301678603
 20
132.74753796300502
 10
107.48111512842729
 20
131.8934291787741
 10
111.70560767154984
 20
130.39177256934545
 10
114.9528476188982
 20
128.09920519189063
 10
116.70870332729805
 20
127.3679918148132
 10
120.36720548416383
 20
124.68709779236542
 10
122.65746522964287
 20
123.11778079151509
 10
123.28168722197779
 20
122.28948713839281
 10
127.29044047420598
 20
119.86412696675006
 10
129.05117794473085
 20
117.09965247897026
 10
131.2596020246258
 20
117.33456693037078
 10
137.10585496030944
 20
119.51350691012931
 10
140.7367710916419
 20
120.79399531061244
 10
144.9630502344744
 20
121.90767659370476
 10
149.97292255272032
 20
122.77319862885042
 10
152.3472466978742
 20
123.1280900205561
 10
157.98427196368493
 20
124.03354005806932
 10
160.05553971195786
 20
124.30373305038029
 10
167.07210567009247
 20
124.04680886471988
 10
169.93165131046135
 20
123.19266471255924
 10
177.0660793313043
 20
119.56294272908963
 10
178.99533102479177
 20
112.06068369090099
 10
179.49315678851485
 20
110.94093773399027
 10
180.77031759879628
 20
107.88391190923403
 10
181.83224815245399
 20
104.9807050636955
 10
182.3262816235872
 20
104.08693106800092
 10
184.6345305393629
 20
100.54861051088574
 10
187.44986793203384
 20
95.2468042685532
 10
190.91468912063556
 20
90.39169145858932
 10
193.87379973538214
 20
84.30266925157957
 10
194.15778556324153
 20
83.04874641195966
 10
194.7465215655584
 20
81.5475880950371
 10
196.3070881088704
 20
77.18891344003896
 10
196.80988470255716
 20
75.86686068979179
 10
198.6121901321901
 20
73.05643807893557
 10
201.35214561282623
 20
68.48947155748692
 10
201.98688439841067
 20
67.13635089575746
 10
202.55835058095772
 20
65.96525049956335
 10
204.13147262860002
 20
60.48229859523599
 10
205.58904849514443
 20
58.245754803428554
 10
206.85123153936252
 20
56.634603389167296
 10
208.29948504831077
 20
54.13037810549031
 10
209.549679928356
 20
51.64278082504643
 10
211.6016720288285
 20
49.86316452857045
 10
213.10309780403782
 20
48.13552153359842
 10
214.56436622129854
 20
46.65926031438357
 10
217.10340953645664
 20
42.85390415579968
 10
219.748208325135
 20
39.507884792340974
 10
220.4467238485331
 20
38.209419912705016
 10
221.30760359434248
 20
37.37615318525832
 10
223.5431236143686
 20
34.51072308368657
 10
227.33470935034893
 20
31.41151227051705
 10
227.54590284906908
 20
31.166895631780335
 10
227.60830065691061
 20
31.12133968614671
 10
230.96565067458596
 20
27.820764592698197
 10
233.94823829471488
 20
26.284693617494668
 10
235.44389868394933
 20
25.026626276738625
 10
239.10721890804712
 20
23.194835133679135
 10
239.32378340851687
 20
23.05520980348274
 10
244.06729628309927
 20
21.85089874672667
 10
244.34681957993007
 20
21.78991537379534
 10
249.8215931939585
 20
22.47126520749589
 10
250.44943032300262
 20
22.375759245495374
 10
254.9727479703779
 20
23.802001000671225
 10
255.7512914025708
 20
24.02503984302666
 10
256.24464770207715
 20
24.2176162640867
 10
262.4035655751911
 20
25.601477849806543
 10
264.3068197806447
 20
26.691276012449634
 10
269.4225235655297
 20
28.997672970983785
 10
274.8010882713186
 20
30.720960667790223
 10
275.3667710681573
 20
30.96200006234585
 10
276.27681494485705
 20
31.65738629272164
 10
280.89734657242934
 20
36.25964179827088
 10
284.6928549762249
 20
40.25299050354988
 10
287.4343733428873
 20
43.66556811211058
 10
292.01999043749265
 20
49.315683114245076
 10
294.3903142147833
 20
52.23625593626366
 10
299.5863727003152
 20
58.794489545795386
 10
301.84388366808844
 20
61.10529175800593
 10
307.54520827681563
 20
66.7805059693892
 10
309.35633412903667
 20
74.07996269143314
 10
309.82082431499066
 20
77.20176766679333
 10
309.72954322339683
 20
82.81769779614388
 10
311.4203502870889
 20
89.37067764152607
 10
311.87994600358957
 20
92.09009437913664
 10
312.3910419877343
 20
98.96767761470437
 10
312.4030609387287
 20
99.88774733418131
 10
311.407039933669
 20
104.96887165097587
 10
310.6270051785814
 20
108.31941703351276
 10
309.78428542725464
 20
112.58607679147553
 10
309.2334240492112
 20
117.6755221729486
 10
308.6762753752437
 20
118.17638535985452
 10
306.1060615820338
 20
121.40340443084824
 10
303.14026406796097
 20
125.6623462125076
 10
302.75531576023104
 20
128.19342069935328
 10
301.3693364189023
 20
129.5024733791579
 10
300.40260559374497
 20
131.0398842936329
 10
298.72847886876866
 20
132.21401363977975
 10
297.33392305114876
 20
133.5805251051479
 10
295.1423321778716
 20
134.49174352032333
 10
292.227133255783
 20
139.0121577022037
 10
287.26884829033315
 20
143.02103580593985
 10
286.53893659530104
 20
146.78659777974053
 10
286.0776238145181
 20
155.8388692771573
 10
286.07420851772804
 20
156.02469441831727
 10
285.9317291934756
 20
158.26188727236058
 10
284.8933632421524
 20
164.8333474943097
 10
285.36882188096456
 20
166.25693077590222
 10
284.9778207617094
 20
172.60919864142443
 10
284.73310342789455
 20
174.24200044032114
 10
285.102567698088
 20
182.29822333052925
 10
284.8153226832417
 20
183.68993497700876
 10
285.96048215310907
 20
191.01609871313622
 10
286.22068103802303
 20
193.21099988886408
 10
286.03416931422066
 20
194.270091587734
 10
284.9396317340761
 20
198.99597371732216
 10
284.39067722263235
 20
200.7786514956142
 10
283.33078431776084
 20
207.0476505267593
 10
282.7660604349137
 20
210.94072354733544
 10
282.482561071831
 20
215.76161644501371
 10
282.07697226249593
 20
219.5127113694698
 10
281.8536928429219
 20
220.2481831241198
 10
280.7663242208139
 20
221.42448162757273
 10
277.93380300397575
 20
224.48867310349078
 10
276.4968624070227
 20
229.8166872182901
 10
277.84837145406664
 20
237.90730682539424
 10
276.73051803141766
 20
242.42443112938872
 10
280.73250218408566
 20
245.1640566361316
 10
284.49736761184295
 20
251.2483589400681
 10
286.0856330834838
 20
259.4502639463235
 10
286.29945386022473
 20
260.1785573974589
 10
286.48118850187916
 20
260.64634109297776
 10
290.5588481539355
 20
270.3609105240066
 10
293.94480329861517
 20
275.9351497761045
 10
296.6637545074318
 20
280.03932055799487
 10
300.68156466462256
 20
287.42995744368
 10
301.6240204611472
 20
289.15850548041817
 10
305.0441354267159
 20
294.896923240422
 10
307.3956242147731
 20
298.75531195038275
 10
308.1412343864579
 20
299.8388088701845
 10
314.91607652333755
 20
308.5752698197857
 10
315.8280767535575
 20
309.68006228591184
 10
317.2601672421779
 20
310.81738113277424
 10
323.24721209250424
 20
315.5808841744829
 10
326.5333114730345
 20
318.43534349142783
 10
329.4538621367926
 20
321.74515632056
 10
334.759675707759
 20
327.7581001737444
 10
337.3213942880941
 20
329.87845655593173
 10
340.3596232631892
 20
332.1713352693191
 10
344.5441921909023
 20
335.3418278981371
 10
348.2165058870237
 20
337.84465550923187
 10
351.60485031487315
 20
339.9262590352778
 10
355.4423863903214
 20
342.9181614898889
 10
358.1142555599397
 20
344.7928913927158
 10
359.7372814105197
 20
346.35366461796457
 10
365.17081046111025
 20
351.27533075556676
 10
372.218022787604
 20
356.21647643764663
 10
372.3048235897404
 20
356.2776458915855
 10
372.6045755106518
 20
356.51819782891425
 10
378.78232571466947
 20
361.0881318020638
 10
381.85373350753594
 20
364.44980722100354
 10
385.4574040513628
 20
368.4975432794313
 10
391.85785421908986
 20
374.4472042963657
 10
393.5533798125339
 20
375.6593139378265
 10
394.9283514194999
 20
376.50301342823695
 10
400.35578467796677
 20
379.7534361987791
 10
404.96803308478
 20
383.53920702030746
 10
406.9123583678879
 20
385.3649030844158
 10
410.20779868481577
 20
387.7372805135292
 10
413.9025877060458
 20
390.05850065536606
 10
416.1818386691075
 20
392.4115438806525
 10
420.43485679989726
 20
396.80230863424777
 10
426.1724710096137
 20
402.0599887906201
 10
427.7303169945112
 20
403.3692166883661
 10
430.42119509616396
 20
405.7195390743386
 10
434.6120157943492
 20
409.4362179149889
 10
436.64136851854073
 20
411.23595693526977
 10
441.2567368120567
 20
415.5488077621735
 10
445.2524987327447
 20
419.89748375197814
 10
448.1147368916786
 20
423.44319732475014
 10
454.897233362954
 20
429.4985024024072
 10
455.0640654632957
 20
429.6923177799299
 10
455.9653991794212
 20
430.57408938366007
 10
461.85043531099063
 20
437.3829556051064
 10
462.2088319918921
 20
437.79761372874964
 10
463.65073766443857
 20
440.6049612478273
 10
465.8601886034744
 20
445.7917937901643
 10
467.5504470652422
 20
450.05006619222604
 10
469.0638864806042
 20
454.6106796502763
 10
470.3934608660152
 20
458.5690181022728
 10
472.5919937424678
 20
464.11721928883435
 10
474.51849057620075
 20
469.5216446812183
 10
475.7085321148734
 20
472.7680239057222
 10
476.0725011007985
 20
474.7538056047183
 10
477.19183242121517
 20
479.7142106071642
 10
476.917642059685
 20
480.45078976640616
 10
475.06312852292604
 20
484.21937799384796
 10
474.61450825982
 20
484.5887715624526
 10
470.4266195064056
 20
489.9066339174892
 10
468.8829173383847
 20
495.845621982814
 10
468.2936403071735
 20
496.7845517769638
 10
465.2723294264988
 20
501.0694465087349
 10
463.8159137741054
 20
504.61523779647086
 10
463.643020404214
 20
504.8583678214022
 10
462.7224720122267
 20
505.4709830744773
 10
459.11738902134357
 20
508.971927632781
 10
455.6740286063218
 20
513.5365783571233
 10
455.2137292206303
 20
514.4243077451797
 10
454.74714827043
 20
514.9522838426701
 10
452.1923774298202
 20
518.354313917735
 10
448.90608787116116
 20
521.6018852459711
 10
448.81038954250425
 20
521.6984329706129
 10
448.7453829820797
 20
521.7496286467958
 10
444.86694946052785
 20
525.0871118572668
 10
442.3958855045689
 20
526.9134849304874
 10
442.0638989482168
 20
527.1020489224225
 10
437.3977721011506
 20
528.1352019262481
 10
436.67501808188945
 20
528.3668255403782
 10
433.8707336748457
 20
529.1277762893833
 10
430.3224023952548
 20
530.2961452043105
 10
428.9666135172729
 20
530.9681725081391
 10
424.70363883552955
 20
533.4244658868602
 10
421.9405057295194
 20
534.8996348025839
 10
419.98072376075106
 20
535.9989361398348
 10
415.17582892772907
 20
538.201214525805
 10
414.0368276239901
 20
538.829275692332
 10
413.0199468999508
 20
539.6746444069577
 10
409.5485735086777
 20
542.49797165073
 10
407.5363236536996
 20
543.8126957474001
 10
405.3311985143873
 20
545.253427935887
 10
400.87742551753945
 20
547.8381297316132
 10
400.2512755891762
 20
548.2015102569603
 10
399.4003176657534
 20
548.8549803730198
 10
395.54909788234727
 20
552.0002994833394
 10
393.0595727033294
 20
553.8232465605606
 10
391.1488225390351
 20
555.4822221287309
 10
388.15439183849617
 20
557.5908325747077
 10
387.8460909421851
 20
557.7464289994687
 10
387.2078742065212
 20
558.0202088258457
 10
382.05762497566616
 20
561.2057487279071
 10
379.35481433781456
 20
563.2589663560548
 10
377.4720464206482
 20
564.5817878393959
 10
374.0780971742547
 20
567.0411516002096
 10
373.1998442887568
 20
567.5796496523535
 10
372.725331290575
 20
567.8955881882766
 10
367.83983561508353
 20
570.926439384451
 10
364.8892020412195
 20
573.9135703769934
 10
363.4639232630325
 20
575.0239337202711
 10
361.5768853005768
 20
576.9596478417889
 10
359.1602413625469
 20
578.9478870587145
 10
357.6632122672206
 20
580.6104590701352
 10
355.79013293049206
 20
582.2431304289489
 10
352.51408772647255
 20
584.2561067851034
 10
350.73512525630895
 20
584.8608220483106
 10
347.04893408764246
 20
586.4597389793139
 10
346.22616141640196
 20
586.7941080876485
 10
342.1317366341327
 20
588.1033001642959
 10
340.0488594008448
 20
588.7219902755769
 10
337.28810915910867
 20
589.1881958935878
 10
333.041479844346
 20
589.6082370443842
 10
330.40640643726897
 20
590.6150058937219
 10
326.4244600319803
 20
591.2460547695628
 10
324.732924145527
 20
591.5996802501099
 10
319.87423468497127
 20
592.439525744312
 10
318.78895133114565
 20
592.5145620571084
 10
313.17166324003233
 20
593.7909420355963
 10
312.86706496311376
 20
593.8423012055446
 10
305.86521819635936
 20
594.2595670351652
 10
305.6645228170371
 20
594.3249188228028
 10
298.971774130589
 20
594.3249188228028
 10
296.9274319391088
 20
595.1337125965374
 10
292.1492009428373
 20
597.5933606535523
 10
289.4472644468726
 20
598.8932455662439
 10
287.95603631078666
 20
599.8443069281047
 10
285.33162058947073
 20
600.1461872134246
 10
283.56478549400504
 20
600.2091928882664
 10
277.92063614140784
 20
600.4010685547496
 10
275.57402953783367
 20
600.9820323222575
 10
269.98578095102584
 20
602.4086793749807
 10
268.7263858554479
 20
602.8161782604784
 10
267.1814946874513
 20
603.6359700534344
 10
263.7974528650964
 20
605.1861373445627
 10
263.5110930508206
 20
605.2774846027564
 10
258.50592853649187
 20
605.8024319549554
 10
256.483458765332
 20
606.5182369493054
 10
253.7095998057432
 20
606.7648522224526
 10
250.67509676477948
 20
606.660636455922
 10
245.87885003229871
 20
607.2746091298127
 10
241.96629721248883
 20
608.3181929684024
 10
238.7523117564183
 20
609.4667109536936
 10
234.6313975867074
 20
611.6487887608268
 10
230.71839382044777
 20
612.2715208110021
 10
228.0504959598643
 20
612.7074593093407
 10
226.91399410654094
 20
613.3043769593901
 10
221.79254108901637
 20
615.8925634300413
 10
219.95951729012677
 20
617.0645991941346
 10
217.60991898765087
 20
617.9826877992687
 10
214.09225277437213
 20
619.3788147168989
 10
212.3147010867051
 20
619.7801486796625
 10
207.6362890679943
 20
622.0686273837978
 10
206.79490618940804
 20
622.426964817374
 10
206.33657755396462
 20
622.620703054663
 10
201.023936443597
 20
625.1486734090345
 10
198.65742837592302
 20
626.6278019129031
 10
195.23088786487824
 20
628.5723306349896
 10
191.53667221161277
 20
632.450075282241
 10
191.50894378263592
 20
632.4711250470095
 10
191.48189720024993
 20
632.4898042792283
 10
186.70334263125983
 20
635.3514761910196
 10
183.9884004664907
 20
637.7086893796063
 10
181.96966773079794
 20
639.1288246125487
 10
179.2420218396319
 20
641.8323314246181
 10
177.06515925984263
 20
643.7564373375571
 10
175.56434034014978
 20
646.0774044397253
 10
173.24252472820353
 20
649.322586843477
 10
171.51720971616555
 20
652.1616147610403
 10
170.13401377721266
 20
653.8771874113436
 10
168.54273446500997
 20
656.2338137740712
 10
166.48588142877725
 20
659.4142988976414
 10
165.17953119080494
 20
661.8548158681597
 10
163.58887193932333
 20
664.2521016120286
 10
161.61629220251757
 20
667.2250199248533
 10
160.22197809363138
 20
669.2408088347588
 10
159.18114183997227
 20
671.0177488433351
 10
156.89193870058648
 20
674.5014420893499
 10
154.27720823777508
 20
679.5852043632494
 10
153.9042651190141
 20
680.2508508990545
 10
153.7502132074535
 20
680.5635544445508
 10
151.06992170915396
 20
684.8679423738013
 10
148.1407648120546
 20
689.3697347788952
 10
147.77014067264417
 20
689.919935619168
 10
147.64310572709724
 20
690.1475588400381
 10
144.51136482186598
 20
694.0546581651215
 10
141.75997362243788
 20
698.3191199791877
 10
141.66657462471835
 20
698.4292418447594
 10
138.3269676134969
 20
700.6307179118262
 10
135.91646841469105
 20
702.4789640123136
 10
135.13008398156444
 20
702.8244101900732
 10
130.6698914686947
 20
704.3365412395219
 10
127.11817019851992
 20
704.8589505294826
 10
125.13785457156428
 20
705.1349485486185
 10
124.5501266898084
 20
705.1608938507757
 10
118.88564172951328
 20
706.5302064153875
 10
117.58738660137078
 20
706.5800976197461
 10
113.39528171897905
 20
707.6080145959368
 10
111.97339934519619
 20
707.4236753404457
 10
107.24140696865425
 20
707.502827308957
 10
106.19734610310206
 20
707.3098069723546
 10
100.21449203132374
 20
705.6010518508779
 10
99.6356942010716
 20
705.3668167836499
 10
93.06030128432462
 20
702.2713486274556
 10
89.8689031438721
 20
701.417882735665
 10
85.86822408102216
 20
700.1490637560828
 10
81.10128329020836
 20
698.5196489618083
 10
79.60431362336408
 20
697.8957364432931
 10
76.89390129145977
 20
696.551329417518
 10
74.1801859854288
 20
694.4631443765093
 10
68.37514244451495
 20
689.2924187273125
 10
67.51557512348927
 20
688.4833243195226
 10
67.14419259994224
 20
688.1392804744778
 10
60.281854036365075
 20
681.6363880728572
 10
56.068466235398546
 20
678.503863435506
 10
53.501520358440985
 20
676.334156005586
 10
47.07591032846926
 20
670.0904488444653
 10
46.126562380349924
 20
668.8027437878377
 10
40.6759361537886
 20
661.4100948546147
 10
35.34100596860003
 20
653.0166806721791
 10
34.4492033225481
 20
650.7041991895007
 10
32.348106607287036
 20
644.4908746908914
 10
29.964724264310235
 20
638.5441848415803
 10
29.1126101054831
 20
636.0699651756677
 10
28.102523005824196
 20
627.6949473005966
 10
27.978517720659738
 20
627.0393674524116
 10
27.745278514875054
 20
625.8853419278448
 10
26.009632136129994
 20
617.7559021218071
 10
25.472255363257773
 20
614.8473904328384
 10
24.579458180161282
 20
609.3434980684183
 10
24.63978553120114
 20
605.4888905780927
 10
24.508128937890433
 20
600.5917366276599
 10
24.629331522002076
 20
596.2982213367441
 10
24.553409068814517
 20
591.3132120780738
 10
24.598531185796446
 20
587.3628763898173
 10
25.097164908954483
 20
582.6363581300084
 10
25.297073067864176
 20
579.2978425051929
 10
26.01429151856769
 20
573.6272249565359
 10
26.28314536224002
 20
571.2395680501659
 10
26.62905284530325
 20
563.6432128609658
 10
26.59703532077765
 20
561.767886910895
 10
26.597042006607126
 20
553.9772376447959
 10
26.430314912815675
 20
552.1000374029986
 10
26.580215118448223
 20
544.7309315093084
 10
26.33092962076921
 20
542.3592337117243
 10
25.777297367584424
 20
535.2382587576199
 10
25.54969398582807
 20
532.1714561651406
 10
25.170184350685076
 20
526.9449869158366
 10
25.637280619817375
 20
524.6315659112438
 10
26.289586546409737
 20
518.083848307002
 10
26.50690573397401
 20
516.5901203787466
 10
27.72290333923911
 20
509.38670115351306
 10
29.35007104297074
 20
502.0369951474063
  0
LWPOLYLINE
  5
90
330
17
100
AcDbEntity
  8
GRABADO
100
AcDbPolyline
 90
541
 70
1
 10
327.6892630014279
 20
598.1329697723882
 10
332.2229356276059
 20
597.4144847093094
 10
334.6637529301497
 20
596.4819342837591
 10
338.2165046730843
 20
596.1305257147542
 10
341.6340794028754
 20
595.5534026867763
 10
344.1945085732575
 20
594.7928623231705
 10
348.61333161821335
 20
593.3799439216373
 10
349.7597940067517
 20
592.9140295567172
 10
353.25853749114594
 20
591.3964196611732
 10
355.1099776631859
 20
590.7670673562616
 10
355.59190759819194
 20
590.580773973024
 10
359.9507964499751
 20
587.9024409063809
 10
362.5818698482317
 20
585.6090633136446
 10
364.0118839648817
 20
584.0209168616475
 10
366.32100704841014
 20
582.1211379992628
 10
368.1427826199106
 20
580.2523697125876
 10
369.54979656784076
 20
579.1562355841825
 10
372.2360455163209
 20
576.4367594829255
 10
376.5111442329428
 20
573.7845847764697
 10
376.97039267113223
 20
573.4788096349193
 10
377.9670625133356
 20
572.8677045904392
 10
381.538066656869
 20
570.2800412098941
 10
383.48553449340056
 20
568.9117619499857
 10
386.0250070570278
 20
566.9826257534592
 10
390.4466698401452
 20
564.2477322371033
 10
390.8057269024275
 20
564.0937052825002
 10
391.7657310056886
 20
563.6092006702506
 10
395.46968571054595
 20
561.0009594507487
 10
397.4294805808104
 20
559.299401670381
 10
399.8337980876595
 20
557.53884764636
 10
403.7469368682937
 20
554.3429588422218
 10
404.1559983281609
 20
554.0288311605855
 10
404.3909972313909
 20
553.8924516434067
 10
409.00491737260836
 20
551.2148100835952
 10
411.36506595245373
 20
549.6727923686026
 10
413.68254337907956
 20
548.1586447051122
 10
417.4659556444344
 20
545.0815309177988
 10
417.9998598389543
 20
544.6376775808394
 10
418.32851395008447
 20
544.4564531311898
 10
423.1565693337179
 20
542.2435593245305
 10
425.30150514033494
 20
541.0403995658903
 10
428.100254942784
 20
539.5462157705165
 10
432.27159261239194
 20
537.14272293671
 10
432.98484024102527
 20
536.7891856798283
 10
435.8833829773266
 20
535.8347744468183
 10
438.6607665256829
 20
535.0811233242403
 10
439.2264348287954
 20
534.8998415419546
 10
444.6053613177937
 20
533.7088636192348
 10
446.2185223067886
 20
532.7926094218924
 10
449.2361974560904
 20
530.5622338692401
 10
453.1959095893226
 20
527.1548085029099
 10
453.47921737729257
 20
526.9316905025375
 10
453.85216929947865
 20
526.5554283463098
 10
457.4798542255635
 20
522.970483884314
 10
460.1771271913053
 20
519.3786925563991
 10
461.0306700358947
 20
518.4128361065509
 10
461.61712935927926
 20
517.28179576096
 10
464.3809354059763
 20
513.6179883889631
 10
467.13697051401095
 20
510.9415656440865
 10
468.59805304240444
 20
509.96923062000087
 10
469.98591297804387
 20
508.0175628321281
 10
471.4477181938578
 20
504.4586501068484
 10
474.12278735447444
 20
500.66480359248726
 10
474.77445828727105
 20
499.62645792079684
 10
475.3601474614952
 20
498.75171752001415
 10
476.83279951209533
 20
493.0860760937903
 10
479.64684380577364
 20
489.512748076766
 10
480.5389296509429
 20
488.7782052998368
 10
481.0972506626513
 20
487.8112146607127
 10
483.35449599505773
 20
483.2242283607784
 10
484.47851514413196
 20
480.20468720996723
 10
482.93214275726723
 20
473.3518160506119
 10
482.4862494538538
 20
470.91906272309325
 10
481.1015888736383
 20
467.1417715996113
 10
479.1446332552964
 20
461.6518998020847
 10
476.9698008540222
 20
456.1635089581
 10
475.7036112214564
 20
452.3938762357043
 10
474.1308363787557
 20
447.65446080797346
 10
472.3343108127001
 20
443.12846942229316
 10
469.9922854824863
 20
437.63040970840257
 10
468.0527186938757
 20
433.85413077714975
 10
467.1464077380965
 20
432.80554628854543
 10
461.06987745365814
 20
425.77512525589236
 10
460.1736327865033
 20
424.89833225086795
 10
459.9023383609597
 20
424.58315890353924
 10
453.20273969138407
 20
418.60186366601783
 10
450.5585666579859
 20
415.3262871092543
 10
446.2308280500183
 20
410.6163135552292
 10
441.3541067821525
 20
406.05924031315635
 10
439.2566056106375
 20
404.19906358859816
 10
435.0460051643704
 20
400.46484284461485
 10
432.28498210541875
 20
398.0532529997781
 10
430.79100467776743
 20
396.79770081692686
 10
425.31777563960713
 20
391.7822908131516
 10
421.20981198912204
 20
387.5412785599892
 10
418.34230356620355
 20
384.58093264927084
 10
414.1184546557124
 20
381.92733507962066
 10
411.37185561790193
 20
379.9500668127198
 10
409.58956026972874
 20
378.2765147427508
 10
404.3966467711689
 20
374.01412931430605
 10
398.5572398467925
 20
370.51698060154285
 10
397.42412967216023
 20
369.8216902609479
 10
396.2944968357674
 20
369.01413014059517
 10
390.4656280006691
 20
363.5957934967332
 10
387.0519722614631
 20
359.7614869865797
 10
383.4917025977645
 20
355.8647491320203
 10
376.8783069283843
 20
350.97255042710594
 10
376.5156695137209
 20
350.68153266688614
 10
376.2435092560122
 20
350.4897384214637
 10
369.546746657159
 20
345.7943102058498
 10
364.514034199143
 20
341.23570193224305
 10
362.57698490282155
 20
339.37294991470435
 10
359.607322372706
 20
337.2892718627181
 10
355.6012973399397
 20
334.1660084215091
 10
352.0218516914806
 20
331.9670033198199
 10
348.6315478914091
 20
329.65637665146596
 10
344.5816347940847
 20
326.58790774959607
 10
341.66361873622736
 20
324.3857508485762
 10
339.6455418973251
 20
322.7153713861485
 10
334.70260808510375
 20
317.1136699533031
 10
331.4746173968035
 20
313.4554403169154
 10
327.7236736289251
 20
310.1971954661981
 10
321.6159737349417
 20
305.3376950364918
 10
320.75780660443206
 20
304.65616711696293
 10
320.38232442655635
 20
304.20130990581765
 10
313.79490055402744
 20
295.7065331629715
 10
313.27209533536643
 20
294.9468092944044
 10
311.0394902191342
 20
291.2834882451939
 10
307.7056892591502
 20
285.6898918808365
 10
306.8294751789356
 20
284.08283706330303
 10
302.66792869387746
 20
276.4278016707226
 10
299.8562499567395
 20
272.18366162010125
 10
296.8118409074343
 20
267.17170378340506
 10
292.9720311373303
 20
258.0237851740608
 10
292.9321237209008
 20
257.92106376351376
 10
292.89518078703327
 20
257.7952326950294
 10
291.12558509417886
 20
248.65692676858043
 10
285.9069382638695
 20
240.22320568548776
 10
284.692203849512
 20
239.3916388280145
 10
284.9913732943021
 20
238.1827275855444
 10
283.6524192223626
 20
230.16726657835352
 10
284.24365780566836
 20
227.9750204105253
 10
285.9065719602222
 20
226.17609747668212
 10
288.0849325606507
 20
223.81958077929994
 10
288.9658308721016
 20
220.9179437720618
 10
289.4604253065763
 20
216.34367882657625
 10
289.73644794670327
 20
211.64992723956266
 10
290.24650605178067
 20
208.13370717500447
 10
291.216044519432
 20
202.39913183590306
 10
291.70292220858073
 20
200.8180426580243
 10
292.8957381563755
 20
195.66782427006638
 10
293.2585268485816
 20
193.60775810089353
 10
293.2585268485816
 20
193.11678046294583
 10
292.89653621227194
 20
190.06321751819542
 10
291.9272762429853
 20
183.86237176289706
 10
292.13541114345776
 20
182.85395125059904
 10
291.75705510388343
 20
174.60384201792021
 10
291.94581522045405
 20
173.3443976904914
 10
292.4391580967915
 20
165.3294689710765
 10
292.07439159288765
 20
164.23731193731282
 10
292.8968476161667
 20
159.0322712342795
 10
293.07011744554234
 20
156.3116096496301
 10
293.074348824588
 20
156.0813817494427
 10
293.50478736069635
 20
147.6349509239394
 10
293.65512902082287
 20
146.85934910483775
 10
297.50137351286685
 20
143.74957920794532
 10
299.84328032988924
 20
140.1181327539498
 10
301.26846083706573
 20
139.5255720078162
 10
303.21775853705026
 20
137.61547445360702
 10
305.5772873518649
 20
135.960646307552
 10
306.8220263874025
 20
133.9811135057539
 10
309.3134550956463
 20
131.62796773379614
 10
309.8157120051342
 20
128.32557719480883
 10
311.7218185497452
 20
125.58837185134962
 10
313.789057816894
 20
122.99285993050444
 10
315.5546975853447
 20
121.40559246910061
 10
316.12560378231933
 20
119.04940395861558
 10
316.7107820020699
 20
113.64290296479749
 10
317.47145665332596
 20
109.79163459437268
 10
318.2526293933797
 20
106.43620113441511
 10
319.41194407628996
 20
100.52204671776326
 10
319.3876499680414
 20
98.66229428416409
 10
318.83649318073753
 20
91.24563127345164
 10
318.2728136879998
 20
87.91035334947537
 10
316.7439992090019
 20
81.98520039540244
 10
316.82924692239294
 20
76.74046467049811
 10
316.23088459302494
 20
72.7189146929627
 10
313.9956146145605
 20
63.7100120538239
 10
313.9822537772625
 20
63.4533971937999
 10
313.79545332597945
 20
63.07991126750994
 10
312.877709959939
 20
62.211733800484126
 10
306.81688688650934
 20
56.17866752210466
 10
304.8474006168112
 20
54.162689175197556
 10
299.8514249287505
 20
47.85699116177511
 10
297.4551913492926
 20
44.90449381334429
 10
292.8805734918176
 20
39.267931393870185
 10
289.9674669846486
 20
35.64176490211685
 10
285.90516776563527
 20
31.36771895072843
 10
280.89158472774784
 20
26.37396671647093
 10
278.91889647200514
 20
24.866588572417186
 10
277.2462649961419
 20
24.153874520460704
 10
271.93705593371647
 20
22.45280831460059
 10
267.49190793629054
 20
20.448729061265112
 10
264.9668869926195
 20
19.00290896158367
 10
258.29630200025554
 20
17.504079700438524
 10
257.99273067992226
 20
17.385583841634798
 10
256.989513329009
 20
17.09817991871114
 10
251.00394895466866
 20
15.210878936448808
 10
249.72568240227383
 20
15.405327577874687
 10
244.02385567515603
 20
14.695720392957355
 10
242.45951674539583
 20
15.037010959526015
 10
237.04061641726298
 20
16.412793370826876
 10
236.5761468231467
 20
16.497939866940214
 10
235.63503640471595
 20
17.10470068249242
 10
231.57208642996306
 20
19.13632099498591
 10
230.0441026157598
 20
20.42157702482382
 10
226.8160047347792
 20
22.08408894119657
 10
223.06657861721874
 20
25.77010987830272
 10
222.77110036865065
 20
25.98583526182665
 10
222.433702117562
 20
26.37662961201795
 10
218.50617590933894
 20
29.58695704257616
 10
216.08863172331394
 20
32.685700878668285
 10
214.79715562101296
 20
33.93575243415944
 10
213.87507686137656
 20
35.64979721275222
 10
211.43700676266212
 20
38.73427751223244
 10
209.11546057163378
 20
42.213662855021084
 10
207.96845054196228
 20
43.37244135516039
 10
206.642157752181
 20
44.8985643812739
 10
203.91706136005723
 20
47.26193895166125
 10
202.1371086668853
 20
50.80363117063189
 10
201.03769233285288
 20
52.70467001774023
 10
199.89081801346447
 20
54.16863215075
 10
197.69289575652556
 20
57.54118344736753
 10
195.99875145720648
 20
63.44594571681637
 10
195.67234247408282
 20
64.11485264627572
 10
195.16616407357128
 20
65.19391141471488
 10
192.66335652702833
 20
69.36559900433849
 10
190.5253081072667
 20
72.69956200706201
 10
189.73989442061907
 20
74.76472779687037
 10
188.19151859157864
 20
79.08935369082747
 10
187.4476699462216
 20
80.98601802953817
 10
187.22501959085048
 20
81.96911767205847
 10
184.87556130601388
 20
86.8036458574934
 10
181.73110825542744
 20
91.20983984420081
 10
181.47307229414992
 20
91.54128709356428
 10
181.22429993100354
 20
92.04512185777412
 10
178.5997534134599
 20
96.9876332406825
 10
176.3236878561495
 20
100.47661984682054
 10
175.44410357449715
 20
102.06790789489378
 10
174.25050394557297
 20
105.33108419355949
 10
173.0646731347124
 20
108.1695015513501
 10
172.36149862270076
 20
109.75113286536453
 10
171.07405607182386
 20
114.7575960168906
 10
167.32169203209128
 20
116.66665420700883
 10
165.92394715106047
 20
117.08415956152749
 10
160.3824549164267
 20
117.28707126908103
 10
158.99229892603307
 20
117.10572802790102
 10
153.41975169763532
 20
116.21063480779458
 10
151.08630969777641
 20
115.86185409034897
 10
146.4535384078465
 20
115.06148127034294
 10
142.796084112857
 20
114.09769296994091
 10
139.4924317821708
 20
112.93261827924016
 10
133.17594998826303
 20
110.57842066521698
 10
132.5084252154952
 20
110.42791563074934
 10
125.67623972925026
 20
109.70116250394813
 10
125.5187948756934
 20
109.68918059733005
 10
125.48663808387914
 20
109.6974532901836
 10
125.45022168609785
 20
109.72303190568346
 10
122.26592746466281
 20
114.7225848112721
 10
118.50358436705369
 20
116.99886287750724
 10
117.75627092456261
 20
117.99048923625332
 10
116.31906018024324
 20
118.97528550633479
 10
113.24567685592069
 20
121.22741346187104
 10
111.54759383606051
 20
121.9345678217478
 10
108.45442192050791
 20
124.11836241082528
 10
104.5823205565548
 20
125.49475650933618
 10
103.13434807011731
 20
126.30318779338586
 10
97.61559691973503
 20
128.101360035776
 10
97.53911422927149
 20
128.13579165360306
 10
97.35800770724995
 20
128.23146631473492
 10
92.68466068038833
 20
130.95830738260975
 10
90.63195144082329
 20
132.24654186907765
 10
87.95309019047568
 20
133.94763530708224
 10
84.17754238573252
 20
137.5216468635599
 10
84.09803282852909
 20
138.16270589648593
 10
83.63290688870484
 20
139.29442799541266
 10
81.39402531059636
 20
143.82172122834163
 10
80.67885368079442
 20
146.83253999612725
 10
83.63713140970299
 20
151.29647602797058
 10
86.29804197271142
 20
156.09855418342704
 10
86.33697029593736
 20
159.6748746017238
 10
85.49668032881914
 20
165.32273432481634
 10
84.9623055782738
 20
167.05440233314812
 10
83.64981614463431
 20
168.0190361447535
 10
81.04431990119338
 20
171.08404819285624
 10
76.6792070036845
 20
174.3722345389683
 10
76.60849889725182
 20
174.45332633594035
 10
76.48888220371987
 20
174.5512599631238
 10
73.65736800419972
 20
179.7703581385581
 10
69.73288842970874
 20
180.21049918693916
 10
67.95519868991323
 20
181.4320438387058
 10
62.76858135020416
 20
182.4696502500792
 10
61.96758433985451
 20
182.76902355955144
 10
61.16426601708895
 20
183.85288262783342
 10
62.72224289155065
 20
186.96628269279518
 10
65.86897987533985
 20
193.14920060040959
 10
67.94446751119972
 20
200.08175854509273
 10
68.0663062316662
 20
202.38818043481297
 10
69.07000924907038
 20
210.83316594751022
 10
69.15508858386556
 20
211.64624190280392
 10
69.15508858386556
 20
220.1624233581001
 10
68.21035421633337
 20
220.8993999635186
 10
69.70458524718379
 20
222.2148339478381
 10
75.72120840854654
 20
230.20796853723914
 10
76.67068281474144
 20
231.52765444918214
 10
82.93410372557105
 20
239.46409586458594
 10
83.63006692660133
 20
240.91155502974925
 10
85.41408106620997
 20
248.69189029825657
 10
85.33562532791984
 20
250.94653421894873
 10
83.9478542201216
 20
257.93138210964435
 10
83.88669980222494
 20
258.2755848909055
 10
83.62787440342981
 20
259.57344553670373
 10
82.33772151213657
 20
265.48822222872695
 10
82.42084084188923
 20
267.21587323983795
 10
83.62826611806327
 20
272.65626102915485
 10
84.57478349703024
 20
276.4814266835524
 10
84.82840966613458
 20
278.0745173885766
 10
86.16752498428855
 20
285.7208431346412
 10
85.37241394144985
 20
288.0128849174689
 10
83.63509241617453
 20
292.0374373978152
 10
82.60609372233193
 20
293.5882828454396
 10
82.10708810460346
 20
294.96634889755614
 10
80.82861762351854
 20
300.5145681235035
 10
80.1719796318173
 20
304.2399980367577
 10
79.97944287720111
 20
308.6615890086787
 10
79.89185776918657
 20
313.50969919790805
 10
80.08389749386129
 20
318.06553240305084
 10
80.17146945729678
 20
322.7575615472397
 10
79.0757127752895
 20
325.96015600660303
 10
77.67631173684413
 20
332.0171931535906
 10
77.54149728308062
 20
333.1842103384238
 10
76.66137720757365
 20
335.12852769509345
 10
75.0988586471351
 20
339.18529124449196
 10
74.13486653251698
 20
341.2655491498881
 10
73.03651345489993
 20
345.7123931357437
 10
70.7392927259325
 20
350.52141244844825
 10
70.38114378739397
 20
351.45156278272316
 10
69.68638272966473
 20
354.9521733854367
 10
68.90441020551589
 20
358.7528399806015
 10
68.58403549314312
 20
359.7660500174529
 10
64.83125304799455
 20
362.5658760276651
 10
62.95382745778102
 20
369.0411328624382
 10
62.85122629674834
 20
369.20290090567096
 10
62.727506205690815
 20
369.43356489583357
 10
59.07875675082778
 20
373.4379412527501
 10
56.0563660777525
 20
378.29850934032174
 10
55.946924752041014
 20
378.56251115005625
 10
55.75032205422713
 20
378.94625469442735
 10
53.45931940969194
 20
384.5183333861082
 10
51.890634995119854
 20
387.5641818301265
 10
50.93114033662164
 20
390.4207860256274
 10
48.780565878539846
 20
394.03562339383325
 10
48.03800074902597
 20
395.8318451473856
 10
47.395359987645406
 20
396.8239732981765
 10
46.02583916696494
 20
402.44158702767027
 10
44.877984188544815
 20
406.0922087736908
 10
43.97220747077881
 20
408.9728870274562
 10
42.278302763494594
 20
415.3541408858018
 10
42.13610367868159
 20
415.7960028481034
 10
41.80425412178738
 20
417.29952559491903
 10
40.348694426697875
 20
422.68205917908836
 10
39.832390765702485
 20
424.6108546561936
 10
37.98809619204985
 20
428.7950654010406
 10
36.21243776044935
 20
433.87692078865257
 10
35.934051269004385
 20
435.3454367951499
 10
34.8327838968994
 20
441.0838740661279
 10
34.512414662746096
 20
442.7119246354173
 10
34.3808577781258
 20
443.1362072148354
 10
32.67286210974157
 20
449.52601783759155
 10
31.829212560369797
 20
452.39489114787466
 10
30.59094071521463
 20
456.01189628801194
 10
28.25698531610874
 20
461.65279089599926
 10
28.13935309727981
 20
462.03114455266814
 10
27.86122552344318
 20
464.41766009393905
 10
27.18797602572363
 20
470.0332670273674
 10
27.034006318943966
 20
470.9229200643558
 10
25.444623309688495
 20
476.97251414731636
 10
24.954981194365246
 20
480.1853405532793
 10
24.0016845323114
 20
484.3217081718162
 10
23.677436065654547
 20
489.4488225633909
 10
23.005435970176222
 20
492.2595693986027
 10
22.750991894635945
 20
498.7137953095098
 10
22.457176168485148
 20
500.78761159289843
 10
20.892374397675667
 20
507.855618748466
 10
20.86925394851596
 20
507.9330590854711
 10
20.862645405849207
 20
507.967876611026
 10
19.591301598191194
 20
515.5034905480024
 10
19.339744930913184
 20
517.2325473499518
 10
18.706463101997542
 20
523.5893048322878
 10
18.119265389832663
 20
526.4975608192058
 10
18.56847954291129
 20
532.683975444842
 10
18.79740528368552
 20
535.7685959363034
 10
19.359351690428866
 20
542.9965098899238
 10
19.57274916632332
 20
545.0267696856245
 10
19.424001735633283
 20
552.3392050725097
 10
19.597041740355962
 20
554.2874831316967
 10
19.597035269499884
 20
561.827635211413
 10
19.6263328917139
 20
563.5436514252733
 10
19.301002740040303
 20
570.6881149216547
 10
19.063609378269803
 20
572.7963752761102
 10
18.32340201030661
 20
578.6487524511549
 10
18.11915922649041
 20
582.0596573824237
 10
17.602735700075073
 20
586.9548040883828
 10
17.552800223018266
 20
591.3265381807018
 10
17.627826973593756
 20
596.2527363021331
 10
17.50547321232557
 20
600.5870312246093
 10
17.638313077574594
 20
605.5281986551181
 10
17.570625281198318
 20
609.853100750408
 10
18.5748385604536
 20
616.0438481055617
 10
19.14371430470942
 20
619.1228456269746
 10
20.89158286727161
 20
627.309531833464
 10
21.108598321349064
 20
628.3832851606044
 10
21.180940321305798
 20
628.7657362576374
 10
22.25200406798217
 20
637.6463347988765
 10
23.402677954237106
 20
640.9874598452466
 10
25.778781068696617
 20
646.9159875585237
 10
27.86516372009305
 20
653.0857998985439
 10
29.060171232778657
 20
656.1845042553668
 10
34.84382940202204
 20
665.2838995274665
 10
34.96100643550085
 20
665.4546106135649
 10
40.49241332250608
 20
672.9568218316399
 10
41.79329921219346
 20
674.7213564798576
 10
41.825722898165395
 20
674.7524625215988
 10
41.88983692322836
 20
674.811566407654
 10
48.79739661299709
 20
681.5235796950628
 10
51.7165992039304
 20
683.9910316222131
 10
55.77016058171557
 20
687.004730214594
 10
62.35803087722775
 20
693.2475308707626
 10
62.73801671468186
 20
693.5995447117252
 10
63.64737156983824
 20
694.4555031806044
 10
69.71202365560657
 20
699.8574699138976
 10
73.16876474909282
 20
702.5174081270243
 10
76.69947164552764
 20
704.2686941220172
 10
78.62009692661672
 20
705.0691793842034
 10
83.67781580518476
 20
706.7979866691398
 10
87.90556532246978
 20
708.1388212485149
 10
90.64611604292804
 20
708.8717183869148
 10
96.82980850276408
 20
711.7827874803479
 10
97.61479825246988
 20
712.1004668446876
 10
97.95831740583617
 20
712.2365756296167
 10
104.59623222556479
 20
714.1324217940155
 10
106.6578753117119
 20
714.5135672382817
 10
111.57986222891554
 20
714.4312372338177
 10
113.79219677721926
 20
714.7180542807487
 10
118.56525549290973
 20
713.5476856425926
 10
119.85194923362724
 20
713.4982387357604
 10
125.53603329214616
 20
712.1241883544467
 10
125.77676116323278
 20
712.113561400125
 10
128.11063414659225
 20
711.7882878368837
 10
132.07196949015656
 20
711.2056299573073
 10
132.51678759418724
 20
711.1017421207348
 10
137.66631917663312
 20
709.355905685768
 10
139.50531322490497
 20
708.5480648408357
 10
142.38810579959795
 20
706.3376886095016
 10
146.4898307431738
 20
703.6338227753986
 10
146.91768023576788
 20
703.0600226925817
 10
147.3941328439771
 20
702.4982623808692
 10
150.19831863285503
 20
698.1519726861497
 10
153.47069907274476
 20
694.0694142003081
 10
153.7396897537535
 20
693.5874324516508
 10
153.97762968422876
 20
693.2342046508652
 10
156.97524515832038
 20
688.6271989325919
 10
159.8760221383775
 20
683.9687244993715
 10
160.10170207996225
 20
683.5106262053223
 10
160.44503612372796
 20
682.8978273484463
 10
162.9464839887662
 20
678.0343179094139
 10
165.13013396191081
 20
674.7112547298198
 10
166.1288833002195
 20
673.006166487994
 10
167.41173799650142
 20
671.1515167693228
 10
169.42169113554087
 20
668.1222721798767
 10
171.19505076855216
 20
665.4496383253336
 10
172.52087211841854
 20
662.9727455211141
 10
174.38292497971202
 20
660.0934773768558
 10
175.76945398628732
 20
658.0400787154613
 10
177.25806117250613
 20
656.1937648970047
 10
179.08820953061127
 20
653.182232367762
 10
181.35308131006718
 20
650.016639885901
 10
182.42130395328627
 20
648.3646686985908
 10
184.02771323876664
 20
646.9447804458873
 10
186.4790176285187
 20
644.515169572418
 10
188.30803253849422
 20
643.2284967656078
 10
190.82782415839984
 20
641.0407204969238
 10
195.27306207081915
 20
638.3786576719535
 10
195.61625775730909
 20
638.1416357875296
 10
196.21706431789698
 20
637.6855393825608
 10
199.58552742940196
 20
634.1497306951183
 10
202.24153527343947
 20
632.6424718367534
 10
204.393883868177
 20
631.2971985202475
 10
209.2045701961897
 20
629.0080786326525
 10
209.52905882024515
 20
628.8709153633667
 10
210.54761856141658
 20
628.4371198905983
 10
214.65502897026568
 20
626.4279507083625
 10
216.1667763170335
 20
626.0866298018677
 10
220.17488834446908
 20
624.4958497928787
 10
223.149418472653
 20
623.333573580202
 10
225.26544865591586
 20
621.9805834803533
 10
230.12028576582497
 20
619.5271344919338
 10
230.3000629029773
 20
619.4327112880228
 10
231.83290095848702
 20
619.1822432584977
 10
236.51299955429158
 20
618.4374324768887
 10
237.08497691358502
 20
618.2703704998062
 10
241.58254663438697
 20
615.8888486651772
 10
244.04963750584784
 20
615.0072335253612
 10
247.23127486478188
 20
614.1586046426469
 10
251.00150491378236
 20
613.6759734617503
 10
253.90013948318165
 20
613.7755230154876
 10
257.98478500278225
 20
613.4123697386981
 10
260.06025203849276
 20
612.6778076251107
 10
264.95485997678134
 20
612.1644555724656
 10
266.32797109662465
 20
611.726440425995
 10
270.2823481938442
 20
609.9150130398434
 10
271.46535935169186
 20
609.2872517720793
 10
271.9309556732171
 20
609.136600095906
 10
277.28093566599273
 20
607.7707816162415
 10
278.89120515005584
 20
607.3721173387526
 10
283.8084325915422
 20
607.2049537444459
 10
285.8571283172412
 20
607.1318968660339
 10
290.3593220531293
 20
606.6140202512443
 10
292.85877322714146
 20
605.0199439459916
 10
295.2690187251851
 20
603.8603897656958
 10
299.82394711947995
 20
601.5156892303698
 10
300.30614666866086
 20
601.3249188228028
 10
306.77550812316304
 20
601.3249188228028
 10
307.1783918770145
 20
601.1937290883243
 10
313.74649178773325
 20
600.8023118309102
 10
313.8384043259184
 20
600.777329556875
 10
314.53018759238535
 20
600.6606860396851
 10
319.8119634703621
 20
599.4605423276016
 10
320.7139854000791
 20
599.3981766795623
 10
326.04568610439355
 20
598.4765691454104
 10
327.6892630014279
 20
598.1329697723882
  0
TEXT
  5
91
330
17
100
AcDbEntity
  8
GRABADO
100
AcDbText
 10
392.84905124082485
 20
365.5297551326996
 30
0.0
 40
6.0
  1
78e
 72
1
 11
392.84905124082485
 21
365.5297551326996
 31
0.0
100
AcDbText
 73
2
  0
TEXT
  5
92
330
17
100
AcDbEntity
  8
HOJA
100
AcDbText
 10
10.0
 20
891.0
 30
0.0
 40
6.0
  1
gale_crater  hoja 27/39  1:30  lamina 3.0mm
 11
10.0
 21
891.0
 31
0.0
100
AcDbText
  0
ENDSEC
  0
SECTION
  2
OBJECTS
  0
DICTIONARY
  5
A
330
0
100
AcDbDictionary
281
1
  3
ACAD_COLOR
350
B
  3
ACAD_GROUP
350
C
  3
ACAD_LAYOUT
350
D
  3
ACAD_MATERIAL
350
E
  3
ACAD_MLEADERSTYLE
350
F
  3
ACAD_MLINESTYLE
350
10
  3
ACAD_PLOTSETTINGS
350
11
  3
ACAD_PLOTSTYLENAME
350
12
  3
ACAD_SCALELIST
350
14
  3
ACAD_TABLESTYLE
350
15
  3
ACAD_VISUALSTYLE
350
16
  3
EZDXF_META
350
2D
  0
DICTIONARY
  5
B
330
A
100
AcDbDictionary
281
1
  0
DICTIONARY
  5
C
330
A
100
AcDbDictionary
281
1
  0
DICTIONARY
  5
D
330
A
100
AcDbDictionary
281
1
  3
Model
350
1A
  3
Layout1
350
1E
  0
DICTIONARY
  5
E
330
A
100
AcDbDictionary
281
1
  3
ByBlock
350
1F
  3
ByLayer
350
20
  3
Global
350
21
  0
DICTIONARY
  5
F
330
A
100
AcDbDictionary
281
1
  3
Standard
350
2C
  0
DICTIONARY
  5
10
330
A
100
AcDbDictionary
281
1
  3
Standard
350
22
  0
DICTIONARY
  5
11
330
A
100
AcDbDictionary
281
1
  0
ACDBDICTIONARYWDFLT
  5
12
330
A
100
AcDbDictionary
281
1
  3
Normal
350
13
100
AcDbDictionaryWithDefault
340
13
  0
ACDBPLACEHOLDER
  5
13
330
12
  0
DICTIONARY
  5
14
330
A
100
AcDbDictionary
281
1
  0
DICTIONARY
  5
15
330
A
100
AcDbDictionary
281
1
  0
DICTIONARY
  5
16
330
A
100
AcDbDictionary
281
1
  3
2dWireframe
350
5A
  3
Basic
350
5B
  3
Brighten
350
5C
  3
ColorChange
350
5D
  3
Conceptual
350
5E
  3
Dim
350
5F
  3
EdgeColorOff
350
60
  3
Facepattern
350
61
  3
Flat
350
62
  3
FlatWithEdges
350
63
  3
Gouraud
350
64
  3
GouraudWithEdges
350
65
  3
Hidden
350
66
  3
JitterOff
350
67
  3
Linepattern
350
68
  3
Modeling
350
69
  3
OverhangOff
350
6A
  3
Realistic
350
6B
  3
Shaded
350
6C
  3
Shaded with edges
350
6D
  3
Shades of Gray
350
6E
  3
Sketchy
350
6F
  3
Thicken
350
70
  3
Wireframe
350
71
  3
X-Ray
350
72
  0
LAYOUT
  5
1A
330
D
100
AcDbPlotSettings
  1

  4
A3
  6

 40
7.5
 41
20.0
 42
7.5
 43
20.0
 44
420.0
 45
297.0
 46
0.0
 47
0.0
 48
0.0
 49
0.0
140
0.0
141
0.0
142
1.0
143
1.0
 70
1024
 72
1
 73
0
 74
5
  7

 75
16
 76
0
 77
2
 78
300
147
1.0
148
0.0
149
0.0
100
AcDbLayout
  1
Model
 70
1
 71
0
 10
0.0
 20
0.0
 11
420.0
 21
297.0
 12
0.0
 22
0.0
 32
0.0
 14
1e+20
 24
1e+20
 34
1e+20
 15
-1e+20
 25
-1e+20
 35
-1e+20
146
0.0
 13
0.0
 23
0.0
 33
0.0
 16
1.0
 26
0.0
 36
0.0
 17
0.0
 27
1.0
 37
0.0
 76
1
330
17
  0
LAYOUT
  5
1E
330
D
100
AcDbPlotSettings
  1

  4
A3
  6

 40
7.5
 41
20.0
 42
7.5
 43
20.0
 44
420.0
 45
297.0
 46
0.0
 47
0.0
 48
0.0
 49
0.0
140
0.0
141
0.0
142
1.0
143
1.0
 70
0
 72
1
 73
0
 74
5
  7

 75
16
 76
0
 77
2
 78
300
147
1.0
148
0.0
149
0.0
100
AcDbLayout
  1
Layout1
 70
1
 71
1
 10
0.0
 20
0.0
 11
420.0
 21
297.0
 12
0.0
 22
0.0
 32
0.0
 14
1e+20
 24
1e+20
 34
1e+20
 15
-1e+20
 25
-1e+20
 35
-1e+20
146
0.0
 13
0.0
 23
0.0
 33
0.0
 16
1.0
 26
0.0
 36
0.0
 17
0.0
 27
1.0
 37
0.0
 76
1
330
1B
  0
MATERIAL
  5
1F
102
{ACAD_REACTORS
330
E
102
}
330
E
100
AcDbMaterial
  1
ByBlock
  2

 70
0
 40
1.0
 71
1
 41
1.0
 91
-1023410177
 42
1.0
 72
1
  3

 73
1
 74
1
 75
1
 44
0.5
 73
0
 45
1.0
 46
1.0
 77
1
  4

 78
1
 79
1
170
1
 48
1.0
171
1
  6

172
1
173
1
174
1
140
1.0
141
1.0
175
1
  7

176
1
177
1
178
1
143
1.0
179
1
  8

270
1
271
1
272
1
145
1.0
146
1.0
273
1
  9

274
1
275
1
276
1
 42
1.0
 72
1
  3

 73
1
 74
1
 75
1
 94
63
  0
MATERIAL
  5
20
102
{ACAD_REACTORS
330
E
102
}
330
E
100
AcDbMaterial
  1
ByLayer
  2

 70
0
 40
1.0
 71
1
 41
1.0
 91
-1023410177
 42
1.0
 72
1
  3

 73
1
 74
1
 75
1
 44
0.5
 73
0
 45
1.0
 46
1.0
 77
1
  4

 78
1
 79
1
170
1
 48
1.0
171
1
  6

172
1
173
1
174
1
140
1.0
141
1.0
175
1
  7

176
1
177
1
178
1
143
1.0
179
1
  8

270
1
271
1
272
1
145
1.0
146
1.0
273
1
  9

274
1
275
1
276
1
 42
1.0
 72
1
  3

 73
1
 74
1
 75
1
 94
63
  0
MATERIAL
  5
21
102
{ACAD_REACTORS
330
E
102
}
330
E
100
AcDbMaterial
  1
Global
  2

 70
0
 40
1.0
 71
1
 41
1.0
 91
-1023410177
 42
1.0
 72
1
  3

 73
1
 74
1
 75
1
 44
0.5
 73
0
 45
1.0
 46
1.0
 77
1
  4

 78
1
 79
1
170
1
 48
1.0
171
1
  6

172
1
173
1
174
1
140
1.0
141
1.0
175
1
  7

176
1
177
1
178
1
143
1.0
179
1
  8

270
1
271
1
272
1
145
1.0
146
1.0
273
1
  9

274
1
275
1
276
1
 42
1.0
 72
1
  3

 73
1
 74
1
 75
1
 94
63
  0
MLINESTYLE
  5
22
102
{ACAD_REACTORS
330
10
102
}
330
10
100
AcDbMlineStyle
  2
Standard
 70
0
  3

 62
256
 51
90.0
 52
90.0
 71
2
 49
0.5
 62
256
  6
BYLAYER
 49
-0.5
 62
256
  6
BYLAYER
  0
MLEADERSTYLE
  5
2C
102
{ACAD_REACTORS
330
F
102
}
330
F
100
AcDbMLeaderStyle
179
2
170
2
171
1
172
0
 90
2
 40
0.0
 41
0.0
173
1
 91
-1056964608
 92
-2
290
1
 42
2.0
291
1
 43
8.0
  3
Standard
 44
4.0
300

342
29
174
1
175
1
176
0
178
1
 93
-1056964608
 45
4.0
292
0
297
0
 46
4.0
 94
-1056964608
 47
1.0
 49
1.0
140
1.0
294
1
141
0.0
177
0
142
1.0
295
0
296
0
143
3.75
271
0
272
9
273
9
  0
DICTIONARY
  5
2D
330
A
100
AcDbDictionary
280
1
281
1
  3
CREATED_BY_EZDXF
350
2E
  3
WRITTEN_BY_EZDXF
350
95
  0
DICTIONARYVAR
  5
2E
330
2D
100
DictionaryVariables
280
0
  1
1.4.2 @ 2026-09-06T16:30:42.580604+00:00
  0
VISUALSTYLE
  5
5A
102
{ACAD_REACTORS
330
16
102
}
330
16
100
AcDbVisualStyle
  2
2dWireframe
 70
4
 90
0
 40
0.6
 62
7
290
0
291
0
  0
VISUALSTYLE
  5
5B
102
{ACAD_REACTORS
330
16
102
}
330
16
100
AcDbVisualStyle
  2
Basic
 70
7
 90
1
 40
0.6
 62
7
290
0
291
1
  0
VISUALSTYLE
  5
5C
102
{ACAD_REACTORS
330
16
102
}
330
16
100
AcDbVisualStyle
  2
Brighten
 70
12
 90
2
 40
0.6
 62
7
290
0
291
1
  0
VISUALSTYLE
  5
5D
102
{ACAD_REACTORS
330
16
102
}
330
16
100
AcDbVisualStyle
  2
ColorChange
 70
16
 90
2
 40
0.6
 62
8
290
0
291
1
  0
VISUALSTYLE
  5
5E
102
{ACAD_REACTORS
330
16
102
}
330
16
100
AcDbVisualStyle
  2
Conceptual
 70
9
 90
3
 40
0.6
 62
7
290
0
291
0
  0
VISUALSTYLE
  5
5F
102
{ACAD_REACTORS
330
16
102
}
330
16
100
AcDbVisualStyle
  2
Dim
 70
11
 90
2
 40
0.6
 62
7
290
0
291
1
  0
VISUALSTYLE
  5
60
102
{ACAD_REACTORS
330
16
102
}
330
16
100
AcDbVisualStyle
  2
EdgeColorOff
 70
22
 90
2
 40
0.6
 62
7
290
0
291
1
  0
VISUALSTYLE
  5
61
102
{ACAD_REACTORS
330
16
102
}
330
16
100
AcDbVisualStyle
  2
Facepattern
 70
15
 90
2
 40
0.6
 62
7
290
0
291
1
  0
VISUALSTYLE
  5
62
102
{ACAD_REACTORS
330
16
102
}
330
16
100
AcDbVisualStyle
  2
Flat
 70
0
 90
2
 40
0.6
 62
7
290
0
291
1
  0
VISUALSTYLE
  5
63
102
{ACAD_REACTORS
330
16
102
}
330
16
100
AcDbVisualStyle
  2
FlatWithEdges
 70
1
 90
2
 40
0.6
 62
7
290
0
291
1
  0
VISUALSTYLE
  5
64
102
{ACAD_REACTORS
330
16
102
}
330
16
100
AcDbVisualStyle
  2
Gouraud
 70
2
 90
2
 40
0.6
 62
7
290
0
291
1
  0
VISUALSTYLE
  5
65
102
{ACAD_REACTORS
330
16
102
}
330
16
100
AcDbVisualStyle
  2
GouraudWithEdges
 70
3
 90
2
 40
0.6
 62
7
290
0
291
1
  0
VISUALSTYLE
  5
66
102
{ACAD_REACTORS
330
16
102
}
330
16
100
AcDbVisualStyle
  2
Hidden
 70
6
 90
1
 40
0.6
 62
7
290
0
291
0
  0
VISUALSTYLE
  5
67
102
{ACAD_REACTORS
330
16
102
}
330
16
100
AcDbVisualStyle
  2
JitterOff
 70
20
 90
2
 40
0.6
 62
7
290
0
291
1
  0
VISUALSTYLE
  5
68
102
{ACAD_REACTORS
330
16
102
}
330
16
100
AcDbVisualStyle
  2
Linepattern
 70
14
 90
2
 40
0.6
 62
7
290
0
291
1
  0
VISUALSTYLE
  5
69
102
{ACAD_REACTORS
330
16
102
}
330
16
100
AcDbVisualStyle
  2
Modeling
 70
10
 90
2
 40
0.6
 62
7
290
0
291
0
  0
VISUALSTYLE
  5
6A
102
{ACAD_REACTORS
330
16
102
}
330
16
100
AcDbVisualStyle
  2
OverhangOff
 70
21
 90
2
 40
0.6
 62
7
290
0
291
1
  0
VISUALSTYLE
  5
6B
102
{ACAD_REACTORS
330
16
102
}
330
16
100
AcDbVisualStyle
  2
Realistic
 70
8
 90
2
 40
0.6
 62
7
290
0
291
0
  0
VISUALSTYLE
  5
6C
102
{ACAD_REACTORS
330
16
102
}
330
16
100
AcDbVisualStyle
  2
Shaded
 70
27
 90
2
 40
0.6
 62
7
290
0
291
0
  0
VISUALSTYLE
  5
6D
102
{ACAD_REACTORS
330
16
102
}
330
16
100
AcDbVisualStyle
  2
Shaded with edges
 70
26
 90
2
 40
0.6
 62
7
290
0
291
0
  0
VISUALSTYLE
  5
6E
102
{ACAD_REACTORS
330
16
102
}
330
16
100
AcDbVisualStyle
  2
Shades of Gray
 70
23
 90
2
 40
0.6
 62
7
290
0
291
0
  0
VISUALSTYLE
  5
6F
102
{ACAD_REACTORS
330
16
102
}
330
16
100
AcDbVisualStyle
  2
Sketchy
 70
24
 90
1
 40
0.6
 62
7
290
0
291
0
  0
VISUALSTYLE
  5
70
102
{ACAD_REACTORS
330
16
102
}
330
16
100
AcDbVisualStyle
  2
Thicken
 70
13
 90
2
 40
0.6
 62
7
290
0
291
1
  0
VISUALSTYLE
  5
71
102
{ACAD_REACTORS
330
16
102
}
330
16
100
AcDbVisualStyle
  2
Wireframe
 70
5
 90
0
 40
0.6
 62
7
290
0
291
0
  0
VISUALSTYLE
  5
72
102
{ACAD_REACTORS
330
16
102
}
330
16
100
AcDbVisualStyle
  2
X-Ray
 70
25
 90
2
 40
0.5
 62
7
290
0
291
0
  0
DICTIONARYVAR
  5
95
330
2D
100
DictionaryVariables
280
0
  1
1.4.2 @ 2026-09-06T16:30:42.588031+00:00
  0
ENDSEC
  0
EOF
