  0
SECTION
  2
HEADER
  9
$ACADVER
  1
AC1024
  9
$ACADMAINTVER
 70
6
  9
$DWGCODEPAGE
  3
ANSI_1252
  9
$LASTSAVEDBY
  1
ezdxf
  9
$INSBASE
 10
0.0
 20
0.0
 30
0.0
  9
$EXTMIN
 10
1e+20
 20
1e+20
 30
1e+20
  9
$EXTMAX
 10
-1e+20
 20
-1e+20
 30
-1e+20
  9
$LIMMIN
 10
0.0
 20
0.0
  9
$LIMMAX
 10
420.0
 20
297.0
  9
$ORTHOMODE
 70
0
  9
$REGENMODE
 70
1
  9
$FILLMODE
 70
1
  9
$QTEXTMODE
 70
0
  9
$MIRRTEXT
 70
1
  9
$LTSCALE
 40
1.0
  9
$ATTMODE
 70
1
  9
$TEXTSIZE
 40
2.5
  9
$TRACEWID
 40
1.0
  9
$TEXTSTYLE
  7
OpenSans
  9
$CLAYER
  8
0
  9
$CELTYPE
  6
ByLayer
  9
$CECOLOR
 62
256
  9
$CELTSCALE
 40
1.0
  9
$DISPSILH
 70
0
  9
$DIMSCALE
 40
1.0
  9
$DIMASZ
 40
0.175
  9
$DIMEXO
 40
0.125
  9
$DIMDLI
 40
3.75
  9
$DIMRND
 40
0.0
  9
$DIMDLE
 40
0.0
  9
$DIMEXE
 40
0.375
  9
$DIMTP
 40
0.0
  9
$DIMTM
 40
0.0
  9
$DIMTXT
 40
0.25
  9
$DIMCEN
 40
2.5
  9
$DIMTSZ
 40
0.0
  9
$DIMTOL
 70
0
  9
$DIMLIM
 70
0
  9
$DIMTIH
 70
0
  9
$DIMTOH
 70
0
  9
$DIMSE1
 70
0
  9
$DIMSE2
 70
0
  9
$DIMTAD
 70
1
  9
$DIMZIN
 70
12
  9
$DIMBLK
  1
ARCHTICK
  9
$DIMASO
 70
1
  9
$DIMSHO
 70
1
  9
$DIMPOST
  1

  9
$DIMAPOST
  1

  9
$DIMALT
 70
0
  9
$DIMALTD
 70
3
  9
$DIMALTF
 40
0.03937007874
  9
$DIMLFAC
 40
100.0
  9
$DIMTOFL
 70
1
  9
$DIMTVP
 40
0.0
  9
$DIMTIX
 70
0
  9
$DIMSOXD
 70
0
  9
$DIMSAH
 70
0
  9
$DIMBLK1
  1

  9
$DIMBLK2
  1

  9
$DIMSTYLE
  2
EZDXF
  9
$DIMCLRD
 70
0
  9
$DIMCLRE
 70
0
  9
$DIMCLRT
 70
0
  9
$DIMTFAC
 40
0.5
  9
$DIMGAP
 40
0.1
  9
$DIMJUST
 70
0
  9
$DIMSD1
 70
0
  9
$DIMSD2
 70
0
  9
$DIMTOLJ
 70
0
  9
$DIMTZIN
 70
8
  9
$DIMALTZ
 70
0
  9
$DIMALTTZ
 70
0
  9
$DIMUPT
 70
1
  9
$DIMDEC
 70
2
  9
$DIMTDEC
 70
2
  9
$DIMALTU
 70
2
  9
$DIMALTTD
 70
3
  9
$DIMTXSTY
  7
OpenSansCondensed-Light
  9
$DIMAUNIT
 70
0
  9
$DIMADEC
 70
2
  9
$DIMALTRND
 40
0.0
  9
$DIMAZIN
 70
3
  9
$DIMDSEP
 70
46
  9
$DIMATFIT
 70
3
  9
$DIMFRAC
 70
0
  9
$DIMLDRBLK
  1

  9
$DIMLUNIT
 70
2
  9
$DIMLWD
 70
-2
  9
$DIMLWE
 70
-2
  9
$DIMTMOVE
 70
2
  9
$DIMFXL
 40
1.0
  9
$DIMFXLON
 70
0
  9
$DIMJOGANG
 40
0.785398163397
  9
$DIMTFILL
 70
0
  9
$DIMTFILLCLR
 70
0
  9
$DIMARCSYM
 70
0
  9
$DIMLTYPE
  6

  9
$DIMLTEX1
  6

  9
$DIMLTEX2
  6

  9
$DIMTXTDIRECTION
 70
0
  9
$LUNITS
 70
2
  9
$LUPREC
 70
4
  9
$SKETCHINC
 40
1.0
  9
$FILLETRAD
 40
10.0
  9
$AUNITS
 70
0
  9
$AUPREC
 70
2
  9
$MENU
  1
.
  9
$ELEVATION
 40
0.0
  9
$PELEVATION
 40
0.0
  9
$THICKNESS
 40
0.0
  9
$LIMCHECK
 70
0
  9
$CHAMFERA
 40
0.0
  9
$CHAMFERB
 40
0.0
  9
$CHAMFERC
 40
0.0
  9
$CHAMFERD
 40
0.0
  9
$SKPOLY
 70
0
  9
$TDCREATE
 40
2461290.4379861113
  9
$TDUCREATE
 40
2458532.153996898
  9
$TDUPDATE
 40
2461290.4379861113
  9
$TDUUPDATE
 40
2458532.1544311
  9
$TDINDWG
 40
0.0
  9
$TDUSRTIMER
 40
0.0
  9
$USRTIMER
 70
1
  9
$ANGBASE
 50
0.0
  9
$ANGDIR
 70
0
  9
$PDMODE
 70
0
  9
$PDSIZE
 40
0.0
  9
$PLINEWID
 40
0.0
  9
$SPLFRAME
 70
0
  9
$SPLINETYPE
 70
6
  9
$SPLINESEGS
 70
8
  9
$HANDSEED
  5
9A
  9
$SURFTAB1
 70
6
  9
$SURFTAB2
 70
6
  9
$SURFTYPE
 70
6
  9
$SURFU
 70
6
  9
$SURFV
 70
6
  9
$UCSBASE
  2

  9
$UCSNAME
  2

  9
$UCSORG
 10
0.0
 20
0.0
 30
0.0
  9
$UCSXDIR
 10
1.0
 20
0.0
 30
0.0
  9
$UCSYDIR
 10
0.0
 20
1.0
 30
0.0
  9
$UCSORTHOREF
  2

  9
$UCSORTHOVIEW
 70
0
  9
$UCSORGTOP
 10
0.0
 20
0.0
 30
0.0
  9
$UCSORGBOTTOM
 10
0.0
 20
0.0
 30
0.0
  9
$UCSORGLEFT
 10
0.0
 20
0.0
 30
0.0
  9
$UCSORGRIGHT
 10
0.0
 20
0.0
 30
0.0
  9
$UCSORGFRONT
 10
0.0
 20
0.0
 30
0.0
  9
$UCSORGBACK
 10
0.0
 20
0.0
 30
0.0
  9
$PUCSBASE
  2

  9
$PUCSNAME
  2

  9
$PUCSORG
 10
0.0
 20
0.0
 30
0.0
  9
$PUCSXDIR
 10
1.0
 20
0.0
 30
0.0
  9
$PUCSYDIR
 10
0.0
 20
1.0
 30
0.0
  9
$PUCSORTHOREF
  2

  9
$PUCSORTHOVIEW
 70
0
  9
$PUCSORGTOP
 10
0.0
 20
0.0
 30
0.0
  9
$PUCSORGBOTTOM
 10
0.0
 20
0.0
 30
0.0
  9
$PUCSORGLEFT
 10
0.0
 20
0.0
 30
0.0
  9
$PUCSORGRIGHT
 10
0.0
 20
0.0
 30
0.0
  9
$PUCSORGFRONT
 10
0.0
 20
0.0
 30
0.0
  9
$PUCSORGBACK
 10
0.0
 20
0.0
 30
0.0
  9
$USERI1
 70
0
  9
$USERI2
 70
0
  9
$USERI3
 70
0
  9
$USERI4
 70
0
  9
$USERI5
 70
0
  9
$USERR1
 40
0.0
  9
$USERR2
 40
0.0
  9
$USERR3
 40
0.0
  9
$USERR4
 40
0.0
  9
$USERR5
 40
0.0
  9
$WORLDVIEW
 70
1
  9
$SHADEDGE
 70
3
  9
$SHADEDIF
 70
70
  9
$TILEMODE
 70
1
  9
$MAXACTVP
 70
64
  9
$PINSBASE
 10
0.0
 20
0.0
 30
0.0
  9
$PLIMCHECK
 70
0
  9
$PEXTMIN
 10
1e+20
 20
1e+20
 30
1e+20
  9
$PEXTMAX
 10
-1e+20
 20
-1e+20
 30
-1e+20
  9
$PLIMMIN
 10
0.0
 20
0.0
  9
$PLIMMAX
 10
420.0
 20
297.0
  9
$UNITMODE
 70
0
  9
$VISRETAIN
 70
1
  9
$PLINEGEN
 70
0
  9
$PSLTSCALE
 70
1
  9
$TREEDEPTH
 70
3020
  9
$CMLSTYLE
  2
Standard
  9
$CMLJUST
 70
0
  9
$CMLSCALE
 40
20.0
  9
$PROXYGRAPHICS
 70
1
  9
$MEASUREMENT
 70
1
  9
$CELWEIGHT
370
-1
  9
$ENDCAPS
280
0
  9
$JOINSTYLE
280
0
  9
$LWDISPLAY
290
0
  9
$INSUNITS
 70
4
  9
$HYPERLINKBASE
  1

  9
$STYLESHEET
  1

  9
$XEDIT
290
1
  9
$CEPSNTYPE
380
0
  9
$PSTYLEMODE
290
1
  9
$FINGERPRINTGUID
  2
{DD041281-4870-449D-BA34-ADD907844FB2}
  9
$VERSIONGUID
  2
{C6133F8C-EE1A-46B8-AC09-9A829BB5BD1B}
  9
$EXTNAMES
290
1
  9
$PSVPSCALE
 40
0.0
  9
$OLESTARTUP
290
0
  9
$SORTENTS
280
127
  9
$INDEXCTL
280
0
  9
$HIDETEXT
280
1
  9
$XCLIPFRAME
280
1
  9
$HALOGAP
280
0
  9
$OBSCOLOR
 70
257
  9
$OBSLTYPE
280
0
  9
$INTERSECTIONDISPLAY
280
0
  9
$INTERSECTIONCOLOR
 70
257
  9
$DIMASSOC
280
2
  9
$PROJECTNAME
  1

  9
$CAMERADISPLAY
290
0
  9
$LENSLENGTH
 40
50.0
  9
$CAMERAHEIGHT
 40
0.0
  9
$STEPSPERSEC
 40
24.0
  9
$STEPSIZE
 40
100.0
  9
$3DDWFPREC
 40
2.0
  9
$PSOLWIDTH
 40
0.005
  9
$PSOLHEIGHT
 40
0.08
  9
$LOFTANG1
 40
1.570796326795
  9
$LOFTANG2
 40
1.570796326795
  9
$LOFTMAG1
 40
0.0
  9
$LOFTMAG2
 40
0.0
  9
$LOFTPARAM
 70
7
  9
$LOFTNORMALS
280
1
  9
$LATITUDE
 40
37.795
  9
$LONGITUDE
 40
-122.394
  9
$NORTHDIRECTION
 40
0.0
  9
$TIMEZONE
 70
-8000
  9
$LIGHTGLYPHDISPLAY
280
1
  9
$TILEMODELIGHTSYNCH
280
1
  9
$CMATERIAL
347
20
  9
$SOLIDHIST
280
0
  9
$SHOWHIST
280
1
  9
$DWFFRAME
280
2
  9
$DGNFRAME
280
2
  9
$REALWORLDSCALE
290
1
  9
$INTERFERECOLOR
 62
256
  9
$CSHADOW
280
0
  9
$SHADOWPLANELOCATION
 40
0.0
  0
ENDSEC
  0
SECTION
  2
CLASSES
  0
CLASS
  1
ACDBDICTIONARYWDFLT
  2
AcDbDictionaryWithDefault
  3
ObjectDBX Classes
 90
0
 91
0
280
0
281
0
  0
CLASS
  1
SUN
  2
AcDbSun
  3
SCENEOE
 90
1153
 91
0
280
0
281
0
  0
CLASS
  1
VISUALSTYLE
  2
AcDbVisualStyle
  3
ObjectDBX Classes
 90
4095
 91
0
280
0
281
0
  0
CLASS
  1
MATERIAL
  2
AcDbMaterial
  3
ObjectDBX Classes
 90
1153
 91
0
280
0
281
0
  0
CLASS
  1
SCALE
  2
AcDbScale
  3
ObjectDBX Classes
 90
1153
 91
0
280
0
281
0
  0
CLASS
  1
TABLESTYLE
  2
AcDbTableStyle
  3
ObjectDBX Classes
 90
4095
 91
0
280
0
281
0
  0
CLASS
  1
MLEADERSTYLE
  2
AcDbMLeaderStyle
  3
ACDB_MLEADERSTYLE_CLASS
 90
4095
 91
0
280
0
281
0
  0
CLASS
  1
DICTIONARYVAR
  2
AcDbDictionaryVar
  3
ObjectDBX Classes
 90
0
 91
0
280
0
281
0
  0
CLASS
  1
CELLSTYLEMAP
  2
AcDbCellStyleMap
  3
ObjectDBX Classes
 90
1152
 91
0
280
0
281
0
  0
CLASS
  1
MENTALRAYRENDERSETTINGS
  2
AcDbMentalRayRenderSettings
  3
SCENEOE
 90
1024
 91
0
280
0
281
0
  0
CLASS
  1
ACDBDETAILVIEWSTYLE
  2
AcDbDetailViewStyle
  3
ObjectDBX Classes
 90
1025
 91
0
280
0
281
0
  0
CLASS
  1
ACDBSECTIONVIEWSTYLE
  2
AcDbSectionViewStyle
  3
ObjectDBX Classes
 90
1025
 91
0
280
0
281
0
  0
CLASS
  1
RASTERVARIABLES
  2
AcDbRasterVariables
  3
ISM
 90
0
 91
0
280
0
281
0
  0
CLASS
  1
LAYOUT
  2
AcDbLayout
  3
ObjectDBX Classes
 90
0
 91
0
280
0
281
0
  0
CLASS
  1
ACDBPLACEHOLDER
  2
AcDbPlaceHolder
  3
ObjectDBX Classes
 90
0
 91
0
280
0
281
0
  0
ENDSEC
  0
SECTION
  2
TABLES
  0
TABLE
  2
VPORT
  5
8
330
0
100
AcDbSymbolTable
 70
1
  0
VPORT
  5
23
330
8
100
AcDbSymbolTableRecord
100
AcDbViewportTableRecord
  2
*Active
 70
0
 10
0.0
 20
0.0
 11
1.0
 21
1.0
 12
0.0
 22
0.0
 13
0.0
 23
0.0
 14
0.5
 24
0.5
 15
0.5
 25
0.5
 16
0.0
 26
0.0
 36
1.0
 17
0.0
 27
0.0
 37
0.0
 40
1000.0
 41
1.34
 42
50.0
 43
0.0
 44
0.0
 50
0.0
 51
0.0
 71
0
 72
1000
 73
1
 74
3
 75
0
 76
0
 77
0
 78
0
281
0
 65
0
146
0.0
  0
ENDTAB
  0
TABLE
  2
LTYPE
  5
2
330
0
100
AcDbSymbolTable
 70
21
  0
LTYPE
  5
24
330
2
100
AcDbSymbolTableRecord
100
AcDbLinetypeTableRecord
  2
ByBlock
 70
0
  3

 72
65
 73
0
 40
0.0
  0
LTYPE
  5
25
330
2
100
AcDbSymbolTableRecord
100
AcDbLinetypeTableRecord
  2
ByLayer
 70
0
  3

 72
65
 73
0
 40
0.0
  0
LTYPE
  5
26
330
2
100
AcDbSymbolTableRecord
100
AcDbLinetypeTableRecord
  2
Continuous
 70
0
  3

 72
65
 73
0
 40
0.0
  0
LTYPE
  5
2F
330
2
100
AcDbSymbolTableRecord
100
AcDbLinetypeTableRecord
  2
CENTER
 70
0
  3
Center ____ _ ____ _ ____ _ ____ _ ____ _ ____
 72
65
 73
4
 40
5.08
 49
3.175
 74
0
 49
-0.635
 74
0
 49
0.635
 74
0
 49
-0.635
 74
0
  0
LTYPE
  5
30
330
2
100
AcDbSymbolTableRecord
100
AcDbLinetypeTableRecord
  2
CENTERX2
 70
0
  3
Center (2x) ________  __  ________  __  ________
 72
65
 73
4
 40
8.89
 49
6.35
 74
0
 49
-0.635
 74
0
 49
1.27
 74
0
 49
-0.635
 74
0
  0
LTYPE
  5
31
330
2
100
AcDbSymbolTableRecord
100
AcDbLinetypeTableRecord
  2
CENTER2
 70
0
  3
Center (.5x) ____ _ ____ _ ____ _ ____ _ ____
 72
65
 73
4
 40
2.54
 49
1.587
 74
0
 49
-0.318
 74
0
 49
0.318
 74
0
 49
-0.318
 74
0
  0
LTYPE
  5
32
330
2
100
AcDbSymbolTableRecord
100
AcDbLinetypeTableRecord
  2
DASHED
 70
0
  3
Dashed __ __ __ __ __ __ __ __ __ __ __ __ __ _
 72
65
 73
2
 40
1.524
 49
1.27
 74
0
 49
-0.254
 74
0
  0
LTYPE
  5
33
330
2
100
AcDbSymbolTableRecord
100
AcDbLinetypeTableRecord
  2
DASHEDX2
 70
0
  3
Dashed (2x) ____  ____  ____  ____  ____  ____
 72
65
 73
2
 40
3.048
 49
2.54
 74
0
 49
-0.508
 74
0
  0
LTYPE
  5
34
330
2
100
AcDbSymbolTableRecord
100
AcDbLinetypeTableRecord
  2
DASHED2
 70
0
  3
Dashed (.5x) _ _ _ _ _ _ _ _ _ _ _ _ _ _
 72
65
 73
2
 40
0.762
 49
0.635
 74
0
 49
-0.127
 74
0
  0
LTYPE
  5
35
330
2
100
AcDbSymbolTableRecord
100
AcDbLinetypeTableRecord
  2
PHANTOM
 70
0
  3
Phantom ______  __  __  ______  __  __  ______
 72
65
 73
6
 40
6.35
 49
3.175
 74
0
 49
-0.635
 74
0
 49
0.635
 74
0
 49
-0.635
 74
0
 49
0.635
 74
0
 49
-0.635
 74
0
  0
LTYPE
  5
36
330
2
100
AcDbSymbolTableRecord
100
AcDbLinetypeTableRecord
  2
PHANTOMX2
 70
0
  3
Phantom (2x)____________    ____    ____    ____________
 72
65
 73
6
 40
10.795
 49
6.35
 74
0
 49
-0.635
 74
0
 49
1.27
 74
0
 49
-0.635
 74
0
 49
1.27
 74
0
 49
-0.635
 74
0
  0
LTYPE
  5
37
330
2
100
AcDbSymbolTableRecord
100
AcDbLinetypeTableRecord
  2
PHANTOM2
 70
0
  3
Phantom (.5x) ___ _ _ ___ _ _ ___ _ _ ___ _ _ ___
 72
65
 73
6
 40
3.175
 49
1.587
 74
0
 49
-0.318
 74
0
 49
0.318
 74
0
 49
-0.318
 74
0
 49
0.318
 74
0
 49
-0.318
 74
0
  0
LTYPE
  5
38
330
2
100
AcDbSymbolTableRecord
100
AcDbLinetypeTableRecord
  2
DASHDOT
 70
0
  3
Dash dot __ . __ . __ . __ . __ . __ . __ . __
 72
65
 73
4
 40
3.556
 49
2.54
 74
0
 49
-0.508
 74
0
 49
0.0
 74
0
 49
-0.508
 74
0
  0
LTYPE
  5
39
330
2
100
AcDbSymbolTableRecord
100
AcDbLinetypeTableRecord
  2
DASHDOTX2
 70
0
  3
Dash dot (2x) ____  .  ____  .  ____  .  ____
 72
65
 73
4
 40
6.096
 49
5.08
 74
0
 49
-0.508
 74
0
 49
0.0
 74
0
 49
-0.508
 74
0
  0
LTYPE
  5
3A
330
2
100
AcDbSymbolTableRecord
100
AcDbLinetypeTableRecord
  2
DASHDOT2
 70
0
  3
Dash dot (.5x) _ . _ . _ . _ . _ . _ . _ . _
 72
65
 73
4
 40
1.778
 49
1.27
 74
0
 49
-0.254
 74
0
 49
0.0
 74
0
 49
-0.254
 74
0
  0
LTYPE
  5
3B
330
2
100
AcDbSymbolTableRecord
100
AcDbLinetypeTableRecord
  2
DOT
 70
0
  3
Dot .  .  .  .  .  .  .  .  .  .  .  .  .  .  .  .
 72
65
 73
2
 40
0.508
 49
0.0
 74
0
 49
-0.508
 74
0
  0
LTYPE
  5
3C
330
2
100
AcDbSymbolTableRecord
100
AcDbLinetypeTableRecord
  2
DOTX2
 70
0
  3
Dot (2x) .    .    .    .    .    .    .    . 
 72
65
 73
2
 40
1.016
 49
0.0
 74
0
 49
-1.016
 74
0
  0
LTYPE
  5
3D
330
2
100
AcDbSymbolTableRecord
100
AcDbLinetypeTableRecord
  2
DOT2
 70
0
  3
Dot (.5) . . . . . . . . . . . . . . . . . . . 
 72
65
 73
2
 40
0.254
 49
0.0
 74
0
 49
-0.254
 74
0
  0
LTYPE
  5
3E
330
2
100
AcDbSymbolTableRecord
100
AcDbLinetypeTableRecord
  2
DIVIDE
 70
0
  3
Divide __ . . __ . . __ . . __ . . __ . . __
 72
65
 73
6
 40
4.064
 49
2.54
 74
0
 49
-0.508
 74
0
 49
0.0
 74
0
 49
-0.508
 74
0
 49
0.0
 74
0
 49
-0.508
 74
0
  0
LTYPE
  5
3F
330
2
100
AcDbSymbolTableRecord
100
AcDbLinetypeTableRecord
  2
DIVIDEX2
 70
0
  3
Divide (2x) ____  . .  ____  . .  ____  . .  ____
 72
65
 73
6
 40
6.604
 49
5.08
 74
0
 49
-0.508
 74
0
 49
0.0
 74
0
 49
-0.508
 74
0
 49
0.0
 74
0
 49
-0.508
 74
0
  0
LTYPE
  5
40
330
2
100
AcDbSymbolTableRecord
100
AcDbLinetypeTableRecord
  2
DIVIDE2
 70
0
  3
Divide(.5x) _ . _ . _ . _ . _ . _ . _ . _
 72
65
 73
6
 40
2.032
 49
1.27
 74
0
 49
-0.254
 74
0
 49
0.0
 74
0
 49
-0.254
 74
0
 49
0.0
 74
0
 49
-0.254
 74
0
  0
ENDTAB
  0
TABLE
  2
LAYER
  5
1
330
0
100
AcDbSymbolTable
 70
5
  0
LAYER
  5
27
330
1
100
AcDbSymbolTableRecord
100
AcDbLayerTableRecord
  2
0
 70
0
 62
7
  6
Continuous
370
-3
390
13
347
21
  0
LAYER
  5
28
330
1
100
AcDbSymbolTableRecord
100
AcDbLayerTableRecord
  2
Defpoints
 70
0
 62
7
  6
Continuous
290
0
370
-3
390
13
347
21
  0
LAYER
  5
8A
330
1
100
AcDbSymbolTableRecord
100
AcDbLayerTableRecord
  2
CORTE
 70
0
 62
1
  6
Continuous
370
-3
390
13
347
21
  0
LAYER
  5
8B
330
1
100
AcDbSymbolTableRecord
100
AcDbLayerTableRecord
  2
GRABADO
 70
0
 62
5
  6
Continuous
370
-3
390
13
347
21
  0
LAYER
  5
8C
330
1
100
AcDbSymbolTableRecord
100
AcDbLayerTableRecord
  2
HOJA
 70
0
 62
8
  6
Continuous
370
-3
390
13
347
21
  0
ENDTAB
  0
TABLE
  2
STYLE
  5
5
330
0
100
AcDbSymbolTable
 70
26
  0
STYLE
  5
29
330
5
100
AcDbSymbolTableRecord
100
AcDbTextStyleTableRecord
  2
Standard
 70
0
 40
0.0
 41
1.0
 50
0.0
 71
0
 42
2.5
  3
txt
  4

  0
STYLE
  5
41
330
5
100
AcDbSymbolTableRecord
100
AcDbTextStyleTableRecord
  2
OpenSans-Light
 70
0
 40
0.0
 41
1.0
 50
0.0
 71
0
 42
2.5
  3
OpenSans-Light.ttf
  4

  0
STYLE
  5
42
330
5
100
AcDbSymbolTableRecord
100
AcDbTextStyleTableRecord
  2
OpenSans-Light-Italic
 70
0
 40
0.0
 41
1.0
 50
0.0
 71
0
 42
2.5
  3
OpenSans-LightItalic.ttf
  4

  0
STYLE
  5
43
330
5
100
AcDbSymbolTableRecord
100
AcDbTextStyleTableRecord
  2
OpenSans
 70
0
 40
0.0
 41
1.0
 50
0.0
 71
0
 42
2.5
  3
OpenSans-Regular.ttf
  4

  0
STYLE
  5
44
330
5
100
AcDbSymbolTableRecord
100
AcDbTextStyleTableRecord
  2
OpenSans-Italic
 70
0
 40
0.0
 41
1.0
 50
0.0
 71
0
 42
2.5
  3
OpenSans-Italic.ttf
  4

  0
STYLE
  5
45
330
5
100
AcDbSymbolTableRecord
100
AcDbTextStyleTableRecord
  2
OpenSans-SemiBold
 70
0
 40
0.0
 41
1.0
 50
0.0
 71
0
 42
2.5
  3
OpenSans-SemiBold.ttf
  4

  0
STYLE
  5
46
330
5
100
AcDbSymbolTableRecord
100
AcDbTextStyleTableRecord
  2
OpenSans-SemiBoldItalic
 70
0
 40
0.0
 41
1.0
 50
0.0
 71
0
 42
2.5
  3
OpenSans-SemiBoldItalic.ttf
  4

  0
STYLE
  5
47
330
5
100
AcDbSymbolTableRecord
100
AcDbTextStyleTableRecord
  2
OpenSans-Bold
 70
0
 40
0.0
 41
1.0
 50
0.0
 71
0
 42
2.5
  3
OpenSans-Bold.ttf
  4

  0
STYLE
  5
48
330
5
100
AcDbSymbolTableRecord
100
AcDbTextStyleTableRecord
  2
OpenSans-BoldItalic
 70
0
 40
0.0
 41
1.0
 50
0.0
 71
0
 42
2.5
  3
OpenSans-BoldItalic.ttf
  4

  0
STYLE
  5
49
330
5
100
AcDbSymbolTableRecord
100
AcDbTextStyleTableRecord
  2
OpenSans-ExtraBold
 70
0
 40
0.0
 41
1.0
 50
0.0
 71
0
 42
2.5
  3
OpenSans-ExtraBold.ttf
  4

  0
STYLE
  5
4A
330
5
100
AcDbSymbolTableRecord
100
AcDbTextStyleTableRecord
  2
OpenSans-ExtraBoldItalic
 70
0
 40
0.0
 41
1.0
 50
0.0
 71
0
 42
2.5
  3
OpenSans-ExtraBoldItalic.ttf
  4

  0
STYLE
  5
4B
330
5
100
AcDbSymbolTableRecord
100
AcDbTextStyleTableRecord
  2
OpenSansCondensed-Bold
 70
0
 40
0.0
 41
1.0
 50
0.0
 71
0
 42
2.5
  3
OpenSansCondensed-Bold.ttf
  4

  0
STYLE
  5
4C
330
5
100
AcDbSymbolTableRecord
100
AcDbTextStyleTableRecord
  2
OpenSansCondensed-Light
 70
0
 40
0.0
 41
1.0
 50
0.0
 71
0
 42
2.5
  3
OpenSansCondensed-Light.ttf
  4

  0
STYLE
  5
4D
330
5
100
AcDbSymbolTableRecord
100
AcDbTextStyleTableRecord
  2
OpenSansCondensed-Italic
 70
0
 40
0.0
 41
1.0
 50
0.0
 71
0
 42
2.5
  3
OpenSansCondensed-LightItalic.ttf
  4

  0
STYLE
  5
4E
330
5
100
AcDbSymbolTableRecord
100
AcDbTextStyleTableRecord
  2
LiberationSans
 70
0
 40
0.0
 41
1.0
 50
0.0
 71
0
 42
2.5
  3
LiberationSans-Regular.ttf
  4

  0
STYLE
  5
4F
330
5
100
AcDbSymbolTableRecord
100
AcDbTextStyleTableRecord
  2
LiberationSans-Bold
 70
0
 40
0.0
 41
1.0
 50
0.0
 71
0
 42
2.5
  3
LiberationSans-Bold.ttf
  4

  0
STYLE
  5
50
330
5
100
AcDbSymbolTableRecord
100
AcDbTextStyleTableRecord
  2
LiberationSans-BoldItalic
 70
0
 40
0.0
 41
1.0
 50
0.0
 71
0
 42
2.5
  3
LiberationSans-BoldItalic.ttf
  4

  0
STYLE
  5
51
330
5
100
AcDbSymbolTableRecord
100
AcDbTextStyleTableRecord
  2
LiberationSans-Italic
 70
0
 40
0.0
 41
1.0
 50
0.0
 71
0
 42
2.5
  3
LiberationSans-Italic.ttf
  4

  0
STYLE
  5
52
330
5
100
AcDbSymbolTableRecord
100
AcDbTextStyleTableRecord
  2
LiberationSerif
 70
0
 40
0.0
 41
1.0
 50
0.0
 71
0
 42
2.5
  3
LiberationSerif-Regular.ttf
  4

  0
STYLE
  5
53
330
5
100
AcDbSymbolTableRecord
100
AcDbTextStyleTableRecord
  2
LiberationSerif-Bold
 70
0
 40
0.0
 41
1.0
 50
0.0
 71
0
 42
2.5
  3
LiberationSerif-Bold.ttf
  4

  0
STYLE
  5
54
330
5
100
AcDbSymbolTableRecord
100
AcDbTextStyleTableRecord
  2
LiberationSerif-BoldItalic
 70
0
 40
0.0
 41
1.0
 50
0.0
 71
0
 42
2.5
  3
LiberationSerif-BoldItalic.ttf
  4

  0
STYLE
  5
55
330
5
100
AcDbSymbolTableRecord
100
AcDbTextStyleTableRecord
  2
LiberationSerif-Italic
 70
0
 40
0.0
 41
1.0
 50
0.0
 71
0
 42
2.5
  3
LiberationSerif-Italic.ttf
  4

  0
STYLE
  5
56
330
5
100
AcDbSymbolTableRecord
100
AcDbTextStyleTableRecord
  2
LiberationMono
 70
0
 40
0.0
 41
1.0
 50
0.0
 71
0
 42
2.5
  3
LiberationMono-Regular.ttf
  4

  0
STYLE
  5
57
330
5
100
AcDbSymbolTableRecord
100
AcDbTextStyleTableRecord
  2
LiberationMono-Bold
 70
0
 40
0.0
 41
1.0
 50
0.0
 71
0
 42
2.5
  3
LiberationMono-Bold.ttf
  4

  0
STYLE
  5
58
330
5
100
AcDbSymbolTableRecord
100
AcDbTextStyleTableRecord
  2
LiberationMono-BoldItalic
 70
0
 40
0.0
 41
1.0
 50
0.0
 71
0
 42
2.5
  3
LiberationMono-BoldItalic.ttf
  4

  0
STYLE
  5
59
330
5
100
AcDbSymbolTableRecord
100
AcDbTextStyleTableRecord
  2
LiberationMono-Italic
 70
0
 40
0.0
 41
1.0
 50
0.0
 71
0
 42
2.5
  3
LiberationMono-Italic.ttf
  4

  0
ENDTAB
  0
TABLE
  2
VIEW
  5
7
330
0
100
AcDbSymbolTable
 70
0
  0
ENDTAB
  0
TABLE
  2
UCS
  5
6
330
0
100
AcDbSymbolTable
 70
0
  0
ENDTAB
  0
TABLE
  2
APPID
  5
3
330
0
100
AcDbSymbolTable
 70
3
  0
APPID
  5
2A
330
3
100
AcDbSymbolTableRecord
100
AcDbRegAppTableRecord
  2
ACAD
 70
0
  0
APPID
  5
97
330
3
100
AcDbSymbolTableRecord
100
AcDbRegAppTableRecord
  2
HATCHBACKGROUNDCOLOR
 70
0
  0
APPID
  5
98
330
3
100
AcDbSymbolTableRecord
100
AcDbRegAppTableRecord
  2
EZDXF
 70
0
  0
ENDTAB
  0
TABLE
  2
DIMSTYLE
  5
4
330
0
100
AcDbSymbolTable
 70
12
100
AcDbDimStyleTable
  0
DIMSTYLE
105
2B
330
4
100
AcDbSymbolTableRecord
100
AcDbDimStyleTableRecord
  2
Standard
 70
0
 40
1.0
 41
2.5
 42
0.625
 43
3.75
 44
1.25
 45
0.0
 46
0.0
 47
0.0
 48
0.0
 49
2.5
140
2.5
141
2.5
142
0.0
143
0.03937007874
144
1.0
145
0.0
146
1.0
147
0.625
148
0.0
 69
0
 70
0
 71
0
 72
0
 73
0
 74
0
 75
0
 76
0
 77
1
 78
8
 79
3
170
0
171
3
172
1
173
0
174
0
175
0
176
0
177
0
178
0
179
2
271
2
272
2
273
2
274
3
275
0
276
0
277
2
278
44
279
0
280
0
281
0
282
0
283
0
284
8
285
0
286
0
288
0
289
3
290
0
371
-2
372
-2
  0
DIMSTYLE
105
73
330
4
100
AcDbSymbolTableRecord
100
AcDbDimStyleTableRecord
  2
EZDXF
 70
0
 40
1.0
 41
0.175
 42
0.125
 43
3.75
 44
0.375
 45
0.0
 46
0.0
 47
0.0
 48
0.0
 49
2.5
140
0.25
141
2.5
142
0.0
143
0.03937007874
144
100.0
145
0.0
146
0.5
147
0.1
148
0.0
 69
0
 70
0
 71
0
 72
0
 73
0
 74
0
 75
0
 76
0
 77
1
 78
12
 79
3
170
0
171
3
172
1
173
0
174
0
175
0
176
0
177
0
178
0
179
2
271
2
272
2
273
2
274
3
275
0
276
0
277
2
278
46
279
2
280
0
281
0
282
0
283
0
284
8
285
0
286
0
288
1
289
3
290
0
340
4C
342
74
371
-2
372
-2
  0
DIMSTYLE
105
7C
330
4
100
AcDbSymbolTableRecord
100
AcDbDimStyleTableRecord
  2
EZ_M_100_H25_CM
 70
0
 40
1.0
 41
0.25
 42
0.125
 43
3.75
 44
0.375
 45
0.0
 46
0.0
 47
0.0
 48
0.0
 49
2.5
140
0.25
141
2.5
142
0.125
143
0.03937007874
144
100.0
145
0.0
146
0.5
147
0.1
148
0.0
 69
0
 70
0
 71
0
 72
0
 73
0
 74
0
 75
0
 76
0
 77
1
 78
12
 79
3
170
0
171
3
172
1
173
0
174
0
175
0
176
0
177
0
178
0
179
2
271
2
272
2
273
2
274
3
275
0
276
0
277
2
278
46
279
2
280
0
281
0
282
0
283
0
284
8
285
0
286
0
288
1
289
3
290
0
340
4C
371
-2
372
-2
  0
DIMSTYLE
105
7D
330
4
100
AcDbSymbolTableRecord
100
AcDbDimStyleTableRecord
  2
EZ_M_50_H25_CM
 70
0
 40
1.0
 41
0.125
 42
0.0625
 43
3.75
 44
0.1875
 45
0.0
 46
0.0
 47
0.0
 48
0.0
 49
2.5
140
0.125
141
2.5
142
0.0625
143
0.03937007874
144
100.0
145
0.0
146
0.5
147
0.05
148
0.0
 69
0
 70
0
 71
0
 72
0
 73
0
 74
0
 75
0
 76
0
 77
1
 78
12
 79
3
170
0
171
3
172
1
173
0
174
0
175
0
176
0
177
0
178
0
179
2
271
2
272
2
273
2
274
3
275
0
276
0
277
2
278
46
279
2
280
0
281
0
282
0
283
0
284
8
285
0
286
0
288
1
289
3
290
0
340
4C
371
-2
372
-2
  0
DIMSTYLE
105
7E
330
4
100
AcDbSymbolTableRecord
100
AcDbDimStyleTableRecord
  2
EZ_M_25_H25_CM
 70
0
 40
1.0
 41
0.0625
 42
0.03125
 43
3.75
 44
0.09375
 45
0.0
 46
0.0
 47
0.0
 48
0.0
 49
2.5
140
0.0625
141
2.5
142
0.03125
143
0.03937007874
144
100.0
145
0.0
146
0.5
147
0.025
148
0.0
 69
0
 70
0
 71
0
 72
0
 73
0
 74
0
 75
0
 76
0
 77
1
 78
12
 79
3
170
0
171
3
172
1
173
0
174
0
175
0
176
0
177
0
178
0
179
2
271
2
272
2
273
2
274
3
275
0
276
0
277
2
278
46
279
2
280
0
281
0
282
0
283
0
284
8
285
0
286
0
288
1
289
3
290
0
340
4C
371
-2
372
-2
  0
DIMSTYLE
105
7F
330
4
100
AcDbSymbolTableRecord
100
AcDbDimStyleTableRecord
  2
EZ_M_20_H25_CM
 70
0
 40
1.0
 41
0.05
 42
0.025
 43
3.75
 44
0.07500000000000001
 45
0.0
 46
0.0
 47
0.0
 48
0.0
 49
2.5
140
0.05
141
2.5
142
0.025
143
0.03937007874
144
100.0
145
0.0
146
0.5
147
0.020000000000000004
148
0.0
 69
0
 70
0
 71
0
 72
0
 73
0
 74
0
 75
0
 76
0
 77
1
 78
12
 79
3
170
0
171
3
172
1
173
0
174
0
175
0
176
0
177
0
178
0
179
2
271
2
272
2
273
2
274
3
275
0
276
0
277
2
278
46
279
2
280
0
281
0
282
0
283
0
284
8
285
0
286
0
288
1
289
3
290
0
340
4C
371
-2
372
-2
  0
DIMSTYLE
105
80
330
4
100
AcDbSymbolTableRecord
100
AcDbDimStyleTableRecord
  2
EZ_M_10_H25_CM
 70
0
 40
1.0
 41
0.025
 42
0.0125
 43
3.75
 44
0.037500000000000006
 45
0.0
 46
0.0
 47
0.0
 48
0.0
 49
2.5
140
0.025
141
2.5
142
0.0125
143
0.03937007874
144
100.0
145
0.0
146
0.5
147
0.010000000000000002
148
0.0
 69
0
 70
0
 71
0
 72
0
 73
0
 74
0
 75
0
 76
0
 77
1
 78
12
 79
3
170
0
171
3
172
1
173
0
174
0
175
0
176
0
177
0
178
0
179
2
271
2
272
2
273
2
274
3
275
0
276
0
277
2
278
46
279
2
280
0
281
0
282
0
283
0
284
8
285
0
286
0
288
1
289
3
290
0
340
4C
371
-2
372
-2
  0
DIMSTYLE
105
81
330
4
100
AcDbSymbolTableRecord
100
AcDbDimStyleTableRecord
  2
EZ_M_5_H25_CM
 70
0
 40
1.0
 41
0.0125
 42
0.00625
 43
3.75
 44
0.018750000000000003
 45
0.0
 46
0.0
 47
0.0
 48
0.0
 49
2.5
140
0.0125
141
2.5
142
0.00625
143
0.03937007874
144
100.0
145
0.0
146
0.5
147
0.005000000000000001
148
0.0
 69
0
 70
0
 71
0
 72
0
 73
0
 74
0
 75
0
 76
0
 77
1
 78
12
 79
3
170
0
171
3
172
1
173
0
174
0
175
0
176
0
177
0
178
0
179
2
271
2
272
2
273
2
274
3
275
0
276
0
277
2
278
46
279
2
280
0
281
0
282
0
283
0
284
8
285
0
286
0
288
1
289
3
290
0
340
4C
371
-2
372
-2
  0
DIMSTYLE
105
82
330
4
100
AcDbSymbolTableRecord
100
AcDbDimStyleTableRecord
  2
EZ_M_1_H25_CM
 70
0
 40
1.0
 41
0.0025
 42
0.00125
 43
3.75
 44
0.00375
 45
0.0
 46
0.0
 47
0.0
 48
0.0
 49
2.5
140
0.0025
141
2.5
142
0.00125
143
0.03937007874
144
100.0
145
0.0
146
0.5
147
0.001
148
0.0
 69
0
 70
0
 71
0
 72
0
 73
0
 74
0
 75
0
 76
0
 77
1
 78
12
 79
3
170
0
171
3
172
1
173
0
174
0
175
0
176
0
177
0
178
0
179
2
271
2
272
2
273
2
274
3
275
0
276
0
277
2
278
46
279
2
280
0
281
0
282
0
283
0
284
8
285
0
286
0
288
1
289
3
290
0
340
4C
371
-2
372
-2
  0
DIMSTYLE
105
83
330
4
100
AcDbSymbolTableRecord
100
AcDbDimStyleTableRecord
  2
EZ_RADIUS
 70
0
 40
1.0
 41
0.25
 42
0.125
 43
3.75
 44
0.375
 45
0.0
 46
0.0
 47
0.0
 48
0.0
 49
2.5
140
0.25
141
0.0
142
0.0
143
0.03937007874
144
100.0
145
0.0
146
0.5
147
0.1
148
0.0
 69
0
 70
0
 71
0
 72
0
 73
0
 74
0
 75
0
 76
0
 77
1
 78
12
 79
3
170
0
171
3
172
0
173
0
174
0
175
0
176
0
177
0
178
0
179
2
271
2
272
2
273
2
274
3
275
0
276
0
277
2
278
46
279
1
280
0
281
0
282
0
283
0
284
8
285
0
286
0
288
1
289
3
290
0
340
4C
342
84
371
-2
372
-2
  0
DIMSTYLE
105
88
330
4
100
AcDbSymbolTableRecord
100
AcDbDimStyleTableRecord
  2
EZ_RADIUS_INSIDE
 70
0
 40
1.0
 41
0.25
 42
0.125
 43
3.75
 44
0.375
 45
0.0
 46
0.0
 47
0.0
 48
0.0
 49
2.5
140
0.25
141
0.0
142
0.0
143
0.03937007874
144
100.0
145
0.0
146
0.5
147
0.1
148
0.0
 69
0
 70
0
 71
0
 72
0
 73
0
 74
0
 75
0
 76
0
 77
0
 78
12
 79
3
170
0
171
3
172
0
173
0
174
1
175
0
176
0
177
0
178
0
179
2
271
2
272
2
273
2
274
3
275
0
276
0
277
2
278
46
279
0
280
0
281
0
282
0
283
0
284
8
285
0
286
0
288
1
289
0
290
0
340
4C
342
84
371
-2
372
-2
  0
DIMSTYLE
105
89
330
4
100
AcDbSymbolTableRecord
100
AcDbDimStyleTableRecord
  2
EZ_CURVED
 70
0
 40
1.0
 41
0.25
 42
0.125
 43
3.75
 44
0.375
 45
0.0
 46
0.0
 47
0.0
 48
0.0
 49
2.5
140
0.25
141
2.5
142
0.0
143
0.03937007874
144
100.0
145
0.0
146
0.5
147
0.1
148
0.0
 69
0
 70
0
 71
0
 72
0
 73
0
 74
0
 75
0
 76
0
 77
1
 78
12
 79
2
 90
2
170
0
171
3
172
1
173
0
174
0
175
0
176
0
177
0
178
0
179
2
271
2
272
2
273
2
274
3
275
0
276
0
277
2
278
46
279
2
280
0
281
0
282
0
283
0
284
8
285
0
286
0
288
1
289
3
290
0
340
4C
371
-2
372
-2
  0
ENDTAB
  0
TABLE
  2
BLOCK_RECORD
  5
9
330
0
100
AcDbSymbolTable
 70
5
  0
BLOCK_RECORD
  5
17
330
9
100
AcDbSymbolTableRecord
100
AcDbBlockTableRecord
  2
*Model_Space
340
1A
 70
0
280
1
281
0
  0
BLOCK_RECORD
  5
1B
330
9
100
AcDbSymbolTableRecord
100
AcDbBlockTableRecord
  2
*Paper_Space
340
1E
 70
0
280
1
281
0
  0
BLOCK_RECORD
  5
74
330
9
100
AcDbSymbolTableRecord
100
AcDbBlockTableRecord
  2
_ARCHTICK
340
0
 70
0
280
1
281
0
  0
BLOCK_RECORD
  5
78
330
9
100
AcDbSymbolTableRecord
100
AcDbBlockTableRecord
  2
_CLOSEDFILLED
340
0
 70
0
280
1
281
0
  0
BLOCK_RECORD
  5
84
330
9
100
AcDbSymbolTableRecord
100
AcDbBlockTableRecord
  2
_CLOSEDBLANK
340
0
 70
0
280
1
281
0
  0
ENDTAB
  0
ENDSEC
  0
SECTION
  2
BLOCKS
  0
BLOCK
  5
18
330
17
100
AcDbEntity
  8
0
100
AcDbBlockBegin
  2
*Model_Space
 70
0
 10
0.0
 20
0.0
 30
0.0
  3
*Model_Space
  1

  0
ENDBLK
  5
19
330
17
100
AcDbEntity
  8
0
100
AcDbBlockEnd
  0
BLOCK
  5
1C
330
1B
100
AcDbEntity
  8
0
100
AcDbBlockBegin
  2
*Paper_Space
 70
0
 10
0.0
 20
0.0
 30
0.0
  3
*Paper_Space
  1

  0
ENDBLK
  5
1D
330
1B
100
AcDbEntity
  8
0
100
AcDbBlockEnd
  0
BLOCK
  5
75
330
74
100
AcDbEntity
  8
0
100
AcDbBlockBegin
  2
_ARCHTICK
 70
0
 10
0.0
 20
0.0
 30
0.0
  3
_ARCHTICK
  1

  0
LWPOLYLINE
  5
77
330
74
100
AcDbEntity
  8
0
  6
BYBLOCK
 62
0
100
AcDbPolyline
 90
2
 70
0
 43
0.15
 10
-0.5
 20
-0.5
 10
0.5
 20
0.5
  0
ENDBLK
  5
76
330
74
100
AcDbEntity
  8
0
100
AcDbBlockEnd
  0
BLOCK
  5
79
330
78
100
AcDbEntity
  8
0
100
AcDbBlockBegin
  2
_CLOSEDFILLED
 70
0
 10
0.0
 20
0.0
 30
0.0
  3
_CLOSEDFILLED
  1

  0
SOLID
  5
7B
330
78
100
AcDbEntity
  8
0
  6
BYBLOCK
 62
0
100
AcDbTrace
 10
-1.0
 20
0.16439898372402537
 30
0.0
 11
0.0
 21
0.0
 31
0.0
 12
-1.0
 22
-0.16439898372402537
 32
0.0
 13
-1.0
 23
-0.16439898372402537
 33
0.0
  0
ENDBLK
  5
7A
330
78
100
AcDbEntity
  8
0
100
AcDbBlockEnd
  0
BLOCK
  5
85
330
84
100
AcDbEntity
  8
0
100
AcDbBlockBegin
  2
_CLOSEDBLANK
 70
0
 10
0.0
 20
0.0
 30
0.0
  3
_CLOSEDBLANK
  1

  0
LWPOLYLINE
  5
87
330
84
100
AcDbEntity
  8
0
  6
BYBLOCK
 62
0
100
AcDbPolyline
 90
3
 70
1
 10
-1.0
 20
0.16439898372402537
 10
0.0
 20
0.0
 10
-1.0
 20
-0.16439898372402537
  0
ENDBLK
  5
86
330
84
100
AcDbEntity
  8
0
100
AcDbBlockEnd
  0
ENDSEC
  0
SECTION
  2
ENTITIES
  0
LWPOLYLINE
  5
8D
330
17
100
AcDbEntity
  8
HOJA
100
AcDbPolyline
 90
4
 70
1
 10
0.0
 20
0.0
 10
600.0
 20
0.0
 10
600.0
 20
900.0
 10
0.0
 20
900.0
  0
LWPOLYLINE
  5
8E
330
17
100
AcDbEntity
  8
CORTE
100
AcDbPolyline
 90
503
 70
1
 10
230.98146835760895
 20
591.8642140809434
 10
231.4963927153408
 20
591.7225471354741
 10
236.4612583101641
 20
589.8794496051601
 10
238.45417392123863
 20
589.53813810153
 10
242.8323458463335
 20
589.09406981653
 10
245.43587093014116
 20
588.500326090496
 10
248.53077047225588
 20
587.385661613901
 10
252.40608963939576
 20
586.2054396765557
 10
254.2365286977822
 20
585.7152400897521
 10
259.3653510666293
 20
584.633014743762
 10
260.36684084907324
 20
584.5958041662875
 10
262.7542617653312
 20
583.2737471004957
 10
265.49629144182154
 20
582.1130832771587
 10
266.3759646236856
 20
581.33066958584
 10
269.723864348226
 20
578.5037732648962
 10
273.2965120409399
 20
578.837565148157
 10
276.7659998658464
 20
578.6111058980978
 10
280.2750203278374
 20
577.6446352439848
 10
283.1952588630827
 20
577.9112983194523
 10
287.2433739622602
 20
577.7052233677409
 10
289.88189227930684
 20
577.5275683133978
 10
294.21271987769205
 20
577.4590830061029
 10
296.68374032480233
 20
577.2949508050392
 10
301.19466018259845
 20
576.4938633101683
 10
302.7997852212318
 20
576.1539931669054
 10
308.1675999681265
 20
575.4312998788414
 10
309.0262744824879
 20
575.1569095562986
 10
315.13313587690163
 20
574.02910024207
 10
315.13989175371535
 20
574.0282650707436
 10
315.18731197025704
 20
574.0190856183999
 10
321.1500847790412
 20
572.7400879585257
 10
322.11705029760424
 20
572.4220795098604
 10
326.6445888426547
 20
570.7648350920022
 10
329.0935364901013
 20
569.6803510116038
 10
331.8783239961758
 20
568.4417677040119
 10
336.0821486759942
 20
565.5425080528253
 10
336.4277366911076
 20
565.1941589998737
 10
336.93669222513176
 20
564.7394819451347
 10
340.41487807133467
 20
561.2389541728212
 10
343.0497756716179
 20
559.4619603409296
 10
344.88222964241504
 20
557.9208739848787
 10
348.7581925438478
 20
555.4847506926349
 10
349.519128714152
 20
554.8140695479374
 10
350.0232216832958
 20
554.4385111571482
 10
353.6704578403114
 20
551.0617496981408
 10
356.99638242260085
 20
548.1160820956229
 10
357.83397305440326
 20
547.3345826854211
 10
359.19594917403765
 20
546.2201818856129
 10
361.97692117808674
 20
543.572947057808
 10
363.96990455860487
 20
541.6936179688596
 10
365.9406316288364
 20
539.5683278227884
 10
368.2257269039553
 20
536.948756110221
 10
369.49235303944147
 20
535.0126801925312
 10
370.94370380890314
 20
533.1508415175081
 10
373.27236823102294
 20
530.8020789477278
 10
377.37056537672015
 20
527.6977454187586
 10
377.65969883284924
 20
527.3648508359761
 10
377.90428243113365
 20
527.1728506323684
 10
382.0355780292675
 20
523.9297370953336
 10
384.8786850042766
 20
521.7148349854983
 10
386.27410732372437
 20
520.2968974331602
 10
389.0832714539861
 20
518.439875631208
 10
390.61295344764176
 20
516.8156650657647
 10
391.8288070161252
 20
516.4075103745713
 10
395.72733215677226
 20
514.3747984303109
 10
398.7914173674949
 20
513.6092108075795
 10
401.43433678113433
 20
512.6991977769585
 10
405.768452402825
 20
511.1902274581398
 10
406.8966637306535
 20
510.68718072790625
 10
410.6217707660571
 20
509.1892121098722
 10
412.1110810604491
 20
508.35452178115975
 10
412.72878710632267
 20
508.1741218433258
 10
418.20311861783375
 20
507.1797291254852
 10
419.7387335847252
 20
505.7459185003836
 10
421.88158287283204
 20
502.7733900770113
 10
426.70417975562077
 20
500.1965940665359
 10
426.8115456478331
 20
500.0421700294878
 10
426.9477087569994
 20
499.90128562028076
 10
429.10943775580836
 20
493.8077598944142
 10
431.222610670397
 20
490.6186789905587
 10
430.7444628145977
 20
486.70163744361525
 10
433.6903757066725
 20
484.27755748530944
 10
434.23243632603226
 20
482.09571237611
 10
434.94124482919415
 20
481.3536145055218
 10
433.6864684311122
 20
478.81042915679154
 10
427.76669201675895
 20
472.0550370700903
 10
428.6011478547557
 20
465.30259060062144
 10
428.0663076400883
 20
462.804273649831
 10
426.7270753499174
 20
455.19943380241784
 10
426.5133135174724
 20
453.5345871758909
 10
425.9538136798087
 20
452.5056646029989
 10
421.12926305647125
 20
444.26803177276724
 10
419.7538201435573
 20
439.24304223624677
 10
418.2636968094507
 20
435.0071633863854
 10
415.1434904536991
 20
428.8839597659439
 10
413.4454476198316
 20
425.7370898301592
 10
412.77174427018235
 20
424.7499091934892
 10
406.0685860691692
 20
416.4661443414784
 10
405.7947456540719
 20
416.1767628660855
 10
404.8676527614398
 20
415.23203755912164
 10
398.82498832807914
 20
409.07445638134095
 10
397.173787370883
 20
407.20490666173646
 10
391.8529656698229
 20
401.3790283674489
 10
388.2275107091318
 20
397.9387224637776
 10
384.8773789532529
 20
395.07443432889477
 10
378.87225886472334
 20
389.9599413954593
 10
377.9071423522728
 20
389.17621002664964
 10
377.36789704673265
 20
388.67684912577715
 10
370.9326021715201
 20
383.5786234108259
 10
365.18853451285645
 20
379.4130243990503
 10
363.96447296361816
 20
378.4804194374542
 10
361.7872339270018
 20
376.52193195377413
 10
356.9973142980375
 20
372.16962593688595
 10
354.9398513611243
 20
370.15830843106323
 10
350.02255563972903
 20
365.6087817053308
 10
343.36773468897854
 20
360.8922770944064
 10
343.0473257604476
 20
360.63341008216685
 10
342.69767313890907
 20
360.4277469137646
 10
336.0801128315734
 20
355.93391378734304
 10
331.2823263235646
 20
351.6372560237096
 10
329.1146278422152
 20
349.4299080454057
 10
324.2643239568456
 20
345.1940984032476
 10
322.140898577758
 20
343.2929969493707
 10
320.987266284307
 20
342.3712016099935
 10
315.16681875032396
 20
338.1580749363179
 10
308.7136922302486
 20
333.11179815384685
 10
308.200292225114
 20
332.6890503824234
 10
307.1668647954443
 20
331.74004215472814
 10
301.23210879257135
 20
326.16253378903366
 10
298.8527892915879
 20
323.8574105852849
 10
294.2644476981868
 20
318.85508686468665
 10
290.2157952794455
 20
314.5997194818733
 10
287.29784422192824
 20
310.9605530382264
 10
282.9404867542228
 20
305.3405819529771
 10
280.3241893699653
 20
302.40294481480123
 10
274.6587708589982
 20
296.0798681579472
 10
273.35813950496663
 20
294.40265347087507
 10
268.1482533716983
 20
286.8318163544827
 10
266.39668883859804
 20
282.42597413927797
 10
264.52205525584577
 20
277.57152169746087
 10
259.4192853996117
 20
270.1762556151416
 10
258.3061298623554
 20
268.31092318537185
 10
256.42015316217953
 20
264.3236081376185
 10
253.9206104353193
 20
259.05307777395547
 10
252.45297932297717
 20
256.0544767673505
 10
249.46484700789824
 20
249.79869591830948
 10
247.744147686642
 20
243.54311762586303
 10
246.92581709347905
 20
240.54520460052208
 10
245.48774691099425
 20
234.97301768030002
 10
244.6862025820235
 20
231.2869858741965
 10
244.29938125089393
 20
229.71030123293122
 10
243.3346062065234
 20
222.03780134344424
 10
243.27373729512442
 20
219.09275962144648
 10
242.26804951789313
 20
212.77567488727118
 10
242.14422137149836
 20
208.3421571666113
 10
242.82382082640402
 20
203.53068361652595
 10
243.10735322838173
 20
200.36513357368767
 10
243.80020152183806
 20
194.25297572062937
 10
242.3442295276427
 20
190.0800951552137
 10
244.99643249266387
 20
185.05715718502643
 10
245.30341006622984
 20
184.9023458557608
 10
245.4431499482921
 20
184.89805482914062
 10
249.6525326495123
 20
181.35006147025115
 10
252.43412017017567
 20
177.7484532948174
 10
253.5318951143513
 20
177.21172739034046
 10
253.55275392443855
 20
175.7458607889207
 10
254.44463763969907
 20
169.1481223668825
 10
256.29454887474776
 20
166.5277158152935
 10
258.0586124627009
 20
164.7049344133493
 10
259.4285792318476
 20
159.69071004964462
 10
259.90813556813555
 20
157.8704919703141
 10
260.0106049999047
 20
157.2386086742349
 10
262.14974579754517
 20
151.57309642439714
 10
261.44010928697617
 20
147.97014179904363
 10
263.47622499783415
 20
144.1254236531995
 10
266.3763252733547
 20
139.96398506749347
 10
267.0820608855629
 20
139.6535780001759
 10
267.11446119364405
 20
138.72354252269815
 10
270.1767472505335
 20
134.51478647246358
 10
273.3527687571434
 20
130.03360353292737
 10
273.6088339311573
 20
129.82656943214715
 10
273.8327327355985
 20
129.47938374844125
 10
276.9830323868898
 20
125.03290261112306
 10
280.14688609635937
 20
120.2152444851904
 10
280.22298985127213
 20
120.07397341460955
 10
280.32577083419915
 20
119.94173026051385
 10
284.01203360162003
 20
115.86072654576537
 10
287.29970294040595
 20
111.49307189270121
 10
287.49185625354903
 20
111.21713607107267
 10
287.700922341181
 20
110.95464419056498
 10
290.03394252560634
 20
105.2899126171501
 10
290.4224235576096
 20
101.66842934214992
 10
291.35552973875633
 20
97.78278519693913
 10
292.43556358469914
 20
92.4031667194281
 10
292.4778495277785
 20
89.99498274486132
 10
292.4004718967956
 20
83.12518808840832
 10
291.52309908631923
 20
79.45249250567895
 10
290.52863133229084
 20
73.85872013789276
 10
288.82467033117155
 20
66.61234261830305
 10
288.88630925337156
 20
64.59339906244395
 10
287.30252699760536
 20
61.97495264270265
 10
282.9837447249404
 20
55.30534097131704
 10
280.322953489831
 20
52.633328711782724
 10
274.48914883369184
 20
46.043623188630136
 10
273.35710771491335
 20
44.6427836105222
 10
267.64839198624804
 20
36.78609632532698
 10
266.3848560441345
 20
35.19873761828512
 10
259.9077755306939
 20
27.520570438437062
 10
259.39725083372605
 20
26.993256756560186
 10
258.8721547399632
 20
26.818702451252193
 10
252.42136385176968
 20
23.238498632041228
 10
247.0402061411694
 20
20.356139008243645
 10
245.44758131599224
 20
19.468959044863823
 10
242.50947685386677
 20
18.240792433317893
 10
238.46807389308879
 20
16.66327346978369
 10
236.95444337021127
 20
16.22964525378802
 10
231.49079728772335
 20
14.31409172298936
 10
228.2117283748703
 20
13.886199716096598
 10
224.50180703117098
 20
13.077820128523854
 10
221.1972393980036
 20
13.874928479423033
 10
217.50287132844824
 20
15.145677128467923
 10
215.79768778667585
 20
15.99832989099832
 10
213.11842281945223
 20
18.25198036991469
 10
211.4752306288558
 20
19.52631725950232
 10
210.51627876095426
 20
20.271299684219684
 10
206.983375538902
 20
22.826723096975456
 10
203.53951474689916
 20
26.43875210398255
 10
203.0346916853398
 20
26.851390298149
 10
202.51114888347524
 20
27.52245353644912
 10
199.242999860817
 20
31.085038677398643
 10
196.5602599919839
 20
34.728008172305636
 10
195.76569931015
 20
35.733232251445315
 10
195.0635075943967
 20
36.78563240314634
 10
192.10694220439632
 20
40.12521559214383
 10
189.5945863963259
 20
43.33410483156558
 10
188.356439300185
 20
44.40790367768204
 10
187.5269492311777
 20
46.058396151097895
 10
185.56005164796147
 20
49.97649287513332
 10
182.97639485936475
 20
55.32018792672352
 10
182.8345090684329
 20
55.61670777168456
 10
182.61118052005713
 20
56.0669631817409
 10
180.09048002601958
 20
61.2326115392616
 10
178.51730212268308
 20
64.58627382353689
 10
177.68637738550137
 20
67.31632446408594
 10
175.83991059959862
 20
73.85006768611765
 10
175.77457526760645
 20
74.01852239283471
 10
175.64489121070483
 20
74.22740709904247
 10
172.47383275130233
 20
78.88980481157523
 10
170.6744771789365
 20
83.10228224429875
 10
169.85518375644892
 20
84.66909725503865
 10
168.67551978815732
 20
86.56043673629256
 10
166.4567653884974
 20
89.41042725366015
 10
165.00121664418361
 20
92.35832729011508
 10
163.49332830014214
 20
94.74485085225479
 10
161.6982739114219
 20
99.3914925915874
 10
160.98647752962438
 20
100.67922942209134
 10
160.63600534170746
 20
101.6373836550847
 10
159.71584936336149
 20
108.27587917638584
 10
159.071143594123
 20
110.887815001523
 10
157.18936902815585
 20
114.12013094424901
 10
154.75900334474704
 20
115.87003962247445
 10
152.33510565008692
 20
116.86847916128545
 10
147.81407975568982
 20
118.0605704971922
 10
146.32435261288583
 20
118.10873088311064
 10
140.86030638743682
 20
117.99208067531754
 10
139.09287462220732
 20
117.74510060972398
 10
133.8971004062862
 20
116.58295129655971
 10
130.93301702785243
 20
116.16056228138495
 10
126.9345179465763
 20
114.81521947138754
 10
121.94723081852567
 20
113.4908612067602
 10
119.94990164120054
 20
113.4373476996384
 10
114.11459597602061
 20
112.38610156051027
 10
112.92059755631226
 20
113.51195071155644
 10
109.97229453882778
 20
116.18422364283424
 10
105.96700901447639
 20
117.99874097490147
 10
104.85142661476698
 20
118.62113840151824
 10
100.35927849400764
 20
120.10589722393206
 10
99.29992548988503
 20
120.48689913759745
 10
99.00799701204392
 20
120.53193802293208
 10
94.09433638366045
 20
122.84222744761337
 10
92.03589599865404
 20
123.33683505909175
 10
88.59197455207163
 20
124.79326890255516
 10
85.06416234915946
 20
125.80425889399476
 10
83.01298549131138
 20
126.64053747562366
 10
78.0888086310631
 20
127.97660356482811
 10
77.35168520897128
 20
128.40670610330835
 10
75.79201807201503
 20
129.38551837467685
 10
73.96715605302848
 20
133.2598296191636
 10
73.34410843051296
 20
138.70569596834594
 10
75.09208484244641
 20
144.05681688879577
 10
76.42434905210257
 20
147.97932768733608
 10
78.04620174692309
 20
154.79661810024209
 10
78.97751468763272
 20
157.23533983155858
 10
79.06360834364546
 20
158.55824561209602
 10
78.0484237455073
 20
160.24272483114873
 10
76.80050010236891
 20
164.80350359988051
 10
76.26628490256257
 20
166.46115391459443
 10
75.22376199638484
 20
171.95075492498881
 10
71.48492264359584
 20
175.6946920126711
 10
71.31538534608626
 20
175.99962419596204
 10
71.08711752215095
 20
176.2390427481696
 10
68.18979132657296
 20
181.14614733770713
 10
67.8842390796051
 20
185.00781740051207
 10
69.94368131093893
 20
192.7743825465218
 10
70.10173834439661
 20
194.27822832326137
 10
71.0783624805947
 20
197.02880506787142
 10
74.45185795804332
 20
203.55416721898973
 10
78.04800494061215
 20
211.91473591874592
 10
78.354754228297
 20
212.81009254301762
 10
78.79886513075985
 20
213.8087345174713
 10
82.52513185873636
 20
222.06531324328716
 10
83.82380161534866
 20
229.73865623264328
 10
84.35119063204388
 20
231.31387146295128
 10
83.87789080830407
 20
239.04915496424337
 10
83.72596361707656
 20
240.56164513725253
 10
83.92451385422441
 20
248.37459540699592
 10
83.75060040880908
 20
249.81656397250072
 10
83.04558547139845
 20
256.4625489635323
 10
82.77220048763775
 20
259.08059009493945
 10
82.58825101644766
 20
265.1204458867046
 10
82.38909983588542
 20
268.34050374284834
 10
81.91508261341096
 20
273.4921330116322
 10
82.43555282673765
 20
277.61019768189
 10
82.23654132501292
 20
283.17028939827105
 10
81.64562121318954
 20
286.8485126008859
 10
80.48115507759007
 20
290.0700105862393
 10
78.05089137051868
 20
295.2046773515267
 10
77.77163764286138
 20
295.73769422589567
 10
77.69824997707337
 20
296.11534320918554
 10
76.619104820036
 20
303.49004918386436
 10
76.56093827560699
 20
305.39103556736745
 10
77.37202189925551
 20
313.76164506071154
 10
77.38122522554181
 20
314.64721185858025
 10
76.9073994317348
 20
322.39102717438027
 10
76.61514521301615
 20
323.90360646375166
 10
76.83090957808668
 20
331.56105477461915
 10
76.83091095048167
 20
333.160235474872
 10
75.3006088949005
 20
338.76135065385915
 10
74.07187404358456
 20
342.39838161961416
 10
72.70795007872721
 20
344.55915082817273
 10
71.07848952104155
 20
348.654108436755
 10
70.20766653259238
 20
350.50586552941286
 10
69.776063350203
 20
351.6588079126741
 10
67.2745379273299
 20
355.838994617714
 10
64.12335567181299
 20
358.9085145089289
 10
63.28744904524092
 20
359.78201401809156
 10
61.85337361917277
 20
360.9006462765424
 10
59.666782540516124
 20
364.25041330473323
 10
57.147639516012305
 20
366.6719368691838
 10
55.93202582561685
 20
368.55863777038985
 10
54.68281358743138
 20
370.1890342148017
 10
55.032527918392816
 20
376.67896635011584
 10
54.34266957070304
 20
379.45504927306683
 10
53.29685068540971
 20
383.6232011451798
 10
52.48014573702562
 20
388.72118848546916
 10
52.02832121178426
 20
391.20172765611414
 10
50.97498081845515
 20
397.9685287913003
 10
50.619429528384444
 20
398.56402284015667
 10
50.16528573191772
 20
399.88952828071297
 10
48.13559041762937
 20
404.5333898270601
 10
47.324186733034594
 20
407.2283125900294
 10
45.7508740328783
 20
410.6236342888965
 10
43.851809861422225
 20
416.49243678445237
 10
43.656612146412726
 20
417.0924720413095
 10
43.20213176414586
 20
417.7342318904548
 10
40.459311346912045
 20
422.1020048017522
 10
38.822316976176126
 20
425.74994736322196
 10
38.08260295179775
 20
428.2275623611017
 10
36.22154928488703
 20
434.96335314814996
 10
36.21202794674127
 20
434.99789503886905
 10
36.20863190176442
 20
435.0060071908033
 10
33.49534419208999
 20
440.6467248623235
 10
32.48964036870302
 20
444.27443381806006
 10
31.431746116247723
 20
447.1626104880743
 10
29.253839268219053
 20
451.97718453767766
 10
28.86017531920129
 20
453.01479505929865
 10
28.718325211355932
 20
453.5399654377961
 10
27.223924128142926
 20
460.10589664031795
 10
26.34083690038983
 20
462.79830202166886
 10
25.372639504850213
 20
466.9044458043113
 10
23.421031216677648
 20
472.05434240188606
 10
23.075779997696372
 20
473.12129068932245
 10
22.278104848673138
 20
479.3047093669038
 10
22.04356592677459
 20
481.0132408667605
 10
21.967523691759425
 20
481.3204626682477
 10
20.139013537762366
 20
487.7404528633342
 10
19.653305110611882
 20
490.58989459572786
 10
19.09850527626668
 20
495.62809694738553
 10
18.55927792931766
 20
499.84857744421106
 10
17.864031811849372
 20
503.24443449374303
 10
17.08728292719843
 20
509.1142093542071
 10
16.953500575657927
 20
511.3009173061614
 10
15.906573068569514
 20
518.3735532025398
 10
15.84741122041737
 20
519.0960180277602
 10
15.58207906960456
 20
527.6398469426508
 10
15.566640172331063
 20
527.9878539642614
 10
15.920393923953952
 20
536.9017257220817
 10
15.859498847540635
 20
537.6323970970366
 10
15.414238859675379
 20
546.1595320558531
 10
15.40593136464031
 20
546.287427106789
 10
15.30753395475358
 20
546.971476984229
 10
14.272935095359799
 20
554.04381619271
 10
14.217813476579067
 20
555.4190463012578
 10
13.496808016306431
 20
562.2721987163877
 10
13.24680644931982
 20
564.6811552789941
 10
13.246812048571883
 20
571.205672454862
 10
13.005889234132837
 20
573.9439760840023
 10
13.300884500258007
 20
580.545058856022
 10
13.45441072822291
 20
583.2109777821638
 10
13.989721855355583
 20
590.71929217666
 10
13.962662267030055
 20
592.4698478395608
 10
14.783978003559014
 20
601.0404730078999
 10
14.869717822674374
 20
601.7376374464534
 10
15.307443190695722
 20
604.6056666400996
 10
16.092714875534057
 20
610.9966676255867
 10
16.228492438410058
 20
612.220546640935
 10
17.216499110436416
 20
620.2585659131323
 10
17.66818485457111
 20
623.3954785195629
 10
18.556695459298
 20
629.5259785955213
 10
20.902693092664776
 20
636.9597280598323
 10
21.32842863428982
 20
638.7995781974419
 10
22.291246840836948
 20
640.2786210291297
 10
28.313318464250415
 20
648.0733780492101
 10
29.260612697130455
 20
649.572350464487
 10
34.65204272544497
 20
657.3348420409625
 10
36.2348062230551
 20
659.4375422540052
 10
42.08065612225846
 20
666.6034562557697
 10
43.21455460813081
 20
667.6147722722644
 10
45.54597348083007
 20
669.7050328915439
 10
50.18391731648467
 20
674.1236105004591
 10
52.07064012733099
 20
675.8674404595454
 10
57.15929498448895
 20
680.4379043273257
 10
63.91961257890898
 20
685.1352908031013
 10
64.14324320615265
 20
685.2736221742825
 10
64.29119255104024
 20
685.3300403649437
 10
71.12428418855234
 20
687.8664838824061
 10
73.7438283303236
 20
688.5876466599161
 10
78.15012205552853
 20
685.8703044679719
 10
78.57707360304221
 20
685.7260451224815
 10
80.84725995795134
 20
685.1455021695906
 10
84.4806132805677
 20
684.3327572302114
 10
85.08359513048094
 20
684.3754070946998
 10
91.80899243704039
 20
684.8213911588487
 10
92.05859559700684
 20
684.8384675139614
 10
98.5704433845217
 20
684.5366993967309
 10
99.035799641724
 20
684.5559279571848
 10
104.738928431962
 20
683.4482926709338
 10
106.01915850674709
 20
683.140303652066
 10
110.5830098397355
 20
681.935478161799
 10
113.0083922109668
 20
680.767528403203
 10
115.48692365257193
 20
679.154148790788
 10
119.33809963606905
 20
675.8665618640512
 10
119.7006781768448
 20
675.4869075793072
 10
119.98653370603779
 20
675.3119280020678
 10
123.9657417668484
 20
671.8869689041935
 10
126.96445846595543
 20
669.1711257094325
 10
128.07893432085143
 20
668.070578222043
 10
129.04266783467733
 20
666.5920273950123
 10
131.28413583305883
 20
663.063662019917
 10
133.9442831133315
 20
660.0811147242748
 10
134.86510004249817
 20
658.5459468842428
 10
135.54393714484945
 20
657.3206849831968
 10
137.13892090129116
 20
652.2913638008149
 10
139.32380960132855
 20
648.064763377562
 10
139.97332375459564
 20
646.8083042617204
 10
140.9193575899708
 20
645.1567855670405
 10
142.98811267368114
 20
641.5528726320708
 10
144.40384298383788
 20
638.8061661270431
 10
145.94025735394985
 20
636.226297717943
 10
147.88506077851798
 20
633.7670047278143
 10
149.42687559287538
 20
631.58873077518
 10
150.3860578693732
 20
629.543587279788
 10
152.2976594488573
 20
626.1516885052474
 10
154.8479513648706
 20
623.1651723373652
 10
156.1943404705455
 20
622.101892193552
 10
158.33102749235127
 20
620.3028443384651
 10
160.24193053982094
 20
618.2092049206935
 10
161.81316779103508
 20
616.9211356427022
 10
164.6062695387143
 20
614.7532116844059
 10
168.57482988071388
 20
611.043950671869
 10
168.69967682252468
 20
610.9377575677995
 10
168.78239795772288
 20
610.8819449533967
 10
172.96146996831294
 20
607.3519308930636
 10
175.74001576255114
 20
606.2049455057058
 10
178.0906232209527
 20
604.9341515674491
 10
182.6933347104516
 20
604.3151310888752
 10
184.27324836101502
 20
603.8875825555292
 10
189.66822189869163
 20
601.932057373323
 10
189.76025949807513
 20
601.9168929304287
 10
190.01177425072228
 20
601.7958211172754
 10
195.05908626287828
 20
599.6807713390872
 10
196.6478784841704
 20
598.8953268849232
 10
200.51364836639118
 20
597.6852085073137
 10
203.60588252793923
 20
596.9269595246205
 10
206.52527275685634
 20
596.4247893556244
 10
210.5762245378587
 20
595.89094761653
 10
212.66502206382097
 20
595.3143838251544
 10
217.54988870968555
 20
594.5763958640991
 10
218.76990557472482
 20
594.1576676456539
 10
224.5148004697378
 20
592.9808426495056
 10
224.8161886476223
 20
592.9436177807011
 10
227.32379567319686
 20
592.5407510208702
 10
230.98146835760895
 20
591.8642140809434
  0
LWPOLYLINE
  5
8F
330
17
100
AcDbEntity
  8
CORTE
100
AcDbPolyline
 90
469
 70
1
 10
27.58921827732638
 20
619.3326495177544
 10
27.28527101456325
 20
616.8598585690729
 10
26.54463516812325
 20
610.1838757978921
 10
26.085914561498385
 20
606.4505387814088
 10
26.30004666649802
 20
601.5554947264209
 10
25.82766282406078
 20
596.5045841981782
 10
25.33677628862256
 20
591.8384573636458
 10
24.881798344849813
 20
585.9335028727851
 10
24.416686290607004
 20
582.5800121360526
 10
24.143338942123364
 20
576.2363627890863
 10
24.143338942120863
 20
573.945589714072
 10
24.143333003030875
 20
567.0250768030837
 10
24.08444812616358
 20
564.9836230173569
 10
24.71338730190996
 20
559.5327372083848
 10
25.125007267177807
 20
556.3634711825575
 10
25.81269991971908
 20
551.582694176032
 10
26.138372106466477
 20
546.5689251955819
 10
26.337942447219348
 20
542.7469711108865
 10
26.812385549963892
 20
537.0541956906072
 10
26.669205603439877
 20
533.4463535808131
 10
26.915102030556
 20
527.9036207217473
 10
27.004497290878362
 20
525.0250483073041
 10
27.483750964952606
 20
519.1725617354437
 10
27.78215482403334
 20
517.1566610822824
 10
28.232972420223632
 20
509.7879281282003
 10
28.320976798675247
 20
509.1228922350642
 10
29.147313002377132
 20
505.08673935032357
 10
29.71919719666289
 20
502.05924236750525
 10
29.95965231633977
 20
501.0122914317926
 10
30.739065241947173
 20
493.80670622434036
 10
31.080121383638925
 20
492.3241801618201
 10
32.54217478294322
 20
487.1793068769384
 10
33.12300193562169
 20
482.1825774574845
 10
33.485108850445386
 20
479.3755968675264
 10
35.103697431449746
 20
474.3735861008081
 10
35.456781768819155
 20
473.4418684817074
 10
36.059300645023086
 20
470.88657433523804
 10
37.146787786329014
 20
466.376403663126
 10
37.66037611689762
 20
464.949457083002
 10
39.12542194533671
 20
459.84913132050133
 10
40.38351702667296
 20
456.0908214402057
 10
41.231195271376464
 20
454.2169076485952
 10
42.82745263827542
 20
449.85893587994633
 10
43.65731049669603
 20
447.39606764111977
 10
43.939837248467484
 20
446.44170221822424
 10
45.571676325170756
 20
441.8518521402716
 10
47.92116886463555
 20
437.70626756514275
 10
48.61092198267852
 20
435.20981473282654
 10
49.92950088333532
 20
430.7933365365411
 10
50.24305675558503
 20
429.6168833432921
 10
53.52819051055599
 20
424.97803197527855
 10
55.58588154873564
 20
418.65271627900347
 10
55.830130170443
 20
417.8978987524779
 10
56.517024569934165
 20
416.41553142072826
 10
58.49031465262692
 20
412.16811175033536
 10
59.368914658175754
 20
409.4383262769011
 10
60.492612304058866
 20
406.158599999133
 10
63.19626726069964
 20
401.6303913220672
 10
63.872222519134084
 20
400.4309256708416
 10
64.12401282556334
 20
399.0011593613558
 10
64.71309600098903
 20
394.00383962728756
 10
65.86051621450429
 20
393.22095682590725
 10
68.4438896674526
 20
386.3568267990604
 10
68.29159128487481
 20
379.1408287698978
 10
67.97875069623024
 20
374.97168849677337
 10
67.92186780839461
 20
373.07597794585445
 10
68.1720945911652
 20
372.8354477159146
 10
69.39459885406404
 20
370.9626217853356
 10
72.96463329412222
 20
368.028633892387
 10
73.68634589260478
 20
364.4141237175927
 10
75.005188027842
 20
363.1294591570472
 10
76.93467390343699
 20
359.9051820295899
 10
78.93902505781193
 20
357.13490840194936
 10
80.0315815864517
 20
354.16887493971717
 10
81.33670481406307
 20
350.88900156945556
 10
83.74837946564571
 20
347.0683543321684
 10
84.58816852114364
 20
346.167864769654
 10
87.31991298801518
 20
339.0392386355152
 10
88.92184354963297
 20
334.14208348181637
 10
88.69938256770274
 20
328.44234398954586
 10
88.44451250591214
 20
324.04087844641344
 10
88.900938451216
 20
319.2814327223864
 10
87.68033804479933
 20
313.54887907524926
 10
87.04690088880557
 20
307.755694087296
 10
87.09358333787986
 20
306.0842976181207
 10
87.91911046845394
 20
301.35523202430113
 10
88.5110376137759
 20
298.302203315146
 10
89.51831780224506
 20
296.17401940982927
 10
91.59340093462174
 20
290.43329760949155
 10
92.12160114975222
 20
289.0022086545532
 10
92.3505888929867
 20
287.51495408376013
 10
92.64010353360982
 20
279.0537271276644
 10
92.73916970632445
 20
278.335658727804
 10
93.31361439990246
 20
270.55371494744713
 10
93.4275015174751
 20
268.638287773108
 10
93.60978533954199
 20
261.3385120046628
 10
93.63441719799903
 20
259.4254848903224
 10
94.16154480011141
 20
253.25730710021162
 10
94.40247139602911
 20
249.9966482954269
 10
94.24673774435155
 20
243.5729493363542
 10
94.34627237445852
 20
240.9238655178283
 10
94.72117936815494
 20
235.2759329442806
 10
94.8867927985059
 20
230.99934235700812
 10
93.9837469371821
 20
223.8925976519131
 10
93.59505897701456
 20
220.5362001307849
 10
91.55329099829555
 20
214.3978995563548
 10
89.70799726297491
 20
210.2485130651262
 10
88.41863161727088
 20
206.48504198845967
 10
87.4752265444381
 20
201.91182455224407
 10
85.1699877086021
 20
193.44043811450183
 10
85.11128901194093
 20
191.46453046542865
 10
83.39915763184808
 20
189.6123797900109
 10
80.19029800532712
 20
185.50165101887205
 10
80.15185942956691
 20
185.45264434548972
 10
80.60659178218111
 20
184.97569862607907
 10
83.40085154431245
 20
179.94990346204122
 10
84.39489343303012
 20
178.95450624308933
 10
84.79683330332841
 20
176.8380160393367
 10
86.74358745797304
 20
171.96332867668298
 10
87.69878236224417
 20
169.5714839294319
 10
90.13407481105764
 20
165.5306429534503
 10
89.49597862752694
 20
155.72572620551455
 10
86.54126029803274
 20
147.9885462683751
 10
85.28617034733884
 20
145.21199631679156
 10
84.6197809693274
 20
143.59535689743598
 10
82.78677209091552
 20
137.9839241059649
 10
82.79988750396728
 20
137.8692863415099
 10
83.83363273711029
 20
135.67457203487675
 10
86.51163043247175
 20
134.94795680368543
 10
87.35642284012556
 20
134.60352926505493
 10
92.2742971367245
 20
133.1941793884048
 10
94.23164783495713
 20
132.36641608292575
 10
97.92841152465962
 20
131.47814772593028
 10
101.07295289673584
 20
129.9996572018972
 10
102.8573216449422
 20
129.72436381483294
 10
108.74638223041802
 20
127.60633201237897
 10
109.46170282991784
 20
127.24436445977972
 10
111.18679616081477
 20
126.53516342833291
 10
115.66570094820145
 20
124.50608202677586
 10
117.67269149275785
 20
122.68699271548576
 10
118.12446327585508
 20
122.26100649132377
 10
119.23150453897506
 20
122.46044297682874
 10
122.5086957370172
 20
122.54824722888043
 10
124.91797272053464
 20
123.18802308356362
 10
130.98861877595618
 20
125.23056451140656
 10
132.63741582517855
 20
125.46552205912985
 10
139.1884666852227
 20
126.9308088374114
 10
140.01777881912403
 20
127.12087840032518
 10
147.1153211661083
 20
127.29345364516166
 10
148.8726983540521
 20
127.6139347206713
 10
150.85263443845247
 20
126.72925234841205
 10
155.9713680352172
 20
125.37955913407222
 10
158.18353198879277
 20
124.46833587475567
 10
163.67931578238358
 20
120.51126891166086
 10
167.73718815435564
 20
113.5410792839075
 10
168.18901984113882
 20
111.71054599887702
 10
168.62140626954874
 20
108.5910799126732
 10
169.46112187470658
 20
102.9202983951568
 10
169.4486859669605
 20
102.72870701546344
 10
170.79118592402483
 20
99.25353858895505
 10
172.98158188121397
 20
95.78681535118722
 10
173.5450116941986
 20
94.64570979032851
 10
174.42244431020822
 20
93.51864740089059
 10
176.93973195521176
 20
89.48271374805427
 10
178.70672170379885
 20
86.10352628490546
 10
179.7302441896902
 20
83.70735432205493
 10
181.5150398463952
 20
81.0831746376698
 10
183.0994757988219
 20
78.53109193502542
 10
184.05304729228487
 20
76.07248950098028
 10
185.5427836831666
 20
70.80104074227529
 10
186.6678185412668
 20
67.10467451611976
 10
187.39072053504674
 20
65.56360967747332
 10
188.89221716839688
 20
62.486606425307855
 10
190.1229636136925
 20
60.00528350697914
 10
190.91290538772978
 20
58.354424666020805
 10
192.83085899045523
 20
54.387582312463564
 10
195.14761791086084
 20
49.772555264842595
 10
198.3233470806565
 20
45.71637694506035
 10
201.56433207993723
 20
42.05552809118535
 10
201.91505940933553
 20
41.73435848698091
 10
202.48745325700884
 20
40.98270268616443
 10
205.58613028945774
 20
36.77492017436498
 10
208.68158433990516
 20
33.40058854867857
 10
209.15307649489318
 20
32.891899071365515
 10
209.69478121800512
 20
32.301419343073576
 10
212.52103575593014
 20
29.33715510920092
 10
214.7160074181936
 20
27.749485811873
 10
216.6587566101323
 20
26.240219201682976
 10
219.93639197400512
 20
23.698330505581453
 10
220.48509715365776
 20
23.236789856919586
 10
224.18582063813938
 20
21.963855141196746
 10
224.5813442700503
 20
21.86844925910509
 10
228.46033177259483
 20
22.713667803382577
 10
229.86246746650386
 20
22.896635185876676
 10
235.40099384704422
 20
24.83844173840498
 10
235.68092739752456
 20
24.938480522878308
 10
235.83995584588274
 20
25.020412965137893
 10
242.38482294577148
 20
27.756254169120893
 10
246.25152887874629
 20
29.910222871470523
 10
249.07012569390326
 20
31.419974135547363
 10
252.44877902075268
 20
33.295134523511024
 10
254.44228031894045
 20
34.98404284520757
 10
259.7570679048458
 20
41.25941248568188
 10
260.8400205259154
 20
42.585861767336155
 10
266.3404028711027
 20
50.1500529249588
 10
267.8950255442478
 20
52.311755121766055
 10
274.66247624426455
 20
59.84389272016142
 10
274.68221276410395
 20
59.86836036679688
 10
279.85620125479113
 20
67.61821587514623
 10
280.5517336925832
 20
69.87501384052166
 10
281.82118809378517
 20
75.27357978714326
 10
282.2460275106887
 20
77.66325504950873
 10
283.75708243429654
 20
83.98855334565951
 10
283.7993817500551
 20
87.74400062000268
 10
283.73085424273313
 20
91.64664137794853
 10
283.1629410891246
 20
94.47540096381772
 10
281.7226882963182
 20
100.47290686943143
 10
281.61572485966235
 20
101.4700373982696
 10
280.787942849161
 20
103.47994838065051
 10
279.66662952016645
 20
106.5100439886296
 10
279.29815492649436
 20
107.2315245352761
 10
277.3836882284884
 20
109.77488535415068
 10
274.9576411806265
 20
112.46072400406456
 10
273.197548755144
 20
114.72534696462981
 10
272.17296826975485
 20
116.62727128140796
 10
270.15537325668834
 20
119.6995002471308
 10
267.6392633507794
 20
123.25085614162799
 10
266.44590987457264
 20
124.94912422741345
 10
265.98098534526366
 20
125.99552479785643
 10
263.63901882898836
 20
129.29990431035503
 10
261.59786611350205
 20
132.105231337669
 10
260.30451450423857
 20
132.84700923828268
 10
259.1835585445035
 20
135.21070843410826
 10
256.46502083249266
 20
139.11161759471543
 10
252.34697528914307
 20
146.88756291132768
 10
252.54601611750059
 20
147.89812967682292
 10
251.27879907849638
 20
151.7453975538333
 10
249.55893811797523
 20
154.28936037215817
 10
248.7795340222192
 20
157.14206241875263
 10
247.71225166551312
 20
158.24486984798114
 10
245.09972104234453
 20
160.3407180199456
 10
243.48086873578313
 20
164.7107262260938
 10
242.60507833416182
 20
170.16064776533904
 10
242.09300865128557
 20
171.8352106465536
 10
239.00343058801764
 20
171.9300830732236
 10
233.11701164502574
 20
174.8986528309174
 10
230.65865610314336
 20
180.44055144887398
 10
229.04328846492785
 20
184.4667853033052
 10
231.5202538041881
 20
194.83986625089938
 10
230.85099582026623
 20
201.93579028531758
 10
230.71809899703544
 20
203.3148787933328
 10
231.04879992025644
 20
212.40918752943662
 10
231.07091631844833
 20
212.98979735509965
 10
231.2708319265089
 20
222.17544481221557
 10
231.4095263917825
 20
223.3769027923795
 10
231.74396556083775
 20
224.5785151701989
 10
233.77694042228518
 20
232.86492541226698
 10
234.63412073730683
 20
236.8068083381845
 10
236.0428453452721
 20
242.16696612560327
 10
237.66805690007845
 20
249.79496955636796
 10
237.8998706169341
 20
251.48877941204228
 10
238.9909666829717
 20
254.51059556298014
 10
242.3918049609831
 20
262.0710215588683
 10
246.16488094066654
 20
269.52698279550805
 10
247.1494921140261
 20
271.60863891955023
 10
250.64623863746465
 20
277.46819265714385
 10
252.5391955316386
 20
280.83985951102795
 10
253.05648320249156
 20
281.88511457758204
 10
256.50422027763034
 20
290.06417733986837
 10
260.5355474730336
 20
296.53050783634353
 10
263.0818268979101
 20
300.2207593074427
 10
267.975991061601
 20
306.52565466327314
 10
271.1211316376159
 20
310.0392672268831
 10
274.9664653388845
 20
314.22924571683734
 10
278.6551295222537
 20
319.0089301377525
 10
282.06155884410987
 20
323.0180837228454
 10
287.2644416264261
 20
328.6157949896533
 10
289.2662900937926
 20
330.78408908724305
 10
294.85020189822626
 20
336.1305538223046
 10
296.3995413393941
 20
337.63157892416393
 10
296.86997696045296
 20
338.0736962767064
 10
303.578169641532
 20
345.1855265964814
 10
306.94255395985533
 20
347.5854766649836
 10
310.878219730796
 20
352.1448424932628
 10
316.0769605370094
 20
354.4931383717176
 10
317.6179221491914
 20
355.72442431987747
 10
318.66709311096565
 20
356.66374644555117
 10
324.40086472691496
 20
362.701298191826
 10
329.51208200863266
 20
366.67517458462316
 10
332.20596009073597
 20
368.29193118368994
 10
334.6110425547522
 20
370.04365640689184
 10
339.0531982015748
 20
373.150342461282
 10
342.95115819482635
 20
375.8407640781711
 10
345.4923176083523
 20
377.7339627891629
 10
351.18535854844345
 20
383.19520591613764
 10
352.19535474676536
 20
384.1825495994922
 10
352.72024610822723
 20
384.65948616788273
 10
359.59035152116803
 20
390.58079788513305
 10
364.20795024723975
 20
393.9980507897603
 10
366.15646851208567
 20
395.93953108021196
 10
370.992573101091
 20
400.17759315365856
 10
373.31786871327927
 20
402.3309020462307
 10
374.60125376912265
 20
403.37308619037367
 10
380.2447834065674
 20
407.94365600778747
 10
384.55102924832545
 20
412.07370171730554
 10
386.64616854355063
 20
414.40761957425866
 10
392.57573421501456
 20
421.01286391186886
 10
393.39227640581294
 20
422.01934853247576
 10
399.4857473467591
 20
429.53031731934016
 10
399.5739065299517
 20
429.70998697291907
 10
404.09590605395715
 20
438.209175511211
 10
406.371649428399
 20
442.7715995712633
 10
408.06157156295285
 20
447.125658087039
 10
411.6382893884779
 20
454.16534981484256
 10
411.63895065299994
 20
454.16681029389656
 10
410.5012105061087
 20
458.45480329987276
 10
410.08480853935225
 20
462.55120228493934
 10
410.21984437237643
 20
468.13020484196386
 10
409.26420626909794
 20
472.9264008308969
 10
413.4113275664631
 20
481.969675072286
 10
413.51534107601174
 20
482.1869545692848
 10
413.13185144079307
 20
482.8191766253208
 10
412.23939787375866
 20
487.26181662132285
 10
411.92201840639973
 20
487.91196015616197
 10
410.35387726985164
 20
492.31821671378884
 10
408.99007479930833
 20
494.1096101578437
 10
404.5311581437086
 20
495.411828733897
 10
402.76403458089544
 20
496.4022206979316
 10
399.16518498424966
 20
497.8215835666724
 10
396.53838634964086
 20
499.1432582613834
 10
394.57090238004776
 20
499.5079608292899
 10
389.58460052675673
 20
501.5891642557672
 10
388.5619665874674
 20
501.8546367868262
 10
386.9578922516639
 20
502.7734882108566
 10
381.9827284822268
 20
504.4436206055693
 10
379.78176122484774
 20
506.78059932954966
 10
376.922637302378
 20
509.83109654236296
 10
373.69563403755774
 20
513.2443592923892
 10
373.58193006681176
 20
513.3336181890186
 10
368.8696159160206
 20
517.0328248519272
 10
365.4236494428126
 20
521.0003476240836
 10
363.96085693214604
 20
523.0861617277383
 10
363.530162909143
 20
524.068107134422
 10
361.03334276120086
 20
527.2711069976049
 10
358.2224686859863
 20
531.5676120611051
 10
357.9201851353487
 20
531.9800006179385
 10
357.76010161920294
 20
532.1763993666327
 10
354.63045611340453
 20
535.1275699055532
 10
352.45227751422567
 20
537.2009997137388
 10
350.4012833233762
 20
538.7564514659266
 10
348.2301848533857
 20
541.3006326098639
 10
346.61005036937195
 20
542.7355351589754
 10
345.54164960975277
 20
543.7247045882482
 10
342.5390102123456
 20
545.9617253150491
 10
338.92712013199093
 20
549.1452072786487
 10
338.3012414284826
 20
549.5118961623361
 10
337.7314775277043
 20
550.1203680864801
 10
333.6932002778524
 20
552.8438112152321
 10
331.539580523377
 20
555.0112646219491
 10
329.79708706715337
 20
556.2491790802233
 10
326.0625336116743
 20
559.0687310596313
 10
326.0229044913085
 20
559.0960621493982
 10
321.60048201250265
 20
561.0544734613195
 10
319.81991334970985
 20
561.7062266043717
 10
316.8421201667959
 20
562.685541142861
 10
313.84474623547476
 20
563.3284692514549
 10
311.25815957424106
 20
563.7445771573894
 10
307.0078110055276
 20
564.6946086612706
 10
305.5653086044681
 20
564.8558252706875
 10
299.8812509350503
 20
565.7311807093392
 10
298.86537695276843
 20
565.9630235101013
 10
293.4491152817866
 20
566.9811572539866
 10
290.7222482361458
 20
567.0214036416537
 10
286.9936224087794
 20
567.0803660639081
 10
286.8302769021436
 20
567.0913643407375
 10
280.70776530622106
 20
567.4030393427015
 10
279.64370559617805
 20
567.3058741860427
 10
273.569059310222
 20
568.9789813773764
 10
273.3947472017255
 20
568.9903590190802
 10
265.1633119910282
 20
568.2212973882579
 10
261.79110152298176
 20
571.0687211912145
 10
259.46417192401395
 20
573.1383779847861
 10
256.9820812071448
 20
574.1890131861519
 10
256.09687287820816
 20
574.4613670978683
 10
250.68743286887047
 20
575.591298718186
 10
249.885505088708
 20
575.82981700242
 10
247.33561754409584
 20
576.5674901551879
 10
243.9571973476693
 20
577.5963823463653
 10
243.46442255286615
 20
577.7738609854146
 10
239.12925969457524
 20
578.7625112444243
 10
237.50906922597687
 20
578.9268435765198
 10
232.18880599291174
 20
579.8380046079719
 10
229.3458229834032
 20
580.8933997366962
 10
226.81904147095133
 20
581.5885725584171
 10
223.5460772532913
 20
582.1939523688475
 10
220.86460926503491
 20
582.4467094953343
 10
216.3296550563939
 20
583.6806946462102
 10
215.1957939380111
 20
583.7737039265808
 10
208.9291555932566
 20
585.02317031148
 10
208.6621542647033
 20
585.0995541913317
 10
205.19362940729252
 20
585.6077377768788
 10
202.78160614755006
 20
585.9255985565992
 10
202.17724837112678
 20
586.0295553499441
 10
196.06525146524655
 20
587.5282825465242
 10
194.0353804678266
 20
588.1637016927734
 10
189.84047397152153
 20
590.237519778676
 10
187.63617326549047
 20
591.1612204946459
 10
184.99135691711808
 20
591.6693900660457
 10
179.98874208095253
 20
593.9024902577994
 10
173.952140796408
 20
594.7996387027938
 10
173.22341316460302
 20
595.0756737424899
 10
172.71173227527834
 20
595.2554253045723
 10
166.62277210552088
 20
597.7689517518947
 10
164.55402665353972
 20
599.5163972408068
 10
161.57886205170666
 20
601.5237646966343
 10
157.41589285368218
 20
605.0647294561422
 10
157.2026530789592
 20
605.2279097739524
 10
156.70377100553492
 20
605.6395798819281
 10
152.42501927808166
 20
609.1472160737399
 10
149.2849219221082
 20
612.5875955366391
 10
147.7768365479037
 20
614.9374155331493
 10
147.02368176649998
 20
616.1163097244435
 10
144.35990821005134
 20
619.2357184258385
 10
142.16889406159044
 20
623.1233999829819
 10
141.3296415682571
 20
624.0537976416658
 10
140.4161847234452
 20
625.5080325571566
 10
137.6873952127578
 20
628.9587118548134
 10
134.99254520681438
 20
633.4837661193665
 10
134.39699084186236
 20
634.3793717414487
 10
133.85377759271182
 20
635.327670475704
 10
131.19577527123624
 20
639.9678221915037
 10
128.67182996780775
 20
644.8502932946312
 10
128.01819818952526
 20
646.114723995699
 10
127.360682410967
 20
648.1880103345065
 10
125.93909351451157
 20
651.730084057473
 10
125.06486448567898
 20
653.0734139912847
 10
123.04933236196166
 20
655.3332211566444
 10
121.3729036157174
 20
657.9721404480797
 10
119.90098605115281
 20
659.6169441567527
 10
118.11142499861808
 20
661.7217550122973
 10
116.63635530119677
 20
663.0576791430203
 10
115.84914388567654
 20
663.735242833668
 10
112.22700736230126
 20
665.9524464656956
 10
108.55901407986948
 20
669.7931849801917
 10
108.53690627148717
 20
669.8084852794273
 10
105.19722175380639
 20
671.4167198293594
 10
104.30693177021067
 20
671.6517502866864
 10
100.25638482595264
 20
672.6262032415198
 10
98.50584342306365
 20
672.9661852933368
 10
95.00879725928644
 20
672.821687045961
 10
92.13571825348845
 20
672.9548295380041
 10
88.41262449813621
 20
672.7001177343063
 10
85.56212936320435
 20
672.5110916668245
 10
80.07201431644262
 20
672.1227671048068
 10
75.0563997326592
 20
673.2447101169214
 10
71.99841547796564
 20
675.6722156881574
 10
70.79627313345236
 20
676.1810998863457
 10
67.52257334647084
 20
674.8713672047429
 10
61.52668437340935
 20
670.590199298736
 10
54.974037860713906
 20
664.5338240673286
 10
51.91018663719865
 20
661.6148873805155
 10
48.458791872898246
 20
658.1068088312763
 10
44.685047027205655
 20
653.3551077862144
 10
42.114197442426075
 20
649.0130244721681
 10
38.64062977120125
 20
644.0752787881679
 10
34.9187603898813
 20
638.6662155248296
 10
32.19236751277549
 20
635.1414325487394
 10
28.8289584267211
 20
627.9425216552559
 10
27.58921827732638
 20
619.3326495177544
  0
LWPOLYLINE
  5
90
330
17
100
AcDbEntity
  8
GRABADO
100
AcDbPolyline
 90
499
 70
1
 10
78.539359049332
 20
342.39038264400324
 10
78.27732738388772
 20
342.6713541311119
 10
78.05603186125836
 20
342.9722486245337
 10
75.07194294187639
 20
347.69973169451305
 10
73.49422853340343
 20
351.664647316848
 10
72.70332074805265
 20
353.8117755389553
 10
71.0846521695978
 20
356.0489857528423
 10
69.46715867203807
 20
358.75190643962105
 10
67.2469218880899
 20
360.91460615640335
 10
66.58945899368382
 20
364.20733836916634
 10
64.12012369045078
 20
366.2367305234893
 10
62.74624083474214
 20
368.34146219260265
 10
60.831869712449134
 20
370.1816494065256
 10
60.986613953351934
 20
375.3387414835079
 10
61.29712368344235
 20
379.47681904730916
 10
61.41695981970929
 20
385.15473439012703
 10
60.08822229777047
 20
388.68524489828815
 10
58.134443128157045
 20
390.0183050026585
 10
57.1955000702103
 20
397.98356163938524
 10
57.186000694551694
 20
398.03750290293283
 10
57.14106247060863
 20
398.11724465414227
 10
54.10752703892308
 20
403.19795268983444
 10
52.725597640472415
 20
407.2313776762835
 10
51.95958013128188
 20
409.6113725041673
 10
50.16722215738423
 20
413.46934380878656
 10
49.30063835754095
 20
415.3394937416765
 10
48.92756176722742
 20
416.49243678445237
 10
47.20070059807745
 20
421.80078573278433
 10
44.4164040911071
 20
425.7324179352081
 10
43.8126385625294
 20
426.56298813192507
 10
43.19235944006823
 20
428.89025870443766
 10
41.882890353770335
 20
433.27622428106224
 10
41.40446624520473
 20
435.00780503022315
 10
39.180666689192776
 20
438.931609418928
 10
37.2812172034985
 20
444.2741634087456
 10
36.982194880722545
 20
445.2842502898711
 10
36.223076808953465
 20
447.53717561859867
 10
34.7470139862146
 20
451.5670020385978
 10
33.85874711157453
 20
453.53064279193677
 10
32.439339170286075
 20
457.77084289211416
 10
30.996013074186976
 20
462.79555483540344
 10
30.431224867165838
 20
464.3647544307505
 10
29.25018635605329
 20
469.2629137313361
 10
28.74873360728202
 20
471.3895844868466
 10
28.496816499425677
 20
472.05434240188606
 10
26.625563477400192
 20
477.83717558956187
 10
26.174900846005585
 20
481.33062243401173
 10
25.65426124468786
 20
485.80957146530227
 10
24.298150424167034
 20
490.58163952735595
 10
23.824265082339025
 20
492.6415566026544
 10
23.04471623349741
 20
499.8483984051836
 10
22.86621669410306
 20
500.62559233660977
 10
22.278858891337677
 20
503.735005034976
 10
21.413800183598596
 20
507.96029394652305
 10
21.26110224761169
 20
509.1142093542071
 10
20.813579439178284
 20
516.4290881301795
 10
20.525749837788908
 20
518.3735532025398
 10
20.01337547164053
 20
524.6304986572427
 10
19.919918912401272
 20
527.6398469426508
 10
19.66304621508607
 20
533.4299950822706
 10
19.80082447483983
 20
536.9017257220817
 10
19.353120625901738
 20
542.2736606328344
 10
19.150212724124913
 20
546.1595320558508
 10
18.845125410955234
 20
550.856394021178
 10
18.18949059016927
 20
555.4143078862003
 10
17.76525263211056
 20
558.6807260893752
 10
17.0728308195944
 20
564.6818027867971
 10
17.143333089651833
 20
567.1260148454448
 10
17.143338942123364
 20
573.9455957213768
 10
17.143338942123364
 20
576.3871075711199
 10
17.437463351980796
 20
583.2129360668737
 10
17.918869321222928
 20
586.6839070807068
 10
18.364969926195954
 20
592.4736465763604
 10
18.861846048939697
 20
597.1967074924701
 10
19.2857508937459
 20
601.7292618502947
 10
19.067156489798663
 20
606.7263137286068
 10
19.59186114985937
 20
610.9966676255867
 10
20.332514186358367
 20
617.6728053454358
 10
20.650347300042313
 20
620.2585659131219
 10
21.914271746546774
 20
629.0363955907187
 10
21.985228357618098
 20
629.5259785955213
 10
22.282411480623068
 20
630.4676610806268
 10
26.179603126761776
 20
638.8090595479453
 10
29.262538777593136
 20
642.7947943955096
 10
32.89447564715647
 20
648.0731570362082
 10
36.2308085424454
 20
652.8158207506858
 10
38.905628912036036
 20
657.3335074187944
 10
43.2082963505361
 20
662.7511999762046
 10
46.99973319552282
 20
666.6049052678359
 10
50.18391731648467
 20
669.6384833270145
 10
56.923287430235405
 20
675.8674404595454
 10
57.159294984489634
 20
676.079414749318
 10
57.49177399471023
 20
676.3104367958822
 10
64.14039370669661
 20
681.0576656818876
 10
69.73265352257977
 20
683.2950013942218
 10
71.15396297008033
 20
683.6310371368822
 10
75.60447452867129
 20
681.7470713849416
 10
78.15118102579595
 20
679.7254310836274
 10
80.60018272968182
 20
679.1776138017303
 10
85.08359513048094
 20
679.4947326857709
 10
87.94214501826855
 20
679.6842928914234
 10
92.05859559700684
 20
679.9659158159702
 10
95.02635493285698
 20
679.8283857052556
 10
99.035799641724
 20
679.9940563044552
 10
101.7430476501986
 20
679.4682671222167
 10
106.01915850674709
 20
678.4395495399494
 10
107.63118513521499
 20
678.0139855521547
 10
112.06884079301085
 20
675.8770198861512
 10
112.68942080196916
 20
675.4475309168074
 10
113.01823119817459
 20
675.2592455683903
 10
116.65940977388345
 20
671.4465846071871
 10
119.98653370603779
 20
669.4099658273667
 10
121.26980940300496
 20
668.3054327880682
 10
123.14873637134338
 20
666.6037478566659
 10
125.1764735927461
 20
664.2188036214552
 10
126.9729121968112
 20
662.2113617989621
 10
128.65247729735165
 20
659.5675054734443
 10
130.64226910604975
 20
657.3365582541178
 10
132.18004711292747
 20
654.973626848197
 10
133.95424914362934
 20
650.5529716166798
 10
134.51038543424102
 20
648.7993562488955
 10
134.89012411378894
 20
648.064763377562
 10
137.34479353898496
 20
643.3163036863411
 10
139.92781826618534
 20
638.807042530686
 10
140.35506877157172
 20
638.0611823844365
 10
140.91778012654345
 20
637.2149666856185
 10
143.46496188170227
 20
632.9378693932449
 10
146.14207405587604
 20
629.5525384541065
 10
146.93422043294277
 20
628.2914313462529
 10
147.88625651978282
 20
627.23600148073
 10
150.12445587903926
 20
623.2645956473611
 10
152.6616651299712
 20
620.2933999181082
 10
153.67186796832107
 20
618.7121548838004
 10
154.85537818301373
 20
616.8680709770615
 10
157.25415936533136
 20
614.2398984779079
 10
161.15034327899343
 20
611.0458838268987
 10
161.55877741124186
 20
610.7088500221571
 10
161.81351972936704
 20
610.5139101593409
 10
165.81722078210873
 20
607.108416709596
 10
168.7823979577238
 20
605.1077878504648
 10
170.3044713032
 20
603.8221100021833
 10
175.20905798306921
 20
601.7974936490878
 10
175.6236072202305
 20
601.6518640692179
 10
175.72679986467506
 20
601.6127756849405
 10
181.87021215381333
 20
600.6997531872858
 10
182.70806075104224
 20
600.354377131484
 10
187.10627786907662
 20
598.3910719778164
 10
189.67098648699084
 20
597.8982941409236
 10
192.7470763237152
 20
596.6092747359048
 10
196.6478712505657
 20
594.6808553358956
 10
197.94624329198564
 20
594.2744204170649
 10
203.60587559320675
 20
592.8866178734606
 10
203.83262328426213
 20
592.847614548311
 10
206.1583408109566
 20
592.5411272939041
 10
210.13873174294895
 20
591.9579487327424
 10
210.57895224677168
 20
591.8320102205466
 10
216.16951992193435
 20
590.7173413983915
 10
217.54498896975224
 20
590.60451330663
 10
222.1212595593081
 20
589.3592857488429
 10
224.51301930932982
 20
589.133836731995
 10
228.38691629496157
 20
588.417306129511
 10
231.4963927153408
 20
587.5618212027066
 10
234.01340620004316
 20
586.6274351153456
 10
238.4541802223696
 20
585.8668975138448
 10
240.26495248029482
 20
585.6832348928101
 10
245.43588464837762
 20
584.5039842869141
 10
246.16425028080084
 20
584.2416548363494
 10
249.32804853299672
 20
583.2781253974749
 10
251.8559942885786
 20
582.5467999241273
 10
252.40384788958363
 20
582.3838512095977
 10
257.8454937170104
 20
581.2471923916119
 10
259.38186133954537
 20
580.7744949280282
 10
263.2547020405559
 20
579.1351741964727
 10
266.3759646236856
 20
576.3590084231032
 10
267.43580480247124
 20
575.464101601302
 10
273.2965120409401
 20
576.0116665096343
 10
274.73847978595836
 20
575.9175468727813
 10
280.2750203278374
 20
574.3926472556391
 10
280.5667181445699
 20
574.4192837909691
 10
287.24337396226747
 20
574.0793993036159
 10
287.28428204108377
 20
574.0766449066041
 10
290.82923999662967
 20
574.020586906277
 10
294.18460277474514
 20
573.9710644217294
 10
294.22794313901795
 20
573.957355742863
 10
300.29124993431196
 20
572.8175922633968
 10
301.19440563150715
 20
572.6114740341536
 10
306.4871776449552
 20
571.7963773132947
 10
308.16343645545203
 20
571.60903567578
 10
312.57874163607653
 20
570.6221333187077
 10
315.1355578440284
 20
570.2108146282899
 10
318.6747893067934
 20
569.4516596338281
 10
322.11705029760424
 20
568.3195943672013
 10
324.2235892842857
 20
567.5485241837137
 10
329.0935512111737
 20
565.3919259455424
 10
329.4599523165157
 20
565.2289625984395
 10
330.1604297857307
 20
564.7458629885041
 10
333.9339040501352
 20
561.8969261722864
 10
336.08249556759597
 20
560.37050867276
 10
338.1755447243852
 20
558.2640149354688
 10
342.3007858859669
 20
555.4819227211797
 10
342.7164125995762
 20
555.0380595950496
 10
343.04870478343923
 20
554.8433767447214
 10
346.95174120229717
 20
551.403281457689
 10
350.0232216832958
 20
549.1149728769478
 10
351.3089899998033
 20
547.9245556104252
 10
353.23743802938816
 20
546.2165893762731
 10
355.2344971873308
 20
543.8763545489751
 10
356.99459600784985
 20
542.5415146910104
 10
359.4448506012627
 20
540.2090930459071
 10
362.8962112940442
 20
536.9545538411139
 10
363.45964289499943
 20
536.2633067716683
 10
363.9782846750329
 20
535.5557527723508
 10
366.7323840022466
 20
531.3460296086223
 10
369.58906660853404
 20
527.6813868009945
 10
370.0916970806102
 20
526.5354324646119
 10
370.9464527752259
 20
525.3166256481918
 10
373.71690744800503
 20
522.1268552052875
 10
377.90428243113365
 20
518.839730250962
 10
378.09278047943144
 20
518.6917571617419
 10
378.41879432577525
 20
518.4377784115754
 10
382.01963457232705
 20
514.6291011733651
 10
384.8833549664041
 20
511.5736998276052
 10
385.8748296563299
 20
510.52095574522355
 10
389.8390885119452
 20
509.19017801757127
 10
391.228039731187
 20
508.3945541632256
 10
391.8233414348297
 20
508.24001572680345
 10
396.57944967474623
 20
506.2548914690178
 10
398.79424834510473
 20
505.8443454239373
 10
402.02828150929054
 20
504.2171404533524
 10
405.77304122207624
 20
502.7402315840186
 10
407.2583937291911
 20
501.90775941412494
 10
412.72878710632267
 20
500.310140883832
 10
412.995707662888
 20
500.26165572045966
 10
413.3708827734463
 20
499.9113530264958
 10
416.5834120414629
 20
495.69160420373055
 10
418.3849891557452
 20
490.6294253035885
 10
418.9249328361984
 20
489.5233648014878
 10
419.7531274701946
 20
485.4006062161957
 10
421.11487817989564
 20
483.15562029107423
 10
420.8600427206097
 20
481.31789125273235
 10
419.7501006529392
 20
478.9992726885839
 10
416.57243870404545
 20
472.07001588856474
 10
417.2365770175629
 20
468.736811085972
 10
417.09340176813475
 20
462.82152871408425
 10
417.4092632249999
 20
459.71420777272897
 10
419.04442967018485
 20
453.55148045778196
 10
417.9502304553125
 20
451.1348151437269
 10
414.4607154716182
 20
444.2667559444658
 10
412.7801882512176
 20
439.93690328121875
 10
410.3188543115348
 20
435.0024061352092
 10
405.8075913453731
 20
426.5233971720995
 10
405.42098243205874
 20
425.7354827766817
 10
398.82832181101367
 20
417.6091999689115
 10
397.9015753825179
 20
416.4668756187493
 10
391.855165794786
 20
409.7314729088275
 10
389.58522850683994
 20
407.2028357040049
 10
384.8783402856134
 20
402.6885408361295
 10
379.0103832723621
 20
397.93621225142624
 10
377.9071423522728
 20
397.04031574020246
 10
375.67829562787574
 20
394.97632204982256
 10
370.93851610660545
 20
390.8226732905996
 10
368.7848927278583
 20
388.6768287181735
 10
363.9634427503506
 20
385.1087157405068
 10
357.35978056491354
 20
379.4170501946278
 10
356.9973142980375
 20
379.08769934191105
 10
356.05503509683786
 20
378.1665538773964
 10
350.02375596490174
 20
372.3808442623126
 10
347.03167913451125
 20
370.1517058744048
 10
343.04728459042485
 20
367.4016260300291
 10
338.6778930418757
 20
364.3458286043451
 10
336.0752784603674
 20
362.45023222587906
 10
333.47577964143215
 20
360.8901182408772
 10
329.1136236424502
 20
357.49862306651676
 10
323.54758536504005
 20
351.6376913146951
 10
322.140898577758
 20
350.37828548730477
 10
319.75977637114715
 20
348.47567980869917
 10
315.1676730746524
 20
346.4014049705097
 10
311.6920870113029
 20
342.37502944658127
 10
308.20058058574864
 20
339.8843980881038
 10
301.81745193129154
 20
333.11719117291887
 10
301.23210879257135
 20
332.5670832575415
 10
299.70615247221303
 20
331.08871210120424
 10
294.2631776845715
 20
325.8771912579041
 10
292.3996967273097
 20
323.8587693710979
 10
287.2950207282365
 20
318.36671745508374
 10
284.09619190044486
 20
314.6018966262018
 10
280.32567635950477
 20
309.716151138417
 10
276.30781972490263
 20
305.33818704413034
 10
273.3551989305413
 20
302.0396491034867
 10
268.73183108600506
 20
296.08360646242227
 10
266.38957447187136
 20
292.6890395380092
 10
262.73856825682765
 20
286.83275159936784
 10
259.42438168168223
 20
278.9705105371054
 10
258.7321719689776
 20
277.57180001278584
 10
256.70471972441055
 20
273.960574869795
 10
253.3332343228176
 20
268.31092318537185
 10
252.45282859639292
 20
266.44957728392274
 10
248.7099558119437
 20
259.0533004676604
 10
245.48430574858708
 20
251.88233654670057
 10
244.73495474953484
 20
249.80699137578358
 10
244.5683167124082
 20
248.5894053181337
 10
242.85483367025495
 20
240.54709569669012
 10
241.4423695487069
 20
235.1727091645339
 10
240.59740140107397
 20
231.2869858741965
 10
238.51660930007324
 20
222.80567245300062
 10
238.3003932580184
 20
222.0288260293296
 10
238.26207417415935
 20
221.69688222029436
 10
238.06801673131145
 20
212.78040354349696
 10
238.04395694144546
 20
212.14877490856452
 10
237.7303419896375
 20
203.52433210925255
 10
237.81940022769618
 20
202.60016259439954
 10
238.51874367860182
 20
195.1852521700007
 10
238.59206922073508
 20
194.36659556701125
 10
238.60494868467595
 20
194.2529757206289
 10
238.51612442755982
 20
193.9984014446577
 10
236.36902886185771
 20
185.00675519420884
 10
237.10840104529439
 20
183.1639020593857
 10
238.50175212021009
 20
180.02285502007453
 10
240.76962577020709
 20
178.87914758150237
 10
245.4431499482921
 20
178.73563653539986
 10
246.8145328565913
 20
177.57972893647138
 10
248.20812700941087
 20
175.7752988918487
 10
249.43997254450596
 20
171.7469354142968
 10
250.28332297240104
 20
166.49888330775684
 10
250.99092272919756
 20
164.58875430380976
 10
252.43607006868365
 20
163.42941500924962
 10
255.05868086745613
 20
160.71950918658786
 10
256.0063617576343
 20
157.25089614022318
 10
257.62296114414767
 20
154.85967450904536
 10
259.42688206499383
 20
149.38297493997106
 10
259.7857513819795
 20
148.43250991508057
 10
259.69468354167
 20
147.97014179904318
 10
262.45164774067484
 20
142.76427347494428
 10
265.25911829521374
 20
138.7357519812199
 10
265.6895701358244
 20
137.82808146958496
 10
266.3780574259574
 20
137.43321231488926
 10
269.3249053742643
 20
133.3831125197844
 10
272.0950225144022
 20
129.474637201507
 10
272.56574953221707
 20
128.41517703343106
 10
273.3588458010702
 20
127.28651724469
 10
275.93858390262835
 20
123.64535352139183
 10
278.1912060095508
 20
120.2152444851904
 10
279.0830962614409
 20
118.55963247407226
 10
280.32576060128076
 20
116.9607583720458
 10
282.7881008263846
 20
114.23474011462986
 10
285.2559978094132
 20
110.95614952948608
 10
286.0883340273847
 20
109.32641874248338
 10
287.30881440327107
 20
106.02834662385976
 10
288.46912600382484
 20
103.21103119618556
 10
288.6346028305061
 20
101.66842934214992
 10
290.0001239518972
 20
95.98212133380002
 10
290.7186492772105
 20
92.4031667194281
 10
290.8000739320562
 20
87.76603355756288
 10
290.74780197254086
 20
83.12518808840832
 10
289.102079577194
 20
76.23616976049016
 10
288.6794136496144
 20
73.85872013789276
 10
287.31137262518473
 20
68.04089818140983
 10
286.24496270977534
 20
64.58071200376389
 10
280.3287549072454
 20
55.719123751393
 10
279.99394612526703
 20
55.30405650374905
 10
273.3560758134024
 20
47.91614120661279
 10
272.012662634392
 20
46.048125725781574
 10
266.38626513990107
 20
38.31063703750169
 10
265.1395143041873
 20
36.78356030463328
 10
259.4093682083728
 20
30.01776124607477
 10
256.4480336868603
 20
27.508897810041162
 10
252.42136385176968
 20
25.274086765602988
 10
249.6076053613922
 20
23.76692709849158
 10
245.44758131599224
 20
21.44956401214995
 10
238.79750250238703
 20
18.66974291718725
 10
238.4739840795712
 20
18.503064220571105
 10
237.73683647533426
 20
18.239632594819795
 10
231.49079728772335
 20
16.04977215387953
 10
229.66052346272227
 20
15.810936203505662
 10
224.50180703117098
 20
14.686868959216554
 10
222.2222924163484
 20
15.236720055388105
 10
217.50287132844824
 20
16.86005532107174
 10
216.73525232256407
 20
17.24389228049813
 10
215.53678116339256
 20
18.25198036990969
 10
212.36661652859607
 20
20.7105228114483
 10
210.51627876095426
 20
22.147997613581083
 10
207.89802573407678
 20
24.04183524933569
 10
204.58206879725913
 20
27.51971468905731
 10
204.0069965356215
 20
28.14656636361815
 10
203.5354469872043
 20
28.655317762286813
 10
200.17305983485926
 20
32.32063119322629
 10
196.88428191247203
 20
36.78655716166304
 10
196.72556171410156
 20
36.994985254132644
 10
196.56634260500869
 20
37.140786091315476
 10
192.94202810416527
 20
41.23462410335196
 10
189.59458639632476
 20
45.510121085656465
 10
189.34744798192492
 20
45.724455024685994
 10
189.17961877188395
 20
46.058396151097895
 10
186.55150616587662
 20
51.293645556674164
 10
184.60468782603584
 20
55.32018792672352
 10
183.82998670478878
 20
56.93919610826879
 10
182.61118052005713
 20
59.3964461216533
 10
181.0761786107123
 20
62.54211142800568
 10
180.11727731449082
 20
64.58627382353689
 10
178.82567846412235
 20
68.82989555122776
 10
177.40695403746713
 20
73.85006768611765
 10
176.80875000626725
 20
75.3924228186338
 10
175.64489121070483
 20
77.26707347644424
 10
173.55989477618732
 20
80.33263746127432
 10
172.3768437442468
 20
83.10228224429875
 10
170.85971826152058
 20
86.0036298131522
 10
168.67551978815732
 20
89.5055260468298
 10
167.58385285879262
 20
90.90777245918161
 10
166.86763004369936
 20
92.35832729011508
 10
164.50801873516343
 20
96.09286639413085
 10
162.3635487636077
 20
101.64399829363765
 10
162.42761924766774
 20
102.63108767137646
 10
161.69215463949195
 20
107.59783960645154
 10
161.30545710747288
 20
110.38768164934072
 10
161.18200887630383
 20
110.887815001523
 10
158.3796499346563
 20
115.70141470052522
 10
154.75900334474704
 20
118.30834785948218
 10
153.736098727509
 20
118.729697496693
 10
148.5170681028667
 20
120.10583674800364
 10
147.99608027902877
 20
120.33862645649106
 10
147.83267306075436
 20
120.30882697951029
 10
140.8935605765398
 20
120.14010392336422
 10
140.87204870307346
 20
120.13443481358763
 10
140.7343423913876
 20
120.10361280063398
 10
133.8971004062862
 20
118.5743130753358
 10
132.61207856232818
 20
118.3911943698713
 10
126.9345179465763
 20
116.48091123675977
 10
123.51427782956694
 20
115.5726773312972
 10
119.94990164120054
 20
115.47717866602625
 10
115.8909159224479
 20
114.74594138207794
 10
112.92059755631226
 20
117.54672432756024
 10
111.77766381829974
 20
118.58265274883297
 10
108.41081467912068
 20
120.1079387940722
 10
106.54614236097746
 20
120.87452197403854
 10
105.97107781584714
 20
121.16551695745284
 10
101.1231785580328
 20
122.90908957894499
 10
99.00799701204392
 20
123.23542094550612
 10
95.5973780519455
 20
124.83901498894011
 10
92.03589599865404
 20
125.69477750921124
 10
89.93829499806338
 20
126.58185264571694
 10
85.06416234915946
 20
127.9786671702891
 10
84.26537618934003
 20
128.30433765267753
 10
80.34812855203472
 20
129.36719584801722
 10
78.7086774940683
 20
130.24133569125252
 10
78.05071719450007
 20
131.52457174667552
 10
75.9762227518645
 20
135.9288702975282
 10
75.6585356532014
 20
138.70567485894117
 10
78.04761453312426
 20
146.01941770334315
 10
78.85919609108487
 20
147.9882887296735
 10
80.07650624975395
 20
150.68126102241285
 10
82.57941518397365
 20
157.23533983155858
 10
83.00639240799228
 20
163.79622554568732
 10
81.40930913932266
 20
166.44623972252248
 10
80.24280552493224
 20
169.36720960024377
 10
78.04569626111788
 20
174.86878807986977
 10
77.91969128660276
 20
175.5322910411146
 10
77.75751143978187
 20
175.6946920126711
 10
74.92316428470849
 20
180.7925889291364
 10
71.08711016159691
 20
184.8160316926169
 10
71.02779724126935
 20
184.91648800437224
 10
71.02057085948331
 20
185.0078174005116
 10
71.07878465538761
 20
185.22735317160914
 10
74.67741029060448
 20
189.81536580323655
 10
78.06083414130148
 20
194.1497211153437
 10
78.19219179209858
 20
194.29182128620323
 10
78.1977151107128
 20
194.4777464961121
 10
80.66361251418266
 20
203.5395276425511
 10
81.65264782178065
 20
208.33394060893352
 10
83.18617801536766
 20
212.81009254301762
 10
85.01871247826966
 20
216.9307881263444
 10
86.7246939475217
 20
222.05959176212582
 10
87.0346871058855
 20
224.73644408307382
 10
87.86962431341703
 20
231.30719074483568
 10
87.73015739742777
 20
234.90860700009762
 10
87.35498360413567
 20
240.56055888017272
 10
87.24355042409024
 20
243.52631897580795
 10
87.39620837881944
 20
249.82315164058582
 10
87.18354066784968
 20
252.70135959278696
 10
86.63826023851334
 20
259.0819524893368
 10
86.61091036440189
 20
261.20607360835265
 10
86.4326907554887
 20
268.34309305338365
 10
86.32892485802336
 20
270.0882950043242
 10
85.77450817823456
 20
277.5989213209082
 10
85.65652364620041
 20
278.4541170128841
 10
85.36889035385661
 20
286.86036051549763
 10
85.31043951212905
 20
287.2399934176701
 10
85.01827449976463
 20
288.03157606045806
 10
83.048556380734
 20
293.48080533229404
 10
81.80680285413928
 20
296.1043850471747
 10
81.03463298074871
 20
300.08706570379945
 10
80.11049620374365
 20
305.381020649992
 10
80.03623782445584
 20
308.03973276577926
 10
80.76022232950459
 20
314.66103075323144
 10
81.83006811808923
 20
319.6855648636456
 10
81.42511051580846
 20
323.9083172036867
 10
81.70727870136602
 20
328.7812063040128
 10
81.87817422821695
 20
333.1597718169087
 10
80.72102773327902
 20
336.6972072445383
 10
78.539359049332
 20
342.39038264400324
  0
TEXT
  5
91
330
17
100
AcDbEntity
  8
GRABADO
100
AcDbText
 10
319.99409750922723
 20
350.6974335494342
 30
0.0
 40
6.0
  1
83p
 72
1
 11
319.99409750922723
 21
350.6974335494342
 31
0.0
100
AcDbText
 73
2
  0
LWPOLYLINE
  5
92
330
17
100
AcDbEntity
  8
CORTE
100
AcDbPolyline
 90
666
 70
1
 10
441.42663824711053
 20
577.3584142626628
 10
441.4179177377755
 20
577.3534311144713
 10
437.3676341291739
 20
575.0390283779452
 10
437.3611866990309
 20
575.0353441321463
 10
437.35140878696484
 20
575.0320848281244
 10
437.34486095796456
 20
575.0304478708745
 10
437.3307780361956
 20
575.0284360249075
 10
437.3150847545653
 20
575.0305284624578
 10
437.3082532081462
 20
575.0324803328635
 10
437.30437438312856
 20
575.0337732745361
 10
432.6378678466681
 20
576.9372502216124
 10
428.05069012836657
 20
579.1443235781267
 10
419.76438074701764
 20
579.6716089182528
 10
419.7622454510265
 20
579.6716089182528
 10
418.8005785300352
 20
579.7879219406846
 10
413.67639854499384
 20
580.393110985824
 10
413.66365630431255
 20
580.3958414659696
 10
413.65327810736835
 20
580.401030564442
 10
413.64639438528275
 20
580.4049641199194
 10
413.6412433598007
 20
580.4090849403051
 10
413.6348479810017
 20
580.4144144226375
 10
413.6279129197105
 20
580.4230832492517
 10
409.48445200256765
 20
586.7367466532833
 10
409.47905857124397
 20
586.7467630257411
 10
409.4764850661759
 20
586.7557702934796
 10
409.47553056677543
 20
586.759588291081
 10
409.3662810894175
 20
587.3833532071244
 10
400.2640197422302
 20
590.9288547829747
 10
392.438789097901
 20
593.2614212945973
 10
391.0162276050096
 20
593.4176294213639
 10
391.011064182514
 20
593.4186621058634
 10
387.4108324231165
 20
594.3368736300399
 10
387.40510790716144
 20
594.3389552722056
 10
381.7370146867456
 20
596.81631140525
 10
373.8148649042437
 20
600.302750398147
 10
372.4694740099294
 20
600.942909951666
 10
372.4649177148053
 20
600.9459474817486
 10
371.9139353655346
 20
601.3147746827526
 10
363.22053137593366
 20
605.9305876126145
 10
354.8680006213722
 20
607.6047420680329
 10
354.8664362517261
 20
607.6047420680329
 10
353.97026831463927
 20
607.8231328914135
 10
351.1965664571103
 20
608.2755920799946
 10
344.7522905607343
 20
609.1006431012556
 10
344.31263534139043
 20
608.6510288251839
 10
344.31014051729926
 20
608.6481181970776
 10
344.3016913370957
 20
608.6410772135746
 10
343.75743120505194
 20
608.2926559783386
 10
340.53864009604195
 20
604.5230547473388
 10
337.6643283720118
 20
601.345354926561
 10
337.43544152245795
 20
599.9314856529054
 10
337.43235237114004
 20
599.9228360292159
 10
337.4274275981011
 20
599.9113448921248
 10
337.4205989783454
 20
599.90280911743
 10
337.4122619463601
 20
599.8928046790479
 10
337.4004539435914
 20
599.8855382158054
 10
335.49769290359336
 20
598.8231753823816
 10
331.754956839392
 20
597.1564845357129
 10
326.23951790664887
 20
594.4533472860912
 10
326.2351841303771
 20
594.450747020328
 10
326.22599376213884
 20
594.4476835642486
 10
326.11981702519506
 20
594.4168106658722
 10
326.1126677815332
 20
594.4144275846515
 10
326.1011809158572
 20
594.4134703458453
 10
320.95508204123416
 20
594.3335104620182
 10
317.0320843436357
 20
594.2752286433597
 10
316.97493597510083
 20
594.2579964417391
 10
312.09550175148615
 20
591.0497085774332
 10
312.0900158260001
 20
591.0469656146902
 10
312.08515047304854
 20
591.0448032356007
 10
312.0789831437396
 20
591.0427474591643
 10
312.07273070874453
 20
591.0411843504153
 10
307.6903151200354
 20
590.378861554359
 10
303.9867110665796
 20
590.1528322775707
 10
298.43997451163386
 20
588.9530631813577
 10
298.43222917852927
 20
588.9508502290423
 10
298.4177133059952
 20
588.9508502290423
 10
295.95732435907667
 20
589.2148180085665
 10
295.954312883905
 20
589.2148180085665
 10
289.14816446451823
 20
590.5007913774111
 10
289.1447733078603
 20
590.5013565701875
 10
289.13774284854844
 20
590.503365272848
 10
280.8118872855939
 20
593.636893139228
 10
279.8953675625844
 20
593.6635306660942
 10
279.8902930950171
 20
593.6640944958235
 10
279.88532250738945
 20
593.6649229270947
 10
279.8723794634884
 20
593.66815868807
 10
279.8611536804706
 20
593.6745734212232
 10
279.85721773927617
 20
593.6771973820196
 10
278.96700590471437
 20
594.3472887310977
 10
278.96261335315694
 20
594.3502170988027
 10
278.9544248099319
 20
594.3584056420277
 10
278.9493773137315
 20
594.3647150122779
 10
278.119861539923
 20
595.6584712558706
 10
273.147358557198
 20
601.330489703596
 10
273.1427470634403
 20
601.3360234961056
 10
273.1348463872655
 20
601.3495675124054
 10
273.1319164288557
 20
601.3598223668391
 10
273.1312889498963
 20
601.3623322826761
 10
271.8561639069367
 20
607.3649831134635
 10
271.85487111994917
 20
607.372739835389
 10
271.85487111994917
 20
607.382145156234
 10
271.9346398046109
 20
608.3157799671972
 10
270.5968957057662
 20
609.3631537173942
 10
262.06210448675165
 20
614.7131711446
 10
261.3414208716613
 20
615.1467142044385
 10
261.3370748768248
 20
615.1491976300595
 10
261.32794154522026
 20
615.156504295343
 10
261.227481030744
 20
615.2664437005874
 10
260.4494499940811
 20
615.926907933956
 10
253.5000184651608
 20
622.2358646986063
 10
252.07032168847445
 20
623.5469661226684
 10
244.8876163980176
 20
629.2005069049237
 10
242.8248460488926
 20
630.4850603771674
 10
239.38704302917586
 20
631.7841394317693
 10
233.561273437188
 20
634.3071648760292
 10
233.55302035291334
 20
634.3128117231645
 10
233.54691943856005
 20
634.3176924546469
 10
231.76438906803605
 20
636.1832875828168
 10
231.75867643211677
 20
636.1904283777158
 10
231.75294277244257
 20
636.2004622821455
 10
231.74760810414364
 20
636.2143324197232
 10
231.74558807168478
 20
636.2304926793927
 10
231.8294020462472
 20
637.5112262801022
 10
232.04782636491836
 20
643.1837789426236
 10
230.83615932221437
 20
645.1922235270827
 10
230.8307535839058
 20
645.198710413053
 10
230.8255531377249
 20
645.2143117515957
 10
230.8224297391116
 20
645.2260244963959
 10
230.8224297391116
 20
645.2463568928088
 10
230.8289285273804
 20
645.2691026517496
 10
230.83913421719853
 20
645.2832336068823
 10
233.53598851432753
 20
648.2399101654523
 10
234.27053054558883
 20
649.6101669346926
 10
234.0645732909975
 20
650.1299777057584
 10
233.55734146026998
 20
650.5845626542146
 10
232.19845188379531
 20
651.1373864136881
 10
224.3145016860376
 20
653.7025705063493
 10
216.2986254550733
 20
656.1356024667607
 10
215.04847938946477
 20
656.6099068127287
 10
215.04349629061198
 20
656.6120424265227
 10
215.0370057339037
 20
656.6156482913607
 10
214.35835536311515
 20
657.0826608658303
 10
214.3570283952581
 20
657.0835455110687
 10
205.77152440387727
 20
663.5460443619045
 10
205.76723606158157
 20
663.5491074635443
 10
205.76161996846122
 20
663.5547235566646
 10
205.2927133261942
 20
664.0691546598864
 10
205.28752247723105
 20
664.0769409333311
 10
205.2844742448592
 20
664.0826563690284
 10
205.05193194483354
 20
664.6099085223186
 10
205.04862888812795
 20
664.6187166735335
 10
205.04723049472477
 20
664.627107033954
 10
205.04605505712152
 20
664.6359228159781
 10
205.0469057714763
 20
664.6478328169474
 10
205.7417837949797
 20
668.3604473440273
 10
206.06786664753463
 20
670.8449758120864
 10
206.06786664753463
 20
671.0893248609641
 10
206.0686308135987
 20
671.0984948537357
 10
206.0708045501283
 20
671.1071897998531
 10
206.07437172939171
 20
671.117891337643
 10
208.86824305388154
 20
675.7282123512091
 10
209.07655331239403
 20
678.0502809997133
 10
207.58937971055866
 20
683.6205216536127
 10
207.5874560696202
 20
683.6301398583041
 10
207.5874560696202
 20
683.6397624558954
 10
207.66758918612595
 20
685.0068990849954
 10
205.7630153319178
 20
687.8741288612568
 10
198.83001253724478
 20
691.9306902470594
 10
198.82690771570924
 20
691.9319321756734
 10
196.52600578858437
 20
693.56668857363
 10
193.77663074186012
 20
694.0207573726457
 10
189.59254824064647
 20
691.9325365985842
 10
189.5899655456028
 20
691.9309869815579
 10
188.10561148383113
 20
691.3331424831849
 10
187.30837863427587
 20
691.1495333017956
 10
187.29581545204474
 20
691.1477385614771
 10
187.28432080497987
 20
691.1490157444841
 10
187.2793502173522
 20
691.1498441757553
 10
187.27501679081706
 20
691.1509275323892
 10
184.62068417952696
 20
691.9263223293324
 10
184.6118442133993
 20
691.9288480339405
 10
184.59830019709943
 20
691.9367487101154
 10
184.5922465904241
 20
691.9417933823447
 10
184.58665112303697
 20
691.9468801708786
 10
184.58090320763722
 20
691.9540650651284
 10
184.57397630547075
 20
691.9644554183778
 10
184.57005431023344
 20
691.9754370050418
 10
184.56797987684604
 20
691.9826975218989
 10
184.5665015811437
 20
691.9930455918138
 10
184.5665015811437
 20
692.0033536508531
 10
184.56865685429784
 20
692.0195181995091
 10
184.57510364930658
 20
692.0334862553618
 10
184.57844655426334
 20
692.0390577636226
 10
184.58708745784497
 20
692.051539068796
 10
184.59862605005765
 20
692.0599307722237
 10
184.60270974212563
 20
692.0626532336023
 10
186.07914384714786
 20
692.8653706266814
 10
182.64891642121347
 20
698.9276983590412
 10
177.9851530308547
 20
705.0429206312588
 10
176.31816214393302
 20
705.8727107303216
 10
176.3139260709372
 20
705.8748287668195
 10
176.3067074329433
 20
705.8796411921489
 10
176.29781036690474
 20
705.8870554138475
 10
176.29180147029
 20
705.8945665346164
 10
176.28991052906122
 20
705.8972138523363
 10
176.28366836618306
 20
705.9065770966536
 10
176.27997687463585
 20
705.9176515712952
 10
176.2791858651567
 20
705.9204201044722
 10
176.27664346730262
 20
705.9305896958886
 10
176.27664346730262
 20
705.9451527037086
 10
176.27812176300495
 20
705.9555007736235
 10
176.28083507313295
 20
705.9649973590722
 10
176.28624913965905
 20
705.9776301809666
 10
176.2923464207356
 20
705.9857598890685
 10
176.29567321821514
 20
705.9899183859179
 10
176.3008257455017
 20
705.9950709132045
 10
177.05353449710947
 20
706.6315213167813
 10
174.4200898514664
 20
712.881124359601
 10
172.74062846754396
 20
716.812227453348
 10
172.74002997647722
 20
716.813424435481
 10
171.56658755241233
 20
719.8557753824857
 10
171.56389900562363
 20
719.8638410228527
 10
171.56284957573507
 20
719.8711870320712
 10
171.5621888209671
 20
719.8764730702151
 10
171.5621888209671
 20
719.8864724872378
 10
171.5632160586274
 20
719.8936631508614
 10
172.3828556580761
 20
724.0776848437354
 10
171.85370145586558
 20
726.837449714038
 10
171.8516237987751
 20
726.8478379994908
 10
172.24459299737782
 20
731.1518437687992
 10
171.91721094419017
 20
733.793226314599
 10
168.72267562837123
 20
737.9799371704603
 10
164.10832593475698
 20
740.7304789002719
 10
164.10413725490662
 20
740.7334708144513
 10
164.09662613413548
 20
740.7394797110678
 10
164.0869399655644
 20
740.7511031133531
 10
164.08281937939955
 20
740.7587556305166
 10
164.07919398971444
 20
740.7660064098868
 10
164.07439333806906
 20
740.7828086906457
 10
164.07439333806906
 20
740.8025457334252
 10
164.07733124066226
 20
740.814297343798
 10
164.0802890828113
 20
740.8231708702456
 10
164.0844651396951
 20
740.8309264044583
 10
165.53685515176994
 20
743.1672343218006
 10
163.0885212758394
 20
747.7328819615514
 10
163.0859675902616
 20
747.7396917897577
 10
163.08337733328426
 20
747.748110124935
 10
163.08198612467004
 20
747.7592397938474
 10
163.08198612467004
 20
747.7692392108706
 10
163.08346442037237
 20
747.7795872807856
 10
163.08678677631588
 20
747.7912155265885
 10
163.09138096723336
 20
747.800403908424
 10
163.09581217531468
 20
747.8076046215556
 10
165.23634932115056
 20
750.4072750139344
 10
166.12557907052724
 20
754.7540767700775
 10
166.12770033186098
 20
754.7604405540783
 10
166.1295152536377
 20
754.7649778585196
 10
166.80610914658428
 20
756.1584451223284
 10
164.78378709774915
 20
761.6821954355214
 10
163.7197419188151
 20
765.432285242297
 10
162.49368829995637
 20
768.6523906074049
 10
162.49163998470885
 20
768.6595597107703
 10
162.4906056470818
 20
768.6657657365326
 10
162.4899212122782
 20
768.6719256497663
 10
162.4899212122782
 20
768.6865836559841
 10
162.49503711520128
 20
768.7044893162151
 10
162.50410461073852
 20
768.721328950784
 10
162.51307357164114
 20
768.7302979116866
 10
165.28218572241803
 20
771.2623150971394
 10
163.89285235928082
 20
775.6241064370806
 10
162.4132621587969
 20
780.3575365548086
 10
162.4113464192601
 20
780.3632837734199
 10
162.4103318495413
 20
780.3703857614491
 10
162.1184729002307
 20
782.586790610128
 10
159.4649278220254
 20
785.8893003166581
 10
152.1694762163147
 20
789.5210112720933
 10
152.16524088506594
 20
789.523128937718
 10
152.15864766888217
 20
789.527524415174
 10
152.15286251336101
 20
789.5321525395907
 10
152.14467397013505
 20
789.5403410828167
 10
152.13796443046976
 20
789.5504053923146
 10
152.13489059343237
 20
789.5565530663894
 10
152.13214988726122
 20
789.5629480474554
 10
152.12943657713413
 20
789.5724446329009
 10
152.1279582814318
 20
789.5827927028158
 10
152.1279582814318
 20
789.592792119839
 10
152.12872721075655
 20
789.598943554437
 10
152.12959234286382
 20
789.6041343470815
 10
153.36321786183134
 20
794.1570853898447
 10
152.63006960621942
 20
796.5340136798368
 10
150.18992013598245
 20
802.728655836323
 10
149.2477911120227
 20
803.4713002044396
 10
149.2422989900606
 20
803.4758769727409
 10
147.45424485963576
 20
805.5436764696615
 10
142.92557043070292
 20
810.4536541334669
 10
142.92130752613957
 20
810.4600484903117
 10
142.9189073705552
 20
810.464048749619
 10
142.91523554718015
 20
810.4713923963691
 10
142.91168915162643
 20
810.4820315830302
 10
142.9105783772602
 20
810.4886962292276
 10
142.9097012733787
 20
810.4948359563982
 10
142.9097012733787
 20
810.505496128189
 10
142.91083838519717
 20
810.5134559109174
 10
143.92985225848906
 20
815.1989973618693
 10
143.29984156643013
 20
817.4554361185501
 10
143.29839537958742
 20
817.46555942645
 10
143.29839537958742
 20
817.4755588434723
 10
143.2990561343554
 20
817.4808448816161
 10
143.30010556424395
 20
817.4881908908342
 10
143.3028146485476
 20
817.4963181437456
 10
144.84993409386652
 20
821.4869045067567
 10
144.33921136568688
 20
824.4298951895366
 10
144.33829883612043
 20
824.4362828965022
 10
144.33829883612043
 20
824.447820172174
 10
144.34001760855062
 20
824.4581328067561
 10
144.3416322434532
 20
824.4637840289147
 10
144.34383310992234
 20
824.4703866283221
 10
144.3480651685427
 20
824.4788507455623
 10
146.2450323410767
 20
827.4140848144598
 10
145.5034591118697
 20
831.3963614018817
 10
145.50296069293472
 20
831.3983550776202
 10
144.99397725582958
 20
835.3092171855969
 10
144.99397725582958
 20
835.3194072569127
 10
144.9956573581212
 20
835.3311679729532
 10
145.9903345019875
 20
838.3721423644151
 10
141.95271065819406
 20
844.5440075587135
 10
141.9483849048347
 20
844.5526590654322
 10
141.94618403836557
 20
844.5592616648396
 10
141.94432892673512
 20
844.5657545555468
 10
141.94341082631945
 20
844.5721812584543
 10
141.86115793108502
 20
845.3497001886508
 10
141.86115793108502
 20
845.3543065688809
 10
141.9683288343217
 20
851.5336136300598
 10
141.9683288343217
 20
851.5421962190826
 10
141.970590810462
 20
851.5512441236433
 10
142.16669672462513
 20
852.3274424001429
 10
141.00088973109632
 20
859.2210411319193
 10
141.0
 20
859.2272692495944
 10
141.0
 20
859.234413183834
 10
141.00302503566127
 20
859.2969170244278
 10
141.00302503566127
 20
859.3049314516416
 10
141.00632109507978
 20
859.3172916744616
 10
142.92618972533592
 20
864.7516318641815
 10
142.4540155410723
 20
866.2454101397393
 10
142.4527325110298
 20
866.2505422599097
 10
142.45121964495502
 20
866.2596194563571
 10
142.45121964495502
 20
866.2692608258085
 10
142.9501712486658
 20
871.7062086280685
 10
142.82519753751876
 20
873.2334866954084
 10
142.82519753751876
 20
873.2407040015532
 10
142.82653369404443
 20
873.2527294102829
 10
142.83003279222066
 20
873.263226704812
 10
142.83152794798434
 20
873.266715401594
 10
144.68834692227847
 20
877.3922750710371
 10
145.1660680084019
 20
880.2187012060476
 10
145.1666570626062
 20
880.2228245854753
 10
145.16937037273328
 20
880.2323211709208
 10
145.1734147715547
 20
880.2417581015047
 10
145.17872654072107
 20
880.2503897263996
 10
145.1875616080074
 20
880.2614335605076
 10
145.19684414955782
 20
880.2683954666704
 10
145.20888399590876
 20
880.2764220309045
 10
145.22516027253278
 20
880.2807623713375
 10
145.2348486810406
 20
880.2821464296958
 10
577.3419416241613
 20
880.2821464296958
 10
577.7169606684647
 20
880.2821451131877
 10
577.7169604051787
 20
880.1321464296298
 10
449.27624099835566
 20
880.1321464296298
 10
451.64923042005785
 20
876.4865579079369
 10
453.30183907588616
 20
873.2801035532352
 10
455.90583772530726
 20
870.484745256822
 10
455.90928738968114
 20
870.4812955924481
 10
455.9142228281653
 20
870.4743859785699
 10
458.52049254079066
 20
866.3114041794202
 10
464.2769747264383
 20
860.0156777021971
 10
464.2805533236042
 20
860.0112044557404
 10
464.28330276306633
 20
860.0070802965465
 10
464.6845507364851
 20
859.341666925176
 10
464.6852312779615
 20
859.3409863836996
 10
465.17860504823966
 20
858.4740280380038
 10
465.18012259886564
 20
858.4709929367523
 10
467.95598425357593
 20
852.3686117789093
 10
474.4254098300207
 20
846.1885863128332
 10
474.42842203897726
 20
846.1855741038767
 10
474.432862710913
 20
846.1802452975539
 10
474.9702727822423
 20
845.3956504233929
 10
474.9719667650884
 20
845.393109449124
 10
474.9777511470429
 20
845.382986780704
 10
474.9810483618603
 20
845.3714465288417
 10
475.0761864548467
 20
844.9028429820523
 10
475.0769198012854
 20
844.901376289175
 10
476.1091289729843
 20
838.4001086609392
 10
476.6104524295961
 20
836.7794718878908
 10
476.61085295778
 20
836.778670831523
 10
478.12667965287574
 20
831.4328685001447
 10
478.1288485233117
 20
831.4252774536185
 10
478.129856364375
 20
831.4101598376733
 10
478.1288889434495
 20
831.4024204702682
 10
477.7747904438411
 20
828.9048518618451
 10
477.9870517698073
 20
824.4433961000418
 10
477.9870517698073
 20
824.4311088615432
 10
477.983129977908
 20
824.4173825898956
 10
477.16838668621267
 20
822.3703192237972
 10
476.1787339122593
 20
817.4699033409747
 10
476.43919846017343
 20
815.9831418646786
 10
476.4394587318752
 20
815.981319962767
 10
476.440837060612
 20
815.9702933328713
 10
476.43872051444396
 20
815.9565357827778
 10
476.4371815840491
 20
815.9503800611983
 10
476.43458521284083
 20
815.9425909475735
 10
476.4275745785362
 20
815.9285696789643
 10
476.41711738440426
 20
815.9170667654193
 10
474.42597456406065
 20
814.2584241986251
 10
472.4630230689568
 20
811.9446513447992
 10
471.7639151742774
 20
810.4720943473508
 10
470.4424107828595
 20
806.5179900347352
 10
470.44012256256065
 20
806.5111253738378
 10
468.7451539316903
 20
803.515452543199
 10
469.22420001786804
 20
800.501517906343
 10
469.2250372187109
 20
800.4956575004421
 10
469.2250372187109
 20
800.4853494414056
 10
469.22343880729386
 20
800.4733613557769
 10
469.21976021791306
 20
800.462325587635
 10
467.3679557889632
 20
796.5496390693188
 10
467.7770720422891
 20
794.619611363235
 10
467.77783654846235
 20
794.608908276808
 10
467.77670174192735
 20
794.5941557918513
 10
467.77352975481836
 20
794.5846398305248
 10
467.7708963182422
 20
794.5772662081113
 10
465.18413233692354
 20
790.1623376613629
 10
465.09785326765586
 20
789.6441678605811
 10
465.09033264884965
 20
789.5838229668002
 10
465.15642209683847
 20
782.6410926594376
 10
465.15642209683847
 20
782.6354056104983
 10
465.15562346846355
 20
782.6298152118748
 10
465.1535018465929
 20
782.6158106886819
 10
465.1859847601372
 20
782.3171595111962
 10
467.6395975825785
 20
775.6715290145771
 10
467.6407016311159
 20
775.6682168689654
 10
467.6438250297292
 20
775.6565041241652
 10
467.6438250297292
 20
775.636847573051
 10
467.6407016311159
 20
775.6251348282508
 10
467.63898977502595
 20
775.6199992599813
 10
467.63607130664013
 20
775.6131895004141
 10
467.6326616695237
 20
775.6072226354604
 10
467.62942340323343
 20
775.602365236025
 10
467.6253234532942
 20
775.5972402986008
 10
466.6275824461932
 20
774.5535793003792
 10
468.80177840340957
 20
768.7164992712956
 10
474.404622775834
 20
762.77879129242
 10
482.02703481478056
 20
762.9549525457414
 10
483.56952876300375
 20
765.7482417258448
 10
483.5734882120896
 20
765.7541808994733
 10
483.5782309979272
 20
765.7598722424787
 10
483.58189860482116
 20
765.7635398493726
 10
483.588714316149
 20
765.7697359505796
 10
483.59576654855664
 20
765.7739672900243
 10
483.60433909302947
 20
765.7788658868662
 10
483.6203567631919
 20
765.7834423640552
 10
483.633464159072
 20
765.7844506252768
 10
483.6467834110331
 20
765.7834992501366
 10
483.6558406842755
 20
765.7809114577817
 10
483.66218253660463
 20
765.7787975070055
 10
491.8209597983332
 20
761.773531587779
 10
491.82854363717115
 20
761.7702813711339
 10
491.8397374583351
 20
761.761326314203
 10
491.8440693391849
 20
761.7569944333532
 10
491.8490279051007
 20
761.7514849156692
 10
491.8528816509852
 20
761.7457042968422
 10
492.95977133828364
 20
759.9314128596352
 10
492.96356728944284
 20
759.9238209573173
 10
492.9657974889333
 20
759.917130358846
 10
494.4220801907977
 20
754.7720187038249
 10
497.5723683618362
 20
751.3044604012784
 10
497.5784190862928
 20
751.2961406551503
 10
497.5814689357662
 20
751.2900409562039
 10
499.2423017882975
 20
747.8281550408024
 10
502.16271050880187
 20
747.1004707398074
 10
503.0917907925095
 20
747.132623171316
 10
503.0977574877402
 20
747.132623171316
 10
503.1039089223382
 20
747.1318542419913
 10
503.10844259245187
 20
747.1310986303056
 10
511.436271618064
 20
745.0324042049165
 10
511.44189631590143
 20
745.0305293056372
 10
511.44776674745526
 20
745.0280134064001
 10
519.2271625639701
 20
740.8589368205039
 10
519.2302904600306
 20
740.8571494513262
 10
519.235147859466
 20
740.8539111850359
 10
519.2409330149871
 20
740.8492830606192
 10
519.2468074960052
 20
740.8434085796011
 10
519.2506792439312
 20
740.8385688946933
 10
519.2566356106986
 20
740.830229981219
 10
520.7433268822169
 20
737.336767972241
 10
520.7455106470516
 20
737.3329463837799
 10
521.7665078170176
 20
733.8596714109021
 10
523.7651600110657
 20
731.588472929197
 10
527.295851220892
 20
726.8969150136063
 10
527.3031905722478
 20
726.8871292117983
 10
527.3077646789293
 20
726.8734068917547
 10
527.3108880775426
 20
726.861694146954
 10
527.3108880775426
 20
726.8460927518845
 10
526.6261214755891
 20
722.4244629210662
 10
526.6750817035713
 20
719.8774645107574
 10
526.6739224117173
 20
719.8676105299955
 10
526.6720955094115
 20
719.8603029207738
 10
525.4993644524889
 20
716.2948525388229
 10
525.4993644524889
 20
716.2938240840795
 10
524.2774814034842
 20
712.8878854913974
 10
523.678630812145
 20
710.6845209061566
 10
523.6774438421899
 20
710.6803665113134
 10
523.6742159503433
 20
710.6722967816968
 10
521.0124285183847
 20
705.911419890238
 10
520.9697241634626
 20
705.7513101843842
 10
520.9683024342498
 20
705.7470449967464
 10
520.9669994926116
 20
705.7437876426511
 10
520.7455134915945
 20
705.2414699699343
 10
520.7441673767166
 20
705.2378803302604
 10
518.2312027618909
 20
700.8202568910383
 10
518.2281593083208
 20
700.8151844684216
 10
518.2245394715865
 20
700.8106596725038
 10
518.221410588661
 20
700.806905012993
 10
516.2575615296105
 20
698.9184284388361
 10
516.2555324081713
 20
698.9158920370373
 10
513.9652595171747
 20
697.0642966422793
 10
513.4038821012168
 20
691.9838525021369
 10
513.3978882956039
 20
691.9628741824931
 10
513.3879824231171
 20
691.9507670050093
 10
512.6677895782809
 20
691.0776648879973
 10
511.7960763588617
 20
685.0283036323826
 10
511.8366141541974
 20
684.7775655499509
 10
511.8381763725324
 20
684.7666300216047
 10
511.83586706049255
 20
684.7493101813038
 10
511.8312682652936
 20
684.735513795707
 10
511.8245411336143
 20
684.7237413152689
 10
511.8169855335309
 20
684.7144421151661
 10
511.8066593550907
 20
684.7051485545699
 10
511.7982780009729
 20
684.7003592093597
 10
511.4530217567235
 20
684.5222711430465
 10
506.82666656392576
 20
681.4994339695104
 10
504.7612894500244
 20
678.0354538536203
 10
504.71770419392396
 20
676.1833194002793
 10
504.71770419392396
 20
676.1762562183226
 10
504.7145919262389
 20
676.1617323024575
 10
504.71013906656617
 20
676.1510454392437
 10
504.7065408337189
 20
676.1447485317608
 10
504.70057733333215
 20
676.1358032811809
 10
502.21409468081583
 20
673.7447145794226
 10
501.1082254683947
 20
671.8819074218418
 10
501.10412059312284
 20
671.875750108934
 10
501.09916202720706
 20
671.87024059125
 10
501.0944292125632
 20
671.8655077766061
 10
500.05814519797696
 20
671.0617845108573
 10
502.20923097727155
 20
665.7170859407465
 10
509.85107030030167
 20
664.1899403438829
 10
511.4232603371488
 20
664.0473575505025
 10
511.425175096545
 20
664.047118205578
 10
511.4325211057635
 20
664.04606877569
 10
511.4463030610045
 20
664.0414747906093
 10
511.4562753676364
 20
664.0356576117406
 10
511.4627059894983
 20
664.0309807958411
 10
518.9415622236847
 20
657.2033041329405
 10
518.9463762961004
 20
657.1998655097864
 10
518.9549118266436
 20
657.1891960966072
 10
518.9610489605711
 20
657.1799903957158
 10
518.9647677416278
 20
657.170693443074
 10
518.967715041721
 20
657.1618515427949
 10
518.969935859865
 20
657.1451954067152
 10
518.9686526983701
 20
657.134930114757
 10
518.9680125077939
 20
657.1304487807247
 10
518.966375550544
 20
657.1239009517244
 10
518.9646748650921
 20
657.1187988953684
 10
517.2098447590238
 20
652.8293610600945
 10
517.4570034569524
 20
650.1937770241011
 10
520.5707528831681
 20
643.3711646197748
 10
520.6715659574138
 20
643.2499464369107
 10
520.6739459141236
 20
643.2467731612978
 10
520.6799745717472
 20
643.2377301748629
 10
520.7456223070817
 20
643.060509123989
 10
523.7122543301357
 20
636.2646371158962
 10
523.7137649499005
 20
636.2616158763672
 10
523.7177008122849
 20
636.2498082892143
 10
523.7199629534539
 20
636.2328422304449
 10
523.7184797459458
 20
636.2217181741348
 10
523.7177027419443
 20
636.2170561501243
 10
523.2230931279514
 20
634.3466056371567
 10
523.2211645678958
 20
634.3414628103419
 10
523.2187935468528
 20
634.3359304279079
 10
523.2156187246078
 20
634.3303744889795
 10
520.7423872171139
 20
630.517220486689
 10
520.323420330641
 20
629.5470720439903
 10
520.3203930487912
 20
629.5410174802901
 10
520.3155806234618
 20
629.5337988422962
 10
520.3108378376241
 20
629.5281074992909
 10
520.3068424512971
 20
629.5241121129638
 10
519.951580877766
 20
629.2090734738276
 10
516.5709538608189
 20
625.3711636501707
 10
516.5640244616775
 20
625.3642342510293
 10
516.5567110313154
 20
625.3593586307879
 10
516.5482141132202
 20
625.3541297581141
 10
511.44454825914136
 20
623.6460595922549
 10
510.3287820801311
 20
623.0679733804322
 10
510.3227220445624
 20
623.0649433626477
 10
507.5754078018067
 20
622.2219141641172
 10
504.4652647245107
 20
620.5277610999747
 10
502.2135691006597
 20
618.0504962247692
 10
500.9532046064778
 20
616.2387483247048
 10
500.55946548301745
 20
615.2894950151531
 10
500.5572053038245
 20
615.2849746567672
 10
498.2387755528739
 20
611.3090149001428
 10
498.2348539236041
 20
611.3021520489206
 10
498.2240052662487
 20
611.2902185258295
 10
494.0536523463279
 20
608.292605665994
 10
494.0531469958105
 20
608.2921003154765
 10
493.4727672887543
 20
607.8913592413683
 10
492.9419752993708
 20
607.3942459129667
 10
492.93319446220175
 20
607.3878598495712
 10
492.9228752091353
 20
607.3827002230378
 10
492.90627238773095
 20
607.3771659492363
 10
492.89280121096454
 20
607.3771659492363
 10
484.47182607078093
 20
607.6692599915946
 10
483.7015352924677
 20
606.7003838503929
 10
482.4232141267489
 20
602.3238912850879
 10
482.4228270278627
 20
602.3225364389868
 10
482.41996322857995
 20
602.3139450411381
 10
482.41337794184756
 20
602.3024207893568
 10
482.4049935355961
 20
602.2919402815423
 10
482.3985981567971
 20
602.2866107992099
 10
482.3954710477451
 20
602.2841091119685
 10
482.3830216469946
 20
602.2758095114682
 10
482.3701233263564
 20
602.2721242769999
 10
478.3073690444585
 20
601.3088884069857
 10
476.10794842164296
 20
600.0457897102119
 10
474.4367423086742
 20
598.5315596069045
 10
473.216354510339
 20
595.303587424492
 10
473.2130002901199
 20
595.2957609106479
 10
473.20737527784786
 20
595.2873233922396
 10
473.2027471534311
 20
595.2815382367185
 10
473.1974042817069
 20
595.2761953649942
 10
473.188103619706
 20
595.2684448133268
 10
473.1787962239446
 20
595.2637911154461
 10
471.1090150472096
 20
594.3437328846499
 10
468.16839078873227
 20
592.0802283822227
 10
468.1617159903699
 20
592.0757785166479
 10
468.1500603030204
 20
592.0702574015872
 10
468.13968499324983
 20
592.0676635741447
 10
465.1331881500105
 20
591.5890056380695
 10
461.54701126731834
 20
590.0771539863276
 10
461.54530681805954
 20
590.0763017616982
 10
455.87753513306234
 20
588.0185916068872
 10
455.30305916268026
 20
587.8086336113697
 10
454.6243203484414
 20
587.3734909752052
 10
454.6198075470743
 20
587.3709838633345
 10
449.67623649718735
 20
585.0888642926911
 10
446.64829787158897
 20
581.6418509566392
 10
446.6443397045682
 20
581.6371011562146
 10
446.6305941247224
 20
581.6258547727043
 10
446.6179827416818
 20
581.6204498942584
 10
446.61347719957166
 20
581.6189480468884
 10
446.60749605509136
 20
581.6172391484652
 10
445.29343834377823
 20
581.4105260015035
 10
444.7118299290887
 20
580.4294508078642
 10
444.7071441513799
 20
580.4212506968743
 10
444.69912834639354
 20
580.4132348918879
 10
441.43282659989245
 20
577.3646026154447
 10
441.42663824711053
 20
577.3584142626628
  0
LWPOLYLINE
  5
93
330
17
100
AcDbEntity
  8
CORTE
100
AcDbPolyline
 90
225
 70
1
 10
443.67876215909564
 20
593.2159390757743
 10
444.3490695482037
 20
593.5257997113836
 10
449.0004856722567
 20
596.507844397292
 10
453.4816779839848
 20
598.1456190019812
 10
455.80590150338594
 20
598.9894388669522
 10
460.1349612959425
 20
600.8144732732176
 10
461.68891314464327
 20
601.4362050343007
 10
462.35473089981997
 20
601.7150064869975
 10
464.68875267134626
 20
602.764284051797
 10
465.9064787150828
 20
605.9852157919727
 10
468.5207368121255
 20
607.647804435258
 10
470.59605575194564
 20
610.0507246657726
 10
473.422623601909
 20
610.7208738683084
 10
473.6818075813135
 20
611.6082226733884
 10
476.0934621960605
 20
614.6194512147167
 10
480.72096708914296
 20
619.5646037806628
 10
487.8085735699178
 20
619.3361278178395
 10
490.1765111498612
 20
619.1943012595484
 10
491.4046304087906
 20
622.1551354809908
 10
494.2902718871751
 20
626.3031854402984
 10
496.8803271542138
 20
629.8711733372475
 10
500.70413210849983
 20
630.3485721764414
 10
504.91979041579907
 20
631.6429130180418
 10
508.69602635252795
 20
633.5994071013706
 10
509.33916883115353
 20
633.8172146155775
 10
509.6362682691247
 20
634.1545014105645
 10
511.6114301055777
 20
635.9133628439913
 10
511.8171231572128
 20
636.3951437675387
 10
510.59677798735765
 20
639.6848516582722
 10
507.56116022632887
 20
643.3199914493016
 10
505.89004824081485
 20
643.7078771889269
 10
498.7529112823613
 20
648.3964124913
 10
494.02801176556613
 20
650.6373520547249
 10
489.1740215374525
 20
651.9992859751555
 10
480.4423706324392
 20
661.2575994330937
 10
480.0362118727139
 20
672.1816561244727
 10
486.6673507276382
 20
676.407773778556
 10
489.10248416683316
 20
679.1730857488174
 10
490.9329071512798
 20
678.9450194583101
 10
491.76564875474014
 20
679.5918737030916
 10
491.88707746238333
 20
679.7978802504877
 10
491.68660118641355
 20
683.6309818077789
 10
496.790996205134
 20
688.0206641745253
 10
497.64223927388366
 20
689.4483400425734
 10
498.4988193888157
 20
690.0180741029808
 10
499.6905708437307
 20
691.8475268746602
 10
500.16361832645543
 20
693.7061010260295
 10
500.7848273963468
 20
696.1479344043314
 10
501.16827483486895
 20
699.2870095407666
 10
500.9934172338276
 20
704.8738312575397
 10
506.9006923379293
 20
709.3602452412333
 10
506.9715556505239
 20
709.4287174403826
 10
507.5956745520548
 20
710.525876657031
 10
511.412822267474
 20
713.5636251292394
 10
513.0159627799976
 20
716.2595017365543
 10
513.2528637351456
 20
716.7239074201048
 10
514.230691783881
 20
718.994569929881
 10
514.9370759272324
 20
720.9643272631984
 10
514.8657839110792
 20
724.6730651366715
 10
514.8513083914745
 20
724.692300106412
 10
511.87332330141953
 20
730.0749427286291
 10
508.0632297258089
 20
735.224762145383
 10
503.5020360343051
 20
735.066914142003
 10
500.8846238490428
 20
733.4533011285043
 10
496.27775573406416
 20
726.2043138895274
 10
490.92792828787606
 20
727.1051145002116
 10
479.265134646741
 20
731.4946564791962
 10
474.1178361461143
 20
738.521830829995
 10
474.1118872638385
 20
741.356402515883
 10
473.11974099966073
 20
743.7220209719103
 10
471.304445872996
 20
745.41411917298
 10
466.52322333058237
 20
745.9448203034622
 10
460.7912287614504
 20
747.3031491192505
 10
455.6334229778163
 20
755.3555960405488
 10
457.8375188579671
 20
757.8998215999568
 10
458.0677982549628
 20
761.7578388273037
 10
458.05518711421837
 20
762.0371137258812
 10
458.35897450397124
 20
764.6459058100186
 10
459.15131890971134
 20
766.3932904238291
 10
458.5899008033407
 20
767.9005337823614
 10
456.0407885424811
 20
775.3624224443247
 10
456.5433419079277
 20
777.3261177213253
 10
455.95211170585617
 20
782.76194772387
 10
456.226696462737
 20
784.5818573141291
 10
456.1752613740946
 20
789.9851396783306
 10
456.42228892815274
 20
791.967270656618
 10
457.3248990489451
 20
797.3889264284662
 10
457.39653890827094
 20
798.3467587581813
 10
458.5716302924843
 20
802.8445615038577
 10
458.9994116957196
 20
803.7600360037154
 10
458.82895883954143
 20
804.8324459075016
 10
462.17953434464016
 20
810.7563996500235
 10
462.9601570616892
 20
813.0921192072628
 10
464.8385196584395
 20
817.0485843060583
 10
467.887708747925
 20
820.6443489874873
 10
468.8728292637361
 20
825.5223227063811
 10
468.90383437673245
 20
825.6016433857208
 10
468.6571746860045
 20
830.7861078348737
 10
468.6759051318154
 20
830.9249401959469
 10
467.7224752295456
 20
834.2873613822562
 10
467.39580261648007
 20
835.386826073066
 10
466.6941176383143
 20
836.4176906259108
 10
465.2086849508328
 20
841.7687872366532
 10
459.92342900431004
 20
847.0756714459253
 10
459.1286891530526
 20
848.0830454821685
 10
458.1303765539378
 20
849.3953195820818
 10
454.48423103473806
 20
855.8017978747748
 10
451.02047493692453
 20
861.5428361792096
 10
450.5547159701823
 20
862.0522255882893
 10
450.33518862405253
 20
862.4013012679275
 10
443.9878217638461
 20
869.2151160972853
 10
441.8918356908607
 20
873.2818282298981
 10
153.33614496437758
 20
873.2807831387036
 10
152.77129439605733
 20
872.0163510900311
 10
152.98437111889962
 20
869.4123842039412
 10
152.76815981651043
 20
867.0156546304647
 10
154.5252460102165
 20
861.4569068803416
 10
153.2887589831612
 20
857.9398782852636
 10
153.18416377589938
 20
855.7612258210447
 10
153.8128625227132
 20
852.0436319931146
 10
152.73320700372142
 20
847.7600805274224
 10
152.69690432628613
 20
845.6640327827386
 10
152.89337077736127
 20
843.8346313318366
 10
155.79761146747296
 20
839.395242541641
 10
153.83415413897865
 20
833.3691121546799
 10
153.94865503118035
 20
832.4899368372985
 10
155.4074032767444
 20
824.6564029980818
 10
154.33995097409934
 20
822.968550399572
 10
155.1146181465947
 20
818.5046051997228
 10
154.58794206241055
 20
817.1197322334592
 10
155.67435639876476
 20
813.2286436451818
 10
156.37631045345097
 20
812.4675867876813
 10
158.491684485743
 20
805.9004095323517
 10
159.17328301338785
 20
804.230125674454
 10
161.29190599017875
 20
798.8517210456362
 10
162.91396260809324
 20
793.5928771029912
 10
163.9595524096585
 20
793.0723774626035
 10
170.088351984778
 20
785.4446871503296
 10
170.70222194847565
 20
780.7961296301569
 10
171.66045940281947
 20
777.7305848429287
 10
174.74788403938828
 20
768.0376613158514
 10
173.33042501453247
 20
766.7415669667644
 10
174.0415594111564
 20
764.873844665994
 10
174.33375360508444
 20
763.8440439677338
 10
175.0946859807841
 20
761.7660031405876
 10
177.4395941792236
 20
757.5109440447227
 10
179.01909435378866
 20
752.7054113645872
 10
178.3257086470544
 20
749.9370029980264
 10
182.20540198047274
 20
746.1987179914918
 10
183.4484125320214
 20
744.7017411056627
 10
184.21122608710857
 20
743.3056737192578
 10
187.1769836175804
 20
737.0035740191088
 10
189.79119049018527
 20
732.3959795531173
 10
190.5768098412218
 20
728.7555137348636
 10
192.64179984715338
 20
722.9778981936674
 10
192.6828136599047
 20
722.8424044385683
 10
192.70203046518054
 20
722.8132148813456
 10
198.3764816303983
 20
717.1025333711846
 10
201.58567118424435
 20
711.2773237198767
 10
209.28834700982452
 20
707.7236725559083
 10
217.2271404129865
 20
702.1334686344799
 10
216.44392141815706
 20
697.3416715221765
 10
217.8075038154766
 20
694.3993243611249
 10
219.11745970660832
 20
689.6981563089043
 10
220.95324030715983
 20
686.9344909414754
 10
220.54592126995294
 20
679.8922234832385
 10
220.87520916867743
 20
678.6588685890629
 10
220.1149697662163
 20
670.1843551665502
 10
219.5006004644556
 20
669.1565996887493
 10
219.5006004644556
 20
668.1446724239831
 10
221.02410839225467
 20
667.799246161751
 10
226.46950837920622
 20
665.7121540181629
 10
233.9981625853543
 20
663.7272828395712
 10
237.3226756757772
 20
662.3748036853508
 10
246.3944002502044
 20
654.2446564858747
 10
248.6816424813328
 20
648.4901994184752
 10
257.2401442678188
 20
642.740864952123
 10
259.00175641781334
 20
639.8535696124895
 10
260.06500711995614
 20
638.129389917488
 10
262.1852358544161
 20
633.5066049775855
 10
265.948760177886
 20
630.2506578703519
 10
269.06552084161785
 20
627.4728852203239
 10
274.8762628423733
 20
622.3474773515827
 10
277.00169429283005
 20
620.9235194625212
 10
284.1859307891932
 20
615.2530038280634
 10
288.4990015643957
 20
611.8618917302897
 10
288.7911000225131
 20
606.7045588159554
 10
288.5630219173345
 20
604.6209136026237
 10
291.985779722982
 20
602.1666461379909
 10
296.5969706129408
 20
601.2625043071948
 10
298.30152638722075
 20
601.0813910648476
 10
302.1564008454425
 20
601.3166523058776
 10
305.5106326004134
 20
601.5851040551906
 10
309.54822443410785
 20
603.9417619117935
 10
315.5744018355772
 20
606.3138698510943
 10
318.47150386506155
 20
606.361265755048
 10
324.4916347345952
 20
608.1117328903156
 10
324.56227993636594
 20
608.1258521077716
 10
329.7161405848233
 20
609.6315677563803
 10
330.76571123591157
 20
610.4261991448202
 10
331.9046884632494
 20
611.6853971994096
 10
333.56326595579594
 20
613.62779592796
 10
337.31092692807533
 20
616.0274955410987
 10
342.1779519914385
 20
621.0047683089638
 10
346.98096956341124
 20
620.3997579488796
 10
353.98499162091593
 20
621.9933152658332
 10
355.58016451764297
 20
621.6304817160085
 10
365.8142938215642
 20
621.6304817160085
 10
374.5662955441676
 20
614.1034544219751
 10
375.1784513049747
 20
613.779239126276
 10
375.67269258718125
 20
613.6265486136622
 10
381.2182213553292
 20
613.8388727153042
 10
383.8252220609097
 20
614.1576124721232
 10
394.6966641196009
 20
611.4378273042198
 10
399.7337877234886
 20
606.0324416337298
 10
403.388082076699
 20
601.8933348848445
 10
408.9341988465276
 20
602.0096614542072
 10
412.0650187070082
 20
601.695855314887
 10
414.12515044697466
 20
600.2317910041829
 10
420.8582780882093
 20
596.3091778361932
 10
426.82034910587254
 20
596.0016761310553
 10
429.8455255898966
 20
595.2869317098193
 10
435.8000698657215
 20
593.5336397109254
 10
437.0527831431368
 20
592.1580417158962
 10
443.67876215909564
 20
593.2159390757743
  0
LWPOLYLINE
  5
94
330
17
100
AcDbEntity
  8
GRABADO
100
AcDbPolyline
 90
600
 70
1
 10
447.05255256317423
 20
587.0637963691252
 10
446.64605358106746
 20
586.601036853273
 10
446.64193353045266
 20
586.5969168026581
 10
446.63874387468695
 20
586.5942587561867
 10
446.63020809999216
 20
586.5874301364311
 10
446.6179827416818
 20
586.582190697155
 10
446.6091141067045
 20
586.5792344854958
 10
439.841162631868
 20
585.5145745882887
 10
437.3941237811864
 20
581.3868332185971
 10
437.3900061293152
 20
581.3806567407901
 10
437.3827674004674
 20
581.3726137087369
 10
437.37555594884043
 20
581.3666041657148
 10
437.3683373108465
 20
581.3617917403853
 10
437.36218963677175
 20
581.358717903348
 10
437.3557946557057
 20
581.3559771971768
 10
437.3466874362971
 20
581.3533751344885
 10
437.336355405876
 20
581.3517855913469
 10
437.3252898285541
 20
581.3517855913469
 10
437.314941758636
 20
581.3532638870497
 10
437.3033135128362
 20
581.3565862429923
 10
437.29290251805014
 20
581.3617917403853
 10
437.2880111489699
 20
581.3650526531055
 10
437.2801717176226
 20
581.3706522469247
 10
431.94360179470186
 20
587.3720233268559
 10
428.05083197221484
 20
588.5182339967491
 10
425.8272342651303
 20
589.0435931169873
 10
418.80184851430204
 20
589.4059366870706
 10
418.7934342285371
 20
589.4072311925729
 10
418.78432700912845
 20
589.4098332552612
 10
418.7779320280624
 20
589.4125739614324
 10
418.77379515566963
 20
589.414642397629
 10
410.32806326834043
 20
594.3426293148714
 10
410.3250286942721
 20
594.3441466019053
 10
409.5216714121025
 20
594.9157040917203
 10
408.657523345702
 20
595.0023187743282
 10
400.2891700405048
 20
594.8267974372184
 10
400.2778794654696
 20
594.8267974372184
 10
400.25997380524177
 20
594.8319133401405
 10
400.2483667447759
 20
594.8381632957762
 10
400.2375181273069
 20
594.8460531993901
 10
394.5485323268681
 20
601.3290411009075
 10
390.9879612454761
 20
605.1499240919984
 10
383.385927930281
 20
607.0517782659849
 10
381.7778592707268
 20
606.8551709492331
 10
381.7747665284287
 20
606.8546554921832
 10
374.74732728828303
 20
606.5859898756785
 10
374.7412580220989
 20
606.5866642385877
 10
374.7362544065918
 20
606.5872896905262
 10
374.72983477101616
 20
606.5888945994202
 10
372.48361268617464
 20
607.2853400826557
 10
372.47990259502603
 20
607.2865767797052
 10
372.4741824164189
 20
607.2890282848225
 10
370.5967294484558
 20
608.2846877095735
 10
370.5896019817792
 20
608.2890738429132
 10
363.21819899997035
 20
614.6304817160085
 10
354.79410320334773
 20
614.6304817160085
 10
354.7858820502479
 20
614.6323086389198
 10
353.985207049132
 20
614.8144709648705
 10
347.3305659589141
 20
613.3004049162555
 10
347.3224347587434
 20
613.2980817162065
 10
347.3071490832067
 20
613.2980817162065
 10
344.7522905607343
 20
613.6251764382569
 10
341.7577843130848
 20
610.5628387256729
 10
341.7508381969401
 20
610.5578772141407
 10
338.21239253340264
 20
608.2926559783386
 10
337.1631244688688
 20
607.0638337112946
 10
335.51565787328036
 20
605.2424744405616
 10
335.51015678147496
 20
605.2380735671168
 10
332.9149799868901
 20
603.2734976236075
 10
332.9111984439455
 20
603.2704723892521
 10
332.8996741921642
 20
603.2638871025197
 10
332.891267324399
 20
603.2610848132649
 10
326.2203688702266
 20
601.3176471636757
 10
326.2151264299887
 20
601.3167734236358
 10
326.2134753184446
 20
601.3165375505582
 10
326.2021831209713
 20
601.3151682241605
 10
326.1578593397735
 20
601.3063096309438
 10
319.5245770454808
 20
599.3775570993544
 10
319.51477586708234
 20
599.3752952889549
 10
316.95763395298763
 20
599.3355625175177
 10
312.6125014938916
 20
597.6251709181893
 10
307.7135039042287
 20
594.7657285489013
 10
307.6997126747715
 20
594.7611314724159
 10
307.69243227217703
 20
594.760091414902
 10
307.2058586750277
 20
594.6983962382692
 10
302.6488768765239
 20
594.333683891371
 10
298.74862781565434
 20
594.0956534589068
 10
298.4349730816384
 20
594.0278093756292
 10
298.4270551435734
 20
594.0266782416197
 10
298.4177133059952
 20
594.0266782416197
 10
295.5517160132231
 20
594.3341625287853
 10
295.54850627565884
 20
594.334697485046
 10
289.14439588170717
 20
595.5904814044188
 10
289.1313474059739
 20
595.5939609979473
 10
289.11971720788233
 20
595.6011180429268
 10
281.15945497761913
 20
601.3160342424212
 10
281.1493516939445
 20
601.3218075473783
 10
281.13878965737376
 20
601.3358902628061
 10
281.1325134186759
 20
601.3453046208529
 10
281.1285914234386
 20
601.3562862075169
 10
281.12675746677905
 20
601.3627050558252
 10
281.12580762367315
 20
601.3684041144616
 10
281.1244919945161
 20
601.3789291477174
 10
281.7694499130175
 20
606.8887437592061
 10
281.688852448578
 20
608.311784328625
 10
279.85419544353044
 20
609.7542664693892
 10
272.8789030021694
 20
615.2598626261524
 10
270.5941682263924
 20
616.790547658446
 10
264.4215517978346
 20
622.235149537094
 10
261.329873501415
 20
624.9905678515038
 10
256.45608137486215
 20
629.2070436895228
 10
256.4503975293028
 20
629.2127275350822
 10
256.4459504407846
 20
629.2186569864398
 10
256.4414834899799
 20
629.2253574126471
 10
253.8813719754412
 20
634.8207435903023
 10
253.03483360931386
 20
636.193500042732
 10
252.06346522922604
 20
637.7855800002321
 10
244.099715138203
 20
643.1353788344195
 10
244.09415625631027
 20
643.1372317950504
 10
242.80633258134367
 20
644.3204345473241
 10
242.802273159793
 20
644.3244939688748
 10
242.7960259022302
 20
644.3323030408283
 10
242.79209234675272
 20
644.3391867629139
 10
242.78971136607333
 20
644.3439487242722
 10
240.49719510757313
 20
650.1299777057579
 10
233.55734146026998
 20
656.3495262857982
 10
231.77783020963534
 20
657.0734674482251
 10
224.31834231572248
 20
659.0401034660663
 10
224.31439634985645
 20
659.0410899575327
 10
218.98717802166175
 20
661.0834117888662
 10
215.0579579314317
 20
661.9742872378806
 10
215.04405611643006
 20
661.978259185024
 10
215.03265132807246
 20
661.9861548077333
 10
212.28513788163627
 20
664.0542689811209
 10
212.28074512405874
 20
664.0571974861723
 10
212.27255658083322
 20
664.0653860293978
 10
212.26630932327225
 20
664.073195101349
 10
212.26237576779477
 20
664.0800788234346
 10
212.2558408526811
 20
664.093148653662
 10
212.2535268299216
 20
664.1105038243586
 10
212.2535268299216
 20
664.1203824848949
 10
212.5006004644556
 20
666.0029147121995
 10
212.5006004644556
 20
671.0893248609641
 10
212.50136463052013
 20
671.0984948537357
 10
212.50420488825603
 20
671.1098558846811
 10
212.50853767397757
 20
671.1202545704127
 10
213.2858924617094
 20
672.40301053754
 10
213.7925029663661
 20
678.0502809997133
 10
213.49264614502908
 20
679.1734011616777
 10
213.48951921329808
 20
679.1827819568707
 10
213.48951921329808
 20
679.1971489154598
 10
213.83005093287102
 20
685.0068990849954
 10
212.67234332015323
 20
686.7497633651365
 10
212.6689648075262
 20
686.7556757622337
 10
212.66529758340175
 20
686.7642326185246
 10
211.2171211980285
 20
691.9722626841826
 10
209.18878373932648
 20
696.3490227354996
 10
209.18730562278552
 20
696.3529643796091
 10
209.184616226843
 20
696.3610325674363
 10
209.18230691480312
 20
696.3783524077371
 10
209.1839016352278
 20
696.3895154507104
 10
209.611434342964
 20
698.9348332883505
 10
205.77827197742135
 20
701.634004081584
 10
196.59103205247902
 20
705.8725630696836
 10
196.57930272822614
 20
705.8788788596657
 10
196.56626783254978
 20
705.8919137553421
 10
196.56107158635314
 20
705.8997081246366
 10
196.49564687331122
 20
706.0097873757636
 10
196.49476298888294
 20
706.0106712601919
 10
192.71904618171675
 20
712.864942058492
 10
187.24151721299768
 20
718.3774440595266
 10
187.23919596374708
 20
718.3797653087772
 10
187.2342928833591
 20
718.3856490052426
 10
186.2773955984112
 20
719.8419061610416
 10
186.2725534293072
 20
719.8503799569735
 10
186.26984539540263
 20
719.8585040586881
 10
185.9920460852586
 20
720.7845904534574
 10
183.83097540952213
 20
726.8310291703006
 10
183.8299106221093
 20
726.835820713658
 10
183.1745482674719
 20
729.8728337919079
 10
180.95693872720085
 20
733.7814171379928
 10
180.9552096531993
 20
733.783722569995
 10
177.9673019968418
 20
740.1342590505114
 10
177.6303228554725
 20
740.7509832631672
 10
177.06835860188312
 20
741.4277655296069
 10
170.55107717581177
 20
747.7075029584885
 10
170.5446833196561
 20
747.7126180434129
 10
170.5367914073786
 20
747.7244559118294
 10
170.53182525379043
 20
747.7331466806081
 10
170.52896145450677
 20
747.7417380784595
 10
170.52562804717445
 20
747.7534050041227
 10
170.52562804717445
 20
747.7688870981178
 10
170.52688789452804
 20
747.77833595327
 10
171.73705087075268
 20
752.4426157070047
 10
170.993585298781
 20
754.7045642399635
 10
168.7055982818556
 20
758.8563344346635
 10
168.70346912598143
 20
758.8616573243494
 10
167.67083077551524
 20
761.6821954355214
 10
167.3908739776425
 20
762.6688670119015
 10
165.11292007101156
 20
768.6516816974795
 10
165.1096303294994
 20
768.6623733573938
 10
165.10857147666502
 20
768.6782561499072
 10
165.1095438209768
 20
768.6860349044009
 10
165.1103613619116
 20
768.6917576909432
 10
165.1130746720387
 20
768.7012542763887
 10
165.11535368007526
 20
768.7065719618072
 10
165.12139156954618
 20
768.7196540556611
 10
165.13203542557176
 20
768.7302979116866
 10
166.71863931304233
 20
770.1810547213936
 10
164.98489903146628
 20
775.6241064370806
 10
163.84132422117045
 20
779.2825731173548
 10
163.8394084816323
 20
779.2883203359684
 10
163.83839391191395
 20
779.2954223239976
 10
163.40498243911543
 20
782.586790610128
 10
159.4649278220254
 20
787.4904452433475
 10
155.38786026550952
 20
789.5200291144079
 10
155.38349625901992
 20
789.5218994029037
 10
155.37505874061435
 20
789.527524415174
 10
155.36660214923222
 20
789.5342896882794
 10
155.35918792753137
 20
789.5431867543207
 10
155.35437550220195
 20
789.5504053923146
 10
155.35130166516456
 20
789.5565530663894
 10
155.3485609589934
 20
789.5629480474554
 10
155.3458476488663
 20
789.5724446329009
 10
155.34436935316398
 20
789.5827927028158
 10
155.34436935316398
 20
789.592792119839
 10
155.34513828248873
 20
789.598943554437
 10
155.346003414596
 20
789.6041343470815
 10
156.0347713924025
 20
792.1461755375067
 10
154.6813709160392
 20
796.5340136798313
 10
152.67601394755275
 20
801.6248775663721
 10
151.9102248231975
 20
803.501473775264
 10
151.9091678863092
 20
803.5041161174836
 10
150.1859448440414
 20
808.8544998066286
 10
148.7109790084014
 20
810.4536541334669
 10
148.70671610383806
 20
810.4600484903117
 10
148.70317905566617
 20
810.465943570598
 10
148.6976154341346
 20
810.4789253541717
 10
148.6959869549587
 20
810.4886962292276
 10
148.69510985107718
 20
810.4948359563982
 10
148.69510985107718
 20
810.505496128189
 10
148.69624696289566
 20
810.5134559109174
 10
148.90137688964023
 20
811.4566665970369
 10
147.2264859019897
 20
817.4554361185501
 10
147.22503971514698
 20
817.46555942645
 10
147.22503971514698
 20
817.4755588434723
 10
147.22570046991495
 20
817.4808448816161
 10
147.22674989980305
 20
817.4881908908342
 10
147.22945898410717
 20
817.4963181437456
 10
147.88951699605605
 20
819.1988489400901
 10
146.9817281174228
 20
824.4298951895366
 10
146.98081558785634
 20
824.4362828965022
 10
146.98081558785634
 20
824.447820172174
 10
146.98253436028654
 20
824.4581328067561
 10
146.98414899518912
 20
824.4637840289147
 10
146.98634986165825
 20
824.4703866283221
 10
146.99058192027724
 20
824.4788507455596
 10
148.0227269434813
 20
826.0759196247777
 10
147.03196271532124
 20
831.3963614018817
 10
147.03146429638628
 20
831.3983550776202
 10
146.68848854175212
 20
834.0336684983931
 10
146.68848854175212
 20
834.0447356735913
 10
146.69044151730077
 20
834.0564535268827
 10
148.10206703403855
 20
838.3721423644151
 10
146.11327510463798
 20
841.4121867476074
 10
146.1085570984983
 20
841.4216227598868
 10
146.10500107378311
 20
841.4331798402113
 10
146.10397527276382
 20
841.4403604473468
 10
145.6904104067662
 20
845.3497001886512
 10
145.6904104067662
 20
845.3543065688809
 10
145.74823320262703
 20
848.6882787569311
 10
145.74823320262703
 20
848.6968613459535
 10
145.75049517876732
 20
848.7059092505142
 10
146.66547282105512
 20
852.3274424001429
 10
146.15590679332536
 20
855.3405858638639
 10
146.15501706222904
 20
855.3468139815391
 10
146.15501706222904
 20
855.3539579157787
 10
146.3458468064896
 20
859.2969170244282
 10
146.3458468064896
 20
859.3049314516416
 10
146.3491428659081
 20
859.3172916744616
 10
147.14664117559778
 20
861.5746737928416
 10
145.67024995971997
 20
866.245410139732
 10
145.6689669296752
 20
866.2505422599097
 10
145.66745406360087
 20
866.2596194563571
 10
145.66745406360087
 20
866.2692608258085
 10
145.9585829124262
 20
869.4416173089326
 10
145.64830281376862
 20
873.2334866954084
 10
145.64830281376862
 20
873.2407040015532
 10
145.6496389702943
 20
873.2527294102829
 10
145.65313806847053
 20
873.263226704812
 10
145.6546332242342
 20
873.266715401594
 10
146.79704509230396
 20
875.8049748625594
 10
147.54305084017915
 20
880.2187012060476
 10
147.54363989438343
 20
880.2228245854753
 10
147.54635320451052
 20
880.2323211709208
 10
147.55039760333193
 20
880.2417581015047
 10
147.5557093724983
 20
880.2503897263996
 10
147.56454443978464
 20
880.2614335605076
 10
147.57382698133506
 20
880.2683954666704
 10
147.585866827686
 20
880.2764220309045
 10
147.60214310431002
 20
880.2807623713375
 10
147.61183151281784
 20
880.2821464296958
 10
529.748617637174
 20
880.2821464296958
 10
530.1236366814778
 20
880.2821451131877
 10
530.1236364181918
 20
880.1321464296298
 10
446.31738193483307
 20
880.1321464296298
 10
446.6593683909591
 20
879.3111322633063
 10
449.76776450306943
 20
873.2801035532352
 10
455.908385983495
 20
866.6882271694844
 10
455.91291685432907
 20
866.6826894384649
 10
456.14536310849917
 20
866.3114041794202
 10
456.6552523600726
 20
865.7537505364389
 10
456.660535801705
 20
865.7484670948065
 10
460.523872029627
 20
859.341666925176
 10
460.5245525711034
 20
859.3409863836996
 10
463.9836098541941
 20
853.2627172083357
 10
464.6625050895268
 20
852.3703147337283
 10
465.1686228223334
 20
851.7287842221967
 10
471.4629733173174
 20
845.4086760595201
 10
471.46858355582344
 20
845.4038672836577
 10
471.47691265667754
 20
845.391373632377
 10
471.47998649371493
 20
845.3852259583023
 10
471.48286537507056
 20
845.3785085684726
 10
473.13030690402275
 20
839.4023028458519
 10
473.79555881218994
 20
838.4249631105272
 10
473.7963709304813
 20
838.4237449330903
 10
473.80238095845834
 20
838.414128888327
 10
474.4450263116437
 20
836.2390847879547
 10
475.8078509167922
 20
831.4328685001447
 10
475.81001978722816
 20
831.4252774536185
 10
475.8110276282914
 20
831.4101598376733
 10
475.81006020736595
 20
831.4024204702682
 10
475.6795621666456
 20
830.4819765533266
 10
475.96685787513206
 20
824.4433961000418
 10
475.96685787513206
 20
824.4346424674914
 10
475.9642322885029
 20
824.4206393388035
 10
475.6138985461157
 20
823.5404168475479
 10
474.4469252481508
 20
817.7619714829871
 10
474.44642875950467
 20
817.7584960624627
 10
474.37069927747325
 20
817.5071281984888
 10
474.37018095503663
 20
817.5050549087418
 10
474.34872325292463
 20
817.4461843058871
 10
474.34736710643483
 20
817.4421158664181
 10
474.34325315603746
 20
817.4338879656234
 10
474.3384170760951
 20
817.4262884114287
 10
470.76944383213095
 20
813.2194634193147
 10
469.4651089838808
 20
810.4720943473508
 10
468.60467916004563
 20
807.8975820723813
 10
468.602593785472
 20
807.8927161983761
 10
468.600748469632
 20
807.8890255666961
 10
466.12615611634646
 20
803.515452543199
 10
466.2493792482642
 20
802.7401900453629
 10
466.2501131716331
 20
802.7343186584117
 10
466.2501131716331
 20
802.7243192413916
 10
466.2486348759303
 20
802.7139711714735
 10
466.2459215658032
 20
802.704474586028
 10
466.2435001485419
 20
802.6988246124179
 10
465.1832157327972
 20
800.4585445514099
 10
464.3296904017675
 20
797.1915743148961
 10
464.2818088789563
 20
796.5513934019791
 10
464.2813886117556
 20
796.5480312643708
 10
463.35081111267937
 20
790.9592232092905
 10
463.179398748171
 20
789.5838229668002
 10
463.2316967041297
 20
784.0898959497695
 10
463.2316967041297
 20
784.0838901341358
 10
463.00928931356293
 20
782.615810688681
 10
463.6395964481908
 20
776.8207034339703
 10
463.64058277609456
 20
776.8137991386448
 10
463.639437477158
 20
776.798910252473
 10
463.33988029637703
 20
775.6495816542274
 10
465.1830653660368
 20
770.2541183063099
 10
465.75579780640237
 20
768.7164992712956
 10
467.16496287508835
 20
767.2231130346422
 10
467.1669235032173
 20
767.2207602808876
 10
467.1710443236029
 20
767.2156092554055
 10
467.1767779832753
 20
767.205575350979
 10
467.18187324007204
 20
767.1923276833068
 10
467.1844934447531
 20
767.1739862505392
 10
467.1831660621842
 20
767.1633671899863
 10
467.1823485212494
 20
767.157644403444
 10
467.17963521112233
 20
767.1481478179985
 10
467.17745471751914
 20
767.1430599995911
 10
465.1855662655548
 20
762.7505583744187
 10
465.07354420324145
 20
761.788562323004
 10
465.07722509719406
 20
761.7070485800282
 10
465.07722509719406
 20
761.7031184040361
 10
464.6835567544563
 20
755.1116724067538
 10
464.6835567544563
 20
755.1034059469439
 10
464.6793651486264
 20
755.0887353265393
 10
464.67478014023345
 20
755.078036973623
 10
464.6691551279614
 20
755.0695994552148
 10
464.66534894913957
 20
755.064841731687
 10
464.34950115328957
 20
754.7260663147476
 10
465.15922426900534
 20
753.4619139438037
 10
467.7208571570195
 20
752.8548757260778
 10
474.3812573576811
 20
752.1155916026974
 10
474.38916269324545
 20
752.1147132325591
 10
474.3980176457462
 20
752.1117615817257
 10
474.40093736491144
 20
752.1106666870387
 10
474.4088564933254
 20
752.107272774861
 10
474.4179194335411
 20
752.1012308147174
 10
474.42266623353
 20
752.0972751480604
 10
478.99314382601324
 20
747.8166956920682
 10
479.0036981076314
 20
747.8051819303028
 10
479.00885417295785
 20
747.7931511112079
 10
481.10893193279844
 20
742.7719280250735
 10
481.1115546530373
 20
742.7627485042376
 10
481.1123721939721
 20
742.7570257176953
 10
481.11303294874006
 20
742.7517396795515
 10
481.11303294874006
 20
740.8178426806026
 10
483.68098229110956
 20
737.3120371108162
 10
492.7589710217276
 20
733.8953417765824
 10
492.86067267586577
 20
733.8782173154523
 10
495.84043302979944
 20
738.5669221452354
 10
495.8429202849452
 20
738.5710675704777
 10
495.85148176435996
 20
738.5813413457759
 10
495.85993835574436
 20
738.5881066188831
 10
495.8638134752
 20
738.5906900318537
 10
499.52597154188334
 20
740.83902622511
 10
499.7851695010777
 20
742.5363251060467
 10
499.78671853140395
 20
742.5425212273508
 10
499.78894295534565
 20
742.5491944991759
 10
499.7931337431237
 20
742.5582745393617
 10
499.8026020127031
 20
742.5724769437306
 10
499.8141264211181
 20
742.5819060051613
 10
499.82691941701205
 20
742.5904346690909
 10
499.8482765079907
 20
742.5965366950845
 10
499.8679838826961
 20
742.5965366950845
 10
502.16271050880187
 20
742.0247548998964
 10
509.5384884168352
 20
742.2800064622952
 10
509.5477313075244
 20
742.2800064622952
 10
509.55681242220817
 20
742.2780605091489
 10
511.436271618064
 20
741.8044183960651
 10
511.44189631590143
 20
741.8025434967858
 10
511.44776674745526
 20
741.8000275975487
 10
513.2048943564673
 20
740.8583606935954
 10
513.2143005823855
 20
740.8525722468762
 10
513.2234642496605
 20
740.8434085796011
 10
513.2297115072215
 20
740.8355995076499
 10
513.233645062699
 20
740.8287157855643
 10
513.235604384804
 20
740.8247971413548
 10
514.0588828797422
 20
738.8902380301429
 10
517.7750340872849
 20
733.8673935082393
 10
517.7780033011445
 20
733.8634345564265
 10
520.7391193354879
 20
728.5098745447817
 10
521.9542242108032
 20
726.8952516402942
 10
521.9580031258042
 20
726.8895832677927
 10
521.9634125296179
 20
726.8787644601653
 10
521.9680092748436
 20
726.861909727671
 10
521.9680092748436
 20
726.8460927518877
 10
521.8410626700961
 20
726.0263814913374
 10
521.9591770025668
 20
719.8818631866379
 10
521.9591770025668
 20
719.8769885159763
 10
521.9581611952549
 20
719.8678462501675
 10
521.9562753629048
 20
719.8603029207679
 10
521.7194163556032
 20
719.1401812585445
 10
521.7194163556032
 20
719.1391528038025
 10
520.7461711021028
 20
716.4262797741444
 10
520.7453046745522
 20
716.4241137052686
 10
519.5919496552729
 20
713.7460054961803
 10
519.5908580897758
 20
713.7438223651857
 10
519.1484551639287
 20
712.8766068807345
 10
519.1473679509531
 20
712.8744324547833
 10
516.7744051821692
 20
708.8843518285889
 10
516.7715287434776
 20
708.8800371705515
 10
516.7642897386077
 20
708.8709884144637
 10
516.7576820638874
 20
708.8657022746875
 10
513.0119446420676
 20
705.8901243033429
 10
512.5587958159199
 20
705.093519025243
 10
512.5559543218642
 20
705.0878360371316
 10
512.5478242076215
 20
705.0778992308351
 10
511.46565838457445
 20
704.0372669089375
 10
511.4623444266622
 20
704.0344263735842
 10
508.1029597378583
 20
701.4833891961662
 10
508.1816158273541
 20
698.9702725439051
 10
508.1816158273541
 20
698.9645290399394
 10
507.678969258061
 20
694.8553791072363
 10
507.67811359294546
 20
694.8506729491014
 10
506.94743351614625
 20
691.9798763520339
 10
506.1884302988774
 20
688.997799896842
 10
506.18522573369955
 20
688.9857827774254
 10
503.57668400781677
 20
684.9885188748653
 10
503.57650121904044
 20
684.9881989945065
 10
503.56712668630735
 20
684.9741371954074
 10
503.5545293904829
 20
684.9654159906058
 10
502.8412960609685
 20
684.499392926657
 10
502.2195617011903
 20
683.4566412445843
 10
502.2186244416448
 20
683.4550010403796
 10
502.21146750002526
 20
683.4442656279502
 10
498.8565489432749
 20
680.5645144110567
 10
498.9875964786643
 20
678.0588886977375
 10
498.9875964786643
 20
678.0511932461777
 10
498.9860069355227
 20
678.0408612157566
 10
498.9834048728344
 20
678.031753996348
 10
498.98066416666325
 20
678.025359015282
 10
498.9784689216608
 20
678.0209685252776
 10
497.11653089755646
 20
674.884583644212
 10
497.1082081747986
 20
674.8731399004196
 10
492.9405124726886
 20
671.6407499829811
 10
492.9355273015858
 20
671.636761846099
 10
492.9238168557008
 20
671.6305162749604
 10
492.9114029417001
 20
671.626378303627
 10
492.9040569324816
 20
671.6253288737385
 10
492.89877089433776
 20
671.6246681189705
 10
492.8885949983028
 20
671.6246681189705
 10
491.90983390441806
 20
671.7691700475061
 10
491.2655547366726
 20
671.0375333880606
 10
491.2618441814293
 20
671.0330807217688
 10
491.25603020070275
 20
671.0282357378301
 10
491.2522788311976
 20
671.0252346422262
 10
487.18038718636535
 20
668.4339988999509
 10
487.33979500086025
 20
664.146562125798
 10
492.9343912385989
 20
658.2145194682234
 10
496.49098834238475
 20
657.2166084693722
 10
496.4970218411645
 20
657.2145973031124
 10
502.1908570968426
 20
654.5132575615294
 10
502.19525773646865
 20
654.5105071617627
 10
508.68945217123974
 20
650.2441938459942
 10
511.4298780013896
 20
649.6081071508888
 10
511.43504803656015
 20
649.6072454783603
 10
511.4532655024841
 20
649.6002387606973
 10
511.46819951358793
 20
649.5881048766755
 10
516.7411659106078
 20
643.2478617114671
 10
516.7479782414407
 20
643.237264752393
 10
516.7508405739745
 20
643.2296318656367
 10
518.7862851524255
 20
637.7347945289293
 10
519.3700787846824
 20
636.2585102535741
 10
519.371952579309
 20
636.2528888696938
 10
519.3732273659675
 20
636.2471523297318
 10
519.3737007470049
 20
636.2443120435064
 10
519.3752887515093
 20
636.233196011975
 10
519.3731963139585
 20
636.2175027303447
 10
519.3712444435532
 20
636.2106711839256
 10
519.3697096449514
 20
636.2060667881201
 10
517.4349674864475
 20
631.7260299338996
 10
517.4321487427305
 20
631.7185132839872
 10
517.4247924005144
 20
631.708214404885
 10
517.4193811489886
 20
631.7017209030537
 10
514.6084819831167
 20
629.2090734738276
 10
513.3558240244724
 20
627.786973886662
 10
513.3483031716482
 20
627.7807065093084
 10
513.3428203504031
 20
627.7770512951447
 10
513.3387701113197
 20
627.7747368728114
 10
513.3321814751089
 20
627.771442554706
 10
511.44454825914136
 20
627.1396986136915
 10
507.5786841659756
 20
625.1367675596052
 10
507.57253823570454
 20
625.133930976403
 10
502.176092675375
 20
623.4780005754169
 10
502.16979903422407
 20
623.4762023922312
 10
500.7610797713992
 20
623.3013374019865
 10
499.9964075662215
 20
622.2479462995152
 10
497.5815631868322
 20
618.77665743543
 10
496.13632413587084
 20
615.2923759137952
 10
496.134444150699
 20
615.2876759508667
 10
495.1627154354055
 20
613.6212229281778
 10
495.1583429132879
 20
613.6146641450014
 10
495.1510640001793
 20
613.6066573405819
 10
495.14501408855494
 20
613.6016157475615
 10
492.9394448816338
 20
612.0162720740464
 10
492.9347492779125
 20
612.0125155910691
 10
492.925671285534
 20
612.0079765948799
 10
492.9207781518371
 20
612.0058795375812
 10
492.9122360224733
 20
612.0030321611266
 10
492.90441536180924
 20
612.0017287176825
 10
492.895889425286
 20
612.0007813914021
 10
487.4864889523851
 20
612.3428744213847
 10
483.66521515273735
 20
612.466056939059
 10
481.3887446640306
 20
610.0333217742927
 10
480.01229046714707
 20
608.3146601806543
 10
479.012709624099
 20
604.8924700101898
 10
479.0123676411099
 20
604.891102078233
 10
479.00828064482357
 20
604.878841089374
 10
479.00155458068
 20
604.8687519931586
 10
478.9945926745172
 20
604.8594694516082
 10
478.9846161562532
 20
604.8514882369973
 10
478.9770433879812
 20
604.8464397248158
 10
478.97079797034394
 20
604.8435572243679
 10
478.9639028490619
 20
604.8406021723899
 10
474.41388875274697
 20
603.761842177928
 10
473.1456843844876
 20
602.2934442972719
 10
473.13958614167586
 20
602.2873460544602
 10
473.13289484089455
 20
602.2824796538921
 10
471.6298443841779
 20
601.3294161577383
 10
470.2089525980018
 20
597.5711032950139
 10
470.2062473658639
 20
597.5629875985996
 10
470.1984536903765
 20
597.5512970853688
 10
470.1915239670716
 20
597.5429814174026
 10
470.18570998634505
 20
597.5381364334639
 10
470.18258287729304
 20
597.5356347462225
 10
470.1745665870749
 20
597.5302905527433
 10
465.14214419484506
 20
595.2932803340509
 10
464.34106411827315
 20
594.9578397614046
 10
464.34061962957185
 20
594.9573952727033
 10
462.7949628539868
 20
594.3392489970502
 10
458.36159149725063
 20
592.4702391774799
 10
455.87753513306234
 20
591.5683912750242
 10
452.1285212570474
 20
590.1982113560116
 10
447.7225007881689
 20
587.3734909752052
 10
447.71798798680175
 20
587.3709838633345
 10
447.05255256317423
 20
587.0637963691252
  0
TEXT
  5
95
330
17
100
AcDbEntity
  8
GRABADO
100
AcDbText
 10
181.41110173456994
 20
727.9303141175376
 30
0.0
 40
6.0
  1
75k
 72
1
 11
181.41110173456994
 21
727.9303141175376
 31
0.0
100
AcDbText
 73
2
  0
TEXT
  5
96
330
17
100
AcDbEntity
  8
HOJA
100
AcDbText
 10
10.0
 20
891.0
 30
0.0
 40
6.0
  1
gale_crater  hoja 32/39  1:30  lamina 3.0mm
 11
10.0
 21
891.0
 31
0.0
100
AcDbText
  0
ENDSEC
  0
SECTION
  2
OBJECTS
  0
DICTIONARY
  5
A
330
0
100
AcDbDictionary
281
1
  3
ACAD_COLOR
350
B
  3
ACAD_GROUP
350
C
  3
ACAD_LAYOUT
350
D
  3
ACAD_MATERIAL
350
E
  3
ACAD_MLEADERSTYLE
350
F
  3
ACAD_MLINESTYLE
350
10
  3
ACAD_PLOTSETTINGS
350
11
  3
ACAD_PLOTSTYLENAME
350
12
  3
ACAD_SCALELIST
350
14
  3
ACAD_TABLESTYLE
350
15
  3
ACAD_VISUALSTYLE
350
16
  3
EZDXF_META
350
2D
  0
DICTIONARY
  5
B
330
A
100
AcDbDictionary
281
1
  0
DICTIONARY
  5
C
330
A
100
AcDbDictionary
281
1
  0
DICTIONARY
  5
D
330
A
100
AcDbDictionary
281
1
  3
Model
350
1A
  3
Layout1
350
1E
  0
DICTIONARY
  5
E
330
A
100
AcDbDictionary
281
1
  3
ByBlock
350
1F
  3
ByLayer
350
20
  3
Global
350
21
  0
DICTIONARY
  5
F
330
A
100
AcDbDictionary
281
1
  3
Standard
350
2C
  0
DICTIONARY
  5
10
330
A
100
AcDbDictionary
281
1
  3
Standard
350
22
  0
DICTIONARY
  5
11
330
A
100
AcDbDictionary
281
1
  0
ACDBDICTIONARYWDFLT
  5
12
330
A
100
AcDbDictionary
281
1
  3
Normal
350
13
100
AcDbDictionaryWithDefault
340
13
  0
ACDBPLACEHOLDER
  5
13
330
12
  0
DICTIONARY
  5
14
330
A
100
AcDbDictionary
281
1
  0
DICTIONARY
  5
15
330
A
100
AcDbDictionary
281
1
  0
DICTIONARY
  5
16
330
A
100
AcDbDictionary
281
1
  3
2dWireframe
350
5A
  3
Basic
350
5B
  3
Brighten
350
5C
  3
ColorChange
350
5D
  3
Conceptual
350
5E
  3
Dim
350
5F
  3
EdgeColorOff
350
60
  3
Facepattern
350
61
  3
Flat
350
62
  3
FlatWithEdges
350
63
  3
Gouraud
350
64
  3
GouraudWithEdges
350
65
  3
Hidden
350
66
  3
JitterOff
350
67
  3
Linepattern
350
68
  3
Modeling
350
69
  3
OverhangOff
350
6A
  3
Realistic
350
6B
  3
Shaded
350
6C
  3
Shaded with edges
350
6D
  3
Shades of Gray
350
6E
  3
Sketchy
350
6F
  3
Thicken
350
70
  3
Wireframe
350
71
  3
X-Ray
350
72
  0
LAYOUT
  5
1A
330
D
100
AcDbPlotSettings
  1

  4
A3
  6

 40
7.5
 41
20.0
 42
7.5
 43
20.0
 44
420.0
 45
297.0
 46
0.0
 47
0.0
 48
0.0
 49
0.0
140
0.0
141
0.0
142
1.0
143
1.0
 70
1024
 72
1
 73
0
 74
5
  7

 75
16
 76
0
 77
2
 78
300
147
1.0
148
0.0
149
0.0
100
AcDbLayout
  1
Model
 70
1
 71
0
 10
0.0
 20
0.0
 11
420.0
 21
297.0
 12
0.0
 22
0.0
 32
0.0
 14
1e+20
 24
1e+20
 34
1e+20
 15
-1e+20
 25
-1e+20
 35
-1e+20
146
0.0
 13
0.0
 23
0.0
 33
0.0
 16
1.0
 26
0.0
 36
0.0
 17
0.0
 27
1.0
 37
0.0
 76
1
330
17
  0
LAYOUT
  5
1E
330
D
100
AcDbPlotSettings
  1

  4
A3
  6

 40
7.5
 41
20.0
 42
7.5
 43
20.0
 44
420.0
 45
297.0
 46
0.0
 47
0.0
 48
0.0
 49
0.0
140
0.0
141
0.0
142
1.0
143
1.0
 70
0
 72
1
 73
0
 74
5
  7

 75
16
 76
0
 77
2
 78
300
147
1.0
148
0.0
149
0.0
100
AcDbLayout
  1
Layout1
 70
1
 71
1
 10
0.0
 20
0.0
 11
420.0
 21
297.0
 12
0.0
 22
0.0
 32
0.0
 14
1e+20
 24
1e+20
 34
1e+20
 15
-1e+20
 25
-1e+20
 35
-1e+20
146
0.0
 13
0.0
 23
0.0
 33
0.0
 16
1.0
 26
0.0
 36
0.0
 17
0.0
 27
1.0
 37
0.0
 76
1
330
1B
  0
MATERIAL
  5
1F
102
{ACAD_REACTORS
330
E
102
}
330
E
100
AcDbMaterial
  1
ByBlock
  2

 70
0
 40
1.0
 71
1
 41
1.0
 91
-1023410177
 42
1.0
 72
1
  3

 73
1
 74
1
 75
1
 44
0.5
 73
0
 45
1.0
 46
1.0
 77
1
  4

 78
1
 79
1
170
1
 48
1.0
171
1
  6

172
1
173
1
174
1
140
1.0
141
1.0
175
1
  7

176
1
177
1
178
1
143
1.0
179
1
  8

270
1
271
1
272
1
145
1.0
146
1.0
273
1
  9

274
1
275
1
276
1
 42
1.0
 72
1
  3

 73
1
 74
1
 75
1
 94
63
  0
MATERIAL
  5
20
102
{ACAD_REACTORS
330
E
102
}
330
E
100
AcDbMaterial
  1
ByLayer
  2

 70
0
 40
1.0
 71
1
 41
1.0
 91
-1023410177
 42
1.0
 72
1
  3

 73
1
 74
1
 75
1
 44
0.5
 73
0
 45
1.0
 46
1.0
 77
1
  4

 78
1
 79
1
170
1
 48
1.0
171
1
  6

172
1
173
1
174
1
140
1.0
141
1.0
175
1
  7

176
1
177
1
178
1
143
1.0
179
1
  8

270
1
271
1
272
1
145
1.0
146
1.0
273
1
  9

274
1
275
1
276
1
 42
1.0
 72
1
  3

 73
1
 74
1
 75
1
 94
63
  0
MATERIAL
  5
21
102
{ACAD_REACTORS
330
E
102
}
330
E
100
AcDbMaterial
  1
Global
  2

 70
0
 40
1.0
 71
1
 41
1.0
 91
-1023410177
 42
1.0
 72
1
  3

 73
1
 74
1
 75
1
 44
0.5
 73
0
 45
1.0
 46
1.0
 77
1
  4

 78
1
 79
1
170
1
 48
1.0
171
1
  6

172
1
173
1
174
1
140
1.0
141
1.0
175
1
  7

176
1
177
1
178
1
143
1.0
179
1
  8

270
1
271
1
272
1
145
1.0
146
1.0
273
1
  9

274
1
275
1
276
1
 42
1.0
 72
1
  3

 73
1
 74
1
 75
1
 94
63
  0
MLINESTYLE
  5
22
102
{ACAD_REACTORS
330
10
102
}
330
10
100
AcDbMlineStyle
  2
Standard
 70
0
  3

 62
256
 51
90.0
 52
90.0
 71
2
 49
0.5
 62
256
  6
BYLAYER
 49
-0.5
 62
256
  6
BYLAYER
  0
MLEADERSTYLE
  5
2C
102
{ACAD_REACTORS
330
F
102
}
330
F
100
AcDbMLeaderStyle
179
2
170
2
171
1
172
0
 90
2
 40
0.0
 41
0.0
173
1
 91
-1056964608
 92
-2
290
1
 42
2.0
291
1
 43
8.0
  3
Standard
 44
4.0
300

342
29
174
1
175
1
176
0
178
1
 93
-1056964608
 45
4.0
292
0
297
0
 46
4.0
 94
-1056964608
 47
1.0
 49
1.0
140
1.0
294
1
141
0.0
177
0
142
1.0
295
0
296
0
143
3.75
271
0
272
9
273
9
  0
DICTIONARY
  5
2D
330
A
100
AcDbDictionary
280
1
281
1
  3
CREATED_BY_EZDXF
350
2E
  3
WRITTEN_BY_EZDXF
350
99
  0
DICTIONARYVAR
  5
2E
330
2D
100
DictionaryVariables
280
0
  1
1.4.2 @ 2026-09-06T16:30:42.709560+00:00
  0
VISUALSTYLE
  5
5A
102
{ACAD_REACTORS
330
16
102
}
330
16
100
AcDbVisualStyle
  2
2dWireframe
 70
4
 90
0
 40
0.6
 62
7
290
0
291
0
  0
VISUALSTYLE
  5
5B
102
{ACAD_REACTORS
330
16
102
}
330
16
100
AcDbVisualStyle
  2
Basic
 70
7
 90
1
 40
0.6
 62
7
290
0
291
1
  0
VISUALSTYLE
  5
5C
102
{ACAD_REACTORS
330
16
102
}
330
16
100
AcDbVisualStyle
  2
Brighten
 70
12
 90
2
 40
0.6
 62
7
290
0
291
1
  0
VISUALSTYLE
  5
5D
102
{ACAD_REACTORS
330
16
102
}
330
16
100
AcDbVisualStyle
  2
ColorChange
 70
16
 90
2
 40
0.6
 62
8
290
0
291
1
  0
VISUALSTYLE
  5
5E
102
{ACAD_REACTORS
330
16
102
}
330
16
100
AcDbVisualStyle
  2
Conceptual
 70
9
 90
3
 40
0.6
 62
7
290
0
291
0
  0
VISUALSTYLE
  5
5F
102
{ACAD_REACTORS
330
16
102
}
330
16
100
AcDbVisualStyle
  2
Dim
 70
11
 90
2
 40
0.6
 62
7
290
0
291
1
  0
VISUALSTYLE
  5
60
102
{ACAD_REACTORS
330
16
102
}
330
16
100
AcDbVisualStyle
  2
EdgeColorOff
 70
22
 90
2
 40
0.6
 62
7
290
0
291
1
  0
VISUALSTYLE
  5
61
102
{ACAD_REACTORS
330
16
102
}
330
16
100
AcDbVisualStyle
  2
Facepattern
 70
15
 90
2
 40
0.6
 62
7
290
0
291
1
  0
VISUALSTYLE
  5
62
102
{ACAD_REACTORS
330
16
102
}
330
16
100
AcDbVisualStyle
  2
Flat
 70
0
 90
2
 40
0.6
 62
7
290
0
291
1
  0
VISUALSTYLE
  5
63
102
{ACAD_REACTORS
330
16
102
}
330
16
100
AcDbVisualStyle
  2
FlatWithEdges
 70
1
 90
2
 40
0.6
 62
7
290
0
291
1
  0
VISUALSTYLE
  5
64
102
{ACAD_REACTORS
330
16
102
}
330
16
100
AcDbVisualStyle
  2
Gouraud
 70
2
 90
2
 40
0.6
 62
7
290
0
291
1
  0
VISUALSTYLE
  5
65
102
{ACAD_REACTORS
330
16
102
}
330
16
100
AcDbVisualStyle
  2
GouraudWithEdges
 70
3
 90
2
 40
0.6
 62
7
290
0
291
1
  0
VISUALSTYLE
  5
66
102
{ACAD_REACTORS
330
16
102
}
330
16
100
AcDbVisualStyle
  2
Hidden
 70
6
 90
1
 40
0.6
 62
7
290
0
291
0
  0
VISUALSTYLE
  5
67
102
{ACAD_REACTORS
330
16
102
}
330
16
100
AcDbVisualStyle
  2
JitterOff
 70
20
 90
2
 40
0.6
 62
7
290
0
291
1
  0
VISUALSTYLE
  5
68
102
{ACAD_REACTORS
330
16
102
}
330
16
100
AcDbVisualStyle
  2
Linepattern
 70
14
 90
2
 40
0.6
 62
7
290
0
291
1
  0
VISUALSTYLE
  5
69
102
{ACAD_REACTORS
330
16
102
}
330
16
100
AcDbVisualStyle
  2
Modeling
 70
10
 90
2
 40
0.6
 62
7
290
0
291
0
  0
VISUALSTYLE
  5
6A
102
{ACAD_REACTORS
330
16
102
}
330
16
100
AcDbVisualStyle
  2
OverhangOff
 70
21
 90
2
 40
0.6
 62
7
290
0
291
1
  0
VISUALSTYLE
  5
6B
102
{ACAD_REACTORS
330
16
102
}
330
16
100
AcDbVisualStyle
  2
Realistic
 70
8
 90
2
 40
0.6
 62
7
290
0
291
0
  0
VISUALSTYLE
  5
6C
102
{ACAD_REACTORS
330
16
102
}
330
16
100
AcDbVisualStyle
  2
Shaded
 70
27
 90
2
 40
0.6
 62
7
290
0
291
0
  0
VISUALSTYLE
  5
6D
102
{ACAD_REACTORS
330
16
102
}
330
16
100
AcDbVisualStyle
  2
Shaded with edges
 70
26
 90
2
 40
0.6
 62
7
290
0
291
0
  0
VISUALSTYLE
  5
6E
102
{ACAD_REACTORS
330
16
102
}
330
16
100
AcDbVisualStyle
  2
Shades of Gray
 70
23
 90
2
 40
0.6
 62
7
290
0
291
0
  0
VISUALSTYLE
  5
6F
102
{ACAD_REACTORS
330
16
102
}
330
16
100
AcDbVisualStyle
  2
Sketchy
 70
24
 90
1
 40
0.6
 62
7
290
0
291
0
  0
VISUALSTYLE
  5
70
102
{ACAD_REACTORS
330
16
102
}
330
16
100
AcDbVisualStyle
  2
Thicken
 70
13
 90
2
 40
0.6
 62
7
290
0
291
1
  0
VISUALSTYLE
  5
71
102
{ACAD_REACTORS
330
16
102
}
330
16
100
AcDbVisualStyle
  2
Wireframe
 70
5
 90
0
 40
0.6
 62
7
290
0
291
0
  0
VISUALSTYLE
  5
72
102
{ACAD_REACTORS
330
16
102
}
330
16
100
AcDbVisualStyle
  2
X-Ray
 70
25
 90
2
 40
0.5
 62
7
290
0
291
0
  0
DICTIONARYVAR
  5
99
330
2D
100
DictionaryVariables
280
0
  1
1.4.2 @ 2026-09-06T16:30:42.721096+00:00
  0
ENDSEC
  0
EOF
