  0
SECTION
  2
HEADER
  9
$ACADVER
  1
AC1024
  9
$ACADMAINTVER
 70
6
  9
$DWGCODEPAGE
  3
ANSI_1252
  9
$LASTSAVEDBY
  1
ezdxf
  9
$INSBASE
 10
0.0
 20
0.0
 30
0.0
  9
$EXTMIN
 10
1e+20
 20
1e+20
 30
1e+20
  9
$EXTMAX
 10
-1e+20
 20
-1e+20
 30
-1e+20
  9
$LIMMIN
 10
0.0
 20
0.0
  9
$LIMMAX
 10
420.0
 20
297.0
  9
$ORTHOMODE
 70
0
  9
$REGENMODE
 70
1
  9
$FILLMODE
 70
1
  9
$QTEXTMODE
 70
0
  9
$MIRRTEXT
 70
1
  9
$LTSCALE
 40
1.0
  9
$ATTMODE
 70
1
  9
$TEXTSIZE
 40
2.5
  9
$TRACEWID
 40
1.0
  9
$TEXTSTYLE
  7
OpenSans
  9
$CLAYER
  8
0
  9
$CELTYPE
  6
ByLayer
  9
$CECOLOR
 62
256
  9
$CELTSCALE
 40
1.0
  9
$DISPSILH
 70
0
  9
$DIMSCALE
 40
1.0
  9
$DIMASZ
 40
0.175
  9
$DIMEXO
 40
0.125
  9
$DIMDLI
 40
3.75
  9
$DIMRND
 40
0.0
  9
$DIMDLE
 40
0.0
  9
$DIMEXE
 40
0.375
  9
$DIMTP
 40
0.0
  9
$DIMTM
 40
0.0
  9
$DIMTXT
 40
0.25
  9
$DIMCEN
 40
2.5
  9
$DIMTSZ
 40
0.0
  9
$DIMTOL
 70
0
  9
$DIMLIM
 70
0
  9
$DIMTIH
 70
0
  9
$DIMTOH
 70
0
  9
$DIMSE1
 70
0
  9
$DIMSE2
 70
0
  9
$DIMTAD
 70
1
  9
$DIMZIN
 70
12
  9
$DIMBLK
  1
ARCHTICK
  9
$DIMASO
 70
1
  9
$DIMSHO
 70
1
  9
$DIMPOST
  1

  9
$DIMAPOST
  1

  9
$DIMALT
 70
0
  9
$DIMALTD
 70
3
  9
$DIMALTF
 40
0.03937007874
  9
$DIMLFAC
 40
100.0
  9
$DIMTOFL
 70
1
  9
$DIMTVP
 40
0.0
  9
$DIMTIX
 70
0
  9
$DIMSOXD
 70
0
  9
$DIMSAH
 70
0
  9
$DIMBLK1
  1

  9
$DIMBLK2
  1

  9
$DIMSTYLE
  2
EZDXF
  9
$DIMCLRD
 70
0
  9
$DIMCLRE
 70
0
  9
$DIMCLRT
 70
0
  9
$DIMTFAC
 40
0.5
  9
$DIMGAP
 40
0.1
  9
$DIMJUST
 70
0
  9
$DIMSD1
 70
0
  9
$DIMSD2
 70
0
  9
$DIMTOLJ
 70
0
  9
$DIMTZIN
 70
8
  9
$DIMALTZ
 70
0
  9
$DIMALTTZ
 70
0
  9
$DIMUPT
 70
1
  9
$DIMDEC
 70
2
  9
$DIMTDEC
 70
2
  9
$DIMALTU
 70
2
  9
$DIMALTTD
 70
3
  9
$DIMTXSTY
  7
OpenSansCondensed-Light
  9
$DIMAUNIT
 70
0
  9
$DIMADEC
 70
2
  9
$DIMALTRND
 40
0.0
  9
$DIMAZIN
 70
3
  9
$DIMDSEP
 70
46
  9
$DIMATFIT
 70
3
  9
$DIMFRAC
 70
0
  9
$DIMLDRBLK
  1

  9
$DIMLUNIT
 70
2
  9
$DIMLWD
 70
-2
  9
$DIMLWE
 70
-2
  9
$DIMTMOVE
 70
2
  9
$DIMFXL
 40
1.0
  9
$DIMFXLON
 70
0
  9
$DIMJOGANG
 40
0.785398163397
  9
$DIMTFILL
 70
0
  9
$DIMTFILLCLR
 70
0
  9
$DIMARCSYM
 70
0
  9
$DIMLTYPE
  6

  9
$DIMLTEX1
  6

  9
$DIMLTEX2
  6

  9
$DIMTXTDIRECTION
 70
0
  9
$LUNITS
 70
2
  9
$LUPREC
 70
4
  9
$SKETCHINC
 40
1.0
  9
$FILLETRAD
 40
10.0
  9
$AUNITS
 70
0
  9
$AUPREC
 70
2
  9
$MENU
  1
.
  9
$ELEVATION
 40
0.0
  9
$PELEVATION
 40
0.0
  9
$THICKNESS
 40
0.0
  9
$LIMCHECK
 70
0
  9
$CHAMFERA
 40
0.0
  9
$CHAMFERB
 40
0.0
  9
$CHAMFERC
 40
0.0
  9
$CHAMFERD
 40
0.0
  9
$SKPOLY
 70
0
  9
$TDCREATE
 40
2461290.4379861113
  9
$TDUCREATE
 40
2458532.153996898
  9
$TDUPDATE
 40
2461290.4379861113
  9
$TDUUPDATE
 40
2458532.1544311
  9
$TDINDWG
 40
0.0
  9
$TDUSRTIMER
 40
0.0
  9
$USRTIMER
 70
1
  9
$ANGBASE
 50
0.0
  9
$ANGDIR
 70
0
  9
$PDMODE
 70
0
  9
$PDSIZE
 40
0.0
  9
$PLINEWID
 40
0.0
  9
$SPLFRAME
 70
0
  9
$SPLINETYPE
 70
6
  9
$SPLINESEGS
 70
8
  9
$HANDSEED
  5
9A
  9
$SURFTAB1
 70
6
  9
$SURFTAB2
 70
6
  9
$SURFTYPE
 70
6
  9
$SURFU
 70
6
  9
$SURFV
 70
6
  9
$UCSBASE
  2

  9
$UCSNAME
  2

  9
$UCSORG
 10
0.0
 20
0.0
 30
0.0
  9
$UCSXDIR
 10
1.0
 20
0.0
 30
0.0
  9
$UCSYDIR
 10
0.0
 20
1.0
 30
0.0
  9
$UCSORTHOREF
  2

  9
$UCSORTHOVIEW
 70
0
  9
$UCSORGTOP
 10
0.0
 20
0.0
 30
0.0
  9
$UCSORGBOTTOM
 10
0.0
 20
0.0
 30
0.0
  9
$UCSORGLEFT
 10
0.0
 20
0.0
 30
0.0
  9
$UCSORGRIGHT
 10
0.0
 20
0.0
 30
0.0
  9
$UCSORGFRONT
 10
0.0
 20
0.0
 30
0.0
  9
$UCSORGBACK
 10
0.0
 20
0.0
 30
0.0
  9
$PUCSBASE
  2

  9
$PUCSNAME
  2

  9
$PUCSORG
 10
0.0
 20
0.0
 30
0.0
  9
$PUCSXDIR
 10
1.0
 20
0.0
 30
0.0
  9
$PUCSYDIR
 10
0.0
 20
1.0
 30
0.0
  9
$PUCSORTHOREF
  2

  9
$PUCSORTHOVIEW
 70
0
  9
$PUCSORGTOP
 10
0.0
 20
0.0
 30
0.0
  9
$PUCSORGBOTTOM
 10
0.0
 20
0.0
 30
0.0
  9
$PUCSORGLEFT
 10
0.0
 20
0.0
 30
0.0
  9
$PUCSORGRIGHT
 10
0.0
 20
0.0
 30
0.0
  9
$PUCSORGFRONT
 10
0.0
 20
0.0
 30
0.0
  9
$PUCSORGBACK
 10
0.0
 20
0.0
 30
0.0
  9
$USERI1
 70
0
  9
$USERI2
 70
0
  9
$USERI3
 70
0
  9
$USERI4
 70
0
  9
$USERI5
 70
0
  9
$USERR1
 40
0.0
  9
$USERR2
 40
0.0
  9
$USERR3
 40
0.0
  9
$USERR4
 40
0.0
  9
$USERR5
 40
0.0
  9
$WORLDVIEW
 70
1
  9
$SHADEDGE
 70
3
  9
$SHADEDIF
 70
70
  9
$TILEMODE
 70
1
  9
$MAXACTVP
 70
64
  9
$PINSBASE
 10
0.0
 20
0.0
 30
0.0
  9
$PLIMCHECK
 70
0
  9
$PEXTMIN
 10
1e+20
 20
1e+20
 30
1e+20
  9
$PEXTMAX
 10
-1e+20
 20
-1e+20
 30
-1e+20
  9
$PLIMMIN
 10
0.0
 20
0.0
  9
$PLIMMAX
 10
420.0
 20
297.0
  9
$UNITMODE
 70
0
  9
$VISRETAIN
 70
1
  9
$PLINEGEN
 70
0
  9
$PSLTSCALE
 70
1
  9
$TREEDEPTH
 70
3020
  9
$CMLSTYLE
  2
Standard
  9
$CMLJUST
 70
0
  9
$CMLSCALE
 40
20.0
  9
$PROXYGRAPHICS
 70
1
  9
$MEASUREMENT
 70
1
  9
$CELWEIGHT
370
-1
  9
$ENDCAPS
280
0
  9
$JOINSTYLE
280
0
  9
$LWDISPLAY
290
0
  9
$INSUNITS
 70
4
  9
$HYPERLINKBASE
  1

  9
$STYLESHEET
  1

  9
$XEDIT
290
1
  9
$CEPSNTYPE
380
0
  9
$PSTYLEMODE
290
1
  9
$FINGERPRINTGUID
  2
{5A48831B-7B80-4A24-B547-98D68DEA8BD1}
  9
$VERSIONGUID
  2
{B466C507-A024-4C4C-BA56-246658D77E6B}
  9
$EXTNAMES
290
1
  9
$PSVPSCALE
 40
0.0
  9
$OLESTARTUP
290
0
  9
$SORTENTS
280
127
  9
$INDEXCTL
280
0
  9
$HIDETEXT
280
1
  9
$XCLIPFRAME
280
1
  9
$HALOGAP
280
0
  9
$OBSCOLOR
 70
257
  9
$OBSLTYPE
280
0
  9
$INTERSECTIONDISPLAY
280
0
  9
$INTERSECTIONCOLOR
 70
257
  9
$DIMASSOC
280
2
  9
$PROJECTNAME
  1

  9
$CAMERADISPLAY
290
0
  9
$LENSLENGTH
 40
50.0
  9
$CAMERAHEIGHT
 40
0.0
  9
$STEPSPERSEC
 40
24.0
  9
$STEPSIZE
 40
100.0
  9
$3DDWFPREC
 40
2.0
  9
$PSOLWIDTH
 40
0.005
  9
$PSOLHEIGHT
 40
0.08
  9
$LOFTANG1
 40
1.570796326795
  9
$LOFTANG2
 40
1.570796326795
  9
$LOFTMAG1
 40
0.0
  9
$LOFTMAG2
 40
0.0
  9
$LOFTPARAM
 70
7
  9
$LOFTNORMALS
280
1
  9
$LATITUDE
 40
37.795
  9
$LONGITUDE
 40
-122.394
  9
$NORTHDIRECTION
 40
0.0
  9
$TIMEZONE
 70
-8000
  9
$LIGHTGLYPHDISPLAY
280
1
  9
$TILEMODELIGHTSYNCH
280
1
  9
$CMATERIAL
347
20
  9
$SOLIDHIST
280
0
  9
$SHOWHIST
280
1
  9
$DWFFRAME
280
2
  9
$DGNFRAME
280
2
  9
$REALWORLDSCALE
290
1
  9
$INTERFERECOLOR
 62
256
  9
$CSHADOW
280
0
  9
$SHADOWPLANELOCATION
 40
0.0
  0
ENDSEC
  0
SECTION
  2
CLASSES
  0
CLASS
  1
ACDBDICTIONARYWDFLT
  2
AcDbDictionaryWithDefault
  3
ObjectDBX Classes
 90
0
 91
0
280
0
281
0
  0
CLASS
  1
SUN
  2
AcDbSun
  3
SCENEOE
 90
1153
 91
0
280
0
281
0
  0
CLASS
  1
VISUALSTYLE
  2
AcDbVisualStyle
  3
ObjectDBX Classes
 90
4095
 91
0
280
0
281
0
  0
CLASS
  1
MATERIAL
  2
AcDbMaterial
  3
ObjectDBX Classes
 90
1153
 91
0
280
0
281
0
  0
CLASS
  1
SCALE
  2
AcDbScale
  3
ObjectDBX Classes
 90
1153
 91
0
280
0
281
0
  0
CLASS
  1
TABLESTYLE
  2
AcDbTableStyle
  3
ObjectDBX Classes
 90
4095
 91
0
280
0
281
0
  0
CLASS
  1
MLEADERSTYLE
  2
AcDbMLeaderStyle
  3
ACDB_MLEADERSTYLE_CLASS
 90
4095
 91
0
280
0
281
0
  0
CLASS
  1
DICTIONARYVAR
  2
AcDbDictionaryVar
  3
ObjectDBX Classes
 90
0
 91
0
280
0
281
0
  0
CLASS
  1
CELLSTYLEMAP
  2
AcDbCellStyleMap
  3
ObjectDBX Classes
 90
1152
 91
0
280
0
281
0
  0
CLASS
  1
MENTALRAYRENDERSETTINGS
  2
AcDbMentalRayRenderSettings
  3
SCENEOE
 90
1024
 91
0
280
0
281
0
  0
CLASS
  1
ACDBDETAILVIEWSTYLE
  2
AcDbDetailViewStyle
  3
ObjectDBX Classes
 90
1025
 91
0
280
0
281
0
  0
CLASS
  1
ACDBSECTIONVIEWSTYLE
  2
AcDbSectionViewStyle
  3
ObjectDBX Classes
 90
1025
 91
0
280
0
281
0
  0
CLASS
  1
RASTERVARIABLES
  2
AcDbRasterVariables
  3
ISM
 90
0
 91
0
280
0
281
0
  0
CLASS
  1
LAYOUT
  2
AcDbLayout
  3
ObjectDBX Classes
 90
0
 91
0
280
0
281
0
  0
CLASS
  1
ACDBPLACEHOLDER
  2
AcDbPlaceHolder
  3
ObjectDBX Classes
 90
0
 91
0
280
0
281
0
  0
ENDSEC
  0
SECTION
  2
TABLES
  0
TABLE
  2
VPORT
  5
8
330
0
100
AcDbSymbolTable
 70
1
  0
VPORT
  5
23
330
8
100
AcDbSymbolTableRecord
100
AcDbViewportTableRecord
  2
*Active
 70
0
 10
0.0
 20
0.0
 11
1.0
 21
1.0
 12
0.0
 22
0.0
 13
0.0
 23
0.0
 14
0.5
 24
0.5
 15
0.5
 25
0.5
 16
0.0
 26
0.0
 36
1.0
 17
0.0
 27
0.0
 37
0.0
 40
1000.0
 41
1.34
 42
50.0
 43
0.0
 44
0.0
 50
0.0
 51
0.0
 71
0
 72
1000
 73
1
 74
3
 75
0
 76
0
 77
0
 78
0
281
0
 65
0
146
0.0
  0
ENDTAB
  0
TABLE
  2
LTYPE
  5
2
330
0
100
AcDbSymbolTable
 70
21
  0
LTYPE
  5
24
330
2
100
AcDbSymbolTableRecord
100
AcDbLinetypeTableRecord
  2
ByBlock
 70
0
  3

 72
65
 73
0
 40
0.0
  0
LTYPE
  5
25
330
2
100
AcDbSymbolTableRecord
100
AcDbLinetypeTableRecord
  2
ByLayer
 70
0
  3

 72
65
 73
0
 40
0.0
  0
LTYPE
  5
26
330
2
100
AcDbSymbolTableRecord
100
AcDbLinetypeTableRecord
  2
Continuous
 70
0
  3

 72
65
 73
0
 40
0.0
  0
LTYPE
  5
2F
330
2
100
AcDbSymbolTableRecord
100
AcDbLinetypeTableRecord
  2
CENTER
 70
0
  3
Center ____ _ ____ _ ____ _ ____ _ ____ _ ____
 72
65
 73
4
 40
5.08
 49
3.175
 74
0
 49
-0.635
 74
0
 49
0.635
 74
0
 49
-0.635
 74
0
  0
LTYPE
  5
30
330
2
100
AcDbSymbolTableRecord
100
AcDbLinetypeTableRecord
  2
CENTERX2
 70
0
  3
Center (2x) ________  __  ________  __  ________
 72
65
 73
4
 40
8.89
 49
6.35
 74
0
 49
-0.635
 74
0
 49
1.27
 74
0
 49
-0.635
 74
0
  0
LTYPE
  5
31
330
2
100
AcDbSymbolTableRecord
100
AcDbLinetypeTableRecord
  2
CENTER2
 70
0
  3
Center (.5x) ____ _ ____ _ ____ _ ____ _ ____
 72
65
 73
4
 40
2.54
 49
1.587
 74
0
 49
-0.318
 74
0
 49
0.318
 74
0
 49
-0.318
 74
0
  0
LTYPE
  5
32
330
2
100
AcDbSymbolTableRecord
100
AcDbLinetypeTableRecord
  2
DASHED
 70
0
  3
Dashed __ __ __ __ __ __ __ __ __ __ __ __ __ _
 72
65
 73
2
 40
1.524
 49
1.27
 74
0
 49
-0.254
 74
0
  0
LTYPE
  5
33
330
2
100
AcDbSymbolTableRecord
100
AcDbLinetypeTableRecord
  2
DASHEDX2
 70
0
  3
Dashed (2x) ____  ____  ____  ____  ____  ____
 72
65
 73
2
 40
3.048
 49
2.54
 74
0
 49
-0.508
 74
0
  0
LTYPE
  5
34
330
2
100
AcDbSymbolTableRecord
100
AcDbLinetypeTableRecord
  2
DASHED2
 70
0
  3
Dashed (.5x) _ _ _ _ _ _ _ _ _ _ _ _ _ _
 72
65
 73
2
 40
0.762
 49
0.635
 74
0
 49
-0.127
 74
0
  0
LTYPE
  5
35
330
2
100
AcDbSymbolTableRecord
100
AcDbLinetypeTableRecord
  2
PHANTOM
 70
0
  3
Phantom ______  __  __  ______  __  __  ______
 72
65
 73
6
 40
6.35
 49
3.175
 74
0
 49
-0.635
 74
0
 49
0.635
 74
0
 49
-0.635
 74
0
 49
0.635
 74
0
 49
-0.635
 74
0
  0
LTYPE
  5
36
330
2
100
AcDbSymbolTableRecord
100
AcDbLinetypeTableRecord
  2
PHANTOMX2
 70
0
  3
Phantom (2x)____________    ____    ____    ____________
 72
65
 73
6
 40
10.795
 49
6.35
 74
0
 49
-0.635
 74
0
 49
1.27
 74
0
 49
-0.635
 74
0
 49
1.27
 74
0
 49
-0.635
 74
0
  0
LTYPE
  5
37
330
2
100
AcDbSymbolTableRecord
100
AcDbLinetypeTableRecord
  2
PHANTOM2
 70
0
  3
Phantom (.5x) ___ _ _ ___ _ _ ___ _ _ ___ _ _ ___
 72
65
 73
6
 40
3.175
 49
1.587
 74
0
 49
-0.318
 74
0
 49
0.318
 74
0
 49
-0.318
 74
0
 49
0.318
 74
0
 49
-0.318
 74
0
  0
LTYPE
  5
38
330
2
100
AcDbSymbolTableRecord
100
AcDbLinetypeTableRecord
  2
DASHDOT
 70
0
  3
Dash dot __ . __ . __ . __ . __ . __ . __ . __
 72
65
 73
4
 40
3.556
 49
2.54
 74
0
 49
-0.508
 74
0
 49
0.0
 74
0
 49
-0.508
 74
0
  0
LTYPE
  5
39
330
2
100
AcDbSymbolTableRecord
100
AcDbLinetypeTableRecord
  2
DASHDOTX2
 70
0
  3
Dash dot (2x) ____  .  ____  .  ____  .  ____
 72
65
 73
4
 40
6.096
 49
5.08
 74
0
 49
-0.508
 74
0
 49
0.0
 74
0
 49
-0.508
 74
0
  0
LTYPE
  5
3A
330
2
100
AcDbSymbolTableRecord
100
AcDbLinetypeTableRecord
  2
DASHDOT2
 70
0
  3
Dash dot (.5x) _ . _ . _ . _ . _ . _ . _ . _
 72
65
 73
4
 40
1.778
 49
1.27
 74
0
 49
-0.254
 74
0
 49
0.0
 74
0
 49
-0.254
 74
0
  0
LTYPE
  5
3B
330
2
100
AcDbSymbolTableRecord
100
AcDbLinetypeTableRecord
  2
DOT
 70
0
  3
Dot .  .  .  .  .  .  .  .  .  .  .  .  .  .  .  .
 72
65
 73
2
 40
0.508
 49
0.0
 74
0
 49
-0.508
 74
0
  0
LTYPE
  5
3C
330
2
100
AcDbSymbolTableRecord
100
AcDbLinetypeTableRecord
  2
DOTX2
 70
0
  3
Dot (2x) .    .    .    .    .    .    .    . 
 72
65
 73
2
 40
1.016
 49
0.0
 74
0
 49
-1.016
 74
0
  0
LTYPE
  5
3D
330
2
100
AcDbSymbolTableRecord
100
AcDbLinetypeTableRecord
  2
DOT2
 70
0
  3
Dot (.5) . . . . . . . . . . . . . . . . . . . 
 72
65
 73
2
 40
0.254
 49
0.0
 74
0
 49
-0.254
 74
0
  0
LTYPE
  5
3E
330
2
100
AcDbSymbolTableRecord
100
AcDbLinetypeTableRecord
  2
DIVIDE
 70
0
  3
Divide __ . . __ . . __ . . __ . . __ . . __
 72
65
 73
6
 40
4.064
 49
2.54
 74
0
 49
-0.508
 74
0
 49
0.0
 74
0
 49
-0.508
 74
0
 49
0.0
 74
0
 49
-0.508
 74
0
  0
LTYPE
  5
3F
330
2
100
AcDbSymbolTableRecord
100
AcDbLinetypeTableRecord
  2
DIVIDEX2
 70
0
  3
Divide (2x) ____  . .  ____  . .  ____  . .  ____
 72
65
 73
6
 40
6.604
 49
5.08
 74
0
 49
-0.508
 74
0
 49
0.0
 74
0
 49
-0.508
 74
0
 49
0.0
 74
0
 49
-0.508
 74
0
  0
LTYPE
  5
40
330
2
100
AcDbSymbolTableRecord
100
AcDbLinetypeTableRecord
  2
DIVIDE2
 70
0
  3
Divide(.5x) _ . _ . _ . _ . _ . _ . _ . _
 72
65
 73
6
 40
2.032
 49
1.27
 74
0
 49
-0.254
 74
0
 49
0.0
 74
0
 49
-0.254
 74
0
 49
0.0
 74
0
 49
-0.254
 74
0
  0
ENDTAB
  0
TABLE
  2
LAYER
  5
1
330
0
100
AcDbSymbolTable
 70
5
  0
LAYER
  5
27
330
1
100
AcDbSymbolTableRecord
100
AcDbLayerTableRecord
  2
0
 70
0
 62
7
  6
Continuous
370
-3
390
13
347
21
  0
LAYER
  5
28
330
1
100
AcDbSymbolTableRecord
100
AcDbLayerTableRecord
  2
Defpoints
 70
0
 62
7
  6
Continuous
290
0
370
-3
390
13
347
21
  0
LAYER
  5
8A
330
1
100
AcDbSymbolTableRecord
100
AcDbLayerTableRecord
  2
CORTE
 70
0
 62
1
  6
Continuous
370
-3
390
13
347
21
  0
LAYER
  5
8B
330
1
100
AcDbSymbolTableRecord
100
AcDbLayerTableRecord
  2
GRABADO
 70
0
 62
5
  6
Continuous
370
-3
390
13
347
21
  0
LAYER
  5
8C
330
1
100
AcDbSymbolTableRecord
100
AcDbLayerTableRecord
  2
HOJA
 70
0
 62
8
  6
Continuous
370
-3
390
13
347
21
  0
ENDTAB
  0
TABLE
  2
STYLE
  5
5
330
0
100
AcDbSymbolTable
 70
26
  0
STYLE
  5
29
330
5
100
AcDbSymbolTableRecord
100
AcDbTextStyleTableRecord
  2
Standard
 70
0
 40
0.0
 41
1.0
 50
0.0
 71
0
 42
2.5
  3
txt
  4

  0
STYLE
  5
41
330
5
100
AcDbSymbolTableRecord
100
AcDbTextStyleTableRecord
  2
OpenSans-Light
 70
0
 40
0.0
 41
1.0
 50
0.0
 71
0
 42
2.5
  3
OpenSans-Light.ttf
  4

  0
STYLE
  5
42
330
5
100
AcDbSymbolTableRecord
100
AcDbTextStyleTableRecord
  2
OpenSans-Light-Italic
 70
0
 40
0.0
 41
1.0
 50
0.0
 71
0
 42
2.5
  3
OpenSans-LightItalic.ttf
  4

  0
STYLE
  5
43
330
5
100
AcDbSymbolTableRecord
100
AcDbTextStyleTableRecord
  2
OpenSans
 70
0
 40
0.0
 41
1.0
 50
0.0
 71
0
 42
2.5
  3
OpenSans-Regular.ttf
  4

  0
STYLE
  5
44
330
5
100
AcDbSymbolTableRecord
100
AcDbTextStyleTableRecord
  2
OpenSans-Italic
 70
0
 40
0.0
 41
1.0
 50
0.0
 71
0
 42
2.5
  3
OpenSans-Italic.ttf
  4

  0
STYLE
  5
45
330
5
100
AcDbSymbolTableRecord
100
AcDbTextStyleTableRecord
  2
OpenSans-SemiBold
 70
0
 40
0.0
 41
1.0
 50
0.0
 71
0
 42
2.5
  3
OpenSans-SemiBold.ttf
  4

  0
STYLE
  5
46
330
5
100
AcDbSymbolTableRecord
100
AcDbTextStyleTableRecord
  2
OpenSans-SemiBoldItalic
 70
0
 40
0.0
 41
1.0
 50
0.0
 71
0
 42
2.5
  3
OpenSans-SemiBoldItalic.ttf
  4

  0
STYLE
  5
47
330
5
100
AcDbSymbolTableRecord
100
AcDbTextStyleTableRecord
  2
OpenSans-Bold
 70
0
 40
0.0
 41
1.0
 50
0.0
 71
0
 42
2.5
  3
OpenSans-Bold.ttf
  4

  0
STYLE
  5
48
330
5
100
AcDbSymbolTableRecord
100
AcDbTextStyleTableRecord
  2
OpenSans-BoldItalic
 70
0
 40
0.0
 41
1.0
 50
0.0
 71
0
 42
2.5
  3
OpenSans-BoldItalic.ttf
  4

  0
STYLE
  5
49
330
5
100
AcDbSymbolTableRecord
100
AcDbTextStyleTableRecord
  2
OpenSans-ExtraBold
 70
0
 40
0.0
 41
1.0
 50
0.0
 71
0
 42
2.5
  3
OpenSans-ExtraBold.ttf
  4

  0
STYLE
  5
4A
330
5
100
AcDbSymbolTableRecord
100
AcDbTextStyleTableRecord
  2
OpenSans-ExtraBoldItalic
 70
0
 40
0.0
 41
1.0
 50
0.0
 71
0
 42
2.5
  3
OpenSans-ExtraBoldItalic.ttf
  4

  0
STYLE
  5
4B
330
5
100
AcDbSymbolTableRecord
100
AcDbTextStyleTableRecord
  2
OpenSansCondensed-Bold
 70
0
 40
0.0
 41
1.0
 50
0.0
 71
0
 42
2.5
  3
OpenSansCondensed-Bold.ttf
  4

  0
STYLE
  5
4C
330
5
100
AcDbSymbolTableRecord
100
AcDbTextStyleTableRecord
  2
OpenSansCondensed-Light
 70
0
 40
0.0
 41
1.0
 50
0.0
 71
0
 42
2.5
  3
OpenSansCondensed-Light.ttf
  4

  0
STYLE
  5
4D
330
5
100
AcDbSymbolTableRecord
100
AcDbTextStyleTableRecord
  2
OpenSansCondensed-Italic
 70
0
 40
0.0
 41
1.0
 50
0.0
 71
0
 42
2.5
  3
OpenSansCondensed-LightItalic.ttf
  4

  0
STYLE
  5
4E
330
5
100
AcDbSymbolTableRecord
100
AcDbTextStyleTableRecord
  2
LiberationSans
 70
0
 40
0.0
 41
1.0
 50
0.0
 71
0
 42
2.5
  3
LiberationSans-Regular.ttf
  4

  0
STYLE
  5
4F
330
5
100
AcDbSymbolTableRecord
100
AcDbTextStyleTableRecord
  2
LiberationSans-Bold
 70
0
 40
0.0
 41
1.0
 50
0.0
 71
0
 42
2.5
  3
LiberationSans-Bold.ttf
  4

  0
STYLE
  5
50
330
5
100
AcDbSymbolTableRecord
100
AcDbTextStyleTableRecord
  2
LiberationSans-BoldItalic
 70
0
 40
0.0
 41
1.0
 50
0.0
 71
0
 42
2.5
  3
LiberationSans-BoldItalic.ttf
  4

  0
STYLE
  5
51
330
5
100
AcDbSymbolTableRecord
100
AcDbTextStyleTableRecord
  2
LiberationSans-Italic
 70
0
 40
0.0
 41
1.0
 50
0.0
 71
0
 42
2.5
  3
LiberationSans-Italic.ttf
  4

  0
STYLE
  5
52
330
5
100
AcDbSymbolTableRecord
100
AcDbTextStyleTableRecord
  2
LiberationSerif
 70
0
 40
0.0
 41
1.0
 50
0.0
 71
0
 42
2.5
  3
LiberationSerif-Regular.ttf
  4

  0
STYLE
  5
53
330
5
100
AcDbSymbolTableRecord
100
AcDbTextStyleTableRecord
  2
LiberationSerif-Bold
 70
0
 40
0.0
 41
1.0
 50
0.0
 71
0
 42
2.5
  3
LiberationSerif-Bold.ttf
  4

  0
STYLE
  5
54
330
5
100
AcDbSymbolTableRecord
100
AcDbTextStyleTableRecord
  2
LiberationSerif-BoldItalic
 70
0
 40
0.0
 41
1.0
 50
0.0
 71
0
 42
2.5
  3
LiberationSerif-BoldItalic.ttf
  4

  0
STYLE
  5
55
330
5
100
AcDbSymbolTableRecord
100
AcDbTextStyleTableRecord
  2
LiberationSerif-Italic
 70
0
 40
0.0
 41
1.0
 50
0.0
 71
0
 42
2.5
  3
LiberationSerif-Italic.ttf
  4

  0
STYLE
  5
56
330
5
100
AcDbSymbolTableRecord
100
AcDbTextStyleTableRecord
  2
LiberationMono
 70
0
 40
0.0
 41
1.0
 50
0.0
 71
0
 42
2.5
  3
LiberationMono-Regular.ttf
  4

  0
STYLE
  5
57
330
5
100
AcDbSymbolTableRecord
100
AcDbTextStyleTableRecord
  2
LiberationMono-Bold
 70
0
 40
0.0
 41
1.0
 50
0.0
 71
0
 42
2.5
  3
LiberationMono-Bold.ttf
  4

  0
STYLE
  5
58
330
5
100
AcDbSymbolTableRecord
100
AcDbTextStyleTableRecord
  2
LiberationMono-BoldItalic
 70
0
 40
0.0
 41
1.0
 50
0.0
 71
0
 42
2.5
  3
LiberationMono-BoldItalic.ttf
  4

  0
STYLE
  5
59
330
5
100
AcDbSymbolTableRecord
100
AcDbTextStyleTableRecord
  2
LiberationMono-Italic
 70
0
 40
0.0
 41
1.0
 50
0.0
 71
0
 42
2.5
  3
LiberationMono-Italic.ttf
  4

  0
ENDTAB
  0
TABLE
  2
VIEW
  5
7
330
0
100
AcDbSymbolTable
 70
0
  0
ENDTAB
  0
TABLE
  2
UCS
  5
6
330
0
100
AcDbSymbolTable
 70
0
  0
ENDTAB
  0
TABLE
  2
APPID
  5
3
330
0
100
AcDbSymbolTable
 70
3
  0
APPID
  5
2A
330
3
100
AcDbSymbolTableRecord
100
AcDbRegAppTableRecord
  2
ACAD
 70
0
  0
APPID
  5
97
330
3
100
AcDbSymbolTableRecord
100
AcDbRegAppTableRecord
  2
HATCHBACKGROUNDCOLOR
 70
0
  0
APPID
  5
98
330
3
100
AcDbSymbolTableRecord
100
AcDbRegAppTableRecord
  2
EZDXF
 70
0
  0
ENDTAB
  0
TABLE
  2
DIMSTYLE
  5
4
330
0
100
AcDbSymbolTable
 70
12
100
AcDbDimStyleTable
  0
DIMSTYLE
105
2B
330
4
100
AcDbSymbolTableRecord
100
AcDbDimStyleTableRecord
  2
Standard
 70
0
 40
1.0
 41
2.5
 42
0.625
 43
3.75
 44
1.25
 45
0.0
 46
0.0
 47
0.0
 48
0.0
 49
2.5
140
2.5
141
2.5
142
0.0
143
0.03937007874
144
1.0
145
0.0
146
1.0
147
0.625
148
0.0
 69
0
 70
0
 71
0
 72
0
 73
0
 74
0
 75
0
 76
0
 77
1
 78
8
 79
3
170
0
171
3
172
1
173
0
174
0
175
0
176
0
177
0
178
0
179
2
271
2
272
2
273
2
274
3
275
0
276
0
277
2
278
44
279
0
280
0
281
0
282
0
283
0
284
8
285
0
286
0
288
0
289
3
290
0
371
-2
372
-2
  0
DIMSTYLE
105
73
330
4
100
AcDbSymbolTableRecord
100
AcDbDimStyleTableRecord
  2
EZDXF
 70
0
 40
1.0
 41
0.175
 42
0.125
 43
3.75
 44
0.375
 45
0.0
 46
0.0
 47
0.0
 48
0.0
 49
2.5
140
0.25
141
2.5
142
0.0
143
0.03937007874
144
100.0
145
0.0
146
0.5
147
0.1
148
0.0
 69
0
 70
0
 71
0
 72
0
 73
0
 74
0
 75
0
 76
0
 77
1
 78
12
 79
3
170
0
171
3
172
1
173
0
174
0
175
0
176
0
177
0
178
0
179
2
271
2
272
2
273
2
274
3
275
0
276
0
277
2
278
46
279
2
280
0
281
0
282
0
283
0
284
8
285
0
286
0
288
1
289
3
290
0
340
4C
342
74
371
-2
372
-2
  0
DIMSTYLE
105
7C
330
4
100
AcDbSymbolTableRecord
100
AcDbDimStyleTableRecord
  2
EZ_M_100_H25_CM
 70
0
 40
1.0
 41
0.25
 42
0.125
 43
3.75
 44
0.375
 45
0.0
 46
0.0
 47
0.0
 48
0.0
 49
2.5
140
0.25
141
2.5
142
0.125
143
0.03937007874
144
100.0
145
0.0
146
0.5
147
0.1
148
0.0
 69
0
 70
0
 71
0
 72
0
 73
0
 74
0
 75
0
 76
0
 77
1
 78
12
 79
3
170
0
171
3
172
1
173
0
174
0
175
0
176
0
177
0
178
0
179
2
271
2
272
2
273
2
274
3
275
0
276
0
277
2
278
46
279
2
280
0
281
0
282
0
283
0
284
8
285
0
286
0
288
1
289
3
290
0
340
4C
371
-2
372
-2
  0
DIMSTYLE
105
7D
330
4
100
AcDbSymbolTableRecord
100
AcDbDimStyleTableRecord
  2
EZ_M_50_H25_CM
 70
0
 40
1.0
 41
0.125
 42
0.0625
 43
3.75
 44
0.1875
 45
0.0
 46
0.0
 47
0.0
 48
0.0
 49
2.5
140
0.125
141
2.5
142
0.0625
143
0.03937007874
144
100.0
145
0.0
146
0.5
147
0.05
148
0.0
 69
0
 70
0
 71
0
 72
0
 73
0
 74
0
 75
0
 76
0
 77
1
 78
12
 79
3
170
0
171
3
172
1
173
0
174
0
175
0
176
0
177
0
178
0
179
2
271
2
272
2
273
2
274
3
275
0
276
0
277
2
278
46
279
2
280
0
281
0
282
0
283
0
284
8
285
0
286
0
288
1
289
3
290
0
340
4C
371
-2
372
-2
  0
DIMSTYLE
105
7E
330
4
100
AcDbSymbolTableRecord
100
AcDbDimStyleTableRecord
  2
EZ_M_25_H25_CM
 70
0
 40
1.0
 41
0.0625
 42
0.03125
 43
3.75
 44
0.09375
 45
0.0
 46
0.0
 47
0.0
 48
0.0
 49
2.5
140
0.0625
141
2.5
142
0.03125
143
0.03937007874
144
100.0
145
0.0
146
0.5
147
0.025
148
0.0
 69
0
 70
0
 71
0
 72
0
 73
0
 74
0
 75
0
 76
0
 77
1
 78
12
 79
3
170
0
171
3
172
1
173
0
174
0
175
0
176
0
177
0
178
0
179
2
271
2
272
2
273
2
274
3
275
0
276
0
277
2
278
46
279
2
280
0
281
0
282
0
283
0
284
8
285
0
286
0
288
1
289
3
290
0
340
4C
371
-2
372
-2
  0
DIMSTYLE
105
7F
330
4
100
AcDbSymbolTableRecord
100
AcDbDimStyleTableRecord
  2
EZ_M_20_H25_CM
 70
0
 40
1.0
 41
0.05
 42
0.025
 43
3.75
 44
0.07500000000000001
 45
0.0
 46
0.0
 47
0.0
 48
0.0
 49
2.5
140
0.05
141
2.5
142
0.025
143
0.03937007874
144
100.0
145
0.0
146
0.5
147
0.020000000000000004
148
0.0
 69
0
 70
0
 71
0
 72
0
 73
0
 74
0
 75
0
 76
0
 77
1
 78
12
 79
3
170
0
171
3
172
1
173
0
174
0
175
0
176
0
177
0
178
0
179
2
271
2
272
2
273
2
274
3
275
0
276
0
277
2
278
46
279
2
280
0
281
0
282
0
283
0
284
8
285
0
286
0
288
1
289
3
290
0
340
4C
371
-2
372
-2
  0
DIMSTYLE
105
80
330
4
100
AcDbSymbolTableRecord
100
AcDbDimStyleTableRecord
  2
EZ_M_10_H25_CM
 70
0
 40
1.0
 41
0.025
 42
0.0125
 43
3.75
 44
0.037500000000000006
 45
0.0
 46
0.0
 47
0.0
 48
0.0
 49
2.5
140
0.025
141
2.5
142
0.0125
143
0.03937007874
144
100.0
145
0.0
146
0.5
147
0.010000000000000002
148
0.0
 69
0
 70
0
 71
0
 72
0
 73
0
 74
0
 75
0
 76
0
 77
1
 78
12
 79
3
170
0
171
3
172
1
173
0
174
0
175
0
176
0
177
0
178
0
179
2
271
2
272
2
273
2
274
3
275
0
276
0
277
2
278
46
279
2
280
0
281
0
282
0
283
0
284
8
285
0
286
0
288
1
289
3
290
0
340
4C
371
-2
372
-2
  0
DIMSTYLE
105
81
330
4
100
AcDbSymbolTableRecord
100
AcDbDimStyleTableRecord
  2
EZ_M_5_H25_CM
 70
0
 40
1.0
 41
0.0125
 42
0.00625
 43
3.75
 44
0.018750000000000003
 45
0.0
 46
0.0
 47
0.0
 48
0.0
 49
2.5
140
0.0125
141
2.5
142
0.00625
143
0.03937007874
144
100.0
145
0.0
146
0.5
147
0.005000000000000001
148
0.0
 69
0
 70
0
 71
0
 72
0
 73
0
 74
0
 75
0
 76
0
 77
1
 78
12
 79
3
170
0
171
3
172
1
173
0
174
0
175
0
176
0
177
0
178
0
179
2
271
2
272
2
273
2
274
3
275
0
276
0
277
2
278
46
279
2
280
0
281
0
282
0
283
0
284
8
285
0
286
0
288
1
289
3
290
0
340
4C
371
-2
372
-2
  0
DIMSTYLE
105
82
330
4
100
AcDbSymbolTableRecord
100
AcDbDimStyleTableRecord
  2
EZ_M_1_H25_CM
 70
0
 40
1.0
 41
0.0025
 42
0.00125
 43
3.75
 44
0.00375
 45
0.0
 46
0.0
 47
0.0
 48
0.0
 49
2.5
140
0.0025
141
2.5
142
0.00125
143
0.03937007874
144
100.0
145
0.0
146
0.5
147
0.001
148
0.0
 69
0
 70
0
 71
0
 72
0
 73
0
 74
0
 75
0
 76
0
 77
1
 78
12
 79
3
170
0
171
3
172
1
173
0
174
0
175
0
176
0
177
0
178
0
179
2
271
2
272
2
273
2
274
3
275
0
276
0
277
2
278
46
279
2
280
0
281
0
282
0
283
0
284
8
285
0
286
0
288
1
289
3
290
0
340
4C
371
-2
372
-2
  0
DIMSTYLE
105
83
330
4
100
AcDbSymbolTableRecord
100
AcDbDimStyleTableRecord
  2
EZ_RADIUS
 70
0
 40
1.0
 41
0.25
 42
0.125
 43
3.75
 44
0.375
 45
0.0
 46
0.0
 47
0.0
 48
0.0
 49
2.5
140
0.25
141
0.0
142
0.0
143
0.03937007874
144
100.0
145
0.0
146
0.5
147
0.1
148
0.0
 69
0
 70
0
 71
0
 72
0
 73
0
 74
0
 75
0
 76
0
 77
1
 78
12
 79
3
170
0
171
3
172
0
173
0
174
0
175
0
176
0
177
0
178
0
179
2
271
2
272
2
273
2
274
3
275
0
276
0
277
2
278
46
279
1
280
0
281
0
282
0
283
0
284
8
285
0
286
0
288
1
289
3
290
0
340
4C
342
84
371
-2
372
-2
  0
DIMSTYLE
105
88
330
4
100
AcDbSymbolTableRecord
100
AcDbDimStyleTableRecord
  2
EZ_RADIUS_INSIDE
 70
0
 40
1.0
 41
0.25
 42
0.125
 43
3.75
 44
0.375
 45
0.0
 46
0.0
 47
0.0
 48
0.0
 49
2.5
140
0.25
141
0.0
142
0.0
143
0.03937007874
144
100.0
145
0.0
146
0.5
147
0.1
148
0.0
 69
0
 70
0
 71
0
 72
0
 73
0
 74
0
 75
0
 76
0
 77
0
 78
12
 79
3
170
0
171
3
172
0
173
0
174
1
175
0
176
0
177
0
178
0
179
2
271
2
272
2
273
2
274
3
275
0
276
0
277
2
278
46
279
0
280
0
281
0
282
0
283
0
284
8
285
0
286
0
288
1
289
0
290
0
340
4C
342
84
371
-2
372
-2
  0
DIMSTYLE
105
89
330
4
100
AcDbSymbolTableRecord
100
AcDbDimStyleTableRecord
  2
EZ_CURVED
 70
0
 40
1.0
 41
0.25
 42
0.125
 43
3.75
 44
0.375
 45
0.0
 46
0.0
 47
0.0
 48
0.0
 49
2.5
140
0.25
141
2.5
142
0.0
143
0.03937007874
144
100.0
145
0.0
146
0.5
147
0.1
148
0.0
 69
0
 70
0
 71
0
 72
0
 73
0
 74
0
 75
0
 76
0
 77
1
 78
12
 79
2
 90
2
170
0
171
3
172
1
173
0
174
0
175
0
176
0
177
0
178
0
179
2
271
2
272
2
273
2
274
3
275
0
276
0
277
2
278
46
279
2
280
0
281
0
282
0
283
0
284
8
285
0
286
0
288
1
289
3
290
0
340
4C
371
-2
372
-2
  0
ENDTAB
  0
TABLE
  2
BLOCK_RECORD
  5
9
330
0
100
AcDbSymbolTable
 70
5
  0
BLOCK_RECORD
  5
17
330
9
100
AcDbSymbolTableRecord
100
AcDbBlockTableRecord
  2
*Model_Space
340
1A
 70
0
280
1
281
0
  0
BLOCK_RECORD
  5
1B
330
9
100
AcDbSymbolTableRecord
100
AcDbBlockTableRecord
  2
*Paper_Space
340
1E
 70
0
280
1
281
0
  0
BLOCK_RECORD
  5
74
330
9
100
AcDbSymbolTableRecord
100
AcDbBlockTableRecord
  2
_ARCHTICK
340
0
 70
0
280
1
281
0
  0
BLOCK_RECORD
  5
78
330
9
100
AcDbSymbolTableRecord
100
AcDbBlockTableRecord
  2
_CLOSEDFILLED
340
0
 70
0
280
1
281
0
  0
BLOCK_RECORD
  5
84
330
9
100
AcDbSymbolTableRecord
100
AcDbBlockTableRecord
  2
_CLOSEDBLANK
340
0
 70
0
280
1
281
0
  0
ENDTAB
  0
ENDSEC
  0
SECTION
  2
BLOCKS
  0
BLOCK
  5
18
330
17
100
AcDbEntity
  8
0
100
AcDbBlockBegin
  2
*Model_Space
 70
0
 10
0.0
 20
0.0
 30
0.0
  3
*Model_Space
  1

  0
ENDBLK
  5
19
330
17
100
AcDbEntity
  8
0
100
AcDbBlockEnd
  0
BLOCK
  5
1C
330
1B
100
AcDbEntity
  8
0
100
AcDbBlockBegin
  2
*Paper_Space
 70
0
 10
0.0
 20
0.0
 30
0.0
  3
*Paper_Space
  1

  0
ENDBLK
  5
1D
330
1B
100
AcDbEntity
  8
0
100
AcDbBlockEnd
  0
BLOCK
  5
75
330
74
100
AcDbEntity
  8
0
100
AcDbBlockBegin
  2
_ARCHTICK
 70
0
 10
0.0
 20
0.0
 30
0.0
  3
_ARCHTICK
  1

  0
LWPOLYLINE
  5
77
330
74
100
AcDbEntity
  8
0
  6
BYBLOCK
 62
0
100
AcDbPolyline
 90
2
 70
0
 43
0.15
 10
-0.5
 20
-0.5
 10
0.5
 20
0.5
  0
ENDBLK
  5
76
330
74
100
AcDbEntity
  8
0
100
AcDbBlockEnd
  0
BLOCK
  5
79
330
78
100
AcDbEntity
  8
0
100
AcDbBlockBegin
  2
_CLOSEDFILLED
 70
0
 10
0.0
 20
0.0
 30
0.0
  3
_CLOSEDFILLED
  1

  0
SOLID
  5
7B
330
78
100
AcDbEntity
  8
0
  6
BYBLOCK
 62
0
100
AcDbTrace
 10
-1.0
 20
0.16439898372402537
 30
0.0
 11
0.0
 21
0.0
 31
0.0
 12
-1.0
 22
-0.16439898372402537
 32
0.0
 13
-1.0
 23
-0.16439898372402537
 33
0.0
  0
ENDBLK
  5
7A
330
78
100
AcDbEntity
  8
0
100
AcDbBlockEnd
  0
BLOCK
  5
85
330
84
100
AcDbEntity
  8
0
100
AcDbBlockBegin
  2
_CLOSEDBLANK
 70
0
 10
0.0
 20
0.0
 30
0.0
  3
_CLOSEDBLANK
  1

  0
LWPOLYLINE
  5
87
330
84
100
AcDbEntity
  8
0
  6
BYBLOCK
 62
0
100
AcDbPolyline
 90
3
 70
1
 10
-1.0
 20
0.16439898372402537
 10
0.0
 20
0.0
 10
-1.0
 20
-0.16439898372402537
  0
ENDBLK
  5
86
330
84
100
AcDbEntity
  8
0
100
AcDbBlockEnd
  0
ENDSEC
  0
SECTION
  2
ENTITIES
  0
LWPOLYLINE
  5
8D
330
17
100
AcDbEntity
  8
HOJA
100
AcDbPolyline
 90
4
 70
1
 10
0.0
 20
0.0
 10
600.0
 20
0.0
 10
600.0
 20
900.0
 10
0.0
 20
900.0
  0
LWPOLYLINE
  5
8E
330
17
100
AcDbEntity
  8
CORTE
100
AcDbPolyline
 90
499
 70
1
 10
76.69237035558263
 20
313.0519819225383
 10
77.76221614416727
 20
318.07651603295244
 10
77.3572585418865
 20
322.29926837299354
 10
77.63942672744406
 20
327.17215747331966
 10
77.81032225429499
 20
331.55072298621553
 10
76.65317575935705
 20
335.0881584138451
 10
74.47150707541005
 20
340.7813338133101
 10
74.20947540996576
 20
341.06230530041876
 10
73.9881798873364
 20
341.3631997938405
 10
71.00409096795443
 20
346.0906828638199
 10
69.42637655948147
 20
350.05559848615485
 10
68.63546877413069
 20
352.20272670826216
 10
67.01680019567584
 20
354.4399369221492
 10
65.3993066981161
 20
357.1428576089279
 10
63.17906991416794
 20
359.3055573257102
 10
62.52160701976186
 20
362.5982895384732
 10
60.05227171652882
 20
364.62768169279616
 10
58.67838886082018
 20
366.7324133619095
 10
56.76401773852717
 20
368.57260057583244
 10
56.91876197942997
 20
373.7296926528147
 10
57.22927170952039
 20
377.867770216616
 10
57.34910784578733
 20
383.5456855594339
 10
56.02037032384851
 20
387.076196067595
 10
54.066591154235084
 20
388.40925617196535
 10
53.12764809628834
 20
396.3745128086921
 10
53.11814872062973
 20
396.4284540722397
 10
53.07321049668667
 20
396.5081958234491
 10
50.03967506500112
 20
401.5889038591413
 10
48.657745666550454
 20
405.62232884559035
 10
47.89172815735992
 20
408.00232367347417
 10
46.09937018346227
 20
411.8602949780934
 10
45.232786383618986
 20
413.73044491098335
 10
44.859709793305456
 20
414.8833879537592
 10
43.132848624155486
 20
420.1917369020912
 10
40.348552117185136
 20
424.12336910451495
 10
39.74478658860744
 20
424.9539393012319
 10
39.12450746614627
 20
427.2812098737445
 10
37.815038379848374
 20
431.6671754503691
 10
37.33661427128277
 20
433.39875619953
 10
35.112814715270815
 20
437.32256058823486
 10
33.21336522957654
 20
442.66511457805245
 10
32.914342906800584
 20
443.67520145917797
 10
32.155224835031504
 20
445.9281267879055
 10
30.679162012292636
 20
449.95795320790467
 10
29.79089513765257
 20
451.9215939612436
 10
28.371487196364114
 20
456.161794061421
 10
26.928161100265015
 20
461.1865060047103
 10
26.363372893243877
 20
462.75570560005735
 10
25.18233438213133
 20
467.65386490064293
 10
24.68088163336006
 20
469.78053565615346
 10
24.428964525503716
 20
470.4452935711929
 10
22.55771150347823
 20
476.2281267588687
 10
22.107048872083624
 20
479.7215736033186
 10
21.5864092707659
 20
484.2005226346091
 10
20.230298450245073
 20
488.9725906966628
 10
19.756413108417064
 20
491.03250777196126
 10
18.97686425957545
 20
498.23934957449046
 10
18.798364720181098
 20
499.0165435059166
 10
18.211006917415716
 20
502.12595620428283
 10
17.345948209676635
 20
506.3512451158299
 10
17.193250273689728
 20
507.50516052351395
 10
16.745727465256323
 20
514.8200392994863
 10
16.457897863866947
 20
516.7645043718467
 10
15.945523497718568
 20
523.0214498265495
 10
15.852066938479311
 20
526.0307981119577
 10
15.595194241164108
 20
531.8209462515774
 10
15.732972500917867
 20
535.2926768913885
 10
15.285268651979777
 20
540.6646118021413
 10
15.082360750202952
 20
544.5504832251577
 10
14.777273437033273
 20
549.2473451904848
 10
14.12163861624731
 20
553.8052590555071
 10
13.697400658188599
 20
557.071677258682
 10
13.00497884567244
 20
563.072753956104
 10
13.075481115729872
 20
565.5169660147517
 10
13.075486968201403
 20
572.3365468906836
 10
13.075486968201403
 20
574.7780587404268
 10
13.369611378058835
 20
581.6038872361805
 10
13.851017347300967
 20
585.0748582500137
 10
14.297117952273993
 20
590.8645977456672
 10
14.793994075017736
 20
595.5876586617769
 10
15.217898919823938
 20
600.1202130196016
 10
14.999304515876702
 20
605.1172648979136
 10
15.524009175937408
 20
609.3876187948936
 10
16.264662212436406
 20
616.0637565147426
 10
16.582495326120352
 20
618.6495170824287
 10
17.846419772624813
 20
627.4273467600256
 10
17.917376383696137
 20
627.9169297648282
 10
18.214559506701107
 20
628.8586122499337
 10
22.111751152839815
 20
637.2000107172521
 10
25.194686803671175
 20
641.1857455648164
 10
28.826623673234508
 20
646.464108205515
 10
32.16295656852344
 20
651.2067719199927
 10
34.837776938114075
 20
655.7244585881012
 10
39.14044437661414
 20
661.1421511455114
 10
42.93188122160086
 20
664.9958564371427
 10
46.116065342562706
 20
668.0294344963213
 10
52.855435456313444
 20
674.2583916288522
 10
53.09144301056767
 20
674.4703659186248
 10
53.42392202078827
 20
674.701387965189
 10
60.07254173277465
 20
679.4486168511944
 10
65.6648015486578
 20
681.6859525635286
 10
67.08611099615837
 20
682.0219883061891
 10
71.53662255474933
 20
680.1380225542484
 10
74.08332905187399
 20
678.1163822529343
 10
76.53233075575986
 20
677.5685649710372
 10
81.01574315655898
 20
677.8856838550778
 10
83.87429304434659
 20
678.0752440607303
 10
87.99074362308488
 20
678.3568669852771
 10
90.95850295893501
 20
678.2193368745625
 10
94.96794766780204
 20
678.385007473762
 10
97.67519567627664
 20
677.8592182915236
 10
101.95130653282513
 20
676.8305007092563
 10
103.56333316129303
 20
676.4049367214616
 10
108.00098881908889
 20
674.267971055458
 10
108.6215688280472
 20
673.8384820861143
 10
108.95037922425263
 20
673.6501967376971
 10
112.59155779996149
 20
669.837535776494
 10
115.91868173211583
 20
667.8009169966735
 10
117.201957429083
 20
666.696383957375
 10
119.08088439742141
 20
664.9946990259727
 10
121.10862161882415
 20
662.609754790762
 10
122.90506022288923
 20
660.602312968269
 10
124.58462532342969
 20
657.9584566427511
 10
126.57441713212779
 20
655.7275094234246
 10
128.1121951390055
 20
653.3645780175038
 10
129.88639716970738
 20
648.9439227859866
 10
130.44253346031905
 20
647.1903074182023
 10
130.82227213986698
 20
646.4557145468689
 10
133.276941565063
 20
641.707254855648
 10
135.85996629226338
 20
637.1979936999928
 10
136.28721679764976
 20
636.4521335537434
 10
136.8499281526215
 20
635.6059178549253
 10
139.3971099077803
 20
631.3288205625518
 10
142.07422208195408
 20
627.9434896234134
 10
142.8663684590208
 20
626.6823825155598
 10
143.81840454586086
 20
625.6269526500369
 10
146.0566039051173
 20
621.655546816668
 10
148.59381315604924
 20
618.684351087415
 10
149.6040159943991
 20
617.1031060531072
 10
150.78752620909177
 20
615.2590221463684
 10
153.1863073914094
 20
612.6308496472147
 10
157.08249130507147
 20
609.4368349962056
 10
157.4909254373199
 20
609.0998011914639
 10
157.74566775544508
 20
608.9048613286477
 10
161.74936880818677
 20
605.4993678789028
 10
164.71454598380183
 20
603.4987390197716
 10
166.23661932927803
 20
602.2130611714902
 10
171.14120600914725
 20
600.1884448183946
 10
171.55575524630854
 20
600.0428152385248
 10
171.6589478907531
 20
600.0037268542474
 10
177.80236017989137
 20
599.0907043565926
 10
178.64020877712028
 20
598.7453283007908
 10
183.03842589515466
 20
596.7820231471233
 10
185.60313451306888
 20
596.2892453102304
 10
188.67922434979323
 20
595.0002259052117
 10
192.58001927664372
 20
593.0718065052024
 10
193.87839131806368
 20
592.6653715863717
 10
199.5380236192848
 20
591.2775690427675
 10
199.76477131034017
 20
591.2385657176178
 10
202.09048883703463
 20
590.9320784632109
 10
206.070879769027
 20
590.3488999020492
 10
206.51110027284972
 20
590.2229613898535
 10
212.1016679480124
 20
589.1082925676983
 10
213.47713699583028
 20
588.9954644759368
 10
218.05340758538614
 20
587.7502369181498
 10
220.44516733540786
 20
587.5247879013018
 10
224.3190643210396
 20
586.8082572988178
 10
227.42854074141883
 20
585.9527723720134
 10
229.9455542261212
 20
585.0183862846525
 10
234.38632824844763
 20
584.2578486831517
 10
236.19710050637286
 20
584.074186062117
 10
241.36803267445566
 20
582.894935456221
 10
242.09639830687888
 20
582.6326060056563
 10
245.26019655907476
 20
581.6690765667818
 10
247.78814231465662
 20
580.9377510934341
 10
248.33599591566167
 20
580.7748023789045
 10
253.77764174308845
 20
579.6381435609187
 10
255.3140093656234
 20
579.165446097335
 10
259.18685006663395
 20
577.5261253657795
 10
262.30811264976364
 20
574.74995959241
 10
263.3679528285493
 20
573.8550527706088
 10
269.22866006701815
 20
574.4026176789412
 10
270.6706278120364
 20
574.3084980420881
 10
276.20716835391545
 20
572.7835984249459
 10
276.49886617064794
 20
572.8102349602759
 10
283.1755219883455
 20
572.4703504729227
 10
283.2164300671618
 20
572.4675960759109
 10
286.7613880227077
 20
572.4115380755838
 10
290.1167508008232
 20
572.3620155910362
 10
290.160091165096
 20
572.3483069121698
 10
296.22339796039
 20
571.2085434327037
 10
297.1265536575852
 20
571.0024252034605
 10
302.4193256710332
 20
570.1873284826015
 10
304.09558448153007
 20
569.9999868450868
 10
308.51088966215457
 20
569.0130844880146
 10
311.06770587010647
 20
568.6017657975967
 10
314.60693733287144
 20
567.8426108031349
 10
318.0491983236823
 20
566.7105455365081
 10
320.15573731036375
 20
565.9394753530205
 10
325.02569923725173
 20
563.7828771148493
 10
325.3921003425937
 20
563.6199137677463
 10
326.0925778118087
 20
563.1368141578109
 10
329.86605207621324
 20
560.2878773415932
 10
332.014643593674
 20
558.7614598420669
 10
334.10769275046323
 20
556.6549661047757
 10
338.2329339120449
 20
553.8728738904865
 10
338.6485606256542
 20
553.4290107643565
 10
338.9808528095173
 20
553.2343279140282
 10
342.8838892283752
 20
549.7942326269958
 10
345.9553697093738
 20
547.5059240462547
 10
347.24113802588136
 20
546.315506779732
 10
349.1695860554662
 20
544.6075405455799
 10
351.16664521340886
 20
542.2673057182819
 10
352.9267440339279
 20
540.9324658603173
 10
355.37699862734075
 20
538.600044215214
 10
358.8283593201222
 20
535.3455050104208
 10
359.3917909210775
 20
534.6542579409752
 10
359.91043270111095
 20
533.9467039416577
 10
362.66453202832463
 20
529.7369807779291
 10
365.5212146346121
 20
526.0723379703013
 10
366.0238451066882
 20
524.9263836339187
 10
366.87860080130395
 20
523.7075768174986
 10
369.64905547408307
 20
520.5178063745943
 10
373.8364304572117
 20
517.2306814202689
 10
374.0249285055095
 20
517.0827083310487
 10
374.3509423518533
 20
516.8287295808823
 10
377.9517825984051
 20
513.020052342672
 10
380.81550299248215
 20
509.96465099691204
 10
381.80697768240793
 20
508.9119069145304
 10
385.77123653802323
 20
507.5811291868781
 10
387.160187757265
 20
506.78550533253247
 10
387.7554894609077
 20
506.6309668961103
 10
392.51159770082427
 20
504.64584263832467
 10
394.7263963711828
 20
504.23529659324413
 10
397.9604295353686
 20
502.60809162265923
 10
401.7051892481543
 20
501.13118275332545
 10
403.1905417552691
 20
500.2987105834318
 10
408.6609351324007
 20
498.70109205313884
 10
408.927855688966
 20
498.6526068897665
 10
409.3030307995243
 20
498.30230419580266
 10
412.51556006754095
 20
494.0825553730374
 10
414.3171371818232
 20
489.02037647289535
 10
414.85708086227646
 20
487.91431597079463
 10
415.68527549627265
 20
483.79155738550253
 10
417.0470262059737
 20
481.5465714603811
 10
416.79219074668777
 20
479.7088424220392
 10
415.6822486790172
 20
477.39022385789076
 10
412.5045867301235
 20
470.4609670578716
 10
413.16872504364096
 20
467.12776225527887
 10
413.0255497942128
 20
461.2124798833911
 10
413.34141125107794
 20
458.1051589420358
 10
414.9765776962629
 20
451.9424316270888
 10
413.88237848139056
 20
449.5257663130337
 10
410.3928634976962
 20
442.65770711377263
 10
408.71233627729566
 20
438.3278544505256
 10
406.2510023376128
 20
433.39335730451603
 10
401.73973937145115
 20
424.91434834140637
 10
401.3531304581368
 20
424.12643394598854
 10
394.7604698370917
 20
416.00015113821837
 10
393.8337234085959
 20
414.8578267880562
 10
387.78731382086403
 20
408.1224240781344
 10
385.517376532918
 20
405.5937868733117
 10
380.8104883116914
 20
401.07949200543635
 10
374.94253129844014
 20
396.3271634207331
 10
373.8392903783508
 20
395.4312669095093
 10
371.6104436539538
 20
393.3672732191294
 10
366.8706641326835
 20
389.21362445990644
 10
364.7170407539363
 20
387.06777988748036
 10
359.89559077642866
 20
383.49966690981364
 10
353.2919285909916
 20
377.80800136393464
 10
352.92946232411555
 20
377.4786505112179
 10
351.9871831229159
 20
376.5575050467032
 10
345.9559039909798
 20
370.77179543161947
 10
342.9638271605893
 20
368.54265704371164
 10
338.9794326165029
 20
365.79257719933594
 10
334.6100410679537
 20
362.73677977365196
 10
332.0074264864454
 20
360.8411833951859
 10
329.4079276675102
 20
359.28106941018405
 10
325.04577166852823
 20
355.8895742358236
 10
319.4797333911181
 20
350.0286424840019
 10
318.073046603836
 20
348.7692366566116
 10
315.6919243972252
 20
346.866630978006
 10
311.0998211007304
 20
344.79235613981655
 10
307.6242350373809
 20
340.7659806158881
 10
304.1327286118267
 20
338.27534925741065
 10
297.7495999573696
 20
331.5081423422257
 10
297.1642568186494
 20
330.95803442684837
 10
295.6383004982911
 20
329.4796632705111
 10
290.1953257106495
 20
324.26814242721093
 10
288.3318447533877
 20
322.2497205404047
 10
283.22716875431456
 20
316.7576686243906
 10
280.0283399265229
 20
312.9928477955086
 10
276.2578243855828
 20
308.10710230772384
 10
272.23996775098067
 20
303.7291382134372
 10
269.28734695661933
 20
300.4306002727935
 10
264.6639791120831
 20
294.4745576317291
 10
262.3217224979494
 20
291.079990707316
 10
258.6707162829057
 20
285.2237027686747
 10
255.35652970776027
 20
277.36146170641223
 10
254.66431999505562
 20
275.9627511820927
 10
252.6368677504886
 20
272.3515260391018
 10
249.26538234889563
 20
266.7018743546787
 10
248.38497662247096
 20
264.8405284532296
 10
244.64210383802174
 20
257.44425163696724
 10
241.41645377466511
 20
250.27328771600742
 10
240.66710277561288
 20
248.19794254509043
 10
240.50046473848624
 20
246.98035648744053
 10
238.786981696333
 20
238.93804686599697
 10
237.37451757478493
 20
233.56366033384074
 10
236.529549427152
 20
229.67793704350333
 10
234.44875732615128
 20
221.19662362230747
 10
234.23254128409644
 20
220.41977719863644
 10
234.1942222002374
 20
220.0878333896012
 10
234.00016475738948
 20
211.1713547128038
 10
233.9761049675235
 20
210.53972607787136
 10
233.66249001571555
 20
201.9152832785594
 10
233.75154825377422
 20
200.99111376370638
 10
234.45089170467986
 20
193.57620333930754
 10
234.52421724681312
 20
192.7575467363181
 10
234.53709671075399
 20
192.64392688993576
 10
234.44827245363786
 20
192.38935261396455
 10
232.30117688793575
 20
183.39770636351568
 10
233.04054907137242
 20
181.55485322869254
 10
234.43390014628812
 20
178.41380618938138
 10
236.70177379628512
 20
177.2700987508092
 10
241.37529797437014
 20
177.1265877047067
 10
242.74668088266935
 20
175.97068010577823
 10
244.1402750354889
 20
174.16625006115555
 10
245.372120570584
 20
170.13788658360363
 10
246.21547099847908
 20
164.8898344770637
 10
246.9230707552756
 20
162.9797054731166
 10
248.3682180947617
 20
161.82036617855647
 10
250.99082889353417
 20
159.1104603558947
 10
251.93850978371233
 20
155.64184730953002
 10
253.5551091702257
 20
153.2506256783522
 10
255.35903009107187
 20
147.7739261092779
 10
255.71789940805752
 20
146.82346108438742
 10
255.626831567748
 20
146.36109296835002
 10
258.3837957667529
 20
141.15522464425112
 10
261.1912663212918
 20
137.12670315052674
 10
261.62171816190244
 20
136.2190326388918
 10
262.31020545203546
 20
135.8241634841961
 10
265.25705340034233
 20
131.77406368909124
 10
268.02717054048026
 20
127.86558837081384
 10
268.4978975582951
 20
126.80612820273791
 10
269.2909938271482
 20
125.67746841399685
 10
271.8707319287064
 20
122.03630469069867
 10
274.12335403562884
 20
118.60619565449724
 10
275.01524428751895
 20
116.9505836433791
 10
276.2579086273588
 20
115.35170954135265
 10
278.72024885246265
 20
112.6256912839367
 10
281.18814583549124
 20
109.34710069879293
 10
282.02048205346273
 20
107.71736991179023
 10
283.2409624293491
 20
104.4192977931666
 10
284.4012740299029
 20
101.6019823654924
 10
284.5667508565841
 20
100.05938051145677
 10
285.93227197797523
 20
94.37307250310687
 10
286.6507973032885
 20
90.79411788873495
 10
286.73222195813423
 20
86.15698472686972
 10
286.6799499986189
 20
81.51613925771517
 10
285.03422760327203
 20
74.627120929797
 10
284.6115616756924
 20
72.2496713071996
 10
283.24352065126277
 20
66.43184935071667
 10
282.1771107358534
 20
62.97166317307074
 10
276.26090293332345
 20
54.110074920699844
 10
275.92609415134507
 20
53.6950076730559
 10
269.28822383948045
 20
46.30709237591964
 10
267.94481066047
 20
44.43907689508842
 10
262.3184131659791
 20
36.70158820680854
 10
261.0716623302653
 20
35.17451147394013
 10
255.34151623445086
 20
28.408712415381615
 10
252.38018171293834
 20
25.899848979348008
 10
248.35351187784772
 20
23.665037934909833
 10
245.53975338747023
 20
22.157878267798424
 10
241.37972934207028
 20
19.840515181456794
 10
234.72965052846507
 20
17.060694086494095
 10
234.40613210564925
 20
16.89401538987795
 10
233.6689845014123
 20
16.63058376412664
 10
227.4229453138014
 20
14.440723323186376
 10
225.5926714888003
 20
14.201887372812507
 10
220.43395505724902
 20
13.077820128523399
 10
218.15444044242645
 20
13.62767122469495
 10
213.43501935452628
 20
15.251006490378586
 10
212.6674003486421
 20
15.634843449804976
 10
211.4689291894706
 20
16.642931539216534
 10
208.2987645546741
 20
19.101473980755145
 10
206.4484267870323
 20
20.53894878288793
 10
203.83017376015482
 20
22.432786418642536
 10
200.51421682333716
 20
25.910665858364155
 10
199.93914456169955
 20
26.537517532924994
 10
199.46759501328233
 20
27.04626893159366
 10
196.1052078609373
 20
30.711582362533136
 10
192.81642993855007
 20
35.177508330969886
 10
192.6577097401796
 20
35.38593642343949
 10
192.49849063108672
 20
35.53173726062232
 10
188.8741761302433
 20
39.62557527265881
 10
185.5267344224028
 20
43.90107225496331
 10
185.27959600800295
 20
44.11540619399284
 10
185.111766797962
 20
44.44934732040474
 10
182.48365419195466
 20
49.68459672598101
 10
180.53683585211388
 20
53.711139096030365
 10
179.76213473086682
 20
55.330147277575634
 10
178.54332854613517
 20
57.78739729096014
 10
177.00832663679034
 20
60.93306259731253
 10
176.04942534056886
 20
62.97722499284373
 10
174.7578264902004
 20
67.22084672053461
 10
173.33910206354517
 20
72.2410188554245
 10
172.74089803234529
 20
73.78337398794065
 10
171.57703923678287
 20
75.65802464575108
 10
169.49204280226536
 20
78.72358863058116
 10
168.30899177032484
 20
81.4932334136056
 10
166.79186628759862
 20
84.39458098245905
 10
164.60766781423536
 20
87.89647721613665
 10
163.51600088487066
 20
89.29872362848846
 10
162.7997780697774
 20
90.74927845942193
 10
160.44016676124147
 20
94.4838175634377
 10
158.29569678968573
 20
100.0349494629445
 10
158.35976727374577
 20
101.02203884068331
 10
157.62430266556999
 20
105.98879077575839
 10
157.23760513355091
 20
108.77863281864757
 10
157.11415690238186
 20
109.27876617082984
 10
154.31179796073434
 20
114.09236586983207
 10
150.69115137082508
 20
116.69929902878903
 10
149.66824675358703
 20
117.12064866599985
 10
144.44921612894473
 20
118.49678791731048
 10
143.9282283051068
 20
118.7295776257979
 10
143.7648210868324
 20
118.69977814881713
 10
136.82570860261785
 20
118.53105509267107
 10
136.8041967291515
 20
118.52538598289448
 10
136.66649041746564
 20
118.49456396994083
 10
129.82924843236424
 20
116.96526424464264
 10
128.54422658840622
 20
116.78214553917815
 10
122.86666597265435
 20
114.87186240606661
 10
119.44642585564497
 20
113.96362850060405
 10
115.88204966727858
 20
113.8681298353331
 10
111.82306394852594
 20
113.13689255138479
 10
108.8527455823903
 20
115.93767549686709
 10
107.70981184437778
 20
116.97360391813982
 10
104.34296270519872
 20
118.49888996337904
 10
102.4782903870555
 20
119.26547314334539
 10
101.90322584192518
 20
119.55646812675968
 10
97.05532658411084
 20
121.30004074825183
 10
94.94014503812195
 20
121.62637211481297
 10
91.52952607802354
 20
123.22996615824695
 10
87.96804402473208
 20
124.08572867851808
 10
85.87044302414142
 20
124.97280381502378
 10
80.9963103752375
 20
126.36961833959595
 10
80.19752421541807
 20
126.69528882198438
 10
76.28027657811276
 20
127.75814701732406
 10
74.64082552014634
 20
128.63228686055936
 10
73.9828652205781
 20
129.91552291598236
 10
71.90837077794254
 20
134.31982146683504
 10
71.59068367927944
 20
137.096626028248
 10
73.9797625592023
 20
144.41036887265
 10
74.79134411716291
 20
146.37923989898036
 10
76.00865427583199
 20
149.0722121917197
 10
78.51156321005169
 20
155.62629100086542
 10
78.93854043407032
 20
162.18717671499417
 10
77.3414571654007
 20
164.83719089182932
 10
76.17495355101028
 20
167.7581607695506
 10
73.97784428719592
 20
173.25973924917662
 10
73.8518393126808
 20
173.92324221042145
 10
73.6896594658599
 20
174.08564318197796
 10
70.85531231078653
 20
179.18354009844325
 10
67.01925818767495
 20
183.20698286192373
 10
66.9599452673474
 20
183.3074391736791
 10
66.95271888556135
 20
183.39876856981846
 10
67.01093268146565
 20
183.61830434091598
 10
70.60955831668252
 20
188.2063169725434
 10
73.99298216737952
 20
192.54067228465055
 10
74.12433981817662
 20
192.68277245551008
 10
74.12986313679085
 20
192.86869766541895
 10
76.5957605402607
 20
201.93047881185794
 10
77.58479584785869
 20
206.72489177824036
 10
79.1183260414457
 20
211.20104371232446
 10
80.9508605043477
 20
215.32173929565124
 10
82.65684197359974
 20
220.45054293143266
 10
82.96683513196353
 20
223.12739525238067
 10
83.80177233949507
 20
229.69814191414252
 10
83.66230542350581
 20
233.29955816940446
 10
83.28713163021371
 20
238.95151004947957
 10
83.17569845016828
 20
241.9172701451148
 10
83.32835640489748
 20
248.21410280989267
 10
83.11568869392772
 20
251.0923107620938
 10
82.57040826459138
 20
257.47290365864365
 10
82.54305839047993
 20
259.5970247776595
 10
82.36483878156673
 20
266.7340442226905
 10
82.2610728841014
 20
268.47924617363105
 10
81.7066562043126
 20
275.989872490215
 10
81.58867167227845
 20
276.84506818219097
 10
81.30103837993465
 20
285.2513116848045
 10
81.24258753820709
 20
285.63094458697697
 10
80.95042252584267
 20
286.4225272297649
 10
78.98070440681204
 20
291.8717565016009
 10
77.73895088021732
 20
294.4953362164815
 10
76.96678100682675
 20
298.4780168731063
 10
76.04264422982169
 20
303.77197181929887
 10
75.96838585053388
 20
306.4306839350861
 10
76.69237035558263
 20
313.0519819225383
  0
LWPOLYLINE
  5
8F
330
17
100
AcDbEntity
  8
CORTE
100
AcDbPolyline
 90
458
 70
1
 10
38.84115687384178
 20
462.7928466825433
 10
40.709202629694346
 20
456.27340527565593
 10
41.354916112910814
 20
454.00292250250277
 10
42.72131829701607
 20
449.94768761312025
 10
44.23555379872823
 20
444.8326533875261
 10
44.467548116641865
 20
444.1801263379152
 10
45.28870362893986
 20
442.7312306430431
 10
47.186613307953166
 20
439.0515158175999
 10
48.798438517708746
 20
435.94296936489627
 10
49.672237568169976
 20
432.6644988460753
 10
52.15441379703452
 20
429.2498925111454
 10
52.81594507093769
 20
427.8437260519081
 10
53.36943143268718
 20
426.788521626057
 10
55.113933402040175
 20
420.93287381782784
 10
56.70143341503535
 20
418.03018473163047
 10
57.97795397694222
 20
415.2825306528616
 10
59.74436851635551
 20
409.79433042602295
 10
60.00745739430795
 20
408.9374641876152
 10
63.18047331090952
 20
403.3070270318526
 10
64.222125102865
 20
397.3921105306613
 10
64.24713631037343
 20
397.1799350585561
 10
64.46028739697704
 20
397.034502445611
 10
68.40494954424003
 20
393.3208500379974
 10
69.59036087182108
 20
387.81924555568594
 10
69.52567903499153
 20
382.6829850253207
 10
71.126585401169
 20
379.3482081315442
 10
71.00560175469082
 20
375.0215425567935
 10
71.86094806149435
 20
372.79216808093634
 10
72.99318736295572
 20
371.8616514547848
 10
73.84757612074759
 20
367.58266718215054
 10
75.20234558771836
 20
361.816972703004
 10
75.20549149189469
 20
361.6406899116705
 10
77.29750397615612
 20
358.7492569403603
 10
79.57741859932526
 20
352.559826109014
 10
79.63284570329097
 20
352.4205336051018
 10
79.77472903092416
 20
352.1957577866124
 10
82.16838133529313
 20
348.94111987531187
 10
86.25528143587371
 20
344.55881593895856
 10
87.05233975068131
 20
342.4788517247789
 10
87.73694078786525
 20
340.3860035216171
 10
88.67625279223466
 20
335.5434380570714
 10
90.01549058354544
 20
333.33224680213516
 10
89.58679723434716
 20
324.861227360479
 10
90.15209395153852
 20
321.5948876473508
 10
87.67960125089417
 20
315.18521290847593
 10
86.98858017330917
 20
311.93983024455656
 10
86.92889955809369
 20
311.3940131246286
 10
87.12214207702073
 20
304.47524878742706
 10
87.17650959269258
 20
304.16380227251193
 10
87.78153454809512
 20
301.0432179688587
 10
88.93213662526728
 20
296.51363987757895
 10
88.896773315073
 20
295.6226126768606
 10
90.65747980135461
 20
290.85221021728694
 10
91.4190462697652
 20
285.90590525306425
 10
91.57219341577843
 20
281.4300944363522
 10
92.22109568165729
 20
276.72660989711267
 10
92.47851539109183
 20
273.23937130100103
 10
92.84775630170338
 20
267.02923894241303
 10
92.91803998041792
 20
264.2146441584141
 10
93.00042237588264
 20
257.81643605962927
 10
93.1774421933494
 20
255.74504062874666
 10
93.72107566144155
 20
248.38759946473283
 10
93.67804135104416
 20
246.61252097704528
 10
93.9522396576615
 20
239.3148166871324
 10
94.02942534575004
 20
238.15202279611958
 10
94.36872835139593
 20
229.39029352631587
 10
94.1866347698608
 20
227.95726265619896
 10
93.14090179544633
 20
218.92715130009174
 10
91.77030259117146
 20
214.806629296319
 10
90.92327447786033
 20
210.02679469068244
 10
89.8865828874068
 20
203.4923122574305
 10
89.51249312724735
 20
201.28033305616918
 10
89.41121161557385
 20
194.49140187112425
 10
89.38954540518353
 20
193.1813664143706
 10
90.1407589182379
 20
188.77275553609388
 10
92.68171692484793
 20
183.46809929707024
 10
88.34600776344723
 20
173.93327303380192
 10
90.68662769356706
 20
168.07230240839
 10
89.12591357775727
 20
163.55598349816046
 10
88.82762878824497
 20
156.97619208210745
 10
89.10491943550892
 20
154.41528468624074
 10
87.30687730364912
 20
150.61125409908618
 10
84.1388971287131
 20
143.60294748610295
 10
81.57547060737852
 20
137.38415634123749
 10
81.98416220988634
 20
136.58707511881312
 10
85.38074467530214
 20
134.7760493797855
 10
85.60302261049515
 20
134.52474823150123
 10
85.88125210123144
 20
134.42588578735922
 10
89.55276560879429
 20
133.37371430087296
 10
90.16379586103585
 20
133.11530970235162
 10
95.36360121902203
 20
131.86588643656387
 10
97.00510092281183
 20
131.09409129377855
 10
100.61272273916597
 20
130.53750542548823
 10
104.67853025650038
 20
129.0752162370204
 10
107.07163815548711
 20
127.86425235605657
 10
111.78865674215467
 20
125.92504455373
 10
113.21946680618862
 20
125.20064655278293
 10
114.97622403531727
 20
123.8196068331822
 10
115.93877738976244
 20
122.91199266966942
 10
120.0078907741356
 20
123.02101452272427
 10
120.85012074661563
 20
123.24466601824315
 10
126.33516763356192
 20
125.09017560617986
 10
127.62221259562011
 20
125.57714021067432
 10
128.51216159386172
 20
125.83534239853952
 10
135.1472280000919
 20
127.32043120976596
 10
137.70644862285621
 20
127.99487282342034
 10
143.0474691921877
 20
128.12473861179706
 10
146.9340354066128
 20
128.83350559078144
 10
153.76702013483646
 20
125.78036605430907
 10
156.45837835637167
 20
124.35203343159992
 10
157.03936990724287
 20
123.19248395974546
 10
160.80174471496161
 20
120.48350383724437
 10
163.37186287033
 20
116.0688231212157
 10
165.0266560989287
 20
114.12586357344844
 10
166.00028639484276
 20
110.79200457842035
 10
167.07361335739438
 20
103.54359492150343
 10
166.91627927645345
 20
101.11965818477029
 10
167.73709204285115
 20
98.99491874261912
 10
170.74586104823857
 20
94.24067508736425
 10
170.77930363398195
 20
94.17375393084922
 10
173.87641448636145
 20
89.2081974754733
 10
176.34123629518785
 20
84.49447745421048
 10
176.74845424065347
 20
83.54113814105949
 10
177.44718787247552
 20
82.51379218437523
 10
180.06579856356007
 20
78.29594353013181
 10
181.55223875623142
 20
74.46344067028713
 10
182.6142327878665
 20
70.70556299871942
 10
184.19994175915213
 20
65.4956256854266
 10
184.30856714581296
 20
65.26406073553335
 10
184.8243651944881
 20
64.20704053450027
 10
187.05058927612617
 20
59.718723012870214
 10
188.47334638047823
 20
56.745375835329014
 10
189.7544615364577
 20
54.095686159153956
 10
191.78491085818314
 20
50.05099316722408
 10
192.4560658427731
 20
48.682020542655664
 10
192.65261311568383
 20
48.33061440744723
 10
195.0905810065026
 20
45.21673662557669
 10
197.49648010601823
 20
42.49915756768041
 10
198.76185699473172
 20
41.34042096390431
 10
200.259570963613
 20
39.373653855472185
 10
202.44833828957803
 20
36.40146385949947
 10
204.61373236599775
 20
34.04098375058584
 10
206.01961491450857
 20
32.524187232979784
 10
207.70013664139378
 20
30.692351603081534
 10
209.36783397718523
 20
28.943218430865727
 10
210.64815545469696
 20
28.017134902999715
 10
213.48229054627313
 20
25.815375914929973
 10
216.87402373000236
 20
23.185001488615853
 10
220.6286217649722
 20
21.893535589491876
 10
225.76388334256058
 20
23.01249209869593
 10
226.38253964025535
 20
23.22939290769955
 10
231.61307542360373
 20
25.09860951647852
 10
233.94743818851816
 20
26.301287681442773
 10
238.31697097185338
 20
28.127810305715684
 10
244.72971146900727
 20
31.700060837976253
 10
250.3744283450169
 20
36.48230467909116
 10
253.05754686730734
 20
39.65036365500009
 10
256.7721685519923
 20
44.200200064647106
 10
259.9286305386149
 20
48.54100409429384
 10
263.82717357032675
 20
53.96192659952703
 10
267.6662905178382
 20
58.23484388947827
 10
270.6143607901806
 20
61.889608876734655
 10
273.36467613780565
 20
66.00916704445262
 10
275.6291664371008
 20
73.35677130038994
 10
276.179288708438
 20
74.51922032996436
 10
276.421384081322
 20
75.61835194671812
 10
278.03656053611985
 20
82.37950451496636
 10
278.0537541804108
 20
83.906002602012
 10
277.9460879613225
 20
90.03759254725446
 10
277.73968332834306
 20
91.06568826998682
 10
276.41356474838835
 20
96.58791607231979
 10
276.30169889226204
 20
97.1231469453819
 10
274.14040772632325
 20
102.96354739379922
 10
272.7824396792662
 20
105.62247570458294
 10
272.0919034793312
 20
106.53985009232156
 10
270.88977897378663
 20
107.87070328490336
 10
267.98980319139037
 20
111.60195719340027
 10
266.1494362090241
 20
115.01822245071571
 10
265.0430727985058
 20
116.7029023267055
 10
263.5714113768295
 20
118.7800744932706
 10
261.3380324786508
 20
121.95840864309912
 10
260.259221849474
 20
124.38647596716237
 10
258.71932497879357
 20
126.5591815269886
 10
257.53001413957963
 20
128.1937509620975
 10
255.0261561169998
 20
129.62979243305017
 10
253.14254580661782
 20
133.6016596034142
 10
251.37259160141048
 20
136.1414185857684
 10
249.97215405712132
 20
138.7858103607232
 10
248.8824655801211
 20
139.52753157450115
 10
246.37042273445218
 20
143.2865553456063
 10
245.05683772860175
 20
147.27459625823622
 10
243.3684797849712
 20
149.77196083084573
 10
237.7066065969193
 20
154.31408043925967
 10
234.8349492435625
 20
162.06597117601586
 10
234.68007929315309
 20
162.34864824164833
 10
234.0564073257699
 20
164.92460136200452
 10
230.9925901958402
 20
164.9956847102967
 10
228.05904776216585
 20
168.65167746465295
 10
226.58236967510788
 20
170.54089331092973
 10
224.27151101741492
 20
175.75028803971372
 10
221.41992747709105
 20
182.85773647261112
 10
222.31505867799365
 20
186.60638335858494
 10
222.22261555518708
 20
192.2702718614969
 10
222.05516972002397
 20
194.04564541660466
 10
221.31699070858463
 20
201.7058299626392
 10
221.3769696692591
 20
203.35525742939353
 10
221.68267403197706
 20
211.38074852440286
 10
221.72417809199783
 20
213.28776152398177
 10
222.70310694805858
 20
221.7678539616909
 10
224.0713293863455
 20
226.68376444579735
 10
225.3568618678014
 20
231.67587812000374
 10
227.74098354728062
 20
238.68702726982656
 10
228.23267967296601
 20
240.5579172949124
 10
228.38043939879185
 20
241.25143420487666
 10
229.5613024374993
 20
249.87973058134912
 10
231.48689200323588
 20
255.21269605610814
 10
232.69133795958624
 20
260.00122146488866
 10
235.21537478348978
 20
264.68876269430893
 10
237.83627706065795
 20
269.8091859745796
 10
242.16809873024135
 20
278.86760263509314
 10
242.37201483555623
 20
279.2308106803366
 10
242.6866146238326
 20
279.8665053646714
 10
247.5568379637516
 20
288.9931663177672
 10
249.60123648323588
 20
291.7091483384256
 10
253.87317362976864
 20
298.35697326533136
 10
256.66464855053505
 20
302.4062843658144
 10
260.97300193836736
 20
307.9796602074957
 10
263.87995251290863
 20
311.8415244257135
 10
268.957781390872
 20
317.4807652434424
 10
270.8425573078962
 20
319.91916593022916
 10
276.7994336547356
 20
326.7763977726777
 10
278.0099580162853
 20
328.24281079395905
 10
282.5301948097733
 20
332.8914065892591
 10
285.19843811987107
 20
335.781503574387
 10
285.75671627065503
 20
336.3160418246425
 10
291.9868037729261
 20
343.6526996086932
 10
293.2455727077511
 20
344.9451080093927
 10
297.11060782049935
 20
352.2171238399196
 10
298.45853781964684
 20
354.5975722813141
 10
300.70011619357615
 20
356.4608999686443
 10
301.97311806162065
 20
356.86371234556236
 10
308.0006047525401
 20
359.1898657823999
 10
312.20837813488697
 20
361.71916428965824
 10
314.2547921154476
 20
362.30273444756585
 10
316.23900750424696
 20
364.45281914509087
 10
320.83186985887505
 20
368.0426786335711
 10
326.4075760915284
 20
372.07688521193313
 10
328.1381081168213
 20
373.11548049594967
 10
329.5341177006974
 20
374.1322544471532
 10
334.68316902569495
 20
378.15610763938275
 10
340.9422190141686
 20
383.00821396194897
 10
341.1443680985906
 20
383.22236771871985
 10
341.93071414452106
 20
383.88410369307076
 10
348.29498094773
 20
389.95918015222696
 10
350.86171918696664
 20
392.04723185046623
 10
354.795615255184
 20
396.8834230497637
 10
359.91773173151273
 20
401.58076905278267
 10
362.55234499790936
 20
403.8135792242365
 10
365.81553521275737
 20
406.1605247436073
 10
369.45799365834
 20
409.17115779460437
 10
371.8736531377276
 20
411.04925530119
 10
375.9445083723815
 20
414.4150379346793
 10
380.4314379357263
 20
419.4395076738174
 10
382.3843279720402
 20
421.7669833582863
 10
387.68546207231225
 20
428.3339427304345
 10
388.82826436888286
 20
429.9646134608761
 10
392.61726284749307
 20
436.75073070444705
 10
395.6094860960727
 20
442.3374738407151
 10
397.43637441670376
 20
445.5516380260792
 10
398.92562439954895
 20
449.87414817854824
 10
399.6392497793597
 20
452.5016430002711
 10
399.1104191624188
 20
457.36948082226945
 10
399.1104191624188
 20
460.7189710210873
 10
398.4730344485222
 20
465.19473827160573
 10
397.72154929869544
 20
471.65558064173456
 10
401.34125728021104
 20
479.22163422654694
 10
399.70039172955626
 20
480.9795850199357
 10
398.07553128360655
 20
484.57726707910206
 10
394.39963496054065
 20
485.6986353600614
 10
391.43393990850086
 20
487.2779232254629
 10
389.74728087489734
 20
488.18557295223127
 10
386.932990964963
 20
488.72516809101944
 10
384.7476187429704
 20
488.81494485433086
 10
377.28809338077303
 20
490.84473121778683
 10
375.36893251122433
 20
492.63665221129895
 10
374.47283594949
 20
493.5759555557811
 10
371.0290624116576
 20
497.5004011514743
 10
367.954854634145
 20
501.81257222814065
 10
367.4327578921932
 20
502.7209533926939
 10
367.2010306153004
 20
503.00412110397883
 10
364.3365301284491
 20
506.1949357703852
 10
361.771459249042
 20
508.82012557328426
 10
359.5409131046963
 20
511.28954944763973
 10
358.6696199333569
 20
513.4440137759066
 10
356.34339015022965
 20
516.7610138662167
 10
353.8016214403792
 20
522.5547936265793
 10
350.9239727001659
 20
526.4806090027259
 10
347.91152380732
 20
530.1764373259925
 10
343.56654947525567
 20
533.4716187400477
 10
340.96436838473346
 20
536.5209599629934
 10
339.68855245419604
 20
537.6402522443764
 10
338.05075200816896
 20
539.3423484589625
 10
335.90377072657134
 20
540.9418883941057
 10
334.8592681580715
 20
541.8625019824981
 10
331.2696722835717
 20
543.965569073182
 10
327.30214243637533
 20
548.2026408092574
 10
326.9969875691388
 20
548.4362564114231
 10
326.8215445856995
 20
548.6354672434736
 10
323.1648183697098
 20
551.2333044040997
 10
321.22230985476654
 20
552.6998796703579
 10
319.2314535586386
 20
553.7934678447314
 10
314.6980385003226
 20
556.2992610900174
 10
314.03747295975904
 20
556.5585737537845
 10
310.2989727206268
 20
557.7880639874702
 10
309.7769073724944
 20
557.9000455068026
 10
304.62589757320507
 20
558.7286958409109
 10
302.93995903160567
 20
559.1055342818609
 10
298.7340510023953
 20
559.5755939722235
 10
295.81341302424084
 20
560.0253776456484
 10
292.1658784445558
 20
560.8578181329353
 10
288.45179443893267
 20
561.5559812726542
 10
286.55937346144106
 20
562.1545593394262
 10
282.9565701673587
 20
562.2077338490867
 10
280.51908102470384
 20
562.3228701460553
 10
276.20551438946586
 20
562.5200354195754
 10
272.8864025148939
 20
562.3634305772543
 10
267.7165601055235
 20
564.2466501596937
 10
261.8419060783897
 20
563.6143259491469
 10
258.0839435875864
 20
564.4787156583061
 10
254.86329106057428
 20
567.0317634959429
 10
253.15473054882705
 20
568.551420073406
 10
252.91422923322398
 20
568.6532210053501
 10
249.62906249441517
 20
569.6639751777943
 10
246.61958089495351
 20
570.2926000288189
 10
243.5484241366862
 20
571.2060576477179
 10
239.85482948604158
 20
572.2746010886804
 10
238.36391968507633
 20
572.502668821438
 10
233.19829218636005
 20
573.6329554526824
 10
232.52753650811383
 20
573.7179859831422
 10
226.8234610259667
 20
574.779928028202
 10
225.67310190888475
 20
574.9769412874612
 10
225.277971009496
 20
575.123624973231
 10
220.15663743438154
 20
576.5326157762915
 10
219.4782252793707
 20
576.6580974480976
 10
214.03680084042435
 20
577.1710100807318
 10
212.2618030824724
 20
577.6539964076892
 10
207.99607085014395
 20
578.0039093544788
 10
204.8613036193335
 20
578.6289312663716
 10
201.63059863546664
 20
579.55317303948
 10
198.3149737863639
 20
580.0389548036051
 10
195.28956403169923
 20
580.6678959568117
 10
190.91011227316017
 20
581.8823105468286
 10
188.25867046920553
 20
582.4419566020283
 10
184.80415523562078
 20
584.8927726176612
 10
183.54147808604216
 20
585.5169969506132
 10
178.26650021959608
 20
586.5305203444714
 10
175.87909053241924
 20
587.5962280203225
 10
173.2171534082454
 20
588.6935257275459
 10
169.88428882249013
 20
589.1888498577223
 10
166.81164734551635
 20
590.352736987903
 10
162.01140074968725
 20
592.039045470362
 10
160.8142096168035
 20
592.6154626517591
 10
157.64386000033141
 20
594.0509238531063
 10
154.62855403737058
 20
596.0853750077354
 10
153.34804087976363
 20
597.1745620157303
 10
150.13484898836828
 20
599.6334357164956
 10
146.33430477546972
 20
602.7695885867588
 10
144.39849647520896
 20
604.3500013090611
 10
143.6536672969221
 20
606.1717661656767
 10
141.1999327767437
 20
609.9950473540416
 10
138.3172353919856
 20
614.5072608937548
 10
138.11885266631043
 20
614.7395767372627
 10
138.10103051390865
 20
614.7711999256612
 10
134.49490821038899
 20
618.7689571855753
 10
131.27255547499135
 20
623.8989837264612
 10
131.14424776658484
 20
624.0612346994276
 10
130.92469323288924
 20
624.429899440252
 10
127.70061390375008
 20
629.2783293118832
 10
125.15708459343796
 20
633.71862164501
 10
124.49939308170588
 20
634.8667727854258
 10
123.63884039783329
 20
636.5314774864328
 10
121.75075044158939
 20
640.3306025243764
 10
119.90000309200718
 20
643.2522964208147
 10
118.78748846134636
 20
646.0242713915709
 10
116.99966351625994
 20
648.7714219504546
 10
116.25751571848627
 20
649.9682161729143
 10
115.29247893306183
 20
650.9733207431755
 10
112.71012471302674
 20
653.8589890037324
 10
110.88509544834847
 20
656.0055161661003
 10
109.61026242739149
 20
657.166203236221
 10
106.9000031946548
 20
659.2121951484528
 10
105.1178869854175
 20
660.3030746628824
 10
104.5899999196879
 20
660.8558227266162
 10
101.08346511122477
 20
662.8637553703707
 10
98.64384074450322
 20
664.552162569642
 10
97.36110816637733
 20
665.0607286779332
 10
93.54523570170818
 20
666.5563637541118
 10
87.1694981519529
 20
666.1920728501054
 10
86.57730542941954
 20
666.369717817297
 10
81.25787126739783
 20
666.0051882749494
 10
80.2950894602518
 20
666.0051882749494
 10
73.39329193845447
 20
665.5416918382716
 10
69.7594258491747
 20
666.4873738853657
 10
66.94097490792183
 20
668.8255703374571
 10
65.97278952281431
 20
669.5941404871332
 10
63.37748543297971
 20
668.9805408668744
 10
62.9206567960066
 20
668.6543573588174
 10
57.60925161549312
 20
664.5029904082648
 10
52.442853355599254
 20
659.7937755841481
 10
50.962709396886794
 20
658.4798510692572
 10
46.15883571305062
 20
653.5095751668819
 10
44.40790185923629
 20
651.7298849508466
 10
42.79721072715461
 20
649.0094787745766
 10
38.96784901869114
 20
642.7936841873388
 10
38.018744748149174
 20
641.2475740485602
 10
32.74450050545806
 20
633.7124269907081
 10
31.48662988048204
 20
630.9473042791069
 10
28.75259904134691
 20
625.6595959263209
 10
27.929310461891646
 20
620.9734272613891
 10
26.97663443093529
 20
617.362319026649
 10
26.148424843690236
 20
610.0034518103912
 10
26.086429975757937
 20
609.2295147587583
 10
26.350444227059143
 20
602.0693694369002
 10
26.519414398645722
 20
600.081141613598
 10
25.63348712391462
 20
590.8311234387074
 10
25.56841938147295
 20
590.0764703929622
 10
25.14287326969088
 20
587.0576530667618
 10
24.29868045667513
 20
580.970963305358
 10
24.265171294708352
 20
580.1933066915026
 10
24.26517129470585
 20
572.3365408833793
 10
24.265170132275216
 20
570.9820207055
 10
24.045736533205627
 20
563.3745741866637
 10
24.139104418318084
 20
562.5653740293201
 10
25.17384882888541
 20
554.6059295712616
 10
25.19216079084549
 20
554.4173857781725
 10
25.85548917710821
 20
545.8468401535465
 10
25.89149716887846
 20
545.0225053237282
 10
26.577506526318302
 20
537.5434325900846
 10
26.6370484761876
 20
535.5370316407889
 10
26.909379568726308
 20
528.8075049185632
 10
27.132286955204563
 20
526.65117881775
 10
27.585135845535888
 20
520.6699642708554
 10
27.994681353223086
 20
517.4386169301356
 10
28.360850198571143
 20
511.9287177269057
 10
28.36084696495277
 20
508.1606981609016
 10
28.981609026763863
 20
504.8744466995731
 10
30.238190392136175
 20
499.4032426010999
 10
30.47149864889866
 20
497.24633389651945
 10
32.01076989632702
 20
490.5553248143201
 10
32.08867368459482
 20
490.2024888343158
 10
33.19493948814306
 20
482.02969220457226
 10
33.29940499856775
 20
481.15946920442593
 10
34.815390152575446
 20
476.1621874076345
 10
35.83684424934563
 20
472.13261050125584
 10
36.51279296421262
 20
469.3292264851616
 10
38.66829563062993
 20
463.34040825230386
 10
38.731393417056324
 20
463.1207432702108
 10
38.84115687384178
 20
462.7928466825433
  0
LWPOLYLINE
  5
90
330
17
100
AcDbEntity
  8
GRABADO
100
AcDbPolyline
 90
495
 70
1
 10
167.79640079267006
 20
85.72911354057169
 10
164.6652025103042
 20
90.74932191707148
 10
164.64203823540424
 20
90.79567539218942
 10
164.60734129730463
 20
90.84242018482973
 10
161.45485719626254
 20
95.83183310531285
 10
159.8311420731011
 20
100.0349494629445
 10
160.04011073035576
 20
103.25438419772217
 10
159.1462065335993
 20
109.29111302145839
 10
158.72695833736975
 20
110.7266829457044
 10
157.63710650644975
 20
112.00632198697076
 10
155.50207886723456
 20
115.67364962610827
 10
151.5521589268585
 20
118.51766574645762
 10
151.20171183964408
 20
119.21709198472763
 10
150.69492747060804
 20
119.48604787517024
 10
146.05741733158902
 20
121.55819732660211
 10
143.76482108683217
 20
121.14011194614568
 10
138.6968654518098
 20
121.01688567403971
 10
136.80419672914786
 20
120.51810313998567
 10
130.2535575480963
 20
119.05191118974017
 10
129.83950855427088
 20
118.93178255731254
 10
128.69067947663416
 20
118.49711312934733
 10
122.86666597265435
 20
116.53755417143839
 10
121.01347286668579
 20
116.04544462514104
 10
115.88204966727858
 20
115.90796080172186
 10
113.59938389495301
 20
115.49673237295247
 10
110.4027921493448
 20
118.51087380197987
 10
109.43868282992958
 20
119.26878914854706
 10
108.8724154319491
 20
119.55548196781774
 10
104.1560776865415
 20
121.49440987031767
 10
101.90322584192518
 20
122.6344011820961
 10
98.87857965225862
 20
123.72223118959982
 10
94.94014503812195
 20
124.32985503738655
 10
93.03256774630859
 20
125.22675369957369
 10
87.96804402473208
 20
126.4436711286371
 10
87.21676347013317
 20
126.76138755818556
 10
83.74310511315298
 20
127.75685830055909
 10
81.55680525782282
 20
128.53370962122108
 10
80.97365145311755
 20
129.1930068232641
 10
76.75573401482961
 20
131.4419606242127
 10
73.9828652205781
 20
136.8499544136198
 10
73.91743747677833
 20
136.98886214520053
 10
73.90511090196787
 20
137.0966049188437
 10
73.9797625592023
 20
137.32513777663644
 10
77.71192287245731
 20
146.37923989898036
 10
80.95279702884795
 20
153.54880489871675
 10
81.93322885261364
 20
155.6230569866625
 10
81.81048647279522
 20
156.75663964213527
 10
82.17896937910655
 20
164.88491419436286
 10
83.21949738607941
 20
167.89594373969157
 10
80.9512191257702
 20
173.5757690213859
 10
80.81354266314997
 20
173.92051617452216
 10
80.72803561416686
 20
174.13462648222958
 10
80.95315228667891
 20
174.58613420087522
 10
84.9569749265338
 20
183.39109593581406
 10
83.40468340643883
 20
186.63175275715275
 10
82.37974633009003
 20
192.64675204273317
 10
82.41207502359111
 20
194.6014886576736
 10
82.52125552455595
 20
201.9198915483048
 10
82.9786397505577
 20
204.62438790893611
 10
84.0196383751063
 20
211.1860184727343
 10
84.96684583989486
 20
216.53117165922686
 10
86.27053676595347
 20
220.45054293143266
 10
87.23757493856397
 20
228.80110908735787
 10
87.35155986630707
 20
229.69814191414252
 10
87.03840337502265
 20
237.78469685193977
 10
86.96095088733841
 20
238.95151004947957
 10
86.67485403078285
 20
246.56589061650038
 10
86.71481264423187
 20
248.21410280989267
 10
86.19943806108768
 20
255.189093121322
 10
86.00426541639695
 20
257.47290365864365
 10
85.91916500527782
 20
264.08220576210397
 10
85.85294553971698
 20
266.7340442226905
 10
85.49382584921295
 20
272.7739513578772
 10
85.25643415356762
 20
275.989872490215
 10
84.5886135283688
 20
280.83048432157284
 10
84.43734773063488
 20
285.2513116848045
 10
83.84631816373144
 20
289.08999498040384
 10
81.84698296246802
 20
294.5069305320876
 10
81.89732993382813
 20
295.77549166816834
 10
80.94765446617589
 20
299.51408147036636
 10
80.29203210498622
 20
302.8956359520171
 10
80.13905494288451
 20
303.77197181929887
 10
79.91823649374373
 20
311.67805180311143
 10
80.0684644580142
 20
313.0519819225383
 10
80.94875408948315
 20
317.18626494496357
 10
82.92456030709059
 20
322.3083327264417
 10
82.5563221674779
 20
324.43604870767194
 10
82.91593684115378
 20
331.54206725894846
 10
82.0420615991693
 20
332.984906839431
 10
80.9481411170259
 20
338.6245468346033
 10
80.45345449594379
 20
340.1368203338061
 10
80.20647196406071
 20
340.7813338133101
 10
76.77092154494062
 20
344.4652080834717
 10
73.98817988733845
 20
348.2488889796723
 10
73.3680838311036
 20
349.2312637301602
 10
73.0400655462729
 20
350.05559848615485
 10
71.06179966639615
 20
355.4261240773676
 10
68.24582414759993
 20
359.3181679933123
 10
68.21680863740016
 20
360.94407102255445
 10
67.00617830912915
 20
366.0963310713478
 10
66.6180130625171
 20
368.0403559315637
 10
65.9878496467536
 20
368.5582478072506
 10
63.96925417036232
 20
373.8195147307797
 10
64.08190273319633
 20
377.8480977091167
 10
62.50558775457648
 20
381.13164937651845
 10
62.580965756302476
 20
387.1172718340872
 10
62.02077889942643
 20
389.7171512607588
 10
60.06165525973256
 20
391.5615434925271
 10
57.668483437541
 20
393.1944004339284
 10
57.293612347511726
 20
396.3745128086907
 10
56.494251486332814
 20
400.91360426392475
 10
53.84774808047496
 20
405.60975817580083
 10
53.520238962961
 20
406.2169347684048
 10
53.066537726410616
 20
407.69461514375735
 10
51.44721945559786
 20
412.7257914066922
 10
50.44979490870605
 20
414.8727036510495
 10
48.61687584592096
 20
418.22413301538063
 10
46.85482021789744
 20
424.1387019625522
 10
46.54647435116112
 20
424.72655370698294
 10
46.10254662872467
 20
425.67017693122216
 10
43.24395147556106
 20
429.60260405121653
 10
42.23172810447545
 20
433.40043889529716
 10
40.96884023590587
 20
435.8360290450505
 10
39.13071796392387
 20
439.39982654815685
 10
38.07653848066457
 20
441.25988361657073
 10
37.57693375375766
 20
442.66511457805245
 10
36.04620268104168
 20
447.83587026187433
 10
34.66779553249148
 20
451.92673371745013
 10
33.97808759961799
 20
454.3519114794135
 10
32.15434397854165
 20
460.7167393437958
 10
32.045310642005234
 20
461.0424548418255
 10
32.00393258791769
 20
461.1865060047103
 10
29.797230045049446
 20
467.3175772527861
 10
29.04142848951642
 20
470.4521375434101
 10
28.069806952444196
 20
474.28512790480363
 10
26.42252129328176
 20
479.7152276764846
 10
26.251124539044667
 20
481.14300414626086
 10
25.190811843479878
 20
488.9763114734792
 10
25.189097761058065
 20
488.98260474822564
 10
25.182046235938742
 20
489.0160120040423
 10
23.55669848929074
 20
496.08118427483214
 10
23.323254309294043
 20
498.23934957449046
 10
22.128628524203577
 20
503.44079666867947
 10
21.360846402553307
 20
507.50535743113005
 10
21.360849999181482
 20
511.69637908174354
 10
21.023950026877856
 20
516.7658570358294
 10
20.6184601290272
 20
519.9652052853266
 10
20.159515214022804
 20
526.0269359430704
 10
19.92396115904171
 20
528.3056013786713
 10
19.641247830387556
 20
535.2916817493397
 10
19.587005019751814
 20
537.1195161919645
 10
18.90547031799315
 20
544.5498049331827
 10
18.867288614095287
 20
545.4239027886138
 10
18.218320268035995
 20
553.8089092711139
 10
18.21761486639207
 20
553.8161722340824
 10
18.210317029588623
 20
553.8648561046803
 10
17.191018453480183
 20
561.712940794479
 10
17.03411922663645
 20
563.072753956104
 10
17.265170218896174
 20
571.0829587478611
 10
17.265171294708352
 20
572.3365468906836
 10
17.265171294708352
 20
580.3440514735362
 10
17.31945751804892
 20
581.6038872361805
 10
18.210314573489313
 20
588.0270294788311
 10
18.61054448938603
 20
590.8662541154113
 10
18.662211625593727
 20
591.4654874719249
 10
19.490984594875727
 20
600.1187542212128
 10
19.36137997535684
 20
601.643777887441
 10
19.076104707971353
 20
609.380528313392
 10
19.17975846414788
 20
610.6745303029379
 10
20.077750088586527
 20
618.6534298802007
 10
21.0858213955255
 20
622.47451331193
 10
22.043287417547845
 20
627.924421621246
 10
25.187801733657807
 20
634.0060189378328
 10
26.639880392890745
 20
637.1980607901119
 10
32.163251377310644
 20
645.0891273974944
 10
33.00512815364414
 20
646.4605617697662
 10
36.80515454896522
 20
652.6287394708156
 10
38.63806000739373
 20
655.7244585881012
 10
39.14044848313188
 20
656.3570397356893
 10
41.147145429582
 20
658.396693554916
 10
46.115453174571485
 20
663.5370993785732
 10
47.76133913347917
 20
664.998153147968
 10
53.089655499480614
 20
669.8549576675005
 10
58.729516650758114
 20
674.2630441141941
 10
60.07254173277488
 20
675.2219871339735
 10
61.11230692061122
 20
675.6379734907919
 10
67.08611099615837
 20
677.0503412848443
 10
68.69862276182789
 20
676.3677417901281
 10
71.35229442649484
 20
674.2611898220066
 10
73.02994345241154
 20
672.8694065048526
 10
74.05728489108265
 20
672.6020498299181
 10
80.0603082170062
 20
673.0051882749494
 10
81.01830461578152
 20
673.0051882749494
 10
87.36902598501115
 20
673.440389742585
 10
88.00047324179923
 20
673.2509692668732
 10
94.47311668661519
 20
673.6207970888972
 10
94.98398002508497
 20
673.5109339549472
 10
99.9283056490915
 20
671.5730005203832
 10
101.96858349006811
 20
670.7640897784936
 10
104.82127911446787
 20
668.7898055832429
 10
108.95037922425263
 20
666.4253759247217
 10
109.55028939699991
 20
665.7972128043734
 10
110.84538397226902
 20
665.0044518530467
 10
114.08476787118752
 20
662.559020368949
 10
115.92838783099796
 20
660.8804743834035
 10
117.98561225461685
 20
658.4608484684386
 10
120.42688948447994
 20
655.7328275940054
 10
121.81777772566488
 20
654.2841904549323
 10
122.90836767551309
 20
652.5254952799733
 10
125.0284420597618
 20
649.2678141822962
 10
126.1571085103808
 20
646.4555948503225
 10
127.8580501896015
 20
643.7703926137779
 10
129.88264976941173
 20
639.6965893873848
 10
130.6484113494539
 20
638.2152542802646
 10
131.23112526691102
 20
637.1979936999928
 10
133.65869183346126
 20
632.9601399548687
 10
136.84992815262171
 20
628.161100006499
 10
136.92181443553386
 20
628.0403922378523
 10
136.99844480742308
 20
627.9434896234093
 10
140.09948707507328
 20
623.0065908901638
 10
143.81839297209922
 20
618.8838014234111
 10
143.88340033529903
 20
618.7684539587826
 10
143.95521875545887
 20
618.684351087416
 10
147.09496419710308
 20
613.7697867047832
 10
149.89068217495333
 20
609.4136447241463
 10
150.20424403874586
 20
608.646709162967
 10
150.77542619285964
 20
608.1803904975332
 10
154.4909733206489
 20
605.1143759647016
 10
157.74566775544486
 20
602.6237427189321
 10
158.8669127677697
 20
601.6700270206993
 10
161.06929292270206
 20
600.1840634388363
 10
163.77659330294205
 20
598.9582602542173
 10
164.69802728989885
 20
598.5146131480733
 10
169.21184140114133
 20
596.9289273146319
 10
171.6589478907531
 20
596.0019868398695
 10
175.09320525031376
 20
595.4915939044058
 10
178.64020877712028
 20
594.0294561243159
 10
180.38142117155303
 20
593.2522022562425
 10
185.60313451306843
 20
592.2489129986116
 10
186.36721441063128
 20
591.9287293020288
 10
188.40282076177027
 20
590.9223952465527
 10
191.12490405694916
 20
588.9912052286736
 10
192.5698109619873
 20
588.686225331197
 10
196.93895810958747
 20
587.4746681924221
 10
199.53580348283094
 20
586.934819690503
 10
203.10717611371274
 20
586.4115675808903
 10
206.51110027284972
 20
585.4377711754378
 10
208.96979683406562
 20
584.9475468262895
 10
213.47713699583028
 20
584.577815068109
 10
215.29345113469685
 20
584.0835863342404
 10
220.44516733540786
 20
583.5979818112451
 10
221.72451225839222
 20
583.3613493473849
 10
227.42854074141792
 20
581.792046439246
 10
227.49770211599957
 20
581.7663717948376
 10
228.05493847967796
 20
581.6709381597616
 10
233.6092079541636
 20
580.6368858750379
 10
234.38896369305303
 20
580.5380375965115
 10
239.64259132880647
 20
579.3884957289056
 10
241.36307383469693
 20
579.1253097574181
 10
245.51891333652839
 20
577.9230405694334
 10
248.33599591566167
 20
577.085152520232
 10
251.37768333321765
 20
576.4498004715379
 10
255.3140093656234
 20
575.2387027472269
 10
256.94526066536855
 20
574.5482162850926
 10
259.36720086781975
 20
572.3940535653223
 10
261.193620204388
 20
570.9462302131492
 10
262.263512203009
 20
570.7001384451278
 10
268.4482044663821
 20
571.3658339286148
 10
269.2528361743439
 20
571.1369934067161
 10
273.96107077466286
 20
569.4219237980242
 10
276.2003589306498
 20
569.5275795824123
 10
280.8440335044761
 20
569.3153256763271
 10
283.17341933232524
 20
569.20529570584
 10
287.69041372565266
 20
569.1386284630298
 10
290.1601048646655
 20
568.3574582239034
 10
293.5917514260991
 20
567.7123868862309
 10
297.1265677207007
 20
566.9056709704623
 10
299.6559200428751
 20
566.516146014832
 10
304.09558448153007
 20
566.0199612963702
 10
305.9464796350421
 20
565.6062520022288
 10
311.0677189810481
 20
564.7823908836376
 10
312.1316418606243
 20
564.5541824784373
 10
316.41174635038215
 20
563.1465734553785
 10
317.6828858113556
 20
562.6475729181066
 10
318.06086764770794
 20
562.4386502782286
 10
322.6096913348556
 20
559.9243400898549
 10
325.036140291975
 20
558.5914785014079
 10
327.30163535269685
 20
556.8810514961592
 10
331.53785107042677
 20
553.8715293274427
 10
331.7968197031598
 20
553.5774773466201
 10
332.0164802663787
 20
553.4093131118066
 10
335.68484345466504
 20
549.4917325058964
 10
338.9808528095173
 20
547.5606714485725
 10
340.3165017165204
 20
546.3834445367479
 10
342.6951306881251
 20
544.6113228775689
 10
344.5274498844444
 20
542.7070716145204
 10
345.9608869936844
 20
541.4494959299586
 10
348.3997633392107
 20
538.5915218230957
 10
352.6727925432572
 20
535.3509028139156
 10
352.82075684202573
 20
535.2020631982032
 10
352.93322181235044
 20
535.0949579626363
 10
356.4634304598176
 20
530.7639151564545
 10
359.90254274085623
 20
526.0721264455792
 10
359.9102581621705
 20
526.0557435286032
 10
359.9173915339845
 20
526.0395215879121
 10
362.4740712045309
 20
520.2105114574438
 10
364.859485181747
 20
516.8091198858783
 10
365.565889289971
 20
515.0623800942994
 10
366.87409904917286
 20
513.6140691412947
 10
369.4466460195631
 20
510.98122802631224
 10
372.5169146241949
 20
507.561204836079
 10
373.2147655650731
 20
506.70844008435824
 10
373.8533241902003
 20
505.59743022560997
 10
376.5236864330566
 20
501.85173063038474
 10
379.6382361395283
 20
498.3024609865324
 10
380.29409439666574
 20
497.6149794351659
 10
380.79845406676554
 20
497.144058682522
 10
385.82375663383687
 20
495.7766404987092
 10
387.7401510954335
 20
495.6979135476395
 10
392.1193876520708
 20
494.85826488556495
 10
394.7376230261018
 20
493.4493016188303
 10
397.0910256165928
 20
492.196070896066
 10
401.6979704689468
 20
490.79067711574
 10
402.71821710656127
 20
490.37904559706567
 10
403.7453576810078
 20
489.02990533732645
 10
405.60496744406623
 20
484.9124534673633
 10
408.7061521605317
 20
481.58998129371093
 10
409.2531520109453
 20
480.4694664120666
 10
409.40384675188557
 20
479.7193069550167
 10
408.71069367293126
 20
478.4055956904813
 10
404.90811749555655
 20
470.4573039317902
 10
405.4157803044957
 20
466.09270752361135
 10
406.1104191624188
 20
461.2148970216581
 10
406.1104191624188
 20
457.7485973928415
 10
406.74112152410976
 20
451.94303940827695
 10
405.61978751537185
 20
447.8144035935561
 10
403.843001607572
 20
442.65732774081334
 10
401.73861917426416
 20
438.95495000208484
 10
398.7589927354395
 20
433.3917262140035
 10
394.76584333876895
 20
426.2399735464119
 10
393.281505942982
 20
424.1219645498659
 10
387.7894145935518
 20
417.31845041918587
 10
385.7244811902822
 20
414.85744022568315
 10
380.8130055289505
 20
409.3575631969743
 10
376.2531261273041
 20
405.5874554392194
 10
373.83703792074516
 20
403.70902461105516
 10
370.0937769125769
 20
400.615074335969
 10
366.8656418027913
 20
398.293341083227
 10
364.5479846665321
 20
396.3291482759614
 10
359.90346316948535
 20
392.06979092028405
 10
355.8376954026596
 20
387.0714813688014
 10
352.9276484810671
 20
384.7041467011286
 10
346.605554812784
 20
378.6693270424994
 10
345.9589375382998
 20
378.1251774096786
 10
345.65997287441314
 20
377.80845865680294
 10
338.98269575346694
 20
372.6321365958297
 10
333.7510452483916
 20
368.54373423649076
 10
332.00742648644905
 20
367.27378153813606
 10
330.2674226906356
 20
366.2295016807916
 10
325.0403579036165
 20
362.4475486385345
 10
320.9976659608383
 20
359.2877117200251
 10
318.06541423624935
 20
356.1103401514347
 10
315.0198599300659
 20
355.2418479381008
 10
311.08693044734696
 20
352.8777584860577
 10
304.29137847294396
 20
350.2551900108292
 10
304.1198427072138
 20
350.2009114341399
 10
303.9184821129095
 20
350.03352903302994
 10
303.24791567718876
 20
348.84930668634115
 10
298.95761032084465
 20
340.77715014467776
 10
297.1679920416823
 20
338.9397059291068
 10
290.85867984656807
 20
331.509751789391
 10
290.1953257106495
 20
330.8746057450476
 10
287.61192880267254
 20
328.0764097983447
 10
283.2269927491225
 20
323.56695681336896
 10
282.1416732503319
 20
322.2522152882666
 10
276.2584314908961
 20
315.4797475752125
 10
274.33549081069737
 20
312.9919717961957
 10
269.28765222638253
 20
307.38603704138177
 10
266.53865885767596
 20
303.73401790500475
 10
262.3195776425305
 20
298.27612640868665
 10
259.7007908232206
 20
294.4773165184947
 10
255.34991364266534
 20
287.7066481348843
 10
253.4765423330639
 20
285.2178756443923
 10
248.91281415857907
 20
276.66557797269934
 10
248.5649912728943
 20
275.9627511820927
 10
248.3842069138368
 20
275.640744572745
 10
244.11053963320978
 20
266.70393649309744
 10
241.41328850310197
 20
261.4343514346797
 10
239.26748046266698
 20
257.4492417228471
 10
238.18991955975457
 20
253.1651742344725
 10
236.39638657009982
 20
248.19794254509043
 10
235.28069921112115
 20
240.04586996664148
 10
235.0446679979484
 20
238.93804686599697
 10
234.44808418546336
 20
236.6680621221667
 10
232.06956489185154
 20
229.67338829038226
 10
230.83322566597644
 20
224.87230699179145
 10
229.59397381429358
 20
220.41977719863644
 10
228.7154203396483
 20
212.80919893205828
 10
228.67977444484018
 20
211.1713547128038
 10
228.37212669044993
 20
203.094844808571
 10
228.32923370118692
 20
201.9152832785594
 10
229.02357412746073
 20
194.7100177256143
 10
229.21724209160993
 20
192.6566194927659
 10
229.3285224318481
 20
185.83859538734941
 10
228.7456678740209
 20
183.39770636351568
 10
230.72125595956595
 20
178.47363865022544
 10
232.6302733162595
 20
174.170119297361
 10
233.5466920846693
 20
172.99768173342682
 10
234.41284819407952
 20
171.9182153436468
 10
239.594512515391
 20
171.79799601133527
 10
241.26509427905307
 20
164.89799002746577
 10
241.32885115581735
 20
164.78161750464915
 10
241.41844364618737
 20
164.44519902274396
 10
243.59780828377234
 20
158.56211672312338
 10
247.19739920914526
 20
155.6744200225139
 10
248.0685455679161
 20
155.27479366831767
 10
248.37875529511462
 20
154.85927972314857
 10
251.40099979425327
 20
150.38887321344737
 10
252.720568260768
 20
146.38266652865786
 10
253.9463398118569
 20
144.54842058558734
 10
255.34587299569262
 20
143.59579653408355
 10
257.3592185095936
 20
139.7940744659959
 10
259.21810555732736
 20
137.12670315052674
 10
260.4112117485852
 20
134.610864664352
 10
262.31020545203546
 20
133.5217319393173
 10
264.40521152407337
 20
130.64238973641204
 10
266.3732590186121
 20
127.86558837081384
 10
267.45787213629455
 20
125.4244614491181
 10
269.2909938271482
 20
122.81573559629351
 10
270.8262834444449
 20
120.64875560096743
 10
272.16767394882027
 20
118.60619565449724
 10
273.8753506976875
 20
115.43624270284226
 10
276.2578983944404
 20
112.37073765288505
 10
277.496316077227
 20
110.99970485280119
 10
278.74028256218503
 20
109.34710069879293
 10
280.56211223354217
 20
105.77992214765072
 10
282.67180824732077
 20
100.07894592608591
 10
282.92437940928767
 20
99.6521594722135
 10
283.2442822068972
 20
98.12155970219555
 10
284.5768661911161
 20
92.57240863996685
 10
284.9338829957999
 20
90.79411788873495
 10
285.0544463624119
 20
83.92803553957265
 10
285.02728007436417
 20
81.51613925771517
 10
283.2441975209813
 20
74.05212927330012
 10
282.84514821883704
 20
72.24041474358592
 10
282.17095437536955
 20
70.81579330955674
 10
279.75343759278985
 20
62.97166317307074
 10
276.26090293332163
 20
57.74037226133032
 10
272.9977603988359
 20
53.69500767305999
 10
269.28822383948045
 20
49.56631268437286
 10
265.60089030188396
 20
44.43907689508842
 10
262.3184131659791
 20
39.92497533481446
 10
258.4399932666397
 20
35.17451147394013
 10
255.34151623445086
 20
31.516023079960178
 10
248.71247058609197
 20
25.899848979347553
 10
248.35351187786046
 20
25.700626068478414
 10
248.10715260769848
 20
25.568666358049995
 10
241.37972934207028
 20
21.82112014874292
 10
236.90498484501745
 20
19.950617633489856
 10
234.4061321056488
 20
18.663193214171315
 10
228.71838226859109
 20
16.630583764130733
 10
227.42294531380162
 20
16.176403754077
 10
227.0414665766525
 20
16.12662386022157
 10
220.43395505724902
 20
14.686868959215644
 10
219.17949346077148
 20
14.989462800660931
 10
214.4083114741652
 20
16.630602218736385
 10
213.64623895285104
 20
16.909520302322107
 10
213.4261247704103
 20
17.000574865632643
 10
209.19015045441438
 20
20.285679532701124
 10
206.4484267870323
 20
22.415646712248872
 10
204.74482395533073
 20
23.647898571001406
 10
202.58742422065984
 20
25.91064694905299
 10
200.87353495526327
 20
27.77885452520377
 10
199.46759501328233
 20
29.295712964209997
 10
197.03526783497955
 20
31.94717487836033
 10
194.65639961907664
 20
35.177508330969886
 10
193.5723592994957
 20
36.60104773105877
 10
192.49849063108672
 20
37.58441556781372
 10
189.70926203001227
 20
40.73498378386694
 10
186.80740915437423
 20
44.441355483730604
 10
186.2542206166097
 20
45.43039920445244
 10
185.51414617841806
 20
46.93994866663297
 10
183.47510870986957
 20
51.00174940752095
 10
182.16512881878498
 20
53.711139096030365
 10
180.75761236722246
 20
56.65263561415986
 10
178.54332854613517
 20
61.11688023087254
 10
177.99402522148262
 20
62.24256248605661
 10
177.64940053237615
 20
62.97722499284373
 10
175.89712756882113
 20
68.73441780767598
 10
174.90614550141368
 20
72.2410188554245
 10
173.77507277100585
 20
75.15727441373929
 10
171.57703923678287
 20
78.69769102315286
 10
170.57810482715013
 20
80.16642128027979
 10
170.0113583356349
 20
81.4932334136056
 10
167.79640079267006
 20
85.72911354057169
  0
TEXT
  5
91
330
17
100
AcDbEntity
  8
GRABADO
100
AcDbText
 10
305.8274744045343
 20
347.8179338173088
 30
0.0
 40
6.0
  1
84}
 72
1
 11
305.8274744045343
 21
347.8179338173088
 31
0.0
100
AcDbText
 73
2
  0
LWPOLYLINE
  5
92
330
17
100
AcDbEntity
  8
CORTE
100
AcDbPolyline
 90
382
 70
1
 10
443.44223589559624
 20
384.6282322034822
 10
434.40369226437815
 20
387.6526439977242
 10
430.0935870594376
 20
391.4356571277076
 10
425.14037220605223
 20
395.8644166592676
 10
419.2553863740668
 20
398.3986146478983
 10
415.86591790836246
 20
401.51448841547244
 10
412.65016829420347
 20
405.40122474363943
 10
412.21924813990154
 20
408.14712184614655
 10
410.89607197221085
 20
412.415835503386
 10
412.56140719201267
 20
414.9095107031844
 10
413.55466828596127
 20
419.40182592838755
 10
414.2504261637232
 20
420.623588814291
 10
415.85850692626536
 20
422.97141505702893
 10
417.39454867001587
 20
425.22724860287053
 10
418.0458969022884
 20
426.3854276057509
 10
420.5066136179594
 20
429.86523526562814
 10
423.4745193253766
 20
433.3668296720962
 10
424.1755930013269
 20
434.06628716316663
 10
425.1127593339643
 20
436.5145692210863
 10
426.5445526075637
 20
439.2588757842832
 10
427.6082274821483
 20
440.3428337773594
 10
430.95350737672743
 20
442.93542377492577
 10
434.3971513705237
 20
445.8184468302552
 10
435.4562273240517
 20
446.50640119325544
 10
435.951669105948
 20
447.2995102584846
 10
438.68548536211256
 20
451.02401785435177
 10
440.2510208739495
 20
454.258537231437
 10
441.0417053521205
 20
456.2049090053324
 10
442.84652607940825
 20
461.22212149653933
 10
442.98725380214273
 20
461.69816562126834
 10
443.62830993613625
 20
465.92231751850704
 10
443.9674052910268
 20
467.9451703022023
 10
444.1583660772567
 20
468.2223160331596
 10
448.583151749398
 20
471.4905477670509
 10
452.9211807410311
 20
475.0802970898094
 10
453.01597130232403
 20
475.1299122986811
 10
453.08921739221114
 20
475.19556136513165
 10
457.1438734556741
 20
478.963249384914
 10
458.70693520429177
 20
482.1353060517995
 10
459.1601908084758
 20
484.37386026931836
 10
459.83770026561524
 20
489.0762758739229
 10
459.1969599517488
 20
491.29988859523473
 10
460.38902196460185
 20
496.06206832077805
 10
460.40851532486886
 20
497.35515794536695
 10
459.2943844462752
 20
503.01462646618256
 10
459.235781919283
 20
505.212065985942
 10
458.92867917382955
 20
509.99980863366545
 10
459.408548915324
 20
512.0801647545713
 10
461.26604484274685
 20
516.9937559501213
 10
461.5071140685841
 20
517.4995787794378
 10
462.1694073752342
 20
518.1934179798254
 10
465.41142731277887
 20
521.5462017789223
 10
467.7011663510166
 20
523.9886998536367
 10
469.41239348981617
 20
525.5233705337896
 10
471.4411491021174
 20
526.6259730114361
 10
474.1108409613598
 20
528.9305587902472
 10
475.14181632671534
 20
530.9345774191497
 10
476.21847185406386
 20
534.2857611229047
 10
477.74080332018275
 20
537.9054935103513
 10
478.4517310591036
 20
539.5959066676387
 10
480.6867737770017
 20
541.9598611733445
 10
482.0604156917516
 20
543.8518567216379
 10
482.7114360265996
 20
544.8913704580082
 10
485.5212802191718
 20
548.2382218184057
 10
489.95395062393436
 20
551.5366145002254
 10
490.11329424287123
 20
551.7191604955724
 10
490.1382248748432
 20
551.8333659013733
 10
491.35248326934925
 20
557.7276585940699
 10
491.4049693396355
 20
558.790159378711
 10
491.3709077441681
 20
564.6822080565917
 10
491.5965042349999
 20
565.7695157825256
 10
491.9752155076394
 20
571.2133430662752
 10
492.8272188076771
 20
572.7519592861208
 10
493.17674458805413
 20
577.2777828721173
 10
494.3401540406967
 20
579.6736259339414
 10
489.9582424771952
 20
582.5004881931454
 10
485.6880435707999
 20
586.6513561905094
 10
486.6109136683972
 20
589.1832761304777
 10
486.63314268585964
 20
593.6396069018056
 10
486.45177431686807
 20
596.2575347578913
 10
486.42898261313803
 20
600.6055503247435
 10
485.8524047170349
 20
603.6704593706418
 10
485.2683241550303
 20
607.567256672929
 10
483.94673672164754
 20
612.094108824931
 10
485.53123465887165
 20
614.5689572653318
 10
484.7385454628147
 20
618.46415587297
 10
485.69436182071695
 20
621.5305493659434
 10
485.14284562324974
 20
625.1269406662987
 10
485.5822107525819
 20
628.4972019948309
 10
485.28485687449665
 20
632.0019811876145
 10
486.6110050320776
 20
635.4809002161155
 10
486.6744574235554
 20
637.9596690352746
 10
489.9509479950257
 20
640.0260429203236
 10
490.9939037548884
 20
641.6628549198022
 10
491.071705304832
 20
642.470851237701
 10
494.560928859888
 20
645.9649581284893
 10
495.3696586104261
 20
649.4093696423934
 10
494.7423847814689
 20
652.7659331038103
 10
496.7215335840683
 20
656.346669104998
 10
489.9730558334786
 20
659.7860090202093
 10
481.9869157240346
 20
663.2876271498135
 10
480.68021403625244
 20
664.9010028621196
 10
478.25487361312753
 20
670.3214175254479
 10
478.92892789287725
 20
671.6710007074371
 10
480.6792258772848
 20
674.9204441261063
 10
481.6406244881309
 20
676.6148222101147
 10
482.3073774411241
 20
677.3346908326639
 10
484.549390776604
 20
681.3760670184956
 10
485.54500369927064
 20
684.2824359641563
 10
486.25015013854863
 20
687.0660302914121
 10
488.9932907316652
 20
691.2354779092911
 10
488.3781977668759
 20
692.3698165787619
 10
484.6692820184171
 20
698.1602285006684
 10
480.709912586879
 20
703.6503503636723
 10
474.41060251361614
 20
702.8912435610046
 10
471.4745030558415
 20
703.5770373043879
 10
463.9226060142446
 20
703.8142017271748
 10
462.2072645336684
 20
704.0871240073302
 10
458.7386298286219
 20
705.1012530367962
 10
452.9338600837773
 20
706.8548299521535
 10
444.1486251062897
 20
711.7155052153475
 10
443.6778171875194
 20
711.9423354959772
 10
443.1077642887085
 20
712.0702893001389
 10
434.4260069131442
 20
713.6482922506939
 10
431.23827483189143
 20
714.4676451254663
 10
425.1577167327514
 20
716.4292418308369
 10
417.61038993495913
 20
719.0443001052208
 10
415.89225208404787
 20
719.7311845299027
 10
413.8301763571044
 20
720.5972892179952
 10
406.6304106541511
 20
723.5239128072444
 10
401.175414037235
 20
726.0178250748049
 10
397.36010491433717
 20
728.0189696567659
 10
390.4264095207873
 20
732.9947455317861
 10
388.0870906043656
 20
734.6258981087503
 10
383.8369921242993
 20
739.9863468714657
 10
381.3682996362504
 20
745.0398990219646
 10
380.4869263750106
 20
746.9628273161161
 10
378.8136517650537
 20
749.8452266423346
 10
376.35471390176644
 20
753.9254518032321
 10
372.8934176011062
 20
758.3827805384271
 10
371.04567703930843
 20
760.8888382850419
 10
369.5697807616625
 20
762.2836671440191
 10
361.98509206464587
 20
767.8461397749625
 10
360.3242458042105
 20
768.7695521425503
 10
357.5405678136922
 20
769.9386363477433
 10
351.0687728687508
 20
772.5908369692634
 10
345.454724982892
 20
774.810674345189
 10
341.79922021479797
 20
776.3470593523325
 10
334.1625171709529
 20
781.7920708907986
 10
332.5193699861511
 20
783.2547015045584
 10
328.61643415837443
 20
788.7804480760524
 10
325.37186968124934
 20
794.1577889341606
 10
324.51807523972457
 20
795.7486655802641
 10
323.2692955723778
 20
797.1311947742543
 10
318.1062366949209
 20
799.6211017391597
 10
314.0291451322946
 20
801.4609369230675
 10
309.36071882048964
 20
802.6902229458128
 10
304.7852213291899
 20
803.8226380906381
 10
303.31364143404153
 20
803.7975191810265
 10
295.52160091215956
 20
805.1448890183374
 10
291.51669486600713
 20
805.7035282368406
 10
286.26079613142974
 20
806.576232013932
 10
279.78223464906205
 20
807.5682587479496
 10
277.0109133167889
 20
807.6524310449449
 10
270.4754294304603
 20
807.6087993693436
 10
267.75391032037714
 20
807.5448961087095
 10
261.6922394398798
 20
807.2557077266229
 10
258.51197483261603
 20
806.637292829897
 10
255.0913283058053
 20
805.2671252690416
 10
249.25744713639324
 20
803.8678304352943
 10
248.39085432262618
 20
803.390630452679
 10
248.18451060971074
 20
802.72566566368
 10
244.96460958858734
 20
798.9947933782187
 10
241.93384907347718
 20
795.7500288365354
 10
241.45079843264466
 20
794.6730032689611
 10
240.0112946613799
 20
793.6522827903582
 10
236.46708185024545
 20
791.4164430490491
 10
230.73177526577183
 20
789.1341557644164
 10
230.35004986836157
 20
789.0421264187544
 10
229.84311992296261
 20
788.7550213390323
 10
224.75356858603118
 20
786.2817016084418
 10
221.4486522852112
 20
785.4882772166566
 10
214.29839095566695
 20
787.1646844082343
 10
212.1506095920613
 20
785.5440950547791
 10
211.02557227915713
 20
788.8108124896107
 10
211.06645132874291
 20
789.6163872150491
 10
211.9145490384899
 20
795.8066488526965
 10
211.94745190322647
 20
795.9345705704154
 10
212.1144694105169
 20
796.7937507178976
 10
213.26079139634476
 20
801.9107316715872
 10
213.33269343530992
 20
802.7801990452499
 10
215.18446452375883
 20
807.4598149368403
 10
216.5301231285348
 20
809.7757584407864
 10
218.34274796266072
 20
812.0793951266251
 10
221.40192417698472
 20
815.0724268666536
 10
222.62982649231253
 20
815.8324382943692
 10
223.31937717523397
 20
816.7545277732097
 10
226.61184283284638
 20
819.8179702780526
 10
230.6908274518155
 20
821.8605449112292
 10
233.17741957987982
 20
821.892187143605
 10
239.971153325434
 20
821.723651083299
 10
242.7116618223763
 20
821.6755631913193
 10
247.82579100974272
 20
823.7465263815193
 10
248.87748554420068
 20
823.996303265355
 10
249.21139416798815
 20
824.1151849428097
 10
256.43565839238545
 20
825.2859377518507
 10
258.4815147476911
 20
825.6686320243743
 10
264.69322139727774
 20
826.0399805305378
 10
267.7241827704638
 20
827.0770257589829
 10
270.79961494822874
 20
828.4063583543111
 10
276.99411456364214
 20
829.6009979733672
 10
278.05546873884396
 20
829.9120459119895
 10
279.9826073759177
 20
830.714780614252
 10
283.9930614837858
 20
832.4221231698202
 10
286.26062907481173
 20
832.5768341289886
 10
291.32381286401414
 20
833.8778876894112
 10
295.52227873684296
 20
834.3511388815032
 10
299.10221659984836
 20
834.9994974131378
 10
304.7913576215178
 20
835.0454058839514
 10
308.0612406594764
 20
835.2263314135644
 10
314.0428232073873
 20
836.0077389918524
 10
315.8459785034065
 20
836.3303897235828
 10
322.1089260002418
 20
837.6882604676985
 10
322.8756450081819
 20
838.0049081903189
 10
323.3051439336259
 20
838.0681298568898
 10
330.8527222027278
 20
838.9802367257689
 10
332.56777325722305
 20
839.2268904797675
 10
339.18902082501427
 20
839.6768060482291
 10
341.81341184163193
 20
840.120120679524
 10
345.52900289061745
 20
841.8598216419787
 10
351.0836841159271
 20
843.173478783976
 10
352.7833066023486
 20
843.3754876724288
 10
355.6589935447291
 20
844.6572057639169
 10
358.94060594422444
 20
845.7108721921586
 10
360.33929634654214
 20
846.0259742632134
 10
365.8536507846229
 20
847.4772269961168
 10
369.5947876990249
 20
848.6124754720659
 10
372.342862868476
 20
849.5593716649119
 10
378.5008593341345
 20
851.6260702530835
 10
378.69547068670545
 20
851.7473416008615
 10
378.8522848983821
 20
851.7705455578443
 10
383.881485854773
 20
854.8153520877877
 10
388.1263976286118
 20
855.4033450855268
 10
391.47019996894323
 20
856.0824861814117
 10
397.3955882336368
 20
857.4232545557306
 10
399.2615697085939
 20
857.2027789212761
 10
406.6608026807262
 20
857.9678607104634
 10
407.67504036117225
 20
857.844883719994
 10
415.9192343589675
 20
857.1661425307284
 10
417.5444251988911
 20
857.3636544305973
 10
420.2046962556824
 20
858.5970333201185
 10
423.3675198100118
 20
859.9430836439733
 10
425.1741606803889
 20
860.5938181629881
 10
433.55455477356827
 20
859.279366555239
 10
434.468912969327
 20
859.1365231000191
 10
435.34168019541085
 20
858.5876894662724
 10
438.1681579690712
 20
855.8169513481389
 10
442.66485474708225
 20
851.5949743773535
 10
443.77684060788215
 20
844.7447567167155
 10
443.7956132015106
 20
844.6019659689891
 10
443.80088300929947
 20
844.5828460842686
 10
444.5624296032338
 20
837.627128946664
 10
444.68577523310614
 20
836.9428138177827
 10
445.3399092547861
 20
830.6495465763264
 10
445.3399092547861
 20
829.4660801931996
 10
444.78436641466214
 20
823.6914069984296
 10
445.52941498944983
 20
822.3833307598661
 10
447.7329720787666
 20
816.7422502690824
 10
453.01881640047395
 20
810.1514648638404
 10
453.39113583379094
 20
809.7887805381233
 10
455.85436264236796
 20
807.6508911298033
 10
461.2646604696183
 20
802.8219558479541
 10
462.26601835765814
 20
802.1305177844242
 10
471.10673899221183
 20
796.1701245308695
 10
471.5067845934218
 20
795.8996893515359
 10
480.53299113510275
 20
796.0303316161926
 10
480.7484697208265
 20
795.9995792138179
 10
489.2957635163166
 20
796.3930846052654
 10
489.9928022469794
 20
796.5580410338644
 10
497.3034571675407
 20
797.329292160538
 10
499.2624671795329
 20
798.1077529641507
 10
506.816096250649
 20
795.8565693125256
 10
508.5766121839588
 20
793.3355534402017
 10
517.1272613171041
 20
789.4111037157127
 10
517.8348441969711
 20
788.9952314527382
 10
517.9469285594723
 20
788.8744552683011
 10
518.3860790047675
 20
788.4632164982568
 10
523.1823521420729
 20
781.8922405280373
 10
527.1206868845056
 20
775.3127865394863
 10
527.1700655125933
 20
774.8613434353811
 10
527.1513900446689
 20
774.8331148774696
 10
527.1220347377166
 20
774.340106831015
 10
525.1008344548727
 20
769.4433728839804
 10
525.990712908143
 20
767.9040294647566
 10
523.0442531232175
 20
763.97751655721
 10
522.6682627781584
 20
760.9527849582428
 10
525.7892055798375
 20
755.0012886929544
 10
526.3731270963053
 20
754.0136452245915
 10
527.1015843955001
 20
753.2561466246598
 10
533.2468083906078
 20
747.0543943548737
 10
536.353149071525
 20
744.7851006912542
 10
542.6025573407815
 20
740.0809252913432
 10
545.6244433413458
 20
736.343289286564
 10
548.9820341334453
 20
733.1034013937315
 10
551.8880162755922
 20
728.3883302072945
 10
553.5575329308467
 20
726.1314012332668
 10
554.8896605992413
 20
724.5123467821359
 10
558.5391181836976
 20
719.15695625634
 10
562.4152163875333
 20
713.494718476577
 10
563.4607933304505
 20
712.1863443886041
 10
564.1559066054069
 20
710.9893986913112
 10
567.1510379442043
 20
705.2134462716003
 10
571.1478569065175
 20
699.9507973579584
 10
572.4036624667297
 20
698.2517143443474
 10
573.4257095984949
 20
697.2398317843381
 10
573.4257095984949
 20
547.5791862370806
 10
573.4254701101518
 20
507.71829918228013
 10
573.4254738796753
 20
461.68482314488756
 10
573.4254765984533
 20
426.83117469151966
 10
573.4254799486289
 20
385.5500118888458
 10
573.4254835983475
 20
341.34074987609347
 10
573.4254866596575
 20
303.42808825199154
 10
573.4254901082113
 20
261.68159182065756
 10
573.425494925722
 20
206.0155783830587
 10
573.425498180316
 20
166.67837028479698
 10
573.4255011501891
 20
130.43838645857522
 10
573.425502110631
 20
114.90535307337905
 10
573.4255032856863
 20
97.23669056084009
 10
573.4255045642676
 20
78.57971748241744
 10
573.4255047143879
 20
71.13898459603479
 10
573.4255019548118
 20
71.13898459603433
 10
573.4255019777829
 20
70.73666805854009
 10
573.4255025214543
 20
59.62151337485557
 10
573.4255019777829
 20
59.35495239239572
 10
573.4255036133682
 20
37.4351611095708
 10
573.4255053071283
 20
15.02945561161323
 10
573.4255048166951
 20
13.000000280608674
 10
573.2755050647493
 20
13.000000267246378
 10
573.2755041550527
 20
15.166864359212923
 10
573.2755023228847
 20
27.514242114784793
 10
573.2754998896035
 20
45.643346768497395
 10
573.275497973329
 20
58.59408180067476
 10
573.2754968275704
 20
63.942256628763516
 10
573.2754964219603
 20
65.86018101587479
 10
573.2754923603743
 20
65.86018101587433
 10
573.2754898702169
 20
83.45907942586473
 10
573.2754850694919
 20
122.96555841830968
 10
573.2754775655831
 20
187.77128868687942
 10
573.2754688028672
 20
264.0350082357527
 10
573.2754577682617
 20
361.1776905520537
 10
573.275455296859
 20
382.9257721561162
 10
568.1971707330586
 20
381.37459684072655
 10
564.1039644426601
 20
380.0757778544639
 10
560.9290957856037
 20
379.86152010272417
 10
554.8340358591349
 20
378.862612474637
 10
552.88876642787
 20
378.9359648533564
 10
545.5611441194051
 20
378.690541377955
 10
543.1843029406364
 20
379.2610114484096
 10
536.3008360165813
 20
380.2090726856877
 10
532.3471459486436
 20
380.4473064603826
 10
527.0261866933279
 20
382.13826058627274
 10
518.7717896771837
 20
384.44902851638744
 10
517.7717769688297
 20
384.74807138679716
 10
517.3029278903205
 20
384.804334227807
 10
508.5166433078939
 20
385.8587062105835
 10
506.1876360319893
 20
386.1994570937022
 10
499.2654612950155
 20
387.1356927660918
 10
496.21472956343405
 20
386.74498673203834
 10
490.0104870728219
 20
386.9849131459214
 10
487.3047588573254
 20
386.49329786549606
 10
480.76253881869707
 20
384.65760461281207
 10
480.54663304037786
 20
384.61182101289796
 10
480.0319782776378
 20
384.45012756957567
 10
474.33513334391864
 20
382.31704094321685
 10
471.49692682288514
 20
381.8323155895314
 10
466.8161504315922
 20
381.000335003896
 10
462.2271588363201
 20
380.1521283508655
 10
458.20140505604104
 20
380.49851894376934
 10
452.94585403925794
 20
380.92080332467594
 10
443.95738107972284
 20
384.4510618418735
 10
443.67817887366436
 20
384.55597238548944
 10
443.44223589559624
 20
384.6282322034822
  0
LWPOLYLINE
  5
93
330
17
100
AcDbEntity
  8
CORTE
100
AcDbPolyline
 90
283
 70
1
 10
421.6784240098614
 20
848.8979167603866
 10
416.05570810380505
 20
848.214579595453
 10
409.82524683725933
 20
848.7275309756442
 10
406.5987187384799
 20
849.1187496445045
 10
401.3189929590326
 20
848.572825214098
 10
397.7680050302133
 20
848.9923933218497
 10
394.3063164027226
 20
848.2090990589013
 10
389.3044232380971
 20
847.193192357613
 10
387.7378411789805
 20
846.9761939062391
 10
385.6972943093424
 20
845.7407947867359
 10
383.344398985083
 20
844.117178936347
 10
380.9411800473563
 20
843.4233995847817
 10
376.1016727092283
 20
841.7992020005613
 10
371.7520447571551
 20
840.3004634675335
 10
369.32503987326254
 20
839.5639885245946
 10
363.3016264674816
 20
837.9787630435885
 10
356.6836194596226
 20
835.0290611179189
 10
352.3062469509405
 20
834.508787844361
 10
349.62298622624076
 20
833.8742087439832
 10
343.9188033936207
 20
831.2034163362341
 10
342.36917840510796
 20
830.9416522065467
 10
338.92051917080425
 20
830.7073148760137
 10
333.25390610516206
 20
830.3222634689873
 10
332.9186610257402
 20
830.3264526648763
 10
324.9101359912829
 20
829.4305468089369
 10
323.6535667224989
 20
829.5783035756485
 10
318.5270466490965
 20
828.4668218603201
 10
315.1132776534423
 20
827.8559731625737
 10
310.1036838704458
 20
827.2015419121781
 10
305.01308575904204
 20
826.9198746021657
 10
301.24044141219656
 20
826.8894312835309
 10
296.53918845445696
 20
826.0379926325913
 10
294.191588038143
 20
825.7733710471766
 10
287.861551845388
 20
824.1467826259241
 10
282.33139422552995
 20
821.8432382181463
 10
278.6449159067497
 20
820.7628528871955
 10
275.0197273333097
 20
820.0637174985022
 10
270.24977048736673
 20
818.0019392679615
 10
268.3824778794733
 20
817.3630439965618
 10
259.735321618793
 20
816.8410266602314
 10
258.26712313837106
 20
816.3215476210562
 10
265.0083846759753
 20
816.6431577110334
 10
267.7310660035646
 20
816.8968219925928
 10
268.2684901087405
 20
816.8110087110208
 10
277.4021762850398
 20
816.8963187817535
 10
278.35608780773055
 20
816.6931752657147
 10
279.0646383345975
 20
816.5636135142968
 10
287.36390136564387
 20
815.2927926967659
 10
289.498985330104
 20
814.9382775254726
 10
296.60177426698556
 20
813.9475185875181
 10
300.60306674196
 20
813.2556304003483
 10
305.5796700842002
 20
813.3405777755743
 10
313.07117144097174
 20
811.4864647288459
 10
316.4794235863983
 20
810.6236227543977
 10
319.7706711232968
 20
808.9794824121636
 10
327.5449128364962
 20
805.2303214887679
 10
332.4417722971084
 20
799.8089878939136
 10
335.07774337590035
 20
794.8973784653435
 10
336.456197187581
 20
792.612814218025
 10
337.7735562876969
 20
790.7477073210348
 10
341.67810074577574
 20
787.272117118283
 10
345.22916360458476
 20
784.7401896452593
 10
353.43148204368936
 20
781.292808264815
 10
353.683052105197
 20
781.1933355427173
 10
354.0738147111406
 20
781.0331974612154
 10
363.38949616132595
 20
777.1208138877155
 10
369.4510736742204
 20
773.7506430441854
 10
374.06101864044103
 20
770.3697933179683
 10
379.1645809184474
 20
765.5465573922665
 10
384.4500308598963
 20
758.3779954581041
 10
385.0322379002073
 20
757.5899358696433
 10
385.3331068203497
 20
756.9822785847509
 10
389.2785671568463
 20
750.18578974313
 10
391.6173870182929
 20
745.0830902578064
 10
392.2731566710263
 20
743.7406929544395
 10
392.9337718098568
 20
742.9074902368593
 10
398.9542361430058
 20
738.7095607272895
 10
401.04429817882556
 20
737.2096851681754
 10
408.2367316662494
 20
733.4372256266688
 10
409.89847996617755
 20
732.6107969228597
 10
410.42165207949165
 20
732.3172056185922
 10
418.54707148784837
 20
728.9043998955349
 10
426.80025308984295
 20
725.6049080104785
 10
427.3784191410223
 20
725.4045804035504
 10
427.7539358341146
 20
725.2834381833836
 10
435.92514014145854
 20
723.1831676559605
 10
440.59583285974986
 20
722.3342189268305
 10
446.2148368748067
 20
720.9924336190343
 10
451.29352725003537
 20
718.210211758168
 10
455.6710593653643
 20
715.7882205284131
 10
461.0674182822513
 20
714.1580214267105
 10
463.28840185356876
 20
713.5227042463139
 10
468.3914610033771
 20
713.3815807859883
 10
469.60439038060485
 20
713.9473614611697
 10
476.745958518065
 20
714.7049527193585
 10
483.06450585962193
 20
714.9772020868359
 10
489.7401034608165
 20
709.5747811446581
 10
492.0843578340091
 20
704.6875704203076
 10
493.95170300009795
 20
702.098281216714
 10
495.9237819980308
 20
699.0194434875684
 10
498.85844764134345
 20
693.9305622368565
 10
500.9765132073053
 20
686.3022383727175
 10
495.31397512073
 20
681.9227390345122
 10
493.497446844538
 20
676.6199740234943
 10
491.59954916595507
 20
673.1988888943397
 10
489.6971659002402
 20
671.1449557022888
 10
491.4219942457421
 20
669.0153218412852
 10
492.97030654081846
 20
668.3364458976594
 10
497.30916784001784
 20
666.125159233552
 10
504.5733667280474
 20
665.2161937711489
 10
507.04023078936007
 20
657.1666650173329
 10
506.86119912950926
 20
654.7220393297739
 10
505.762542489254
 20
650.3479685915463
 10
505.16309398006797
 20
649.2634281795863
 10
505.16647842068414
 20
649.2453179234508
 10
503.16834764025134
 20
640.7352010867371
 10
501.73614440928486
 20
639.3009934186503
 10
501.4717709385259
 20
636.5553824240114
 10
498.0823184781548
 20
631.2359847349599
 10
497.8644519029849
 20
630.9979312743626
 10
497.04092819008565
 20
627.3988626718383
 10
496.88014668750657
 20
625.9638341055661
 10
496.3731406290881
 20
622.0747159258426
 10
496.53914294699825
 20
620.9922286032406
 10
494.937532359073
 20
615.85403626693
 10
495.4808329487814
 20
613.1843093284424
 10
493.2616677906908
 20
609.7181656993052
 10
493.4497845142696
 20
609.0738068219052
 10
494.2538873217927
 20
603.7090919949669
 10
494.7115242109012
 20
601.2764364064624
 10
494.74156119606323
 20
595.546225071098
 10
494.8580800623022
 20
593.8643552534295
 10
494.8347884091809
 20
589.1949941044022
 10
505.68677665624
 20
582.1941508494956
 10
501.7680669837464
 20
574.1242375796446
 10
501.5031406646476
 20
570.6938474601029
 10
500.13100812365974
 20
568.2159399411412
 10
499.89415078001457
 20
564.8112077273399
 10
499.54044981881543
 20
563.1064747043956
 10
499.5662841745261
 20
558.6375918079902
 10
499.4360633807719
 20
556.0014695990612
 10
498.2781452549607
 20
550.3806656757934
 10
497.67870931988637
 20
547.634693399732
 10
494.7343542217941
 20
544.261604250516
 10
491.763915775221
 20
542.0512724326027
 10
490.6826186247217
 20
540.7633217167913
 10
489.4268495878259
 20
538.7581782616871
 10
486.3004790880341
 20
534.4520494195149
 10
484.626248068098
 20
530.4711369955094
 10
483.91096782396744
 20
528.2447652016899
 10
481.36135811281656
 20
523.2888122960485
 10
476.28532627871937
 20
518.8886912254357
 10
472.6917098857193
 20
515.0553281327066
 10
470.41551512177284
 20
512.7013669988564
 10
470.20867254940094
 20
512.3626306846818
 10
468.72956819619776
 20
509.0185878002849
 10
469.0593932335769
 20
503.87660381893966
 10
470.29608499094684
 20
496.0210289292054
 10
469.9926912762212
 20
494.1995918179855
 10
469.00683643679713
 20
488.36130326529565
 10
468.9928381060781
 20
488.3053812024982
 10
468.03962252882957
 20
481.6893616653815
 10
467.6684002184238
 20
479.8559562735518
 10
464.51695657267646
 20
473.46045856806904
 10
460.8196820937983
 20
470.02485847230673
 10
458.6737179105439
 20
468.10147190679345
 10
456.8180494516473
 20
467.1301792281856
 10
454.2191140878049
 20
464.9795420424416
 10
452.31095193252804
 20
463.57013680309683
 10
451.7695173029424
 20
460.34024134198444
 10
451.6238664561861
 20
458.5741600445099
 10
450.11917002817154
 20
455.29400848359
 10
449.127525228826
 20
452.53733985778126
 10
448.67096141596267
 20
451.413449174619
 10
446.1880448348411
 20
446.2835484265361
 10
444.04851203068847
 20
443.36868311226954
 10
442.1344310023669
 20
440.3045995597322
 10
438.5657326825931
 20
437.9864451618905
 10
436.72490285302047
 20
436.44530012797895
 10
434.99026183065416
 20
435.1009543316104
 10
433.8330367638273
 20
433.92166224626726
 10
431.6319487078381
 20
429.7028546086003
 10
430.89199657289464
 20
428.6535495863818
 10
430.336460462584
 20
428.06908918801855
 10
427.37339892362525
 20
424.57321002821027
 10
426.00564593127183
 20
422.639010406896
 10
424.7792959430899
 20
420.45840602951375
 10
422.15705658860225
 20
416.60738080500505
 10
421.0791128816545
 20
411.7320635735741
 10
421.87145577286356
 20
409.1758771763907
 10
427.1131959357044
 20
404.35724533629764
 10
428.9561612126645
 20
403.5636259408857
 10
436.6600936072882
 20
396.67539980228867
 10
437.9617901500769
 20
395.53289054126617
 10
441.53778532300475
 20
394.3363170203056
 10
445.93637421568747
 20
392.9892066489274
 10
451.26889135654346
 20
390.9855073229746
 10
454.5398815820017
 20
389.7008128976722
 10
455.97749481761366
 20
389.5853004398459
 10
461.8849196428737
 20
389.07700398173165
 10
463.5734119105364
 20
389.3890965940818
 10
470.2951898710653
 20
390.5838532533644
 10
470.49317530586904
 20
390.61766635300955
 10
471.70595695061184
 20
391.07177179860173
 10
476.9864888865259
 20
392.7308012161984
 10
479.0891965826295
 20
393.17668797588885
 10
484.0672008925112
 20
394.5734751321643
 10
489.5141554411457
 20
395.56315549715873
 10
493.7271970776019
 20
395.40023150234356
 10
499.29038324825615
 20
396.1127066055906
 10
504.05936998256584
 20
395.46769319990926
 10
509.44049427599657
 20
394.68039516347744
 10
515.1620241666797
 20
393.9937999640206
 10
519.2020005726608
 20
393.50899459565517
 10
527.012831284228
 20
391.1732510428419
 10
529.0303503340083
 20
390.6084589314969
 10
529.5858541127063
 20
390.4319247087251
 10
536.9899104764245
 20
389.98578546531644
 10
539.9199670819353
 20
389.58222819957155
 10
546.2736433048631
 20
388.0572705562454
 10
549.9285860704622
 20
388.1796852657062
 10
554.3954869927966
 20
388.0112470006052
 10
557.8049300250714
 20
388.5700140502413
 10
562.7909287702923
 20
388.90649690881673
 10
564.337260735676
 20
389.3971649018804
 10
566.4254791786298
 20
390.0350166924127
 10
566.425477095836
 20
415.2640244913946
 10
566.4254737040419
 20
457.0579967919275
 10
566.4254709514917
 20
492.3446097951837
 10
566.4254671352683
 20
538.949972889076
 10
566.4257095984949
 20
579.3060051974862
 10
566.4257095984949
 20
689.1246266695016
 10
561.8477851167354
 20
693.6570222901737
 10
558.5930231132916
 20
698.0606584967663
 10
556.0581645235206
 20
701.2510033662466
 10
553.9909771079401
 20
704.7843446993465
 10
551.9946180361376
 20
708.221961973155
 10
549.6847019214365
 20
711.1124564607608
 10
546.389958942138
 20
714.3341443737036
 10
540.301488171277
 20
721.1914842813349
 10
539.5659266795938
 20
722.0876110127265
 10
539.0334639718785
 20
722.9767093085939
 10
535.4645159169249
 20
728.952759414874
 10
531.6263763532434
 20
733.2963081644612
 10
530.0776644782673
 20
734.4178387391594
 10
523.192085270126
 20
739.4042468994867
 10
519.3300591535526
 20
741.7900682979134
 10
514.9032817897614
 20
747.664436539987
 10
512.8983883388028
 20
749.7492587852903
 10
512.2036873677453
 20
750.9242743604627
 10
506.5307246851853
 20
757.0467462370043
 10
503.0480067516728
 20
764.6557369918291
 10
503.0212721626058
 20
764.6799636867372
 10
499.7094641682097
 20
770.6819914356038
 10
493.7870525740418
 20
776.6257358220228
 10
493.21749738886047
 20
777.5546213296702
 10
490.5228692660494
 20
780.2885034915771
 10
490.14539414639603
 20
783.2594210405805
 10
489.4469355672527
 20
783.435184080301
 10
487.57955548358586
 20
783.2717409315283
 10
479.98599644163824
 20
785.0611087162142
 10
477.69483798483
 20
785.0302608235088
 10
469.8999100137198
 20
782.6133987445919
 10
460.89557600846456
 20
790.265733524514
 10
458.3206264006776
 20
792.0017585506312
 10
450.6340006133714
 20
797.3093770484074
 10
448.1404414402259
 20
799.5349912850079
 10
442.54555312280536
 20
805.4181040486092
 10
437.5886311210843
 20
813.004953917818
 10
436.67663386701133
 20
815.0924020288412
 10
436.64453139073794
 20
815.7323395203712
 10
434.8173839090359
 20
822.3565360710218
 10
434.4812921483235
 20
825.3238983729743
 10
435.0734307456787
 20
831.3303937034716
 10
435.12731808755325
 20
831.8684699801706
 10
434.6059143730072
 20
837.1697133733287
 10
434.5544213642115
 20
838.8313581253306
 10
434.0925750948354
 20
843.2616748825976
 10
433.37872456086006
 20
845.746268798137
 10
432.99304342993946
 20
848.1221980140954
 10
431.1434883411366
 20
849.8587569542733
 10
425.9808098503827
 20
850.8926277341898
 10
421.6784240098614
 20
848.8979167603866
  0
LWPOLYLINE
  5
94
330
17
100
AcDbEntity
  8
GRABADO
100
AcDbPolyline
 90
377
 70
1
 10
480.6867737770017
 20
538.6346071061207
 10
483.62150213743826
 20
542.6767762724621
 10
485.00844470277934
 20
544.8913704580082
 10
486.9288044218247
 20
547.1787423183869
 10
489.95395062393436
 20
549.429782703377
 10
491.22312400359897
 20
550.8837632229806
 10
491.430418874882
 20
551.8333659014415
 10
492.47120082304536
 20
556.88556357164
 10
492.5652852235853
 20
558.790159378711
 10
492.5362948136917
 20
563.8049833744462
 10
492.94389940144447
 20
565.7695157825256
 10
493.25556524158947
 20
570.2495910445223
 10
494.6412428213853
 20
572.7519592861208
 10
494.89110764769066
 20
575.9873261394141
 10
496.68115645955186
 20
579.6736259339414
 10
489.9582424771952
 20
584.0107175281437
 10
487.2416896175582
 20
586.6513561905094
 10
487.83006523579843
 20
588.2655811652867
 10
487.85687188864085
 20
593.6396069018056
 10
487.7428305860776
 20
595.2857147892246
 10
487.71494473480743
 20
600.6055503247435
 10
487.35050452795895
 20
602.5428012915381
 10
486.5974023018789
 20
607.567256672929
 10
485.6501496443643
 20
610.8118946157902
 10
488.055572910308
 20
614.5689572653318
 10
487.7195173512837
 20
616.2203020195084
 10
489.37475869257196
 20
621.5305493659434
 10
489.3035243301074
 20
621.9950627249855
 10
489.93071099433837
 20
626.8060566321346
 10
490.1058946655021
 20
628.369629359292
 10
490.11334619391255
 20
628.505991566909
 10
491.4529901090027
 20
634.3606746535543
 10
492.50666429154353
 20
635.5119792320556
 10
494.6651016444257
 20
638.8994250809428
 10
495.00899243247477
 20
642.470851237701
 10
496.8086488259387
 20
644.2730263366111
 10
498.01463528359545
 20
649.4093696423934
 10
497.8203340972441
 20
650.449081858188
 10
499.19536570756827
 20
652.9368307244649
 10
499.92422629576504
 20
655.8386361241364
 10
499.96312108704296
 20
656.3697332828724
 10
499.2082448674373
 20
658.8329406928724
 10
495.2232245757068
 20
659.3315842278298
 10
489.9730558334786
 20
662.0073157904271
 10
487.05304984729446
 20
663.2876271498135
 10
482.50652424969667
 20
668.9011914722078
 10
481.07282533229136
 20
670.3064836628046
 10
483.75090052230826
 20
675.0263489279487
 10
485.88892089613273
 20
677.3346908326639
 10
487.07590010788226
 20
679.474298766092
 10
488.722987459093
 20
684.2824359641554
 10
488.9191908169141
 20
685.0569567209732
 10
489.9496436989839
 20
686.6231977387561
 10
492.97326759171756
 20
688.9617177866121
 10
492.3510871572407
 20
691.202533147758
 10
489.941325802105
 20
695.3811997726207
 10
488.16128259380093
 20
698.1602285006684
 10
486.0423516582623
 20
701.0983703579877
 10
484.11066578744703
 20
705.1254742473448
 10
480.7197419950544
 20
707.8696776585975
 10
477.266349550815
 20
707.7208801806692
 10
471.5046654732787
 20
707.1096696726172
 10
469.85148042695164
 20
706.3385281954033
 10
462.2122157354179
 20
706.54978960468
 10
459.0925881378871
 20
707.4421658629944
 10
452.9338600837773
 20
709.3026708990892
 10
447.9175132206565
 20
712.0781041312848
 10
443.6754201000331
 20
714.402019027455
 10
439.1559287172886
 20
715.4812471468558
 10
434.4260069131442
 20
716.340961400545
 10
425.80628840663667
 20
718.5565149533586
 10
425.1577167327514
 20
718.7657450993329
 10
424.3537783726815
 20
719.0443001052208
 10
415.89225208404787
 20
722.427084911239
 10
407.34350769289813
 20
726.0176938775985
 10
406.62506519450653
 20
726.4208661124621
 10
405.0521115438987
 20
727.2031350316965
 10
397.36010491433717
 20
731.2376226434008
 10
394.9115712216808
 20
732.9947455317861
 10
388.0870906043656
 20
737.7532968636442
 10
386.3165891287863
 20
739.9863468714657
 10
385.2898999377867
 20
742.0880372983538
 10
383.0555422714742
 20
746.9628273161161
 10
379.16282861464697
 20
753.6684542077401
 10
379.033959365207
 20
753.9287281442566
 10
378.8178827829488
 20
754.2212035193388
 10
373.90177128030064
 20
760.8888382850419
 10
369.5697807616625
 20
764.9828830249935
 10
365.6655977572673
 20
767.8461397749625
 10
360.3242458042105
 20
770.8158730793584
 10
351.3913029500063
 20
774.5675147679121
 10
351.0687728687508
 20
774.6996905381966
 10
350.7880908630441
 20
774.810674345189
 10
341.79922021479797
 20
778.5886385310532
 10
337.3063625817895
 20
781.7920708907986
 10
332.5193699861511
 20
786.0531632524489
 10
330.5930388537208
 20
788.7804480760524
 10
328.99320146760056
 20
791.4319197923214
 10
326.67648284064217
 20
795.7486655802641
 10
323.2692955723778
 20
799.5207768589271
 10
316.6860708284794
 20
802.6955648151397
 10
314.02802740305924
 20
804.0233884984536
 10
311.37132514746463
 20
804.6959661487945
 10
304.7852213291899
 20
806.3259973581644
 10
300.0616594961439
 20
806.2453692365634
 10
295.52160091215956
 20
807.0304187981646
 10
288.4419779963955
 20
808.0179463374834
 10
286.26079613142974
 20
808.3801157300477
 10
277.90508188164404
 20
809.6595806143687
 10
276.99724266580233
 20
809.8255832272389
 10
276.6974293471503
 20
809.8894310058395
 10
267.7456406807023
 20
809.8058198865638
 10
267.50024949843737
 20
809.8450027635809
 10
265.50010206021943
 20
809.6586548580117
 10
258.9171390574029
 20
809.3445968272054
 10
258.51197483261603
 20
809.2658110583561
 10
252.8121681100538
 20
806.9827074949844
 10
249.25744713639324
 20
806.1300842499422
 10
246.65518236084517
 20
804.6971151715898
 10
246.0434263430543
 20
802.72566566368
 10
243.66669961429398
 20
799.9717723532103
 10
240.01426921319126
 20
796.0614413991862
 10
239.73525672509095
 20
795.9335822599132
 10
239.4766692605681
 20
795.7307237279774
 10
234.72108505080723
 20
792.7306995375802
 10
230.73177526577183
 20
791.1432079427113
 10
228.32849116484522
 20
790.5638054068831
 10
225.13479354847823
 20
788.7550213390323
 10
222.90641191496252
 20
787.6721164036862
 10
221.4486522852112
 20
787.3221462554811
 10
215.26890544207708
 20
788.771012467847
 10
217.06629754890128
 20
792.044234326565
 10
214.04583323937004
 20
795.7731439888248
 10
215.10910833189064
 20
800.519418128396
 10
215.2960651103649
 20
802.780172086228
 10
216.69724446912824
 20
806.3210963587499
 10
218.70453681490744
 20
809.7757435123676
 10
219.70833484081686
 20
811.0514547980783
 10
221.40192417698472
 20
812.7084259179483
 10
224.35325680363712
 20
814.5351563469476
 10
226.01293204964622
 20
816.7545277732097
 10
228.1008178182792
 20
818.6971806886922
 10
230.6908274518155
 20
819.9941426709811
 10
235.61572441541466
 20
820.0568126731869
 10
239.971153325434
 20
819.9487650432784
 10
245.125886347887
 20
819.8583145867133
 10
249.21482894252404
 20
821.5141291526124
 10
252.1130563896577
 20
821.5693564848843
 10
258.27004644707176
 20
823.7478271221216
 10
258.44200617026127
 20
823.7756946422887
 10
258.4815147476911
 20
823.7830850469281
 10
267.0138531651746
 20
824.2931656582878
 10
267.7241827704638
 20
824.5362053533181
 10
272.9438248508377
 20
826.7923566687505
 10
276.99411456364214
 20
827.5734748962068
 10
279.99423723174914
 20
828.4527120004004
 10
285.42482321884654
 20
830.714780614252
 10
285.95912398223936
 20
830.9422447383331
 10
286.26062907481264
 20
830.9628157423685
 10
292.9223320220417
 20
832.6746304223834
 10
295.52227873684296
 20
832.9676964897108
 10
300.58366995438246
 20
833.8843593770043
 10
304.7913576215178
 20
833.9183132736853
 10
309.456047893852
 20
834.1764147250851
 10
314.0428232073873
 20
834.775610834341
 10
317.16850315811917
 20
835.3349098173439
 10
323.31144011512697
 20
836.6667610552931
 10
324.9300199525587
 20
836.4764363916347
 10
332.5719500792402
 20
837.3313316341073
 10
333.0600447983934
 20
837.3252324412588
 10
338.4459595104481
 20
837.6912101450425
 10
341.54690170226695
 20
837.9019200082093
 10
341.81341184163193
 20
837.9469391549064
 10
347.30895490710645
 20
840.520042985273
 10
351.0836841159271
 20
841.4127494760933
 10
354.8034149456116
 20
841.8548586481311
 10
360.3222545055023
 20
844.3146523077539
 10
360.5754581904166
 20
844.4680429034743
 10
361.18134645845566
 20
844.6591132642234
 10
367.4172756978505
 20
846.3002680816153
 10
369.5947876990249
 20
846.9610343773311
 10
373.84783934869847
 20
848.4264958973863
 10
378.8558632564818
 20
850.1072496940915
 10
380.30728442117106
 20
850.5262568925955
 10
381.8934137803699
 20
851.62076574805
 10
385.34743248616996
 20
853.7119167680958
 10
388.1263976286118
 20
854.0968510451248
 10
392.8370587240879
 20
855.0536072206132
 10
397.3955882336368
 20
856.0850893660481
 10
401.3703207009139
 20
855.6154535876276
 10
406.6608026807262
 20
856.1624902107505
 10
410.53398339076193
 20
855.6928644845066
 10
415.9192343589675
 20
855.2494989295919
 10
419.73677095315907
 20
855.7134499235399
 10
425.17412947026514
 20
858.234367178432
 10
425.9461963370468
 20
858.038541940623
 10
434.47779375574555
 20
856.3300161641273
 10
439.5209399627656
 20
851.5949743773535
 10
440.2215503450234
 20
847.2789720045248
 10
440.99084649109045
 20
844.6013967520084
 10
441.5431568658505
 20
839.303292012919
 10
441.59528289031186
 20
837.6212202712641
 10
442.16170882304596
 20
831.8622246027389
 10
442.03912936711185
 20
830.6382433307917
 10
441.52026186278727
 20
825.3749903427351
 10
441.7111975588314
 20
823.689214454218
 10
443.5971802131562
 20
816.851715063237
 10
443.6037007666582
 20
816.7217329828554
 10
443.76884471108497
 20
816.3437390653289
 10
448.05712049465455
 20
809.7802901031673
 10
453.0154191226775
 20
804.5665613762794
 10
454.9700602492185
 20
802.8219558479541
 10
462.26601835765814
 20
797.7840935548138
 10
465.13175271837645
 20
795.8520221257786
 10
471.5014648996348
 20
790.4387211493495
 10
476.58854762757437
 20
792.016000295871
 10
480.753083252288
 20
792.0720711222866
 10
488.09000064210613
 20
790.3431791042331
 10
490.01147215334186
 20
790.5113566256805
 10
496.48731527372456
 20
788.8817483631719
 10
497.16887355634753
 20
783.5175445863106
 10
498.7658397836185
 20
781.8973145274967
 10
499.3253212217487
 20
780.9848582577661
 10
505.36283913014813
 20
774.9255929390074
 10
508.5864226364956
 20
769.0834554453413
 10
509.85728665816714
 20
767.931807486756
 10
509.5958970936954
 20
767.1693678689389
 10
512.4284289778789
 20
760.9808940014136
 10
517.8478280421041
 20
755.1320773926818
 10
518.5090753733311
 20
754.0136452245933
 10
520.2404520428881
 20
752.2132440142623
 10
524.128513721208
 20
747.0537557072239
 10
527.0896740683147
 20
745.2244569124832
 10
534.1833947075302
 20
740.0873166061692
 10
536.3591819012418
 20
738.5116769402739
 10
541.1407971833123
 20
733.1004148600787
 10
545.0410944366658
 20
726.5695347641704
 10
545.3052308534943
 20
726.1284837108742
 10
545.6260815673631
 20
725.7375947033142
 10
551.4604848425124
 20
719.1664066461462
 10
554.8853122594828
 20
715.817518686601
 10
557.7871368649949
 20
712.1863443886041
 10
560.0385947967716
 20
708.3094613234043
 10
561.8486123500861
 20
705.2156877320222
 10
564.1496861923088
 20
702.3195817494416
 10
567.1562788452911
 20
698.2517143443474
 10
573.4257095984949
 20
692.0446350001712
 10
573.4257095984949
 20
579.3059841823024
 10
573.4254671351418
 20
538.9499308323502
 10
573.4254709514917
 20
492.34461036839
 10
573.4254737040419
 20
457.0579973379663
 10
573.425477095836
 20
415.26402505948045
 10
573.4254807908928
 20
370.5055796676861
 10
573.4254838902316
 20
332.1219533029134
 10
573.4254873816253
 20
289.8568668537973
 10
573.4254922589789
 20
233.49935014367657
 10
573.4254955540027
 20
193.67348107525504
 10
573.4254985607695
 20
156.98331111454627
 10
573.4254995331421
 20
141.2573207929072
 10
573.4255007227939
 20
123.36917178952444
 10
573.4255020172586
 20
104.48043507037437
 10
573.4255021691497
 20
96.9519291046463
 10
573.425499375122
 20
96.95192910464584
 10
573.4254993986442
 20
96.53995646111798
 10
573.4254999490695
 20
85.28672532174278
 10
573.4254993986442
 20
85.01685302460737
 10
573.4255010545467
 20
62.824766195995835
 10
573.425502769348
 20
40.14072895272102
 10
573.425502273948
 20
38.090721381567164
 10
573.2755025220031
 20
38.09072136820487
 10
573.2755016029596
 20
40.27984464174642
 10
573.2754997480333
 20
52.78060597166859
 10
573.2754972845241
 20
71.13491689435887
 10
573.2754953444446
 20
84.2465306226004
 10
573.2754941844532
 20
89.66114240513707
 10
573.2754937728196
 20
91.60755032484485
 10
573.275489661105
 20
91.60755032484485
 10
573.2754871406732
 20
109.42041020586112
 10
573.2754822803126
 20
149.41765291247975
 10
573.2754746831861
 20
215.02842330860312
 10
573.2754658116182
 20
292.23951825559834
 10
573.2754552981214
 20
384.7946280364158
 10
573.0444087210371
 20
384.69838421348413
 10
572.0996240300829
 20
384.44892564561815
 10
566.4183453933219
 20
382.7135642119538
 10
564.1039644426601
 20
381.97918590143036
 10
558.608464017705
 20
381.6083190426971
 10
554.8340358591349
 20
380.98973528392344
 10
549.9138423807917
 20
381.1752663417783
 10
545.5611441194051
 20
381.0294817625909
 10
538.6224193815842
 20
382.6948579877271
 10
536.3008360165813
 20
383.01461011579704
 10
528.2956501696481
 20
383.49697105170253
 10
527.0261866933279
 20
383.90039539681584
 10
525.0663898975836
 20
384.44902851638744
 10
517.7717769688288
 20
386.63040278345215
 10
514.3279937164098
 20
387.0436637633393
 10
508.5166433078939
 20
387.74103760723847
 10
503.08355027858397
 20
388.53593905170965
 10
499.2654612950155
 20
389.05234195146295
 10
494.038702473149
 20
388.38295296877914
 10
490.0104870728219
 20
388.538729484093
 10
485.64190365524246
 20
387.7449829615889
 10
480.76253881869707
 20
386.3758732320248
 10
478.76564898481683
 20
385.9524255321194
 10
473.9839782776371
 20
384.45012756957567
 10
472.32603657261734
 20
383.8293395159417
 10
471.49692682288514
 20
383.68773934917954
 10
464.82207832486256
 20
382.5013241269644
 10
462.2271588363201
 20
382.0216919619097
 10
455.3971238821996
 20
382.6093731730416
 10
452.94585403925794
 20
382.8063331045032
 10
448.7581721146598
 20
384.4510618418735
 10
443.67817887366436
 20
386.3598750278343
 10
439.40189424443633
 20
387.66952853616385
 10
434.40369226437815
 20
389.34199056492344
 10
432.01831245214726
 20
391.4356571277076
 10
425.14037220605223
 20
397.58534865614365
 10
423.2517830505958
 20
398.3986146478983
 10
415.86591790836246
 20
405.18829972105414
 10
415.68975119639344
 20
405.40122474363943
 10
415.66600051076693
 20
405.55256818439193
 10
413.5385887239472
 20
412.415835503386
 10
414.31991766012834
 20
413.58579850415117
 10
415.6058545261385
 20
419.40182592838846
 10
415.68615678433616
 20
419.5428380848516
 10
415.85850692626536
 20
419.7944723283472
 10
418.8247577372031
 20
424.1507133692694
 10
420.08153856637364
 20
426.3854276057509
 10
421.8351282053072
 20
428.8652557871019
 10
425.12542311669495
 20
432.74721141276314
 10
425.4660178217646
 20
433.1055393653678
 10
425.6419884400184
 20
433.35507828116715
 10
428.10813318303644
 20
438.0819179226455
 10
430.3267425789427
 20
440.3428337773594
 10
432.33257634232723
 20
441.8973537923075
 10
434.3971513705237
 20
443.6258185861343
 10
437.0198078995236
 20
445.32944333161686
 10
438.2504752963441
 20
447.2995102584846
 10
440.16619198537137
 20
449.9094520728704
 10
442.27118702975895
 20
454.258537231437
 10
442.5887931973866
 20
455.040365757166
 10
443.63287783598025
 20
457.94281164080894
 10
444.74862532903717
 20
460.37507692223426
 10
444.8173237508918
 20
461.208075841947
 10
445.7249137096869
 20
466.6222487231844
 10
446.82740267994177
 20
468.2223160331587
 10
449.9050409793708
 20
470.49551882780906
 10
452.9211807410311
 20
472.9913955699067
 10
454.6528467764274
 20
473.8977829872874
 10
456.1008063112158
 20
475.1955613651153
 10
458.8076752165016
 20
477.71085178332487
 10
460.9878680540869
 20
482.1353060517995
 10
461.1394635423376
 20
482.8840110130732
 10
462.03162585998143
 20
489.0762758739238
 10
461.99855768466114
 20
489.1910350263033
 10
462.1500261634601
 20
489.7961378741538
 10
463.0891056698829
 20
495.35742023862167
 10
463.20490161504677
 20
496.05260613606515
 10
462.14962742044827
 20
502.755800699686
 10
462.0986746185072
 20
503.0146264661835
 10
462.09751942241473
 20
503.057943259495
 10
461.65224362715253
 20
509.99980863366545
 10
461.729183764307
 20
510.33336349538877
 10
462.15406717647693
 20
511.4572977998232
 10
463.9937420464448
 20
515.6165389278731
 10
464.844924433075
 20
517.010480131712
 10
467.6218865351657
 20
519.8823173584897
 10
471.42637466696215
 20
523.9406204148663
 10
471.44498133267734
 20
523.9657238184664
 10
471.4625197918731
 20
523.9874156372152
 10
475.7550551237082
 20
527.6929054099546
 10
477.42274619994896
 20
530.9345774191497
 10
478.05521658459475
 20
532.9031963434873
 10
480.1590059162054
 20
537.9054935103513
 10
480.28847192937155
 20
538.2133321838128
 10
480.6867737770017
 20
538.6346071061207
  0
TEXT
  5
95
330
17
100
AcDbEntity
  8
GRABADO
100
AcDbText
 10
431.59170456206175
 20
437.2505071914884
 30
0.0
 40
6.0
  1
81b
 72
1
 11
431.59170456206175
 21
437.2505071914884
 31
0.0
100
AcDbText
 73
2
  0
TEXT
  5
96
330
17
100
AcDbEntity
  8
HOJA
100
AcDbText
 10
10.0
 20
891.0
 30
0.0
 40
6.0
  1
gale_crater  hoja 33/39  1:30  lamina 3.0mm
 11
10.0
 21
891.0
 31
0.0
100
AcDbText
  0
ENDSEC
  0
SECTION
  2
OBJECTS
  0
DICTIONARY
  5
A
330
0
100
AcDbDictionary
281
1
  3
ACAD_COLOR
350
B
  3
ACAD_GROUP
350
C
  3
ACAD_LAYOUT
350
D
  3
ACAD_MATERIAL
350
E
  3
ACAD_MLEADERSTYLE
350
F
  3
ACAD_MLINESTYLE
350
10
  3
ACAD_PLOTSETTINGS
350
11
  3
ACAD_PLOTSTYLENAME
350
12
  3
ACAD_SCALELIST
350
14
  3
ACAD_TABLESTYLE
350
15
  3
ACAD_VISUALSTYLE
350
16
  3
EZDXF_META
350
2D
  0
DICTIONARY
  5
B
330
A
100
AcDbDictionary
281
1
  0
DICTIONARY
  5
C
330
A
100
AcDbDictionary
281
1
  0
DICTIONARY
  5
D
330
A
100
AcDbDictionary
281
1
  3
Model
350
1A
  3
Layout1
350
1E
  0
DICTIONARY
  5
E
330
A
100
AcDbDictionary
281
1
  3
ByBlock
350
1F
  3
ByLayer
350
20
  3
Global
350
21
  0
DICTIONARY
  5
F
330
A
100
AcDbDictionary
281
1
  3
Standard
350
2C
  0
DICTIONARY
  5
10
330
A
100
AcDbDictionary
281
1
  3
Standard
350
22
  0
DICTIONARY
  5
11
330
A
100
AcDbDictionary
281
1
  0
ACDBDICTIONARYWDFLT
  5
12
330
A
100
AcDbDictionary
281
1
  3
Normal
350
13
100
AcDbDictionaryWithDefault
340
13
  0
ACDBPLACEHOLDER
  5
13
330
12
  0
DICTIONARY
  5
14
330
A
100
AcDbDictionary
281
1
  0
DICTIONARY
  5
15
330
A
100
AcDbDictionary
281
1
  0
DICTIONARY
  5
16
330
A
100
AcDbDictionary
281
1
  3
2dWireframe
350
5A
  3
Basic
350
5B
  3
Brighten
350
5C
  3
ColorChange
350
5D
  3
Conceptual
350
5E
  3
Dim
350
5F
  3
EdgeColorOff
350
60
  3
Facepattern
350
61
  3
Flat
350
62
  3
FlatWithEdges
350
63
  3
Gouraud
350
64
  3
GouraudWithEdges
350
65
  3
Hidden
350
66
  3
JitterOff
350
67
  3
Linepattern
350
68
  3
Modeling
350
69
  3
OverhangOff
350
6A
  3
Realistic
350
6B
  3
Shaded
350
6C
  3
Shaded with edges
350
6D
  3
Shades of Gray
350
6E
  3
Sketchy
350
6F
  3
Thicken
350
70
  3
Wireframe
350
71
  3
X-Ray
350
72
  0
LAYOUT
  5
1A
330
D
100
AcDbPlotSettings
  1

  4
A3
  6

 40
7.5
 41
20.0
 42
7.5
 43
20.0
 44
420.0
 45
297.0
 46
0.0
 47
0.0
 48
0.0
 49
0.0
140
0.0
141
0.0
142
1.0
143
1.0
 70
1024
 72
1
 73
0
 74
5
  7

 75
16
 76
0
 77
2
 78
300
147
1.0
148
0.0
149
0.0
100
AcDbLayout
  1
Model
 70
1
 71
0
 10
0.0
 20
0.0
 11
420.0
 21
297.0
 12
0.0
 22
0.0
 32
0.0
 14
1e+20
 24
1e+20
 34
1e+20
 15
-1e+20
 25
-1e+20
 35
-1e+20
146
0.0
 13
0.0
 23
0.0
 33
0.0
 16
1.0
 26
0.0
 36
0.0
 17
0.0
 27
1.0
 37
0.0
 76
1
330
17
  0
LAYOUT
  5
1E
330
D
100
AcDbPlotSettings
  1

  4
A3
  6

 40
7.5
 41
20.0
 42
7.5
 43
20.0
 44
420.0
 45
297.0
 46
0.0
 47
0.0
 48
0.0
 49
0.0
140
0.0
141
0.0
142
1.0
143
1.0
 70
0
 72
1
 73
0
 74
5
  7

 75
16
 76
0
 77
2
 78
300
147
1.0
148
0.0
149
0.0
100
AcDbLayout
  1
Layout1
 70
1
 71
1
 10
0.0
 20
0.0
 11
420.0
 21
297.0
 12
0.0
 22
0.0
 32
0.0
 14
1e+20
 24
1e+20
 34
1e+20
 15
-1e+20
 25
-1e+20
 35
-1e+20
146
0.0
 13
0.0
 23
0.0
 33
0.0
 16
1.0
 26
0.0
 36
0.0
 17
0.0
 27
1.0
 37
0.0
 76
1
330
1B
  0
MATERIAL
  5
1F
102
{ACAD_REACTORS
330
E
102
}
330
E
100
AcDbMaterial
  1
ByBlock
  2

 70
0
 40
1.0
 71
1
 41
1.0
 91
-1023410177
 42
1.0
 72
1
  3

 73
1
 74
1
 75
1
 44
0.5
 73
0
 45
1.0
 46
1.0
 77
1
  4

 78
1
 79
1
170
1
 48
1.0
171
1
  6

172
1
173
1
174
1
140
1.0
141
1.0
175
1
  7

176
1
177
1
178
1
143
1.0
179
1
  8

270
1
271
1
272
1
145
1.0
146
1.0
273
1
  9

274
1
275
1
276
1
 42
1.0
 72
1
  3

 73
1
 74
1
 75
1
 94
63
  0
MATERIAL
  5
20
102
{ACAD_REACTORS
330
E
102
}
330
E
100
AcDbMaterial
  1
ByLayer
  2

 70
0
 40
1.0
 71
1
 41
1.0
 91
-1023410177
 42
1.0
 72
1
  3

 73
1
 74
1
 75
1
 44
0.5
 73
0
 45
1.0
 46
1.0
 77
1
  4

 78
1
 79
1
170
1
 48
1.0
171
1
  6

172
1
173
1
174
1
140
1.0
141
1.0
175
1
  7

176
1
177
1
178
1
143
1.0
179
1
  8

270
1
271
1
272
1
145
1.0
146
1.0
273
1
  9

274
1
275
1
276
1
 42
1.0
 72
1
  3

 73
1
 74
1
 75
1
 94
63
  0
MATERIAL
  5
21
102
{ACAD_REACTORS
330
E
102
}
330
E
100
AcDbMaterial
  1
Global
  2

 70
0
 40
1.0
 71
1
 41
1.0
 91
-1023410177
 42
1.0
 72
1
  3

 73
1
 74
1
 75
1
 44
0.5
 73
0
 45
1.0
 46
1.0
 77
1
  4

 78
1
 79
1
170
1
 48
1.0
171
1
  6

172
1
173
1
174
1
140
1.0
141
1.0
175
1
  7

176
1
177
1
178
1
143
1.0
179
1
  8

270
1
271
1
272
1
145
1.0
146
1.0
273
1
  9

274
1
275
1
276
1
 42
1.0
 72
1
  3

 73
1
 74
1
 75
1
 94
63
  0
MLINESTYLE
  5
22
102
{ACAD_REACTORS
330
10
102
}
330
10
100
AcDbMlineStyle
  2
Standard
 70
0
  3

 62
256
 51
90.0
 52
90.0
 71
2
 49
0.5
 62
256
  6
BYLAYER
 49
-0.5
 62
256
  6
BYLAYER
  0
MLEADERSTYLE
  5
2C
102
{ACAD_REACTORS
330
F
102
}
330
F
100
AcDbMLeaderStyle
179
2
170
2
171
1
172
0
 90
2
 40
0.0
 41
0.0
173
1
 91
-1056964608
 92
-2
290
1
 42
2.0
291
1
 43
8.0
  3
Standard
 44
4.0
300

342
29
174
1
175
1
176
0
178
1
 93
-1056964608
 45
4.0
292
0
297
0
 46
4.0
 94
-1056964608
 47
1.0
 49
1.0
140
1.0
294
1
141
0.0
177
0
142
1.0
295
0
296
0
143
3.75
271
0
272
9
273
9
  0
DICTIONARY
  5
2D
330
A
100
AcDbDictionary
280
1
281
1
  3
CREATED_BY_EZDXF
350
2E
  3
WRITTEN_BY_EZDXF
350
99
  0
DICTIONARYVAR
  5
2E
330
2D
100
DictionaryVariables
280
0
  1
1.4.2 @ 2026-09-06T16:30:42.740577+00:00
  0
VISUALSTYLE
  5
5A
102
{ACAD_REACTORS
330
16
102
}
330
16
100
AcDbVisualStyle
  2
2dWireframe
 70
4
 90
0
 40
0.6
 62
7
290
0
291
0
  0
VISUALSTYLE
  5
5B
102
{ACAD_REACTORS
330
16
102
}
330
16
100
AcDbVisualStyle
  2
Basic
 70
7
 90
1
 40
0.6
 62
7
290
0
291
1
  0
VISUALSTYLE
  5
5C
102
{ACAD_REACTORS
330
16
102
}
330
16
100
AcDbVisualStyle
  2
Brighten
 70
12
 90
2
 40
0.6
 62
7
290
0
291
1
  0
VISUALSTYLE
  5
5D
102
{ACAD_REACTORS
330
16
102
}
330
16
100
AcDbVisualStyle
  2
ColorChange
 70
16
 90
2
 40
0.6
 62
8
290
0
291
1
  0
VISUALSTYLE
  5
5E
102
{ACAD_REACTORS
330
16
102
}
330
16
100
AcDbVisualStyle
  2
Conceptual
 70
9
 90
3
 40
0.6
 62
7
290
0
291
0
  0
VISUALSTYLE
  5
5F
102
{ACAD_REACTORS
330
16
102
}
330
16
100
AcDbVisualStyle
  2
Dim
 70
11
 90
2
 40
0.6
 62
7
290
0
291
1
  0
VISUALSTYLE
  5
60
102
{ACAD_REACTORS
330
16
102
}
330
16
100
AcDbVisualStyle
  2
EdgeColorOff
 70
22
 90
2
 40
0.6
 62
7
290
0
291
1
  0
VISUALSTYLE
  5
61
102
{ACAD_REACTORS
330
16
102
}
330
16
100
AcDbVisualStyle
  2
Facepattern
 70
15
 90
2
 40
0.6
 62
7
290
0
291
1
  0
VISUALSTYLE
  5
62
102
{ACAD_REACTORS
330
16
102
}
330
16
100
AcDbVisualStyle
  2
Flat
 70
0
 90
2
 40
0.6
 62
7
290
0
291
1
  0
VISUALSTYLE
  5
63
102
{ACAD_REACTORS
330
16
102
}
330
16
100
AcDbVisualStyle
  2
FlatWithEdges
 70
1
 90
2
 40
0.6
 62
7
290
0
291
1
  0
VISUALSTYLE
  5
64
102
{ACAD_REACTORS
330
16
102
}
330
16
100
AcDbVisualStyle
  2
Gouraud
 70
2
 90
2
 40
0.6
 62
7
290
0
291
1
  0
VISUALSTYLE
  5
65
102
{ACAD_REACTORS
330
16
102
}
330
16
100
AcDbVisualStyle
  2
GouraudWithEdges
 70
3
 90
2
 40
0.6
 62
7
290
0
291
1
  0
VISUALSTYLE
  5
66
102
{ACAD_REACTORS
330
16
102
}
330
16
100
AcDbVisualStyle
  2
Hidden
 70
6
 90
1
 40
0.6
 62
7
290
0
291
0
  0
VISUALSTYLE
  5
67
102
{ACAD_REACTORS
330
16
102
}
330
16
100
AcDbVisualStyle
  2
JitterOff
 70
20
 90
2
 40
0.6
 62
7
290
0
291
1
  0
VISUALSTYLE
  5
68
102
{ACAD_REACTORS
330
16
102
}
330
16
100
AcDbVisualStyle
  2
Linepattern
 70
14
 90
2
 40
0.6
 62
7
290
0
291
1
  0
VISUALSTYLE
  5
69
102
{ACAD_REACTORS
330
16
102
}
330
16
100
AcDbVisualStyle
  2
Modeling
 70
10
 90
2
 40
0.6
 62
7
290
0
291
0
  0
VISUALSTYLE
  5
6A
102
{ACAD_REACTORS
330
16
102
}
330
16
100
AcDbVisualStyle
  2
OverhangOff
 70
21
 90
2
 40
0.6
 62
7
290
0
291
1
  0
VISUALSTYLE
  5
6B
102
{ACAD_REACTORS
330
16
102
}
330
16
100
AcDbVisualStyle
  2
Realistic
 70
8
 90
2
 40
0.6
 62
7
290
0
291
0
  0
VISUALSTYLE
  5
6C
102
{ACAD_REACTORS
330
16
102
}
330
16
100
AcDbVisualStyle
  2
Shaded
 70
27
 90
2
 40
0.6
 62
7
290
0
291
0
  0
VISUALSTYLE
  5
6D
102
{ACAD_REACTORS
330
16
102
}
330
16
100
AcDbVisualStyle
  2
Shaded with edges
 70
26
 90
2
 40
0.6
 62
7
290
0
291
0
  0
VISUALSTYLE
  5
6E
102
{ACAD_REACTORS
330
16
102
}
330
16
100
AcDbVisualStyle
  2
Shades of Gray
 70
23
 90
2
 40
0.6
 62
7
290
0
291
0
  0
VISUALSTYLE
  5
6F
102
{ACAD_REACTORS
330
16
102
}
330
16
100
AcDbVisualStyle
  2
Sketchy
 70
24
 90
1
 40
0.6
 62
7
290
0
291
0
  0
VISUALSTYLE
  5
70
102
{ACAD_REACTORS
330
16
102
}
330
16
100
AcDbVisualStyle
  2
Thicken
 70
13
 90
2
 40
0.6
 62
7
290
0
291
1
  0
VISUALSTYLE
  5
71
102
{ACAD_REACTORS
330
16
102
}
330
16
100
AcDbVisualStyle
  2
Wireframe
 70
5
 90
0
 40
0.6
 62
7
290
0
291
0
  0
VISUALSTYLE
  5
72
102
{ACAD_REACTORS
330
16
102
}
330
16
100
AcDbVisualStyle
  2
X-Ray
 70
25
 90
2
 40
0.5
 62
7
290
0
291
0
  0
DICTIONARYVAR
  5
99
330
2D
100
DictionaryVariables
280
0
  1
1.4.2 @ 2026-09-06T16:30:42.750674+00:00
  0
ENDSEC
  0
EOF
