  0
SECTION
  2
HEADER
  9
$ACADVER
  1
AC1024
  9
$ACADMAINTVER
 70
6
  9
$DWGCODEPAGE
  3
ANSI_1252
  9
$LASTSAVEDBY
  1
ezdxf
  9
$INSBASE
 10
0.0
 20
0.0
 30
0.0
  9
$EXTMIN
 10
1e+20
 20
1e+20
 30
1e+20
  9
$EXTMAX
 10
-1e+20
 20
-1e+20
 30
-1e+20
  9
$LIMMIN
 10
0.0
 20
0.0
  9
$LIMMAX
 10
420.0
 20
297.0
  9
$ORTHOMODE
 70
0
  9
$REGENMODE
 70
1
  9
$FILLMODE
 70
1
  9
$QTEXTMODE
 70
0
  9
$MIRRTEXT
 70
1
  9
$LTSCALE
 40
1.0
  9
$ATTMODE
 70
1
  9
$TEXTSIZE
 40
2.5
  9
$TRACEWID
 40
1.0
  9
$TEXTSTYLE
  7
OpenSans
  9
$CLAYER
  8
0
  9
$CELTYPE
  6
ByLayer
  9
$CECOLOR
 62
256
  9
$CELTSCALE
 40
1.0
  9
$DISPSILH
 70
0
  9
$DIMSCALE
 40
1.0
  9
$DIMASZ
 40
0.175
  9
$DIMEXO
 40
0.125
  9
$DIMDLI
 40
3.75
  9
$DIMRND
 40
0.0
  9
$DIMDLE
 40
0.0
  9
$DIMEXE
 40
0.375
  9
$DIMTP
 40
0.0
  9
$DIMTM
 40
0.0
  9
$DIMTXT
 40
0.25
  9
$DIMCEN
 40
2.5
  9
$DIMTSZ
 40
0.0
  9
$DIMTOL
 70
0
  9
$DIMLIM
 70
0
  9
$DIMTIH
 70
0
  9
$DIMTOH
 70
0
  9
$DIMSE1
 70
0
  9
$DIMSE2
 70
0
  9
$DIMTAD
 70
1
  9
$DIMZIN
 70
12
  9
$DIMBLK
  1
ARCHTICK
  9
$DIMASO
 70
1
  9
$DIMSHO
 70
1
  9
$DIMPOST
  1

  9
$DIMAPOST
  1

  9
$DIMALT
 70
0
  9
$DIMALTD
 70
3
  9
$DIMALTF
 40
0.03937007874
  9
$DIMLFAC
 40
100.0
  9
$DIMTOFL
 70
1
  9
$DIMTVP
 40
0.0
  9
$DIMTIX
 70
0
  9
$DIMSOXD
 70
0
  9
$DIMSAH
 70
0
  9
$DIMBLK1
  1

  9
$DIMBLK2
  1

  9
$DIMSTYLE
  2
EZDXF
  9
$DIMCLRD
 70
0
  9
$DIMCLRE
 70
0
  9
$DIMCLRT
 70
0
  9
$DIMTFAC
 40
0.5
  9
$DIMGAP
 40
0.1
  9
$DIMJUST
 70
0
  9
$DIMSD1
 70
0
  9
$DIMSD2
 70
0
  9
$DIMTOLJ
 70
0
  9
$DIMTZIN
 70
8
  9
$DIMALTZ
 70
0
  9
$DIMALTTZ
 70
0
  9
$DIMUPT
 70
1
  9
$DIMDEC
 70
2
  9
$DIMTDEC
 70
2
  9
$DIMALTU
 70
2
  9
$DIMALTTD
 70
3
  9
$DIMTXSTY
  7
OpenSansCondensed-Light
  9
$DIMAUNIT
 70
0
  9
$DIMADEC
 70
2
  9
$DIMALTRND
 40
0.0
  9
$DIMAZIN
 70
3
  9
$DIMDSEP
 70
46
  9
$DIMATFIT
 70
3
  9
$DIMFRAC
 70
0
  9
$DIMLDRBLK
  1

  9
$DIMLUNIT
 70
2
  9
$DIMLWD
 70
-2
  9
$DIMLWE
 70
-2
  9
$DIMTMOVE
 70
2
  9
$DIMFXL
 40
1.0
  9
$DIMFXLON
 70
0
  9
$DIMJOGANG
 40
0.785398163397
  9
$DIMTFILL
 70
0
  9
$DIMTFILLCLR
 70
0
  9
$DIMARCSYM
 70
0
  9
$DIMLTYPE
  6

  9
$DIMLTEX1
  6

  9
$DIMLTEX2
  6

  9
$DIMTXTDIRECTION
 70
0
  9
$LUNITS
 70
2
  9
$LUPREC
 70
4
  9
$SKETCHINC
 40
1.0
  9
$FILLETRAD
 40
10.0
  9
$AUNITS
 70
0
  9
$AUPREC
 70
2
  9
$MENU
  1
.
  9
$ELEVATION
 40
0.0
  9
$PELEVATION
 40
0.0
  9
$THICKNESS
 40
0.0
  9
$LIMCHECK
 70
0
  9
$CHAMFERA
 40
0.0
  9
$CHAMFERB
 40
0.0
  9
$CHAMFERC
 40
0.0
  9
$CHAMFERD
 40
0.0
  9
$SKPOLY
 70
0
  9
$TDCREATE
 40
2461290.4379861113
  9
$TDUCREATE
 40
2458532.153996898
  9
$TDUPDATE
 40
2461290.4379861113
  9
$TDUUPDATE
 40
2458532.1544311
  9
$TDINDWG
 40
0.0
  9
$TDUSRTIMER
 40
0.0
  9
$USRTIMER
 70
1
  9
$ANGBASE
 50
0.0
  9
$ANGDIR
 70
0
  9
$PDMODE
 70
0
  9
$PDSIZE
 40
0.0
  9
$PLINEWID
 40
0.0
  9
$SPLFRAME
 70
0
  9
$SPLINETYPE
 70
6
  9
$SPLINESEGS
 70
8
  9
$HANDSEED
  5
97
  9
$SURFTAB1
 70
6
  9
$SURFTAB2
 70
6
  9
$SURFTYPE
 70
6
  9
$SURFU
 70
6
  9
$SURFV
 70
6
  9
$UCSBASE
  2

  9
$UCSNAME
  2

  9
$UCSORG
 10
0.0
 20
0.0
 30
0.0
  9
$UCSXDIR
 10
1.0
 20
0.0
 30
0.0
  9
$UCSYDIR
 10
0.0
 20
1.0
 30
0.0
  9
$UCSORTHOREF
  2

  9
$UCSORTHOVIEW
 70
0
  9
$UCSORGTOP
 10
0.0
 20
0.0
 30
0.0
  9
$UCSORGBOTTOM
 10
0.0
 20
0.0
 30
0.0
  9
$UCSORGLEFT
 10
0.0
 20
0.0
 30
0.0
  9
$UCSORGRIGHT
 10
0.0
 20
0.0
 30
0.0
  9
$UCSORGFRONT
 10
0.0
 20
0.0
 30
0.0
  9
$UCSORGBACK
 10
0.0
 20
0.0
 30
0.0
  9
$PUCSBASE
  2

  9
$PUCSNAME
  2

  9
$PUCSORG
 10
0.0
 20
0.0
 30
0.0
  9
$PUCSXDIR
 10
1.0
 20
0.0
 30
0.0
  9
$PUCSYDIR
 10
0.0
 20
1.0
 30
0.0
  9
$PUCSORTHOREF
  2

  9
$PUCSORTHOVIEW
 70
0
  9
$PUCSORGTOP
 10
0.0
 20
0.0
 30
0.0
  9
$PUCSORGBOTTOM
 10
0.0
 20
0.0
 30
0.0
  9
$PUCSORGLEFT
 10
0.0
 20
0.0
 30
0.0
  9
$PUCSORGRIGHT
 10
0.0
 20
0.0
 30
0.0
  9
$PUCSORGFRONT
 10
0.0
 20
0.0
 30
0.0
  9
$PUCSORGBACK
 10
0.0
 20
0.0
 30
0.0
  9
$USERI1
 70
0
  9
$USERI2
 70
0
  9
$USERI3
 70
0
  9
$USERI4
 70
0
  9
$USERI5
 70
0
  9
$USERR1
 40
0.0
  9
$USERR2
 40
0.0
  9
$USERR3
 40
0.0
  9
$USERR4
 40
0.0
  9
$USERR5
 40
0.0
  9
$WORLDVIEW
 70
1
  9
$SHADEDGE
 70
3
  9
$SHADEDIF
 70
70
  9
$TILEMODE
 70
1
  9
$MAXACTVP
 70
64
  9
$PINSBASE
 10
0.0
 20
0.0
 30
0.0
  9
$PLIMCHECK
 70
0
  9
$PEXTMIN
 10
1e+20
 20
1e+20
 30
1e+20
  9
$PEXTMAX
 10
-1e+20
 20
-1e+20
 30
-1e+20
  9
$PLIMMIN
 10
0.0
 20
0.0
  9
$PLIMMAX
 10
420.0
 20
297.0
  9
$UNITMODE
 70
0
  9
$VISRETAIN
 70
1
  9
$PLINEGEN
 70
0
  9
$PSLTSCALE
 70
1
  9
$TREEDEPTH
 70
3020
  9
$CMLSTYLE
  2
Standard
  9
$CMLJUST
 70
0
  9
$CMLSCALE
 40
20.0
  9
$PROXYGRAPHICS
 70
1
  9
$MEASUREMENT
 70
1
  9
$CELWEIGHT
370
-1
  9
$ENDCAPS
280
0
  9
$JOINSTYLE
280
0
  9
$LWDISPLAY
290
0
  9
$INSUNITS
 70
4
  9
$HYPERLINKBASE
  1

  9
$STYLESHEET
  1

  9
$XEDIT
290
1
  9
$CEPSNTYPE
380
0
  9
$PSTYLEMODE
290
1
  9
$FINGERPRINTGUID
  2
{955BDE71-609E-4114-B625-79A8EDF869BB}
  9
$VERSIONGUID
  2
{92406DFB-24AE-4CD6-B15A-B89BCF615B5D}
  9
$EXTNAMES
290
1
  9
$PSVPSCALE
 40
0.0
  9
$OLESTARTUP
290
0
  9
$SORTENTS
280
127
  9
$INDEXCTL
280
0
  9
$HIDETEXT
280
1
  9
$XCLIPFRAME
280
1
  9
$HALOGAP
280
0
  9
$OBSCOLOR
 70
257
  9
$OBSLTYPE
280
0
  9
$INTERSECTIONDISPLAY
280
0
  9
$INTERSECTIONCOLOR
 70
257
  9
$DIMASSOC
280
2
  9
$PROJECTNAME
  1

  9
$CAMERADISPLAY
290
0
  9
$LENSLENGTH
 40
50.0
  9
$CAMERAHEIGHT
 40
0.0
  9
$STEPSPERSEC
 40
24.0
  9
$STEPSIZE
 40
100.0
  9
$3DDWFPREC
 40
2.0
  9
$PSOLWIDTH
 40
0.005
  9
$PSOLHEIGHT
 40
0.08
  9
$LOFTANG1
 40
1.570796326795
  9
$LOFTANG2
 40
1.570796326795
  9
$LOFTMAG1
 40
0.0
  9
$LOFTMAG2
 40
0.0
  9
$LOFTPARAM
 70
7
  9
$LOFTNORMALS
280
1
  9
$LATITUDE
 40
37.795
  9
$LONGITUDE
 40
-122.394
  9
$NORTHDIRECTION
 40
0.0
  9
$TIMEZONE
 70
-8000
  9
$LIGHTGLYPHDISPLAY
280
1
  9
$TILEMODELIGHTSYNCH
280
1
  9
$CMATERIAL
347
20
  9
$SOLIDHIST
280
0
  9
$SHOWHIST
280
1
  9
$DWFFRAME
280
2
  9
$DGNFRAME
280
2
  9
$REALWORLDSCALE
290
1
  9
$INTERFERECOLOR
 62
256
  9
$CSHADOW
280
0
  9
$SHADOWPLANELOCATION
 40
0.0
  0
ENDSEC
  0
SECTION
  2
CLASSES
  0
CLASS
  1
ACDBDICTIONARYWDFLT
  2
AcDbDictionaryWithDefault
  3
ObjectDBX Classes
 90
0
 91
0
280
0
281
0
  0
CLASS
  1
SUN
  2
AcDbSun
  3
SCENEOE
 90
1153
 91
0
280
0
281
0
  0
CLASS
  1
VISUALSTYLE
  2
AcDbVisualStyle
  3
ObjectDBX Classes
 90
4095
 91
0
280
0
281
0
  0
CLASS
  1
MATERIAL
  2
AcDbMaterial
  3
ObjectDBX Classes
 90
1153
 91
0
280
0
281
0
  0
CLASS
  1
SCALE
  2
AcDbScale
  3
ObjectDBX Classes
 90
1153
 91
0
280
0
281
0
  0
CLASS
  1
TABLESTYLE
  2
AcDbTableStyle
  3
ObjectDBX Classes
 90
4095
 91
0
280
0
281
0
  0
CLASS
  1
MLEADERSTYLE
  2
AcDbMLeaderStyle
  3
ACDB_MLEADERSTYLE_CLASS
 90
4095
 91
0
280
0
281
0
  0
CLASS
  1
DICTIONARYVAR
  2
AcDbDictionaryVar
  3
ObjectDBX Classes
 90
0
 91
0
280
0
281
0
  0
CLASS
  1
CELLSTYLEMAP
  2
AcDbCellStyleMap
  3
ObjectDBX Classes
 90
1152
 91
0
280
0
281
0
  0
CLASS
  1
MENTALRAYRENDERSETTINGS
  2
AcDbMentalRayRenderSettings
  3
SCENEOE
 90
1024
 91
0
280
0
281
0
  0
CLASS
  1
ACDBDETAILVIEWSTYLE
  2
AcDbDetailViewStyle
  3
ObjectDBX Classes
 90
1025
 91
0
280
0
281
0
  0
CLASS
  1
ACDBSECTIONVIEWSTYLE
  2
AcDbSectionViewStyle
  3
ObjectDBX Classes
 90
1025
 91
0
280
0
281
0
  0
CLASS
  1
RASTERVARIABLES
  2
AcDbRasterVariables
  3
ISM
 90
0
 91
0
280
0
281
0
  0
CLASS
  1
LAYOUT
  2
AcDbLayout
  3
ObjectDBX Classes
 90
0
 91
0
280
0
281
0
  0
CLASS
  1
ACDBPLACEHOLDER
  2
AcDbPlaceHolder
  3
ObjectDBX Classes
 90
0
 91
0
280
0
281
0
  0
ENDSEC
  0
SECTION
  2
TABLES
  0
TABLE
  2
VPORT
  5
8
330
0
100
AcDbSymbolTable
 70
1
  0
VPORT
  5
23
330
8
100
AcDbSymbolTableRecord
100
AcDbViewportTableRecord
  2
*Active
 70
0
 10
0.0
 20
0.0
 11
1.0
 21
1.0
 12
0.0
 22
0.0
 13
0.0
 23
0.0
 14
0.5
 24
0.5
 15
0.5
 25
0.5
 16
0.0
 26
0.0
 36
1.0
 17
0.0
 27
0.0
 37
0.0
 40
1000.0
 41
1.34
 42
50.0
 43
0.0
 44
0.0
 50
0.0
 51
0.0
 71
0
 72
1000
 73
1
 74
3
 75
0
 76
0
 77
0
 78
0
281
0
 65
0
146
0.0
  0
ENDTAB
  0
TABLE
  2
LTYPE
  5
2
330
0
100
AcDbSymbolTable
 70
21
  0
LTYPE
  5
24
330
2
100
AcDbSymbolTableRecord
100
AcDbLinetypeTableRecord
  2
ByBlock
 70
0
  3

 72
65
 73
0
 40
0.0
  0
LTYPE
  5
25
330
2
100
AcDbSymbolTableRecord
100
AcDbLinetypeTableRecord
  2
ByLayer
 70
0
  3

 72
65
 73
0
 40
0.0
  0
LTYPE
  5
26
330
2
100
AcDbSymbolTableRecord
100
AcDbLinetypeTableRecord
  2
Continuous
 70
0
  3

 72
65
 73
0
 40
0.0
  0
LTYPE
  5
2F
330
2
100
AcDbSymbolTableRecord
100
AcDbLinetypeTableRecord
  2
CENTER
 70
0
  3
Center ____ _ ____ _ ____ _ ____ _ ____ _ ____
 72
65
 73
4
 40
5.08
 49
3.175
 74
0
 49
-0.635
 74
0
 49
0.635
 74
0
 49
-0.635
 74
0
  0
LTYPE
  5
30
330
2
100
AcDbSymbolTableRecord
100
AcDbLinetypeTableRecord
  2
CENTERX2
 70
0
  3
Center (2x) ________  __  ________  __  ________
 72
65
 73
4
 40
8.89
 49
6.35
 74
0
 49
-0.635
 74
0
 49
1.27
 74
0
 49
-0.635
 74
0
  0
LTYPE
  5
31
330
2
100
AcDbSymbolTableRecord
100
AcDbLinetypeTableRecord
  2
CENTER2
 70
0
  3
Center (.5x) ____ _ ____ _ ____ _ ____ _ ____
 72
65
 73
4
 40
2.54
 49
1.587
 74
0
 49
-0.318
 74
0
 49
0.318
 74
0
 49
-0.318
 74
0
  0
LTYPE
  5
32
330
2
100
AcDbSymbolTableRecord
100
AcDbLinetypeTableRecord
  2
DASHED
 70
0
  3
Dashed __ __ __ __ __ __ __ __ __ __ __ __ __ _
 72
65
 73
2
 40
1.524
 49
1.27
 74
0
 49
-0.254
 74
0
  0
LTYPE
  5
33
330
2
100
AcDbSymbolTableRecord
100
AcDbLinetypeTableRecord
  2
DASHEDX2
 70
0
  3
Dashed (2x) ____  ____  ____  ____  ____  ____
 72
65
 73
2
 40
3.048
 49
2.54
 74
0
 49
-0.508
 74
0
  0
LTYPE
  5
34
330
2
100
AcDbSymbolTableRecord
100
AcDbLinetypeTableRecord
  2
DASHED2
 70
0
  3
Dashed (.5x) _ _ _ _ _ _ _ _ _ _ _ _ _ _
 72
65
 73
2
 40
0.762
 49
0.635
 74
0
 49
-0.127
 74
0
  0
LTYPE
  5
35
330
2
100
AcDbSymbolTableRecord
100
AcDbLinetypeTableRecord
  2
PHANTOM
 70
0
  3
Phantom ______  __  __  ______  __  __  ______
 72
65
 73
6
 40
6.35
 49
3.175
 74
0
 49
-0.635
 74
0
 49
0.635
 74
0
 49
-0.635
 74
0
 49
0.635
 74
0
 49
-0.635
 74
0
  0
LTYPE
  5
36
330
2
100
AcDbSymbolTableRecord
100
AcDbLinetypeTableRecord
  2
PHANTOMX2
 70
0
  3
Phantom (2x)____________    ____    ____    ____________
 72
65
 73
6
 40
10.795
 49
6.35
 74
0
 49
-0.635
 74
0
 49
1.27
 74
0
 49
-0.635
 74
0
 49
1.27
 74
0
 49
-0.635
 74
0
  0
LTYPE
  5
37
330
2
100
AcDbSymbolTableRecord
100
AcDbLinetypeTableRecord
  2
PHANTOM2
 70
0
  3
Phantom (.5x) ___ _ _ ___ _ _ ___ _ _ ___ _ _ ___
 72
65
 73
6
 40
3.175
 49
1.587
 74
0
 49
-0.318
 74
0
 49
0.318
 74
0
 49
-0.318
 74
0
 49
0.318
 74
0
 49
-0.318
 74
0
  0
LTYPE
  5
38
330
2
100
AcDbSymbolTableRecord
100
AcDbLinetypeTableRecord
  2
DASHDOT
 70
0
  3
Dash dot __ . __ . __ . __ . __ . __ . __ . __
 72
65
 73
4
 40
3.556
 49
2.54
 74
0
 49
-0.508
 74
0
 49
0.0
 74
0
 49
-0.508
 74
0
  0
LTYPE
  5
39
330
2
100
AcDbSymbolTableRecord
100
AcDbLinetypeTableRecord
  2
DASHDOTX2
 70
0
  3
Dash dot (2x) ____  .  ____  .  ____  .  ____
 72
65
 73
4
 40
6.096
 49
5.08
 74
0
 49
-0.508
 74
0
 49
0.0
 74
0
 49
-0.508
 74
0
  0
LTYPE
  5
3A
330
2
100
AcDbSymbolTableRecord
100
AcDbLinetypeTableRecord
  2
DASHDOT2
 70
0
  3
Dash dot (.5x) _ . _ . _ . _ . _ . _ . _ . _
 72
65
 73
4
 40
1.778
 49
1.27
 74
0
 49
-0.254
 74
0
 49
0.0
 74
0
 49
-0.254
 74
0
  0
LTYPE
  5
3B
330
2
100
AcDbSymbolTableRecord
100
AcDbLinetypeTableRecord
  2
DOT
 70
0
  3
Dot .  .  .  .  .  .  .  .  .  .  .  .  .  .  .  .
 72
65
 73
2
 40
0.508
 49
0.0
 74
0
 49
-0.508
 74
0
  0
LTYPE
  5
3C
330
2
100
AcDbSymbolTableRecord
100
AcDbLinetypeTableRecord
  2
DOTX2
 70
0
  3
Dot (2x) .    .    .    .    .    .    .    . 
 72
65
 73
2
 40
1.016
 49
0.0
 74
0
 49
-1.016
 74
0
  0
LTYPE
  5
3D
330
2
100
AcDbSymbolTableRecord
100
AcDbLinetypeTableRecord
  2
DOT2
 70
0
  3
Dot (.5) . . . . . . . . . . . . . . . . . . . 
 72
65
 73
2
 40
0.254
 49
0.0
 74
0
 49
-0.254
 74
0
  0
LTYPE
  5
3E
330
2
100
AcDbSymbolTableRecord
100
AcDbLinetypeTableRecord
  2
DIVIDE
 70
0
  3
Divide __ . . __ . . __ . . __ . . __ . . __
 72
65
 73
6
 40
4.064
 49
2.54
 74
0
 49
-0.508
 74
0
 49
0.0
 74
0
 49
-0.508
 74
0
 49
0.0
 74
0
 49
-0.508
 74
0
  0
LTYPE
  5
3F
330
2
100
AcDbSymbolTableRecord
100
AcDbLinetypeTableRecord
  2
DIVIDEX2
 70
0
  3
Divide (2x) ____  . .  ____  . .  ____  . .  ____
 72
65
 73
6
 40
6.604
 49
5.08
 74
0
 49
-0.508
 74
0
 49
0.0
 74
0
 49
-0.508
 74
0
 49
0.0
 74
0
 49
-0.508
 74
0
  0
LTYPE
  5
40
330
2
100
AcDbSymbolTableRecord
100
AcDbLinetypeTableRecord
  2
DIVIDE2
 70
0
  3
Divide(.5x) _ . _ . _ . _ . _ . _ . _ . _
 72
65
 73
6
 40
2.032
 49
1.27
 74
0
 49
-0.254
 74
0
 49
0.0
 74
0
 49
-0.254
 74
0
 49
0.0
 74
0
 49
-0.254
 74
0
  0
ENDTAB
  0
TABLE
  2
LAYER
  5
1
330
0
100
AcDbSymbolTable
 70
5
  0
LAYER
  5
27
330
1
100
AcDbSymbolTableRecord
100
AcDbLayerTableRecord
  2
0
 70
0
 62
7
  6
Continuous
370
-3
390
13
347
21
  0
LAYER
  5
28
330
1
100
AcDbSymbolTableRecord
100
AcDbLayerTableRecord
  2
Defpoints
 70
0
 62
7
  6
Continuous
290
0
370
-3
390
13
347
21
  0
LAYER
  5
8A
330
1
100
AcDbSymbolTableRecord
100
AcDbLayerTableRecord
  2
CORTE
 70
0
 62
1
  6
Continuous
370
-3
390
13
347
21
  0
LAYER
  5
8B
330
1
100
AcDbSymbolTableRecord
100
AcDbLayerTableRecord
  2
GRABADO
 70
0
 62
5
  6
Continuous
370
-3
390
13
347
21
  0
LAYER
  5
8C
330
1
100
AcDbSymbolTableRecord
100
AcDbLayerTableRecord
  2
HOJA
 70
0
 62
8
  6
Continuous
370
-3
390
13
347
21
  0
ENDTAB
  0
TABLE
  2
STYLE
  5
5
330
0
100
AcDbSymbolTable
 70
26
  0
STYLE
  5
29
330
5
100
AcDbSymbolTableRecord
100
AcDbTextStyleTableRecord
  2
Standard
 70
0
 40
0.0
 41
1.0
 50
0.0
 71
0
 42
2.5
  3
txt
  4

  0
STYLE
  5
41
330
5
100
AcDbSymbolTableRecord
100
AcDbTextStyleTableRecord
  2
OpenSans-Light
 70
0
 40
0.0
 41
1.0
 50
0.0
 71
0
 42
2.5
  3
OpenSans-Light.ttf
  4

  0
STYLE
  5
42
330
5
100
AcDbSymbolTableRecord
100
AcDbTextStyleTableRecord
  2
OpenSans-Light-Italic
 70
0
 40
0.0
 41
1.0
 50
0.0
 71
0
 42
2.5
  3
OpenSans-LightItalic.ttf
  4

  0
STYLE
  5
43
330
5
100
AcDbSymbolTableRecord
100
AcDbTextStyleTableRecord
  2
OpenSans
 70
0
 40
0.0
 41
1.0
 50
0.0
 71
0
 42
2.5
  3
OpenSans-Regular.ttf
  4

  0
STYLE
  5
44
330
5
100
AcDbSymbolTableRecord
100
AcDbTextStyleTableRecord
  2
OpenSans-Italic
 70
0
 40
0.0
 41
1.0
 50
0.0
 71
0
 42
2.5
  3
OpenSans-Italic.ttf
  4

  0
STYLE
  5
45
330
5
100
AcDbSymbolTableRecord
100
AcDbTextStyleTableRecord
  2
OpenSans-SemiBold
 70
0
 40
0.0
 41
1.0
 50
0.0
 71
0
 42
2.5
  3
OpenSans-SemiBold.ttf
  4

  0
STYLE
  5
46
330
5
100
AcDbSymbolTableRecord
100
AcDbTextStyleTableRecord
  2
OpenSans-SemiBoldItalic
 70
0
 40
0.0
 41
1.0
 50
0.0
 71
0
 42
2.5
  3
OpenSans-SemiBoldItalic.ttf
  4

  0
STYLE
  5
47
330
5
100
AcDbSymbolTableRecord
100
AcDbTextStyleTableRecord
  2
OpenSans-Bold
 70
0
 40
0.0
 41
1.0
 50
0.0
 71
0
 42
2.5
  3
OpenSans-Bold.ttf
  4

  0
STYLE
  5
48
330
5
100
AcDbSymbolTableRecord
100
AcDbTextStyleTableRecord
  2
OpenSans-BoldItalic
 70
0
 40
0.0
 41
1.0
 50
0.0
 71
0
 42
2.5
  3
OpenSans-BoldItalic.ttf
  4

  0
STYLE
  5
49
330
5
100
AcDbSymbolTableRecord
100
AcDbTextStyleTableRecord
  2
OpenSans-ExtraBold
 70
0
 40
0.0
 41
1.0
 50
0.0
 71
0
 42
2.5
  3
OpenSans-ExtraBold.ttf
  4

  0
STYLE
  5
4A
330
5
100
AcDbSymbolTableRecord
100
AcDbTextStyleTableRecord
  2
OpenSans-ExtraBoldItalic
 70
0
 40
0.0
 41
1.0
 50
0.0
 71
0
 42
2.5
  3
OpenSans-ExtraBoldItalic.ttf
  4

  0
STYLE
  5
4B
330
5
100
AcDbSymbolTableRecord
100
AcDbTextStyleTableRecord
  2
OpenSansCondensed-Bold
 70
0
 40
0.0
 41
1.0
 50
0.0
 71
0
 42
2.5
  3
OpenSansCondensed-Bold.ttf
  4

  0
STYLE
  5
4C
330
5
100
AcDbSymbolTableRecord
100
AcDbTextStyleTableRecord
  2
OpenSansCondensed-Light
 70
0
 40
0.0
 41
1.0
 50
0.0
 71
0
 42
2.5
  3
OpenSansCondensed-Light.ttf
  4

  0
STYLE
  5
4D
330
5
100
AcDbSymbolTableRecord
100
AcDbTextStyleTableRecord
  2
OpenSansCondensed-Italic
 70
0
 40
0.0
 41
1.0
 50
0.0
 71
0
 42
2.5
  3
OpenSansCondensed-LightItalic.ttf
  4

  0
STYLE
  5
4E
330
5
100
AcDbSymbolTableRecord
100
AcDbTextStyleTableRecord
  2
LiberationSans
 70
0
 40
0.0
 41
1.0
 50
0.0
 71
0
 42
2.5
  3
LiberationSans-Regular.ttf
  4

  0
STYLE
  5
4F
330
5
100
AcDbSymbolTableRecord
100
AcDbTextStyleTableRecord
  2
LiberationSans-Bold
 70
0
 40
0.0
 41
1.0
 50
0.0
 71
0
 42
2.5
  3
LiberationSans-Bold.ttf
  4

  0
STYLE
  5
50
330
5
100
AcDbSymbolTableRecord
100
AcDbTextStyleTableRecord
  2
LiberationSans-BoldItalic
 70
0
 40
0.0
 41
1.0
 50
0.0
 71
0
 42
2.5
  3
LiberationSans-BoldItalic.ttf
  4

  0
STYLE
  5
51
330
5
100
AcDbSymbolTableRecord
100
AcDbTextStyleTableRecord
  2
LiberationSans-Italic
 70
0
 40
0.0
 41
1.0
 50
0.0
 71
0
 42
2.5
  3
LiberationSans-Italic.ttf
  4

  0
STYLE
  5
52
330
5
100
AcDbSymbolTableRecord
100
AcDbTextStyleTableRecord
  2
LiberationSerif
 70
0
 40
0.0
 41
1.0
 50
0.0
 71
0
 42
2.5
  3
LiberationSerif-Regular.ttf
  4

  0
STYLE
  5
53
330
5
100
AcDbSymbolTableRecord
100
AcDbTextStyleTableRecord
  2
LiberationSerif-Bold
 70
0
 40
0.0
 41
1.0
 50
0.0
 71
0
 42
2.5
  3
LiberationSerif-Bold.ttf
  4

  0
STYLE
  5
54
330
5
100
AcDbSymbolTableRecord
100
AcDbTextStyleTableRecord
  2
LiberationSerif-BoldItalic
 70
0
 40
0.0
 41
1.0
 50
0.0
 71
0
 42
2.5
  3
LiberationSerif-BoldItalic.ttf
  4

  0
STYLE
  5
55
330
5
100
AcDbSymbolTableRecord
100
AcDbTextStyleTableRecord
  2
LiberationSerif-Italic
 70
0
 40
0.0
 41
1.0
 50
0.0
 71
0
 42
2.5
  3
LiberationSerif-Italic.ttf
  4

  0
STYLE
  5
56
330
5
100
AcDbSymbolTableRecord
100
AcDbTextStyleTableRecord
  2
LiberationMono
 70
0
 40
0.0
 41
1.0
 50
0.0
 71
0
 42
2.5
  3
LiberationMono-Regular.ttf
  4

  0
STYLE
  5
57
330
5
100
AcDbSymbolTableRecord
100
AcDbTextStyleTableRecord
  2
LiberationMono-Bold
 70
0
 40
0.0
 41
1.0
 50
0.0
 71
0
 42
2.5
  3
LiberationMono-Bold.ttf
  4

  0
STYLE
  5
58
330
5
100
AcDbSymbolTableRecord
100
AcDbTextStyleTableRecord
  2
LiberationMono-BoldItalic
 70
0
 40
0.0
 41
1.0
 50
0.0
 71
0
 42
2.5
  3
LiberationMono-BoldItalic.ttf
  4

  0
STYLE
  5
59
330
5
100
AcDbSymbolTableRecord
100
AcDbTextStyleTableRecord
  2
LiberationMono-Italic
 70
0
 40
0.0
 41
1.0
 50
0.0
 71
0
 42
2.5
  3
LiberationMono-Italic.ttf
  4

  0
ENDTAB
  0
TABLE
  2
VIEW
  5
7
330
0
100
AcDbSymbolTable
 70
0
  0
ENDTAB
  0
TABLE
  2
UCS
  5
6
330
0
100
AcDbSymbolTable
 70
0
  0
ENDTAB
  0
TABLE
  2
APPID
  5
3
330
0
100
AcDbSymbolTable
 70
3
  0
APPID
  5
2A
330
3
100
AcDbSymbolTableRecord
100
AcDbRegAppTableRecord
  2
ACAD
 70
0
  0
APPID
  5
94
330
3
100
AcDbSymbolTableRecord
100
AcDbRegAppTableRecord
  2
HATCHBACKGROUNDCOLOR
 70
0
  0
APPID
  5
95
330
3
100
AcDbSymbolTableRecord
100
AcDbRegAppTableRecord
  2
EZDXF
 70
0
  0
ENDTAB
  0
TABLE
  2
DIMSTYLE
  5
4
330
0
100
AcDbSymbolTable
 70
12
100
AcDbDimStyleTable
  0
DIMSTYLE
105
2B
330
4
100
AcDbSymbolTableRecord
100
AcDbDimStyleTableRecord
  2
Standard
 70
0
 40
1.0
 41
2.5
 42
0.625
 43
3.75
 44
1.25
 45
0.0
 46
0.0
 47
0.0
 48
0.0
 49
2.5
140
2.5
141
2.5
142
0.0
143
0.03937007874
144
1.0
145
0.0
146
1.0
147
0.625
148
0.0
 69
0
 70
0
 71
0
 72
0
 73
0
 74
0
 75
0
 76
0
 77
1
 78
8
 79
3
170
0
171
3
172
1
173
0
174
0
175
0
176
0
177
0
178
0
179
2
271
2
272
2
273
2
274
3
275
0
276
0
277
2
278
44
279
0
280
0
281
0
282
0
283
0
284
8
285
0
286
0
288
0
289
3
290
0
371
-2
372
-2
  0
DIMSTYLE
105
73
330
4
100
AcDbSymbolTableRecord
100
AcDbDimStyleTableRecord
  2
EZDXF
 70
0
 40
1.0
 41
0.175
 42
0.125
 43
3.75
 44
0.375
 45
0.0
 46
0.0
 47
0.0
 48
0.0
 49
2.5
140
0.25
141
2.5
142
0.0
143
0.03937007874
144
100.0
145
0.0
146
0.5
147
0.1
148
0.0
 69
0
 70
0
 71
0
 72
0
 73
0
 74
0
 75
0
 76
0
 77
1
 78
12
 79
3
170
0
171
3
172
1
173
0
174
0
175
0
176
0
177
0
178
0
179
2
271
2
272
2
273
2
274
3
275
0
276
0
277
2
278
46
279
2
280
0
281
0
282
0
283
0
284
8
285
0
286
0
288
1
289
3
290
0
340
4C
342
74
371
-2
372
-2
  0
DIMSTYLE
105
7C
330
4
100
AcDbSymbolTableRecord
100
AcDbDimStyleTableRecord
  2
EZ_M_100_H25_CM
 70
0
 40
1.0
 41
0.25
 42
0.125
 43
3.75
 44
0.375
 45
0.0
 46
0.0
 47
0.0
 48
0.0
 49
2.5
140
0.25
141
2.5
142
0.125
143
0.03937007874
144
100.0
145
0.0
146
0.5
147
0.1
148
0.0
 69
0
 70
0
 71
0
 72
0
 73
0
 74
0
 75
0
 76
0
 77
1
 78
12
 79
3
170
0
171
3
172
1
173
0
174
0
175
0
176
0
177
0
178
0
179
2
271
2
272
2
273
2
274
3
275
0
276
0
277
2
278
46
279
2
280
0
281
0
282
0
283
0
284
8
285
0
286
0
288
1
289
3
290
0
340
4C
371
-2
372
-2
  0
DIMSTYLE
105
7D
330
4
100
AcDbSymbolTableRecord
100
AcDbDimStyleTableRecord
  2
EZ_M_50_H25_CM
 70
0
 40
1.0
 41
0.125
 42
0.0625
 43
3.75
 44
0.1875
 45
0.0
 46
0.0
 47
0.0
 48
0.0
 49
2.5
140
0.125
141
2.5
142
0.0625
143
0.03937007874
144
100.0
145
0.0
146
0.5
147
0.05
148
0.0
 69
0
 70
0
 71
0
 72
0
 73
0
 74
0
 75
0
 76
0
 77
1
 78
12
 79
3
170
0
171
3
172
1
173
0
174
0
175
0
176
0
177
0
178
0
179
2
271
2
272
2
273
2
274
3
275
0
276
0
277
2
278
46
279
2
280
0
281
0
282
0
283
0
284
8
285
0
286
0
288
1
289
3
290
0
340
4C
371
-2
372
-2
  0
DIMSTYLE
105
7E
330
4
100
AcDbSymbolTableRecord
100
AcDbDimStyleTableRecord
  2
EZ_M_25_H25_CM
 70
0
 40
1.0
 41
0.0625
 42
0.03125
 43
3.75
 44
0.09375
 45
0.0
 46
0.0
 47
0.0
 48
0.0
 49
2.5
140
0.0625
141
2.5
142
0.03125
143
0.03937007874
144
100.0
145
0.0
146
0.5
147
0.025
148
0.0
 69
0
 70
0
 71
0
 72
0
 73
0
 74
0
 75
0
 76
0
 77
1
 78
12
 79
3
170
0
171
3
172
1
173
0
174
0
175
0
176
0
177
0
178
0
179
2
271
2
272
2
273
2
274
3
275
0
276
0
277
2
278
46
279
2
280
0
281
0
282
0
283
0
284
8
285
0
286
0
288
1
289
3
290
0
340
4C
371
-2
372
-2
  0
DIMSTYLE
105
7F
330
4
100
AcDbSymbolTableRecord
100
AcDbDimStyleTableRecord
  2
EZ_M_20_H25_CM
 70
0
 40
1.0
 41
0.05
 42
0.025
 43
3.75
 44
0.07500000000000001
 45
0.0
 46
0.0
 47
0.0
 48
0.0
 49
2.5
140
0.05
141
2.5
142
0.025
143
0.03937007874
144
100.0
145
0.0
146
0.5
147
0.020000000000000004
148
0.0
 69
0
 70
0
 71
0
 72
0
 73
0
 74
0
 75
0
 76
0
 77
1
 78
12
 79
3
170
0
171
3
172
1
173
0
174
0
175
0
176
0
177
0
178
0
179
2
271
2
272
2
273
2
274
3
275
0
276
0
277
2
278
46
279
2
280
0
281
0
282
0
283
0
284
8
285
0
286
0
288
1
289
3
290
0
340
4C
371
-2
372
-2
  0
DIMSTYLE
105
80
330
4
100
AcDbSymbolTableRecord
100
AcDbDimStyleTableRecord
  2
EZ_M_10_H25_CM
 70
0
 40
1.0
 41
0.025
 42
0.0125
 43
3.75
 44
0.037500000000000006
 45
0.0
 46
0.0
 47
0.0
 48
0.0
 49
2.5
140
0.025
141
2.5
142
0.0125
143
0.03937007874
144
100.0
145
0.0
146
0.5
147
0.010000000000000002
148
0.0
 69
0
 70
0
 71
0
 72
0
 73
0
 74
0
 75
0
 76
0
 77
1
 78
12
 79
3
170
0
171
3
172
1
173
0
174
0
175
0
176
0
177
0
178
0
179
2
271
2
272
2
273
2
274
3
275
0
276
0
277
2
278
46
279
2
280
0
281
0
282
0
283
0
284
8
285
0
286
0
288
1
289
3
290
0
340
4C
371
-2
372
-2
  0
DIMSTYLE
105
81
330
4
100
AcDbSymbolTableRecord
100
AcDbDimStyleTableRecord
  2
EZ_M_5_H25_CM
 70
0
 40
1.0
 41
0.0125
 42
0.00625
 43
3.75
 44
0.018750000000000003
 45
0.0
 46
0.0
 47
0.0
 48
0.0
 49
2.5
140
0.0125
141
2.5
142
0.00625
143
0.03937007874
144
100.0
145
0.0
146
0.5
147
0.005000000000000001
148
0.0
 69
0
 70
0
 71
0
 72
0
 73
0
 74
0
 75
0
 76
0
 77
1
 78
12
 79
3
170
0
171
3
172
1
173
0
174
0
175
0
176
0
177
0
178
0
179
2
271
2
272
2
273
2
274
3
275
0
276
0
277
2
278
46
279
2
280
0
281
0
282
0
283
0
284
8
285
0
286
0
288
1
289
3
290
0
340
4C
371
-2
372
-2
  0
DIMSTYLE
105
82
330
4
100
AcDbSymbolTableRecord
100
AcDbDimStyleTableRecord
  2
EZ_M_1_H25_CM
 70
0
 40
1.0
 41
0.0025
 42
0.00125
 43
3.75
 44
0.00375
 45
0.0
 46
0.0
 47
0.0
 48
0.0
 49
2.5
140
0.0025
141
2.5
142
0.00125
143
0.03937007874
144
100.0
145
0.0
146
0.5
147
0.001
148
0.0
 69
0
 70
0
 71
0
 72
0
 73
0
 74
0
 75
0
 76
0
 77
1
 78
12
 79
3
170
0
171
3
172
1
173
0
174
0
175
0
176
0
177
0
178
0
179
2
271
2
272
2
273
2
274
3
275
0
276
0
277
2
278
46
279
2
280
0
281
0
282
0
283
0
284
8
285
0
286
0
288
1
289
3
290
0
340
4C
371
-2
372
-2
  0
DIMSTYLE
105
83
330
4
100
AcDbSymbolTableRecord
100
AcDbDimStyleTableRecord
  2
EZ_RADIUS
 70
0
 40
1.0
 41
0.25
 42
0.125
 43
3.75
 44
0.375
 45
0.0
 46
0.0
 47
0.0
 48
0.0
 49
2.5
140
0.25
141
0.0
142
0.0
143
0.03937007874
144
100.0
145
0.0
146
0.5
147
0.1
148
0.0
 69
0
 70
0
 71
0
 72
0
 73
0
 74
0
 75
0
 76
0
 77
1
 78
12
 79
3
170
0
171
3
172
0
173
0
174
0
175
0
176
0
177
0
178
0
179
2
271
2
272
2
273
2
274
3
275
0
276
0
277
2
278
46
279
1
280
0
281
0
282
0
283
0
284
8
285
0
286
0
288
1
289
3
290
0
340
4C
342
84
371
-2
372
-2
  0
DIMSTYLE
105
88
330
4
100
AcDbSymbolTableRecord
100
AcDbDimStyleTableRecord
  2
EZ_RADIUS_INSIDE
 70
0
 40
1.0
 41
0.25
 42
0.125
 43
3.75
 44
0.375
 45
0.0
 46
0.0
 47
0.0
 48
0.0
 49
2.5
140
0.25
141
0.0
142
0.0
143
0.03937007874
144
100.0
145
0.0
146
0.5
147
0.1
148
0.0
 69
0
 70
0
 71
0
 72
0
 73
0
 74
0
 75
0
 76
0
 77
0
 78
12
 79
3
170
0
171
3
172
0
173
0
174
1
175
0
176
0
177
0
178
0
179
2
271
2
272
2
273
2
274
3
275
0
276
0
277
2
278
46
279
0
280
0
281
0
282
0
283
0
284
8
285
0
286
0
288
1
289
0
290
0
340
4C
342
84
371
-2
372
-2
  0
DIMSTYLE
105
89
330
4
100
AcDbSymbolTableRecord
100
AcDbDimStyleTableRecord
  2
EZ_CURVED
 70
0
 40
1.0
 41
0.25
 42
0.125
 43
3.75
 44
0.375
 45
0.0
 46
0.0
 47
0.0
 48
0.0
 49
2.5
140
0.25
141
2.5
142
0.0
143
0.03937007874
144
100.0
145
0.0
146
0.5
147
0.1
148
0.0
 69
0
 70
0
 71
0
 72
0
 73
0
 74
0
 75
0
 76
0
 77
1
 78
12
 79
2
 90
2
170
0
171
3
172
1
173
0
174
0
175
0
176
0
177
0
178
0
179
2
271
2
272
2
273
2
274
3
275
0
276
0
277
2
278
46
279
2
280
0
281
0
282
0
283
0
284
8
285
0
286
0
288
1
289
3
290
0
340
4C
371
-2
372
-2
  0
ENDTAB
  0
TABLE
  2
BLOCK_RECORD
  5
9
330
0
100
AcDbSymbolTable
 70
5
  0
BLOCK_RECORD
  5
17
330
9
100
AcDbSymbolTableRecord
100
AcDbBlockTableRecord
  2
*Model_Space
340
1A
 70
0
280
1
281
0
  0
BLOCK_RECORD
  5
1B
330
9
100
AcDbSymbolTableRecord
100
AcDbBlockTableRecord
  2
*Paper_Space
340
1E
 70
0
280
1
281
0
  0
BLOCK_RECORD
  5
74
330
9
100
AcDbSymbolTableRecord
100
AcDbBlockTableRecord
  2
_ARCHTICK
340
0
 70
0
280
1
281
0
  0
BLOCK_RECORD
  5
78
330
9
100
AcDbSymbolTableRecord
100
AcDbBlockTableRecord
  2
_CLOSEDFILLED
340
0
 70
0
280
1
281
0
  0
BLOCK_RECORD
  5
84
330
9
100
AcDbSymbolTableRecord
100
AcDbBlockTableRecord
  2
_CLOSEDBLANK
340
0
 70
0
280
1
281
0
  0
ENDTAB
  0
ENDSEC
  0
SECTION
  2
BLOCKS
  0
BLOCK
  5
18
330
17
100
AcDbEntity
  8
0
100
AcDbBlockBegin
  2
*Model_Space
 70
0
 10
0.0
 20
0.0
 30
0.0
  3
*Model_Space
  1

  0
ENDBLK
  5
19
330
17
100
AcDbEntity
  8
0
100
AcDbBlockEnd
  0
BLOCK
  5
1C
330
1B
100
AcDbEntity
  8
0
100
AcDbBlockBegin
  2
*Paper_Space
 70
0
 10
0.0
 20
0.0
 30
0.0
  3
*Paper_Space
  1

  0
ENDBLK
  5
1D
330
1B
100
AcDbEntity
  8
0
100
AcDbBlockEnd
  0
BLOCK
  5
75
330
74
100
AcDbEntity
  8
0
100
AcDbBlockBegin
  2
_ARCHTICK
 70
0
 10
0.0
 20
0.0
 30
0.0
  3
_ARCHTICK
  1

  0
LWPOLYLINE
  5
77
330
74
100
AcDbEntity
  8
0
  6
BYBLOCK
 62
0
100
AcDbPolyline
 90
2
 70
0
 43
0.15
 10
-0.5
 20
-0.5
 10
0.5
 20
0.5
  0
ENDBLK
  5
76
330
74
100
AcDbEntity
  8
0
100
AcDbBlockEnd
  0
BLOCK
  5
79
330
78
100
AcDbEntity
  8
0
100
AcDbBlockBegin
  2
_CLOSEDFILLED
 70
0
 10
0.0
 20
0.0
 30
0.0
  3
_CLOSEDFILLED
  1

  0
SOLID
  5
7B
330
78
100
AcDbEntity
  8
0
  6
BYBLOCK
 62
0
100
AcDbTrace
 10
-1.0
 20
0.16439898372402537
 30
0.0
 11
0.0
 21
0.0
 31
0.0
 12
-1.0
 22
-0.16439898372402537
 32
0.0
 13
-1.0
 23
-0.16439898372402537
 33
0.0
  0
ENDBLK
  5
7A
330
78
100
AcDbEntity
  8
0
100
AcDbBlockEnd
  0
BLOCK
  5
85
330
84
100
AcDbEntity
  8
0
100
AcDbBlockBegin
  2
_CLOSEDBLANK
 70
0
 10
0.0
 20
0.0
 30
0.0
  3
_CLOSEDBLANK
  1

  0
LWPOLYLINE
  5
87
330
84
100
AcDbEntity
  8
0
  6
BYBLOCK
 62
0
100
AcDbPolyline
 90
3
 70
1
 10
-1.0
 20
0.16439898372402537
 10
0.0
 20
0.0
 10
-1.0
 20
-0.16439898372402537
  0
ENDBLK
  5
86
330
84
100
AcDbEntity
  8
0
100
AcDbBlockEnd
  0
ENDSEC
  0
SECTION
  2
ENTITIES
  0
LWPOLYLINE
  5
8D
330
17
100
AcDbEntity
  8
HOJA
100
AcDbPolyline
 90
4
 70
1
 10
0.0
 20
0.0
 10
600.0
 20
0.0
 10
600.0
 20
900.0
 10
0.0
 20
900.0
  0
LWPOLYLINE
  5
8E
330
17
100
AcDbEntity
  8
CORTE
100
AcDbPolyline
 90
386
 70
1
 10
327.27082576705436
 20
424.54273526532506
 10
325.03400015808495
 20
424.19961159887407
 10
323.9789938276732
 20
423.8327848471108
 10
319.7276561729856
 20
422.03771143068207
 10
317.143100106348
 20
420.8206832580008
 10
314.4889974755903
 20
419.3777442712026
 10
311.1752221569142
 20
416.9372372613316
 10
309.29892429881886
 20
416.06149677978556
 10
306.31038829298916
 20
416.698600917779
 10
303.50771996105925
 20
417.11994886564116
 10
300.8417473277992
 20
417.3715821782962
 10
297.9987615380729
 20
416.41714558173953
 10
293.5202303326083
 20
416.9966496399311
 10
292.2899406883845
 20
417.04178365712596
 10
291.58561917649297
 20
416.8024549573938
 10
287.1486453466456
 20
413.85970500456824
 10
285.7549938638173
 20
412.81706661160024
 10
282.51274291232005
 20
406.9499156586653
 10
282.0313699396362
 20
406.6612881135152
 10
277.54588622785434
 20
402.3090335399638
 10
277.1464598056642
 20
401.713796225069
 10
272.6689268839483
 20
396.99090122593316
 10
272.3516193987613
 20
396.6300972750714
 10
267.5010877874407
 20
393.597860982627
 10
266.11742817505876
 20
392.97335334931813
 10
262.1407423527904
 20
391.56372274194746
 10
257.7485441840032
 20
391.46155292004823
 10
256.55925928864383
 20
391.1492043956505
 10
255.02854970636702
 20
391.60859439585965
 10
250.82679288978545
 20
391.8371435816325
 10
246.09771733507762
 20
393.23584919855875
 10
245.04864329358827
 20
393.10724989274877
 10
243.02785687747712
 20
392.66899072886736
 10
239.74373371528065
 20
390.9819758492986
 10
238.88529295636783
 20
390.63182569754554
 10
234.40972188013586
 20
388.8062803886942
 10
230.9408205079559
 20
388.7090456534079
 10
228.97271928017483
 20
387.36768446393853
 10
226.2533500091837
 20
389.0288087346644
 10
223.14967735636048
 20
388.75809623201985
 10
220.6633284022024
 20
389.12288567929045
 10
217.85736674622797
 20
386.6740523721446
 10
214.12267237298613
 20
385.83894402169335
 10
212.66610258658204
 20
383.78805796182314
 10
209.57065940295308
 20
380.5511113191851
 10
207.69704271213743
 20
379.02301361433
 10
203.6375204645625
 20
376.6218784568782
 10
202.59481440762795
 20
375.3670774455177
 10
197.77615325758381
 20
372.62385011467904
 10
197.4438315176286
 20
372.23003453120054
 10
197.5745478300979
 20
363.0055107119597
 10
193.36077907182118
 20
361.04297062050045
 10
191.49824949515244
 20
359.1989301137264
 10
188.4961956296471
 20
355.7499529400948
 10
186.8049572732167
 20
354.0408906722196
 10
183.75070009140575
 20
349.57121321550676
 10
182.76397223972128
 20
348.23653617085347
 10
179.44954006654018
 20
342.18890577948787
 10
179.43007575661034
 20
341.74916019914144
 10
179.29345376851654
 20
341.3721715046495
 10
176.35680207250664
 20
334.941760565448
 10
174.9914804852075
 20
331.9665634082603
 10
172.84247194173315
 20
328.58666726231786
 10
170.43721939341287
 20
324.34884405878984
 10
169.00838836809783
 20
322.55075506575486
 10
165.68691354662826
 20
318.10145950203423
 10
164.605382153307
 20
317.080492694683
 10
160.74429443207066
 20
313.2194049734471
 10
159.5521376381713
 20
312.26547109727017
 10
155.6904229291432
 20
309.1754304687538
 10
154.2414545939497
 20
307.72646213356074
 10
150.72342124574618
 20
304.6318154731807
 10
149.91430468821238
 20
302.223814558457
 10
145.99182596259527
 20
298.3016220328682
 10
145.42802013478706
 20
296.8247029028116
 10
140.7501374678801
 20
295.2631361683916
 10
137.93730815728725
 20
294.41972450399135
 10
135.4487129158748
 20
293.03069550951204
 10
130.95694449533323
 20
291.5460232010146
 10
130.1173959003537
 20
291.0182721913998
 10
125.74827612861475
 20
288.48022812606814
 10
124.90932860120495
 20
287.9804177838405
 10
124.73195562073863
 20
287.9438195777393
 10
124.53922860535761
 20
287.294487798109
 10
125.73053717959249
 20
282.57124009850304
 10
126.79029390036214
 20
276.48767824953484
 10
127.72983730242834
 20
275.1979560933796
 10
132.29152274968612
 20
268.9100240830512
 10
133.61788963220954
 20
266.4876261970785
 10
137.42563892871624
 20
260.9403447811692
 10
141.04924373491087
 20
252.01237842209684
 10
141.1915518947941
 20
251.6054574879572
 10
141.38545425612585
 20
251.29931538187793
 10
145.8610599277032
 20
243.17900498526342
 10
149.29774372826262
 20
235.10804474954512
 10
149.72988651639037
 20
233.94363855923893
 10
150.06049630059135
 20
233.14518637411857
 10
153.821135731651
 20
224.94600175600135
 10
157.30209835389962
 20
218.21877105635576
 10
158.37295177184762
 20
216.40537376776865
 10
159.72940594591103
 20
213.61837535920768
 10
162.30054969784453
 20
207.21577228473416
 10
163.67388975521237
 20
199.80375378647568
 10
164.28543252501242
 20
196.0854840200709
 10
164.09454539107458
 20
189.50450029163312
 10
162.4973256561176
 20
181.40741162670656
 10
162.47939767773335
 20
181.2522374569644
 10
162.4304691658541
 20
181.10984975155043
 10
160.29192404688604
 20
173.5763115341515
 10
158.74411406968113
 20
168.12346980964412
 10
158.1781213272326
 20
165.8406425656185
 10
157.88087664854595
 20
163.47749747835678
 10
157.6572402334583
 20
156.52289194599234
 10
158.49482320311893
 20
151.02126157047587
 10
161.52856954477522
 20
142.8111912125387
 10
162.07086128073445
 20
141.51580039988403
 10
162.70894092072342
 20
140.0431036791224
 10
165.95815774846017
 20
132.29904951221306
 10
167.3292400970655
 20
127.14447200671293
 10
168.28863352142355
 20
121.5154435843242
 10
168.7795282364783
 20
115.81091952007773
 10
166.78214496091744
 20
111.1442372198735
 10
166.3122502873199
 20
108.41410516004453
 10
165.6605876487589
 20
105.77971102933498
 10
168.28015036228146
 20
96.62500522390565
 10
168.6318531135754
 20
95.69484834257764
 10
169.0697088014973
 20
94.9439784523247
 10
172.91708332856308
 20
86.89105382186699
 10
176.60605688867474
 20
81.36569062379658
 10
178.22767373326326
 20
79.11382627217517
 10
182.4425721102749
 20
72.6138582870035
 10
183.43442530731738
 20
71.22704477458683
 10
183.7107307049033
 20
70.85082117590264
 10
189.73637373677832
 20
64.44768347722129
 10
190.31437732633879
 20
63.87734634826029
 10
196.42611220155743
 20
58.046042757546275
 10
196.80503034599917
 20
57.701632927839455
 10
198.49450663181472
 20
56.56224111307074
 10
203.0559843146126
 20
53.251594265560016
 10
203.98834655211715
 20
52.52605385811421
 10
209.24877416695347
 20
49.15714222436145
 10
212.3736258355076
 20
47.860795710198545
 10
214.99118373129716
 20
48.05321989215645
 10
216.75646152165803
 20
48.11341829017783
 10
220.40776030611835
 20
49.50359392154769
 10
226.14161995821235
 20
48.52756719354056
 10
226.20183809505227
 20
48.51393621218904
 10
226.29095964926057
 20
48.47555331929925
 10
232.17068030716393
 20
46.0888074633076
 10
235.6690934651548
 20
44.94681365361794
 10
238.07999569579954
 20
44.11280781651021
 10
244.2173732127718
 20
40.351779846244426
 10
244.25720606634115
 20
40.287548796996816
 10
244.34492597462906
 20
40.27527685289806
 10
250.245060592909
 20
37.63321715837901
 10
252.99127598847383
 20
35.99817347122644
 10
253.09543428954896
 20
31.47572382220369
 10
251.36293146417086
 20
29.78975648476171
 10
249.2422833858792
 20
25.441130296018855
 10
246.66487663168084
 20
23.11267260819841
 10
243.82933234040786
 20
20.960474676669946
 10
241.52735247789371
 20
19.600412161445092
 10
237.82670413883955
 20
17.10435254479671
 10
236.38205877950224
 20
16.16219010622899
 10
231.14669331096331
 20
14.086383821745585
 10
231.0461197349233
 20
14.042839247643315
 10
231.00303760858844
 20
14.031422950797605
 10
225.49484129091854
 20
13.374372940634203
 10
221.7530641290847
 20
13.41526675742989
 10
219.9177223836383
 20
13.034818705659745
 10
217.2689647409444
 20
13.333797805043105
 10
214.21889771848384
 20
13.443701212674569
 10
210.65495838469644
 20
14.62928830725923
 10
208.3189603400366
 20
15.309377963166298
 10
206.7994730378747
 20
16.012398372497955
 10
201.832949355785
 20
21.229541389401675
 10
200.48142215960127
 20
22.799861210564814
 10
195.57834754643784
 20
25.820951047301605
 10
192.08368778605666
 20
27.48054051881536
 10
189.44474378514326
 20
29.383440485591564
 10
184.3593351094661
 20
32.8661180908739
 10
183.1824779120535
 20
33.91020284391652
 10
179.90043069622436
 20
35.5188843364258
 10
177.1358350082911
 20
36.96017646064047
 10
175.94351360621852
 20
37.53001119302371
 10
170.98655671344625
 20
40.63130666742927
 10
167.9946433576921
 20
42.67627603390065
 10
164.89864223749794
 20
43.92333611063441
 10
160.21569785514305
 20
48.00808106867862
 10
158.55705388735998
 20
48.98856533838352
 10
152.73818335079443
 20
53.62851712632164
 10
152.22285738189896
 20
53.985804983731214
 10
146.0555672484503
 20
60.054358093390874
 10
145.69717565277517
 20
60.37516882186537
 10
143.4711043476974
 20
62.086831868128684
 10
139.54824839504784
 20
64.1395508361984
 10
138.14835149231988
 20
65.21940433517466
 10
133.50207977796038
 20
67.14964035169305
 10
129.75436647290564
 20
69.9356050113065
 10
127.19379628015179
 20
71.94402376509697
 10
122.3152176472073
 20
75.59579219827447
 10
120.87628073883172
 20
76.8516191699573
 10
114.80926328128965
 20
81.1651453112272
 10
114.64763122745774
 20
81.22368794692193
 10
114.20051108595464
 20
81.49977325123382
 10
108.44003888606505
 20
85.32940859750943
 10
106.7018986601239
 20
86.15238310636596
 10
102.38648952414053
 20
88.37011783136495
 10
98.36032335359425
 20
90.9157625053349
 10
96.2281586221003
 20
92.15947349040744
 10
90.7718518892176
 20
95.07526572044753
 10
90.1812675119005
 20
95.26440059570723
 10
89.74453626051684
 20
95.36581051323174
 10
84.35425206614548
 20
96.61729870243016
 10
80.63843521763476
 20
99.37519385944415
 10
78.25755629438856
 20
99.96035592095268
 10
72.47984655295534
 20
104.33218119683352
 10
71.96083316894521
 20
104.67595805366636
 10
70.19569440063572
 20
105.78968167792937
 10
65.88387665361563
 20
107.9754240225775
 10
63.6331649726709
 20
108.56441170579183
 10
59.73963349521284
 20
111.51783137592065
 10
56.52610253177056
 20
114.59268030296244
 10
53.0971870149657
 20
118.69688568708534
 10
50.25947214930068
 20
121.39598093822406
 10
46.92475414436069
 20
122.73964824102131
 10
41.19094707351644
 20
125.43673068080261
 10
40.82105356406703
 20
125.94424408149553
 10
35.64559418629426
 20
133.036142539494
 10
33.484712029455864
 20
142.5192958920079
 10
33.46997061812465
 20
143.99958601917297
 10
34.62893513897427
 20
151.277888383378
 10
36.875567403875834
 20
154.0147112070017
 10
39.00022339512054
 20
156.78258437579734
 10
41.48744228501948
 20
161.162524229695
 10
42.82176788309937
 20
162.82494900013626
 10
46.194842451193495
 20
167.68136270855575
 10
46.928849959363674
 20
168.58565854457902
 10
51.11246727715218
 20
172.76927586236798
 10
51.91985431909109
 20
173.43494954479775
 10
52.72003207078944
 20
176.35286087102122
 10
53.211955581645384
 20
181.95148735803105
 10
53.0312383890074
 20
189.73968779205006
 10
52.4813466787906
 20
192.52602095029488
 10
51.1911093007767
 20
200.97403335262698
 10
46.42489394422739
 20
208.42285479285147
 10
46.06407871478007
 20
208.9038038865665
 10
45.99452516681151
 20
208.96723500732242
 10
45.698758501667385
 20
209.1498023992308
 10
39.79557742878262
 20
213.07799610533493
 10
38.129088765518304
 20
214.03237501694002
 10
33.67327797228711
 20
216.59135124863042
 10
30.23835135611455
 20
219.26350027489661
 10
27.14880335694272
 20
222.90061278934172
 10
23.682311636358122
 20
225.8155947954483
 10
20.28477456588564
 20
231.6088790989861
 10
19.068503791431453
 20
234.32305469418498
 10
17.31946241512071
 20
237.534233665795
 10
15.480530290341108
 20
243.84781464985008
 10
13.060597608756893
 20
251.66672608249155
 10
13.505408101480612
 20
255.01548342051228
 10
15.714960489844657
 20
258.94168852403436
 10
16.36977241940042
 20
259.5270997854941
 10
20.114959056554767
 20
264.4027652516261
 10
21.153429002393864
 20
265.5116354814554
 10
25.289862525244303
 20
269.10103149572933
 10
26.1760290080025
 20
269.8991672996199
 10
29.209024652431367
 20
270.71270924464534
 10
31.61877208587805
 20
271.203510059021
 10
32.35592105471335
 20
271.85780775542753
 10
32.88304149996486
 20
274.3859930754197
 10
34.181917523165
 20
279.86852408809955
 10
35.493311692079374
 20
283.37562594377505
 10
38.16270093073456
 20
285.7500293945077
 10
37.69930131240346
 20
292.26883228745737
 10
35.88821678232955
 20
297.83605806204923
 10
34.84420399588555
 20
302.51008059076867
 10
33.661899458430184
 20
309.9430750501406
 10
36.26184824291033
 20
317.0623445523752
 10
36.31448989060539
 20
317.1788747915716
 10
36.332504523758075
 20
317.22277647482315
 10
38.46966173827798
 20
324.88188709775113
 10
40.42983017270092
 20
328.0853196517628
 10
41.802860741197605
 20
331.41374235868807
 10
44.89998354246666
 20
336.26837898898793
 10
45.4432422213323
 20
337.6137999071725
 10
45.92291670232828
 20
339.82805143241785
 10
205.83412618053
 20
499.73926091062003
 10
233.31992396738826
 20
527.2247284244158
 10
265.061794292165
 20
558.9666039476606
 10
289.0947392110294
 20
582.99955261593
 10
317.5597049383829
 20
611.4645229634343
 10
348.0437087993579
 20
641.948531857658
 10
374.1859620920437
 20
668.0907893721278
 10
402.97179339504976
 20
696.8766254309567
 10
441.3556723501125
 20
735.2605110297418
 10
468.4802057337662
 20
762.3850489017341
 10
493.46908266255207
 20
787.3739299262061
 10
504.1797129228868
 20
798.0845615110657
 10
516.3629424176453
 20
810.2677926263159
 10
529.2276504321991
 20
823.1325024041334
 10
534.3649131302897
 20
828.2697653095192
 10
534.3649150328825
 20
828.2697634069254
 10
534.635739973152
 20
828.5405883781214
 10
542.3000712527584
 20
836.2049204074947
 10
542.4838757998147
 20
836.3887242047849
 10
557.5984236764685
 20
851.5032743370402
 10
573.0480282743639
 20
866.9528812707604
 10
574.4540049840404
 20
868.3588573009083
 10
574.5600708352655
 20
868.2527914685807
 10
573.0593464084346
 20
866.752065781674
 10
564.54535026204
 20
858.2380671085784
 10
552.0446288623203
 20
845.7373423531726
 10
543.114594454935
 20
836.8073053030957
 10
539.4268205990908
 20
833.1195298671619
 10
538.110925335554
 20
831.8036340470435
 10
538.1109281366367
 20
831.8036312459599
 10
525.9692166616629
 20
819.6619163350015
 10
498.72796547609244
 20
792.4206585288584
 10
454.04189798432037
 20
747.7345806886105
 10
401.45510191171945
 20
695.1477725315426
 10
334.4714501594159
 20
628.164105561661
 10
280.1614440238824
 20
573.8540870827937
 10
281.5651326450767
 20
573.1072746413693
 10
285.13850418731056
 20
571.2553945855025
 10
287.6197082646887
 20
570.0938938627414
 10
288.5873701085999
 20
569.3016673190241
 10
293.94747882567856
 20
565.1580727495048
 10
295.83517253689854
 20
563.4447786217688
 10
300.4298448622145
 20
559.0447608896893
 10
303.21432415089305
 20
557.7368370380073
 10
306.8925296999456
 20
553.1800663333624
 10
309.36473607316896
 20
550.7549588577613
 10
311.53070929723583
 20
544.8618040518622
 10
313.2515108870558
 20
541.5378110370175
 10
314.4731111395091
 20
539.3663417244561
 10
318.12296625234023
 20
533.3241159665749
 10
321.56142022399956
 20
528.9460741814137
 10
324.0972151641896
 20
526.2111463073588
 10
328.3923800791282
 20
520.3953519362612
 10
329.86892955386986
 20
518.8920680040201
 10
335.0621648593848
 20
512.9708783034939
 10
336.0393265657091
 20
511.99371659717053
 10
341.060591912552
 20
510.1865917197947
 10
344.84432769024636
 20
507.7081853617883
 10
347.18868151755635
 20
506.6411632092486
 10
352.86489337462547
 20
502.62096110726725
 10
353.4417111283334
 20
502.2182490413461
 10
355.80509715753044
 20
500.5922426926745
 10
359.63549919851596
 20
498.1883570898199
 10
360.692255464298
 20
497.3347629934169
 10
366.3404710996007
 20
490.6192916859409
 10
366.6707926296268
 20
490.1923303426511
 10
367.1492506817523
 20
489.2445179225733
 10
370.89979127952176
 20
481.3104327642932
 10
374.4978180291265
 20
472.7223197499561
 10
374.78438423466207
 20
472.0713290454469
 10
374.7482726857139
 20
471.76088075459757
 10
374.86936529072193
 20
470.1061141195205
 10
375.4488950708038
 20
461.2078526740306
 10
375.5315336009886
 20
459.72953308961587
 10
376.77015059532016
 20
456.6173861420566
 10
379.4047474825253
 20
450.51249572614415
 10
380.0139670849768
 20
446.78470562264647
 10
379.4867607350203
 20
437.47393534182993
 10
379.48896241254545
 20
437.4138438572436
 10
379.45642428317717
 20
437.3875819613995
 10
375.20250188180273
 20
431.78808407564884
 10
374.62021746362836
 20
431.5285140547994
 10
373.4566958718757
 20
431.4349217410918
 10
369.1404221550607
 20
430.5752600130518
 10
367.5474517318536
 20
429.55916080742554
 10
363.79276177345866
 20
428.5291924443418
 10
359.48863797163415
 20
427.7243312268374
 10
358.2467971576549
 20
427.8945230327745
 10
356.19913683484367
 20
427.2676860848014
 10
352.79673975526487
 20
426.684008309373
 10
350.8349412496633
 20
426.5221735966725
 10
347.2009317908438
 20
426.5263671707071
 10
342.9158886540737
 20
424.613711793786
 10
341.8966314639098
 20
424.24175357524564
 10
340.0312075212033
 20
424.21618241149463
 10
336.18527798966454
 20
424.7036960073792
 10
332.623987755209
 20
425.01927036238976
 10
330.60656408282205
 20
424.50018549375545
 10
327.27082576705436
 20
424.54273526532506
  0
LWPOLYLINE
  5
8F
330
17
100
AcDbEntity
  8
CORTE
100
AcDbPolyline
 90
7
 70
1
 10
148.05837748008537
 20
323.96429330509363
 10
147.94823618982002
 20
323.96421628498047
 10
147.89536987002032
 20
323.9314549007877
 10
147.50733617823573
 20
323.36505730308727
 10
148.01709576045243
 20
323.29152899614473
 10
148.24212791956563
 20
323.5165611552584
 10
148.05837748008537
 20
323.96429330509363
  0
LWPOLYLINE
  5
90
330
17
100
AcDbEntity
  8
CORTE
100
AcDbPolyline
 90
330
 70
1
 10
69.47169065549053
 20
116.06665045384125
 10
75.52272143161201
 20
112.2487206414653
 10
77.45231132456468
 20
110.97062576219378
 10
81.07382320294403
 20
108.23033283033237
 10
85.08606130684859
 20
107.24422240815966
 10
86.96994020199702
 20
105.8459994350842
 10
89.63848798079846
 20
105.22642987120616
 10
92.97608437853489
 20
103.56617365883812
 10
94.2497837108973
 20
102.94528644889124
 10
99.36902044175133
 20
100.20962083947688
 10
103.11864396048088
 20
98.02243150497361
 10
105.57967963714793
 20
96.46637989225292
 10
111.03352230858275
 20
93.66359204619039
 10
111.61878769653197
 20
93.38648063250275
 10
112.71366466039365
 20
92.65859247071057
 10
117.39942888087819
 20
89.76525235770987
 10
119.62558874479976
 20
88.95894406166826
 10
124.8042562648667
 20
85.2770166762457
 10
128.08849712033054
 20
82.41070737262908
 10
131.07438283480053
 20
80.17567868547394
 10
135.3364976311342
 20
76.83262981612916
 10
136.61875921087687
 20
75.87942578082402
 10
140.98007385595486
 20
74.06757164812552
 10
143.05119054077397
 20
72.73451449052573
 10
143.69202153373737
 20
72.28821167755177
 10
149.927333282135
 20
67.49377734055543
 10
151.64440004891924
 20
65.95676183310934
 10
156.44558687350275
 20
61.232441004361135
 10
157.8974016792164
 20
60.22586296910322
 10
162.2599892907789
 20
56.74714728689196
 10
165.47322677693194
 20
54.84768672079281
 10
168.26598051047642
 20
52.41167941412186
 10
172.95443034902803
 20
50.5231857125882
 10
174.38884962693976
 20
49.542761772047925
 10
177.51811497173333
 20
47.584952442260146
 10
180.04471967011216
 20
45.87532573782573
 10
180.5323955412897
 20
45.682005395220585
 10
186.71117112543527
 20
42.653504805516604
 10
190.00991740206985
 20
39.72692144505254
 10
193.1192559049192
 20
37.59753042424654
 10
196.9593635929242
 20
34.82849069115855
 10
198.63627012523796
 20
34.03213951062662
 10
204.01957658504273
 20
30.71514890434628
 10
205.46689260156802
 20
30.10215429589789
 10
206.70218637172695
 20
28.822734676105938
 10
211.91609965141436
 20
23.345692551793945
 10
215.21473465343445
 20
22.248362119968988
 10
219.22964023082534
 20
22.103692576309186
 10
219.36455365177756
 20
22.13165878384916
 10
224.87819083228044
 20
22.071400340069886
 10
228.1479502752519
 20
22.461436451953887
 10
228.48163834518766
 20
22.549860176235597
 10
231.97381550300418
 20
24.061841483967328
 10
232.8461265697507
 20
24.40771013540234
 10
237.5006388497037
 20
27.547143843431513
 10
238.53988896904605
 20
28.16115665660891
 10
240.5115992685229
 20
29.657698551993235
 10
237.84702397643252
 20
33.95436453176899
 10
235.39478430579368
 20
35.457114194074165
 10
231.82068159560015
 20
36.693507144745126
 10
230.0825624630803
 20
37.260884752878155
 10
227.15974650123337
 20
38.44733888746032
 10
224.33159674759065
 20
39.66536711907247
 10
223.07242787565804
 20
39.95039266641015
 10
221.4036655221222
 20
40.23445205372809
 10
219.7219026667109
 20
39.59414681514045
 10
215.5941494153186
 20
39.45338475802146
 10
209.47360140811418
 20
39.00344573458551
 10
206.36671908889605
 20
40.292337653828326
 10
202.88342006033656
 20
42.52313094296278
 10
200.2270679435593
 20
44.15171329663826
 10
198.95612475468863
 20
44.695679776659745
 10
192.95661307423472
 20
48.741782440964926
 10
190.0845082786401
 20
51.35232283883579
 10
185.9400288436401
 20
55.306636680058546
 10
183.1908138439527
 20
58.01938694344699
 10
178.8471051236089
 20
62.63522045900481
 10
176.49087294839376
 20
65.84351879859514
 10
171.6055190335643
 20
72.67424217805001
 10
171.0254277919281
 20
73.44239878670214
 10
168.97962838338992
 20
76.34361767318205
 10
165.2803331459869
 20
81.88444073154278
 10
163.82918556128618
 20
84.92183208636288
 10
160.40744527714025
 20
90.78970550333997
 10
157.45656993108935
 20
98.59395781292278
 10
156.10075491069313
 20
103.33218666853645
 10
158.05880859949377
 20
111.24776267391007
 10
159.2851821646683
 20
118.37310793900451
 10
159.5604496923662
 20
119.016242441553
 10
158.0073570330884
 20
128.128669627019
 10
157.88210342055493
 20
128.59955998185706
 10
157.3018236993163
 20
129.98257559191825
 10
154.13940162828715
 20
137.28148989946567
 10
151.37535067381452
 20
143.88407292757438
 10
150.0066337918439
 20
147.58816042717172
 10
148.36336105518387
 20
158.3819319468148
 10
148.4668385046972
 20
161.59985530055656
 10
149.39887527303483
 20
169.0097040486462
 10
151.1247724962169
 20
175.97079189656597
 10
151.55597332277978
 20
177.48988654573532
 10
152.15934708316456
 20
179.61541536573714
 10
153.85940494534418
 20
184.5627830409676
 10
154.50025745121104
 20
190.10963017517588
 10
154.96045517217328
 20
192.44259768645952
 10
154.98625439806585
 20
193.33204624331938
 10
153.5969576941535
 20
201.77917404178243
 10
153.3581691760561
 20
203.06793344540802
 10
152.12369690545404
 20
206.14198791986837
 10
149.97238699311094
 20
211.91709070584784
 10
148.40827171480453
 20
215.62369343155933
 10
145.97577976034893
 20
220.3246731111658
 10
144.03188613530722
 20
224.56287329011775
 10
141.7994602206819
 20
229.1625360379703
 10
138.7222425611791
 20
235.17071587241207
 10
137.49703841476696
 20
238.04807512924071
 10
136.45841759093776
 20
239.9324957178187
 10
132.49745874544044
 20
246.18624257642114
 10
129.61811334180413
 20
254.4195436205473
 10
129.1624817672888
 20
255.54214489385504
 10
128.54702682600112
 20
256.43876425933377
 10
124.68965534827532
 20
263.48363897399395
 10
121.81752155295601
 20
267.44265417535735
 10
119.20567296357478
 20
270.2238698750325
 10
114.89435943505816
 20
277.1629791067817
 10
112.02026626250574
 20
279.41887595652406
 10
112.83920192013386
 20
284.47424951560333
 10
113.11673216647534
 20
285.74081477864365
 10
116.39164943350636
 20
296.77459669513246
 10
121.87311849871332
 20
297.9056141368028
 10
125.35387138831686
 20
299.9793031770914
 10
127.1213760507959
 20
300.84483005380844
 10
130.24505714866348
 20
301.7393529390747
 10
132.20709793780827
 20
302.3878698159615
 10
133.17227141408296
 20
302.9265889780554
 10
138.09328216276174
 20
304.40212745116423
 10
139.24736574038945
 20
307.4253103084793
 10
139.8784602545262
 20
308.0563587753886
 10
138.3842983781625
 20
308.6249065613465
 10
135.60934429804058
 20
315.73335685776783
 10
132.4814391554488
 20
325.3632148008064
 10
138.40935483679516
 20
327.0708174229112
 10
141.0839742310551
 20
330.9748547056124
 10
145.55986866989053
 20
333.7485771412694
 10
155.53876758070794
 20
333.75555523202183
 10
157.2815293632881
 20
329.5090865880793
 10
159.26345532487687
 20
331.38002684363346
 10
161.05864681539163
 20
333.6391561614373
 10
164.22841861949348
 20
337.3966541609252
 10
164.22870204644653
 20
337.39687221248187
 10
168.62667798359973
 20
343.3880530486522
 10
169.23001348626724
 20
343.7046417309748
 10
173.26113504620582
 20
349.79566131837873
 10
174.30696698479062
 20
350.02504726038296
 10
175.91351431315672
 20
352.9564104443425
 10
177.78263737893178
 20
355.48464114672515
 10
180.47392784619262
 20
359.4231439036712
 10
183.13740301583277
 20
362.11468936002075
 10
185.5234194179426
 20
364.85591802395084
 10
189.08813653650088
 20
368.38524869561206
 10
189.41244496479305
 20
368.53629359841307
 10
189.37144290270874
 20
371.42976948663545
 10
187.69851823186093
 20
379.1849805537395
 10
193.46457151791003
 20
381.18154523500016
 10
198.04347811623495
 20
385.1039056940526
 10
198.64818696621444
 20
385.27758490383985
 10
202.57452447840626
 20
388.693166407581
 10
207.01361969897937
 20
393.1838843659725
 10
207.71998847090447
 20
393.82375097090426
 10
210.48009523247913
 20
395.6409137305691
 10
214.1234709823908
 20
396.45560248646416
 10
216.48756566086615
 20
398.518807369388
 10
223.11030128776213
 20
397.5471400317392
 10
226.41751166002416
 20
397.8356057614701
 10
226.47076266675015
 20
397.87189903374474
 10
227.00543089863152
 20
397.88688600466503
 10
229.8727606323597
 20
398.1369839031713
 10
230.1384217798319
 20
397.97470503043314
 10
232.6218032699377
 20
398.04431523720905
 10
234.53159998180456
 20
398.82330419053415
 10
236.49588472778998
 20
399.62451801309635
 10
241.15936134664582
 20
402.0200903037721
 10
243.82296215487315
 20
402.8740619518694
 10
247.28033772972378
 20
402.62029468422315
 10
251.66739965591808
 20
401.3227454936932
 10
255.14850263720166
 20
401.13339535119394
 10
255.96616664243186
 20
401.15978996385184
 10
257.4814726048986
 20
401.18524047709525
 10
260.4743504100371
 20
401.2548597840041
 10
261.39581400268673
 20
401.5814944093754
 10
263.7852013337607
 20
402.659932064008
 10
265.84615458411065
 20
403.948305740033
 10
266.9985689794413
 20
405.2586929394374
 10
269.6787768318096
 20
408.0857721555831
 10
271.56763587856096
 20
410.9006069405277
 10
275.3833114349251
 20
414.6029481947735
 10
276.8074028252173
 20
415.45682247807326
 10
278.80500018201394
 20
419.07165840867765
 10
282.7681661310245
 20
422.0366385540392
 10
286.86065018052307
 20
424.7509113231472
 10
290.96744432014077
 20
426.14640142945245
 10
296.07770807078725
 20
425.9589279080119
 10
296.9776112248966
 20
425.84248403258516
 10
298.2364435548708
 20
426.2650945320811
 10
304.12646907328474
 20
425.70915235385564
 10
307.5876762752738
 20
425.1888008962587
 10
310.442960358621
 20
427.2916413578023
 10
312.58747992211795
 20
428.4575385805656
 10
316.60348112141685
 20
430.3486125116551
 10
320.03697783128075
 20
431.7983629596065
 10
323.08090755707974
 20
432.8567403567131
 10
328.99601839456375
 20
433.7641041269935
 10
329.44742021335526
 20
433.75834616804696
 10
330.19224583357084
 20
433.94999044907763
 10
336.6934955529679
 20
433.3738993270699
 10
340.5983148288743
 20
432.87892081254813
 10
345.4965692637703
 20
435.0652868264724
 10
349.01201348978896
 20
435.0612300743378
 10
351.6832162322627
 20
435.28158569555035
 10
356.4322625593978
 20
436.0962797864495
 10
356.46268137712343
 20
436.1047997979358
 10
356.9509845470958
 20
436.19749182808755
 10
361.96981721880377
 20
437.136001954791
 10
363.2247585332276
 20
437.4802513777022
 10
366.1766407152628
 20
439.36315208732685
 10
368.92085965377885
 20
439.9097114924016
 10
370.5471054861174
 20
442.14139065793006
 10
371.07449456296365
 20
447.72387601306036
 10
367.38920022602963
 20
456.9835402789604
 10
367.1006161852448
 20
462.1460164058417
 10
366.65517785149734
 20
468.9854004854178
 10
365.0546222238378
 20
472.1957443414876
 10
363.04231314335823
 20
476.9989153587221
 10
360.8255620402889
 20
481.6883438738869
 10
359.3340435910533
 20
485.1092279662653
 10
354.75198158926435
 20
490.49196303720873
 10
354.558837312332
 20
490.72147412937284
 10
349.8029233199828
 20
493.9935364373332
 10
347.5263780945635
 20
495.5829331315208
 10
344.0359275839402
 20
498.05506011215675
 10
339.85564369671295
 20
499.95769761491556
 10
338.3265376897149
 20
500.9592860641269
 10
335.1098215631433
 20
502.1169639270256
 10
331.7615592406647
 20
503.9979438034179
 10
329.98908152443084
 20
505.22535832539415
 10
324.1668547800815
 20
511.5160062485056
 10
323.200776365603
 20
512.26272712023
 10
319.1196696527219
 20
517.620451468606
 10
317.19147556201017
 20
520.2312895996756
 10
316.75462103464645
 20
520.7024497888751
 10
311.0197231369881
 20
528.0044590164334
 10
309.0770812094594
 20
531.2204445090038
 10
305.84501849822266
 20
536.9656340500414
 10
301.62000512384805
 20
545.1268973979668
 10
297.2429411405884
 20
550.5494537682616
 10
296.75747296596603
 20
550.777487572429
 10
289.99267875617454
 20
557.2556893612591
 10
289.777425277579
 20
557.4510560770877
 10
287.01320988031387
 20
559.5879134644374
 10
283.63615915590356
 20
562.0139133972816
 10
283.3759439636534
 20
562.2412274136341
 10
279.99043379021043
 20
563.9957493532174
 10
272.6708978450762
 20
556.676212220048
 10
248.33180078085218
 20
532.3371113586572
 10
216.18554527337403
 20
500.1908505866695
 10
188.34962481645528
 20
472.35526460993333
 10
57.24291431077211
 20
341.2485541042506
 10
57.21014522425469
 20
341.0088502612389
 10
56.62551705944827
 20
339.16485438667496
 10
55.18591140598585
 20
332.51941223742415
 10
52.249410395959444
 20
325.2469469481175
 10
51.7479648978657
 20
324.46094786466256
 10
51.21056413255576
 20
323.15821145731843
 10
49.97036020588587
 20
318.0607212922905
 10
48.730119468366524
 20
314.6252481190413
 10
47.81684932755536
 20
311.0534597209562
 10
47.18555238118972
 20
307.3468120108819
 10
47.258961272682086
 20
304.14781524963473
 10
48.68629238229471
 20
297.59759673294593
 10
49.49538562694681
 20
291.8622342984154
 10
49.82041743651382
 20
284.47809145650626
 10
49.84207871666024
 20
279.8476106104399
 10
47.73118813548774
 20
274.0190131356803
 10
42.638257904846455
 20
270.040858422165
 10
41.64058295318421
 20
265.255790436976
 10
35.54635407431772
 20
259.8465175689407
 10
32.67092838957262
 20
259.2608706052133
 10
31.990824394589367
 20
258.41371578016606
 10
29.70146742980353
 20
256.666995801942
 10
28.91742016391629
 20
254.0583446527462
 10
27.810699136077915
 20
251.8258204404674
 10
27.60217554266012
 20
248.80260116834415
 10
27.65610808433314
 20
245.1021527268358
 10
29.0748741810786
 20
240.23109728413965
 10
32.381148851896
 20
233.09821233605817
 10
32.65340976728669
 20
232.61845761562745
 10
34.04155552416489
 20
230.6345464180622
 10
37.25486140956275
 20
226.85174225005812
 10
37.61525568777972
 20
226.64476748501602
 10
42.69948167599762
 20
224.45216731868823
 10
45.00641782819423
 20
222.58553005047906
 10
49.48902226864914
 20
219.81856034735665
 10
53.65522787540533
 20
216.01908356066724
 10
57.207515740334316
 20
211.28405718200975
 10
60.89697238008796
 20
207.69987670897262
 10
62.249146896169464
 20
200.7050146304382
 10
63.2932603901578
 20
193.8106932992414
 10
63.65834222907108
 20
188.64748744525878
 10
63.77101443061076
 20
180.05241045123876
 10
63.411786193811736
 20
176.7829749113871
 10
62.67015628767433
 20
175.09053033639884
 10
60.46815132685481
 20
167.06074545179672
 10
56.3743693391267
 20
163.6855080634241
 10
54.35823683613728
 20
161.66937556043467
 10
52.39113505005855
 20
159.24590994955088
 10
50.517222095180045
 20
156.5479273290248
 10
47.8592865692691
 20
153.23642834941438
 10
46.64844009524188
 20
151.1041533212383
 10
43.09779517403797
 20
146.47858812394497
 10
43.02660557886577
 20
146.03151714849446
 10
43.0793140216025
 20
140.73868692670112
 10
43.78674661787829
 20
137.6340790350514
 10
45.799567204208074
 20
134.87592180977026
 10
47.427066387224045
 20
132.64290710716614
 10
49.36154533958836
 20
131.7329620831906
 10
55.84620274979454
 20
129.1200808383519
 10
57.661710831427285
 20
127.3932585628545
 10
63.123312018105594
 20
120.85605084034432
 10
63.8184476502239
 20
120.19091424235103
 10
68.82002309771144
 20
116.39699312118864
 10
69.47169065549053
 20
116.06665045384125
  0
LWPOLYLINE
  5
91
330
17
100
AcDbEntity
  8
GRABADO
100
AcDbPolyline
 90
392
 70
1
 10
246.35553875237167
 20
25.30531535740647
 10
242.44933079525038
 20
22.340476221827885
 10
241.24148078757582
 20
21.62685072657314
 10
236.50137311619358
 20
18.429683567445863
 10
236.0991592535853
 20
18.16736950457016
 10
234.65512311029045
 20
17.594813621072717
 10
230.7816184055447
 20
15.917731833890684
 10
229.46550550183213
 20
15.568976169522102
 10
225.2560891260456
 20
15.066852259446932
 10
220.04456893381996
 20
15.123808871975598
 10
219.63499454374016
 20
15.038908182963496
 10
219.04110997024475
 20
15.105943034343909
 10
213.95855132818735
 20
15.289083440810828
 10
208.04986319876446
 20
17.25467929867682
 10
208.01528443613927
 20
17.288389080033994
 10
201.64919212170946
 20
23.97837093533326
 10
201.42252293074364
 20
24.213136961950113
 10
200.8000930788313
 20
24.47676020594281
 10
195.28891897313963
 20
27.872538037773666
 10
193.38150354671654
 20
28.778356279474792
 10
189.09394480999902
 20
31.870045748758457
 10
185.69261816346454
 20
34.199401144872354
 10
182.7767280939812
 20
36.78632194528018
 10
177.69783188335953
 20
39.27572133508511
 10
176.75473800711063
 20
39.64957462994789
 10
173.69907846672106
 20
41.717186216857954
 10
170.55591273392668
 20
43.683692255398455
 10
169.63292241175316
 20
44.31455508796171
 10
164.55485818684167
 20
46.35998430976451
 10
161.3569812012812
 20
49.14936441481677
 10
158.2775615238903
 20
50.969720447908
 10
153.71642484741153
 20
54.606758622939196
 10
151.96383333620554
 20
55.821872364042974
 10
146.85254207619403
 20
60.85133292113551
 10
145.45330120900337
 20
62.10384968584458
 10
139.55602441043095
 20
66.63836335873657
 10
139.15535428758596
 20
66.91740760731955
 10
137.7172003204729
 20
67.8430635366285
 10
133.13569514404583
 20
69.74639309741815
 10
131.08763545559634
 20
71.26887399399766
 10
126.81639999533502
 20
74.6190767826256
 10
123.68354329247643
 20
76.96411784354405
 10
120.4640411360275
 20
79.77392668222456
 10
116.3459346740957
 20
82.70181670403417
 10
114.3363816598586
 20
83.42967066141318
 10
108.93604048656346
 20
86.76424385062364
 10
108.16530645001933
 20
87.27663766253772
 10
107.9351348492379
 20
87.38561929547996
 10
102.10254109594382
 20
90.38305135716655
 10
99.48354087093651
 20
92.0389800226767
 10
95.95474447234722
 20
94.09735889940384
 10
91.06545994858072
 20
96.71014049742826
 10
89.88358077606028
 20
97.28626835058549
 10
87.25578175225348
 20
98.59344247657828
 10
83.96780872987131
 20
99.35682697645552
 10
82.04625427171743
 20
100.78301291352727
 10
78.00122208762525
 20
101.77718332202767
 10
73.40367734850327
 20
105.25601199238099
 10
71.72184536445968
 20
106.37000043855369
 10
66.0139470927121
 20
109.97142898585389
 10
65.57056126977261
 20
110.19618968425766
 10
65.32833185339462
 20
110.25957858651873
 10
59.26865322599508
 20
114.85611881135719
 10
58.001760336291795
 20
116.06833810748412
 10
52.54686917520132
 20
122.59751433344263
 10
51.99034451535874
 20
123.12685330428121
 10
46.561472948914
 20
125.31432379027501
 10
42.82575601261226
 20
127.07153961989843
 10
40.14262133442719
 20
130.7529418890863
 10
37.282119993130095
 20
134.67266834633028
 10
36.08715109481284
 20
139.91685682665138
 10
36.02108819127636
 20
146.55070359232468
 10
36.47919666571272
 20
149.42762685664002
 10
37.36966038076855
 20
150.51238000340436
 10
40.800690061854425
 20
154.98211770906346
 10
42.049196248462636
 20
157.18071069449525
 10
44.906329045130974
 20
160.74038783810556
 10
46.791198997571996
 20
163.45414589202028
 10
49.151937421516436
 20
166.36257108242626
 10
51.662164632818644
 20
168.872798293728
 10
54.30392749611258
 20
171.05087636777625
 10
56.054166777471096
 20
177.433262046261
 10
56.570600448454684
 20
178.6117951091337
 10
56.765986779135915
 20
180.39006014537426
 10
56.66158148208399
 20
188.3545052745767
 10
56.33038236282903
 20
193.0385214295884
 10
55.3493743897526
 20
199.51615459283403
 10
54.44168185362753
 20
204.21169057905445
 10
51.93691040615579
 20
206.64499005592552
 10
48.45134863538999
 20
211.29107380717596
 10
45.255521994251126
 20
214.20558890398297
 10
40.950040573376214
 20
216.8632261787343
 10
39.04416473918775
 20
218.40534898837086
 10
34.475984436123895
 20
220.37540164053917
 10
33.021585636655914
 20
221.21066420709485
 10
32.551337606229595
 20
221.57648652501211
 10
28.49417727771936
 20
226.35270253068393
 10
26.728532563675003
 20
228.87612797196653
 10
26.151206311723058
 20
229.89344253657964
 10
22.50184885764395
 20
237.76648680725975
 10
20.670647503900568
 20
244.05355790466547
 10
20.598660581912668
 20
248.99276316020132
 10
20.922766033353696
 20
253.69171271758842
 10
22.38357045750729
 20
256.638508851659
 10
23.65099472357599
 20
260.85543289699217
 10
27.06639789510848
 20
263.4612969213331
 10
28.795647641573964
 20
265.61529436471665
 10
32.30626074000304
 20
266.33031194031446
 10
35.26087983739819
 20
268.9528489727427
 10
36.61593194249156
 20
275.4519762040554
 10
38.47311359112484
 20
275.66979367180375
 10
41.835214470467804
 20
278.2959748395724
 10
42.836329396520455
 20
281.06025640962525
 10
42.82113774231641
 20
284.3077405535523
 10
42.51696836315625
 20
291.2179261961328
 10
41.79131762545296
 20
296.3617955945283
 10
40.276236052858735
 20
303.3147130390271
 10
40.17195973896935
 20
307.8588436425989
 10
40.96421365047911
 20
312.51054703479986
 10
42.031703421380485
 20
316.68548652794107
 10
43.25804273923234
 20
320.0824526977567
 10
44.53547378451651
 20
325.3329538853495
 10
45.51328786556735
 20
327.70331523431923
 10
46.0005255665061
 20
328.46704406989375
 10
48.4711963385613
 20
334.58584578994305
 10
49.85367727019286
 20
340.9675913961091
 10
50.355989867665926
 20
342.5519528984123
 10
50.62664519999328
 20
344.53177993008285
 10
183.3998922081288
 20
477.30502693821745
 10
211.23582754375332
 20
505.14062779348114
 10
243.38205290722874
 20
537.286858421644
 10
267.7211499906631
 20
561.6259593022469
 10
296.54872674639057
 20
590.4535407369831
 10
327.42106186674266
 20
621.3258809547015
 10
353.89633749436564
 20
647.80116085789
 10
383.0488672853086
 20
676.9536954652403
 10
421.92171285126744
 20
715.8265477595533
 10
449.3917816920349
 20
743.2966211458361
 10
474.6989882632257
 20
768.6038318648853
 10
485.5460596733607
 20
779.4509046164194
 10
497.88448954385024
 20
791.7893361280449
 10
510.9130791891645
 20
804.8179275590855
 10
516.1124068256132
 20
810.0172554053324
 10
516.1124087525683
 20
810.0172534783769
 10
516.3900615905046
 20
810.29490634802
 10
524.1520276634752
 20
818.0568731803096
 10
524.3381736683697
 20
818.2430184258856
 10
539.6452635575685
 20
833.5501105994199
 10
555.2916784051182
 20
849.1965278125526
 10
556.7121877466867
 20
850.6170364675645
 10
556.8182535979109
 20
850.5109706352387
 10
555.3017895594531
 20
848.9945053234869
 10
546.6793348636053
 20
840.3720480687543
 10
534.0193686053013
 20
827.7120784120152
 10
524.9755757978124
 20
818.6682829281699
 10
521.2408239310213
 20
814.9335294611583
 10
519.9047877726931
 20
813.5974927377292
 10
519.9047906092215
 20
813.5974899012026
 10
507.6117855485787
 20
801.3044813617607
 10
480.0235120549265
 20
773.7162011631945
 10
434.76819529574607
 20
728.4608739237128
 10
381.51150373177427
 20
675.204170121332
 10
313.6745570526924
 20
607.3672080308143
 10
278.83044686868254
 20
572.523089927593
 10
281.8761591973695
 20
570.9026622731135
 10
287.3458361244931
 20
568.0680324302148
 10
287.99063656918236
 20
567.5047594807775
 10
291.1971438211914
 20
565.2012742764209
 10
294.27729771367797
 20
562.8201828441661
 10
294.7665370735473
 20
562.3761431584162
 10
300.7710740608369
 20
556.625990079724
 10
301.6776438188364
 20
556.2001567059497
 10
307.480678978388
 20
549.0110259571602
 10
307.5514148831286
 20
548.9416376677191
 10
307.6098411267063
 20
548.7826722223917
 10
312.0054934131564
 20
540.2917935631167
 10
315.12480347513986
 20
534.7470287659935
 10
316.78969726964954
 20
531.9908469838838
 10
322.08264227402526
 20
525.2515581678299
 10
322.59020548440833
 20
524.704136627578
 10
324.71964992958794
 20
521.8207989064185
 10
328.2108305723233
 20
517.2375363626752
 10
328.90855243907174
 20
516.6982390626317
 10
334.6051413297379
 20
510.5433370556502
 10
335.47654935787943
 20
509.9398999243904
 10
338.02943041274614
 20
508.5057476900247
 10
341.47254552581273
 20
507.26659011783977
 10
343.24303441701215
 20
506.10689208855456
 10
347.5399708926517
 20
504.1511606822505
 10
351.5529106522041
 20
501.30897838484543
 10
353.7903734497678
 20
499.74686754509366
 10
359.30569663046083
 20
495.95233275645023
 10
360.09509128871116
 20
495.0143042886075
 10
365.3363246904297
 20
488.85721369589464
 10
367.19961909897995
 20
484.5836398725942
 10
369.43794000651144
 20
479.84858149128286
 10
371.42193898167864
 20
475.112983730387
 10
373.54876034951997
 20
470.8470726972346
 10
374.0879086936976
 20
462.56883905111954
 10
374.31465091603616
 20
458.51265040466296
 10
377.704469211125
 20
449.9953987375857
 10
378.0611498282666
 20
449.16889807188545
 10
378.14541992035186
 20
448.6532527872723
 10
378.0735459848262
 20
447.38391734979086
 10
377.3354441303387
 20
439.5710084857883
 10
374.1517940359869
 20
435.2021206801355
 10
373.33493053130644
 20
433.65136441361847
 10
368.8329733505458
 20
432.75472056211856
 10
366.0970440319476
 20
431.0095685073311
 10
363.5417530852234
 20
430.3086134716914
 10
358.2470579809193
 20
429.31851770675075
 10
358.0623201631821
 20
429.28344989555353
 10
357.97212204314803
 20
429.2581862897914
 10
352.564430351959
 20
428.330502253305
 10
349.29621739845163
 20
428.0608974478846
 10
346.9840501263103
 20
428.06356564254565
 10
341.7861496666138
 20
425.74345078124406
 10
341.6897233986598
 20
425.7082618778013
 10
341.5209737737729
 20
425.7059486640637
 10
335.94415529642686
 20
426.41287134873255
 10
330.77207664006494
 20
426.87118147753245
 10
330.28957880778
 20
426.74703436489654
 10
329.4853829702148
 20
426.7572924684855
 10
324.7750994859945
 20
426.034746315293
 10
322.5505206397771
 20
425.2612580350069
 10
319.4571562942707
 20
423.9551241649233
 10
315.7529252858118
 20
422.21085807853615
 10
314.20781219254116
 20
421.3708363342894
 10
309.90818423201165
 20
418.20427518623455
 10
309.0529444195414
 20
417.8051018236574
 10
307.7043798238966
 20
418.09259244868645
 10
303.27659483298305
 20
418.7582574145481
 10
299.0567757880391
 20
419.1565537180568
 10
297.677617068961
 20
418.6935476915396
 10
295.49902898467155
 20
418.9754482919934
 10
291.99903401757877
 20
419.10384800158226
 10
289.9727560909711
 20
418.4153180429157
 10
286.8025706867526
 20
416.31274468853644
 10
284.2036541986205
 20
414.36840627679703
 10
282.0228988163427
 20
410.4221290728865
 10
279.6770699749792
 20
409.0155880781722
 10
276.97025995435763
 20
406.38917651389875
 10
275.16352720846373
 20
403.6967288222695
 10
272.16856767688625
 20
400.53765000775184
 10
270.4257685048175
 20
398.5559481690152
 10
267.09532616482204
 20
396.4739726367525
 10
264.0095555483009
 20
395.081225976076
 10
261.75714641866
 20
394.2828061382088
 10
257.6216442653564
 20
394.1866074918298
 10
256.13787629873025
 20
394.1616866789909
 10
255.07118369237753
 20
394.1272532956091
 10
250.46839456402824
 20
394.3776161208507
 10
246.01700515104596
 20
395.69419127449964
 10
244.66592813512955
 20
395.793358725442
 10
243.84524239574978
 20
395.5302403365067
 10
239.4225799919692
 20
393.2583714345219
 10
237.17536550243733
 20
392.34175315147604
 10
234.0885777484965
 20
391.0826801063513
 10
228.71773304580313
 20
390.93213311556156
 10
228.4915913602382
 20
390.7780060432042
 10
228.1879974093032
 20
390.9634561347839
 10
222.90357258697088
 20
390.5025312793923
 10
218.66126443979977
 20
391.124949641694
 10
217.38641408102933
 20
390.0123556710887
 10
213.25864225816497
 20
389.08935197291976
 10
212.01974117229804
 20
388.27370058309407
 10
211.85619196841856
 20
388.125548968831
 10
207.09726392668028
 20
383.3112788174103
 10
206.91789113288917
 20
383.1935493214505
 10
202.0718507660173
 20
378.97790413249913
 10
201.44026778439695
 20
378.79650636865426
 10
197.00991354381597
 20
375.00139809996745
 10
195.8487336016666
 20
374.5993257038108
 10
196.36087422859111
 20
372.2251849388076
 10
196.47595417487275
 20
364.10410436718394
 10
193.14761706416505
 20
362.5539492940525
 10
190.63294227752942
 20
360.06423733134943
 10
188.27046147673184
 20
357.3500480728826
 10
185.89564473663552
 20
354.9502032088012
 10
183.48875823080118
 20
351.42790442529895
 10
181.82417206935736
 20
349.1763363412165
 10
178.91573994755493
 20
343.86950803036416
 10
177.53249282575382
 20
343.56611564736795
 10
174.07493184761927
 20
338.34174537489616
 10
173.31201241116798
 20
337.9414180975609
 10
169.28399899030921
 20
332.4542219055529
 10
169.09346177854025
 20
332.3076340980724
 10
166.4752381573095
 20
329.2039501021909
 10
164.65094507315973
 20
326.90819836069295
 10
164.47731174977628
 20
326.67560711223723
 10
159.60743585649482
 20
322.0784389914961
 10
159.50846457387036
 20
321.9794677088712
 10
158.2156811243559
 20
320.94501491426945
 10
154.30795600280737
 20
318.3176287004417
 10
150.8463563644201
 20
326.75227218942837
 10
147.5552346029582
 20
326.7499707585257
 10
146.02508892834396
 20
325.80173584246495
 10
142.76308638628564
 20
321.04031836086324
 10
141.37541712405857
 20
320.6405846604912
 10
142.20409141595212
 20
318.08935137553
 10
143.77588207159363
 20
314.06297997282945
 10
149.21040853749867
 20
311.9950728479098
 10
146.92993450977758
 20
305.2081847368918
 10
145.25394957414585
 20
303.53232208794816
 10
143.44887889249333
 20
298.80384414510536
 10
140.39447367311107
 20
297.78422524406506
 10
135.91573346066946
 20
296.44129920061005
 10
135.03675985790562
 20
295.9506931754504
 10
132.307868140933
 20
295.0487076798154
 10
129.64378291279547
 20
294.28579842941417
 10
128.6900802873471
 20
293.81878112969025
 10
124.44266138383102
 20
291.2883440923342
 10
121.91000589382531
 20
290.76576930465217
 10
119.89992998798391
 20
283.99346412188515
 10
119.71827123553214
 20
283.1644277605692
 10
119.5905027628138
 20
282.37569991284454
 10
120.18819955608762
 20
281.9065633079763
 10
124.78446496911931
 20
274.50882070628813
 10
127.22342828472767
 20
271.91170114435135
 10
130.61633678845476
 20
267.23483812181985
 10
134.51765937678294
 20
260.1096937028933
 10
135.3631879781675
 20
258.87789383062045
 10
136.16892032131602
 20
256.8927018356917
 10
138.8402636404213
 20
249.25416923358443
 10
142.48606135951843
 20
243.498013483867
 10
143.79862321603252
 20
241.11656827359275
 10
145.0655864091824
 20
238.14113900938082
 10
148.0640994153606
 20
232.28662776887813
 10
150.36270748469644
 20
227.55060412788316
 10
152.26916295788453
 20
223.39402898223398
 10
154.75111988397168
 20
218.5974544020719
 10
156.4798323651786
 20
214.50079318810185
 10
158.6524622328094
 20
208.66845786092927
 10
160.11392765953553
 20
205.02915024642516
 10
160.49268730831648
 20
202.98495623337203
 10
162.0028562146523
 20
193.80290770970987
 10
161.94065270706608
 20
191.65839297564162
 10
161.42195534270434
 20
189.02886213677903
 10
160.7260578212505
 20
183.00557731344543
 10
158.84128402223052
 20
177.52066460792503
 10
158.2899118220713
 20
175.5783237589667
 10
157.89080213485488
 20
174.17228426629208
 10
156.29258667047827
 20
167.72617722237283
 10
155.45275519440804
 20
161.04937602421796
 10
155.38041386839052
 20
158.79971831105922
 10
156.81965855360352
 20
149.34609692096183
 10
157.88983978181034
 20
146.44992097550403
 10
160.5796766216132
 20
140.02461574076278
 10
163.74098145106166
 20
132.72828004238636
 10
164.52316444294513
 20
130.86405620669848
 10
164.85420634747982
 20
129.61950575629908
 10
166.53441916065424
 20
119.76122922355444
 10
166.69497410619363
 20
117.89547365036287
 10
166.04420888683865
 20
116.37502709015189
 10
164.91457970351541
 20
109.81177574384947
 10
163.34417470968685
 20
103.46329809026338
 10
164.1067041864527
 20
100.79845139973531
 10
166.74853678513603
 20
93.81153201413781
 10
170.02122149060335
 20
88.19927100346558
 10
171.3804029965064
 20
85.35437348981031
 10
174.7518010724708
 20
80.30467645310546
 10
176.68035386317717
 20
77.56972904984468
 10
177.2463491980758
 20
76.8202382357058
 10
182.15888689917995
 20
69.9515063664503
 10
184.23682256085897
 20
67.12214277347903
 10
188.19969472924925
 20
62.91100446969267
 10
190.81476513805467
 20
60.33061954487857
 10
194.8554280990653
 20
56.47535865505415
 10
197.29025499675356
 20
54.262272980747184
 10
202.3201947481499
 20
50.8700547947692
 10
203.45065900894826
 20
50.38621360491834
 10
206.60072726361534
 20
48.454938929388845
 10
209.6206859880382
 20
46.52088055522381
 10
210.61939547482564
 20
46.10656534951704
 10
215.2181162171952
 20
46.444630489671
 10
218.3194882739582
 20
46.55039153787675
 10
220.69670789925442
 20
47.45548120283911
 10
224.43345835046114
 20
46.81940558579208
 10
226.5071245966061
 20
46.35001036011727
 10
229.8609130404617
 20
44.905599928099946
 10
232.48804883072455
 20
43.83917078539798
 10
234.0511910445872
 20
43.328911233057624
 10
238.40296097344765
 20
41.82349907810294
 10
242.92063197961136
 20
39.055038613082615
 10
244.87584809648718
 20
35.90222450517376
 10
249.34283795808471
 20
35.27729624272888
 10
250.6606750662055
 20
34.687173384088055
 10
251.2997706909797
 20
34.30666817373185
 10
251.3241767511214
 20
33.24698136063216
 10
250.92939934642357
 20
32.862807782307755
 10
247.9435087316116
 20
26.739904950286473
 10
246.35553875237167
 20
25.30531535740647
  0
TEXT
  5
92
330
17
100
AcDbEntity
  8
GRABADO
100
AcDbText
 10
374.7109237180356
 20
441.0255510751658
 30
0.0
 40
6.0
  1
79d
 72
1
 11
374.7109237180356
 21
441.0255510751658
 31
0.0
100
AcDbText
 73
2
  0
TEXT
  5
93
330
17
100
AcDbEntity
  8
HOJA
100
AcDbText
 10
10.0
 20
891.0
 30
0.0
 40
6.0
  1
gale_crater  hoja 38/39  1:30  lamina 3.0mm
 11
10.0
 21
891.0
 31
0.0
100
AcDbText
  0
ENDSEC
  0
SECTION
  2
OBJECTS
  0
DICTIONARY
  5
A
330
0
100
AcDbDictionary
281
1
  3
ACAD_COLOR
350
B
  3
ACAD_GROUP
350
C
  3
ACAD_LAYOUT
350
D
  3
ACAD_MATERIAL
350
E
  3
ACAD_MLEADERSTYLE
350
F
  3
ACAD_MLINESTYLE
350
10
  3
ACAD_PLOTSETTINGS
350
11
  3
ACAD_PLOTSTYLENAME
350
12
  3
ACAD_SCALELIST
350
14
  3
ACAD_TABLESTYLE
350
15
  3
ACAD_VISUALSTYLE
350
16
  3
EZDXF_META
350
2D
  0
DICTIONARY
  5
B
330
A
100
AcDbDictionary
281
1
  0
DICTIONARY
  5
C
330
A
100
AcDbDictionary
281
1
  0
DICTIONARY
  5
D
330
A
100
AcDbDictionary
281
1
  3
Model
350
1A
  3
Layout1
350
1E
  0
DICTIONARY
  5
E
330
A
100
AcDbDictionary
281
1
  3
ByBlock
350
1F
  3
ByLayer
350
20
  3
Global
350
21
  0
DICTIONARY
  5
F
330
A
100
AcDbDictionary
281
1
  3
Standard
350
2C
  0
DICTIONARY
  5
10
330
A
100
AcDbDictionary
281
1
  3
Standard
350
22
  0
DICTIONARY
  5
11
330
A
100
AcDbDictionary
281
1
  0
ACDBDICTIONARYWDFLT
  5
12
330
A
100
AcDbDictionary
281
1
  3
Normal
350
13
100
AcDbDictionaryWithDefault
340
13
  0
ACDBPLACEHOLDER
  5
13
330
12
  0
DICTIONARY
  5
14
330
A
100
AcDbDictionary
281
1
  0
DICTIONARY
  5
15
330
A
100
AcDbDictionary
281
1
  0
DICTIONARY
  5
16
330
A
100
AcDbDictionary
281
1
  3
2dWireframe
350
5A
  3
Basic
350
5B
  3
Brighten
350
5C
  3
ColorChange
350
5D
  3
Conceptual
350
5E
  3
Dim
350
5F
  3
EdgeColorOff
350
60
  3
Facepattern
350
61
  3
Flat
350
62
  3
FlatWithEdges
350
63
  3
Gouraud
350
64
  3
GouraudWithEdges
350
65
  3
Hidden
350
66
  3
JitterOff
350
67
  3
Linepattern
350
68
  3
Modeling
350
69
  3
OverhangOff
350
6A
  3
Realistic
350
6B
  3
Shaded
350
6C
  3
Shaded with edges
350
6D
  3
Shades of Gray
350
6E
  3
Sketchy
350
6F
  3
Thicken
350
70
  3
Wireframe
350
71
  3
X-Ray
350
72
  0
LAYOUT
  5
1A
330
D
100
AcDbPlotSettings
  1

  4
A3
  6

 40
7.5
 41
20.0
 42
7.5
 43
20.0
 44
420.0
 45
297.0
 46
0.0
 47
0.0
 48
0.0
 49
0.0
140
0.0
141
0.0
142
1.0
143
1.0
 70
1024
 72
1
 73
0
 74
5
  7

 75
16
 76
0
 77
2
 78
300
147
1.0
148
0.0
149
0.0
100
AcDbLayout
  1
Model
 70
1
 71
0
 10
0.0
 20
0.0
 11
420.0
 21
297.0
 12
0.0
 22
0.0
 32
0.0
 14
1e+20
 24
1e+20
 34
1e+20
 15
-1e+20
 25
-1e+20
 35
-1e+20
146
0.0
 13
0.0
 23
0.0
 33
0.0
 16
1.0
 26
0.0
 36
0.0
 17
0.0
 27
1.0
 37
0.0
 76
1
330
17
  0
LAYOUT
  5
1E
330
D
100
AcDbPlotSettings
  1

  4
A3
  6

 40
7.5
 41
20.0
 42
7.5
 43
20.0
 44
420.0
 45
297.0
 46
0.0
 47
0.0
 48
0.0
 49
0.0
140
0.0
141
0.0
142
1.0
143
1.0
 70
0
 72
1
 73
0
 74
5
  7

 75
16
 76
0
 77
2
 78
300
147
1.0
148
0.0
149
0.0
100
AcDbLayout
  1
Layout1
 70
1
 71
1
 10
0.0
 20
0.0
 11
420.0
 21
297.0
 12
0.0
 22
0.0
 32
0.0
 14
1e+20
 24
1e+20
 34
1e+20
 15
-1e+20
 25
-1e+20
 35
-1e+20
146
0.0
 13
0.0
 23
0.0
 33
0.0
 16
1.0
 26
0.0
 36
0.0
 17
0.0
 27
1.0
 37
0.0
 76
1
330
1B
  0
MATERIAL
  5
1F
102
{ACAD_REACTORS
330
E
102
}
330
E
100
AcDbMaterial
  1
ByBlock
  2

 70
0
 40
1.0
 71
1
 41
1.0
 91
-1023410177
 42
1.0
 72
1
  3

 73
1
 74
1
 75
1
 44
0.5
 73
0
 45
1.0
 46
1.0
 77
1
  4

 78
1
 79
1
170
1
 48
1.0
171
1
  6

172
1
173
1
174
1
140
1.0
141
1.0
175
1
  7

176
1
177
1
178
1
143
1.0
179
1
  8

270
1
271
1
272
1
145
1.0
146
1.0
273
1
  9

274
1
275
1
276
1
 42
1.0
 72
1
  3

 73
1
 74
1
 75
1
 94
63
  0
MATERIAL
  5
20
102
{ACAD_REACTORS
330
E
102
}
330
E
100
AcDbMaterial
  1
ByLayer
  2

 70
0
 40
1.0
 71
1
 41
1.0
 91
-1023410177
 42
1.0
 72
1
  3

 73
1
 74
1
 75
1
 44
0.5
 73
0
 45
1.0
 46
1.0
 77
1
  4

 78
1
 79
1
170
1
 48
1.0
171
1
  6

172
1
173
1
174
1
140
1.0
141
1.0
175
1
  7

176
1
177
1
178
1
143
1.0
179
1
  8

270
1
271
1
272
1
145
1.0
146
1.0
273
1
  9

274
1
275
1
276
1
 42
1.0
 72
1
  3

 73
1
 74
1
 75
1
 94
63
  0
MATERIAL
  5
21
102
{ACAD_REACTORS
330
E
102
}
330
E
100
AcDbMaterial
  1
Global
  2

 70
0
 40
1.0
 71
1
 41
1.0
 91
-1023410177
 42
1.0
 72
1
  3

 73
1
 74
1
 75
1
 44
0.5
 73
0
 45
1.0
 46
1.0
 77
1
  4

 78
1
 79
1
170
1
 48
1.0
171
1
  6

172
1
173
1
174
1
140
1.0
141
1.0
175
1
  7

176
1
177
1
178
1
143
1.0
179
1
  8

270
1
271
1
272
1
145
1.0
146
1.0
273
1
  9

274
1
275
1
276
1
 42
1.0
 72
1
  3

 73
1
 74
1
 75
1
 94
63
  0
MLINESTYLE
  5
22
102
{ACAD_REACTORS
330
10
102
}
330
10
100
AcDbMlineStyle
  2
Standard
 70
0
  3

 62
256
 51
90.0
 52
90.0
 71
2
 49
0.5
 62
256
  6
BYLAYER
 49
-0.5
 62
256
  6
BYLAYER
  0
MLEADERSTYLE
  5
2C
102
{ACAD_REACTORS
330
F
102
}
330
F
100
AcDbMLeaderStyle
179
2
170
2
171
1
172
0
 90
2
 40
0.0
 41
0.0
173
1
 91
-1056964608
 92
-2
290
1
 42
2.0
291
1
 43
8.0
  3
Standard
 44
4.0
300

342
29
174
1
175
1
176
0
178
1
 93
-1056964608
 45
4.0
292
0
297
0
 46
4.0
 94
-1056964608
 47
1.0
 49
1.0
140
1.0
294
1
141
0.0
177
0
142
1.0
295
0
296
0
143
3.75
271
0
272
9
273
9
  0
DICTIONARY
  5
2D
330
A
100
AcDbDictionary
280
1
281
1
  3
CREATED_BY_EZDXF
350
2E
  3
WRITTEN_BY_EZDXF
350
96
  0
DICTIONARYVAR
  5
2E
330
2D
100
DictionaryVariables
280
0
  1
1.4.2 @ 2026-09-06T16:30:42.869013+00:00
  0
VISUALSTYLE
  5
5A
102
{ACAD_REACTORS
330
16
102
}
330
16
100
AcDbVisualStyle
  2
2dWireframe
 70
4
 90
0
 40
0.6
 62
7
290
0
291
0
  0
VISUALSTYLE
  5
5B
102
{ACAD_REACTORS
330
16
102
}
330
16
100
AcDbVisualStyle
  2
Basic
 70
7
 90
1
 40
0.6
 62
7
290
0
291
1
  0
VISUALSTYLE
  5
5C
102
{ACAD_REACTORS
330
16
102
}
330
16
100
AcDbVisualStyle
  2
Brighten
 70
12
 90
2
 40
0.6
 62
7
290
0
291
1
  0
VISUALSTYLE
  5
5D
102
{ACAD_REACTORS
330
16
102
}
330
16
100
AcDbVisualStyle
  2
ColorChange
 70
16
 90
2
 40
0.6
 62
8
290
0
291
1
  0
VISUALSTYLE
  5
5E
102
{ACAD_REACTORS
330
16
102
}
330
16
100
AcDbVisualStyle
  2
Conceptual
 70
9
 90
3
 40
0.6
 62
7
290
0
291
0
  0
VISUALSTYLE
  5
5F
102
{ACAD_REACTORS
330
16
102
}
330
16
100
AcDbVisualStyle
  2
Dim
 70
11
 90
2
 40
0.6
 62
7
290
0
291
1
  0
VISUALSTYLE
  5
60
102
{ACAD_REACTORS
330
16
102
}
330
16
100
AcDbVisualStyle
  2
EdgeColorOff
 70
22
 90
2
 40
0.6
 62
7
290
0
291
1
  0
VISUALSTYLE
  5
61
102
{ACAD_REACTORS
330
16
102
}
330
16
100
AcDbVisualStyle
  2
Facepattern
 70
15
 90
2
 40
0.6
 62
7
290
0
291
1
  0
VISUALSTYLE
  5
62
102
{ACAD_REACTORS
330
16
102
}
330
16
100
AcDbVisualStyle
  2
Flat
 70
0
 90
2
 40
0.6
 62
7
290
0
291
1
  0
VISUALSTYLE
  5
63
102
{ACAD_REACTORS
330
16
102
}
330
16
100
AcDbVisualStyle
  2
FlatWithEdges
 70
1
 90
2
 40
0.6
 62
7
290
0
291
1
  0
VISUALSTYLE
  5
64
102
{ACAD_REACTORS
330
16
102
}
330
16
100
AcDbVisualStyle
  2
Gouraud
 70
2
 90
2
 40
0.6
 62
7
290
0
291
1
  0
VISUALSTYLE
  5
65
102
{ACAD_REACTORS
330
16
102
}
330
16
100
AcDbVisualStyle
  2
GouraudWithEdges
 70
3
 90
2
 40
0.6
 62
7
290
0
291
1
  0
VISUALSTYLE
  5
66
102
{ACAD_REACTORS
330
16
102
}
330
16
100
AcDbVisualStyle
  2
Hidden
 70
6
 90
1
 40
0.6
 62
7
290
0
291
0
  0
VISUALSTYLE
  5
67
102
{ACAD_REACTORS
330
16
102
}
330
16
100
AcDbVisualStyle
  2
JitterOff
 70
20
 90
2
 40
0.6
 62
7
290
0
291
1
  0
VISUALSTYLE
  5
68
102
{ACAD_REACTORS
330
16
102
}
330
16
100
AcDbVisualStyle
  2
Linepattern
 70
14
 90
2
 40
0.6
 62
7
290
0
291
1
  0
VISUALSTYLE
  5
69
102
{ACAD_REACTORS
330
16
102
}
330
16
100
AcDbVisualStyle
  2
Modeling
 70
10
 90
2
 40
0.6
 62
7
290
0
291
0
  0
VISUALSTYLE
  5
6A
102
{ACAD_REACTORS
330
16
102
}
330
16
100
AcDbVisualStyle
  2
OverhangOff
 70
21
 90
2
 40
0.6
 62
7
290
0
291
1
  0
VISUALSTYLE
  5
6B
102
{ACAD_REACTORS
330
16
102
}
330
16
100
AcDbVisualStyle
  2
Realistic
 70
8
 90
2
 40
0.6
 62
7
290
0
291
0
  0
VISUALSTYLE
  5
6C
102
{ACAD_REACTORS
330
16
102
}
330
16
100
AcDbVisualStyle
  2
Shaded
 70
27
 90
2
 40
0.6
 62
7
290
0
291
0
  0
VISUALSTYLE
  5
6D
102
{ACAD_REACTORS
330
16
102
}
330
16
100
AcDbVisualStyle
  2
Shaded with edges
 70
26
 90
2
 40
0.6
 62
7
290
0
291
0
  0
VISUALSTYLE
  5
6E
102
{ACAD_REACTORS
330
16
102
}
330
16
100
AcDbVisualStyle
  2
Shades of Gray
 70
23
 90
2
 40
0.6
 62
7
290
0
291
0
  0
VISUALSTYLE
  5
6F
102
{ACAD_REACTORS
330
16
102
}
330
16
100
AcDbVisualStyle
  2
Sketchy
 70
24
 90
1
 40
0.6
 62
7
290
0
291
0
  0
VISUALSTYLE
  5
70
102
{ACAD_REACTORS
330
16
102
}
330
16
100
AcDbVisualStyle
  2
Thicken
 70
13
 90
2
 40
0.6
 62
7
290
0
291
1
  0
VISUALSTYLE
  5
71
102
{ACAD_REACTORS
330
16
102
}
330
16
100
AcDbVisualStyle
  2
Wireframe
 70
5
 90
0
 40
0.6
 62
7
290
0
291
0
  0
VISUALSTYLE
  5
72
102
{ACAD_REACTORS
330
16
102
}
330
16
100
AcDbVisualStyle
  2
X-Ray
 70
25
 90
2
 40
0.5
 62
7
290
0
291
0
  0
DICTIONARYVAR
  5
96
330
2D
100
DictionaryVariables
280
0
  1
1.4.2 @ 2026-09-06T16:30:42.874959+00:00
  0
ENDSEC
  0
EOF
