  0
SECTION
  2
HEADER
  9
$ACADVER
  1
AC1024
  9
$ACADMAINTVER
 70
6
  9
$DWGCODEPAGE
  3
ANSI_1252
  9
$LASTSAVEDBY
  1
ezdxf
  9
$INSBASE
 10
0.0
 20
0.0
 30
0.0
  9
$EXTMIN
 10
1e+20
 20
1e+20
 30
1e+20
  9
$EXTMAX
 10
-1e+20
 20
-1e+20
 30
-1e+20
  9
$LIMMIN
 10
0.0
 20
0.0
  9
$LIMMAX
 10
420.0
 20
297.0
  9
$ORTHOMODE
 70
0
  9
$REGENMODE
 70
1
  9
$FILLMODE
 70
1
  9
$QTEXTMODE
 70
0
  9
$MIRRTEXT
 70
1
  9
$LTSCALE
 40
1.0
  9
$ATTMODE
 70
1
  9
$TEXTSIZE
 40
2.5
  9
$TRACEWID
 40
1.0
  9
$TEXTSTYLE
  7
OpenSans
  9
$CLAYER
  8
0
  9
$CELTYPE
  6
ByLayer
  9
$CECOLOR
 62
256
  9
$CELTSCALE
 40
1.0
  9
$DISPSILH
 70
0
  9
$DIMSCALE
 40
1.0
  9
$DIMASZ
 40
0.175
  9
$DIMEXO
 40
0.125
  9
$DIMDLI
 40
3.75
  9
$DIMRND
 40
0.0
  9
$DIMDLE
 40
0.0
  9
$DIMEXE
 40
0.375
  9
$DIMTP
 40
0.0
  9
$DIMTM
 40
0.0
  9
$DIMTXT
 40
0.25
  9
$DIMCEN
 40
2.5
  9
$DIMTSZ
 40
0.0
  9
$DIMTOL
 70
0
  9
$DIMLIM
 70
0
  9
$DIMTIH
 70
0
  9
$DIMTOH
 70
0
  9
$DIMSE1
 70
0
  9
$DIMSE2
 70
0
  9
$DIMTAD
 70
1
  9
$DIMZIN
 70
12
  9
$DIMBLK
  1
ARCHTICK
  9
$DIMASO
 70
1
  9
$DIMSHO
 70
1
  9
$DIMPOST
  1

  9
$DIMAPOST
  1

  9
$DIMALT
 70
0
  9
$DIMALTD
 70
3
  9
$DIMALTF
 40
0.03937007874
  9
$DIMLFAC
 40
100.0
  9
$DIMTOFL
 70
1
  9
$DIMTVP
 40
0.0
  9
$DIMTIX
 70
0
  9
$DIMSOXD
 70
0
  9
$DIMSAH
 70
0
  9
$DIMBLK1
  1

  9
$DIMBLK2
  1

  9
$DIMSTYLE
  2
EZDXF
  9
$DIMCLRD
 70
0
  9
$DIMCLRE
 70
0
  9
$DIMCLRT
 70
0
  9
$DIMTFAC
 40
0.5
  9
$DIMGAP
 40
0.1
  9
$DIMJUST
 70
0
  9
$DIMSD1
 70
0
  9
$DIMSD2
 70
0
  9
$DIMTOLJ
 70
0
  9
$DIMTZIN
 70
8
  9
$DIMALTZ
 70
0
  9
$DIMALTTZ
 70
0
  9
$DIMUPT
 70
1
  9
$DIMDEC
 70
2
  9
$DIMTDEC
 70
2
  9
$DIMALTU
 70
2
  9
$DIMALTTD
 70
3
  9
$DIMTXSTY
  7
OpenSansCondensed-Light
  9
$DIMAUNIT
 70
0
  9
$DIMADEC
 70
2
  9
$DIMALTRND
 40
0.0
  9
$DIMAZIN
 70
3
  9
$DIMDSEP
 70
46
  9
$DIMATFIT
 70
3
  9
$DIMFRAC
 70
0
  9
$DIMLDRBLK
  1

  9
$DIMLUNIT
 70
2
  9
$DIMLWD
 70
-2
  9
$DIMLWE
 70
-2
  9
$DIMTMOVE
 70
2
  9
$DIMFXL
 40
1.0
  9
$DIMFXLON
 70
0
  9
$DIMJOGANG
 40
0.785398163397
  9
$DIMTFILL
 70
0
  9
$DIMTFILLCLR
 70
0
  9
$DIMARCSYM
 70
0
  9
$DIMLTYPE
  6

  9
$DIMLTEX1
  6

  9
$DIMLTEX2
  6

  9
$DIMTXTDIRECTION
 70
0
  9
$LUNITS
 70
2
  9
$LUPREC
 70
4
  9
$SKETCHINC
 40
1.0
  9
$FILLETRAD
 40
10.0
  9
$AUNITS
 70
0
  9
$AUPREC
 70
2
  9
$MENU
  1
.
  9
$ELEVATION
 40
0.0
  9
$PELEVATION
 40
0.0
  9
$THICKNESS
 40
0.0
  9
$LIMCHECK
 70
0
  9
$CHAMFERA
 40
0.0
  9
$CHAMFERB
 40
0.0
  9
$CHAMFERC
 40
0.0
  9
$CHAMFERD
 40
0.0
  9
$SKPOLY
 70
0
  9
$TDCREATE
 40
2461290.54
  9
$TDUCREATE
 40
2458532.153996898
  9
$TDUPDATE
 40
2461290.54
  9
$TDUUPDATE
 40
2458532.1544311
  9
$TDINDWG
 40
0.0
  9
$TDUSRTIMER
 40
0.0
  9
$USRTIMER
 70
1
  9
$ANGBASE
 50
0.0
  9
$ANGDIR
 70
0
  9
$PDMODE
 70
0
  9
$PDSIZE
 40
0.0
  9
$PLINEWID
 40
0.0
  9
$SPLFRAME
 70
0
  9
$SPLINETYPE
 70
6
  9
$SPLINESEGS
 70
8
  9
$HANDSEED
  5
DA
  9
$SURFTAB1
 70
6
  9
$SURFTAB2
 70
6
  9
$SURFTYPE
 70
6
  9
$SURFU
 70
6
  9
$SURFV
 70
6
  9
$UCSBASE
  2

  9
$UCSNAME
  2

  9
$UCSORG
 10
0.0
 20
0.0
 30
0.0
  9
$UCSXDIR
 10
1.0
 20
0.0
 30
0.0
  9
$UCSYDIR
 10
0.0
 20
1.0
 30
0.0
  9
$UCSORTHOREF
  2

  9
$UCSORTHOVIEW
 70
0
  9
$UCSORGTOP
 10
0.0
 20
0.0
 30
0.0
  9
$UCSORGBOTTOM
 10
0.0
 20
0.0
 30
0.0
  9
$UCSORGLEFT
 10
0.0
 20
0.0
 30
0.0
  9
$UCSORGRIGHT
 10
0.0
 20
0.0
 30
0.0
  9
$UCSORGFRONT
 10
0.0
 20
0.0
 30
0.0
  9
$UCSORGBACK
 10
0.0
 20
0.0
 30
0.0
  9
$PUCSBASE
  2

  9
$PUCSNAME
  2

  9
$PUCSORG
 10
0.0
 20
0.0
 30
0.0
  9
$PUCSXDIR
 10
1.0
 20
0.0
 30
0.0
  9
$PUCSYDIR
 10
0.0
 20
1.0
 30
0.0
  9
$PUCSORTHOREF
  2

  9
$PUCSORTHOVIEW
 70
0
  9
$PUCSORGTOP
 10
0.0
 20
0.0
 30
0.0
  9
$PUCSORGBOTTOM
 10
0.0
 20
0.0
 30
0.0
  9
$PUCSORGLEFT
 10
0.0
 20
0.0
 30
0.0
  9
$PUCSORGRIGHT
 10
0.0
 20
0.0
 30
0.0
  9
$PUCSORGFRONT
 10
0.0
 20
0.0
 30
0.0
  9
$PUCSORGBACK
 10
0.0
 20
0.0
 30
0.0
  9
$USERI1
 70
0
  9
$USERI2
 70
0
  9
$USERI3
 70
0
  9
$USERI4
 70
0
  9
$USERI5
 70
0
  9
$USERR1
 40
0.0
  9
$USERR2
 40
0.0
  9
$USERR3
 40
0.0
  9
$USERR4
 40
0.0
  9
$USERR5
 40
0.0
  9
$WORLDVIEW
 70
1
  9
$SHADEDGE
 70
3
  9
$SHADEDIF
 70
70
  9
$TILEMODE
 70
1
  9
$MAXACTVP
 70
64
  9
$PINSBASE
 10
0.0
 20
0.0
 30
0.0
  9
$PLIMCHECK
 70
0
  9
$PEXTMIN
 10
1e+20
 20
1e+20
 30
1e+20
  9
$PEXTMAX
 10
-1e+20
 20
-1e+20
 30
-1e+20
  9
$PLIMMIN
 10
0.0
 20
0.0
  9
$PLIMMAX
 10
420.0
 20
297.0
  9
$UNITMODE
 70
0
  9
$VISRETAIN
 70
1
  9
$PLINEGEN
 70
0
  9
$PSLTSCALE
 70
1
  9
$TREEDEPTH
 70
3020
  9
$CMLSTYLE
  2
Standard
  9
$CMLJUST
 70
0
  9
$CMLSCALE
 40
20.0
  9
$PROXYGRAPHICS
 70
1
  9
$MEASUREMENT
 70
1
  9
$CELWEIGHT
370
-1
  9
$ENDCAPS
280
0
  9
$JOINSTYLE
280
0
  9
$LWDISPLAY
290
0
  9
$INSUNITS
 70
4
  9
$HYPERLINKBASE
  1

  9
$STYLESHEET
  1

  9
$XEDIT
290
1
  9
$CEPSNTYPE
380
0
  9
$PSTYLEMODE
290
1
  9
$FINGERPRINTGUID
  2
{50CBDB25-7F1A-4815-882B-BBA6DE0A47D8}
  9
$VERSIONGUID
  2
{713F0055-B03F-473B-B5F1-DDA00E4E92D7}
  9
$EXTNAMES
290
1
  9
$PSVPSCALE
 40
0.0
  9
$OLESTARTUP
290
0
  9
$SORTENTS
280
127
  9
$INDEXCTL
280
0
  9
$HIDETEXT
280
1
  9
$XCLIPFRAME
280
1
  9
$HALOGAP
280
0
  9
$OBSCOLOR
 70
257
  9
$OBSLTYPE
280
0
  9
$INTERSECTIONDISPLAY
280
0
  9
$INTERSECTIONCOLOR
 70
257
  9
$DIMASSOC
280
2
  9
$PROJECTNAME
  1

  9
$CAMERADISPLAY
290
0
  9
$LENSLENGTH
 40
50.0
  9
$CAMERAHEIGHT
 40
0.0
  9
$STEPSPERSEC
 40
24.0
  9
$STEPSIZE
 40
100.0
  9
$3DDWFPREC
 40
2.0
  9
$PSOLWIDTH
 40
0.005
  9
$PSOLHEIGHT
 40
0.08
  9
$LOFTANG1
 40
1.570796326795
  9
$LOFTANG2
 40
1.570796326795
  9
$LOFTMAG1
 40
0.0
  9
$LOFTMAG2
 40
0.0
  9
$LOFTPARAM
 70
7
  9
$LOFTNORMALS
280
1
  9
$LATITUDE
 40
37.795
  9
$LONGITUDE
 40
-122.394
  9
$NORTHDIRECTION
 40
0.0
  9
$TIMEZONE
 70
-8000
  9
$LIGHTGLYPHDISPLAY
280
1
  9
$TILEMODELIGHTSYNCH
280
1
  9
$CMATERIAL
347
20
  9
$SOLIDHIST
280
0
  9
$SHOWHIST
280
1
  9
$DWFFRAME
280
2
  9
$DGNFRAME
280
2
  9
$REALWORLDSCALE
290
1
  9
$INTERFERECOLOR
 62
256
  9
$CSHADOW
280
0
  9
$SHADOWPLANELOCATION
 40
0.0
  0
ENDSEC
  0
SECTION
  2
CLASSES
  0
CLASS
  1
ACDBDICTIONARYWDFLT
  2
AcDbDictionaryWithDefault
  3
ObjectDBX Classes
 90
0
 91
0
280
0
281
0
  0
CLASS
  1
SUN
  2
AcDbSun
  3
SCENEOE
 90
1153
 91
0
280
0
281
0
  0
CLASS
  1
VISUALSTYLE
  2
AcDbVisualStyle
  3
ObjectDBX Classes
 90
4095
 91
0
280
0
281
0
  0
CLASS
  1
MATERIAL
  2
AcDbMaterial
  3
ObjectDBX Classes
 90
1153
 91
0
280
0
281
0
  0
CLASS
  1
SCALE
  2
AcDbScale
  3
ObjectDBX Classes
 90
1153
 91
0
280
0
281
0
  0
CLASS
  1
TABLESTYLE
  2
AcDbTableStyle
  3
ObjectDBX Classes
 90
4095
 91
0
280
0
281
0
  0
CLASS
  1
MLEADERSTYLE
  2
AcDbMLeaderStyle
  3
ACDB_MLEADERSTYLE_CLASS
 90
4095
 91
0
280
0
281
0
  0
CLASS
  1
DICTIONARYVAR
  2
AcDbDictionaryVar
  3
ObjectDBX Classes
 90
0
 91
0
280
0
281
0
  0
CLASS
  1
CELLSTYLEMAP
  2
AcDbCellStyleMap
  3
ObjectDBX Classes
 90
1152
 91
0
280
0
281
0
  0
CLASS
  1
MENTALRAYRENDERSETTINGS
  2
AcDbMentalRayRenderSettings
  3
SCENEOE
 90
1024
 91
0
280
0
281
0
  0
CLASS
  1
ACDBDETAILVIEWSTYLE
  2
AcDbDetailViewStyle
  3
ObjectDBX Classes
 90
1025
 91
0
280
0
281
0
  0
CLASS
  1
ACDBSECTIONVIEWSTYLE
  2
AcDbSectionViewStyle
  3
ObjectDBX Classes
 90
1025
 91
0
280
0
281
0
  0
CLASS
  1
RASTERVARIABLES
  2
AcDbRasterVariables
  3
ISM
 90
0
 91
0
280
0
281
0
  0
CLASS
  1
LAYOUT
  2
AcDbLayout
  3
ObjectDBX Classes
 90
0
 91
0
280
0
281
0
  0
CLASS
  1
ACDBPLACEHOLDER
  2
AcDbPlaceHolder
  3
ObjectDBX Classes
 90
0
 91
0
280
0
281
0
  0
ENDSEC
  0
SECTION
  2
TABLES
  0
TABLE
  2
VPORT
  5
8
330
0
100
AcDbSymbolTable
 70
1
  0
VPORT
  5
23
330
8
100
AcDbSymbolTableRecord
100
AcDbViewportTableRecord
  2
*Active
 70
0
 10
0.0
 20
0.0
 11
1.0
 21
1.0
 12
0.0
 22
0.0
 13
0.0
 23
0.0
 14
0.5
 24
0.5
 15
0.5
 25
0.5
 16
0.0
 26
0.0
 36
1.0
 17
0.0
 27
0.0
 37
0.0
 40
1000.0
 41
1.34
 42
50.0
 43
0.0
 44
0.0
 50
0.0
 51
0.0
 71
0
 72
1000
 73
1
 74
3
 75
0
 76
0
 77
0
 78
0
281
0
 65
0
146
0.0
  0
ENDTAB
  0
TABLE
  2
LTYPE
  5
2
330
0
100
AcDbSymbolTable
 70
21
  0
LTYPE
  5
24
330
2
100
AcDbSymbolTableRecord
100
AcDbLinetypeTableRecord
  2
ByBlock
 70
0
  3

 72
65
 73
0
 40
0.0
  0
LTYPE
  5
25
330
2
100
AcDbSymbolTableRecord
100
AcDbLinetypeTableRecord
  2
ByLayer
 70
0
  3

 72
65
 73
0
 40
0.0
  0
LTYPE
  5
26
330
2
100
AcDbSymbolTableRecord
100
AcDbLinetypeTableRecord
  2
Continuous
 70
0
  3

 72
65
 73
0
 40
0.0
  0
LTYPE
  5
2F
330
2
100
AcDbSymbolTableRecord
100
AcDbLinetypeTableRecord
  2
CENTER
 70
0
  3
Center ____ _ ____ _ ____ _ ____ _ ____ _ ____
 72
65
 73
4
 40
5.08
 49
3.175
 74
0
 49
-0.635
 74
0
 49
0.635
 74
0
 49
-0.635
 74
0
  0
LTYPE
  5
30
330
2
100
AcDbSymbolTableRecord
100
AcDbLinetypeTableRecord
  2
CENTERX2
 70
0
  3
Center (2x) ________  __  ________  __  ________
 72
65
 73
4
 40
8.89
 49
6.35
 74
0
 49
-0.635
 74
0
 49
1.27
 74
0
 49
-0.635
 74
0
  0
LTYPE
  5
31
330
2
100
AcDbSymbolTableRecord
100
AcDbLinetypeTableRecord
  2
CENTER2
 70
0
  3
Center (.5x) ____ _ ____ _ ____ _ ____ _ ____
 72
65
 73
4
 40
2.54
 49
1.587
 74
0
 49
-0.318
 74
0
 49
0.318
 74
0
 49
-0.318
 74
0
  0
LTYPE
  5
32
330
2
100
AcDbSymbolTableRecord
100
AcDbLinetypeTableRecord
  2
DASHED
 70
0
  3
Dashed __ __ __ __ __ __ __ __ __ __ __ __ __ _
 72
65
 73
2
 40
1.524
 49
1.27
 74
0
 49
-0.254
 74
0
  0
LTYPE
  5
33
330
2
100
AcDbSymbolTableRecord
100
AcDbLinetypeTableRecord
  2
DASHEDX2
 70
0
  3
Dashed (2x) ____  ____  ____  ____  ____  ____
 72
65
 73
2
 40
3.048
 49
2.54
 74
0
 49
-0.508
 74
0
  0
LTYPE
  5
34
330
2
100
AcDbSymbolTableRecord
100
AcDbLinetypeTableRecord
  2
DASHED2
 70
0
  3
Dashed (.5x) _ _ _ _ _ _ _ _ _ _ _ _ _ _
 72
65
 73
2
 40
0.762
 49
0.635
 74
0
 49
-0.127
 74
0
  0
LTYPE
  5
35
330
2
100
AcDbSymbolTableRecord
100
AcDbLinetypeTableRecord
  2
PHANTOM
 70
0
  3
Phantom ______  __  __  ______  __  __  ______
 72
65
 73
6
 40
6.35
 49
3.175
 74
0
 49
-0.635
 74
0
 49
0.635
 74
0
 49
-0.635
 74
0
 49
0.635
 74
0
 49
-0.635
 74
0
  0
LTYPE
  5
36
330
2
100
AcDbSymbolTableRecord
100
AcDbLinetypeTableRecord
  2
PHANTOMX2
 70
0
  3
Phantom (2x)____________    ____    ____    ____________
 72
65
 73
6
 40
10.795
 49
6.35
 74
0
 49
-0.635
 74
0
 49
1.27
 74
0
 49
-0.635
 74
0
 49
1.27
 74
0
 49
-0.635
 74
0
  0
LTYPE
  5
37
330
2
100
AcDbSymbolTableRecord
100
AcDbLinetypeTableRecord
  2
PHANTOM2
 70
0
  3
Phantom (.5x) ___ _ _ ___ _ _ ___ _ _ ___ _ _ ___
 72
65
 73
6
 40
3.175
 49
1.587
 74
0
 49
-0.318
 74
0
 49
0.318
 74
0
 49
-0.318
 74
0
 49
0.318
 74
0
 49
-0.318
 74
0
  0
LTYPE
  5
38
330
2
100
AcDbSymbolTableRecord
100
AcDbLinetypeTableRecord
  2
DASHDOT
 70
0
  3
Dash dot __ . __ . __ . __ . __ . __ . __ . __
 72
65
 73
4
 40
3.556
 49
2.54
 74
0
 49
-0.508
 74
0
 49
0.0
 74
0
 49
-0.508
 74
0
  0
LTYPE
  5
39
330
2
100
AcDbSymbolTableRecord
100
AcDbLinetypeTableRecord
  2
DASHDOTX2
 70
0
  3
Dash dot (2x) ____  .  ____  .  ____  .  ____
 72
65
 73
4
 40
6.096
 49
5.08
 74
0
 49
-0.508
 74
0
 49
0.0
 74
0
 49
-0.508
 74
0
  0
LTYPE
  5
3A
330
2
100
AcDbSymbolTableRecord
100
AcDbLinetypeTableRecord
  2
DASHDOT2
 70
0
  3
Dash dot (.5x) _ . _ . _ . _ . _ . _ . _ . _
 72
65
 73
4
 40
1.778
 49
1.27
 74
0
 49
-0.254
 74
0
 49
0.0
 74
0
 49
-0.254
 74
0
  0
LTYPE
  5
3B
330
2
100
AcDbSymbolTableRecord
100
AcDbLinetypeTableRecord
  2
DOT
 70
0
  3
Dot .  .  .  .  .  .  .  .  .  .  .  .  .  .  .  .
 72
65
 73
2
 40
0.508
 49
0.0
 74
0
 49
-0.508
 74
0
  0
LTYPE
  5
3C
330
2
100
AcDbSymbolTableRecord
100
AcDbLinetypeTableRecord
  2
DOTX2
 70
0
  3
Dot (2x) .    .    .    .    .    .    .    . 
 72
65
 73
2
 40
1.016
 49
0.0
 74
0
 49
-1.016
 74
0
  0
LTYPE
  5
3D
330
2
100
AcDbSymbolTableRecord
100
AcDbLinetypeTableRecord
  2
DOT2
 70
0
  3
Dot (.5) . . . . . . . . . . . . . . . . . . . 
 72
65
 73
2
 40
0.254
 49
0.0
 74
0
 49
-0.254
 74
0
  0
LTYPE
  5
3E
330
2
100
AcDbSymbolTableRecord
100
AcDbLinetypeTableRecord
  2
DIVIDE
 70
0
  3
Divide __ . . __ . . __ . . __ . . __ . . __
 72
65
 73
6
 40
4.064
 49
2.54
 74
0
 49
-0.508
 74
0
 49
0.0
 74
0
 49
-0.508
 74
0
 49
0.0
 74
0
 49
-0.508
 74
0
  0
LTYPE
  5
3F
330
2
100
AcDbSymbolTableRecord
100
AcDbLinetypeTableRecord
  2
DIVIDEX2
 70
0
  3
Divide (2x) ____  . .  ____  . .  ____  . .  ____
 72
65
 73
6
 40
6.604
 49
5.08
 74
0
 49
-0.508
 74
0
 49
0.0
 74
0
 49
-0.508
 74
0
 49
0.0
 74
0
 49
-0.508
 74
0
  0
LTYPE
  5
40
330
2
100
AcDbSymbolTableRecord
100
AcDbLinetypeTableRecord
  2
DIVIDE2
 70
0
  3
Divide(.5x) _ . _ . _ . _ . _ . _ . _ . _
 72
65
 73
6
 40
2.032
 49
1.27
 74
0
 49
-0.254
 74
0
 49
0.0
 74
0
 49
-0.254
 74
0
 49
0.0
 74
0
 49
-0.254
 74
0
  0
ENDTAB
  0
TABLE
  2
LAYER
  5
1
330
0
100
AcDbSymbolTable
 70
5
  0
LAYER
  5
27
330
1
100
AcDbSymbolTableRecord
100
AcDbLayerTableRecord
  2
0
 70
0
 62
7
  6
Continuous
370
-3
390
13
347
21
  0
LAYER
  5
28
330
1
100
AcDbSymbolTableRecord
100
AcDbLayerTableRecord
  2
Defpoints
 70
0
 62
7
  6
Continuous
290
0
370
-3
390
13
347
21
  0
LAYER
  5
8A
330
1
100
AcDbSymbolTableRecord
100
AcDbLayerTableRecord
  2
CORTE
 70
0
 62
1
  6
Continuous
370
-3
390
13
347
21
  0
LAYER
  5
8B
330
1
100
AcDbSymbolTableRecord
100
AcDbLayerTableRecord
  2
GRABADO
 70
0
 62
5
  6
Continuous
370
-3
390
13
347
21
  0
LAYER
  5
8C
330
1
100
AcDbSymbolTableRecord
100
AcDbLayerTableRecord
  2
HOJA
 70
0
 62
8
  6
Continuous
370
-3
390
13
347
21
  0
ENDTAB
  0
TABLE
  2
STYLE
  5
5
330
0
100
AcDbSymbolTable
 70
26
  0
STYLE
  5
29
330
5
100
AcDbSymbolTableRecord
100
AcDbTextStyleTableRecord
  2
Standard
 70
0
 40
0.0
 41
1.0
 50
0.0
 71
0
 42
2.5
  3
txt
  4

  0
STYLE
  5
41
330
5
100
AcDbSymbolTableRecord
100
AcDbTextStyleTableRecord
  2
OpenSans-Light
 70
0
 40
0.0
 41
1.0
 50
0.0
 71
0
 42
2.5
  3
OpenSans-Light.ttf
  4

  0
STYLE
  5
42
330
5
100
AcDbSymbolTableRecord
100
AcDbTextStyleTableRecord
  2
OpenSans-Light-Italic
 70
0
 40
0.0
 41
1.0
 50
0.0
 71
0
 42
2.5
  3
OpenSans-LightItalic.ttf
  4

  0
STYLE
  5
43
330
5
100
AcDbSymbolTableRecord
100
AcDbTextStyleTableRecord
  2
OpenSans
 70
0
 40
0.0
 41
1.0
 50
0.0
 71
0
 42
2.5
  3
OpenSans-Regular.ttf
  4

  0
STYLE
  5
44
330
5
100
AcDbSymbolTableRecord
100
AcDbTextStyleTableRecord
  2
OpenSans-Italic
 70
0
 40
0.0
 41
1.0
 50
0.0
 71
0
 42
2.5
  3
OpenSans-Italic.ttf
  4

  0
STYLE
  5
45
330
5
100
AcDbSymbolTableRecord
100
AcDbTextStyleTableRecord
  2
OpenSans-SemiBold
 70
0
 40
0.0
 41
1.0
 50
0.0
 71
0
 42
2.5
  3
OpenSans-SemiBold.ttf
  4

  0
STYLE
  5
46
330
5
100
AcDbSymbolTableRecord
100
AcDbTextStyleTableRecord
  2
OpenSans-SemiBoldItalic
 70
0
 40
0.0
 41
1.0
 50
0.0
 71
0
 42
2.5
  3
OpenSans-SemiBoldItalic.ttf
  4

  0
STYLE
  5
47
330
5
100
AcDbSymbolTableRecord
100
AcDbTextStyleTableRecord
  2
OpenSans-Bold
 70
0
 40
0.0
 41
1.0
 50
0.0
 71
0
 42
2.5
  3
OpenSans-Bold.ttf
  4

  0
STYLE
  5
48
330
5
100
AcDbSymbolTableRecord
100
AcDbTextStyleTableRecord
  2
OpenSans-BoldItalic
 70
0
 40
0.0
 41
1.0
 50
0.0
 71
0
 42
2.5
  3
OpenSans-BoldItalic.ttf
  4

  0
STYLE
  5
49
330
5
100
AcDbSymbolTableRecord
100
AcDbTextStyleTableRecord
  2
OpenSans-ExtraBold
 70
0
 40
0.0
 41
1.0
 50
0.0
 71
0
 42
2.5
  3
OpenSans-ExtraBold.ttf
  4

  0
STYLE
  5
4A
330
5
100
AcDbSymbolTableRecord
100
AcDbTextStyleTableRecord
  2
OpenSans-ExtraBoldItalic
 70
0
 40
0.0
 41
1.0
 50
0.0
 71
0
 42
2.5
  3
OpenSans-ExtraBoldItalic.ttf
  4

  0
STYLE
  5
4B
330
5
100
AcDbSymbolTableRecord
100
AcDbTextStyleTableRecord
  2
OpenSansCondensed-Bold
 70
0
 40
0.0
 41
1.0
 50
0.0
 71
0
 42
2.5
  3
OpenSansCondensed-Bold.ttf
  4

  0
STYLE
  5
4C
330
5
100
AcDbSymbolTableRecord
100
AcDbTextStyleTableRecord
  2
OpenSansCondensed-Light
 70
0
 40
0.0
 41
1.0
 50
0.0
 71
0
 42
2.5
  3
OpenSansCondensed-Light.ttf
  4

  0
STYLE
  5
4D
330
5
100
AcDbSymbolTableRecord
100
AcDbTextStyleTableRecord
  2
OpenSansCondensed-Italic
 70
0
 40
0.0
 41
1.0
 50
0.0
 71
0
 42
2.5
  3
OpenSansCondensed-LightItalic.ttf
  4

  0
STYLE
  5
4E
330
5
100
AcDbSymbolTableRecord
100
AcDbTextStyleTableRecord
  2
LiberationSans
 70
0
 40
0.0
 41
1.0
 50
0.0
 71
0
 42
2.5
  3
LiberationSans-Regular.ttf
  4

  0
STYLE
  5
4F
330
5
100
AcDbSymbolTableRecord
100
AcDbTextStyleTableRecord
  2
LiberationSans-Bold
 70
0
 40
0.0
 41
1.0
 50
0.0
 71
0
 42
2.5
  3
LiberationSans-Bold.ttf
  4

  0
STYLE
  5
50
330
5
100
AcDbSymbolTableRecord
100
AcDbTextStyleTableRecord
  2
LiberationSans-BoldItalic
 70
0
 40
0.0
 41
1.0
 50
0.0
 71
0
 42
2.5
  3
LiberationSans-BoldItalic.ttf
  4

  0
STYLE
  5
51
330
5
100
AcDbSymbolTableRecord
100
AcDbTextStyleTableRecord
  2
LiberationSans-Italic
 70
0
 40
0.0
 41
1.0
 50
0.0
 71
0
 42
2.5
  3
LiberationSans-Italic.ttf
  4

  0
STYLE
  5
52
330
5
100
AcDbSymbolTableRecord
100
AcDbTextStyleTableRecord
  2
LiberationSerif
 70
0
 40
0.0
 41
1.0
 50
0.0
 71
0
 42
2.5
  3
LiberationSerif-Regular.ttf
  4

  0
STYLE
  5
53
330
5
100
AcDbSymbolTableRecord
100
AcDbTextStyleTableRecord
  2
LiberationSerif-Bold
 70
0
 40
0.0
 41
1.0
 50
0.0
 71
0
 42
2.5
  3
LiberationSerif-Bold.ttf
  4

  0
STYLE
  5
54
330
5
100
AcDbSymbolTableRecord
100
AcDbTextStyleTableRecord
  2
LiberationSerif-BoldItalic
 70
0
 40
0.0
 41
1.0
 50
0.0
 71
0
 42
2.5
  3
LiberationSerif-BoldItalic.ttf
  4

  0
STYLE
  5
55
330
5
100
AcDbSymbolTableRecord
100
AcDbTextStyleTableRecord
  2
LiberationSerif-Italic
 70
0
 40
0.0
 41
1.0
 50
0.0
 71
0
 42
2.5
  3
LiberationSerif-Italic.ttf
  4

  0
STYLE
  5
56
330
5
100
AcDbSymbolTableRecord
100
AcDbTextStyleTableRecord
  2
LiberationMono
 70
0
 40
0.0
 41
1.0
 50
0.0
 71
0
 42
2.5
  3
LiberationMono-Regular.ttf
  4

  0
STYLE
  5
57
330
5
100
AcDbSymbolTableRecord
100
AcDbTextStyleTableRecord
  2
LiberationMono-Bold
 70
0
 40
0.0
 41
1.0
 50
0.0
 71
0
 42
2.5
  3
LiberationMono-Bold.ttf
  4

  0
STYLE
  5
58
330
5
100
AcDbSymbolTableRecord
100
AcDbTextStyleTableRecord
  2
LiberationMono-BoldItalic
 70
0
 40
0.0
 41
1.0
 50
0.0
 71
0
 42
2.5
  3
LiberationMono-BoldItalic.ttf
  4

  0
STYLE
  5
59
330
5
100
AcDbSymbolTableRecord
100
AcDbTextStyleTableRecord
  2
LiberationMono-Italic
 70
0
 40
0.0
 41
1.0
 50
0.0
 71
0
 42
2.5
  3
LiberationMono-Italic.ttf
  4

  0
ENDTAB
  0
TABLE
  2
VIEW
  5
7
330
0
100
AcDbSymbolTable
 70
0
  0
ENDTAB
  0
TABLE
  2
UCS
  5
6
330
0
100
AcDbSymbolTable
 70
0
  0
ENDTAB
  0
TABLE
  2
APPID
  5
3
330
0
100
AcDbSymbolTable
 70
3
  0
APPID
  5
2A
330
3
100
AcDbSymbolTableRecord
100
AcDbRegAppTableRecord
  2
ACAD
 70
0
  0
APPID
  5
D7
330
3
100
AcDbSymbolTableRecord
100
AcDbRegAppTableRecord
  2
HATCHBACKGROUNDCOLOR
 70
0
  0
APPID
  5
D8
330
3
100
AcDbSymbolTableRecord
100
AcDbRegAppTableRecord
  2
EZDXF
 70
0
  0
ENDTAB
  0
TABLE
  2
DIMSTYLE
  5
4
330
0
100
AcDbSymbolTable
 70
12
100
AcDbDimStyleTable
  0
DIMSTYLE
105
2B
330
4
100
AcDbSymbolTableRecord
100
AcDbDimStyleTableRecord
  2
Standard
 70
0
 40
1.0
 41
2.5
 42
0.625
 43
3.75
 44
1.25
 45
0.0
 46
0.0
 47
0.0
 48
0.0
 49
2.5
140
2.5
141
2.5
142
0.0
143
0.03937007874
144
1.0
145
0.0
146
1.0
147
0.625
148
0.0
 69
0
 70
0
 71
0
 72
0
 73
0
 74
0
 75
0
 76
0
 77
1
 78
8
 79
3
170
0
171
3
172
1
173
0
174
0
175
0
176
0
177
0
178
0
179
2
271
2
272
2
273
2
274
3
275
0
276
0
277
2
278
44
279
0
280
0
281
0
282
0
283
0
284
8
285
0
286
0
288
0
289
3
290
0
371
-2
372
-2
  0
DIMSTYLE
105
73
330
4
100
AcDbSymbolTableRecord
100
AcDbDimStyleTableRecord
  2
EZDXF
 70
0
 40
1.0
 41
0.175
 42
0.125
 43
3.75
 44
0.375
 45
0.0
 46
0.0
 47
0.0
 48
0.0
 49
2.5
140
0.25
141
2.5
142
0.0
143
0.03937007874
144
100.0
145
0.0
146
0.5
147
0.1
148
0.0
 69
0
 70
0
 71
0
 72
0
 73
0
 74
0
 75
0
 76
0
 77
1
 78
12
 79
3
170
0
171
3
172
1
173
0
174
0
175
0
176
0
177
0
178
0
179
2
271
2
272
2
273
2
274
3
275
0
276
0
277
2
278
46
279
2
280
0
281
0
282
0
283
0
284
8
285
0
286
0
288
1
289
3
290
0
340
4C
342
74
371
-2
372
-2
  0
DIMSTYLE
105
7C
330
4
100
AcDbSymbolTableRecord
100
AcDbDimStyleTableRecord
  2
EZ_M_100_H25_CM
 70
0
 40
1.0
 41
0.25
 42
0.125
 43
3.75
 44
0.375
 45
0.0
 46
0.0
 47
0.0
 48
0.0
 49
2.5
140
0.25
141
2.5
142
0.125
143
0.03937007874
144
100.0
145
0.0
146
0.5
147
0.1
148
0.0
 69
0
 70
0
 71
0
 72
0
 73
0
 74
0
 75
0
 76
0
 77
1
 78
12
 79
3
170
0
171
3
172
1
173
0
174
0
175
0
176
0
177
0
178
0
179
2
271
2
272
2
273
2
274
3
275
0
276
0
277
2
278
46
279
2
280
0
281
0
282
0
283
0
284
8
285
0
286
0
288
1
289
3
290
0
340
4C
371
-2
372
-2
  0
DIMSTYLE
105
7D
330
4
100
AcDbSymbolTableRecord
100
AcDbDimStyleTableRecord
  2
EZ_M_50_H25_CM
 70
0
 40
1.0
 41
0.125
 42
0.0625
 43
3.75
 44
0.1875
 45
0.0
 46
0.0
 47
0.0
 48
0.0
 49
2.5
140
0.125
141
2.5
142
0.0625
143
0.03937007874
144
100.0
145
0.0
146
0.5
147
0.05
148
0.0
 69
0
 70
0
 71
0
 72
0
 73
0
 74
0
 75
0
 76
0
 77
1
 78
12
 79
3
170
0
171
3
172
1
173
0
174
0
175
0
176
0
177
0
178
0
179
2
271
2
272
2
273
2
274
3
275
0
276
0
277
2
278
46
279
2
280
0
281
0
282
0
283
0
284
8
285
0
286
0
288
1
289
3
290
0
340
4C
371
-2
372
-2
  0
DIMSTYLE
105
7E
330
4
100
AcDbSymbolTableRecord
100
AcDbDimStyleTableRecord
  2
EZ_M_25_H25_CM
 70
0
 40
1.0
 41
0.0625
 42
0.03125
 43
3.75
 44
0.09375
 45
0.0
 46
0.0
 47
0.0
 48
0.0
 49
2.5
140
0.0625
141
2.5
142
0.03125
143
0.03937007874
144
100.0
145
0.0
146
0.5
147
0.025
148
0.0
 69
0
 70
0
 71
0
 72
0
 73
0
 74
0
 75
0
 76
0
 77
1
 78
12
 79
3
170
0
171
3
172
1
173
0
174
0
175
0
176
0
177
0
178
0
179
2
271
2
272
2
273
2
274
3
275
0
276
0
277
2
278
46
279
2
280
0
281
0
282
0
283
0
284
8
285
0
286
0
288
1
289
3
290
0
340
4C
371
-2
372
-2
  0
DIMSTYLE
105
7F
330
4
100
AcDbSymbolTableRecord
100
AcDbDimStyleTableRecord
  2
EZ_M_20_H25_CM
 70
0
 40
1.0
 41
0.05
 42
0.025
 43
3.75
 44
0.07500000000000001
 45
0.0
 46
0.0
 47
0.0
 48
0.0
 49
2.5
140
0.05
141
2.5
142
0.025
143
0.03937007874
144
100.0
145
0.0
146
0.5
147
0.020000000000000004
148
0.0
 69
0
 70
0
 71
0
 72
0
 73
0
 74
0
 75
0
 76
0
 77
1
 78
12
 79
3
170
0
171
3
172
1
173
0
174
0
175
0
176
0
177
0
178
0
179
2
271
2
272
2
273
2
274
3
275
0
276
0
277
2
278
46
279
2
280
0
281
0
282
0
283
0
284
8
285
0
286
0
288
1
289
3
290
0
340
4C
371
-2
372
-2
  0
DIMSTYLE
105
80
330
4
100
AcDbSymbolTableRecord
100
AcDbDimStyleTableRecord
  2
EZ_M_10_H25_CM
 70
0
 40
1.0
 41
0.025
 42
0.0125
 43
3.75
 44
0.037500000000000006
 45
0.0
 46
0.0
 47
0.0
 48
0.0
 49
2.5
140
0.025
141
2.5
142
0.0125
143
0.03937007874
144
100.0
145
0.0
146
0.5
147
0.010000000000000002
148
0.0
 69
0
 70
0
 71
0
 72
0
 73
0
 74
0
 75
0
 76
0
 77
1
 78
12
 79
3
170
0
171
3
172
1
173
0
174
0
175
0
176
0
177
0
178
0
179
2
271
2
272
2
273
2
274
3
275
0
276
0
277
2
278
46
279
2
280
0
281
0
282
0
283
0
284
8
285
0
286
0
288
1
289
3
290
0
340
4C
371
-2
372
-2
  0
DIMSTYLE
105
81
330
4
100
AcDbSymbolTableRecord
100
AcDbDimStyleTableRecord
  2
EZ_M_5_H25_CM
 70
0
 40
1.0
 41
0.0125
 42
0.00625
 43
3.75
 44
0.018750000000000003
 45
0.0
 46
0.0
 47
0.0
 48
0.0
 49
2.5
140
0.0125
141
2.5
142
0.00625
143
0.03937007874
144
100.0
145
0.0
146
0.5
147
0.005000000000000001
148
0.0
 69
0
 70
0
 71
0
 72
0
 73
0
 74
0
 75
0
 76
0
 77
1
 78
12
 79
3
170
0
171
3
172
1
173
0
174
0
175
0
176
0
177
0
178
0
179
2
271
2
272
2
273
2
274
3
275
0
276
0
277
2
278
46
279
2
280
0
281
0
282
0
283
0
284
8
285
0
286
0
288
1
289
3
290
0
340
4C
371
-2
372
-2
  0
DIMSTYLE
105
82
330
4
100
AcDbSymbolTableRecord
100
AcDbDimStyleTableRecord
  2
EZ_M_1_H25_CM
 70
0
 40
1.0
 41
0.0025
 42
0.00125
 43
3.75
 44
0.00375
 45
0.0
 46
0.0
 47
0.0
 48
0.0
 49
2.5
140
0.0025
141
2.5
142
0.00125
143
0.03937007874
144
100.0
145
0.0
146
0.5
147
0.001
148
0.0
 69
0
 70
0
 71
0
 72
0
 73
0
 74
0
 75
0
 76
0
 77
1
 78
12
 79
3
170
0
171
3
172
1
173
0
174
0
175
0
176
0
177
0
178
0
179
2
271
2
272
2
273
2
274
3
275
0
276
0
277
2
278
46
279
2
280
0
281
0
282
0
283
0
284
8
285
0
286
0
288
1
289
3
290
0
340
4C
371
-2
372
-2
  0
DIMSTYLE
105
83
330
4
100
AcDbSymbolTableRecord
100
AcDbDimStyleTableRecord
  2
EZ_RADIUS
 70
0
 40
1.0
 41
0.25
 42
0.125
 43
3.75
 44
0.375
 45
0.0
 46
0.0
 47
0.0
 48
0.0
 49
2.5
140
0.25
141
0.0
142
0.0
143
0.03937007874
144
100.0
145
0.0
146
0.5
147
0.1
148
0.0
 69
0
 70
0
 71
0
 72
0
 73
0
 74
0
 75
0
 76
0
 77
1
 78
12
 79
3
170
0
171
3
172
0
173
0
174
0
175
0
176
0
177
0
178
0
179
2
271
2
272
2
273
2
274
3
275
0
276
0
277
2
278
46
279
1
280
0
281
0
282
0
283
0
284
8
285
0
286
0
288
1
289
3
290
0
340
4C
342
84
371
-2
372
-2
  0
DIMSTYLE
105
88
330
4
100
AcDbSymbolTableRecord
100
AcDbDimStyleTableRecord
  2
EZ_RADIUS_INSIDE
 70
0
 40
1.0
 41
0.25
 42
0.125
 43
3.75
 44
0.375
 45
0.0
 46
0.0
 47
0.0
 48
0.0
 49
2.5
140
0.25
141
0.0
142
0.0
143
0.03937007874
144
100.0
145
0.0
146
0.5
147
0.1
148
0.0
 69
0
 70
0
 71
0
 72
0
 73
0
 74
0
 75
0
 76
0
 77
0
 78
12
 79
3
170
0
171
3
172
0
173
0
174
1
175
0
176
0
177
0
178
0
179
2
271
2
272
2
273
2
274
3
275
0
276
0
277
2
278
46
279
0
280
0
281
0
282
0
283
0
284
8
285
0
286
0
288
1
289
0
290
0
340
4C
342
84
371
-2
372
-2
  0
DIMSTYLE
105
89
330
4
100
AcDbSymbolTableRecord
100
AcDbDimStyleTableRecord
  2
EZ_CURVED
 70
0
 40
1.0
 41
0.25
 42
0.125
 43
3.75
 44
0.375
 45
0.0
 46
0.0
 47
0.0
 48
0.0
 49
2.5
140
0.25
141
2.5
142
0.0
143
0.03937007874
144
100.0
145
0.0
146
0.5
147
0.1
148
0.0
 69
0
 70
0
 71
0
 72
0
 73
0
 74
0
 75
0
 76
0
 77
1
 78
12
 79
2
 90
2
170
0
171
3
172
1
173
0
174
0
175
0
176
0
177
0
178
0
179
2
271
2
272
2
273
2
274
3
275
0
276
0
277
2
278
46
279
2
280
0
281
0
282
0
283
0
284
8
285
0
286
0
288
1
289
3
290
0
340
4C
371
-2
372
-2
  0
ENDTAB
  0
TABLE
  2
BLOCK_RECORD
  5
9
330
0
100
AcDbSymbolTable
 70
5
  0
BLOCK_RECORD
  5
17
330
9
100
AcDbSymbolTableRecord
100
AcDbBlockTableRecord
  2
*Model_Space
340
1A
 70
0
280
1
281
0
  0
BLOCK_RECORD
  5
1B
330
9
100
AcDbSymbolTableRecord
100
AcDbBlockTableRecord
  2
*Paper_Space
340
1E
 70
0
280
1
281
0
  0
BLOCK_RECORD
  5
74
330
9
100
AcDbSymbolTableRecord
100
AcDbBlockTableRecord
  2
_ARCHTICK
340
0
 70
0
280
1
281
0
  0
BLOCK_RECORD
  5
78
330
9
100
AcDbSymbolTableRecord
100
AcDbBlockTableRecord
  2
_CLOSEDFILLED
340
0
 70
0
280
1
281
0
  0
BLOCK_RECORD
  5
84
330
9
100
AcDbSymbolTableRecord
100
AcDbBlockTableRecord
  2
_CLOSEDBLANK
340
0
 70
0
280
1
281
0
  0
ENDTAB
  0
ENDSEC
  0
SECTION
  2
BLOCKS
  0
BLOCK
  5
18
330
17
100
AcDbEntity
  8
0
100
AcDbBlockBegin
  2
*Model_Space
 70
0
 10
0.0
 20
0.0
 30
0.0
  3
*Model_Space
  1

  0
ENDBLK
  5
19
330
17
100
AcDbEntity
  8
0
100
AcDbBlockEnd
  0
BLOCK
  5
1C
330
1B
100
AcDbEntity
  8
0
100
AcDbBlockBegin
  2
*Paper_Space
 70
0
 10
0.0
 20
0.0
 30
0.0
  3
*Paper_Space
  1

  0
ENDBLK
  5
1D
330
1B
100
AcDbEntity
  8
0
100
AcDbBlockEnd
  0
BLOCK
  5
75
330
74
100
AcDbEntity
  8
0
100
AcDbBlockBegin
  2
_ARCHTICK
 70
0
 10
0.0
 20
0.0
 30
0.0
  3
_ARCHTICK
  1

  0
LWPOLYLINE
  5
77
330
74
100
AcDbEntity
  8
0
  6
BYBLOCK
 62
0
100
AcDbPolyline
 90
2
 70
0
 43
0.15
 10
-0.5
 20
-0.5
 10
0.5
 20
0.5
  0
ENDBLK
  5
76
330
74
100
AcDbEntity
  8
0
100
AcDbBlockEnd
  0
BLOCK
  5
79
330
78
100
AcDbEntity
  8
0
100
AcDbBlockBegin
  2
_CLOSEDFILLED
 70
0
 10
0.0
 20
0.0
 30
0.0
  3
_CLOSEDFILLED
  1

  0
SOLID
  5
7B
330
78
100
AcDbEntity
  8
0
  6
BYBLOCK
 62
0
100
AcDbTrace
 10
-1.0
 20
0.16439898372402537
 30
0.0
 11
0.0
 21
0.0
 31
0.0
 12
-1.0
 22
-0.16439898372402537
 32
0.0
 13
-1.0
 23
-0.16439898372402537
 33
0.0
  0
ENDBLK
  5
7A
330
78
100
AcDbEntity
  8
0
100
AcDbBlockEnd
  0
BLOCK
  5
85
330
84
100
AcDbEntity
  8
0
100
AcDbBlockBegin
  2
_CLOSEDBLANK
 70
0
 10
0.0
 20
0.0
 30
0.0
  3
_CLOSEDBLANK
  1

  0
LWPOLYLINE
  5
87
330
84
100
AcDbEntity
  8
0
  6
BYBLOCK
 62
0
100
AcDbPolyline
 90
3
 70
1
 10
-1.0
 20
0.16439898372402537
 10
0.0
 20
0.0
 10
-1.0
 20
-0.16439898372402537
  0
ENDBLK
  5
86
330
84
100
AcDbEntity
  8
0
100
AcDbBlockEnd
  0
ENDSEC
  0
SECTION
  2
ENTITIES
  0
LWPOLYLINE
  5
8D
330
17
100
AcDbEntity
  8
HOJA
100
AcDbPolyline
 90
4
 70
1
 10
0.0
 20
0.0
 10
600.0
 20
0.0
 10
600.0
 20
900.0
 10
0.0
 20
900.0
  0
LWPOLYLINE
  5
8E
330
17
100
AcDbEntity
  8
CORTE
100
AcDbPolyline
 90
45
 70
1
 10
13.000000000000002
 20
26.15000027418137
 10
13.000000000000002
 20
37.70000007152557
 10
15.000000000000002
 20
37.70000007152557
 10
15.000000000000002
 20
48.94999986886978
 10
13.000000000000002
 20
48.94999986886978
 10
13.000000000000002
 20
60.499999666213995
 10
15.000000000000002
 20
60.499999666213995
 10
15.000000000000002
 20
71.64999949336053
 10
24.678571398769115
 20
71.64999949336053
 10
24.678571398769115
 20
73.64999949336053
 10
36.257142827340544
 20
73.64999949336053
 10
36.257142827340544
 20
71.64999949336053
 10
47.53571425591197
 20
71.64999949336053
 10
47.53571425591197
 20
73.64999949336053
 10
59.1142856844834
 20
73.64999949336053
 10
59.1142856844834
 20
71.64999949336053
 10
70.39285711305483
 20
71.64999949336053
 10
70.39285711305483
 20
73.64999949336053
 10
81.97142854162627
 20
73.64999949336053
 10
81.97142854162627
 20
71.64999949336053
 10
91.64999949336053
 20
71.64999949336053
 10
91.64999949336053
 20
60.49999966621398
 10
93.64999949336053
 20
60.49999966621398
 10
93.64999949336053
 20
48.94999986886977
 10
91.64999949336053
 20
48.94999986886977
 10
91.64999949336053
 20
37.70000007152556
 10
93.64999949336053
 20
37.70000007152556
 10
93.64999949336053
 20
26.150000274181355
 10
91.64999949336053
 20
26.150000274181355
 10
91.64999949336053
 20
15.000000000000004
 10
81.97142854162624
 20
15.000000000000004
 10
81.97142854162624
 20
13.0
 10
70.39285711305482
 20
13.0
 10
70.39285711305482
 20
15.000000000000004
 10
59.1142856844834
 20
15.000000000000004
 10
59.1142856844834
 20
13.0
 10
47.53571425591196
 20
13.0
 10
47.53571425591196
 20
15.000000000000004
 10
36.25714282734054
 20
15.000000000000004
 10
36.25714282734054
 20
13.0
 10
24.678571398769108
 20
13.0
 10
24.678571398769108
 20
15.000000000000004
 10
15.000000000000002
 20
15.000000000000004
 10
15.000000000000002
 20
26.15000027418137
 10
13.000000000000002
 20
26.15000027418137
  0
LWPOLYLINE
  5
8F
330
17
100
AcDbEntity
  8
GRABADO
100
AcDbPolyline
 90
7
 70
1
 10
13.075000000000001
 20
37.62500007152558
 10
13.324999970197679
 20
37.62500007152558
 10
15.075000000000001
 20
37.62500007152558
 10
15.075000000000001
 20
26.22500027418137
 10
13.324999970197679
 20
26.22500027418137
 10
13.075000000000001
 20
26.22500027418137
 10
13.075000000000001
 20
37.62500007152558
  0
LWPOLYLINE
  5
90
330
17
100
AcDbEntity
  8
GRABADO
100
AcDbPolyline
 90
7
 70
1
 10
13.075000000000001
 20
60.42499966621399
 10
13.324999970197686
 20
60.42499966621399
 10
15.075000000000001
 20
60.42499966621399
 10
15.075000000000001
 20
49.024999868869784
 10
13.324999970197679
 20
49.024999868869784
 10
13.075000000000001
 20
49.024999868869784
 10
13.075000000000001
 20
60.42499966621399
  0
LWPOLYLINE
  5
91
330
17
100
AcDbEntity
  8
GRABADO
100
AcDbPolyline
 90
7
 70
1
 10
36.18214282734055
 20
73.57499949336052
 10
36.18214282734055
 20
73.32499952316284
 10
36.18214282734055
 20
71.57499949336052
 10
24.753571398769118
 20
71.57499949336052
 10
24.753571398769118
 20
73.32499952316284
 10
24.753571398769118
 20
73.57499949336052
 10
36.18214282734055
 20
73.57499949336052
  0
LWPOLYLINE
  5
92
330
17
100
AcDbEntity
  8
GRABADO
100
AcDbPolyline
 90
7
 70
1
 10
59.039285684483396
 20
73.57499949336052
 10
59.039285684483396
 20
73.32499952316284
 10
59.039285684483396
 20
71.57499949336052
 10
47.61071425591197
 20
71.57499949336052
 10
47.61071425591197
 20
73.32499952316284
 10
47.61071425591197
 20
73.57499949336052
 10
59.039285684483396
 20
73.57499949336052
  0
LWPOLYLINE
  5
93
330
17
100
AcDbEntity
  8
GRABADO
100
AcDbPolyline
 90
7
 70
1
 10
81.89642854162626
 20
73.57499949336052
 10
81.89642854162626
 20
73.32499952316283
 10
81.89642854162626
 20
71.57499949336052
 10
70.46785711305483
 20
71.57499949336052
 10
70.46785711305483
 20
73.32499952316284
 10
70.46785711305483
 20
73.57499949336052
 10
81.89642854162626
 20
73.57499949336052
  0
LWPOLYLINE
  5
94
330
17
100
AcDbEntity
  8
GRABADO
100
AcDbPolyline
 90
7
 70
1
 10
93.57499949336052
 20
49.02499986886977
 10
93.32499997019768
 20
49.02499986886977
 10
91.57499949336052
 20
49.02499986886977
 10
91.57499949336052
 20
60.42499966621398
 10
93.32499997019768
 20
60.42499966621398
 10
93.57499949336052
 20
60.42499966621398
 10
93.57499949336052
 20
49.02499986886977
  0
LWPOLYLINE
  5
95
330
17
100
AcDbEntity
  8
GRABADO
100
AcDbPolyline
 90
7
 70
1
 10
93.57499949336052
 20
26.225000274181355
 10
93.32499997019768
 20
26.225000274181355
 10
91.57499949336052
 20
26.225000274181355
 10
91.57499949336052
 20
37.62500007152556
 10
93.32499997019768
 20
37.62500007152556
 10
93.57499949336052
 20
37.62500007152556
 10
93.57499949336052
 20
26.225000274181355
  0
LWPOLYLINE
  5
96
330
17
100
AcDbEntity
  8
GRABADO
100
AcDbPolyline
 90
7
 70
1
 10
70.46785711305482
 20
13.075
 10
70.46785711305482
 20
13.324999523162838
 10
70.46785711305482
 20
15.075000000000003
 10
81.89642854162624
 20
15.075000000000003
 10
81.89642854162624
 20
13.324999523162834
 10
81.89642854162624
 20
13.075
 10
70.46785711305482
 20
13.075
  0
LWPOLYLINE
  5
97
330
17
100
AcDbEntity
  8
GRABADO
100
AcDbPolyline
 90
7
 70
1
 10
47.610714255911965
 20
13.075
 10
47.610714255911965
 20
13.324999523162838
 10
47.610714255911965
 20
15.075000000000003
 10
59.039285684483396
 20
15.075000000000003
 10
59.039285684483396
 20
13.324999523162838
 10
59.039285684483396
 20
13.075
 10
47.610714255911965
 20
13.075
  0
LWPOLYLINE
  5
98
330
17
100
AcDbEntity
  8
GRABADO
100
AcDbPolyline
 90
7
 70
1
 10
24.753571398769104
 20
13.075
 10
24.753571398769104
 20
13.324999523162841
 10
24.753571398769104
 20
15.075000000000003
 10
36.18214282734054
 20
15.075000000000003
 10
36.18214282734054
 20
13.324999523162838
 10
36.18214282734054
 20
13.075
 10
24.753571398769104
 20
13.075
  0
TEXT
  5
99
330
17
100
AcDbEntity
  8
GRABADO
100
AcDbText
 10
53.32499974668026
 20
43.324999970197666
 30
0.0
 40
6.0
  1
L1
 72
1
 11
53.32499974668026
 21
43.324999970197666
 31
0.0
100
AcDbText
 73
2
  0
LWPOLYLINE
  5
9A
330
17
100
AcDbEntity
  8
CORTE
100
AcDbPolyline
 90
31
 70
1
 10
148.96428523744856
 20
16.74999966472391
 10
137.68571380887715
 20
16.74999966472391
 10
137.68571380887715
 20
13.0
 10
126.1071423803057
 20
13.0
 10
126.1071423803057
 20
16.74999966472391
 10
114.82857095173426
 20
16.74999966472391
 10
114.82857095173426
 20
13.0
 10
103.24999952316284
 20
13.0
 10
103.24999952316284
 20
15.345000900484898
 10
105.0
 20
15.345000900484898
 10
105.0
 20
26.528333920601504
 10
103.0
 20
26.528333920601504
 10
103.0
 20
38.0116669407181
 10
105.0
 20
38.0116669407181
 10
105.0
 20
49.34499996083471
 10
181.6499994933605
 20
49.34499996083471
 10
181.6499994933605
 20
48.5940006164479
 10
181.64999949336053
 20
48.5940006164479
 10
181.64999949336053
 20
38.0116669407181
 10
183.64999949336053
 20
38.0116669407181
 10
183.64999949336053
 20
26.528333920601497
 10
181.64999949336053
 20
26.528333920601497
 10
181.64999949336053
 20
15.345000900484894
 10
183.39999952316285
 20
15.345000900484894
 10
183.39999952316285
 20
13.0
 10
171.8214280945914
 20
13.0
 10
171.8214280945914
 20
16.74999966472391
 10
160.54285666602
 20
16.74999966472391
 10
160.54285666602
 20
13.0
 10
148.96428523744856
 20
13.0
 10
148.96428523744856
 20
16.74999966472391
  0
LWPOLYLINE
  5
9B
330
17
100
AcDbEntity
  8
GRABADO
100
AcDbPolyline
 90
7
 70
1
 10
181.5749994933605
 20
37.9366669407181
 10
183.32499952316283
 20
37.9366669407181
 10
183.5749994933605
 20
37.9366669407181
 10
183.5749994933605
 20
26.603333920601496
 10
183.32499952316283
 20
26.603333920601496
 10
181.5749994933605
 20
26.603333920601496
 10
181.5749994933605
 20
37.9366669407181
  0
LWPOLYLINE
  5
9C
330
17
100
AcDbEntity
  8
GRABADO
100
AcDbPolyline
 90
8
 70
1
 10
183.32499952316283
 20
13.075
 10
171.8964280945914
 20
13.075
 10
171.8964280945914
 20
15.270000900484895
 10
171.8964280945914
 20
16.824999664723908
 10
181.5749994933605
 20
16.824999664723908
 10
181.5749994933605
 20
15.270000900484895
 10
183.32499952316283
 20
15.270000900484895
 10
183.32499952316283
 20
13.075
  0
LWPOLYLINE
  5
9D
330
17
100
AcDbEntity
  8
GRABADO
100
AcDbPolyline
 90
7
 70
1
 10
149.03928523744855
 20
13.075
 10
149.03928523744855
 20
15.270000900484899
 10
149.03928523744855
 20
16.824999664723908
 10
160.46785666602
 20
16.824999664723908
 10
160.46785666602
 20
15.270000900484895
 10
160.46785666602
 20
13.075
 10
149.03928523744855
 20
13.075
  0
LWPOLYLINE
  5
9E
330
17
100
AcDbEntity
  8
GRABADO
100
AcDbPolyline
 90
7
 70
1
 10
126.1821423803057
 20
13.075
 10
126.1821423803057
 20
15.270000900484899
 10
126.1821423803057
 20
16.824999664723908
 10
137.61071380887714
 20
16.824999664723908
 10
137.61071380887714
 20
15.270000900484899
 10
137.61071380887714
 20
13.075
 10
126.1821423803057
 20
13.075
  0
LWPOLYLINE
  5
9F
330
17
100
AcDbEntity
  8
GRABADO
100
AcDbPolyline
 90
8
 70
1
 10
103.32499952316284
 20
13.075
 10
103.32499952316284
 20
15.270000900484899
 10
105.075
 20
15.270000900484899
 10
105.075
 20
16.824999664723908
 10
114.75357095173428
 20
16.824999664723908
 10
114.75357095173428
 20
15.270000900484899
 10
114.75357095173428
 20
13.075
 10
103.32499952316284
 20
13.075
  0
LWPOLYLINE
  5
A0
330
17
100
AcDbEntity
  8
GRABADO
100
AcDbPolyline
 90
7
 70
1
 10
103.075
 20
37.936666940718105
 10
103.32499952316284
 20
37.936666940718105
 10
105.075
 20
37.936666940718105
 10
105.075
 20
26.6033339206015
 10
103.32499952316284
 20
26.6033339206015
 10
103.075
 20
26.6033339206015
 10
103.075
 20
37.936666940718105
  0
TEXT
  5
A1
330
17
100
AcDbEntity
  8
GRABADO
100
AcDbText
 10
143.32499974668025
 20
32.270000430659806
 30
0.0
 40
6.0
  1
T2
 72
1
 11
143.32499974668025
 21
32.270000430659806
 31
0.0
100
AcDbText
 73
2
  0
LWPOLYLINE
  5
A2
330
17
100
AcDbEntity
  8
CORTE
100
AcDbPolyline
 90
26
 70
1
 10
204.67857095173426
 20
16.74999966472391
 10
195.0
 20
16.74999966472391
 10
195.0
 20
26.528333350851554
 10
193.0
 20
26.528333350851554
 10
193.0
 20
38.01166665584314
 10
195.0
 20
38.01166665584314
 10
195.0
 20
49.34499996083473
 10
233.32499952316257
 20
49.344999960834734
 10
271.6499994933605
 20
49.34499996083473
 10
271.6499994933605
 20
38.01166665584314
 10
273.6499994933605
 20
38.01166665584314
 10
273.6499994933605
 20
26.528333350851554
 10
271.6499994933605
 20
26.528333350851554
 10
271.6499994933605
 20
16.74999966472391
 10
261.9714280945914
 20
16.74999966472391
 10
261.9714280945914
 20
13.000000000000002
 10
250.39285666601995
 20
13.000000000000002
 10
250.39285666601995
 20
16.74999966472391
 10
239.11428523744854
 20
16.74999966472391
 10
239.11428523744854
 20
13.000000000000002
 10
227.53571380887712
 20
13.000000000000002
 10
227.53571380887712
 20
16.74999966472391
 10
216.2571423803057
 20
16.74999966472391
 10
216.2571423803057
 20
13.000000000000002
 10
204.67857095173426
 20
13.000000000000002
 10
204.67857095173426
 20
16.74999966472391
  0
LWPOLYLINE
  5
A3
330
17
100
AcDbEntity
  8
GRABADO
100
AcDbPolyline
 90
7
 70
1
 10
271.5749994933605
 20
37.93666665584314
 10
273.32499952316283
 20
37.93666665584314
 10
273.5749994933605
 20
37.93666665584314
 10
273.5749994933605
 20
26.603333350851557
 10
273.32499952316283
 20
26.603333350851557
 10
271.5749994933605
 20
26.603333350851557
 10
271.5749994933605
 20
37.93666665584314
  0
LWPOLYLINE
  5
A4
330
17
100
AcDbEntity
  8
GRABADO
100
AcDbPolyline
 90
7
 70
1
 10
250.46785666601997
 20
13.075000000000001
 10
250.46785666601997
 20
15.270000045859971
 10
250.46785666601997
 20
16.824999664723908
 10
261.8964280945914
 20
16.824999664723908
 10
261.8964280945914
 20
15.270000045859971
 10
261.8964280945914
 20
13.075000000000001
 10
250.46785666601997
 20
13.075000000000001
  0
LWPOLYLINE
  5
A5
330
17
100
AcDbEntity
  8
GRABADO
100
AcDbPolyline
 90
7
 70
1
 10
227.6107138088771
 20
13.075000000000001
 10
227.6107138088771
 20
15.270000045859971
 10
227.6107138088771
 20
16.824999664723908
 10
239.03928523744855
 20
16.824999664723908
 10
239.03928523744855
 20
15.270000045859971
 10
239.03928523744855
 20
13.075000000000001
 10
227.6107138088771
 20
13.075000000000001
  0
LWPOLYLINE
  5
A6
330
17
100
AcDbEntity
  8
GRABADO
100
AcDbPolyline
 90
7
 70
1
 10
204.75357095173425
 20
13.075000000000001
 10
204.75357095173425
 20
15.270000045859971
 10
204.75357095173425
 20
16.824999664723908
 10
216.1821423803057
 20
16.824999664723908
 10
216.1821423803057
 20
15.270000045859971
 10
216.1821423803057
 20
13.075000000000001
 10
204.75357095173425
 20
13.075000000000001
  0
LWPOLYLINE
  5
A7
330
17
100
AcDbEntity
  8
GRABADO
100
AcDbPolyline
 90
7
 70
1
 10
193.075
 20
37.93666665584314
 10
193.32499952316283
 20
37.93666665584314
 10
195.075
 20
37.93666665584314
 10
195.075
 20
26.603333350851557
 10
193.32499952316283
 20
26.603333350851557
 10
193.075
 20
26.603333350851557
 10
193.075
 20
37.93666665584314
  0
TEXT
  5
A8
330
17
100
AcDbEntity
  8
GRABADO
100
AcDbText
 10
233.32499974668025
 20
32.27000000334735
 30
0.0
 40
6.0
  1
T1
 72
1
 11
233.32499974668025
 21
32.27000000334735
 31
0.0
100
AcDbText
 73
2
  0
LWPOLYLINE
  5
A9
330
17
100
AcDbEntity
  8
CORTE
100
AcDbPolyline
 90
29
 70
1
 10
285.0
 20
30.563333633500783
 10
285.0
 20
39.413333792434116
 10
283.24999952316284
 20
39.413333792434116
 10
283.24999952316284
 20
41.56333380735386
 10
294.82857095173426
 20
41.56333380735386
 10
294.82857095173426
 20
39.56333380735386
 10
306.1071423803057
 20
39.56333380735386
 10
306.1071423803057
 20
41.56333380735386
 10
317.6857138088771
 20
41.56333380735386
 10
317.6857138088771
 20
39.56333380735386
 10
328.96428523744856
 20
39.56333380735386
 10
328.96428523744856
 20
41.56333380735386
 10
340.54285666602
 20
41.56333380735386
 10
340.54285666602
 20
39.56333380735386
 10
351.8214280945914
 20
39.56333380735386
 10
351.8214280945914
 20
41.56333380735386
 10
363.3999995231628
 20
41.56333380735386
 10
363.3999995231628
 20
39.413333792434116
 10
361.6499994933605
 20
39.413333792434116
 10
361.6499994933605
 20
30.563333633500783
 10
363.6499994933605
 20
30.563333633500783
 10
363.6499994933605
 20
21.41333347456745
 10
361.6499994933605
 20
21.41333347456745
 10
361.6499994933605
 20
13.0
 10
285.0
 20
13.0
 10
285.0
 20
21.41333347456745
 10
283.0
 20
21.41333347456745
 10
283.0
 20
30.563333633500783
 10
285.0
 20
30.563333633500783
  0
LWPOLYLINE
  5
AA
330
17
100
AcDbEntity
  8
CORTE
100
AcDbPolyline
 90
5
 70
1
 10
349.24999976156283
 20
29.913333911634115
 10
337.40000047686283
 20
29.913333911634115
 10
337.40000047686283
 20
19.063334269334113
 10
349.24999976156283
 20
19.063334269334113
 10
349.24999976156283
 20
29.913333911634115
  0
LWPOLYLINE
  5
AB
330
17
100
AcDbEntity
  8
CORTE
100
AcDbPolyline
 90
6
 70
1
 10
301.40000143046285
 20
19.063334269334113
 10
313.24999952316284
 20
19.063334269334113
 10
313.24999952316284
 20
27.298090361080423
 10
324.6619713542832
 20
29.913333911634115
 10
301.40000143046285
 20
29.913333911634115
 10
301.40000143046285
 20
19.063334269334113
  0
LWPOLYLINE
  5
AC
330
17
100
AcDbEntity
  8
GRABADO
100
AcDbPolyline
 90
7
 70
1
 10
283.075
 20
30.488333633500783
 10
283.32499952316283
 20
30.488333633500783
 10
285.075
 20
30.488333633500783
 10
285.075
 20
21.48833347456745
 10
283.32499952316283
 20
21.48833347456745
 10
283.075
 20
21.48833347456745
 10
283.075
 20
30.488333633500783
  0
LWPOLYLINE
  5
AD
330
17
100
AcDbEntity
  8
GRABADO
100
AcDbPolyline
 90
7
 70
1
 10
361.5749994933605
 20
30.488333633500783
 10
363.32499952316283
 20
30.488333633500783
 10
363.5749994933605
 20
30.488333633500783
 10
363.5749994933605
 20
21.48833347456745
 10
363.32499952316283
 20
21.48833347456745
 10
361.5749994933605
 20
21.48833347456745
 10
361.5749994933605
 20
30.488333633500783
  0
LWPOLYLINE
  5
AE
330
17
100
AcDbEntity
  8
GRABADO
100
AcDbPolyline
 90
5
 70
1
 10
363.32499952316283
 20
39.488333807353854
 10
351.89642809459144
 20
39.488333807353854
 10
351.89642809459144
 20
41.488333807353854
 10
363.32499952316283
 20
41.488333807353854
 10
363.32499952316283
 20
39.488333807353854
  0
LWPOLYLINE
  5
AF
330
17
100
AcDbEntity
  8
GRABADO
100
AcDbPolyline
 90
5
 70
1
 10
329.03928523744855
 20
39.488333807353854
 10
329.03928523744855
 20
41.488333807353854
 10
340.46785666602
 20
41.488333807353854
 10
340.46785666602
 20
39.488333807353854
 10
329.03928523744855
 20
39.488333807353854
  0
LWPOLYLINE
  5
B0
330
17
100
AcDbEntity
  8
GRABADO
100
AcDbPolyline
 90
5
 70
1
 10
306.18214238030566
 20
39.488333807353854
 10
306.18214238030566
 20
41.488333807353854
 10
317.6107138088771
 20
41.488333807353854
 10
317.6107138088771
 20
39.488333807353854
 10
306.18214238030566
 20
39.488333807353854
  0
LWPOLYLINE
  5
B1
330
17
100
AcDbEntity
  8
GRABADO
100
AcDbPolyline
 90
5
 70
1
 10
283.32499952316283
 20
39.488333807353854
 10
283.32499952316283
 20
41.488333807353854
 10
294.7535709517343
 20
41.488333807353854
 10
294.7535709517343
 20
39.488333807353854
 10
283.32499952316283
 20
39.488333807353854
  0
TEXT
  5
B2
330
17
100
AcDbEntity
  8
GRABADO
100
AcDbText
 10
325.32500000001284
 20
24.35571191782394
 30
0.0
 40
6.0
  1
M1
 72
1
 11
325.32500000001284
 21
24.35571191782394
 31
0.0
100
AcDbText
 73
2
  0
LWPOLYLINE
  5
B3
330
17
100
AcDbEntity
  8
CORTE
100
AcDbPolyline
 90
29
 70
1
 10
407.68571380887715
 20
41.563334085508885
 10
407.68571380887715
 20
39.563334085508885
 10
418.9642852374485
 20
39.563334085508885
 10
418.9642852374485
 20
41.563334085508885
 10
430.54285666602
 20
41.563334085508885
 10
430.54285666602
 20
39.563334085508885
 10
441.8214280945914
 20
39.563334085508885
 10
441.8214280945914
 20
41.563334085508885
 10
453.3999995231628
 20
41.563334085508885
 10
453.3999995231628
 20
39.41333407060773
 10
451.6499994933605
 20
39.41333407060773
 10
451.6499994933605
 20
30.563333911662006
 10
453.6499994933605
 20
30.563333911662006
 10
453.6499994933605
 20
21.41333375271629
 10
451.6499994933605
 20
21.41333375271629
 10
451.6499994933605
 20
13.0
 10
375.0
 20
13.0
 10
375.0
 20
21.41333375271629
 10
373.0
 20
21.41333375271629
 10
373.0
 20
30.563333911662006
 10
375.0
 20
30.563333911662006
 10
375.0
 20
39.41333407060773
 10
373.24999952316284
 20
39.41333407060773
 10
373.24999952316284
 20
41.563334085508885
 10
384.82857095173426
 20
41.563334085508885
 10
384.82857095173426
 20
39.563334085508885
 10
396.1071423803057
 20
39.563334085508885
 10
396.1071423803057
 20
41.563334085508885
 10
407.68571380887715
 20
41.563334085508885
  0
LWPOLYLINE
  5
B4
330
17
100
AcDbEntity
  8
CORTE
100
AcDbPolyline
 90
5
 70
1
 10
443.24999952316284
 20
19.063334547444885
 10
443.24999952316284
 20
29.913334189817018
 10
429.3999985694885
 20
29.913334189817018
 10
429.3999985694885
 20
19.063334547444885
 10
443.24999952316284
 20
19.063334547444885
  0
LWPOLYLINE
  5
B5
330
17
100
AcDbEntity
  8
CORTE
100
AcDbPolyline
 90
5
 70
1
 10
411.8999985694885
 20
18.563335024282043
 10
421.2499990463257
 20
18.563335024282043
 10
421.2499990463257
 20
38.91333407060773
 10
411.8999985694885
 20
38.91333407060773
 10
411.8999985694885
 20
18.563335024282043
  0
LWPOLYLINE
  5
B6
330
17
100
AcDbEntity
  8
GRABADO
100
AcDbPolyline
 90
7
 70
1
 10
373.075
 20
30.488333911662007
 10
373.32499952316283
 20
30.488333911662007
 10
375.075
 20
30.488333911662007
 10
375.075
 20
21.48833375271629
 10
373.32499952316283
 20
21.48833375271629
 10
373.075
 20
21.48833375271629
 10
373.075
 20
30.488333911662007
  0
LWPOLYLINE
  5
B7
330
17
100
AcDbEntity
  8
GRABADO
100
AcDbPolyline
 90
7
 70
1
 10
451.5749994933605
 20
30.488333911662007
 10
453.32499952316283
 20
30.488333911662007
 10
453.5749994933605
 20
30.488333911662007
 10
453.5749994933605
 20
21.48833375271629
 10
453.32499952316283
 20
21.48833375271629
 10
451.5749994933605
 20
21.48833375271629
 10
451.5749994933605
 20
30.488333911662007
  0
LWPOLYLINE
  5
B8
330
17
100
AcDbEntity
  8
GRABADO
100
AcDbPolyline
 90
5
 70
1
 10
453.32499952316283
 20
39.48833408550889
 10
441.8964280945914
 20
39.48833408550889
 10
441.8964280945914
 20
41.48833408550889
 10
453.32499952316283
 20
41.48833408550889
 10
453.32499952316283
 20
39.48833408550889
  0
LWPOLYLINE
  5
B9
330
17
100
AcDbEntity
  8
GRABADO
100
AcDbPolyline
 90
5
 70
1
 10
419.03928523744855
 20
39.48833408550889
 10
419.03928523744855
 20
41.48833408550889
 10
430.46785666602
 20
41.48833408550889
 10
430.46785666602
 20
39.48833408550889
 10
419.03928523744855
 20
39.48833408550889
  0
LWPOLYLINE
  5
BA
330
17
100
AcDbEntity
  8
GRABADO
100
AcDbPolyline
 90
5
 70
1
 10
396.18214238030566
 20
39.48833408550889
 10
396.18214238030566
 20
41.48833408550889
 10
407.6107138088771
 20
41.48833408550889
 10
407.6107138088771
 20
39.48833408550889
 10
396.18214238030566
 20
39.48833408550889
  0
LWPOLYLINE
  5
BB
330
17
100
AcDbEntity
  8
GRABADO
100
AcDbPolyline
 90
5
 70
1
 10
373.32499952316283
 20
39.48833408550889
 10
373.32499952316283
 20
41.48833408550889
 10
384.7535709517343
 20
41.48833408550889
 10
384.7535709517343
 20
39.48833408550889
 10
373.32499952316283
 20
39.48833408550889
  0
TEXT
  5
BC
330
17
100
AcDbEntity
  8
GRABADO
100
AcDbText
 10
392.44999928474425
 20
25.663333971266653
 30
0.0
 40
6.0
  1
M2
 72
1
 11
392.44999928474425
 21
25.663333971266653
 31
0.0
100
AcDbText
 73
2
  0
LWPOLYLINE
  5
BD
330
17
100
AcDbEntity
  8
CORTE
100
AcDbPolyline
 90
26
 70
1
 10
464.82500047683715
 20
13.000000000000002
 10
463.0
 20
13.000000000019378
 10
463.0
 20
22.150000158951915
 10
465.0
 20
22.150000158951915
 10
465.0
 20
31.000000317885245
 10
463.0
 20
31.000000317885245
 10
463.0
 20
40.150000476818576
 10
464.75000047683716
 20
40.150000476818576
 10
464.75000047683716
 20
42.15000049173832
 10
476.30000027418134
 20
42.15000049173832
 10
476.30000027418134
 20
40.15000049173832
 10
487.5500000715256
 20
40.15000049173832
 10
487.5500000715256
 20
42.15000049173832
 10
499.09999986886976
 20
42.15000049173832
 10
499.09999986886976
 20
40.15000049173832
 10
510.349999666214
 20
40.15000049173832
 10
510.349999666214
 20
42.15000049173832
 10
521.8999994635582
 20
42.15000049173832
 10
521.8999994635582
 20
40.15000047683716
 10
523.6499994933605
 20
40.15000047683716
 10
523.6499994933605
 20
31.00000031789144
 10
521.6499994933605
 20
31.00000031789144
 10
521.6499994933605
 20
22.150000158945723
 10
523.6499994933605
 20
22.150000158945723
 10
523.6499994933605
 20
13.000000000000002
 10
464.82500047683715
 20
13.000000000000002
  0
LWPOLYLINE
  5
BE
330
17
100
AcDbEntity
  8
GRABADO
100
AcDbPolyline
 90
8
 70
1
 10
523.5749994933606
 20
31.075000317891444
 10
521.8249994635582
 20
31.075000317891444
 10
521.5749994933606
 20
31.075000317891444
 10
521.5749994933606
 20
40.07500047683716
 10
521.8249994635581
 20
40.07500047683716
 10
521.8249994635582
 20
40.07500047683716
 10
523.5749994933606
 20
40.07500047683716
 10
523.5749994933606
 20
31.075000317891444
  0
LWPOLYLINE
  5
BF
330
17
100
AcDbEntity
  8
GRABADO
100
AcDbPolyline
 90
7
 70
1
 10
523.5749994933606
 20
13.075000000000001
 10
521.8249994635582
 20
13.075000000000001
 10
521.5749994933606
 20
13.075000000000001
 10
521.5749994933606
 20
22.07500015894572
 10
521.8249994635582
 20
22.07500015894572
 10
523.5749994933606
 20
22.07500015894572
 10
523.5749994933606
 20
13.075000000000001
  0
LWPOLYLINE
  5
C0
330
17
100
AcDbEntity
  8
GRABADO
100
AcDbPolyline
 90
7
 70
1
 10
463.075
 20
22.075000158951916
 10
464.82500047683715
 20
22.075000158951916
 10
465.075
 20
22.075000158951916
 10
465.075
 20
13.075000000018582
 10
464.82500047683715
 20
13.075000000018582
 10
463.075
 20
13.075000000018582
 10
463.075
 20
22.075000158951916
  0
LWPOLYLINE
  5
C1
330
17
100
AcDbEntity
  8
GRABADO
100
AcDbPolyline
 90
7
 70
1
 10
463.075
 20
40.07500047681858
 10
464.82500047683715
 20
40.07500047681858
 10
465.075
 20
40.07500047681858
 10
465.075
 20
31.075000317885248
 10
464.82500047683715
 20
31.075000317885248
 10
463.075
 20
31.075000317885248
 10
463.075
 20
40.07500047681858
  0
LWPOLYLINE
  5
C2
330
17
100
AcDbEntity
  8
GRABADO
100
AcDbPolyline
 90
5
 70
1
 10
510.424999666214
 20
40.07500049173832
 10
510.424999666214
 20
42.07500049173832
 10
521.8249994635581
 20
42.07500049173832
 10
521.8249994635581
 20
40.07500049173832
 10
510.424999666214
 20
40.07500049173832
  0
LWPOLYLINE
  5
C3
330
17
100
AcDbEntity
  8
GRABADO
100
AcDbPolyline
 90
5
 70
1
 10
487.62500007152556
 20
40.07500049173832
 10
487.62500007152556
 20
42.07500049173832
 10
499.02499986886977
 20
42.07500049173832
 10
499.02499986886977
 20
40.07500049173832
 10
487.62500007152556
 20
40.07500049173832
  0
LWPOLYLINE
  5
C4
330
17
100
AcDbEntity
  8
GRABADO
100
AcDbPolyline
 90
5
 70
1
 10
464.82500047683715
 20
40.07500049173832
 10
464.82500047683715
 20
42.07500049173832
 10
476.22500027418135
 20
42.07500049173832
 10
476.22500027418135
 20
40.07500049173832
 10
464.82500047683715
 20
40.07500049173832
  0
TEXT
  5
C5
330
17
100
AcDbEntity
  8
GRABADO
100
AcDbText
 10
493.32499974668025
 20
26.575000238418582
 30
0.0
 40
6.0
  1
M3
 72
1
 11
493.32499974668025
 21
26.575000238418582
 31
0.0
100
AcDbText
 73
2
  0
LWPOLYLINE
  5
C6
330
17
100
AcDbEntity
  8
CORTE
100
AcDbPolyline
 90
26
 70
1
 10
535.0000000149198
 20
14.750000476837158
 10
533.0
 20
14.750000476837158
 10
533.0
 20
26.300000274181368
 10
535.0
 20
26.300000274181368
 10
535.0
 20
37.550000071525574
 10
533.0
 20
37.550000071525574
 10
533.0
 20
49.09999986886979
 10
535.0
 20
49.09999986886979
 10
535.0
 20
60.34999966621399
 10
533.0
 20
60.34999966621399
 10
533.0
 20
71.8999994635582
 10
535.0000000149012
 20
71.8999994635582
 10
535.0000000149012
 20
73.64999949336053
 10
544.1500001738469
 20
73.64999949336053
 10
544.1500001738469
 20
71.64999949336051
 10
553.0000003327926
 20
71.64999949336051
 10
553.0000003327926
 20
73.64999949336053
 10
562.1500004917384
 20
73.64999949336053
 10
562.1500004917384
 20
14.825000476837157
 10
562.150000491719
 20
13.0
 10
553.0000003327864
 20
13.0
 10
553.0000003327864
 20
15.0
 10
544.1500001738531
 20
15.0
 10
544.1500001738531
 20
13.0
 10
535.0000000149198
 20
13.0
 10
535.0000000149198
 20
14.750000476837158
  0
LWPOLYLINE
  5
C7
330
17
100
AcDbEntity
  8
CORTE
100
AcDbPolyline
 90
5
 70
1
 10
555.499999538064
 20
38.89999904632568
 10
555.499999538064
 20
51.749998569488525
 10
544.649999895692
 20
51.749998569488525
 10
544.649999895692
 20
38.89999904632568
 10
555.499999538064
 20
38.89999904632568
  0
LWPOLYLINE
  5
C8
330
17
100
AcDbEntity
  8
GRABADO
100
AcDbPolyline
 90
7
 70
1
 10
544.0750001738469
 20
73.57499949336052
 10
544.0750001738469
 20
71.8249994635582
 10
544.0750001738469
 20
71.57499949336051
 10
535.0750000149012
 20
71.57499949336051
 10
535.0750000149012
 20
71.8249994635582
 10
535.0750000149012
 20
73.57499949336052
 10
544.0750001738469
 20
73.57499949336052
  0
LWPOLYLINE
  5
C9
330
17
100
AcDbEntity
  8
GRABADO
100
AcDbPolyline
 90
7
 70
1
 10
562.0750004917384
 20
73.57499949336052
 10
562.0750004917384
 20
71.8249994635582
 10
562.0750004917384
 20
71.57499949336051
 10
553.0750003327927
 20
71.57499949336051
 10
553.0750003327927
 20
71.8249994635582
 10
553.0750003327927
 20
73.57499949336052
 10
562.0750004917384
 20
73.57499949336052
  0
LWPOLYLINE
  5
CA
330
17
100
AcDbEntity
  8
GRABADO
100
AcDbPolyline
 90
7
 70
1
 10
553.0750003327864
 20
13.075
 10
553.0750003327864
 20
14.825000476837157
 10
553.0750003327864
 20
15.075
 10
562.0750004917197
 20
15.075
 10
562.0750004917197
 20
14.825000476837157
 10
562.0750004917197
 20
13.075
 10
553.0750003327864
 20
13.075
  0
LWPOLYLINE
  5
CB
330
17
100
AcDbEntity
  8
GRABADO
100
AcDbPolyline
 90
7
 70
1
 10
535.0750000149197
 20
13.075
 10
535.0750000149197
 20
14.825000476837157
 10
535.0750000149197
 20
15.075
 10
544.0750001738531
 20
15.075
 10
544.0750001738531
 20
14.825000476837157
 10
544.0750001738531
 20
13.075
 10
535.0750000149197
 20
13.075
  0
LWPOLYLINE
  5
CC
330
17
100
AcDbEntity
  8
GRABADO
100
AcDbPolyline
 90
5
 70
1
 10
535.075
 20
71.8249994635582
 10
535.075
 20
60.42499966621399
 10
533.075
 20
60.42499966621399
 10
533.075
 20
71.8249994635582
 10
535.075
 20
71.8249994635582
  0
LWPOLYLINE
  5
CD
330
17
100
AcDbEntity
  8
GRABADO
100
AcDbPolyline
 90
5
 70
1
 10
535.075
 20
37.62500007152558
 10
533.075
 20
37.62500007152558
 10
533.075
 20
49.024999868869784
 10
535.075
 20
49.024999868869784
 10
535.075
 20
37.62500007152558
  0
LWPOLYLINE
  5
CE
330
17
100
AcDbEntity
  8
GRABADO
100
AcDbPolyline
 90
5
 70
1
 10
535.075
 20
14.825000476837157
 10
533.075
 20
14.825000476837157
 10
533.075
 20
26.22500027418137
 10
535.075
 20
26.22500027418137
 10
535.075
 20
14.825000476837157
  0
TEXT
  5
CF
330
17
100
AcDbEntity
  8
GRABADO
100
AcDbText
 10
538.824999947846
 20
43.99999945759774
 30
0.0
 40
3.6437500614673013
  1
M4
 72
1
 11
538.824999947846
 21
43.99999945759774
 31
0.0
100
AcDbText
 73
2
  0
LWPOLYLINE
  5
D0
330
17
100
AcDbEntity
  8
CORTE
100
AcDbPolyline
 90
28
 70
1
 10
264.5882354017536
 20
69.64605979106426
 10
264.5882354017536
 20
69.64705979106427
 10
292.91323537195126
 20
69.64705979106427
 10
321.8319854444301
 20
69.64705979106427
 10
322.7088227012197
 20
70.11470636982955
 10
322.9582342321936
 20
69.64705979106427
 10
322.9582354020604
 20
69.64705979106427
 10
323.7676461585306
 20
68.12941246486301
 10
313.63529373586266
 20
62.72549068962523
 10
312.94733909238084
 20
64.01540553082629
 10
312.84705849115517
 20
64.20343164131361
 10
312.6941171997615
 20
64.49019653703793
 10
302.8264706126798
 20
59.22745122006832
 10
302.97941190407346
 20
58.94068632434399
 10
303.2597505809891
 20
58.41505135212264
 10
303.76764714878095
 20
57.46274537265562
 10
293.6352946845874
 20
52.05882357527082
 10
292.91323586194244
 20
53.41268374668553
 10
292.1911758056105
 20
52.05882319400637
 10
282.05882312926667
 20
57.462745104537966
 10
282.8470585884684
 20
58.94068645840303
 10
282.99999966536785
 20
59.22745095195067
 10
273.13235282692585
 20
64.49019640297911
 10
272.9794117500265
 20
64.20343190943147
 10
272.1911762908247
 20
62.72549055556641
 10
262.0588235752708
 20
68.12941248701001
 10
262.86770220975245
 20
69.64605979106426
 10
264.5882354017536
 20
69.64605979106426
  0
LWPOLYLINE
  5
D1
330
17
100
AcDbEntity
  8
GRABADO
100
AcDbPolyline
 90
28
 70
1
 10
282.1602937186484
 20
57.49362745371215
 10
282.9132350577464
 20
58.90539233829924
 10
283.1014702547496
 20
59.25833330112486
 10
273.1014704777517
 20
64.59166699236089
 10
272.9132352807485
 20
64.23872602953526
 10
272.16029394165054
 20
62.82696114494818
 10
262.1602941646526
 20
68.1602948361842
 10
263.1014707007538
 20
69.9250006835969
 10
292.9132348876636
 20
54.02539169570936
 10
322.7249990745733
 20
69.92500068359692
 10
322.91323423408693
 20
69.57205979106426
 10
322.91323448607073
 20
69.57205931859461
 10
322.91323448607073
 20
69.57205931859461
 10
323.6661756106745
 20
68.1602948361842
 10
313.66617608503685
 20
62.826961279007
 10
313.0135155616588
 20
64.05069965093008
 10
312.9132349604331
 20
64.2387257614174
 10
312.72499954893567
 20
64.59166712641971
 10
302.72500002329804
 20
59.2583335692425
 10
302.91323543479547
 20
58.905392204240194
 10
303.1935741117111
 20
58.37975723201885
 10
303.6661765593992
 20
57.493627721829796
 10
293.6661770337616
 20
52.16029416465259
 10
292.91323590915783
 20
53.57205864706299
 10
292.91323590915783
 20
53.57205864706299
 10
292.91323537195103
 20
53.57205965432571
 10
292.16029349564633
 20
52.16029376247613
 10
282.1602937186484
 20
57.49362745371215
  0
TEXT
  5
D2
330
17
100
AcDbEntity
  8
GRABADO
100
AcDbText
 10
292.9132348876635
 20
60.976470887817364
 30
0.0
 40
6.0
  1
M6
 72
1
 11
292.9132348876635
 21
60.976470887817364
 31
0.0
100
AcDbText
 73
2
  0
LWPOLYLINE
  5
D3
330
17
100
AcDbEntity
  8
CORTE
100
AcDbPolyline
 90
28
 70
1
 10
377.2382326710221
 20
52.52747015403612
 10
377.2382326710221
 20
52.52647015403612
 10
348.91323270082444
 20
52.52647015403612
 10
319.9944826283456
 20
52.52647015403612
 10
319.1176453715561
 20
52.058823575270836
 10
318.86823384058215
 20
52.52647015403612
 10
318.8682326707153
 20
52.52647015403612
 10
318.05882191424513
 20
54.04411748023737
 10
328.19117433691304
 20
59.44803925547515
 10
328.8201050298753
 20
58.268794311603585
 10
328.9794095816206
 20
57.97009830378678
 10
329.1323508730143
 20
57.683333408062445
 10
338.9999974600959
 20
62.94607872503206
 10
338.84705616870224
 20
63.2328436207564
 10
338.05882092399474
 20
64.71078457244477
 10
348.1911733881883
 20
70.11470636982956
 10
348.91323221083326
 20
68.76084619841485
 10
349.6352922671652
 20
70.114706751094
 10
359.767644943509
 20
64.71078484056241
 10
359.0360419419876
 20
63.33902933535413
 10
358.9794094843073
 20
63.23284348669736
 10
358.8264684074079
 20
62.9460789931497
 10
368.69411524584984
 20
57.68333354212126
 10
368.84705632274927
 20
57.97009803566891
 10
369.635291781951
 20
59.44803938953397
 10
379.7676444975049
 20
54.044117458090355
 10
378.95876586302325
 20
52.52747015403612
 10
377.2382326710221
 20
52.52747015403612
  0
LWPOLYLINE
  5
D4
330
17
100
AcDbEntity
  8
GRABADO
100
AcDbPolyline
 90
26
 70
1
 10
359.6661743541273
 20
64.67990249138822
 10
358.9698654727096
 20
63.37432345545792
 10
358.91323301502933
 20
63.268137606801155
 10
358.7249978180261
 20
62.91519664397552
 10
368.72499759502404
 20
57.58186295273949
 10
368.9132327920272
 20
57.93480391556512
 10
369.6661741311252
 20
59.3465688001522
 10
372.4081100457748
 20
57.884202848260074
 10
379.6661739081231
 20
54.01323510891618
 10
378.7249973720219
 20
52.24852926150347
 10
348.9132331851122
 20
68.14813824939101
 10
319.10146899820245
 20
52.24852926150347
 10
318.16029246210127
 20
54.01323510891618
 10
328.1602919877389
 20
59.34656866609338
 10
328.7539285605974
 20
58.23350019149979
 10
328.9132331123426
 20
57.934804183682985
 10
329.1014685238401
 20
57.581862818680676
 10
339.1014680494777
 20
62.915196375857875
 10
338.91323263798023
 20
63.26813774086019
 10
338.16029151337654
 20
64.67990222327059
 10
348.16029103901417
 20
70.01323578044779
 10
348.9132327008247
 20
68.60147029077467
 10
348.9132332380314
 20
68.60147129803718
 10
348.9132332380314
 20
68.60147129803718
 10
349.66617457712937
 20
70.01323618262424
 10
359.6661743541273
 20
64.67990249138822
  0
TEXT
  5
D5
330
17
100
AcDbEntity
  8
GRABADO
100
AcDbText
 10
348.9132331851122
 20
61.19705905728301
 30
0.0
 40
6.0
  1
M5
 72
1
 11
348.9132331851122
 21
61.19705905728301
 31
0.0
100
AcDbText
 73
2
  0
TEXT
  5
D6
330
17
100
AcDbEntity
  8
HOJA
100
AcDbText
 10
10.0
 20
891.0
 30
0.0
 40
6.0
  1
casa_prueba  hoja 1/1  1:100  lamina 2.0mm
 11
10.0
 21
891.0
 31
0.0
100
AcDbText
  0
ENDSEC
  0
SECTION
  2
OBJECTS
  0
DICTIONARY
  5
A
330
0
100
AcDbDictionary
281
1
  3
ACAD_COLOR
350
B
  3
ACAD_GROUP
350
C
  3
ACAD_LAYOUT
350
D
  3
ACAD_MATERIAL
350
E
  3
ACAD_MLEADERSTYLE
350
F
  3
ACAD_MLINESTYLE
350
10
  3
ACAD_PLOTSETTINGS
350
11
  3
ACAD_PLOTSTYLENAME
350
12
  3
ACAD_SCALELIST
350
14
  3
ACAD_TABLESTYLE
350
15
  3
ACAD_VISUALSTYLE
350
16
  3
EZDXF_META
350
2D
  0
DICTIONARY
  5
B
330
A
100
AcDbDictionary
281
1
  0
DICTIONARY
  5
C
330
A
100
AcDbDictionary
281
1
  0
DICTIONARY
  5
D
330
A
100
AcDbDictionary
281
1
  3
Model
350
1A
  3
Layout1
350
1E
  0
DICTIONARY
  5
E
330
A
100
AcDbDictionary
281
1
  3
ByBlock
350
1F
  3
ByLayer
350
20
  3
Global
350
21
  0
DICTIONARY
  5
F
330
A
100
AcDbDictionary
281
1
  3
Standard
350
2C
  0
DICTIONARY
  5
10
330
A
100
AcDbDictionary
281
1
  3
Standard
350
22
  0
DICTIONARY
  5
11
330
A
100
AcDbDictionary
281
1
  0
ACDBDICTIONARYWDFLT
  5
12
330
A
100
AcDbDictionary
281
1
  3
Normal
350
13
100
AcDbDictionaryWithDefault
340
13
  0
ACDBPLACEHOLDER
  5
13
330
12
  0
DICTIONARY
  5
14
330
A
100
AcDbDictionary
281
1
  0
DICTIONARY
  5
15
330
A
100
AcDbDictionary
281
1
  0
DICTIONARY
  5
16
330
A
100
AcDbDictionary
281
1
  3
2dWireframe
350
5A
  3
Basic
350
5B
  3
Brighten
350
5C
  3
ColorChange
350
5D
  3
Conceptual
350
5E
  3
Dim
350
5F
  3
EdgeColorOff
350
60
  3
Facepattern
350
61
  3
Flat
350
62
  3
FlatWithEdges
350
63
  3
Gouraud
350
64
  3
GouraudWithEdges
350
65
  3
Hidden
350
66
  3
JitterOff
350
67
  3
Linepattern
350
68
  3
Modeling
350
69
  3
OverhangOff
350
6A
  3
Realistic
350
6B
  3
Shaded
350
6C
  3
Shaded with edges
350
6D
  3
Shades of Gray
350
6E
  3
Sketchy
350
6F
  3
Thicken
350
70
  3
Wireframe
350
71
  3
X-Ray
350
72
  0
LAYOUT
  5
1A
330
D
100
AcDbPlotSettings
  1

  4
A3
  6

 40
7.5
 41
20.0
 42
7.5
 43
20.0
 44
420.0
 45
297.0
 46
0.0
 47
0.0
 48
0.0
 49
0.0
140
0.0
141
0.0
142
1.0
143
1.0
 70
1024
 72
1
 73
0
 74
5
  7

 75
16
 76
0
 77
2
 78
300
147
1.0
148
0.0
149
0.0
100
AcDbLayout
  1
Model
 70
1
 71
0
 10
0.0
 20
0.0
 11
420.0
 21
297.0
 12
0.0
 22
0.0
 32
0.0
 14
1e+20
 24
1e+20
 34
1e+20
 15
-1e+20
 25
-1e+20
 35
-1e+20
146
0.0
 13
0.0
 23
0.0
 33
0.0
 16
1.0
 26
0.0
 36
0.0
 17
0.0
 27
1.0
 37
0.0
 76
1
330
17
  0
LAYOUT
  5
1E
330
D
100
AcDbPlotSettings
  1

  4
A3
  6

 40
7.5
 41
20.0
 42
7.5
 43
20.0
 44
420.0
 45
297.0
 46
0.0
 47
0.0
 48
0.0
 49
0.0
140
0.0
141
0.0
142
1.0
143
1.0
 70
0
 72
1
 73
0
 74
5
  7

 75
16
 76
0
 77
2
 78
300
147
1.0
148
0.0
149
0.0
100
AcDbLayout
  1
Layout1
 70
1
 71
1
 10
0.0
 20
0.0
 11
420.0
 21
297.0
 12
0.0
 22
0.0
 32
0.0
 14
1e+20
 24
1e+20
 34
1e+20
 15
-1e+20
 25
-1e+20
 35
-1e+20
146
0.0
 13
0.0
 23
0.0
 33
0.0
 16
1.0
 26
0.0
 36
0.0
 17
0.0
 27
1.0
 37
0.0
 76
1
330
1B
  0
MATERIAL
  5
1F
102
{ACAD_REACTORS
330
E
102
}
330
E
100
AcDbMaterial
  1
ByBlock
  2

 70
0
 40
1.0
 71
1
 41
1.0
 91
-1023410177
 42
1.0
 72
1
  3

 73
1
 74
1
 75
1
 44
0.5
 73
0
 45
1.0
 46
1.0
 77
1
  4

 78
1
 79
1
170
1
 48
1.0
171
1
  6

172
1
173
1
174
1
140
1.0
141
1.0
175
1
  7

176
1
177
1
178
1
143
1.0
179
1
  8

270
1
271
1
272
1
145
1.0
146
1.0
273
1
  9

274
1
275
1
276
1
 42
1.0
 72
1
  3

 73
1
 74
1
 75
1
 94
63
  0
MATERIAL
  5
20
102
{ACAD_REACTORS
330
E
102
}
330
E
100
AcDbMaterial
  1
ByLayer
  2

 70
0
 40
1.0
 71
1
 41
1.0
 91
-1023410177
 42
1.0
 72
1
  3

 73
1
 74
1
 75
1
 44
0.5
 73
0
 45
1.0
 46
1.0
 77
1
  4

 78
1
 79
1
170
1
 48
1.0
171
1
  6

172
1
173
1
174
1
140
1.0
141
1.0
175
1
  7

176
1
177
1
178
1
143
1.0
179
1
  8

270
1
271
1
272
1
145
1.0
146
1.0
273
1
  9

274
1
275
1
276
1
 42
1.0
 72
1
  3

 73
1
 74
1
 75
1
 94
63
  0
MATERIAL
  5
21
102
{ACAD_REACTORS
330
E
102
}
330
E
100
AcDbMaterial
  1
Global
  2

 70
0
 40
1.0
 71
1
 41
1.0
 91
-1023410177
 42
1.0
 72
1
  3

 73
1
 74
1
 75
1
 44
0.5
 73
0
 45
1.0
 46
1.0
 77
1
  4

 78
1
 79
1
170
1
 48
1.0
171
1
  6

172
1
173
1
174
1
140
1.0
141
1.0
175
1
  7

176
1
177
1
178
1
143
1.0
179
1
  8

270
1
271
1
272
1
145
1.0
146
1.0
273
1
  9

274
1
275
1
276
1
 42
1.0
 72
1
  3

 73
1
 74
1
 75
1
 94
63
  0
MLINESTYLE
  5
22
102
{ACAD_REACTORS
330
10
102
}
330
10
100
AcDbMlineStyle
  2
Standard
 70
0
  3

 62
256
 51
90.0
 52
90.0
 71
2
 49
0.5
 62
256
  6
BYLAYER
 49
-0.5
 62
256
  6
BYLAYER
  0
MLEADERSTYLE
  5
2C
102
{ACAD_REACTORS
330
F
102
}
330
F
100
AcDbMLeaderStyle
179
2
170
2
171
1
172
0
 90
2
 40
0.0
 41
0.0
173
1
 91
-1056964608
 92
-2
290
1
 42
2.0
291
1
 43
8.0
  3
Standard
 44
4.0
300

342
29
174
1
175
1
176
0
178
1
 93
-1056964608
 45
4.0
292
0
297
0
 46
4.0
 94
-1056964608
 47
1.0
 49
1.0
140
1.0
294
1
141
0.0
177
0
142
1.0
295
0
296
0
143
3.75
271
0
272
9
273
9
  0
DICTIONARY
  5
2D
330
A
100
AcDbDictionary
280
1
281
1
  3
CREATED_BY_EZDXF
350
2E
  3
WRITTEN_BY_EZDXF
350
D9
  0
DICTIONARYVAR
  5
2E
330
2D
100
DictionaryVariables
280
0
  1
1.4.2 @ 2026-09-06T18:57:36.472585+00:00
  0
VISUALSTYLE
  5
5A
102
{ACAD_REACTORS
330
16
102
}
330
16
100
AcDbVisualStyle
  2
2dWireframe
 70
4
 90
0
 40
0.6
 62
7
290
0
291
0
  0
VISUALSTYLE
  5
5B
102
{ACAD_REACTORS
330
16
102
}
330
16
100
AcDbVisualStyle
  2
Basic
 70
7
 90
1
 40
0.6
 62
7
290
0
291
1
  0
VISUALSTYLE
  5
5C
102
{ACAD_REACTORS
330
16
102
}
330
16
100
AcDbVisualStyle
  2
Brighten
 70
12
 90
2
 40
0.6
 62
7
290
0
291
1
  0
VISUALSTYLE
  5
5D
102
{ACAD_REACTORS
330
16
102
}
330
16
100
AcDbVisualStyle
  2
ColorChange
 70
16
 90
2
 40
0.6
 62
8
290
0
291
1
  0
VISUALSTYLE
  5
5E
102
{ACAD_REACTORS
330
16
102
}
330
16
100
AcDbVisualStyle
  2
Conceptual
 70
9
 90
3
 40
0.6
 62
7
290
0
291
0
  0
VISUALSTYLE
  5
5F
102
{ACAD_REACTORS
330
16
102
}
330
16
100
AcDbVisualStyle
  2
Dim
 70
11
 90
2
 40
0.6
 62
7
290
0
291
1
  0
VISUALSTYLE
  5
60
102
{ACAD_REACTORS
330
16
102
}
330
16
100
AcDbVisualStyle
  2
EdgeColorOff
 70
22
 90
2
 40
0.6
 62
7
290
0
291
1
  0
VISUALSTYLE
  5
61
102
{ACAD_REACTORS
330
16
102
}
330
16
100
AcDbVisualStyle
  2
Facepattern
 70
15
 90
2
 40
0.6
 62
7
290
0
291
1
  0
VISUALSTYLE
  5
62
102
{ACAD_REACTORS
330
16
102
}
330
16
100
AcDbVisualStyle
  2
Flat
 70
0
 90
2
 40
0.6
 62
7
290
0
291
1
  0
VISUALSTYLE
  5
63
102
{ACAD_REACTORS
330
16
102
}
330
16
100
AcDbVisualStyle
  2
FlatWithEdges
 70
1
 90
2
 40
0.6
 62
7
290
0
291
1
  0
VISUALSTYLE
  5
64
102
{ACAD_REACTORS
330
16
102
}
330
16
100
AcDbVisualStyle
  2
Gouraud
 70
2
 90
2
 40
0.6
 62
7
290
0
291
1
  0
VISUALSTYLE
  5
65
102
{ACAD_REACTORS
330
16
102
}
330
16
100
AcDbVisualStyle
  2
GouraudWithEdges
 70
3
 90
2
 40
0.6
 62
7
290
0
291
1
  0
VISUALSTYLE
  5
66
102
{ACAD_REACTORS
330
16
102
}
330
16
100
AcDbVisualStyle
  2
Hidden
 70
6
 90
1
 40
0.6
 62
7
290
0
291
0
  0
VISUALSTYLE
  5
67
102
{ACAD_REACTORS
330
16
102
}
330
16
100
AcDbVisualStyle
  2
JitterOff
 70
20
 90
2
 40
0.6
 62
7
290
0
291
1
  0
VISUALSTYLE
  5
68
102
{ACAD_REACTORS
330
16
102
}
330
16
100
AcDbVisualStyle
  2
Linepattern
 70
14
 90
2
 40
0.6
 62
7
290
0
291
1
  0
VISUALSTYLE
  5
69
102
{ACAD_REACTORS
330
16
102
}
330
16
100
AcDbVisualStyle
  2
Modeling
 70
10
 90
2
 40
0.6
 62
7
290
0
291
0
  0
VISUALSTYLE
  5
6A
102
{ACAD_REACTORS
330
16
102
}
330
16
100
AcDbVisualStyle
  2
OverhangOff
 70
21
 90
2
 40
0.6
 62
7
290
0
291
1
  0
VISUALSTYLE
  5
6B
102
{ACAD_REACTORS
330
16
102
}
330
16
100
AcDbVisualStyle
  2
Realistic
 70
8
 90
2
 40
0.6
 62
7
290
0
291
0
  0
VISUALSTYLE
  5
6C
102
{ACAD_REACTORS
330
16
102
}
330
16
100
AcDbVisualStyle
  2
Shaded
 70
27
 90
2
 40
0.6
 62
7
290
0
291
0
  0
VISUALSTYLE
  5
6D
102
{ACAD_REACTORS
330
16
102
}
330
16
100
AcDbVisualStyle
  2
Shaded with edges
 70
26
 90
2
 40
0.6
 62
7
290
0
291
0
  0
VISUALSTYLE
  5
6E
102
{ACAD_REACTORS
330
16
102
}
330
16
100
AcDbVisualStyle
  2
Shades of Gray
 70
23
 90
2
 40
0.6
 62
7
290
0
291
0
  0
VISUALSTYLE
  5
6F
102
{ACAD_REACTORS
330
16
102
}
330
16
100
AcDbVisualStyle
  2
Sketchy
 70
24
 90
1
 40
0.6
 62
7
290
0
291
0
  0
VISUALSTYLE
  5
70
102
{ACAD_REACTORS
330
16
102
}
330
16
100
AcDbVisualStyle
  2
Thicken
 70
13
 90
2
 40
0.6
 62
7
290
0
291
1
  0
VISUALSTYLE
  5
71
102
{ACAD_REACTORS
330
16
102
}
330
16
100
AcDbVisualStyle
  2
Wireframe
 70
5
 90
0
 40
0.6
 62
7
290
0
291
0
  0
VISUALSTYLE
  5
72
102
{ACAD_REACTORS
330
16
102
}
330
16
100
AcDbVisualStyle
  2
X-Ray
 70
25
 90
2
 40
0.5
 62
7
290
0
291
0
  0
DICTIONARYVAR
  5
D9
330
2D
100
DictionaryVariables
280
0
  1
1.4.2 @ 2026-09-06T18:57:36.482048+00:00
  0
ENDSEC
  0
EOF
