  0
SECTION
  2
HEADER
  9
$ACADVER
  1
AC1024
  9
$ACADMAINTVER
 70
6
  9
$DWGCODEPAGE
  3
ANSI_1252
  9
$LASTSAVEDBY
  1
ezdxf
  9
$INSBASE
 10
0.0
 20
0.0
 30
0.0
  9
$EXTMIN
 10
1e+20
 20
1e+20
 30
1e+20
  9
$EXTMAX
 10
-1e+20
 20
-1e+20
 30
-1e+20
  9
$LIMMIN
 10
0.0
 20
0.0
  9
$LIMMAX
 10
420.0
 20
297.0
  9
$ORTHOMODE
 70
0
  9
$REGENMODE
 70
1
  9
$FILLMODE
 70
1
  9
$QTEXTMODE
 70
0
  9
$MIRRTEXT
 70
1
  9
$LTSCALE
 40
1.0
  9
$ATTMODE
 70
1
  9
$TEXTSIZE
 40
2.5
  9
$TRACEWID
 40
1.0
  9
$TEXTSTYLE
  7
OpenSans
  9
$CLAYER
  8
0
  9
$CELTYPE
  6
ByLayer
  9
$CECOLOR
 62
256
  9
$CELTSCALE
 40
1.0
  9
$DISPSILH
 70
0
  9
$DIMSCALE
 40
1.0
  9
$DIMASZ
 40
0.175
  9
$DIMEXO
 40
0.125
  9
$DIMDLI
 40
3.75
  9
$DIMRND
 40
0.0
  9
$DIMDLE
 40
0.0
  9
$DIMEXE
 40
0.375
  9
$DIMTP
 40
0.0
  9
$DIMTM
 40
0.0
  9
$DIMTXT
 40
0.25
  9
$DIMCEN
 40
2.5
  9
$DIMTSZ
 40
0.0
  9
$DIMTOL
 70
0
  9
$DIMLIM
 70
0
  9
$DIMTIH
 70
0
  9
$DIMTOH
 70
0
  9
$DIMSE1
 70
0
  9
$DIMSE2
 70
0
  9
$DIMTAD
 70
1
  9
$DIMZIN
 70
12
  9
$DIMBLK
  1
ARCHTICK
  9
$DIMASO
 70
1
  9
$DIMSHO
 70
1
  9
$DIMPOST
  1

  9
$DIMAPOST
  1

  9
$DIMALT
 70
0
  9
$DIMALTD
 70
3
  9
$DIMALTF
 40
0.03937007874
  9
$DIMLFAC
 40
100.0
  9
$DIMTOFL
 70
1
  9
$DIMTVP
 40
0.0
  9
$DIMTIX
 70
0
  9
$DIMSOXD
 70
0
  9
$DIMSAH
 70
0
  9
$DIMBLK1
  1

  9
$DIMBLK2
  1

  9
$DIMSTYLE
  2
EZDXF
  9
$DIMCLRD
 70
0
  9
$DIMCLRE
 70
0
  9
$DIMCLRT
 70
0
  9
$DIMTFAC
 40
0.5
  9
$DIMGAP
 40
0.1
  9
$DIMJUST
 70
0
  9
$DIMSD1
 70
0
  9
$DIMSD2
 70
0
  9
$DIMTOLJ
 70
0
  9
$DIMTZIN
 70
8
  9
$DIMALTZ
 70
0
  9
$DIMALTTZ
 70
0
  9
$DIMUPT
 70
1
  9
$DIMDEC
 70
2
  9
$DIMTDEC
 70
2
  9
$DIMALTU
 70
2
  9
$DIMALTTD
 70
3
  9
$DIMTXSTY
  7
OpenSansCondensed-Light
  9
$DIMAUNIT
 70
0
  9
$DIMADEC
 70
2
  9
$DIMALTRND
 40
0.0
  9
$DIMAZIN
 70
3
  9
$DIMDSEP
 70
46
  9
$DIMATFIT
 70
3
  9
$DIMFRAC
 70
0
  9
$DIMLDRBLK
  1

  9
$DIMLUNIT
 70
2
  9
$DIMLWD
 70
-2
  9
$DIMLWE
 70
-2
  9
$DIMTMOVE
 70
2
  9
$DIMFXL
 40
1.0
  9
$DIMFXLON
 70
0
  9
$DIMJOGANG
 40
0.785398163397
  9
$DIMTFILL
 70
0
  9
$DIMTFILLCLR
 70
0
  9
$DIMARCSYM
 70
0
  9
$DIMLTYPE
  6

  9
$DIMLTEX1
  6

  9
$DIMLTEX2
  6

  9
$DIMTXTDIRECTION
 70
0
  9
$LUNITS
 70
2
  9
$LUPREC
 70
4
  9
$SKETCHINC
 40
1.0
  9
$FILLETRAD
 40
10.0
  9
$AUNITS
 70
0
  9
$AUPREC
 70
2
  9
$MENU
  1
.
  9
$ELEVATION
 40
0.0
  9
$PELEVATION
 40
0.0
  9
$THICKNESS
 40
0.0
  9
$LIMCHECK
 70
0
  9
$CHAMFERA
 40
0.0
  9
$CHAMFERB
 40
0.0
  9
$CHAMFERC
 40
0.0
  9
$CHAMFERD
 40
0.0
  9
$SKPOLY
 70
0
  9
$TDCREATE
 40
2461290.4452314815
  9
$TDUCREATE
 40
2458532.153996898
  9
$TDUPDATE
 40
2461290.4452314815
  9
$TDUUPDATE
 40
2458532.1544311
  9
$TDINDWG
 40
0.0
  9
$TDUSRTIMER
 40
0.0
  9
$USRTIMER
 70
1
  9
$ANGBASE
 50
0.0
  9
$ANGDIR
 70
0
  9
$PDMODE
 70
0
  9
$PDSIZE
 40
0.0
  9
$PLINEWID
 40
0.0
  9
$SPLFRAME
 70
0
  9
$SPLINETYPE
 70
6
  9
$SPLINESEGS
 70
8
  9
$HANDSEED
  5
96
  9
$SURFTAB1
 70
6
  9
$SURFTAB2
 70
6
  9
$SURFTYPE
 70
6
  9
$SURFU
 70
6
  9
$SURFV
 70
6
  9
$UCSBASE
  2

  9
$UCSNAME
  2

  9
$UCSORG
 10
0.0
 20
0.0
 30
0.0
  9
$UCSXDIR
 10
1.0
 20
0.0
 30
0.0
  9
$UCSYDIR
 10
0.0
 20
1.0
 30
0.0
  9
$UCSORTHOREF
  2

  9
$UCSORTHOVIEW
 70
0
  9
$UCSORGTOP
 10
0.0
 20
0.0
 30
0.0
  9
$UCSORGBOTTOM
 10
0.0
 20
0.0
 30
0.0
  9
$UCSORGLEFT
 10
0.0
 20
0.0
 30
0.0
  9
$UCSORGRIGHT
 10
0.0
 20
0.0
 30
0.0
  9
$UCSORGFRONT
 10
0.0
 20
0.0
 30
0.0
  9
$UCSORGBACK
 10
0.0
 20
0.0
 30
0.0
  9
$PUCSBASE
  2

  9
$PUCSNAME
  2

  9
$PUCSORG
 10
0.0
 20
0.0
 30
0.0
  9
$PUCSXDIR
 10
1.0
 20
0.0
 30
0.0
  9
$PUCSYDIR
 10
0.0
 20
1.0
 30
0.0
  9
$PUCSORTHOREF
  2

  9
$PUCSORTHOVIEW
 70
0
  9
$PUCSORGTOP
 10
0.0
 20
0.0
 30
0.0
  9
$PUCSORGBOTTOM
 10
0.0
 20
0.0
 30
0.0
  9
$PUCSORGLEFT
 10
0.0
 20
0.0
 30
0.0
  9
$PUCSORGRIGHT
 10
0.0
 20
0.0
 30
0.0
  9
$PUCSORGFRONT
 10
0.0
 20
0.0
 30
0.0
  9
$PUCSORGBACK
 10
0.0
 20
0.0
 30
0.0
  9
$USERI1
 70
0
  9
$USERI2
 70
0
  9
$USERI3
 70
0
  9
$USERI4
 70
0
  9
$USERI5
 70
0
  9
$USERR1
 40
0.0
  9
$USERR2
 40
0.0
  9
$USERR3
 40
0.0
  9
$USERR4
 40
0.0
  9
$USERR5
 40
0.0
  9
$WORLDVIEW
 70
1
  9
$SHADEDGE
 70
3
  9
$SHADEDIF
 70
70
  9
$TILEMODE
 70
1
  9
$MAXACTVP
 70
64
  9
$PINSBASE
 10
0.0
 20
0.0
 30
0.0
  9
$PLIMCHECK
 70
0
  9
$PEXTMIN
 10
1e+20
 20
1e+20
 30
1e+20
  9
$PEXTMAX
 10
-1e+20
 20
-1e+20
 30
-1e+20
  9
$PLIMMIN
 10
0.0
 20
0.0
  9
$PLIMMAX
 10
420.0
 20
297.0
  9
$UNITMODE
 70
0
  9
$VISRETAIN
 70
1
  9
$PLINEGEN
 70
0
  9
$PSLTSCALE
 70
1
  9
$TREEDEPTH
 70
3020
  9
$CMLSTYLE
  2
Standard
  9
$CMLJUST
 70
0
  9
$CMLSCALE
 40
20.0
  9
$PROXYGRAPHICS
 70
1
  9
$MEASUREMENT
 70
1
  9
$CELWEIGHT
370
-1
  9
$ENDCAPS
280
0
  9
$JOINSTYLE
280
0
  9
$LWDISPLAY
290
0
  9
$INSUNITS
 70
4
  9
$HYPERLINKBASE
  1

  9
$STYLESHEET
  1

  9
$XEDIT
290
1
  9
$CEPSNTYPE
380
0
  9
$PSTYLEMODE
290
1
  9
$FINGERPRINTGUID
  2
{681BE19B-E053-489C-B054-2BBA17D46830}
  9
$VERSIONGUID
  2
{1A362E9D-FBCC-4613-AB7B-17D56596CFC6}
  9
$EXTNAMES
290
1
  9
$PSVPSCALE
 40
0.0
  9
$OLESTARTUP
290
0
  9
$SORTENTS
280
127
  9
$INDEXCTL
280
0
  9
$HIDETEXT
280
1
  9
$XCLIPFRAME
280
1
  9
$HALOGAP
280
0
  9
$OBSCOLOR
 70
257
  9
$OBSLTYPE
280
0
  9
$INTERSECTIONDISPLAY
280
0
  9
$INTERSECTIONCOLOR
 70
257
  9
$DIMASSOC
280
2
  9
$PROJECTNAME
  1

  9
$CAMERADISPLAY
290
0
  9
$LENSLENGTH
 40
50.0
  9
$CAMERAHEIGHT
 40
0.0
  9
$STEPSPERSEC
 40
24.0
  9
$STEPSIZE
 40
100.0
  9
$3DDWFPREC
 40
2.0
  9
$PSOLWIDTH
 40
0.005
  9
$PSOLHEIGHT
 40
0.08
  9
$LOFTANG1
 40
1.570796326795
  9
$LOFTANG2
 40
1.570796326795
  9
$LOFTMAG1
 40
0.0
  9
$LOFTMAG2
 40
0.0
  9
$LOFTPARAM
 70
7
  9
$LOFTNORMALS
280
1
  9
$LATITUDE
 40
37.795
  9
$LONGITUDE
 40
-122.394
  9
$NORTHDIRECTION
 40
0.0
  9
$TIMEZONE
 70
-8000
  9
$LIGHTGLYPHDISPLAY
280
1
  9
$TILEMODELIGHTSYNCH
280
1
  9
$CMATERIAL
347
20
  9
$SOLIDHIST
280
0
  9
$SHOWHIST
280
1
  9
$DWFFRAME
280
2
  9
$DGNFRAME
280
2
  9
$REALWORLDSCALE
290
1
  9
$INTERFERECOLOR
 62
256
  9
$CSHADOW
280
0
  9
$SHADOWPLANELOCATION
 40
0.0
  0
ENDSEC
  0
SECTION
  2
CLASSES
  0
CLASS
  1
ACDBDICTIONARYWDFLT
  2
AcDbDictionaryWithDefault
  3
ObjectDBX Classes
 90
0
 91
0
280
0
281
0
  0
CLASS
  1
SUN
  2
AcDbSun
  3
SCENEOE
 90
1153
 91
0
280
0
281
0
  0
CLASS
  1
VISUALSTYLE
  2
AcDbVisualStyle
  3
ObjectDBX Classes
 90
4095
 91
0
280
0
281
0
  0
CLASS
  1
MATERIAL
  2
AcDbMaterial
  3
ObjectDBX Classes
 90
1153
 91
0
280
0
281
0
  0
CLASS
  1
SCALE
  2
AcDbScale
  3
ObjectDBX Classes
 90
1153
 91
0
280
0
281
0
  0
CLASS
  1
TABLESTYLE
  2
AcDbTableStyle
  3
ObjectDBX Classes
 90
4095
 91
0
280
0
281
0
  0
CLASS
  1
MLEADERSTYLE
  2
AcDbMLeaderStyle
  3
ACDB_MLEADERSTYLE_CLASS
 90
4095
 91
0
280
0
281
0
  0
CLASS
  1
DICTIONARYVAR
  2
AcDbDictionaryVar
  3
ObjectDBX Classes
 90
0
 91
0
280
0
281
0
  0
CLASS
  1
CELLSTYLEMAP
  2
AcDbCellStyleMap
  3
ObjectDBX Classes
 90
1152
 91
0
280
0
281
0
  0
CLASS
  1
MENTALRAYRENDERSETTINGS
  2
AcDbMentalRayRenderSettings
  3
SCENEOE
 90
1024
 91
0
280
0
281
0
  0
CLASS
  1
ACDBDETAILVIEWSTYLE
  2
AcDbDetailViewStyle
  3
ObjectDBX Classes
 90
1025
 91
0
280
0
281
0
  0
CLASS
  1
ACDBSECTIONVIEWSTYLE
  2
AcDbSectionViewStyle
  3
ObjectDBX Classes
 90
1025
 91
0
280
0
281
0
  0
CLASS
  1
RASTERVARIABLES
  2
AcDbRasterVariables
  3
ISM
 90
0
 91
0
280
0
281
0
  0
CLASS
  1
LAYOUT
  2
AcDbLayout
  3
ObjectDBX Classes
 90
0
 91
0
280
0
281
0
  0
CLASS
  1
ACDBPLACEHOLDER
  2
AcDbPlaceHolder
  3
ObjectDBX Classes
 90
0
 91
0
280
0
281
0
  0
ENDSEC
  0
SECTION
  2
TABLES
  0
TABLE
  2
VPORT
  5
8
330
0
100
AcDbSymbolTable
 70
1
  0
VPORT
  5
23
330
8
100
AcDbSymbolTableRecord
100
AcDbViewportTableRecord
  2
*Active
 70
0
 10
0.0
 20
0.0
 11
1.0
 21
1.0
 12
0.0
 22
0.0
 13
0.0
 23
0.0
 14
0.5
 24
0.5
 15
0.5
 25
0.5
 16
0.0
 26
0.0
 36
1.0
 17
0.0
 27
0.0
 37
0.0
 40
1000.0
 41
1.34
 42
50.0
 43
0.0
 44
0.0
 50
0.0
 51
0.0
 71
0
 72
1000
 73
1
 74
3
 75
0
 76
0
 77
0
 78
0
281
0
 65
0
146
0.0
  0
ENDTAB
  0
TABLE
  2
LTYPE
  5
2
330
0
100
AcDbSymbolTable
 70
21
  0
LTYPE
  5
24
330
2
100
AcDbSymbolTableRecord
100
AcDbLinetypeTableRecord
  2
ByBlock
 70
0
  3

 72
65
 73
0
 40
0.0
  0
LTYPE
  5
25
330
2
100
AcDbSymbolTableRecord
100
AcDbLinetypeTableRecord
  2
ByLayer
 70
0
  3

 72
65
 73
0
 40
0.0
  0
LTYPE
  5
26
330
2
100
AcDbSymbolTableRecord
100
AcDbLinetypeTableRecord
  2
Continuous
 70
0
  3

 72
65
 73
0
 40
0.0
  0
LTYPE
  5
2F
330
2
100
AcDbSymbolTableRecord
100
AcDbLinetypeTableRecord
  2
CENTER
 70
0
  3
Center ____ _ ____ _ ____ _ ____ _ ____ _ ____
 72
65
 73
4
 40
5.08
 49
3.175
 74
0
 49
-0.635
 74
0
 49
0.635
 74
0
 49
-0.635
 74
0
  0
LTYPE
  5
30
330
2
100
AcDbSymbolTableRecord
100
AcDbLinetypeTableRecord
  2
CENTERX2
 70
0
  3
Center (2x) ________  __  ________  __  ________
 72
65
 73
4
 40
8.89
 49
6.35
 74
0
 49
-0.635
 74
0
 49
1.27
 74
0
 49
-0.635
 74
0
  0
LTYPE
  5
31
330
2
100
AcDbSymbolTableRecord
100
AcDbLinetypeTableRecord
  2
CENTER2
 70
0
  3
Center (.5x) ____ _ ____ _ ____ _ ____ _ ____
 72
65
 73
4
 40
2.54
 49
1.587
 74
0
 49
-0.318
 74
0
 49
0.318
 74
0
 49
-0.318
 74
0
  0
LTYPE
  5
32
330
2
100
AcDbSymbolTableRecord
100
AcDbLinetypeTableRecord
  2
DASHED
 70
0
  3
Dashed __ __ __ __ __ __ __ __ __ __ __ __ __ _
 72
65
 73
2
 40
1.524
 49
1.27
 74
0
 49
-0.254
 74
0
  0
LTYPE
  5
33
330
2
100
AcDbSymbolTableRecord
100
AcDbLinetypeTableRecord
  2
DASHEDX2
 70
0
  3
Dashed (2x) ____  ____  ____  ____  ____  ____
 72
65
 73
2
 40
3.048
 49
2.54
 74
0
 49
-0.508
 74
0
  0
LTYPE
  5
34
330
2
100
AcDbSymbolTableRecord
100
AcDbLinetypeTableRecord
  2
DASHED2
 70
0
  3
Dashed (.5x) _ _ _ _ _ _ _ _ _ _ _ _ _ _
 72
65
 73
2
 40
0.762
 49
0.635
 74
0
 49
-0.127
 74
0
  0
LTYPE
  5
35
330
2
100
AcDbSymbolTableRecord
100
AcDbLinetypeTableRecord
  2
PHANTOM
 70
0
  3
Phantom ______  __  __  ______  __  __  ______
 72
65
 73
6
 40
6.35
 49
3.175
 74
0
 49
-0.635
 74
0
 49
0.635
 74
0
 49
-0.635
 74
0
 49
0.635
 74
0
 49
-0.635
 74
0
  0
LTYPE
  5
36
330
2
100
AcDbSymbolTableRecord
100
AcDbLinetypeTableRecord
  2
PHANTOMX2
 70
0
  3
Phantom (2x)____________    ____    ____    ____________
 72
65
 73
6
 40
10.795
 49
6.35
 74
0
 49
-0.635
 74
0
 49
1.27
 74
0
 49
-0.635
 74
0
 49
1.27
 74
0
 49
-0.635
 74
0
  0
LTYPE
  5
37
330
2
100
AcDbSymbolTableRecord
100
AcDbLinetypeTableRecord
  2
PHANTOM2
 70
0
  3
Phantom (.5x) ___ _ _ ___ _ _ ___ _ _ ___ _ _ ___
 72
65
 73
6
 40
3.175
 49
1.587
 74
0
 49
-0.318
 74
0
 49
0.318
 74
0
 49
-0.318
 74
0
 49
0.318
 74
0
 49
-0.318
 74
0
  0
LTYPE
  5
38
330
2
100
AcDbSymbolTableRecord
100
AcDbLinetypeTableRecord
  2
DASHDOT
 70
0
  3
Dash dot __ . __ . __ . __ . __ . __ . __ . __
 72
65
 73
4
 40
3.556
 49
2.54
 74
0
 49
-0.508
 74
0
 49
0.0
 74
0
 49
-0.508
 74
0
  0
LTYPE
  5
39
330
2
100
AcDbSymbolTableRecord
100
AcDbLinetypeTableRecord
  2
DASHDOTX2
 70
0
  3
Dash dot (2x) ____  .  ____  .  ____  .  ____
 72
65
 73
4
 40
6.096
 49
5.08
 74
0
 49
-0.508
 74
0
 49
0.0
 74
0
 49
-0.508
 74
0
  0
LTYPE
  5
3A
330
2
100
AcDbSymbolTableRecord
100
AcDbLinetypeTableRecord
  2
DASHDOT2
 70
0
  3
Dash dot (.5x) _ . _ . _ . _ . _ . _ . _ . _
 72
65
 73
4
 40
1.778
 49
1.27
 74
0
 49
-0.254
 74
0
 49
0.0
 74
0
 49
-0.254
 74
0
  0
LTYPE
  5
3B
330
2
100
AcDbSymbolTableRecord
100
AcDbLinetypeTableRecord
  2
DOT
 70
0
  3
Dot .  .  .  .  .  .  .  .  .  .  .  .  .  .  .  .
 72
65
 73
2
 40
0.508
 49
0.0
 74
0
 49
-0.508
 74
0
  0
LTYPE
  5
3C
330
2
100
AcDbSymbolTableRecord
100
AcDbLinetypeTableRecord
  2
DOTX2
 70
0
  3
Dot (2x) .    .    .    .    .    .    .    . 
 72
65
 73
2
 40
1.016
 49
0.0
 74
0
 49
-1.016
 74
0
  0
LTYPE
  5
3D
330
2
100
AcDbSymbolTableRecord
100
AcDbLinetypeTableRecord
  2
DOT2
 70
0
  3
Dot (.5) . . . . . . . . . . . . . . . . . . . 
 72
65
 73
2
 40
0.254
 49
0.0
 74
0
 49
-0.254
 74
0
  0
LTYPE
  5
3E
330
2
100
AcDbSymbolTableRecord
100
AcDbLinetypeTableRecord
  2
DIVIDE
 70
0
  3
Divide __ . . __ . . __ . . __ . . __ . . __
 72
65
 73
6
 40
4.064
 49
2.54
 74
0
 49
-0.508
 74
0
 49
0.0
 74
0
 49
-0.508
 74
0
 49
0.0
 74
0
 49
-0.508
 74
0
  0
LTYPE
  5
3F
330
2
100
AcDbSymbolTableRecord
100
AcDbLinetypeTableRecord
  2
DIVIDEX2
 70
0
  3
Divide (2x) ____  . .  ____  . .  ____  . .  ____
 72
65
 73
6
 40
6.604
 49
5.08
 74
0
 49
-0.508
 74
0
 49
0.0
 74
0
 49
-0.508
 74
0
 49
0.0
 74
0
 49
-0.508
 74
0
  0
LTYPE
  5
40
330
2
100
AcDbSymbolTableRecord
100
AcDbLinetypeTableRecord
  2
DIVIDE2
 70
0
  3
Divide(.5x) _ . _ . _ . _ . _ . _ . _ . _
 72
65
 73
6
 40
2.032
 49
1.27
 74
0
 49
-0.254
 74
0
 49
0.0
 74
0
 49
-0.254
 74
0
 49
0.0
 74
0
 49
-0.254
 74
0
  0
ENDTAB
  0
TABLE
  2
LAYER
  5
1
330
0
100
AcDbSymbolTable
 70
5
  0
LAYER
  5
27
330
1
100
AcDbSymbolTableRecord
100
AcDbLayerTableRecord
  2
0
 70
0
 62
7
  6
Continuous
370
-3
390
13
347
21
  0
LAYER
  5
28
330
1
100
AcDbSymbolTableRecord
100
AcDbLayerTableRecord
  2
Defpoints
 70
0
 62
7
  6
Continuous
290
0
370
-3
390
13
347
21
  0
LAYER
  5
8A
330
1
100
AcDbSymbolTableRecord
100
AcDbLayerTableRecord
  2
CORTE
 70
0
 62
1
  6
Continuous
370
-3
390
13
347
21
  0
LAYER
  5
8B
330
1
100
AcDbSymbolTableRecord
100
AcDbLayerTableRecord
  2
GRABADO
 70
0
 62
5
  6
Continuous
370
-3
390
13
347
21
  0
LAYER
  5
8C
330
1
100
AcDbSymbolTableRecord
100
AcDbLayerTableRecord
  2
HOJA
 70
0
 62
8
  6
Continuous
370
-3
390
13
347
21
  0
ENDTAB
  0
TABLE
  2
STYLE
  5
5
330
0
100
AcDbSymbolTable
 70
26
  0
STYLE
  5
29
330
5
100
AcDbSymbolTableRecord
100
AcDbTextStyleTableRecord
  2
Standard
 70
0
 40
0.0
 41
1.0
 50
0.0
 71
0
 42
2.5
  3
txt
  4

  0
STYLE
  5
41
330
5
100
AcDbSymbolTableRecord
100
AcDbTextStyleTableRecord
  2
OpenSans-Light
 70
0
 40
0.0
 41
1.0
 50
0.0
 71
0
 42
2.5
  3
OpenSans-Light.ttf
  4

  0
STYLE
  5
42
330
5
100
AcDbSymbolTableRecord
100
AcDbTextStyleTableRecord
  2
OpenSans-Light-Italic
 70
0
 40
0.0
 41
1.0
 50
0.0
 71
0
 42
2.5
  3
OpenSans-LightItalic.ttf
  4

  0
STYLE
  5
43
330
5
100
AcDbSymbolTableRecord
100
AcDbTextStyleTableRecord
  2
OpenSans
 70
0
 40
0.0
 41
1.0
 50
0.0
 71
0
 42
2.5
  3
OpenSans-Regular.ttf
  4

  0
STYLE
  5
44
330
5
100
AcDbSymbolTableRecord
100
AcDbTextStyleTableRecord
  2
OpenSans-Italic
 70
0
 40
0.0
 41
1.0
 50
0.0
 71
0
 42
2.5
  3
OpenSans-Italic.ttf
  4

  0
STYLE
  5
45
330
5
100
AcDbSymbolTableRecord
100
AcDbTextStyleTableRecord
  2
OpenSans-SemiBold
 70
0
 40
0.0
 41
1.0
 50
0.0
 71
0
 42
2.5
  3
OpenSans-SemiBold.ttf
  4

  0
STYLE
  5
46
330
5
100
AcDbSymbolTableRecord
100
AcDbTextStyleTableRecord
  2
OpenSans-SemiBoldItalic
 70
0
 40
0.0
 41
1.0
 50
0.0
 71
0
 42
2.5
  3
OpenSans-SemiBoldItalic.ttf
  4

  0
STYLE
  5
47
330
5
100
AcDbSymbolTableRecord
100
AcDbTextStyleTableRecord
  2
OpenSans-Bold
 70
0
 40
0.0
 41
1.0
 50
0.0
 71
0
 42
2.5
  3
OpenSans-Bold.ttf
  4

  0
STYLE
  5
48
330
5
100
AcDbSymbolTableRecord
100
AcDbTextStyleTableRecord
  2
OpenSans-BoldItalic
 70
0
 40
0.0
 41
1.0
 50
0.0
 71
0
 42
2.5
  3
OpenSans-BoldItalic.ttf
  4

  0
STYLE
  5
49
330
5
100
AcDbSymbolTableRecord
100
AcDbTextStyleTableRecord
  2
OpenSans-ExtraBold
 70
0
 40
0.0
 41
1.0
 50
0.0
 71
0
 42
2.5
  3
OpenSans-ExtraBold.ttf
  4

  0
STYLE
  5
4A
330
5
100
AcDbSymbolTableRecord
100
AcDbTextStyleTableRecord
  2
OpenSans-ExtraBoldItalic
 70
0
 40
0.0
 41
1.0
 50
0.0
 71
0
 42
2.5
  3
OpenSans-ExtraBoldItalic.ttf
  4

  0
STYLE
  5
4B
330
5
100
AcDbSymbolTableRecord
100
AcDbTextStyleTableRecord
  2
OpenSansCondensed-Bold
 70
0
 40
0.0
 41
1.0
 50
0.0
 71
0
 42
2.5
  3
OpenSansCondensed-Bold.ttf
  4

  0
STYLE
  5
4C
330
5
100
AcDbSymbolTableRecord
100
AcDbTextStyleTableRecord
  2
OpenSansCondensed-Light
 70
0
 40
0.0
 41
1.0
 50
0.0
 71
0
 42
2.5
  3
OpenSansCondensed-Light.ttf
  4

  0
STYLE
  5
4D
330
5
100
AcDbSymbolTableRecord
100
AcDbTextStyleTableRecord
  2
OpenSansCondensed-Italic
 70
0
 40
0.0
 41
1.0
 50
0.0
 71
0
 42
2.5
  3
OpenSansCondensed-LightItalic.ttf
  4

  0
STYLE
  5
4E
330
5
100
AcDbSymbolTableRecord
100
AcDbTextStyleTableRecord
  2
LiberationSans
 70
0
 40
0.0
 41
1.0
 50
0.0
 71
0
 42
2.5
  3
LiberationSans-Regular.ttf
  4

  0
STYLE
  5
4F
330
5
100
AcDbSymbolTableRecord
100
AcDbTextStyleTableRecord
  2
LiberationSans-Bold
 70
0
 40
0.0
 41
1.0
 50
0.0
 71
0
 42
2.5
  3
LiberationSans-Bold.ttf
  4

  0
STYLE
  5
50
330
5
100
AcDbSymbolTableRecord
100
AcDbTextStyleTableRecord
  2
LiberationSans-BoldItalic
 70
0
 40
0.0
 41
1.0
 50
0.0
 71
0
 42
2.5
  3
LiberationSans-BoldItalic.ttf
  4

  0
STYLE
  5
51
330
5
100
AcDbSymbolTableRecord
100
AcDbTextStyleTableRecord
  2
LiberationSans-Italic
 70
0
 40
0.0
 41
1.0
 50
0.0
 71
0
 42
2.5
  3
LiberationSans-Italic.ttf
  4

  0
STYLE
  5
52
330
5
100
AcDbSymbolTableRecord
100
AcDbTextStyleTableRecord
  2
LiberationSerif
 70
0
 40
0.0
 41
1.0
 50
0.0
 71
0
 42
2.5
  3
LiberationSerif-Regular.ttf
  4

  0
STYLE
  5
53
330
5
100
AcDbSymbolTableRecord
100
AcDbTextStyleTableRecord
  2
LiberationSerif-Bold
 70
0
 40
0.0
 41
1.0
 50
0.0
 71
0
 42
2.5
  3
LiberationSerif-Bold.ttf
  4

  0
STYLE
  5
54
330
5
100
AcDbSymbolTableRecord
100
AcDbTextStyleTableRecord
  2
LiberationSerif-BoldItalic
 70
0
 40
0.0
 41
1.0
 50
0.0
 71
0
 42
2.5
  3
LiberationSerif-BoldItalic.ttf
  4

  0
STYLE
  5
55
330
5
100
AcDbSymbolTableRecord
100
AcDbTextStyleTableRecord
  2
LiberationSerif-Italic
 70
0
 40
0.0
 41
1.0
 50
0.0
 71
0
 42
2.5
  3
LiberationSerif-Italic.ttf
  4

  0
STYLE
  5
56
330
5
100
AcDbSymbolTableRecord
100
AcDbTextStyleTableRecord
  2
LiberationMono
 70
0
 40
0.0
 41
1.0
 50
0.0
 71
0
 42
2.5
  3
LiberationMono-Regular.ttf
  4

  0
STYLE
  5
57
330
5
100
AcDbSymbolTableRecord
100
AcDbTextStyleTableRecord
  2
LiberationMono-Bold
 70
0
 40
0.0
 41
1.0
 50
0.0
 71
0
 42
2.5
  3
LiberationMono-Bold.ttf
  4

  0
STYLE
  5
58
330
5
100
AcDbSymbolTableRecord
100
AcDbTextStyleTableRecord
  2
LiberationMono-BoldItalic
 70
0
 40
0.0
 41
1.0
 50
0.0
 71
0
 42
2.5
  3
LiberationMono-BoldItalic.ttf
  4

  0
STYLE
  5
59
330
5
100
AcDbSymbolTableRecord
100
AcDbTextStyleTableRecord
  2
LiberationMono-Italic
 70
0
 40
0.0
 41
1.0
 50
0.0
 71
0
 42
2.5
  3
LiberationMono-Italic.ttf
  4

  0
ENDTAB
  0
TABLE
  2
VIEW
  5
7
330
0
100
AcDbSymbolTable
 70
0
  0
ENDTAB
  0
TABLE
  2
UCS
  5
6
330
0
100
AcDbSymbolTable
 70
0
  0
ENDTAB
  0
TABLE
  2
APPID
  5
3
330
0
100
AcDbSymbolTable
 70
3
  0
APPID
  5
2A
330
3
100
AcDbSymbolTableRecord
100
AcDbRegAppTableRecord
  2
ACAD
 70
0
  0
APPID
  5
93
330
3
100
AcDbSymbolTableRecord
100
AcDbRegAppTableRecord
  2
HATCHBACKGROUNDCOLOR
 70
0
  0
APPID
  5
94
330
3
100
AcDbSymbolTableRecord
100
AcDbRegAppTableRecord
  2
EZDXF
 70
0
  0
ENDTAB
  0
TABLE
  2
DIMSTYLE
  5
4
330
0
100
AcDbSymbolTable
 70
12
100
AcDbDimStyleTable
  0
DIMSTYLE
105
2B
330
4
100
AcDbSymbolTableRecord
100
AcDbDimStyleTableRecord
  2
Standard
 70
0
 40
1.0
 41
2.5
 42
0.625
 43
3.75
 44
1.25
 45
0.0
 46
0.0
 47
0.0
 48
0.0
 49
2.5
140
2.5
141
2.5
142
0.0
143
0.03937007874
144
1.0
145
0.0
146
1.0
147
0.625
148
0.0
 69
0
 70
0
 71
0
 72
0
 73
0
 74
0
 75
0
 76
0
 77
1
 78
8
 79
3
170
0
171
3
172
1
173
0
174
0
175
0
176
0
177
0
178
0
179
2
271
2
272
2
273
2
274
3
275
0
276
0
277
2
278
44
279
0
280
0
281
0
282
0
283
0
284
8
285
0
286
0
288
0
289
3
290
0
371
-2
372
-2
  0
DIMSTYLE
105
73
330
4
100
AcDbSymbolTableRecord
100
AcDbDimStyleTableRecord
  2
EZDXF
 70
0
 40
1.0
 41
0.175
 42
0.125
 43
3.75
 44
0.375
 45
0.0
 46
0.0
 47
0.0
 48
0.0
 49
2.5
140
0.25
141
2.5
142
0.0
143
0.03937007874
144
100.0
145
0.0
146
0.5
147
0.1
148
0.0
 69
0
 70
0
 71
0
 72
0
 73
0
 74
0
 75
0
 76
0
 77
1
 78
12
 79
3
170
0
171
3
172
1
173
0
174
0
175
0
176
0
177
0
178
0
179
2
271
2
272
2
273
2
274
3
275
0
276
0
277
2
278
46
279
2
280
0
281
0
282
0
283
0
284
8
285
0
286
0
288
1
289
3
290
0
340
4C
342
74
371
-2
372
-2
  0
DIMSTYLE
105
7C
330
4
100
AcDbSymbolTableRecord
100
AcDbDimStyleTableRecord
  2
EZ_M_100_H25_CM
 70
0
 40
1.0
 41
0.25
 42
0.125
 43
3.75
 44
0.375
 45
0.0
 46
0.0
 47
0.0
 48
0.0
 49
2.5
140
0.25
141
2.5
142
0.125
143
0.03937007874
144
100.0
145
0.0
146
0.5
147
0.1
148
0.0
 69
0
 70
0
 71
0
 72
0
 73
0
 74
0
 75
0
 76
0
 77
1
 78
12
 79
3
170
0
171
3
172
1
173
0
174
0
175
0
176
0
177
0
178
0
179
2
271
2
272
2
273
2
274
3
275
0
276
0
277
2
278
46
279
2
280
0
281
0
282
0
283
0
284
8
285
0
286
0
288
1
289
3
290
0
340
4C
371
-2
372
-2
  0
DIMSTYLE
105
7D
330
4
100
AcDbSymbolTableRecord
100
AcDbDimStyleTableRecord
  2
EZ_M_50_H25_CM
 70
0
 40
1.0
 41
0.125
 42
0.0625
 43
3.75
 44
0.1875
 45
0.0
 46
0.0
 47
0.0
 48
0.0
 49
2.5
140
0.125
141
2.5
142
0.0625
143
0.03937007874
144
100.0
145
0.0
146
0.5
147
0.05
148
0.0
 69
0
 70
0
 71
0
 72
0
 73
0
 74
0
 75
0
 76
0
 77
1
 78
12
 79
3
170
0
171
3
172
1
173
0
174
0
175
0
176
0
177
0
178
0
179
2
271
2
272
2
273
2
274
3
275
0
276
0
277
2
278
46
279
2
280
0
281
0
282
0
283
0
284
8
285
0
286
0
288
1
289
3
290
0
340
4C
371
-2
372
-2
  0
DIMSTYLE
105
7E
330
4
100
AcDbSymbolTableRecord
100
AcDbDimStyleTableRecord
  2
EZ_M_25_H25_CM
 70
0
 40
1.0
 41
0.0625
 42
0.03125
 43
3.75
 44
0.09375
 45
0.0
 46
0.0
 47
0.0
 48
0.0
 49
2.5
140
0.0625
141
2.5
142
0.03125
143
0.03937007874
144
100.0
145
0.0
146
0.5
147
0.025
148
0.0
 69
0
 70
0
 71
0
 72
0
 73
0
 74
0
 75
0
 76
0
 77
1
 78
12
 79
3
170
0
171
3
172
1
173
0
174
0
175
0
176
0
177
0
178
0
179
2
271
2
272
2
273
2
274
3
275
0
276
0
277
2
278
46
279
2
280
0
281
0
282
0
283
0
284
8
285
0
286
0
288
1
289
3
290
0
340
4C
371
-2
372
-2
  0
DIMSTYLE
105
7F
330
4
100
AcDbSymbolTableRecord
100
AcDbDimStyleTableRecord
  2
EZ_M_20_H25_CM
 70
0
 40
1.0
 41
0.05
 42
0.025
 43
3.75
 44
0.07500000000000001
 45
0.0
 46
0.0
 47
0.0
 48
0.0
 49
2.5
140
0.05
141
2.5
142
0.025
143
0.03937007874
144
100.0
145
0.0
146
0.5
147
0.020000000000000004
148
0.0
 69
0
 70
0
 71
0
 72
0
 73
0
 74
0
 75
0
 76
0
 77
1
 78
12
 79
3
170
0
171
3
172
1
173
0
174
0
175
0
176
0
177
0
178
0
179
2
271
2
272
2
273
2
274
3
275
0
276
0
277
2
278
46
279
2
280
0
281
0
282
0
283
0
284
8
285
0
286
0
288
1
289
3
290
0
340
4C
371
-2
372
-2
  0
DIMSTYLE
105
80
330
4
100
AcDbSymbolTableRecord
100
AcDbDimStyleTableRecord
  2
EZ_M_10_H25_CM
 70
0
 40
1.0
 41
0.025
 42
0.0125
 43
3.75
 44
0.037500000000000006
 45
0.0
 46
0.0
 47
0.0
 48
0.0
 49
2.5
140
0.025
141
2.5
142
0.0125
143
0.03937007874
144
100.0
145
0.0
146
0.5
147
0.010000000000000002
148
0.0
 69
0
 70
0
 71
0
 72
0
 73
0
 74
0
 75
0
 76
0
 77
1
 78
12
 79
3
170
0
171
3
172
1
173
0
174
0
175
0
176
0
177
0
178
0
179
2
271
2
272
2
273
2
274
3
275
0
276
0
277
2
278
46
279
2
280
0
281
0
282
0
283
0
284
8
285
0
286
0
288
1
289
3
290
0
340
4C
371
-2
372
-2
  0
DIMSTYLE
105
81
330
4
100
AcDbSymbolTableRecord
100
AcDbDimStyleTableRecord
  2
EZ_M_5_H25_CM
 70
0
 40
1.0
 41
0.0125
 42
0.00625
 43
3.75
 44
0.018750000000000003
 45
0.0
 46
0.0
 47
0.0
 48
0.0
 49
2.5
140
0.0125
141
2.5
142
0.00625
143
0.03937007874
144
100.0
145
0.0
146
0.5
147
0.005000000000000001
148
0.0
 69
0
 70
0
 71
0
 72
0
 73
0
 74
0
 75
0
 76
0
 77
1
 78
12
 79
3
170
0
171
3
172
1
173
0
174
0
175
0
176
0
177
0
178
0
179
2
271
2
272
2
273
2
274
3
275
0
276
0
277
2
278
46
279
2
280
0
281
0
282
0
283
0
284
8
285
0
286
0
288
1
289
3
290
0
340
4C
371
-2
372
-2
  0
DIMSTYLE
105
82
330
4
100
AcDbSymbolTableRecord
100
AcDbDimStyleTableRecord
  2
EZ_M_1_H25_CM
 70
0
 40
1.0
 41
0.0025
 42
0.00125
 43
3.75
 44
0.00375
 45
0.0
 46
0.0
 47
0.0
 48
0.0
 49
2.5
140
0.0025
141
2.5
142
0.00125
143
0.03937007874
144
100.0
145
0.0
146
0.5
147
0.001
148
0.0
 69
0
 70
0
 71
0
 72
0
 73
0
 74
0
 75
0
 76
0
 77
1
 78
12
 79
3
170
0
171
3
172
1
173
0
174
0
175
0
176
0
177
0
178
0
179
2
271
2
272
2
273
2
274
3
275
0
276
0
277
2
278
46
279
2
280
0
281
0
282
0
283
0
284
8
285
0
286
0
288
1
289
3
290
0
340
4C
371
-2
372
-2
  0
DIMSTYLE
105
83
330
4
100
AcDbSymbolTableRecord
100
AcDbDimStyleTableRecord
  2
EZ_RADIUS
 70
0
 40
1.0
 41
0.25
 42
0.125
 43
3.75
 44
0.375
 45
0.0
 46
0.0
 47
0.0
 48
0.0
 49
2.5
140
0.25
141
0.0
142
0.0
143
0.03937007874
144
100.0
145
0.0
146
0.5
147
0.1
148
0.0
 69
0
 70
0
 71
0
 72
0
 73
0
 74
0
 75
0
 76
0
 77
1
 78
12
 79
3
170
0
171
3
172
0
173
0
174
0
175
0
176
0
177
0
178
0
179
2
271
2
272
2
273
2
274
3
275
0
276
0
277
2
278
46
279
1
280
0
281
0
282
0
283
0
284
8
285
0
286
0
288
1
289
3
290
0
340
4C
342
84
371
-2
372
-2
  0
DIMSTYLE
105
88
330
4
100
AcDbSymbolTableRecord
100
AcDbDimStyleTableRecord
  2
EZ_RADIUS_INSIDE
 70
0
 40
1.0
 41
0.25
 42
0.125
 43
3.75
 44
0.375
 45
0.0
 46
0.0
 47
0.0
 48
0.0
 49
2.5
140
0.25
141
0.0
142
0.0
143
0.03937007874
144
100.0
145
0.0
146
0.5
147
0.1
148
0.0
 69
0
 70
0
 71
0
 72
0
 73
0
 74
0
 75
0
 76
0
 77
0
 78
12
 79
3
170
0
171
3
172
0
173
0
174
1
175
0
176
0
177
0
178
0
179
2
271
2
272
2
273
2
274
3
275
0
276
0
277
2
278
46
279
0
280
0
281
0
282
0
283
0
284
8
285
0
286
0
288
1
289
0
290
0
340
4C
342
84
371
-2
372
-2
  0
DIMSTYLE
105
89
330
4
100
AcDbSymbolTableRecord
100
AcDbDimStyleTableRecord
  2
EZ_CURVED
 70
0
 40
1.0
 41
0.25
 42
0.125
 43
3.75
 44
0.375
 45
0.0
 46
0.0
 47
0.0
 48
0.0
 49
2.5
140
0.25
141
2.5
142
0.0
143
0.03937007874
144
100.0
145
0.0
146
0.5
147
0.1
148
0.0
 69
0
 70
0
 71
0
 72
0
 73
0
 74
0
 75
0
 76
0
 77
1
 78
12
 79
2
 90
2
170
0
171
3
172
1
173
0
174
0
175
0
176
0
177
0
178
0
179
2
271
2
272
2
273
2
274
3
275
0
276
0
277
2
278
46
279
2
280
0
281
0
282
0
283
0
284
8
285
0
286
0
288
1
289
3
290
0
340
4C
371
-2
372
-2
  0
ENDTAB
  0
TABLE
  2
BLOCK_RECORD
  5
9
330
0
100
AcDbSymbolTable
 70
5
  0
BLOCK_RECORD
  5
17
330
9
100
AcDbSymbolTableRecord
100
AcDbBlockTableRecord
  2
*Model_Space
340
1A
 70
0
280
1
281
0
  0
BLOCK_RECORD
  5
1B
330
9
100
AcDbSymbolTableRecord
100
AcDbBlockTableRecord
  2
*Paper_Space
340
1E
 70
0
280
1
281
0
  0
BLOCK_RECORD
  5
74
330
9
100
AcDbSymbolTableRecord
100
AcDbBlockTableRecord
  2
_ARCHTICK
340
0
 70
0
280
1
281
0
  0
BLOCK_RECORD
  5
78
330
9
100
AcDbSymbolTableRecord
100
AcDbBlockTableRecord
  2
_CLOSEDFILLED
340
0
 70
0
280
1
281
0
  0
BLOCK_RECORD
  5
84
330
9
100
AcDbSymbolTableRecord
100
AcDbBlockTableRecord
  2
_CLOSEDBLANK
340
0
 70
0
280
1
281
0
  0
ENDTAB
  0
ENDSEC
  0
SECTION
  2
BLOCKS
  0
BLOCK
  5
18
330
17
100
AcDbEntity
  8
0
100
AcDbBlockBegin
  2
*Model_Space
 70
0
 10
0.0
 20
0.0
 30
0.0
  3
*Model_Space
  1

  0
ENDBLK
  5
19
330
17
100
AcDbEntity
  8
0
100
AcDbBlockEnd
  0
BLOCK
  5
1C
330
1B
100
AcDbEntity
  8
0
100
AcDbBlockBegin
  2
*Paper_Space
 70
0
 10
0.0
 20
0.0
 30
0.0
  3
*Paper_Space
  1

  0
ENDBLK
  5
1D
330
1B
100
AcDbEntity
  8
0
100
AcDbBlockEnd
  0
BLOCK
  5
75
330
74
100
AcDbEntity
  8
0
100
AcDbBlockBegin
  2
_ARCHTICK
 70
0
 10
0.0
 20
0.0
 30
0.0
  3
_ARCHTICK
  1

  0
LWPOLYLINE
  5
77
330
74
100
AcDbEntity
  8
0
  6
BYBLOCK
 62
0
100
AcDbPolyline
 90
2
 70
0
 43
0.15
 10
-0.5
 20
-0.5
 10
0.5
 20
0.5
  0
ENDBLK
  5
76
330
74
100
AcDbEntity
  8
0
100
AcDbBlockEnd
  0
BLOCK
  5
79
330
78
100
AcDbEntity
  8
0
100
AcDbBlockBegin
  2
_CLOSEDFILLED
 70
0
 10
0.0
 20
0.0
 30
0.0
  3
_CLOSEDFILLED
  1

  0
SOLID
  5
7B
330
78
100
AcDbEntity
  8
0
  6
BYBLOCK
 62
0
100
AcDbTrace
 10
-1.0
 20
0.16439898372402537
 30
0.0
 11
0.0
 21
0.0
 31
0.0
 12
-1.0
 22
-0.16439898372402537
 32
0.0
 13
-1.0
 23
-0.16439898372402537
 33
0.0
  0
ENDBLK
  5
7A
330
78
100
AcDbEntity
  8
0
100
AcDbBlockEnd
  0
BLOCK
  5
85
330
84
100
AcDbEntity
  8
0
100
AcDbBlockBegin
  2
_CLOSEDBLANK
 70
0
 10
0.0
 20
0.0
 30
0.0
  3
_CLOSEDBLANK
  1

  0
LWPOLYLINE
  5
87
330
84
100
AcDbEntity
  8
0
  6
BYBLOCK
 62
0
100
AcDbPolyline
 90
3
 70
1
 10
-1.0
 20
0.16439898372402537
 10
0.0
 20
0.0
 10
-1.0
 20
-0.16439898372402537
  0
ENDBLK
  5
86
330
84
100
AcDbEntity
  8
0
100
AcDbBlockEnd
  0
ENDSEC
  0
SECTION
  2
ENTITIES
  0
LWPOLYLINE
  5
8D
330
17
100
AcDbEntity
  8
HOJA
100
AcDbPolyline
 90
4
 70
1
 10
0.0
 20
0.0
 10
500.0
 20
0.0
 10
500.0
 20
700.0
 10
0.0
 20
700.0
  0
LWPOLYLINE
  5
8E
330
17
100
AcDbEntity
  8
CORTE
100
AcDbPolyline
 90
865
 70
1
 10
13.0
 20
218.38269716220674
 10
13.0
 20
218.8929795316055
 10
13.000001054604494
 20
219.8738723040853
 10
13.000003164574307
 20
221.22693719305292
 10
13.000004635069093
 20
222.19875519683893
 10
13.000005423466565
 20
222.83579151060312
 10
13.000006234101384
 20
223.42941346491793
 10
13.000005661749448
 20
223.57208223346169
 10
13.000004578497482
 20
223.6204281797054
 10
13.00000337767339
 20
223.71184818342948
 10
13.000002558155556
 20
223.95358622088642
 10
13.000002063831928
 20
224.29998198923394
 10
13.00000143812934
 20
224.66122135414668
 10
13.000001977509461
 20
225.17461429736025
 10
13.000002558155181
 20
225.6560732251611
 10
13.000003236226984
 20
226.10343107988575
 10
13.000003848905484
 20
226.50731652138077
 10
13.000003848905484
 20
273.05960828918944
 10
13.000004578478656
 20
274.91718918221767
 10
13.000004635069024
 20
275.39051644450495
 10
13.000005069719872
 20
276.5994510512733
 10
13.000005754173904
 20
278.2609635845791
 10
13.000006555290165
 20
280.0992307940808
 10
13.000006707957086
 20
280.68056015911174
 10
13.000007642798083
 20
282.6788252422667
 10
13.000007497711401
 20
282.67882728532663
 10
13.000007433492115
 20
282.8374844779851
 10
13.000008024898925
 20
284.1305278683413
 10
13.000008212797457
 20
284.7001347883308
 10
13.000008238789981
 20
284.9878245941934
 10
13.00000826480576
 20
285.2738842082918
 10
13.000008290444017
 20
285.5576736846119
 10
13.000008290444017
 20
285.79954720214135
 10
13.000008316109982
 20
286.08091478275617
 10
13.000008316109982
 20
287.04512272501984
 10
13.000008341402525
 20
287.3210374419777
 10
13.000008341402525
 20
287.801519455148
 10
13.000008341400427
 20
288.0417596362937
 10
13.00000836671939
 20
288.31365279584816
 10
13.00000839167323
 20
288.58347798485926
 10
13.00000839167323
 20
288.82210755037744
 10
13.00000829044262
 20
288.9439210766964
 10
13.000012101423765
 20
289.27137251342293
 10
13.00000839168049
 20
289.5379981301991
 10
13.000008391677316
 20
290.16422790185413
 10
13.000006861146868
 20
290.1642494449906
 10
13.000006632256826
 20
290.2757294047523
 10
13.000006437234457
 20
290.42072222501514
 10
13.000006275297338
 20
290.6026148078656
 10
13.000006234100429
 20
290.88003074323126
 10
13.000006819057571
 20
291.5815848030213
 10
13.000007969530492
 20
292.6081861455385
 10
13.00000839167323
 20
293.1174478601299
 10
13.00000839167323
 20
293.3560783317099
 10
13.000008264805071
 20
293.52557459947553
 10
13.00000839167323
 20
293.8333375755791
 10
13.00000839167323
 20
295.5037475529715
 10
13.00000839167462
 20
295.74238030011065
 10
13.00000839167462
 20
296.21964312992543
 10
13.0000083667201
 20
296.4542740777139
 10
13.0000083667201
 20
296.93313114081565
 10
13.000008341401816
 20
297.1709346514678
 10
13.000008341401815
 20
353.6603123591989
 10
13.000008316108561
 20
353.85028486329975
 10
13.000008316108561
 20
354.09133572497154
 10
13.000008290443306
 20
354.28302694880733
 10
13.000012063291774
 20
354.52490485789315
 10
13.000012050472723
 20
354.7191132126345
 10
13.000008264814173
 20
354.96180610238497
 10
13.000008238789238
 20
355.157804526161
 10
13.000008238789238
 20
355.8403448072496
 10
13.000007589251812
 20
355.84035395380846
 10
13.000007650524061
 20
356.2009327830758
 10
13.000007710457922
 20
356.55361520159124
 10
13.000007941658714
 20
357.15498906187486
 10
13.000008160068948
 20
357.7230909550545
 10
13.000008106608204
 20
357.89374409602516
 10
13.000008079490435
 20
358.1041364479624
 10
13.000008052396794
 20
358.3162978632639
 10
13.000008024897403
 20
358.52966294607137
 10
13.000007969530461
 20
358.7090556572287
 10
13.000007913372231
 20
358.8910126209114
 10
13.000007856407214
 20
359.0755871459216
 10
13.00000785640721
 20
359.58716386171403
 10
13.000007827727446
 20
359.8107739667053
 10
13.000007739980601
 20
359.97184582262014
 10
13.000007620108793
 20
360.1045672461393
 10
13.00000755883227
 20
360.3050778079139
 10
13.000007527969457
 20
360.53973664663874
 10
13.000007465304725
 20
360.74579205987806
 10
13.000007433492112
 20
360.9845403377762
 10
13.000007337094143
 20
361.16736705039943
 10
13.000007337094132
 20
361.4398040089519
 10
13.000007304300357
 20
361.68490990424374
 10
13.000007271508357
 20
361.93211107112677
 10
13.000007238203668
 20
362.18102864205065
 10
13.000007204897818
 20
362.43207190495104
 10
13.000007171072044
 20
362.68489233687757
 10
13.000007137243978
 20
362.9398798059646
 10
13.00000703361785
 20
363.15228891014425
 10
13.000011417424064
 20
363.41319291943904
 10
13.000011417424064
 20
363.6964629279516
 10
13.000011399691834
 20
363.9604205299748
 10
13.000006927782358
 20
364.2266481612843
 10
13.000006891732472
 20
364.494878745601
 10
13.000006745197128
 20
364.71582276004665
 10
13.000006670115614
 20
364.9759457303177
 10
13.000006707958116
 20
365.28431901035117
 10
13.00000674519711
 20
365.5900488149857
 10
13.000006707958116
 20
365.8695221850593
 10
13.000006707958116
 20
366.16211694091993
 10
13.000006670115612
 20
366.445016595762
 10
13.000006632257733
 20
366.7303296805876
 10
13.000006593784686
 20
367.0179606963747
 10
13.000006555291227
 20
367.3080549426925
 10
13.000006593784684
 20
367.61048811799253
 10
13.00000651616852
 20
367.899288008194
 10
13.000006477022264
 20
368.19552544510253
 10
13.000006477022264
 20
368.49552261895667
 10
13.00000643688276
 20
368.7981888578973
 10
13.000381364461258
 20
368.80346845690553
 10
13.00126765226553
 20
368.8097086543208
 10
13.003045006528845
 20
368.8170074657556
 10
13.005737260110683
 20
368.82458843725766
 10
13.008620313529196
 20
368.8305085767417
 10
13.012787029890603
 20
368.83784195661485
 10
13.02173579940014
 20
368.8489595250538
 10
13.030253131515577
 20
368.85577339074615
 10
13.036959905878758
 20
368.86039229747865
 10
13.052994567518931
 20
368.8682941540416
 10
13.070138138355292
 20
368.87052917176294
 10
55.92109366568286
 20
368.87052917176294
 10
55.921110947672034
 20
368.87053027781025
 10
63.677403495519954
 20
368.87053027781025
 10
64.15919519891042
 20
368.8705301588242
 10
64.95613852174489
 20
368.87052980380025
 10
65.86504502990367
 20
368.8705293365396
 10
66.76293738348454
 20
368.87052883893654
 10
66.79933170323378
 20
368.87052899916824
 10
67.08423285903844
 20
368.87052896253834
 10
67.34434286790415
 20
368.870528944514
 10
67.85570655936138
 20
368.87052868953697
 10
68.39731223826215
 20
368.8705283779313
 10
68.61918799919766
 20
368.8705283641819
 10
68.85172713244279
 20
368.8705283370762
 10
69.02327967272264
 20
368.8705283779313
 10
69.19858144424356
 20
368.8705284195502
 10
69.49113951035304
 20
368.8705283103459
 10
69.7053377432303
 20
368.8705282971695
 10
69.901229710482
 20
368.8705283103459
 10
70.09056617082632
 20
368.8705283370762
 10
70.2970393547236
 20
368.8705283370762
 10
70.50993640704576
 20
368.87052832371603
 10
70.73267772810377
 20
368.87052828398265
 10
71.34358583878176
 20
368.87052828398265
 10
71.54440641618258
 20
368.8705282971695
 10
71.75086301671436
 20
368.87052828398265
 10
71.95449587365079
 20
368.87052828398265
 10
72.15742994619237
 20
368.8705282971695
 10
72.36177305158164
 20
368.87052828398265
 10
119.43032998458864
 20
368.87052828398265
 10
119.59240126172267
 20
368.8705282971695
 10
120.00108361513855
 20
368.8705282971695
 10
120.16600415890423
 20
368.8705283103459
 10
120.78113950867797
 20
368.8705283103459
 10
120.9490413199708
 20
368.87052832371603
 10
121.11839885565107
 20
368.8705283370762
 10
121.36055822047405
 20
368.87052832371603
 10
121.53134520231828
 20
368.8705283370762
 10
121.70305120941853
 20
368.87052835063474
 10
121.91024486675681
 20
368.87052835063474
 10
122.15076472649147
 20
368.8705283370762
 10
122.32464379871314
 20
368.87052835063474
 10
122.7390369108528
 20
368.87052835063474
 10
122.88498771270906
 20
368.8705283779313
 10
123.30229739234704
 20
368.8705283779313
 10
123.3947699892054
 20
368.8705284336942
 10
123.40984174432035
 20
368.8705284336942
 10
123.40985768422703
 20
368.87052944575174
 10
123.74872086933448
 20
368.8705294012664
 10
123.97785109064611
 20
368.87052942334026
 10
124.03866233820185
 20
368.87052955950685
 10
124.10305476308326
 20
368.8705297032827
 10
124.61459430419933
 20
368.87052953620497
 10
124.66197620698819
 20
368.87052970328244
 10
124.97302488151308
 20
368.8705296786481
 10
125.31063773468784
 20
368.87052963025457
 10
126.10168536858006
 20
368.8705291916686
 10
126.46396162494071
 20
368.8705290934889
 10
127.22642084581406
 20
368.87052861096413
 10
127.65596941278793
 20
368.87052840561466
 10
127.85270326367836
 20
368.8705284195502
 10
128.07623703450204
 20
368.87052840561466
 10
128.4965086107108
 20
368.87052840561466
 10
128.71707316473615
 20
368.8705283916701
 10
128.9264619732313
 20
368.8705283916701
 10
129.09064946194184
 20
368.8705284621767
 10
129.3288593894231
 20
368.8705284195502
 10
129.53973670007028
 20
368.8705284195502
 10
129.74381427610658
 20
368.8705284336942
 10
129.95545218747998
 20
368.8705284336942
 10
130.16179717671994
 20
368.8705284478289
 10
130.58657932576463
 20
368.8705284478289
 10
130.79590131988283
 20
368.8705284621767
 10
177.29326755525824
 20
368.8705284621767
 10
177.45816351608227
 20
368.8705284765158
 10
178.31385115930047
 20
368.8705284765158
 10
178.48267341104463
 20
368.87052849107175
 10
178.69737271973364
 20
368.87052849107175
 10
178.9556201557832
 20
368.8705284765158
 10
179.59738913105193
 20
368.8705284765158
 10
179.77087223862418
 20
368.87052849107175
 10
180.84437477807342
 20
368.87052849107175
 10
181.02331923440084
 20
368.8705285056208
 10
184.68643770325895
 20
368.8705285056208
 10
184.9236801177686
 20
368.87052849107175
 10
185.15937584040725
 20
368.8705284765158
 10
185.37329899788028
 20
368.8705284765158
 10
185.6063726108917
 20
368.8705284621767
 10
185.81953020728676
 20
368.8705284621767
 10
186.05031633255064
 20
368.8705284478289
 10
186.2458429101353
 20
368.8705284621767
 10
186.4589995137455
 20
368.8705284621767
 10
186.65683496191943
 20
368.8705284765158
 10
186.8559821163847
 20
368.87052849107175
 10
187.07068267995191
 20
368.87052849107175
 10
187.29860270662
 20
368.8705284765158
 10
187.51252535195664
 20
368.8705284765158
 10
187.7031241519432
 20
368.8705285056208
 10
187.9075550200574
 20
368.87052852039
 10
188.98888762084425
 20
368.87052852039
 10
189.21146650532083
 20
368.8705285056208
 10
189.41590056437713
 20
368.87052853515087
 10
190.284121180129
 20
368.87052853515087
 10
190.5043316504961
 20
368.8705285056208
 10
190.71823151984543
 20
368.87052853515087
 10
190.93528670673962
 20
368.87052852039
 10
236.38098448623415
 20
368.87052852039
 10
236.5475695741146
 20
368.87052853515087
 10
237.4157902809014
 20
368.87052853515087
 10
237.6785838349153
 20
368.87052852039
 10
238.11111681824895
 20
368.87052852039
 10
238.3707801652658
 20
368.8705285056208
 10
238.54365017889515
 20
368.87052852039
 10
238.7181213088974
 20
368.87052853515087
 10
241.7568938073253
 20
368.87052853515087
 10
241.94352240940609
 20
368.8705285501379
 10
242.19100373348633
 20
368.87052853515087
 10
242.37923418657962
 20
368.8705285501379
 10
242.81494545994502
 20
368.8705285501379
 10
243.05922459836327
 20
368.87052853515087
 10
243.27627930061826
 20
368.87052853515087
 10
243.5177809324499
 20
368.87052852039
 10
243.7103892164384
 20
368.87052853515087
 10
243.90422540668027
 20
368.8705285501379
 10
244.3399371838999
 20
368.8705285501379
 10
244.53698501127508
 20
368.8705285651174
 10
244.7556421997912
 20
368.8705285651174
 10
244.99350435027955
 20
368.8705285501379
 10
245.42921509763383
 20
368.8705285501379
 10
245.63026632105405
 20
368.8705285651174
 10
246.06757761707567
 20
368.8705285651174
 10
246.27160970712978
 20
368.87052858032587
 10
247.14948334101354
 20
368.87052858032587
 10
247.35839256468122
 20
368.8705285955284
 10
247.58842170880936
 20
368.87052858032587
 10
248.02735800185206
 20
368.87052858032587
 10
248.2395159684481
 20
368.8705285955284
 10
248.45979991175963
 20
368.8705285955284
 10
248.67430617172207
 20
368.87052861096413
 10
249.1165192381765
 20
368.87052861096413
 10
249.3343251972646
 20
368.8705286263946
 10
249.5537438766058
 20
368.8705286420629
 10
249.9992756535357
 20
368.8705286420629
 10
250.2220457195446
 20
368.8705286577279
 10
295.4217602017252
 20
368.8705286577279
 10
295.59267622928957
 20
368.8705286736342
 10
295.7653066554909
 20
368.87052868953697
 10
295.990608799151
 20
368.87052868953697
 10
296.11411463033437
 20
368.8705287218323
 10
296.2395277343625
 20
368.87052875462604
 10
296.46830724104154
 20
368.87052875462604
 10
296.6472674952527
 20
368.8705287712789
 10
296.87693880956306
 20
368.8705287712789
 10
297.15464999839793
 20
368.87052875462604
 10
297.2891265658702
 20
368.87052878793173
 10
297.51968540520545
 20
368.87052878793173
 10
297.70416618992675
 20
368.8705288048438
 10
297.98080630865314
 20
368.87052878793173
 10
298.2113629671171
 20
368.87052878793173
 10
298.3985542814523
 20
368.8705288048438
 10
299.09294454592083
 20
368.8705288048438
 10
299.36416250465805
 20
368.87052878793173
 10
299.5558735440329
 20
368.8705288048438
 10
299.74938377033635
 20
368.8705288217582
 10
299.94412155981894
 20
368.8705288389364
 10
300.1406882269274
 20
368.87052885611865
 10
300.3748931745294
 20
368.87052885611865
 10
300.57366382126617
 20
368.8705288735718
 10
301.51420454279486
 20
368.8705288735718
 10
301.71856509010235
 20
368.8705288910263
 10
302.89890126685253
 20
368.8705288910263
 10
303.08380769697624
 20
368.87052892649433
 10
304.035660094369
 20
368.87052892649433
 10
304.252438987641
 20
368.870528944514
 10
304.96921468117057
 20
368.870528944514
 10
305.1908091611883
 20
368.87052896253834
 10
305.67058551192366
 20
368.87052896253834
 10
305.89579820362826
 20
368.8705289808515
 10
306.8592621216751
 20
368.8705289808515
 10
307.1099145697587
 20
368.87052896253834
 10
307.34099745311113
 20
368.8705289808515
 10
307.57403289295536
 20
368.870528999169
 10
308.0577254513678
 20
368.870528999169
 10
308.2945963378231
 20
368.87052901778213
 10
308.53743815764216
 20
368.87052901778213
 10
308.7772912215953
 20
368.87052903640165
 10
309.02311499043316
 20
368.87052901778213
 10
309.26695120043985
 20
368.870528999169
 10
353.3174682748723
 20
368.870528999169
 10
353.49666854387436
 20
368.87052901778213
 10
353.8011631090869
 20
368.870528999169
 10
353.91109752589915
 20
368.8705289924908
 10
353.91110159947596
 20
368.8705295356344
 10
354.1193907590437
 20
368.870529559507
 10
354.5868112217721
 20
368.87052949041214
 10
354.979840453708
 20
368.8705294454395
 10
355.4841267180524
 20
368.8705293578688
 10
356.1350443008268
 20
368.8705292119015
 10
357.0890180231379
 20
368.8705289397261
 10
357.08901946966114
 20
368.870529036161
 10
357.2878360826662
 20
368.87052905532295
 10
357.77752636741843
 20
368.87052905532295
 10
357.97787565903434
 20
368.87052907425186
 10
358.27241058456536
 20
368.87052904075466
 10
358.2724118156396
 20
368.87052927158106
 10
358.4463356077467
 20
368.87052931523135
 10
358.66066933277364
 20
368.8705293365396
 10
359.214642829415
 20
368.8705291916686
 10
359.6228005296072
 20
368.870529112735
 10
360.0533362814646
 20
368.87052901778213
 10
360.1546151138841
 20
368.8705290934889
 10
360.89526527753276
 20
368.8705290934889
 10
361.1102723482632
 20
368.870529112735
 10
361.38903818721144
 20
368.8705290934889
 10
361.60609706835544
 20
368.870529112735
 10
363.3414812748936
 20
368.870529112735
 10
363.61099315811487
 20
368.8705290934889
 10
364.35164326076597
 20
368.8705290934889
 10
364.58105002931
 20
368.870529112735
 10
364.8454069345989
 20
368.8705290934889
 10
365.1077139225884
 20
368.87052907425186
 10
365.59942213928457
 20
368.87052907425186
 10
365.85741602476173
 20
368.87052905532295
 10
365.9983434137851
 20
368.8705292321493
 10
366.1622830846231
 20
368.87052940126637
 10
366.42561755874726
 20
368.8705294012664
 10
366.7074900423509
 20
368.8705293578688
 10
367.00780964706837
 20
368.8705292527315
 10
367.3204147596231
 20
368.87052907425186
 10
367.56113479165765
 20
368.8705290934889
 10
367.812127552682
 20
368.87052907425186
 10
368.30384496711963
 20
368.87052907425186
 10
368.5486713582759
 20
368.8705290934889
 10
368.80538147076453
 20
368.8705290934889
 10
368.8184377641125
 20
368.8670474152628
 10
368.8235071609532
 20
368.8651463914475
 10
368.8290395433938
 20
368.8627753704016
 10
368.8368177303139
 20
368.85833069216153
 10
368.8498376244518
 20
368.84856577155807
 10
368.857649525378
 20
368.83762911026145
 10
368.86021183482785
 20
368.8336432955616
 10
368.86823513912844
 20
368.81874287328907
 10
368.8705531952137
 20
368.80019842460734
 10
368.8705531952137
 20
311.69627707415174
 10
368.87056232336045
 20
311.4036743315651
 10
368.87056232339694
 20
310.8184778593414
 10
368.8705531952137
 20
310.52587277702617
 10
368.8705531952137
 20
299.6503058652549
 10
368.87056210354575
 20
299.36475596334907
 10
368.87056210358224
 20
299.07919809770476
 10
368.8705531952137
 20
298.7890932934466
 10
368.8705531952137
 20
234.9386169865937
 10
368.8705617931369
 20
234.49984138259472
 10
368.8705531952137
 20
234.16490926733607
 10
368.8705531952137
 20
168.91996840124708
 10
368.8705610896797
 20
168.5220813946044
 10
368.87056100645583
 20
168.13294708395625
 10
368.8705609772348
 20
167.99657136582962
 10
368.8705617598447
 20
167.9965651049506
 10
368.8705617598447
 20
167.99189577382765
 10
368.8705612913726
 20
167.04160637643093
 10
368.8705609789564
 20
166.34145277975614
 10
368.8705609789564
 20
166.091947372775
 10
368.87056092474506
 20
165.76945657587714
 10
368.87056095186284
 20
165.5573281889081
 10
368.87056092474506
 20
165.2739215113395
 10
368.8705608980269
 20
164.99275239524252
 10
368.8705608980269
 20
164.65683542934235
 10
368.87056147252173
 20
164.65683246111905
 10
368.87056147252173
 20
164.64964112602243
 10
368.8705608980269
 20
163.75819592269676
 10
368.8705608712843
 20
163.48299620351827
 10
368.87056084493383
 20
163.20991310447164
 10
368.870560818558
 20
162.93849419900096
 10
368.87056079256473
 20
162.66913411483156
 10
368.8705607665489
 20
162.40141938650316
 10
368.8705607409107
 20
162.13571146981607
 10
368.87056071524546
 20
161.8716237732774
 10
368.8705606899536
 20
161.60949272027227
 10
368.87056066463384
 20
161.34896082291073
 10
368.8705606146991
 20
161.07111546352053
 10
368.8705607925646
 20
160.9644192253952
 10
368.8705606146991
 20
160.59545669169714
 10
368.8705605900779
 20
160.34105374271945
 10
368.8705605654254
 20
160.08820912516353
 10
368.8705605654254
 20
159.85195998983895
 10
368.8705605168039
 20
159.58765561239693
 10
368.8705604928258
 20
159.3398986350265
 10
368.8705604214591
 20
159.0693730760222
 10
368.87056044515447
 20
158.84913167912336
 10
368.8705604688185
 20
158.62735669762566
 10
368.8705604214591
 20
158.37446840774257
 10
368.8705603981018
 20
158.1338488176636
 10
368.8705603285663
 20
157.87844370836316
 10
368.8705602605353
 20
157.62797918304076
 10
368.87056026053466
 20
157.4015024030768
 10
368.87056039810113
 20
157.21030295769515
 10
368.8705604688185
 20
156.99528437247167
 10
368.8705604928245
 20
156.7667482703616
 10
368.87056051680327
 20
156.53666833830056
 10
368.87056051680327
 20
155.83259499158575
 10
368.8705604928245
 20
155.59713463049812
 10
368.8705604928245
 20
105.89056844269993
 10
368.8705531952502
 20
105.65664444093983
 10
368.870560492788
 20
105.42272277891746
 10
368.870560492788
 20
105.42272277473319
 10
368.8705723031844
 20
105.04414199919736
 10
368.87057263796737
 20
104.78573844534816
 10
368.8705726379674
 20
103.53927556228811
 10
368.8705723032209
 20
102.59413722648165
 10
368.87057213949845
 20
101.82943610689247
 10
368.870571979806
 20
101.07885762650005
 10
368.87057182155587
 20
100.33976522873093
 10
368.87057064977944
 20
98.76611441916859
 10
368.87056807546026
 20
96.14364321260024
 10
368.87056731803887
 20
95.08396726573767
 10
368.8705664731989
 20
94.00839922141236
 10
368.8705651183065
 20
92.62730619496296
 10
368.870564685993
 20
91.95410058904287
 10
368.8705637567174
 20
90.9900170922034
 10
368.8705625151886
 20
89.89533430365844
 10
368.87056150338276
 20
89.0127869340728
 10
368.8705606396794
 20
88.27581368215453
 10
368.8705606947722
 20
88.1742012776032
 10
368.87056191231216
 20
88.17419184166877
 10
368.87056223637103
 20
88.15591182044687
 10
368.87056433404183
 20
88.15590098248097
 10
368.87056438020716
 20
88.09849662454457
 10
368.870566621636
 20
88.09846132204089
 10
368.87056759322377
 20
87.91129520738548
 10
368.87056797675365
 20
87.53582741574775
 10
368.87056797675365
 20
87.06200507680799
 10
368.87056714057763
 20
86.45416670221715
 10
368.87056631621425
 20
85.90146335448128
 10
368.870564452875
 20
85.30168718227685
 10
368.87056314147145
 20
84.8567529323762
 10
368.8705625941184
 20
84.52038317858711
 10
368.87056189411
 20
84.21910183164664
 10
368.87056189411
 20
30.92078367761395
 10
368.87056123273686
 20
29.306338404748523
 10
368.870560871285
 20
28.330351826512285
 10
368.8705608980269
 20
28.136588454215122
 10
368.8705609247458
 20
27.94106664807561
 10
368.87055334506044
 20
27.748388545618685
 10
368.8705611179237
 20
27.550829640863984
 10
368.87056123273663
 20
27.50285907064586
 10
368.87056132089526
 20
27.40063998638322
 10
368.8705613508693
 20
27.19205687913535
 10
368.87056126183506
 20
26.77936739987155
 10
368.87056108969523
 20
26.233865772505602
 10
368.8705610618235
 20
25.93524773051685
 10
368.8705610618235
 20
25.68308749270814
 10
368.87056105209246
 20
25.579819377031686
 10
368.87056132197074
 20
25.57981523608707
 10
368.8705609789564
 20
24.801755752233063
 10
368.87056100645583
 20
24.59279813044204
 10
368.87056100645583
 20
24.342412660183562
 10
368.87056095186284
 20
24.015028889570228
 10
368.8705609755037
 20
23.939944042010787
 10
368.8705612602432
 20
23.939941861973644
 10
368.87056132089526
 20
23.75411034350795
 10
368.87056114625204
 20
23.26972445937239
 10
368.87056129136033
 20
23.196280087877675
 10
368.87056150234673
 20
23.195010767069434
 10
368.87056162966906
 20
23.07845844354368
 10
368.8705615347192
 20
22.69852684306419
 10
368.87056147252173
 20
22.36142806038722
 10
368.87056138082824
 20
21.996170110478253
 10
368.8705610339336
 20
21.366835642226807
 10
368.87056092474506
 20
21.003565396330593
 10
368.87056092474506
 20
20.75579923414005
 10
368.8705610896951
 20
20.666651874795235
 10
368.87056108969523
 20
20.41360400671961
 10
368.87056111798177
 20
20.185934405907737
 10
368.87056108969523
 20
19.90748877633671
 10
368.87056108969523
 20
19.654431177232986
 10
368.87056106182274
 20
19.379045345257644
 10
368.87056106182274
 20
19.126881219515884
 10
368.8705611179817
 20
18.916128754405097
 10
368.87056138082943
 20
18.847525851604168
 10
368.8705615347192
 20
18.6887259307248
 10
368.8705615347192
 20
18.42140301129124
 10
368.8705531952137
 20
18.07887893895756
 10
368.8705531952137
 20
17.407761456030077
 10
368.87056117490545
 20
17.167608555270597
 10
368.8705612036265
 20
16.925605518072828
 10
368.87056117494683
 20
16.656033347588224
 10
368.8705611462528
 20
16.38828592006835
 10
368.8705611462528
 20
16.13341545903217
 10
368.8705614416518
 20
15.982706958611704
 10
368.8705616296691
 20
15.778635470590526
 10
368.87056182645716
 20
15.565049191797431
 10
368.87056206811167
 20
15.35034387007973
 10
368.8705621756703
 20
15.09006628109656
 10
368.8705622489346
 20
14.816288512289507
 10
368.8705622489346
 20
14.52607146773808
 10
368.8705621756703
 20
14.226460621088297
 10
368.8705621396236
 20
13.935125725220054
 10
368.8705620681117
 20
13.643832612911744
 10
368.87056166196624
 20
13.346401871486618
 10
368.87056114625267
 20
13.075000334741214
 10
368.8705611462528
 20
13.070132187973869
 10
368.86832613287453
 20
13.052988616347214
 10
368.86042427196844
 20
13.036953945893876
 10
368.855805365236
 20
13.030247171530752
 10
368.8489914995436
 20
13.021729839415313
 10
368.8378739311047
 20
13.012781069905767
 10
368.8305414712024
 20
13.008614876258013
 10
368.82462049456467
 20
13.00573120864609
 10
368.81703845032865
 20
13.003038805486582
 10
368.80974172131425
 20
13.00126195831937
 10
368.8035015517764
 20
13.00037548403962
 10
368.7982208373541
 20
13.000000477250662
 10
323.7978312613128
 20
13.000000477250662
 10
323.7978255143855
 20
13.000000068960661
 10
323.5609596876813
 20
13.000000068960661
 10
323.49268095391113
 20
13.000000016321255
 10
323.200722476672
 20
13.000000034053505
 10
323.0186463301473
 20
13.000000016321234
 10
322.521354085043
 20
13.000000103321119
 10
322.28898912329674
 20
13.000000103321119
 10
321.9109823296106
 20
13.000000153801887
 10
321.1406336503698
 20
13.000000344754048
 10
320.43580622634613
 20
13.000000519465289
 10
320.3797811089268
 20
13.000000462903325
 10
320.2438116060637
 20
13.000000434008228
 10
320.1445038249076
 20
13.000000389929037
 10
319.8517162694682
 20
13.000000419459088
 10
319.63624469340243
 20
13.000000419459088
 10
319.3850101820011
 20
13.000000434008225
 10
319.2052854066747
 20
13.000000419459088
 10
318.9898097907158
 20
13.000000419459088
 10
318.80826172189586
 20
13.000000404690361
 10
317.7269264809433
 20
13.00000040469036
 10
317.4814683937558
 20
13.000000419459088
 10
317.05050910316265
 20
13.000000419459088
 10
316.8086099999356
 20
13.000000434008225
 10
316.61955788275753
 20
13.000000419459088
 10
316.3792052782654
 20
13.000000434008225
 10
316.16450693983944
 20
13.000000434008225
 10
315.92647585399203
 20
13.00000044856379
 10
315.7351062454354
 20
13.000000434008225
 10
315.4986323993204
 20
13.00000044856379
 10
315.2640235179738
 20
13.000000462903285
 10
314.95293060482464
 20
13.000000533409857
 10
314.79967115885324
 20
13.000000491385395
 10
314.6429415768278
 20
13.000000448563808
 10
314.575255348587
 20
13.000000329551227
 10
314.44678048015174
 20
13.000000251446137
 10
314.258282461545
 20
13.000000219393929
 10
313.9309049425961
 20
13.00000031411577
 10
313.5587703271955
 20
13.00000046290329
 10
313.25137981627955
 20
13.000000560898107
 10
313.08108848719723
 20
13.0000005194653
 10
312.88286787633405
 20
13.000000505529423
 10
312.68332111207627
 20
13.000000491385391
 10
312.26005110045463
 20
13.000000491385391
 10
312.0393484333223
 20
13.000000505529423
 10
311.82847104448496
 20
13.000000505529423
 10
311.6101445250653
 20
13.000000519465297
 10
311.39330483563174
 20
13.00000053340986
 10
311.18987680476135
 20
13.000000519465297
 10
310.3493354391983
 20
13.000000519465297
 10
310.13696563741024
 20
13.00000053340986
 10
309.9290677139965
 20
13.000000519465297
 10
309.7189308938711
 20
13.000000519465297
 10
309.5087940737415
 20
13.000000547148785
 10
263.60527940217867
 20
13.000000547148785
 10
263.60527841200053
 20
13.000000476831872
 10
263.15870187023063
 20
13.000000547148785
 10
262.9948196047231
 20
13.00000053340986
 10
262.7413920818739
 20
13.000000547148785
 10
262.57603987203225
 20
13.00000053340986
 10
260.69153499142783
 20
13.00000053340986
 10
260.51864727853115
 20
13.000000519465297
 10
260.09837954538943
 20
13.000000519465297
 10
259.9224904953134
 20
13.000000505529423
 10
259.50073373533195
 20
13.000000505529423
 10
259.3223448122406
 20
13.000000491385391
 10
259.11070782530095
 20
13.000000491385391
 10
258.9300375530473
 20
13.000000477250662
 10
258.08047498649705
 20
13.000000477250662
 10
257.8956789064414
 20
13.000000462903285
 10
257.25620896520064
 20
13.000000462903285
 10
257.06757086416235
 20
13.00000044856379
 10
256.87775248016214
 20
13.000000434008225
 10
256.66305413648365
 20
13.000000434008225
 10
256.47089490036603
 20
13.000000419459088
 10
255.82446200545533
 20
13.000000419459088
 10
255.58955237882134
 20
13.000000434008225
 10
255.3561870475397
 20
13.00000044856379
 10
254.92834360311375
 20
13.00000044856379
 10
254.73075098877425
 20
13.000000434008225
 10
254.51604862660207
 20
13.000000434008225
 10
254.3161165860492
 20
13.000000419459088
 10
253.88516535720598
 20
13.000000419459088
 10
253.68230788812684
 20
13.000000404690361
 10
253.46604326454423
 20
13.00000040469036
 10
253.23873145198158
 20
13.000000419459088
 10
253.01314817797814
 20
13.000000434008225
 10
252.78911734051997
 20
13.00000044856379
 10
252.57519462273723
 20
13.00000044856379
 10
252.37681994055413
 20
13.000000419459088
 10
251.94586467277335
 20
13.000000419459088
 10
251.73591215656157
 20
13.000000404690361
 10
251.3033768455117
 20
13.00000040469036
 10
251.09026670394348
 20
13.00000038992903
 10
250.65615415231338
 20
13.00000038992903
 10
250.43990058974472
 20
13.000000374942003
 10
204.44235097730655
 20
13.000000374942003
 10
204.27331295334346
 20
13.000000359962115
 10
203.1800338594424
 20
13.000000359962115
 10
202.91735842471834
 20
13.000000374942003
 10
202.74271936600806
 20
13.000000359962115
 10
202.08675272578367
 20
13.000000359962115
 10
201.74861527531962
 20
13.000000404690358
 10
201.64943825974063
 20
13.000000359962122
 10
201.43078200237565
 20
13.000000359962115
 10
201.25031351864723
 20
13.000000344754046
 10
200.59190738467
 20
13.000000344754046
 10
200.40736364515618
 20
13.000000329551112
 10
199.96680180404573
 20
13.000000329551112
 10
199.77950588778043
 20
13.000000314115766
 10
199.5584008578521
 20
13.000000314115766
 10
199.36862168095925
 20
13.000000298684812
 10
198.70283290790073
 20
13.000000298684812
 10
198.5093618467977
 20
13.000000283017055
 10
197.61829393442812
 20
13.000000283017055
 10
197.41979751663874
 20
13.000000267352009
 10
196.74898588795395
 20
13.000000267352009
 10
196.54662662293606
 20
13.000000251446123
 10
195.1999045243877
 20
13.000000251446123
 10
194.99074498686434
 20
13.000000235542498
 10
194.5401386808765
 20
13.000000235542498
 10
194.28934377804123
 20
13.000000267352009
 10
194.07763685836164
 20
13.000000251446123
 10
193.86422857709607
 20
13.000000235542498
 10
193.63892555598267
 20
13.000000235542498
 10
193.42311230625285
 20
13.000000219393927
 10
193.19694655570513
 20
13.000000219393927
 10
192.9785438462793
 20
13.000000203247135
 10
192.75151532824069
 20
13.000000203247135
 10
192.51844837948502
 20
13.000000219393927
 10
192.28710599350347
 20
13.000000235542496
 10
192.0661163660351
 20
13.000000219393927
 10
191.84340095170913
 20
13.000000203247135
 10
191.61900042531292
 20
13.000000186850263
 10
146.234421961055
 20
13.000000186850263
 10
146.06170519108883
 20
13.000000170453326
 10
144.460241189117
 20
13.000000170453326
 10
144.28038836885332
 20
13.000000153801887
 10
144.00268017487556
 20
13.000000170453326
 10
142.62999688372517
 20
13.000000170453326
 10
142.36004438833115
 20
13.000000186850263
 10
140.99261681506684
 20
13.000000186850263
 10
140.79975205291626
 20
13.000000170453326
 10
139.88463003260347
 20
13.000000170453326
 10
139.68698465684292
 20
13.000000153801887
 10
138.53863402494912
 20
13.000000153801887
 10
138.28316502506513
 20
13.000000170453326
 10
138.05438545987408
 20
13.000000170453326
 10
137.80195236749043
 20
13.000000186850263
 10
137.55127238745752
 20
13.000000203247135
 10
137.34614469626723
 20
13.000000186850263
 10
133.2438611539823
 20
13.000000186850263
 10
133.01070160316652
 20
13.000000203247135
 10
132.32961461021955
 20
13.000000203247135
 10
132.10433795491628
 20
13.000000186850263
 10
85.80814343357216
 20
13.000000186850263
 10
85.52943106528312
 20
13.000000203247135
 10
79.8537159976693
 20
13.000000203247135
 10
79.59908521956393
 20
13.000000219393927
 10
79.37292132948528
 20
13.000000219393927
 10
79.1726343173647
 20
13.000000203247135
 10
78.92058295295857
 20
13.000000219393927
 10
78.71857490196894
 20
13.000000203247135
 10
78.4915441259212
 20
13.000000203247135
 10
78.24208491664177
 20
13.000000219393927
 10
78.03748896601905
 20
13.000000203247135
 10
77.7897550092159
 20
13.000000219393927
 10
77.58342742586359
 20
13.000000203247135
 10
77.12937225685096
 20
13.000000203247135
 10
76.91986137766727
 20
13.000000186850263
 10
76.6753170858068
 20
13.000000203247135
 10
75.31314309184225
 20
13.000000203247135
 10
75.07576286151077
 20
13.000000219393927
 10
74.62343083983359
 20
13.000000219393927
 10
74.38950237616501
 20
13.000000235542498
 10
74.15740195724709
 20
13.000000251446123
 10
73.9269978915463
 20
13.000000267352009
 10
73.70339611429996
 20
13.000000267352009
 10
73.48404105139812
 20
13.000000251446123
 10
73.25958530648887
 20
13.000000251446123
 10
73.0325844830243
 20
13.000000267352009
 10
72.58537464523717
 20
13.000000267352009
 10
72.3617728572508
 20
13.000000251446123
 10
26.991130938980653
 20
13.000000251446123
 10
26.71484595140755
 20
13.000000267352009
 10
26.542225768935864
 20
13.000000251446123
 10
26.3678989338438
 20
13.000000235542498
 10
25.917294471753586
 20
13.000000235542498
 10
25.64441120456194
 20
13.000000251446123
 10
24.746596651554626
 20
13.000000251446123
 10
24.478807195114037
 20
13.000000267352009
 10
24.255203325175355
 20
13.000000267352009
 10
24.073235741684
 20
13.000000251446123
 10
23.84878420022529
 20
13.000000251446123
 10
23.664263767522097
 20
13.000000235542498
 10
23.438958370513127
 20
13.000000235542498
 10
23.137183941604135
 20
13.000000267352009
 10
20.901147285481933
 20
13.000000267352009
 10
20.64908472284893
 20
13.000000283017055
 10
20.42631983566726
 20
13.000000283017055
 10
20.230339851058858
 20
13.000000267352009
 10
18.88871240797343
 20
13.000000267352009
 10
18.644184011751534
 20
13.000000283017055
 10
17.084813088152405
 20
13.000000283017055
 10
16.847818517034863
 20
13.000000298684812
 10
13.518871554373229
 20
13.000000298684812
 10
13.293670047380886
 20
13.000000359962103
 10
13.072336693370064
 20
13.000000117303045
 10
13.066623478494327
 20
13.00040815632837
 10
13.061439672144136
 20
13.001205744077636
 10
13.05356234616277
 20
13.002893789992969
 10
13.044709001664735
 20
13.00629879306122
 10
13.03930833780544
 20
13.00899917333626
 10
13.03395581102976
 20
13.012121528537413
 10
13.029171614134881
 20
13.01560091048229
 10
13.021713995262326
 20
13.021702611892254
 10
13.015612597464983
 20
13.029159859683523
 10
13.01213298157225
 20
13.03394424977155
 10
13.009010019569956
 20
13.039297912611097
 10
13.006310417088194
 20
13.04469731091434
 10
13.002905422869606
 20
13.053549798461498
 10
13.0012168735314
 20
13.061429473683516
 10
13.000419453295137
 20
13.066613304912135
 10
13.000011503605696
 20
13.072325268939117
 10
13.000011503605696
 20
66.44271468300983
 10
13.00001169748584
 20
67.50353427975321
 10
13.000011682054886
 20
67.70752037011707
 10
13.00001169748584
 20
68.03418013426541
 10
13.000011697485
 20
68.29950597452228
 10
13.000011697485
 20
68.83016435698082
 10
13.00001169748626
 20
69.09549824256604
 10
13.00001169748626
 20
69.36081907412888
 10
13.000011712921186
 20
69.68057192539027
 10
13.000011712921186
 20
70.73791786067177
 10
13.000011728124539
 20
71.05099130264298
 10
13.000011728124539
 20
71.57771228020428
 10
13.000007620117886
 20
71.84107658535555
 10
13.000007620108763
 20
72.10444264530324
 10
13.000007650524061
 20
72.4116681277836
 10
13.000011743332218
 20
72.67405863490397
 10
13.000011758312498
 20
72.9777442782137
 10
13.000011758312498
 20
73.2391738135137
 10
13.00001174333219
 20
73.46122782266778
 10
13.00001171292119
 20
73.64562431513306
 10
13.000011650722517
 20
73.75445065699641
 10
13.000011602764426
 20
73.90593598764183
 10
13.000011650722504
 20
74.2910966053827
 10
13.000011773299523
 20
74.84232386555288
 10
13.000011802829581
 20
75.16905295668451
 10
13.000011802829581
 20
75.42761841961388
 10
13.000011817379107
 20
75.71697510107728
 10
13.000011831934673
 20
76.00447462864778
 10
13.000011831934673
 20
76.26118024467996
 10
13.000011846274136
 20
76.54547073292815
 10
13.000011860621123
 20
76.82793059467043
 10
13.000011902835759
 20
77.15857510155521
 10
13.000011902835759
 20
77.4107353143813
 10
13.000011888899884
 20
77.63966856158041
 10
13.000011902835759
 20
77.9150616588002
 10
13.000011902835759
 20
78.67154427839193
 10
13.00001187475666
 20
78.88590557509133
 10
13.000011860621123
 20
79.12174152796831
 10
13.000011846274136
 20
79.35913629542924
 10
13.000011860621123
 20
79.63147861657617
 10
13.000011817379109
 20
79.8392193669157
 10
13.000011817379107
 20
80.09685814331812
 10
13.000011831933865
 20
80.36849338749542
 10
13.000011831933865
 20
81.65202974048967
 10
13.000011846273747
 20
81.91701331992161
 10
13.000011846273747
 20
82.42858944694368
 10
13.000007885109804
 20
82.6898919223074
 10
13.000007885101185
 20
83.19963019989069
 10
13.000007913372228
 20
83.45721943131514
 10
13.000007913372228
 20
139.3636082028521
 10
13.000007941658708
 20
139.6737908422639
 10
13.000007941658708
 20
140.68600941879447
 10
13.000007913372228
 20
140.88738229003502
 10
13.000007913372228
 20
141.14134663088186
 10
13.000007913373002
 20
141.39530838311552
 10
13.000007941659483
 20
141.69823133479338
 10
13.000007941659483
 20
141.95128693433614
 10
13.000007913373004
 20
142.15719138483425
 10
13.000007941659483
 20
142.4573981592805
 10
13.000007941659483
 20
144.48183709993287
 10
13.000007969531232
 20
144.77241635257823
 10
13.000007941659483
 20
144.98794830649538
 10
13.000007941659483
 20
145.24100392432467
 10
13.000007969531232
 20
145.52890290604992
 10
13.000007913373006
 20
145.71265797270158
 10
13.000007969532009
 20
146.03322624445303
 10
13.000007969532009
 20
147.79835842107903
 10
13.000007997421132
 20
148.07644693643354
 10
13.000007997421132
 20
148.32771609476444
 10
13.00000802489892
 20
148.60276370865245
 10
13.00000802489892
 20
149.35392294180812
 10
13.0000080248974
 20
149.6043101823597
 10
13.0000080248974
 20
150.10508408124832
 10
13.000008052396051
 20
150.37310171154422
 10
13.000008052396051
 20
151.12161768378422
 10
13.0000080248974
 20
151.35701735509937
 10
13.0000080248974
 20
152.85933906052512
 10
13.000008024898175
 20
153.10972867101418
 10
13.000008024898175
 20
153.36011510780747
 10
13.000008052396794
 20
153.61667275611273
 10
13.000008079491177
 20
153.87138874846383
 10
13.000008079491177
 20
154.36866266597417
 10
13.000008052396794
 20
154.61469459870682
 10
13.000008052396794
 20
210.5389662357342
 10
13.000008052397568
 20
210.7884732298505
 10
13.000008052397568
 20
212.03600043208516
 10
13.000008079491177
 20
212.33500910476099
 10
13.000008106608943
 20
212.63232414403666
 10
13.000008079491177
 20
212.83228349825947
 10
13.000008079490433
 20
213.0809186846792
 10
13.000008079490433
 20
215.3186527743533
 10
13.000008052396794
 20
215.52907673674835
 10
13.000008052396794
 20
217.51413869845547
 10
13.000007336794214
 20
217.51414814145858
 10
13.000007369388591
 20
217.8225462211641
 10
13.00000770434783
 20
218.38258871887783
 10
13.0
 20
218.38269716220674
  0
LWPOLYLINE
  5
8F
330
17
100
AcDbEntity
  8
CORTE
100
AcDbPolyline
 90
736
 70
1
 10
20.8718517313995
 20
19.999998615115796
 10
21.214191249448707
 20
19.999998593184714
 10
23.092469184006294
 20
19.999998593184717
 10
23.366841434258887
 20
19.99999861511581
 10
23.678712713221934
 20
19.9999986151158
 10
24.031600085877802
 20
19.999998593184714
 10
27.16205192322763
 20
19.999998593184678
 10
27.58453575979621
 20
19.99999854865142
 10
27.899962633009693
 20
19.99999854865142
 10
28.15829154472096
 20
19.9999985709165
 10
28.472523404395496
 20
19.9999985709165
 10
28.727278319340126
 20
19.999998593184714
 10
29.040324155327482
 20
19.999998593184703
 10
29.4152291841511
 20
19.9999985709165
 10
30.672169760779795
 20
19.99999857091649
 10
31.054206120598955
 20
19.99999854865142
 10
31.68505184312793
 20
19.99999854865142
 10
31.929109094281838
 20
19.99999857091647
 10
32.17077839995103
 20
19.999998593184703
 10
32.55757715169362
 20
19.999998570916503
 10
72.36177178124524
 20
19.999998570916503
 10
72.67481452118136
 20
19.999998593184714
 10
73.30090878676269
 20
19.9999985931847
 10
73.61870969770351
 20
19.9999985709165
 10
73.93294723839011
 20
19.9999985709165
 10
74.24004457769385
 20
19.999998593184714
 10
74.55308755140211
 20
19.9999985931847
 10
74.87565324081379
 20
19.999998570916482
 10
75.2005938308959
 20
19.9999985486514
 10
75.52809343350398
 20
19.9999985260434
 10
76.16135850200502
 20
19.999998526043385
 10
76.49369058865908
 20
19.999998503437904
 10
78.40073440947177
 20
19.999998503437887
 10
78.7430959035448
 20
19.99999848048229
 10
79.03641117784375
 20
19.999998503437904
 10
79.67208813740893
 20
19.999998503437904
 10
79.96094748782093
 20
19.999998526043385
 10
80.30777452214056
 20
19.999998503437922
 10
80.59420935516349
 20
19.999998526043385
 10
80.94345202879848
 20
19.999998503437904
 10
81.26129459760179
 20
19.999998503437904
 10
81.5441066012001
 20
19.999998526043385
 10
81.89697800021406
 20
19.999998503437922
 10
82.17737987924133
 20
19.9999985260434
 10
82.49400977096676
 20
19.999998526043385
 10
82.85049263549203
 20
19.999998503437904
 10
90.79649392309679
 20
19.999998503437894
 10
91.18669104152269
 20
19.99999848048227
 10
132.28666098780582
 20
19.99999848048227
 10
132.60204855980754
 20
19.999998503437904
 10
133.5555708443362
 20
19.999998503437887
 10
133.88199396160383
 20
19.99999848048227
 10
139.6251904080729
 20
19.99999848048227
 10
139.91236990645027
 20
19.999998503437887
 10
140.2633218774731
 20
19.999998480482255
 10
140.6167279724097
 20
19.999998457526573
 10
140.93701959841962
 20
19.99999845752656
 10
141.29467596588492
 20
19.999998434214568
 10
142.90236631830058
 20
19.999998434214568
 10
143.1790701507183
 20
19.999998457526573
 10
144.46024067527244
 20
19.999998457526573
 10
144.73025164596942
 20
19.99999848048227
 10
146.64465067610132
 20
19.999998480482258
 10
147.022583964028
 20
19.999998457526573
 10
148.94434077176905
 20
19.99999845752656
 10
149.33313169640593
 20
19.99999843421459
 10
149.58492576971437
 20
19.999998457526573
 10
151.8269750339244
 20
19.999998457526573
 10
152.06877885038134
 20
19.99999848048227
 10
191.892485656362
 20
19.99999848048227
 10
192.20664614206476
 20
19.999998503437887
 10
192.51844771808365
 20
19.999998526043385
 10
192.8278341987196
 20
19.9999985486514
 10
193.1517135376589
 20
19.999998526043385
 10
193.4780070202546
 20
19.999998503437904
 10
193.79584643668375
 20
19.999998503437904
 10
194.1016104966903
 20
19.9999985260434
 10
194.41824228320283
 20
19.999998526043402
 10
194.72038109658808
 20
19.99999854865142
 10
195.03580506559166
 20
19.99999854865142
 10
195.33457639287585
 20
19.999998570916482
 10
195.63096749729525
 20
19.999998593184657
 10
195.9820799122451
 20
19.99999854865142
 10
196.61292802340506
 20
19.99999854865142
 10
196.90575165255666
 20
19.9999985709165
 10
198.7911623213737
 20
19.9999985709165
 10
199.07446556107516
 20
19.999998593184714
 10
200.01360156919935
 20
19.999998593184717
 10
200.2914968261961
 20
19.99999861511581
 10
201.53899162071266
 20
19.99999861511581
 10
201.80985138920965
 20
19.99999863705062
 10
202.74195538508337
 20
19.99999863705062
 10
203.00764651888792
 20
19.999998658653993
 10
203.31719327387256
 20
19.999998658653993
 10
203.57940784358004
 20
19.999998680263474
 10
204.19619413451997
 20
19.999998680263474
 10
204.45455565645528
 20
19.999998701547554
 10
205.37632394814307
 20
19.999998701547554
 10
205.62898012139354
 20
19.999998722838868
 10
205.93509729193573
 20
19.99999872283888
 10
206.0739476259323
 20
19.999998785458356
 10
206.54733960480576
 20
19.999998722838868
 10
207.46569212903077
 20
19.99999872283887
 10
207.71018751280954
 20
19.99999874381072
 10
208.07793291929403
 20
19.999998722838868
 10
209.60852314173405
 20
19.99999872283887
 10
209.84517668623036
 20
19.999998743810732
 10
250.52704311628494
 20
19.999998743810732
 10
250.82979835935697
 20
19.999998764792544
 10
251.43755568936595
 20
19.999998764792544
 10
251.73591012983627
 20
19.99999878545842
 10
252.34145931172966
 20
19.99999878545842
 10
252.63539308795436
 20
19.999998806134663
 10
253.23872994708802
 20
19.999998806134666
 10
253.51645501678118
 20
19.999998846881223
 10
253.81594727990554
 20
19.999998846881205
 10
254.12959044972936
 20
19.999998826503422
 10
254.4454070366786
 20
19.99999880613465
 10
254.76364335359204
 20
19.99999878545842
 10
255.06641334711705
 20
19.99999878545842
 10
255.35041404593719
 20
19.999998806134663
 10
255.95374550015381
 20
19.999998806134663
 10
256.2336506232837
 20
19.999998826503436
 10
256.5342336667772
 20
19.999998826503436
 10
256.8108635903604
 20
19.999998846881223
 10
257.40984485098824
 20
19.99999884688121
 10
257.7365563129089
 20
19.999998826503425
 10
258.06542957323103
 20
19.999998806134663
 10
258.9704351452064
 20
19.999998806134663
 10
259.2394583373181
 20
19.999998826503436
 10
259.54003574671407
 20
19.999998826503436
 10
259.80578122259175
 20
19.9999988468812
 10
260.0698750973249
 20
19.99999886695651
 10
260.9651327449283
 20
19.99999886695651
 10
261.2238475270667
 20
19.999998887042842
 10
262.41323484389574
 20
19.999998887042842
 10
262.6661735014365
 20
19.999998906831458
 10
262.9624650069498
 20
19.999998906831458
 10
263.21220977543237
 20
19.99999892663312
 10
263.8026689638505
 20
19.99999892663312
 10
264.0489139092702
 20
19.999998946143332
 10
264.637288445377
 20
19.999998946143332
 10
264.87933153373325
 20
19.999998965665753
 10
267.51763807250484
 20
19.999998965665753
 10
267.7491318406017
 20
19.9999989849002
 10
268.10392989327863
 20
19.999998965665768
 10
268.33336516672136
 20
19.99999898490021
 10
268.9575098337637
 20
19.99999898490021
 10
309.5087949960288
 20
19.99999898490015
 10
309.80298608364257
 20
19.999998946143332
 10
310.0971769349042
 20
19.999998946143332
 10
310.388234720496
 20
19.99999896566574
 10
310.68555222657477
 20
19.999998946143332
 10
311.86230964648945
 20
19.999998946143332
 10
312.1471095881957
 20
19.99999896566574
 10
312.45068515230855
 20
19.999998946143318
 10
312.75634205494646
 20
19.99999892663312
 10
313.0515706251051
 20
19.999998926633104
 10
313.3605541359858
 20
19.999998906831458
 10
313.9531316777155
 20
19.999998906831458
 10
314.23249690111425
 20
19.999998926633104
 10
314.51000514666254
 20
19.999998946143275
 10
314.74841634402515
 20
19.999999004148904
 10
315.17876363587794
 20
19.999998866955956
 10
315.6997517092642
 20
19.999998658653592
 10
316.1580782269924
 20
19.999998526043576
 10
316.421972298533
 20
19.99999857091615
 10
316.6018315222876
 20
19.999998680259846
 10
316.69659863303787
 20
19.999998846880978
 10
316.9160200632236
 20
19.999998906831195
 10
317.13058680096225
 20
19.99999896566557
 10
317.5661163010225
 20
19.99999886695646
 10
317.8945681602523
 20
19.99999884688121
 10
318.2256310598989
 20
19.999998826503454
 10
318.49354899202365
 20
19.99999884688121
 10
318.8267923089688
 20
19.999998826503436
 10
319.12737018245764
 20
19.999998826503425
 10
319.4638633451996
 20
19.99999880613468
 10
319.72853678929755
 20
19.999998826503425
 10
320.06719532719467
 20
19.999998806134663
 10
320.6705385418067
 20
19.999998806134652
 10
321.0141796563242
 20
19.99999878545842
 10
322.52804849113187
 20
19.99999878545842
 10
322.78221607421114
 20
19.999998806134663
 10
323.0838816540023
 20
19.999998806134663
 10
323.3354970284733
 20
19.999998826503425
 10
323.6872251299076
 20
19.999998806134663
 10
323.98888585323834
 20
19.999998806134627
 10
324.39878650742855
 20
19.999998764792707
 10
324.53781711956873
 20
19.999998826503283
 10
324.7281716127377
 20
19.999998866955796
 10
324.8066128090942
 20
19.99999894614311
 10
325.79337122158626
 20
19.99999870154734
 10
326.8718589755173
 20
19.999998434214454
 10
327.4010676037109
 20
19.99999836354147
 10
327.7263793149056
 20
19.999998363541362
 10
328.4225874934664
 20
19.999998241741714
 10
328.6774942603181
 20
19.999998266566813
 10
329.08623319547877
 20
19.999998241741842
 10
329.1818171634517
 20
19.999998315432187
 10
329.51157151055065
 20
19.999998886159776
 10
361.87055319712096
 20
20.004716047967193
 10
361.8705531972885
 20
20.080599529301267
 10
361.8705648705213
 20
20.56004764882894
 10
361.8705648705213
 20
20.934211111395864
 10
361.8705646550889
 20
21.156517493252736
 10
361.87056428708917
 20
21.252576544241215
 10
361.8705642084664
 20
21.547631918218276
 10
361.8705642084665
 20
21.90066241377344
 10
361.87056424748783
 20
22.28620201387706
 10
361.8705642474879
 20
22.64048321992032
 10
361.87056428708894
 20
23.03030622483803
 10
361.87056424748783
 20
23.349043824567985
 10
361.8705642474877
 20
23.703304318080733
 10
361.8705640165576
 20
23.82811711575379
 10
361.8705640165579
 20
24.17499188676843
 10
361.87056416942266
 20
24.683571993004385
 10
361.8705646550745
 20
25.56463915626292
 10
361.87056478344505
 20
26.07599884897374
 10
361.87056487052155
 20
26.54793755607036
 10
361.87056500344875
 20
27.079830835697233
 10
361.8705645298375
 20
27.24477398875191
 10
361.8705643266678
 20
27.347614956838644
 10
361.87056457116546
 20
28.025747406896972
 10
361.87056408817614
 20
28.28415099890031
 10
361.8705640545225
 20
28.391039827133596
 10
361.87056413095263
 20
28.849376428677374
 10
361.87056413095263
 20
29.19991510827416
 10
361.87056409245355
 20
29.492456939279517
 10
361.8705641949987
 20
30.58338663017224
 10
361.87056420846744
 20
30.726320765057803
 10
361.8705642084675
 20
31.079345697763305
 10
361.8705642474882
 20
31.497412518802847
 10
361.870564488484
 20
32.261114595953714
 10
361.8705646131314
 20
32.838878033350404
 10
361.87056457116853
 20
33.13088893351103
 10
361.870564287217
 20
33.34101610088286
 10
361.87055341039223
 20
33.618017553341815
 10
361.8705640165398
 20
33.887628728432645
 10
361.87056397915217
 20
34.16122108456136
 10
361.870563941714
 20
34.4324933753931
 10
361.87056444774674
 20
35.79887486544543
 10
361.8705653736685
 20
38.05909684759056
 10
361.8705653736874
 20
84.21911548604115
 10
361.8705663536936
 20
84.64090697238103
 10
361.870567120005
 20
85.1118314228701
 10
361.8705689559734
 20
85.73474051278731
 10
361.87057156463067
 20
86.5744214630133
 10
361.8705727187307
 20
87.34820029912902
 10
361.8705738893696
 20
88.19916851989086
 10
361.8705738893696
 20
88.8625113799362
 10
361.8705733524892
 20
89.38810639141488
 10
361.87056885622
 20
89.65132711700514
 10
361.8705636969568
 20
89.75188149492752
 10
361.8705636174705
 20
89.89850398169443
 10
361.870564826655
 20
90.93026638464818
 10
361.87056624318313
 20
92.16583261548695
 10
361.87056798132267
 20
93.69838791618125
 10
361.8705692823067
 20
95.04810304983292
 10
361.87056988754694
 20
95.9905921869101
 10
361.87057178439574
 20
97.92412181195863
 10
361.87057296717074
 20
99.42991581417223
 10
361.87057402756227
 20
100.91346401588802
 10
361.8705776316084
 20
104.58492291459228
 10
361.8705792720934
 20
106.78803133351818
 10
361.87057949364305
 20
107.8227587901246
 10
361.8705797172125
 20
108.87356867209982
 10
361.87057994642424
 20
109.9441512242681
 10
361.8705804150689
 20
111.2673435998176
 10
361.87058041506884
 20
113.01238585237391
 10
361.87057994654265
 20
113.37403003654867
 10
361.8705634118325
 20
113.85677605285207
 10
361.87056341183234
 20
113.90405838404055
 10
361.8705531986564
 20
114.23187720938375
 10
361.87056341186883
 20
114.55926162562321
 10
361.8705634118689
 20
155.69070421438286
 10
361.87056344543913
 20
156.0203481586749
 10
361.87056344543913
 20
157.00605050214446
 10
361.8705634118689
 20
157.32816185582047
 10
361.87056337826044
 20
157.64811161346935
 10
361.87056327925694
 20
157.94913543447078
 10
361.870563086663
 20
158.2168183585067
 10
361.87056308666416
 20
158.53388778150745
 10
361.87056318190764
 20
158.88453812143007
 10
361.8705632792571
 20
159.2421046507824
 10
361.8705633119574
 20
159.57897210313809
 10
361.8705633782603
 20
159.93301475987423
 10
361.87056334513073
 20
160.24349861019638
 10
361.87056331195754
 20
160.55183917353622
 10
361.8705634118708
 20
160.93057461084936
 10
361.8705634454401
 20
161.2774341663626
 10
361.87056351351015
 20
161.64745967126646
 10
361.8705635135102
 20
161.97820847642325
 10
361.8705635480237
 20
162.33219093593576
 10
361.870563582494
 20
162.68835777308985
 10
361.8705638315022
 20
163.20489773923939
 10
361.87056358249333
 20
163.35427790275054
 10
361.8705636524021
 20
163.74326142039772
 10
361.8705636878496
 20
164.10800550243894
 10
361.87056372325816
 20
164.47498898156098
 10
361.8705637591895
 20
164.8447117518358
 10
361.8705637950831
 20
165.2167028400253
 10
361.8705638315052
 20
165.59150345492506
 10
361.8705638678958
 20
165.9686075775228
 10
361.87056390482184
 20
166.34859404036936
 10
361.8705639417126
 20
166.73091038383149
 10
361.8705639791521
 20
167.11618942214082
 10
361.87056397915217
 20
168.84456903713283
 10
361.87056401655764
 20
169.23820580430476
 10
361.87056405452233
 20
169.6349742513406
 10
361.8705640165577
 20
169.9319553999154
 10
361.8705640924535
 20
170.38344183806794
 10
361.8705640924542
 20
170.73275204428646
 10
361.87056452983563
 20
171.71296440675394
 10
361.8705640896432
 20
173.04804869855752
 10
361.8705641309528
 20
173.24084243688446
 10
361.8705642474572
 20
173.78555967776543
 10
361.8705531952137
 20
174.34267048023665
 10
361.8705531975201
 20
237.2281264682775
 10
361.87056523055134
 20
237.69687202624092
 10
361.8705531952137
 20
238.31113690114447
 10
361.870553198514
 20
299.2443778362795
 10
361.8705656669297
 20
299.65041662476483
 10
361.8705656668932
 20
300.04998003487265
 10
361.8705531952137
 20
300.44985955599196
 10
361.8705531986199
 20
315.6758725424947
 10
361.8705659746702
 20
316.0854100026521
 10
361.87056597463373
 20
316.9044657527584
 10
361.8705532170463
 20
317.3134102159936
 10
361.86164376171996
 20
361.8705309419603
 10
361.5371686412564
 20
361.8705309419603
 10
361.15985200688897
 20
361.8705309689049
 10
358.73031524094955
 20
361.8705309689049
 10
358.4264317013168
 20
361.8705309419603
 10
358.03615979697594
 20
361.8705309689049
 10
357.73515011314765
 20
361.8705309419603
 10
356.6982425508476
 20
361.8705309419603
 10
356.55644798795345
 20
361.87053083597095
 10
355.9536981038361
 20
361.87053096890503
 10
355.3822768446652
 20
361.8705310794121
 10
354.60671512858494
 20
361.8705312822311
 10
354.3066546085092
 20
361.8705312524002
 10
354.06916926714405
 20
361.87053086744805
 10
353.65080451265186
 20
361.8705309150284
 10
353.3703156391365
 20
361.87053088852787
 10
352.6847512190228
 20
361.87053088852787
 10
352.40522969586453
 20
361.8705307270271
 10
351.0708390313971
 20
361.870531107738
 10
350.15955490641073
 20
361.87053131209217
 10
349.4535542968798
 20
361.87053143469115
 10
348.9033133932102
 20
361.8705314976528
 10
348.2489348635081
 20
361.8705315943842
 10
347.95961428250314
 20
361.8705308004232
 10
347.80340664490734
 20
361.87053080991234
 10
347.3771146411221
 20
361.8705308359708
 10
347.1262343098536
 20
361.87053080991234
 10
309.1702135124721
 20
361.87053080991234
 10
308.82884282262154
 20
361.8705308359708
 10
308.48469009425014
 20
361.870530862038
 10
308.1488957915174
 20
361.8705308359708
 10
307.80891779385513
 20
361.8705308359708
 10
307.47729800276176
 20
361.87053080991234
 10
306.80012897121395
 20
361.87053080991234
 10
306.4738793599641
 20
361.87053078426777
 10
306.15036225490684
 20
361.8705307586295
 10
305.79944882740415
 20
361.87053078426777
 10
304.4506004252095
 20
361.87053078426777
 10
304.13530208762205
 20
361.8705307586295
 10
303.4636157659715
 20
361.8705307586295
 10
303.15338292456835
 20
361.8705307333953
 10
302.14989753555255
 20
361.8705307333953
 10
301.8464065030998
 20
361.8705307081678
 10
300.513813900034
 20
361.8705307081678
 10
300.2549441478376
 20
361.8705306585126
 10
298.6024740950674
 20
361.8705306585126
 10
298.31636873096465
 20
361.8705306340763
 10
296.999612335535
 20
361.8705306340763
 10
296.72133281546485
 20
361.8705306096419
 10
296.3934465006934
 20
361.8705306096419
 10
296.11825317236463
 20
361.8705305855867
 10
295.84562026144255
 20
361.8705305615373
 10
295.57470595029383
 20
361.87053053785706
 10
295.3063094392971
 20
361.8705305141803
 10
294.9266042962891
 20
361.87053053785706
 10
293.9544583684793
 20
361.87053053785706
 10
293.6923905251639
 20
361.8705305141803
 10
293.3696107708355
 20
361.8705305141803
 10
292.98231487892104
 20
361.87053053785706
 10
292.72404193852736
 20
361.8705305141803
 10
292.4012603837709
 20
361.8705305141803
 10
292.2129919521263
 20
361.87053046755227
 10
291.8241962821264
 20
361.8705304908662
 10
291.50265690513595
 20
361.8705304908662
 10
291.25211250873923
 20
361.87053046755227
 10
290.93182216530334
 20
361.87053046755227
 10
290.75624468921893
 20
361.87053042164115
 10
290.58333469514565
 20
361.8705303764275
 10
290.2679117167222
 20
361.8705303764275
 10
290.02622974374145
 20
361.87053035416375
 10
289.7869466536967
 20
361.8705303318949
 10
250.22204704886428
 20
361.8705303318949
 10
249.9101684642156
 20
361.8705303099638
 10
249.2864244763996
 20
361.8705303099638
 10
248.97923832136968
 20
361.87053028802836
 10
248.6743094827285
 20
361.8705302664256
 10
248.05521169344178
 20
361.8705302664256
 10
247.7549024257783
 20
361.87053024481554
 10
247.44650540672836
 20
361.87053024481554
 10
247.14948375189866
 20
361.87053022353206
 10
246.53497247488068
 20
361.87053022353206
 10
246.21293218666256
 20
361.8705302448155
 10
245.92045922675814
 20
361.87053022353206
 10
244.69143666115065
 20
361.87053022353206
 10
244.40579121329816
 20
361.8705302022402
 10
243.79355592040952
 20
361.8705302022402
 10
243.5120836860786
 20
361.87053018126886
 10
242.90208819482808
 20
361.87053018126886
 10
242.56908118603369
 20
361.8705302022402
 10
242.2629620973605
 20
361.8705302022402
 10
241.9870946068965
 20
361.87053018126886
 10
241.37709866005338
 20
361.87053018126886
 10
241.10572798892844
 20
361.87053016028705
 10
240.83607542520102
 20
361.87053013962174
 10
240.49797314017127
 20
361.87053016028705
 10
240.1940965535601
 20
361.87053016028705
 10
239.85210576161515
 20
361.87053018126886
 10
239.24211096809998
 20
361.87053018126886
 10
238.97858735070173
 20
361.87053016028705
 10
238.63211406095425
 20
361.8705301812688
 10
238.37083387982062
 20
361.87053016028705
 10
234.11655297437773
 20
361.87053016028705
 10
233.87229339821693
 20
361.87053013962174
 10
233.63027438123873
 20
361.87053011894494
 10
233.2667456945584
 20
361.87053013962174
 10
232.66119952116708
 20
361.87053013962174
 10
232.29328854723272
 20
361.87053016028705
 10
231.07778057383766
 20
361.87053016028705
 10
230.8445608305421
 20
361.87053013962174
 10
190.93528623070145
 20
361.87053013962174
 10
190.6314096657634
 20
361.870530160287
 10
190.33194869146232
 20
361.870530118945
 10
190.0236544567201
 20
361.87053016028705
 10
188.80814673141924
 20
361.87053016028705
 10
188.52193796465386
 20
361.87053011894494
 10
188.21032752404392
 20
361.87053013962174
 10
186.69646285530808
 20
361.87053013962174
 10
186.4102600047835
 20
361.87053011894494
 10
186.14342081666467
 20
361.87053007819793
 10
185.8439286596468
 20
361.87053007819793
 10
185.52484062422744
 20
361.87053009857624
 10
185.2242607961151
 20
361.87053009857624
 10
184.94545477556608
 20
361.87053007819793
 10
184.66848464076241
 20
361.87053005812317
 10
184.37006590939754
 20
361.87053005812317
 10
184.09632775006662
 20
361.87053003803624
 10
183.77322717436084
 20
361.87053005812317
 10
183.47480654209417
 20
361.87053005812317
 10
183.1485034857238
 20
361.87053007819793
 10
182.84901106176054
 20
361.87053007819793
 10
182.5190370531002
 20
361.87053009857624
 10
182.1868976746265
 20
361.87053011894494
 10
177.05853281907937
 20
361.87053011894494
 10
176.8080100110862
 20
361.87053009857624
 10
175.30510704326366
 20
361.87053009857624
 10
175.06223010533418
 20
361.87053007819793
 10
174.16375314119978
 20
361.87053007819793
 10
173.80220673242135
 20
361.87053009857624
 10
173.5016287009367
 20
361.87053009857624
 10
173.26527694495158
 20
361.87053007819793
 10
172.06731485317823
 20
361.87053007819793
 10
171.83645989931452
 20
361.87053005812317
 10
130.4548504360507
 20
361.87053005812317
 10
130.16179916447587
 20
361.87053003803624
 10
129.5671046353138
 20
361.87053003803624
 10
129.27822117087604
 20
361.8705300182477
 10
128.9819285801257
 20
361.8705300182477
 10
128.69621948852668
 20
361.8705299984461
 10
128.400989993558
 20
361.8705299984462
 10
128.06749827840912
 20
361.8705300581229
 10
127.83763488175572
 20
361.87052995941394
 10
127.54449009252735
 20
361.87052995941394
 10
127.23569971878854
 20
361.87052997893636
 10
126.64731951638802
 20
361.87052997893636
 10
126.33437273707116
 20
361.87052999844605
 10
126.05894192562423
 20
361.87052997893716
 10
125.45757284153046
 20
361.870530266427
 10
124.39013118797052
 20
361.8705309419609
 10
123.88294372467044
 20
361.87053107941296
 10
122.77547853508045
 20
361.87053169343244
 10
122.3028237704871
 20
361.8705317611829
 10
121.80101789467966
 20
361.870531561763
 10
121.08487152213218
 20
361.870531795669
 10
120.99473112118935
 20
361.870531594403
 10
120.90958034584739
 20
361.8705314037521
 10
120.58880762739636
 20
361.8705313728497
 10
120.11288912536148
 20
361.8705300182477
 10
120.09326825666503
 20
361.8705300182477
 10
119.96380447372545
 20
361.8705299401795
 10
119.37957161105814
 20
361.8705299401795
 10
119.1752397871538
 20
361.87052990196446
 10
118.59508997272445
 20
361.87052990196446
 10
118.35165832948272
 20
361.8705298829825
 10
118.01493052520607
 20
361.87052990196446
 10
117.72486035464959
 20
361.87052990196446
 10
117.4844719395337
 20
361.8705298829825
 10
117.24536922950568
 20
361.8705298642782
 10
116.90634667264263
 20
361.87052988298245
 10
116.66924651411037
 20
361.8705298642782
 10
116.43418342088714
 20
361.87052984556004
 10
115.57299449047929
 20
361.87052984556004
 10
115.34210516993988
 20
361.8705298271131
 10
114.76995044475035
 20
361.8705298271131
 10
114.54305008721417
 20
361.8705298086516
 10
72.36177183751938
 20
361.8705298086516
 10
72.07569194872417
 20
361.87052982711305
 10
71.79158424402948
 20
361.8705298086516
 10
71.50649779334935
 20
361.8705298086516
 10
71.21745901614246
 20
361.87052982711305
 10
70.93631019523339
 20
361.8705298086516
 10
70.0810375842816
 20
361.8705298086517
 10
69.76920028219541
 20
361.8705298642782
 10
69.47114467630092
 20
361.8705298829825
 10
69.18208324798053
 20
361.8705298829825
 10
68.91701208650633
 20
361.87052984556004
 10
68.64276242905942
 20
361.8705298271131
 10
68.34288270934661
 20
361.87052984556055
 10
67.93330365549447
 20
361.87052999844576
 10
67.68788323496494
 20
361.87052994017967
 10
67.44770719208809
 20
361.87052988298257
 10
67.12215278220776
 20
361.8705299209305
 10
66.81152310791774
 20
361.87052994018063
 10
66.0532753742397
 20
361.8705303764285
 10
65.33736804255821
 20
361.8705307333954
 10
64.9732170987212
 20
361.8705307586294
 10
64.5233985323385
 20
361.8705305855879
 10
63.26634944677399
 20
361.8705312822321
 10
61.99388053308352
 20
361.87053193639696
 10
60.878160733631354
 20
361.87053243343007
 10
60.20365461958055
 20
361.87053260000994
 10
49.34787636718918
 20
361.8705310525319
 10
20.000009639486066
 20
361.81241705989487
 10
20.000009649937574
 20
361.6568383109444
 10
20.000009648949455
 20
361.26014242956643
 10
20.00000351263757
 20
360.8949375990966
 10
20.000003657685426
 20
360.59762287733304
 10
20.000003705044676
 20
360.24064042327586
 10
20.00000375240077
 20
359.8866918106771
 10
20.00000379902894
 20
359.5352312505493
 10
20.00000384565553
 20
359.1867466432067
 10
20.00000389156434
 20
358.84066501759304
 10
20.000003937475704
 20
358.49751582563283
 10
20.000003937475714
 20
358.1161059420861
 10
20.000004072432773
 20
357.86014762664394
 10
20.000004116970384
 20
357.5259006321558
 10
20.000004204701078
 20
357.23742244372653
 10
20.00000424790891
 20
356.9089006805633
 10
20.00000433369523
 20
356.6281886128036
 10
20.000004501515683
 20
356.442378197833
 10
20.00000462436225
 20
356.21687467232545
 10
20.00000466451398
 20
355.9038196194207
 10
20.00000466451398
 20
355.1876133087236
 10
20.000004744264675
 20
354.9292100500553
 10
20.000004822886197
 20
354.67447030090466
 10
20.00000490040019
 20
354.42331924442345
 10
20.000004938899366
 20
354.12460811739805
 10
20.00000497683043
 20
353.82758214433187
 10
20.000005014795228
 20
353.5330335037582
 10
20.000005089639895
 20
353.29411485586417
 10
20.00000478386559
 20
352.4987721949882
 10
20.000004460184755
 20
351.6568495492955
 10
20.000004376278543
 20
351.16310123320756
 10
20.000005199848825
 20
350.6596301158276
 10
20.000005199848825
 20
349.70271701278455
 10
20.00000523627283
 20
349.42837428203364
 10
20.000010536205657
 20
349.0885494057794
 10
20.000010553300797
 20
348.8165475920039
 10
20.00000527217182
 20
348.47797381851706
 10
20.00000530809588
 20
348.2096602280643
 10
20.00000530809588
 20
347.8721894953898
 10
20.00000534350645
 20
347.6062275160532
 10
20.00000534350645
 20
296.97874069775617
 10
20.000005378952007
 20
296.64581541141183
 10
20.000005378952007
 20
295.9754158933321
 10
20.000005413888328
 20
295.64693219597797
 10
20.000005413888328
 20
294.9787642327542
 10
20.000005413886388
 20
294.6446783867596
 10
20.000005413885795
 20
292.3061015266771
 10
20.000005236272056
 20
291.8752374514173
 10
20.000005413886388
 20
291.6379414882607
 10
20.000005413883983
 20
291.3038530018742
 10
20.000004822882165
 20
290.5908845425199
 10
20.000003212221202
 20
289.1536436763305
 10
20.000002393284905
 20
288.1714724584025
 10
20.000002450959663
 20
287.7830962067555
 10
20.00000267766791
 20
287.52845078940027
 10
20.000002950628577
 20
287.3255133553765
 10
20.00000541389047
 20
287.170415207677
 10
20.00000541389365
 20
286.29267831029705
 10
20.00001060706553
 20
285.91927189736083
 10
20.000005272197413
 20
285.4608835193767
 10
20.000005413886388
 20
285.290382395635
 10
20.00000541388636
 20
284.95630034267907
 10
20.00000537895101
 20
284.5785450721867
 10
20.000005343504483
 20
284.19789496638657
 10
20.00000534350742
 20
283.8615590498476
 10
20.000005343507393
 20
283.1888835883755
 10
20.000005308097847
 20
282.80260330573134
 10
20.00000530809782
 20
281.4527118684187
 10
20.00000527216551
 20
281.0587975784226
 10
20.00000527216548
 20
280.72017433734084
 10
20.000005236271928
 20
280.322869064903
 10
20.00000519984983
 20
279.92238560935635
 10
20.00000516345994
 20
279.51961820094004
 10
20.000004900401652
 20
278.7221676147592
 10
20.00000407243496
 20
276.9119131407063
 10
20.00000436595814
 20
276.6908477464633
 10
20.00000305668337
 20
273.89221347668376
 10
20.000002842949456
 20
273.0783518631724
 10
20.00000172138673
 20
270.5047778632697
 10
20.000000763151185
 20
268.17866055065656
 10
20.000000154640368
 20
266.48615315434665
 10
20.000000075413464
 20
265.82349391077486
 10
19.999999054011568
 20
263.22288204542207
 10
19.99999905400351
 20
226.50730590264413
 10
19.9999981962536
 20
225.94186627049064
 10
19.999997246954713
 20
225.31556636773894
 10
19.99999643405265
 20
224.64152549586518
 10
19.9999956789313
 20
223.922785747451
 10
19.999996554901415
 20
223.41705823585875
 10
19.999997246944552
 20
222.93211108566544
 10
19.99999839409011
 20
222.5937303280181
 10
20.00000159193545
 20
222.39801701959246
 10
20.000002393279352
 20
222.19824274576123
 10
20.000001258391134
 20
221.36717238244026
 10
20.000000154632573
 20
220.47532005659917
 10
19.999998095939354
 20
219.11477452227544
 10
19.999995141984297
 20
217.22048538779632
 10
19.999993665543872
 20
215.84724099529828
 10
19.999993665543872
 20
215.38215275351035
 10
20.000004600738123
 20
215.38199876793013
 10
20.00000398269254
 20
214.34864380234805
 10
20.000004938899423
 20
213.91817983352934
 10
20.000004938899423
 20
211.13778130243858
 10
20.000004976830486
 20
210.84318730021985
 10
20.000004976830486
 20
207.71035957277502
 10
20.000004976831555
 20
207.36227079361788
 10
20.0000050147964
 20
207.08232657800207
 10
20.000004976831526
 20
206.66608552386924
 10
20.00000493890049
 20
206.2474736985071
 10
20.00000493890049
 20
204.50093593597188
 10
20.000004938899423
 20
204.1516261442091
 10
20.000004938899423
 20
154.31528784100934
 10
20.00000497683155
 20
153.97084274976925
 10
20.000004976831512
 20
153.27465851726188
 10
20.000004938899384
 20
152.91805612082555
 10
20.00000490040131
 20
152.55887578930844
 10
20.00000490040131
 20
152.20833515516355
 10
20.000004900400246
 20
151.85778970047895
 10
20.00000490040025
 20
149.75453972355555
 10
20.000004938898357
 20
149.42497977469046
 10
20.00000493889832
 20
148.37705669202757
 10
20.000004900400246
 20
148.00183236623624
 10
20.000004900400246
 20
147.30074927111147
 10
20.000004900402377
 20
146.95020713429662
 10
20.000004900402345
 20
145.89858350687413
 10
20.000004861933498
 20
145.51351719585202
 10
20.000004861933462
 20
145.16174002323663
 10
20.00000482288869
 20
144.77241645750297
 10
20.000004822888584
 20
142.3012305291845
 10
20.000004744266292
 20
141.85243664528272
 10
20.000004822887558
 20
141.59517840964395
 10
20.00000478386717
 20
141.19212017159586
 10
20.00000478386717
 20
140.83784309377535
 10
20.000004822887558
 20
140.5360972383972
 10
20.00000478386717
 20
140.12928662685835
 10
20.000004783867137
 20
137.29507177763458
 10
20.00000474426615
 20
136.8747831111644
 10
20.00000478386717
 20
136.58651672589622
 10
20.000004783867137
 20
136.23223822945198
 10
20.000004744266104
 20
135.80814643137293
 10
20.000004744265006
 20
135.45260029897804
 10
20.000004744265006
 20
135.0970507161134
 10
20.000004783866103
 20
134.8151282041969
 10
20.000004783866075
 20
133.3980215553997
 10
20.000004744265006
 20
132.9637661828116
 10
20.000004744264963
 20
83.15246305122778
 10
20.000004704685544
 20
82.79183850930076
 10
20.000004704694163
 20
82.07825882101449
 10
20.000010250327133
 20
81.71238207043945
 10
20.000010250327122
 20
80.99617488560216
 10
20.000010230251295
 20
80.62519807214977
 10
20.000010230251284
 20
78.82824698396871
 10
20.00001020987464
 20
78.44795784181196
 10
20.000010209874645
 20
78.08726446468455
 10
20.000010270413455
 20
77.79642631411883
 10
20.000010250327694
 20
77.41514746347181
 10
20.00001027041345
 20
77.0827951778466
 10
20.00001029020315
 20
76.75262511285604
 10
20.000010329513955
 20
76.45251860905658
 10
20.000010329513948
 20
75.39344258428895
 10
20.000010310003752
 20
75.00789263741595
 10
20.000010329513955
 20
74.6873860583757
 10
20.0000103295139
 20
74.33436086361039
 10
20.00001027041344
 20
73.87145882291915
 10
20.000010250327673
 20
73.47601528883737
 10
20.00001023025243
 20
73.07800878289098
 10
20.000010230252418
 20
72.71862074201223
 10
20.000010209874635
 20
72.31612140535077
 10
20.00001018950529
 20
71.9110222294486
 10
20.000010189505257
 20
71.54903012265956
 10
20.000010148163025
 20
71.0916084679371
 10
20.000009976555305
 20
70.3198906400807
 10
20.00000990941423
 20
69.78066768350917
 10
20.000009976554782
 20
69.56859066023523
 10
20.000010063633454
 20
69.41623182396796
 10
20.00001010620893
 20
69.15807604479699
 10
20.000010127181387
 20
68.84719995748893
 10
20.00001012718138
 20
68.48119826055543
 10
20.00001010535741
 20
68.05592928431716
 10
20.000004376272166
 20
67.68863705314902
 10
20.000004333696165
 20
67.2585759777275
 10
20.000004333705288
 20
66.88991889847163
 10
20.00001008491824
 20
66.52115404358649
 10
20.000010084918234
 20
65.78374410072553
 10
20.000010063633546
 20
65.34544144694419
 10
20.00001006363354
 20
63.86515697352584
 10
20.00001004202465
 20
63.41750314880509
 10
20.00001004202465
 20
63.046054156886434
 10
20.000010042022872
 20
62.674586717067264
 10
20.000010042022872
 20
61.93166498168139
 10
20.00001004202406
 20
61.56020847421004
 10
20.000010020420707
 20
61.10288523543322
 10
20.000010042023952
 20
60.8173033281572
 10
20.000009770591866
 20
59.332156535668815
 10
20.000009770591866
 20
19.999998615115803
 10
20.8718517313995
 20
19.999998615115796
  0
LWPOLYLINE
  5
90
330
17
100
AcDbEntity
  8
GRABADO
100
AcDbPolyline
 90
868
 70
1
 10
12.999993665543872
 20
215.13391491355966
 10
12.999993665543872
 20
215.84724475845033
 10
12.999995141990162
 20
217.22049460766752
 10
12.999998095947866
 20
219.1147854380776
 10
13.000000154640588
 20
220.4753306485655
 10
13.000001258397047
 20
221.36718149191887
 10
13.00000239328588
 20
222.1982523047804
 10
13.000001591991778
 20
222.3979889373191
 10
13.000000075432828
 20
222.46567353797798
 10
12.999998394284013
 20
222.5936612650601
 10
12.999997246961486
 20
222.93209422514633
 10
12.999996554908543
 20
223.41704824651876
 10
12.999995678924929
 20
223.92278336197091
 10
12.99999643405709
 20
224.64153339898837
 10
12.99999724696111
 20
225.31557589324777
 10
12.999998196261643
 20
225.94187688057087
 10
12.999999054011564
 20
226.50731652137162
 10
12.999999054011564
 20
263.2228834175053
 10
13.000000075414004
 20
265.82349666005604
 10
13.000000154640519
 20
266.4861548313603
 10
13.000000763151712
 20
268.1786632736368
 10
13.000001721387354
 20
270.50478081869244
 10
13.000002842950122
 20
273.0783549137701
 10
13.000003056683797
 20
273.892216027518
 10
13.000004365958906
 20
276.69085102124757
 10
13.000004161909237
 20
276.6908538946036
 10
13.000004072432837
 20
276.91191009396215
 10
13.000004900402384
 20
278.7221708163902
 10
13.000005163460319
 20
279.5196205100582
 10
13.00000519984986
 20
279.9223862418004
 10
13.000005236271958
 20
280.32286970152023
 10
13.000005272165508
 20
280.7201749697383
 10
13.000005272165508
 20
281.058797895638
 10
13.000005308097847
 20
281.4527125069489
 10
13.000005308097847
 20
282.8026036276679
 10
13.000005343507421
 20
283.1888842300516
 10
13.000005343507421
 20
283.8615590498476
 10
13.000005343504483
 20
284.19789530345156
 10
13.000005378951037
 20
284.57854572403386
 10
13.00000541388639
 20
284.95630099004916
 10
13.00000541388639
 20
285.290382395635
 10
13.000005272163564
 20
285.46092134494603
 10
13.000010607539606
 20
285.9193533655625
 10
13.00000541389365
 20
286.2926296123293
 10
13.00000541389047
 20
287.1704152076517
 10
13.00000326896422
 20
287.17044539877855
 10
13.00000295070337
 20
287.3254530408893
 10
13.000002677672098
 20
287.5284429680128
 10
13.000002450960126
 20
287.7830925703607
 10
13.000002393284472
 20
288.1714748576189
 10
13.000003212224467
 20
289.15365051185586
 10
13.000004822886561
 20
290.5908923871526
 10
13.00000541388639
 20
291.30385880438985
 10
13.00000541388639
 20
291.6379414882607
 10
13.000005236270978
 20
291.87523627436093
 10
13.00000541388639
 20
292.306104412265
 10
13.00000541388639
 20
294.6446783868002
 10
13.000005413888328
 20
294.9787642327948
 10
13.000005413888328
 20
295.64693219597797
 10
13.000005378952007
 20
295.9754155246302
 10
13.000005378952007
 20
296.64581541141183
 10
13.000005343506453
 20
296.978740327889
 10
13.000005343506453
 20
347.6062275160532
 10
13.000005308095878
 20
347.87218902369153
 10
13.000005308095878
 20
348.2096602280643
 10
13.000005272164508
 20
348.4780279434246
 10
13.000010554152357
 20
348.8166567791464
 10
13.000010536205675
 20
349.0885489437331
 10
13.00000523628008
 20
349.4283192223732
 10
13.000005199848827
 20
349.7027165516851
 10
13.000005199848825
 20
350.6596301158276
 10
13.000004290727322
 20
350.659644518
 10
13.000004376277571
 20
351.16309610228586
 10
13.000004460184982
 20
351.6568514882073
 10
13.000004783866109
 20
352.49877488616875
 10
13.000005089640414
 20
353.2941175470566
 10
13.00000501479537
 20
353.53303195491094
 10
13.000004976830487
 20
353.82758124209175
 10
13.000004938899423
 20
354.1246072234781
 10
13.00000490040025
 20
354.4233183422333
 10
13.00000482288653
 20
354.67446814045684
 10
13.000004744265008
 20
354.92920788961254
 10
13.000004664513982
 20
355.1876122246267
 10
13.000004664513979
 20
355.90381961942063
 10
13.00000462436231
 20
356.21687377452014
 10
13.00000450151672
 20
356.44237438445475
 10
13.000004333696197
 20
356.6281843827681
 10
13.00000424790905
 20
356.90889915132516
 10
13.000004204701138
 20
357.23742152307267
 10
13.000004116970524
 20
357.5258991040303
 10
13.000004072432834
 20
357.8601466939107
 10
13.000003937475713
 20
358.11610409745475
 10
13.000003937475702
 20
358.49751582563266
 10
13.000003891564404
 20
358.84066408103257
 10
13.000003845655593
 20
359.18674571463475
 10
13.000003799029002
 20
359.53523031396236
 10
13.000003752400831
 20
359.8866908819891
 10
13.00000370504474
 20
360.24063948672
 10
13.000003657685486
 20
360.5976219486746
 10
13.00000351260888
 20
360.89499469991534
 10
13.000009649937576
 20
361.26026004625606
 10
13.000009649937576
 20
361.6568383109444
 10
13.00000962511245
 20
362.0263792060107
 10
13.000003364434923
 20
362.39909814079505
 10
13.000003313969353
 20
362.7746204668807
 10
13.000003108819852
 20
363.0839420950396
 10
13.000003003705764
 20
363.4481142421815
 10
13.00000305668528
 20
363.8798368218878
 10
13.000003108819834
 20
364.3078585522268
 10
13.000003056685282
 20
364.69912127415796
 10
13.00000305668528
 20
365.108753930345
 10
13.00000300370576
 20
365.50481344915744
 10
13.0000029507047
 20
365.90425176788096
 10
13.000002896842458
 20
366.3069351900149
 10
13.000002842951604
 20
366.7130671348279
 10
13.000002896842457
 20
367.1364735783458
 10
13.000002788179838
 20
367.5407934306118
 10
13.000002733375062
 20
367.95552583818545
 10
13.00000273337506
 20
368.37552187958636
 10
13.000002677270619
 20
368.7985695257247
 10
13.000430848888366
 20
368.8038452183006
 10
13.001111074758954
 20
368.80863456968166
 10
13.003025303892827
 20
368.81761845112806
 10
13.0064625607466
 20
368.8260873888707
 10
13.009663235399113
 20
368.8326597403451
 10
13.013320942511793
 20
368.8382389774569
 10
13.020340487210342
 20
368.8478481627325
 10
13.030249371953936
 20
368.8557752705273
 10
13.040684309256918
 20
368.8629617359654
 10
13.053051950885202
 20
368.86731515092026
 10
13.065385687429437
 20
368.87053105154394
 10
49.34094525294324
 20
368.87053105154394
 10
49.34095318883209
 20
368.87053260001005
 10
60.20365491269684
 20
368.87053260001005
 10
60.87816329003453
 20
368.8705324334296
 10
61.99388393604729
 20
368.87053193639616
 10
63.26635304541132
 20
368.8705312822312
 10
64.5234024116694
 20
368.87053058558683
 10
64.57435453557585
 20
368.8705308099116
 10
64.97321601776551
 20
368.8705307586295
 10
65.33737003195588
 20
368.8705307333953
 10
66.05327918711619
 20
368.8705303764275
 10
66.81152713527581
 20
368.8705299401795
 10
67.12215321598654
 20
368.8705299209305
 10
67.44770800803641
 20
368.8705298829825
 10
67.6878815679251
 20
368.8705299401795
 10
67.93330404803224
 20
368.8705299984461
 10
68.34288532226492
 20
368.87052984556004
 10
68.64276285966379
 20
368.8705298271131
 10
68.91701161566161
 20
368.87052984556004
 10
69.18208266236114
 20
368.8705298829825
 10
69.47114511558195
 20
368.8705298829825
 10
69.76920098695034
 20
368.8705298642782
 10
70.08103883296263
 20
368.8705298086516
 10
70.93631019523339
 20
368.8705298086516
 10
71.21745900359451
 20
368.8705298271131
 10
71.50649824045283
 20
368.8705298086516
 10
71.79158424402948
 20
368.8705298086516
 10
72.07569194558769
 20
368.8705298271131
 10
72.36177228924717
 20
368.8705298086516
 10
114.54305008721417
 20
368.8705298086516
 10
114.7699498752018
 20
368.8705298271131
 10
115.34210516993988
 20
368.8705298271131
 10
115.57299393121178
 20
368.87052984556004
 10
116.43418342088714
 20
368.87052984556004
 10
116.6692459566971
 20
368.8705298642782
 10
116.90634650662716
 20
368.8705298829825
 10
117.24536961570442
 20
368.8705298642782
 10
117.48447139194141
 20
368.8705298829825
 10
117.72485980190393
 20
368.87052990196446
 10
118.01493091980862
 20
368.87052990196446
 10
118.35165872408527
 20
368.8705298829825
 10
118.59508942688677
 20
368.87052990196446
 10
119.1752397871538
 20
368.87052990196446
 10
119.37957090975254
 20
368.8705299401795
 10
119.96380447372545
 20
368.8705299401795
 10
120.09326610932712
 20
368.8705300182477
 10
120.11288912536148
 20
368.8705300182477
 10
120.11290010279748
 20
368.87053143469103
 10
120.11771883810133
 20
368.87053143469103
 10
120.58879732236912
 20
368.87053137284875
 10
120.90957967148591
 20
368.87053140375207
 10
120.9947154470066
 20
368.87053159438545
 10
121.08486484164993
 20
368.8705317956716
 10
121.80102018100311
 20
368.8705315617626
 10
121.8673549019181
 20
368.8705317956713
 10
122.30282293809137
 20
368.87053176118314
 10
122.77548093061185
 20
368.87053169343216
 10
123.88294760572805
 20
368.8705310794119
 10
124.39013437313585
 20
368.8705309419603
 10
125.45757727150311
 20
368.8705302664256
 10
126.0589452720354
 20
368.87052997893636
 10
126.3343726776238
 20
368.8705299984461
 10
126.64731995278163
 20
368.87052997893636
 10
127.23570016134417
 20
368.87052997893636
 10
127.54449053508299
 20
368.87052995941394
 10
127.83763488175572
 20
368.87052995941394
 10
128.06749736595043
 20
368.87053005812317
 10
128.40099124617302
 20
368.8705299984461
 10
128.69621948852668
 20
368.8705299984461
 10
128.98192809497743
 20
368.8705300182477
 10
129.27822117087604
 20
368.8705300182477
 10
129.56710415581202
 20
368.87053003803624
 10
130.16179916447587
 20
368.87053003803624
 10
130.45484995624133
 20
368.87053005812317
 10
171.83645989931452
 20
368.87053005812317
 10
172.0673142444682
 20
368.87053007819793
 10
173.26527694495158
 20
368.87053007819793
 10
173.50162809739336
 20
368.87053009857624
 10
173.80220712697144
 20
368.87053009857624
 10
174.16375353574986
 20
368.87053007819793
 10
175.06223010533418
 20
368.87053007819793
 10
175.30510645593532
 20
368.87053009857624
 10
176.8080100110862
 20
368.87053009857624
 10
177.05853224994462
 20
368.87053011894494
 10
182.18689810390686
 20
368.87053011894494
 10
182.51903748238055
 20
368.87053009857624
 10
182.84901149406173
 20
368.87053007819793
 10
183.1485039163767
 20
368.87053007819793
 10
183.47480697274707
 20
368.87053005812317
 10
183.77322760954578
 20
368.87053005812317
 10
184.09632818525156
 20
368.87053003803624
 10
184.37006539573517
 20
368.87053005812317
 10
184.66848464076241
 20
368.87053005812317
 10
184.9454542682059
 20
368.87053007819793
 10
185.22426028447563
 20
368.87053009857624
 10
185.524841071277
 20
368.87053009857624
 10
185.84392910669635
 20
368.87053007819793
 10
186.14342081666467
 20
368.87053007819793
 10
186.41025913664586
 20
368.87053011894494
 10
186.69646234959205
 20
368.87053013962174
 10
188.21032798852627
 20
368.87053013962174
 10
188.5219384291362
 20
368.87053011894494
 10
188.8081461138057
 20
368.87053016028705
 10
190.02365497152493
 20
368.87053016028705
 10
190.33194963015757
 20
368.87053011894494
 10
190.63140945126958
 20
368.87053016028705
 10
190.93528670673965
 20
368.87053013962174
 10
230.8445608305421
 20
368.87053013962174
 10
231.07777995357472
 20
368.87053016028705
 10
232.293288940418
 20
368.87053016028705
 10
232.66119991435235
 20
368.87053013962174
 10
233.26674609270458
 20
368.87053013962174
 10
233.6302747793849
 20
368.87053011894494
 10
233.87229280017237
 20
368.87053013962174
 10
234.11655238215047
 20
368.87053016028705
 10
238.37083387982062
 20
368.87053016028705
 10
238.63211392273374
 20
368.87053018126886
 10
238.97858777460877
 20
368.87053016028705
 10
239.24211041075617
 20
368.87053018126886
 10
239.8521061910791
 20
368.87053018126886
 10
240.19409698302402
 20
368.87053016028705
 10
240.49797356802162
 20
368.87053016028705
 10
240.83607585305137
 20
368.87053013962174
 10
241.10572745246887
 20
368.87053016028705
 10
241.37709811882794
 20
368.87053018126886
 10
241.9870946068965
 20
368.87053018126886
 10
242.26296156522176
 20
368.8705302022402
 10
242.56908162686372
 20
368.8705302022402
 10
242.90208863565812
 20
368.87053018126886
 10
243.5120836860786
 20
368.87053018126886
 10
243.7935553988669
 20
368.8705302022402
 10
244.40579121329816
 20
368.8705302022402
 10
244.6914361393739
 20
368.87053022353206
 10
245.92045922675814
 20
368.87053022353206
 10
246.21293213989287
 20
368.87053024481554
 10
246.5349729375065
 20
368.87053022353206
 10
247.14948375189866
 20
368.87053022353206
 10
247.44650490513317
 20
368.87053024481554
 10
247.7549024257783
 20
368.87053024481554
 10
248.05521118972572
 20
368.8705302664256
 10
248.6743094827285
 20
368.8705302664256
 10
248.97923782545183
 20
368.87053028802836
 10
249.2864239765465
 20
368.8705303099638
 10
249.9101684642156
 20
368.8705303099638
 10
250.22204655662804
 20
368.8705303318949
 10
289.7869466536967
 20
368.8705303318949
 10
290.0262290922868
 20
368.8705303541637
 10
290.2679116889404
 20
368.8705303764275
 10
290.58333469514565
 20
368.8705303764275
 10
290.7562428588023
 20
368.8705304216409
 10
290.9318212044416
 20
368.87053046755227
 10
291.25211250873923
 20
368.87053046755227
 10
291.50265686463496
 20
368.8705304908662
 10
291.8241967018778
 20
368.8705304908662
 10
292.21299237187765
 20
368.87053046755227
 10
292.4012595681378
 20
368.8705305141803
 10
292.72404193852736
 20
368.8705305141803
 10
292.9823150371372
 20
368.87053053785706
 10
293.36961119876986
 20
368.8705305141803
 10
293.6923905251639
 20
368.8705305141803
 10
293.9544583652331
 20
368.87053053785706
 10
294.9266047327787
 20
368.87053053785706
 10
295.30630987578667
 20
368.8705305141803
 10
295.5747053327821
 20
368.87053053785706
 10
295.84561964958266
 20
368.8705305615373
 10
296.11825255488236
 20
368.8705305855867
 10
296.3934458888102
 20
368.8705306096419
 10
296.72133281546485
 20
368.8705306096419
 10
296.99961172089627
 20
368.8705306340763
 10
298.31636873096465
 20
368.8705306340763
 10
298.6024734971951
 20
368.8705306585126
 10
300.2549441478376
 20
368.8705306585126
 10
300.5138131500108
 20
368.8705307081678
 10
301.8464065030998
 20
368.8705307081678
 10
302.1498969536807
 20
368.8705307333953
 10
303.15338292456835
 20
368.8705307333953
 10
303.46361519659325
 20
368.8705307586295
 10
304.13530208762205
 20
368.8705307586295
 10
304.45059985600847
 20
368.87053078426777
 10
305.79944933883456
 20
368.87053078426777
 10
306.15036276633725
 20
368.8705307586295
 10
306.4738788052225
 20
368.87053078426777
 10
306.80012842098506
 20
368.87053080991234
 10
307.47729800276176
 20
368.87053080991234
 10
307.80891724379927
 20
368.8705308359708
 10
308.1488957915174
 20
368.8705308359708
 10
308.4846900810517
 20
368.87053086203804
 10
308.82884335282364
 20
368.8705308359708
 10
309.1702140468153
 20
368.87053080991234
 10
347.1262343098536
 20
368.87053080991234
 10
347.3771146864565
 20
368.8705308359708
 10
347.8034070728041
 20
368.87053080991234
 10
347.9596147077326
 20
368.8705308004232
 10
347.95962079416626
 20
368.8705315612274
 10
348.24892578801587
 20
368.8705315943856
 10
348.90331442796264
 20
368.87053149765273
 10
349.45355535367474
 20
368.87053143469103
 10
350.15955612198
 20
368.87053131209206
 10
351.0708407363464
 20
368.87053110773775
 10
352.40523169301287
 20
368.8705307270268
 10
352.40523276950273
 20
368.870530861588
 10
352.6847492405405
 20
368.87053088852787
 10
353.3703156391365
 20
368.87053088852787
 10
353.6508046473988
 20
368.8705309150284
 10
354.0691700632488
 20
368.870530867448
 10
354.06917331676556
 20
368.87053119279966
 10
354.30664858029087
 20
368.87053125239964
 10
354.6067157907819
 20
368.8705312822312
 10
355.382278675252
 20
368.8705310794119
 10
355.95369945756477
 20
368.8705309689049
 10
356.5564495317756
 20
368.8705308359708
 10
356.6982399037794
 20
368.8705309419603
 10
357.73515011314765
 20
368.8705309419603
 10
358.0361600121703
 20
368.8705309689049
 10
358.42643218460114
 20
368.8705309419603
 10
358.7303146202739
 20
368.8705309689049
 10
361.1598525067674
 20
368.8705309689049
 10
361.5371691411348
 20
368.8705309419603
 10
362.5740792895055
 20
368.8705309419603
 10
362.89524876546716
 20
368.8705309689049
 10
363.2653484281706
 20
368.8705309419603
 10
363.63257821134005
 20
368.8705309150284
 10
364.32096971691465
 20
368.8705309150284
 10
364.6821611749035
 20
368.87053088852787
 10
364.8794595388574
 20
368.87053113608476
 10
365.1089750713361
 20
368.8705313728487
 10
365.4776433041625
 20
368.87053137284875
 10
365.87226477658885
 20
368.87053131209206
 10
366.29271221730943
 20
368.8705311648999
 10
366.7303593706577
 20
368.8705309150284
 10
367.06736743263446
 20
368.8705309419603
 10
367.4187572933718
 20
368.8705309150284
 10
368.1071616782411
 20
368.8705309150284
 10
368.44991862585977
 20
368.8705309419603
 10
368.8002225263317
 20
368.8705309419603
 10
368.8122249157567
 20
368.86903064328214
 10
368.8222297838267
 20
368.86569568725884
 10
368.8290395433938
 20
368.86277721887296
 10
368.8378398913417
 20
368.85774844861703
 10
368.84339766862877
 20
368.8533022267873
 10
368.84914085424293
 20
368.8483794962609
 10
368.85531247535624
 20
368.8409735509249
 10
368.860251547663
 20
368.8338393353707
 10
368.8683805673486
 20
368.8175812959995
 10
368.8705531952137
 20
368.8002002730787
 10
368.8705531952137
 20
317.3142192484804
 10
368.87056597463373
 20
316.9045749409398
 10
368.8705659746702
 20
316.085300815718
 10
368.8705531952137
 20
315.67565416844883
 10
368.8705531952137
 20
300.44985955599196
 10
368.8705656668932
 20
300.0500892254155
 10
368.8705656669297
 20
299.65030914942673
 10
368.8705531952137
 20
299.2441628841321
 10
368.8705531952137
 20
238.31113690114447
 10
368.87056523231195
 20
237.69685076197732
 10
368.8705531952137
 20
237.22794677330836
 10
368.8705531952137
 20
174.34267048023665
 10
368.87056424747203
 20
173.78562837298202
 10
368.87056413095263
 20
173.24084093972104
 10
368.87056408964304
 20
173.0480471986793
 10
368.87056518799903
 20
173.0480384118312
 10
368.87056452983614
 20
171.71296395755772
 10
368.8705640924535
 20
170.73274892081002
 10
368.8705640924535
 20
170.38344133765008
 10
368.8705640165576
 20
169.93195422320102
 10
368.8705640545224
 20
169.63497447640128
 10
368.8705640165576
 20
169.2382051345109
 10
368.8705639791521
 20
168.84456837195538
 10
368.8705639791521
 20
168.3711873966611
 10
368.87056478344493
 20
168.37118310709937
 10
368.87056478344493
 20
168.36421259219648
 10
368.8705639791521
 20
167.11618932687412
 10
368.87056394171253
 20
166.73090970360596
 10
368.8705639048218
 20
166.34859336492013
 10
368.8705638678957
 20
165.9686068972818
 10
368.87056383150514
 20
165.5915027794243
 10
368.87056379508306
 20
165.21670215978483
 10
368.87056375918945
 20
164.8447110764023
 10
368.8705637232581
 20
164.47498830126898
 10
368.87056368784954
 20
164.10800482704087
 10
368.870563652402
 20
163.74326017075566
 10
368.8705635824932
 20
163.35427664469893
 10
368.870563831505
 20
163.2049018813076
 10
368.8705635824932
 20
162.6883543986031
 10
368.87056354802365
 20
162.33219025847578
 10
368.87056351351015
 20
161.978207793919
 10
368.87056351351015
 20
161.64745900153963
 10
368.87056344544
 20
161.27743287863962
 10
368.8705634118707
 20
160.93057310770564
 10
368.8705633119573
 20
160.55183732688272
 10
368.8705633451307
 20
160.2434993633101
 10
368.87056337826033
 20
159.9330143892399
 10
368.8705633119573
 20
159.57897079222295
 10
368.870563279257
 20
159.24210336340622
 10
368.87056318190736
 20
158.8845362156412
 10
368.8705630866639
 20
158.53388588017074
 10
368.870563086663
 20
158.2168183584879
 10
368.8705632792561
 20
157.94913913495353
 10
368.87056337826033
 20
157.6481131273587
 10
368.87056341186883
 20
157.32816259112008
 10
368.87056344543913
 20
157.00605068625927
 10
368.87056344543913
 20
156.02034800398513
 10
368.87056341186883
 20
155.6907035015176
 10
368.87056341186883
 20
114.55915243749143
 10
368.8705531952502
 20
114.23165883464335
 10
368.87056341183234
 20
113.90416757153304
 10
368.8705634118325
 20
113.85677605287725
 10
368.87056489028174
 20
113.85677605289965
 10
368.8705799463873
 20
113.37415448030879
 10
368.87058041506884
 20
113.01239040195142
 10
368.8705804150689
 20
111.26734240453092
 10
368.8705799464238
 20
109.94414874502723
 10
368.8705797172123
 20
108.87356717340006
 10
368.8705794936429
 20
107.82275730081045
 10
368.8705792720928
 20
106.78802794397433
 10
368.87057763160584
 20
104.58491682650231
 10
368.8705740275589
 20
100.9134571444171
 10
368.870572967169
 20
99.42991081080336
 10
368.87057178439295
 20
97.92411555086937
 10
368.8705698875436
 20
95.99058531970661
 10
368.8705692823046
 20
95.04809746125278
 10
368.87056798131886
 20
93.69838057532922
 10
368.87056624317864
 20
92.16582467647376
 10
368.8705648266504
 20
90.9302583594233
 10
368.8705636174657
 20
89.89849577797261
 10
368.8705636969558
 20
89.75188529022793
 10
368.8705654765793
 20
89.7518572611572
 10
368.8705659038276
 20
89.72775636844742
 10
368.87056879188646
 20
89.72774144681006
 10
368.8705688531471
 20
89.65156679708232
 10
368.87057198525224
 20
89.65154174024147
 10
368.87057335242815
 20
89.38816975193586
 10
368.8705738893696
 20
88.86251496873035
 10
368.8705738893696
 20
88.1991637248588
 10
368.8705727187232
 20
87.34819004170126
 10
368.8705715646144
 20
86.57440535834672
 10
368.87056895593963
 20
85.7347187657169
 10
368.87056711997457
 20
85.11181079100155
 10
368.8705663536803
 20
84.64089311616664
 10
368.8705653736685
 20
84.21909922197776
 10
368.8705653736685
 20
38.05909536754962
 10
368.8705644477462
 20
35.79887199782782
 10
368.87056394171356
 20
34.43249078297723
 10
368.8705639791521
 20
34.16122205065086
 10
368.8705640165586
 20
33.887491522096326
 10
368.87055340497585
 20
33.61774218258709
 10
368.87056428703096
 20
33.341158535763626
 10
368.87056444774595
 20
33.27400084602427
 10
368.87056457116785
 20
33.13089417395315
 10
368.87056461313153
 20
32.8388778453685
 10
368.8705644884837
 20
32.26111258518253
 10
368.87056424748783
 20
31.497410309864794
 10
368.87056420846744
 20
31.079345044413774
 10
368.87056420846744
 20
30.726320708681474
 10
368.8705641949986
 20
30.583385970558304
 10
368.8705645711667
 20
30.583383196318632
 10
368.8705645711667
 20
30.578321609570644
 10
368.8705640924535
 20
29.492456281294025
 10
368.87056413095263
 20
29.199915597560846
 10
368.87056413095263
 20
28.849375943147077
 10
368.8705640545224
 20
28.391038659845446
 10
368.8705640881758
 20
28.284153202884433
 10
368.8705644868317
 20
28.28415026279724
 10
368.87056457116785
 20
28.02575269000971
 10
368.87056432666736
 20
27.347612433019464
 10
368.87056452982387
 20
27.244787819054476
 10
368.8705648256144
 20
27.243008306191655
 10
368.87056500345125
 20
27.079840007342334
 10
368.8705648705213
 20
26.54793580667736
 10
368.87056478344493
 20
26.07599750896746
 10
368.870564655074
 20
25.564636381090793
 10
368.8705641694216
 20
24.68356813454386
 10
368.8705640165576
 20
24.174989782770048
 10
368.8705640165576
 20
23.82811711575379
 10
368.8705642474877
 20
23.703310788094196
 10
368.87056424748783
 20
23.349043824570234
 10
368.870564287089
 20
23.03030638343364
 10
368.87056424748783
 20
22.6404825088091
 10
368.87056424748783
 20
22.286201867016267
 10
368.8705642084664
 20
21.900661705287177
 10
368.8705642084664
 20
21.547631918218276
 10
368.87056428708894
 20
21.252578409522
 10
368.8705646550759
 20
21.156534296192795
 10
368.8705648705213
 20
20.934214492832464
 10
368.8705648705213
 20
20.55996243469784
 10
368.8705531952137
 20
20.080429098702872
 10
368.8705531952137
 20
19.140863758670843
 10
368.87056436679865
 20
18.804649199442515
 10
368.87056440699166
 20
18.46584594063674
 10
368.87056436684003
 20
18.0884449087053
 10
368.87056432666844
 20
17.713598510200853
 10
368.87056432666844
 20
17.35677982593366
 10
368.87056474022705
 20
17.145787902144423
 10
368.8705650034513
 20
16.860087850076933
 10
368.8705652789545
 20
16.561067059765925
 10
368.8705656172708
 20
16.260479603236206
 10
368.87056576785295
 20
15.896091000027944
 10
368.87056587042304
 20
15.512802128067236
 10
368.87056587042304
 20
15.106498273723385
 10
368.87056576785295
 20
14.687043095749667
 10
368.8705657173875
 20
14.279174237910006
 10
368.87056561727087
 20
13.871363884331487
 10
368.87056504866723
 20
13.454960879936767
 10
368.87056432666833
 20
13.074998744533408
 10
368.87056432666844
 20
13.067734355920757
 10
368.8677790736542
 20
13.053491582249487
 10
368.86300539940515
 20
13.041738235279466
 10
368.85847875602735
 20
13.0340223572604
 10
368.84963210781814
 20
13.021735345858717
 10
368.8386796285011
 20
13.013597605183763
 10
368.83286505610846
 20
13.009743226975397
 10
368.82462359216305
 20
13.005729709918008
 10
368.8170414543452
 20
13.003037042138894
 10
368.8097436761255
 20
13.001260194003008
 10
368.80350473219204
 20
13.0003738938318
 10
368.79822401776977
 20
12.99999888704284
 10
329.51208778410347
 20
12.99999888704284
 10
329.5120787326932
 20
12.999998315436855
 10
329.18182591967866
 20
12.999998315436855
 10
329.08623568083664
 20
12.999998241741677
 10
328.6774938351695
 20
12.999998266566823
 10
328.422587227774
 20
12.999998241741656
 10
327.7263780902755
 20
12.99999836354147
 10
327.4010671411049
 20
12.99999836354147
 10
326.8718576339507
 20
12.99999843421457
 10
325.7933694864435
 20
12.999998701547556
 10
324.80661107394775
 20
12.999998946143322
 10
324.7281758906995
 20
12.999998866956547
 10
324.537818607149
 20
12.999998826503441
 10
324.39878771004413
 20
12.99999876479255
 10
323.9888851472296
 20
12.999998806134665
 10
323.687224939253
 20
12.999998806134665
 10
323.3354966230996
 20
12.999998826503438
 10
323.0838819354055
 20
12.999998806134665
 10
322.78221607421114
 20
12.999998806134665
 10
322.5280487767032
 20
12.99999878545842
 10
321.01417944181014
 20
12.99999878545842
 10
320.67053812063
 20
12.999998806134665
 10
320.06719511291726
 20
12.999998806134665
 10
319.7285363682796
 20
12.999998826503438
 10
319.46386340204134
 20
12.999998806134665
 10
319.1273697587307
 20
12.999998826503438
 10
318.82679208426475
 20
12.999998826503438
 10
318.49354856397485
 20
12.999998846881223
 10
318.22563110981724
 20
12.999998826503438
 10
317.8945677293847
 20
12.999998846881223
 10
317.56611529548644
 20
12.99999886695651
 10
317.13058521447095
 20
12.99999896566575
 10
316.91602198265787
 20
12.99999890683146
 10
316.6966005455745
 20
12.99999884688124
 10
316.60183980376235
 20
12.999998680263587
 10
316.42197502246364
 20
12.999998570916514
 10
316.15807780955123
 20
12.999998526043402
 10
315.69974929680404
 20
12.999998658653997
 10
315.1787608371257
 20
12.999998866956513
 10
314.74841411245427
 20
12.99999900414926
 10
314.51000624326645
 20
12.999998946143334
 10
314.2324973932481
 20
12.99999892663312
 10
313.9531319232698
 20
12.999998906831458
 10
313.360553909126
 20
12.999998906831456
 10
313.05157017650015
 20
12.99999892663312
 10
312.7563418307684
 20
12.99999892663312
 10
312.45068470549586
 20
12.999998946143332
 10
312.1471091380378
 20
12.999998965665752
 10
311.862309893099
 20
12.999998946143332
 10
310.6855519833671
 20
12.999998946143332
 10
310.3882342608633
 20
12.999998965665752
 10
310.0971771660724
 20
12.999998946143332
 10
309.80298561990907
 20
12.999998946143332
 10
309.50879407384684
 20
12.999998984900207
 10
268.9575098337637
 20
12.999998984900207
 10
268.9575084498733
 20
12.999998886624052
 10
268.33336516672136
 20
12.999998984900207
 10
268.1039299912533
 20
12.999998965665752
 10
267.7491314611154
 20
12.999998984900207
 10
267.5176383655085
 20
12.999998965665752
 10
264.87933153373325
 20
12.999998965665752
 10
264.63728873468
 20
12.999998946143332
 10
264.0489139092702
 20
12.999998946143332
 10
263.80266923821785
 20
12.99999892663312
 10
263.21220977543237
 20
12.99999892663312
 10
262.9624652819143
 20
12.999998906831458
 10
262.6661735014365
 20
12.999998906831456
 10
262.4132351190752
 20
12.999998887042842
 10
261.2238475270667
 20
12.99999888704284
 10
260.9651330138448
 20
12.99999886695651
 10
260.0698750973249
 20
12.999998866956508
 10
259.8057817547029
 20
12.999998846881223
 10
259.5400360170826
 20
12.999998826503438
 10
259.2394583373181
 20
12.999998826503438
 10
258.9704354053971
 20
12.999998806134665
 10
258.06542935479354
 20
12.999998806134665
 10
257.736555879364
 20
12.999998826503438
 10
257.4098444143813
 20
12.999998846881223
 10
256.8108635903604
 20
12.999998846881223
 10
256.5342339292301
 20
12.999998826503438
 10
256.2336506232837
 20
12.999998826503438
 10
255.95374576544174
 20
12.999998806134665
 10
255.35041404593719
 20
12.999998806134665
 10
255.06641358834955
 20
12.99999878545842
 10
254.76364311751794
 20
12.99999878545842
 10
254.44540658187944
 20
12.999998806134665
 10
254.12958999826031
 20
12.999998826503438
 10
253.8159468251069
 20
12.999998846881223
 10
253.51645501678118
 20
12.999998846881223
 10
253.23873045953033
 20
12.999998806134665
 10
252.63539308795436
 20
12.999998806134665
 10
252.34145956423197
 20
12.99999878545842
 10
251.73591012983627
 20
12.99999878545842
 10
251.43755593059893
 20
12.999998764792544
 10
250.82979835935697
 20
12.999998764792542
 10
250.52704337071958
 20
12.999998743810732
 10
209.84517668623036
 20
12.999998743810732
 10
209.60852345136658
 20
12.99999872283887
 10
208.07793272256367
 20
12.99999872283887
 10
207.71018711361228
 20
12.999998743810732
 10
207.46569242918233
 20
12.99999872283887
 10
206.54733913544146
 20
12.99999872283887
 10
206.0739466999842
 20
12.999998785458418
 10
205.93509886945145
 20
12.999998722838878
 10
205.6289801213937
 20
12.99999872283887
 10
205.37632424292235
 20
12.999998701547554
 10
204.45455565645528
 20
12.999998701547554
 10
204.1961944200915
 20
12.999998680263472
 10
203.57940784358004
 20
12.999998680263472
 10
203.31719355976455
 20
12.999998658653995
 10
203.00764651888792
 20
12.999998658653995
 10
202.741955670248
 20
12.99999863705062
 10
201.80985138920965
 20
12.99999863705062
 10
201.53899190243158
 20
12.99999861511581
 10
200.2914968261961
 20
12.99999861511581
 10
200.01360184027098
 20
12.999998593184715
 10
199.07446556107516
 20
12.999998593184715
 10
198.7911625890967
 20
12.9999985709165
 10
196.90575165255666
 20
12.9999985709165
 10
196.61292829867332
 20
12.999998548651417
 10
195.9820794725714
 20
12.999998548651417
 10
195.6309666094523
 20
12.999998593184715
 10
195.33457691879664
 20
12.9999985709165
 10
195.03580532504313
 20
12.999998548651417
 10
194.72038109658808
 20
12.999998548651417
 10
194.4182425458535
 20
12.9999985260434
 10
194.1016104966903
 20
12.9999985260434
 10
193.79584670191738
 20
12.999998503437904
 10
193.47800677888125
 20
12.999998503437904
 10
193.15171305270172
 20
12.9999985260434
 10
192.82783371009282
 20
12.999998548651417
 10
192.51844822960123
 20
12.9999985260434
 10
192.20664664956212
 20
12.999998503437904
 10
191.89248591259033
 20
12.99999848048227
 10
152.06877885038134
 20
12.99999848048227
 10
151.82697537102538
 20
12.999998457526573
 10
149.58492576971437
 20
12.999998457526573
 10
149.3331318199662
 20
12.99999843421457
 10
148.94434035204785
 20
12.999998457526573
 10
147.0225837435643
 20
12.999998457526573
 10
146.644650250921
 20
12.99999848048227
 10
144.73025164596942
 20
12.99999848048227
 10
144.46024097788128
 20
12.999998457526573
 10
143.1790701507183
 20
12.999998457526573
 10
142.9023666234017
 20
12.99999843421457
 10
141.29467574127784
 20
12.99999843421457
 10
140.9370191421607
 20
12.999998457526573
 10
140.61672775017277
 20
12.999998457526573
 10
140.26332142278434
 20
12.99999848048227
 10
139.91236944858298
 20
12.999998503437903
 10
139.62519067872512
 20
12.99999848048227
 10
133.88199372192426
 20
12.99999848048227
 10
133.5555703520631
 20
12.999998503437904
 10
132.60204855980754
 20
12.999998503437904
 10
132.28666124104825
 20
12.99999848048227
 10
91.18669082596992
 20
12.99999848048227
 10
90.79649351128097
 20
12.999998503437904
 10
82.85049241570593
 20
12.999998503437904
 10
82.494009327079
 20
12.9999985260434
 10
82.17737987924133
 20
12.9999985260434
 10
81.89697806086093
 20
12.999998503437904
 10
81.54410615276973
 20
12.9999985260434
 10
81.26129487932747
 20
12.999998503437904
 10
80.94345179525857
 20
12.999998503437904
 10
80.59420890207343
 20
12.9999985260434
 10
80.30777456902797
 20
12.999998503437904
 10
79.9609470315755
 20
12.9999985260434
 10
79.67208841283022
 20
12.999998503437904
 10
79.03641117784375
 20
12.999998503437904
 10
78.74309594535521
 20
12.99999848048227
 10
78.40073394011645
 20
12.999998503437904
 10
76.49369034754805
 20
12.999998503437904
 10
76.16135802585968
 20
12.9999985260434
 10
75.52809319473596
 20
12.9999985260434
 10
75.20059334767089
 20
12.999998548651417
 10
74.87565276117047
 20
12.9999985709165
 10
74.55308706815944
 20
12.999998593184715
 10
74.24004457769385
 20
12.999998593184715
 10
73.9329474887509
 20
12.9999985709165
 10
73.61870944805332
 20
12.9999985709165
 10
73.30090829627514
 20
12.999998593184715
 10
72.67481452118136
 20
12.999998593184715
 10
72.36177201698598
 20
12.9999985709165
 10
32.55757698011499
 20
12.9999985709165
 10
32.170777996957455
 20
12.999998593184715
 10
31.92910973928796
 20
12.999998570916501
 10
31.685052170186516
 20
12.999998548651417
 10
31.05420592599709
 20
12.999998548651417
 10
30.672169352819957
 20
12.9999985709165
 10
29.41522897771853
 20
12.9999985709165
 10
29.04032373954906
 20
12.999998593184715
 10
28.727278319340126
 20
12.999998593184715
 10
28.472523701277318
 20
12.9999985709165
 10
28.158291544720967
 20
12.9999985709165
 10
27.899962937487366
 20
12.999998548651417
 10
27.58453538426047
 20
12.999998548651417
 10
27.16205118537024
 20
12.999998593184715
 10
24.03159986521676
 20
12.999998593184715
 10
23.678712278189153
 20
12.99999861511581
 10
23.366841434258887
 20
12.99999861511581
 10
23.09246945462651
 20
12.999998593184715
 10
21.214191036704833
 20
12.999998593184715
 10
20.871851282962922
 20
12.99999861511581
 10
18.68873198895545
 20
12.99999861511581
 10
18.35693959066047
 20
12.99999863705062
 10
13.696413841664585
 20
12.99999863705062
 10
13.381131719511933
 20
12.999998722838859
 10
13.072334960356232
 20
12.999998384289217
 10
13.066621768738672
 20
13.000406421653437
 10
13.061438020237901
 20
13.001203997206632
 10
13.05356056636129
 20
13.002892057576362
 10
13.044706924409345
 20
13.006297203182895
 10
13.03930663410665
 20
13.008997445020071
 10
13.033953900127765
 20
13.012119865188364
 10
13.02916951003982
 20
13.015599481081036
 10
13.021712262248498
 20
13.021700878878423
 10
13.015610560838537
 20
13.029158497750974
 10
13.012131178893668
 20
13.033942694645843
 10
13.009008281977216
 20
13.03929615006207
 10
13.006308587406277
 20
13.044695829223414
 10
13.002903292435297
 20
13.05354909868286
 10
13.001215222010666
 20
13.061427667449186
 10
13.00041780502351
 20
13.066610385368636
 10
13.000009770591866
 20
13.072323535925287
 10
13.000009770591866
 20
59.33215717354133
 10
13.000010042024067
 20
60.817304607508575
 10
13.000010020420696
 20
61.10288513776088
 10
13.00001004202407
 20
61.56020880488091
 10
13.000010042022874
 20
61.93166498165887
 10
13.000010042022874
 20
62.67458671710074
 10
13.00001004202465
 20
63.04605415691991
 10
13.00001004202465
 20
63.41750332110802
 10
13.000010063633546
 20
63.865157311425826
 10
13.000010063633546
 20
65.34544162226805
 10
13.000010084918241
 20
65.78374444065687
 10
13.000010084918241
 20
66.52115404358649
 10
13.00000433370529
 20
66.88986430477112
 10
13.000004333696165
 20
67.25857632075213
 10
13.000004376277571
 20
67.68869199325464
 10
13.000010106208974
 20
68.05603847148019
 10
13.000010127181389
 20
68.48119860585334
 10
13.000010127181389
 20
68.84719995748893
 10
13.000010106208945
 20
69.15807557255954
 10
13.00001006363355
 20
69.41623066951561
 10
13.000009976555416
 20
69.56858755426879
 10
13.000009909414093
 20
69.78066700952374
 10
13.000009976555404
 20
70.31989186112797
 10
13.000010148163199
 20
71.09161002453462
 10
13.000010189505288
 20
71.54903075532573
 10
13.000010189505288
 20
71.91102240478703
 10
13.000010209874642
 20
72.31612175732734
 10
13.000010230252427
 20
72.71862109640907
 10
13.000010230252427
 20
73.07800895987953
 10
13.000010250327682
 20
73.47601564191382
 10
13.000010270413465
 20
73.87145944834239
 10
13.000010329513955
 20
74.33436175732689
 10
13.000010329513955
 20
74.6873860583757
 10
13.000010310003743
 20
75.00789260536637
 10
13.000010329513955
 20
75.39344293851372
 10
13.000010329513955
 20
76.45251860905658
 10
13.000010290203178
 20
76.75262442638515
 10
13.000010270413465
 20
77.08279475828138
 10
13.000010250327682
 20
77.41514743274158
 10
13.000010270413464
 20
77.79642668287869
 10
13.000010209874644
 20
78.0872637372542
 10
13.000010209874642
 20
78.44795801797295
 10
13.000010230251297
 20
78.82824735904254
 10
13.000010230251297
 20
80.62519825401313
 10
13.000010250327133
 20
80.996175264415
 10
13.000010250327133
 20
81.71238207043945
 10
13.000004704694163
 20
82.07820576333711
 10
13.000004704685546
 20
82.79183889717456
 10
13.000004744265004
 20
83.15246381949473
 10
13.000004744265004
 20
132.96376649975804
 10
13.000004783866103
 20
133.39802219375102
 10
13.000004783866103
 20
134.8151282041969
 10
13.000004744265006
 20
135.0970502260282
 10
13.000004744265004
 20
135.45260029899964
 10
13.000004744266104
 20
135.80814675212673
 10
13.000004783867169
 20
136.23223888310113
 10
13.000004783867169
 20
136.58651672589622
 10
13.000004744266104
 20
136.87478295865432
 10
13.000004783867169
 20
137.29507243719775
 10
13.000004783867169
 20
140.1292869556711
 10
13.000004822887592
 20
140.536097909822
 10
13.000004783867169
 20
140.83784264873808
 10
13.000004783867169
 20
141.19212050981963
 10
13.000004822887592
 20
141.59517908731954
 10
13.000004744266107
 20
141.85243618671572
 10
13.00000482288869
 20
142.30123175548468
 10
13.00000482288869
 20
144.7724168052757
 10
13.000004861933498
 20
145.16174072525786
 10
13.000004861933498
 20
145.51351754843532
 10
13.000004900402379
 20
145.89858420618725
 10
13.000004900402379
 20
146.95020713429662
 10
13.000004900400247
 20
147.3007492710689
 10
13.000004900400247
 20
148.00183272951276
 10
13.000004938898357
 20
148.37705741022864
 10
13.000004938898357
 20
149.42497977469046
 10
13.000004900400247
 20
149.75453931640874
 10
13.000004900400247
 20
151.85778970050023
 10
13.000004900401313
 20
152.20833515518484
 10
13.000004900401313
 20
152.55887616669554
 10
13.000004938899423
 20
152.91805687110744
 10
13.000004976831553
 20
153.27465926185843
 10
13.000004976831553
 20
153.97084274976925
 10
13.000004938899423
 20
154.3152874572584
 10
13.000004938899423
 20
204.15162614423045
 10
13.000004938900489
 20
204.50093593599323
 10
13.000004938900489
 20
206.2474740191218
 10
13.000004976831553
 20
206.6660861581496
 10
13.000005014796432
 20
207.0823272164642
 10
13.000004976831553
 20
207.3622703158343
 10
13.000004976830487
 20
207.71035957275356
 10
13.000004976830487
 20
210.84318730021985
 10
13.000004938899423
 20
211.13778084951304
 10
13.000004938899423
 20
213.91817983352934
 10
13.000003937194602
 20
213.9181939391862
 10
13.000003982687893
 20
214.3486381206616
 10
13.000004452268037
 20
215.13376301868325
 10
12.999993665543872
 20
215.13391491355966
  0
TEXT
  5
91
330
17
100
AcDbEntity
  8
GRABADO
100
AcDbText
 10
365.370553195487
 20
189.24714831222286
 30
0.0
 40
6.0
  1
03
 72
1
 11
365.370553195487
 21
189.24714831222286
 31
0.0
100
AcDbText
 73
2
  0
TEXT
  5
92
330
17
100
AcDbEntity
  8
HOJA
100
AcDbText
 10
10.0
 20
691.0
 30
0.0
 40
6.0
  1
mars_valles_mar  hoja 8/8  1:220  lamina 2.0mm
 11
10.0
 21
691.0
 31
0.0
100
AcDbText
  0
ENDSEC
  0
SECTION
  2
OBJECTS
  0
DICTIONARY
  5
A
330
0
100
AcDbDictionary
281
1
  3
ACAD_COLOR
350
B
  3
ACAD_GROUP
350
C
  3
ACAD_LAYOUT
350
D
  3
ACAD_MATERIAL
350
E
  3
ACAD_MLEADERSTYLE
350
F
  3
ACAD_MLINESTYLE
350
10
  3
ACAD_PLOTSETTINGS
350
11
  3
ACAD_PLOTSTYLENAME
350
12
  3
ACAD_SCALELIST
350
14
  3
ACAD_TABLESTYLE
350
15
  3
ACAD_VISUALSTYLE
350
16
  3
EZDXF_META
350
2D
  0
DICTIONARY
  5
B
330
A
100
AcDbDictionary
281
1
  0
DICTIONARY
  5
C
330
A
100
AcDbDictionary
281
1
  0
DICTIONARY
  5
D
330
A
100
AcDbDictionary
281
1
  3
Model
350
1A
  3
Layout1
350
1E
  0
DICTIONARY
  5
E
330
A
100
AcDbDictionary
281
1
  3
ByBlock
350
1F
  3
ByLayer
350
20
  3
Global
350
21
  0
DICTIONARY
  5
F
330
A
100
AcDbDictionary
281
1
  3
Standard
350
2C
  0
DICTIONARY
  5
10
330
A
100
AcDbDictionary
281
1
  3
Standard
350
22
  0
DICTIONARY
  5
11
330
A
100
AcDbDictionary
281
1
  0
ACDBDICTIONARYWDFLT
  5
12
330
A
100
AcDbDictionary
281
1
  3
Normal
350
13
100
AcDbDictionaryWithDefault
340
13
  0
ACDBPLACEHOLDER
  5
13
330
12
  0
DICTIONARY
  5
14
330
A
100
AcDbDictionary
281
1
  0
DICTIONARY
  5
15
330
A
100
AcDbDictionary
281
1
  0
DICTIONARY
  5
16
330
A
100
AcDbDictionary
281
1
  3
2dWireframe
350
5A
  3
Basic
350
5B
  3
Brighten
350
5C
  3
ColorChange
350
5D
  3
Conceptual
350
5E
  3
Dim
350
5F
  3
EdgeColorOff
350
60
  3
Facepattern
350
61
  3
Flat
350
62
  3
FlatWithEdges
350
63
  3
Gouraud
350
64
  3
GouraudWithEdges
350
65
  3
Hidden
350
66
  3
JitterOff
350
67
  3
Linepattern
350
68
  3
Modeling
350
69
  3
OverhangOff
350
6A
  3
Realistic
350
6B
  3
Shaded
350
6C
  3
Shaded with edges
350
6D
  3
Shades of Gray
350
6E
  3
Sketchy
350
6F
  3
Thicken
350
70
  3
Wireframe
350
71
  3
X-Ray
350
72
  0
LAYOUT
  5
1A
330
D
100
AcDbPlotSettings
  1

  4
A3
  6

 40
7.5
 41
20.0
 42
7.5
 43
20.0
 44
420.0
 45
297.0
 46
0.0
 47
0.0
 48
0.0
 49
0.0
140
0.0
141
0.0
142
1.0
143
1.0
 70
1024
 72
1
 73
0
 74
5
  7

 75
16
 76
0
 77
2
 78
300
147
1.0
148
0.0
149
0.0
100
AcDbLayout
  1
Model
 70
1
 71
0
 10
0.0
 20
0.0
 11
420.0
 21
297.0
 12
0.0
 22
0.0
 32
0.0
 14
1e+20
 24
1e+20
 34
1e+20
 15
-1e+20
 25
-1e+20
 35
-1e+20
146
0.0
 13
0.0
 23
0.0
 33
0.0
 16
1.0
 26
0.0
 36
0.0
 17
0.0
 27
1.0
 37
0.0
 76
1
330
17
  0
LAYOUT
  5
1E
330
D
100
AcDbPlotSettings
  1

  4
A3
  6

 40
7.5
 41
20.0
 42
7.5
 43
20.0
 44
420.0
 45
297.0
 46
0.0
 47
0.0
 48
0.0
 49
0.0
140
0.0
141
0.0
142
1.0
143
1.0
 70
0
 72
1
 73
0
 74
5
  7

 75
16
 76
0
 77
2
 78
300
147
1.0
148
0.0
149
0.0
100
AcDbLayout
  1
Layout1
 70
1
 71
1
 10
0.0
 20
0.0
 11
420.0
 21
297.0
 12
0.0
 22
0.0
 32
0.0
 14
1e+20
 24
1e+20
 34
1e+20
 15
-1e+20
 25
-1e+20
 35
-1e+20
146
0.0
 13
0.0
 23
0.0
 33
0.0
 16
1.0
 26
0.0
 36
0.0
 17
0.0
 27
1.0
 37
0.0
 76
1
330
1B
  0
MATERIAL
  5
1F
102
{ACAD_REACTORS
330
E
102
}
330
E
100
AcDbMaterial
  1
ByBlock
  2

 70
0
 40
1.0
 71
1
 41
1.0
 91
-1023410177
 42
1.0
 72
1
  3

 73
1
 74
1
 75
1
 44
0.5
 73
0
 45
1.0
 46
1.0
 77
1
  4

 78
1
 79
1
170
1
 48
1.0
171
1
  6

172
1
173
1
174
1
140
1.0
141
1.0
175
1
  7

176
1
177
1
178
1
143
1.0
179
1
  8

270
1
271
1
272
1
145
1.0
146
1.0
273
1
  9

274
1
275
1
276
1
 42
1.0
 72
1
  3

 73
1
 74
1
 75
1
 94
63
  0
MATERIAL
  5
20
102
{ACAD_REACTORS
330
E
102
}
330
E
100
AcDbMaterial
  1
ByLayer
  2

 70
0
 40
1.0
 71
1
 41
1.0
 91
-1023410177
 42
1.0
 72
1
  3

 73
1
 74
1
 75
1
 44
0.5
 73
0
 45
1.0
 46
1.0
 77
1
  4

 78
1
 79
1
170
1
 48
1.0
171
1
  6

172
1
173
1
174
1
140
1.0
141
1.0
175
1
  7

176
1
177
1
178
1
143
1.0
179
1
  8

270
1
271
1
272
1
145
1.0
146
1.0
273
1
  9

274
1
275
1
276
1
 42
1.0
 72
1
  3

 73
1
 74
1
 75
1
 94
63
  0
MATERIAL
  5
21
102
{ACAD_REACTORS
330
E
102
}
330
E
100
AcDbMaterial
  1
Global
  2

 70
0
 40
1.0
 71
1
 41
1.0
 91
-1023410177
 42
1.0
 72
1
  3

 73
1
 74
1
 75
1
 44
0.5
 73
0
 45
1.0
 46
1.0
 77
1
  4

 78
1
 79
1
170
1
 48
1.0
171
1
  6

172
1
173
1
174
1
140
1.0
141
1.0
175
1
  7

176
1
177
1
178
1
143
1.0
179
1
  8

270
1
271
1
272
1
145
1.0
146
1.0
273
1
  9

274
1
275
1
276
1
 42
1.0
 72
1
  3

 73
1
 74
1
 75
1
 94
63
  0
MLINESTYLE
  5
22
102
{ACAD_REACTORS
330
10
102
}
330
10
100
AcDbMlineStyle
  2
Standard
 70
0
  3

 62
256
 51
90.0
 52
90.0
 71
2
 49
0.5
 62
256
  6
BYLAYER
 49
-0.5
 62
256
  6
BYLAYER
  0
MLEADERSTYLE
  5
2C
102
{ACAD_REACTORS
330
F
102
}
330
F
100
AcDbMLeaderStyle
179
2
170
2
171
1
172
0
 90
2
 40
0.0
 41
0.0
173
1
 91
-1056964608
 92
-2
290
1
 42
2.0
291
1
 43
8.0
  3
Standard
 44
4.0
300

342
29
174
1
175
1
176
0
178
1
 93
-1056964608
 45
4.0
292
0
297
0
 46
4.0
 94
-1056964608
 47
1.0
 49
1.0
140
1.0
294
1
141
0.0
177
0
142
1.0
295
0
296
0
143
3.75
271
0
272
9
273
9
  0
DICTIONARY
  5
2D
330
A
100
AcDbDictionary
280
1
281
1
  3
CREATED_BY_EZDXF
350
2E
  3
WRITTEN_BY_EZDXF
350
95
  0
DICTIONARYVAR
  5
2E
330
2D
100
DictionaryVariables
280
0
  1
1.4.2 @ 2026-09-06T16:41:08.101653+00:00
  0
VISUALSTYLE
  5
5A
102
{ACAD_REACTORS
330
16
102
}
330
16
100
AcDbVisualStyle
  2
2dWireframe
 70
4
 90
0
 40
0.6
 62
7
290
0
291
0
  0
VISUALSTYLE
  5
5B
102
{ACAD_REACTORS
330
16
102
}
330
16
100
AcDbVisualStyle
  2
Basic
 70
7
 90
1
 40
0.6
 62
7
290
0
291
1
  0
VISUALSTYLE
  5
5C
102
{ACAD_REACTORS
330
16
102
}
330
16
100
AcDbVisualStyle
  2
Brighten
 70
12
 90
2
 40
0.6
 62
7
290
0
291
1
  0
VISUALSTYLE
  5
5D
102
{ACAD_REACTORS
330
16
102
}
330
16
100
AcDbVisualStyle
  2
ColorChange
 70
16
 90
2
 40
0.6
 62
8
290
0
291
1
  0
VISUALSTYLE
  5
5E
102
{ACAD_REACTORS
330
16
102
}
330
16
100
AcDbVisualStyle
  2
Conceptual
 70
9
 90
3
 40
0.6
 62
7
290
0
291
0
  0
VISUALSTYLE
  5
5F
102
{ACAD_REACTORS
330
16
102
}
330
16
100
AcDbVisualStyle
  2
Dim
 70
11
 90
2
 40
0.6
 62
7
290
0
291
1
  0
VISUALSTYLE
  5
60
102
{ACAD_REACTORS
330
16
102
}
330
16
100
AcDbVisualStyle
  2
EdgeColorOff
 70
22
 90
2
 40
0.6
 62
7
290
0
291
1
  0
VISUALSTYLE
  5
61
102
{ACAD_REACTORS
330
16
102
}
330
16
100
AcDbVisualStyle
  2
Facepattern
 70
15
 90
2
 40
0.6
 62
7
290
0
291
1
  0
VISUALSTYLE
  5
62
102
{ACAD_REACTORS
330
16
102
}
330
16
100
AcDbVisualStyle
  2
Flat
 70
0
 90
2
 40
0.6
 62
7
290
0
291
1
  0
VISUALSTYLE
  5
63
102
{ACAD_REACTORS
330
16
102
}
330
16
100
AcDbVisualStyle
  2
FlatWithEdges
 70
1
 90
2
 40
0.6
 62
7
290
0
291
1
  0
VISUALSTYLE
  5
64
102
{ACAD_REACTORS
330
16
102
}
330
16
100
AcDbVisualStyle
  2
Gouraud
 70
2
 90
2
 40
0.6
 62
7
290
0
291
1
  0
VISUALSTYLE
  5
65
102
{ACAD_REACTORS
330
16
102
}
330
16
100
AcDbVisualStyle
  2
GouraudWithEdges
 70
3
 90
2
 40
0.6
 62
7
290
0
291
1
  0
VISUALSTYLE
  5
66
102
{ACAD_REACTORS
330
16
102
}
330
16
100
AcDbVisualStyle
  2
Hidden
 70
6
 90
1
 40
0.6
 62
7
290
0
291
0
  0
VISUALSTYLE
  5
67
102
{ACAD_REACTORS
330
16
102
}
330
16
100
AcDbVisualStyle
  2
JitterOff
 70
20
 90
2
 40
0.6
 62
7
290
0
291
1
  0
VISUALSTYLE
  5
68
102
{ACAD_REACTORS
330
16
102
}
330
16
100
AcDbVisualStyle
  2
Linepattern
 70
14
 90
2
 40
0.6
 62
7
290
0
291
1
  0
VISUALSTYLE
  5
69
102
{ACAD_REACTORS
330
16
102
}
330
16
100
AcDbVisualStyle
  2
Modeling
 70
10
 90
2
 40
0.6
 62
7
290
0
291
0
  0
VISUALSTYLE
  5
6A
102
{ACAD_REACTORS
330
16
102
}
330
16
100
AcDbVisualStyle
  2
OverhangOff
 70
21
 90
2
 40
0.6
 62
7
290
0
291
1
  0
VISUALSTYLE
  5
6B
102
{ACAD_REACTORS
330
16
102
}
330
16
100
AcDbVisualStyle
  2
Realistic
 70
8
 90
2
 40
0.6
 62
7
290
0
291
0
  0
VISUALSTYLE
  5
6C
102
{ACAD_REACTORS
330
16
102
}
330
16
100
AcDbVisualStyle
  2
Shaded
 70
27
 90
2
 40
0.6
 62
7
290
0
291
0
  0
VISUALSTYLE
  5
6D
102
{ACAD_REACTORS
330
16
102
}
330
16
100
AcDbVisualStyle
  2
Shaded with edges
 70
26
 90
2
 40
0.6
 62
7
290
0
291
0
  0
VISUALSTYLE
  5
6E
102
{ACAD_REACTORS
330
16
102
}
330
16
100
AcDbVisualStyle
  2
Shades of Gray
 70
23
 90
2
 40
0.6
 62
7
290
0
291
0
  0
VISUALSTYLE
  5
6F
102
{ACAD_REACTORS
330
16
102
}
330
16
100
AcDbVisualStyle
  2
Sketchy
 70
24
 90
1
 40
0.6
 62
7
290
0
291
0
  0
VISUALSTYLE
  5
70
102
{ACAD_REACTORS
330
16
102
}
330
16
100
AcDbVisualStyle
  2
Thicken
 70
13
 90
2
 40
0.6
 62
7
290
0
291
1
  0
VISUALSTYLE
  5
71
102
{ACAD_REACTORS
330
16
102
}
330
16
100
AcDbVisualStyle
  2
Wireframe
 70
5
 90
0
 40
0.6
 62
7
290
0
291
0
  0
VISUALSTYLE
  5
72
102
{ACAD_REACTORS
330
16
102
}
330
16
100
AcDbVisualStyle
  2
X-Ray
 70
25
 90
2
 40
0.5
 62
7
290
0
291
0
  0
DICTIONARYVAR
  5
95
330
2D
100
DictionaryVariables
280
0
  1
1.4.2 @ 2026-09-06T16:41:08.112772+00:00
  0
ENDSEC
  0
EOF
