  0
SECTION
  2
HEADER
  9
$ACADVER
  1
AC1024
  9
$ACADMAINTVER
 70
6
  9
$DWGCODEPAGE
  3
ANSI_1252
  9
$LASTSAVEDBY
  1
ezdxf
  9
$INSBASE
 10
0.0
 20
0.0
 30
0.0
  9
$EXTMIN
 10
1e+20
 20
1e+20
 30
1e+20
  9
$EXTMAX
 10
-1e+20
 20
-1e+20
 30
-1e+20
  9
$LIMMIN
 10
0.0
 20
0.0
  9
$LIMMAX
 10
420.0
 20
297.0
  9
$ORTHOMODE
 70
0
  9
$REGENMODE
 70
1
  9
$FILLMODE
 70
1
  9
$QTEXTMODE
 70
0
  9
$MIRRTEXT
 70
1
  9
$LTSCALE
 40
1.0
  9
$ATTMODE
 70
1
  9
$TEXTSIZE
 40
2.5
  9
$TRACEWID
 40
1.0
  9
$TEXTSTYLE
  7
OpenSans
  9
$CLAYER
  8
0
  9
$CELTYPE
  6
ByLayer
  9
$CECOLOR
 62
256
  9
$CELTSCALE
 40
1.0
  9
$DISPSILH
 70
0
  9
$DIMSCALE
 40
1.0
  9
$DIMASZ
 40
0.175
  9
$DIMEXO
 40
0.125
  9
$DIMDLI
 40
3.75
  9
$DIMRND
 40
0.0
  9
$DIMDLE
 40
0.0
  9
$DIMEXE
 40
0.375
  9
$DIMTP
 40
0.0
  9
$DIMTM
 40
0.0
  9
$DIMTXT
 40
0.25
  9
$DIMCEN
 40
2.5
  9
$DIMTSZ
 40
0.0
  9
$DIMTOL
 70
0
  9
$DIMLIM
 70
0
  9
$DIMTIH
 70
0
  9
$DIMTOH
 70
0
  9
$DIMSE1
 70
0
  9
$DIMSE2
 70
0
  9
$DIMTAD
 70
1
  9
$DIMZIN
 70
12
  9
$DIMBLK
  1
ARCHTICK
  9
$DIMASO
 70
1
  9
$DIMSHO
 70
1
  9
$DIMPOST
  1

  9
$DIMAPOST
  1

  9
$DIMALT
 70
0
  9
$DIMALTD
 70
3
  9
$DIMALTF
 40
0.03937007874
  9
$DIMLFAC
 40
100.0
  9
$DIMTOFL
 70
1
  9
$DIMTVP
 40
0.0
  9
$DIMTIX
 70
0
  9
$DIMSOXD
 70
0
  9
$DIMSAH
 70
0
  9
$DIMBLK1
  1

  9
$DIMBLK2
  1

  9
$DIMSTYLE
  2
EZDXF
  9
$DIMCLRD
 70
0
  9
$DIMCLRE
 70
0
  9
$DIMCLRT
 70
0
  9
$DIMTFAC
 40
0.5
  9
$DIMGAP
 40
0.1
  9
$DIMJUST
 70
0
  9
$DIMSD1
 70
0
  9
$DIMSD2
 70
0
  9
$DIMTOLJ
 70
0
  9
$DIMTZIN
 70
8
  9
$DIMALTZ
 70
0
  9
$DIMALTTZ
 70
0
  9
$DIMUPT
 70
1
  9
$DIMDEC
 70
2
  9
$DIMTDEC
 70
2
  9
$DIMALTU
 70
2
  9
$DIMALTTD
 70
3
  9
$DIMTXSTY
  7
OpenSansCondensed-Light
  9
$DIMAUNIT
 70
0
  9
$DIMADEC
 70
2
  9
$DIMALTRND
 40
0.0
  9
$DIMAZIN
 70
3
  9
$DIMDSEP
 70
46
  9
$DIMATFIT
 70
3
  9
$DIMFRAC
 70
0
  9
$DIMLDRBLK
  1

  9
$DIMLUNIT
 70
2
  9
$DIMLWD
 70
-2
  9
$DIMLWE
 70
-2
  9
$DIMTMOVE
 70
2
  9
$DIMFXL
 40
1.0
  9
$DIMFXLON
 70
0
  9
$DIMJOGANG
 40
0.785398163397
  9
$DIMTFILL
 70
0
  9
$DIMTFILLCLR
 70
0
  9
$DIMARCSYM
 70
0
  9
$DIMLTYPE
  6

  9
$DIMLTEX1
  6

  9
$DIMLTEX2
  6

  9
$DIMTXTDIRECTION
 70
0
  9
$LUNITS
 70
2
  9
$LUPREC
 70
4
  9
$SKETCHINC
 40
1.0
  9
$FILLETRAD
 40
10.0
  9
$AUNITS
 70
0
  9
$AUPREC
 70
2
  9
$MENU
  1
.
  9
$ELEVATION
 40
0.0
  9
$PELEVATION
 40
0.0
  9
$THICKNESS
 40
0.0
  9
$LIMCHECK
 70
0
  9
$CHAMFERA
 40
0.0
  9
$CHAMFERB
 40
0.0
  9
$CHAMFERC
 40
0.0
  9
$CHAMFERD
 40
0.0
  9
$SKPOLY
 70
0
  9
$TDCREATE
 40
2461290.4452314815
  9
$TDUCREATE
 40
2458532.153996898
  9
$TDUPDATE
 40
2461290.4452314815
  9
$TDUUPDATE
 40
2458532.1544311
  9
$TDINDWG
 40
0.0
  9
$TDUSRTIMER
 40
0.0
  9
$USRTIMER
 70
1
  9
$ANGBASE
 50
0.0
  9
$ANGDIR
 70
0
  9
$PDMODE
 70
0
  9
$PDSIZE
 40
0.0
  9
$PLINEWID
 40
0.0
  9
$SPLFRAME
 70
0
  9
$SPLINETYPE
 70
6
  9
$SPLINESEGS
 70
8
  9
$HANDSEED
  5
96
  9
$SURFTAB1
 70
6
  9
$SURFTAB2
 70
6
  9
$SURFTYPE
 70
6
  9
$SURFU
 70
6
  9
$SURFV
 70
6
  9
$UCSBASE
  2

  9
$UCSNAME
  2

  9
$UCSORG
 10
0.0
 20
0.0
 30
0.0
  9
$UCSXDIR
 10
1.0
 20
0.0
 30
0.0
  9
$UCSYDIR
 10
0.0
 20
1.0
 30
0.0
  9
$UCSORTHOREF
  2

  9
$UCSORTHOVIEW
 70
0
  9
$UCSORGTOP
 10
0.0
 20
0.0
 30
0.0
  9
$UCSORGBOTTOM
 10
0.0
 20
0.0
 30
0.0
  9
$UCSORGLEFT
 10
0.0
 20
0.0
 30
0.0
  9
$UCSORGRIGHT
 10
0.0
 20
0.0
 30
0.0
  9
$UCSORGFRONT
 10
0.0
 20
0.0
 30
0.0
  9
$UCSORGBACK
 10
0.0
 20
0.0
 30
0.0
  9
$PUCSBASE
  2

  9
$PUCSNAME
  2

  9
$PUCSORG
 10
0.0
 20
0.0
 30
0.0
  9
$PUCSXDIR
 10
1.0
 20
0.0
 30
0.0
  9
$PUCSYDIR
 10
0.0
 20
1.0
 30
0.0
  9
$PUCSORTHOREF
  2

  9
$PUCSORTHOVIEW
 70
0
  9
$PUCSORGTOP
 10
0.0
 20
0.0
 30
0.0
  9
$PUCSORGBOTTOM
 10
0.0
 20
0.0
 30
0.0
  9
$PUCSORGLEFT
 10
0.0
 20
0.0
 30
0.0
  9
$PUCSORGRIGHT
 10
0.0
 20
0.0
 30
0.0
  9
$PUCSORGFRONT
 10
0.0
 20
0.0
 30
0.0
  9
$PUCSORGBACK
 10
0.0
 20
0.0
 30
0.0
  9
$USERI1
 70
0
  9
$USERI2
 70
0
  9
$USERI3
 70
0
  9
$USERI4
 70
0
  9
$USERI5
 70
0
  9
$USERR1
 40
0.0
  9
$USERR2
 40
0.0
  9
$USERR3
 40
0.0
  9
$USERR4
 40
0.0
  9
$USERR5
 40
0.0
  9
$WORLDVIEW
 70
1
  9
$SHADEDGE
 70
3
  9
$SHADEDIF
 70
70
  9
$TILEMODE
 70
1
  9
$MAXACTVP
 70
64
  9
$PINSBASE
 10
0.0
 20
0.0
 30
0.0
  9
$PLIMCHECK
 70
0
  9
$PEXTMIN
 10
1e+20
 20
1e+20
 30
1e+20
  9
$PEXTMAX
 10
-1e+20
 20
-1e+20
 30
-1e+20
  9
$PLIMMIN
 10
0.0
 20
0.0
  9
$PLIMMAX
 10
420.0
 20
297.0
  9
$UNITMODE
 70
0
  9
$VISRETAIN
 70
1
  9
$PLINEGEN
 70
0
  9
$PSLTSCALE
 70
1
  9
$TREEDEPTH
 70
3020
  9
$CMLSTYLE
  2
Standard
  9
$CMLJUST
 70
0
  9
$CMLSCALE
 40
20.0
  9
$PROXYGRAPHICS
 70
1
  9
$MEASUREMENT
 70
1
  9
$CELWEIGHT
370
-1
  9
$ENDCAPS
280
0
  9
$JOINSTYLE
280
0
  9
$LWDISPLAY
290
0
  9
$INSUNITS
 70
4
  9
$HYPERLINKBASE
  1

  9
$STYLESHEET
  1

  9
$XEDIT
290
1
  9
$CEPSNTYPE
380
0
  9
$PSTYLEMODE
290
1
  9
$FINGERPRINTGUID
  2
{510F000B-8DFA-4D5A-B9E9-652DEE02D1E7}
  9
$VERSIONGUID
  2
{4B4E37C7-56EA-4B84-B23C-20485D696916}
  9
$EXTNAMES
290
1
  9
$PSVPSCALE
 40
0.0
  9
$OLESTARTUP
290
0
  9
$SORTENTS
280
127
  9
$INDEXCTL
280
0
  9
$HIDETEXT
280
1
  9
$XCLIPFRAME
280
1
  9
$HALOGAP
280
0
  9
$OBSCOLOR
 70
257
  9
$OBSLTYPE
280
0
  9
$INTERSECTIONDISPLAY
280
0
  9
$INTERSECTIONCOLOR
 70
257
  9
$DIMASSOC
280
2
  9
$PROJECTNAME
  1

  9
$CAMERADISPLAY
290
0
  9
$LENSLENGTH
 40
50.0
  9
$CAMERAHEIGHT
 40
0.0
  9
$STEPSPERSEC
 40
24.0
  9
$STEPSIZE
 40
100.0
  9
$3DDWFPREC
 40
2.0
  9
$PSOLWIDTH
 40
0.005
  9
$PSOLHEIGHT
 40
0.08
  9
$LOFTANG1
 40
1.570796326795
  9
$LOFTANG2
 40
1.570796326795
  9
$LOFTMAG1
 40
0.0
  9
$LOFTMAG2
 40
0.0
  9
$LOFTPARAM
 70
7
  9
$LOFTNORMALS
280
1
  9
$LATITUDE
 40
37.795
  9
$LONGITUDE
 40
-122.394
  9
$NORTHDIRECTION
 40
0.0
  9
$TIMEZONE
 70
-8000
  9
$LIGHTGLYPHDISPLAY
280
1
  9
$TILEMODELIGHTSYNCH
280
1
  9
$CMATERIAL
347
20
  9
$SOLIDHIST
280
0
  9
$SHOWHIST
280
1
  9
$DWFFRAME
280
2
  9
$DGNFRAME
280
2
  9
$REALWORLDSCALE
290
1
  9
$INTERFERECOLOR
 62
256
  9
$CSHADOW
280
0
  9
$SHADOWPLANELOCATION
 40
0.0
  0
ENDSEC
  0
SECTION
  2
CLASSES
  0
CLASS
  1
ACDBDICTIONARYWDFLT
  2
AcDbDictionaryWithDefault
  3
ObjectDBX Classes
 90
0
 91
0
280
0
281
0
  0
CLASS
  1
SUN
  2
AcDbSun
  3
SCENEOE
 90
1153
 91
0
280
0
281
0
  0
CLASS
  1
VISUALSTYLE
  2
AcDbVisualStyle
  3
ObjectDBX Classes
 90
4095
 91
0
280
0
281
0
  0
CLASS
  1
MATERIAL
  2
AcDbMaterial
  3
ObjectDBX Classes
 90
1153
 91
0
280
0
281
0
  0
CLASS
  1
SCALE
  2
AcDbScale
  3
ObjectDBX Classes
 90
1153
 91
0
280
0
281
0
  0
CLASS
  1
TABLESTYLE
  2
AcDbTableStyle
  3
ObjectDBX Classes
 90
4095
 91
0
280
0
281
0
  0
CLASS
  1
MLEADERSTYLE
  2
AcDbMLeaderStyle
  3
ACDB_MLEADERSTYLE_CLASS
 90
4095
 91
0
280
0
281
0
  0
CLASS
  1
DICTIONARYVAR
  2
AcDbDictionaryVar
  3
ObjectDBX Classes
 90
0
 91
0
280
0
281
0
  0
CLASS
  1
CELLSTYLEMAP
  2
AcDbCellStyleMap
  3
ObjectDBX Classes
 90
1152
 91
0
280
0
281
0
  0
CLASS
  1
MENTALRAYRENDERSETTINGS
  2
AcDbMentalRayRenderSettings
  3
SCENEOE
 90
1024
 91
0
280
0
281
0
  0
CLASS
  1
ACDBDETAILVIEWSTYLE
  2
AcDbDetailViewStyle
  3
ObjectDBX Classes
 90
1025
 91
0
280
0
281
0
  0
CLASS
  1
ACDBSECTIONVIEWSTYLE
  2
AcDbSectionViewStyle
  3
ObjectDBX Classes
 90
1025
 91
0
280
0
281
0
  0
CLASS
  1
RASTERVARIABLES
  2
AcDbRasterVariables
  3
ISM
 90
0
 91
0
280
0
281
0
  0
CLASS
  1
LAYOUT
  2
AcDbLayout
  3
ObjectDBX Classes
 90
0
 91
0
280
0
281
0
  0
CLASS
  1
ACDBPLACEHOLDER
  2
AcDbPlaceHolder
  3
ObjectDBX Classes
 90
0
 91
0
280
0
281
0
  0
ENDSEC
  0
SECTION
  2
TABLES
  0
TABLE
  2
VPORT
  5
8
330
0
100
AcDbSymbolTable
 70
1
  0
VPORT
  5
23
330
8
100
AcDbSymbolTableRecord
100
AcDbViewportTableRecord
  2
*Active
 70
0
 10
0.0
 20
0.0
 11
1.0
 21
1.0
 12
0.0
 22
0.0
 13
0.0
 23
0.0
 14
0.5
 24
0.5
 15
0.5
 25
0.5
 16
0.0
 26
0.0
 36
1.0
 17
0.0
 27
0.0
 37
0.0
 40
1000.0
 41
1.34
 42
50.0
 43
0.0
 44
0.0
 50
0.0
 51
0.0
 71
0
 72
1000
 73
1
 74
3
 75
0
 76
0
 77
0
 78
0
281
0
 65
0
146
0.0
  0
ENDTAB
  0
TABLE
  2
LTYPE
  5
2
330
0
100
AcDbSymbolTable
 70
21
  0
LTYPE
  5
24
330
2
100
AcDbSymbolTableRecord
100
AcDbLinetypeTableRecord
  2
ByBlock
 70
0
  3

 72
65
 73
0
 40
0.0
  0
LTYPE
  5
25
330
2
100
AcDbSymbolTableRecord
100
AcDbLinetypeTableRecord
  2
ByLayer
 70
0
  3

 72
65
 73
0
 40
0.0
  0
LTYPE
  5
26
330
2
100
AcDbSymbolTableRecord
100
AcDbLinetypeTableRecord
  2
Continuous
 70
0
  3

 72
65
 73
0
 40
0.0
  0
LTYPE
  5
2F
330
2
100
AcDbSymbolTableRecord
100
AcDbLinetypeTableRecord
  2
CENTER
 70
0
  3
Center ____ _ ____ _ ____ _ ____ _ ____ _ ____
 72
65
 73
4
 40
5.08
 49
3.175
 74
0
 49
-0.635
 74
0
 49
0.635
 74
0
 49
-0.635
 74
0
  0
LTYPE
  5
30
330
2
100
AcDbSymbolTableRecord
100
AcDbLinetypeTableRecord
  2
CENTERX2
 70
0
  3
Center (2x) ________  __  ________  __  ________
 72
65
 73
4
 40
8.89
 49
6.35
 74
0
 49
-0.635
 74
0
 49
1.27
 74
0
 49
-0.635
 74
0
  0
LTYPE
  5
31
330
2
100
AcDbSymbolTableRecord
100
AcDbLinetypeTableRecord
  2
CENTER2
 70
0
  3
Center (.5x) ____ _ ____ _ ____ _ ____ _ ____
 72
65
 73
4
 40
2.54
 49
1.587
 74
0
 49
-0.318
 74
0
 49
0.318
 74
0
 49
-0.318
 74
0
  0
LTYPE
  5
32
330
2
100
AcDbSymbolTableRecord
100
AcDbLinetypeTableRecord
  2
DASHED
 70
0
  3
Dashed __ __ __ __ __ __ __ __ __ __ __ __ __ _
 72
65
 73
2
 40
1.524
 49
1.27
 74
0
 49
-0.254
 74
0
  0
LTYPE
  5
33
330
2
100
AcDbSymbolTableRecord
100
AcDbLinetypeTableRecord
  2
DASHEDX2
 70
0
  3
Dashed (2x) ____  ____  ____  ____  ____  ____
 72
65
 73
2
 40
3.048
 49
2.54
 74
0
 49
-0.508
 74
0
  0
LTYPE
  5
34
330
2
100
AcDbSymbolTableRecord
100
AcDbLinetypeTableRecord
  2
DASHED2
 70
0
  3
Dashed (.5x) _ _ _ _ _ _ _ _ _ _ _ _ _ _
 72
65
 73
2
 40
0.762
 49
0.635
 74
0
 49
-0.127
 74
0
  0
LTYPE
  5
35
330
2
100
AcDbSymbolTableRecord
100
AcDbLinetypeTableRecord
  2
PHANTOM
 70
0
  3
Phantom ______  __  __  ______  __  __  ______
 72
65
 73
6
 40
6.35
 49
3.175
 74
0
 49
-0.635
 74
0
 49
0.635
 74
0
 49
-0.635
 74
0
 49
0.635
 74
0
 49
-0.635
 74
0
  0
LTYPE
  5
36
330
2
100
AcDbSymbolTableRecord
100
AcDbLinetypeTableRecord
  2
PHANTOMX2
 70
0
  3
Phantom (2x)____________    ____    ____    ____________
 72
65
 73
6
 40
10.795
 49
6.35
 74
0
 49
-0.635
 74
0
 49
1.27
 74
0
 49
-0.635
 74
0
 49
1.27
 74
0
 49
-0.635
 74
0
  0
LTYPE
  5
37
330
2
100
AcDbSymbolTableRecord
100
AcDbLinetypeTableRecord
  2
PHANTOM2
 70
0
  3
Phantom (.5x) ___ _ _ ___ _ _ ___ _ _ ___ _ _ ___
 72
65
 73
6
 40
3.175
 49
1.587
 74
0
 49
-0.318
 74
0
 49
0.318
 74
0
 49
-0.318
 74
0
 49
0.318
 74
0
 49
-0.318
 74
0
  0
LTYPE
  5
38
330
2
100
AcDbSymbolTableRecord
100
AcDbLinetypeTableRecord
  2
DASHDOT
 70
0
  3
Dash dot __ . __ . __ . __ . __ . __ . __ . __
 72
65
 73
4
 40
3.556
 49
2.54
 74
0
 49
-0.508
 74
0
 49
0.0
 74
0
 49
-0.508
 74
0
  0
LTYPE
  5
39
330
2
100
AcDbSymbolTableRecord
100
AcDbLinetypeTableRecord
  2
DASHDOTX2
 70
0
  3
Dash dot (2x) ____  .  ____  .  ____  .  ____
 72
65
 73
4
 40
6.096
 49
5.08
 74
0
 49
-0.508
 74
0
 49
0.0
 74
0
 49
-0.508
 74
0
  0
LTYPE
  5
3A
330
2
100
AcDbSymbolTableRecord
100
AcDbLinetypeTableRecord
  2
DASHDOT2
 70
0
  3
Dash dot (.5x) _ . _ . _ . _ . _ . _ . _ . _
 72
65
 73
4
 40
1.778
 49
1.27
 74
0
 49
-0.254
 74
0
 49
0.0
 74
0
 49
-0.254
 74
0
  0
LTYPE
  5
3B
330
2
100
AcDbSymbolTableRecord
100
AcDbLinetypeTableRecord
  2
DOT
 70
0
  3
Dot .  .  .  .  .  .  .  .  .  .  .  .  .  .  .  .
 72
65
 73
2
 40
0.508
 49
0.0
 74
0
 49
-0.508
 74
0
  0
LTYPE
  5
3C
330
2
100
AcDbSymbolTableRecord
100
AcDbLinetypeTableRecord
  2
DOTX2
 70
0
  3
Dot (2x) .    .    .    .    .    .    .    . 
 72
65
 73
2
 40
1.016
 49
0.0
 74
0
 49
-1.016
 74
0
  0
LTYPE
  5
3D
330
2
100
AcDbSymbolTableRecord
100
AcDbLinetypeTableRecord
  2
DOT2
 70
0
  3
Dot (.5) . . . . . . . . . . . . . . . . . . . 
 72
65
 73
2
 40
0.254
 49
0.0
 74
0
 49
-0.254
 74
0
  0
LTYPE
  5
3E
330
2
100
AcDbSymbolTableRecord
100
AcDbLinetypeTableRecord
  2
DIVIDE
 70
0
  3
Divide __ . . __ . . __ . . __ . . __ . . __
 72
65
 73
6
 40
4.064
 49
2.54
 74
0
 49
-0.508
 74
0
 49
0.0
 74
0
 49
-0.508
 74
0
 49
0.0
 74
0
 49
-0.508
 74
0
  0
LTYPE
  5
3F
330
2
100
AcDbSymbolTableRecord
100
AcDbLinetypeTableRecord
  2
DIVIDEX2
 70
0
  3
Divide (2x) ____  . .  ____  . .  ____  . .  ____
 72
65
 73
6
 40
6.604
 49
5.08
 74
0
 49
-0.508
 74
0
 49
0.0
 74
0
 49
-0.508
 74
0
 49
0.0
 74
0
 49
-0.508
 74
0
  0
LTYPE
  5
40
330
2
100
AcDbSymbolTableRecord
100
AcDbLinetypeTableRecord
  2
DIVIDE2
 70
0
  3
Divide(.5x) _ . _ . _ . _ . _ . _ . _ . _
 72
65
 73
6
 40
2.032
 49
1.27
 74
0
 49
-0.254
 74
0
 49
0.0
 74
0
 49
-0.254
 74
0
 49
0.0
 74
0
 49
-0.254
 74
0
  0
ENDTAB
  0
TABLE
  2
LAYER
  5
1
330
0
100
AcDbSymbolTable
 70
5
  0
LAYER
  5
27
330
1
100
AcDbSymbolTableRecord
100
AcDbLayerTableRecord
  2
0
 70
0
 62
7
  6
Continuous
370
-3
390
13
347
21
  0
LAYER
  5
28
330
1
100
AcDbSymbolTableRecord
100
AcDbLayerTableRecord
  2
Defpoints
 70
0
 62
7
  6
Continuous
290
0
370
-3
390
13
347
21
  0
LAYER
  5
8A
330
1
100
AcDbSymbolTableRecord
100
AcDbLayerTableRecord
  2
CORTE
 70
0
 62
1
  6
Continuous
370
-3
390
13
347
21
  0
LAYER
  5
8B
330
1
100
AcDbSymbolTableRecord
100
AcDbLayerTableRecord
  2
GRABADO
 70
0
 62
5
  6
Continuous
370
-3
390
13
347
21
  0
LAYER
  5
8C
330
1
100
AcDbSymbolTableRecord
100
AcDbLayerTableRecord
  2
HOJA
 70
0
 62
8
  6
Continuous
370
-3
390
13
347
21
  0
ENDTAB
  0
TABLE
  2
STYLE
  5
5
330
0
100
AcDbSymbolTable
 70
26
  0
STYLE
  5
29
330
5
100
AcDbSymbolTableRecord
100
AcDbTextStyleTableRecord
  2
Standard
 70
0
 40
0.0
 41
1.0
 50
0.0
 71
0
 42
2.5
  3
txt
  4

  0
STYLE
  5
41
330
5
100
AcDbSymbolTableRecord
100
AcDbTextStyleTableRecord
  2
OpenSans-Light
 70
0
 40
0.0
 41
1.0
 50
0.0
 71
0
 42
2.5
  3
OpenSans-Light.ttf
  4

  0
STYLE
  5
42
330
5
100
AcDbSymbolTableRecord
100
AcDbTextStyleTableRecord
  2
OpenSans-Light-Italic
 70
0
 40
0.0
 41
1.0
 50
0.0
 71
0
 42
2.5
  3
OpenSans-LightItalic.ttf
  4

  0
STYLE
  5
43
330
5
100
AcDbSymbolTableRecord
100
AcDbTextStyleTableRecord
  2
OpenSans
 70
0
 40
0.0
 41
1.0
 50
0.0
 71
0
 42
2.5
  3
OpenSans-Regular.ttf
  4

  0
STYLE
  5
44
330
5
100
AcDbSymbolTableRecord
100
AcDbTextStyleTableRecord
  2
OpenSans-Italic
 70
0
 40
0.0
 41
1.0
 50
0.0
 71
0
 42
2.5
  3
OpenSans-Italic.ttf
  4

  0
STYLE
  5
45
330
5
100
AcDbSymbolTableRecord
100
AcDbTextStyleTableRecord
  2
OpenSans-SemiBold
 70
0
 40
0.0
 41
1.0
 50
0.0
 71
0
 42
2.5
  3
OpenSans-SemiBold.ttf
  4

  0
STYLE
  5
46
330
5
100
AcDbSymbolTableRecord
100
AcDbTextStyleTableRecord
  2
OpenSans-SemiBoldItalic
 70
0
 40
0.0
 41
1.0
 50
0.0
 71
0
 42
2.5
  3
OpenSans-SemiBoldItalic.ttf
  4

  0
STYLE
  5
47
330
5
100
AcDbSymbolTableRecord
100
AcDbTextStyleTableRecord
  2
OpenSans-Bold
 70
0
 40
0.0
 41
1.0
 50
0.0
 71
0
 42
2.5
  3
OpenSans-Bold.ttf
  4

  0
STYLE
  5
48
330
5
100
AcDbSymbolTableRecord
100
AcDbTextStyleTableRecord
  2
OpenSans-BoldItalic
 70
0
 40
0.0
 41
1.0
 50
0.0
 71
0
 42
2.5
  3
OpenSans-BoldItalic.ttf
  4

  0
STYLE
  5
49
330
5
100
AcDbSymbolTableRecord
100
AcDbTextStyleTableRecord
  2
OpenSans-ExtraBold
 70
0
 40
0.0
 41
1.0
 50
0.0
 71
0
 42
2.5
  3
OpenSans-ExtraBold.ttf
  4

  0
STYLE
  5
4A
330
5
100
AcDbSymbolTableRecord
100
AcDbTextStyleTableRecord
  2
OpenSans-ExtraBoldItalic
 70
0
 40
0.0
 41
1.0
 50
0.0
 71
0
 42
2.5
  3
OpenSans-ExtraBoldItalic.ttf
  4

  0
STYLE
  5
4B
330
5
100
AcDbSymbolTableRecord
100
AcDbTextStyleTableRecord
  2
OpenSansCondensed-Bold
 70
0
 40
0.0
 41
1.0
 50
0.0
 71
0
 42
2.5
  3
OpenSansCondensed-Bold.ttf
  4

  0
STYLE
  5
4C
330
5
100
AcDbSymbolTableRecord
100
AcDbTextStyleTableRecord
  2
OpenSansCondensed-Light
 70
0
 40
0.0
 41
1.0
 50
0.0
 71
0
 42
2.5
  3
OpenSansCondensed-Light.ttf
  4

  0
STYLE
  5
4D
330
5
100
AcDbSymbolTableRecord
100
AcDbTextStyleTableRecord
  2
OpenSansCondensed-Italic
 70
0
 40
0.0
 41
1.0
 50
0.0
 71
0
 42
2.5
  3
OpenSansCondensed-LightItalic.ttf
  4

  0
STYLE
  5
4E
330
5
100
AcDbSymbolTableRecord
100
AcDbTextStyleTableRecord
  2
LiberationSans
 70
0
 40
0.0
 41
1.0
 50
0.0
 71
0
 42
2.5
  3
LiberationSans-Regular.ttf
  4

  0
STYLE
  5
4F
330
5
100
AcDbSymbolTableRecord
100
AcDbTextStyleTableRecord
  2
LiberationSans-Bold
 70
0
 40
0.0
 41
1.0
 50
0.0
 71
0
 42
2.5
  3
LiberationSans-Bold.ttf
  4

  0
STYLE
  5
50
330
5
100
AcDbSymbolTableRecord
100
AcDbTextStyleTableRecord
  2
LiberationSans-BoldItalic
 70
0
 40
0.0
 41
1.0
 50
0.0
 71
0
 42
2.5
  3
LiberationSans-BoldItalic.ttf
  4

  0
STYLE
  5
51
330
5
100
AcDbSymbolTableRecord
100
AcDbTextStyleTableRecord
  2
LiberationSans-Italic
 70
0
 40
0.0
 41
1.0
 50
0.0
 71
0
 42
2.5
  3
LiberationSans-Italic.ttf
  4

  0
STYLE
  5
52
330
5
100
AcDbSymbolTableRecord
100
AcDbTextStyleTableRecord
  2
LiberationSerif
 70
0
 40
0.0
 41
1.0
 50
0.0
 71
0
 42
2.5
  3
LiberationSerif-Regular.ttf
  4

  0
STYLE
  5
53
330
5
100
AcDbSymbolTableRecord
100
AcDbTextStyleTableRecord
  2
LiberationSerif-Bold
 70
0
 40
0.0
 41
1.0
 50
0.0
 71
0
 42
2.5
  3
LiberationSerif-Bold.ttf
  4

  0
STYLE
  5
54
330
5
100
AcDbSymbolTableRecord
100
AcDbTextStyleTableRecord
  2
LiberationSerif-BoldItalic
 70
0
 40
0.0
 41
1.0
 50
0.0
 71
0
 42
2.5
  3
LiberationSerif-BoldItalic.ttf
  4

  0
STYLE
  5
55
330
5
100
AcDbSymbolTableRecord
100
AcDbTextStyleTableRecord
  2
LiberationSerif-Italic
 70
0
 40
0.0
 41
1.0
 50
0.0
 71
0
 42
2.5
  3
LiberationSerif-Italic.ttf
  4

  0
STYLE
  5
56
330
5
100
AcDbSymbolTableRecord
100
AcDbTextStyleTableRecord
  2
LiberationMono
 70
0
 40
0.0
 41
1.0
 50
0.0
 71
0
 42
2.5
  3
LiberationMono-Regular.ttf
  4

  0
STYLE
  5
57
330
5
100
AcDbSymbolTableRecord
100
AcDbTextStyleTableRecord
  2
LiberationMono-Bold
 70
0
 40
0.0
 41
1.0
 50
0.0
 71
0
 42
2.5
  3
LiberationMono-Bold.ttf
  4

  0
STYLE
  5
58
330
5
100
AcDbSymbolTableRecord
100
AcDbTextStyleTableRecord
  2
LiberationMono-BoldItalic
 70
0
 40
0.0
 41
1.0
 50
0.0
 71
0
 42
2.5
  3
LiberationMono-BoldItalic.ttf
  4

  0
STYLE
  5
59
330
5
100
AcDbSymbolTableRecord
100
AcDbTextStyleTableRecord
  2
LiberationMono-Italic
 70
0
 40
0.0
 41
1.0
 50
0.0
 71
0
 42
2.5
  3
LiberationMono-Italic.ttf
  4

  0
ENDTAB
  0
TABLE
  2
VIEW
  5
7
330
0
100
AcDbSymbolTable
 70
0
  0
ENDTAB
  0
TABLE
  2
UCS
  5
6
330
0
100
AcDbSymbolTable
 70
0
  0
ENDTAB
  0
TABLE
  2
APPID
  5
3
330
0
100
AcDbSymbolTable
 70
3
  0
APPID
  5
2A
330
3
100
AcDbSymbolTableRecord
100
AcDbRegAppTableRecord
  2
ACAD
 70
0
  0
APPID
  5
93
330
3
100
AcDbSymbolTableRecord
100
AcDbRegAppTableRecord
  2
HATCHBACKGROUNDCOLOR
 70
0
  0
APPID
  5
94
330
3
100
AcDbSymbolTableRecord
100
AcDbRegAppTableRecord
  2
EZDXF
 70
0
  0
ENDTAB
  0
TABLE
  2
DIMSTYLE
  5
4
330
0
100
AcDbSymbolTable
 70
12
100
AcDbDimStyleTable
  0
DIMSTYLE
105
2B
330
4
100
AcDbSymbolTableRecord
100
AcDbDimStyleTableRecord
  2
Standard
 70
0
 40
1.0
 41
2.5
 42
0.625
 43
3.75
 44
1.25
 45
0.0
 46
0.0
 47
0.0
 48
0.0
 49
2.5
140
2.5
141
2.5
142
0.0
143
0.03937007874
144
1.0
145
0.0
146
1.0
147
0.625
148
0.0
 69
0
 70
0
 71
0
 72
0
 73
0
 74
0
 75
0
 76
0
 77
1
 78
8
 79
3
170
0
171
3
172
1
173
0
174
0
175
0
176
0
177
0
178
0
179
2
271
2
272
2
273
2
274
3
275
0
276
0
277
2
278
44
279
0
280
0
281
0
282
0
283
0
284
8
285
0
286
0
288
0
289
3
290
0
371
-2
372
-2
  0
DIMSTYLE
105
73
330
4
100
AcDbSymbolTableRecord
100
AcDbDimStyleTableRecord
  2
EZDXF
 70
0
 40
1.0
 41
0.175
 42
0.125
 43
3.75
 44
0.375
 45
0.0
 46
0.0
 47
0.0
 48
0.0
 49
2.5
140
0.25
141
2.5
142
0.0
143
0.03937007874
144
100.0
145
0.0
146
0.5
147
0.1
148
0.0
 69
0
 70
0
 71
0
 72
0
 73
0
 74
0
 75
0
 76
0
 77
1
 78
12
 79
3
170
0
171
3
172
1
173
0
174
0
175
0
176
0
177
0
178
0
179
2
271
2
272
2
273
2
274
3
275
0
276
0
277
2
278
46
279
2
280
0
281
0
282
0
283
0
284
8
285
0
286
0
288
1
289
3
290
0
340
4C
342
74
371
-2
372
-2
  0
DIMSTYLE
105
7C
330
4
100
AcDbSymbolTableRecord
100
AcDbDimStyleTableRecord
  2
EZ_M_100_H25_CM
 70
0
 40
1.0
 41
0.25
 42
0.125
 43
3.75
 44
0.375
 45
0.0
 46
0.0
 47
0.0
 48
0.0
 49
2.5
140
0.25
141
2.5
142
0.125
143
0.03937007874
144
100.0
145
0.0
146
0.5
147
0.1
148
0.0
 69
0
 70
0
 71
0
 72
0
 73
0
 74
0
 75
0
 76
0
 77
1
 78
12
 79
3
170
0
171
3
172
1
173
0
174
0
175
0
176
0
177
0
178
0
179
2
271
2
272
2
273
2
274
3
275
0
276
0
277
2
278
46
279
2
280
0
281
0
282
0
283
0
284
8
285
0
286
0
288
1
289
3
290
0
340
4C
371
-2
372
-2
  0
DIMSTYLE
105
7D
330
4
100
AcDbSymbolTableRecord
100
AcDbDimStyleTableRecord
  2
EZ_M_50_H25_CM
 70
0
 40
1.0
 41
0.125
 42
0.0625
 43
3.75
 44
0.1875
 45
0.0
 46
0.0
 47
0.0
 48
0.0
 49
2.5
140
0.125
141
2.5
142
0.0625
143
0.03937007874
144
100.0
145
0.0
146
0.5
147
0.05
148
0.0
 69
0
 70
0
 71
0
 72
0
 73
0
 74
0
 75
0
 76
0
 77
1
 78
12
 79
3
170
0
171
3
172
1
173
0
174
0
175
0
176
0
177
0
178
0
179
2
271
2
272
2
273
2
274
3
275
0
276
0
277
2
278
46
279
2
280
0
281
0
282
0
283
0
284
8
285
0
286
0
288
1
289
3
290
0
340
4C
371
-2
372
-2
  0
DIMSTYLE
105
7E
330
4
100
AcDbSymbolTableRecord
100
AcDbDimStyleTableRecord
  2
EZ_M_25_H25_CM
 70
0
 40
1.0
 41
0.0625
 42
0.03125
 43
3.75
 44
0.09375
 45
0.0
 46
0.0
 47
0.0
 48
0.0
 49
2.5
140
0.0625
141
2.5
142
0.03125
143
0.03937007874
144
100.0
145
0.0
146
0.5
147
0.025
148
0.0
 69
0
 70
0
 71
0
 72
0
 73
0
 74
0
 75
0
 76
0
 77
1
 78
12
 79
3
170
0
171
3
172
1
173
0
174
0
175
0
176
0
177
0
178
0
179
2
271
2
272
2
273
2
274
3
275
0
276
0
277
2
278
46
279
2
280
0
281
0
282
0
283
0
284
8
285
0
286
0
288
1
289
3
290
0
340
4C
371
-2
372
-2
  0
DIMSTYLE
105
7F
330
4
100
AcDbSymbolTableRecord
100
AcDbDimStyleTableRecord
  2
EZ_M_20_H25_CM
 70
0
 40
1.0
 41
0.05
 42
0.025
 43
3.75
 44
0.07500000000000001
 45
0.0
 46
0.0
 47
0.0
 48
0.0
 49
2.5
140
0.05
141
2.5
142
0.025
143
0.03937007874
144
100.0
145
0.0
146
0.5
147
0.020000000000000004
148
0.0
 69
0
 70
0
 71
0
 72
0
 73
0
 74
0
 75
0
 76
0
 77
1
 78
12
 79
3
170
0
171
3
172
1
173
0
174
0
175
0
176
0
177
0
178
0
179
2
271
2
272
2
273
2
274
3
275
0
276
0
277
2
278
46
279
2
280
0
281
0
282
0
283
0
284
8
285
0
286
0
288
1
289
3
290
0
340
4C
371
-2
372
-2
  0
DIMSTYLE
105
80
330
4
100
AcDbSymbolTableRecord
100
AcDbDimStyleTableRecord
  2
EZ_M_10_H25_CM
 70
0
 40
1.0
 41
0.025
 42
0.0125
 43
3.75
 44
0.037500000000000006
 45
0.0
 46
0.0
 47
0.0
 48
0.0
 49
2.5
140
0.025
141
2.5
142
0.0125
143
0.03937007874
144
100.0
145
0.0
146
0.5
147
0.010000000000000002
148
0.0
 69
0
 70
0
 71
0
 72
0
 73
0
 74
0
 75
0
 76
0
 77
1
 78
12
 79
3
170
0
171
3
172
1
173
0
174
0
175
0
176
0
177
0
178
0
179
2
271
2
272
2
273
2
274
3
275
0
276
0
277
2
278
46
279
2
280
0
281
0
282
0
283
0
284
8
285
0
286
0
288
1
289
3
290
0
340
4C
371
-2
372
-2
  0
DIMSTYLE
105
81
330
4
100
AcDbSymbolTableRecord
100
AcDbDimStyleTableRecord
  2
EZ_M_5_H25_CM
 70
0
 40
1.0
 41
0.0125
 42
0.00625
 43
3.75
 44
0.018750000000000003
 45
0.0
 46
0.0
 47
0.0
 48
0.0
 49
2.5
140
0.0125
141
2.5
142
0.00625
143
0.03937007874
144
100.0
145
0.0
146
0.5
147
0.005000000000000001
148
0.0
 69
0
 70
0
 71
0
 72
0
 73
0
 74
0
 75
0
 76
0
 77
1
 78
12
 79
3
170
0
171
3
172
1
173
0
174
0
175
0
176
0
177
0
178
0
179
2
271
2
272
2
273
2
274
3
275
0
276
0
277
2
278
46
279
2
280
0
281
0
282
0
283
0
284
8
285
0
286
0
288
1
289
3
290
0
340
4C
371
-2
372
-2
  0
DIMSTYLE
105
82
330
4
100
AcDbSymbolTableRecord
100
AcDbDimStyleTableRecord
  2
EZ_M_1_H25_CM
 70
0
 40
1.0
 41
0.0025
 42
0.00125
 43
3.75
 44
0.00375
 45
0.0
 46
0.0
 47
0.0
 48
0.0
 49
2.5
140
0.0025
141
2.5
142
0.00125
143
0.03937007874
144
100.0
145
0.0
146
0.5
147
0.001
148
0.0
 69
0
 70
0
 71
0
 72
0
 73
0
 74
0
 75
0
 76
0
 77
1
 78
12
 79
3
170
0
171
3
172
1
173
0
174
0
175
0
176
0
177
0
178
0
179
2
271
2
272
2
273
2
274
3
275
0
276
0
277
2
278
46
279
2
280
0
281
0
282
0
283
0
284
8
285
0
286
0
288
1
289
3
290
0
340
4C
371
-2
372
-2
  0
DIMSTYLE
105
83
330
4
100
AcDbSymbolTableRecord
100
AcDbDimStyleTableRecord
  2
EZ_RADIUS
 70
0
 40
1.0
 41
0.25
 42
0.125
 43
3.75
 44
0.375
 45
0.0
 46
0.0
 47
0.0
 48
0.0
 49
2.5
140
0.25
141
0.0
142
0.0
143
0.03937007874
144
100.0
145
0.0
146
0.5
147
0.1
148
0.0
 69
0
 70
0
 71
0
 72
0
 73
0
 74
0
 75
0
 76
0
 77
1
 78
12
 79
3
170
0
171
3
172
0
173
0
174
0
175
0
176
0
177
0
178
0
179
2
271
2
272
2
273
2
274
3
275
0
276
0
277
2
278
46
279
1
280
0
281
0
282
0
283
0
284
8
285
0
286
0
288
1
289
3
290
0
340
4C
342
84
371
-2
372
-2
  0
DIMSTYLE
105
88
330
4
100
AcDbSymbolTableRecord
100
AcDbDimStyleTableRecord
  2
EZ_RADIUS_INSIDE
 70
0
 40
1.0
 41
0.25
 42
0.125
 43
3.75
 44
0.375
 45
0.0
 46
0.0
 47
0.0
 48
0.0
 49
2.5
140
0.25
141
0.0
142
0.0
143
0.03937007874
144
100.0
145
0.0
146
0.5
147
0.1
148
0.0
 69
0
 70
0
 71
0
 72
0
 73
0
 74
0
 75
0
 76
0
 77
0
 78
12
 79
3
170
0
171
3
172
0
173
0
174
1
175
0
176
0
177
0
178
0
179
2
271
2
272
2
273
2
274
3
275
0
276
0
277
2
278
46
279
0
280
0
281
0
282
0
283
0
284
8
285
0
286
0
288
1
289
0
290
0
340
4C
342
84
371
-2
372
-2
  0
DIMSTYLE
105
89
330
4
100
AcDbSymbolTableRecord
100
AcDbDimStyleTableRecord
  2
EZ_CURVED
 70
0
 40
1.0
 41
0.25
 42
0.125
 43
3.75
 44
0.375
 45
0.0
 46
0.0
 47
0.0
 48
0.0
 49
2.5
140
0.25
141
2.5
142
0.0
143
0.03937007874
144
100.0
145
0.0
146
0.5
147
0.1
148
0.0
 69
0
 70
0
 71
0
 72
0
 73
0
 74
0
 75
0
 76
0
 77
1
 78
12
 79
2
 90
2
170
0
171
3
172
1
173
0
174
0
175
0
176
0
177
0
178
0
179
2
271
2
272
2
273
2
274
3
275
0
276
0
277
2
278
46
279
2
280
0
281
0
282
0
283
0
284
8
285
0
286
0
288
1
289
3
290
0
340
4C
371
-2
372
-2
  0
ENDTAB
  0
TABLE
  2
BLOCK_RECORD
  5
9
330
0
100
AcDbSymbolTable
 70
5
  0
BLOCK_RECORD
  5
17
330
9
100
AcDbSymbolTableRecord
100
AcDbBlockTableRecord
  2
*Model_Space
340
1A
 70
0
280
1
281
0
  0
BLOCK_RECORD
  5
1B
330
9
100
AcDbSymbolTableRecord
100
AcDbBlockTableRecord
  2
*Paper_Space
340
1E
 70
0
280
1
281
0
  0
BLOCK_RECORD
  5
74
330
9
100
AcDbSymbolTableRecord
100
AcDbBlockTableRecord
  2
_ARCHTICK
340
0
 70
0
280
1
281
0
  0
BLOCK_RECORD
  5
78
330
9
100
AcDbSymbolTableRecord
100
AcDbBlockTableRecord
  2
_CLOSEDFILLED
340
0
 70
0
280
1
281
0
  0
BLOCK_RECORD
  5
84
330
9
100
AcDbSymbolTableRecord
100
AcDbBlockTableRecord
  2
_CLOSEDBLANK
340
0
 70
0
280
1
281
0
  0
ENDTAB
  0
ENDSEC
  0
SECTION
  2
BLOCKS
  0
BLOCK
  5
18
330
17
100
AcDbEntity
  8
0
100
AcDbBlockBegin
  2
*Model_Space
 70
0
 10
0.0
 20
0.0
 30
0.0
  3
*Model_Space
  1

  0
ENDBLK
  5
19
330
17
100
AcDbEntity
  8
0
100
AcDbBlockEnd
  0
BLOCK
  5
1C
330
1B
100
AcDbEntity
  8
0
100
AcDbBlockBegin
  2
*Paper_Space
 70
0
 10
0.0
 20
0.0
 30
0.0
  3
*Paper_Space
  1

  0
ENDBLK
  5
1D
330
1B
100
AcDbEntity
  8
0
100
AcDbBlockEnd
  0
BLOCK
  5
75
330
74
100
AcDbEntity
  8
0
100
AcDbBlockBegin
  2
_ARCHTICK
 70
0
 10
0.0
 20
0.0
 30
0.0
  3
_ARCHTICK
  1

  0
LWPOLYLINE
  5
77
330
74
100
AcDbEntity
  8
0
  6
BYBLOCK
 62
0
100
AcDbPolyline
 90
2
 70
0
 43
0.15
 10
-0.5
 20
-0.5
 10
0.5
 20
0.5
  0
ENDBLK
  5
76
330
74
100
AcDbEntity
  8
0
100
AcDbBlockEnd
  0
BLOCK
  5
79
330
78
100
AcDbEntity
  8
0
100
AcDbBlockBegin
  2
_CLOSEDFILLED
 70
0
 10
0.0
 20
0.0
 30
0.0
  3
_CLOSEDFILLED
  1

  0
SOLID
  5
7B
330
78
100
AcDbEntity
  8
0
  6
BYBLOCK
 62
0
100
AcDbTrace
 10
-1.0
 20
0.16439898372402537
 30
0.0
 11
0.0
 21
0.0
 31
0.0
 12
-1.0
 22
-0.16439898372402537
 32
0.0
 13
-1.0
 23
-0.16439898372402537
 33
0.0
  0
ENDBLK
  5
7A
330
78
100
AcDbEntity
  8
0
100
AcDbBlockEnd
  0
BLOCK
  5
85
330
84
100
AcDbEntity
  8
0
100
AcDbBlockBegin
  2
_CLOSEDBLANK
 70
0
 10
0.0
 20
0.0
 30
0.0
  3
_CLOSEDBLANK
  1

  0
LWPOLYLINE
  5
87
330
84
100
AcDbEntity
  8
0
  6
BYBLOCK
 62
0
100
AcDbPolyline
 90
3
 70
1
 10
-1.0
 20
0.16439898372402537
 10
0.0
 20
0.0
 10
-1.0
 20
-0.16439898372402537
  0
ENDBLK
  5
86
330
84
100
AcDbEntity
  8
0
100
AcDbBlockEnd
  0
ENDSEC
  0
SECTION
  2
ENTITIES
  0
LWPOLYLINE
  5
8D
330
17
100
AcDbEntity
  8
HOJA
100
AcDbPolyline
 90
4
 70
1
 10
0.0
 20
0.0
 10
500.0
 20
0.0
 10
500.0
 20
700.0
 10
0.0
 20
700.0
  0
LWPOLYLINE
  5
8E
330
17
100
AcDbEntity
  8
CORTE
100
AcDbPolyline
 90
867
 70
1
 10
13.0
 20
221.63130313562536
 10
13.0
 20
221.9387125717467
 10
13.000000632762701
 20
222.52724826748897
 10
13.000001898744586
 20
223.33908721441418
 10
13.00000278104147
 20
223.92217801219905
 10
13.000003254079955
 20
224.3043997962733
 10
13.000003740460729
 20
224.66057289204136
 10
13.00000339705099
 20
224.74617379658946
 10
13.000002747106006
 20
224.77518108841875
 10
13.000002026606609
 20
224.8300333687848
 10
13.0000015348935
 20
224.9750764836124
 10
13.000001238299188
 20
225.18291399888963
 10
13.000000862877622
 20
225.3996576133084
 10
13.000001186505674
 20
225.7076934627181
 10
13.000001534893123
 20
225.99656882406046
 10
13.000001941736231
 20
226.26498354618658
 10
13.000002309343278
 20
226.50731478836673
 10
13.000002309343278
 20
282.89633142785954
 10
13.000002747087182
 20
284.0108799713653
 10
13.0000027810414
 20
284.2948763246356
 10
13.000003041831906
 20
285.0202370958959
 10
13.000003452504325
 20
286.0171446174518
 10
13.000003933174082
 20
287.1201049411372
 10
13.000004024774245
 20
287.4689025576914
 10
13.000004585181133
 20
288.6667977302724
 10
13.00000449905747
 20
288.66679894303564
 10
13.000004460095264
 20
288.76305712899386
 10
13.000004814939338
 20
289.5388831871695
 10
13.000004927678468
 20
289.8806473336473
 10
13.000004943273975
 20
290.0532612135724
 10
13.000004958883437
 20
290.22489698204924
 10
13.000004974266396
 20
290.39517066647153
 10
13.000004974266396
 20
290.54029477563074
 10
13.000004989665989
 20
290.7091153253974
 10
13.000004989665989
 20
291.2876400893578
 10
13.000005004841503
 20
291.4531889210411
 10
13.000005004841503
 20
291.7414781274344
 10
13.000005004840242
 20
291.8856222361219
 10
13.000005020031614
 20
292.04875813464844
 10
13.000005035003912
 20
292.21065324665534
 10
13.000005035003912
 20
292.3538309720894
 10
13.000004974265583
 20
292.4269190754329
 10
13.00000726085183
 20
292.62338992826875
 10
13.000005035011172
 20
292.78336491505496
 10
13.000005035008005
 20
293.1580399973437
 10
13.000004118871049
 20
293.15805289806383
 10
13.000003979354151
 20
293.22600403560153
 10
13.000003862340689
 20
293.3129997490035
 10
13.000003765178388
 20
293.42213531235655
 10
13.000003740460256
 20
293.58858489582957
 10
13.000004091434546
 20
294.00951736117275
 10
13.000004781718296
 20
294.62547817091047
 10
13.000005035003912
 20
294.93103518285596
 10
13.000005035003912
 20
295.0742134421451
 10
13.000004958883038
 20
295.1759111915762
 10
13.000005035003912
 20
295.3605690058792
 10
13.000005035003912
 20
296.3628149861288
 10
13.000005035004753
 20
296.50599463441245
 10
13.000005035004753
 20
296.7923523307285
 10
13.000005020032035
 20
296.9331308977835
 10
13.000005020032035
 20
297.2204451373358
 10
13.000005004841082
 20
297.3631272420326
 10
13.000005004841082
 20
359.71439546943475
 10
13.000004989665117
 20
359.828378969894
 10
13.000004989665117
 20
359.9730094889685
 10
13.000004974265977
 20
360.0880242211762
 10
13.000007237975028
 20
360.2331512036268
 10
13.000007230283643
 20
360.34967574852004
 10
13.000004958892141
 20
360.4952912493827
 10
13.000004943273524
 20
360.61289076762296
 10
13.000004943273524
 20
361.0204678150972
 10
13.000004553219963
 20
361.02047193277605
 10
13.000004590314424
 20
361.2387677308517
 10
13.000004626274734
 20
361.45037718196124
 10
13.000004764995223
 20
361.81120150456695
 10
13.000004896041354
 20
362.1520626299787
 10
13.00000486396491
 20
362.25445450412536
 10
13.000004847694253
 20
362.3806899208191
 10
13.00000483143807
 20
362.50798677003564
 10
13.000004814938428
 20
362.6360058169726
 10
13.000004781718264
 20
362.74364144098655
 10
13.000004748023327
 20
362.8528156191962
 10
13.000004713844316
 20
362.9635603342025
 10
13.000004713844312
 20
363.27050637110165
 10
13.000004696636456
 20
363.4046724258099
 10
13.000004643988355
 20
363.5013155277328
 10
13.000004572065293
 20
363.58094837649645
 10
13.00000453529933
 20
363.70125473148863
 10
13.00000451678165
 20
363.84205003735156
 10
13.000004479182829
 20
363.9656832827118
 10
13.00000446009526
 20
364.108932248663
 10
13.000004402256476
 20
364.2186282703301
 10
13.000004402256465
 20
364.382090459361
 10
13.000004382580213
 20
364.5291539944407
 10
13.000004362904996
 20
364.6774746946049
 10
13.000004342922175
 20
364.82682523712475
 10
13.000004322938677
 20
364.97745119489895
 10
13.00000430264322
 20
365.12914345402106
 10
13.000004282346374
 20
365.2821359300842
 10
13.000004220170695
 20
365.4095813873591
 10
13.000006850454426
 20
365.566124059608
 10
13.000006850454426
 20
365.7360858115317
 10
13.000006839815123
 20
365.89446012092645
 10
13.000004156673635
 20
366.0541964487595
 10
13.000004135039465
 20
366.2151352912548
 10
13.000004047118276
 20
366.3477016920396
 10
13.00000400206937
 20
366.5037754854398
 10
13.000004024774857
 20
366.6887994658006
 10
13.00000404711826
 20
366.87223734478505
 10
13.000004024774857
 20
367.03992136294653
 10
13.000004024774857
 20
367.21547821848077
 10
13.000004002069367
 20
367.3852180093526
 10
13.000003979354608
 20
367.5564058602803
 10
13.000003956270819
 20
367.7289844697205
 10
13.000003933174723
 20
367.9030410175431
 10
13.000003956270817
 20
368.08450092455513
 10
13.000003909701107
 20
368.25778085276215
 10
13.000003886213339
 20
368.4355233190056
 10
13.000003886213339
 20
368.615521625313
 10
13.000003862027649
 20
368.79789034740884
 10
13.00044643321894
 20
368.80490149669794
 10
13.001472496447539
 20
368.810319745496
 10
13.002678128600566
 20
368.8159780317163
 10
13.005734685216462
 20
368.8245848244627
 10
13.008617738634975
 20
368.83050496394674
 10
13.0122369747133
 20
368.8368747838987
 10
13.018586335559293
 20
368.8452557969852
 10
13.022815617401855
 20
368.8493911845305
 10
13.025507130183716
 20
368.8519750368011
 10
13.032381219726307
 20
368.85747430843514
 10
13.045711917223352
 20
368.86529492065574
 10
13.056057449010611
 20
368.8680961765483
 10
13.06332503536443
 20
368.86992344520615
 10
13.072562009517071
 20
368.870525558968
 10
62.49406065595825
 20
368.870525558968
 10
62.49406588203178
 20
368.87052622259637
 10
67.15114574388693
 20
368.87052622259637
 10
67.4402207733302
 20
368.87052615120473
 10
67.91838677298634
 20
368.8705259381904
 10
68.4637306799399
 20
368.87052565783404
 10
69.00246602084364
 20
368.8705253592722
 10
69.02430253643563
 20
368.87052545541087
 10
69.1952433658552
 20
368.8705254334333
 10
69.35130936939635
 20
368.8705254226186
 10
69.65812759715045
 20
368.87052526963237
 10
69.98309100679236
 20
368.8705250826689
 10
70.11621644795257
 20
368.8705250744194
 10
70.25573992239318
 20
368.870525058156
 10
70.35867144306417
 20
368.8705250826689
 10
70.46385250599864
 20
368.87052510764033
 10
70.63938736398501
 20
368.8705250421177
 10
70.76790629234068
 20
368.8705250342119
 10
70.88544147084625
 20
368.8705250421177
 10
70.99904334483534
 20
368.870525058156
 10
71.12292725940912
 20
368.870525058156
 10
71.25066549268507
 20
368.8705250501398
 10
71.38431028878865
 20
368.8705250262999
 10
71.75085514787418
 20
368.8705250262999
 10
71.87134749431466
 20
368.8705250342119
 10
71.99522145851967
 20
368.8705250262999
 10
72.11740116881609
 20
368.8705250262999
 10
72.23916161234104
 20
368.8705250342119
 10
72.36176747945983
 20
368.8705250262999
 10
124.31760354750718
 20
368.8705250262999
 10
124.4148463137876
 20
368.8705250342119
 10
124.66005572588108
 20
368.8705250342119
 10
124.75900805214047
 20
368.8705250421177
 10
125.1280892620127
 20
368.8705250421177
 10
125.22883034878836
 20
368.8705250501398
 10
125.3304448702188
 20
368.870525058156
 10
125.47574049078756
 20
368.8705250501398
 10
125.57821267823893
 20
368.870525058156
 10
125.6812362824771
 20
368.870525066291
 10
125.80555247924893
 20
368.870525066291
 10
125.94986439444158
 20
368.870525058156
 10
126.05419183608348
 20
368.870525066291
 10
126.30282770009576
 20
368.870525066291
 10
126.3903981812095
 20
368.8705250826689
 10
126.64078397651232
 20
368.8705250826689
 10
126.69626753462732
 20
368.8705251161267
 10
126.70428166523664
 20
368.8705251161267
 10
126.7042909276239
 20
368.87052572349637
 10
126.90863808184375
 20
368.8705256966701
 10
127.04611617534997
 20
368.8705257099143
 10
127.08260289494085
 20
368.8705257916142
 10
127.1212383500606
 20
368.87052587787974
 10
127.42816209293944
 20
368.8705257776332
 10
127.45659117760214
 20
368.87052587787946
 10
127.64322049047863
 20
368.8705258630991
 10
127.84578820430774
 20
368.87052583406296
 10
128.32041679697596
 20
368.87052557091135
 10
128.5377825422895
 20
368.8705255120035
 10
128.9952580856688
 20
368.87052522248877
 10
129.25298721908433
 20
368.87052509927906
 10
129.37102751527686
 20
368.87052510764033
 10
129.50514778176625
 20
368.87052509927906
 10
129.7573107256213
 20
368.87052509927906
 10
129.88964945993322
 20
368.8705250909122
 10
130.0152827302507
 20
368.8705250909122
 10
130.113795223477
 20
368.8705251332163
 10
130.25672119821704
 20
368.87052510764033
 10
130.3832475771578
 20
368.87052510764033
 10
130.50569412277952
 20
368.8705251161267
 10
130.63267686962777
 20
368.8705251161267
 10
130.75648386317175
 20
368.8705251246076
 10
131.01135315259725
 20
368.8705251246076
 10
131.13694634906815
 20
368.8705251332163
 10
182.75006887674581
 20
368.8705251332163
 10
182.84900645324024
 20
368.87052514181966
 10
183.3624190391932
 20
368.87052514181966
 10
183.4637123902397
 20
368.87052515055325
 10
183.59253197803977
 20
368.87052515055325
 10
183.74748044136044
 20
368.87052514181966
 10
184.1325418223136
 20
368.87052514181966
 10
184.23663168685695
 20
368.87052515055325
 10
184.88073321060443
 20
368.87052515055325
 10
184.9880998844009
 20
368.87052515928275
 10
187.18597096815495
 20
368.87052515928275
 10
187.32831641870052
 20
368.87052515055325
 10
187.46973385229668
 20
368.87052514181966
 10
187.59808774492777
 20
368.87052514181966
 10
187.73793191458023
 20
368.8705251332163
 10
187.86582647057165
 20
368.8705251332163
 10
188.0042981453936
 20
368.8705251246076
 10
188.12161409007933
 20
368.8705251332163
 10
188.24950805227255
 20
368.8705251332163
 10
188.3682093211769
 20
368.87052514181966
 10
188.48769761383767
 20
368.87052515055325
 10
188.61651795417072
 20
368.87052515055325
 10
188.7532699720875
 20
368.87052514181966
 10
188.8816235527924
 20
368.87052514181966
 10
188.99598283278434
 20
368.87052515928275
 10
189.11864135606666
 20
368.87052516814424
 10
189.76744091870614
 20
368.87052516814424
 10
189.90098824704927
 20
368.87052515928275
 10
190.02364868049239
 20
368.8705251770008
 10
190.544581054277
 20
368.8705251770008
 10
190.67670733637854
 20
368.87052515928275
 10
190.80504725396517
 20
368.8705251770008
 10
190.9352803722835
 20
368.87052516814424
 10
241.91740180747004
 20
368.87052516814424
 10
242.01735286019834
 20
368.8705251770008
 10
242.53828528692867
 20
368.8705251770008
 10
242.69596142102208
 20
368.87052516814424
 10
242.95548120933722
 20
368.87052516814424
 10
243.1112792166906
 20
368.87052515928275
 10
243.2150012231619
 20
368.87052516814424
 10
243.31968390118814
 20
368.8705251770008
 10
245.14294740037394
 20
368.8705251770008
 10
245.25492456162243
 20
368.87052518599296
 10
245.40341335790777
 20
368.8705251770008
 10
245.51635162794702
 20
368.87052518599296
 10
245.77777839435487
 20
368.87052518599296
 10
245.92434587924635
 20
368.8705251770008
 10
246.0545786987588
 20
368.8705251770008
 10
246.1994796773923
 20
368.87052516814424
 10
246.31504464595173
 20
368.8705251770008
 10
246.43134636007647
 20
368.87052518599296
 10
246.6927734264472
 20
368.87052518599296
 10
246.8110021228723
 20
368.87052519498064
 10
246.94219643826256
 20
368.87052519498064
 10
247.0849137304448
 20
368.87052518599296
 10
247.34634017473297
 20
368.87052518599296
 10
247.4669709087851
 20
368.87052519498064
 10
247.72935768639704
 20
368.87052519498064
 10
247.85177694042952
 20
368.8705252041057
 10
248.3785011208128
 20
368.8705252041057
 10
248.5038466550134
 20
368.87052521322727
 10
248.64186414565617
 20
368.8705252041057
 10
248.90522591734938
 20
368.8705252041057
 10
249.032520697307
 20
368.87052521322727
 10
249.1646910632848
 20
368.87052521322727
 10
249.29339481926226
 20
368.87052522248877
 10
249.55872265916844
 20
368.87052522248877
 10
249.68940623462132
 20
368.87052523174697
 10
249.8210574422091
 20
368.8705252411479
 10
250.0883765083997
 20
368.8705252411479
 10
250.22203854800503
 20
368.8705252505469
 10
301.0565674152975
 20
368.8705252505469
 10
301.1591170318361
 20
368.87052526009074
 10
301.26269528758536
 20
368.87052526963237
 10
301.3978765687003
 20
368.87052526963237
 10
301.4719800674103
 20
368.8705252890096
 10
301.54722792982733
 20
368.87052530868584
 10
301.68449563888777
 20
368.87052530868584
 10
301.79187179141445
 20
368.8705253186775
 10
301.9296745827922
 20
368.8705253186775
 10
302.09630129046195
 20
368.87052530868584
 10
302.1769872291464
 20
368.87052532866926
 10
302.3153225374274
 20
368.87052532866926
 10
302.42601100826016
 20
368.8705253388165
 10
302.5919950840803
 20
368.87052532866926
 10
302.73032907461425
 20
368.87052532866926
 10
302.84264386321536
 20
368.8705253388165
 10
303.2592780246069
 20
368.8705253388165
 10
303.42200879907335
 20
368.87052532866926
 10
303.53703542082764
 20
368.8705253388165
 10
303.65314155663395
 20
368.87052534896515
 10
303.7699842302993
 20
368.8705253592721
 10
303.88792423058845
 20
368.8705253695814
 10
304.0284471991379
 20
368.8705253695814
 10
304.14770958718
 20
368.87052538005327
 10
304.71203402016897
 20
368.87052538005327
 10
304.83465034855345
 20
368.87052539052604
 10
305.54285205141144
 20
368.87052539052604
 10
305.65379590948567
 20
368.8705254118068
 10
306.22490735118197
 20
368.8705254118068
 10
306.3549746871453
 20
368.8705254226186
 10
306.7850401033165
 20
368.8705254226186
 10
306.91799679132714
 20
368.8705254334333
 10
307.2058626017692
 20
368.8705254334333
 10
307.3409902167919
 20
368.8705254444211
 10
307.9190685700594
 20
368.8705254444211
 10
308.06946003872395
 20
368.8705254334333
 10
308.2081097665436
 20
368.8705254444211
 10
308.34793103046945
 20
368.8705254554116
 10
308.6381465655176
 20
368.8705254554116
 10
308.7802690973908
 20
368.8705254665795
 10
308.9259741893108
 20
368.8705254665795
 10
309.0698860276827
 20
368.87052547775124
 10
309.2173802935866
 20
368.8705254665795
 10
309.36368201960835
 20
368.8705254554116
 10
359.5086959054348
 20
368.8705254554116
 10
359.6162160668361
 20
368.8705254665795
 10
359.7989128109134
 20
368.8705254554116
 10
359.8651829587325
 20
368.8705254513859
 10
359.8651875219012
 20
368.8705257773265
 10
359.9898493956154
 20
368.8705257916144
 10
360.27030168112543
 20
368.87052575015747
 10
360.5061192192851
 20
368.8705257231739
 10
360.80869097966854
 20
368.87052567063154
 10
361.19924153085105
 20
368.87052558305106
 10
361.7656982195265
 20
368.870525421437
 10
361.7656984975188
 20
368.87052547703547
 10
361.89091659033585
 20
368.87052548910395
 10
362.18473076124417
 20
368.87052548910395
 10
362.3049403362137
 20
368.8705255004613
 10
362.4811739005082
 20
368.87052548041845
 10
362.4811750070531
 20
368.87052561873656
 10
362.5860163007463
 20
368.87052564504904
 10
362.7146165403091
 20
368.87052565783404
 10
363.047000649122
 20
368.87052557091135
 10
363.29189526719347
 20
368.87052552355124
 10
363.55021669669753
 20
368.8705254665795
 10
363.6109839895329
 20
368.8705255120035
 10
364.05537410746166
 20
368.8705255120035
 10
364.1843783499
 20
368.87052552355124
 10
364.35163785536554
 20
368.8705255120035
 10
364.48187318198075
 20
368.87052552355124
 10
365.5231037085637
 20
368.87052552355124
 10
365.6848108406388
 20
368.8705255120035
 10
366.12920089757023
 20
368.8705255120035
 10
366.2668449586966
 20
368.87052552355124
 10
366.42545910657105
 20
368.8705255120035
 10
366.5828432993807
 20
368.8705255004613
 10
366.87786822719823
 20
368.8705255004613
 10
367.03266454016386
 20
368.87052548910395
 10
367.11722095425654
 20
368.87052559519975
 10
367.21558476345393
 20
368.87052569667003
 10
367.3735854788759
 20
368.8705256966701
 10
367.5427089736569
 20
368.87052567063154
 10
367.7229007423711
 20
368.8705256075491
 10
367.9104638141322
 20
368.8705255004613
 10
368.0548958162247
 20
368.8705255120035
 10
368.205491477536
 20
368.8705255004613
 10
368.50052192154214
 20
368.8705255004613
 10
368.6474177562359
 20
368.8705255120035
 10
368.800216191876
 20
368.8705255120035
 10
368.8055022300171
 20
368.86986475723586
 10
368.81423618992136
 20
368.8686170486781
 10
368.82752437736264
 20
368.8636339783876
 10
368.83681139585775
 20
368.85832711067616
 10
368.8498312899957
 20
368.8485621900727
 10
368.8568973895375
 20
368.83866965071417
 10
368.86082548026155
 20
368.83299574189056
 10
368.8678423950764
 20
368.81795949585864
 10
368.86977793143257
 20
368.8063462777216
 10
368.87054686075754
 20
368.80019484312203
 10
368.87054686075754
 20
306.078333166809
 10
368.87055233763095
 20
305.90277198917636
 10
368.87055233766745
 20
305.5516531699507
 10
368.87054686075754
 20
305.3760896525895
 10
368.87054686075754
 20
298.8507504415038
 10
368.87055220574223
 20
298.6794209682687
 10
368.8705522057787
 20
298.5080853129687
 10
368.87054686075754
 20
298.334021969747
 10
368.87054686075754
 20
231.56609533902886
 10
368.87055201950574
 20
231.30283027019811
 10
368.87054686075754
 20
231.10187002834974
 10
368.87054686075754
 20
163.49726458924349
 10
368.8705515974313
 20
163.25853268321276
 10
368.8705515475028
 20
163.02505149517737
 10
368.8705515313478
 20
162.9496555101926
 10
368.8705519995362
 20
162.94965363743918
 10
368.8705519995362
 20
162.94042071551743
 10
368.87055171845293
 20
162.37024706229008
 10
368.87055153100323
 20
161.95015490568824
 10
368.87055153100323
 20
161.80045167488586
 10
368.87055149847635
 20
161.60695719553917
 10
368.87055151474704
 20
161.47968016840082
 10
368.87055149847635
 20
161.30963615515398
 10
368.8705514824454
 20
161.1409346855156
 10
368.8705514824454
 20
160.93974001553295
 10
368.8705518271424
 20
160.9397372579573
 10
368.8705518271424
 20
160.93506792683434
 10
368.8705514824454
 20
160.40020078550532
 10
368.87055146639995
 20
160.23508097041662
 10
368.8705514505896
 20
160.07123111100904
 10
368.87055143476414
 20
159.90837976770612
 10
368.87055141916824
 20
159.74676371722487
 10
368.8705514035587
 20
159.58613488020742
 10
368.8705513881758
 20
159.42671013021578
 10
368.8705513727766
 20
159.26825751227173
 10
368.8705513576015
 20
159.1109788804897
 10
368.8705513424097
 20
158.9546597420518
 10
368.8705513124488
 20
158.78795254932822
 10
368.8705514191681
 20
158.72393483646886
 10
368.8705513124488
 20
158.50255725177703
 10
368.87055129767606
 20
158.34991549394914
 10
368.8705512828846
 20
158.198208723394
 10
368.8705512828846
 20
158.05645924512424
 10
368.8705512537117
 20
157.89787661314023
 10
368.8705512393248
 20
157.74922242933334
 10
368.87055119650483
 20
157.5869070921476
 10
368.870551210722
 20
157.45476226192253
 10
368.87055122492046
 20
157.32169727299737
 10
368.87055119650483
 20
157.1699642902482
 10
368.87055118249043
 20
157.02559253890686
 10
368.8705511407691
 20
156.8723494680711
 10
368.87055109995043
 20
156.7220707528967
 10
368.87055109995015
 20
156.5861847146517
 10
368.8705511824901
 20
156.47146504742275
 10
368.87055122492046
 20
156.34245388457055
 10
368.8705512393241
 20
156.2053322165891
 10
368.8705512537113
 20
156.06728425732774
 10
368.8705512537113
 20
155.64484024617232
 10
368.8705512393241
 20
155.50356402646463
 10
368.8705512393241
 20
97.22198271553428
 10
368.8705468607941
 20
97.08162831600053
 10
368.87055832552534
 20
96.71412778507181
 10
368.87055852640975
 20
96.55908475573084
 10
368.8705585264098
 20
95.81120698703121
 10
368.87055832556183
 20
95.24412397492203
 10
368.8705582273284
 20
94.78530330737087
 10
368.8705581315129
 20
94.33495621917561
 10
368.87055803656284
 20
93.8915007804735
 10
368.87055733349706
 20
92.94731027882081
 10
368.87055578890556
 20
91.37382754776934
 10
368.8705553344526
 20
90.73802198765793
 10
368.87055482754863
 20
90.09268115894129
 10
368.8705540146132
 20
89.26402533720524
 10
368.87055375522516
 20
88.86010198381895
 10
368.8705531976598
 20
88.28165187606353
 10
368.8705524527425
 20
87.62484219782908
 10
368.8705518456589
 20
87.09531377570819
 10
368.87055132743706
 20
86.6531298533224
 10
368.87055135816234
 20
86.5964605025806
 10
368.8705520147868
 20
86.59645711002088
 10
368.8705521931784
 20
86.58639411688155
 10
368.8705535398672
 20
86.58638889846253
 10
368.870553565257
 20
86.55481790544128
 10
368.870554874593
 20
86.55481283176448
 10
368.8705554995632
 20
86.43441892982099
 10
368.87055572968154
 20
86.20913812975112
 10
368.87055572968154
 20
85.92484469574316
 10
368.8705552279759
 20
85.56014162971897
 10
368.87055473335784
 20
85.22851961760176
 10
368.8705536153542
 20
84.86865386582274
 10
368.87055282851213
 20
84.60169334073672
 10
368.87055250010036
 20
84.39987150799357
 10
368.8705520800953
 20
84.21910270830142
 10
368.8705520800953
 20
23.782470254664236
 10
368.87055168327146
 20
22.813803078655184
 10
368.87055146640034
 20
22.228211137033234
 10
368.8705514824454
 20
22.111953124765286
 10
368.8705514984768
 20
21.99464004104087
 10
368.8705469506888
 20
21.879033175636252
 10
368.87055161436035
 20
21.760499012950305
 10
368.87055168327123
 20
21.73171556225348
 10
368.8705517361665
 20
21.670384065799162
 10
368.8705517541509
 20
21.54523417988814
 10
368.8705517007304
 20
21.29762048154656
 10
368.8705515974465
 20
20.970319502132348
 10
368.87055158072343
 20
20.79114868360589
 10
368.87055158072343
 20
20.639852543720732
 10
368.87055157518927
 20
20.58112227601353
 10
368.8705517382366
 20
20.58112097927752
 10
368.87055153100323
 20
20.111053490157975
 10
368.8705515475028
 20
19.985678930309135
 10
368.8705515475028
 20
19.835447644206003
 10
368.87055151474704
 20
19.63901738628101
 10
368.8705515290838
 20
19.593482846046275
 10
368.87055169993357
 20
19.593480224570328
 10
368.8705517361665
 20
19.48246626399204
 10
368.8705516313806
 20
19.19183475271135
 10
368.87055171844065
 20
19.14777062367457
 10
368.87055184462287
 20
19.147011494925053
 10
368.87055192143083
 20
19.07707514673119
 10
368.8705518644608
 20
18.849116146436934
 10
368.8705518271424
 20
18.646856878792946
 10
368.8705517721263
 20
18.427702106851704
 10
368.8705515639895
 20
18.050101416895675
 10
368.87055149847635
 20
17.832139276877065
 10
368.87055149847635
 20
17.683479619512347
 10
368.87055159744637
 20
17.629991228482286
 10
368.8705515974465
 20
17.478162455854932
 10
368.8705516144184
 20
17.341560695367818
 10
368.8705515974465
 20
17.17449331085027
 10
368.8705515974465
 20
17.022658754435657
 10
368.87055158072303
 20
16.857427252214098
 10
368.87055158072303
 20
16.70612878779943
 10
368.87055161441833
 20
16.57967736627418
 10
368.8705517721268
 20
16.538515674001527
 10
368.8705518644608
 20
16.443235635603017
 10
368.8705518644608
 20
16.28284185487062
 10
368.87054686075754
 20
16.077327046198185
 10
368.87054686075754
 20
15.67465742037524
 10
368.87055164855605
 20
15.530566178084623
 10
368.87055166580524
 20
15.385363362494896
 10
368.8705516485974
 20
15.223620053457108
 10
368.870551631381
 20
15.062971596921802
 10
368.870551631381
 20
14.910049359116655
 10
368.87055180862035
 20
14.81962428206495
 10
368.8705519214309
 20
14.697181358090166
 10
368.87055203950354
 20
14.56902959081476
 10
368.87055218449626
 20
14.440206403909235
 10
368.8705522490315
 20
14.28403982915121
 10
368.8705522929901
 20
14.1197731634977
 10
368.8705522929901
 20
13.945642928738694
 10
368.8705522490315
 20
13.76587641341288
 10
368.8705522274035
 20
13.591075479516004
 10
368.8705521844963
 20
13.41629960847793
 10
368.87055194080904
 20
13.237841130022474
 10
368.87055163138086
 20
13.075000191934983
 10
368.870551631381
 20
13.070132045167641
 10
368.86867360531886
 20
13.05572672901804
 10
368.8629926486939
 20
13.041739546220958
 10
368.85846614654065
 20
13.034023923829603
 10
368.8496194125307
 20
13.02173679326031
 10
368.836595382262
 20
13.012059881046946
 10
368.8305319563306
 20
13.008614733451786
 10
368.82461097969286
 20
13.005731065839862
 10
368.81837207767285
 20
13.003515615891576
 10
368.8111446246145
 20
13.00146230871168
 10
368.80349204548514
 20
13.000375422015265
 10
368.7982124623576
 20
13.000000334444435
 10
318.0832732478408
 20
13.000000334444435
 10
318.0832697982029
 20
13.000000089470454
 10
317.94008712120996
 20
13.000000089470454
 10
317.8991198925296
 20
13.000000057886787
 10
317.72394478363054
 20
13.000000068526141
 10
317.61469909806436
 20
13.000000057886766
 10
317.31632374543364
 20
13.000000110086722
 10
317.1769047710324
 20
13.000000110086722
 10
316.95010069081445
 20
13.000000140375189
 10
316.4878914798399
 20
13.00000025494646
 10
316.0649950442772
 20
13.000000359773207
 10
316.0313799926979
 20
13.000000325836053
 10
315.9497982705822
 20
13.00000030849897
 10
315.89021360531484
 20
13.000000282051476
 10
315.714541057113
 20
13.000000299769496
 10
315.5852581130959
 20
13.000000299769496
 10
315.4345174066465
 20
13.000000308498967
 10
315.3266825434877
 20
13.000000299769496
 10
315.1973971727642
 20
13.000000299769496
 10
315.0884683326323
 20
13.000000290908254
 10
314.4396671856203
 20
13.000000290908254
 10
314.2923923324253
 20
13.000000299769496
 10
314.033816758952
 20
13.000000299769496
 10
313.8886772972367
 20
13.000000308498967
 10
313.77524602901764
 20
13.000000299769496
 10
313.63103446334395
 20
13.000000308498967
 10
313.50221546095804
 20
13.000000308498967
 10
313.35939680975525
 20
13.000000317232312
 10
313.2445750465974
 20
13.000000308498967
 10
313.10269073480003
 20
13.000000317232312
 10
312.96192540600504
 20
13.000000325836016
 10
312.77526966063897
 20
13.00000036813995
 10
312.6833140005924
 20
13.000000342925281
 10
312.58927627363437
 20
13.00000031723233
 10
312.5486645589556
 20
13.00000024582482
 10
312.4715796033836
 20
13.000000198961713
 10
312.3584807790825
 20
13.000000179730376
 10
312.16205425393196
 20
13.000000236563494
 10
311.93877348263754
 20
13.00000032583602
 10
311.754339185698
 20
13.000000384632907
 10
311.65216439667194
 20
13.000000359773217
 10
311.533232024964
 20
13.000000351411678
 10
311.41350396642656
 20
13.00000034292528
 10
311.1595419573271
 20
13.00000034292528
 10
311.02712035633783
 20
13.000000351411678
 10
310.9005939237453
 20
13.000000351411678
 10
310.76959801017864
 20
13.000000359773216
 10
310.6394941983517
 20
13.000000368139954
 10
310.5174373819676
 20
13.000000359773216
 10
310.01311256057335
 20
13.000000359773216
 10
309.8856906796056
 20
13.000000368139954
 10
309.7609519274645
 20
13.000000359773216
 10
309.6348698333771
 20
13.000000359773216
 10
309.50878773928537
 20
13.000000376383316
 10
258.253043775759
 20
13.000000376383316
 10
258.2530431795468
 20
13.000000334025467
 10
257.9840322393988
 20
13.000000376383314
 10
257.8857028837367
 20
13.000000368139954
 10
257.73364636787306
 20
13.000000376383316
 10
257.6344350440998
 20
13.000000368139954
 10
256.5037321144942
 20
13.000000368139954
 10
256.3999994879262
 20
13.000000359773216
 10
256.14783884670226
 20
13.000000359773216
 10
256.0423054179528
 20
13.000000351411678
 10
255.78925136060033
 20
13.000000351411678
 10
255.68221800811082
 20
13.00000034292528
 10
255.55523581470922
 20
13.00000034292528
 10
255.44683365256327
 20
13.000000334444435
 10
254.93709611147125
 20
13.000000334444435
 10
254.8262184645818
 20
13.000000325836016
 10
254.4425364986203
 20
13.000000325836016
 10
254.32935363916573
 20
13.000000317232312
 10
254.2154626087856
 20
13.000000308498967
 10
254.08664360155964
 20
13.000000308498967
 10
253.97134806087888
 20
13.000000299769496
 10
253.583488321661
 20
13.000000299769496
 10
253.44254254382258
 20
13.000000308498967
 10
253.30252334601946
 20
13.000000317232312
 10
253.0458172812226
 20
13.000000317232312
 10
252.92726171386232
 20
13.000000308498967
 10
252.79844029527348
 20
13.000000308498967
 10
252.67848107220044
 20
13.000000299769496
 10
252.41991033382806
 20
13.000000299769496
 10
252.29819585344805
 20
13.000000290908254
 10
252.16843707711436
 20
13.000000290908254
 10
252.03204998762766
 20
13.000000299769496
 10
251.89670002323984
 20
13.000000308498967
 10
251.7622815216905
 20
13.000000317232312
 10
251.6339278942372
 20
13.000000317232312
 10
251.51490308712178
 20
13.000000299769498
 10
251.25632992313626
 20
13.000000299769496
 10
251.13035841443508
 20
13.000000290908254
 10
250.87083722673094
 20
13.000000290908254
 10
250.74297114283186
 20
13.000000282051468
 10
250.48250361101393
 20
13.000000282051468
 10
250.35275147431378
 20
13.000000273059227
 10
199.03951893392656
 20
13.000000273059227
 10
198.93809612086417
 20
13.000000264071312
 10
198.28212866186502
 20
13.000000264071312
 10
198.1245234013682
 20
13.000000273059227
 10
198.01973996837768
 20
13.000000264071312
 10
197.6261599816698
 20
13.000000264071312
 10
197.42327751612757
 20
13.000000290908252
 10
197.36377131557379
 20
13.000000264071321
 10
197.23257754890147
 20
13.000000264071312
 10
197.12429645991602
 20
13.000000254946459
 10
196.7292527782601
 20
13.000000254946459
 10
196.61852653576472
 20
13.000000245824705
 10
196.3541894298869
 20
13.000000245824705
 10
196.2418118813402
 20
13.00000023656349
 10
196.10914886201886
 20
13.00000023656349
 10
195.99528135721442
 20
13.000000227304925
 10
195.5958080921356
 20
13.000000227304925
 10
195.47972545670763
 20
13.000000217904283
 10
194.94508470802828
 20
13.000000217904283
 10
194.8259868585504
 20
13.000000208505224
 10
194.42349988002348
 20
13.000000208505224
 10
194.3020843223193
 20
13.000000198961699
 10
193.49405106194513
 20
13.000000198961699
 10
193.36855534059924
 20
13.000000189419529
 10
193.09819155472547
 20
13.000000189419529
 10
192.94771461231156
 20
13.000000208505224
 10
192.8206904634705
 20
13.000000198961699
 10
192.69264549469287
 20
13.000000189419529
 10
192.55746368092122
 20
13.000000189419529
 10
192.4279757321961
 20
13.000000179730375
 10
192.29227628101464
 20
13.000000179730375
 10
192.16123465618512
 20
13.000000170042318
 10
192.025017543144
 20
13.000000170042318
 10
191.8851773718122
 20
13.000000179730375
 10
191.74637194226378
 20
13.000000189419529
 10
191.61377816801286
 20
13.000000179730375
 10
191.48014891940005
 20
13.000000170042318
 10
191.34550860357945
 20
13.000000160204175
 10
140.40005873712633
 20
13.000000160204175
 10
140.29642867669617
 20
13.000000150366034
 10
139.33555027406348
 20
13.000000150366034
 10
139.22763858328432
 20
13.000000140375189
 10
139.06101366324717
 20
13.000000150366034
 10
138.23740368942993
 20
13.000000150366034
 10
138.07543219128524
 20
13.000000160204175
 10
137.25497564954486
 20
13.000000160204175
 10
137.1392567934951
 20
13.000000150366034
 10
136.59018358003243
 20
13.000000150366034
 10
136.47159635582804
 20
13.000000140375189
 10
135.78258597416428
 20
13.000000140375189
 10
135.6293045733005
 20
13.000000150366034
 10
135.49203683511925
 20
13.000000150366034
 10
135.34057697774043
 20
13.000000160204175
 10
135.1901689919714
 20
13.000000170042318
 10
135.06709237935323
 20
13.000000160204175
 10
132.60572225158418
 20
13.000000160204175
 10
132.46582652001115
 20
13.000000170042318
 10
132.05717432655678
 20
13.000000170042318
 10
131.92200833432815
 20
13.000000160204175
 10
80.42958970671826
 20
13.000000160204175
 10
80.26236228459322
 20
13.000000170042318
 10
76.85693324517655
 20
13.000000170042318
 10
76.70415477737389
 20
13.000000179730375
 10
76.56845644544524
 20
13.000000179730375
 10
76.44828423941232
 20
13.000000170042318
 10
76.29705341859488
 20
13.000000179730375
 10
76.17584859015426
 20
13.000000170042318
 10
76.03963012212768
 20
13.000000170042318
 10
75.88995459685056
 20
13.000000179730375
 10
75.767197028554
 20
13.000000170042318
 10
75.61855665220664
 20
13.000000179730375
 10
75.49476010444086
 20
13.000000170042318
 10
75.22232700193402
 20
13.000000170042318
 10
75.09662047552321
 20
13.000000160204175
 10
74.94989389724795
 20
13.000000170042318
 10
74.13258950168031
 20
13.000000170042318
 10
73.99016136250175
 20
13.000000179730375
 10
73.71876215047511
 20
13.000000179730375
 10
73.578405070203
 20
13.000000189419529
 10
73.43914481886762
 20
13.000000198961699
 10
73.30090238047704
 20
13.000000208505224
 10
73.16674131625852
 20
13.000000208505224
 10
73.0351282795892
 20
13.000000198961699
 10
72.90045483046829
 20
13.000000198961699
 10
72.76425433531736
 20
13.000000208505224
 10
72.49592843483683
 20
13.000000208505224
 10
72.36176736305947
 20
13.000000198961699
 10
21.424678563390195
 20
13.000000198961699
 10
21.258907571308818
 20
13.000000208505224
 10
21.15533546412763
 20
13.000000198961699
 10
21.050739363044954
 20
13.000000189419529
 10
20.780376683053962
 20
13.000000189419529
 10
20.616646721847836
 20
13.000000198961699
 10
20.077957990934596
 20
13.000000198961699
 10
19.917284315989253
 20
13.000000208505224
 10
19.783121996395707
 20
13.000000208505224
 10
19.673941447634515
 20
13.000000198961699
 10
19.539270521434524
 20
13.000000198961699
 10
19.428558263100733
 20
13.000000189419529
 10
19.29337502230969
 20
13.000000189419529
 10
19.112310363381948
 20
13.000000208505224
 10
17.770688371290948
 20
13.000000208505224
 10
17.619450832605963
 20
13.000000217904283
 10
17.48579190261952
 20
13.000000217904283
 10
17.368203913035106
 20
13.000000208505224
 10
16.563227444785866
 20
13.000000208505224
 10
16.41651040630065
 20
13.000000217904283
 10
15.480887852893265
 20
13.000000217904283
 10
15.338691109163074
 20
13.000000227304925
 10
13.341322932625745
 20
13.000000227304925
 10
13.206202040783538
 20
13.000000264071302
 10
13.072332097046992
 20
13.000000117302834
 10
13.066618905369566
 20
13.000408153888616
 10
13.061436182390553
 20
13.00120557165424
 10
13.053557613624518
 20
13.002893642078808
 10
13.044704092842107
 20
13.0062990337179
 10
13.039304694538954
 20
13.00899863619962
 10
13.033951446523139
 20
13.012121356222021
 10
13.029167012692595
 20
13.015600910482062
 10
13.021709393820029
 20
13.021702611892035
 10
13.015607692410093
 20
13.029160230764557
 10
13.01212813814999
 20
13.033944664595184
 10
13.009005959961593
 20
13.039296983750328
 10
13.0063057181245
 20
13.044697274052856
 10
13.002900572517975
 20
13.053550916004784
 10
13.001212258240175
 20
13.061429554761485
 10
13.000415024609786
 20
13.066612194324176
 10
13.000006902163397
 20
13.072324122599639
 10
13.000006902163397
 20
73.55327045946423
 10
13.000007018491484
 20
74.1897622191449
 10
13.000007009232919
 20
74.3121538694592
 10
13.000007018491484
 20
74.50814973092965
 10
13.000007018490967
 20
74.66734523437162
 10
13.000007018490967
 20
74.98574026384685
 10
13.000007018491743
 20
75.14494059519814
 10
13.000007018491743
 20
75.30413309413568
 10
13.000007027752698
 20
75.49598480547817
 10
13.000007027752698
 20
76.13039236606141
 10
13.000007036874711
 20
76.31823643190081
 10
13.000007036874711
 20
76.63426878380807
 10
13.000004572074387
 20
76.79228713292599
 10
13.000004572065263
 20
76.9503072368403
 10
13.000004590314424
 20
77.1346425292985
 10
13.000007045999336
 20
77.2920770653137
 10
13.000007054987478
 20
77.47428821727868
 10
13.000007054987478
 20
77.63114593673012
 10
13.000007045999308
 20
77.76437833976192
 10
13.000007027752702
 20
77.8750162277024
 10
13.000006990433521
 20
77.94031202671002
 10
13.000006961658663
 20
78.0312032327459
 10
13.000006990433508
 20
78.26229961662342
 10
13.000007063979687
 20
78.5930359737674
 10
13.000007081697717
 20
78.78907342502927
 10
13.000007081697717
 20
78.9442127014267
 10
13.000007090427445
 20
79.11782671181321
 10
13.00000709916079
 20
79.29032642759836
 10
13.00000709916079
 20
79.44434979646634
 10
13.00000710776446
 20
79.61492409092843
 10
13.000007116372654
 20
79.7844000079844
 10
13.000007141701436
 20
79.98278671244341
 10
13.000007141701436
 20
80.13408283737287
 10
13.000007133339931
 20
80.27144278478042
 10
13.000007141701436
 20
80.43667864552415
 10
13.000007141701436
 20
80.89056821471323
 10
13.000007124853983
 20
81.01918499078347
 10
13.000007116372654
 20
81.16068656464121
 10
13.00000710776446
 20
81.30312342510284
 10
13.000007116372654
 20
81.46652881731282
 10
13.000007090427447
 20
81.59117326356318
 10
13.000007090427445
 20
81.74575653564922
 10
13.000007099160305
 20
81.90873768319328
 10
13.000007099160305
 20
82.67885949395215
 10
13.000007107764235
 20
82.8378496424142
 10
13.000007107764235
 20
83.14479509043478
 10
13.000004731069316
 20
83.30157634826364
 10
13.000004731060699
 20
83.60741976959277
 10
13.000004748023324
 20
83.76197330999504
 10
13.000004748023324
 20
145.76344817293213
 10
13.000004764995218
 20
145.94955775791496
 10
13.000004764995218
 20
146.556888900378
 10
13.000004748023324
 20
146.67771262102787
 10
13.000004748023324
 20
146.83009122974997
 10
13.000004748023775
 20
146.98246828109026
 10
13.000004764995671
 20
147.1642220534715
 10
13.000004764995671
 20
147.31605540976207
 10
13.000004748023777
 20
147.4395980780001
 10
13.000004764995671
 20
147.61972214820193
 10
13.000004764995671
 20
148.83438551118059
 10
13.000004781718713
 20
149.00873306225878
 10
13.000004764995671
 20
149.1380522312386
 10
13.000004764995671
 20
149.28988560581567
 10
13.000004781718712
 20
149.4626249916973
 10
13.000004748023779
 20
149.5728780256734
 10
13.000004781719198
 20
149.76521900056576
 10
13.000004781719198
 20
150.82429830386826
 10
13.000004798452673
 20
150.99115141459518
 10
13.000004798452673
 20
151.14191290807955
 10
13.00000481493933
 20
151.30694147782577
 10
13.00000481493933
 20
151.75763701630555
 10
13.000004814938427
 20
151.90786936063654
 10
13.000004814938427
 20
152.20833369996987
 10
13.000004831437616
 20
152.3691442797105
 10
13.000004831437616
 20
152.81825385962634
 10
13.000004814938428
 20
152.959493660776
 10
13.000004814938427
 20
153.86088668753592
 10
13.00000481493888
 20
154.01112045382945
 10
13.00000481493888
 20
154.16135231590533
 10
13.00000483143807
 20
154.315286908104
 10
13.000004847694706
 20
154.4681165019247
 10
13.000004847694706
 20
154.76648084903903
 10
13.00000483143807
 20
154.9141000071412
 10
13.00000483143807
 20
216.9263045942239
 10
13.000004831438522
 20
217.07600879069375
 10
13.000004831438522
 20
217.82452511203445
 10
13.000004847694706
 20
218.0039303183583
 10
13.000004863965358
 20
218.1823193385951
 10
13.000004847694706
 20
218.30229494767056
 10
13.000004847694253
 20
218.4514760635908
 10
13.000004847694253
 20
219.79411651536492
 10
13.00000483143807
 20
219.92037089096965
 10
13.00000483143807
 20
221.11007260498067
 10
13.000004401935332
 20
221.11007789707458
 10
13.000004421633127
 20
221.2964525886525
 10
13.000004621869447
 20
221.63124211979837
 10
13.0
 20
221.63130313562536
  0
LWPOLYLINE
  5
8F
330
17
100
AcDbEntity
  8
CORTE
100
AcDbPolyline
 90
711
 70
1
 10
20.23033322376038
 20
19.999998534337962
 10
20.426313501211133
 20
19.999998550003006
 10
20.649078823424937
 20
19.999998550002992
 10
20.90114115739442
 20
19.999998534337962
 10
23.137178345005715
 20
19.999998534337923
 10
23.4389524115932
 20
19.99999850252845
 10
23.66425711828355
 20
19.99999850252845
 10
23.84877786576915
 20
19.999998518432076
 10
24.073229100183973
 20
19.999998518432076
 10
24.255196990719227
 20
19.999998534337962
 10
24.478801276436812
 20
19.99999853433795
 10
24.746590538485055
 20
19.999998518432076
 10
25.644405278065534
 20
19.999998518432065
 10
25.917288347138996
 20
19.99999850252845
 10
26.3678922820651
 20
19.99999850252845
 10
26.54221878947287
 20
19.999998518432044
 10
26.71484001994547
 20
19.99999853433795
 10
26.991124822386837
 20
19.999998518432076
 10
72.36176626208139
 20
19.999998518432076
 10
72.58536831078104
 20
19.999998534337962
 10
73.0325786390563
 20
19.999998534337944
 10
73.25957922168377
 20
19.999998518432076
 10
73.4840344543316
 20
19.999998518432076
 10
73.70338977984383
 20
19.999998534337962
 10
73.92699204033342
 20
19.999998534337944
 10
74.15739610243413
 20
19.999998518432058
 10
74.38949652493348
 20
19.999998502528435
 10
74.62342474414487
 20
19.99999848637988
 10
75.07575700320024
 20
19.999998486379866
 10
75.31313699849755
 20
19.999998470233088
 10
76.67531122070572
 20
19.999998470233074
 10
76.91985500140078
 20
19.999998453836234
 10
77.12936592239483
 20
19.999998470233088
 10
77.58342081598575
 20
19.999998470233088
 10
77.78974913100545
 20
19.999998486379866
 10
78.03748258467544
 20
19.999998470233106
 10
78.24207903527595
 20
19.999998486379866
 10
78.4915380112835
 20
19.999998470233088
 10
78.71856828578666
 20
19.999998470233088
 10
78.92057706693305
 20
19.999998486379866
 10
79.17262792840053
 20
19.999998470233106
 10
79.37291499502916
 20
19.99999848637988
 10
79.59907932899581
 20
19.999998486379866
 10
79.853709897006
 20
19.999998470233088
 10
85.5294251426426
 20
19.999998470233077
 10
85.8081372995713
 20
19.999998453836216
 10
132.10433136721812
 20
19.999998453836216
 10
132.32960827576343
 20
19.999998470233088
 10
133.01069576098317
 20
19.99999847023307
 10
133.24385505920532
 20
19.999998453836216
 10
137.34613809115936
 20
19.999998453836216
 10
137.55126651086843
 20
19.999998470233074
 10
137.8019464877233
 20
19.999998453836202
 10
138.05437936132893
 20
19.99999843743928
 10
138.28315914686817
 20
19.999998437439263
 10
138.53862791510045
 20
19.99999842078784
 10
139.6869780278275
 20
19.99999842078784
 10
139.88462369814735
 20
19.99999843743928
 10
140.7997454262978
 20
19.99999843743928
 10
140.99261048061072
 20
19.999998453836216
 10
142.3600384790556
 20
19.999998453836202
 10
142.62999075511047
 20
19.99999843743928
 10
144.00267426014085
 20
19.999998437439267
 10
144.2803819224816
 20
19.99999842078786
 10
144.46023485466088
 20
19.99999843743928
 10
146.06169851953118
 20
19.99999843743928
 10
146.2344156265989
 20
19.999998453836216
 10
191.6189938224737
 20
19.999998453836216
 10
191.84339410975537
 20
19.999998470233066
 10
192.06610952006184
 20
19.999998486379862
 10
192.2871001476737
 20
19.999998502528435
 10
192.51844252998634
 20
19.999998486379866
 10
192.7515092351583
 20
19.999998470233088
 10
192.97853725860267
 20
19.999998470233088
 10
193.196940221249
 20
19.99999848637988
 10
193.4231057091467
 20
19.99999848637988
 10
193.63891922152655
 20
19.99999850252845
 10
193.86422198318868
 20
19.99999850252845
 10
194.0776299979841
 20
19.999998518432058
 10
194.28933833142847
 20
19.999998534337905
 10
194.5401327930973
 20
19.99999850252845
 10
194.99073837714022
 20
19.99999850252845
 10
195.1998981899316
 20
19.999998518432076
 10
196.54662000945632
 20
19.999998518432076
 10
196.74897955349783
 20
19.999998534337962
 10
197.41979089985784
 20
19.999998534337962
 10
197.618287599972
 20
19.999998550003006
 10
198.50935523062068
 20
19.999998550003006
 10
198.7028265734446
 20
19.999998565670765
 10
199.36861505041668
 20
19.999998565670765
 10
199.55839452339598
 20
19.99999858110172
 10
199.77949926743207
 20
19.99999858110172
 10
199.9667954695896
 20
19.999998596537065
 10
200.40735702512748
 20
19.999998596537065
 10
200.5919010502139
 20
19.999998611739997
 10
201.2503068894126
 20
19.999998611739997
 10
201.43077566791928
 20
19.99999862694807
 10
201.64943034776928
 20
19.999998626948077
 10
201.74860986681153
 20
19.99999867167625
 10
202.08674685397725
 20
19.99999862694807
 10
202.74271273140124
 20
19.99999862694807
 10
202.91735248945912
 20
19.999998641927945
 10
203.18002772171607
 20
19.99999862694807
 10
204.2733063092557
 20
19.99999862694807
 10
204.44234464285043
 20
19.999998641927956
 10
250.4398940008531
 20
19.999998641927956
 10
250.65614781785726
 20
19.999998656914983
 10
251.09026011543216
 20
19.999998656914983
 10
251.3033705110556
 20
19.999998671676313
 10
251.73590558223043
 20
19.999998671676313
 10
251.94585833831724
 20
19.99999868644504
 10
252.3768130936547
 20
19.999998686445043
 10
252.5751882882811
 20
19.999998715549744
 10
252.78911146086264
 20
19.99999871554973
 10
253.0131422949915
 20
19.999998700994166
 10
253.23872557232406
 20
19.999998686445025
 10
253.46603716616136
 20
19.999998671676313
 10
253.6823012880399
 20
19.999998671676313
 10
253.88515902274986
 20
19.99999868644504
 10
254.31611001071485
 20
19.99999868644504
 10
254.51604229214595
 20
19.99999870099418
 10
254.73074440392207
 20
19.99999870099418
 10
254.92833726865763
 20
19.999998715549744
 10
255.35618114969063
 20
19.99999871554973
 10
255.58954647791052
 20
19.999998700994166
 10
255.8244558750968
 20
19.99999868644504
 10
256.47088830571846
 20
19.99999868644504
 10
256.6630478020275
 20
19.99999870099418
 10
256.87774587533715
 20
19.99999870099418
 10
257.0675639975949
 20
19.999998715549722
 10
257.2562026307445
 20
19.99999872988924
 10
257.895672303069
 20
19.99999872988924
 10
258.0804686520409
 20
19.999998744236613
 10
258.93003094341145
 20
19.999998744236613
 10
259.1107014908448
 20
19.999998758371344
 10
259.3223382028208
 20
19.999998758371344
 10
259.5007274008758
 20
19.999998772515376
 10
259.9224838864894
 20
19.999998772515376
 10
260.0983732109333
 20
19.99999878645125
 10
260.51864065477344
 20
19.99999878645125
 10
260.6915286569717
 20
19.999998800395815
 10
262.5760332338812
 20
19.999998800395815
 10
262.74138612690484
 20
19.999998814134727
 10
262.9948131594238
 20
19.99999880039583
 10
263.1586955357745
 20
19.999998814134738
 10
263.6052730677225
 20
19.999998814134738
 10
309.50878866146746
 20
19.999998814134678
 10
309.71892501640673
 20
19.99999878645125
 10
309.92906114837336
 20
19.99999878645125
 10
310.136959762586
 20
19.999998800395797
 10
310.3493293479487
 20
19.99999878645125
 10
311.18987022369686
 20
19.99999878645125
 10
311.3932989513327
 20
19.999998800395797
 10
311.61013863742215
 20
19.999998786451236
 10
311.8284649342073
 20
19.999998772515376
 10
312.0393425474707
 20
19.99999877251536
 10
312.2600449789986
 20
19.999998758371344
 10
312.6833145320665
 20
19.999998758371344
 10
312.8828610497437
 20
19.999998772515358
 10
313.0810810561368
 20
19.999998786451194
 10
313.2513757133943
 20
19.999998827883704
 10
313.55876679149173
 20
19.999998729888684
 10
313.93090102060154
 20
19.999998581101316
 10
314.2582765445302
 20
19.999998486380054
 10
314.44677003429854
 20
19.999998518431493
 10
314.6429333298348
 20
19.999998715549502
 10
314.79966290496407
 20
19.999998758371085
 10
314.95292585685917
 20
19.99999880039563
 10
315.26401818905254
 20
19.99999872988919
 10
315.498626495732
 20
19.99999871554973
 10
315.7350998610609
 20
19.999998700994194
 10
315.9264699475848
 20
19.99999871554973
 10
316.16450081556286
 20
19.99999870099418
 10
316.37919936753656
 20
19.999998700994166
 10
316.61955148499965
 20
19.999998686445057
 10
316.8086040864978
 20
19.999998700994166
 10
317.0505029829845
 20
19.99999868644504
 10
317.4814624804758
 20
19.99999868644503
 10
317.7269203610004
 20
19.999998671676313
 10
318.8082551127876
 20
19.999998671676313
 10
318.98980345625966
 20
19.99999868644504
 10
319.20527879081453
 20
19.99999868644504
 10
319.38500425291903
 20
19.99999870099417
 10
319.6362385802756
 20
19.99999868644504
 10
319.8517106410201
 20
19.999998686445004
 10
320.14449628946716
 20
19.999998656915146
 10
320.24380215589827
 20
19.99999870099349
 10
320.43580162703626
 20
19.999998786451027
 10
321.1406290510567
 20
19.999998611739787
 10
321.91097732895366
 20
19.999998420787726
 10
322.28898325144604
 20
19.999998370307072
 10
322.5213489752173
 20
19.999998370306965
 10
323.0186402646449
 20
19.999998283307246
 10
323.20071546391256
 20
19.999998301039426
 10
323.56094698070854
 20
19.999998335946028
 10
323.7973734356256
 20
19.999998743468787
 10
361.8705547651293
 20
20.00484446263474
 10
361.87055478352556
 20
20.18593251429811
 10
361.8705547552391
 20
20.413602273702416
 10
361.87055475523897
 20
20.66664367176919
 10
361.8705545902889
 20
20.755797501126
 10
361.87055459028926
 20
21.00356576731418
 10
361.87055469947853
 20
21.366837767673697
 10
361.87055504637254
 20
21.996171152637416
 10
361.8705551380657
 20
22.361427667376596
 10
361.87055520026325
 20
22.698526859441817
 10
361.8705552952104
 20
23.07844753902352
 10
361.87055495691783
 20
23.1962645245592
 10
361.87055481179635
 20
23.269725250177828
 10
361.8705549864368
 20
23.754103375134672
 10
361.8705546410479
 20
23.939940105012006
 10
361.8705546174068
 20
24.015028323843474
 10
361.8705546719997
 20
24.342411412698453
 10
361.8705546719997
 20
24.592795908139244
 10
361.8705546445003
 20
24.80175467720165
 10
361.87055471763637
 20
25.579818303632408
 10
361.87055472736733
 20
25.683085816072015
 10
361.8705547273674
 20
25.9352466508533
 10
361.8705547552394
 20
26.233866248428768
 10
361.8705549273792
 20
26.779367677624045
 10
361.87055501641305
 20
27.192055334105113
 10
361.8705549864398
 20
27.400633011758387
 10
361.87055478365363
 20
27.550685472636616
 10
361.8705470160206
 20
27.74866218275204
 10
361.87055459027084
 20
27.941202121929265
 10
361.8705545635708
 20
28.13658575510977
 10
361.87055453682933
 20
28.33035268591388
 10
361.8705548982813
 20
29.30633953935218
 10
361.87055555965384
 20
30.92078342464098
 10
361.8705555596727
 20
84.21911636269554
 10
361.87055625967554
 20
84.52039530178371
 10
361.8705568070457
 20
84.85677183123023
 10
361.8705581184526
 20
85.30170719633354
 10
361.87055998177436
 20
85.90147772613498
 10
361.870560806129
 20
86.45417522662287
 10
361.8705616422975
 20
87.06200813882575
 10
361.8705616422975
 20
87.53582209393461
 10
361.87056125882896
 20
87.9112298272093
 10
361.8705580486754
 20
88.09826443424555
 10
361.8705543603171
 20
88.17419574928792
 10
361.8705543052281
 20
88.27582015286215
 10
361.8705551689312
 20
89.01279322628356
 10
361.87055618073697
 20
89.8953405096578
 10
361.87055742226505
 20
90.9900227000408
 10
361.87055835153893
 20
91.95410444461102
 10
361.8705587838537
 20
92.6273113291523
 10
361.87056013874553
 20
94.00840374948815
 10
361.8705609835845
 20
95.08397053609258
 10
361.87056174100746
 20
96.14364835105698
 10
361.87056431532585
 20
98.7661187742437
 10
361.8705654871003
 20
100.33976688526093
 10
361.87056564535004
 20
101.0788573828
 10
361.8705658050425
 20
101.82943587257797
 10
361.8705659687652
 20
102.59413797270851
 10
361.8705663035113
 20
103.53927502456072
 10
361.8705663035112
 20
104.78573216236737
 10
361.8705659688697
 20
105.04402654484382
 10
361.87055415833186
 20
105.42272104171913
 10
361.87055416173814
 20
105.42250267038284
 10
361.87054686420026
 20
105.65686108235417
 10
361.87055415836835
 20
105.89067589734967
 10
361.8705541583684
 20
155.59713361034883
 10
361.8705541823471
 20
155.83259341326058
 10
361.8705541823471
 20
156.53666642117255
 10
361.8705541583684
 20
156.7667458020502
 10
361.87055413436246
 20
156.99528112556538
 10
361.87055406364584
 20
157.21029752419884
 10
361.8705539260785
 20
157.40150067008207
 10
361.8705539260794
 20
157.62797935136183
 10
361.8705539941104
 20
157.87844388113996
 10
361.8705540636458
 20
158.1338483720299
 10
361.8705540870031
 20
158.37446798564588
 10
361.8705541343623
 20
158.62735533524858
 10
361.8705541106984
 20
158.84912919299273
 10
361.8705540870032
 20
159.069373189661
 10
361.87055415836977
 20
159.33989840515508
 10
361.87055418234786
 20
159.58765516710545
 10
361.8705542309693
 20
159.8519589265511
 10
361.87055423096933
 20
160.08820807465307
 10
361.8705542556218
 20
160.3410526871681
 10
361.87055428024377
 20
160.59545833316804
 10
361.87055445810563
 20
160.96441335031477
 10
361.8705542802431
 20
161.0711149885555
 10
361.8705543301778
 20
161.34896033953265
 10
361.8705543554975
 20
161.60949166265695
 10
361.8705543807894
 20
161.8716227205556
 10
361.87055440645463
 20
162.13571041223318
 10
361.87055443209283
 20
162.40141833373067
 10
361.87055445810864
 20
162.66913305731742
 10
361.8705544841019
 20
162.93849314623063
 10
361.87055451047775
 20
163.20991204690452
 10
361.8705545368282
 20
163.48299515073123
 10
361.87055456357075
 20
163.75819428495217
 10
361.8705545635708
 20
164.9927513274053
 10
361.870554590289
 20
165.2739204481207
 10
361.87055461740664
 20
165.55732623083287
 10
361.87055459028903
 20
165.76945601957695
 10
361.87055464450026
 20
166.09194614017795
 10
361.87055464450094
 20
166.34145417021878
 10
361.87055495691595
 20
167.04160509757372
 10
361.8705546427788
 20
167.99657113269615
 10
361.87055467199986
 20
168.13294684802727
 10
361.87055475520873
 20
168.52201096633377
 10
361.87054686075754
 20
168.91996666823303
 10
361.87054686306396
 20
234.16508722883273
 10
361.87055545692016
 20
234.49986091335495
 10
361.87054686075754
 20
234.93861525357966
 10
361.87054686405787
 20
298.78930651233605
 10
361.8705557691261
 20
299.0793038395351
 10
361.8705557690896
 20
299.36464503966465
 10
361.87054686075754
 20
299.6503041322409
 10
361.87054686416377
 20
310.52608941780875
 10
361.8705559889408
 20
310.8185853128252
 10
361.8705559889043
 20
311.4035634103071
 10
361.8705468651884
 20
311.69602412304295
 10
361.86851076063704
 20
361.870527379721
 10
361.60609135457287
 20
361.870527379721
 10
361.3890313694726
 20
361.8705273604749
 10
361.11026579861147
 20
361.870527379721
 10
360.8952589430766
 20
361.8705273604749
 10
360.1546114264974
 20
361.8705273604749
 10
360.05332840318715
 20
361.8705272847683
 10
359.6227928414219
 20
361.8705273797211
 10
359.21463466437103
 20
361.8705274586548
 10
358.66066233611986
 20
361.87052760352555
 10
358.4463351730883
 20
361.8705275822179
 10
358.2724034540053
 20
361.8705273077407
 10
357.97786918983127
 20
361.87052734123785
 10
357.7775200329623
 20
361.87052732230893
 10
357.2878317650548
 20
361.87052732230893
 10
357.08900969153274
 20
361.8705272067124
 10
356.1350362614156
 20
361.8705274788877
 10
355.48411916802695
 20
361.8705276248549
 10
354.97983306245675
 20
361.8705277124256
 10
354.5868038525642
 20
361.8705277573982
 10
354.11939343356136
 20
361.8705278264916
 10
353.9110907662136
 20
361.8705272594768
 10
353.80115634673456
 20
361.87052726615497
 10
353.496662164083
 20
361.8705272847681
 10
353.31746194041614
 20
361.87052726615497
 10
309.2669443316412
 20
361.87052726615497
 10
309.02310812577355
 20
361.8705272847681
 10
308.77728490033763
 20
361.8705273033876
 10
308.537431823186
 20
361.8705272847681
 10
308.29459055342215
 20
361.8705272847681
 10
308.05771911691164
 20
361.87052726615497
 10
307.5740271087269
 20
361.87052726615497
 10
307.3409916733993
 20
361.87052724783746
 10
307.10990772386964
 20
361.8705272295243
 10
306.85925527578604
 20
361.87052724783746
 10
305.8957924383759
 20
361.87052724783746
 10
305.6705791774675
 20
361.8705272295243
 10
305.1908033961081
 20
361.8705272295243
 10
304.9692083467144
 20
361.87052721149996
 10
304.25243323505674
 20
361.87052721149996
 10
304.03565375991286
 20
361.8705271934803
 10
303.0838021125456
 20
361.8705271934803
 10
302.8988949323964
 20
361.8705271580123
 10
301.7185593535188
 20
361.8705271580123
 10
301.5141982083387
 20
361.8705271405578
 10
300.5736581014482
 20
361.8705271405578
 10
300.37488684007326
 20
361.87052712310464
 10
300.1406825043533
 20
361.87052712310464
 10
299.94411584284626
 20
361.8705271059224
 10
299.7493780477398
 20
361.8705270887442
 10
299.55586782709145
 20
361.87052707182977
 10
299.3641557337102
 20
361.8705270549177
 10
299.092937774973
 20
361.87052707182977
 10
298.3985479502485
 20
361.87052707182977
 10
298.21135663266097
 20
361.8705270549177
 10
297.9807995462606
 20
361.8705270549177
 10
297.7041596972573
 20
361.87052707182977
 10
297.5196790707493
 20
361.8705270549177
 10
297.2891210470439
 20
361.8705270549177
 10
297.1546432441894
 20
361.870527021612
 10
296.87693205535453
 20
361.87052703826487
 10
296.6472612013007
 20
361.87052703826487
 10
296.4683009065854
 20
361.870527021612
 10
296.2395223607635
 20
361.870527021612
 10
296.11411012629486
 20
361.8705269888185
 10
295.99060246469486
 20
361.87052695652295
 10
295.7653003488186
 20
361.87052695652295
 10
295.59267054628936
 20
361.87052694062027
 10
295.42175386726905
 20
361.8705269247139
 10
250.22203987732323
 20
361.8705269247139
 10
249.9992693190796
 20
361.87052690904886
 10
249.55373804200613
 20
361.87052690904886
 10
249.33431935872426
 20
361.8705268933806
 10
249.11651290372038
 20
361.8705268779501
 10
248.67430034098092
 20
361.8705268779501
 10
248.45979357730351
 20
361.8705268625144
 10
248.23951013558906
 20
361.8705268625144
 10
248.02735166739595
 20
361.87052684731185
 10
247.58841491172572
 20
361.87052684731185
 10
247.358386276995
 20
361.87052686251434
 10
247.14947700655742
 20
361.87052684731185
 10
246.2716038944504
 20
361.87052684731185
 10
246.06757128261955
 20
361.8705268321034
 10
245.63026050813886
 20
361.8705268321034
 10
245.4292087631777
 20
361.8705268171239
 10
244.99349757499482
 20
361.8705268171239
 10
244.75563542450647
 20
361.8705268321034
 10
244.53697920895596
 20
361.8705268321034
 10
244.3399308494438
 20
361.8705268171239
 10
243.90421961345106
 20
361.8705268171239
 10
243.71038341843948
 20
361.87052680213685
 10
243.51777417014534
 20
361.870526787376
 10
243.2762725383137
 20
361.87052680213685
 10
243.05921783444208
 20
361.87052680213685
 10
242.81493869602383
 20
361.8705268171239
 10
242.37922840946882
 20
361.8705268171239
 10
242.190996975122
 20
361.87052680213685
 10
241.94351621317082
 20
361.87052681712385
 10
241.75688747286918
 20
361.87052680213685
 10
238.71811556666592
 20
361.87052680213685
 10
238.5436444424849
 20
361.870526787376
 10
238.37077343266265
 20
361.8705267726068
 10
238.11111008564578
 20
361.870526787376
 10
237.67857710727563
 20
361.870526787376
 10
237.41578355326175
 20
361.87052680213685
 10
236.54756385991868
 20
361.8705268021369
 10
236.38097815177804
 20
361.870526787376
 10
190.9352798962474
 20
361.870526787376
 10
190.7182253998836
 20
361.8705268021368
 10
190.50432437734577
 20
361.87052677260687
 10
190.28411433086956
 20
361.87052680213685
 10
189.41589484753302
 20
361.87052680213685
 10
189.2114597063813
 20
361.8705267726068
 10
188.98888082190473
 20
361.870526787376
 10
187.90754919131842
 20
361.870526787376
 10
187.70311868562578
 20
361.8705267726068
 10
187.51251901750052
 20
361.8705267435018
 10
187.29859592511383
 20
361.8705267435018
 10
187.07067589844576
 20
361.87052675805774
 10
186.8559762935686
 20
361.87052675805774
 10
186.6568291348226
 20
361.8705267435018
 10
186.4589931792894
 20
361.8705267291627
 10
186.245837089341
 20
361.8705267291627
 10
186.05030956291006
 20
361.8705267148149
 10
185.81952343764618
 20
361.8705267291627
 10
185.60636584578342
 20
361.8705267291627
 10
185.373292232772
 20
361.8705267435018
 10
185.15936907364946
 20
361.8705267435018
 10
184.92367335403213
 20
361.87052675805774
 10
184.68643093952247
 20
361.8705267726068
 10
181.02331346907948
 20
361.8705267726068
 10
180.8443684436173
 20
361.87052675805774
 10
179.77086649149706
 20
361.87052675805774
 10
179.5973827965958
 20
361.8705267435018
 10
178.95561342677658
 20
361.8705267435018
 10
178.697365990727
 20
361.87052675805774
 10
178.48266768013252
 20
361.87052675805774
 10
178.31384482484435
 20
361.8705267435018
 10
177.45815779033515
 20
361.8705267435018
 10
177.29326122080212
 20
361.8705267291627
 10
130.7958954652355
 20
361.8705267291627
 10
130.5865729913085
 20
361.8705267148149
 10
130.16179132176754
 20
361.8705267148149
 10
129.95544585302386
 20
361.87052670068016
 10
129.74380842679756
 20
361.87052670068016
 10
129.53973036561416
 20
361.8705266865362
 10
129.32885180235175
 20
361.8705266865363
 10
129.09064403994424
 20
361.8705267291624
 10
128.9264556387752
 20
361.8705266586561
 10
128.71706638772565
 20
361.8705266586561
 10
128.4965018337003
 20
361.87052667260065
 10
128.0762302636513
 20
361.87052667260065
 10
127.85269698866976
 20
361.87052668653615
 10
127.6559597319203
 20
361.87052667260144
 10
127.22641008138517
 20
361.87052687795153
 10
126.46395210531884
 20
361.87052736047553
 10
126.10167515306588
 20
361.87052745865566
 10
125.31062900469958
 20
361.87052789724083
 10
124.97301937945028
 20
361.87052794563385
 10
124.61458568342083
 20
361.87052780319135
 10
124.10305511659587
 20
361.87052797026615
 10
123.97784543055253
 20
361.8705276903263
 10
123.74872487321518
 20
361.8705276682534
 10
123.40983540986423
 20
361.87052670068016
 10
123.39476580207524
 20
361.87052670068016
 10
123.30229105789091
 20
361.8705266449173
 10
122.88498207956536
 20
361.8705266449173
 10
122.73903057639667
 20
361.8705266176207
 10
122.32463801009406
 20
361.8705266176207
 10
122.15075799743327
 20
361.8705266040622
 10
121.91023813769861
 20
361.8705266176207
 10
121.70304542770742
 20
361.8705266176207
 10
121.53133941545279
 20
361.8705266040622
 10
121.36055149982039
 20
361.870526590702
 10
121.11839268720992
 20
361.87052660406215
 10
120.94903554292965
 20
361.870526590702
 10
120.78113317422185
 20
361.8705265773319
 10
120.16599838371457
 20
361.8705265773319
 10
120.00107728068244
 20
361.8705265641555
 10
119.59239549681931
 20
361.8705265641555
 10
119.43032365013252
 20
361.87052655096863
 10
72.36176626539438
 20
361.87052655096863
 10
72.15742361487274
 20
361.87052656415545
 10
71.95448953919467
 20
361.87052655096863
 10
71.75085623515149
 20
361.87052655096863
 10
71.5444000942745
 20
361.87052656415545
 10
71.34357950432565
 20
361.87052655096863
 10
70.73267014496305
 20
361.87052655096875
 10
70.50992936782653
 20
361.870526590702
 10
70.29703258098777
 20
361.8705266040622
 10
70.0905604219896
 20
361.8705266040622
 10
69.90122384686974
 20
361.8705265773319
 10
69.70533097817057
 20
361.8705265641555
 10
69.49113056297851
 20
361.8705265773324
 10
69.19857471724703
 20
361.87052668653587
 10
69.0232750053097
 20
361.87052664491745
 10
68.8517199820393
 20
361.87052660406226
 10
68.61918123095914
 20
361.8705266311679
 10
68.39730187644847
 20
361.8705266449184
 10
67.85569641203327
 20
361.870526956524
 10
67.34433454405094
 20
361.8705272115001
 10
67.08422760553567
 20
361.8705272295242
 10
66.76292716969748
 20
361.8705271059236
 10
65.86503509681071
 20
361.8705276035265
 10
64.95612878433057
 20
361.87052807078703
 10
64.15918630805078
 20
361.8705284258106
 10
63.67739686824591
 20
361.8705285447961
 10
55.92698681691918
 20
361.8705274395901
 10
20.000000953253767
 20
361.80997516560484
 10
20.000000969844166
 20
361.6849091077899
 10
20.000001002638005
 20
361.4398022759382
 10
20.000001002638015
 20
361.16736716201837
 10
20.00000109903592
 20
360.98453953749475
 10
20.000001130848453
 20
360.74579186018843
 10
20.00000119351327
 20
360.53973583427916
 10
20.000001224376003
 20
360.3050776041367
 10
20.0000012856517
 20
360.10456974167556
 10
20.000001405523435
 20
359.9718479029844
 10
20.00000149327126
 20
359.8107731314966
 10
20.00000152195108
 20
359.5871621287001
 10
20.000001521951084
 20
359.07558649124877
 10
20.00000157891577
 20
358.89101304834014
 10
20.000001635074
 20
358.7090560846625
 10
20.000001690441216
 20
358.5296621152469
 10
20.00000171794061
 20
358.3162970241706
 10
20.000001745034247
 20
358.1041356171883
 10
20.000001772151933
 20
357.89374391185845
 10
20.0000018256123
 20
357.7230865308478
 10
20.00000160720207
 20
357.15498463768046
 10
20.000001376001563
 20
356.5536115255254
 10
20.000001316068904
 20
356.20093616528635
 10
20.00000190433311
 20
355.8403430742356
 10
20.00000190433311
 20
355.1578032610734
 10
20.0000019303508
 20
354.9618594290192
 10
20.00000571601658
 20
354.71911194166734
 10
20.000005727984085
 20
354.52479393781294
 10
20.000001955994488
 20
354.2829710908866
 10
20.00000198165243
 20
354.0913339919575
 10
20.000001981652435
 20
353.85028359531236
 10
20.00000200694569
 20
353.66031062618487
 10
20.00000200694569
 20
297.17093329666466
 10
20.00000203226397
 20
296.93312940780163
 10
20.00000203226397
 20
296.454272713402
 10
20.00000205721849
 20
296.2196413969114
 10
20.00000205721849
 20
295.7423785670559
 10
20.000002057217102
 20
295.50374581991673
 10
20.00000205721651
 20
293.8333329569772
 10
20.000001930350024
 20
293.52557404428376
 10
20.000002057217102
 20
293.3560765986959
 10
20.000002057214697
 20
293.11744032460007
 10
20.00000163506997
 20
292.6081765678918
 10
20.00000048459817
 20
291.58157622828907
 10
19.999999899644735
 20
290.88002661190546
 10
19.99999994084075
 20
290.6026167112458
 10
20.000000102774138
 20
290.4207283153438
 10
20.000000297726412
 20
290.2757876071062
 10
20.000002057221188
 20
290.1642261688756
 10
20.000002057224364
 20
289.538045095093
 10
20.00000576649356
 20
289.2712893122429
 10
20.000001956020345
 20
288.9438815181651
 10
20.000002057217102
 20
288.8221058173634
 10
20.000002057217074
 20
288.5834756044747
 10
20.000002032263232
 20
288.3136504109871
 10
20.0000020069443
 20
288.0417575757519
 10
20.0000020069464
 20
287.801517722134
 10
20.000002006946367
 20
287.3210350672878
 10
20.000001981653853
 20
287.04512067006965
 10
20.000001981653824
 20
286.0809124112117
 10
20.000001955987887
 20
285.7995451519116
 10
20.000001955987862
 20
285.5576713192003
 10
20.000001930349605
 20
285.27388183866066
 10
20.000001904333825
 20
284.98782222873547
 10
20.00000187834095
 20
284.7001307461985
 10
20.000001690442065
 20
284.1305229336964
 10
20.000001099038098
 20
282.8374857612603
 10
20.00000130834119
 20
282.6788202344685
 10
20.000000373500527
 20
280.68055587093556
 10
20.00000022083337
 20
280.09922601046907
 10
19.999999419717135
 20
278.2609588589073
 10
19.999998735263222
 20
276.5994466122243
 10
19.999998300612745
 20
275.39051303817854
 10
19.999998244021988
 20
274.9171846999225
 10
19.99999751444936
 20
273.0596051840923
 10
19.999997514441304
 20
226.50730416963907
 10
19.999996901762817
 20
226.1034187367917
 10
19.999996223692655
 20
225.6560619666388
 10
19.9999956430489
 20
225.17460466693566
 10
19.99999510367958
 20
224.66122200629448
 10
19.999995729368674
 20
224.29999024556074
 10
19.999996223682498
 20
223.95360134800563
 10
19.99999704302336
 20
223.71191551329733
 10
19.999999327236992
 20
223.57210858272236
 10
19.99999989963873
 20
223.42940217288455
 10
19.999999089004532
 20
222.8357806750492
 10
19.99999830060495
 20
222.19874287185863
 10
19.999996830109666
 20
221.22692454423668
 10
19.999994720142496
 20
219.8738613493656
 10
19.999993665543872
 20
218.8929740362657
 10
19.999993665543872
 20
218.63103967813626
 10
20.00000151842543
 20
218.63092914410575
 10
20.0000010349371
 20
217.8225501458854
 10
20.000001717940666
 20
217.51413696544142
 10
20.000001717940666
 20
215.529075456661
 10
20.000001745034307
 20
215.31865104133925
 10
20.000001745034307
 20
213.0809169516861
 10
20.00000174503505
 20
212.83228224302852
 10
20.000001772152785
 20
212.6323217725606
 10
20.00000174503502
 20
212.3350067374668
 10
20.00000171794144
 20
212.03599837845675
 10
20.00000171794144
 20
210.7884714968147
 10
20.000001717940666
 20
210.53896450272015
 10
20.000001717940666
 20
154.61469324137875
 10
20.00000174503505
 20
154.36866093296013
 10
20.000001745035007
 20
153.87138627085312
 10
20.000001717940627
 20
153.61667027281771
 10
20.000001690442048
 20
153.36011300569425
 10
20.000001690442048
 20
153.10972693797848
 10
20.000001690441273
 20
152.8593373274894
 10
20.000001690441273
 20
151.3570160292321
 10
20.000001717939924
 20
151.12161595077018
 10
20.000001717939888
 20
150.3730992603291
 10
20.000001690441273
 20
150.10508198495776
 10
20.000001690441273
 20
149.6043084493881
 10
20.00000169044279
 20
149.35392120879408
 10
20.000001690442755
 20
148.60276127632494
 10
20.000001662965005
 20
148.3277140180571
 10
20.00000166296497
 20
148.07644450139887
 10
20.00000163507588
 20
147.7983563314369
 10
20.000001635075773
 20
146.03322328513855
 10
20.000001578917065
 20
145.71265669640803
 10
20.000001635075073
 20
145.52890049535986
 10
20.000001607203355
 20
145.24100184391185
 10
20.000001607203355
 20
144.9879470253878
 10
20.000001635075073
 20
144.77241394813896
 10
20.000001607203355
 20
144.48183502884564
 10
20.000001607203323
 20
142.4573957667032
 10
20.000001578916923
 20
142.15718980433033
 10
20.000001607203355
 20
141.9512852013221
 10
20.000001607203323
 20
141.69822894813007
 10
20.000001578916876
 20
141.39530632934765
 10
20.0000015789161
 20
141.14134489784647
 10
20.000001578916102
 20
140.88738105342821
 10
20.00000160720258
 20
140.68600768578042
 10
20.000001607202552
 20
139.67378847089898
 10
20.0000015789161
 20
139.3636061431527
 10
20.000001578916056
 20
83.45721693003414
 10
20.00000155064506
 20
83.19962808711122
 10
20.000001550653675
 20
82.68994324687044
 10
20.00000551181762
 20
82.42858771392963
 10
20.00000551181761
 20
81.91701120809473
 10
20.000005497477737
 20
81.65202782561227
 10
20.000005497477726
 20
80.36849127940744
 10
20.00000548292298
 20
80.09685621756684
 10
20.00000548292298
 20
79.83921836133202
 10
20.000005526164983
 20
79.63147651480226
 10
20.000005511818017
 20
79.35913458529343
 10
20.000005526164983
 20
79.12174021452033
 10
20.000005540300506
 20
78.88590450354486
 10
20.00000556837963
 20
78.67154254537787
 10
20.00000556837962
 20
77.91505957156114
 10
20.000005554443767
 20
77.63966686858342
 10
20.00000556837963
 20
77.41073358136724
 10
20.000005568379574
 20
77.15857247482468
 10
20.000005526164973
 20
76.82792822468046
 10
20.000005511818
 20
76.54546864683778
 10
20.000005497478544
 20
76.26117831706874
 10
20.000005497478536
 20
76.00447254123681
 10
20.00000548292297
 20
75.716973016087
 10
20.000005468373455
 20
75.42761652892574
 10
20.000005468373427
 20
75.1690505910044
 10
20.000005438843225
 20
74.84232057594105
 10
20.00000531626628
 20
74.29109366039687
 10
20.000005268308435
 20
73.90593492458618
 10
20.000005316265753
 20
73.75445203691775
 10
20.000005378464966
 20
73.64562373657157
 10
20.000005408876046
 20
73.46122656189087
 10
20.00000542385637
 20
73.23917208049964
 10
20.00000542385636
 20
72.97774219990195
 10
20.00000540802453
 20
72.67394771479542
 10
20.00000131606253
 20
72.4116114547671
 10
20.000001285652633
 20
72.10444056033023
 10
20.000001285661757
 20
71.84112944607705
 10
20.000005393668413
 20
71.57771054719024
 10
20.000005393668403
 20
71.05098922969758
 10
20.000005378465058
 20
70.73791597062356
 10
20.00000537846505
 20
69.68056985447623
 10
20.000005363030134
 20
69.36081715041223
 10
20.000005363030134
 20
69.09549650951875
 10
20.000005363028873
 20
68.83016262393355
 10
20.000005363028873
 20
68.29950424153039
 10
20.000005363029704
 20
68.03417807058109
 10
20.000005347598773
 20
67.70751873477481
 10
20.000005363029594
 20
67.50353126738779
 10
20.000005169149567
 20
66.44271231212326
 10
20.000005169149567
 20
19.999998534337962
 10
20.23033322376038
 20
19.999998534337962
  0
LWPOLYLINE
  5
90
330
17
100
AcDbEntity
  8
GRABADO
100
AcDbPolyline
 90
865
 70
1
 10
12.999993665543872
 20
218.3826954291927
 10
12.999993665543872
 20
218.89297779859146
 10
12.999994720148367
 20
219.87387057107125
 10
12.99999683011818
 20
221.22693546003887
 10
12.999998300612965
 20
222.1987534638249
 10
12.999999089010437
 20
222.83578977758907
 10
12.999999899645257
 20
223.42941173190388
 10
12.99999932729332
 20
223.57208050044764
 10
12.999998244041354
 20
223.62042644669137
 10
12.999997043217263
 20
223.71184645041544
 10
12.999996223699428
 20
223.95358448787238
 10
12.9999957293758
 20
224.2999802562199
 10
12.999995103673212
 20
224.66121962113263
 10
12.999995643053333
 20
225.1746125643462
 10
12.999996223699053
 20
225.65607149214705
 10
12.999996901770857
 20
226.1034293468717
 10
12.999997514449356
 20
226.50731478836673
 10
12.999997514449356
 20
273.0596065561754
 10
12.999998244022528
 20
274.91718744920365
 10
12.999998300612896
 20
275.39051471149094
 10
12.999998735263745
 20
276.5994493182593
 10
12.999999419717776
 20
278.26096185156507
 10
13.000000220834037
 20
280.0992290610668
 10
13.000000373500958
 20
280.6805584260977
 10
13.000001308341956
 20
282.6788235092527
 10
13.000001163255273
 20
282.6788255523126
 10
13.000001099035988
 20
282.83748274497106
 10
13.000001690442797
 20
284.1305261353273
 10
13.00000187834133
 20
284.70013305531677
 10
13.000001904333853
 20
284.9878228611794
 10
13.000001930349633
 20
285.2738824752778
 10
13.000001955987889
 20
285.5576719515979
 10
13.000001955987889
 20
285.79954546912734
 10
13.000001981653854
 20
286.08091304974215
 10
13.000001981653854
 20
287.0451209920058
 10
13.000002006946398
 20
287.3210357089637
 10
13.000002006946398
 20
287.801517722134
 10
13.0000020069443
 20
288.0417579032797
 10
13.000002032263263
 20
288.31365106283414
 10
13.000002057217102
 20
288.58347625184524
 10
13.000002057217102
 20
288.8221058173634
 10
13.000001955986493
 20
288.9439193436824
 10
13.000005766967638
 20
289.2713707804089
 10
13.000002057224362
 20
289.5379963971851
 10
13.000002057221188
 20
290.1642261688401
 10
13.00000052669074
 20
290.1642477119766
 10
13.000000297800698
 20
290.2757276717383
 10
13.00000010277833
 20
290.4207204920011
 10
12.99999994084121
 20
290.6026130748516
 10
12.999999899644301
 20
290.88002901021724
 10
13.000000484601443
 20
291.5815830700073
 10
13.000001635074364
 20
292.6081844125245
 10
13.000002057217102
 20
293.1174461271159
 10
13.000002057217102
 20
293.3560765986959
 10
13.000001930348944
 20
293.5255728664615
 10
13.000002057217102
 20
293.8333358425651
 10
13.000002057217102
 20
295.5037458199575
 10
13.000002057218492
 20
295.74237856709664
 10
13.000002057218492
 20
296.2196413969114
 10
13.000002032263973
 20
296.45427234469986
 10
13.000002032263973
 20
296.93312940780163
 10
13.000002006945689
 20
297.1709329184538
 10
13.000002006945687
 20
353.66031062618487
 10
13.000001981652433
 20
353.85028313028573
 10
13.000001981652433
 20
354.0913339919575
 10
13.000001955987178
 20
354.2830252157933
 10
13.000005728835646
 20
354.52490312487913
 10
13.000005716016595
 20
354.7191114796205
 10
13.000001930358046
 20
354.96180436937095
 10
13.00000190433311
 20
355.15780279314697
 10
13.00000190433311
 20
355.8403430742356
 10
13.000001254795684
 20
355.84035222079444
 10
13.000001316067934
 20
356.2009310500618
 10
13.000001376001794
 20
356.5536134685772
 10
13.000001607202586
 20
357.15498732886084
 10
13.00000182561282
 20
357.72308922204047
 10
13.000001772152077
 20
357.89374236301114
 10
13.000001745034307
 20
358.1041347149484
 10
13.000001717940666
 20
358.3162961302499
 10
13.000001690441275
 20
358.52966121305735
 10
13.000001635074334
 20
358.7090539242147
 10
13.000001578916104
 20
358.8910108878974
 10
13.000001521951086
 20
359.07558541290757
 10
13.000001521951082
 20
359.5871621287
 10
13.000001493271318
 20
359.8107722336913
 10
13.000001405524474
 20
359.9718440896061
 10
13.000001285652665
 20
360.1045655131253
 10
13.000001224376142
 20
360.3050760748999
 10
13.000001193513329
 20
360.5397349136247
 10
13.000001130848597
 20
360.74579032686404
 10
13.000001099035984
 20
360.9845386047622
 10
13.000001002638015
 20
361.1673653173854
 10
13.000001002638005
 20
361.4398022759379
 10
13.00000096984423
 20
361.6849081712297
 10
13.00000093705223
 20
361.93210933811275
 10
13.00000090374754
 20
362.18102690903663
 10
13.00000087044169
 20
362.432070171937
 10
13.000000836615916
 20
362.68489060386355
 10
13.00000080278785
 20
362.9398780729506
 10
13.000000699161722
 20
363.15228717713023
 10
13.000005082967936
 20
363.413191186425
 10
13.000005082967936
 20
363.69646119493757
 10
13.000005065235706
 20
363.96041879696077
 10
13.00000059332623
 20
364.22664642827027
 10
13.000000557276344
 20
364.494877012587
 10
13.000000410741
 20
364.71582102703263
 10
13.000000335659486
 20
364.97594399730366
 10
13.000000373501988
 20
365.28431727733715
 10
13.000000410740983
 20
365.5900470819717
 10
13.000000373501988
 20
365.86952045204526
 10
13.000000373501988
 20
366.1621152079059
 10
13.000000335659484
 20
366.445014862748
 10
13.000000297801606
 20
366.7303279475736
 10
13.000000259328559
 20
367.0179589633607
 10
13.0000002208351
 20
367.30805320967846
 10
13.000000259328557
 20
367.6104863849785
 10
13.000000181712393
 20
367.89928627518
 10
13.000000142566137
 20
368.1955237120885
 10
13.000000142566137
 20
368.49552088594265
 10
13.000000102426633
 20
368.79818712488327
 10
13.00037503000513
 20
368.8034667238915
 10
13.001261317809403
 20
368.80970692130677
 10
13.003038672072718
 20
368.81700573274156
 10
13.005730925654555
 20
368.82458670424364
 10
13.008613979073068
 20
368.8305068437277
 10
13.012780695434476
 20
368.83784022360084
 10
13.021729464944013
 20
368.84895779203976
 10
13.03024679705945
 20
368.85577165773213
 10
13.03695357142263
 20
368.86039056446464
 10
13.052988233062804
 20
368.8682924210276
 10
13.070131803899164
 20
368.8705274387489
 10
55.92108733122673
 20
368.8705274387489
 10
55.9211046132159
 20
368.87052854479623
 10
63.67739716106382
 20
368.87052854479623
 10
64.1591888644543
 20
368.87052842581016
 10
64.95613218728876
 20
368.87052807078624
 10
65.86503869544754
 20
368.8705276035256
 10
66.76293104902841
 20
368.8705271059225
 10
66.79932536877764
 20
368.8705272661542
 10
67.0842265245823
 20
368.8705272295243
 10
67.34433653344801
 20
368.87052721149996
 10
67.85570022490525
 20
368.87052695652295
 10
68.39730590380603
 20
368.8705266449173
 10
68.61918166474155
 20
368.8705266311679
 10
68.85172079798666
 20
368.8705266040622
 10
69.0232733382665
 20
368.8705266449173
 10
69.19857510978743
 20
368.8705266865362
 10
69.49113317589692
 20
368.8705265773319
 10
69.70533140877417
 20
368.8705265641555
 10
69.90122337602588
 20
368.8705265773319
 10
70.0905598363702
 20
368.8705266040622
 10
70.29703302026746
 20
368.8705266040622
 10
70.50993007258963
 20
368.870526590702
 10
70.73267139364764
 20
368.87052655096863
 10
71.34357950432565
 20
368.87052655096863
 10
71.54440008172645
 20
368.8705265641555
 10
71.75085668225825
 20
368.87052655096863
 10
71.95448953919467
 20
368.87052655096863
 10
72.15742361173623
 20
368.8705265641555
 10
72.3617667171255
 20
368.87052655096863
 10
119.43032365013252
 20
368.87052655096863
 10
119.59239492726655
 20
368.8705265641555
 10
120.00107728068244
 20
368.8705265641555
 10
120.1659978244481
 20
368.8705265773319
 10
120.78113317422185
 20
368.8705265773319
 10
120.94903498551467
 20
368.870526590702
 10
121.11839252119495
 20
368.8705266040622
 10
121.36055188601793
 20
368.870526590702
 10
121.53133886786216
 20
368.8705266040622
 10
121.70304487496242
 20
368.8705266176207
 10
121.9102385323007
 20
368.8705266176207
 10
122.15075839203536
 20
368.8705266040622
 10
122.32463746425702
 20
368.8705266176207
 10
122.73903057639667
 20
368.8705266176207
 10
122.88498137825293
 20
368.8705266449173
 10
123.30229105789091
 20
368.8705266449173
 10
123.39476365474928
 20
368.87052670068016
 10
123.40983540986423
 20
368.87052670068016
 10
123.4098513497709
 20
368.8705277127377
 10
123.74871453487836
 20
368.8705276682524
 10
123.97784475618998
 20
368.87052769032624
 10
124.03865600374573
 20
368.87052782649283
 10
124.10304842862715
 20
368.8705279702687
 10
124.61458796974321
 20
368.87052780319095
 10
124.66196987253205
 20
368.8705279702684
 10
124.97301854705697
 20
368.8705279456341
 10
125.31063140023173
 20
368.87052789724055
 10
126.10167903412395
 20
368.8705274586546
 10
126.46395529048458
 20
368.8705273604749
 10
127.22641451135793
 20
368.8705268779501
 10
127.6559630783318
 20
368.87052667260065
 10
127.85269692922223
 20
368.8705266865362
 10
128.0762307000459
 20
368.87052667260065
 10
128.49650227625466
 20
368.87052667260065
 10
128.71706683028
 20
368.8705266586561
 10
128.9264556387752
 20
368.8705266586561
 10
129.0906431274857
 20
368.8705267291627
 10
129.32885305496694
 20
368.8705266865362
 10
129.53973036561416
 20
368.8705266865362
 10
129.74380794165043
 20
368.87052670068016
 10
129.95544585302386
 20
368.87052670068016
 10
130.16179084226383
 20
368.8705267148149
 10
130.5865729913085
 20
368.8705267148149
 10
130.7958949854267
 20
368.8705267291627
 10
177.29326122080212
 20
368.8705267291627
 10
177.45815718162615
 20
368.8705267435018
 10
178.31384482484435
 20
368.8705267435018
 10
178.4826670765885
 20
368.87052675805774
 10
178.69736638527752
 20
368.87052675805774
 10
178.9556138213271
 20
368.8705267435018
 10
179.5973827965958
 20
368.8705267435018
 10
179.77086590416806
 20
368.87052675805774
 10
180.8443684436173
 20
368.87052675805774
 10
181.02331289994473
 20
368.8705267726068
 10
184.68643136880283
 20
368.8705267726068
 10
184.9236737833125
 20
368.87052675805774
 10
185.15936950595113
 20
368.8705267435018
 10
185.37329266342417
 20
368.8705267435018
 10
185.60636627643558
 20
368.8705267291627
 10
185.81952387283064
 20
368.8705267291627
 10
186.05030999809452
 20
368.8705267148149
 10
186.2458365756792
 20
368.8705267291627
 10
186.4589931792894
 20
368.8705267291627
 10
186.6568286274633
 20
368.8705267435018
 10
186.85597578192858
 20
368.87052675805774
 10
187.0706763454958
 20
368.87052675805774
 10
187.29859637216387
 20
368.8705267435018
 10
187.51251901750052
 20
368.8705267435018
 10
187.70311781748708
 20
368.8705267726068
 10
187.90754868560128
 20
368.870526787376
 10
188.98888128638814
 20
368.870526787376
 10
189.2114601708647
 20
368.8705267726068
 10
189.415894229921
 20
368.87052680213685
 10
190.2841148456729
 20
368.87052680213685
 10
190.50432531604
 20
368.8705267726068
 10
190.71822518538931
 20
368.87052680213685
 10
190.9352803722835
 20
368.870526787376
 10
236.38097815177804
 20
368.870526787376
 10
236.54756323965847
 20
368.87052680213685
 10
237.4157839464453
 20
368.87052680213685
 10
237.67857750045917
 20
368.870526787376
 10
238.11111048379283
 20
368.870526787376
 10
238.3707738308097
 20
368.8705267726068
 10
238.54364384443903
 20
368.870526787376
 10
238.71811497444128
 20
368.87052680213685
 10
241.75688747286918
 20
368.87052680213685
 10
241.94351607494997
 20
368.8705268171239
 10
242.1909973990302
 20
368.87052680213685
 10
242.3792278521235
 20
368.8705268171239
 10
242.8149391254889
 20
368.8705268171239
 10
243.05921826390716
 20
368.87052680213685
 10
243.27627296616214
 20
368.87052680213685
 10
243.5177745979938
 20
368.870526787376
 10
243.71038288198227
 20
368.87052680213685
 10
243.90421907222415
 20
368.8705268171239
 10
244.3399308494438
 20
368.8705268171239
 10
244.53697867681896
 20
368.8705268321034
 10
244.75563586533508
 20
368.8705268321034
 10
244.99349801582343
 20
368.8705268171239
 10
245.4292087631777
 20
368.8705268171239
 10
245.63025998659793
 20
368.8705268321034
 10
246.06757128261955
 20
368.8705268321034
 10
246.27160337267367
 20
368.87052684731185
 10
247.14947700655742
 20
368.87052684731185
 10
247.3583862302251
 20
368.8705268625144
 10
247.58841537435325
 20
368.87052684731185
 10
248.02735166739595
 20
368.87052684731185
 10
248.239509633992
 20
368.8705268625144
 10
248.45979357730351
 20
368.8705268625144
 10
248.67429983726595
 20
368.8705268779501
 10
249.11651290372038
 20
368.8705268779501
 10
249.3343188628085
 20
368.8705268933806
 10
249.5537375421497
 20
368.87052690904886
 10
249.9992693190796
 20
368.87052690904886
 10
250.2220393850885
 20
368.8705269247139
 10
295.42175386726905
 20
368.8705269247139
 10
295.5926698948334
 20
368.8705269406202
 10
295.7653003210348
 20
368.87052695652295
 10
295.99060246469486
 20
368.87052695652295
 10
296.1141082958782
 20
368.87052698881826
 10
296.2395213999064
 20
368.870527021612
 10
296.4683009065854
 20
368.870527021612
 10
296.6472611607966
 20
368.87052703826487
 10
296.8769324751069
 20
368.87052703826487
 10
297.1546436639418
 20
368.870527021612
 10
297.2891202314141
 20
368.8705270549177
 10
297.5196790707493
 20
368.8705270549177
 10
297.7041598554706
 20
368.87052707182977
 10
297.980799974197
 20
368.8705270549177
 10
298.21135663266097
 20
368.8705270549177
 10
298.39854794699613
 20
368.87052707182977
 10
299.0929382114647
 20
368.87052707182977
 10
299.3641561702019
 20
368.8705270549177
 10
299.5558672095768
 20
368.87052707182977
 10
299.7493774358802
 20
368.8705270887442
 10
299.9441152253628
 20
368.8705271059224
 10
300.14068189247126
 20
368.87052712310464
 10
300.37488684007326
 20
368.87052712310464
 10
300.57365748681
 20
368.8705271405578
 10
301.5141982083387
 20
368.8705271405578
 10
301.7185587556462
 20
368.8705271580123
 10
302.8988949323964
 20
368.8705271580123
 10
303.0838013625201
 20
368.8705271934803
 10
304.03565375991286
 20
368.8705271934803
 10
304.2524326531849
 20
368.87052721149996
 10
304.9692083467144
 20
368.87052721149996
 10
305.1908028267322
 20
368.8705272295243
 10
305.6705791774675
 20
368.8705272295243
 10
305.8957918691721
 20
368.87052724783746
 10
306.85925578721896
 20
368.87052724783746
 10
307.10990823530256
 20
368.8705272295243
 10
307.340991118655
 20
368.87052724783746
 10
307.5740265584992
 20
368.87052726615497
 10
308.05771911691164
 20
368.87052726615497
 10
308.294590003367
 20
368.8705272847681
 10
308.537431823186
 20
368.8705272847681
 10
308.77728488713916
 20
368.87052730338763
 10
309.023108655977
 20
368.8705272847681
 10
309.2669448659837
 20
368.87052726615497
 10
353.31746194041614
 20
368.87052726615497
 10
353.4966622094182
 20
368.8705272847681
 10
353.8011567746307
 20
368.87052726615497
 10
353.911091191443
 20
368.8705272594768
 10
353.9110952650198
 20
368.87052780262036
 10
354.11938442458757
 20
368.870527826493
 10
354.58680488731596
 20
368.8705277573981
 10
354.97983411925185
 20
368.8705277124255
 10
355.48412038359623
 20
368.8705276248548
 10
356.13503796637065
 20
368.8705274788875
 10
357.08901168868175
 20
368.8705272067121
 10
357.089013135205
 20
368.87052730314696
 10
357.2878297482101
 20
368.87052732230893
 10
357.7775200329623
 20
368.87052732230893
 10
357.9778693245782
 20
368.87052734123785
 10
358.2724042501092
 20
368.87052730774064
 10
358.27240548118345
 20
368.87052753856705
 10
358.44632927329053
 20
368.87052758221733
 10
358.6606629983175
 20
368.8705276035256
 10
359.2146364949589
 20
368.8705274586546
 10
359.6227941951511
 20
368.870527379721
 10
360.0533299470085
 20
368.8705272847681
 10
360.154608779428
 20
368.8705273604749
 10
360.8952589430766
 20
368.8705273604749
 10
361.11026601380706
 20
368.870527379721
 10
361.3890318527553
 20
368.8705273604749
 10
361.6060907338993
 20
368.870527379721
 10
363.3414749404375
 20
368.870527379721
 10
363.6109868236587
 20
368.8705273604749
 10
364.3516369263098
 20
368.8705273604749
 10
364.58104369485386
 20
368.870527379721
 10
364.84540060014274
 20
368.8705273604749
 10
365.10770758813226
 20
368.87052734123785
 10
365.5994158048284
 20
368.87052734123785
 10
365.8574096903056
 20
368.87052732230893
 10
365.99833707932896
 20
368.8705274991353
 10
366.16227675016694
 20
368.87052766825235
 10
366.4256112242911
 20
368.8705276682524
 10
366.70748370789477
 20
368.8705276248548
 10
367.0078033126122
 20
368.8705275197175
 10
367.32040842516693
 20
368.87052734123785
 10
367.5611284572015
 20
368.8705273604749
 10
367.81212121822585
 20
368.87052734123785
 10
368.3038386326635
 20
368.87052734123785
 10
368.54866502381975
 20
368.8705273604749
 10
368.8053751363084
 20
368.8705273604749
 10
368.81843142965636
 20
368.8670456822488
 10
368.8235008264971
 20
368.8651446584335
 10
368.82903320893763
 20
368.8627736373876
 10
368.83681139585775
 20
368.8583289591475
 10
368.8498312899957
 20
368.84856403854405
 10
368.85764319092186
 20
368.83762737724743
 10
368.8602055003717
 20
368.8336415625476
 10
368.8682288046723
 20
368.81874114027505
 10
368.87054686075754
 20
368.8001966915933
 10
368.87054686075754
 20
311.6962753411377
 10
368.8705559889043
 20
311.4036725985511
 10
368.8705559889408
 20
310.81847612632737
 10
368.87054686075754
 20
310.52587104401215
 10
368.87054686075754
 20
299.6503041322409
 10
368.8705557690896
 20
299.36475423033505
 10
368.8705557691261
 20
299.07919636469074
 10
368.87054686075754
 20
298.7890915604326
 10
368.87054686075754
 20
234.93861525357966
 10
368.87055545868077
 20
234.49983964958068
 10
368.87054686075754
 20
234.16490753432203
 10
368.87054686075754
 20
168.91996666823303
 10
368.87055475522357
 20
168.52207966159037
 10
368.8705546719997
 20
168.1329453509422
 10
368.87055464277864
 20
167.99656963281558
 10
368.87055542538855
 20
167.99656337193656
 10
368.87055542538855
 20
167.9918940408136
 10
368.87055495691646
 20
167.0416046434169
 10
368.87055464450026
 20
166.3414510467421
 10
368.87055464450026
 20
166.09194563976095
 10
368.8705545902889
 20
165.7694548428631
 10
368.8705546174067
 20
165.55732645589404
 10
368.8705545902889
 20
165.27391977832545
 10
368.87055456357075
 20
164.99275066222847
 10
368.87055456357075
 20
164.6568336963283
 10
368.8705551380656
 20
164.656830728105
 10
368.8705551380656
 20
164.64963939300839
 10
368.87055456357075
 20
163.7581941896827
 10
368.87055453682814
 20
163.48299447050422
 10
368.8705545104777
 20
163.2099113714576
 10
368.87055448410183
 20
162.9384924659869
 10
368.8705544581086
 20
162.66913238181752
 10
368.8705544320928
 20
162.40141765348912
 10
368.8705544064546
 20
162.13570973680203
 10
368.8705543807893
 20
161.87162204026336
 10
368.87055435549746
 20
161.60949098725823
 10
368.8705543301777
 20
161.34895908989668
 10
368.87055428024297
 20
161.07111373050648
 10
368.8705544581085
 20
160.96441749238116
 10
368.87055428024297
 20
160.5954549586831
 10
368.87055425562176
 20
160.3410520097054
 10
368.8705542309693
 20
160.08820739214949
 10
368.8705542309693
 20
159.8519582568249
 10
368.87055418234775
 20
159.58765387938288
 10
368.87055415836966
 20
159.33989690201244
 10
368.870554087003
 20
159.06937134300816
 10
368.8705541106983
 20
158.84912994610931
 10
368.87055413436235
 20
158.6273549646116
 10
368.870554087003
 20
158.37446667472852
 10
368.87055406364567
 20
158.13384708464955
 10
368.87055399411014
 20
157.87844197534912
 10
368.87055392607914
 20
157.62797745002672
 10
368.8705539260785
 20
157.40150067006275
 10
368.870554063645
 20
157.2103012246811
 10
368.87055413436235
 20
156.99528263945763
 10
368.87055415836835
 20
156.76674653734756
 10
368.8705541823471
 20
156.5366666052865
 10
368.8705541823471
 20
155.8325932585717
 10
368.87055415836835
 20
155.59713289748407
 10
368.87055415836835
 20
105.89056670968588
 10
368.87054686079404
 20
105.65664270792578
 10
368.87055415833186
 20
105.42272104590342
 10
368.87055415833186
 20
105.42272104171913
 10
368.8705659687283
 20
105.0441402661833
 10
368.8705663035112
 20
104.7857367123341
 10
368.8705663035113
 20
103.53927382927405
 10
368.87056596876477
 20
102.5941354934676
 10
368.8705658050423
 20
101.82943437387841
 10
368.87056564534987
 20
101.07885589348601
 10
368.8705654870997
 20
100.33976349571687
 10
368.8705643153233
 20
98.76611268615454
 10
368.8705617410041
 20
96.1436414795862
 10
368.8705609835827
 20
95.08396553272362
 10
368.87056013874275
 20
94.00839748839832
 10
368.87055878385036
 20
92.6273044619489
 10
368.87055835153683
 20
91.95409885602882
 10
368.87055742226124
 20
90.99001535918936
 10
368.8705561807325
 20
89.89533257064438
 10
368.8705551689266
 20
89.01278520105875
 10
368.87055430522327
 20
88.27581194914048
 10
368.8705543603161
 20
88.17419954458916
 10
368.870555577856
 20
88.17419010865471
 10
368.8705559019149
 20
88.15591008743282
 10
368.8705579995857
 20
88.15589924946691
 10
368.870558045751
 20
88.0984948915305
 10
368.87056028717984
 20
88.09845958902683
 10
368.8705612587676
 20
87.91129347437142
 10
368.8705616422975
 20
87.53582568273369
 10
368.8705616422975
 20
87.06200334379395
 10
368.8705608061215
 20
86.4541649692031
 10
368.8705599817581
 20
85.90146162146723
 10
368.87055811841884
 20
85.30168544926279
 10
368.8705568070153
 20
84.85675119936214
 10
368.87055625966224
 20
84.52038144557305
 10
368.87055555965384
 20
84.21910009863258
 10
368.87055555965384
 20
30.920781944599902
 10
368.8705548982807
 20
29.306336671734478
 10
368.8705545368289
 20
28.330350093498236
 10
368.87055456357075
 20
28.136586721201077
 10
368.87055459028966
 20
27.94106491506156
 10
368.8705470106043
 20
27.748386812604636
 10
368.8705547834676
 20
27.550827907849936
 10
368.8705548982805
 20
27.502857337631816
 10
368.8705549864391
 20
27.400638253369173
 10
368.87055501641316
 20
27.1920551461213
 10
368.8705549273789
 20
26.7793656668575
 10
368.8705547552391
 20
26.233864039491554
 10
368.87055472736733
 20
25.935245997502804
 10
368.87055472736733
 20
25.683085759694094
 10
368.8705547176363
 20
25.579817644017638
 10
368.8705549875146
 20
25.579813503073026
 10
368.87055464450026
 20
24.80175401921902
 10
368.8705546719997
 20
24.592796397427993
 10
368.8705546719997
 20
24.342410927169517
 10
368.8705546174067
 20
24.01502715655618
 10
368.87055464104753
 20
23.93994230899674
 10
368.8705549257871
 20
23.939940128959595
 10
368.8705549864391
 20
23.7541086104939
 10
368.8705548117959
 20
23.269722726358346
 10
368.8705549569042
 20
23.19627835486363
 10
368.8705551678906
 20
23.19500903405539
 10
368.8705552952129
 20
23.078456710529636
 10
368.870555200263
 20
22.69852511005014
 10
368.8705551380656
 20
22.361426327373174
 10
368.8705550463721
 20
21.99616837746421
 10
368.87055469947745
 20
21.366833909212758
 10
368.8705545902889
 20
21.003563663316548
 10
368.8705545902889
 20
20.755797501126
 10
368.87055475523897
 20
20.666650141781187
 10
368.8705547552391
 20
20.41360227370556
 10
368.8705547835256
 20
20.185932672893692
 10
368.8705547552391
 20
19.90748704332266
 10
368.8705547552391
 20
19.65442944421894
 10
368.8705547273666
 20
19.379043612243596
 10
368.8705547273666
 20
19.126879486501835
 10
368.87055478352556
 20
18.91612702139105
 10
368.8705550463733
 20
18.84752411859012
 10
368.870555200263
 20
18.68872419771075
 10
368.870555200263
 20
18.42140127827719
 10
368.87054686075754
 20
18.078877205943513
 10
368.87054686075754
 20
17.407759723016028
 10
368.8705548404493
 20
17.167606822256552
 10
368.87055486917035
 20
16.92560378505878
 10
368.8705548404907
 20
16.656031614574175
 10
368.87055481179664
 20
16.388284187054303
 10
368.87055481179664
 20
16.133413726018127
 10
368.8705551071956
 20
15.982705225597657
 10
368.87055529521297
 20
15.77863373757648
 10
368.870555492001
 20
15.565047458783384
 10
368.8705557336555
 20
15.350342137065683
 10
368.8705558412141
 20
15.090064548082513
 10
368.8705559144785
 20
14.81628677927546
 10
368.8705559144785
 20
14.526069734724032
 10
368.8705558412141
 20
14.22645888807425
 10
368.87055580516744
 20
13.935123992206007
 10
368.8705557336556
 20
13.643830879897697
 10
368.8705553275101
 20
13.346400138472571
 10
368.8705548117965
 20
13.074998601727167
 10
368.87055481179664
 20
13.070130454959822
 10
368.8683197984184
 20
13.052986883333167
 10
368.8604179375123
 20
13.036952212879829
 10
368.85579903077985
 20
13.030245438516705
 10
368.84898516508747
 20
13.021728106401266
 10
368.83786759664855
 20
13.01277933689172
 10
368.8305351367463
 20
13.008613143243966
 10
368.8246141601085
 20
13.005729475632043
 10
368.8170321158725
 20
13.003037072472535
 10
368.8097353868581
 20
13.001260225305323
 10
368.80349521732023
 20
13.000373751025574
 10
368.79821450289796
 20
12.999998744236615
 10
323.79782492685666
 20
12.999998744236615
 10
323.7978191799294
 20
12.999998335946614
 10
323.56095335322516
 20
12.999998335946614
 10
323.492674619455
 20
12.999998283307209
 10
323.20071614221587
 20
12.999998301039458
 10
323.01863999569116
 20
12.999998283307187
 10
322.52134775058687
 20
12.999998370307072
 10
322.2889827888406
 20
12.999998370307072
 10
321.91097599515444
 20
12.99999842078784
 10
321.14062731591366
 20
12.99999861174
 10
320.43579989189
 20
12.999998786451242
 10
320.37977477447066
 20
12.999998729889278
 10
320.2438052716075
 20
12.999998700994182
 10
320.14449749045144
 20
12.99999865691499
 10
319.8517099350121
 20
12.999998686445041
 10
319.6362383589463
 20
12.999998686445041
 10
319.38500384754497
 20
12.999998700994178
 10
319.20527907221856
 20
12.999998686445041
 10
318.98980345625966
 20
12.999998686445041
 10
318.8082553874397
 20
12.999998671676314
 10
317.72692014648715
 20
12.999998671676313
 10
317.48146205929964
 20
12.999998686445041
 10
317.0505027687065
 20
12.999998686445041
 10
316.80860366547944
 20
12.999998700994178
 10
316.6195515483014
 20
12.999998686445041
 10
316.37919894380923
 20
12.999998700994178
 10
316.1645006053833
 20
12.999998700994178
 10
315.9264695195359
 20
12.999998715549744
 10
315.7350999109793
 20
12.999998700994178
 10
315.49862606486425
 20
12.999998715549744
 10
315.26401718351764
 20
12.999998729889239
 10
314.9529242703685
 20
12.99999880039581
 10
314.7996648243971
 20
12.999998758371348
 10
314.64293524237166
 20
12.999998715549761
 10
314.57524901413086
 20
12.99999859653718
 10
314.4467741456956
 20
12.99999851843209
 10
314.25827612708883
 20
12.999998486379882
 10
313.93089860813996
 20
12.999998581101723
 10
313.55876399273933
 20
12.999998729889244
 10
313.2513734818234
 20
12.99999882788406
 10
313.0810821527411
 20
12.999998786451252
 10
312.8828615418779
 20
12.999998772515376
 10
312.6833147776201
 20
12.999998758371344
 10
312.2600447659985
 20
12.999998758371344
 10
312.03934209886614
 20
12.999998772515376
 10
311.8284647100288
 20
12.999998772515376
 10
311.6101381906092
 20
12.99999878645125
 10
311.3932985011756
 20
12.999998800395813
 10
311.1898704703052
 20
12.99999878645125
 10
310.34932910474214
 20
12.99999878645125
 10
310.1369593029541
 20
12.999998800395813
 10
309.92906137954037
 20
12.99999878645125
 10
309.718924559415
 20
12.99999878645125
 10
309.50878773928537
 20
12.999998814134738
 10
263.6052730677225
 20
12.999998814134738
 10
263.6052720775444
 20
12.999998743817825
 10
263.1586955357745
 20
12.999998814134738
 10
262.99481327026695
 20
12.999998800395813
 10
262.7413857474178
 20
12.999998814134738
 10
262.5760335375761
 20
12.999998800395813
 10
260.6915286569717
 20
12.999998800395813
 10
260.518640944075
 20
12.99999878645125
 10
260.0983732109333
 20
12.99999878645125
 10
259.92248416085727
 20
12.999998772515376
 10
259.5007274008758
 20
12.999998772515376
 10
259.32233847778446
 20
12.999998758371344
 10
259.1107014908448
 20
12.999998758371344
 10
258.9300312185912
 20
12.999998744236615
 10
258.0804686520409
 20
12.999998744236615
 10
257.89567257198524
 20
12.999998729889239
 10
257.2562026307445
 20
12.999998729889239
 10
257.0675645297062
 20
12.999998715549744
 10
256.877746145706
 20
12.999998700994178
 10
256.6630478020275
 20
12.999998700994178
 10
256.4708885659099
 20
12.999998686445041
 10
255.8244556709992
 20
12.999998686445041
 10
255.58954604436522
 20
12.999998700994178
 10
255.35618071308357
 20
12.999998715549744
 10
254.92833726865763
 20
12.999998715549744
 10
254.73074465431813
 20
12.999998700994178
 10
254.51604229214595
 20
12.999998700994178
 10
254.31611025159307
 20
12.999998686445041
 10
253.88515902274986
 20
12.999998686445041
 10
253.68230155367073
 20
12.999998671676314
 10
253.4660369300881
 20
12.999998671676313
 10
253.23872511752546
 20
12.999998686445041
 10
253.01314184352202
 20
12.999998700994178
 10
252.78911100606385
 20
12.999998715549744
 10
252.5751882882811
 20
12.999998715549744
 10
252.376813606098
 20
12.999998686445041
 10
251.94585833831724
 20
12.999998686445041
 10
251.73590582210545
 20
12.999998671676314
 10
251.3033705110556
 20
12.999998671676313
 10
251.09026036948737
 20
12.999998656914983
 10
250.65614781785726
 20
12.999998656914983
 10
250.4398942552886
 20
12.999998641927956
 10
204.44234464285043
 20
12.999998641927956
 10
204.27330661888735
 20
12.999998626948068
 10
203.1800275249863
 20
12.999998626948068
 10
202.91735209026223
 20
12.999998641927956
 10
202.74271303155194
 20
12.999998626948068
 10
202.08674639132755
 20
12.999998626948068
 10
201.7486089408635
 20
12.99999867167631
 10
201.64943192528452
 20
12.999998626948075
 10
201.43077566791953
 20
12.999998626948068
 10
201.25030718419112
 20
12.999998611739999
 10
200.5919010502139
 20
12.999998611739999
 10
200.40735731070006
 20
12.999998596537065
 10
199.9667954695896
 20
12.999998596537065
 10
199.7794995533243
 20
12.99999858110172
 10
199.55839452339598
 20
12.99999858110172
 10
199.36861534650313
 20
12.999998565670765
 10
198.7028265734446
 20
12.999998565670765
 10
198.50935551234159
 20
12.999998550003008
 10
197.618287599972
 20
12.999998550003008
 10
197.41979118218262
 20
12.999998534337962
 10
196.74897955349783
 20
12.999998534337962
 10
196.54662028847994
 20
12.999998518432076
 10
195.1998981899316
 20
12.999998518432076
 10
194.99073865240823
 20
12.99999850252845
 10
194.5401323464204
 20
12.99999850252845
 10
194.2893374435851
 20
12.999998534337962
 10
194.07763052390553
 20
12.999998518432076
 10
193.86422224263995
 20
12.99999850252845
 10
193.63891922152655
 20
12.99999850252845
 10
193.42310597179673
 20
12.99999848637988
 10
193.196940221249
 20
12.99999848637988
 10
192.9785375118232
 20
12.999998470233088
 10
192.75150899378457
 20
12.999998470233088
 10
192.5184420450289
 20
12.99999848637988
 10
192.28709965904736
 20
12.999998502528449
 10
192.06611003157897
 20
12.99999848637988
 10
191.843394617253
 20
12.999998470233088
 10
191.6189940908568
 20
12.999998453836216
 10
146.2344156265989
 20
12.999998453836216
 10
146.06169885663272
 20
12.99999843743928
 10
144.46023485466088
 20
12.99999843743928
 10
144.2803820343972
 20
12.99999842078784
 10
144.00267384041945
 20
12.99999843743928
 10
142.62999054926905
 20
12.99999843743928
 10
142.36003805387503
 20
12.999998453836216
 10
140.99261048061072
 20
12.999998453836216
 10
140.79974571846014
 20
12.99999843743928
 10
139.88462369814735
 20
12.99999843743928
 10
139.6869783223868
 20
12.99999842078784
 10
138.538627690493
 20
12.99999842078784
 10
138.28315869060899
 20
12.99999843743928
 10
138.05437912541797
 20
12.99999843743928
 10
137.8019460330343
 20
12.999998453836216
 10
137.5512660530014
 20
12.999998470233088
 10
137.3461383618111
 20
12.999998453836216
 10
133.24385481952618
 20
12.999998453836216
 10
133.01069526871038
 20
12.999998470233088
 10
132.32960827576343
 20
12.999998470233088
 10
132.10433162046013
 20
12.999998453836216
 10
85.80813709911602
 20
12.999998453836216
 10
85.52942473082699
 20
12.999998470233088
 10
79.85370966321318
 20
12.999998470233088
 10
79.5990788851078
 20
12.99999848637988
 10
79.37291499502916
 20
12.99999848637988
 10
79.17262798290857
 20
12.999998470233088
 10
78.92057661850244
 20
12.99999848637988
 10
78.71856856751282
 20
12.999998470233088
 10
78.49153779146508
 20
12.999998470233088
 10
78.24207858218564
 20
12.99999848637988
 10
78.03748263156294
 20
12.999998470233088
 10
77.78974867475976
 20
12.99999848637988
 10
77.58342109140747
 20
12.999998470233088
 10
77.12936592239483
 20
12.999998470233088
 10
76.91985504321114
 20
12.999998453836216
 10
76.67531075135066
 20
12.999998470233088
 10
75.31313675738613
 20
12.999998470233088
 10
75.07575652705464
 20
12.99999848637988
 10
74.62342450537747
 20
12.99999848637988
 10
74.38949604170888
 20
12.99999850252845
 10
74.15739562279097
 20
12.999998518432076
 10
73.92699155709018
 20
12.999998534337962
 10
73.70338977984383
 20
12.999998534337962
 10
73.48403471694199
 20
12.999998518432076
 10
73.25957897203274
 20
12.999998518432076
 10
73.03257814856818
 20
12.999998534337962
 10
72.58536831078104
 20
12.999998534337962
 10
72.36176652279467
 20
12.999998518432076
 10
26.991124604524522
 20
12.999998518432076
 10
26.714839616951423
 20
12.999998534337962
 10
26.542219434479737
 20
12.999998518432076
 10
26.367892599387673
 20
12.99999850252845
 10
25.91728813729746
 20
12.99999850252845
 10
25.644404870105816
 20
12.999998518432076
 10
24.7465903170985
 20
12.999998518432076
 10
24.47880086065791
 20
12.999998534337962
 10
24.255196990719227
 20
12.999998534337962
 10
24.073229407227878
 20
12.999998518432076
 10
23.848777865769158
 20
12.999998518432076
 10
23.66425743306597
 20
12.99999850252845
 10
23.438952036057003
 20
12.99999850252845
 10
23.137177607148008
 20
12.999998534337962
 10
20.901140951025805
 20
12.999998534337962
 10
20.6490783883928
 20
12.999998550003008
 10
20.426313501211133
 20
12.999998550003008
 10
20.23033351660273
 20
12.999998534337962
 10
18.8887060735173
 20
12.999998534337962
 10
18.64417767729541
 20
12.999998550003008
 10
17.084806753696277
 20
12.999998550003008
 10
16.847812182578735
 20
12.999998565670765
 10
13.518865219917101
 20
12.999998565670765
 10
13.293663712924758
 20
12.999998626948056
 10
13.072330358913936
 20
12.999998384288999
 10
13.066617144038199
 20
13.000406423314324
 10
13.061433337688008
 20
13.001204011063589
 10
13.053556011706643
 20
13.002892056978922
 10
13.044702667208607
 20
13.006297060047173
 10
13.039302003349313
 20
13.008997440322213
 10
13.033949476573632
 20
13.012119795523367
 10
13.029165279678754
 20
13.015599177468243
 10
13.021707660806198
 20
13.021700878878207
 10
13.015606263008856
 20
13.029158126669476
 10
13.012126647116123
 20
13.033942516757502
 10
13.009003685113829
 20
13.03929617959705
 10
13.006304082632067
 20
13.044695577900294
 10
13.002899088413479
 20
13.053548065447451
 10
13.001210539075272
 20
13.061427740669469
 10
13.00041311883901
 20
13.066611571898088
 10
13.000005169149569
 20
13.07232353592507
 10
13.000005169149569
 20
66.44271294999578
 10
13.000005363029713
 20
67.50353254673917
 10
13.000005347598758
 20
67.70751863710301
 10
13.000005363029713
 20
68.03417840125137
 10
13.000005363028873
 20
68.29950424150823
 10
13.000005363028873
 20
68.83016262396677
 10
13.000005363030132
 20
69.09549650955199
 10
13.000005363030132
 20
69.36081734111484
 10
13.000005378465058
 20
69.68057019237621
 10
13.000005378465058
 20
70.73791612765773
 10
13.000005393668411
 20
71.05098956962892
 10
13.000005393668411
 20
71.57771054719024
 10
13.000001285661758
 20
71.8410748523415
 10
13.000001285652635
 20
72.10444091228919
 10
13.000001316067934
 20
72.41166639476955
 10
13.00000540887609
 20
72.67405690188993
 10
13.00000542385637
 20
72.97774254519966
 10
13.00000542385637
 20
73.23917208049964
 10
13.000005408876062
 20
73.46122608965372
 10
13.000005378465062
 20
73.64562258211902
 10
13.000005316266389
 20
73.75444892398237
 10
13.000005268308298
 20
73.90593425462778
 10
13.000005316266376
 20
74.29109487236866
 10
13.000005438843395
 20
74.84232213253884
 10
13.000005468373454
 20
75.16905122367046
 10
13.000005468373454
 20
75.42761668659983
 10
13.00000548292298
 20
75.71697336806324
 10
13.000005497478545
 20
76.00447289563374
 10
13.000005497478545
 20
76.2611785116659
 10
13.000005511818008
 20
76.5454689999141
 10
13.000005526164996
 20
76.82792886165639
 10
13.000005568379631
 20
77.15857336854117
 10
13.000005568379631
 20
77.41073358136724
 10
13.000005554443756
 20
77.63966682856636
 10
13.000005568379631
 20
77.91505992578615
 10
13.000005568379631
 20
78.67154254537787
 10
13.000005540300533
 20
78.88590384207728
 10
13.000005526164996
 20
79.12173979495427
 10
13.000005511818008
 20
79.35913456241518
 10
13.000005526164996
 20
79.63147688356212
 10
13.000005482922981
 20
79.83921763390165
 10
13.00000548292298
 20
80.09685641030407
 10
13.000005497477737
 20
80.36849165448137
 10
13.000005497477737
 20
81.65202800747562
 10
13.00000551181762
 20
81.91701158690756
 10
13.00000551181762
 20
82.42858771392963
 10
13.000001550653677
 20
82.68989018929334
 10
13.000001550645058
 20
83.19962846687663
 10
13.0000015789161
 20
83.4572176983011
 10
13.0000015789161
 20
139.36360646983806
 10
13.00000160720258
 20
139.67378910924987
 10
13.00000160720258
 20
140.68600768578042
 10
13.0000015789161
 20
140.88738055702098
 10
13.0000015789161
 20
141.1413448978678
 10
13.000001578916875
 20
141.39530665010147
 10
13.000001607203355
 20
141.69822960177933
 10
13.000001607203355
 20
141.9512852013221
 10
13.000001578916876
 20
142.1571896518202
 10
13.000001607203355
 20
142.45739642626646
 10
13.000001607203355
 20
144.48183536691883
 10
13.000001635075105
 20
144.7724146195642
 10
13.000001607203355
 20
144.98794657348134
 10
13.000001607203355
 20
145.24100219131063
 10
13.000001635075105
 20
145.52890117303588
 10
13.000001578916878
 20
145.71265623968753
 10
13.000001635075881
 20
146.033224511439
 10
13.000001635075881
 20
147.79835668806498
 10
13.000001662965005
 20
148.0764452034195
 10
13.000001662965005
 20
148.3277143617504
 10
13.000001690442792
 20
148.6027619756384
 10
13.000001690442792
 20
149.35392120879408
 10
13.000001690441273
 20
149.60430844934567
 10
13.000001690441273
 20
150.10508234823428
 10
13.000001717939924
 20
150.37309997853018
 10
13.000001717939924
 20
151.12161595077018
 10
13.000001690441273
 20
151.35701562208533
 10
13.000001690441273
 20
152.85933732751107
 10
13.000001690442048
 20
153.10972693800014
 10
13.000001690442048
 20
153.36011337479343
 10
13.000001717940666
 20
153.6166710230987
 10
13.00000174503505
 20
153.87138701544978
 10
13.00000174503505
 20
154.36866093296013
 10
13.000001717940666
 20
154.61469286569277
 10
13.000001717940666
 20
210.53896450272015
 10
13.00000171794144
 20
210.78847149683645
 10
13.00000171794144
 20
212.03599869907111
 10
13.00000174503505
 20
212.33500737174694
 10
13.000001772152816
 20
212.6323224110226
 10
13.00000174503505
 20
212.83228176524543
 10
13.000001745034306
 20
213.08091695166516
 10
13.000001745034306
 20
215.31865104133925
 10
13.000001717940666
 20
215.5290750037343
 10
13.000001717940666
 20
217.51413696544142
 10
13.000001002338086
 20
217.51414640844453
 10
13.000001034932463
 20
217.82254448815004
 10
13.000001369891702
 20
218.38258698586378
 10
12.999993665543872
 20
218.3826954291927
  0
TEXT
  5
91
330
17
100
AcDbEntity
  8
GRABADO
100
AcDbText
 10
365.3705468611254
 20
189.7294655854766
 30
0.0
 40
6.0
  1
02
 72
1
 11
365.3705468611254
 21
189.7294655854766
 31
0.0
100
AcDbText
 73
2
  0
TEXT
  5
92
330
17
100
AcDbEntity
  8
HOJA
100
AcDbText
 10
10.0
 20
691.0
 30
0.0
 40
6.0
  1
mars_valles_mar  hoja 7/8  1:220  lamina 2.0mm
 11
10.0
 21
691.0
 31
0.0
100
AcDbText
  0
ENDSEC
  0
SECTION
  2
OBJECTS
  0
DICTIONARY
  5
A
330
0
100
AcDbDictionary
281
1
  3
ACAD_COLOR
350
B
  3
ACAD_GROUP
350
C
  3
ACAD_LAYOUT
350
D
  3
ACAD_MATERIAL
350
E
  3
ACAD_MLEADERSTYLE
350
F
  3
ACAD_MLINESTYLE
350
10
  3
ACAD_PLOTSETTINGS
350
11
  3
ACAD_PLOTSTYLENAME
350
12
  3
ACAD_SCALELIST
350
14
  3
ACAD_TABLESTYLE
350
15
  3
ACAD_VISUALSTYLE
350
16
  3
EZDXF_META
350
2D
  0
DICTIONARY
  5
B
330
A
100
AcDbDictionary
281
1
  0
DICTIONARY
  5
C
330
A
100
AcDbDictionary
281
1
  0
DICTIONARY
  5
D
330
A
100
AcDbDictionary
281
1
  3
Model
350
1A
  3
Layout1
350
1E
  0
DICTIONARY
  5
E
330
A
100
AcDbDictionary
281
1
  3
ByBlock
350
1F
  3
ByLayer
350
20
  3
Global
350
21
  0
DICTIONARY
  5
F
330
A
100
AcDbDictionary
281
1
  3
Standard
350
2C
  0
DICTIONARY
  5
10
330
A
100
AcDbDictionary
281
1
  3
Standard
350
22
  0
DICTIONARY
  5
11
330
A
100
AcDbDictionary
281
1
  0
ACDBDICTIONARYWDFLT
  5
12
330
A
100
AcDbDictionary
281
1
  3
Normal
350
13
100
AcDbDictionaryWithDefault
340
13
  0
ACDBPLACEHOLDER
  5
13
330
12
  0
DICTIONARY
  5
14
330
A
100
AcDbDictionary
281
1
  0
DICTIONARY
  5
15
330
A
100
AcDbDictionary
281
1
  0
DICTIONARY
  5
16
330
A
100
AcDbDictionary
281
1
  3
2dWireframe
350
5A
  3
Basic
350
5B
  3
Brighten
350
5C
  3
ColorChange
350
5D
  3
Conceptual
350
5E
  3
Dim
350
5F
  3
EdgeColorOff
350
60
  3
Facepattern
350
61
  3
Flat
350
62
  3
FlatWithEdges
350
63
  3
Gouraud
350
64
  3
GouraudWithEdges
350
65
  3
Hidden
350
66
  3
JitterOff
350
67
  3
Linepattern
350
68
  3
Modeling
350
69
  3
OverhangOff
350
6A
  3
Realistic
350
6B
  3
Shaded
350
6C
  3
Shaded with edges
350
6D
  3
Shades of Gray
350
6E
  3
Sketchy
350
6F
  3
Thicken
350
70
  3
Wireframe
350
71
  3
X-Ray
350
72
  0
LAYOUT
  5
1A
330
D
100
AcDbPlotSettings
  1

  4
A3
  6

 40
7.5
 41
20.0
 42
7.5
 43
20.0
 44
420.0
 45
297.0
 46
0.0
 47
0.0
 48
0.0
 49
0.0
140
0.0
141
0.0
142
1.0
143
1.0
 70
1024
 72
1
 73
0
 74
5
  7

 75
16
 76
0
 77
2
 78
300
147
1.0
148
0.0
149
0.0
100
AcDbLayout
  1
Model
 70
1
 71
0
 10
0.0
 20
0.0
 11
420.0
 21
297.0
 12
0.0
 22
0.0
 32
0.0
 14
1e+20
 24
1e+20
 34
1e+20
 15
-1e+20
 25
-1e+20
 35
-1e+20
146
0.0
 13
0.0
 23
0.0
 33
0.0
 16
1.0
 26
0.0
 36
0.0
 17
0.0
 27
1.0
 37
0.0
 76
1
330
17
  0
LAYOUT
  5
1E
330
D
100
AcDbPlotSettings
  1

  4
A3
  6

 40
7.5
 41
20.0
 42
7.5
 43
20.0
 44
420.0
 45
297.0
 46
0.0
 47
0.0
 48
0.0
 49
0.0
140
0.0
141
0.0
142
1.0
143
1.0
 70
0
 72
1
 73
0
 74
5
  7

 75
16
 76
0
 77
2
 78
300
147
1.0
148
0.0
149
0.0
100
AcDbLayout
  1
Layout1
 70
1
 71
1
 10
0.0
 20
0.0
 11
420.0
 21
297.0
 12
0.0
 22
0.0
 32
0.0
 14
1e+20
 24
1e+20
 34
1e+20
 15
-1e+20
 25
-1e+20
 35
-1e+20
146
0.0
 13
0.0
 23
0.0
 33
0.0
 16
1.0
 26
0.0
 36
0.0
 17
0.0
 27
1.0
 37
0.0
 76
1
330
1B
  0
MATERIAL
  5
1F
102
{ACAD_REACTORS
330
E
102
}
330
E
100
AcDbMaterial
  1
ByBlock
  2

 70
0
 40
1.0
 71
1
 41
1.0
 91
-1023410177
 42
1.0
 72
1
  3

 73
1
 74
1
 75
1
 44
0.5
 73
0
 45
1.0
 46
1.0
 77
1
  4

 78
1
 79
1
170
1
 48
1.0
171
1
  6

172
1
173
1
174
1
140
1.0
141
1.0
175
1
  7

176
1
177
1
178
1
143
1.0
179
1
  8

270
1
271
1
272
1
145
1.0
146
1.0
273
1
  9

274
1
275
1
276
1
 42
1.0
 72
1
  3

 73
1
 74
1
 75
1
 94
63
  0
MATERIAL
  5
20
102
{ACAD_REACTORS
330
E
102
}
330
E
100
AcDbMaterial
  1
ByLayer
  2

 70
0
 40
1.0
 71
1
 41
1.0
 91
-1023410177
 42
1.0
 72
1
  3

 73
1
 74
1
 75
1
 44
0.5
 73
0
 45
1.0
 46
1.0
 77
1
  4

 78
1
 79
1
170
1
 48
1.0
171
1
  6

172
1
173
1
174
1
140
1.0
141
1.0
175
1
  7

176
1
177
1
178
1
143
1.0
179
1
  8

270
1
271
1
272
1
145
1.0
146
1.0
273
1
  9

274
1
275
1
276
1
 42
1.0
 72
1
  3

 73
1
 74
1
 75
1
 94
63
  0
MATERIAL
  5
21
102
{ACAD_REACTORS
330
E
102
}
330
E
100
AcDbMaterial
  1
Global
  2

 70
0
 40
1.0
 71
1
 41
1.0
 91
-1023410177
 42
1.0
 72
1
  3

 73
1
 74
1
 75
1
 44
0.5
 73
0
 45
1.0
 46
1.0
 77
1
  4

 78
1
 79
1
170
1
 48
1.0
171
1
  6

172
1
173
1
174
1
140
1.0
141
1.0
175
1
  7

176
1
177
1
178
1
143
1.0
179
1
  8

270
1
271
1
272
1
145
1.0
146
1.0
273
1
  9

274
1
275
1
276
1
 42
1.0
 72
1
  3

 73
1
 74
1
 75
1
 94
63
  0
MLINESTYLE
  5
22
102
{ACAD_REACTORS
330
10
102
}
330
10
100
AcDbMlineStyle
  2
Standard
 70
0
  3

 62
256
 51
90.0
 52
90.0
 71
2
 49
0.5
 62
256
  6
BYLAYER
 49
-0.5
 62
256
  6
BYLAYER
  0
MLEADERSTYLE
  5
2C
102
{ACAD_REACTORS
330
F
102
}
330
F
100
AcDbMLeaderStyle
179
2
170
2
171
1
172
0
 90
2
 40
0.0
 41
0.0
173
1
 91
-1056964608
 92
-2
290
1
 42
2.0
291
1
 43
8.0
  3
Standard
 44
4.0
300

342
29
174
1
175
1
176
0
178
1
 93
-1056964608
 45
4.0
292
0
297
0
 46
4.0
 94
-1056964608
 47
1.0
 49
1.0
140
1.0
294
1
141
0.0
177
0
142
1.0
295
0
296
0
143
3.75
271
0
272
9
273
9
  0
DICTIONARY
  5
2D
330
A
100
AcDbDictionary
280
1
281
1
  3
CREATED_BY_EZDXF
350
2E
  3
WRITTEN_BY_EZDXF
350
95
  0
DICTIONARYVAR
  5
2E
330
2D
100
DictionaryVariables
280
0
  1
1.4.2 @ 2026-09-06T16:41:08.073728+00:00
  0
VISUALSTYLE
  5
5A
102
{ACAD_REACTORS
330
16
102
}
330
16
100
AcDbVisualStyle
  2
2dWireframe
 70
4
 90
0
 40
0.6
 62
7
290
0
291
0
  0
VISUALSTYLE
  5
5B
102
{ACAD_REACTORS
330
16
102
}
330
16
100
AcDbVisualStyle
  2
Basic
 70
7
 90
1
 40
0.6
 62
7
290
0
291
1
  0
VISUALSTYLE
  5
5C
102
{ACAD_REACTORS
330
16
102
}
330
16
100
AcDbVisualStyle
  2
Brighten
 70
12
 90
2
 40
0.6
 62
7
290
0
291
1
  0
VISUALSTYLE
  5
5D
102
{ACAD_REACTORS
330
16
102
}
330
16
100
AcDbVisualStyle
  2
ColorChange
 70
16
 90
2
 40
0.6
 62
8
290
0
291
1
  0
VISUALSTYLE
  5
5E
102
{ACAD_REACTORS
330
16
102
}
330
16
100
AcDbVisualStyle
  2
Conceptual
 70
9
 90
3
 40
0.6
 62
7
290
0
291
0
  0
VISUALSTYLE
  5
5F
102
{ACAD_REACTORS
330
16
102
}
330
16
100
AcDbVisualStyle
  2
Dim
 70
11
 90
2
 40
0.6
 62
7
290
0
291
1
  0
VISUALSTYLE
  5
60
102
{ACAD_REACTORS
330
16
102
}
330
16
100
AcDbVisualStyle
  2
EdgeColorOff
 70
22
 90
2
 40
0.6
 62
7
290
0
291
1
  0
VISUALSTYLE
  5
61
102
{ACAD_REACTORS
330
16
102
}
330
16
100
AcDbVisualStyle
  2
Facepattern
 70
15
 90
2
 40
0.6
 62
7
290
0
291
1
  0
VISUALSTYLE
  5
62
102
{ACAD_REACTORS
330
16
102
}
330
16
100
AcDbVisualStyle
  2
Flat
 70
0
 90
2
 40
0.6
 62
7
290
0
291
1
  0
VISUALSTYLE
  5
63
102
{ACAD_REACTORS
330
16
102
}
330
16
100
AcDbVisualStyle
  2
FlatWithEdges
 70
1
 90
2
 40
0.6
 62
7
290
0
291
1
  0
VISUALSTYLE
  5
64
102
{ACAD_REACTORS
330
16
102
}
330
16
100
AcDbVisualStyle
  2
Gouraud
 70
2
 90
2
 40
0.6
 62
7
290
0
291
1
  0
VISUALSTYLE
  5
65
102
{ACAD_REACTORS
330
16
102
}
330
16
100
AcDbVisualStyle
  2
GouraudWithEdges
 70
3
 90
2
 40
0.6
 62
7
290
0
291
1
  0
VISUALSTYLE
  5
66
102
{ACAD_REACTORS
330
16
102
}
330
16
100
AcDbVisualStyle
  2
Hidden
 70
6
 90
1
 40
0.6
 62
7
290
0
291
0
  0
VISUALSTYLE
  5
67
102
{ACAD_REACTORS
330
16
102
}
330
16
100
AcDbVisualStyle
  2
JitterOff
 70
20
 90
2
 40
0.6
 62
7
290
0
291
1
  0
VISUALSTYLE
  5
68
102
{ACAD_REACTORS
330
16
102
}
330
16
100
AcDbVisualStyle
  2
Linepattern
 70
14
 90
2
 40
0.6
 62
7
290
0
291
1
  0
VISUALSTYLE
  5
69
102
{ACAD_REACTORS
330
16
102
}
330
16
100
AcDbVisualStyle
  2
Modeling
 70
10
 90
2
 40
0.6
 62
7
290
0
291
0
  0
VISUALSTYLE
  5
6A
102
{ACAD_REACTORS
330
16
102
}
330
16
100
AcDbVisualStyle
  2
OverhangOff
 70
21
 90
2
 40
0.6
 62
7
290
0
291
1
  0
VISUALSTYLE
  5
6B
102
{ACAD_REACTORS
330
16
102
}
330
16
100
AcDbVisualStyle
  2
Realistic
 70
8
 90
2
 40
0.6
 62
7
290
0
291
0
  0
VISUALSTYLE
  5
6C
102
{ACAD_REACTORS
330
16
102
}
330
16
100
AcDbVisualStyle
  2
Shaded
 70
27
 90
2
 40
0.6
 62
7
290
0
291
0
  0
VISUALSTYLE
  5
6D
102
{ACAD_REACTORS
330
16
102
}
330
16
100
AcDbVisualStyle
  2
Shaded with edges
 70
26
 90
2
 40
0.6
 62
7
290
0
291
0
  0
VISUALSTYLE
  5
6E
102
{ACAD_REACTORS
330
16
102
}
330
16
100
AcDbVisualStyle
  2
Shades of Gray
 70
23
 90
2
 40
0.6
 62
7
290
0
291
0
  0
VISUALSTYLE
  5
6F
102
{ACAD_REACTORS
330
16
102
}
330
16
100
AcDbVisualStyle
  2
Sketchy
 70
24
 90
1
 40
0.6
 62
7
290
0
291
0
  0
VISUALSTYLE
  5
70
102
{ACAD_REACTORS
330
16
102
}
330
16
100
AcDbVisualStyle
  2
Thicken
 70
13
 90
2
 40
0.6
 62
7
290
0
291
1
  0
VISUALSTYLE
  5
71
102
{ACAD_REACTORS
330
16
102
}
330
16
100
AcDbVisualStyle
  2
Wireframe
 70
5
 90
0
 40
0.6
 62
7
290
0
291
0
  0
VISUALSTYLE
  5
72
102
{ACAD_REACTORS
330
16
102
}
330
16
100
AcDbVisualStyle
  2
X-Ray
 70
25
 90
2
 40
0.5
 62
7
290
0
291
0
  0
DICTIONARYVAR
  5
95
330
2D
100
DictionaryVariables
280
0
  1
1.4.2 @ 2026-09-06T16:41:08.084503+00:00
  0
ENDSEC
  0
EOF
