  0
SECTION
  2
HEADER
  9
$ACADVER
  1
AC1024
  9
$ACADMAINTVER
 70
6
  9
$DWGCODEPAGE
  3
ANSI_1252
  9
$LASTSAVEDBY
  1
ezdxf
  9
$INSBASE
 10
0.0
 20
0.0
 30
0.0
  9
$EXTMIN
 10
1e+20
 20
1e+20
 30
1e+20
  9
$EXTMAX
 10
-1e+20
 20
-1e+20
 30
-1e+20
  9
$LIMMIN
 10
0.0
 20
0.0
  9
$LIMMAX
 10
420.0
 20
297.0
  9
$ORTHOMODE
 70
0
  9
$REGENMODE
 70
1
  9
$FILLMODE
 70
1
  9
$QTEXTMODE
 70
0
  9
$MIRRTEXT
 70
1
  9
$LTSCALE
 40
1.0
  9
$ATTMODE
 70
1
  9
$TEXTSIZE
 40
2.5
  9
$TRACEWID
 40
1.0
  9
$TEXTSTYLE
  7
OpenSans
  9
$CLAYER
  8
0
  9
$CELTYPE
  6
ByLayer
  9
$CECOLOR
 62
256
  9
$CELTSCALE
 40
1.0
  9
$DISPSILH
 70
0
  9
$DIMSCALE
 40
1.0
  9
$DIMASZ
 40
0.175
  9
$DIMEXO
 40
0.125
  9
$DIMDLI
 40
3.75
  9
$DIMRND
 40
0.0
  9
$DIMDLE
 40
0.0
  9
$DIMEXE
 40
0.375
  9
$DIMTP
 40
0.0
  9
$DIMTM
 40
0.0
  9
$DIMTXT
 40
0.25
  9
$DIMCEN
 40
2.5
  9
$DIMTSZ
 40
0.0
  9
$DIMTOL
 70
0
  9
$DIMLIM
 70
0
  9
$DIMTIH
 70
0
  9
$DIMTOH
 70
0
  9
$DIMSE1
 70
0
  9
$DIMSE2
 70
0
  9
$DIMTAD
 70
1
  9
$DIMZIN
 70
12
  9
$DIMBLK
  1
ARCHTICK
  9
$DIMASO
 70
1
  9
$DIMSHO
 70
1
  9
$DIMPOST
  1

  9
$DIMAPOST
  1

  9
$DIMALT
 70
0
  9
$DIMALTD
 70
3
  9
$DIMALTF
 40
0.03937007874
  9
$DIMLFAC
 40
100.0
  9
$DIMTOFL
 70
1
  9
$DIMTVP
 40
0.0
  9
$DIMTIX
 70
0
  9
$DIMSOXD
 70
0
  9
$DIMSAH
 70
0
  9
$DIMBLK1
  1

  9
$DIMBLK2
  1

  9
$DIMSTYLE
  2
EZDXF
  9
$DIMCLRD
 70
0
  9
$DIMCLRE
 70
0
  9
$DIMCLRT
 70
0
  9
$DIMTFAC
 40
0.5
  9
$DIMGAP
 40
0.1
  9
$DIMJUST
 70
0
  9
$DIMSD1
 70
0
  9
$DIMSD2
 70
0
  9
$DIMTOLJ
 70
0
  9
$DIMTZIN
 70
8
  9
$DIMALTZ
 70
0
  9
$DIMALTTZ
 70
0
  9
$DIMUPT
 70
1
  9
$DIMDEC
 70
2
  9
$DIMTDEC
 70
2
  9
$DIMALTU
 70
2
  9
$DIMALTTD
 70
3
  9
$DIMTXSTY
  7
OpenSansCondensed-Light
  9
$DIMAUNIT
 70
0
  9
$DIMADEC
 70
2
  9
$DIMALTRND
 40
0.0
  9
$DIMAZIN
 70
3
  9
$DIMDSEP
 70
46
  9
$DIMATFIT
 70
3
  9
$DIMFRAC
 70
0
  9
$DIMLDRBLK
  1

  9
$DIMLUNIT
 70
2
  9
$DIMLWD
 70
-2
  9
$DIMLWE
 70
-2
  9
$DIMTMOVE
 70
2
  9
$DIMFXL
 40
1.0
  9
$DIMFXLON
 70
0
  9
$DIMJOGANG
 40
0.785398163397
  9
$DIMTFILL
 70
0
  9
$DIMTFILLCLR
 70
0
  9
$DIMARCSYM
 70
0
  9
$DIMLTYPE
  6

  9
$DIMLTEX1
  6

  9
$DIMLTEX2
  6

  9
$DIMTXTDIRECTION
 70
0
  9
$LUNITS
 70
2
  9
$LUPREC
 70
4
  9
$SKETCHINC
 40
1.0
  9
$FILLETRAD
 40
10.0
  9
$AUNITS
 70
0
  9
$AUPREC
 70
2
  9
$MENU
  1
.
  9
$ELEVATION
 40
0.0
  9
$PELEVATION
 40
0.0
  9
$THICKNESS
 40
0.0
  9
$LIMCHECK
 70
0
  9
$CHAMFERA
 40
0.0
  9
$CHAMFERB
 40
0.0
  9
$CHAMFERC
 40
0.0
  9
$CHAMFERD
 40
0.0
  9
$SKPOLY
 70
0
  9
$TDCREATE
 40
2461290.146157407
  9
$TDUCREATE
 40
2458532.153996898
  9
$TDUPDATE
 40
2461290.146157407
  9
$TDUUPDATE
 40
2458532.1544311
  9
$TDINDWG
 40
0.0
  9
$TDUSRTIMER
 40
0.0
  9
$USRTIMER
 70
1
  9
$ANGBASE
 50
0.0
  9
$ANGDIR
 70
0
  9
$PDMODE
 70
0
  9
$PDSIZE
 40
0.0
  9
$PLINEWID
 40
0.0
  9
$SPLFRAME
 70
0
  9
$SPLINETYPE
 70
6
  9
$SPLINESEGS
 70
8
  9
$HANDSEED
  5
9A
  9
$SURFTAB1
 70
6
  9
$SURFTAB2
 70
6
  9
$SURFTYPE
 70
6
  9
$SURFU
 70
6
  9
$SURFV
 70
6
  9
$UCSBASE
  2

  9
$UCSNAME
  2

  9
$UCSORG
 10
0.0
 20
0.0
 30
0.0
  9
$UCSXDIR
 10
1.0
 20
0.0
 30
0.0
  9
$UCSYDIR
 10
0.0
 20
1.0
 30
0.0
  9
$UCSORTHOREF
  2

  9
$UCSORTHOVIEW
 70
0
  9
$UCSORGTOP
 10
0.0
 20
0.0
 30
0.0
  9
$UCSORGBOTTOM
 10
0.0
 20
0.0
 30
0.0
  9
$UCSORGLEFT
 10
0.0
 20
0.0
 30
0.0
  9
$UCSORGRIGHT
 10
0.0
 20
0.0
 30
0.0
  9
$UCSORGFRONT
 10
0.0
 20
0.0
 30
0.0
  9
$UCSORGBACK
 10
0.0
 20
0.0
 30
0.0
  9
$PUCSBASE
  2

  9
$PUCSNAME
  2

  9
$PUCSORG
 10
0.0
 20
0.0
 30
0.0
  9
$PUCSXDIR
 10
1.0
 20
0.0
 30
0.0
  9
$PUCSYDIR
 10
0.0
 20
1.0
 30
0.0
  9
$PUCSORTHOREF
  2

  9
$PUCSORTHOVIEW
 70
0
  9
$PUCSORGTOP
 10
0.0
 20
0.0
 30
0.0
  9
$PUCSORGBOTTOM
 10
0.0
 20
0.0
 30
0.0
  9
$PUCSORGLEFT
 10
0.0
 20
0.0
 30
0.0
  9
$PUCSORGRIGHT
 10
0.0
 20
0.0
 30
0.0
  9
$PUCSORGFRONT
 10
0.0
 20
0.0
 30
0.0
  9
$PUCSORGBACK
 10
0.0
 20
0.0
 30
0.0
  9
$USERI1
 70
0
  9
$USERI2
 70
0
  9
$USERI3
 70
0
  9
$USERI4
 70
0
  9
$USERI5
 70
0
  9
$USERR1
 40
0.0
  9
$USERR2
 40
0.0
  9
$USERR3
 40
0.0
  9
$USERR4
 40
0.0
  9
$USERR5
 40
0.0
  9
$WORLDVIEW
 70
1
  9
$SHADEDGE
 70
3
  9
$SHADEDIF
 70
70
  9
$TILEMODE
 70
1
  9
$MAXACTVP
 70
64
  9
$PINSBASE
 10
0.0
 20
0.0
 30
0.0
  9
$PLIMCHECK
 70
0
  9
$PEXTMIN
 10
1e+20
 20
1e+20
 30
1e+20
  9
$PEXTMAX
 10
-1e+20
 20
-1e+20
 30
-1e+20
  9
$PLIMMIN
 10
0.0
 20
0.0
  9
$PLIMMAX
 10
420.0
 20
297.0
  9
$UNITMODE
 70
0
  9
$VISRETAIN
 70
1
  9
$PLINEGEN
 70
0
  9
$PSLTSCALE
 70
1
  9
$TREEDEPTH
 70
3020
  9
$CMLSTYLE
  2
Standard
  9
$CMLJUST
 70
0
  9
$CMLSCALE
 40
20.0
  9
$PROXYGRAPHICS
 70
1
  9
$MEASUREMENT
 70
1
  9
$CELWEIGHT
370
-1
  9
$ENDCAPS
280
0
  9
$JOINSTYLE
280
0
  9
$LWDISPLAY
290
0
  9
$INSUNITS
 70
4
  9
$HYPERLINKBASE
  1

  9
$STYLESHEET
  1

  9
$XEDIT
290
1
  9
$CEPSNTYPE
380
0
  9
$PSTYLEMODE
290
1
  9
$FINGERPRINTGUID
  2
{4B2F6CA2-7D7F-4DFB-BF18-701AA60516D2}
  9
$VERSIONGUID
  2
{63B8DD1C-1597-4BFA-BC2E-125FD3A0C1CC}
  9
$EXTNAMES
290
1
  9
$PSVPSCALE
 40
0.0
  9
$OLESTARTUP
290
0
  9
$SORTENTS
280
127
  9
$INDEXCTL
280
0
  9
$HIDETEXT
280
1
  9
$XCLIPFRAME
280
1
  9
$HALOGAP
280
0
  9
$OBSCOLOR
 70
257
  9
$OBSLTYPE
280
0
  9
$INTERSECTIONDISPLAY
280
0
  9
$INTERSECTIONCOLOR
 70
257
  9
$DIMASSOC
280
2
  9
$PROJECTNAME
  1

  9
$CAMERADISPLAY
290
0
  9
$LENSLENGTH
 40
50.0
  9
$CAMERAHEIGHT
 40
0.0
  9
$STEPSPERSEC
 40
24.0
  9
$STEPSIZE
 40
100.0
  9
$3DDWFPREC
 40
2.0
  9
$PSOLWIDTH
 40
0.005
  9
$PSOLHEIGHT
 40
0.08
  9
$LOFTANG1
 40
1.570796326795
  9
$LOFTANG2
 40
1.570796326795
  9
$LOFTMAG1
 40
0.0
  9
$LOFTMAG2
 40
0.0
  9
$LOFTPARAM
 70
7
  9
$LOFTNORMALS
280
1
  9
$LATITUDE
 40
37.795
  9
$LONGITUDE
 40
-122.394
  9
$NORTHDIRECTION
 40
0.0
  9
$TIMEZONE
 70
-8000
  9
$LIGHTGLYPHDISPLAY
280
1
  9
$TILEMODELIGHTSYNCH
280
1
  9
$CMATERIAL
347
20
  9
$SOLIDHIST
280
0
  9
$SHOWHIST
280
1
  9
$DWFFRAME
280
2
  9
$DGNFRAME
280
2
  9
$REALWORLDSCALE
290
1
  9
$INTERFERECOLOR
 62
256
  9
$CSHADOW
280
0
  9
$SHADOWPLANELOCATION
 40
0.0
  0
ENDSEC
  0
SECTION
  2
CLASSES
  0
CLASS
  1
ACDBDICTIONARYWDFLT
  2
AcDbDictionaryWithDefault
  3
ObjectDBX Classes
 90
0
 91
0
280
0
281
0
  0
CLASS
  1
SUN
  2
AcDbSun
  3
SCENEOE
 90
1153
 91
0
280
0
281
0
  0
CLASS
  1
VISUALSTYLE
  2
AcDbVisualStyle
  3
ObjectDBX Classes
 90
4095
 91
0
280
0
281
0
  0
CLASS
  1
MATERIAL
  2
AcDbMaterial
  3
ObjectDBX Classes
 90
1153
 91
0
280
0
281
0
  0
CLASS
  1
SCALE
  2
AcDbScale
  3
ObjectDBX Classes
 90
1153
 91
0
280
0
281
0
  0
CLASS
  1
TABLESTYLE
  2
AcDbTableStyle
  3
ObjectDBX Classes
 90
4095
 91
0
280
0
281
0
  0
CLASS
  1
MLEADERSTYLE
  2
AcDbMLeaderStyle
  3
ACDB_MLEADERSTYLE_CLASS
 90
4095
 91
0
280
0
281
0
  0
CLASS
  1
DICTIONARYVAR
  2
AcDbDictionaryVar
  3
ObjectDBX Classes
 90
0
 91
0
280
0
281
0
  0
CLASS
  1
CELLSTYLEMAP
  2
AcDbCellStyleMap
  3
ObjectDBX Classes
 90
1152
 91
0
280
0
281
0
  0
CLASS
  1
MENTALRAYRENDERSETTINGS
  2
AcDbMentalRayRenderSettings
  3
SCENEOE
 90
1024
 91
0
280
0
281
0
  0
CLASS
  1
ACDBDETAILVIEWSTYLE
  2
AcDbDetailViewStyle
  3
ObjectDBX Classes
 90
1025
 91
0
280
0
281
0
  0
CLASS
  1
ACDBSECTIONVIEWSTYLE
  2
AcDbSectionViewStyle
  3
ObjectDBX Classes
 90
1025
 91
0
280
0
281
0
  0
CLASS
  1
RASTERVARIABLES
  2
AcDbRasterVariables
  3
ISM
 90
0
 91
0
280
0
281
0
  0
CLASS
  1
LAYOUT
  2
AcDbLayout
  3
ObjectDBX Classes
 90
0
 91
0
280
0
281
0
  0
CLASS
  1
ACDBPLACEHOLDER
  2
AcDbPlaceHolder
  3
ObjectDBX Classes
 90
0
 91
0
280
0
281
0
  0
ENDSEC
  0
SECTION
  2
TABLES
  0
TABLE
  2
VPORT
  5
8
330
0
100
AcDbSymbolTable
 70
1
  0
VPORT
  5
23
330
8
100
AcDbSymbolTableRecord
100
AcDbViewportTableRecord
  2
*Active
 70
0
 10
0.0
 20
0.0
 11
1.0
 21
1.0
 12
0.0
 22
0.0
 13
0.0
 23
0.0
 14
0.5
 24
0.5
 15
0.5
 25
0.5
 16
0.0
 26
0.0
 36
1.0
 17
0.0
 27
0.0
 37
0.0
 40
1000.0
 41
1.34
 42
50.0
 43
0.0
 44
0.0
 50
0.0
 51
0.0
 71
0
 72
1000
 73
1
 74
3
 75
0
 76
0
 77
0
 78
0
281
0
 65
0
146
0.0
  0
ENDTAB
  0
TABLE
  2
LTYPE
  5
2
330
0
100
AcDbSymbolTable
 70
21
  0
LTYPE
  5
24
330
2
100
AcDbSymbolTableRecord
100
AcDbLinetypeTableRecord
  2
ByBlock
 70
0
  3

 72
65
 73
0
 40
0.0
  0
LTYPE
  5
25
330
2
100
AcDbSymbolTableRecord
100
AcDbLinetypeTableRecord
  2
ByLayer
 70
0
  3

 72
65
 73
0
 40
0.0
  0
LTYPE
  5
26
330
2
100
AcDbSymbolTableRecord
100
AcDbLinetypeTableRecord
  2
Continuous
 70
0
  3

 72
65
 73
0
 40
0.0
  0
LTYPE
  5
2F
330
2
100
AcDbSymbolTableRecord
100
AcDbLinetypeTableRecord
  2
CENTER
 70
0
  3
Center ____ _ ____ _ ____ _ ____ _ ____ _ ____
 72
65
 73
4
 40
5.08
 49
3.175
 74
0
 49
-0.635
 74
0
 49
0.635
 74
0
 49
-0.635
 74
0
  0
LTYPE
  5
30
330
2
100
AcDbSymbolTableRecord
100
AcDbLinetypeTableRecord
  2
CENTERX2
 70
0
  3
Center (2x) ________  __  ________  __  ________
 72
65
 73
4
 40
8.89
 49
6.35
 74
0
 49
-0.635
 74
0
 49
1.27
 74
0
 49
-0.635
 74
0
  0
LTYPE
  5
31
330
2
100
AcDbSymbolTableRecord
100
AcDbLinetypeTableRecord
  2
CENTER2
 70
0
  3
Center (.5x) ____ _ ____ _ ____ _ ____ _ ____
 72
65
 73
4
 40
2.54
 49
1.587
 74
0
 49
-0.318
 74
0
 49
0.318
 74
0
 49
-0.318
 74
0
  0
LTYPE
  5
32
330
2
100
AcDbSymbolTableRecord
100
AcDbLinetypeTableRecord
  2
DASHED
 70
0
  3
Dashed __ __ __ __ __ __ __ __ __ __ __ __ __ _
 72
65
 73
2
 40
1.524
 49
1.27
 74
0
 49
-0.254
 74
0
  0
LTYPE
  5
33
330
2
100
AcDbSymbolTableRecord
100
AcDbLinetypeTableRecord
  2
DASHEDX2
 70
0
  3
Dashed (2x) ____  ____  ____  ____  ____  ____
 72
65
 73
2
 40
3.048
 49
2.54
 74
0
 49
-0.508
 74
0
  0
LTYPE
  5
34
330
2
100
AcDbSymbolTableRecord
100
AcDbLinetypeTableRecord
  2
DASHED2
 70
0
  3
Dashed (.5x) _ _ _ _ _ _ _ _ _ _ _ _ _ _
 72
65
 73
2
 40
0.762
 49
0.635
 74
0
 49
-0.127
 74
0
  0
LTYPE
  5
35
330
2
100
AcDbSymbolTableRecord
100
AcDbLinetypeTableRecord
  2
PHANTOM
 70
0
  3
Phantom ______  __  __  ______  __  __  ______
 72
65
 73
6
 40
6.35
 49
3.175
 74
0
 49
-0.635
 74
0
 49
0.635
 74
0
 49
-0.635
 74
0
 49
0.635
 74
0
 49
-0.635
 74
0
  0
LTYPE
  5
36
330
2
100
AcDbSymbolTableRecord
100
AcDbLinetypeTableRecord
  2
PHANTOMX2
 70
0
  3
Phantom (2x)____________    ____    ____    ____________
 72
65
 73
6
 40
10.795
 49
6.35
 74
0
 49
-0.635
 74
0
 49
1.27
 74
0
 49
-0.635
 74
0
 49
1.27
 74
0
 49
-0.635
 74
0
  0
LTYPE
  5
37
330
2
100
AcDbSymbolTableRecord
100
AcDbLinetypeTableRecord
  2
PHANTOM2
 70
0
  3
Phantom (.5x) ___ _ _ ___ _ _ ___ _ _ ___ _ _ ___
 72
65
 73
6
 40
3.175
 49
1.587
 74
0
 49
-0.318
 74
0
 49
0.318
 74
0
 49
-0.318
 74
0
 49
0.318
 74
0
 49
-0.318
 74
0
  0
LTYPE
  5
38
330
2
100
AcDbSymbolTableRecord
100
AcDbLinetypeTableRecord
  2
DASHDOT
 70
0
  3
Dash dot __ . __ . __ . __ . __ . __ . __ . __
 72
65
 73
4
 40
3.556
 49
2.54
 74
0
 49
-0.508
 74
0
 49
0.0
 74
0
 49
-0.508
 74
0
  0
LTYPE
  5
39
330
2
100
AcDbSymbolTableRecord
100
AcDbLinetypeTableRecord
  2
DASHDOTX2
 70
0
  3
Dash dot (2x) ____  .  ____  .  ____  .  ____
 72
65
 73
4
 40
6.096
 49
5.08
 74
0
 49
-0.508
 74
0
 49
0.0
 74
0
 49
-0.508
 74
0
  0
LTYPE
  5
3A
330
2
100
AcDbSymbolTableRecord
100
AcDbLinetypeTableRecord
  2
DASHDOT2
 70
0
  3
Dash dot (.5x) _ . _ . _ . _ . _ . _ . _ . _
 72
65
 73
4
 40
1.778
 49
1.27
 74
0
 49
-0.254
 74
0
 49
0.0
 74
0
 49
-0.254
 74
0
  0
LTYPE
  5
3B
330
2
100
AcDbSymbolTableRecord
100
AcDbLinetypeTableRecord
  2
DOT
 70
0
  3
Dot .  .  .  .  .  .  .  .  .  .  .  .  .  .  .  .
 72
65
 73
2
 40
0.508
 49
0.0
 74
0
 49
-0.508
 74
0
  0
LTYPE
  5
3C
330
2
100
AcDbSymbolTableRecord
100
AcDbLinetypeTableRecord
  2
DOTX2
 70
0
  3
Dot (2x) .    .    .    .    .    .    .    . 
 72
65
 73
2
 40
1.016
 49
0.0
 74
0
 49
-1.016
 74
0
  0
LTYPE
  5
3D
330
2
100
AcDbSymbolTableRecord
100
AcDbLinetypeTableRecord
  2
DOT2
 70
0
  3
Dot (.5) . . . . . . . . . . . . . . . . . . . 
 72
65
 73
2
 40
0.254
 49
0.0
 74
0
 49
-0.254
 74
0
  0
LTYPE
  5
3E
330
2
100
AcDbSymbolTableRecord
100
AcDbLinetypeTableRecord
  2
DIVIDE
 70
0
  3
Divide __ . . __ . . __ . . __ . . __ . . __
 72
65
 73
6
 40
4.064
 49
2.54
 74
0
 49
-0.508
 74
0
 49
0.0
 74
0
 49
-0.508
 74
0
 49
0.0
 74
0
 49
-0.508
 74
0
  0
LTYPE
  5
3F
330
2
100
AcDbSymbolTableRecord
100
AcDbLinetypeTableRecord
  2
DIVIDEX2
 70
0
  3
Divide (2x) ____  . .  ____  . .  ____  . .  ____
 72
65
 73
6
 40
6.604
 49
5.08
 74
0
 49
-0.508
 74
0
 49
0.0
 74
0
 49
-0.508
 74
0
 49
0.0
 74
0
 49
-0.508
 74
0
  0
LTYPE
  5
40
330
2
100
AcDbSymbolTableRecord
100
AcDbLinetypeTableRecord
  2
DIVIDE2
 70
0
  3
Divide(.5x) _ . _ . _ . _ . _ . _ . _ . _
 72
65
 73
6
 40
2.032
 49
1.27
 74
0
 49
-0.254
 74
0
 49
0.0
 74
0
 49
-0.254
 74
0
 49
0.0
 74
0
 49
-0.254
 74
0
  0
ENDTAB
  0
TABLE
  2
LAYER
  5
1
330
0
100
AcDbSymbolTable
 70
5
  0
LAYER
  5
27
330
1
100
AcDbSymbolTableRecord
100
AcDbLayerTableRecord
  2
0
 70
0
 62
7
  6
Continuous
370
-3
390
13
347
21
  0
LAYER
  5
28
330
1
100
AcDbSymbolTableRecord
100
AcDbLayerTableRecord
  2
Defpoints
 70
0
 62
7
  6
Continuous
290
0
370
-3
390
13
347
21
  0
LAYER
  5
8A
330
1
100
AcDbSymbolTableRecord
100
AcDbLayerTableRecord
  2
CORTE
 70
0
 62
1
  6
Continuous
370
-3
390
13
347
21
  0
LAYER
  5
8B
330
1
100
AcDbSymbolTableRecord
100
AcDbLayerTableRecord
  2
GRABADO
 70
0
 62
5
  6
Continuous
370
-3
390
13
347
21
  0
LAYER
  5
8C
330
1
100
AcDbSymbolTableRecord
100
AcDbLayerTableRecord
  2
HOJA
 70
0
 62
8
  6
Continuous
370
-3
390
13
347
21
  0
ENDTAB
  0
TABLE
  2
STYLE
  5
5
330
0
100
AcDbSymbolTable
 70
26
  0
STYLE
  5
29
330
5
100
AcDbSymbolTableRecord
100
AcDbTextStyleTableRecord
  2
Standard
 70
0
 40
0.0
 41
1.0
 50
0.0
 71
0
 42
2.5
  3
txt
  4

  0
STYLE
  5
41
330
5
100
AcDbSymbolTableRecord
100
AcDbTextStyleTableRecord
  2
OpenSans-Light
 70
0
 40
0.0
 41
1.0
 50
0.0
 71
0
 42
2.5
  3
OpenSans-Light.ttf
  4

  0
STYLE
  5
42
330
5
100
AcDbSymbolTableRecord
100
AcDbTextStyleTableRecord
  2
OpenSans-Light-Italic
 70
0
 40
0.0
 41
1.0
 50
0.0
 71
0
 42
2.5
  3
OpenSans-LightItalic.ttf
  4

  0
STYLE
  5
43
330
5
100
AcDbSymbolTableRecord
100
AcDbTextStyleTableRecord
  2
OpenSans
 70
0
 40
0.0
 41
1.0
 50
0.0
 71
0
 42
2.5
  3
OpenSans-Regular.ttf
  4

  0
STYLE
  5
44
330
5
100
AcDbSymbolTableRecord
100
AcDbTextStyleTableRecord
  2
OpenSans-Italic
 70
0
 40
0.0
 41
1.0
 50
0.0
 71
0
 42
2.5
  3
OpenSans-Italic.ttf
  4

  0
STYLE
  5
45
330
5
100
AcDbSymbolTableRecord
100
AcDbTextStyleTableRecord
  2
OpenSans-SemiBold
 70
0
 40
0.0
 41
1.0
 50
0.0
 71
0
 42
2.5
  3
OpenSans-SemiBold.ttf
  4

  0
STYLE
  5
46
330
5
100
AcDbSymbolTableRecord
100
AcDbTextStyleTableRecord
  2
OpenSans-SemiBoldItalic
 70
0
 40
0.0
 41
1.0
 50
0.0
 71
0
 42
2.5
  3
OpenSans-SemiBoldItalic.ttf
  4

  0
STYLE
  5
47
330
5
100
AcDbSymbolTableRecord
100
AcDbTextStyleTableRecord
  2
OpenSans-Bold
 70
0
 40
0.0
 41
1.0
 50
0.0
 71
0
 42
2.5
  3
OpenSans-Bold.ttf
  4

  0
STYLE
  5
48
330
5
100
AcDbSymbolTableRecord
100
AcDbTextStyleTableRecord
  2
OpenSans-BoldItalic
 70
0
 40
0.0
 41
1.0
 50
0.0
 71
0
 42
2.5
  3
OpenSans-BoldItalic.ttf
  4

  0
STYLE
  5
49
330
5
100
AcDbSymbolTableRecord
100
AcDbTextStyleTableRecord
  2
OpenSans-ExtraBold
 70
0
 40
0.0
 41
1.0
 50
0.0
 71
0
 42
2.5
  3
OpenSans-ExtraBold.ttf
  4

  0
STYLE
  5
4A
330
5
100
AcDbSymbolTableRecord
100
AcDbTextStyleTableRecord
  2
OpenSans-ExtraBoldItalic
 70
0
 40
0.0
 41
1.0
 50
0.0
 71
0
 42
2.5
  3
OpenSans-ExtraBoldItalic.ttf
  4

  0
STYLE
  5
4B
330
5
100
AcDbSymbolTableRecord
100
AcDbTextStyleTableRecord
  2
OpenSansCondensed-Bold
 70
0
 40
0.0
 41
1.0
 50
0.0
 71
0
 42
2.5
  3
OpenSansCondensed-Bold.ttf
  4

  0
STYLE
  5
4C
330
5
100
AcDbSymbolTableRecord
100
AcDbTextStyleTableRecord
  2
OpenSansCondensed-Light
 70
0
 40
0.0
 41
1.0
 50
0.0
 71
0
 42
2.5
  3
OpenSansCondensed-Light.ttf
  4

  0
STYLE
  5
4D
330
5
100
AcDbSymbolTableRecord
100
AcDbTextStyleTableRecord
  2
OpenSansCondensed-Italic
 70
0
 40
0.0
 41
1.0
 50
0.0
 71
0
 42
2.5
  3
OpenSansCondensed-LightItalic.ttf
  4

  0
STYLE
  5
4E
330
5
100
AcDbSymbolTableRecord
100
AcDbTextStyleTableRecord
  2
LiberationSans
 70
0
 40
0.0
 41
1.0
 50
0.0
 71
0
 42
2.5
  3
LiberationSans-Regular.ttf
  4

  0
STYLE
  5
4F
330
5
100
AcDbSymbolTableRecord
100
AcDbTextStyleTableRecord
  2
LiberationSans-Bold
 70
0
 40
0.0
 41
1.0
 50
0.0
 71
0
 42
2.5
  3
LiberationSans-Bold.ttf
  4

  0
STYLE
  5
50
330
5
100
AcDbSymbolTableRecord
100
AcDbTextStyleTableRecord
  2
LiberationSans-BoldItalic
 70
0
 40
0.0
 41
1.0
 50
0.0
 71
0
 42
2.5
  3
LiberationSans-BoldItalic.ttf
  4

  0
STYLE
  5
51
330
5
100
AcDbSymbolTableRecord
100
AcDbTextStyleTableRecord
  2
LiberationSans-Italic
 70
0
 40
0.0
 41
1.0
 50
0.0
 71
0
 42
2.5
  3
LiberationSans-Italic.ttf
  4

  0
STYLE
  5
52
330
5
100
AcDbSymbolTableRecord
100
AcDbTextStyleTableRecord
  2
LiberationSerif
 70
0
 40
0.0
 41
1.0
 50
0.0
 71
0
 42
2.5
  3
LiberationSerif-Regular.ttf
  4

  0
STYLE
  5
53
330
5
100
AcDbSymbolTableRecord
100
AcDbTextStyleTableRecord
  2
LiberationSerif-Bold
 70
0
 40
0.0
 41
1.0
 50
0.0
 71
0
 42
2.5
  3
LiberationSerif-Bold.ttf
  4

  0
STYLE
  5
54
330
5
100
AcDbSymbolTableRecord
100
AcDbTextStyleTableRecord
  2
LiberationSerif-BoldItalic
 70
0
 40
0.0
 41
1.0
 50
0.0
 71
0
 42
2.5
  3
LiberationSerif-BoldItalic.ttf
  4

  0
STYLE
  5
55
330
5
100
AcDbSymbolTableRecord
100
AcDbTextStyleTableRecord
  2
LiberationSerif-Italic
 70
0
 40
0.0
 41
1.0
 50
0.0
 71
0
 42
2.5
  3
LiberationSerif-Italic.ttf
  4

  0
STYLE
  5
56
330
5
100
AcDbSymbolTableRecord
100
AcDbTextStyleTableRecord
  2
LiberationMono
 70
0
 40
0.0
 41
1.0
 50
0.0
 71
0
 42
2.5
  3
LiberationMono-Regular.ttf
  4

  0
STYLE
  5
57
330
5
100
AcDbSymbolTableRecord
100
AcDbTextStyleTableRecord
  2
LiberationMono-Bold
 70
0
 40
0.0
 41
1.0
 50
0.0
 71
0
 42
2.5
  3
LiberationMono-Bold.ttf
  4

  0
STYLE
  5
58
330
5
100
AcDbSymbolTableRecord
100
AcDbTextStyleTableRecord
  2
LiberationMono-BoldItalic
 70
0
 40
0.0
 41
1.0
 50
0.0
 71
0
 42
2.5
  3
LiberationMono-BoldItalic.ttf
  4

  0
STYLE
  5
59
330
5
100
AcDbSymbolTableRecord
100
AcDbTextStyleTableRecord
  2
LiberationMono-Italic
 70
0
 40
0.0
 41
1.0
 50
0.0
 71
0
 42
2.5
  3
LiberationMono-Italic.ttf
  4

  0
ENDTAB
  0
TABLE
  2
VIEW
  5
7
330
0
100
AcDbSymbolTable
 70
0
  0
ENDTAB
  0
TABLE
  2
UCS
  5
6
330
0
100
AcDbSymbolTable
 70
0
  0
ENDTAB
  0
TABLE
  2
APPID
  5
3
330
0
100
AcDbSymbolTable
 70
3
  0
APPID
  5
2A
330
3
100
AcDbSymbolTableRecord
100
AcDbRegAppTableRecord
  2
ACAD
 70
0
  0
APPID
  5
97
330
3
100
AcDbSymbolTableRecord
100
AcDbRegAppTableRecord
  2
HATCHBACKGROUNDCOLOR
 70
0
  0
APPID
  5
98
330
3
100
AcDbSymbolTableRecord
100
AcDbRegAppTableRecord
  2
EZDXF
 70
0
  0
ENDTAB
  0
TABLE
  2
DIMSTYLE
  5
4
330
0
100
AcDbSymbolTable
 70
12
100
AcDbDimStyleTable
  0
DIMSTYLE
105
2B
330
4
100
AcDbSymbolTableRecord
100
AcDbDimStyleTableRecord
  2
Standard
 70
0
 40
1.0
 41
2.5
 42
0.625
 43
3.75
 44
1.25
 45
0.0
 46
0.0
 47
0.0
 48
0.0
 49
2.5
140
2.5
141
2.5
142
0.0
143
0.03937007874
144
1.0
145
0.0
146
1.0
147
0.625
148
0.0
 69
0
 70
0
 71
0
 72
0
 73
0
 74
0
 75
0
 76
0
 77
1
 78
8
 79
3
170
0
171
3
172
1
173
0
174
0
175
0
176
0
177
0
178
0
179
2
271
2
272
2
273
2
274
3
275
0
276
0
277
2
278
44
279
0
280
0
281
0
282
0
283
0
284
8
285
0
286
0
288
0
289
3
290
0
371
-2
372
-2
  0
DIMSTYLE
105
73
330
4
100
AcDbSymbolTableRecord
100
AcDbDimStyleTableRecord
  2
EZDXF
 70
0
 40
1.0
 41
0.175
 42
0.125
 43
3.75
 44
0.375
 45
0.0
 46
0.0
 47
0.0
 48
0.0
 49
2.5
140
0.25
141
2.5
142
0.0
143
0.03937007874
144
100.0
145
0.0
146
0.5
147
0.1
148
0.0
 69
0
 70
0
 71
0
 72
0
 73
0
 74
0
 75
0
 76
0
 77
1
 78
12
 79
3
170
0
171
3
172
1
173
0
174
0
175
0
176
0
177
0
178
0
179
2
271
2
272
2
273
2
274
3
275
0
276
0
277
2
278
46
279
2
280
0
281
0
282
0
283
0
284
8
285
0
286
0
288
1
289
3
290
0
340
4C
342
74
371
-2
372
-2
  0
DIMSTYLE
105
7C
330
4
100
AcDbSymbolTableRecord
100
AcDbDimStyleTableRecord
  2
EZ_M_100_H25_CM
 70
0
 40
1.0
 41
0.25
 42
0.125
 43
3.75
 44
0.375
 45
0.0
 46
0.0
 47
0.0
 48
0.0
 49
2.5
140
0.25
141
2.5
142
0.125
143
0.03937007874
144
100.0
145
0.0
146
0.5
147
0.1
148
0.0
 69
0
 70
0
 71
0
 72
0
 73
0
 74
0
 75
0
 76
0
 77
1
 78
12
 79
3
170
0
171
3
172
1
173
0
174
0
175
0
176
0
177
0
178
0
179
2
271
2
272
2
273
2
274
3
275
0
276
0
277
2
278
46
279
2
280
0
281
0
282
0
283
0
284
8
285
0
286
0
288
1
289
3
290
0
340
4C
371
-2
372
-2
  0
DIMSTYLE
105
7D
330
4
100
AcDbSymbolTableRecord
100
AcDbDimStyleTableRecord
  2
EZ_M_50_H25_CM
 70
0
 40
1.0
 41
0.125
 42
0.0625
 43
3.75
 44
0.1875
 45
0.0
 46
0.0
 47
0.0
 48
0.0
 49
2.5
140
0.125
141
2.5
142
0.0625
143
0.03937007874
144
100.0
145
0.0
146
0.5
147
0.05
148
0.0
 69
0
 70
0
 71
0
 72
0
 73
0
 74
0
 75
0
 76
0
 77
1
 78
12
 79
3
170
0
171
3
172
1
173
0
174
0
175
0
176
0
177
0
178
0
179
2
271
2
272
2
273
2
274
3
275
0
276
0
277
2
278
46
279
2
280
0
281
0
282
0
283
0
284
8
285
0
286
0
288
1
289
3
290
0
340
4C
371
-2
372
-2
  0
DIMSTYLE
105
7E
330
4
100
AcDbSymbolTableRecord
100
AcDbDimStyleTableRecord
  2
EZ_M_25_H25_CM
 70
0
 40
1.0
 41
0.0625
 42
0.03125
 43
3.75
 44
0.09375
 45
0.0
 46
0.0
 47
0.0
 48
0.0
 49
2.5
140
0.0625
141
2.5
142
0.03125
143
0.03937007874
144
100.0
145
0.0
146
0.5
147
0.025
148
0.0
 69
0
 70
0
 71
0
 72
0
 73
0
 74
0
 75
0
 76
0
 77
1
 78
12
 79
3
170
0
171
3
172
1
173
0
174
0
175
0
176
0
177
0
178
0
179
2
271
2
272
2
273
2
274
3
275
0
276
0
277
2
278
46
279
2
280
0
281
0
282
0
283
0
284
8
285
0
286
0
288
1
289
3
290
0
340
4C
371
-2
372
-2
  0
DIMSTYLE
105
7F
330
4
100
AcDbSymbolTableRecord
100
AcDbDimStyleTableRecord
  2
EZ_M_20_H25_CM
 70
0
 40
1.0
 41
0.05
 42
0.025
 43
3.75
 44
0.07500000000000001
 45
0.0
 46
0.0
 47
0.0
 48
0.0
 49
2.5
140
0.05
141
2.5
142
0.025
143
0.03937007874
144
100.0
145
0.0
146
0.5
147
0.020000000000000004
148
0.0
 69
0
 70
0
 71
0
 72
0
 73
0
 74
0
 75
0
 76
0
 77
1
 78
12
 79
3
170
0
171
3
172
1
173
0
174
0
175
0
176
0
177
0
178
0
179
2
271
2
272
2
273
2
274
3
275
0
276
0
277
2
278
46
279
2
280
0
281
0
282
0
283
0
284
8
285
0
286
0
288
1
289
3
290
0
340
4C
371
-2
372
-2
  0
DIMSTYLE
105
80
330
4
100
AcDbSymbolTableRecord
100
AcDbDimStyleTableRecord
  2
EZ_M_10_H25_CM
 70
0
 40
1.0
 41
0.025
 42
0.0125
 43
3.75
 44
0.037500000000000006
 45
0.0
 46
0.0
 47
0.0
 48
0.0
 49
2.5
140
0.025
141
2.5
142
0.0125
143
0.03937007874
144
100.0
145
0.0
146
0.5
147
0.010000000000000002
148
0.0
 69
0
 70
0
 71
0
 72
0
 73
0
 74
0
 75
0
 76
0
 77
1
 78
12
 79
3
170
0
171
3
172
1
173
0
174
0
175
0
176
0
177
0
178
0
179
2
271
2
272
2
273
2
274
3
275
0
276
0
277
2
278
46
279
2
280
0
281
0
282
0
283
0
284
8
285
0
286
0
288
1
289
3
290
0
340
4C
371
-2
372
-2
  0
DIMSTYLE
105
81
330
4
100
AcDbSymbolTableRecord
100
AcDbDimStyleTableRecord
  2
EZ_M_5_H25_CM
 70
0
 40
1.0
 41
0.0125
 42
0.00625
 43
3.75
 44
0.018750000000000003
 45
0.0
 46
0.0
 47
0.0
 48
0.0
 49
2.5
140
0.0125
141
2.5
142
0.00625
143
0.03937007874
144
100.0
145
0.0
146
0.5
147
0.005000000000000001
148
0.0
 69
0
 70
0
 71
0
 72
0
 73
0
 74
0
 75
0
 76
0
 77
1
 78
12
 79
3
170
0
171
3
172
1
173
0
174
0
175
0
176
0
177
0
178
0
179
2
271
2
272
2
273
2
274
3
275
0
276
0
277
2
278
46
279
2
280
0
281
0
282
0
283
0
284
8
285
0
286
0
288
1
289
3
290
0
340
4C
371
-2
372
-2
  0
DIMSTYLE
105
82
330
4
100
AcDbSymbolTableRecord
100
AcDbDimStyleTableRecord
  2
EZ_M_1_H25_CM
 70
0
 40
1.0
 41
0.0025
 42
0.00125
 43
3.75
 44
0.00375
 45
0.0
 46
0.0
 47
0.0
 48
0.0
 49
2.5
140
0.0025
141
2.5
142
0.00125
143
0.03937007874
144
100.0
145
0.0
146
0.5
147
0.001
148
0.0
 69
0
 70
0
 71
0
 72
0
 73
0
 74
0
 75
0
 76
0
 77
1
 78
12
 79
3
170
0
171
3
172
1
173
0
174
0
175
0
176
0
177
0
178
0
179
2
271
2
272
2
273
2
274
3
275
0
276
0
277
2
278
46
279
2
280
0
281
0
282
0
283
0
284
8
285
0
286
0
288
1
289
3
290
0
340
4C
371
-2
372
-2
  0
DIMSTYLE
105
83
330
4
100
AcDbSymbolTableRecord
100
AcDbDimStyleTableRecord
  2
EZ_RADIUS
 70
0
 40
1.0
 41
0.25
 42
0.125
 43
3.75
 44
0.375
 45
0.0
 46
0.0
 47
0.0
 48
0.0
 49
2.5
140
0.25
141
0.0
142
0.0
143
0.03937007874
144
100.0
145
0.0
146
0.5
147
0.1
148
0.0
 69
0
 70
0
 71
0
 72
0
 73
0
 74
0
 75
0
 76
0
 77
1
 78
12
 79
3
170
0
171
3
172
0
173
0
174
0
175
0
176
0
177
0
178
0
179
2
271
2
272
2
273
2
274
3
275
0
276
0
277
2
278
46
279
1
280
0
281
0
282
0
283
0
284
8
285
0
286
0
288
1
289
3
290
0
340
4C
342
84
371
-2
372
-2
  0
DIMSTYLE
105
88
330
4
100
AcDbSymbolTableRecord
100
AcDbDimStyleTableRecord
  2
EZ_RADIUS_INSIDE
 70
0
 40
1.0
 41
0.25
 42
0.125
 43
3.75
 44
0.375
 45
0.0
 46
0.0
 47
0.0
 48
0.0
 49
2.5
140
0.25
141
0.0
142
0.0
143
0.03937007874
144
100.0
145
0.0
146
0.5
147
0.1
148
0.0
 69
0
 70
0
 71
0
 72
0
 73
0
 74
0
 75
0
 76
0
 77
0
 78
12
 79
3
170
0
171
3
172
0
173
0
174
1
175
0
176
0
177
0
178
0
179
2
271
2
272
2
273
2
274
3
275
0
276
0
277
2
278
46
279
0
280
0
281
0
282
0
283
0
284
8
285
0
286
0
288
1
289
0
290
0
340
4C
342
84
371
-2
372
-2
  0
DIMSTYLE
105
89
330
4
100
AcDbSymbolTableRecord
100
AcDbDimStyleTableRecord
  2
EZ_CURVED
 70
0
 40
1.0
 41
0.25
 42
0.125
 43
3.75
 44
0.375
 45
0.0
 46
0.0
 47
0.0
 48
0.0
 49
2.5
140
0.25
141
2.5
142
0.0
143
0.03937007874
144
100.0
145
0.0
146
0.5
147
0.1
148
0.0
 69
0
 70
0
 71
0
 72
0
 73
0
 74
0
 75
0
 76
0
 77
1
 78
12
 79
2
 90
2
170
0
171
3
172
1
173
0
174
0
175
0
176
0
177
0
178
0
179
2
271
2
272
2
273
2
274
3
275
0
276
0
277
2
278
46
279
2
280
0
281
0
282
0
283
0
284
8
285
0
286
0
288
1
289
3
290
0
340
4C
371
-2
372
-2
  0
ENDTAB
  0
TABLE
  2
BLOCK_RECORD
  5
9
330
0
100
AcDbSymbolTable
 70
5
  0
BLOCK_RECORD
  5
17
330
9
100
AcDbSymbolTableRecord
100
AcDbBlockTableRecord
  2
*Model_Space
340
1A
 70
0
280
1
281
0
  0
BLOCK_RECORD
  5
1B
330
9
100
AcDbSymbolTableRecord
100
AcDbBlockTableRecord
  2
*Paper_Space
340
1E
 70
0
280
1
281
0
  0
BLOCK_RECORD
  5
74
330
9
100
AcDbSymbolTableRecord
100
AcDbBlockTableRecord
  2
_ARCHTICK
340
0
 70
0
280
1
281
0
  0
BLOCK_RECORD
  5
78
330
9
100
AcDbSymbolTableRecord
100
AcDbBlockTableRecord
  2
_CLOSEDFILLED
340
0
 70
0
280
1
281
0
  0
BLOCK_RECORD
  5
84
330
9
100
AcDbSymbolTableRecord
100
AcDbBlockTableRecord
  2
_CLOSEDBLANK
340
0
 70
0
280
1
281
0
  0
ENDTAB
  0
ENDSEC
  0
SECTION
  2
BLOCKS
  0
BLOCK
  5
18
330
17
100
AcDbEntity
  8
0
100
AcDbBlockBegin
  2
*Model_Space
 70
0
 10
0.0
 20
0.0
 30
0.0
  3
*Model_Space
  1

  0
ENDBLK
  5
19
330
17
100
AcDbEntity
  8
0
100
AcDbBlockEnd
  0
BLOCK
  5
1C
330
1B
100
AcDbEntity
  8
0
100
AcDbBlockBegin
  2
*Paper_Space
 70
0
 10
0.0
 20
0.0
 30
0.0
  3
*Paper_Space
  1

  0
ENDBLK
  5
1D
330
1B
100
AcDbEntity
  8
0
100
AcDbBlockEnd
  0
BLOCK
  5
75
330
74
100
AcDbEntity
  8
0
100
AcDbBlockBegin
  2
_ARCHTICK
 70
0
 10
0.0
 20
0.0
 30
0.0
  3
_ARCHTICK
  1

  0
LWPOLYLINE
  5
77
330
74
100
AcDbEntity
  8
0
  6
BYBLOCK
 62
0
100
AcDbPolyline
 90
2
 70
0
 43
0.15
 10
-0.5
 20
-0.5
 10
0.5
 20
0.5
  0
ENDBLK
  5
76
330
74
100
AcDbEntity
  8
0
100
AcDbBlockEnd
  0
BLOCK
  5
79
330
78
100
AcDbEntity
  8
0
100
AcDbBlockBegin
  2
_CLOSEDFILLED
 70
0
 10
0.0
 20
0.0
 30
0.0
  3
_CLOSEDFILLED
  1

  0
SOLID
  5
7B
330
78
100
AcDbEntity
  8
0
  6
BYBLOCK
 62
0
100
AcDbTrace
 10
-1.0
 20
0.16439898372402537
 30
0.0
 11
0.0
 21
0.0
 31
0.0
 12
-1.0
 22
-0.16439898372402537
 32
0.0
 13
-1.0
 23
-0.16439898372402537
 33
0.0
  0
ENDBLK
  5
7A
330
78
100
AcDbEntity
  8
0
100
AcDbBlockEnd
  0
BLOCK
  5
85
330
84
100
AcDbEntity
  8
0
100
AcDbBlockBegin
  2
_CLOSEDBLANK
 70
0
 10
0.0
 20
0.0
 30
0.0
  3
_CLOSEDBLANK
  1

  0
LWPOLYLINE
  5
87
330
84
100
AcDbEntity
  8
0
  6
BYBLOCK
 62
0
100
AcDbPolyline
 90
3
 70
1
 10
-1.0
 20
0.16439898372402537
 10
0.0
 20
0.0
 10
-1.0
 20
-0.16439898372402537
  0
ENDBLK
  5
86
330
84
100
AcDbEntity
  8
0
100
AcDbBlockEnd
  0
ENDSEC
  0
SECTION
  2
ENTITIES
  0
LWPOLYLINE
  5
8D
330
17
100
AcDbEntity
  8
HOJA
100
AcDbPolyline
 90
4
 70
1
 10
0.0
 20
0.0
 10
500.0
 20
0.0
 10
500.0
 20
700.0
 10
0.0
 20
700.0
  0
LWPOLYLINE
  5
8E
330
17
100
AcDbEntity
  8
CORTE
100
AcDbPolyline
 90
573
 70
1
 10
13.0
 20
13.0
 10
13.0
 20
193.14999999999998
 10
45.23425044513526
 20
193.14999999999998
 10
44.640469624452855
 20
192.26525297279153
 10
43.78331067576653
 20
191.01103462255492
 10
43.390063027595886
 20
190.4012035092161
 10
42.47342044213724
 20
188.99014019355064
 10
41.374251604473635
 20
187.18276102989293
 10
41.24255414087317
 20
186.96925589139877
 10
41.06465087161098
 20
186.6585482126472
 10
40.057427696015765
 20
184.94812538727953
 10
39.359190099919246
 20
183.6670399225315
 10
38.94796440161095
 20
182.9273707916864
 10
38.51778620763662
 20
182.0834549154404
 10
37.896186323288006
 20
180.90634976651978
 10
37.34405875682707
 20
179.76250801254022
 10
36.909808882119975
 20
178.8857124866741
 10
36.555641691011175
 20
178.0950193313483
 10
35.97984965647133
 20
176.8647370050518
 10
35.3288071862213
 20
175.32159329712815
 10
35.12088101971081
 20
174.84421343974952
 10
34.988559993195665
 20
174.50304503010804
 10
34.300901874292485
 20
172.8232632987709
 10
33.711661923793784
 20
171.20100874405676
 10
33.5584556155443
 20
170.8022878931341
 10
33.31394341228111
 20
170.08233859324716
 10
32.85528182329179
 20
168.78183726360876
 10
32.651161252804705
 20
168.1173570569072
 10
32.2049205109726
 20
166.7608562169963
 10
31.76041972486773
 20
165.20266024210514
 10
31.618712354128345
 20
164.73982809157533
 10
31.29866426345337
 20
163.52859722204843
 10
31.0751001296494
 20
162.71937630338624
 10
31.00658945686664
 20
162.42674991839672
 10
30.56572123632134
 20
160.69828893481554
 10
30.36437165427333
 20
159.76130685477517
 10
30.10999366091413
 20
158.67718299655786
 10
29.81840370045514
 20
157.19238708131283
 10
29.703142588398027
 20
156.65603110045214
 10
29.355073324968263
 20
154.70633058960095
 10
29.341080312124248
 20
154.63485156934397
 10
29.28344752593097
 20
154.2773866089551
 10
29.000691205197747
 20
152.6142126155181
 10
28.955962961458784
 20
152.28620591312668
 10
28.697965981280333
 20
150.59294567740912
 10
28.61734877659415
 20
149.9251977485434
 10
28.43436795347575
 20
148.57165444118948
 10
28.333899434580808
 20
147.61950911756875
 10
28.207312688510065
 20
146.55034215784306
 10
28.099671434278974
 20
145.36319008127367
 10
28.014632489370946
 20
144.52902712078435
 10
27.909745329351487
 20
143.1512979053741
 10
27.854545191462833
 20
142.50768183187003
 10
27.760047031649734
 20
140.97975064027244
 10
27.72560035212594
 20
140.48633171934503
 10
27.647194781055383
 20
138.8451558155591
 10
27.626653958244212
 20
138.464964325637
 10
27.56838906570983
 20
136.74471603817196
 10
27.556833623626567
 20
136.44359737248143
 10
27.521334958457626
 20
134.67612274354045
 10
27.515546744778064
 20
134.42221810383407
 10
27.504146277962242
 20
132.63752920078684
 10
27.502429362858813
 20
132.40084445241175
 10
27.515325028543984
 20
130.62732757533644
 10
27.51738087261689
 20
130.37946306269262
 10
27.553680138664568
 20
128.64443416430638
 10
27.560524475078594
 20
128.3580923017168
 10
27.618328751610413
 20
126.6879291040174
 10
27.63223883257306
 20
126.33672642959046
 10
27.708642844647617
 20
124.7571785117027
 10
27.733145774688225
 20
124.31536063196711
 10
27.824247187841124
 20
122.85181934028348
 10
27.864132853291462
 20
122.29401255444664
 10
27.96499868207783
 20
120.97170387005292
 10
28.02637211943469
 20
120.27266977705315
 10
28.130982983401857
 20
119.11692700180436
 10
28.22133731047724
 20
118.25135013619627
 10
28.32250715736034
 20
117.2877975144041
 10
28.450850450519056
 20
116.23004143832014
 10
28.54010579431231
 20
115.48485600912628
 10
28.71710066415217
 20
114.2087618541365
 10
28.784540246836883
 20
113.70887363446549
 10
29.022725403428915
 20
112.18749950579573
 10
29.056822742009086
 20
111.9608641025643
 10
29.283430433877655
 20
110.66580748531052
 10
29.352065180745157
 20
110.23513943895934
 10
29.36449397305973
 20
110.1668694437085
 10
29.65479091803206
 20
108.51776904095901
 10
29.729763488352564
 20
108.14570323090993
 10
29.984423424248327
 20
106.82743130136353
 10
30.140173710850412
 20
106.12455723007803
 10
30.342390382224373
 20
105.16557112373512
 10
30.59986357394145
 20
104.10345048460545
 10
30.73039318005404
 20
103.53389872108313
 10
31.113686319309764
 20
102.0823705386274
 10
31.15041208556972
 20
101.9344029055177
 10
31.298625585844697
 20
101.41735178999444
 10
31.57717002623265
 20
100.34066714994083
 10
31.659172152704237
 20
100.06194474745182
 10
32.02064110915619
 20
98.76476486679081
 10
32.25052340331767
 20
98.04092433576093
 10
32.49600853820988
 20
97.2209235048868
 10
32.90670117077384
 20
96.01994406395613
 10
33.00567455894637
 20
95.71155868690744
 10
33.31388341400678
 20
94.8728212817749
 10
33.53116766858601
 20
94.21678556000818
 10
33.61246382672652
 20
93.9995206769126
 10
34.06173325647319
 20
92.7284114991592
 10
34.36179865143747
 20
91.97855377226638
 10
34.62682712567464
 20
91.27473591325393
 10
35.189615634012384
 20
89.95761986520382
 10
35.2292843083041
 20
89.85860634866465
 10
35.32871921913467
 20
89.64039392769143
 10
35.82384509102392
 20
88.43297496672014
 10
36.05237592268837
 20
87.9371012673404
 10
36.44433558124204
 20
87.03491361739995
 10
36.991758154793686
 20
85.91614167393868
 10
37.10268308408611
 20
85.67487602895167
 10
37.34394704435688
 20
85.2099704405674
 10
37.76331983946276
 20
84.31545373276094
 10
37.98319282466461
 20
83.89552586833912
 10
38.439105518987134
 20
82.97285162213072
 10
39.046423481937
 20
81.87450406421127
 10
39.153387602618565
 20
81.66889405521546
 10
39.35905129698686
 20
81.31633983195178
 10
39.86489803710076
 20
80.36045616915234
 10
40.16270893611389
 20
79.85377303338717
 10
40.59588957050207
 20
79.07316380237017
 10
41.36186360227538
 20
77.83265524014872
 10
41.366155040720315
 20
77.82527257737523
 10
41.374082408178786
 20
77.81303927519119
 10
42.116506290385864
 20
76.55578255366952
 10
42.60203643950551
 20
75.81179969823557
 10
42.9027125729415
 20
75.32374987907794
 10
43.389870257184626
 20
74.60942667280541
 10
43.70523875650572
 20
74.10673487491253
 10
43.92287918159701
 20
73.79092267248336
 10
44.50889751334503
 20
72.8920648437178
 10
45.31394504918772
 20
71.76956121113189
 10
45.350549390834985
 20
71.71546103968298
 10
45.404872289245134
 20
71.64257966661675
 10
46.17698295131133
 20
70.52249305826989
 10
46.760544804298874
 20
69.74856067443024
 10
47.03550978659506
 20
69.3626463035512
 10
47.42060165937224
 20
68.86913825825042
 10
47.901321334945564
 20
68.2093870951788
 10
48.28338465434385
 20
67.72755328906395
 10
48.778272664032116
 20
67.06783608562111
 10
49.436277144108146
 20
66.26260576010675
 10
49.67800439270633
 20
65.94884258477435
 10
49.88018430472356
 20
65.70655172201802
 10
50.574944446223284
 20
64.82714991880626
 10
51.45188380882786
 20
63.80315829883419
 10
51.50462413347219
 20
63.738470043534065
 10
51.55113879410621
 20
63.68556525967122
 10
52.42324762257522
 20
62.63832609719523
 10
53.29909155228073
 20
61.663664405363534
 10
53.37634411713857
 20
61.572631722663715
 10
53.466955106041056
 20
61.47373714855172
 10
54.322424508494706
 20
60.50063040954518
 10
55.13292484926211
 20
59.642577007256506
 10
55.29812636145685
 20
59.45738408869458
 10
55.48247056825038
 20
59.26512605037972
 10
56.27323498998135
 20
58.414850423462354
 10
57.062805845592706
 20
57.62152403674435
 10
57.274124336089784
 20
57.39662934702983
 10
57.49788191973063
 20
57.17414832238781
 10
58.27809793828483
 20
56.38344032345158
 10
59.101681657385114
 20
55.60051563000803
 10
59.30728858654125
 20
55.39336022847172
 10
59.5131621954131
 20
55.19879069377876
 10
60.34133665389287
 20
54.410776750331564
 10
61.26920941636894
 20
53.579566494797376
 10
61.40269779020488
 20
53.452709440065604
 10
61.52828218450205
 20
53.340328212238134
 10
62.46963914874807
 20
52.50360786442896
 10
63.543088473263865
 20
51.602102740888995
 10
63.56527708284548
 20
51.58387921840523
 10
63.59531256903273
 20
51.560500393325285
 10
64.67277011425503
 20
50.67178036099956
 10
65.55761362278143
 20
49.979773624643656
 10
65.80752445029361
 20
49.79189384007584
 10
66.16006406470719
 20
49.539888894364566
 10
66.96470632026515
 20
48.929376320728124
 10
67.57182239183577
 20
48.49110274219933
 10
68.14831928537586
 20
48.099173418876006
 10
69.04233225611175
 20
47.51936708824854
 10
69.36542709267701
 20
47.29651090940874
 10
69.58562990043946
 20
47.15149845888256
 10
70.6124705043168
 20
46.53068941029011
 10
71.59835316251196
 20
45.96020566458188
 10
71.89921045606465
 20
45.805448643565924
 10
72.5154377470547
 20
45.50139408971876
 10
73.2363333276739
 20
45.12300822777287
 10
73.61086576173551
 20
44.9342146858779
 10
74.62452553427522
 20
44.500372712588536
 10
75.62196766853184
 20
44.08955150015572
 10
76.07554548023086
 20
43.94141388939952
 10
77.53052390802462
 20
43.483410732430265
 10
77.6098620035422
 20
43.456826218640295
 10
77.63268151486709
 20
43.44944310005319
 10
79.24602626830958
 20
43.084276937660405
 10
79.64189218164367
 20
42.997666885413324
 10
81.01216511861684
 20
42.84224641167578
 10
81.6503872633393
 20
42.77241437659566
 10
82.95479969796916
 20
42.776950794360125
 10
83.65842761503133
 20
42.78005551951905
 10
85.15134965986957
 20
42.96555081056458
 10
85.66637023193364
 20
43.02870670827127
 10
87.49972624448068
 20
43.48496436142213
 10
87.67531698383513
 20
43.52648276325402
 10
87.7377610311698
 20
43.549218159558656
 10
89.68431289605994
 20
44.2489268107305
 10
91.18478048992812
 20
44.987769887839335
 10
91.69406969269575
 20
45.235822583215736
 10
92.1144065742344
 20
45.498500283211854
 10
93.70557387870825
 20
46.45456035994957
 10
95.14397198607561
 20
47.517688051952206
 10
95.71783553404592
 20
47.92800985374761
 10
97.60249962423654
 20
49.536870318991646
 10
97.73075164567075
 20
49.643358458929896
 10
99.70433070103093
 20
51.556124935644874
 10
99.74425324950673
 20
51.59393409058731
 10
101.56907560779366
 20
53.575510359302996
 10
101.75825958957344
 20
53.777034507679915
 10
103.26885305452092
 20
55.59506892951241
 10
103.77270749937294
 20
56.19174066507618
 10
104.84977616716748
 20
57.61484428126013
 10
105.78754192484955
 20
58.836668123793245
 10
106.34268665701846
 20
59.63486106927412
 10
107.68062660031367
 20
61.53422872305262
 10
107.76843489556009
 20
61.65792578971542
 10
107.80312949268401
 20
61.70617486723509
 10
109.10224283541888
 20
63.6782427369443
 10
109.81859720052213
 20
64.75176295534625
 10
110.40292670820378
 20
65.69884707390965
 10
111.3872955609603
 20
67.2726526657663
 10
111.67075070889574
 20
67.72196327012507
 10
111.83473942026802
 20
67.97825110106352
 10
112.88922771043828
 20
69.74291013427221
 10
113.85071528475842
 20
71.32687527169239
 10
114.10065863824937
 20
71.76415142385875
 10
114.4514013842514
 20
72.36701839410367
 10
115.28338782119211
 20
73.78731508400922
 10
115.86729870362598
 20
74.76666661997123
 10
116.4580635958582
 20
75.80888882451275
 10
117.27339645629945
 20
77.21932745847286
 10
117.62911338334713
 20
77.83202469293896
 10
117.88405761653404
 20
78.26293949022984
 10
118.78740760404737
 20
79.85388838174644
 10
119.9005921222373
 20
81.77485920373621
 10
119.95727957745319
 20
81.87601402816502
 10
120.03403764646949
 20
82.01005704831213
 10
121.11633455425819
 20
83.89907359762721
 10
121.91760394878736
 20
85.2706182508505
 10
122.28865143206082
 20
85.92141557291585
 10
122.80788451679997
 20
86.81433682093294
 10
123.4637302196228
 20
87.94434341097497
 10
123.93465101548236
 20
88.74226800357151
 10
124.64626386833052
 20
89.96684253907824
 10
125.67919661014969
 20
91.71635016390901
 10
125.8398875341601
 20
91.98959444423234
 10
125.95167230224942
 20
92.17739190057641
 10
127.03629482245505
 20
94.01218941894415
 10
127.96859245261456
 20
95.57340514413413
 10
128.24421942493368
 20
96.03491120568538
 10
128.66351205408745
 20
96.73172233965782
 10
129.45617780435018
 20
98.05734465172445
 10
129.98553643898094
 20
98.94031350532084
 10
130.67444496802167
 20
100.08007458494087
 10
131.73162043184593
 20
101.83095084514115
 10
131.89419259455258
 20
102.10222332868031
 10
132.00229119015924
 20
102.2837803041493
 10
133.1159269592253
 20
104.12489692444703
 10
134.01922736245442
 20
105.63500753877484
 10
134.3328107819584
 20
106.14761306278714
 10
134.80985037076624
 20
106.94026353885334
 10
135.543008133048
 20
108.16928641655619
 10
136.03566393134184
 20
109.01408319605872
 10
136.74309522285375
 20
110.19186458332834
 10
137.74116209402203
 20
111.90191583033733
 10
137.92101232232716
 20
112.21314806427556
 10
138.05179590789487
 20
112.44768510605819
 10
139.0856525623463
 20
114.23554905319865
 10
140.06855745150904
 20
116.00911343394465
 10
140.2124950279619
 20
116.2579278255015
 10
140.38937213790402
 20
116.57931203261992
 10
141.31375278132998
 20
118.27859157368204
 10
142.084266587086
 20
119.77952896938737
 10
142.36545072346667
 20
120.30072413428405
 10
142.65346258195865
 20
120.87110087498641
 10
143.37546627233223
 20
122.32093063041528
 10
144.09969240783002
 20
123.8892836941136
 10
144.3213259233248
 20
124.34278768690355
 10
144.50237706562913
 20
124.74604727385262
 10
145.21569346003295
 20
126.3625310434404
 10
145.96619279322326
 20
128.2348084764725
 10
146.0239975640377
 20
128.38205938356717
 10
146.1137493057625
 20
128.6370843537008
 10
146.77685878857224
 20
130.40338725473984
 10
147.10805698304657
 20
131.39960789636888
 10
147.43845095395494
 20
132.42251791072349
 10
147.95787456807608
 20
134.27189340387832
 10
148.00377108946194
 20
134.4415093564429
 10
148.12809753050917
 20
134.9827501989808
 10
148.4942369796454
 20
136.46235730927506
 10
148.58903406735763
 20
136.92329176532428
 10
148.89019224079817
 20
138.48107731438793
 10
149.0289599764474
 20
139.38381053274495
 10
149.18534603264806
 20
140.49978302710673
 10
149.30711453157465
 20
141.681907348544
 10
149.38076269561302
 20
142.51849998317738
 10
149.45195627257544
 20
143.8461609332487
 10
149.4775977383409
 20
144.53727933808588
 10
149.4852381962659
 20
145.8984179241082
 10
149.476927760781
 20
146.556126942302
 10
149.42359833346268
 20
147.8554126355574
 10
149.37954389358737
 20
148.57509454998575
 10
149.27974747472342
 20
149.72992373316154
 10
149.18578990475447
 20
150.59418113370793
 10
149.0633523464091
 20
151.5316668439321
 10
148.89540673381225
 20
152.61339399380122
 10
148.78167905487624
 20
153.26794258960396
 10
148.50734800368647
 20
154.63271946416424
 10
148.44007575293884
 20
154.9441274082125
 10
148.12803578963005
 20
156.21179567026667
 10
148.04740512244106
 20
156.57227615895772
 10
148.02741099399603
 20
156.65181109034748
 10
147.62752720066354
 20
158.17017970942638
 10
147.48021822728887
 20
158.67155087106286
 10
147.1622548882652
 20
159.7225871353294
 10
146.83678019603366
 20
160.69138531021582
 10
146.6527126142548
 20
161.23063427066253
 10
146.11368025746475
 20
162.65652740744312
 10
146.09937417997247
 20
162.69815202370762
 10
146.09439715995265
 20
162.71134702215613
 10
145.54326713360106
 20
164.15971298469066
 10
145.30477679449032
 20
164.73151850152345
 10
144.9493339514662
 20
165.58337792529764
 10
144.41522313378923
 20
166.75177547999184
 10
144.31685216426527
 20
166.96841585236993
 10
144.09967333068545
 20
167.40492497755145
 10
143.67384089714582
 20
168.3463624497086
 10
143.46433546183738
 20
168.7723521896897
 10
143.01143522074148
 20
169.70159459897036
 10
142.43285284367428
 20
170.79287160296062
 10
142.31350012493294
 20
171.02123548179375
 10
142.08474174219094
 20
171.42326900917712
 10
141.60953587694522
 20
172.33818659967136
 10
141.34247104835976
 20
172.81377602808072
 10
140.88846579268778
 20
173.63483091288822
 10
140.17061429942876
 20
174.83452809633386
 10
140.13359662339684
 20
174.89762252837
 10
140.06974711384106
 20
174.99808533613003
 10
139.38633954332346
 20
176.17120504795218
 10
138.95716074302618
 20
176.8556654007079
 10
138.61302187519016
 20
177.4156875619611
 10
138.05373976706196
 20
178.2603892855391
 10
137.81967993984057
 20
178.64293369597198
 10
137.66634966135192
 20
178.87687979412345
 10
137.02875211345645
 20
179.86995226259666
 10
136.3210294889654
 20
180.8979898105686
 10
136.20761473512556
 20
181.06673796736908
 10
136.03861700914624
 20
181.30100293552934
 10
135.39001221926785
 20
182.26962049300744
 10
134.9255667895138
 20
182.91936926425
 10
134.5541112963901
 20
183.45179571879615
 10
134.0225616633225
 20
184.16486735087668
 10
133.70387096828662
 20
184.6217791851519
 10
133.46732109428734
 20
184.94079163735563
 10
132.8533149608467
 20
185.78945341831783
 10
132.00652618728958
 20
186.88947193836802
 10
131.97575989780634
 20
186.93185264512823
 10
131.9524041112322
 20
186.96223182271152
 10
131.11051355782635
 20
188.0849919142872
 10
130.39624836461354
 20
188.98379931849928
 10
130.21955365254522
 20
189.21244045381107
 10
129.99116620035377
 20
189.49109783477664
 10
129.32974531077753
 20
190.34244014596712
 10
128.78593645700994
 20
191.00535862214133
 10
128.4257724410083
 20
191.45703989912192
 10
127.97508620889981
 20
191.9920221083059
 10
127.51401728257981
 20
192.5648158390525
 10
127.01840524789742
 20
193.14999999999998
 10
189.14104859264313
 20
193.14999999999998
 10
189.44973864434166
 20
191.91508885130503
 10
189.70459316867326
 20
191.07285315153732
 10
189.8954919340464
 20
190.340660176797
 10
190.3029978340119
 20
189.05120765535239
 10
190.3720494269495
 20
188.79715781914103
 10
190.62538930397767
 20
188.02917953633124
 10
190.86307046395004
 20
187.27067078444298
 10
190.95179707714493
 20
187.03230581940792
 10
191.368085545961
 20
185.7558333997281
 10
191.65708392369564
 20
185.01073205545063
 10
191.90678533695095
 20
184.27480876235572
 10
192.426144650995
 20
182.9891750200241
 10
192.4821269582735
 20
182.8305681191125
 10
192.64018118858252
 20
182.45479773884142
 10
193.06463524799796
 20
181.39633796732483
 10
193.26483839478155
 20
180.97056492368247
 10
193.67456728341133
 20
179.98692114517567
 10
194.18187388596215
 20
178.94907315718424
 10
194.32503652452556
 20
178.6181915942923
 10
194.65474113861515
 20
177.96919465797794
 10
194.994979536084
 20
177.27211204575556
 10
195.18826681602954
 20
176.9306550390982
 10
195.68721794570442
 20
175.94539106793363
 10
196.2960292553294
 20
174.90922199573654
 10
196.4248008701687
 20
174.6641800739211
 10
196.66871410235203
 20
174.26415841509058
 10
197.1784196604249
 20
173.40259912485433
 10
197.52636481715757
 20
172.89100430222348
 10
197.96703241556082
 20
172.17266516636508
 10
198.6826886984647
 20
171.15773896177922
 10
198.79884001425924
 20
170.99014149325393
 10
198.89153650022934
 20
170.87298088264174
 10
199.64762944833163
 20
169.82065536235405
 10
200.44226108950974
 20
168.85153894062634
 10
200.550861090337
 20
168.70578491064373
 10
200.6951789041919
 20
168.53589537413316
 10
201.4751701106671
 20
167.61689620657532
 10
202.22984533936778
 20
166.83369936914093
 10
202.45457907209786
 20
166.5784942191696
 10
202.70765450271404
 20
166.3250178753728
 10
203.46701455819607
 20
165.57892402407066
 10
204.34587536837304
 20
164.81598763279294
 10
204.53898633140327
 20
164.6334212522874
 10
204.71912165178503
 20
164.482690482348
 10
205.6526090058165
 20
163.73638889197727
 10
206.73067998307076
 20
162.97452421365355
 10
206.83304893152842
 20
162.90733709702022
 10
207.01514678660004
 20
162.8022142167683
 10
208.0794708403248
 20
162.13698146654627
 10
208.7397267072495
 20
161.77348946353706
 10
209.40249668935903
 20
161.45192375088646
 10
210.74897718455392
 20
160.8836949381901
 10
210.81769945269258
 20
160.85982466074947
 10
211.06472528128666
 20
160.78716973825996
 10
212.35223033144854
 20
160.378614536262
 10
212.75525013528056
 20
160.27068668477764
 10
214.02221817263825
 20
160.04214232689006
 10
214.76256461047768
 20
159.93915121723984
 10
215.8752669715982
 20
159.8885515431644
 10
216.76965651647737
 20
159.87829564247346
 10
217.97716048500968
 20
159.9832084569711
 10
218.7770588053866
 20
160.07481446958803
 10
220.43515498795867
 20
160.4332674490186
 10
220.78522422358483
 20
160.5166680118086
 10
221.57492880042165
 20
160.7866676773657
 10
222.79704259389075
 20
161.17557339783355
 10
223.45869275369168
 20
161.45144711012418
 10
224.80722803399823
 20
162.03368953214184
 10
226.26147433110495
 20
162.80466390539334
 10
226.8208101519721
 20
163.0818109910649
 10
227.48797101653398
 20
163.47401522018347
 10
228.83281563198005
 20
164.27707328294665
 10
229.62678231944435
 20
164.82281246028847
 10
230.84764604523068
 20
165.61127268272182
 10
232.5376505426279
 20
166.8440651027141
 10
232.8628449477423
 20
167.06795994204134
 10
233.80822049839722
 20
167.79197366031931
 10
234.8766595530126
 20
168.6147817179295
 10
235.17130061921043
 20
168.86327581598428
 10
236.89249988208863
 20
170.2418788719114
 10
237.63363279163448
 20
170.8850202465213
 10
238.90850971602708
 20
171.94076316133615
 10
239.99547472647222
 20
172.9068597632183
 10
240.9246242243193
 20
173.69874267187413
 10
242.28069721303137
 20
174.9287774514758
 10
242.94084893512704
 20
175.50569434749735
 10
244.50636777039037
 20
176.9507435921461
 10
244.9571339401227
 20
177.353511075634
 10
246.68498028780425
 20
178.9727784461036
 10
246.97349613752633
 20
179.23572203984645
 10
248.8258194038496
 20
180.99485788712494
 10
248.98989415049593
 20
181.14707813538485
 10
250.93594867755797
 20
183.01696026081044
 10
251.00634963241038
 20
183.08333964172266
 10
253.02077374080818
 20
185.03911016906451
 10
253.14999999999998
 20
185.16276936457228
 10
253.14999999999998
 20
73.54085197939911
 10
252.98561991194867
 20
73.62943807509036
 10
252.8866725265856
 20
73.68340534935919
 10
251.68376201379616
 20
74.34754835596132
 10
251.02356216037103
 20
74.71842369909557
 10
250.36015812124714
 20
75.03706307124313
 10
249.01072833650122
 20
75.70110146729692
 10
249.0076341596938
 20
75.70237937571325
 10
247.58783281346362
 20
76.29706678007801
 10
246.9978023728947
 20
76.55451619603876
 10
246.12258613652867
 20
76.8426725250543
 10
244.98696835222935
 20
77.23840283959754
 10
244.59799264445508
 20
77.32779760215408
 10
243.02593539589589
 20
77.72138069105779
 10
242.98241374791948
 20
77.73245083351809
 10
242.97545810009547
 20
77.73439544211207
 10
241.22803090916963
 20
77.98627352544652
 10
240.96697027735462
 20
78.03073663837138
 10
239.3030033385164
 20
78.068459556431
 10
238.9596523548275
 20
78.08531627832882
 10
237.10853474366522
 20
77.88060449939329
 10
236.9531043576918
 20
77.86742621400252
 10
236.38333967202246
 20
77.72140038017046
 10
234.94759400247094
 20
77.36142495603906
 10
234.32980954996248
 20
77.10043895404746
 10
232.9401618578364
 20
76.5373380280555
 10
231.52314388603847
 20
75.70669019971044
 10
230.9312502401069
 20
75.36953736937797
 10
229.6173361787263
 20
74.39021691239142
 10
228.921109613113
 20
73.87649210116504
 10
228.72206183771786
 20
73.69347802825978
 10
226.90871426802147
 20
72.08689696910605
 10
226.51847943122368
 20
71.67456860809384
 10
224.89499912944393
 20
70.02852514724071
 10
224.57599603048817
 20
69.6548865039564
 10
222.8803161414082
 20
67.75543439320782
 10
222.78454406248485
 20
67.63450509990642
 10
222.3044635553197
 20
67.05608048850858
 10
221.10264035321325
 20
65.6106970233911
 10
220.863876758362
 20
65.3358355631961
 10
219.48618606590983
 20
63.58971006655025
 10
218.84808250477494
 20
62.81571725290982
 10
217.8991877016799
 20
61.56829770987886
 10
216.8319693907629
 20
60.22428454071671
 10
216.32870085953917
 20
59.546548844945676
 10
214.8156139626653
 20
57.590371426479734
 10
214.76743846337578
 20
57.524542850332594
 10
214.61220591365088
 20
57.3202504316784
 10
213.2319177127758
 20
55.501117367204074
 10
212.79840132106256
 20
54.947558443504846
 10
211.69772051228756
 20
53.47906675992974
 10
210.78187314940783
 20
52.28980382281759
 10
210.16261644503209
 20
51.456904447851116
 10
208.7652646527185
 20
49.61787469316381
 10
208.62983575254583
 20
49.434683263052165
 10
208.2162370241376
 20
48.88393980163161
 10
207.11390746643605
 20
47.411936521527096
 10
206.74850897965985
 20
46.92837874639483
 10
205.60956332799145
 20
45.389892635320166
 10
204.73202035226376
 20
44.2072041146847
 10
204.11826871954895
 20
43.367878937523095
 10
202.7155746731399
 20
41.44019916224677
 10
202.64760501049807
 20
41.34592540209808
 10
202.47749623475994
 20
41.10701806382359
 10
201.21214173329656
 20
39.3240085343989
 10
200.6996284308576
 20
38.58767670648046
 10
199.80969881906373
 20
37.30236150046419
 10
198.68342880636914
 20
35.63062420191797
 10
198.44798411326462
 20
35.2808204060487
 10
198.007688380795
 20
34.60302465437938
 10
197.13806922958213
 20
33.25956975462867
 10
196.6681504553258
 20
32.502115190849224
 10
195.88259665685243
 20
31.23837034502501
 10
194.7404002299887
 20
29.305119388577644
 10
194.68885998462454
 20
29.217540866565187
 10
194.65313245034142
 20
29.15321882109743
 10
193.56128559284122
 20
27.196662644046445
 10
192.63722212730082
 20
25.427388938568612
 10
192.5047400917698
 20
25.17587717604477
 10
192.37740350326817
 20
24.91540798758947
 10
191.5205507211113
 20
23.155583546397096
 10
190.62234877615785
 20
21.153927602569777
 10
190.613759212993
 20
21.135005434871985
 10
190.60781877056485
 20
21.120690840672104
 10
189.77959191998667
 20
19.114933100334913
 10
189.27157247635387
 20
17.759690551151344
 10
189.02405739267022
 20
17.094922076122458
 10
188.6082383192254
 20
15.85578662080869
 10
188.34211763179667
 20
15.074440505335854
 10
188.22517590428367
 20
14.69084081904495
 10
187.71481980662747
 20
13.0
 10
13.0
 20
13.0
  0
LWPOLYLINE
  5
8F
330
17
100
AcDbEntity
  8
GRABADO
100
AcDbPolyline
 90
636
 70
1
 10
13.0
 20
193.14999999999998
 10
36.653204348547625
 20
193.14999999999998
 10
35.321737972329245
 20
191.15923358492444
 10
35.21740421004729
 20
191.01071119596045
 10
35.029424599778714
 20
190.71747432266903
 10
33.88692303483635
 20
188.99002146885735
 10
33.30685493397347
 20
188.02616902363596
 10
32.634761750834464
 20
186.96886023997754
 10
31.735339594484646
 20
185.39287096700687
 10
31.470788229086562
 20
184.9482832153919
 10
31.29200235671131
 20
184.61265569915557
 10
30.338022160250876
 20
182.92739966935312
 10
29.383468749112126
 20
181.01352223677634
 10
29.327284626007604
 20
180.9069139491217
 10
29.277101737271852
 20
180.79851132077104
 10
28.330127059514076
 20
178.88631415744166
 10
27.622068859292604
 20
177.2267134054508
 10
27.45657875349042
 20
176.86582796069126
 10
27.26207125569573
 20
176.3718750013768
 10
26.614292189350245
 20
174.8455219365808
 10
26.25538545886866
 20
173.8361692525545
 10
25.86021766712131
 20
172.82498248335855
 10
25.24684639193073
 20
170.9449258576136
 10
25.19720158840511
 20
170.80492244465674
 10
25.17727611385016
 20
170.735392083964
 10
24.543959903650084
 20
168.7842573427314
 10
24.29432865574518
 20
167.82872688726124
 10
23.97761871995534
 20
166.76347850631282
 10
23.578963197501572
 20
165.09007192378317
 10
23.484341561401102
 20
164.74257269158363
 10
23.232175372566914
 20
163.58125665888943
 10
23.028631034233328
 20
162.72259856814472
 10
22.983736248385718
 20
162.47377747047938
 10
22.60198849048409
 20
160.70150385352227
 10
22.478859538606585
 20
159.9460926595328
 10
22.231545269806027
 20
158.68033341024972
 10
22.058662755659284
 20
157.5032841083664
 10
21.90944859643459
 20
156.6590691974326
 10
21.70778202488816
 20
155.1299363701937
 10
21.629388994836873
 20
154.63773835358683
 10
21.414577663488558
 20
152.8144065348254
 10
21.386303125878626
 20
152.61636521981015
 10
21.21678045090043
 20
150.99475104745073
 10
21.17089857376178
 20
150.59588889148804
 10
21.16703774706172
 20
150.54636602348424
 10
20.967561817058048
 20
148.57431256947234
 10
20.949475170672326
 20
148.30652074664403
 10
20.79527723098707
 20
146.5526972913446
 10
20.76945312344888
 20
146.10430259408542
 10
20.651115569743418
 20
144.53106476123662
 10
20.62248657172534
 20
143.93522313037974
 10
20.53273187316059
 20
142.50939049331916
 10
20.505021224860087
 20
141.79570497683773
 10
20.43828427890007
 20
140.48770257956852
 10
20.41424718355532
 20
139.68294549256117
 10
20.36634069199429
 20
138.46599058683302
 10
20.347952045794163
 20
137.59472663870017
 10
20.315855152520292
 20
136.44427421632858
 10
20.30442491450736
 20
135.52933866426557
 10
20.2860951282689
 20
134.42254243122701
 10
20.28237288411183
 20
133.4854875739959
 10
20.276649408365834
 20
132.40081495813675
 10
20.280879727960773
 20
131.46225921151668
 10
20.287379271817578
 20
130.37907931139267
 10
20.299320699516954
 20
129.45903010453725
 10
20.318440072910114
 20
128.35735618914674
 10
20.337408081085865
 20
127.47552035643055
 10
20.37026910362104
 20
126.33564057617147
 10
20.39509741400035
 20
125.51168288560201
 10
20.443619078161134
 20
124.31393014197052
 10
20.472650182254053
 20
123.56778609867563
 10
20.53955999502177
 20
122.2922435578985
 10
20.570580522793588
 20
121.64435462923377
 10
20.65954556395214
 20
120.27057171001482
 10
20.68972742135818
 20
119.74223132606707
 10
20.805450035025608
 20
118.24893402259985
 10
20.831219480354477
 20
117.86256122855828
 10
20.979661306597333
 20
116.22732205210508
 10
20.996564925429862
 20
116.00685614038287
 10
21.185150333548666
 20
114.2057570249469
 10
21.187653326275438
 20
114.17703108440698
 10
21.21677159265834
 20
113.93320500722264
 10
21.37957987003564
 20
112.34815238572119
 10
21.400986982052032
 20
112.1853048459616
 10
21.590895294502147
 20
110.53879491407272
 10
21.646406462479497
 20
110.16392972991292
 10
21.82763374944112
 20
108.75500995150502
 10
21.929115209064932
 20
108.14261285869446
 10
22.09227852126957
 20
106.99929583993021
 10
22.25427106327442
 20
106.12135574377896
 10
22.387815931689346
 20
105.27466850815432
 10
22.628258738834496
 20
104.10018551985128
 10
22.71786539297797
 20
103.5847769190192
 10
23.059057953049585
 20
102.07910101773058
 10
23.08681321847807
 20
101.93403926222983
 10
23.232140358376473
 20
101.35391762735621
 10
23.45645061144578
 20
100.28350618281713
 10
23.515141153610763
 20
100.05915879995611
 10
23.83868146021289
 20
98.64624780768523
 10
24.013174717836442
 20
98.03826378191519
 10
24.260538522360328
 20
97.04890019721972
 10
24.58516629354684
 20
96.01749020560845
 10
24.727307401082854
 20
95.49679274517308
 10
25.245213193655125
 20
93.99684763362362
 10
25.245361220824776
 20
93.99635132901643
 10
25.246769435129337
 20
93.99263819084102
 10
25.72565664537072
 20
92.4562257158142
 10
25.908754884965337
 20
91.97680662440597
 10
26.25142781502232
 20
90.96357718645683
 10
26.67077239963246
 20
89.95629014640537
 10
26.82964875488442
 20
89.5237683124879
 10
27.261969942995727
 20
88.57243025288457
 10
27.435892347859998
 20
88.10948067688328
 10
27.514196669682974
 20
87.93598389167698
 10
28.02363412884067
 20
86.67919407624798
 10
28.397133347725962
 20
85.91551986022691
 10
28.665236684941505
 20
85.30314974608551
 10
29.27697454863278
 20
84.15066051168097
 10
29.355505579513473
 20
83.97269269957836
 10
29.396105076363185
 20
83.89493226539915
 10
30.006493878940386
 20
82.60595813532986
 10
30.418040363366874
 20
81.87445176273054
 10
30.712844753390332
 20
81.29494745194616
 10
31.291849507778192
 20
80.34126911077128
 10
31.456231256625923
 20
80.01738121665709
 10
31.553397880918673
 20
79.85357831440187
 10
32.17062770790952
 20
78.71426438727956
 10
32.730777515088306
 20
77.83302024896409
 10
32.94187391161739
 20
77.46832826236084
 10
33.30667754265618
 20
76.93339665406604
 10
33.715358426259726
 20
76.22064063793732
 10
33.9865004914532
 20
75.81187058053095
 10
34.492581583432525
 20
74.98046150753437
 10
35.322677070676406
 20
73.80578684452554
 10
35.32873528836827
 20
73.79575851392286
 10
35.332271158601756
 20
73.79063832632824
 10
36.11440069028619
 20
72.56380929073207
 10
36.694791402111946
 20
71.76976362636809
 10
36.953402451390886
 20
71.38542537809613
 10
37.33763076246733
 20
70.88894287146617
 10
37.793343621626654
 20
70.20437622325407
 10
38.137726576596094
 20
69.74829907553966
 10
38.63823187428331
 20
69.0316192158832
 10
39.35372871800256
 20
68.1307391268826
 10
39.51929311630528
 20
67.89203652470579
 10
39.64809110686316
 20
67.72679176524909
 10
40.371732361374185
 20
66.72657945889031
 10
41.2036142508747
 20
65.70555176898966
 10
41.27448474904591
 20
65.6115708262272
 10
41.36892993367657
 20
65.50060219844761
 10
42.146038619847914
 20
64.46243993213349
 10
42.79671560521858
 20
63.68384320266455
 10
43.05389560902767
 20
63.35224940871507
 10
43.38513042939125
 20
62.9703822524573
 10
43.95540099344271
 20
62.23345130267681
 10
44.44520403647532
 20
61.66212455177492
 10
44.86980079566663
 20
61.12952454701096
 10
45.4013225018776
 20
60.528514234964106
 10
45.79563358962527
 20
60.03542879445797
 10
46.14316764464081
 20
59.640402776791205
 10
46.71778351448397
 20
58.93898435906054
 10
47.41748982847332
 20
58.16341230334251
 10
47.663759768641754
 20
57.86540946333342
 10
47.88665050033613
 20
57.61868602948556
 10
48.59478410531692
 20
56.77756942722536
 10
49.433635970868096
 20
55.86675589051271
 10
49.55780151460182
 20
55.72141654875584
 10
49.67333732696531
 20
55.596981146536706
 10
50.498803339592826
 20
54.643289637166774
 10
51.44974864990044
 20
53.63279289944373
 10
51.47664692029761
 20
53.60236029810646
 10
51.502501024512824
 20
53.57529908219409
 10
52.42878364890382
 20
52.53509771551337
 10
53.37426520993975
 20
51.55298542946883
 10
53.41763973975547
 20
51.50446504659659
 10
53.46574675795597
 20
51.45468950626157
 10
54.38456264101033
 20
50.45284649151017
 10
55.29356287716578
 20
49.531160120646945
 10
55.38391883517842
 20
49.43241090630573
 10
55.481919545336865
 20
49.3327911586309
 10
56.3668840987215
 20
48.39730326439013
 10
57.26562472090146
 20
47.509369990970185
 10
57.378592139176234
 20
47.38890567415886
 10
57.498040312909595
 20
47.26980695967782
 10
58.37753547041915
 20
46.37028116835708
 10
59.29646926288096
 20
45.48762365303297
 10
59.40380870886999
 20
45.376125587149076
 10
59.51409171263532
 20
45.268474906928915
 10
60.419522314525025
 20
44.37482662763939
 10
61.39556998042812
 20
43.465933737565905
 10
61.46315837581929
 20
43.397698386762414
 10
61.53005377000717
 20
43.33392509495643
 10
62.497515101127846
 20
42.415663907517455
 10
63.54503327533524
 20
41.473378705050735
 10
63.55876801282069
 20
41.461283991337645
 10
63.57685707556509
 20
41.44613630315432
 10
64.61843207734655
 20
40.49978353214246
 10
65.56047551344854
 20
39.68496491607512
 10
65.70138162569657
 20
39.56788882053877
 10
65.88158018206846
 20
39.42490658435764
 10
66.79248937194706
 20
38.637500155867244
 10
67.5756840140781
 20
37.990144954485686
 10
67.90404321294938
 20
37.73514350506454
 10
68.3488596003663
 20
37.403827089813305
 10
69.03500037464764
 20
36.84426852105837
 10
69.59057091020289
 20
36.409087395257345
 10
70.18604690569519
 20
35.98254310528867
 10
71.05497809844863
 20
35.382940279368626
 10
71.36949590139628
 20
35.143835831639066
 10
71.6050061114461
 20
34.97106089972118
 10
72.57775379388127
 20
34.340742197091224
 10
73.61670610102004
 20
33.68916960121361
 10
73.82568282096742
 20
33.578651557106596
 10
74.24047846273157
 20
33.36570868075169
 10
75.1292620875714
 20
32.86028247576108
 10
75.62916985099943
 20
32.58372729775108
 10
76.48789813726593
 20
32.21092065039109
 10
77.63808663400573
 20
31.723523816076888
 10
77.9234758139749
 20
31.639836678143883
 10
78.93549456824128
 20
31.34901419327908
 10
79.47886318488092
 20
31.17474872938008
 10
79.6469400982533
 20
31.121754953973603
 10
81.18308540668039
 20
30.874774960573298
 10
81.65216106063032
 20
30.80002419147973
 10
83.12022007873205
 20
30.808050305399746
 10
83.65648230175368
 20
30.81000299873403
 10
85.44451208820087
 20
31.1279420178869
 10
85.66090201017332
 20
31.165515690351786
 10
86.17388089913088
 20
31.34827929491367
 10
87.6684985875173
 20
31.830228661808533
 10
88.6187969923579
 20
32.30233727544585
 10
89.67604171356129
 20
32.82151378008363
 10
90.48157491822597
 20
33.36275274590881
 10
91.68728178636397
 20
34.10919139539019
 10
93.29227927651628
 20
35.381734295688574
 10
93.69962571825069
 20
35.68320758300213
 10
95.5901179362959
 20
37.40089196138017
 10
95.71275679420347
 20
37.50609053610791
 10
97.58487656648417
 20
39.420213608429606
 10
97.72646405252878
 20
39.558259822611326
 10
99.38144343666178
 20
41.439684017128215
 10
99.7406309247408
 20
41.83254320805354
 10
101.03831048215804
 20
43.45928974690419
 10
101.75516287707107
 20
44.330687300018596
 10
102.59096812794037
 20
45.4790319960908
 10
103.77000199206724
 20
47.06065795972424
 10
104.06244974721751
 20
47.49891422208013
 10
104.69014462533572
 20
48.422692866254536
 10
105.44623478399639
 20
49.52223165565913
 10
105.78564691412014
 20
50.007674274856015
 10
106.75590227749242
 20
51.54223218465634
 10
107.8009354264432
 20
53.174036473450286
 10
108.02793330859319
 20
53.56242753717481
 10
108.35859265224181
 20
54.122491913988696
 10
109.23674954120611
 20
55.58565485884229
 10
109.81690222877235
 20
56.54210014306307
 10
110.41122084738019
 20
57.60609274208748
 10
111.18627668272592
 20
58.980054502180636
 10
111.55866233408
 20
59.629322442181575
 10
111.83306302225466
 20
60.10251663929249
 10
112.66690000184246
 20
61.65006573240336
 10
113.67370184773921
 20
63.496516586624026
 10
113.77162497221616
 20
63.67332112580222
 10
113.84944049045481
 20
63.811966219957725
 10
114.84002673281496
 20
65.6944083035577
 10
115.86558139330357
 20
67.613506914816
 10
115.91722223020354
 20
67.71579215440646
 10
115.97270175409552
 20
67.82368927132654
 10
116.97079910475708
 20
69.73913796812695
 10
117.88236965309939
 20
71.45504505722913
 10
118.03725703089249
 20
71.76087434075431
 10
118.20506674063435
 20
72.08486428968625
 10
119.09381624423769
 20
73.78422507620506
 10
119.8993418823961
 20
75.28996056752264
 10
120.16509203681245
 20
75.806297866236
 10
120.46439015079667
 20
76.37322851848762
 10
121.23782430205748
 20
77.8296176007015
 10
121.91646748218807
 20
79.0764730532987
 10
122.32629560500713
 20
79.85197767975129
 10
122.81580898726361
 20
80.75404982328821
 10
123.42568091116965
 20
81.87522651751648
 10
123.93370555660871
 20
82.78643951861645
 10
124.54083989715278
 20
83.89782442165583
 10
125.31972430889496
 20
85.28785063645678
 10
125.67425620580632
 20
85.92095186066261
 10
125.95100558694108
 20
86.40412994460608
 10
126.82286662940214
 20
87.94372688202431
 10
127.96804369960306
 20
89.92184110975344
 10
127.99390092299097
 20
89.96669012116138
 10
128.03110396736548
 20
90.0298878151597
 10
129.18016418382248
 20
91.9895750376746
 10
129.98541041339655
 20
93.34027192723313
 10
130.38807034135473
 20
94.01261598997993
 10
131.0154003252935
 20
95.04538546629041
 10
131.6134029685192
 20
96.03526196699882
 10
132.00267731069266
 20
96.6736831056938
 10
132.85791163670905
 20
98.05831099747817
 10
134.0198685681936
 20
99.928868832394
 10
134.11654994637368
 20
100.08143826419906
 10
134.28540307530596
 20
100.34751746440892
 10
135.3923979520863
 20
102.10369355619082
 10
136.03693374402846
 20
103.13063663796078
 10
136.67975616826592
 20
104.12676881455984
 10
137.82719643186462
 20
105.921800844395
 10
137.97114650503804
 20
106.14866528586593
 10
138.0537226482481
 20
106.28086208466273
 10
139.27721903865427
 20
108.17161873645645
 10
140.0708443347859
 20
109.42490803236562
 10
140.57923343014596
 20
110.19458493191046
 10
141.4983499103854
 20
111.6257746873442
 10
141.87433555872707
 20
112.21592060998272
 10
142.08719508781533
 20
112.56194002443065
 10
143.17091493438963
 20
114.2387065234904
 10
144.10418974257274
 20
115.74493423095667
 10
144.44285118826485
 20
116.2614785157082
 10
145.00800777170744
 20
117.16746193585443
 10
145.6972809119861
 20
118.28217467741328
 10
146.12000060869536
 20
119.0063071312412
 10
146.92799364015974
 20
120.30471012659892
 10
148.06315712141281
 20
122.25288463077982
 10
148.10469922384954
 20
122.32492468555692
 10
148.1354684971884
 20
122.3824084569278
 10
149.2654255454124
 20
124.34719744040714
 10
150.1521542767234
 20
126.02324353185547
 10
150.35064539957273
 20
126.36946316340298
 10
150.56850347615898
 20
126.78636961856093
 10
151.39466089842557
 20
128.3889046465451
 10
152.16721891975868
 20
130.050727675399
 10
152.35046635414255
 20
130.41089605491695
 10
152.50307063573305
 20
130.74688853225095
 10
153.25317805739883
 20
132.42982972476696
 10
153.95880200073853
 20
134.2270630296502
 10
154.0436102524998
 20
134.44854543945468
 10
154.18066596301531
 20
134.8615746871503
 10
154.77268945907204
 20
136.47001801277867
 10
155.04531256779995
 20
137.33584279287066
 10
155.39380677165423
 20
138.48830264008217
 10
155.80508344267488
 20
140.11714794948145
 10
155.8977908461811
 20
140.50649364813773
 10
156.19479690768912
 20
142.05443011095124
 10
156.29743364378515
 20
142.52747076817238
 10
156.31826404579678
 20
142.64949316322299
 10
156.60447775080004
 20
144.5453621051848
 10
156.65486934053962
 20
145.00552527031434
 10
156.78980920104496
 20
146.56325682582215
 10
156.82129790105094
 20
147.1906479440586
 10
156.85435186437746
 20
148.5812263603353
 10
156.84945334785206
 20
149.2369219813899
 10
156.7978596295929
 20
150.59928555080472
 10
156.76167687167995
 20
151.16677985363054
 10
156.61855630870517
 20
152.617451801021
 10
156.57350874930003
 20
152.99583279129735
 10
156.31274864959994
 20
154.63571921507122
 10
156.29554637915493
 20
154.73471971656946
 10
156.19477849771624
 20
155.19382477341924
 10
155.96432825689436
 20
156.42411075666985
 10
155.9120560073767
 20
156.6535033831694
 10
155.5788994295298
 20
158.05555699914316
 10
155.4040529573146
 20
158.6723734808868
 10
155.13009754221198
 20
159.62339042466118
 10
154.76714645239628
 20
160.69130757858133
 10
154.6188581049037
 20
161.12854635058372
 10
154.1810572112799
 20
162.22934106115244
 10
154.0589396347521
 20
162.58987703767272
 10
154.01181021052787
 20
162.71078568101515
 10
153.4966866956195
 20
164.0442524597251
 10
153.19245969421038
 20
164.73023042020395
 10
152.88134017677194
 20
165.44533406622017
 10
152.23025701863722
 20
166.74974169242424
 10
152.21041282308448
 20
166.7906082973791
 10
152.16794103369193
 20
166.86679918206804
 10
151.55668414005433
 20
168.15889416457307
 10
151.2295564033724
 20
168.7703318085594
 10
150.8606532693724
 20
169.47937490178103
 10
150.15203044142876
 20
170.68222882748702
 10
150.1149256624129
 20
170.75541223519141
 10
150.09463312315654
 20
170.79120973286572
 10
149.39787907996822
 20
172.0551510700114
 10
148.9310953217819
 20
172.81135700322895
 10
148.63435126704474
 20
173.3082434432288
 10
148.13738715943558
 20
174.04993922751834
 10
147.8499990503225
 20
174.54581853820704
 10
147.6655814808838
 20
174.83266061927247
 10
147.0725790839419
 20
175.78529728499012
 10
146.33382229005701
 20
176.8530709965867
 10
146.24970114320368
 20
176.9791695479516
 10
146.12257325566182
 20
177.15024872686257
 10
145.44601538619358
 20
178.19752275067094
 10
144.9637272455599
 20
178.87469717333536
 10
144.6143759496153
 20
179.38292215249416
 10
144.10633899560514
 20
180.0519850616778
 10
143.7679807026269
 20
180.55823705093326
 10
143.5205978077512
 20
180.89638740638577
 10
142.92776439372108
 20
181.73531523219302
 10
142.09008213352075
 20
182.81637841186557
 10
142.04817524517506
 20
182.87712175134695
 10
142.01742020138224
 20
182.91810873469169
 10
141.19947240749437
 20
184.04597056749472
 10
140.49387173438834
 20
184.93914916294645
 10
140.31291832847958
 20
185.17689896419182
 10
140.07483488293482
 20
185.46359027541396
 10
139.43668277453054
 20
186.32208232785456
 10
138.92234151178204
 20
186.96108125053357
 10
138.54468226051515
 20
187.44781585171305
 10
138.05844748816983
 20
188.02573154599847
 10
137.64482977864864
 20
188.56906781291178
 10
137.305445060313
 20
188.98302755972495
 10
136.747095862181
 20
189.6893042805249
 10
136.04205947542502
 20
190.51642102893888
 10
135.82806615323818
 20
190.79107144294727
 10
135.64947942549773
 20
191.00496808613482
 10
134.92434723113695
 20
191.9055595490379
 10
134.02567392017184
 20
192.94610133321947
 10
133.98961193286476
 20
192.99133933770742
 10
133.85470911156148
 20
193.14999999999998
 10
182.04482384037993
 20
193.14999999999998
 10
182.0956669106833
 20
192.6172123436381
 10
182.32710296159763
 20
191.06180318610615
 10
182.34853385218742
 20
190.84886353932453
 10
182.56093230868956
 20
189.49541943107727
 10
182.6174395340398
 20
189.09954011171328
 10
182.6286619238955
 20
189.04292136319037
 10
182.88332654984498
 20
187.34442397245664
 10
182.9506921080837
 20
187.02108367058295
 10
183.1727096014054
 20
185.61292104268563
 10
183.30717074227974
 20
184.99928817953605
 10
183.48837534586255
 20
183.9078363900551
 10
183.70298717601904
 20
182.977545265523
 10
183.8335237193989
 20
182.2323995246465
 10
184.14400319807325
 20
180.95588136437004
 10
184.21176615227387
 20
180.59024617049337
 10
184.5764398156603
 20
179.17071879518994
 10
184.62026256273407
 20
178.98129936343403
 10
184.63350024040216
 20
178.9374185435625
 10
185.01806061344263
 20
177.358934566467
 10
185.15865857332605
 20
176.91592370192296
 10
185.4525585053252
 20
175.77350298990964
 10
185.74661375975276
 20
174.89453699089705
 10
185.92796327528447
 20
174.2292406035201
 10
186.4073739130368
 20
172.87324946654326
 10
186.44873560913823
 20
172.73065407233645
 10
186.59104968435264
 20
172.35099409068687
 10
186.96750912101848
 20
171.23228744102832
 10
187.1258074478417
 20
170.85491896221808
 10
187.51548249971293
 20
169.7611270811598
 10
187.92594353099494
 20
168.83381676975927
 10
188.11305625087292
 20
168.3399346382781
 10
188.60568030301616
 20
167.28869975166623
 10
188.746770463857
 20
166.95671896217036
 10
188.81930374863072
 20
166.81540034338767
 10
189.37927103937548
 20
165.5706546822064
 10
189.79911998853498
 20
164.79443886951418
 10
190.06513711057968
 20
164.2383558196489
 10
190.61975860208423
 20
163.2685659933096
 10
190.78935642447618
 20
162.94579055011917
 10
190.89436217276153
 20
162.77588279245268
 10
191.5174344452578
 20
161.65585012152434
 10
192.1033296582308
 20
160.75500047012812
 10
192.30066417868534
 20
160.4214743780679
 10
192.63329857739183
 20
159.93698452400267
 10
193.10203986151072
 20
159.20623148310284
 10
193.44801433918897
 20
158.73629855652888
 10
193.93403078876773
 20
158.0207016659896
 10
194.647459533688
 20
157.0980329784672
 10
194.80872600129473
 20
156.87932958292515
 10
194.94348581894926
 20
156.71753491035446
 10
195.69623174451925
 20
155.7493425371859
 10
196.61258830501757
 20
154.69647730946576
 10
196.63423880541697
 20
154.67015225979344
 10
196.6601360624102
 20
154.64171869829627
 10
197.58456028230108
 20
153.60480077696013
 10
198.49566395935003
 20
152.67751388483453
 10
198.58225428738893
 20
152.58521496068929
 10
198.67359334051028
 20
152.49579988620263
 10
199.60349785241658
 20
151.59165167735628
 10
200.64535171743287
 20
150.65850031051988
 10
200.6673535753729
 20
150.63805524253164
 10
200.68660930200193
 20
150.62134380169834
 10
201.7654207025022
 20
149.72237421827776
 10
202.6999140490356
 20
148.99386976028495
 10
202.90238868382286
 20
148.84708317927192
 10
203.20420216099902
 20
148.64235589538546
 10
204.09258041939697
 20
148.01937242499872
 10
204.71147512290926
 20
147.60650244370444
 10
205.32812500623743
 20
147.24415892848438
 10
206.43953458949412
 20
146.62341523119642
 10
206.62135939924224
 20
146.51919709705746
 10
206.7221725766763
 20
146.4631428205846
 10
207.9978396846749
 20
145.88669328840388
 10
208.73172785312036
 20
145.56521882107367
 10
209.45396442889603
 20
145.33565519392107
 10
210.7395046017196
 20
144.94115286520662
 10
211.01733553653872
 20
144.89327390098597
 10
212.74503009292494
 20
144.61018242111112
 10
214.73470280264488
 20
144.58878085979458
 10
214.75018562021705
 20
144.58859453578646
 10
214.88306221626547
 20
144.6097835312854
 10
216.75531729179988
 20
144.89496147610183
 10
217.16807449877908
 20
145.02677932325113
 10
218.76093065285409
 20
145.54049436901872
 10
220.60353782501198
 20
146.4556692416876
 10
220.7681469603758
 20
146.5377529679713
 10
220.89076167046787
 20
146.6208889738796
 10
222.77933087607101
 20
147.8150102221876
 10
223.81318488308773
 20
148.64009876020708
 10
224.79237520218845
 20
149.36408385870044
 10
226.24739599625858
 20
150.66007487771694
 10
226.80664701828584
 20
151.12018006853484
 10
228.43282819057032
 20
152.68071245729703
 10
228.8217619603064
 20
153.02536330072013
 10
230.48294740086564
 20
154.7018548829552
 10
230.8374163837579
 20
155.03277732158247
 10
232.45731920240152
 20
156.72340557753336
 10
232.85346444018063
 20
157.10704692042862
 10
234.38944916332906
 20
158.74524746145593
 10
234.86975938654123
 20
159.2225074455033
 10
236.2991501151776
 20
160.76728883176554
 10
236.88623815313895
 20
161.3611400988668
 10
238.19847811892336
 20
162.78950340971178
 10
238.90286443999474
 20
163.5106436610923
 10
240.09498021282062
 20
164.81183469458392
 10
240.91957158571884
 20
165.66266471108372
 10
241.99346310865494
 20
166.83425333030834
 10
242.93636513007314
 20
167.81167447781445
 10
243.89700403790522
 20
168.85672186324925
 10
244.95319713948513
 20
169.9540258261468
 10
245.80766676154911
 20
170.87925597681934
 10
246.97008624056366
 20
172.08734180221538
 10
247.7268420093907
 20
172.9018290205591
 10
248.9869934153319
 20
174.2100153865303
 10
249.65554315369528
 20
174.9244339167311
 10
251.003943801593
 20
176.32093870687092
 10
251.59460837215573
 20
176.94704919699825
 10
253.14999999999998
 20
178.55255356600432
 10
253.14999999999998
 20
80.13512902912515
 10
252.06568118209807
 20
80.80323792357761
 10
251.01998386205648
 20
81.46868557161608
 10
250.82446449707584
 20
81.5759988365746
 10
250.47828654502084
 20
81.77407198221941
 10
249.54390835793097
 20
82.31696348135169
 10
249.00492467069975
 20
82.64504803792923
 10
248.24350702597104
 20
83.02957950560678
 10
246.99233600673242
 20
83.70013525664854
 10
246.92882129643712
 20
83.7266800660441
 10
246.7814419225681
 20
83.7932501416637
 10
245.54164332139942
 20
84.36165553096961
 10
244.9782390901863
 20
84.642209398211
 10
244.12081087837134
 20
84.95125670803098
 10
242.96778483395784
 20
85.4156110606847
 10
242.65433556178394
 20
85.49369617633776
 10
241.5693326513409
 20
85.8120632338022
 10
241.0920854805338
 20
85.95399878354263
 10
240.95534585214187
 20
86.0017598841302
 10
239.3987462560861
 20
86.26758277290465
 10
238.94807569464254
 20
86.36860633493255
 10
237.53181369054852
 20
86.40598394851301
 10
236.94272923436534
 20
86.45294370226692
 10
235.35454169144933
 20
86.23301261453942
 10
234.93887847348054
 20
86.1966529660192
 10
233.76659529297933
 20
85.81266911151515
 10
232.93727200390708
 20
85.5447520863551
 10
232.3233787877285
 20
85.19677141203137
 10
230.93171665908432
 20
84.44814681907734
 10
230.12802948582163
 20
83.80278680510078
 10
228.92386055882173
 20
82.85658231643622
 10
227.9016306128532
 20
81.7868292172804
 10
226.91283644831597
 20
80.78228624276447
 10
226.11337050578405
 20
79.76955045629366
 10
224.89971931784098
 20
78.2896399322241
 10
224.52952475432556
 20
77.7509487424932
 10
223.56465436557212
 20
76.41056070521492
 10
223.06605525008473
 20
75.72675417705811
 10
222.88395817360066
 20
75.48855391802545
 10
221.69683492622127
 20
73.70679711775875
 10
220.86859377035395
 20
72.52810639363389
 10
220.34073773915213
 20
71.6860136991333
 10
219.28661015211748
 20
70.09875578530705
 10
218.9939226704034
 20
69.66168449823272
 10
218.85141930365714
 20
69.46025773800156
 10
217.67568339245764
 20
67.64022379326398
 10
216.83512834756147
 20
66.4106985718351
 10
216.33284579830075
 20
65.61829406806889
 10
215.29906995639698
 20
64.07746202318062
 10
214.97394046603372
 20
63.5941835775522
 10
214.81748463005908
 20
63.37331076612941
 10
213.61544266710206
 20
61.571976350322274
 10
212.8007603892616
 20
60.410064351714595
 10
212.2259887805306
 20
59.54952574652481
 10
210.8749778405329
 20
57.618108964500735
 10
210.81047641738317
 20
57.52583441895207
 10
210.7831049448276
 20
57.48820309639977
 10
209.39212573609433
 20
55.50335798800144
 10
208.76624757921982
 20
54.64097474438698
 10
207.9480921437729
 20
53.48079060188324
 10
206.74935492278846
 20
51.830160555354425
 10
206.484850695574
 20
51.45817134213121
 10
205.77065289808172
 20
50.476663693323445
 10
205.0145797965652
 20
49.43520216250408
 10
204.73213866253514
 20
49.05233641826655
 10
203.53964977776698
 20
47.41277785961219
 10
202.7153854044528
 20
46.28965504782106
 10
202.06087021983768
 20
45.39041457423845
 10
200.6986561673751
 20
43.52174426804305
 10
200.58696762335197
 20
43.368074549307366
 10
200.29342891318615
 20
42.96164512799806
 10
199.12934490410277
 20
41.34595808522124
 10
198.6823465807519
 20
40.71718109051052
 10
197.69088972992
 20
39.323959745534594
 10
196.6659103560787
 20
37.85226747199624
 10
196.28069581510871
 20
37.30207658428593
 10
195.4565360376845
 20
36.089210497228905
 10
194.9083530044618
 20
35.28063209262088
 10
194.65031340464077
 20
34.885715186921075
 10
193.57888418697533
 20
33.259110987740655
 10
192.63416959098265
 20
31.758280019817267
 10
192.30260880243523
 20
31.237720696556988
 10
191.79432427401005
 20
30.395456027565555
 10
191.08445048093634
 20
29.216928512050135
 10
190.61912262245238
 20
28.39595493043877
 10
189.9291117148382
 20
27.195875827195657
 10
189.125634121923
 20
25.698211964400898
 10
188.84570706054092
 20
25.175450764303598
 10
188.60425611090966
 20
24.68891908855544
 10
187.82966231396236
 20
23.15466349239744
 10
187.15543692235747
 20
21.701952302185997
 10
186.892635045111
 20
21.134511383879946
 10
186.589340103918
 20
20.41744228591655
 10
186.0264991066609
 20
19.11387340602936
 10
185.66302604995033
 20
18.18530448364509
 10
185.23709076143007
 20
17.093864147754104
 10
184.5742294288517
 20
15.20868529179872
 10
184.5253989793608
 20
15.073224515025675
 10
184.502262310219
 20
15.001576891802184
 10
183.8594307075812
 20
13.0
 10
13.0
 20
13.0
 10
13.0
 20
193.14999999999998
  0
TEXT
  5
90
330
17
100
AcDbEntity
  8
GRABADO
100
AcDbText
 10
192.76518530192345
 20
102.90883951261623
 30
0.0
 40
6.0
  1
11
 72
1
 11
192.76518530192345
 21
102.90883951261623
 31
0.0
100
AcDbText
 73
2
  0
LWPOLYLINE
  5
91
330
17
100
AcDbEntity
  8
CORTE
100
AcDbPolyline
 90
636
 70
1
 10
443.15
 20
13.0
 10
263.0
 20
13.0
 10
263.0
 20
36.65320434854763
 10
264.99076641507554
 20
35.321737972329245
 10
265.13928880403955
 20
35.2174042100473
 10
265.43252567733094
 20
35.02942459977872
 10
267.15997853114266
 20
33.88692303483636
 10
268.12383097636405
 20
33.30685493397347
 10
269.18113976002246
 20
32.63476175083447
 10
270.75712903299313
 20
31.73533959448465
 10
271.20171678460804
 20
31.470788229086565
 10
271.53734430084444
 20
31.292002356711315
 10
273.22260033064686
 20
30.33802216025088
 10
275.13647776322364
 20
29.383468749112126
 10
275.2430860508783
 20
29.32728462600761
 10
275.35148867922896
 20
29.277101737271856
 10
277.2636858425583
 20
28.330127059514076
 10
278.92328659454915
 20
27.62206885929261
 10
279.2841720393087
 20
27.45657875349042
 10
279.7781249986232
 20
27.262071255695737
 10
281.3044780634192
 20
26.61429218935025
 10
282.3138307474455
 20
26.25538545886866
 10
283.3250175166414
 20
25.86021766712132
 10
285.20507414238637
 20
25.24684639193073
 10
285.3450775553432
 20
25.197201588405115
 10
285.41460791603595
 20
25.177276113850162
 10
287.3657426572686
 20
24.54395990365009
 10
288.3212731127387
 20
24.294328655745183
 10
289.38652149368716
 20
23.977618719955345
 10
291.0599280762168
 20
23.578963197501572
 10
291.40742730841635
 20
23.48434156140111
 10
292.5687433411106
 20
23.232175372566914
 10
293.4274014318553
 20
23.028631034233328
 10
293.6762225295206
 20
22.983736248385725
 10
295.44849614647774
 20
22.60198849048409
 10
296.20390734046714
 20
22.478859538606585
 10
297.46966658975026
 20
22.231545269806034
 10
298.64671589163356
 20
22.05866275565929
 10
299.4909308025674
 20
21.909448596434594
 10
301.02006362980626
 20
21.70778202488816
 10
301.51226164641315
 20
21.62938899483688
 10
303.3355934651746
 20
21.414577663488565
 10
303.5336347801898
 20
21.386303125878634
 10
305.15524895254924
 20
21.216780450900437
 10
305.55411110851196
 20
21.170898573761782
 10
305.60363397651577
 20
21.167037747061727
 10
307.57568743052764
 20
20.967561817058055
 10
307.84347925335595
 20
20.94947517067233
 10
309.5973027086554
 20
20.795277230987075
 10
310.04569740591455
 20
20.769453123448884
 10
311.61893523876336
 20
20.651115569743418
 10
312.2147768696202
 20
20.62248657172534
 10
313.6406095066808
 20
20.532731873160593
 10
314.35429502316225
 20
20.505021224860094
 10
315.66229742043146
 20
20.438284278900078
 10
316.4670545074388
 20
20.414247183555325
 10
317.68400941316696
 20
20.36634069199429
 10
318.55527336129984
 20
20.347952045794166
 10
319.7057257836714
 20
20.3158551525203
 10
320.62066133573444
 20
20.304424914507365
 10
321.727457568773
 20
20.286095128268904
 10
322.6645124260041
 20
20.282372884111837
 10
323.74918504186326
 20
20.27664940836584
 10
324.6877407884833
 20
20.28087972796078
 10
325.7709206886073
 20
20.287379271817585
 10
326.69096989546273
 20
20.29932069951696
 10
327.79264381085324
 20
20.31844007291012
 10
328.67447964356944
 20
20.33740808108587
 10
329.81435942382853
 20
20.370269103621048
 10
330.638317114398
 20
20.395097414000354
 10
331.8360698580295
 20
20.44361907816114
 10
332.5822139013244
 20
20.472650182254057
 10
333.8577564421015
 20
20.53955999502177
 10
334.5056453707662
 20
20.57058052279359
 10
335.8794282899852
 20
20.659545563952143
 10
336.40776867393294
 20
20.689727421358185
 10
337.90106597740015
 20
20.805450035025615
 10
338.2874387714417
 20
20.831219480354477
 10
339.9226779478949
 20
20.979661306597336
 10
340.1431438596171
 20
20.996564925429865
 10
341.9442429750531
 20
21.18515033354867
 10
341.972968915593
 20
21.187653326275445
 10
342.21679499277735
 20
21.216771592658347
 10
343.8018476142788
 20
21.37957987003565
 10
343.9646951540384
 20
21.400986982052032
 10
345.6112050859273
 20
21.590895294502147
 10
345.98607027008705
 20
21.646406462479504
 10
347.39499004849495
 20
21.82763374944112
 10
348.0073871413055
 20
21.929115209064932
 10
349.1507041600698
 20
22.092278521269577
 10
350.028644256221
 20
22.254271063274423
 10
350.87533149184566
 20
22.387815931689346
 10
352.0498144801487
 20
22.628258738834504
 10
352.5652230809808
 20
22.71786539297797
 10
354.0708989822694
 20
23.05905795304959
 10
354.21596073777016
 20
23.086813218478078
 10
354.7960823726438
 20
23.232140358376476
 10
355.86649381718286
 20
23.45645061144578
 10
356.0908412000439
 20
23.51514115361077
 10
357.5037521923148
 20
23.838681460212896
 10
358.1117362180848
 20
24.013174717836442
 10
359.10109980278025
 20
24.260538522360328
 10
360.1325097943915
 20
24.58516629354684
 10
360.6532072548269
 20
24.727307401082854
 10
362.1531523663764
 20
25.245213193655125
 10
362.15364867098356
 20
25.245361220824783
 10
362.15736180915894
 20
25.246769435129337
 10
363.6937742841858
 20
25.72565664537072
 10
364.173193375594
 20
25.90875488496534
 10
365.1864228135432
 20
26.251427815022325
 10
366.1937098535946
 20
26.67077239963247
 10
366.6262316875121
 20
26.829648754884424
 10
367.57756974711543
 20
27.261969942995734
 10
368.0405193231167
 20
27.435892347860005
 10
368.214016108323
 20
27.514196669682974
 10
369.470805923752
 20
28.023634128840676
 10
370.2344801397731
 20
28.39713334772597
 10
370.84685025391445
 20
28.665236684941505
 10
371.99933948831904
 20
29.27697454863278
 10
372.1773073004216
 20
29.355505579513476
 10
372.25506773460086
 20
29.396105076363185
 10
373.54404186467013
 20
30.00649387894039
 10
374.27554823726945
 20
30.418040363366877
 10
374.85505254805383
 20
30.712844753390335
 10
375.80873088922874
 20
31.291849507778196
 10
376.1326187833429
 20
31.456231256625927
 10
376.29642168559815
 20
31.55339788091868
 10
377.43573561272046
 20
32.17062770790952
 10
378.3169797510359
 20
32.73077751508831
 10
378.68167173763914
 20
32.94187391161739
 10
379.21660334593395
 20
33.30667754265619
 10
379.92935936206266
 20
33.715358426259726
 10
380.33812941946906
 20
33.98650049145321
 10
381.1695384924656
 20
34.492581583432525
 10
382.34421315547445
 20
35.32267707067641
 10
382.3542414860771
 20
35.32873528836828
 10
382.35936167367174
 20
35.33227115860176
 10
383.58619070926795
 20
36.11440069028619
 10
384.3802363736319
 20
36.69479140211195
 10
384.7645746219039
 20
36.953402451390886
 10
385.2610571285338
 20
37.33763076246733
 10
385.94562377674595
 20
37.79334362162666
 10
386.40170092446033
 20
38.137726576596094
 10
387.11838078411677
 20
38.63823187428332
 10
388.0192608731174
 20
39.35372871800256
 10
388.2579634752942
 20
39.51929311630528
 10
388.42320823475086
 20
39.64809110686316
 10
389.4234205411097
 20
40.371732361374185
 10
390.4444482310103
 20
41.20361425087471
 10
390.5384291737728
 20
41.27448474904591
 10
390.64939780155237
 20
41.36892993367657
 10
391.68756006786646
 20
42.146038619847914
 10
392.46615679733543
 20
42.79671560521859
 10
392.7977505912849
 20
43.05389560902768
 10
393.1796177475427
 20
43.38513042939125
 10
393.91654869732315
 20
43.95540099344271
 10
394.48787544822505
 20
44.44520403647532
 10
395.020475452989
 20
44.869800795666634
 10
395.6214857650359
 20
45.40132250187761
 10
396.114571205542
 20
45.79563358962527
 10
396.5095972232088
 20
46.14316764464082
 10
397.2110156409394
 20
46.717783514483976
 10
397.98658769665747
 20
47.41748982847332
 10
398.28459053666654
 20
47.66375976864176
 10
398.5313139705144
 20
47.88665050033614
 10
399.37243057277465
 20
48.594784105316926
 10
400.28324410948727
 20
49.433635970868096
 10
400.42858345124415
 20
49.55780151460183
 10
400.5530188534633
 20
49.67333732696532
 10
401.50671036283325
 20
50.49880333959283
 10
402.5172071005563
 20
51.44974864990044
 10
402.54763970189356
 20
51.47664692029761
 10
402.5747009178059
 20
51.50250102451283
 10
403.6149022844866
 20
52.428783648903824
 10
404.59701457053114
 20
53.37426520993976
 10
404.6455349534034
 20
53.41763973975547
 10
404.6953104937384
 20
53.46574675795597
 10
405.6971535084898
 20
54.38456264101034
 10
406.618839879353
 20
55.29356287716578
 10
406.71758909369424
 20
55.38391883517842
 10
406.81720884136905
 20
55.48191954533687
 10
407.75269673560985
 20
56.3668840987215
 10
408.6406300090298
 20
57.26562472090146
 10
408.7610943258411
 20
57.378592139176234
 10
408.8801930403222
 20
57.498040312909595
 10
409.77971883164287
 20
58.377535470419154
 10
410.662376346967
 20
59.29646926288096
 10
410.7738744128509
 20
59.403808708869995
 10
410.8815250930711
 20
59.51409171263533
 10
411.7751733723606
 20
60.41952231452503
 10
412.68406626243404
 20
61.39556998042812
 10
412.7523016132376
 20
61.46315837581929
 10
412.8160749050436
 20
61.53005377000718
 10
413.7343360924825
 20
62.497515101127846
 10
414.67662129494926
 20
63.54503327533524
 10
414.68871600866237
 20
63.5587680128207
 10
414.7038636968457
 20
63.57685707556509
 10
415.65021646785755
 20
64.61843207734655
 10
416.4650350839249
 20
65.56047551344855
 10
416.5821111794612
 20
65.70138162569657
 10
416.72509341564233
 20
65.88158018206846
 10
417.5124998441328
 20
66.79248937194706
 10
418.1598550455143
 20
67.5756840140781
 10
418.4148564949354
 20
67.90404321294938
 10
418.7461729101867
 20
68.3488596003663
 10
419.30573147894165
 20
69.03500037464764
 10
419.7409126047427
 20
69.59057091020289
 10
420.16745689471134
 20
70.1860469056952
 10
420.7670597206313
 20
71.05497809844863
 10
421.0061641683609
 20
71.36949590139628
 10
421.1789391002788
 20
71.6050061114461
 10
421.80925780290875
 20
72.57775379388127
 10
422.46083039878636
 20
73.61670610102004
 10
422.5713484428934
 20
73.82568282096742
 10
422.78429131924827
 20
74.24047846273157
 10
423.2897175242389
 20
75.1292620875714
 10
423.5662727022489
 20
75.62916985099943
 10
423.9390793496089
 20
76.48789813726594
 10
424.4264761839231
 20
77.63808663400573
 10
424.5101633218561
 20
77.9234758139749
 10
424.8009858067209
 20
78.93549456824128
 10
424.9752512706199
 20
79.47886318488092
 10
425.02824504602637
 20
79.6469400982533
 10
425.2752250394267
 20
81.18308540668039
 10
425.3499758085203
 20
81.65216106063032
 10
425.3419496946002
 20
83.12022007873205
 10
425.33999700126594
 20
83.65648230175368
 10
425.0220579821131
 20
85.44451208820087
 10
424.9844843096482
 20
85.66090201017332
 10
424.8017207050863
 20
86.17388089913088
 10
424.31977133819146
 20
87.6684985875173
 10
423.84766272455414
 20
88.6187969923579
 10
423.3284862199164
 20
89.67604171356129
 10
422.7872472540912
 20
90.48157491822597
 10
422.04080860460977
 20
91.68728178636397
 10
420.76826570431143
 20
93.29227927651628
 10
420.46679241699786
 20
93.69962571825069
 10
418.74910803861985
 20
95.5901179362959
 10
418.6439094638921
 20
95.71275679420347
 10
416.72978639157037
 20
97.58487656648417
 10
416.59174017738866
 20
97.72646405252878
 10
414.71031598287175
 20
99.38144343666178
 10
414.3174567919465
 20
99.7406309247408
 10
412.6907102530958
 20
101.03831048215804
 10
411.8193126999814
 20
101.75516287707107
 10
410.6709680039092
 20
102.59096812794037
 10
409.0893420402757
 20
103.77000199206724
 10
408.6510857779199
 20
104.06244974721751
 10
407.72730713374546
 20
104.69014462533572
 10
406.6277683443409
 20
105.44623478399639
 10
406.14232572514396
 20
105.78564691412014
 10
404.60776781534366
 20
106.75590227749242
 10
402.97596352654966
 20
107.8009354264432
 10
402.58757246282516
 20
108.02793330859319
 10
402.02750808601127
 20
108.35859265224181
 10
400.5643451411577
 20
109.23674954120611
 10
399.6078998569369
 20
109.81690222877235
 10
398.5439072579125
 20
110.41122084738019
 10
397.16994549781936
 20
111.18627668272592
 10
396.52067755781843
 20
111.55866233408
 10
396.0474833607075
 20
111.83306302225466
 10
394.49993426759664
 20
112.66690000184246
 10
392.65348341337597
 20
113.67370184773921
 10
392.4766788741978
 20
113.77162497221616
 10
392.3380337800423
 20
113.84944049045481
 10
390.4555916964423
 20
114.84002673281496
 10
388.536493085184
 20
115.86558139330357
 10
388.4342078455935
 20
115.91722223020354
 10
388.32631072867343
 20
115.97270175409552
 10
386.410862031873
 20
116.97079910475708
 10
384.6949549427709
 20
117.88236965309939
 10
384.3891256592457
 20
118.03725703089249
 10
384.0651357103137
 20
118.20506674063435
 10
382.3657749237949
 20
119.09381624423769
 10
380.8600394324774
 20
119.8993418823961
 10
380.343702133764
 20
120.16509203681245
 10
379.77677148151236
 20
120.46439015079667
 10
378.3203823992985
 20
121.23782430205748
 10
377.0735269467013
 20
121.91646748218807
 10
376.2980223202487
 20
122.32629560500713
 10
375.3959501767118
 20
122.81580898726361
 10
374.2747734824835
 20
123.42568091116965
 10
373.36356048138356
 20
123.93370555660871
 10
372.2521755783442
 20
124.54083989715278
 10
370.8621493635432
 20
125.31972430889496
 10
370.22904813933735
 20
125.67425620580632
 10
369.7458700553939
 20
125.95100558694108
 10
368.2062731179757
 20
126.82286662940214
 10
366.22815889024656
 20
127.96804369960306
 10
366.1833098788386
 20
127.99390092299097
 10
366.1201121848403
 20
128.03110396736548
 10
364.1604249623254
 20
129.1801641838225
 10
362.80972807276686
 20
129.98541041339655
 10
362.13738401002007
 20
130.38807034135473
 10
361.1046145337096
 20
131.0154003252935
 10
360.1147380330012
 20
131.6134029685192
 10
359.4763168943062
 20
132.00267731069266
 10
358.09168900252183
 20
132.85791163670905
 10
356.221131167606
 20
134.0198685681936
 10
356.0685617358009
 20
134.11654994637368
 10
355.8024825355911
 20
134.28540307530596
 10
354.04630644380916
 20
135.3923979520863
 10
353.0193633620392
 20
136.03693374402846
 10
352.0232311854402
 20
136.67975616826592
 10
350.228199155605
 20
137.82719643186465
 10
350.00133471413403
 20
137.97114650503806
 10
349.86913791533726
 20
138.05372264824814
 10
347.97838126354355
 20
139.27721903865427
 10
346.7250919676344
 20
140.0708443347859
 10
345.95541506808956
 20
140.57923343014596
 10
344.5242253126558
 20
141.4983499103854
 10
343.93407939001725
 20
141.87433555872707
 10
343.5880599755693
 20
142.08719508781536
 10
341.9112934765096
 20
143.17091493438966
 10
340.4050657690433
 20
144.10418974257277
 10
339.8885214842918
 20
144.44285118826485
 10
338.98253806414556
 20
145.00800777170747
 10
337.8678253225867
 20
145.69728091198613
 10
337.14369286875876
 20
146.12000060869536
 10
335.84528987340104
 20
146.92799364015974
 10
333.89711536922016
 20
148.06315712141281
 10
333.8250753144431
 20
148.10469922384954
 10
333.7675915430722
 20
148.1354684971884
 10
331.80280255959286
 20
149.26542554541243
 10
330.12675646814455
 20
150.15215427672342
 10
329.780536836597
 20
150.35064539957273
 10
329.36363038143907
 20
150.56850347615898
 10
327.7610953534549
 20
151.39466089842557
 10
326.099272324601
 20
152.16721891975868
 10
325.739103945083
 20
152.35046635414255
 10
325.403111467749
 20
152.50307063573308
 10
323.72017027523304
 20
153.25317805739883
 10
321.9229369703498
 20
153.95880200073856
 10
321.7014545605453
 20
154.04361025249983
 10
321.28842531284965
 20
154.18066596301531
 10
319.6799819872213
 20
154.77268945907207
 10
318.8141572071293
 20
155.04531256779995
 10
317.6616973599178
 20
155.39380677165423
 10
316.0328520505185
 20
155.8050834426749
 10
315.64350635186224
 20
155.89779084618112
 10
314.09556988904876
 20
156.19479690768912
 10
313.62252923182757
 20
156.29743364378515
 10
313.500506836777
 20
156.3182640457968
 10
311.60463789481514
 20
156.60447775080007
 10
311.1444747296856
 20
156.65486934053962
 10
309.58674317417785
 20
156.789809201045
 10
308.9593520559414
 20
156.82129790105097
 10
307.56877363966464
 20
156.85435186437746
 10
306.91307801861007
 20
156.8494533478521
 10
305.55071444919525
 20
156.7978596295929
 10
304.98322014636943
 20
156.76167687167998
 10
303.532548198979
 20
156.6185563087052
 10
303.15416720870263
 20
156.57350874930006
 10
301.51428078492876
 20
156.31274864959994
 10
301.41528028343055
 20
156.29554637915493
 10
300.95617522658074
 20
156.19477849771624
 10
299.72588924333013
 20
155.96432825689436
 10
299.49649661683054
 20
155.9120560073767
 10
298.0944430008568
 20
155.57889942952983
 10
297.4776265191132
 20
155.4040529573146
 10
296.5266095753388
 20
155.130097542212
 10
295.4586924214186
 20
154.76714645239628
 10
295.02145364941623
 20
154.61885810490372
 10
293.9206589388475
 20
154.1810572112799
 10
293.5601229623272
 20
154.0589396347521
 10
293.4392143189848
 20
154.01181021052787
 10
292.1057475402749
 20
153.49668669561953
 10
291.419769579796
 20
153.1924596942104
 10
290.7046659337798
 20
152.88134017677197
 10
289.40025830757577
 20
152.23025701863725
 10
289.3593917026209
 20
152.21041282308448
 10
289.28320081793197
 20
152.16794103369193
 10
287.9911058354269
 20
151.55668414005436
 10
287.3796681914406
 20
151.22955640337244
 10
286.6706250982189
 20
150.8606532693724
 10
285.4677711725129
 20
150.1520304414288
 10
285.39458776480853
 20
150.11492566241293
 10
285.3587902671343
 20
150.09463312315654
 10
284.0948489299886
 20
149.39787907996822
 10
283.338642996771
 20
148.93109532178192
 10
282.8417565567712
 20
148.63435126704474
 10
282.10006077248164
 20
148.1373871594356
 10
281.6041814617929
 20
147.84999905032254
 10
281.3173393807275
 20
147.66558148088382
 10
280.36470271500986
 20
147.0725790839419
 10
279.2969290034133
 20
146.33382229005701
 10
279.17083045204834
 20
146.2497011432037
 10
278.9997512731374
 20
146.12257325566185
 10
277.95247724932904
 20
145.4460153861936
 10
277.27530282666464
 20
144.96372724555994
 10
276.7670778475058
 20
144.6143759496153
 10
276.0980149383222
 20
144.10633899560514
 10
275.5917629490667
 20
143.76798070262691
 10
275.2536125936142
 20
143.5205978077512
 10
274.414684767807
 20
142.92776439372108
 10
273.3336215881344
 20
142.09008213352075
 10
273.272878248653
 20
142.04817524517506
 10
273.23189126530826
 20
142.01742020138227
 10
272.1040294325053
 20
141.1994724074944
 10
271.2108508370535
 20
140.49387173438834
 10
270.97310103580816
 20
140.31291832847958
 10
270.68640972458604
 20
140.07483488293482
 10
269.8279176721454
 20
139.43668277453054
 10
269.18891874946644
 20
138.92234151178204
 10
268.70218414828696
 20
138.54468226051517
 10
268.1242684540015
 20
138.05844748816986
 10
267.5809321870882
 20
137.64482977864864
 10
267.166972440275
 20
137.305445060313
 10
266.4606957194751
 20
136.74709586218103
 10
265.63357897106107
 20
136.04205947542502
 10
265.3589285570527
 20
135.82806615323818
 10
265.1450319138652
 20
135.64947942549773
 10
264.2444404509621
 20
134.92434723113695
 10
263.2038986667805
 20
134.02567392017184
 10
263.15866066229256
 20
133.98961193286476
 10
263.0
 20
133.85470911156148
 10
263.0
 20
182.04482384037993
 10
263.53278765636185
 20
182.0956669106833
 10
265.08819681389383
 20
182.32710296159763
 10
265.3011364606755
 20
182.34853385218742
 10
266.6545805689227
 20
182.5609323086896
 10
267.0504598882867
 20
182.61743953403982
 10
267.1070786368096
 20
182.6286619238955
 10
268.80557602754334
 20
182.88332654984498
 10
269.12891632941705
 20
182.95069210808373
 10
270.53707895731435
 20
183.17270960140542
 10
271.1507118204639
 20
183.30717074227977
 10
272.2421636099449
 20
183.48837534586255
 10
273.172454734477
 20
183.70298717601906
 10
273.9176004753535
 20
183.8335237193989
 10
275.19411863562993
 20
184.14400319807328
 10
275.5597538295066
 20
184.21176615227387
 10
276.97928120481004
 20
184.5764398156603
 10
277.168700636566
 20
184.62026256273407
 10
277.2125814564375
 20
184.63350024040216
 10
278.79106543353294
 20
185.01806061344263
 10
279.234076298077
 20
185.15865857332608
 10
280.37649701009036
 20
185.45255850532521
 10
281.2554630091029
 20
185.7466137597528
 10
281.92075939647987
 20
185.92796327528447
 10
283.2767505334567
 20
186.4073739130368
 10
283.4193459276635
 20
186.44873560913823
 10
283.7990059093131
 20
186.59104968435264
 10
284.91771255897163
 20
186.9675091210185
 10
285.29508103778187
 20
187.12580744784174
 10
286.3888729188402
 20
187.51548249971296
 10
287.3161832302407
 20
187.92594353099497
 10
287.81006536172185
 20
188.11305625087294
 10
288.86130024833375
 20
188.6056803030162
 10
289.1932810378296
 20
188.746770463857
 10
289.33459965661234
 20
188.81930374863072
 10
290.5793453177936
 20
189.3792710393755
 10
291.3555611304858
 20
189.79911998853498
 10
291.9116441803511
 20
190.0651371105797
 10
292.88143400669037
 20
190.61975860208423
 10
293.2042094498808
 20
190.78935642447618
 10
293.37411720754733
 20
190.89436217276153
 10
294.49414987847564
 20
191.51743444525783
 10
295.3949995298718
 20
192.1033296582308
 10
295.7285256219321
 20
192.30066417868534
 10
296.2130154759973
 20
192.63329857739183
 10
296.94376851689714
 20
193.10203986151072
 10
297.4137014434711
 20
193.448014339189
 10
298.1292983340104
 20
193.93403078876776
 10
299.0519670215328
 20
194.647459533688
 10
299.2706704170748
 20
194.80872600129476
 10
299.4324650896455
 20
194.94348581894928
 10
300.4006574628141
 20
195.69623174451925
 10
301.4535226905342
 20
196.6125883050176
 10
301.47984774020654
 20
196.634238805417
 10
301.50828130170373
 20
196.66013606241023
 10
302.54519922303984
 20
197.58456028230108
 10
303.47248611516545
 20
198.49566395935005
 10
303.56478503931066
 20
198.58225428738893
 10
303.65420011379734
 20
198.6735933405103
 10
304.5583483226437
 20
199.60349785241658
 10
305.49149968948007
 20
200.64535171743287
 10
305.5119447574683
 20
200.6673535753729
 10
305.52865619830163
 20
200.68660930200193
 10
306.4276257817222
 20
201.7654207025022
 10
307.156130239715
 20
202.69991404903564
 10
307.30291682072806
 20
202.90238868382286
 10
307.50764410461454
 20
203.20420216099902
 10
308.13062757500126
 20
204.09258041939697
 10
308.5434975562955
 20
204.71147512290926
 10
308.9058410715156
 20
205.32812500623746
 10
309.52658476880356
 20
206.43953458949412
 10
309.6308029029425
 20
206.62135939924227
 10
309.68685717941537
 20
206.7221725766763
 10
310.2633067115961
 20
207.99783968467491
 10
310.5847811789263
 20
208.73172785312036
 10
310.8143448060789
 20
209.45396442889606
 10
311.20884713479336
 20
210.73950460171963
 10
311.25672609901403
 20
211.01733553653875
 10
311.53981757888886
 20
212.74503009292496
 10
311.56121914020537
 20
214.73470280264488
 10
311.5614054642135
 20
214.75018562021708
 10
311.54021646871456
 20
214.88306221626547
 10
311.2550385238982
 20
216.7553172917999
 10
311.1232206767488
 20
217.16807449877908
 10
310.6095056309813
 20
218.7609306528541
 10
309.6943307583124
 20
220.603537825012
 10
309.6122470320287
 20
220.7681469603758
 10
309.5291110261204
 20
220.89076167046787
 10
308.3349897778124
 20
222.77933087607104
 10
307.5099012397929
 20
223.81318488308776
 10
306.78591614129954
 20
224.79237520218848
 10
305.489925122283
 20
226.24739599625858
 10
305.0298199314651
 20
226.80664701828587
 10
303.46928754270294
 20
228.43282819057035
 10
303.12463669927985
 20
228.82176196030642
 10
301.44814511704476
 20
230.48294740086564
 10
301.11722267841753
 20
230.83741638375793
 10
299.4265944224666
 20
232.45731920240152
 10
299.04295307957136
 20
232.85346444018066
 10
297.404752538544
 20
234.3894491633291
 10
296.92749255449667
 20
234.86975938654123
 10
295.38271116823444
 20
236.29915011517764
 10
294.78885990113315
 20
236.88623815313898
 10
293.3604965902882
 20
238.19847811892336
 10
292.63935633890765
 20
238.90286443999477
 10
291.33816530541606
 20
240.09498021282062
 10
290.48733528891626
 20
240.91957158571884
 10
289.31574666969163
 20
241.99346310865494
 10
288.3383255221855
 20
242.93636513007314
 10
287.2932781367507
 20
243.89700403790525
 10
286.1959741738532
 20
244.95319713948513
 10
285.27074402318067
 20
245.80766676154914
 10
284.0626581977846
 20
246.9700862405637
 10
283.2481709794409
 20
247.7268420093907
 10
281.9399846134697
 20
248.9869934153319
 10
281.22556608326886
 20
249.65554315369528
 10
279.82906129312903
 20
251.003943801593
 10
279.2029508030017
 20
251.59460837215576
 10
277.59744643399563
 20
253.15
 10
376.0148709708748
 20
253.15
 10
375.34676207642235
 20
252.06568118209807
 10
374.6813144283839
 20
251.01998386205648
 10
374.5740011634254
 20
250.82446449707587
 10
374.37592801778055
 20
250.47828654502084
 10
373.8330365186483
 20
249.54390835793097
 10
373.5049519620708
 20
249.00492467069975
 10
373.1204204943932
 20
248.24350702597107
 10
372.44986474335144
 20
246.99233600673242
 10
372.4233199339559
 20
246.92882129643712
 10
372.3567498583363
 20
246.78144192256812
 10
371.7883444690304
 20
245.54164332139945
 10
371.507790601789
 20
244.9782390901863
 10
371.198743291969
 20
244.12081087837137
 10
370.7343889393153
 20
242.96778483395784
 10
370.65630382366226
 20
242.65433556178394
 10
370.3379367661978
 20
241.5693326513409
 10
370.1960012164574
 20
241.09208548053383
 10
370.1482401158698
 20
240.9553458521419
 10
369.88241722709535
 20
239.39874625608613
 10
369.7813936650674
 20
238.94807569464254
 10
369.744016051487
 20
237.53181369054855
 10
369.69705629773307
 20
236.94272923436537
 10
369.9169873854606
 20
235.35454169144933
 10
369.9533470339808
 20
234.93887847348057
 10
370.33733088848487
 20
233.76659529297936
 10
370.6052479136449
 20
232.9372720039071
 10
370.9532285879686
 20
232.3233787877285
 10
371.7018531809226
 20
230.93171665908434
 10
372.3472131948992
 20
230.12802948582166
 10
373.2934176835638
 20
228.92386055882176
 10
374.3631707827196
 20
227.9016306128532
 10
375.3677137572355
 20
226.91283644831597
 10
376.38044954370633
 20
226.11337050578405
 10
377.8603600677759
 20
224.89971931784098
 10
378.3990512575068
 20
224.5295247543256
 10
379.7394392947851
 20
223.56465436557212
 10
380.4232458229419
 20
223.06605525008476
 10
380.66144608197453
 20
222.8839581736007
 10
382.4432028822412
 20
221.69683492622127
 10
383.6218936063661
 20
220.86859377035395
 10
384.4639863008667
 20
220.34073773915216
 10
386.05124421469293
 20
219.2866101521175
 10
386.48831550176726
 20
218.9939226704034
 10
386.6897422619984
 20
218.85141930365714
 10
388.509776206736
 20
217.67568339245767
 10
389.7393014281649
 20
216.8351283475615
 10
390.5317059319311
 20
216.33284579830078
 10
392.0725379768194
 20
215.299069956397
 10
392.5558164224478
 20
214.97394046603372
 10
392.77668923387057
 20
214.8174846300591
 10
394.5780236496777
 20
213.6154426671021
 10
395.7399356482854
 20
212.80076038926163
 10
396.60047425347517
 20
212.22598878053063
 10
398.53189103549926
 20
210.87497784053292
 10
398.6241655810479
 20
210.81047641738317
 10
398.66179690360025
 20
210.7831049448276
 10
400.64664201199855
 20
209.39212573609436
 10
401.509025255613
 20
208.76624757921982
 10
402.6692093981168
 20
207.94809214377293
 10
404.3198394446456
 20
206.74935492278846
 10
404.69182865786877
 20
206.484850695574
 10
405.67333630667656
 20
205.77065289808175
 10
406.7147978374959
 20
205.0145797965652
 10
407.09766358173346
 20
204.73213866253516
 10
408.73722214038776
 20
203.53964977776698
 10
409.86034495217893
 20
202.7153854044528
 10
410.75958542576154
 20
202.0608702198377
 10
412.6282557319569
 20
200.6986561673751
 10
412.7819254506926
 20
200.58696762335197
 10
413.1883548720019
 20
200.29342891318615
 10
414.80404191477874
 20
199.12934490410277
 10
415.43281890948947
 20
198.68234658075193
 10
416.8260402544654
 20
197.69088972992
 10
418.29773252800373
 20
196.6659103560787
 10
418.84792341571404
 20
196.28069581510874
 10
420.06078950277106
 20
195.4565360376845
 10
420.8693679073791
 20
194.9083530044618
 10
421.2642848130789
 20
194.65031340464077
 10
422.8908890122593
 20
193.57888418697536
 10
424.39171998018276
 20
192.63416959098265
 10
424.91227930344303
 20
192.30260880243526
 10
425.7545439724344
 20
191.79432427401008
 10
426.93307148794986
 20
191.08445048093637
 10
427.75404506956124
 20
190.61912262245238
 10
428.9541241728043
 20
189.9291117148382
 10
430.45178803559907
 20
189.12563412192304
 10
430.9745492356964
 20
188.84570706054092
 10
431.4610809114446
 20
188.60425611090966
 10
432.9953365076026
 20
187.8296623139624
 10
434.448047697814
 20
187.15543692235747
 10
435.01548861612
 20
186.89263504511104
 10
435.73255771408344
 20
186.589340103918
 10
437.0361265939706
 20
186.02649910666094
 10
437.96469551635494
 20
185.66302604995036
 10
439.0561358522459
 20
185.23709076143007
 10
440.9413147082013
 20
184.5742294288517
 10
441.0767754849743
 20
184.52539897936083
 10
441.1484231081978
 20
184.502262310219
 10
443.15
 20
183.85943070758123
 10
443.15
 20
13.0
  0
LWPOLYLINE
  5
92
330
17
100
AcDbEntity
  8
GRABADO
100
AcDbPolyline
 90
153
 70
1
 10
408.3519036590766
 20
45.687723999700864
 10
408.64164930200684
 20
45.972552372938964
 10
409.40403417018547
 20
46.65500214549301
 10
410.1725647650584
 20
47.415536896225944
 10
410.4337966107928
 20
47.64594462656057
 10
410.66459555940014
 20
47.86900426906463
 10
411.49784828372293
 20
48.60183665600354
 10
412.36024830140525
 20
49.432779504898754
 10
412.5345692425821
 20
49.58530001817544
 10
412.6875233928098
 20
49.73080634733321
 10
413.61115303397014
 20
50.5291913057473
 10
414.59146764730474
 20
51.450001157822875
 10
414.6549307148359
 20
51.505092824831436
 10
414.71044134877707
 20
51.5571140520563
 10
415.7450282857573
 20
52.4360142783398
 10
416.73362944089286
 20
53.341862548740366
 10
416.80313748132073
 20
53.39922230491078
 10
416.88045620983087
 20
53.46796670548536
 10
417.9016648040692
 20
54.3201468047797
 10
418.7568544398217
 20
55.08460640464123
 10
418.98014695350776
 20
55.2636136729694
 10
419.2387965993188
 20
55.48542596915848
 10
420.0846110520984
 20
56.17807706634894
 10
420.78011755564467
 20
56.78429429534346
 10
421.18572593790896
 20
57.099588635958845
 10
421.6739836248394
 20
57.502909857632744
 10
422.2991579066827
 20
58.00456080788051
 10
422.8034401802338
 20
58.43263783414274
 10
423.42631085161383
 20
58.900775643821405
 10
424.20706436685475
 20
59.52043329681783
 10
424.55309042892014
 20
59.7918748928305
 10
424.82685737095983
 20
60.01774712446044
 10
425.7113753371188
 20
60.657792547670326
 10
426.85191572603156
 20
61.524098505237255
 10
426.86280598142434
 20
61.53124570217968
 10
426.8756797182655
 20
61.54009508797102
 10
428.0549492055419
 20
62.35672615258439
 10
428.87604646462194
 20
62.95010234363815
 10
429.25486394653797
 20
63.182777806464784
 10
429.84181302565946
 20
63.558108134460575
 10
430.4784785738352
 20
63.97630853829302
 10
430.9005050331374
 20
64.26392426905258
 10
431.74178477623724
 20
64.74026281973624
 10
432.9276593257114
 20
65.4351115365161
 10
433.0279879376983
 20
65.48226526222204
 10
433.22771291418064
 20
65.57913036179411
 10
434.3674577539326
 20
66.16017278376262
 10
434.95369963449235
 20
66.46752406886668
 10
435.7655420146112
 20
66.79200601169939
 10
436.9829976883466
 20
67.29075346314127
 10
437.22769458481775
 20
67.3606196365468
 10
438.0510459343724
 20
67.60056464433511
 10
438.77790288437967
 20
67.8291162450293
 10
439.0117572478624
 20
67.90388022230717
 10
440.46727596926564
 20
68.17250289778251
 10
441.0436433964426
 20
68.2798604713087
 10
442.3250758235072
 20
68.34760000364932
 10
443.15
 20
68.39020512038516
 10
443.15
 20
15.206940758712932
 10
442.8835991771396
 20
15.207544744416907
 10
441.0522290229534
 20
15.20960693513581
 10
440.8574641067702
 20
15.210940942389819
 10
439.0294981986883
 20
15.217210521846411
 10
438.8261115093851
 20
15.219539401305767
 10
437.00676522548747
 20
15.230007669492707
 10
436.7893747644297
 20
15.233505338190767
 10
434.9840292854777
 20
15.248138785417687
 10
434.7470271638034
 20
15.253063812121482
 10
432.9612883684199
 20
15.271809434132173
 10
432.69876320154344
 20
15.27851773025376
 10
430.9385429746654
 20
15.301299034679111
 10
430.6441968257551
 20
15.310252687001416
 10
428.91579018384334
 20
15.336939881563836
 10
428.5828646481393
 20
15.348727255114959
 10
426.893029224433
 20
15.379186551469935
 10
426.5141560542801
 20
15.394550417132656
 10
424.8702581231332
 20
15.428569517358582
 10
424.4373662263124
 20
15.448422560567693
 10
422.84747462562905
 20
15.485745730916669
 10
422.35160477629205
 20
15.511230630213504
 10
420.8246798351346
 20
15.55150234137168
 10
420.25581999450816
 20
15.58402214555079
 10
418.8018665195874
 20
15.626811057616983
 10
418.1486869392507
 20
15.668113599669155
 10
416.7790342407916
 20
15.712842387405765
 10
416.028601695401
 20
15.76510334592232
 10
414.75617962073414
 20
15.811023252238677
 10
413.8935768925618
 20
15.876971078545097
 10
412.73330098962856
 20
15.9230983670206
 10
411.7411430625599
 20
16.006174982280157
 10
410.71038893823174
 20
16.051232445624464
 10
409.56815993802064
 20
16.155840814190604
 10
408.6874404036259
 20
16.19811925448571
 10
407.37065724020243
 20
16.329923781229063
 10
406.664447838923
 20
16.36714248435092
 10
405.1434870698484
 20
16.53355055671708
 10
404.6414021176607
 20
16.562619755521702
 10
402.87989067381693
 20
16.773453301760618
 10
402.61829163743437
 20
16.790114577987957
 10
400.75545811438093
 20
17.03444230140545
 10
400.5871711024149
 20
17.063282052254394
 10
400.5482083982356
 20
17.07354912565625
 10
398.5628512800828
 20
17.45636144809547
 10
397.96242275978733
 20
17.633775076282397
 10
396.5381893187409
 20
17.945362111008613
 10
395.1658631262278
 20
18.40396548103316
 10
394.5130757048664
 20
18.567832394313562
 10
393.2295818818442
 20
19.058396059121655
 10
392.4669258400604
 20
19.569763063352994
 10
390.7731258009831
 20
21.101330597518242
 10
390.4178411871919
 20
22.406393211088336
 10
390.2534942425876
 20
23.166966266544364
 10
390.30844951956874
 20
23.291912868017675
 10
390.41752523934474
 20
23.829945741886007
 10
390.68437968751766
 20
24.918832795469527
 10
390.69552418422353
 20
25.197531698039157
 10
391.34349478272594
 20
26.306223232560306
 10
391.6781931351404
 20
27.23026652733943
 10
392.02867598403475
 20
27.65773423919233
 10
392.4500879235635
 20
28.36224954565494
 10
392.8110925627909
 20
28.885439112567873
 10
392.98820272501496
 20
29.25131828611589
 10
393.6853536631814
 20
30.044098582438707
 10
394.4748779433952
 20
31.20937513130479
 10
394.4998263833789
 20
31.24172114325966
 10
394.5169172986625
 20
31.27113415842358
 10
395.4709705164905
 20
32.300741640798385
 10
396.2072496277682
 20
33.292809880637705
 10
396.35926149060487
 20
33.43880145726539
 10
396.50277307503075
 20
33.60460590047895
 10
397.3408053182402
 20
34.472640723978316
 10
398.00817396006414
 20
35.31077413238902
 10
398.2756151722639
 20
35.562941469074474
 10
398.52616892460344
 20
35.84134384799452
 10
399.2691662686608
 20
36.58564666014709
 10
399.8950519020159
 20
37.32851526059386
 10
400.23484623315494
 20
37.64406702897702
 10
400.54942700995963
 20
37.98251104977193
 10
401.2404243251439
 20
38.65549807360492
 10
401.8502176508481
 20
39.346096102715606
 10
402.2273432961552
 20
39.69182354687464
 10
402.57257720866755
 20
40.053250090107845
 10
403.24473143371074
 20
40.69211664241473
 10
403.86181472219585
 20
41.363563362631936
 10
404.2467979405583
 20
41.71255924117543
 10
404.5956540926634
 20
42.06926635493751
 10
405.2757990443232
 20
42.70185061410453
 10
405.9221383303081
 20
43.38094414036591
 10
406.2891500566048
 20
43.71035309222581
 10
406.61867268438414
 20
44.04037046848947
 10
407.32966680005643
 20
44.6887013749578
 10
408.0264722635515
 20
45.39826613288546
 10
408.3519036590766
 20
45.687723999700864
  0
LWPOLYLINE
  5
93
330
17
100
AcDbEntity
  8
GRABADO
100
AcDbPolyline
 90
379
 70
1
 10
367.6726136121897
 20
251.63988957685146
 10
367.16707352254434
 20
251.01289909795807
 10
366.80026751549843
 20
250.4966861458157
 10
366.2807803386122
 20
249.80714824481853
 10
365.927531814915
 20
249.34626192158518
 10
365.6421502927832
 20
248.99613375832942
 10
365.0743100814684
 20
248.18454592869622
 10
364.25830122510456
 20
247.10267729721815
 10
364.20362616886393
 20
247.03132809053395
 10
364.160524216691
 20
246.9792821735056
 10
363.3769745888837
 20
245.84370824794436
 10
362.7108604006402
 20
244.96569729624483
 10
362.5351359329385
 20
244.67259336661076
 10
362.23818678490676
 20
244.23246206856223
 10
361.715809872362
 20
243.46658380318112
 10
361.3184603728712
 20
242.94917283332845
 10
360.91634949939464
 20
242.2541431003926
 10
360.2158380177639
 20
241.21164931884843
 10
360.10142244612894
 20
241.0425108139569
 10
360.01517815544804
 20
240.93251141257568
 10
359.3660251340538
 20
239.76729486255962
 10
358.79635044532716
 20
238.92171459444788
 10
358.6229766767435
 20
238.5024324052205
 10
358.1972810710268
 20
237.71067709643287
 10
357.9144754508602
 20
237.18177411969927
 10
357.7264604413278
 20
236.90607605781858
 10
357.3158402273137
 20
235.77521103536876
 10
356.86148370156803
 20
234.90034285267373
 10
356.7752380633904
 20
234.31565911992212
 10
356.3405017769479
 20
232.90053876950404
 10
356.36260862463075
 20
232.7328613076497
 10
356.3288573988996
 20
230.90750868549722
 10
356.47207708558244
 20
230.62700033637063
 10
357.15795344274403
 20
228.91655708969844
 10
358.181676867119
 20
227.95088901485227
 10
359.35708827402124
 20
226.91854042902665
 10
360.1881544797502
 20
226.4729375074343
 10
361.0945764253261
 20
226.01954805714027
 10
362.21226616615434
 20
225.3924251163248
 10
363.1113675629707
 20
224.90776228713045
 10
364.22613493756137
 20
224.46221634179253
 10
364.9637337689097
 20
224.17466536093755
 10
366.2512591321906
 20
223.60790235264946
 10
367.8789755040837
 20
222.89264926711652
 10
368.2688874507731
 20
222.75398212943847
 10
368.49007665527415
 20
222.6737948919783
 10
370.29430934863274
 20
221.9508269422786
 10
371.9106373027971
 20
221.28132755379593
 10
372.3195544265248
 20
221.09914878163275
 10
372.80187449873114
 20
220.874968918346
 10
374.33952534401226
 20
220.25981550010633
 10
375.41494148606154
 20
219.8038181083406
 10
376.3648066124979
 20
219.37962199369989
 10
377.4642753300164
 20
218.85773629697835
 10
378.38598313469
 20
218.46859860262177
 10
379.10375473822836
 20
218.1429560001824
 10
380.4111600593591
 20
217.52966226184358
 10
381.7815120400147
 20
216.84008166526266
 10
382.43313359129485
 20
216.54105633597945
 10
383.0303085419055
 20
216.24531277485258
 10
384.4581113043089
 20
215.52425956048526
 10
385.75224134412
 20
214.82213293455052
 10
386.48059002745237
 20
214.45452644475873
 10
387.2914810986267
 20
214.01401689053026
 10
388.50529122902236
 20
213.3479191731922
 10
389.4317727248101
 20
212.80399933815468
 10
390.52806880667805
 20
212.19541998190053
 10
392.03506073924007
 20
211.30154897393967
 10
392.55243598637094
 20
210.99337337865032
 10
392.88075445349847
 20
210.78584076269752
 10
394.57534329402637
 20
209.75913134828548
 10
396.1211411784092
 20
208.76869699680904
 10
396.5984116054156
 20
208.47273643992733
 10
397.45777922516277
 20
207.91182325072558
 10
398.6222435315756
 20
207.15184205571214
 10
399.21068637202393
 20
206.75063918544978
 10
400.6452333226199
 20
205.7945485550097
 10
402.17833391622383
 20
204.73345494266377
 10
402.6682549461441
 20
204.39948079707605
 10
403.8040556529763
 20
203.60080708465247
 10
404.69146806827985
 20
202.97777191503135
 10
405.05591681409436
 20
202.71581846700164
 10
406.7142777485894
 20
201.53344791016295
 10
407.8662577422678
 20
200.69877546226294
 10
408.73703806571746
 20
200.06923636352062
 10
410.64032393508256
 20
198.6817918052634
 10
410.7597208493587
 20
198.59447945259905
 10
411.08800872617985
 20
198.35438621503584
 10
412.78204667710895
 20
197.11736986002558
 10
413.4059733210473
 20
196.6650661416495
 10
414.80439469391376
 20
195.6439632800052
 10
416.1894224778937
 20
194.64838394708056
 10
416.8266211517268
 20
194.18507724776873
 10
418.4378239533479
 20
193.04172804461916
 10
418.84825559811645
 20
192.75082013147608
 10
419.0205422559992
 20
192.63248439421238
 10
420.87010722921343
 20
191.34391305423338
 10
421.95749830876616
 20
190.616144199414
 10
422.8918118897092
 20
189.9795468667395
 10
424.71937853399095
 20
188.79375489838748
 10
424.91277013785214
 20
188.66833440580643
 10
425.0226417739085
 20
188.60094272063225
 10
426.9341099558693
 20
187.40451234061482
 10
428.3306862152494
 20
186.58485677230544
 10
428.9553204262896
 20
186.20937774851257
 10
429.8118668051085
 20
185.73066690234833
 10
430.97569512772
 20
185.07978344839694
 10
431.9623856265264
 20
184.5700158966476
 10
432.99663389207353
 20
184.02110957654224
 10
434.07094126684547
 20
183.49853172384394
 10
435.0167452601609
 20
183.03801549341188
 10
436.10523928403484
 20
182.5551409318258
 10
437.03753573852066
 20
182.1286965408168
 10
437.768098861618
 20
181.82627936004832
 10
439.05751943658504
 20
181.29218168072907
 10
441.07418479584294
 20
180.54007664792857
 10
441.07832277834456
 20
180.5384778034766
 10
441.0800039544986
 20
180.53789562239928
 10
443.15
 20
179.82190121438566
 10
443.15
 20
96.5432742691463
 10
442.26059812656547
 20
96.50404558332652
 10
441.05103092204604
 20
96.46684042445308
 10
440.2071541952338
 20
96.52653880926826
 10
439.0202064164998
 20
96.62611013711401
 10
437.86833195805207
 20
96.83503264637191
 10
436.99005303700557
 20
97.00549436112624
 10
435.1351145502196
 20
97.53828247015724
 10
434.9607655137738
 20
97.5904543428081
 10
434.6516258058082
 20
97.71033505443567
 10
432.93654995535945
 20
98.28703018456608
 10
431.95854189667847
 20
98.68432719937691
 10
430.90936673271943
 20
99.12276610759285
 10
429.6544018669242
 20
99.7293828744805
 10
428.8868621686347
 20
100.05620063778152
 10
428.257382893417
 20
100.35610652950683
 10
426.8610779895224
 20
101.03776195433443
 10
425.5338078413016
 20
101.74753915596419
 10
424.8395354906572
 20
102.07848640026359
 10
424.15642772784133
 20
102.42782862945727
 10
422.81468278150476
 20
103.13037779988841
 10
421.6712809008985
 20
103.7649317326754
 10
420.79371572023683
 20
104.20314753835723
 10
419.8708225140342
 20
104.6843672652541
 10
418.7694904124336
 20
105.27285636256887
 10
417.8508076202953
 20
105.78177075634929
 10
416.74885868665876
 20
106.33540043977374
 10
415.5989029701142
 20
106.92766117121977
 10
414.72504785644287
 20
107.38971058949635
 10
413.96831239896807
 20
107.79826383670195
 10
412.70458149637193
 20
108.42148799741088
 10
411.4510525140559
 20
109.04747799878193
 10
410.6810255937612
 20
109.44310070186131
 10
409.96587873849955
 20
109.81459160180532
 10
408.660572452442
 20
110.43824878988775
 10
407.45237332686617
 20
111.01865642087985
 10
406.6371488230759
 20
111.4222887851613
 10
405.8166495536292
 20
111.83089692495471
 10
404.6165804978684
 20
112.38442564588213
 10
403.57982024569026
 20
112.86406424735671
 10
402.59319689362343
 20
113.33486554743713
 10
401.5245060390627
 20
113.84728250010289
 10
400.57240738116184
 20
114.27317702831539
 10
399.79379505215013
 20
114.62308598573915
 10
398.54900236549827
 20
115.19965226173669
 10
397.1255573751699
 20
115.86380568370895
 10
396.5279007653387
 20
116.12595123472997
 10
396.0540544033987
 20
116.33576488754727
 10
394.5044416568646
 20
117.04117338555842
 10
392.683220774985
 20
117.88051767458677
 10
392.48297997828456
 20
117.96797177158888
 10
392.32405025596836
 20
118.03851032739745
 10
390.4594613070573
 20
118.88581221956616
 10
388.5778089177704
 20
119.75689415208862
 10
388.4359741190277
 20
119.82384186056638
 10
388.2822233668386
 20
119.89791218461498
 10
386.4140574054259
 20
120.75938245176573
 10
384.7711587263819
 20
121.53582728027432
 10
384.39054902682824
 20
121.71834162964161
 10
383.99067073118334
 20
121.91503733087164
 10
382.3682755772014
 20
122.68575039943005
 10
380.8508216097905
 20
123.42794497256567
 10
380.344776616661
 20
123.67782785251414
 10
379.84400812995705
 20
123.93233394387903
 10
378.32218510067503
 20
124.68610497609055
 10
376.77089053923237
 20
125.47908714512123
 10
376.29875028763325
 20
125.72163147549297
 10
375.86774690378695
 20
125.94977096863468
 10
374.27589062809324
 20
126.77850443928251
 10
372.47423799333654
 20
127.74628979645145
 10
372.25256689140303
 20
127.86549793311248
 10
372.0685870423325
 20
127.96730466692514
 10
370.2295057973464
 20
128.9774025508713
 10
368.44739992056793
 20
129.98449642551265
 10
368.2062573602917
 20
130.1207529528483
 10
367.87919170323573
 20
130.3107200755175
 10
366.18314753283664
 20
131.29298154525145
 10
364.9868267354216
 20
132.00215835617593
 10
364.15980203021275
 20
132.49677363750357
 10
362.8803709198131
 20
133.27816224651144
 10
362.13692923164876
 20
133.73014881213965
 10
361.6681617084366
 20
134.01974978421885
 10
360.1135513377728
 20
134.99720896035478
 10
358.48006625381583
 20
136.03716922871246
 10
358.090072009374
 20
136.2917117192316
 10
357.3403653948079
 20
136.785071349063
 10
356.0676046568968
 20
137.6179290340247
 10
355.40189448539536
 20
138.05461887502625
 10
354.0441842737594
 20
138.97531424102579
 10
352.4223437952613
 20
140.0720931065533
 10
352.0207015160806
 20
140.3549383558708
 10
351.0758910658953
 20
141.01464658495235
 10
349.99873645961617
 20
141.76245979360635
 10
349.52100326248046
 20
142.08921514687376
 10
347.9753843925608
 20
143.19888211854806
 10
346.6836569645901
 20
144.1066474791631
 10
345.952017493103
 20
144.6503953101531
 10
343.9744901188156
 20
146.07905906391034
 10
343.930624391254
 20
146.11057471123786
 10
343.9123411005097
 20
146.12325589648526
 10
341.90742929596854
 20
147.60547793796007
 10
341.1520465159415
 20
148.1405950212848
 10
339.8842331318979
 20
149.10552851554377
 10
338.4298989321357
 20
150.15794023221025
 10
337.86101412009174
 20
150.60399519352438
 10
336.1318456810436
 20
151.8827527417896
 10
335.84048877147734
 20
152.09711664714615
 10
335.7291301013759
 20
152.17379672508292
 10
333.8174656531826
 20
153.6131119539313
 10
332.9904182657385
 20
154.19100862442497
 10
331.7944011684377
 20
155.11413916400068
 10
330.25382883471286
 20
156.20829304478838
 10
329.7712428372554
 20
156.5912797783082
 10
328.3711261840361
 20
157.6050876948953
 10
327.75170579759975
 20
158.0510267473312
 10
327.48692611836
 20
158.2234315211776
 10
325.728639223917
 20
159.52102221305097
 10
324.641270855078
 20
160.24074399002046
 10
323.7053141847726
 20
160.9547438615188
 10
321.78533166757984
 20
162.25828701570816
 10
321.68159820656496
 20
162.3411858385661
 10
321.39982530237455
 20
162.54027034783894
 10
319.6630562775878
 20
163.75641471946318
 10
318.8203290404497
 20
164.27334410319912
 10
317.638825747474
 20
165.15445765391576
 10
315.89132620856054
 20
166.29176242812918
 10
315.61344944469346
 20
166.5209684392815
 10
314.7936857701341
 20
167.1109680035948
 10
313.59544081790307
 20
167.96009846250234
 10
313.0289194060581
 20
168.30816962863167
 10
311.56778249710453
 20
169.54232723293666
 10
310.5015042351747
 20
170.33061707689382
 10
309.5364296904977
 20
171.45125963416922
 10
308.65819106157414
 20
172.36037931927473
 10
307.98728568843853
 20
173.90349140199334
 10
307.74523656960673
 20
174.40117784780972
 10
307.68840711757
 20
176.23775457197087
 10
307.66604178276737
 20
176.44265382886311
 10
308.07416808459243
 20
177.89405703176158
 10
308.18457908270597
 20
178.47802498096627
 10
308.64582944257415
 20
179.36092420228454
 10
309.13206326138106
 20
180.50667779048956
 10
309.29811334698104
 20
180.741512130221
 10
309.5273086986821
 20
181.118329203447
 10
310.0401112173312
 20
182.00958496649378
 10
310.30115161109813
 20
182.5257088353892
 10
310.8230438406172
 20
183.2561444197799
 10
311.5507611640947
 20
184.38186121584158
 10
311.6106334066199
 20
184.48048413208738
 10
311.6461978427981
 20
184.54384531928878
 10
312.4496642275717
 20
185.66859850643124
 10
313.05131839495357
 20
186.56469215192863
 10
313.2848024719214
 20
186.85824726808016
 10
313.5762961042276
 20
187.243758086904
 10
314.1314321488958
 20
188.02561478145452
 10
314.5140037764806
 20
188.58140052243186
 10
314.98680562658654
 20
189.19381334860054
 10
315.5986457869407
 20
190.00481022770992
 10
315.84324971509784
 20
190.3524145062899
 10
316.0153455724382
 20
190.5980249487361
 10
316.70327662742363
 20
191.51490394167672
 10
317.53126829061966
 20
192.61637628459113
 10
317.5714692353115
 20
192.66801436402523
 10
317.6219377192501
 20
192.73236507439458
 10
318.4247103450766
 20
193.83120470999899
 10
319.0251441325907
 20
194.63254077479644
 10
319.2897993424433
 20
194.98662632555266
 10
319.6439584865708
 20
195.44615993881354
 10
320.1450370468058
 20
196.14868254207698
 10
320.51926613205933
 20
196.64880119360424
 10
320.99876804646794
 20
197.31477011031353
 10
321.66606653401686
 20
198.19299321073123
 10
321.8604783786077
 20
198.47120036127973
 10
322.0058853962797
 20
198.66515347942504
 10
322.69535756407026
 20
199.65545512111294
 10
323.467279847586
 20
200.68160735815886
 10
323.5560538512746
 20
200.81277804572719
 10
323.6878843528286
 20
200.99158181622474
 10
324.3773028059458
 20
202.0110082245345
 10
324.8914860767713
 20
202.69774207164212
 10
325.2123522709812
 20
203.1932540465173
 10
325.70994675186887
 20
203.87979357727525
 10
326.04256218439724
 20
204.38349408196845
 10
326.2904967681864
 20
204.71402379704475
 10
326.8419824433069
 20
205.60058480960848
 10
327.6509579848215
 20
206.7288155696393
 10
327.6789554305061
 20
206.77855583451682
 10
327.73064465260967
 20
206.85666754762102
 10
328.44047881231427
 20
208.0392698936021
 10
328.94476016877576
 20
208.7447532155504
 10
329.2227205656965
 20
209.2708203005454
 10
329.75264214817224
 20
210.08969555523677
 10
330.0009393903407
 20
210.5162433771284
 10
330.176870042106
 20
210.7608623159359
 10
330.7041397850098
 20
211.82544890729852
 10
331.30755529359715
 20
212.77255441297987
 10
331.4327468681317
 20
213.10612279378316
 10
331.7716830309821
 20
213.75974144559822
 10
332.09864843424555
 20
214.466906567062
 10
332.3014042088129
 20
214.78753269677364
 10
332.65706811268296
 20
215.91491279845204
 10
333.08439220073274
 20
216.7937205731479
 10
333.15531084370355
 20
217.4173796841135
 10
333.5360133616375
 20
218.79343678129473
 10
333.4895312558783
 20
219.07864064583035
 10
333.45009771960395
 20
220.7861445097021
 10
333.05486279812004
 20
221.50995839889973
 10
332.4745561070746
 20
222.77791764027612
 10
331.7895896942954
 20
223.40745070681047
 10
330.151165004219
 20
224.77726305195247
 10
329.7816935813669
 20
224.97578084107388
 10
329.3629446049543
 20
225.19071296711124
 10
327.75812807807097
 20
226.0749128952327
 10
326.44174270773607
 20
226.78875753502652
 10
325.742378149277
 20
227.0803878163039
 10
325.2246375073492
 20
227.3031421266841
 10
323.7175579517311
 20
227.986482731111
 10
321.9980168599655
 20
228.80452135434868
 10
321.6980818484043
 20
228.92336030318856
 10
321.4866374065145
 20
229.01408699843816
 10
319.6728266502472
 20
229.8144313474285
 10
317.71869993715393
 20
230.7531634517019
 10
317.64760631172595
 20
230.78791147277835
 10
317.58180567261843
 20
230.82303485843372
 10
315.6261280898525
 20
231.73872981190632
 10
313.7171006667006
 20
232.72585200396477
 10
313.6008362494433
 20
232.78631059278305
 10
313.5053218602381
 20
232.84104859585588
 10
311.57853087614694
 20
233.8354966216161
 10
309.78567060386615
 20
234.85790082160585
 10
309.55576024535173
 20
234.9779575031691
 10
309.26930428205037
 20
235.143073539026
 10
307.530636253803
 20
236.14358021860798
 10
306.37051360168164
 20
236.87648176508893
 10
305.50764261319875
 20
237.38314340496711
 10
304.0798469831303
 20
238.29998922260106
 10
303.4827659193543
 20
238.68228632807845
 10
303.17703209493584
 20
238.89519419388412
 10
301.45974015964316
 20
240.01946738354948
 10
300.19921054141565
 20
240.91242240647674
 10
299.4365867950829
 20
241.42501716596067
 10
297.5651512708357
 20
242.77854929387743
 10
297.41214548147263
 20
242.88892710747663
 10
297.35751664544034
 20
242.93111941422094
 10
295.3890908769421
 20
244.38491897970178
 10
294.67244625270354
 20
244.9483920238508
 10
293.36597468323475
 20
245.93788079864558
 10
292.08400904925566
 20
246.96571963872387
 10
291.34282878682905
 20
247.54198686846357
 10
289.5821978058327
 20
248.98306355824533
 10
289.3196623729619
 20
249.1927648009353
 10
288.01728811874716
 20
250.28194741013672
 10
287.29598269981136
 20
250.88464664705188
 10
287.1619750032939
 20
251.0014175752477
 10
285.2729485682189
 20
252.61565816742942
 10
284.6702693524284
 20
253.15
 10
368.8122110825244
 20
253.15
 10
368.54916147962666
 20
252.78583762265097
 10
368.30319798345107
 20
252.46010927902947
 10
367.6726136121897
 20
251.63988957685146
  0
LWPOLYLINE
  5
94
330
17
100
AcDbEntity
  8
GRABADO
100
AcDbPolyline
 90
65
 70
1
 10
271.0336388187569
 20
150.16647595193194
 10
270.08604350058755
 20
149.2769794731983
 10
269.19659064483295
 20
148.32015846978743
 10
269.1126538966148
 20
148.23504961994672
 10
269.0390292669466
 20
148.1490383154328
 10
268.0726139160354
 20
147.25031949539482
 10
267.17357091768486
 20
146.30434017293493
 10
267.0878766366458
 20
146.21913323590684
 10
267.01047479608536
 20
146.13168819736813
 10
266.0434770772123
 20
145.23945642614683
 10
265.1506400258688
 20
144.31751726175867
 10
265.04867198956845
 20
144.2178245840327
 10
264.9544841572856
 20
144.11443240466673
 10
264.00180426233317
 20
143.24120294014995
 10
263.0
 20
142.2233577914444
 10
263.0
 20
173.4794149197059
 10
264.2535650175531
 20
173.32591850919312
 10
265.10468727552865
 20
173.27160645489727
 10
266.513816521703
 20
173.089150497626
 10
267.1275460360039
 20
173.04788284600346
 10
268.80872794096365
 20
172.8178336351188
 10
269.15042817579035
 20
172.79369190090722
 10
271.1446584301995
 20
172.5056193404548
 10
271.17331206870836
 20
172.50350083903533
 10
271.3497952259946
 20
172.47662823634442
 10
273.2052435490715
 20
172.11097744947517
 10
273.7246370715816
 20
171.95808286843948
 10
275.2290170613131
 20
171.63841050673545
 10
276.4610074846062
 20
171.24718706888996
 10
277.25293173292835
 20
171.0654350124912
 10
279.0307007832425
 20
170.45472813798096
 10
279.29506163085773
 20
170.30844388668459
 10
279.8119610447412
 20
169.9345193696821
 10
281.3223416321262
 20
168.9450988418149
 10
281.9471549252515
 20
168.41087236979303
 10
282.1661403147772
 20
167.57801251190085
 10
282.68634569426507
 20
166.356766057629
 10
282.37529271086066
 20
165.3180320866909
 10
282.3092845939658
 20
164.3104349362494
 10
281.91751427751615
 20
163.72744358669354
 10
281.34577898980325
 20
162.3617868964247
 10
281.32456179556334
 20
162.3168202037313
 10
281.31666485564017
 20
162.28555890559562
 10
280.4535509347519
 20
161.14601206348976
 10
279.9811009166136
 20
160.25723780154163
 10
279.6492445753878
 20
159.91655284200425
 10
279.31378590684045
 20
159.47018094025123
 10
278.76059064467177
 20
158.79525969479425
 10
278.4170629150972
 20
158.23823970919477
 10
277.8516010592307
 20
157.67314871738796
 10
277.28989988889754
 20
156.97303145197253
 10
276.941614133468
 20
156.5715726827721
 10
276.70109771539444
 20
156.21984885613733
 10
275.97488273539506
 20
155.50914487366538
 10
275.2663053822515
 20
154.6688451255099
 10
275.0457974563971
 20
154.42541204280116
 10
274.88069513195273
 20
154.20182063324944
 10
274.0454937886145
 20
153.39804468660134
 10
273.2429347326007
 20
152.482949943022
 10
273.09965327005705
 20
152.33008254205987
 10
272.98518535497544
 20
152.1840645141703
 10
272.0792165420447
 20
151.32400320996368
 10
271.2197037167033
 20
150.37468978385954
 10
271.11870154624836
 20
150.2698818310442
 10
271.0336388187569
 20
150.16647595193194
  0
TEXT
  5
95
330
17
100
AcDbEntity
  8
GRABADO
100
AcDbText
 10
400.2196748718437
 20
133.35631037413526
 30
0.0
 40
6.0
  1
12
 72
1
 11
400.2196748718437
 21
133.35631037413526
 31
0.0
100
AcDbText
 73
2
  0
TEXT
  5
96
330
17
100
AcDbEntity
  8
HOJA
100
AcDbText
 10
10.0
 20
691.0
 30
0.0
 40
6.0
  1
terreno_prueba  hoja 3/3  1:500  lamina 3.0mm
 11
10.0
 21
691.0
 31
0.0
100
AcDbText
  0
ENDSEC
  0
SECTION
  2
OBJECTS
  0
DICTIONARY
  5
A
330
0
100
AcDbDictionary
281
1
  3
ACAD_COLOR
350
B
  3
ACAD_GROUP
350
C
  3
ACAD_LAYOUT
350
D
  3
ACAD_MATERIAL
350
E
  3
ACAD_MLEADERSTYLE
350
F
  3
ACAD_MLINESTYLE
350
10
  3
ACAD_PLOTSETTINGS
350
11
  3
ACAD_PLOTSTYLENAME
350
12
  3
ACAD_SCALELIST
350
14
  3
ACAD_TABLESTYLE
350
15
  3
ACAD_VISUALSTYLE
350
16
  3
EZDXF_META
350
2D
  0
DICTIONARY
  5
B
330
A
100
AcDbDictionary
281
1
  0
DICTIONARY
  5
C
330
A
100
AcDbDictionary
281
1
  0
DICTIONARY
  5
D
330
A
100
AcDbDictionary
281
1
  3
Model
350
1A
  3
Layout1
350
1E
  0
DICTIONARY
  5
E
330
A
100
AcDbDictionary
281
1
  3
ByBlock
350
1F
  3
ByLayer
350
20
  3
Global
350
21
  0
DICTIONARY
  5
F
330
A
100
AcDbDictionary
281
1
  3
Standard
350
2C
  0
DICTIONARY
  5
10
330
A
100
AcDbDictionary
281
1
  3
Standard
350
22
  0
DICTIONARY
  5
11
330
A
100
AcDbDictionary
281
1
  0
ACDBDICTIONARYWDFLT
  5
12
330
A
100
AcDbDictionary
281
1
  3
Normal
350
13
100
AcDbDictionaryWithDefault
340
13
  0
ACDBPLACEHOLDER
  5
13
330
12
  0
DICTIONARY
  5
14
330
A
100
AcDbDictionary
281
1
  0
DICTIONARY
  5
15
330
A
100
AcDbDictionary
281
1
  0
DICTIONARY
  5
16
330
A
100
AcDbDictionary
281
1
  3
2dWireframe
350
5A
  3
Basic
350
5B
  3
Brighten
350
5C
  3
ColorChange
350
5D
  3
Conceptual
350
5E
  3
Dim
350
5F
  3
EdgeColorOff
350
60
  3
Facepattern
350
61
  3
Flat
350
62
  3
FlatWithEdges
350
63
  3
Gouraud
350
64
  3
GouraudWithEdges
350
65
  3
Hidden
350
66
  3
JitterOff
350
67
  3
Linepattern
350
68
  3
Modeling
350
69
  3
OverhangOff
350
6A
  3
Realistic
350
6B
  3
Shaded
350
6C
  3
Shaded with edges
350
6D
  3
Shades of Gray
350
6E
  3
Sketchy
350
6F
  3
Thicken
350
70
  3
Wireframe
350
71
  3
X-Ray
350
72
  0
LAYOUT
  5
1A
330
D
100
AcDbPlotSettings
  1

  4
A3
  6

 40
7.5
 41
20.0
 42
7.5
 43
20.0
 44
420.0
 45
297.0
 46
0.0
 47
0.0
 48
0.0
 49
0.0
140
0.0
141
0.0
142
1.0
143
1.0
 70
1024
 72
1
 73
0
 74
5
  7

 75
16
 76
0
 77
2
 78
300
147
1.0
148
0.0
149
0.0
100
AcDbLayout
  1
Model
 70
1
 71
0
 10
0.0
 20
0.0
 11
420.0
 21
297.0
 12
0.0
 22
0.0
 32
0.0
 14
1e+20
 24
1e+20
 34
1e+20
 15
-1e+20
 25
-1e+20
 35
-1e+20
146
0.0
 13
0.0
 23
0.0
 33
0.0
 16
1.0
 26
0.0
 36
0.0
 17
0.0
 27
1.0
 37
0.0
 76
1
330
17
  0
LAYOUT
  5
1E
330
D
100
AcDbPlotSettings
  1

  4
A3
  6

 40
7.5
 41
20.0
 42
7.5
 43
20.0
 44
420.0
 45
297.0
 46
0.0
 47
0.0
 48
0.0
 49
0.0
140
0.0
141
0.0
142
1.0
143
1.0
 70
0
 72
1
 73
0
 74
5
  7

 75
16
 76
0
 77
2
 78
300
147
1.0
148
0.0
149
0.0
100
AcDbLayout
  1
Layout1
 70
1
 71
1
 10
0.0
 20
0.0
 11
420.0
 21
297.0
 12
0.0
 22
0.0
 32
0.0
 14
1e+20
 24
1e+20
 34
1e+20
 15
-1e+20
 25
-1e+20
 35
-1e+20
146
0.0
 13
0.0
 23
0.0
 33
0.0
 16
1.0
 26
0.0
 36
0.0
 17
0.0
 27
1.0
 37
0.0
 76
1
330
1B
  0
MATERIAL
  5
1F
102
{ACAD_REACTORS
330
E
102
}
330
E
100
AcDbMaterial
  1
ByBlock
  2

 70
0
 40
1.0
 71
1
 41
1.0
 91
-1023410177
 42
1.0
 72
1
  3

 73
1
 74
1
 75
1
 44
0.5
 73
0
 45
1.0
 46
1.0
 77
1
  4

 78
1
 79
1
170
1
 48
1.0
171
1
  6

172
1
173
1
174
1
140
1.0
141
1.0
175
1
  7

176
1
177
1
178
1
143
1.0
179
1
  8

270
1
271
1
272
1
145
1.0
146
1.0
273
1
  9

274
1
275
1
276
1
 42
1.0
 72
1
  3

 73
1
 74
1
 75
1
 94
63
  0
MATERIAL
  5
20
102
{ACAD_REACTORS
330
E
102
}
330
E
100
AcDbMaterial
  1
ByLayer
  2

 70
0
 40
1.0
 71
1
 41
1.0
 91
-1023410177
 42
1.0
 72
1
  3

 73
1
 74
1
 75
1
 44
0.5
 73
0
 45
1.0
 46
1.0
 77
1
  4

 78
1
 79
1
170
1
 48
1.0
171
1
  6

172
1
173
1
174
1
140
1.0
141
1.0
175
1
  7

176
1
177
1
178
1
143
1.0
179
1
  8

270
1
271
1
272
1
145
1.0
146
1.0
273
1
  9

274
1
275
1
276
1
 42
1.0
 72
1
  3

 73
1
 74
1
 75
1
 94
63
  0
MATERIAL
  5
21
102
{ACAD_REACTORS
330
E
102
}
330
E
100
AcDbMaterial
  1
Global
  2

 70
0
 40
1.0
 71
1
 41
1.0
 91
-1023410177
 42
1.0
 72
1
  3

 73
1
 74
1
 75
1
 44
0.5
 73
0
 45
1.0
 46
1.0
 77
1
  4

 78
1
 79
1
170
1
 48
1.0
171
1
  6

172
1
173
1
174
1
140
1.0
141
1.0
175
1
  7

176
1
177
1
178
1
143
1.0
179
1
  8

270
1
271
1
272
1
145
1.0
146
1.0
273
1
  9

274
1
275
1
276
1
 42
1.0
 72
1
  3

 73
1
 74
1
 75
1
 94
63
  0
MLINESTYLE
  5
22
102
{ACAD_REACTORS
330
10
102
}
330
10
100
AcDbMlineStyle
  2
Standard
 70
0
  3

 62
256
 51
90.0
 52
90.0
 71
2
 49
0.5
 62
256
  6
BYLAYER
 49
-0.5
 62
256
  6
BYLAYER
  0
MLEADERSTYLE
  5
2C
102
{ACAD_REACTORS
330
F
102
}
330
F
100
AcDbMLeaderStyle
179
2
170
2
171
1
172
0
 90
2
 40
0.0
 41
0.0
173
1
 91
-1056964608
 92
-2
290
1
 42
2.0
291
1
 43
8.0
  3
Standard
 44
4.0
300

342
29
174
1
175
1
176
0
178
1
 93
-1056964608
 45
4.0
292
0
297
0
 46
4.0
 94
-1056964608
 47
1.0
 49
1.0
140
1.0
294
1
141
0.0
177
0
142
1.0
295
0
296
0
143
3.75
271
0
272
9
273
9
  0
DICTIONARY
  5
2D
330
A
100
AcDbDictionary
280
1
281
1
  3
CREATED_BY_EZDXF
350
2E
  3
WRITTEN_BY_EZDXF
350
99
  0
DICTIONARYVAR
  5
2E
330
2D
100
DictionaryVariables
280
0
  1
1.4.2 @ 2026-09-06T09:30:28.634016+00:00
  0
VISUALSTYLE
  5
5A
102
{ACAD_REACTORS
330
16
102
}
330
16
100
AcDbVisualStyle
  2
2dWireframe
 70
4
 90
0
 40
0.6
 62
7
290
0
291
0
  0
VISUALSTYLE
  5
5B
102
{ACAD_REACTORS
330
16
102
}
330
16
100
AcDbVisualStyle
  2
Basic
 70
7
 90
1
 40
0.6
 62
7
290
0
291
1
  0
VISUALSTYLE
  5
5C
102
{ACAD_REACTORS
330
16
102
}
330
16
100
AcDbVisualStyle
  2
Brighten
 70
12
 90
2
 40
0.6
 62
7
290
0
291
1
  0
VISUALSTYLE
  5
5D
102
{ACAD_REACTORS
330
16
102
}
330
16
100
AcDbVisualStyle
  2
ColorChange
 70
16
 90
2
 40
0.6
 62
8
290
0
291
1
  0
VISUALSTYLE
  5
5E
102
{ACAD_REACTORS
330
16
102
}
330
16
100
AcDbVisualStyle
  2
Conceptual
 70
9
 90
3
 40
0.6
 62
7
290
0
291
0
  0
VISUALSTYLE
  5
5F
102
{ACAD_REACTORS
330
16
102
}
330
16
100
AcDbVisualStyle
  2
Dim
 70
11
 90
2
 40
0.6
 62
7
290
0
291
1
  0
VISUALSTYLE
  5
60
102
{ACAD_REACTORS
330
16
102
}
330
16
100
AcDbVisualStyle
  2
EdgeColorOff
 70
22
 90
2
 40
0.6
 62
7
290
0
291
1
  0
VISUALSTYLE
  5
61
102
{ACAD_REACTORS
330
16
102
}
330
16
100
AcDbVisualStyle
  2
Facepattern
 70
15
 90
2
 40
0.6
 62
7
290
0
291
1
  0
VISUALSTYLE
  5
62
102
{ACAD_REACTORS
330
16
102
}
330
16
100
AcDbVisualStyle
  2
Flat
 70
0
 90
2
 40
0.6
 62
7
290
0
291
1
  0
VISUALSTYLE
  5
63
102
{ACAD_REACTORS
330
16
102
}
330
16
100
AcDbVisualStyle
  2
FlatWithEdges
 70
1
 90
2
 40
0.6
 62
7
290
0
291
1
  0
VISUALSTYLE
  5
64
102
{ACAD_REACTORS
330
16
102
}
330
16
100
AcDbVisualStyle
  2
Gouraud
 70
2
 90
2
 40
0.6
 62
7
290
0
291
1
  0
VISUALSTYLE
  5
65
102
{ACAD_REACTORS
330
16
102
}
330
16
100
AcDbVisualStyle
  2
GouraudWithEdges
 70
3
 90
2
 40
0.6
 62
7
290
0
291
1
  0
VISUALSTYLE
  5
66
102
{ACAD_REACTORS
330
16
102
}
330
16
100
AcDbVisualStyle
  2
Hidden
 70
6
 90
1
 40
0.6
 62
7
290
0
291
0
  0
VISUALSTYLE
  5
67
102
{ACAD_REACTORS
330
16
102
}
330
16
100
AcDbVisualStyle
  2
JitterOff
 70
20
 90
2
 40
0.6
 62
7
290
0
291
1
  0
VISUALSTYLE
  5
68
102
{ACAD_REACTORS
330
16
102
}
330
16
100
AcDbVisualStyle
  2
Linepattern
 70
14
 90
2
 40
0.6
 62
7
290
0
291
1
  0
VISUALSTYLE
  5
69
102
{ACAD_REACTORS
330
16
102
}
330
16
100
AcDbVisualStyle
  2
Modeling
 70
10
 90
2
 40
0.6
 62
7
290
0
291
0
  0
VISUALSTYLE
  5
6A
102
{ACAD_REACTORS
330
16
102
}
330
16
100
AcDbVisualStyle
  2
OverhangOff
 70
21
 90
2
 40
0.6
 62
7
290
0
291
1
  0
VISUALSTYLE
  5
6B
102
{ACAD_REACTORS
330
16
102
}
330
16
100
AcDbVisualStyle
  2
Realistic
 70
8
 90
2
 40
0.6
 62
7
290
0
291
0
  0
VISUALSTYLE
  5
6C
102
{ACAD_REACTORS
330
16
102
}
330
16
100
AcDbVisualStyle
  2
Shaded
 70
27
 90
2
 40
0.6
 62
7
290
0
291
0
  0
VISUALSTYLE
  5
6D
102
{ACAD_REACTORS
330
16
102
}
330
16
100
AcDbVisualStyle
  2
Shaded with edges
 70
26
 90
2
 40
0.6
 62
7
290
0
291
0
  0
VISUALSTYLE
  5
6E
102
{ACAD_REACTORS
330
16
102
}
330
16
100
AcDbVisualStyle
  2
Shades of Gray
 70
23
 90
2
 40
0.6
 62
7
290
0
291
0
  0
VISUALSTYLE
  5
6F
102
{ACAD_REACTORS
330
16
102
}
330
16
100
AcDbVisualStyle
  2
Sketchy
 70
24
 90
1
 40
0.6
 62
7
290
0
291
0
  0
VISUALSTYLE
  5
70
102
{ACAD_REACTORS
330
16
102
}
330
16
100
AcDbVisualStyle
  2
Thicken
 70
13
 90
2
 40
0.6
 62
7
290
0
291
1
  0
VISUALSTYLE
  5
71
102
{ACAD_REACTORS
330
16
102
}
330
16
100
AcDbVisualStyle
  2
Wireframe
 70
5
 90
0
 40
0.6
 62
7
290
0
291
0
  0
VISUALSTYLE
  5
72
102
{ACAD_REACTORS
330
16
102
}
330
16
100
AcDbVisualStyle
  2
X-Ray
 70
25
 90
2
 40
0.5
 62
7
290
0
291
0
  0
DICTIONARYVAR
  5
99
330
2D
100
DictionaryVariables
280
0
  1
1.4.2 @ 2026-09-06T09:30:28.644082+00:00
  0
ENDSEC
  0
EOF
